<?xml version="1.0" encoding="UTF-8" standalone="no"?>
<!DOCTYPE svg PUBLIC "-//W3C//DTD SVG 1.1//EN"
 "http://www.w3.org/Graphics/SVG/1.1/DTD/svg11.dtd">
<!-- Generated by graphviz version 2.43.0 (0)
 -->
<!-- Title: lyra::arguments::parse_sequence Pages: 1 -->
<svg width="324pt" height="236pt"
 viewBox="0.00 0.00 324.00 235.50" xmlns="http://www.w3.org/2000/svg" xmlns:xlink="http://www.w3.org/1999/xlink">
<g id="graph0" class="graph" transform="scale(1 1) rotate(0) translate(4 231.5)">
<title>lyra::arguments::parse_sequence</title>
<polygon fill="white" stroke="transparent" points="-4,4 -4,-231.5 320,-231.5 320,4 -4,4"/>
<!-- Node1 -->
<g id="node1" class="node">
<title>Node1</title>
<g id="a_node1"><a xlink:title=" ">
<polygon fill="#bfbfbf" stroke="black" points="0,-104 0,-134 127,-134 127,-104 0,-104"/>
<text text-anchor="start" x="8" y="-122" font-family="Helvetica,sans-Serif" font-size="10.00">lyra::arguments::parse</text>
<text text-anchor="middle" x="63.5" y="-111" font-family="Helvetica,sans-Serif" font-size="10.00">_sequence</text>
</a>
</g>
</g>
<!-- Node2 -->
<g id="node2" class="node">
<title>Node2</title>
<g id="a_node2"><a xlink:href="classlyra_1_1detail_1_1token__iterator.html#ac3007dcca2221df17bcfba6815a60aff" target="_top" xlink:title=" ">
<polygon fill="white" stroke="black" points="184,-197 184,-227 295,-227 295,-197 184,-197"/>
<text text-anchor="start" x="192" y="-215" font-family="Helvetica,sans-Serif" font-size="10.00">lyra::detail::token</text>
<text text-anchor="middle" x="239.5" y="-204" font-family="Helvetica,sans-Serif" font-size="10.00">_iterator::argument</text>
</a>
</g>
</g>
<!-- Node1&#45;&gt;Node2 -->
<g id="edge1" class="edge">
<title>Node1&#45;&gt;Node2</title>
<path fill="none" stroke="midnightblue" d="M83.11,-134.26C102.2,-149.32 133.24,-172.18 163,-187 167.52,-189.25 172.29,-191.37 177.14,-193.34"/>
<polygon fill="midnightblue" stroke="midnightblue" points="175.95,-196.64 186.54,-196.97 178.47,-190.11 175.95,-196.64"/>
</g>
<!-- Node3 -->
<g id="node3" class="node">
<title>Node3</title>
<g id="a_node3"><a xlink:href="namespace_main_namespace.html#ac3a415fa8d1b6b56dfe215f13c7f67b1" target="_top" xlink:title=" ">
<polygon fill="white" stroke="black" points="174,-158.5 174,-177.5 305,-177.5 305,-158.5 174,-158.5"/>
<text text-anchor="middle" x="239.5" y="-165.5" font-family="Helvetica,sans-Serif" font-size="10.00">MainNamespace::count</text>
</a>
</g>
</g>
<!-- Node1&#45;&gt;Node3 -->
<g id="edge2" class="edge">
<title>Node1&#45;&gt;Node3</title>
<path fill="none" stroke="midnightblue" d="M112.46,-134.12C128.48,-139.04 146.47,-144.4 163,-149 171.42,-151.34 180.41,-153.71 189.13,-155.95"/>
<polygon fill="midnightblue" stroke="midnightblue" points="188.27,-159.34 198.83,-158.41 189.99,-152.55 188.27,-159.34"/>
</g>
<!-- Node4 -->
<g id="node4" class="node">
<title>Node4</title>
<g id="a_node4"><a xlink:href="classlyra_1_1detail_1_1basic__result.html#ae878693d416cc48943171ab4187f5719" target="_top" xlink:title=" ">
<polygon fill="white" stroke="black" points="178.5,-98.5 178.5,-139.5 300.5,-139.5 300.5,-98.5 178.5,-98.5"/>
<text text-anchor="start" x="186.5" y="-127.5" font-family="Helvetica,sans-Serif" font-size="10.00">lyra::detail::basic</text>
<text text-anchor="start" x="186.5" y="-116.5" font-family="Helvetica,sans-Serif" font-size="10.00">_result&lt; detail::parse</text>
<text text-anchor="middle" x="239.5" y="-105.5" font-family="Helvetica,sans-Serif" font-size="10.00">_state &gt;::error</text>
</a>
</g>
</g>
<!-- Node1&#45;&gt;Node4 -->
<g id="edge3" class="edge">
<title>Node1&#45;&gt;Node4</title>
<path fill="none" stroke="midnightblue" d="M127.32,-119C140.58,-119 154.66,-119 168.18,-119"/>
<polygon fill="midnightblue" stroke="midnightblue" points="168.39,-122.5 178.39,-119 168.39,-115.5 168.39,-122.5"/>
</g>
<!-- Node5 -->
<g id="node5" class="node">
<title>Node5</title>
<g id="a_node5"><a xlink:href="classlyra_1_1parser.html#a59a2a42cea85955a811279a463777b9d" target="_top" xlink:title=" ">
<polygon fill="white" stroke="black" points="163,-60.5 163,-79.5 316,-79.5 316,-60.5 163,-60.5"/>
<text text-anchor="middle" x="239.5" y="-67.5" font-family="Helvetica,sans-Serif" font-size="10.00">lyra::parser::get_usage_text</text>
</a>
</g>
</g>
<!-- Node1&#45;&gt;Node5 -->
<g id="edge4" class="edge">
<title>Node1&#45;&gt;Node5</title>
<path fill="none" stroke="midnightblue" d="M112.46,-103.88C128.48,-98.96 146.47,-93.6 163,-89 171.42,-86.66 180.41,-84.29 189.13,-82.05"/>
<polygon fill="midnightblue" stroke="midnightblue" points="189.99,-85.45 198.83,-79.59 188.27,-78.66 189.99,-85.45"/>
</g>
<!-- Node6 -->
<g id="node6" class="node">
<title>Node6</title>
<g id="a_node6"><a xlink:href="classlyra_1_1detail_1_1basic__result.html#aee577409a431e215136ffc0764e5432b" target="_top" xlink:title=" ">
<polygon fill="white" stroke="black" points="178.5,-0.5 178.5,-41.5 300.5,-41.5 300.5,-0.5 178.5,-0.5"/>
<text text-anchor="start" x="186.5" y="-29.5" font-family="Helvetica,sans-Serif" font-size="10.00">lyra::detail::basic</text>
<text text-anchor="start" x="186.5" y="-18.5" font-family="Helvetica,sans-Serif" font-size="10.00">_result&lt; detail::parse</text>
<text text-anchor="middle" x="239.5" y="-7.5" font-family="Helvetica,sans-Serif" font-size="10.00">_state &gt;::ok</text>
</a>
</g>
</g>
<!-- Node1&#45;&gt;Node6 -->
<g id="edge5" class="edge">
<title>Node1&#45;&gt;Node6</title>
<path fill="none" stroke="midnightblue" d="M83.66,-103.82C102.93,-89.04 133.87,-66.59 163,-51 166.3,-49.23 169.73,-47.51 173.23,-45.84"/>
<polygon fill="midnightblue" stroke="midnightblue" points="174.96,-48.9 182.59,-41.55 172.05,-42.53 174.96,-48.9"/>
</g>
</g>
</svg>
