<?xml version="1.0" encoding="UTF-8" standalone="no"?>
<!DOCTYPE svg PUBLIC "-//W3C//DTD SVG 1.1//EN"
 "http://www.w3.org/Graphics/SVG/1.1/DTD/svg11.dtd">
<!-- Generated by graphviz version 2.43.0 (0)
 -->
<!-- Title: lyra::args::args Pages: 1 -->
<svg width="691pt" height="79pt"
 viewBox="0.00 0.00 691.00 79.00" xmlns="http://www.w3.org/2000/svg" xmlns:xlink="http://www.w3.org/1999/xlink">
<g id="graph0" class="graph" transform="scale(1 1) rotate(0) translate(4 75)">
<title>lyra::args::args</title>
<polygon fill="white" stroke="transparent" points="-4,4 -4,-75 687,-75 687,4 -4,4"/>
<!-- Node1 -->
<g id="node1" class="node">
<title>Node1</title>
<g id="a_node1"><a xlink:title=" ">
<polygon fill="#bfbfbf" stroke="black" points="594,-6 594,-25 683,-25 683,-6 594,-6"/>
<text text-anchor="middle" x="638.5" y="-13" font-family="Helvetica,sans-Serif" font-size="10.00">lyra::args::args</text>
</a>
</g>
</g>
<!-- Node2 -->
<g id="node2" class="node">
<title>Node2</title>
<g id="a_node2"><a xlink:href="classgen__single__include_1_1_gen_single_include.html#a7d56d410e149590a3f52aed3ce9c4d23" target="_top" xlink:title=" ">
<polygon fill="white" stroke="black" points="396,-22.5 396,-52.5 558,-52.5 558,-22.5 396,-22.5"/>
<text text-anchor="start" x="404" y="-40.5" font-family="Helvetica,sans-Serif" font-size="10.00">gen_single_include.GenSingle</text>
<text text-anchor="middle" x="477" y="-29.5" font-family="Helvetica,sans-Serif" font-size="10.00">Include.resolve_include</text>
</a>
</g>
</g>
<!-- Node1&#45;&gt;Node2 -->
<g id="edge1" class="edge">
<title>Node1&#45;&gt;Node2</title>
<path fill="none" stroke="midnightblue" d="M583.97,-22.88C575.61,-24.04 566.82,-25.25 558.03,-26.46"/>
<polygon fill="midnightblue" stroke="midnightblue" points="584.49,-26.35 593.92,-21.51 583.53,-19.41 584.49,-26.35"/>
</g>
<!-- Node4 -->
<g id="node4" class="node">
<title>Node4</title>
<g id="a_node4"><a xlink:href="classgen__single__include_1_1_gen_single_include.html#a739cd56e45b4741214e672bd59b1363c" target="_top" xlink:title=" ">
<polygon fill="white" stroke="black" points="0,-0.5 0,-30.5 162,-30.5 162,-0.5 0,-0.5"/>
<text text-anchor="start" x="8" y="-18.5" font-family="Helvetica,sans-Serif" font-size="10.00">gen_single_include.GenSingle</text>
<text text-anchor="middle" x="81" y="-7.5" font-family="Helvetica,sans-Serif" font-size="10.00">Include.run</text>
</a>
</g>
</g>
<!-- Node1&#45;&gt;Node4 -->
<g id="edge5" class="edge">
<title>Node1&#45;&gt;Node4</title>
<path fill="none" stroke="midnightblue" d="M583.5,-13.19C574.97,-12.9 566.25,-12.66 558,-12.5 398.03,-9.48 357.99,-10.43 198,-12.5 186.42,-12.65 174.19,-12.88 162.18,-13.16"/>
<polygon fill="midnightblue" stroke="midnightblue" points="583.65,-16.7 593.77,-13.55 583.9,-9.7 583.65,-16.7"/>
</g>
<!-- Node3 -->
<g id="node3" class="node">
<title>Node3</title>
<g id="a_node3"><a xlink:href="classgen__single__include_1_1_gen_single_include.html#a36e838f61fe9e1ecae686f67f5720cb9" target="_top" xlink:title=" ">
<polygon fill="white" stroke="black" points="198,-22.5 198,-52.5 360,-52.5 360,-22.5 198,-22.5"/>
<text text-anchor="start" x="206" y="-40.5" font-family="Helvetica,sans-Serif" font-size="10.00">gen_single_include.GenSingle</text>
<text text-anchor="middle" x="279" y="-29.5" font-family="Helvetica,sans-Serif" font-size="10.00">Include.cpp</text>
</a>
</g>
</g>
<!-- Node2&#45;&gt;Node3 -->
<g id="edge2" class="edge">
<title>Node2&#45;&gt;Node3</title>
<path fill="none" stroke="midnightblue" d="M385.92,-37.5C377.3,-37.5 368.59,-37.5 360.07,-37.5"/>
<polygon fill="midnightblue" stroke="midnightblue" points="386,-41 396,-37.5 386,-34 386,-41"/>
</g>
<!-- Node3&#45;&gt;Node3 -->
<g id="edge3" class="edge">
<title>Node3&#45;&gt;Node3</title>
<path fill="none" stroke="midnightblue" d="M314.18,-62.96C309.82,-67.68 298.09,-71 279,-71 247.68,-71 236.17,-62.06 244.49,-52.66"/>
<polygon fill="midnightblue" stroke="midnightblue" points="317.65,-62.41 313.51,-52.66 310.67,-62.87 317.65,-62.41"/>
</g>
<!-- Node3&#45;&gt;Node4 -->
<g id="edge4" class="edge">
<title>Node3&#45;&gt;Node4</title>
<path fill="none" stroke="midnightblue" d="M187.92,-27.39C179.3,-26.42 170.59,-25.44 162.07,-24.49"/>
<polygon fill="midnightblue" stroke="midnightblue" points="187.67,-30.88 198,-28.52 188.45,-23.93 187.67,-30.88"/>
</g>
</g>
</svg>
