<?xml version="1.0" encoding="UTF-8" standalone="no"?>
<!DOCTYPE svg PUBLIC "-//W3C//DTD SVG 1.1//EN"
 "http://www.w3.org/Graphics/SVG/1.1/DTD/svg11.dtd">
<!-- Generated by graphviz version 2.43.0 (0)
 -->
<!-- Title: lyra::detail::token_iterator::option Pages: 1 -->
<svg width="580pt" height="190pt"
 viewBox="0.00 0.00 580.00 190.16" xmlns="http://www.w3.org/2000/svg" xmlns:xlink="http://www.w3.org/1999/xlink">
<g id="graph0" class="graph" transform="scale(1 1) rotate(0) translate(4 186.16)">
<title>lyra::detail::token_iterator::option</title>
<polygon fill="white" stroke="transparent" points="-4,4 -4,-186.16 576,-186.16 576,4 -4,4"/>
<!-- Node1 -->
<g id="node1" class="node">
<title>Node1</title>
<g id="a_node1"><a xlink:title=" ">
<polygon fill="#bfbfbf" stroke="black" points="0,-56.16 0,-86.16 102,-86.16 102,-56.16 0,-56.16"/>
<text text-anchor="start" x="8" y="-74.16" font-family="Helvetica,sans-Serif" font-size="10.00">lyra::detail::token</text>
<text text-anchor="middle" x="51" y="-63.16" font-family="Helvetica,sans-Serif" font-size="10.00">_iterator::option</text>
</a>
</g>
</g>
<!-- Node2 -->
<g id="node2" class="node">
<title>Node2</title>
<g id="a_node2"><a xlink:href="classlyra_1_1detail_1_1token__iterator.html#a8006318eb718713b45bd0c7064d3e87f" target="_top" xlink:title=" ">
<polygon fill="white" stroke="black" points="141,-140.66 141,-181.66 248,-181.66 248,-140.66 141,-140.66"/>
<text text-anchor="start" x="149" y="-169.66" font-family="Helvetica,sans-Serif" font-size="10.00">lyra::detail::token</text>
<text text-anchor="start" x="149" y="-158.66" font-family="Helvetica,sans-Serif" font-size="10.00">_iterator::has_long</text>
<text text-anchor="middle" x="194.5" y="-147.66" font-family="Helvetica,sans-Serif" font-size="10.00">_option_prefix</text>
</a>
</g>
</g>
<!-- Node1&#45;&gt;Node2 -->
<g id="edge1" class="edge">
<title>Node1&#45;&gt;Node2</title>
<path fill="none" stroke="midnightblue" d="M72.41,-86.39C89.56,-98.94 114.91,-116.93 138,-131.16 140.32,-132.59 142.72,-134.03 145.16,-135.46"/>
<polygon fill="midnightblue" stroke="midnightblue" points="143.65,-138.63 154.07,-140.57 147.13,-132.56 143.65,-138.63"/>
</g>
<!-- Node5 -->
<g id="node5" class="node">
<title>Node5</title>
<g id="a_node5"><a xlink:href="classlyra_1_1detail_1_1token__iterator.html#a368b12d3ecc2c462c24e1d8723ce5f4f" target="_top" xlink:title=" ">
<polygon fill="white" stroke="black" points="139,-80.66 139,-121.66 250,-121.66 250,-80.66 139,-80.66"/>
<text text-anchor="start" x="147" y="-109.66" font-family="Helvetica,sans-Serif" font-size="10.00">lyra::detail::token</text>
<text text-anchor="start" x="147" y="-98.66" font-family="Helvetica,sans-Serif" font-size="10.00">_iterator::has_short</text>
<text text-anchor="middle" x="194.5" y="-87.66" font-family="Helvetica,sans-Serif" font-size="10.00">_option_prefix</text>
</a>
</g>
</g>
<!-- Node1&#45;&gt;Node5 -->
<g id="edge4" class="edge">
<title>Node1&#45;&gt;Node5</title>
<path fill="none" stroke="midnightblue" d="M102.29,-81.82C110.83,-83.63 119.81,-85.54 128.66,-87.41"/>
<polygon fill="midnightblue" stroke="midnightblue" points="128.06,-90.87 138.57,-89.52 129.51,-84.02 128.06,-90.87"/>
</g>
<!-- Node6 -->
<g id="node6" class="node">
<title>Node6</title>
<g id="a_node6"><a xlink:href="classlyra_1_1detail_1_1token__iterator.html#adc46ba6c523a1633f29e0b4d5d46b591" target="_top" xlink:title=" ">
<polygon fill="white" stroke="black" points="138,-20.66 138,-61.66 251,-61.66 251,-20.66 138,-20.66"/>
<text text-anchor="start" x="146" y="-49.66" font-family="Helvetica,sans-Serif" font-size="10.00">lyra::detail::token</text>
<text text-anchor="start" x="146" y="-38.66" font-family="Helvetica,sans-Serif" font-size="10.00">_iterator::has_value</text>
<text text-anchor="middle" x="194.5" y="-27.66" font-family="Helvetica,sans-Serif" font-size="10.00">_delimiter</text>
</a>
</g>
</g>
<!-- Node1&#45;&gt;Node6 -->
<g id="edge6" class="edge">
<title>Node1&#45;&gt;Node6</title>
<path fill="none" stroke="midnightblue" d="M102.29,-60.5C110.51,-58.76 119.13,-56.93 127.66,-55.12"/>
<polygon fill="midnightblue" stroke="midnightblue" points="128.54,-58.51 137.6,-53.01 127.09,-51.66 128.54,-58.51"/>
</g>
<!-- Node7 -->
<g id="node7" class="node">
<title>Node7</title>
<g id="a_node7"><a xlink:href="classlyra_1_1detail_1_1token__iterator.html#a4b9804103166e371b0adadc84ff9368d" target="_top" xlink:title=" ">
<polygon fill="white" stroke="black" points="287,-4.16 287,-34.16 412,-34.16 412,-4.16 287,-4.16"/>
<text text-anchor="start" x="295" y="-22.16" font-family="Helvetica,sans-Serif" font-size="10.00">lyra::detail::token</text>
<text text-anchor="middle" x="349.5" y="-11.16" font-family="Helvetica,sans-Serif" font-size="10.00">_iterator::prefix_value</text>
</a>
</g>
</g>
<!-- Node1&#45;&gt;Node7 -->
<g id="edge7" class="edge">
<title>Node1&#45;&gt;Node7</title>
<path fill="none" stroke="midnightblue" d="M67.19,-56.14C83.23,-41.42 110.04,-19.95 138,-11.16 182.64,2.87 235.24,0.88 276.69,-4.63"/>
<polygon fill="midnightblue" stroke="midnightblue" points="276.32,-8.11 286.71,-6.05 277.3,-1.18 276.32,-8.11"/>
</g>
<!-- Node3 -->
<g id="node3" class="node">
<title>Node3</title>
<g id="a_node3"><a xlink:href="classlyra_1_1detail_1_1token__iterator.html#a3f0301c7bb2bfe10f71739a26f9af219" target="_top" xlink:title=" ">
<polygon fill="white" stroke="black" points="290.5,-86.16 290.5,-116.16 408.5,-116.16 408.5,-86.16 290.5,-86.16"/>
<text text-anchor="start" x="298.5" y="-104.16" font-family="Helvetica,sans-Serif" font-size="10.00">lyra::detail::token</text>
<text text-anchor="middle" x="349.5" y="-93.16" font-family="Helvetica,sans-Serif" font-size="10.00">_iterator::is_prefixed</text>
</a>
</g>
</g>
<!-- Node2&#45;&gt;Node3 -->
<g id="edge2" class="edge">
<title>Node2&#45;&gt;Node3</title>
<path fill="none" stroke="midnightblue" d="M248.15,-140.51C265.21,-133.83 284.02,-126.45 300.7,-119.91"/>
<polygon fill="midnightblue" stroke="midnightblue" points="302.21,-123.07 310.24,-116.16 299.66,-116.56 302.21,-123.07"/>
</g>
<!-- Node4 -->
<g id="node4" class="node">
<title>Node4</title>
<g id="a_node4"><a xlink:href="namespace_main_namespace.html#a8104aa37d7d31758ac725060a96f07d9" target="_top" xlink:title=" ">
<polygon fill="white" stroke="black" points="448,-63.66 448,-82.66 572,-82.66 572,-63.66 448,-63.66"/>
<text text-anchor="middle" x="510" y="-70.66" font-family="Helvetica,sans-Serif" font-size="10.00">MainNamespace::size</text>
</a>
</g>
</g>
<!-- Node3&#45;&gt;Node4 -->
<g id="edge3" class="edge">
<title>Node3&#45;&gt;Node4</title>
<path fill="none" stroke="midnightblue" d="M408.62,-90.89C420.49,-88.8 433.05,-86.58 445.11,-84.45"/>
<polygon fill="midnightblue" stroke="midnightblue" points="445.86,-87.87 455.1,-82.68 444.64,-80.98 445.86,-87.87"/>
</g>
<!-- Node5&#45;&gt;Node3 -->
<g id="edge5" class="edge">
<title>Node5&#45;&gt;Node3</title>
<path fill="none" stroke="midnightblue" d="M250.3,-101.16C259.98,-101.16 270.16,-101.16 280.15,-101.16"/>
<polygon fill="midnightblue" stroke="midnightblue" points="280.46,-104.66 290.46,-101.16 280.46,-97.66 280.46,-104.66"/>
</g>
<!-- Node7&#45;&gt;Node4 -->
<g id="edge8" class="edge">
<title>Node7&#45;&gt;Node4</title>
<path fill="none" stroke="midnightblue" d="M394.65,-34.2C418.75,-42.41 448.27,-52.47 471.28,-60.31"/>
<polygon fill="midnightblue" stroke="midnightblue" points="470.44,-63.72 481.03,-63.63 472.69,-57.1 470.44,-63.72"/>
</g>
</g>
</svg>
