<?xml version="1.0" encoding="UTF-8" standalone="no"?>
<!DOCTYPE svg PUBLIC "-//W3C//DTD SVG 1.1//EN"
 "http://www.w3.org/Graphics/SVG/1.1/DTD/svg11.dtd">
<!-- Generated by graphviz version 2.43.0 (0)
 -->
<!-- Title: lyra::arguments Pages: 1 -->
<svg width="995pt" height="287pt"
 viewBox="0.00 0.00 995.00 286.50" xmlns="http://www.w3.org/2000/svg" xmlns:xlink="http://www.w3.org/1999/xlink">
<g id="graph0" class="graph" transform="scale(1 1) rotate(0) translate(4 282.5)">
<title>lyra::arguments</title>
<polygon fill="white" stroke="transparent" points="-4,4 -4,-282.5 991,-282.5 991,4 -4,4"/>
<!-- Node1 -->
<g id="node1" class="node">
<title>Node1</title>
<g id="a_node1"><a xlink:title=" ">
<polygon fill="#bfbfbf" stroke="black" points="893,-184 893,-203 987,-203 987,-184 893,-184"/>
<text text-anchor="middle" x="940" y="-191" font-family="Helvetica,sans-Serif" font-size="10.00">lyra::arguments</text>
</a>
</g>
</g>
<!-- Node2 -->
<g id="node2" class="node">
<title>Node2</title>
<g id="a_node2"><a xlink:href="classlyra_1_1parser.html" target="_top" xlink:title=" ">
<polygon fill="white" stroke="black" points="212,-259 212,-278 284,-278 284,-259 212,-259"/>
<text text-anchor="middle" x="248" y="-266" font-family="Helvetica,sans-Serif" font-size="10.00">lyra::parser</text>
</a>
</g>
</g>
<!-- Node2&#45;&gt;Node1 -->
<g id="edge1" class="edge">
<title>Node2&#45;&gt;Node1</title>
<path fill="none" stroke="midnightblue" d="M294.11,-259.77C388.1,-247.72 611.71,-228.27 799,-208.5 832.83,-204.93 841.5,-205.39 875,-199.5 880.84,-198.47 886.96,-197.24 892.98,-196.01"/>
<polygon fill="midnightblue" stroke="midnightblue" points="293.55,-256.31 284.1,-261.09 294.47,-263.25 293.55,-256.31"/>
</g>
<!-- Node2&#45;&gt;Node1 -->
<g id="edge2" class="edge">
<title>Node2&#45;&gt;Node1</title>
<path fill="none" stroke="midnightblue" d="M294.11,-269.64C388.1,-265.72 611.71,-246.27 799,-226.5 832.83,-222.93 841.5,-223.39 875,-217.5 893.66,-214.22 915.03,-208.89 927.75,-203.09"/>
<polygon fill="midnightblue" stroke="midnightblue" points="293.96,-266.15 284.1,-270.02 294.22,-273.14 293.96,-266.15"/>
</g>
<!-- Node11 -->
<g id="node11" class="node">
<title>Node11</title>
<g id="a_node11"><a xlink:title=" ">
<polygon fill="white" stroke="black" points="461,-142.5 461,-172.5 580,-172.5 580,-142.5 461,-142.5"/>
<text text-anchor="start" x="469" y="-160.5" font-family="Helvetica,sans-Serif" font-size="10.00">std::unique_ptr&lt; lyra</text>
<text text-anchor="middle" x="520.5" y="-149.5" font-family="Helvetica,sans-Serif" font-size="10.00">::parser &gt;</text>
</a>
</g>
</g>
<!-- Node2&#45;&gt;Node11 -->
<g id="edge12" class="edge">
<title>Node2&#45;&gt;Node11</title>
<path fill="none" stroke="#9a32cd" stroke-dasharray="5,2" d="M276.49,-254.44C290.68,-247.64 308.45,-239.81 325,-234.5 375.96,-218.14 397.48,-238.64 443,-210.5 454.04,-203.67 450.99,-195.77 461,-187.5 467.86,-181.83 475.98,-176.83 483.94,-172.62"/>
<polygon fill="#9a32cd" stroke="#9a32cd" points="274.73,-251.4 267.29,-258.94 277.81,-257.69 274.73,-251.4"/>
<text text-anchor="middle" x="384" y="-237.5" font-family="Helvetica,sans-Serif" font-size="10.00"> ptr</text>
</g>
<!-- Node3 -->
<g id="node3" class="node">
<title>Node3</title>
<g id="a_node3"><a xlink:title=" ">
<polygon fill="white" stroke="black" points="672.5,-118.5 672.5,-148.5 791.5,-148.5 791.5,-118.5 672.5,-118.5"/>
<text text-anchor="start" x="680.5" y="-136.5" font-family="Helvetica,sans-Serif" font-size="10.00">std::shared_ptr&lt; lyra</text>
<text text-anchor="middle" x="732" y="-125.5" font-family="Helvetica,sans-Serif" font-size="10.00">::option_style &gt;</text>
</a>
</g>
</g>
<!-- Node3&#45;&gt;Node1 -->
<g id="edge3" class="edge">
<title>Node3&#45;&gt;Node1</title>
<path fill="none" stroke="#9a32cd" stroke-dasharray="5,2" d="M794.34,-151.37C831.06,-162.06 876.27,-175.23 906.27,-183.97"/>
<polygon fill="#9a32cd" stroke="#9a32cd" points="795.3,-148 784.72,-148.56 793.34,-154.72 795.3,-148"/>
<text text-anchor="middle" x="846" y="-177.5" font-family="Helvetica,sans-Serif" font-size="10.00"> opt_style</text>
</g>
<!-- Node4 -->
<g id="node4" class="node">
<title>Node4</title>
<g id="a_node4"><a xlink:href="structlyra_1_1option__style.html" target="_top" xlink:title=" ">
<polygon fill="white" stroke="black" points="470,-57 470,-76 571,-76 571,-57 470,-57"/>
<text text-anchor="middle" x="520.5" y="-64" font-family="Helvetica,sans-Serif" font-size="10.00">lyra::option_style</text>
</a>
</g>
</g>
<!-- Node4&#45;&gt;Node3 -->
<g id="edge4" class="edge">
<title>Node4&#45;&gt;Node3</title>
<path fill="none" stroke="#9a32cd" stroke-dasharray="5,2" d="M581.34,-68.07C603.13,-70.76 627.24,-76.34 647,-87.5 657.7,-93.54 654.94,-101.44 665,-108.5 670.42,-112.3 676.48,-115.61 682.69,-118.47"/>
<polygon fill="#9a32cd" stroke="#9a32cd" points="581.5,-64.57 571.19,-67 580.77,-71.53 581.5,-64.57"/>
<text text-anchor="middle" x="622.5" y="-90.5" font-family="Helvetica,sans-Serif" font-size="10.00"> ptr</text>
</g>
<!-- Node5 -->
<g id="node5" class="node">
<title>Node5</title>
<g id="a_node5"><a xlink:title=" ">
<polygon fill="white" stroke="black" points="215.5,-6 215.5,-25 280.5,-25 280.5,-6 215.5,-6"/>
<text text-anchor="middle" x="248" y="-13" font-family="Helvetica,sans-Serif" font-size="10.00">std::string</text>
</a>
</g>
</g>
<!-- Node5&#45;&gt;Node4 -->
<g id="edge5" class="edge">
<title>Node5&#45;&gt;Node4</title>
<path fill="none" stroke="#9a32cd" stroke-dasharray="5,2" d="M290.94,-14.81C330.71,-15.12 391.83,-18.12 443,-31.5 464.76,-37.19 488.02,-48.7 503.11,-56.97"/>
<polygon fill="#9a32cd" stroke="#9a32cd" points="290.82,-11.31 280.81,-14.79 290.8,-18.31 290.82,-11.31"/>
<text text-anchor="middle" x="384" y="-56.5" font-family="Helvetica,sans-Serif" font-size="10.00"> long_option_prefix</text>
<text text-anchor="middle" x="384" y="-45.5" font-family="Helvetica,sans-Serif" font-size="10.00">short_option_prefix</text>
<text text-anchor="middle" x="384" y="-34.5" font-family="Helvetica,sans-Serif" font-size="10.00">value_delimiters</text>
</g>
<!-- Node6 -->
<g id="node6" class="node">
<title>Node6</title>
<g id="a_node6"><a xlink:title=" ">
<polygon fill="white" stroke="black" points="0,-0.5 0,-30.5 104,-30.5 104,-0.5 0,-0.5"/>
<text text-anchor="start" x="8" y="-18.5" font-family="Helvetica,sans-Serif" font-size="10.00">std::basic_string&lt;</text>
<text text-anchor="middle" x="52" y="-7.5" font-family="Helvetica,sans-Serif" font-size="10.00"> Char &gt;</text>
</a>
</g>
</g>
<!-- Node6&#45;&gt;Node5 -->
<g id="edge6" class="edge">
<title>Node6&#45;&gt;Node5</title>
<path fill="none" stroke="midnightblue" d="M114.39,-15.5C147.91,-15.5 188.01,-15.5 215.27,-15.5"/>
<polygon fill="midnightblue" stroke="midnightblue" points="114.23,-12 104.22,-15.5 114.22,-19 114.23,-12"/>
</g>
<!-- Node7 -->
<g id="node7" class="node">
<title>Node7</title>
<g id="a_node7"><a xlink:title=" ">
<polygon fill="white" stroke="black" points="225.5,-62 225.5,-81 270.5,-81 270.5,-62 225.5,-62"/>
<text text-anchor="middle" x="248" y="-69" font-family="Helvetica,sans-Serif" font-size="10.00">size_t</text>
</a>
</g>
</g>
<!-- Node7&#45;&gt;Node4 -->
<g id="edge7" class="edge">
<title>Node7&#45;&gt;Node4</title>
<path fill="none" stroke="#9a32cd" stroke-dasharray="5,2" d="M280.8,-70.91C327.42,-70.05 414.75,-68.44 469.86,-67.42"/>
<polygon fill="#9a32cd" stroke="#9a32cd" points="280.61,-67.41 270.68,-71.1 280.74,-74.41 280.61,-67.41"/>
<text text-anchor="middle" x="384" y="-84.5" font-family="Helvetica,sans-Serif" font-size="10.00"> long_option_size</text>
<text text-anchor="middle" x="384" y="-73.5" font-family="Helvetica,sans-Serif" font-size="10.00">short_option_size</text>
</g>
<!-- Node8 -->
<g id="node8" class="node">
<title>Node8</title>
<g id="a_node8"><a xlink:title=" ">
<polygon fill="white" stroke="black" points="325,-105 325,-124 443,-124 443,-105 325,-105"/>
<text text-anchor="middle" x="384" y="-112" font-family="Helvetica,sans-Serif" font-size="10.00">std::shared_ptr&lt; T &gt;</text>
</a>
</g>
</g>
<!-- Node8&#45;&gt;Node3 -->
<g id="edge8" class="edge">
<title>Node8&#45;&gt;Node3</title>
<path fill="none" stroke="orange" stroke-dasharray="5,2" d="M453.34,-116.23C490.76,-117.36 537.96,-119.08 580,-121.5 610.46,-123.26 644.31,-125.88 672.24,-128.23"/>
<polygon fill="orange" stroke="orange" points="453.15,-112.72 443.05,-115.92 452.95,-119.72 453.15,-112.72"/>
<text text-anchor="middle" x="520.5" y="-124.5" font-family="Helvetica,sans-Serif" font-size="10.00"> &lt; lyra::option_style &gt;</text>
</g>
<!-- Node9 -->
<g id="node9" class="node">
<title>Node9</title>
<g id="a_node9"><a xlink:title=" ">
<polygon fill="white" stroke="black" points="37.5,-148 37.5,-167 66.5,-167 66.5,-148 37.5,-148"/>
<text text-anchor="middle" x="52" y="-155" font-family="Helvetica,sans-Serif" font-size="10.00">T</text>
</a>
</g>
</g>
<!-- Node9&#45;&gt;Node8 -->
<g id="edge9" class="edge">
<title>Node9&#45;&gt;Node8</title>
<path fill="none" stroke="#9a32cd" stroke-dasharray="5,2" d="M76.43,-151.75C89.73,-148.65 106.72,-144.97 122,-142.5 191.39,-131.27 271.92,-123.41 324.97,-118.93"/>
<polygon fill="#9a32cd" stroke="#9a32cd" points="75.58,-148.36 66.66,-154.08 77.2,-155.17 75.58,-148.36"/>
<text text-anchor="middle" x="146.5" y="-145.5" font-family="Helvetica,sans-Serif" font-size="10.00"> ptr</text>
</g>
<!-- Node12 -->
<g id="node12" class="node">
<title>Node12</title>
<g id="a_node12"><a xlink:title=" ">
<polygon fill="white" stroke="black" points="189,-148 189,-167 307,-167 307,-148 189,-148"/>
<text text-anchor="middle" x="248" y="-155" font-family="Helvetica,sans-Serif" font-size="10.00">std::unique_ptr&lt; T &gt;</text>
</a>
</g>
</g>
<!-- Node9&#45;&gt;Node12 -->
<g id="edge14" class="edge">
<title>Node9&#45;&gt;Node12</title>
<path fill="none" stroke="#9a32cd" stroke-dasharray="5,2" d="M76.95,-157.5C104.69,-157.5 151.35,-157.5 188.79,-157.5"/>
<polygon fill="#9a32cd" stroke="#9a32cd" points="76.64,-154 66.64,-157.5 76.64,-161 76.64,-154"/>
<text text-anchor="middle" x="146.5" y="-160.5" font-family="Helvetica,sans-Serif" font-size="10.00"> ptr</text>
</g>
<!-- Node13 -->
<g id="node13" class="node">
<title>Node13</title>
<g id="a_node13"><a xlink:title=" ">
<polygon fill="white" stroke="black" points="335.5,-189 335.5,-208 432.5,-208 432.5,-189 335.5,-189"/>
<text text-anchor="middle" x="384" y="-196" font-family="Helvetica,sans-Serif" font-size="10.00">std::vector&lt; T &gt;</text>
</a>
</g>
</g>
<!-- Node9&#45;&gt;Node13 -->
<g id="edge16" class="edge">
<title>Node9&#45;&gt;Node13</title>
<path fill="none" stroke="#9a32cd" stroke-dasharray="5,2" d="M76.43,-163.29C89.72,-166.4 106.71,-170.09 122,-172.5 195.99,-184.19 282.66,-191.59 335.16,-195.39"/>
<polygon fill="#9a32cd" stroke="#9a32cd" points="77.2,-159.88 66.66,-160.95 75.57,-166.69 77.2,-159.88"/>
<text text-anchor="middle" x="146.5" y="-182.5" font-family="Helvetica,sans-Serif" font-size="10.00"> elements</text>
</g>
<!-- Node10 -->
<g id="node10" class="node">
<title>Node10</title>
<g id="a_node10"><a xlink:title=" ">
<polygon fill="white" stroke="black" points="665,-178.5 665,-208.5 799,-208.5 799,-178.5 665,-178.5"/>
<text text-anchor="start" x="673" y="-196.5" font-family="Helvetica,sans-Serif" font-size="10.00">std::vector&lt; std::unique</text>
<text text-anchor="middle" x="732" y="-185.5" font-family="Helvetica,sans-Serif" font-size="10.00">_ptr&lt; lyra::parser &gt; &gt;</text>
</a>
</g>
</g>
<!-- Node10&#45;&gt;Node1 -->
<g id="edge10" class="edge">
<title>Node10&#45;&gt;Node1</title>
<path fill="none" stroke="#9a32cd" stroke-dasharray="5,2" d="M809.23,-193.5C837.32,-193.5 868.27,-193.5 892.89,-193.5"/>
<polygon fill="#9a32cd" stroke="#9a32cd" points="809.03,-190 799.03,-193.5 809.03,-197 809.03,-190"/>
<text text-anchor="middle" x="846" y="-196.5" font-family="Helvetica,sans-Serif" font-size="10.00"> parsers</text>
</g>
<!-- Node11&#45;&gt;Node10 -->
<g id="edge11" class="edge">
<title>Node11&#45;&gt;Node10</title>
<path fill="none" stroke="#9a32cd" stroke-dasharray="5,2" d="M590.24,-169.31C614.28,-173.44 641.19,-178.07 665,-182.16"/>
<polygon fill="#9a32cd" stroke="#9a32cd" points="590.58,-165.82 580.14,-167.58 589.4,-172.72 590.58,-165.82"/>
<text text-anchor="middle" x="622.5" y="-182.5" font-family="Helvetica,sans-Serif" font-size="10.00"> elements</text>
</g>
<!-- Node12&#45;&gt;Node11 -->
<g id="edge13" class="edge">
<title>Node12&#45;&gt;Node11</title>
<path fill="none" stroke="orange" stroke-dasharray="5,2" d="M317.12,-157.5C361.34,-157.5 418.38,-157.5 460.63,-157.5"/>
<polygon fill="orange" stroke="orange" points="317.03,-154 307.03,-157.5 317.03,-161 317.03,-154"/>
<text text-anchor="middle" x="384" y="-160.5" font-family="Helvetica,sans-Serif" font-size="10.00"> &lt; lyra::parser &gt;</text>
</g>
<!-- Node13&#45;&gt;Node10 -->
<g id="edge15" class="edge">
<title>Node13&#45;&gt;Node10</title>
<path fill="none" stroke="orange" stroke-dasharray="5,2" d="M443.01,-197.66C504.26,-196.78 600.64,-195.38 664.82,-194.46"/>
<polygon fill="orange" stroke="orange" points="442.69,-194.17 432.75,-197.81 442.8,-201.17 442.69,-194.17"/>
<text text-anchor="start" x="472.5" y="-211.5" font-family="Helvetica,sans-Serif" font-size="10.00"> &lt; std::unique_ptr&lt;</text>
<text text-anchor="middle" x="520.5" y="-200.5" font-family="Helvetica,sans-Serif" font-size="10.00"> lyra::parser &gt; &gt;</text>
</g>
<!-- Node14 -->
<g id="node14" class="node">
<title>Node14</title>
<g id="a_node14"><a xlink:title=" ">
<polygon fill="white" stroke="black" points="698,-80 698,-99 766,-99 766,-80 698,-80"/>
<text text-anchor="middle" x="732" y="-87" font-family="Helvetica,sans-Serif" font-size="10.00">evaluation</text>
</a>
</g>
</g>
<!-- Node14&#45;&gt;Node1 -->
<g id="edge17" class="edge">
<title>Node14&#45;&gt;Node1</title>
<path fill="none" stroke="#9a32cd" stroke-dasharray="5,2" d="M775.88,-100.82C783.64,-103.16 791.61,-105.75 799,-108.5 833.86,-121.46 843.25,-124.15 875,-143.5 894.99,-155.68 915.96,-173.09 928.24,-183.82"/>
<polygon fill="#9a32cd" stroke="#9a32cd" points="776.8,-97.44 766.22,-98 774.84,-104.16 776.8,-97.44"/>
<text text-anchor="middle" x="846" y="-146.5" font-family="Helvetica,sans-Serif" font-size="10.00"> eval_mode</text>
</g>
</g>
</svg>
