<?xml version="1.0" encoding="UTF-8" standalone="no"?>
<!DOCTYPE svg PUBLIC "-//W3C//DTD SVG 1.1//EN"
 "http://www.w3.org/Graphics/SVG/1.1/DTD/svg11.dtd">
<!-- Generated by graphviz version 2.43.0 (0)
 -->
<!-- Title: gen_single_include.GenSingleInclude.cpp Pages: 1 -->
<svg width="493pt" height="57pt"
 viewBox="0.00 0.00 493.00 57.00" xmlns="http://www.w3.org/2000/svg" xmlns:xlink="http://www.w3.org/1999/xlink">
<g id="graph0" class="graph" transform="scale(1 1) rotate(0) translate(4 53)">
<title>gen_single_include.GenSingleInclude.cpp</title>
<polygon fill="white" stroke="transparent" points="-4,4 -4,-53 489,-53 489,4 -4,4"/>
<!-- Node1 -->
<g id="node1" class="node">
<title>Node1</title>
<g id="a_node1"><a xlink:title=" ">
<polygon fill="#bfbfbf" stroke="black" points="0,-0.5 0,-30.5 162,-30.5 162,-0.5 0,-0.5"/>
<text text-anchor="start" x="8" y="-18.5" font-family="Helvetica,sans-Serif" font-size="10.00">gen_single_include.GenSingle</text>
<text text-anchor="middle" x="81" y="-7.5" font-family="Helvetica,sans-Serif" font-size="10.00">Include.cpp</text>
</a>
</g>
</g>
<!-- Node1&#45;&gt;Node1 -->
<g id="edge1" class="edge">
<title>Node1&#45;&gt;Node1</title>
<path fill="none" stroke="midnightblue" d="M46.49,-30.66C38.17,-40.06 49.68,-49 81,-49 100.09,-49 111.82,-45.68 116.18,-40.96"/>
<polygon fill="midnightblue" stroke="midnightblue" points="119.65,-40.41 115.51,-30.66 112.67,-40.87 119.65,-40.41"/>
</g>
<!-- Node2 -->
<g id="node2" class="node">
<title>Node2</title>
<g id="a_node2"><a xlink:href="classgen__single__include_1_1_gen_single_include.html#a7d56d410e149590a3f52aed3ce9c4d23" target="_top" xlink:title=" ">
<polygon fill="white" stroke="black" points="198,-0.5 198,-30.5 360,-30.5 360,-0.5 198,-0.5"/>
<text text-anchor="start" x="206" y="-18.5" font-family="Helvetica,sans-Serif" font-size="10.00">gen_single_include.GenSingle</text>
<text text-anchor="middle" x="279" y="-7.5" font-family="Helvetica,sans-Serif" font-size="10.00">Include.resolve_include</text>
</a>
</g>
</g>
<!-- Node1&#45;&gt;Node2 -->
<g id="edge2" class="edge">
<title>Node1&#45;&gt;Node2</title>
<path fill="none" stroke="midnightblue" d="M162,-15.5C170.52,-15.5 179.23,-15.5 187.86,-15.5"/>
<polygon fill="midnightblue" stroke="midnightblue" points="187.93,-19 197.93,-15.5 187.93,-12 187.93,-19"/>
</g>
<!-- Node3 -->
<g id="node3" class="node">
<title>Node3</title>
<g id="a_node3"><a xlink:href="classlyra_1_1args.html#a3a45a2e6aa219bdf72ccb5868549c58d" target="_top" xlink:title=" ">
<polygon fill="white" stroke="black" points="396,-6 396,-25 485,-25 485,-6 396,-6"/>
<text text-anchor="middle" x="440.5" y="-13" font-family="Helvetica,sans-Serif" font-size="10.00">lyra::args::args</text>
</a>
</g>
</g>
<!-- Node2&#45;&gt;Node3 -->
<g id="edge3" class="edge">
<title>Node2&#45;&gt;Node3</title>
<path fill="none" stroke="midnightblue" d="M360.22,-15.5C368.84,-15.5 377.45,-15.5 385.65,-15.5"/>
<polygon fill="midnightblue" stroke="midnightblue" points="385.79,-19 395.79,-15.5 385.79,-12 385.79,-19"/>
</g>
</g>
</svg>
