<?xml version="1.0" encoding="UTF-8" standalone="no"?>
<!DOCTYPE svg PUBLIC "-//W3C//DTD SVG 1.1//EN"
 "http://www.w3.org/Graphics/SVG/1.1/DTD/svg11.dtd">
<!-- Generated by graphviz version 2.43.0 (0)
 -->
<!-- Title: lyra::arguments::add_argument Pages: 1 -->
<svg width="314pt" height="180pt"
 viewBox="0.00 0.00 314.00 180.00" xmlns="http://www.w3.org/2000/svg" xmlns:xlink="http://www.w3.org/1999/xlink">
<g id="graph0" class="graph" transform="scale(1 1) rotate(0) translate(4 176)">
<title>lyra::arguments::add_argument</title>
<polygon fill="white" stroke="transparent" points="-4,4 -4,-176 310,-176 310,4 -4,4"/>
<!-- Node1 -->
<g id="node1" class="node">
<title>Node1</title>
<g id="a_node1"><a xlink:title=" ">
<polygon fill="#bfbfbf" stroke="black" points="188,-71 188,-101 306,-101 306,-71 188,-71"/>
<text text-anchor="start" x="196" y="-89" font-family="Helvetica,sans-Serif" font-size="10.00">lyra::arguments::add</text>
<text text-anchor="middle" x="247" y="-78" font-family="Helvetica,sans-Serif" font-size="10.00">_argument</text>
</a>
</g>
</g>
<!-- Node2 -->
<g id="node2" class="node">
<title>Node2</title>
<g id="a_node2"><a xlink:href="classlyra_1_1command.html#ae617798585cbd83044e9e82205d99615" target="_top" xlink:title=" ">
<polygon fill="white" stroke="black" points="3.5,-152.5 3.5,-171.5 148.5,-171.5 148.5,-152.5 3.5,-152.5"/>
<text text-anchor="middle" x="76" y="-159.5" font-family="Helvetica,sans-Serif" font-size="10.00">lyra::command::command</text>
</a>
</g>
</g>
<!-- Node1&#45;&gt;Node2 -->
<g id="edge1" class="edge">
<title>Node1&#45;&gt;Node2</title>
<path fill="none" stroke="midnightblue" d="M216.99,-106.69C199,-118.73 175,-133.37 152,-143 143.08,-146.74 133.24,-149.87 123.71,-152.45"/>
<polygon fill="midnightblue" stroke="midnightblue" points="219.02,-109.55 225.31,-101.03 215.08,-103.76 219.02,-109.55"/>
</g>
<!-- Node3 -->
<g id="node3" class="node">
<title>Node3</title>
<g id="a_node3"><a xlink:href="classlyra_1_1cli.html#ae49bb934eb0ab2e72e047e7af1ec73c8" target="_top" xlink:title=" ">
<polygon fill="white" stroke="black" points="11.5,-114.5 11.5,-133.5 140.5,-133.5 140.5,-114.5 11.5,-114.5"/>
<text text-anchor="middle" x="76" y="-121.5" font-family="Helvetica,sans-Serif" font-size="10.00">lyra::cli::add_argument</text>
</a>
</g>
</g>
<!-- Node1&#45;&gt;Node3 -->
<g id="edge2" class="edge">
<title>Node1&#45;&gt;Node3</title>
<path fill="none" stroke="midnightblue" d="M177.92,-101.31C158.09,-105.77 137,-110.51 119.26,-114.5"/>
<polygon fill="midnightblue" stroke="midnightblue" points="178.85,-104.69 187.84,-99.08 177.32,-97.86 178.85,-104.69"/>
</g>
<!-- Node4 -->
<g id="node4" class="node">
<title>Node4</title>
<g id="a_node4"><a xlink:href="group__run__test_8cpp.html#a0fc34f49b0e6eaed5e5c3accb409b1d1" target="_top" xlink:title=" ">
<polygon fill="white" stroke="black" points="55.5,-76.5 55.5,-95.5 96.5,-95.5 96.5,-76.5 55.5,-76.5"/>
<text text-anchor="middle" x="76" y="-83.5" font-family="Helvetica,sans-Serif" font-size="10.00">main</text>
</a>
</g>
</g>
<!-- Node1&#45;&gt;Node4 -->
<g id="edge3" class="edge">
<title>Node1&#45;&gt;Node4</title>
<path fill="none" stroke="midnightblue" d="M177.65,-86C148.46,-86 116.6,-86 96.71,-86"/>
<polygon fill="midnightblue" stroke="midnightblue" points="177.84,-89.5 187.84,-86 177.84,-82.5 177.84,-89.5"/>
</g>
<!-- Node5 -->
<g id="node5" class="node">
<title>Node5</title>
<g id="a_node5"><a xlink:href="classlyra_1_1arguments.html#ae320778fbe4b0037bb2f1bd2be546f16" target="_top" xlink:title=" ">
<polygon fill="white" stroke="black" points="0,-38.5 0,-57.5 152,-57.5 152,-38.5 0,-38.5"/>
<text text-anchor="middle" x="76" y="-45.5" font-family="Helvetica,sans-Serif" font-size="10.00">lyra::arguments::operator|=</text>
</a>
</g>
</g>
<!-- Node1&#45;&gt;Node5 -->
<g id="edge4" class="edge">
<title>Node1&#45;&gt;Node5</title>
<path fill="none" stroke="midnightblue" d="M177.92,-70.69C158.09,-66.23 137,-61.49 119.26,-57.5"/>
<polygon fill="midnightblue" stroke="midnightblue" points="177.32,-74.14 187.84,-72.92 178.85,-67.31 177.32,-74.14"/>
</g>
<!-- Node6 -->
<g id="node6" class="node">
<title>Node6</title>
<g id="a_node6"><a xlink:href="classlyra_1_1cli.html#a7e3d7faf178c8ca7a75ded05c404995e" target="_top" xlink:title=" ">
<polygon fill="white" stroke="black" points="20.5,-0.5 20.5,-19.5 131.5,-19.5 131.5,-0.5 20.5,-0.5"/>
<text text-anchor="middle" x="76" y="-7.5" font-family="Helvetica,sans-Serif" font-size="10.00">lyra::cli::operator|=</text>
</a>
</g>
</g>
<!-- Node1&#45;&gt;Node6 -->
<g id="edge5" class="edge">
<title>Node1&#45;&gt;Node6</title>
<path fill="none" stroke="midnightblue" d="M216.99,-65.31C199,-53.27 175,-38.63 152,-29 143.08,-25.26 133.24,-22.13 123.71,-19.55"/>
<polygon fill="midnightblue" stroke="midnightblue" points="215.08,-68.24 225.31,-70.97 219.02,-62.45 215.08,-68.24"/>
</g>
</g>
</svg>
