<?xml version="1.0" encoding="UTF-8" standalone="no"?>
<!DOCTYPE svg PUBLIC "-//W3C//DTD SVG 1.1//EN"
 "http://www.w3.org/Graphics/SVG/1.1/DTD/svg11.dtd">
<!-- Generated by graphviz version 2.43.0 (0)
 -->
<!-- Title: lyra::parser::print_help_text Pages: 1 -->
<svg width="478pt" height="218pt"
 viewBox="0.00 0.00 478.00 218.00" xmlns="http://www.w3.org/2000/svg" xmlns:xlink="http://www.w3.org/1999/xlink">
<g id="graph0" class="graph" transform="scale(1 1) rotate(0) translate(4 214)">
<title>lyra::parser::print_help_text</title>
<polygon fill="white" stroke="transparent" points="-4,4 -4,-214 474,-214 474,4 -4,4"/>
<!-- Node1 -->
<g id="node1" class="node">
<title>Node1</title>
<g id="a_node1"><a xlink:title=" ">
<polygon fill="#bfbfbf" stroke="black" points="0,-95 0,-125 101,-125 101,-95 0,-95"/>
<text text-anchor="start" x="8" y="-113" font-family="Helvetica,sans-Serif" font-size="10.00">lyra::parser::print</text>
<text text-anchor="middle" x="50.5" y="-102" font-family="Helvetica,sans-Serif" font-size="10.00">_help_text</text>
</a>
</g>
</g>
<!-- Node2 -->
<g id="node2" class="node">
<title>Node2</title>
<g id="a_node2"><a xlink:href="classlyra_1_1parser.html#a983e1c4c83992e0a636d41a38f0f7b0c" target="_top" xlink:title=" ">
<polygon fill="white" stroke="black" points="143.5,-133 143.5,-163 249.5,-163 249.5,-133 143.5,-133"/>
<text text-anchor="start" x="151.5" y="-151" font-family="Helvetica,sans-Serif" font-size="10.00">lyra::parser::print</text>
<text text-anchor="middle" x="196.5" y="-140" font-family="Helvetica,sans-Serif" font-size="10.00">_help_text_details</text>
</a>
</g>
</g>
<!-- Node1&#45;&gt;Node2 -->
<g id="edge1" class="edge">
<title>Node1&#45;&gt;Node2</title>
<path fill="none" stroke="midnightblue" d="M101.06,-123.08C111.52,-125.84 122.69,-128.79 133.54,-131.65"/>
<polygon fill="midnightblue" stroke="midnightblue" points="132.84,-135.08 143.4,-134.25 134.62,-128.32 132.84,-135.08"/>
</g>
<!-- Node6 -->
<g id="node6" class="node">
<title>Node6</title>
<g id="a_node6"><a xlink:href="classlyra_1_1parser.html#a9ca7f234f1c01a862266e05d91ed4a93" target="_top" xlink:title=" ">
<polygon fill="white" stroke="black" points="137,-71 137,-101 256,-101 256,-71 137,-71"/>
<text text-anchor="start" x="145" y="-89" font-family="Helvetica,sans-Serif" font-size="10.00">lyra::parser::print</text>
<text text-anchor="middle" x="196.5" y="-78" font-family="Helvetica,sans-Serif" font-size="10.00">_help_text_summary</text>
</a>
</g>
</g>
<!-- Node1&#45;&gt;Node6 -->
<g id="edge5" class="edge">
<title>Node1&#45;&gt;Node6</title>
<path fill="none" stroke="midnightblue" d="M101.06,-101.74C109.36,-100.36 118.11,-98.9 126.79,-97.45"/>
<polygon fill="midnightblue" stroke="midnightblue" points="127.63,-100.86 136.92,-95.76 126.48,-93.96 127.63,-100.86"/>
</g>
<!-- Node3 -->
<g id="node3" class="node">
<title>Node3</title>
<g id="a_node3"><a xlink:href="classlyra_1_1parser.html#ad897e66c1094cf09b5228c4b4c8eb5c5" target="_top" xlink:title=" ">
<polygon fill="white" stroke="black" points="308.5,-190.5 308.5,-209.5 453.5,-209.5 453.5,-190.5 308.5,-190.5"/>
<text text-anchor="middle" x="381" y="-197.5" font-family="Helvetica,sans-Serif" font-size="10.00">lyra::parser::get_help_text</text>
</a>
</g>
</g>
<!-- Node2&#45;&gt;Node3 -->
<g id="edge2" class="edge">
<title>Node2&#45;&gt;Node3</title>
<path fill="none" stroke="midnightblue" d="M237.16,-163.07C253.93,-169.12 273.77,-175.87 292,-181 301.16,-183.58 310.93,-186 320.52,-188.2"/>
<polygon fill="midnightblue" stroke="midnightblue" points="319.88,-191.65 330.4,-190.41 321.4,-184.81 319.88,-191.65"/>
</g>
<!-- Node4 -->
<g id="node4" class="node">
<title>Node4</title>
<g id="a_node4"><a xlink:href="classlyra_1_1printer.html#a7da793051885bba1d0a6e88149273a08" target="_top" xlink:title=" ">
<polygon fill="white" stroke="black" points="321.5,-114.5 321.5,-133.5 440.5,-133.5 440.5,-114.5 321.5,-114.5"/>
<text text-anchor="middle" x="381" y="-121.5" font-family="Helvetica,sans-Serif" font-size="10.00">lyra::printer::heading</text>
</a>
</g>
</g>
<!-- Node2&#45;&gt;Node4 -->
<g id="edge3" class="edge">
<title>Node2&#45;&gt;Node4</title>
<path fill="none" stroke="midnightblue" d="M249.8,-141.12C268.9,-138.61 290.81,-135.73 311.13,-133.06"/>
<polygon fill="midnightblue" stroke="midnightblue" points="311.82,-136.5 321.28,-131.72 310.91,-129.56 311.82,-136.5"/>
</g>
<!-- Node5 -->
<g id="node5" class="node">
<title>Node5</title>
<g id="a_node5"><a xlink:href="classlyra_1_1printer.html#a635b6e488f786e22f86197f36ff31b69" target="_top" xlink:title=" ">
<polygon fill="white" stroke="black" points="326,-152.5 326,-171.5 436,-171.5 436,-152.5 326,-152.5"/>
<text text-anchor="middle" x="381" y="-159.5" font-family="Helvetica,sans-Serif" font-size="10.00">lyra::printer::option</text>
</a>
</g>
</g>
<!-- Node2&#45;&gt;Node5 -->
<g id="edge4" class="edge">
<title>Node2&#45;&gt;Node5</title>
<path fill="none" stroke="midnightblue" d="M249.8,-152.01C270.35,-153.59 294.14,-155.41 315.72,-157.07"/>
<polygon fill="midnightblue" stroke="midnightblue" points="315.55,-160.57 325.79,-157.84 316.09,-153.59 315.55,-160.57"/>
</g>
<!-- Node6&#45;&gt;Node4 -->
<g id="edge8" class="edge">
<title>Node6&#45;&gt;Node4</title>
<path fill="none" stroke="midnightblue" d="M256.25,-98.23C278.02,-102.77 302.63,-107.89 324.13,-112.37"/>
<polygon fill="midnightblue" stroke="midnightblue" points="323.59,-115.83 334.09,-114.44 325.01,-108.98 323.59,-115.83"/>
</g>
<!-- Node7 -->
<g id="node7" class="node">
<title>Node7</title>
<g id="a_node7"><a xlink:href="classlyra_1_1parser.html#a420cbfdfb4e222155591fd2a5896e5d7" target="_top" xlink:title=" ">
<polygon fill="white" stroke="black" points="292,-76.5 292,-95.5 470,-95.5 470,-76.5 292,-76.5"/>
<text text-anchor="middle" x="381" y="-83.5" font-family="Helvetica,sans-Serif" font-size="10.00">lyra::parser::get_description_text</text>
</a>
</g>
</g>
<!-- Node6&#45;&gt;Node7 -->
<g id="edge6" class="edge">
<title>Node6&#45;&gt;Node7</title>
<path fill="none" stroke="midnightblue" d="M256.25,-86C264.41,-86 272.97,-86 281.62,-86"/>
<polygon fill="midnightblue" stroke="midnightblue" points="281.8,-89.5 291.8,-86 281.8,-82.5 281.8,-89.5"/>
</g>
<!-- Node8 -->
<g id="node8" class="node">
<title>Node8</title>
<g id="a_node8"><a xlink:href="classlyra_1_1parser.html#a59a2a42cea85955a811279a463777b9d" target="_top" xlink:title=" ">
<polygon fill="white" stroke="black" points="304.5,-38.5 304.5,-57.5 457.5,-57.5 457.5,-38.5 304.5,-38.5"/>
<text text-anchor="middle" x="381" y="-45.5" font-family="Helvetica,sans-Serif" font-size="10.00">lyra::parser::get_usage_text</text>
</a>
</g>
</g>
<!-- Node6&#45;&gt;Node8 -->
<g id="edge7" class="edge">
<title>Node6&#45;&gt;Node8</title>
<path fill="none" stroke="midnightblue" d="M256.25,-73.77C278.02,-69.23 302.63,-64.11 324.13,-59.63"/>
<polygon fill="midnightblue" stroke="midnightblue" points="325.01,-63.02 334.09,-57.56 323.59,-56.17 325.01,-63.02"/>
</g>
<!-- Node9 -->
<g id="node9" class="node">
<title>Node9</title>
<g id="a_node9"><a xlink:href="classlyra_1_1printer.html#a9483c878eaa7e07ec69a92987834a62e" target="_top" xlink:title=" ">
<polygon fill="white" stroke="black" points="316.5,-0.5 316.5,-19.5 445.5,-19.5 445.5,-0.5 316.5,-0.5"/>
<text text-anchor="middle" x="381" y="-7.5" font-family="Helvetica,sans-Serif" font-size="10.00">lyra::printer::paragraph</text>
</a>
</g>
</g>
<!-- Node6&#45;&gt;Node9 -->
<g id="edge9" class="edge">
<title>Node6&#45;&gt;Node9</title>
<path fill="none" stroke="midnightblue" d="M217.85,-70.99C236.32,-58.06 264.75,-39.81 292,-29 298.59,-26.38 305.61,-24.1 312.7,-22.11"/>
<polygon fill="midnightblue" stroke="midnightblue" points="313.59,-25.49 322.38,-19.58 311.82,-18.72 313.59,-25.49"/>
</g>
</g>
</svg>
