<?xml version="1.0" encoding="UTF-8" standalone="no"?>
<!DOCTYPE svg PUBLIC "-//W3C//DTD SVG 1.1//EN"
 "http://www.w3.org/Graphics/SVG/1.1/DTD/svg11.dtd">
<!-- Generated by graphviz version 2.43.0 (0)
 -->
<!-- Title: lyra::cli::style Pages: 1 -->
<svg width="338pt" height="198pt"
 viewBox="0.00 0.00 338.00 198.00" xmlns="http://www.w3.org/2000/svg" xmlns:xlink="http://www.w3.org/1999/xlink">
<g id="graph0" class="graph" transform="scale(1 1) rotate(0) translate(4 194)">
<title>lyra::cli::style</title>
<polygon fill="white" stroke="transparent" points="-4,4 -4,-194 334,-194 334,4 -4,4"/>
<!-- Node1 -->
<g id="node1" class="node">
<title>Node1</title>
<g id="a_node1"><a xlink:title=" ">
<polygon fill="#bfbfbf" stroke="black" points="247,-94.5 247,-113.5 330,-113.5 330,-94.5 247,-94.5"/>
<text text-anchor="middle" x="288.5" y="-101.5" font-family="Helvetica,sans-Serif" font-size="10.00">lyra::cli::style</text>
</a>
</g>
</g>
<!-- Node1&#45;&gt;Node1 -->
<g id="edge4" class="edge">
<title>Node1&#45;&gt;Node1</title>
<path fill="none" stroke="midnightblue" d="M315.38,-122.65C314.26,-127.94 305.3,-132 288.5,-132 262.91,-132 255.51,-122.57 266.31,-113.76"/>
<polygon fill="midnightblue" stroke="midnightblue" points="318.45,-120.97 310.69,-113.76 312.26,-124.24 318.45,-120.97"/>
</g>
<!-- Node2 -->
<g id="node2" class="node">
<title>Node2</title>
<g id="a_node2"><a xlink:href="classlyra_1_1cli.html#a310cec75584af3414b60a857109acf35" target="_top" xlink:title=" ">
<polygon fill="white" stroke="black" points="77,-170.5 77,-189.5 211,-189.5 211,-170.5 77,-170.5"/>
<text text-anchor="middle" x="144" y="-177.5" font-family="Helvetica,sans-Serif" font-size="10.00">lyra::cli::get_usage_text</text>
</a>
</g>
</g>
<!-- Node1&#45;&gt;Node2 -->
<g id="edge1" class="edge">
<title>Node1&#45;&gt;Node2</title>
<path fill="none" stroke="midnightblue" d="M269.1,-120.72C254.34,-133.36 232.58,-150.3 211,-161 203.42,-164.76 194.96,-167.9 186.7,-170.47"/>
<polygon fill="midnightblue" stroke="midnightblue" points="271.72,-123.08 276.93,-113.86 267.1,-117.82 271.72,-123.08"/>
</g>
<!-- Node3 -->
<g id="node3" class="node">
<title>Node3</title>
<g id="a_node3"><a xlink:href="option__styles_8cpp.html#a217dbf8b442f20279ea00b898af96f52" target="_top" xlink:title=" ">
<polygon fill="white" stroke="black" points="123.5,-132.5 123.5,-151.5 164.5,-151.5 164.5,-132.5 123.5,-132.5"/>
<text text-anchor="middle" x="144" y="-139.5" font-family="Helvetica,sans-Serif" font-size="10.00">main</text>
</a>
</g>
</g>
<!-- Node1&#45;&gt;Node3 -->
<g id="edge2" class="edge">
<title>Node1&#45;&gt;Node3</title>
<path fill="none" stroke="midnightblue" d="M241.86,-116.17C215.82,-123.11 184.52,-131.46 164.69,-136.75"/>
<polygon fill="midnightblue" stroke="midnightblue" points="242.78,-119.55 251.54,-113.59 240.98,-112.78 242.78,-119.55"/>
</g>
<!-- Node4 -->
<g id="node4" class="node">
<title>Node4</title>
<g id="a_node4"><a xlink:href="classlyra_1_1cli.html#a49a8af627c74dfce2c2d594d4161116f" target="_top" xlink:title=" ">
<polygon fill="white" stroke="black" points="101,-94.5 101,-113.5 187,-113.5 187,-94.5 101,-94.5"/>
<text text-anchor="middle" x="144" y="-101.5" font-family="Helvetica,sans-Serif" font-size="10.00">lyra::cli::parse</text>
</a>
</g>
</g>
<!-- Node1&#45;&gt;Node4 -->
<g id="edge3" class="edge">
<title>Node1&#45;&gt;Node4</title>
<path fill="none" stroke="midnightblue" d="M236.35,-104C220.28,-104 202.72,-104 187.33,-104"/>
<polygon fill="midnightblue" stroke="midnightblue" points="236.67,-107.5 246.67,-104 236.67,-100.5 236.67,-107.5"/>
</g>
<!-- Node5 -->
<g id="node5" class="node">
<title>Node5</title>
<g id="a_node5"><a xlink:href="classlyra_1_1main.html#a001787b40ce438a9379f59be1862e180" target="_top" xlink:title=" ">
<polygon fill="white" stroke="black" points="96,-38.5 96,-57.5 192,-57.5 192,-38.5 96,-38.5"/>
<text text-anchor="middle" x="144" y="-45.5" font-family="Helvetica,sans-Serif" font-size="10.00">lyra::main::style</text>
</a>
</g>
</g>
<!-- Node1&#45;&gt;Node5 -->
<g id="edge5" class="edge">
<title>Node1&#45;&gt;Node5</title>
<path fill="none" stroke="midnightblue" d="M253.54,-90.65C227.55,-80.44 192.35,-66.61 169.18,-57.5"/>
<polygon fill="midnightblue" stroke="midnightblue" points="252.42,-93.97 263,-94.37 254.98,-87.46 252.42,-93.97"/>
</g>
<!-- Node6 -->
<g id="node6" class="node">
<title>Node6</title>
<g id="a_node6"><a xlink:href="option__styles__run__test_8cpp.html#ab4d2ccb95df97b3b8f84b1cffb6d4c79" target="_top" xlink:title=" ">
<polygon fill="white" stroke="black" points="111.5,-0.5 111.5,-19.5 176.5,-19.5 176.5,-0.5 111.5,-0.5"/>
<text text-anchor="middle" x="144" y="-7.5" font-family="Helvetica,sans-Serif" font-size="10.00">test_style</text>
</a>
</g>
</g>
<!-- Node1&#45;&gt;Node6 -->
<g id="edge7" class="edge">
<title>Node1&#45;&gt;Node6</title>
<path fill="none" stroke="midnightblue" d="M273.94,-86.35C259.94,-69.3 236.59,-43.92 211,-29 200.49,-22.87 187.88,-18.61 176.51,-15.7"/>
<polygon fill="midnightblue" stroke="midnightblue" points="271.4,-88.78 280.37,-94.41 276.87,-84.41 271.4,-88.78"/>
</g>
<!-- Node5&#45;&gt;Node5 -->
<g id="edge6" class="edge">
<title>Node5&#45;&gt;Node5</title>
<path fill="none" stroke="midnightblue" d="M166.69,-67.03C165.46,-72.13 157.89,-76 144,-76 122.32,-76 116.05,-66.57 125.2,-57.76"/>
<polygon fill="midnightblue" stroke="midnightblue" points="169.9,-65.62 162.8,-57.76 163.44,-68.33 169.9,-65.62"/>
</g>
<!-- Node7 -->
<g id="node7" class="node">
<title>Node7</title>
<g id="a_node7"><a xlink:href="option__styles__run__test_8cpp.html#ae66f6b31b5ad750f1fe042a706a4e3d4" target="_top" xlink:title=" ">
<polygon fill="white" stroke="black" points="0,-0.5 0,-19.5 41,-19.5 41,-0.5 0,-0.5"/>
<text text-anchor="middle" x="20.5" y="-7.5" font-family="Helvetica,sans-Serif" font-size="10.00">main</text>
</a>
</g>
</g>
<!-- Node6&#45;&gt;Node7 -->
<g id="edge8" class="edge">
<title>Node6&#45;&gt;Node7</title>
<path fill="none" stroke="midnightblue" d="M101.38,-10C80.99,-10 57.4,-10 41.17,-10"/>
<polygon fill="midnightblue" stroke="midnightblue" points="101.39,-13.5 111.39,-10 101.39,-6.5 101.39,-13.5"/>
</g>
</g>
</svg>
