<?xml version="1.0" encoding="UTF-8" standalone="no"?>
<!DOCTYPE svg PUBLIC "-//W3C//DTD SVG 1.1//EN"
 "http://www.w3.org/Graphics/SVG/1.1/DTD/svg11.dtd">
<!-- Generated by graphviz version 2.43.0 (0)
 -->
<!-- Title: MainNamespace::MeshReader::~MeshReader Pages: 1 -->
<svg width="598pt" height="127pt"
 viewBox="0.00 0.00 598.00 127.00" xmlns="http://www.w3.org/2000/svg" xmlns:xlink="http://www.w3.org/1999/xlink">
<g id="graph0" class="graph" transform="scale(1 1) rotate(0) translate(4 123)">
<title>MainNamespace::MeshReader::~MeshReader</title>
<polygon fill="white" stroke="transparent" points="-4,4 -4,-123 594,-123 594,4 -4,4"/>
<!-- Node1 -->
<g id="node1" class="node">
<title>Node1</title>
<g id="a_node1"><a xlink:title=" ">
<polygon fill="#bfbfbf" stroke="black" points="0,-63.5 0,-93.5 165,-93.5 165,-63.5 0,-63.5"/>
<text text-anchor="start" x="8" y="-81.5" font-family="Helvetica,sans-Serif" font-size="10.00">MainNamespace::MeshReader</text>
<text text-anchor="middle" x="82.5" y="-70.5" font-family="Helvetica,sans-Serif" font-size="10.00">::~MeshReader</text>
</a>
</g>
</g>
<!-- Node2 -->
<g id="node2" class="node">
<title>Node2</title>
<g id="a_node2"><a xlink:href="namespace_main_namespace_1_1_logger.html#afbb4cc2d8b498e71fcb228f0da8309a1" target="_top" xlink:title=" ">
<polygon fill="white" stroke="black" points="212.5,-91 212.5,-110 370.5,-110 370.5,-91 212.5,-91"/>
<text text-anchor="middle" x="291.5" y="-98" font-family="Helvetica,sans-Serif" font-size="10.00">MainNamespace::Logger::log</text>
</a>
</g>
</g>
<!-- Node1&#45;&gt;Node2 -->
<g id="edge1" class="edge">
<title>Node1&#45;&gt;Node2</title>
<path fill="none" stroke="midnightblue" d="M165.01,-87.16C177.21,-88.46 189.84,-89.8 202.17,-91.11"/>
<polygon fill="midnightblue" stroke="midnightblue" points="202.13,-94.63 212.44,-92.2 202.87,-87.67 202.13,-94.63"/>
</g>
<!-- Node4 -->
<g id="node4" class="node">
<title>Node4</title>
<g id="a_node4"><a xlink:href="namespace_main_namespace.html#a71dba2b09368b6de6d66105d0bca7911" target="_top" xlink:title=" ">
<polygon fill="white" stroke="black" points="201,-50 201,-69 382,-69 382,-50 201,-50"/>
<text text-anchor="middle" x="291.5" y="-57" font-family="Helvetica,sans-Serif" font-size="10.00">MainNamespace::outputDirectory</text>
</a>
</g>
</g>
<!-- Node1&#45;&gt;Node4 -->
<g id="edge3" class="edge">
<title>Node1&#45;&gt;Node4</title>
<path fill="none" stroke="midnightblue" d="M165.01,-71.02C173.47,-70.24 182.13,-69.45 190.76,-68.65"/>
<polygon fill="midnightblue" stroke="midnightblue" points="191.22,-72.13 200.86,-67.73 190.58,-65.16 191.22,-72.13"/>
</g>
<!-- Node3 -->
<g id="node3" class="node">
<title>Node3</title>
<g id="a_node3"><a xlink:href="namespace_main_namespace_1_1_logger.html#af052b0198f333fca77f0837a511ec7f7" target="_top" xlink:title=" ">
<polygon fill="white" stroke="black" points="435.5,-88.5 435.5,-118.5 572.5,-118.5 572.5,-88.5 435.5,-88.5"/>
<text text-anchor="start" x="443.5" y="-106.5" font-family="Helvetica,sans-Serif" font-size="10.00">MainNamespace::Logger</text>
<text text-anchor="middle" x="504" y="-95.5" font-family="Helvetica,sans-Serif" font-size="10.00">::forwardLog</text>
</a>
</g>
</g>
<!-- Node2&#45;&gt;Node3 -->
<g id="edge2" class="edge">
<title>Node2&#45;&gt;Node3</title>
<path fill="none" stroke="midnightblue" d="M370.58,-101.61C388.38,-101.87 407.3,-102.14 425.09,-102.39"/>
<polygon fill="midnightblue" stroke="midnightblue" points="425.37,-105.89 435.42,-102.54 425.47,-98.89 425.37,-105.89"/>
</g>
<!-- Node5 -->
<g id="node5" class="node">
<title>Node5</title>
<g id="a_node5"><a xlink:href="namespace_main_namespace.html#a6fd76e14adc7d23a9822334cb389b369" target="_top" xlink:title=" ">
<polygon fill="white" stroke="black" points="418,-50 418,-69 590,-69 590,-50 418,-50"/>
<text text-anchor="middle" x="504" y="-57" font-family="Helvetica,sans-Serif" font-size="10.00">MainNamespace::globalOptions</text>
</a>
</g>
</g>
<!-- Node4&#45;&gt;Node5 -->
<g id="edge4" class="edge">
<title>Node4&#45;&gt;Node5</title>
<path fill="none" stroke="midnightblue" d="M382.08,-59.5C390.6,-59.5 399.27,-59.5 407.84,-59.5"/>
<polygon fill="midnightblue" stroke="midnightblue" points="407.85,-63 417.85,-59.5 407.85,-56 407.85,-63"/>
</g>
<!-- Node6 -->
<g id="node6" class="node">
<title>Node6</title>
<g id="a_node6"><a xlink:href="struct_main_namespace_1_1_options.html#abc72bf32dd08eaa276f0d5408909d201" target="_top" xlink:title=" ">
<polygon fill="white" stroke="black" points="433,-0.5 433,-30.5 575,-30.5 575,-0.5 433,-0.5"/>
<text text-anchor="start" x="441" y="-18.5" font-family="Helvetica,sans-Serif" font-size="10.00">MainNamespace::Options</text>
<text text-anchor="middle" x="504" y="-7.5" font-family="Helvetica,sans-Serif" font-size="10.00">::outputDirectory</text>
</a>
</g>
</g>
<!-- Node4&#45;&gt;Node6 -->
<g id="edge5" class="edge">
<title>Node4&#45;&gt;Node6</title>
<path fill="none" stroke="midnightblue" d="M338.18,-49.95C362.95,-44.78 394.28,-38.23 422.96,-32.23"/>
<polygon fill="midnightblue" stroke="midnightblue" points="423.91,-35.61 432.98,-30.14 422.47,-28.76 423.91,-35.61"/>
</g>
</g>
</svg>
