<?xml version="1.0" encoding="UTF-8" standalone="no"?>
<!DOCTYPE svg PUBLIC "-//W3C//DTD SVG 1.1//EN"
 "http://www.w3.org/Graphics/SVG/1.1/DTD/svg11.dtd">
<!-- Generated by graphviz version 2.43.0 (0)
 -->
<!-- Title: lyra::parse_result Pages: 1 -->
<svg width="970pt" height="123pt"
 viewBox="0.00 0.00 970.00 122.50" xmlns="http://www.w3.org/2000/svg" xmlns:xlink="http://www.w3.org/1999/xlink">
<g id="graph0" class="graph" transform="scale(1 1) rotate(0) translate(4 118.5)">
<title>lyra::parse_result</title>
<polygon fill="white" stroke="transparent" points="-4,4 -4,-118.5 966,-118.5 966,4 -4,4"/>
<!-- Node1 -->
<g id="node1" class="node">
<title>Node1</title>
<g id="a_node1"><a xlink:title=" ">
<polygon fill="#bfbfbf" stroke="black" points="861,-84 861,-103 962,-103 962,-84 861,-84"/>
<text text-anchor="middle" x="911.5" y="-91" font-family="Helvetica,sans-Serif" font-size="10.00">lyra::parse_result</text>
</a>
</g>
</g>
<!-- Node2 -->
<g id="node2" class="node">
<title>Node2</title>
<g id="a_node2"><a xlink:href="classlyra_1_1detail_1_1basic__result.html" target="_top" xlink:title=" ">
<polygon fill="white" stroke="black" points="702,-73 702,-114 824,-114 824,-73 702,-73"/>
<text text-anchor="start" x="710" y="-102" font-family="Helvetica,sans-Serif" font-size="10.00">lyra::detail::basic</text>
<text text-anchor="start" x="710" y="-91" font-family="Helvetica,sans-Serif" font-size="10.00">_result&lt; detail::parse</text>
<text text-anchor="middle" x="763" y="-80" font-family="Helvetica,sans-Serif" font-size="10.00">_state &gt;</text>
</a>
</g>
</g>
<!-- Node2&#45;&gt;Node1 -->
<g id="edge1" class="edge">
<title>Node2&#45;&gt;Node1</title>
<path fill="none" stroke="midnightblue" d="M834.08,-86.76C843.04,-86.72 852.07,-86.83 860.63,-87.07"/>
<polygon fill="midnightblue" stroke="midnightblue" points="833.98,-83.26 824.01,-86.85 834.04,-90.26 833.98,-83.26"/>
</g>
<!-- Node2&#45;&gt;Node1 -->
<g id="edge14" class="edge">
<title>Node2&#45;&gt;Node1</title>
<path fill="none" stroke="midnightblue" d="M834.08,-100.24C843.04,-100.28 852.07,-100.17 860.63,-99.93"/>
<polygon fill="midnightblue" stroke="midnightblue" points="834.04,-96.74 824.01,-100.15 833.98,-103.74 834.04,-96.74"/>
</g>
<!-- Node3 -->
<g id="node3" class="node">
<title>Node3</title>
<g id="a_node3"><a xlink:href="classlyra_1_1detail_1_1result__value__base.html" target="_top" xlink:title=" ">
<polygon fill="white" stroke="black" points="427,-73 427,-114 549,-114 549,-73 427,-73"/>
<text text-anchor="start" x="435" y="-102" font-family="Helvetica,sans-Serif" font-size="10.00">lyra::detail::result</text>
<text text-anchor="start" x="435" y="-91" font-family="Helvetica,sans-Serif" font-size="10.00">_value_base&lt; detail::</text>
<text text-anchor="middle" x="488" y="-80" font-family="Helvetica,sans-Serif" font-size="10.00">parse_state &gt;</text>
</a>
</g>
</g>
<!-- Node3&#45;&gt;Node2 -->
<g id="edge2" class="edge">
<title>Node3&#45;&gt;Node2</title>
<path fill="none" stroke="midnightblue" d="M559.33,-87.51C603.49,-86.41 659.84,-86.5 701.9,-87.8"/>
<polygon fill="midnightblue" stroke="midnightblue" points="559.15,-84.01 549.25,-87.79 559.34,-91.01 559.15,-84.01"/>
</g>
<!-- Node3&#45;&gt;Node2 -->
<g id="edge8" class="edge">
<title>Node3&#45;&gt;Node2</title>
<path fill="none" stroke="midnightblue" d="M559.33,-99.49C603.49,-100.59 659.84,-100.5 701.9,-99.2"/>
<polygon fill="midnightblue" stroke="midnightblue" points="559.34,-95.99 549.25,-99.21 559.15,-102.99 559.34,-95.99"/>
</g>
<!-- Node4 -->
<g id="node4" class="node">
<title>Node4</title>
<g id="a_node4"><a xlink:href="classlyra_1_1detail_1_1result__base.html" target="_top" xlink:title=" ">
<polygon fill="white" stroke="black" points="0,-55 0,-74 131,-74 131,-55 0,-55"/>
<text text-anchor="middle" x="65.5" y="-62" font-family="Helvetica,sans-Serif" font-size="10.00">lyra::detail::result_base</text>
</a>
</g>
</g>
<!-- Node4&#45;&gt;Node3 -->
<g id="edge3" class="edge">
<title>Node4&#45;&gt;Node3</title>
<path fill="none" stroke="midnightblue" d="M137.02,-76.26C141.05,-77.1 145.07,-77.86 149,-78.5 245.15,-94.24 358.72,-92.09 426.7,-91.09"/>
<polygon fill="midnightblue" stroke="midnightblue" points="137.5,-72.78 126.99,-74.05 136,-79.62 137.5,-72.78"/>
</g>
<!-- Node4&#45;&gt;Node3 -->
<g id="edge4" class="edge">
<title>Node4&#45;&gt;Node3</title>
<path fill="none" stroke="midnightblue" d="M86.21,-78.54C102.75,-85.71 127.13,-92.92 149,-96.5 245.15,-112.24 358.72,-110.09 426.7,-104.18"/>
<polygon fill="midnightblue" stroke="midnightblue" points="87.54,-75.29 77.01,-74.11 84.5,-81.6 87.54,-75.29"/>
</g>
<!-- Node5 -->
<g id="node5" class="node">
<title>Node5</title>
<g id="a_node5"><a xlink:href="classlyra_1_1detail_1_1result__value__base.html" target="_top" xlink:title=" ">
<polygon fill="white" stroke="black" points="168,-49.5 168,-79.5 274,-79.5 274,-49.5 168,-49.5"/>
<text text-anchor="start" x="176" y="-67.5" font-family="Helvetica,sans-Serif" font-size="10.00">lyra::detail::result</text>
<text text-anchor="middle" x="221" y="-56.5" font-family="Helvetica,sans-Serif" font-size="10.00">_value_base&lt; T &gt;</text>
</a>
</g>
</g>
<!-- Node4&#45;&gt;Node5 -->
<g id="edge6" class="edge">
<title>Node4&#45;&gt;Node5</title>
<path fill="none" stroke="midnightblue" d="M141.3,-57.75C150.33,-57.73 159.39,-57.84 167.99,-58.07"/>
<polygon fill="midnightblue" stroke="midnightblue" points="141.13,-54.25 131.15,-57.83 141.18,-61.25 141.13,-54.25"/>
</g>
<!-- Node4&#45;&gt;Node5 -->
<g id="edge7" class="edge">
<title>Node4&#45;&gt;Node5</title>
<path fill="none" stroke="midnightblue" d="M141.3,-71.25C150.33,-71.27 159.39,-71.16 167.99,-70.93"/>
<polygon fill="midnightblue" stroke="midnightblue" points="141.18,-67.75 131.15,-71.17 141.13,-74.75 141.18,-67.75"/>
</g>
<!-- Node7 -->
<g id="node7" class="node">
<title>Node7</title>
<g id="a_node7"><a xlink:href="classlyra_1_1detail_1_1result__value__base.html" target="_top" xlink:title=" ">
<polygon fill="white" stroke="black" points="168,-0.5 168,-30.5 274,-30.5 274,-0.5 168,-0.5"/>
<text text-anchor="start" x="176" y="-18.5" font-family="Helvetica,sans-Serif" font-size="10.00">lyra::detail::result</text>
<text text-anchor="middle" x="221" y="-7.5" font-family="Helvetica,sans-Serif" font-size="10.00">_value_base&lt; T &gt;</text>
</a>
</g>
</g>
<!-- Node4&#45;&gt;Node7 -->
<g id="edge11" class="edge">
<title>Node4&#45;&gt;Node7</title>
<path fill="none" stroke="midnightblue" d="M92.24,-51.09C112.78,-43.03 142.23,-33.21 167.68,-25.76"/>
<polygon fill="midnightblue" stroke="midnightblue" points="90.87,-47.87 82.93,-54.89 93.51,-54.35 90.87,-47.87"/>
</g>
<!-- Node4&#45;&gt;Node7 -->
<g id="edge12" class="edge">
<title>Node4&#45;&gt;Node7</title>
<path fill="none" stroke="midnightblue" d="M125.93,-52.12C147.89,-45.51 171.84,-37.49 190.08,-30.53"/>
<polygon fill="midnightblue" stroke="midnightblue" points="124.94,-48.77 116.34,-54.96 126.92,-55.48 124.94,-48.77"/>
</g>
<!-- Node5&#45;&gt;Node3 -->
<g id="edge5" class="edge">
<title>Node5&#45;&gt;Node3</title>
<path fill="none" stroke="orange" stroke-dasharray="5,2" d="M284.01,-70.39C320.44,-73.95 367.37,-78.72 409,-83.5 414.83,-84.17 420.91,-84.9 426.98,-85.64"/>
<polygon fill="orange" stroke="orange" points="284.32,-66.9 274.03,-69.42 283.65,-73.87 284.32,-66.9"/>
<text text-anchor="middle" x="350.5" y="-86.5" font-family="Helvetica,sans-Serif" font-size="10.00"> &lt; detail::parse_state &gt;</text>
</g>
<!-- Node6 -->
<g id="node6" class="node">
<title>Node6</title>
<g id="a_node6"><a xlink:href="classlyra_1_1detail_1_1basic__result.html" target="_top" xlink:title=" ">
<polygon fill="white" stroke="black" points="437.5,-0.5 437.5,-30.5 538.5,-30.5 538.5,-0.5 437.5,-0.5"/>
<text text-anchor="start" x="445.5" y="-18.5" font-family="Helvetica,sans-Serif" font-size="10.00">lyra::detail::basic</text>
<text text-anchor="middle" x="488" y="-7.5" font-family="Helvetica,sans-Serif" font-size="10.00">_result&lt; T &gt;</text>
</a>
</g>
</g>
<!-- Node6&#45;&gt;Node2 -->
<g id="edge9" class="edge">
<title>Node6&#45;&gt;Node2</title>
<path fill="none" stroke="orange" stroke-dasharray="5,2" d="M548.45,-32.49C593.81,-45.45 656.04,-63.23 701.62,-76.25"/>
<polygon fill="orange" stroke="orange" points="549.33,-29.1 538.75,-29.72 547.41,-35.83 549.33,-29.1"/>
<text text-anchor="middle" x="625.5" y="-73.5" font-family="Helvetica,sans-Serif" font-size="10.00"> &lt; detail::parse_state &gt;</text>
</g>
<!-- Node7&#45;&gt;Node6 -->
<g id="edge10" class="edge">
<title>Node7&#45;&gt;Node6</title>
<path fill="none" stroke="midnightblue" d="M284.04,-9.68C330.75,-8.31 393.93,-8.45 437.32,-10.09"/>
<polygon fill="midnightblue" stroke="midnightblue" points="283.92,-6.18 274.04,-10.01 284.15,-13.18 283.92,-6.18"/>
</g>
<!-- Node7&#45;&gt;Node6 -->
<g id="edge13" class="edge">
<title>Node7&#45;&gt;Node6</title>
<path fill="none" stroke="midnightblue" d="M284.04,-21.32C330.75,-22.69 393.93,-22.55 437.32,-20.91"/>
<polygon fill="midnightblue" stroke="midnightblue" points="284.15,-17.82 274.04,-20.99 283.92,-24.82 284.15,-17.82"/>
</g>
</g>
</svg>
