<?xml version="1.0" encoding="UTF-8" standalone="no"?>
<!DOCTYPE svg PUBLIC "-//W3C//DTD SVG 1.1//EN"
 "http://www.w3.org/Graphics/SVG/1.1/DTD/svg11.dtd">
<!-- Generated by graphviz version 2.43.0 (0)
 -->
<!-- Title: lyra::detail::result_base::message Pages: 1 -->
<svg width="667pt" height="315pt"
 viewBox="0.00 0.00 667.00 315.00" xmlns="http://www.w3.org/2000/svg" xmlns:xlink="http://www.w3.org/1999/xlink">
<g id="graph0" class="graph" transform="scale(1 1) rotate(0) translate(4 311)">
<title>lyra::detail::result_base::message</title>
<polygon fill="white" stroke="transparent" points="-4,4 -4,-311 663,-311 663,4 -4,4"/>
<!-- Node1 -->
<g id="node1" class="node">
<title>Node1</title>
<g id="a_node1"><a xlink:title=" ">
<polygon fill="#bfbfbf" stroke="black" points="556,-77 556,-107 659,-107 659,-77 556,-77"/>
<text text-anchor="start" x="564" y="-95" font-family="Helvetica,sans-Serif" font-size="10.00">lyra::detail::result</text>
<text text-anchor="middle" x="607.5" y="-84" font-family="Helvetica,sans-Serif" font-size="10.00">_base::message</text>
</a>
</g>
</g>
<!-- Node2 -->
<g id="node2" class="node">
<title>Node2</title>
<g id="a_node2"><a xlink:href="classlyra_1_1detail_1_1basic__result_3_01void_01_4.html#a5fab8869361e6299ed3f41ac690c050c" target="_top" xlink:title=" ">
<polygon fill="white" stroke="black" points="398,-194 398,-224 520,-224 520,-194 398,-194"/>
<text text-anchor="start" x="406" y="-212" font-family="Helvetica,sans-Serif" font-size="10.00">lyra::detail::basic</text>
<text text-anchor="middle" x="459" y="-201" font-family="Helvetica,sans-Serif" font-size="10.00">_result&lt; void &gt;::error</text>
</a>
</g>
</g>
<!-- Node1&#45;&gt;Node2 -->
<g id="edge1" class="edge">
<title>Node1&#45;&gt;Node2</title>
<path fill="none" stroke="midnightblue" d="M581.8,-114.11C564.75,-129.13 541.39,-149.24 520,-166 507.69,-175.64 493.49,-185.86 481.99,-193.92"/>
<polygon fill="midnightblue" stroke="midnightblue" points="584.46,-116.43 589.63,-107.19 579.82,-111.19 584.46,-116.43"/>
</g>
<!-- Node6 -->
<g id="node6" class="node">
<title>Node6</title>
<g id="a_node6"><a xlink:href="classlyra_1_1detail_1_1basic__result.html#ae878693d416cc48943171ab4187f5719" target="_top" xlink:title=" ">
<polygon fill="white" stroke="black" points="408.5,-126 408.5,-156 509.5,-156 509.5,-126 408.5,-126"/>
<text text-anchor="start" x="416.5" y="-144" font-family="Helvetica,sans-Serif" font-size="10.00">lyra::detail::basic</text>
<text text-anchor="middle" x="459" y="-133" font-family="Helvetica,sans-Serif" font-size="10.00">_result::error</text>
</a>
</g>
</g>
<!-- Node1&#45;&gt;Node6 -->
<g id="edge5" class="edge">
<title>Node1&#45;&gt;Node6</title>
<path fill="none" stroke="midnightblue" d="M551.47,-110.41C536.14,-115.53 519.68,-121.04 505,-125.95"/>
<polygon fill="midnightblue" stroke="midnightblue" points="552.98,-113.59 561.35,-107.1 550.76,-106.95 552.98,-113.59"/>
</g>
<!-- Node14 -->
<g id="node14" class="node">
<title>Node14</title>
<g id="a_node14"><a xlink:href="classlyra_1_1detail_1_1result__base.html#a3fca1d7249ee81e1cff856d537c16ce6" target="_top" xlink:title=" ">
<polygon fill="white" stroke="black" points="400,-77 400,-107 518,-107 518,-77 400,-77"/>
<text text-anchor="start" x="408" y="-95" font-family="Helvetica,sans-Serif" font-size="10.00">lyra::detail::result</text>
<text text-anchor="middle" x="459" y="-84" font-family="Helvetica,sans-Serif" font-size="10.00">_base::errorMessage</text>
</a>
</g>
</g>
<!-- Node1&#45;&gt;Node14 -->
<g id="edge15" class="edge">
<title>Node1&#45;&gt;Node14</title>
<path fill="none" stroke="midnightblue" d="M545.53,-92C536.43,-92 527.06,-92 518.02,-92"/>
<polygon fill="midnightblue" stroke="midnightblue" points="545.67,-95.5 555.67,-92 545.67,-88.5 545.67,-95.5"/>
</g>
<!-- Node15 -->
<g id="node15" class="node">
<title>Node15</title>
<g id="a_node15"><a xlink:href="combined__parser_8cpp.html#a217dbf8b442f20279ea00b898af96f52" target="_top" xlink:title=" ">
<polygon fill="white" stroke="black" points="438.5,-38.5 438.5,-57.5 479.5,-57.5 479.5,-38.5 438.5,-38.5"/>
<text text-anchor="middle" x="459" y="-45.5" font-family="Helvetica,sans-Serif" font-size="10.00">main</text>
</a>
</g>
</g>
<!-- Node1&#45;&gt;Node15 -->
<g id="edge16" class="edge">
<title>Node1&#45;&gt;Node15</title>
<path fill="none" stroke="midnightblue" d="M546.75,-74.05C522.83,-66.87 496.92,-59.09 479.71,-53.92"/>
<polygon fill="midnightblue" stroke="midnightblue" points="545.91,-77.46 556.49,-76.98 547.92,-70.75 545.91,-77.46"/>
</g>
<!-- Node16 -->
<g id="node16" class="node">
<title>Node16</title>
<g id="a_node16"><a xlink:href="values__run__test_8cpp.html#a62c5a6cdfec8c364869ca33c65c3d4e6" target="_top" xlink:title=" ">
<polygon fill="white" stroke="black" points="431,-0.5 431,-19.5 487,-19.5 487,-0.5 431,-0.5"/>
<text text-anchor="middle" x="459" y="-7.5" font-family="Helvetica,sans-Serif" font-size="10.00">test_val</text>
</a>
</g>
</g>
<!-- Node1&#45;&gt;Node16 -->
<g id="edge17" class="edge">
<title>Node1&#45;&gt;Node16</title>
<path fill="none" stroke="midnightblue" d="M581.31,-70.27C564.77,-56.89 542.17,-40.21 520,-29 509.66,-23.77 497.6,-19.62 487.01,-16.54"/>
<polygon fill="midnightblue" stroke="midnightblue" points="579.43,-73.26 589.38,-76.93 583.89,-67.86 579.43,-73.26"/>
</g>
<!-- Node3 -->
<g id="node3" class="node">
<title>Node3</title>
<g id="a_node3"><a xlink:href="classlyra_1_1opt.html#afba3580e48226cae8006040e2cab8804" target="_top" xlink:title=" ">
<polygon fill="white" stroke="black" points="259,-251.5 259,-270.5 362,-270.5 362,-251.5 259,-251.5"/>
<text text-anchor="middle" x="310.5" y="-258.5" font-family="Helvetica,sans-Serif" font-size="10.00">lyra::opt::validate</text>
</a>
</g>
</g>
<!-- Node2&#45;&gt;Node3 -->
<g id="edge2" class="edge">
<title>Node2&#45;&gt;Node3</title>
<path fill="none" stroke="midnightblue" d="M406.07,-227.43C383.26,-235.53 357.44,-244.69 338.54,-251.4"/>
<polygon fill="midnightblue" stroke="midnightblue" points="407.37,-230.68 415.63,-224.04 405.03,-224.09 407.37,-230.68"/>
</g>
<!-- Node4 -->
<g id="node4" class="node">
<title>Node4</title>
<g id="a_node4"><a xlink:href="classlyra_1_1opt.html#a320fdddd60a89469dca1ba3c07e7bf20" target="_top" xlink:title=" ">
<polygon fill="white" stroke="black" points="105,-287.5 105,-306.5 195,-306.5 195,-287.5 105,-287.5"/>
<text text-anchor="middle" x="150" y="-294.5" font-family="Helvetica,sans-Serif" font-size="10.00">lyra::opt::parse</text>
</a>
</g>
</g>
<!-- Node3&#45;&gt;Node4 -->
<g id="edge3" class="edge">
<title>Node3&#45;&gt;Node4</title>
<path fill="none" stroke="midnightblue" d="M257.44,-272.82C236.53,-277.57 212.75,-282.97 192.98,-287.47"/>
<polygon fill="midnightblue" stroke="midnightblue" points="258.46,-276.18 267.44,-270.55 256.91,-269.35 258.46,-276.18"/>
</g>
<!-- Node5 -->
<g id="node5" class="node">
<title>Node5</title>
<g id="a_node5"><a xlink:href="single__parser__run__test_8cpp.html#ae66f6b31b5ad750f1fe042a706a4e3d4" target="_top" xlink:title=" ">
<polygon fill="white" stroke="black" points="0,-287.5 0,-306.5 41,-306.5 41,-287.5 0,-287.5"/>
<text text-anchor="middle" x="20.5" y="-294.5" font-family="Helvetica,sans-Serif" font-size="10.00">main</text>
</a>
</g>
</g>
<!-- Node4&#45;&gt;Node5 -->
<g id="edge4" class="edge">
<title>Node4&#45;&gt;Node5</title>
<path fill="none" stroke="midnightblue" d="M94.65,-297C75.6,-297 55.4,-297 41.07,-297"/>
<polygon fill="midnightblue" stroke="midnightblue" points="94.76,-300.5 104.76,-297 94.76,-293.5 94.76,-300.5"/>
</g>
<!-- Node7 -->
<g id="node7" class="node">
<title>Node7</title>
<g id="a_node7"><a xlink:href="structlyra_1_1detail_1_1choices__set.html#a2a78ba4d2bf13c9be72cdb9f075ac58b" target="_top" xlink:title=" ">
<polygon fill="white" stroke="black" points="92,-91 92,-121 208,-121 208,-91 92,-91"/>
<text text-anchor="start" x="100" y="-109" font-family="Helvetica,sans-Serif" font-size="10.00">lyra::detail::choices</text>
<text text-anchor="middle" x="150" y="-98" font-family="Helvetica,sans-Serif" font-size="10.00">_set::contains_value</text>
</a>
</g>
</g>
<!-- Node6&#45;&gt;Node7 -->
<g id="edge6" class="edge">
<title>Node6&#45;&gt;Node7</title>
<path fill="none" stroke="midnightblue" d="M398.43,-128.06C386.41,-125.77 373.84,-123.61 362,-122 310.13,-114.93 250.63,-110.77 208.06,-108.48"/>
<polygon fill="midnightblue" stroke="midnightblue" points="397.88,-131.52 408.36,-130 399.22,-124.65 397.88,-131.52"/>
</g>
<!-- Node8 -->
<g id="node8" class="node">
<title>Node8</title>
<g id="a_node8"><a xlink:href="structlyra_1_1detail_1_1choices__check.html#abeea1614739aaa2644cb229fef0e9df0" target="_top" xlink:title=" ">
<polygon fill="white" stroke="black" points="85,-42 85,-72 215,-72 215,-42 85,-42"/>
<text text-anchor="start" x="93" y="-60" font-family="Helvetica,sans-Serif" font-size="10.00">lyra::detail::choices</text>
<text text-anchor="middle" x="150" y="-49" font-family="Helvetica,sans-Serif" font-size="10.00">_check::contains_value</text>
</a>
</g>
</g>
<!-- Node6&#45;&gt;Node8 -->
<g id="edge7" class="edge">
<title>Node6&#45;&gt;Node8</title>
<path fill="none" stroke="midnightblue" d="M406.94,-122.45C392.5,-117.48 376.71,-112.29 362,-108 313.16,-93.74 257.16,-80.34 215.12,-70.85"/>
<polygon fill="midnightblue" stroke="midnightblue" points="406.09,-125.86 416.69,-125.85 408.4,-119.25 406.09,-125.86"/>
</g>
<!-- Node9 -->
<g id="node9" class="node">
<title>Node9</title>
<g id="a_node9"><a xlink:href="classlyra_1_1literal.html#a0b616706829da82299d42c4a188d6408" target="_top" xlink:title=" ">
<polygon fill="white" stroke="black" points="259,-131.5 259,-150.5 362,-150.5 362,-131.5 259,-131.5"/>
<text text-anchor="middle" x="310.5" y="-138.5" font-family="Helvetica,sans-Serif" font-size="10.00">lyra::literal::parse</text>
</a>
</g>
</g>
<!-- Node6&#45;&gt;Node9 -->
<g id="edge8" class="edge">
<title>Node6&#45;&gt;Node9</title>
<path fill="none" stroke="midnightblue" d="M398.05,-141C386.1,-141 373.65,-141 362.05,-141"/>
<polygon fill="midnightblue" stroke="midnightblue" points="398.4,-144.5 408.4,-141 398.4,-137.5 398.4,-144.5"/>
</g>
<!-- Node10 -->
<g id="node10" class="node">
<title>Node10</title>
<g id="a_node10"><a xlink:href="namespacelyra_1_1detail.html#a22e3bf1a412cd8fde673729391090abf" target="_top" xlink:title=" ">
<polygon fill="white" stroke="black" points="259.5,-170 259.5,-200 361.5,-200 361.5,-170 259.5,-170"/>
<text text-anchor="start" x="267.5" y="-188" font-family="Helvetica,sans-Serif" font-size="10.00">lyra::detail::parse</text>
<text text-anchor="middle" x="310.5" y="-177" font-family="Helvetica,sans-Serif" font-size="10.00">_string</text>
</a>
</g>
</g>
<!-- Node6&#45;&gt;Node10 -->
<g id="edge9" class="edge">
<title>Node6&#45;&gt;Node10</title>
<path fill="none" stroke="midnightblue" d="M398.67,-158.82C386.35,-162.52 373.49,-166.38 361.55,-169.97"/>
<polygon fill="midnightblue" stroke="midnightblue" points="399.83,-162.13 408.4,-155.9 397.82,-155.42 399.83,-162.13"/>
</g>
<!-- Node10&#45;&gt;Node7 -->
<g id="edge10" class="edge">
<title>Node10&#45;&gt;Node7</title>
<path fill="none" stroke="midnightblue" d="M267.49,-165.1C264.58,-163.45 261.72,-161.74 259,-160 241.69,-148.93 240.97,-140.96 223,-131 216.29,-127.28 208.92,-123.96 201.54,-121.05"/>
<polygon fill="midnightblue" stroke="midnightblue" points="265.87,-168.2 276.33,-169.88 269.2,-162.04 265.87,-168.2"/>
</g>
<!-- Node10&#45;&gt;Node8 -->
<g id="edge11" class="edge">
<title>Node10&#45;&gt;Node8</title>
<path fill="none" stroke="midnightblue" d="M263.41,-164.06C261.86,-162.77 260.38,-161.42 259,-160 232.37,-132.64 251.29,-107.64 223,-82 218.78,-78.18 213.95,-74.94 208.83,-72.19"/>
<polygon fill="midnightblue" stroke="midnightblue" points="261.5,-166.99 271.67,-169.94 265.56,-161.29 261.5,-166.99"/>
</g>
<!-- Node11 -->
<g id="node11" class="node">
<title>Node11</title>
<g id="a_node11"><a xlink:href="namespacelyra_1_1detail.html#acbf6c3970044a4db411f87f1130fac59" target="_top" xlink:title=" ">
<polygon fill="white" stroke="black" points="77,-189.5 77,-208.5 223,-208.5 223,-189.5 77,-189.5"/>
<text text-anchor="middle" x="150" y="-196.5" font-family="Helvetica,sans-Serif" font-size="10.00">lyra::detail::invokeLambda</text>
</a>
</g>
</g>
<!-- Node10&#45;&gt;Node11 -->
<g id="edge12" class="edge">
<title>Node10&#45;&gt;Node11</title>
<path fill="none" stroke="midnightblue" d="M249.15,-190.33C240.64,-191.08 231.82,-191.86 223.12,-192.63"/>
<polygon fill="midnightblue" stroke="midnightblue" points="249.7,-193.8 259.35,-189.43 249.08,-186.82 249.7,-193.8"/>
</g>
<!-- Node12 -->
<g id="node12" class="node">
<title>Node12</title>
<g id="a_node12"><a xlink:href="structlyra_1_1detail_1_1_bound_value_ref.html#a665e8a2d390fcd308d59ddbe045bf1e3" target="_top" xlink:title=" ">
<polygon fill="white" stroke="black" points="83,-140 83,-170 217,-170 217,-140 83,-140"/>
<text text-anchor="start" x="91" y="-158" font-family="Helvetica,sans-Serif" font-size="10.00">lyra::detail::BoundValue</text>
<text text-anchor="middle" x="150" y="-147" font-family="Helvetica,sans-Serif" font-size="10.00">Ref::setValue</text>
</a>
</g>
</g>
<!-- Node10&#45;&gt;Node12 -->
<g id="edge13" class="edge">
<title>Node10&#45;&gt;Node12</title>
<path fill="none" stroke="midnightblue" d="M249.4,-173.62C238.83,-171.62 227.79,-169.53 217.07,-167.51"/>
<polygon fill="midnightblue" stroke="midnightblue" points="248.87,-177.09 259.35,-175.51 250.17,-170.21 248.87,-177.09"/>
</g>
<!-- Node13 -->
<g id="node13" class="node">
<title>Node13</title>
<g id="a_node13"><a xlink:href="structlyra_1_1detail_1_1_bound_value_ref_3_01std_1_1vector_3_01_t_01_4_01_4.html#aa413c07d21268101cca49ef250bf5c07" target="_top" xlink:title=" ">
<polygon fill="white" stroke="black" points="83,-227.5 83,-268.5 217,-268.5 217,-227.5 83,-227.5"/>
<text text-anchor="start" x="91" y="-256.5" font-family="Helvetica,sans-Serif" font-size="10.00">lyra::detail::BoundValue</text>
<text text-anchor="start" x="91" y="-245.5" font-family="Helvetica,sans-Serif" font-size="10.00">Ref&lt; std::vector&lt; T &gt;</text>
<text text-anchor="middle" x="150" y="-234.5" font-family="Helvetica,sans-Serif" font-size="10.00"> &gt;::setValue</text>
</a>
</g>
</g>
<!-- Node10&#45;&gt;Node13 -->
<g id="edge14" class="edge">
<title>Node10&#45;&gt;Node13</title>
<path fill="none" stroke="midnightblue" d="M262.05,-203.86C243.35,-211.29 221.83,-219.85 202.74,-227.44"/>
<polygon fill="midnightblue" stroke="midnightblue" points="263.54,-207.04 271.54,-200.09 260.95,-200.53 263.54,-207.04"/>
</g>
<!-- Node17 -->
<g id="node17" class="node">
<title>Node17</title>
<g id="a_node17"><a xlink:href="values__run__test_8cpp.html#ae66f6b31b5ad750f1fe042a706a4e3d4" target="_top" xlink:title=" ">
<polygon fill="white" stroke="black" points="290,-0.5 290,-19.5 331,-19.5 331,-0.5 290,-0.5"/>
<text text-anchor="middle" x="310.5" y="-7.5" font-family="Helvetica,sans-Serif" font-size="10.00">main</text>
</a>
</g>
</g>
<!-- Node16&#45;&gt;Node17 -->
<g id="edge18" class="edge">
<title>Node16&#45;&gt;Node17</title>
<path fill="none" stroke="midnightblue" d="M420.75,-10C392.19,-10 353.91,-10 331.07,-10"/>
<polygon fill="midnightblue" stroke="midnightblue" points="420.79,-13.5 430.79,-10 420.79,-6.5 420.79,-13.5"/>
</g>
</g>
</svg>
