<?xml version="1.0" encoding="UTF-8" standalone="no"?>
<!DOCTYPE svg PUBLIC "-//W3C//DTD SVG 1.1//EN"
 "http://www.w3.org/Graphics/SVG/1.1/DTD/svg11.dtd">
<!-- Generated by graphviz version 2.43.0 (0)
 -->
<!-- Title: MainNamespace::BoermTimer Pages: 1 -->
<svg width="258pt" height="162pt"
 viewBox="0.00 0.00 257.50 162.00" xmlns="http://www.w3.org/2000/svg" xmlns:xlink="http://www.w3.org/1999/xlink">
<g id="graph0" class="graph" transform="scale(1 1) rotate(0) translate(4 158)">
<title>MainNamespace::BoermTimer</title>
<polygon fill="white" stroke="transparent" points="-4,4 -4,-158 253.5,-158 253.5,4 -4,4"/>
<!-- Node1 -->
<g id="node1" class="node">
<title>Node1</title>
<g id="a_node1"><a xlink:title=" ">
<polygon fill="#bfbfbf" stroke="black" points="63,-0.5 63,-19.5 227,-19.5 227,-0.5 63,-0.5"/>
<text text-anchor="middle" x="145" y="-7.5" font-family="Helvetica,sans-Serif" font-size="10.00">MainNamespace::BoermTimer</text>
</a>
</g>
</g>
<!-- Node2 -->
<g id="node2" class="node">
<title>Node2</title>
<g id="a_node2"><a xlink:href="class_main_namespace_1_1_base_timer.html" target="_top" xlink:title=" ">
<polygon fill="white" stroke="black" points="0,-67.5 0,-86.5 156,-86.5 156,-67.5 0,-67.5"/>
<text text-anchor="middle" x="78" y="-74.5" font-family="Helvetica,sans-Serif" font-size="10.00">MainNamespace::BaseTimer</text>
</a>
</g>
</g>
<!-- Node2&#45;&gt;Node1 -->
<g id="edge1" class="edge">
<title>Node2&#45;&gt;Node1</title>
<path fill="none" stroke="midnightblue" d="M94.5,-60C107.64,-47.25 125.52,-29.89 136.11,-19.63"/>
<polygon fill="midnightblue" stroke="midnightblue" points="91.78,-57.76 87.04,-67.23 96.65,-62.78 91.78,-57.76"/>
</g>
<!-- Node3 -->
<g id="node3" class="node">
<title>Node3</title>
<g id="a_node3"><a xlink:title=" ">
<polygon fill="white" stroke="black" points="52.5,-134.5 52.5,-153.5 103.5,-153.5 103.5,-134.5 52.5,-134.5"/>
<text text-anchor="middle" x="78" y="-141.5" font-family="Helvetica,sans-Serif" font-size="10.00">clock_t</text>
</a>
</g>
</g>
<!-- Node3&#45;&gt;Node2 -->
<g id="edge2" class="edge">
<title>Node3&#45;&gt;Node2</title>
<path fill="none" stroke="#9a32cd" stroke-dasharray="5,2" d="M78,-124.04C78,-111.67 78,-96.12 78,-86.63"/>
<polygon fill="#9a32cd" stroke="#9a32cd" points="74.5,-124.23 78,-134.23 81.5,-124.23 74.5,-124.23"/>
<text text-anchor="middle" x="93.5" y="-108" font-family="Helvetica,sans-Serif" font-size="10.00"> total_</text>
</g>
<!-- Node4 -->
<g id="node4" class="node">
<title>Node4</title>
<g id="a_node4"><a xlink:title=" ">
<polygon fill="white" stroke="black" points="174.5,-67.5 174.5,-86.5 249.5,-86.5 249.5,-67.5 174.5,-67.5"/>
<text text-anchor="middle" x="212" y="-74.5" font-family="Helvetica,sans-Serif" font-size="10.00">stopwatch *</text>
</a>
</g>
</g>
<!-- Node4&#45;&gt;Node1 -->
<g id="edge3" class="edge">
<title>Node4&#45;&gt;Node1</title>
<path fill="none" stroke="#9a32cd" stroke-dasharray="5,2" d="M195.5,-60C182.36,-47.25 164.48,-29.89 153.89,-19.63"/>
<polygon fill="#9a32cd" stroke="#9a32cd" points="193.35,-62.78 202.96,-67.23 198.22,-57.76 193.35,-62.78"/>
<text text-anchor="middle" x="199.5" y="-41" font-family="Helvetica,sans-Serif" font-size="10.00"> timer_</text>
</g>
</g>
</svg>
