<?xml version="1.0" encoding="UTF-8" standalone="no"?>
<!DOCTYPE svg PUBLIC "-//W3C//DTD SVG 1.1//EN"
 "http://www.w3.org/Graphics/SVG/1.1/DTD/svg11.dtd">
<!-- Generated by graphviz version 2.43.0 (0)
 -->
<!-- Title: MainNamespace::Surface::SingleSurface::apply Pages: 1 -->
<svg width="549pt" height="323pt"
 viewBox="0.00 0.00 549.00 322.50" xmlns="http://www.w3.org/2000/svg" xmlns:xlink="http://www.w3.org/1999/xlink">
<g id="graph0" class="graph" transform="scale(1 1) rotate(0) translate(4 318.5)">
<title>MainNamespace::Surface::SingleSurface::apply</title>
<polygon fill="white" stroke="transparent" points="-4,4 -4,-318.5 545,-318.5 545,4 -4,4"/>
<!-- Node1 -->
<g id="node1" class="node">
<title>Node1</title>
<g id="a_node1"><a xlink:title="Apply the (scaled) Calderón operator (previously constructed) to the source vector,...">
<polygon fill="#bfbfbf" stroke="black" points="0,-147.5 0,-177.5 141,-177.5 141,-147.5 0,-147.5"/>
<text text-anchor="start" x="8" y="-165.5" font-family="Helvetica,sans-Serif" font-size="10.00">MainNamespace::Surface</text>
<text text-anchor="middle" x="70.5" y="-154.5" font-family="Helvetica,sans-Serif" font-size="10.00">::SingleSurface::apply</text>
</a>
</g>
</g>
<!-- Node2 -->
<g id="node2" class="node">
<title>Node2</title>
<g id="a_node2"><a xlink:href="namespace_main_namespace.html#a85b811ee0af1eea8ab8cbabb1f200e9d" target="_top" xlink:title=" ">
<polygon fill="white" stroke="black" points="184,-295 184,-314 325,-314 325,-295 184,-295"/>
<text text-anchor="middle" x="254.5" y="-302" font-family="Helvetica,sans-Serif" font-size="10.00">MainNamespace::constAt</text>
</a>
</g>
</g>
<!-- Node1&#45;&gt;Node2 -->
<g id="edge1" class="edge">
<title>Node1&#45;&gt;Node2</title>
<path fill="none" stroke="midnightblue" d="M80.1,-177.63C95.81,-203.85 131.74,-257.59 177,-285.5 180.44,-287.62 184.1,-289.51 187.89,-291.18"/>
<polygon fill="midnightblue" stroke="midnightblue" points="186.94,-294.56 197.52,-294.93 189.47,-288.04 186.94,-294.56"/>
</g>
<!-- Node4 -->
<g id="node4" class="node">
<title>Node4</title>
<g id="a_node4"><a xlink:href="namespace_main_namespace_1_1_surface.html#a87d1cf457ea557719602c0fa146bb5d8" target="_top" xlink:title=" ">
<polygon fill="white" stroke="black" points="184,-245.5 184,-275.5 325,-275.5 325,-245.5 184,-245.5"/>
<text text-anchor="start" x="192" y="-263.5" font-family="Helvetica,sans-Serif" font-size="10.00">MainNamespace::Surface</text>
<text text-anchor="middle" x="254.5" y="-252.5" font-family="Helvetica,sans-Serif" font-size="10.00">::del_const_sub_avector</text>
</a>
</g>
</g>
<!-- Node1&#45;&gt;Node4 -->
<g id="edge3" class="edge">
<title>Node1&#45;&gt;Node4</title>
<path fill="none" stroke="midnightblue" d="M89.46,-177.72C109.63,-194.16 143.89,-220.18 177,-236.5 180.79,-238.37 184.76,-240.13 188.81,-241.79"/>
<polygon fill="midnightblue" stroke="midnightblue" points="187.78,-245.14 198.37,-245.46 190.29,-238.61 187.78,-245.14"/>
</g>
<!-- Node5 -->
<g id="node5" class="node">
<title>Node5</title>
<g id="a_node5"><a xlink:href="namespace_main_namespace_1_1_surface.html#a28f7f6dcbbc4ddd8c3944c19f6f6e846" target="_top" xlink:title=" ">
<polygon fill="white" stroke="black" points="184,-196.5 184,-226.5 325,-226.5 325,-196.5 184,-196.5"/>
<text text-anchor="start" x="192" y="-214.5" font-family="Helvetica,sans-Serif" font-size="10.00">MainNamespace::Surface</text>
<text text-anchor="middle" x="254.5" y="-203.5" font-family="Helvetica,sans-Serif" font-size="10.00">::flipForOrientation</text>
</a>
</g>
</g>
<!-- Node1&#45;&gt;Node5 -->
<g id="edge4" class="edge">
<title>Node1&#45;&gt;Node5</title>
<path fill="none" stroke="midnightblue" d="M127.59,-177.6C146.62,-182.73 168.06,-188.5 187.77,-193.8"/>
<polygon fill="midnightblue" stroke="midnightblue" points="187.03,-197.23 197.59,-196.45 188.85,-190.47 187.03,-197.23"/>
</g>
<!-- Node6 -->
<g id="node6" class="node">
<title>Node6</title>
<g id="a_node6"><a xlink:href="namespace_main_namespace_1_1_surface.html#a2a1d5e2354fdae877885c0e041fd0f34" target="_top" xlink:title=" ">
<polygon fill="white" stroke="black" points="184,-147.5 184,-177.5 325,-177.5 325,-147.5 184,-147.5"/>
<text text-anchor="start" x="192" y="-165.5" font-family="Helvetica,sans-Serif" font-size="10.00">MainNamespace::Surface</text>
<text text-anchor="middle" x="254.5" y="-154.5" font-family="Helvetica,sans-Serif" font-size="10.00">::new_const_sub_avector</text>
</a>
</g>
</g>
<!-- Node1&#45;&gt;Node6 -->
<g id="edge5" class="edge">
<title>Node1&#45;&gt;Node6</title>
<path fill="none" stroke="midnightblue" d="M141.09,-162.5C151.73,-162.5 162.79,-162.5 173.64,-162.5"/>
<polygon fill="midnightblue" stroke="midnightblue" points="173.95,-166 183.95,-162.5 173.95,-159 173.95,-166"/>
</g>
<!-- Node7 -->
<g id="node7" class="node">
<title>Node7</title>
<g id="a_node7"><a xlink:href="class_main_namespace_1_1_surface_1_1_single_surface.html#a7d8e039812cd3719b07f14d641af0c2d" target="_top" xlink:title="Getter.">
<polygon fill="white" stroke="black" points="184,-98.5 184,-128.5 325,-128.5 325,-98.5 184,-98.5"/>
<text text-anchor="start" x="192" y="-116.5" font-family="Helvetica,sans-Serif" font-size="10.00">MainNamespace::Surface</text>
<text text-anchor="middle" x="254.5" y="-105.5" font-family="Helvetica,sans-Serif" font-size="10.00">::SingleSurface::stabilizer</text>
</a>
</g>
</g>
<!-- Node1&#45;&gt;Node7 -->
<g id="edge6" class="edge">
<title>Node1&#45;&gt;Node7</title>
<path fill="none" stroke="midnightblue" d="M127.59,-147.4C146.62,-142.27 168.06,-136.5 187.77,-131.2"/>
<polygon fill="midnightblue" stroke="midnightblue" points="188.85,-134.53 197.59,-128.55 187.03,-127.77 188.85,-134.53"/>
</g>
<!-- Node8 -->
<g id="node8" class="node">
<title>Node8</title>
<g id="a_node8"><a xlink:href="class_main_namespace_1_1_surface_1_1_single_surface.html#ab8312d4fb49958ca18e9286726a4807f" target="_top" xlink:title="Getter.">
<polygon fill="white" stroke="black" points="177,-49.5 177,-79.5 332,-79.5 332,-49.5 177,-49.5"/>
<text text-anchor="start" x="185" y="-67.5" font-family="Helvetica,sans-Serif" font-size="10.00">MainNamespace::Surface</text>
<text text-anchor="middle" x="254.5" y="-56.5" font-family="Helvetica,sans-Serif" font-size="10.00">::SingleSurface::triangleDofs</text>
</a>
</g>
</g>
<!-- Node1&#45;&gt;Node8 -->
<g id="edge7" class="edge">
<title>Node1&#45;&gt;Node8</title>
<path fill="none" stroke="midnightblue" d="M89.9,-147.28C110.18,-131.13 144.28,-105.74 177,-89.5 181.5,-87.27 186.25,-85.17 191.08,-83.21"/>
<polygon fill="midnightblue" stroke="midnightblue" points="192.35,-86.47 200.44,-79.62 189.85,-79.93 192.35,-86.47"/>
</g>
<!-- Node9 -->
<g id="node9" class="node">
<title>Node9</title>
<g id="a_node9"><a xlink:href="class_main_namespace_1_1_surface_1_1_single_surface.html#ae92b5553e908e57c25c2ebbf4bf94850" target="_top" xlink:title="Getter.">
<polygon fill="white" stroke="black" points="180,-0.5 180,-30.5 329,-30.5 329,-0.5 180,-0.5"/>
<text text-anchor="start" x="188" y="-18.5" font-family="Helvetica,sans-Serif" font-size="10.00">MainNamespace::Surface</text>
<text text-anchor="middle" x="254.5" y="-7.5" font-family="Helvetica,sans-Serif" font-size="10.00">::SingleSurface::vertexDofs</text>
</a>
</g>
</g>
<!-- Node1&#45;&gt;Node9 -->
<g id="edge8" class="edge">
<title>Node1&#45;&gt;Node9</title>
<path fill="none" stroke="midnightblue" d="M80.6,-147.42C96.82,-121.78 133.16,-69.65 177,-40.5 179.94,-38.55 183.04,-36.73 186.25,-35.05"/>
<polygon fill="midnightblue" stroke="midnightblue" points="187.98,-38.11 195.52,-30.67 184.98,-31.78 187.98,-38.11"/>
</g>
<!-- Node3 -->
<g id="node3" class="node">
<title>Node3</title>
<g id="a_node3"><a xlink:href="namespace_main_namespace.html#af2bdf8b63f748b11f1bb616b59890873" target="_top" xlink:title=" ">
<polygon fill="white" stroke="black" points="368,-295 368,-314 541,-314 541,-295 368,-295"/>
<text text-anchor="middle" x="454.5" y="-302" font-family="Helvetica,sans-Serif" font-size="10.00">MainNamespace::getUnderlying</text>
</a>
</g>
</g>
<!-- Node2&#45;&gt;Node3 -->
<g id="edge2" class="edge">
<title>Node2&#45;&gt;Node3</title>
<path fill="none" stroke="midnightblue" d="M325.03,-304.5C335.61,-304.5 346.68,-304.5 357.7,-304.5"/>
<polygon fill="midnightblue" stroke="midnightblue" points="357.79,-308 367.79,-304.5 357.79,-301 357.79,-308"/>
</g>
</g>
</svg>
