<?xml version="1.0" encoding="UTF-8" standalone="no"?>
<!DOCTYPE svg PUBLIC "-//W3C//DTD SVG 1.1//EN"
 "http://www.w3.org/Graphics/SVG/1.1/DTD/svg11.dtd">
<!-- Generated by graphviz version 2.43.0 (0)
 -->
<!-- Title: MainNamespace::Surface::SingleSurface::waveNumber Pages: 1 -->
<svg width="736pt" height="137pt"
 viewBox="0.00 0.00 736.00 137.00" xmlns="http://www.w3.org/2000/svg" xmlns:xlink="http://www.w3.org/1999/xlink">
<g id="graph0" class="graph" transform="scale(1 1) rotate(0) translate(4 133)">
<title>MainNamespace::Surface::SingleSurface::waveNumber</title>
<polygon fill="white" stroke="transparent" points="-4,4 -4,-133 732,-133 732,4 -4,4"/>
<!-- Node1 -->
<g id="node1" class="node">
<title>Node1</title>
<g id="a_node1"><a xlink:title="Getter.">
<polygon fill="#bfbfbf" stroke="black" points="567,-49.5 567,-79.5 728,-79.5 728,-49.5 567,-49.5"/>
<text text-anchor="start" x="575" y="-67.5" font-family="Helvetica,sans-Serif" font-size="10.00">MainNamespace::Surface</text>
<text text-anchor="middle" x="647.5" y="-56.5" font-family="Helvetica,sans-Serif" font-size="10.00">::SingleSurface::waveNumber</text>
</a>
</g>
</g>
<!-- Node2 -->
<g id="node2" class="node">
<title>Node2</title>
<g id="a_node2"><a xlink:href="class_main_namespace_1_1_surface_1_1_single_surface.html#a653f26daef216ab74bac87d618603c7f" target="_top" xlink:title="Build the operators.">
<polygon fill="white" stroke="black" points="367.5,-98.5 367.5,-128.5 529.5,-128.5 529.5,-98.5 367.5,-98.5"/>
<text text-anchor="start" x="375.5" y="-116.5" font-family="Helvetica,sans-Serif" font-size="10.00">MainNamespace::Surface</text>
<text text-anchor="middle" x="448.5" y="-105.5" font-family="Helvetica,sans-Serif" font-size="10.00">::SingleSurface::buildOperator</text>
</a>
</g>
</g>
<!-- Node1&#45;&gt;Node2 -->
<g id="edge1" class="edge">
<title>Node1&#45;&gt;Node2</title>
<path fill="none" stroke="midnightblue" d="M576.24,-81.98C554.52,-87.38 530.81,-93.28 509.83,-98.49"/>
<polygon fill="midnightblue" stroke="midnightblue" points="577.2,-85.34 586.05,-79.53 575.51,-78.55 577.2,-85.34"/>
</g>
<!-- Node6 -->
<g id="node6" class="node">
<title>Node6</title>
<g id="a_node6"><a xlink:href="class_main_namespace_1_1_surface_1_1_single_surface.html#a3321422c36eccd213cfc48823a9f54d7" target="_top" xlink:title="Project the offset on the current mesh, then use it to compute the right&#45;hand side.">
<polygon fill="white" stroke="black" points="366,-49.5 366,-79.5 531,-79.5 531,-49.5 366,-49.5"/>
<text text-anchor="start" x="374" y="-67.5" font-family="Helvetica,sans-Serif" font-size="10.00">MainNamespace::Surface</text>
<text text-anchor="middle" x="448.5" y="-56.5" font-family="Helvetica,sans-Serif" font-size="10.00">::SingleSurface::makeMultiRhs</text>
</a>
</g>
</g>
<!-- Node1&#45;&gt;Node6 -->
<g id="edge5" class="edge">
<title>Node1&#45;&gt;Node6</title>
<path fill="none" stroke="midnightblue" d="M556.68,-64.5C548.21,-64.5 539.67,-64.5 531.28,-64.5"/>
<polygon fill="midnightblue" stroke="midnightblue" points="556.94,-68 566.94,-64.5 556.94,-61 556.94,-68"/>
</g>
<!-- Node7 -->
<g id="node7" class="node">
<title>Node7</title>
<g id="a_node7"><a xlink:href="class_main_namespace_1_1_surface_1_1_single_surface.html#aca48bbfed50db9af9d61e7998eed4b1d" target="_top" xlink:title="Setter for waveNumber_ and stabilizer_.">
<polygon fill="white" stroke="black" points="368,-0.5 368,-30.5 529,-30.5 529,-0.5 368,-0.5"/>
<text text-anchor="start" x="376" y="-18.5" font-family="Helvetica,sans-Serif" font-size="10.00">MainNamespace::Surface</text>
<text text-anchor="middle" x="448.5" y="-7.5" font-family="Helvetica,sans-Serif" font-size="10.00">::SingleSurface::waveNumber</text>
</a>
</g>
</g>
<!-- Node1&#45;&gt;Node7 -->
<g id="edge7" class="edge">
<title>Node1&#45;&gt;Node7</title>
<path fill="none" stroke="midnightblue" d="M576.24,-47.02C554.52,-41.62 530.81,-35.72 509.83,-30.51"/>
<polygon fill="midnightblue" stroke="midnightblue" points="575.51,-50.45 586.05,-49.47 577.2,-43.66 575.51,-50.45"/>
</g>
<!-- Node3 -->
<g id="node3" class="node">
<title>Node3</title>
<g id="a_node3"><a xlink:href="class_main_namespace_1_1_surface_1_1_multi_surface.html#a8839f7e49575079e39fbb95a692772a5" target="_top" xlink:title="Compute the right&#45;hand side, the operators, then solve the linear system.">
<polygon fill="white" stroke="black" points="189,-73.5 189,-103.5 330,-103.5 330,-73.5 189,-73.5"/>
<text text-anchor="start" x="197" y="-91.5" font-family="Helvetica,sans-Serif" font-size="10.00">MainNamespace::Surface</text>
<text text-anchor="middle" x="259.5" y="-80.5" font-family="Helvetica,sans-Serif" font-size="10.00">::MultiSurface::solve</text>
</a>
</g>
</g>
<!-- Node2&#45;&gt;Node3 -->
<g id="edge2" class="edge">
<title>Node2&#45;&gt;Node3</title>
<path fill="none" stroke="midnightblue" d="M357.46,-101.46C348.28,-100.23 339.05,-99 330.14,-97.81"/>
<polygon fill="midnightblue" stroke="midnightblue" points="357.01,-104.93 367.38,-102.79 357.93,-97.99 357.01,-104.93"/>
</g>
<!-- Node4 -->
<g id="node4" class="node">
<title>Node4</title>
<g id="a_node4"><a xlink:href="main_8cpp.html#a5d68713f22d1b3e2495b15d107ea7d21" target="_top" xlink:title=" ">
<polygon fill="white" stroke="black" points="77,-79 77,-98 153,-98 153,-79 77,-79"/>
<text text-anchor="middle" x="115" y="-86" font-family="Helvetica,sans-Serif" font-size="10.00">testProblem</text>
</a>
</g>
</g>
<!-- Node3&#45;&gt;Node4 -->
<g id="edge3" class="edge">
<title>Node3&#45;&gt;Node4</title>
<path fill="none" stroke="midnightblue" d="M178.85,-88.5C169.97,-88.5 161.27,-88.5 153.31,-88.5"/>
<polygon fill="midnightblue" stroke="midnightblue" points="178.92,-92 188.92,-88.5 178.92,-85 178.92,-92"/>
</g>
<!-- Node5 -->
<g id="node5" class="node">
<title>Node5</title>
<g id="a_node5"><a xlink:href="main_8cpp.html#a3c04138a5bfe5d72780bb7e82a18e627" target="_top" xlink:title=" ">
<polygon fill="white" stroke="black" points="0,-79 0,-98 41,-98 41,-79 0,-79"/>
<text text-anchor="middle" x="20.5" y="-86" font-family="Helvetica,sans-Serif" font-size="10.00">main</text>
</a>
</g>
</g>
<!-- Node4&#45;&gt;Node5 -->
<g id="edge4" class="edge">
<title>Node4&#45;&gt;Node5</title>
<path fill="none" stroke="midnightblue" d="M66.72,-88.5C57.65,-88.5 48.64,-88.5 41.07,-88.5"/>
<polygon fill="midnightblue" stroke="midnightblue" points="66.91,-92 76.91,-88.5 66.91,-85 66.91,-92"/>
</g>
<!-- Node6&#45;&gt;Node3 -->
<g id="edge6" class="edge">
<title>Node6&#45;&gt;Node3</title>
<path fill="none" stroke="midnightblue" d="M355.67,-76.29C347.07,-77.39 338.44,-78.5 330.09,-79.57"/>
<polygon fill="midnightblue" stroke="midnightblue" points="356.28,-79.74 365.75,-74.99 355.39,-72.79 356.28,-79.74"/>
</g>
</g>
</svg>
