<?xml version="1.0" encoding="UTF-8" standalone="no"?>
<!DOCTYPE svg PUBLIC "-//W3C//DTD SVG 1.1//EN"
 "http://www.w3.org/Graphics/SVG/1.1/DTD/svg11.dtd">
<!-- Generated by graphviz version 2.43.0 (0)
 -->
<!-- Title: lyra::opt::get_help_text Pages: 1 -->
<svg width="443pt" height="88pt"
 viewBox="0.00 0.00 443.00 88.00" xmlns="http://www.w3.org/2000/svg" xmlns:xlink="http://www.w3.org/1999/xlink">
<g id="graph0" class="graph" transform="scale(1 1) rotate(0) translate(4 84)">
<title>lyra::opt::get_help_text</title>
<polygon fill="white" stroke="transparent" points="-4,4 -4,-84 439,-84 439,4 -4,4"/>
<!-- Node1 -->
<g id="node1" class="node">
<title>Node1</title>
<g id="a_node1"><a xlink:title=" ">
<polygon fill="#bfbfbf" stroke="black" points="0,-30 0,-49 130,-49 130,-30 0,-30"/>
<text text-anchor="middle" x="65" y="-37" font-family="Helvetica,sans-Serif" font-size="10.00">lyra::opt::get_help_text</text>
</a>
</g>
</g>
<!-- Node2 -->
<g id="node2" class="node">
<title>Node2</title>
<g id="a_node2"><a xlink:href="classlyra_1_1opt.html#ab967f4e477c4eef325f7a2a37ba0d3f8" target="_top" xlink:title=" ">
<polygon fill="white" stroke="black" points="166,-30 166,-49 283,-49 283,-30 166,-30"/>
<text text-anchor="middle" x="224.5" y="-37" font-family="Helvetica,sans-Serif" font-size="10.00">lyra::opt::format_opt</text>
</a>
</g>
</g>
<!-- Node1&#45;&gt;Node2 -->
<g id="edge1" class="edge">
<title>Node1&#45;&gt;Node2</title>
<path fill="none" stroke="midnightblue" d="M130.06,-39.5C138.48,-39.5 147.13,-39.5 155.6,-39.5"/>
<polygon fill="midnightblue" stroke="midnightblue" points="155.83,-43 165.83,-39.5 155.83,-36 155.83,-43"/>
</g>
<!-- Node3 -->
<g id="node3" class="node">
<title>Node3</title>
<g id="a_node3"><a xlink:href="structlyra_1_1option__style.html#a719f50cdfca288bea91acf03cbc801a1" target="_top" xlink:title=" ">
<polygon fill="white" stroke="black" points="320.5,-49.5 320.5,-79.5 433.5,-79.5 433.5,-49.5 320.5,-49.5"/>
<text text-anchor="start" x="328.5" y="-67.5" font-family="Helvetica,sans-Serif" font-size="10.00">lyra::option_style</text>
<text text-anchor="middle" x="377" y="-56.5" font-family="Helvetica,sans-Serif" font-size="10.00">::long_option_string</text>
</a>
</g>
</g>
<!-- Node2&#45;&gt;Node3 -->
<g id="edge2" class="edge">
<title>Node2&#45;&gt;Node3</title>
<path fill="none" stroke="midnightblue" d="M282.83,-49.02C291.86,-50.52 301.25,-52.08 310.45,-53.61"/>
<polygon fill="midnightblue" stroke="midnightblue" points="309.89,-57.07 320.32,-55.25 311.03,-50.16 309.89,-57.07"/>
</g>
<!-- Node4 -->
<g id="node4" class="node">
<title>Node4</title>
<g id="a_node4"><a xlink:href="structlyra_1_1option__style.html#a77d42ad087acdbac4392d520dc0690aa" target="_top" xlink:title=" ">
<polygon fill="white" stroke="black" points="319,-0.5 319,-30.5 435,-30.5 435,-0.5 319,-0.5"/>
<text text-anchor="start" x="327" y="-18.5" font-family="Helvetica,sans-Serif" font-size="10.00">lyra::option_style</text>
<text text-anchor="middle" x="377" y="-7.5" font-family="Helvetica,sans-Serif" font-size="10.00">::short_option_string</text>
</a>
</g>
</g>
<!-- Node2&#45;&gt;Node4 -->
<g id="edge3" class="edge">
<title>Node2&#45;&gt;Node4</title>
<path fill="none" stroke="midnightblue" d="M283.26,-30.29C291.6,-28.96 300.24,-27.58 308.75,-26.22"/>
<polygon fill="midnightblue" stroke="midnightblue" points="309.32,-29.68 318.65,-24.65 308.22,-22.76 309.32,-29.68"/>
</g>
</g>
</svg>
