<?xml version="1.0" encoding="UTF-8" standalone="no"?>
<!DOCTYPE svg PUBLIC "-//W3C//DTD SVG 1.1//EN"
 "http://www.w3.org/Graphics/SVG/1.1/DTD/svg11.dtd">
<!-- Generated by graphviz version 2.43.0 (0)
 -->
<!-- Title: lyra::detail::basic_result&lt; T &gt; Pages: 1 -->
<svg width="411pt" height="330pt"
 viewBox="0.00 0.00 410.50 330.00" xmlns="http://www.w3.org/2000/svg" xmlns:xlink="http://www.w3.org/1999/xlink">
<g id="graph0" class="graph" transform="scale(1 1) rotate(0) translate(4 326)">
<title>lyra::detail::basic_result&lt; T &gt;</title>
<polygon fill="white" stroke="transparent" points="-4,4 -4,-326 406.5,-326 406.5,4 -4,4"/>
<!-- Node1 -->
<g id="node1" class="node">
<title>Node1</title>
<g id="a_node1"><a xlink:title=" ">
<polygon fill="#bfbfbf" stroke="black" points="43,-0.5 43,-30.5 144,-30.5 144,-0.5 43,-0.5"/>
<text text-anchor="start" x="51" y="-18.5" font-family="Helvetica,sans-Serif" font-size="10.00">lyra::detail::basic</text>
<text text-anchor="middle" x="93.5" y="-7.5" font-family="Helvetica,sans-Serif" font-size="10.00">_result&lt; T &gt;</text>
</a>
</g>
</g>
<!-- Node2 -->
<g id="node2" class="node">
<title>Node2</title>
<g id="a_node2"><a xlink:href="classlyra_1_1detail_1_1result__value__base.html" target="_top" xlink:title=" ">
<polygon fill="white" stroke="black" points="40.5,-68.5 40.5,-98.5 146.5,-98.5 146.5,-68.5 40.5,-68.5"/>
<text text-anchor="start" x="48.5" y="-86.5" font-family="Helvetica,sans-Serif" font-size="10.00">lyra::detail::result</text>
<text text-anchor="middle" x="93.5" y="-75.5" font-family="Helvetica,sans-Serif" font-size="10.00">_value_base&lt; T &gt;</text>
</a>
</g>
</g>
<!-- Node2&#45;&gt;Node1 -->
<g id="edge1" class="edge">
<title>Node2&#45;&gt;Node1</title>
<path fill="none" stroke="midnightblue" d="M86.95,-58.03C86.51,-48.86 86.8,-38.74 87.83,-30.79"/>
<polygon fill="midnightblue" stroke="midnightblue" points="83.48,-58.51 87.82,-68.18 90.46,-57.92 83.48,-58.51"/>
</g>
<!-- Node2&#45;&gt;Node1 -->
<g id="edge11" class="edge">
<title>Node2&#45;&gt;Node1</title>
<path fill="none" stroke="midnightblue" d="M100.05,-58.03C100.49,-48.86 100.2,-38.74 99.17,-30.79"/>
<polygon fill="midnightblue" stroke="midnightblue" points="96.54,-57.92 99.18,-68.18 103.52,-58.51 96.54,-57.92"/>
</g>
<!-- Node3 -->
<g id="node3" class="node">
<title>Node3</title>
<g id="a_node3"><a xlink:href="classlyra_1_1detail_1_1result__base.html" target="_top" xlink:title=" ">
<polygon fill="white" stroke="black" points="28,-152 28,-171 159,-171 159,-152 28,-152"/>
<text text-anchor="middle" x="93.5" y="-159" font-family="Helvetica,sans-Serif" font-size="10.00">lyra::detail::result_base</text>
</a>
</g>
</g>
<!-- Node3&#45;&gt;Node2 -->
<g id="edge2" class="edge">
<title>Node3&#45;&gt;Node2</title>
<path fill="none" stroke="midnightblue" d="M87.59,-141.78C86.31,-128.4 86.49,-110.69 88.13,-98.52"/>
<polygon fill="midnightblue" stroke="midnightblue" points="84.14,-142.37 89.01,-151.78 91.07,-141.39 84.14,-142.37"/>
</g>
<!-- Node3&#45;&gt;Node2 -->
<g id="edge6" class="edge">
<title>Node3&#45;&gt;Node2</title>
<path fill="none" stroke="midnightblue" d="M99.41,-141.78C100.69,-128.4 100.51,-110.69 98.87,-98.52"/>
<polygon fill="midnightblue" stroke="midnightblue" points="95.93,-141.39 97.99,-151.78 102.86,-142.37 95.93,-141.39"/>
</g>
<!-- Node4 -->
<g id="node4" class="node">
<title>Node4</title>
<g id="a_node4"><a xlink:title=" ">
<polygon fill="white" stroke="black" points="0,-224.5 0,-243.5 71,-243.5 71,-224.5 0,-224.5"/>
<text text-anchor="middle" x="35.5" y="-231.5" font-family="Helvetica,sans-Serif" font-size="10.00">result_kind</text>
</a>
</g>
</g>
<!-- Node4&#45;&gt;Node3 -->
<g id="edge3" class="edge">
<title>Node4&#45;&gt;Node3</title>
<path fill="none" stroke="#9a32cd" stroke-dasharray="5,2" d="M49.16,-216.4C60.8,-202.24 77.08,-182.46 86.33,-171.22"/>
<polygon fill="#9a32cd" stroke="#9a32cd" points="46.26,-214.41 42.61,-224.36 51.67,-218.86 46.26,-214.41"/>
<text text-anchor="middle" x="81.5" y="-198" font-family="Helvetica,sans-Serif" font-size="10.00"> kind_</text>
</g>
<!-- Node5 -->
<g id="node5" class="node">
<title>Node5</title>
<g id="a_node5"><a xlink:title=" ">
<polygon fill="white" stroke="black" points="89,-224.5 89,-243.5 154,-243.5 154,-224.5 89,-224.5"/>
<text text-anchor="middle" x="121.5" y="-231.5" font-family="Helvetica,sans-Serif" font-size="10.00">std::string</text>
</a>
</g>
</g>
<!-- Node5&#45;&gt;Node3 -->
<g id="edge4" class="edge">
<title>Node5&#45;&gt;Node3</title>
<path fill="none" stroke="#9a32cd" stroke-dasharray="5,2" d="M114.26,-214.77C108.7,-200.76 101.26,-182.03 96.96,-171.22"/>
<polygon fill="#9a32cd" stroke="#9a32cd" points="111.12,-216.35 118.07,-224.36 117.63,-213.77 111.12,-216.35"/>
<text text-anchor="middle" x="137" y="-198" font-family="Helvetica,sans-Serif" font-size="10.00"> message_</text>
</g>
<!-- Node6 -->
<g id="node6" class="node">
<title>Node6</title>
<g id="a_node6"><a xlink:title=" ">
<polygon fill="white" stroke="black" points="69.5,-291.5 69.5,-321.5 173.5,-321.5 173.5,-291.5 69.5,-291.5"/>
<text text-anchor="start" x="77.5" y="-309.5" font-family="Helvetica,sans-Serif" font-size="10.00">std::basic_string&lt;</text>
<text text-anchor="middle" x="121.5" y="-298.5" font-family="Helvetica,sans-Serif" font-size="10.00"> Char &gt;</text>
</a>
</g>
</g>
<!-- Node6&#45;&gt;Node5 -->
<g id="edge5" class="edge">
<title>Node6&#45;&gt;Node5</title>
<path fill="none" stroke="midnightblue" d="M121.5,-281.09C121.5,-268.21 121.5,-253.2 121.5,-243.89"/>
<polygon fill="midnightblue" stroke="midnightblue" points="118,-281.23 121.5,-291.23 125,-281.23 118,-281.23"/>
</g>
<!-- Node7 -->
<g id="node7" class="node">
<title>Node7</title>
<g id="a_node7"><a xlink:title=" ">
<polygon fill="white" stroke="black" points="177.5,-146.5 177.5,-176.5 305.5,-176.5 305.5,-146.5 177.5,-146.5"/>
<text text-anchor="start" x="185.5" y="-164.5" font-family="Helvetica,sans-Serif" font-size="10.00">std::unique_ptr&lt; value</text>
<text text-anchor="middle" x="241.5" y="-153.5" font-family="Helvetica,sans-Serif" font-size="10.00">_type &gt;</text>
</a>
</g>
</g>
<!-- Node7&#45;&gt;Node2 -->
<g id="edge7" class="edge">
<title>Node7&#45;&gt;Node2</title>
<path fill="none" stroke="#9a32cd" stroke-dasharray="5,2" d="M204.84,-141.67C178.83,-128.32 144.47,-110.68 120.84,-98.54"/>
<polygon fill="#9a32cd" stroke="#9a32cd" points="203.51,-144.93 214.01,-146.38 206.71,-138.7 203.51,-144.93"/>
<text text-anchor="middle" x="194.5" y="-120" font-family="Helvetica,sans-Serif" font-size="10.00"> value_</text>
</g>
<!-- Node8 -->
<g id="node8" class="node">
<title>Node8</title>
<g id="a_node8"><a xlink:title=" ">
<polygon fill="white" stroke="black" points="195,-224.5 195,-243.5 266,-243.5 266,-224.5 195,-224.5"/>
<text text-anchor="middle" x="230.5" y="-231.5" font-family="Helvetica,sans-Serif" font-size="10.00">value_type</text>
</a>
</g>
</g>
<!-- Node8&#45;&gt;Node7 -->
<g id="edge8" class="edge">
<title>Node8&#45;&gt;Node7</title>
<path fill="none" stroke="#9a32cd" stroke-dasharray="5,2" d="M233.43,-214.24C235.27,-202.41 237.62,-187.38 239.3,-176.58"/>
<polygon fill="#9a32cd" stroke="#9a32cd" points="229.93,-213.94 231.85,-224.36 236.85,-215.01 229.93,-213.94"/>
<text text-anchor="middle" x="245" y="-198" font-family="Helvetica,sans-Serif" font-size="10.00"> ptr</text>
</g>
<!-- Node9 -->
<g id="node9" class="node">
<title>Node9</title>
<g id="a_node9"><a xlink:title=" ">
<polygon fill="white" stroke="black" points="284.5,-224.5 284.5,-243.5 402.5,-243.5 402.5,-224.5 284.5,-224.5"/>
<text text-anchor="middle" x="343.5" y="-231.5" font-family="Helvetica,sans-Serif" font-size="10.00">std::unique_ptr&lt; T &gt;</text>
</a>
</g>
</g>
<!-- Node9&#45;&gt;Node7 -->
<g id="edge9" class="edge">
<title>Node9&#45;&gt;Node7</title>
<path fill="none" stroke="orange" stroke-dasharray="5,2" d="M322.47,-218.47C304.71,-206.19 279.44,-188.72 261.87,-176.58"/>
<polygon fill="orange" stroke="orange" points="320.78,-221.55 330.99,-224.36 324.76,-215.79 320.78,-221.55"/>
<text text-anchor="middle" x="342.5" y="-198" font-family="Helvetica,sans-Serif" font-size="10.00"> &lt; value_type &gt;</text>
</g>
<!-- Node10 -->
<g id="node10" class="node">
<title>Node10</title>
<g id="a_node10"><a xlink:title=" ">
<polygon fill="white" stroke="black" points="329,-297 329,-316 358,-316 358,-297 329,-297"/>
<text text-anchor="middle" x="343.5" y="-304" font-family="Helvetica,sans-Serif" font-size="10.00">T</text>
</a>
</g>
</g>
<!-- Node10&#45;&gt;Node9 -->
<g id="edge10" class="edge">
<title>Node10&#45;&gt;Node9</title>
<path fill="none" stroke="#9a32cd" stroke-dasharray="5,2" d="M343.5,-286.44C343.5,-272.53 343.5,-254.32 343.5,-243.72"/>
<polygon fill="#9a32cd" stroke="#9a32cd" points="340,-286.86 343.5,-296.86 347,-286.86 340,-286.86"/>
<text text-anchor="middle" x="352" y="-265" font-family="Helvetica,sans-Serif" font-size="10.00"> ptr</text>
</g>
</g>
</svg>
