<?xml version="1.0" encoding="UTF-8" standalone="no"?>
<!DOCTYPE svg PUBLIC "-//W3C//DTD SVG 1.1//EN"
 "http://www.w3.org/Graphics/SVG/1.1/DTD/svg11.dtd">
<!-- Generated by graphviz version 2.43.0 (0)
 -->
<!-- Title: MainNamespace::Surface::SingleSurface::singleSpaceSize Pages: 1 -->
<svg width="750pt" height="88pt"
 viewBox="0.00 0.00 750.00 88.00" xmlns="http://www.w3.org/2000/svg" xmlns:xlink="http://www.w3.org/1999/xlink">
<g id="graph0" class="graph" transform="scale(1 1) rotate(0) translate(4 84)">
<title>MainNamespace::Surface::SingleSurface::singleSpaceSize</title>
<polygon fill="white" stroke="transparent" points="-4,4 -4,-84 746,-84 746,4 -4,4"/>
<!-- Node1 -->
<g id="node1" class="node">
<title>Node1</title>
<g id="a_node1"><a xlink:title="Getter.">
<polygon fill="#bfbfbf" stroke="black" points="0,-24.5 0,-54.5 174,-54.5 174,-24.5 0,-24.5"/>
<text text-anchor="start" x="8" y="-42.5" font-family="Helvetica,sans-Serif" font-size="10.00">MainNamespace::Surface</text>
<text text-anchor="middle" x="87" y="-31.5" font-family="Helvetica,sans-Serif" font-size="10.00">::SingleSurface::singleSpaceSize</text>
</a>
</g>
</g>
<!-- Node2 -->
<g id="node2" class="node">
<title>Node2</title>
<g id="a_node2"><a xlink:href="class_main_namespace_1_1_surface_1_1_single_surface.html#a895b50a0b257398b19897c97f235b777" target="_top" xlink:title="Getter.">
<polygon fill="white" stroke="black" points="213,-49.5 213,-79.5 395,-79.5 395,-49.5 213,-49.5"/>
<text text-anchor="start" x="221" y="-67.5" font-family="Helvetica,sans-Serif" font-size="10.00">MainNamespace::Surface</text>
<text text-anchor="middle" x="304" y="-56.5" font-family="Helvetica,sans-Serif" font-size="10.00">::SingleSurface::dirichletBasisSize</text>
</a>
</g>
</g>
<!-- Node1&#45;&gt;Node2 -->
<g id="edge1" class="edge">
<title>Node1&#45;&gt;Node2</title>
<path fill="none" stroke="midnightblue" d="M174.21,-49.52C183.66,-50.62 193.34,-51.75 202.94,-52.87"/>
<polygon fill="midnightblue" stroke="midnightblue" points="202.57,-56.35 212.9,-54.02 203.37,-49.39 202.57,-56.35"/>
</g>
<!-- Node5 -->
<g id="node5" class="node">
<title>Node5</title>
<g id="a_node5"><a xlink:href="class_main_namespace_1_1_surface_1_1_single_surface.html#ac615b87bec340cd97530bfc17e317e5c" target="_top" xlink:title="Getter.">
<polygon fill="white" stroke="black" points="210,-0.5 210,-30.5 398,-30.5 398,-0.5 210,-0.5"/>
<text text-anchor="start" x="218" y="-18.5" font-family="Helvetica,sans-Serif" font-size="10.00">MainNamespace::Surface</text>
<text text-anchor="middle" x="304" y="-7.5" font-family="Helvetica,sans-Serif" font-size="10.00">::SingleSurface::neumannBasisSize</text>
</a>
</g>
</g>
<!-- Node1&#45;&gt;Node5 -->
<g id="edge4" class="edge">
<title>Node1&#45;&gt;Node5</title>
<path fill="none" stroke="midnightblue" d="M174.21,-29.88C182.61,-28.94 191.18,-27.98 199.73,-27.03"/>
<polygon fill="midnightblue" stroke="midnightblue" points="200.17,-30.5 209.72,-25.91 199.4,-23.54 200.17,-30.5"/>
</g>
<!-- Node3 -->
<g id="node3" class="node">
<title>Node3</title>
<g id="a_node3"><a xlink:href="class_main_namespace_1_1_surface_1_1_single_surface.html#a14d982b157c95bc7e304f60915960786" target="_top" xlink:title="Getter.">
<polygon fill="white" stroke="black" points="434,-49.5 434,-79.5 575,-79.5 575,-49.5 434,-49.5"/>
<text text-anchor="start" x="442" y="-67.5" font-family="Helvetica,sans-Serif" font-size="10.00">MainNamespace::Surface</text>
<text text-anchor="middle" x="504.5" y="-56.5" font-family="Helvetica,sans-Serif" font-size="10.00">::SingleSurface::vertices</text>
</a>
</g>
</g>
<!-- Node2&#45;&gt;Node3 -->
<g id="edge2" class="edge">
<title>Node2&#45;&gt;Node3</title>
<path fill="none" stroke="midnightblue" d="M395.25,-64.5C404.8,-64.5 414.46,-64.5 423.88,-64.5"/>
<polygon fill="midnightblue" stroke="midnightblue" points="423.99,-68 433.99,-64.5 423.99,-61 423.99,-68"/>
</g>
<!-- Node4 -->
<g id="node4" class="node">
<title>Node4</title>
<g id="a_node4"><a xlink:href="struct_main_namespace_1_1_mesh.html#ab0133714e18c8aaee3deb84910cef54c" target="_top" xlink:title="Getter.">
<polygon fill="white" stroke="black" points="611,-49.5 611,-79.5 742,-79.5 742,-49.5 611,-49.5"/>
<text text-anchor="start" x="619" y="-67.5" font-family="Helvetica,sans-Serif" font-size="10.00">MainNamespace::Mesh</text>
<text text-anchor="middle" x="676.5" y="-56.5" font-family="Helvetica,sans-Serif" font-size="10.00">::vertices</text>
</a>
</g>
</g>
<!-- Node3&#45;&gt;Node4 -->
<g id="edge3" class="edge">
<title>Node3&#45;&gt;Node4</title>
<path fill="none" stroke="midnightblue" d="M575.14,-64.5C583.55,-64.5 592.16,-64.5 600.64,-64.5"/>
<polygon fill="midnightblue" stroke="midnightblue" points="600.9,-68 610.9,-64.5 600.9,-61 600.9,-68"/>
</g>
<!-- Node6 -->
<g id="node6" class="node">
<title>Node6</title>
<g id="a_node6"><a xlink:href="class_main_namespace_1_1_surface_1_1_single_surface.html#a300e558fb3fa32029de0452e252eb5cc" target="_top" xlink:title="Getter.">
<polygon fill="white" stroke="black" points="434,-0.5 434,-30.5 575,-30.5 575,-0.5 434,-0.5"/>
<text text-anchor="start" x="442" y="-18.5" font-family="Helvetica,sans-Serif" font-size="10.00">MainNamespace::Surface</text>
<text text-anchor="middle" x="504.5" y="-7.5" font-family="Helvetica,sans-Serif" font-size="10.00">::SingleSurface::triangles</text>
</a>
</g>
</g>
<!-- Node5&#45;&gt;Node6 -->
<g id="edge5" class="edge">
<title>Node5&#45;&gt;Node6</title>
<path fill="none" stroke="midnightblue" d="M398.15,-15.5C406.67,-15.5 415.25,-15.5 423.64,-15.5"/>
<polygon fill="midnightblue" stroke="midnightblue" points="423.76,-19 433.76,-15.5 423.76,-12 423.76,-19"/>
</g>
<!-- Node7 -->
<g id="node7" class="node">
<title>Node7</title>
<g id="a_node7"><a xlink:href="struct_main_namespace_1_1_mesh.html#a9e3b353180a3b67dc149e8703c164bc3" target="_top" xlink:title="Getter.">
<polygon fill="white" stroke="black" points="611,-0.5 611,-30.5 742,-30.5 742,-0.5 611,-0.5"/>
<text text-anchor="start" x="619" y="-18.5" font-family="Helvetica,sans-Serif" font-size="10.00">MainNamespace::Mesh</text>
<text text-anchor="middle" x="676.5" y="-7.5" font-family="Helvetica,sans-Serif" font-size="10.00">::triangles</text>
</a>
</g>
</g>
<!-- Node6&#45;&gt;Node7 -->
<g id="edge6" class="edge">
<title>Node6&#45;&gt;Node7</title>
<path fill="none" stroke="midnightblue" d="M575.14,-15.5C583.55,-15.5 592.16,-15.5 600.64,-15.5"/>
<polygon fill="midnightblue" stroke="midnightblue" points="600.9,-19 610.9,-15.5 600.9,-12 600.9,-19"/>
</g>
</g>
</svg>
