<?xml version="1.0" encoding="UTF-8" standalone="no"?>
<!DOCTYPE svg PUBLIC "-//W3C//DTD SVG 1.1//EN"
 "http://www.w3.org/Graphics/SVG/1.1/DTD/svg11.dtd">
<!-- Generated by graphviz version 2.43.0 (0)
 -->
<!-- Title: lyra::detail::basic_result::basic_result Pages: 1 -->
<!--zoomable 511 -->
<svg id="main" version="1.1" xmlns="http://www.w3.org/2000/svg" xmlns:xlink="http://www.w3.org/1999/xlink" xml:space="preserve" onload="init(evt)">
<style type="text/css"><![CDATA[
.edge:hover path { stroke: red; }
.edge:hover polygon { stroke: red; fill: red; }
]]></style>
<script type="text/javascript"><![CDATA[
var edges = document.getElementsByTagName('g');
if (edges && edges.length) {
  for (var i=0;i<edges.length;i++) {
    if (edges[i].id.substr(0,4)=='edge') {
      edges[i].setAttribute('class','edge');
    }
  }
}
]]></script>
        <defs>
                <circle id="rim" cx="0" cy="0" r="7"/>
                <circle id="rim2" cx="0" cy="0" r="3.5"/>
                <g id="zoomPlus">
                        <use xlink:href="#rim" fill="#404040">
                                <set attributeName="fill" to="#808080" begin="zoomplus.mouseover" end="zoomplus.mouseout"/>
                        </use>
                        <path d="M-4,0h8M0,-4v8" fill="none" stroke="white" stroke-width="1.5" pointer-events="none"/>
                </g>
                <g id="zoomMin">
                        <use xlink:href="#rim" fill="#404040">
                                <set attributeName="fill" to="#808080" begin="zoomminus.mouseover" end="zoomminus.mouseout"/>
                        </use>
                        <path d="M-4,0h8" fill="none" stroke="white" stroke-width="1.5" pointer-events="none"/>
                </g>
                <g id="dirArrow">
                        <path fill="none" stroke="white" stroke-width="1.5" d="M0,-3.0v7 M-2.5,-0.5L0,-3.0L2.5,-0.5"/>
                </g>
               <g id="resetDef">
                       <use xlink:href="#rim2" fill="#404040">
                               <set attributeName="fill" to="#808080" begin="reset.mouseover" end="reset.mouseout"/>
                       </use>
               </g>
        </defs>

<script type="text/javascript">
var viewWidth = 851;
var viewHeight = 511;
var sectionId = 'dynsection-2';
</script>
<script xlink:href="svgpan.js"/>
<svg id="graph" class="graph">
<g id="viewport">
<title>lyra::detail::basic_result::basic_result</title>
<polygon fill="white" stroke="transparent" points="-4,4 -4,-507 847,-507 847,4 -4,4"/>
<!-- Node1 -->
<g id="node1" class="node">
<title>Node1</title>
<g id="a_node1"><a xlink:title=" ">
<polygon fill="#bfbfbf" stroke="black" points="729,-372 729,-402 843,-402 843,-372 729,-372"/>
<text text-anchor="start" x="737" y="-390" font-family="Helvetica,sans-Serif" font-size="10.00">lyra::detail::basic</text>
<text text-anchor="middle" x="786" y="-379" font-family="Helvetica,sans-Serif" font-size="10.00">_result::basic_result</text>
</a>
</g>
</g>
<!-- Node2 -->
<g id="node2" class="node">
<title>Node2</title>
<g id="a_node2"><a xlink:href="classlyra_1_1detail_1_1basic__result_3_01void_01_4.html#a5fab8869361e6299ed3f41ac690c050c" target="_top" xlink:title=" ">
<polygon fill="white" stroke="black" points="571,-472 571,-502 693,-502 693,-472 571,-472"/>
<text text-anchor="start" x="579" y="-490" font-family="Helvetica,sans-Serif" font-size="10.00">lyra::detail::basic</text>
<text text-anchor="middle" x="632" y="-479" font-family="Helvetica,sans-Serif" font-size="10.00">_result&lt; void &gt;::error</text>
</a>
</g>
</g>
<!-- Node1&#45;&gt;Node2 -->
<g id="edge1" class="edge">
<title>Node1&#45;&gt;Node2</title>
<path fill="none" stroke="midnightblue" d="M755.31,-407.86C737.41,-420.31 714.06,-436.31 693,-450 681.61,-457.4 668.82,-465.34 657.98,-471.96"/>
<polygon fill="midnightblue" stroke="midnightblue" points="757.43,-410.65 763.63,-402.06 753.43,-404.91 757.43,-410.65"/>
</g>
<!-- Node6 -->
<g id="node6" class="node">
<title>Node6</title>
<g id="a_node6"><a xlink:href="classlyra_1_1detail_1_1basic__result.html#ae878693d416cc48943171ab4187f5719" target="_top" xlink:title=" ">
<polygon fill="white" stroke="black" points="581.5,-334 581.5,-364 682.5,-364 682.5,-334 581.5,-334"/>
<text text-anchor="start" x="589.5" y="-352" font-family="Helvetica,sans-Serif" font-size="10.00">lyra::detail::basic</text>
<text text-anchor="middle" x="632" y="-341" font-family="Helvetica,sans-Serif" font-size="10.00">_result::error</text>
</a>
</g>
</g>
<!-- Node1&#45;&gt;Node6 -->
<g id="edge5" class="edge">
<title>Node1&#45;&gt;Node6</title>
<path fill="none" stroke="midnightblue" d="M718.82,-370.46C706.78,-367.44 694.4,-364.35 682.92,-361.48"/>
<polygon fill="midnightblue" stroke="midnightblue" points="718.28,-373.93 728.83,-372.96 719.98,-367.14 718.28,-373.93"/>
</g>
<!-- Node14 -->
<g id="node14" class="node">
<title>Node14</title>
<g id="a_node14"><a xlink:href="classlyra_1_1detail_1_1basic__result_3_01void_01_4.html#a3a596bcb3b08ecd14c8580a10f33a051" target="_top" xlink:title=" ">
<polygon fill="white" stroke="black" points="576.5,-410 576.5,-440 687.5,-440 687.5,-410 576.5,-410"/>
<text text-anchor="start" x="584.5" y="-428" font-family="Helvetica,sans-Serif" font-size="10.00">lyra::detail::basic</text>
<text text-anchor="middle" x="632" y="-417" font-family="Helvetica,sans-Serif" font-size="10.00">_result&lt; void &gt;::ok</text>
</a>
</g>
</g>
<!-- Node1&#45;&gt;Node14 -->
<g id="edge15" class="edge">
<title>Node1&#45;&gt;Node14</title>
<path fill="none" stroke="midnightblue" d="M718.93,-403.52C708.5,-406.13 697.81,-408.8 687.67,-411.33"/>
<polygon fill="midnightblue" stroke="midnightblue" points="719.98,-406.86 728.83,-401.04 718.28,-400.07 719.98,-406.86"/>
</g>
<!-- Node18 -->
<g id="node18" class="node">
<title>Node18</title>
<g id="a_node18"><a xlink:href="classlyra_1_1detail_1_1basic__result.html#aee577409a431e215136ffc0764e5432b" target="_top" xlink:title=" ">
<polygon fill="white" stroke="black" points="581.5,-148 581.5,-178 682.5,-178 682.5,-148 581.5,-148"/>
<text text-anchor="start" x="589.5" y="-166" font-family="Helvetica,sans-Serif" font-size="10.00">lyra::detail::basic</text>
<text text-anchor="middle" x="632" y="-155" font-family="Helvetica,sans-Serif" font-size="10.00">_result::ok</text>
</a>
</g>
</g>
<!-- Node1&#45;&gt;Node18 -->
<g id="edge21" class="edge">
<title>Node1&#45;&gt;Node18</title>
<path fill="none" stroke="midnightblue" d="M769.07,-363.52C737.86,-317.52 669.43,-216.69 643.36,-178.27"/>
<polygon fill="midnightblue" stroke="midnightblue" points="766.28,-365.65 774.79,-371.95 772.07,-361.71 766.28,-365.65"/>
</g>
<!-- Node3 -->
<g id="node3" class="node">
<title>Node3</title>
<g id="a_node3"><a xlink:href="classlyra_1_1opt.html#afba3580e48226cae8006040e2cab8804" target="_top" xlink:title=" ">
<polygon fill="white" stroke="black" points="224.5,-483.5 224.5,-502.5 327.5,-502.5 327.5,-483.5 224.5,-483.5"/>
<text text-anchor="middle" x="276" y="-490.5" font-family="Helvetica,sans-Serif" font-size="10.00">lyra::opt::validate</text>
</a>
</g>
</g>
<!-- Node2&#45;&gt;Node3 -->
<g id="edge2" class="edge">
<title>Node2&#45;&gt;Node3</title>
<path fill="none" stroke="midnightblue" d="M560.63,-488.19C491.8,-489.36 388.68,-491.11 327.58,-492.14"/>
<polygon fill="midnightblue" stroke="midnightblue" points="561.01,-491.69 570.95,-488.02 560.89,-484.69 561.01,-491.69"/>
</g>
<!-- Node4 -->
<g id="node4" class="node">
<title>Node4</title>
<g id="a_node4"><a xlink:href="classlyra_1_1opt.html#a320fdddd60a89469dca1ba3c07e7bf20" target="_top" xlink:title=" ">
<polygon fill="white" stroke="black" points="77,-483.5 77,-502.5 167,-502.5 167,-483.5 77,-483.5"/>
<text text-anchor="middle" x="122" y="-490.5" font-family="Helvetica,sans-Serif" font-size="10.00">lyra::opt::parse</text>
</a>
</g>
</g>
<!-- Node3&#45;&gt;Node4 -->
<g id="edge3" class="edge">
<title>Node3&#45;&gt;Node4</title>
<path fill="none" stroke="midnightblue" d="M214.19,-493C198.42,-493 181.74,-493 167.02,-493"/>
<polygon fill="midnightblue" stroke="midnightblue" points="214.39,-496.5 224.39,-493 214.39,-489.5 214.39,-496.5"/>
</g>
<!-- Node5 -->
<g id="node5" class="node">
<title>Node5</title>
<g id="a_node5"><a xlink:href="single__parser__run__test_8cpp.html#ae66f6b31b5ad750f1fe042a706a4e3d4" target="_top" xlink:title=" ">
<polygon fill="white" stroke="black" points="0,-483.5 0,-502.5 41,-502.5 41,-483.5 0,-483.5"/>
<text text-anchor="middle" x="20.5" y="-490.5" font-family="Helvetica,sans-Serif" font-size="10.00">main</text>
</a>
</g>
</g>
<!-- Node4&#45;&gt;Node5 -->
<g id="edge4" class="edge">
<title>Node4&#45;&gt;Node5</title>
<path fill="none" stroke="midnightblue" d="M66.52,-493C57.46,-493 48.6,-493 41.18,-493"/>
<polygon fill="midnightblue" stroke="midnightblue" points="66.78,-496.5 76.78,-493 66.78,-489.5 66.78,-496.5"/>
</g>
<!-- Node7 -->
<g id="node7" class="node">
<title>Node7</title>
<g id="a_node7"><a xlink:href="structlyra_1_1detail_1_1choices__set.html#a2a78ba4d2bf13c9be72cdb9f075ac58b" target="_top" xlink:title=" ">
<polygon fill="white" stroke="black" points="218,-342 218,-372 334,-372 334,-342 218,-342"/>
<text text-anchor="start" x="226" y="-360" font-family="Helvetica,sans-Serif" font-size="10.00">lyra::detail::choices</text>
<text text-anchor="middle" x="276" y="-349" font-family="Helvetica,sans-Serif" font-size="10.00">_set::contains_value</text>
</a>
</g>
</g>
<!-- Node6&#45;&gt;Node7 -->
<g id="edge6" class="edge">
<title>Node6&#45;&gt;Node7</title>
<path fill="none" stroke="midnightblue" d="M571.14,-350.35C504.99,-351.85 399.22,-354.24 334.17,-355.71"/>
<polygon fill="midnightblue" stroke="midnightblue" points="571.49,-353.85 581.41,-350.12 571.33,-346.85 571.49,-353.85"/>
</g>
<!-- Node8 -->
<g id="node8" class="node">
<title>Node8</title>
<g id="a_node8"><a xlink:href="structlyra_1_1detail_1_1choices__check.html#abeea1614739aaa2644cb229fef0e9df0" target="_top" xlink:title=" ">
<polygon fill="white" stroke="black" points="211,-145 211,-175 341,-175 341,-145 211,-145"/>
<text text-anchor="start" x="219" y="-163" font-family="Helvetica,sans-Serif" font-size="10.00">lyra::detail::choices</text>
<text text-anchor="middle" x="276" y="-152" font-family="Helvetica,sans-Serif" font-size="10.00">_check::contains_value</text>
</a>
</g>
</g>
<!-- Node6&#45;&gt;Node8 -->
<g id="edge7" class="edge">
<title>Node6&#45;&gt;Node8</title>
<path fill="none" stroke="midnightblue" d="M615.72,-325.63C598.74,-301.41 569.17,-264.07 535,-242 475.29,-203.42 396.08,-181.81 341.25,-170.57"/>
<polygon fill="midnightblue" stroke="midnightblue" points="612.85,-327.64 621.39,-333.91 618.63,-323.68 612.85,-327.64"/>
</g>
<!-- Node9 -->
<g id="node9" class="node">
<title>Node9</title>
<g id="a_node9"><a xlink:href="classlyra_1_1literal.html#a0b616706829da82299d42c4a188d6408" target="_top" xlink:title=" ">
<polygon fill="white" stroke="black" points="224.5,-391.5 224.5,-410.5 327.5,-410.5 327.5,-391.5 224.5,-391.5"/>
<text text-anchor="middle" x="276" y="-398.5" font-family="Helvetica,sans-Serif" font-size="10.00">lyra::literal::parse</text>
</a>
</g>
</g>
<!-- Node6&#45;&gt;Node9 -->
<g id="edge8" class="edge">
<title>Node6&#45;&gt;Node9</title>
<path fill="none" stroke="midnightblue" d="M571.33,-360.71C559.32,-362.92 546.77,-365.12 535,-367 463.17,-378.46 379.64,-388.95 327.54,-395.16"/>
<polygon fill="midnightblue" stroke="midnightblue" points="572.07,-364.13 581.26,-358.86 570.79,-357.25 572.07,-364.13"/>
</g>
<!-- Node10 -->
<g id="node10" class="node">
<title>Node10</title>
<g id="a_node10"><a xlink:href="namespacelyra_1_1detail.html#a22e3bf1a412cd8fde673729391090abf" target="_top" xlink:title=" ">
<polygon fill="white" stroke="black" points="409,-252 409,-282 511,-282 511,-252 409,-252"/>
<text text-anchor="start" x="417" y="-270" font-family="Helvetica,sans-Serif" font-size="10.00">lyra::detail::parse</text>
<text text-anchor="middle" x="460" y="-259" font-family="Helvetica,sans-Serif" font-size="10.00">_string</text>
</a>
</g>
</g>
<!-- Node6&#45;&gt;Node10 -->
<g id="edge9" class="edge">
<title>Node6&#45;&gt;Node10</title>
<path fill="none" stroke="midnightblue" d="M590.44,-329.44C560.34,-314.92 519.89,-295.41 492.27,-282.08"/>
<polygon fill="midnightblue" stroke="midnightblue" points="589.29,-332.77 599.82,-333.96 592.33,-326.46 589.29,-332.77"/>
</g>
<!-- Node10&#45;&gt;Node7 -->
<g id="edge10" class="edge">
<title>Node10&#45;&gt;Node7</title>
<path fill="none" stroke="midnightblue" d="M404.52,-286.24C397.74,-289.45 391.07,-293.04 385,-297 366.31,-309.2 367.99,-320.28 349,-332 342.92,-335.75 336.2,-339.03 329.38,-341.88"/>
<polygon fill="midnightblue" stroke="midnightblue" points="406.08,-289.37 413.78,-282.1 403.22,-282.98 406.08,-289.37"/>
</g>
<!-- Node10&#45;&gt;Node8 -->
<g id="edge11" class="edge">
<title>Node10&#45;&gt;Node8</title>
<path fill="none" stroke="midnightblue" d="M401.09,-247.46C395.38,-244.4 389.9,-240.92 385,-237 363.06,-219.43 371.38,-202.01 349,-185 343.94,-181.16 338.25,-177.88 332.34,-175.08"/>
<polygon fill="midnightblue" stroke="midnightblue" points="399.66,-250.66 410.18,-251.93 402.75,-244.38 399.66,-250.66"/>
</g>
<!-- Node11 -->
<g id="node11" class="node">
<title>Node11</title>
<g id="a_node11"><a xlink:href="namespacelyra_1_1detail.html#acbf6c3970044a4db411f87f1130fac59" target="_top" xlink:title=" ">
<polygon fill="white" stroke="black" points="203,-194.5 203,-213.5 349,-213.5 349,-194.5 203,-194.5"/>
<text text-anchor="middle" x="276" y="-201.5" font-family="Helvetica,sans-Serif" font-size="10.00">lyra::detail::invokeLambda</text>
</a>
</g>
</g>
<!-- Node10&#45;&gt;Node11 -->
<g id="edge12" class="edge">
<title>Node10&#45;&gt;Node11</title>
<path fill="none" stroke="midnightblue" d="M412.7,-248.17C385.65,-237.23 355.57,-225.17 349,-223 338.69,-219.59 327.39,-216.37 316.87,-213.59"/>
<polygon fill="midnightblue" stroke="midnightblue" points="411.51,-251.47 422.1,-251.98 414.14,-244.98 411.51,-251.47"/>
</g>
<!-- Node12 -->
<g id="node12" class="node">
<title>Node12</title>
<g id="a_node12"><a xlink:href="structlyra_1_1detail_1_1_bound_value_ref.html#a665e8a2d390fcd308d59ddbe045bf1e3" target="_top" xlink:title=" ">
<polygon fill="white" stroke="black" points="209,-293 209,-323 343,-323 343,-293 209,-293"/>
<text text-anchor="start" x="217" y="-311" font-family="Helvetica,sans-Serif" font-size="10.00">lyra::detail::BoundValue</text>
<text text-anchor="middle" x="276" y="-300" font-family="Helvetica,sans-Serif" font-size="10.00">Ref::setValue</text>
</a>
</g>
</g>
<!-- Node10&#45;&gt;Node12 -->
<g id="edge13" class="edge">
<title>Node10&#45;&gt;Node12</title>
<path fill="none" stroke="midnightblue" d="M398.54,-280.62C380.75,-284.63 361.2,-289.03 343.08,-293.11"/>
<polygon fill="midnightblue" stroke="midnightblue" points="399.8,-283.92 408.79,-278.31 398.26,-277.1 399.8,-283.92"/>
</g>
<!-- Node13 -->
<g id="node13" class="node">
<title>Node13</title>
<g id="a_node13"><a xlink:href="structlyra_1_1detail_1_1_bound_value_ref_3_01std_1_1vector_3_01_t_01_4_01_4.html#aa413c07d21268101cca49ef250bf5c07" target="_top" xlink:title=" ">
<polygon fill="white" stroke="black" points="209,-232.5 209,-273.5 343,-273.5 343,-232.5 209,-232.5"/>
<text text-anchor="start" x="217" y="-261.5" font-family="Helvetica,sans-Serif" font-size="10.00">lyra::detail::BoundValue</text>
<text text-anchor="start" x="217" y="-250.5" font-family="Helvetica,sans-Serif" font-size="10.00">Ref&lt; std::vector&lt; T &gt;</text>
<text text-anchor="middle" x="276" y="-239.5" font-family="Helvetica,sans-Serif" font-size="10.00"> &gt;::setValue</text>
</a>
</g>
</g>
<!-- Node10&#45;&gt;Node13 -->
<g id="edge14" class="edge">
<title>Node10&#45;&gt;Node13</title>
<path fill="none" stroke="midnightblue" d="M398.54,-262.35C380.75,-260.98 361.2,-259.48 343.08,-258.08"/>
<polygon fill="midnightblue" stroke="midnightblue" points="398.55,-265.86 408.79,-263.14 399.08,-258.88 398.55,-265.86"/>
</g>
<!-- Node15 -->
<g id="node15" class="node">
<title>Node15</title>
<g id="a_node15"><a xlink:href="classlyra_1_1parser.html#ab9d9c5b96021198e37bb80f2df888f71" target="_top" xlink:title=" ">
<polygon fill="white" stroke="black" points="401,-415.5 401,-434.5 519,-434.5 519,-415.5 401,-415.5"/>
<text text-anchor="middle" x="460" y="-422.5" font-family="Helvetica,sans-Serif" font-size="10.00">lyra::parser::validate</text>
</a>
</g>
</g>
<!-- Node14&#45;&gt;Node15 -->
<g id="edge16" class="edge">
<title>Node14&#45;&gt;Node15</title>
<path fill="none" stroke="midnightblue" d="M566.25,-425C550.76,-425 534.31,-425 519.14,-425"/>
<polygon fill="midnightblue" stroke="midnightblue" points="566.28,-428.5 576.28,-425 566.28,-421.5 566.28,-428.5"/>
</g>
<!-- Node17 -->
<g id="node17" class="node">
<title>Node17</title>
<g id="a_node17"><a xlink:href="classlyra_1_1arguments.html#aaa02cda8ccf14f7e1895d1fb31279b1c" target="_top" xlink:title=" ">
<polygon fill="white" stroke="black" points="390,-453.5 390,-472.5 530,-472.5 530,-453.5 390,-453.5"/>
<text text-anchor="middle" x="460" y="-460.5" font-family="Helvetica,sans-Serif" font-size="10.00">lyra::arguments::validate</text>
</a>
</g>
</g>
<!-- Node14&#45;&gt;Node17 -->
<g id="edge20" class="edge">
<title>Node14&#45;&gt;Node17</title>
<path fill="none" stroke="midnightblue" d="M566.46,-439.43C545.49,-444.11 522.74,-449.2 503.76,-453.44"/>
<polygon fill="midnightblue" stroke="midnightblue" points="567.28,-442.83 576.28,-437.23 565.75,-436 567.28,-442.83"/>
</g>
<!-- Node15&#45;&gt;Node3 -->
<g id="edge19" class="edge">
<title>Node15&#45;&gt;Node3</title>
<path fill="none" stroke="midnightblue" d="M406.5,-437.26C399.22,-439.32 391.88,-441.58 385,-444 352.57,-455.42 316.49,-472.79 295.32,-483.49"/>
<polygon fill="midnightblue" stroke="midnightblue" points="407.62,-440.59 416.35,-434.59 405.79,-433.83 407.62,-440.59"/>
</g>
<!-- Node15&#45;&gt;Node9 -->
<g id="edge17" class="edge">
<title>Node15&#45;&gt;Node9</title>
<path fill="none" stroke="midnightblue" d="M390.82,-416.01C369.92,-413.25 347.31,-410.27 327.79,-407.7"/>
<polygon fill="midnightblue" stroke="midnightblue" points="390.54,-419.5 400.91,-417.34 391.46,-412.56 390.54,-419.5"/>
</g>
<!-- Node16 -->
<g id="node16" class="node">
<title>Node16</title>
<g id="a_node16"><a xlink:href="classlyra_1_1arg.html#a027ca631a2fe3824db141195371b0349" target="_top" xlink:title=" ">
<polygon fill="white" stroke="black" points="231,-429.5 231,-448.5 321,-448.5 321,-429.5 231,-429.5"/>
<text text-anchor="middle" x="276" y="-436.5" font-family="Helvetica,sans-Serif" font-size="10.00">lyra::arg::parse</text>
</a>
</g>
</g>
<!-- Node15&#45;&gt;Node16 -->
<g id="edge18" class="edge">
<title>Node15&#45;&gt;Node16</title>
<path fill="none" stroke="midnightblue" d="M390.75,-430.25C367.51,-432.04 342.15,-433.99 321.28,-435.59"/>
<polygon fill="midnightblue" stroke="midnightblue" points="391.21,-433.72 400.91,-429.47 390.67,-426.75 391.21,-433.72"/>
</g>
<!-- Node18&#45;&gt;Node7 -->
<g id="edge23" class="edge">
<title>Node18&#45;&gt;Node7</title>
<path fill="none" stroke="midnightblue" d="M619.26,-187.39C603.96,-216.54 574.43,-264.66 535,-291 474.06,-331.7 389.68,-347.3 334.25,-353.28"/>
<polygon fill="midnightblue" stroke="midnightblue" points="622.48,-188.79 623.9,-178.29 616.24,-185.61 622.48,-188.79"/>
</g>
<!-- Node18&#45;&gt;Node8 -->
<g id="edge24" class="edge">
<title>Node18&#45;&gt;Node8</title>
<path fill="none" stroke="midnightblue" d="M570.89,-164.44C558.99,-164.68 546.6,-164.88 535,-165 468.34,-165.69 451.65,-166.54 385,-165 370.83,-164.67 355.63,-164.1 341.23,-163.46"/>
<polygon fill="midnightblue" stroke="midnightblue" points="571.25,-167.94 581.18,-164.24 571.11,-160.94 571.25,-167.94"/>
</g>
<!-- Node18&#45;&gt;Node10 -->
<g id="edge26" class="edge">
<title>Node18&#45;&gt;Node10</title>
<path fill="none" stroke="midnightblue" d="M597.47,-183.51C564.59,-203.63 515.22,-233.83 485.75,-251.86"/>
<polygon fill="midnightblue" stroke="midnightblue" points="599.58,-186.33 606.28,-178.12 595.92,-180.36 599.58,-186.33"/>
</g>
<!-- Node19 -->
<g id="node19" class="node">
<title>Node19</title>
<g id="a_node19"><a xlink:href="classlyra_1_1help.html#aca3991e43790c54d960eacaf2df1c15b" target="_top" xlink:title=" ">
<polygon fill="white" stroke="black" points="415.5,-0.5 415.5,-19.5 504.5,-19.5 504.5,-0.5 415.5,-0.5"/>
<text text-anchor="middle" x="460" y="-7.5" font-family="Helvetica,sans-Serif" font-size="10.00">lyra::help::help</text>
</a>
</g>
</g>
<!-- Node18&#45;&gt;Node19 -->
<g id="edge22" class="edge">
<title>Node18&#45;&gt;Node19</title>
<path fill="none" stroke="midnightblue" d="M620.22,-138.83C605.42,-108.48 575.91,-57 535,-29 526.02,-22.86 515.21,-18.7 504.65,-15.89"/>
<polygon fill="midnightblue" stroke="midnightblue" points="617.06,-140.34 624.5,-147.88 623.39,-137.35 617.06,-140.34"/>
</g>
<!-- Node20 -->
<g id="node20" class="node">
<title>Node20</title>
<g id="a_node20"><a xlink:href="structlyra_1_1detail_1_1_lambda_invoker_3_01void_01_4.html#ae8dd900c28d4d501f2db0dca463550ee" target="_top" xlink:title=" ">
<polygon fill="white" stroke="black" points="385,-126 385,-156 535,-156 535,-126 385,-126"/>
<text text-anchor="start" x="393" y="-144" font-family="Helvetica,sans-Serif" font-size="10.00">lyra::detail::LambdaInvoker</text>
<text text-anchor="middle" x="460" y="-133" font-family="Helvetica,sans-Serif" font-size="10.00">&lt; void &gt;::invoke</text>
</a>
</g>
</g>
<!-- Node18&#45;&gt;Node20 -->
<g id="edge25" class="edge">
<title>Node18&#45;&gt;Node20</title>
<path fill="none" stroke="midnightblue" d="M571.28,-155.27C559.56,-153.76 547.14,-152.15 535.02,-150.58"/>
<polygon fill="midnightblue" stroke="midnightblue" points="571.01,-158.77 581.37,-156.58 571.9,-151.82 571.01,-158.77"/>
</g>
<!-- Node21 -->
<g id="node21" class="node">
<title>Node21</title>
<g id="a_node21"><a xlink:href="classlyra_1_1exe__name.html#a0a8528cf259a3cd6f6d5ea0ba9f868c5" target="_top" xlink:title=" ">
<polygon fill="white" stroke="black" points="403.5,-38.5 403.5,-57.5 516.5,-57.5 516.5,-38.5 403.5,-38.5"/>
<text text-anchor="middle" x="460" y="-45.5" font-family="Helvetica,sans-Serif" font-size="10.00">lyra::exe_name::set</text>
</a>
</g>
</g>
<!-- Node18&#45;&gt;Node21 -->
<g id="edge27" class="edge">
<title>Node18&#45;&gt;Node21</title>
<path fill="none" stroke="midnightblue" d="M613.8,-139.69C596.34,-117.7 567.35,-85.45 535,-67 528.2,-63.12 520.61,-60.02 512.94,-57.55"/>
<polygon fill="midnightblue" stroke="midnightblue" points="611.22,-142.08 620.12,-147.84 616.76,-137.79 611.22,-142.08"/>
</g>
<!-- Node23 -->
<g id="node23" class="node">
<title>Node23</title>
<g id="a_node23"><a xlink:href="structlyra_1_1detail_1_1_bound_flag_ref.html#ad32443f5173fb9e5e34c43741dae9db2" target="_top" xlink:title=" ">
<polygon fill="white" stroke="black" points="388.5,-77 388.5,-107 531.5,-107 531.5,-77 388.5,-77"/>
<text text-anchor="start" x="396.5" y="-95" font-family="Helvetica,sans-Serif" font-size="10.00">lyra::detail::BoundFlagRef</text>
<text text-anchor="middle" x="460" y="-84" font-family="Helvetica,sans-Serif" font-size="10.00">::setFlag</text>
</a>
</g>
</g>
<!-- Node18&#45;&gt;Node23 -->
<g id="edge29" class="edge">
<title>Node18&#45;&gt;Node23</title>
<path fill="none" stroke="midnightblue" d="M593.6,-143.16C576.07,-134.26 554.74,-123.99 535,-116 527.24,-112.86 518.89,-109.83 510.71,-107.05"/>
<polygon fill="midnightblue" stroke="midnightblue" points="592.42,-146.49 602.92,-147.94 595.62,-140.26 592.42,-146.49"/>
</g>
<!-- Node22 -->
<g id="node22" class="node">
<title>Node22</title>
<g id="a_node22"><a xlink:href="classlyra_1_1cli.html#a49a8af627c74dfce2c2d594d4161116f" target="_top" xlink:title=" ">
<polygon fill="white" stroke="black" points="233,-38.5 233,-57.5 319,-57.5 319,-38.5 233,-38.5"/>
<text text-anchor="middle" x="276" y="-45.5" font-family="Helvetica,sans-Serif" font-size="10.00">lyra::cli::parse</text>
</a>
</g>
</g>
<!-- Node21&#45;&gt;Node22 -->
<g id="edge28" class="edge">
<title>Node21&#45;&gt;Node22</title>
<path fill="none" stroke="midnightblue" d="M393.37,-48C368.68,-48 341.27,-48 319.26,-48"/>
<polygon fill="midnightblue" stroke="midnightblue" points="393.41,-51.5 403.41,-48 393.41,-44.5 393.41,-51.5"/>
</g>
</g>
</svg>
        <g id="navigator" transform="translate(0 0)" fill="#404254">
                <rect fill="#f2f5e9" fill-opacity="0.5" stroke="#606060" stroke-width=".5" x="0" y="0" width="60" height="60"/>
                <use id="zoomplus" xlink:href="#zoomPlus" x="17" y="9" onmousedown="handleZoom(evt,'in')"/>
                <use id="zoomminus" xlink:href="#zoomMin" x="42" y="9" onmousedown="handleZoom(evt,'out')"/>
                <use id="reset" xlink:href="#resetDef" x="30" y="36" onmousedown="handleReset()"/>
                <g id="arrowUp" xlink:href="#dirArrow" transform="translate(30 24)" onmousedown="handlePan(0,-1)">
                  <use xlink:href="#rim" fill="#404040">
                        <set attributeName="fill" to="#808080" begin="arrowUp.mouseover" end="arrowUp.mouseout"/>
                  </use>
                  <path fill="none" stroke="white" stroke-width="1.5" d="M0,-3.0v7 M-2.5,-0.5L0,-3.0L2.5,-0.5"/>
                </g>
                <g id="arrowRight" xlink:href="#dirArrow" transform="rotate(90) translate(36 -43)" onmousedown="handlePan(1,0)">
                  <use xlink:href="#rim" fill="#404040">
                        <set attributeName="fill" to="#808080" begin="arrowRight.mouseover" end="arrowRight.mouseout"/>
                  </use>
                  <path fill="none" stroke="white" stroke-width="1.5" d="M0,-3.0v7 M-2.5,-0.5L0,-3.0L2.5,-0.5"/>
                </g>
                <g id="arrowDown" xlink:href="#dirArrow" transform="rotate(180) translate(-30 -48)" onmousedown="handlePan(0,1)">
                  <use xlink:href="#rim" fill="#404040">
                        <set attributeName="fill" to="#808080" begin="arrowDown.mouseover" end="arrowDown.mouseout"/>
                  </use>
                  <path fill="none" stroke="white" stroke-width="1.5" d="M0,-3.0v7 M-2.5,-0.5L0,-3.0L2.5,-0.5"/>
                </g>
                <g id="arrowLeft" xlink:href="#dirArrow" transform="rotate(270) translate(-36 17)" onmousedown="handlePan(-1,0)">
                  <use xlink:href="#rim" fill="#404040">
                        <set attributeName="fill" to="#808080" begin="arrowLeft.mouseover" end="arrowLeft.mouseout"/>
                  </use>
                  <path fill="none" stroke="white" stroke-width="1.5" d="M0,-3.0v7 M-2.5,-0.5L0,-3.0L2.5,-0.5"/>
                </g>
        </g>
        <svg viewBox="0 0 15 15" width="100%" height="30px" preserveAspectRatio="xMaxYMin meet">
         <g id="arrow_out" transform="scale(0.3 0.3)">
          <a xlink:href="classlyra_1_1detail_1_1basic__result_a2a6448a9babcc3d583edff8f13e076b9_icgraph_org.svg" target="_base">
           <rect id="button" ry="5" rx="5" y="6" x="6" height="38" width="38"
                fill="#f2f5e9" fill-opacity="0.5" stroke="#606060" stroke-width="1.0"/>
           <path id="arrow"
             d="M 11.500037,31.436501 C 11.940474,20.09759 22.043105,11.32322 32.158766,21.979434 L 37.068811,17.246167 C 37.068811,17.246167 37.088388,32 37.088388,32 L 22.160133,31.978069 C 22.160133,31.978069 26.997745,27.140456 26.997745,27.140456 C 18.528582,18.264221 13.291696,25.230495 11.500037,31.436501 z"
             style="fill:#404040;"/>
          </a>
         </g>
        </svg>
</svg>
