<?xml version="1.0" encoding="UTF-8" standalone="no"?>
<!DOCTYPE svg PUBLIC "-//W3C//DTD SVG 1.1//EN"
 "http://www.w3.org/Graphics/SVG/1.1/DTD/svg11.dtd">
<!-- Generated by graphviz version 2.43.0 (0)
 -->
<!-- Title: lyra::opt::normalise_opt Pages: 1 -->
<svg width="455pt" height="39pt"
 viewBox="0.00 0.00 455.00 39.00" xmlns="http://www.w3.org/2000/svg" xmlns:xlink="http://www.w3.org/1999/xlink">
<g id="graph0" class="graph" transform="scale(1 1) rotate(0) translate(4 35)">
<title>lyra::opt::normalise_opt</title>
<polygon fill="white" stroke="transparent" points="-4,4 -4,-35 451,-35 451,4 -4,4"/>
<!-- Node1 -->
<g id="node1" class="node">
<title>Node1</title>
<g id="a_node1"><a xlink:title=" ">
<polygon fill="#bfbfbf" stroke="black" points="0,-6 0,-25 133,-25 133,-6 0,-6"/>
<text text-anchor="middle" x="66.5" y="-13" font-family="Helvetica,sans-Serif" font-size="10.00">lyra::opt::normalise_opt</text>
</a>
</g>
</g>
<!-- Node2 -->
<g id="node2" class="node">
<title>Node2</title>
<g id="a_node2"><a xlink:href="classlyra_1_1detail_1_1token__iterator.html#a3f0301c7bb2bfe10f71739a26f9af219" target="_top" xlink:title=" ">
<polygon fill="white" stroke="black" points="169,-0.5 169,-30.5 287,-30.5 287,-0.5 169,-0.5"/>
<text text-anchor="start" x="177" y="-18.5" font-family="Helvetica,sans-Serif" font-size="10.00">lyra::detail::token</text>
<text text-anchor="middle" x="228" y="-7.5" font-family="Helvetica,sans-Serif" font-size="10.00">_iterator::is_prefixed</text>
</a>
</g>
</g>
<!-- Node1&#45;&gt;Node2 -->
<g id="edge1" class="edge">
<title>Node1&#45;&gt;Node2</title>
<path fill="none" stroke="midnightblue" d="M133.3,-15.5C141.65,-15.5 150.22,-15.5 158.62,-15.5"/>
<polygon fill="midnightblue" stroke="midnightblue" points="158.75,-19 168.75,-15.5 158.75,-12 158.75,-19"/>
</g>
<!-- Node3 -->
<g id="node3" class="node">
<title>Node3</title>
<g id="a_node3"><a xlink:href="namespace_main_namespace.html#a8104aa37d7d31758ac725060a96f07d9" target="_top" xlink:title=" ">
<polygon fill="white" stroke="black" points="323,-6 323,-25 447,-25 447,-6 323,-6"/>
<text text-anchor="middle" x="385" y="-13" font-family="Helvetica,sans-Serif" font-size="10.00">MainNamespace::size</text>
</a>
</g>
</g>
<!-- Node2&#45;&gt;Node3 -->
<g id="edge2" class="edge">
<title>Node2&#45;&gt;Node3</title>
<path fill="none" stroke="midnightblue" d="M287.16,-15.5C295.55,-15.5 304.27,-15.5 312.89,-15.5"/>
<polygon fill="midnightblue" stroke="midnightblue" points="312.93,-19 322.93,-15.5 312.93,-12 312.93,-19"/>
</g>
</g>
</svg>
