<?xml version="1.0" encoding="UTF-8" standalone="no"?>
<!DOCTYPE svg PUBLIC "-//W3C//DTD SVG 1.1//EN"
 "http://www.w3.org/Graphics/SVG/1.1/DTD/svg11.dtd">
<!-- Generated by graphviz version 2.43.0 (0)
 -->
<!-- Title: lyra::composable_parser&lt; Derived &gt; Pages: 1 -->
<svg width="882pt" height="199pt"
 viewBox="0.00 0.00 882.00 199.00" xmlns="http://www.w3.org/2000/svg" xmlns:xlink="http://www.w3.org/1999/xlink">
<g id="graph0" class="graph" transform="scale(1 1) rotate(0) translate(4 195)">
<title>lyra::composable_parser&lt; Derived &gt;</title>
<polygon fill="white" stroke="transparent" points="-4,4 -4,-195 878,-195 878,4 -4,4"/>
<!-- Node1 -->
<g id="node1" class="node">
<title>Node1</title>
<g id="a_node1"><a xlink:title=" ">
<polygon fill="#bfbfbf" stroke="black" points="109,-98.5 109,-128.5 246,-128.5 246,-98.5 109,-98.5"/>
<text text-anchor="start" x="117" y="-116.5" font-family="Helvetica,sans-Serif" font-size="10.00">lyra::composable_parser</text>
<text text-anchor="middle" x="177.5" y="-105.5" font-family="Helvetica,sans-Serif" font-size="10.00">&lt; Derived &gt;</text>
</a>
</g>
</g>
<!-- Node3 -->
<g id="node3" class="node">
<title>Node3</title>
<g id="a_node3"><a xlink:href="classlyra_1_1bound__parser.html" target="_top" xlink:title=" ">
<polygon fill="white" stroke="black" points="374,-98.5 374,-128.5 481,-128.5 481,-98.5 374,-98.5"/>
<text text-anchor="start" x="382" y="-116.5" font-family="Helvetica,sans-Serif" font-size="10.00">lyra::bound_parser</text>
<text text-anchor="middle" x="427.5" y="-105.5" font-family="Helvetica,sans-Serif" font-size="10.00">&lt; Derived &gt;</text>
</a>
</g>
</g>
<!-- Node1&#45;&gt;Node3 -->
<g id="edge3" class="edge">
<title>Node1&#45;&gt;Node3</title>
<path fill="none" stroke="midnightblue" d="M256.34,-107.18C294.56,-106.43 339.61,-106.66 373.75,-107.86"/>
<polygon fill="midnightblue" stroke="midnightblue" points="256.19,-103.69 246.27,-107.41 256.34,-110.68 256.19,-103.69"/>
</g>
<!-- Node1&#45;&gt;Node3 -->
<g id="edge12" class="edge">
<title>Node1&#45;&gt;Node3</title>
<path fill="none" stroke="midnightblue" d="M256.34,-119.82C294.56,-120.57 339.61,-120.34 373.75,-119.14"/>
<polygon fill="midnightblue" stroke="midnightblue" points="256.34,-116.32 246.27,-119.59 256.19,-123.31 256.34,-116.32"/>
</g>
<!-- Node9 -->
<g id="node9" class="node">
<title>Node9</title>
<g id="a_node9"><a xlink:href="classlyra_1_1composable__parser.html" target="_top" xlink:title=" ">
<polygon fill="white" stroke="black" points="359,-49.5 359,-79.5 496,-79.5 496,-49.5 359,-49.5"/>
<text text-anchor="start" x="367" y="-67.5" font-family="Helvetica,sans-Serif" font-size="10.00">lyra::composable_parser</text>
<text text-anchor="middle" x="427.5" y="-56.5" font-family="Helvetica,sans-Serif" font-size="10.00">&lt; arg &gt;</text>
</a>
</g>
</g>
<!-- Node1&#45;&gt;Node9 -->
<g id="edge13" class="edge">
<title>Node1&#45;&gt;Node9</title>
<path fill="none" stroke="orange" stroke-dasharray="5,2" d="M256.3,-98.13C289.18,-91.63 327.11,-84.14 358.81,-77.87"/>
<polygon fill="orange" stroke="orange" points="255.4,-94.74 246.27,-100.11 256.76,-101.61 255.4,-94.74"/>
<text text-anchor="middle" x="302.5" y="-99.5" font-family="Helvetica,sans-Serif" font-size="10.00"> &lt; arg &gt;</text>
</g>
<!-- Node10 -->
<g id="node10" class="node">
<title>Node10</title>
<g id="a_node10"><a xlink:href="classlyra_1_1composable__parser.html" target="_top" xlink:title=" ">
<polygon fill="white" stroke="black" points="359,-0.5 359,-30.5 496,-30.5 496,-0.5 359,-0.5"/>
<text text-anchor="start" x="367" y="-18.5" font-family="Helvetica,sans-Serif" font-size="10.00">lyra::composable_parser</text>
<text text-anchor="middle" x="427.5" y="-7.5" font-family="Helvetica,sans-Serif" font-size="10.00">&lt; exe_name &gt;</text>
</a>
</g>
</g>
<!-- Node1&#45;&gt;Node10 -->
<g id="edge16" class="edge">
<title>Node1&#45;&gt;Node10</title>
<path fill="none" stroke="orange" stroke-dasharray="5,2" d="M212.81,-93.17C228.15,-84.57 246.66,-74.87 264,-67.5 298.62,-52.79 338.89,-39.88 370.67,-30.6"/>
<polygon fill="orange" stroke="orange" points="210.67,-90.36 203.71,-98.35 214.13,-96.45 210.67,-90.36"/>
<text text-anchor="middle" x="302.5" y="-70.5" font-family="Helvetica,sans-Serif" font-size="10.00"> &lt; exe_name &gt;</text>
</g>
<!-- Node12 -->
<g id="node12" class="node">
<title>Node12</title>
<g id="a_node12"><a xlink:href="classlyra_1_1composable__parser.html" target="_top" xlink:title=" ">
<polygon fill="white" stroke="black" points="359,-160.5 359,-190.5 496,-190.5 496,-160.5 359,-160.5"/>
<text text-anchor="start" x="367" y="-178.5" font-family="Helvetica,sans-Serif" font-size="10.00">lyra::composable_parser</text>
<text text-anchor="middle" x="427.5" y="-167.5" font-family="Helvetica,sans-Serif" font-size="10.00">&lt; opt &gt;</text>
</a>
</g>
</g>
<!-- Node1&#45;&gt;Node12 -->
<g id="edge19" class="edge">
<title>Node1&#45;&gt;Node12</title>
<path fill="none" stroke="orange" stroke-dasharray="5,2" d="M243.65,-131.22C250.51,-133.03 257.39,-134.82 264,-136.5 296.19,-144.69 332.1,-153.36 361.95,-160.43"/>
<polygon fill="orange" stroke="orange" points="244.2,-127.75 233.63,-128.57 242.4,-134.51 244.2,-127.75"/>
<text text-anchor="middle" x="302.5" y="-158.5" font-family="Helvetica,sans-Serif" font-size="10.00"> &lt; opt &gt;</text>
</g>
<!-- Node2 -->
<g id="node2" class="node">
<title>Node2</title>
<g id="a_node2"><a xlink:href="classlyra_1_1parser.html" target="_top" xlink:title=" ">
<polygon fill="white" stroke="black" points="0,-104 0,-123 72,-123 72,-104 0,-104"/>
<text text-anchor="middle" x="36" y="-111" font-family="Helvetica,sans-Serif" font-size="10.00">lyra::parser</text>
</a>
</g>
</g>
<!-- Node2&#45;&gt;Node1 -->
<g id="edge1" class="edge">
<title>Node2&#45;&gt;Node1</title>
<path fill="none" stroke="midnightblue" d="M82.29,-107.13C90.82,-106.86 99.91,-106.73 108.95,-106.75"/>
<polygon fill="midnightblue" stroke="midnightblue" points="82.05,-103.64 72.2,-107.55 82.34,-110.63 82.05,-103.64"/>
</g>
<!-- Node2&#45;&gt;Node1 -->
<g id="edge2" class="edge">
<title>Node2&#45;&gt;Node1</title>
<path fill="none" stroke="midnightblue" d="M82.29,-119.87C90.82,-120.14 99.91,-120.27 108.95,-120.25"/>
<polygon fill="midnightblue" stroke="midnightblue" points="82.34,-116.37 72.2,-119.45 82.05,-123.36 82.34,-116.37"/>
</g>
<!-- Node4 -->
<g id="node4" class="node">
<title>Node4</title>
<g id="a_node4"><a xlink:href="classlyra_1_1bound__parser.html" target="_top" xlink:title=" ">
<polygon fill="white" stroke="black" points="574,-49.5 574,-79.5 681,-79.5 681,-49.5 574,-49.5"/>
<text text-anchor="start" x="582" y="-67.5" font-family="Helvetica,sans-Serif" font-size="10.00">lyra::bound_parser</text>
<text text-anchor="middle" x="627.5" y="-56.5" font-family="Helvetica,sans-Serif" font-size="10.00">&lt; arg &gt;</text>
</a>
</g>
</g>
<!-- Node3&#45;&gt;Node4 -->
<g id="edge4" class="edge">
<title>Node3&#45;&gt;Node4</title>
<path fill="none" stroke="orange" stroke-dasharray="5,2" d="M491.03,-99.97C511.76,-95.3 534.92,-89.88 556,-84.5 562.04,-82.96 568.35,-81.27 574.61,-79.56"/>
<polygon fill="orange" stroke="orange" points="490.06,-96.6 481.07,-102.2 491.59,-103.43 490.06,-96.6"/>
<text text-anchor="middle" x="535" y="-98.5" font-family="Helvetica,sans-Serif" font-size="10.00"> &lt; arg &gt;</text>
</g>
<!-- Node6 -->
<g id="node6" class="node">
<title>Node6</title>
<g id="a_node6"><a xlink:href="classlyra_1_1bound__parser.html" target="_top" xlink:title=" ">
<polygon fill="white" stroke="black" points="574,-160.5 574,-190.5 681,-190.5 681,-160.5 574,-160.5"/>
<text text-anchor="start" x="582" y="-178.5" font-family="Helvetica,sans-Serif" font-size="10.00">lyra::bound_parser</text>
<text text-anchor="middle" x="627.5" y="-167.5" font-family="Helvetica,sans-Serif" font-size="10.00">&lt; opt &gt;</text>
</a>
</g>
</g>
<!-- Node3&#45;&gt;Node6 -->
<g id="edge7" class="edge">
<title>Node3&#45;&gt;Node6</title>
<path fill="none" stroke="orange" stroke-dasharray="5,2" d="M486.11,-131.54C515.37,-140.7 550.52,-151.71 578.32,-160.41"/>
<polygon fill="orange" stroke="orange" points="487.02,-128.16 476.43,-128.51 484.93,-134.84 487.02,-128.16"/>
<text text-anchor="middle" x="535" y="-155.5" font-family="Helvetica,sans-Serif" font-size="10.00"> &lt; opt &gt;</text>
</g>
<!-- Node5 -->
<g id="node5" class="node">
<title>Node5</title>
<g id="a_node5"><a xlink:href="classlyra_1_1arg.html" target="_top" xlink:title=" ">
<polygon fill="white" stroke="black" points="718,-55 718,-74 775,-74 775,-55 718,-55"/>
<text text-anchor="middle" x="746.5" y="-62" font-family="Helvetica,sans-Serif" font-size="10.00">lyra::arg</text>
</a>
</g>
</g>
<!-- Node4&#45;&gt;Node5 -->
<g id="edge5" class="edge">
<title>Node4&#45;&gt;Node5</title>
<path fill="none" stroke="midnightblue" d="M691.27,-57.77C700.55,-57.84 709.69,-58.13 717.74,-58.66"/>
<polygon fill="midnightblue" stroke="midnightblue" points="691.18,-54.27 681.18,-57.78 691.19,-61.27 691.18,-54.27"/>
</g>
<!-- Node4&#45;&gt;Node5 -->
<g id="edge6" class="edge">
<title>Node4&#45;&gt;Node5</title>
<path fill="none" stroke="midnightblue" d="M691.27,-71.23C700.55,-71.16 709.69,-70.87 717.74,-70.34"/>
<polygon fill="midnightblue" stroke="midnightblue" points="691.19,-67.73 681.18,-71.22 691.18,-74.73 691.19,-67.73"/>
</g>
<!-- Node7 -->
<g id="node7" class="node">
<title>Node7</title>
<g id="a_node7"><a xlink:href="classlyra_1_1opt.html" target="_top" xlink:title=" ">
<polygon fill="white" stroke="black" points="718,-166 718,-185 775,-185 775,-166 718,-166"/>
<text text-anchor="middle" x="746.5" y="-173" font-family="Helvetica,sans-Serif" font-size="10.00">lyra::opt</text>
</a>
</g>
</g>
<!-- Node6&#45;&gt;Node7 -->
<g id="edge8" class="edge">
<title>Node6&#45;&gt;Node7</title>
<path fill="none" stroke="midnightblue" d="M691.27,-168.77C700.55,-168.84 709.69,-169.13 717.74,-169.66"/>
<polygon fill="midnightblue" stroke="midnightblue" points="691.18,-165.27 681.18,-168.78 691.19,-172.27 691.18,-165.27"/>
</g>
<!-- Node6&#45;&gt;Node7 -->
<g id="edge11" class="edge">
<title>Node6&#45;&gt;Node7</title>
<path fill="none" stroke="midnightblue" d="M691.27,-182.23C700.55,-182.16 709.69,-181.87 717.74,-181.34"/>
<polygon fill="midnightblue" stroke="midnightblue" points="691.19,-178.73 681.18,-182.22 691.18,-185.73 691.19,-178.73"/>
</g>
<!-- Node8 -->
<g id="node8" class="node">
<title>Node8</title>
<g id="a_node8"><a xlink:href="classlyra_1_1help.html" target="_top" xlink:title=" ">
<polygon fill="white" stroke="black" points="812,-166 812,-185 874,-185 874,-166 812,-166"/>
<text text-anchor="middle" x="843" y="-173" font-family="Helvetica,sans-Serif" font-size="10.00">lyra::help</text>
</a>
</g>
</g>
<!-- Node7&#45;&gt;Node8 -->
<g id="edge9" class="edge">
<title>Node7&#45;&gt;Node8</title>
<path fill="none" stroke="midnightblue" d="M785.21,-168.87C794.08,-168.64 803.41,-168.74 811.9,-169.16"/>
<polygon fill="midnightblue" stroke="midnightblue" points="784.93,-165.38 775.09,-169.3 785.23,-172.38 784.93,-165.38"/>
</g>
<!-- Node7&#45;&gt;Node8 -->
<g id="edge10" class="edge">
<title>Node7&#45;&gt;Node8</title>
<path fill="none" stroke="midnightblue" d="M785.21,-182.13C794.08,-182.36 803.41,-182.26 811.9,-181.84"/>
<polygon fill="midnightblue" stroke="midnightblue" points="785.23,-178.62 775.09,-181.7 784.93,-185.62 785.23,-178.62"/>
</g>
<!-- Node9&#45;&gt;Node4 -->
<g id="edge14" class="edge">
<title>Node9&#45;&gt;Node4</title>
<path fill="none" stroke="midnightblue" d="M506.36,-57.89C529.01,-57.59 553.2,-57.78 573.9,-58.46"/>
<polygon fill="midnightblue" stroke="midnightblue" points="506.03,-54.39 496.09,-58.06 506.14,-61.39 506.03,-54.39"/>
</g>
<!-- Node9&#45;&gt;Node4 -->
<g id="edge15" class="edge">
<title>Node9&#45;&gt;Node4</title>
<path fill="none" stroke="midnightblue" d="M506.36,-71.11C529.01,-71.41 553.2,-71.22 573.9,-70.54"/>
<polygon fill="midnightblue" stroke="midnightblue" points="506.14,-67.61 496.09,-70.94 506.03,-74.61 506.14,-67.61"/>
</g>
<!-- Node11 -->
<g id="node11" class="node">
<title>Node11</title>
<g id="a_node11"><a xlink:href="classlyra_1_1exe__name.html" target="_top" xlink:title=" ">
<polygon fill="white" stroke="black" points="581.5,-6 581.5,-25 673.5,-25 673.5,-6 581.5,-6"/>
<text text-anchor="middle" x="627.5" y="-13" font-family="Helvetica,sans-Serif" font-size="10.00">lyra::exe_name</text>
</a>
</g>
</g>
<!-- Node10&#45;&gt;Node11 -->
<g id="edge17" class="edge">
<title>Node10&#45;&gt;Node11</title>
<path fill="none" stroke="midnightblue" d="M506.11,-8.89C531.59,-8.55 559.05,-8.83 581.3,-9.73"/>
<polygon fill="midnightblue" stroke="midnightblue" points="506.03,-5.39 496.09,-9.06 506.14,-12.39 506.03,-5.39"/>
</g>
<!-- Node10&#45;&gt;Node11 -->
<g id="edge18" class="edge">
<title>Node10&#45;&gt;Node11</title>
<path fill="none" stroke="midnightblue" d="M506.11,-22.11C531.59,-22.45 559.05,-22.17 581.3,-21.27"/>
<polygon fill="midnightblue" stroke="midnightblue" points="506.14,-18.61 496.09,-21.94 506.03,-25.61 506.14,-18.61"/>
</g>
<!-- Node12&#45;&gt;Node6 -->
<g id="edge20" class="edge">
<title>Node12&#45;&gt;Node6</title>
<path fill="none" stroke="midnightblue" d="M506.36,-168.89C529.01,-168.59 553.2,-168.78 573.9,-169.46"/>
<polygon fill="midnightblue" stroke="midnightblue" points="506.03,-165.39 496.09,-169.06 506.14,-172.39 506.03,-165.39"/>
</g>
<!-- Node12&#45;&gt;Node6 -->
<g id="edge21" class="edge">
<title>Node12&#45;&gt;Node6</title>
<path fill="none" stroke="midnightblue" d="M506.36,-182.11C529.01,-182.41 553.2,-182.22 573.9,-181.54"/>
<polygon fill="midnightblue" stroke="midnightblue" points="506.14,-178.61 496.09,-181.94 506.03,-185.61 506.14,-178.61"/>
</g>
</g>
</svg>
