<?xml version="1.0" encoding="UTF-8" standalone="no"?>
<!DOCTYPE svg PUBLIC "-//W3C//DTD SVG 1.1//EN"
 "http://www.w3.org/Graphics/SVG/1.1/DTD/svg11.dtd">
<!-- Generated by graphviz version 2.43.0 (0)
 -->
<!-- Title: lyra::detail::token_iterator::has_option_prefix Pages: 1 -->
<svg width="263pt" height="50pt"
 viewBox="0.00 0.00 263.00 50.00" xmlns="http://www.w3.org/2000/svg" xmlns:xlink="http://www.w3.org/1999/xlink">
<g id="graph0" class="graph" transform="scale(1 1) rotate(0) translate(4 46)">
<title>lyra::detail::token_iterator::has_option_prefix</title>
<polygon fill="white" stroke="transparent" points="-4,4 -4,-46 259,-46 259,4 -4,4"/>
<!-- Node1 -->
<g id="node1" class="node">
<title>Node1</title>
<g id="a_node1"><a xlink:title=" ">
<polygon fill="#bfbfbf" stroke="black" points="138,-0.5 138,-41.5 255,-41.5 255,-0.5 138,-0.5"/>
<text text-anchor="start" x="146" y="-29.5" font-family="Helvetica,sans-Serif" font-size="10.00">lyra::detail::token</text>
<text text-anchor="start" x="146" y="-18.5" font-family="Helvetica,sans-Serif" font-size="10.00">_iterator::has_option</text>
<text text-anchor="middle" x="196.5" y="-7.5" font-family="Helvetica,sans-Serif" font-size="10.00">_prefix</text>
</a>
</g>
</g>
<!-- Node2 -->
<g id="node2" class="node">
<title>Node2</title>
<g id="a_node2"><a xlink:href="classlyra_1_1detail_1_1token__iterator.html#aefbced0b2cbf66ad7967b6a2891166d0" target="_top" xlink:title=" ">
<polygon fill="white" stroke="black" points="0,-6 0,-36 102,-36 102,-6 0,-6"/>
<text text-anchor="start" x="8" y="-24" font-family="Helvetica,sans-Serif" font-size="10.00">lyra::detail::token</text>
<text text-anchor="middle" x="51" y="-13" font-family="Helvetica,sans-Serif" font-size="10.00">_iterator::value</text>
</a>
</g>
</g>
<!-- Node1&#45;&gt;Node2 -->
<g id="edge1" class="edge">
<title>Node1&#45;&gt;Node2</title>
<path fill="none" stroke="midnightblue" d="M127.86,-21C119.2,-21 110.46,-21 102.15,-21"/>
<polygon fill="midnightblue" stroke="midnightblue" points="127.96,-24.5 137.96,-21 127.96,-17.5 127.96,-24.5"/>
</g>
</g>
</svg>
