<?xml version="1.0" encoding="UTF-8" standalone="no"?>
<!DOCTYPE svg PUBLIC "-//W3C//DTD SVG 1.1//EN"
 "http://www.w3.org/Graphics/SVG/1.1/DTD/svg11.dtd">
<!-- Generated by graphviz version 2.43.0 (0)
 -->
<!-- Title: lyra::detail::token_iterator::has_short_option_prefix Pages: 1 -->
<svg width="488pt" height="213pt"
 viewBox="0.00 0.00 488.00 213.00" xmlns="http://www.w3.org/2000/svg" xmlns:xlink="http://www.w3.org/1999/xlink">
<g id="graph0" class="graph" transform="scale(1 1) rotate(0) translate(4 209)">
<title>lyra::detail::token_iterator::has_short_option_prefix</title>
<polygon fill="white" stroke="transparent" points="-4,4 -4,-209 484,-209 484,4 -4,4"/>
<!-- Node1 -->
<g id="node1" class="node">
<title>Node1</title>
<g id="a_node1"><a xlink:title=" ">
<polygon fill="#bfbfbf" stroke="black" points="369,-92.5 369,-133.5 480,-133.5 480,-92.5 369,-92.5"/>
<text text-anchor="start" x="377" y="-121.5" font-family="Helvetica,sans-Serif" font-size="10.00">lyra::detail::token</text>
<text text-anchor="start" x="377" y="-110.5" font-family="Helvetica,sans-Serif" font-size="10.00">_iterator::has_short</text>
<text text-anchor="middle" x="424.5" y="-99.5" font-family="Helvetica,sans-Serif" font-size="10.00">_option_prefix</text>
</a>
</g>
</g>
<!-- Node2 -->
<g id="node2" class="node">
<title>Node2</title>
<g id="a_node2"><a xlink:href="classlyra_1_1detail_1_1token__iterator.html#a11350435cee36ca42019fc81662c018f" target="_top" xlink:title=" ">
<polygon fill="white" stroke="black" points="216,-163.5 216,-204.5 333,-204.5 333,-163.5 216,-163.5"/>
<text text-anchor="start" x="224" y="-192.5" font-family="Helvetica,sans-Serif" font-size="10.00">lyra::detail::token</text>
<text text-anchor="start" x="224" y="-181.5" font-family="Helvetica,sans-Serif" font-size="10.00">_iterator::has_option</text>
<text text-anchor="middle" x="274.5" y="-170.5" font-family="Helvetica,sans-Serif" font-size="10.00">_prefix</text>
</a>
</g>
</g>
<!-- Node1&#45;&gt;Node2 -->
<g id="edge1" class="edge">
<title>Node1&#45;&gt;Node2</title>
<path fill="none" stroke="midnightblue" d="M371.29,-138.04C354.01,-146.34 334.98,-155.47 318.47,-163.39"/>
<polygon fill="midnightblue" stroke="midnightblue" points="373.19,-141.02 380.69,-133.54 370.16,-134.71 373.19,-141.02"/>
</g>
<!-- Node3 -->
<g id="node3" class="node">
<title>Node3</title>
<g id="a_node3"><a xlink:href="classlyra_1_1detail_1_1token__iterator.html#aefbced0b2cbf66ad7967b6a2891166d0" target="_top" xlink:title=" ">
<polygon fill="white" stroke="black" points="77.5,-144 77.5,-174 179.5,-174 179.5,-144 77.5,-144"/>
<text text-anchor="start" x="85.5" y="-162" font-family="Helvetica,sans-Serif" font-size="10.00">lyra::detail::token</text>
<text text-anchor="middle" x="128.5" y="-151" font-family="Helvetica,sans-Serif" font-size="10.00">_iterator::value</text>
</a>
</g>
</g>
<!-- Node1&#45;&gt;Node3 -->
<g id="edge9" class="edge">
<title>Node1&#45;&gt;Node3</title>
<path fill="none" stroke="midnightblue" d="M358.76,-123.13C304.9,-131.56 229.32,-143.38 179.89,-151.12"/>
<polygon fill="midnightblue" stroke="midnightblue" points="359.55,-126.55 368.89,-121.54 358.47,-119.63 359.55,-126.55"/>
</g>
<!-- Node4 -->
<g id="node4" class="node">
<title>Node4</title>
<g id="a_node4"><a xlink:href="classlyra_1_1detail_1_1token__iterator.html#a7e4904a6b3beafa1280358cdd6002353" target="_top" xlink:title=" ">
<polygon fill="white" stroke="black" points="223.5,-76 223.5,-106 325.5,-106 325.5,-76 223.5,-76"/>
<text text-anchor="start" x="231.5" y="-94" font-family="Helvetica,sans-Serif" font-size="10.00">lyra::detail::token</text>
<text text-anchor="middle" x="274.5" y="-83" font-family="Helvetica,sans-Serif" font-size="10.00">_iterator::option</text>
</a>
</g>
</g>
<!-- Node1&#45;&gt;Node4 -->
<g id="edge3" class="edge">
<title>Node1&#45;&gt;Node4</title>
<path fill="none" stroke="midnightblue" d="M358.71,-103.37C347.6,-101.72 336.21,-100.02 325.56,-98.44"/>
<polygon fill="midnightblue" stroke="midnightblue" points="358.4,-106.86 368.81,-104.87 359.43,-99.94 358.4,-106.86"/>
</g>
<!-- Node7 -->
<g id="node7" class="node">
<title>Node7</title>
<g id="a_node7"><a xlink:href="classlyra_1_1detail_1_1token__iterator.html#a017af8979ef14eac5c1fd010b1391035" target="_top" xlink:title=" ">
<polygon fill="white" stroke="black" points="223.5,-27 223.5,-57 325.5,-57 325.5,-27 223.5,-27"/>
<text text-anchor="start" x="231.5" y="-45" font-family="Helvetica,sans-Serif" font-size="10.00">lyra::detail::token</text>
<text text-anchor="middle" x="274.5" y="-34" font-family="Helvetica,sans-Serif" font-size="10.00">_iterator::pop</text>
</a>
</g>
</g>
<!-- Node1&#45;&gt;Node7 -->
<g id="edge6" class="edge">
<title>Node1&#45;&gt;Node7</title>
<path fill="none" stroke="midnightblue" d="M376.63,-87.71C362.7,-80.46 347.34,-72.7 333,-66 326.53,-62.98 319.58,-59.92 312.82,-57.04"/>
<polygon fill="midnightblue" stroke="midnightblue" points="375.06,-90.84 385.54,-92.39 378.31,-84.64 375.06,-90.84"/>
</g>
<!-- Node2&#45;&gt;Node3 -->
<g id="edge2" class="edge">
<title>Node2&#45;&gt;Node3</title>
<path fill="none" stroke="midnightblue" d="M205.63,-172.22C196.94,-170.71 188.17,-169.19 179.83,-167.74"/>
<polygon fill="midnightblue" stroke="midnightblue" points="205.31,-175.71 215.76,-173.98 206.51,-168.82 205.31,-175.71"/>
</g>
<!-- Node5 -->
<g id="node5" class="node">
<title>Node5</title>
<g id="a_node5"><a xlink:href="classlyra_1_1opt.html#a320fdddd60a89469dca1ba3c07e7bf20" target="_top" xlink:title=" ">
<polygon fill="white" stroke="black" points="83.5,-81.5 83.5,-100.5 173.5,-100.5 173.5,-81.5 83.5,-81.5"/>
<text text-anchor="middle" x="128.5" y="-88.5" font-family="Helvetica,sans-Serif" font-size="10.00">lyra::opt::parse</text>
</a>
</g>
</g>
<!-- Node4&#45;&gt;Node5 -->
<g id="edge4" class="edge">
<title>Node4&#45;&gt;Node5</title>
<path fill="none" stroke="midnightblue" d="M212.8,-91C199.73,-91 186.15,-91 173.84,-91"/>
<polygon fill="midnightblue" stroke="midnightblue" points="213.14,-94.5 223.14,-91 213.14,-87.5 213.14,-94.5"/>
</g>
<!-- Node6 -->
<g id="node6" class="node">
<title>Node6</title>
<g id="a_node6"><a xlink:href="single__parser__run__test_8cpp.html#ae66f6b31b5ad750f1fe042a706a4e3d4" target="_top" xlink:title=" ">
<polygon fill="white" stroke="black" points="0,-81.5 0,-100.5 41,-100.5 41,-81.5 0,-81.5"/>
<text text-anchor="middle" x="20.5" y="-88.5" font-family="Helvetica,sans-Serif" font-size="10.00">main</text>
</a>
</g>
</g>
<!-- Node5&#45;&gt;Node6 -->
<g id="edge5" class="edge">
<title>Node5&#45;&gt;Node6</title>
<path fill="none" stroke="midnightblue" d="M73.32,-91C61.74,-91 50.23,-91 41.01,-91"/>
<polygon fill="midnightblue" stroke="midnightblue" points="73.47,-94.5 83.47,-91 73.47,-87.5 73.47,-94.5"/>
</g>
<!-- Node8 -->
<g id="node8" class="node">
<title>Node8</title>
<g id="a_node8"><a xlink:href="classlyra_1_1literal.html#a0b616706829da82299d42c4a188d6408" target="_top" xlink:title=" ">
<polygon fill="white" stroke="black" points="77,-38.5 77,-57.5 180,-57.5 180,-38.5 77,-38.5"/>
<text text-anchor="middle" x="128.5" y="-45.5" font-family="Helvetica,sans-Serif" font-size="10.00">lyra::literal::parse</text>
</a>
</g>
</g>
<!-- Node7&#45;&gt;Node8 -->
<g id="edge7" class="edge">
<title>Node7&#45;&gt;Node8</title>
<path fill="none" stroke="midnightblue" d="M212.82,-44.53C201.92,-44.98 190.66,-45.45 180.08,-45.89"/>
<polygon fill="midnightblue" stroke="midnightblue" points="213.29,-48.01 223.14,-44.1 213,-41.02 213.29,-48.01"/>
</g>
<!-- Node9 -->
<g id="node9" class="node">
<title>Node9</title>
<g id="a_node9"><a xlink:href="classlyra_1_1arg.html#a027ca631a2fe3824db141195371b0349" target="_top" xlink:title=" ">
<polygon fill="white" stroke="black" points="83.5,-0.5 83.5,-19.5 173.5,-19.5 173.5,-0.5 83.5,-0.5"/>
<text text-anchor="middle" x="128.5" y="-7.5" font-family="Helvetica,sans-Serif" font-size="10.00">lyra::arg::parse</text>
</a>
</g>
</g>
<!-- Node7&#45;&gt;Node9 -->
<g id="edge8" class="edge">
<title>Node7&#45;&gt;Node9</title>
<path fill="none" stroke="midnightblue" d="M213.28,-28.62C199.56,-25.57 185.25,-22.39 172.42,-19.54"/>
<polygon fill="midnightblue" stroke="midnightblue" points="212.61,-32.06 223.14,-30.81 214.13,-25.22 212.61,-32.06"/>
</g>
</g>
</svg>
