<?xml version="1.0" encoding="UTF-8" standalone="no"?>
<!DOCTYPE svg PUBLIC "-//W3C//DTD SVG 1.1//EN"
 "http://www.w3.org/Graphics/SVG/1.1/DTD/svg11.dtd">
<!-- Generated by graphviz version 2.43.0 (0)
 -->
<!-- Title: lyra::command::command Pages: 1 -->
<svg width="495pt" height="154pt"
 viewBox="0.00 0.00 495.00 154.00" xmlns="http://www.w3.org/2000/svg" xmlns:xlink="http://www.w3.org/1999/xlink">
<g id="graph0" class="graph" transform="scale(1 1) rotate(0) translate(4 150)">
<title>lyra::command::command</title>
<polygon fill="white" stroke="transparent" points="-4,4 -4,-150 491,-150 491,4 -4,4"/>
<!-- Node1 -->
<g id="node1" class="node">
<title>Node1</title>
<g id="a_node1"><a xlink:title=" ">
<polygon fill="#bfbfbf" stroke="black" points="0,-60.5 0,-79.5 145,-79.5 145,-60.5 0,-60.5"/>
<text text-anchor="middle" x="72.5" y="-67.5" font-family="Helvetica,sans-Serif" font-size="10.00">lyra::command::command</text>
</a>
</g>
</g>
<!-- Node2 -->
<g id="node2" class="node">
<title>Node2</title>
<g id="a_node2"><a xlink:href="classlyra_1_1group.html#ae5b0a47339c2385c57e9272b5495164c" target="_top" xlink:title=" ">
<polygon fill="white" stroke="black" points="205,-126.5 205,-145.5 308,-145.5 308,-126.5 205,-126.5"/>
<text text-anchor="middle" x="256.5" y="-133.5" font-family="Helvetica,sans-Serif" font-size="10.00">lyra::group::group</text>
</a>
</g>
</g>
<!-- Node1&#45;&gt;Node2 -->
<g id="edge1" class="edge">
<title>Node1&#45;&gt;Node2</title>
<path fill="none" stroke="midnightblue" d="M92.93,-79.64C114.17,-89.91 149.41,-106.15 181,-117 188.11,-119.44 195.7,-121.73 203.21,-123.81"/>
<polygon fill="midnightblue" stroke="midnightblue" points="202.43,-127.23 212.99,-126.43 204.23,-120.46 202.43,-127.23"/>
</g>
<!-- Node3 -->
<g id="node3" class="node">
<title>Node3</title>
<g id="a_node3"><a xlink:href="classlyra_1_1arguments.html#a2da55e33219324b5cd93bba0b44f13c9" target="_top" xlink:title=" ">
<polygon fill="white" stroke="black" points="197.5,-77 197.5,-107 315.5,-107 315.5,-77 197.5,-77"/>
<text text-anchor="start" x="205.5" y="-95" font-family="Helvetica,sans-Serif" font-size="10.00">lyra::arguments::add</text>
<text text-anchor="middle" x="256.5" y="-84" font-family="Helvetica,sans-Serif" font-size="10.00">_argument</text>
</a>
</g>
</g>
<!-- Node1&#45;&gt;Node3 -->
<g id="edge2" class="edge">
<title>Node1&#45;&gt;Node3</title>
<path fill="none" stroke="midnightblue" d="M145.17,-78.66C158.96,-80.33 173.38,-82.07 187.06,-83.73"/>
<polygon fill="midnightblue" stroke="midnightblue" points="187.02,-87.25 197.37,-84.97 187.86,-80.3 187.02,-87.25"/>
</g>
<!-- Node5 -->
<g id="node5" class="node">
<title>Node5</title>
<g id="a_node5"><a xlink:href="classlyra_1_1group.html#a95cd543f2f09212cefaeba7d12d8e57c" target="_top" xlink:title=" ">
<polygon fill="white" stroke="black" points="198.5,-38.5 198.5,-57.5 314.5,-57.5 314.5,-38.5 198.5,-38.5"/>
<text text-anchor="middle" x="256.5" y="-45.5" font-family="Helvetica,sans-Serif" font-size="10.00">lyra::group::required</text>
</a>
</g>
</g>
<!-- Node1&#45;&gt;Node5 -->
<g id="edge4" class="edge">
<title>Node1&#45;&gt;Node5</title>
<path fill="none" stroke="midnightblue" d="M145.17,-61.34C159.34,-59.62 174.16,-57.83 188.18,-56.14"/>
<polygon fill="midnightblue" stroke="midnightblue" points="188.72,-59.6 198.22,-54.92 187.88,-52.65 188.72,-59.6"/>
</g>
<!-- Node7 -->
<g id="node7" class="node">
<title>Node7</title>
<g id="a_node7"><a xlink:href="classlyra_1_1arguments.html#aab200e7b9a5d24afbbef1942fc3c5a38" target="_top" xlink:title=" ">
<polygon fill="white" stroke="black" points="181,-0.5 181,-19.5 332,-19.5 332,-0.5 181,-0.5"/>
<text text-anchor="middle" x="256.5" y="-7.5" font-family="Helvetica,sans-Serif" font-size="10.00">lyra::arguments::sequential</text>
</a>
</g>
</g>
<!-- Node1&#45;&gt;Node7 -->
<g id="edge6" class="edge">
<title>Node1&#45;&gt;Node7</title>
<path fill="none" stroke="midnightblue" d="M96.3,-60.43C117.88,-51.58 151.3,-38.42 181,-29 188.69,-26.56 196.9,-24.22 204.96,-22.06"/>
<polygon fill="midnightblue" stroke="midnightblue" points="205.87,-25.43 214.66,-19.52 204.1,-18.66 205.87,-25.43"/>
</g>
<!-- Node4 -->
<g id="node4" class="node">
<title>Node4</title>
<g id="a_node4"><a xlink:href="classlyra_1_1parser.html#a973c203c76dd3160378494ae12c70724" target="_top" xlink:title=" ">
<polygon fill="white" stroke="black" points="375.5,-82.5 375.5,-101.5 479.5,-101.5 479.5,-82.5 375.5,-82.5"/>
<text text-anchor="middle" x="427.5" y="-89.5" font-family="Helvetica,sans-Serif" font-size="10.00">lyra::parser::clone</text>
</a>
</g>
</g>
<!-- Node3&#45;&gt;Node4 -->
<g id="edge3" class="edge">
<title>Node3&#45;&gt;Node4</title>
<path fill="none" stroke="midnightblue" d="M315.66,-92C331.56,-92 348.84,-92 364.93,-92"/>
<polygon fill="midnightblue" stroke="midnightblue" points="365.29,-95.5 375.29,-92 365.29,-88.5 365.29,-95.5"/>
</g>
<!-- Node6 -->
<g id="node6" class="node">
<title>Node6</title>
<g id="a_node6"><a xlink:href="structlyra_1_1detail_1_1parser__cardinality.html#ab03623ff7b07e03b6b54ab20f8aaae2d" target="_top" xlink:title=" ">
<polygon fill="white" stroke="black" points="368,-33 368,-63 487,-63 487,-33 368,-33"/>
<text text-anchor="start" x="376" y="-51" font-family="Helvetica,sans-Serif" font-size="10.00">lyra::detail::parser</text>
<text text-anchor="middle" x="427.5" y="-40" font-family="Helvetica,sans-Serif" font-size="10.00">_cardinality::required</text>
</a>
</g>
</g>
<!-- Node5&#45;&gt;Node6 -->
<g id="edge5" class="edge">
<title>Node5&#45;&gt;Node6</title>
<path fill="none" stroke="midnightblue" d="M314.72,-48C328.51,-48 343.39,-48 357.65,-48"/>
<polygon fill="midnightblue" stroke="midnightblue" points="357.9,-51.5 367.9,-48 357.9,-44.5 357.9,-51.5"/>
</g>
</g>
</svg>
