<?xml version="1.0" encoding="UTF-8" standalone="no"?>
<!DOCTYPE svg PUBLIC "-//W3C//DTD SVG 1.1//EN"
 "http://www.w3.org/Graphics/SVG/1.1/DTD/svg11.dtd">
<!-- Generated by graphviz version 2.43.0 (0)
 -->
<!-- Title: MainNamespace::MeshReader::MeshReader Pages: 1 -->
<svg width="590pt" height="225pt"
 viewBox="0.00 0.00 590.00 225.00" xmlns="http://www.w3.org/2000/svg" xmlns:xlink="http://www.w3.org/1999/xlink">
<g id="graph0" class="graph" transform="scale(1 1) rotate(0) translate(4 221)">
<title>MainNamespace::MeshReader::MeshReader</title>
<polygon fill="white" stroke="transparent" points="-4,4 -4,-221 586,-221 586,4 -4,4"/>
<!-- Node1 -->
<g id="node1" class="node">
<title>Node1</title>
<g id="a_node1"><a xlink:title=" ">
<polygon fill="#bfbfbf" stroke="black" points="0,-112.5 0,-142.5 165,-142.5 165,-112.5 0,-112.5"/>
<text text-anchor="start" x="8" y="-130.5" font-family="Helvetica,sans-Serif" font-size="10.00">MainNamespace::MeshReader</text>
<text text-anchor="middle" x="82.5" y="-119.5" font-family="Helvetica,sans-Serif" font-size="10.00">::MeshReader</text>
</a>
</g>
</g>
<!-- Node2 -->
<g id="node2" class="node">
<title>Node2</title>
<g id="a_node2"><a xlink:href="namespace_main_namespace.html#af2bdf8b63f748b11f1bb616b59890873" target="_top" xlink:title=" ">
<polygon fill="white" stroke="black" points="201,-194 201,-213 374,-213 374,-194 201,-194"/>
<text text-anchor="middle" x="287.5" y="-201" font-family="Helvetica,sans-Serif" font-size="10.00">MainNamespace::getUnderlying</text>
</a>
</g>
</g>
<!-- Node1&#45;&gt;Node2 -->
<g id="edge1" class="edge">
<title>Node1&#45;&gt;Node2</title>
<path fill="none" stroke="midnightblue" d="M110.27,-142.72C133.6,-155.43 168.67,-173.24 201,-184.5 208.55,-187.13 216.61,-189.48 224.65,-191.56"/>
<polygon fill="midnightblue" stroke="midnightblue" points="223.87,-194.97 234.41,-193.96 225.54,-188.17 223.87,-194.97"/>
</g>
<!-- Node3 -->
<g id="node3" class="node">
<title>Node3</title>
<g id="a_node3"><a xlink:href="namespace_main_namespace.html#a5e50f145edc0e262f44ea6b4a46aa2b0" target="_top" xlink:title=" ">
<polygon fill="white" stroke="black" points="212,-118 212,-137 363,-137 363,-118 212,-118"/>
<text text-anchor="middle" x="287.5" y="-125" font-family="Helvetica,sans-Serif" font-size="10.00">MainNamespace::saveError</text>
</a>
</g>
</g>
<!-- Node1&#45;&gt;Node3 -->
<g id="edge2" class="edge">
<title>Node1&#45;&gt;Node3</title>
<path fill="none" stroke="midnightblue" d="M165.19,-127.5C177.24,-127.5 189.68,-127.5 201.79,-127.5"/>
<polygon fill="midnightblue" stroke="midnightblue" points="201.87,-131 211.87,-127.5 201.87,-124 201.87,-131"/>
</g>
<!-- Node6 -->
<g id="node6" class="node">
<title>Node6</title>
<g id="a_node6"><a xlink:href="namespace_main_namespace.html#a6901e386a4b183d47269233b4daf35db" target="_top" xlink:title=" ">
<polygon fill="white" stroke="black" points="208.5,-156 208.5,-175 366.5,-175 366.5,-156 208.5,-156"/>
<text text-anchor="middle" x="287.5" y="-163" font-family="Helvetica,sans-Serif" font-size="10.00">MainNamespace::saveOffset</text>
</a>
</g>
</g>
<!-- Node1&#45;&gt;Node6 -->
<g id="edge5" class="edge">
<title>Node1&#45;&gt;Node6</title>
<path fill="none" stroke="midnightblue" d="M163.73,-142.52C184.4,-146.39 206.3,-150.49 225.79,-154.14"/>
<polygon fill="midnightblue" stroke="midnightblue" points="225.27,-157.6 235.75,-156 226.56,-150.72 225.27,-157.6"/>
</g>
<!-- Node8 -->
<g id="node8" class="node">
<title>Node8</title>
<g id="a_node8"><a xlink:href="namespace_main_namespace.html#ae223b3ed418e7eb9a6765804c9190e32" target="_top" xlink:title=" ">
<polygon fill="white" stroke="black" points="214.5,-80 214.5,-99 360.5,-99 360.5,-80 214.5,-80"/>
<text text-anchor="middle" x="287.5" y="-87" font-family="Helvetica,sans-Serif" font-size="10.00">MainNamespace::saveRhs</text>
</a>
</g>
</g>
<!-- Node1&#45;&gt;Node8 -->
<g id="edge8" class="edge">
<title>Node1&#45;&gt;Node8</title>
<path fill="none" stroke="midnightblue" d="M163.73,-112.48C184.4,-108.61 206.3,-104.51 225.79,-100.86"/>
<polygon fill="midnightblue" stroke="midnightblue" points="226.56,-104.28 235.75,-99 225.27,-97.4 226.56,-104.28"/>
</g>
<!-- Node10 -->
<g id="node10" class="node">
<title>Node10</title>
<g id="a_node10"><a xlink:href="namespace_main_namespace.html#ab5930d6a057edb1d01cb951c7a56c00c" target="_top" xlink:title=" ">
<polygon fill="white" stroke="black" points="204,-42 204,-61 371,-61 371,-42 204,-42"/>
<text text-anchor="middle" x="287.5" y="-49" font-family="Helvetica,sans-Serif" font-size="10.00">MainNamespace::saveSolution</text>
</a>
</g>
</g>
<!-- Node1&#45;&gt;Node10 -->
<g id="edge11" class="edge">
<title>Node1&#45;&gt;Node10</title>
<path fill="none" stroke="midnightblue" d="M110.27,-112.28C133.6,-99.57 168.67,-81.76 201,-70.5 208.55,-67.87 216.61,-65.52 224.65,-63.44"/>
<polygon fill="midnightblue" stroke="midnightblue" points="225.54,-66.83 234.41,-61.04 223.87,-60.03 225.54,-66.83"/>
</g>
<!-- Node4 -->
<g id="node4" class="node">
<title>Node4</title>
<g id="a_node4"><a xlink:href="namespace_main_namespace.html#a6fd76e14adc7d23a9822334cb389b369" target="_top" xlink:title=" ">
<polygon fill="white" stroke="black" points="410,-99 410,-118 582,-118 582,-99 410,-99"/>
<text text-anchor="middle" x="496" y="-106" font-family="Helvetica,sans-Serif" font-size="10.00">MainNamespace::globalOptions</text>
</a>
</g>
</g>
<!-- Node3&#45;&gt;Node4 -->
<g id="edge3" class="edge">
<title>Node3&#45;&gt;Node4</title>
<path fill="none" stroke="midnightblue" d="M363.05,-120.64C374.87,-119.55 387.24,-118.41 399.47,-117.29"/>
<polygon fill="midnightblue" stroke="midnightblue" points="400.05,-120.75 409.69,-116.35 399.41,-113.78 400.05,-120.75"/>
</g>
<!-- Node5 -->
<g id="node5" class="node">
<title>Node5</title>
<g id="a_node5"><a xlink:href="struct_main_namespace_1_1_options.html#a157f507db346a5a352db2644fd4d10ab" target="_top" xlink:title=" ">
<polygon fill="white" stroke="black" points="425,-137.5 425,-167.5 567,-167.5 567,-137.5 425,-137.5"/>
<text text-anchor="start" x="433" y="-155.5" font-family="Helvetica,sans-Serif" font-size="10.00">MainNamespace::Options</text>
<text text-anchor="middle" x="496" y="-144.5" font-family="Helvetica,sans-Serif" font-size="10.00">::saveError</text>
</a>
</g>
</g>
<!-- Node3&#45;&gt;Node5 -->
<g id="edge4" class="edge">
<title>Node3&#45;&gt;Node5</title>
<path fill="none" stroke="midnightblue" d="M363.05,-136.53C379.7,-138.54 397.43,-140.69 414.31,-142.73"/>
<polygon fill="midnightblue" stroke="midnightblue" points="414.34,-146.26 424.69,-143.99 415.19,-139.31 414.34,-146.26"/>
</g>
<!-- Node6&#45;&gt;Node4 -->
<g id="edge6" class="edge">
<title>Node6&#45;&gt;Node4</title>
<path fill="none" stroke="midnightblue" d="M341.07,-155.95C352.09,-153.35 363.54,-150.21 374,-146.5 390.86,-140.51 393.18,-134.59 410,-128.5 418.29,-125.5 427.19,-122.83 436.01,-120.5"/>
<polygon fill="midnightblue" stroke="midnightblue" points="437.04,-123.85 445.88,-118.01 435.33,-117.06 437.04,-123.85"/>
</g>
<!-- Node7 -->
<g id="node7" class="node">
<title>Node7</title>
<g id="a_node7"><a xlink:href="struct_main_namespace_1_1_options.html#ad1e3e11de64499a6e74c869a85763fb2" target="_top" xlink:title=" ">
<polygon fill="white" stroke="black" points="425,-186.5 425,-216.5 567,-216.5 567,-186.5 425,-186.5"/>
<text text-anchor="start" x="433" y="-204.5" font-family="Helvetica,sans-Serif" font-size="10.00">MainNamespace::Options</text>
<text text-anchor="middle" x="496" y="-193.5" font-family="Helvetica,sans-Serif" font-size="10.00">::saveOffset</text>
</a>
</g>
</g>
<!-- Node6&#45;&gt;Node7 -->
<g id="edge7" class="edge">
<title>Node6&#45;&gt;Node7</title>
<path fill="none" stroke="midnightblue" d="M343.03,-175.01C364.98,-178.83 390.75,-183.33 414.77,-187.51"/>
<polygon fill="midnightblue" stroke="midnightblue" points="414.49,-191.02 424.94,-189.29 415.69,-184.12 414.49,-191.02"/>
</g>
<!-- Node8&#45;&gt;Node4 -->
<g id="edge9" class="edge">
<title>Node8&#45;&gt;Node4</title>
<path fill="none" stroke="midnightblue" d="M360.72,-96.15C373.33,-97.31 386.61,-98.53 399.73,-99.73"/>
<polygon fill="midnightblue" stroke="midnightblue" points="399.43,-103.22 409.7,-100.65 400.07,-96.25 399.43,-103.22"/>
</g>
<!-- Node9 -->
<g id="node9" class="node">
<title>Node9</title>
<g id="a_node9"><a xlink:href="struct_main_namespace_1_1_options.html#a6374e2b83e64dcdf2ac65ed48eef19ab" target="_top" xlink:title=" ">
<polygon fill="white" stroke="black" points="425,-49.5 425,-79.5 567,-79.5 567,-49.5 425,-49.5"/>
<text text-anchor="start" x="433" y="-67.5" font-family="Helvetica,sans-Serif" font-size="10.00">MainNamespace::Options</text>
<text text-anchor="middle" x="496" y="-56.5" font-family="Helvetica,sans-Serif" font-size="10.00">::saveRhs</text>
</a>
</g>
</g>
<!-- Node8&#45;&gt;Node9 -->
<g id="edge10" class="edge">
<title>Node8&#45;&gt;Node9</title>
<path fill="none" stroke="midnightblue" d="M360.72,-80.76C378.13,-78.65 396.83,-76.39 414.58,-74.24"/>
<polygon fill="midnightblue" stroke="midnightblue" points="415.4,-77.66 424.9,-72.99 414.56,-70.71 415.4,-77.66"/>
</g>
<!-- Node10&#45;&gt;Node4 -->
<g id="edge12" class="edge">
<title>Node10&#45;&gt;Node4</title>
<path fill="none" stroke="midnightblue" d="M342.04,-61.09C352.78,-63.66 363.87,-66.78 374,-70.5 390.98,-76.74 393.02,-83.25 410,-89.5 417.18,-92.14 424.85,-94.49 432.53,-96.54"/>
<polygon fill="midnightblue" stroke="midnightblue" points="431.67,-99.93 442.22,-98.99 433.39,-93.15 431.67,-99.93"/>
</g>
<!-- Node11 -->
<g id="node11" class="node">
<title>Node11</title>
<g id="a_node11"><a xlink:href="struct_main_namespace_1_1_options.html#a87a4a17d58ce0c43dd31e46be31c66cc" target="_top" xlink:title=" ">
<polygon fill="white" stroke="black" points="425,-0.5 425,-30.5 567,-30.5 567,-0.5 425,-0.5"/>
<text text-anchor="start" x="433" y="-18.5" font-family="Helvetica,sans-Serif" font-size="10.00">MainNamespace::Options</text>
<text text-anchor="middle" x="496" y="-7.5" font-family="Helvetica,sans-Serif" font-size="10.00">::saveSolution</text>
</a>
</g>
</g>
<!-- Node10&#45;&gt;Node11 -->
<g id="edge13" class="edge">
<title>Node10&#45;&gt;Node11</title>
<path fill="none" stroke="midnightblue" d="M343.03,-41.99C364.98,-38.17 390.75,-33.67 414.77,-29.49"/>
<polygon fill="midnightblue" stroke="midnightblue" points="415.69,-32.88 424.94,-27.71 414.49,-25.98 415.69,-32.88"/>
</g>
</g>
</svg>
