<?xml version="1.0" encoding="UTF-8" standalone="no"?>
<!DOCTYPE svg PUBLIC "-//W3C//DTD SVG 1.1//EN"
 "http://www.w3.org/Graphics/SVG/1.1/DTD/svg11.dtd">
<!-- Generated by graphviz version 2.43.0 (0)
 -->
<!-- Title: MainNamespace::Surface::MultiSurface::problemSize Pages: 1 -->
<svg width="525pt" height="154pt"
 viewBox="0.00 0.00 525.00 153.70" xmlns="http://www.w3.org/2000/svg" xmlns:xlink="http://www.w3.org/1999/xlink">
<g id="graph0" class="graph" transform="scale(1 1) rotate(0) translate(4 149.7)">
<title>MainNamespace::Surface::MultiSurface::problemSize</title>
<polygon fill="white" stroke="transparent" points="-4,4 -4,-149.7 521,-149.7 521,4 -4,4"/>
<!-- Node1 -->
<g id="node1" class="node">
<title>Node1</title>
<g id="a_node1"><a xlink:title="Get the dimension of the space of Cauchy space (i.e., Dirichlet and Neumann together).">
<polygon fill="#bfbfbf" stroke="black" points="366,-41.2 366,-71.2 517,-71.2 517,-41.2 366,-41.2"/>
<text text-anchor="start" x="374" y="-59.2" font-family="Helvetica,sans-Serif" font-size="10.00">MainNamespace::Surface</text>
<text text-anchor="middle" x="441.5" y="-48.2" font-family="Helvetica,sans-Serif" font-size="10.00">::MultiSurface::problemSize</text>
</a>
</g>
</g>
<!-- Node2 -->
<g id="node2" class="node">
<title>Node2</title>
<g id="a_node2"><a xlink:href="class_main_namespace_1_1_surface_1_1_multi_surface.html#a18e9ad0a8db9f1d27b1e13b3f9bd243b" target="_top" xlink:title=" ">
<polygon fill="white" stroke="black" points="189,-115.2 189,-145.2 330,-145.2 330,-115.2 189,-115.2"/>
<text text-anchor="start" x="197" y="-133.2" font-family="Helvetica,sans-Serif" font-size="10.00">MainNamespace::Surface</text>
<text text-anchor="middle" x="259.5" y="-122.2" font-family="Helvetica,sans-Serif" font-size="10.00">::MultiSurface::fillZeros</text>
</a>
</g>
</g>
<!-- Node1&#45;&gt;Node2 -->
<g id="edge1" class="edge">
<title>Node1&#45;&gt;Node2</title>
<path fill="none" stroke="midnightblue" d="M400.23,-75.5C379.46,-85.19 353.58,-96.82 330,-106.2 322.29,-109.27 314.02,-112.33 305.96,-115.18"/>
<polygon fill="midnightblue" stroke="midnightblue" points="401.83,-78.62 409.4,-71.21 398.86,-72.28 401.83,-78.62"/>
</g>
<!-- Node3 -->
<g id="node3" class="node">
<title>Node3</title>
<g id="a_node3"><a xlink:href="class_main_namespace_1_1_surface_1_1_multi_surface.html#ae3eff63ac7eb44665df48568f0b8c12d" target="_top" xlink:title=" ">
<polygon fill="white" stroke="black" points="189,-66.2 189,-96.2 330,-96.2 330,-66.2 189,-66.2"/>
<text text-anchor="start" x="197" y="-84.2" font-family="Helvetica,sans-Serif" font-size="10.00">MainNamespace::Surface</text>
<text text-anchor="middle" x="259.5" y="-73.2" font-family="Helvetica,sans-Serif" font-size="10.00">::MultiSurface::filterBasis</text>
</a>
</g>
</g>
<!-- Node1&#45;&gt;Node3 -->
<g id="edge2" class="edge">
<title>Node1&#45;&gt;Node3</title>
<path fill="none" stroke="midnightblue" d="M355.88,-67.95C347.23,-69.16 338.51,-70.37 330.05,-71.54"/>
<polygon fill="midnightblue" stroke="midnightblue" points="356.56,-71.39 365.99,-66.55 355.6,-64.46 356.56,-71.39"/>
</g>
<!-- Node4 -->
<g id="node4" class="node">
<title>Node4</title>
<g id="a_node4"><a xlink:href="class_main_namespace_1_1_surface_1_1_multi_surface.html#a8839f7e49575079e39fbb95a692772a5" target="_top" xlink:title="Compute the right&#45;hand side, the operators, then solve the linear system.">
<polygon fill="white" stroke="black" points="189,-17.2 189,-47.2 330,-47.2 330,-17.2 189,-17.2"/>
<text text-anchor="start" x="197" y="-35.2" font-family="Helvetica,sans-Serif" font-size="10.00">MainNamespace::Surface</text>
<text text-anchor="middle" x="259.5" y="-24.2" font-family="Helvetica,sans-Serif" font-size="10.00">::MultiSurface::solve</text>
</a>
</g>
</g>
<!-- Node1&#45;&gt;Node4 -->
<g id="edge3" class="edge">
<title>Node1&#45;&gt;Node4</title>
<path fill="none" stroke="midnightblue" d="M355.88,-44.92C347.23,-43.77 338.51,-42.6 330.05,-41.47"/>
<polygon fill="midnightblue" stroke="midnightblue" points="355.61,-48.41 365.99,-46.27 356.54,-41.48 355.61,-48.41"/>
</g>
<!-- Node5 -->
<g id="node5" class="node">
<title>Node5</title>
<g id="a_node5"><a xlink:href="main_8cpp.html#a5d68713f22d1b3e2495b15d107ea7d21" target="_top" xlink:title=" ">
<polygon fill="white" stroke="black" points="77,-0.7 77,-19.7 153,-19.7 153,-0.7 77,-0.7"/>
<text text-anchor="middle" x="115" y="-7.7" font-family="Helvetica,sans-Serif" font-size="10.00">testProblem</text>
</a>
</g>
</g>
<!-- Node1&#45;&gt;Node5 -->
<g id="edge6" class="edge">
<title>Node1&#45;&gt;Node5</title>
<path fill="none" stroke="midnightblue" d="M405.36,-36.52C384.24,-25.82 356.4,-13.69 330,-8.2 269.07,4.46 196.26,-0.3 153.2,-5.11"/>
<polygon fill="midnightblue" stroke="midnightblue" points="403.79,-39.64 414.28,-41.14 407.01,-33.43 403.79,-39.64"/>
</g>
<!-- Node4&#45;&gt;Node5 -->
<g id="edge4" class="edge">
<title>Node4&#45;&gt;Node5</title>
<path fill="none" stroke="midnightblue" d="M178.85,-19.9C169.97,-18.53 161.27,-17.19 153.31,-15.96"/>
<polygon fill="midnightblue" stroke="midnightblue" points="178.5,-23.39 188.92,-21.46 179.57,-16.47 178.5,-23.39"/>
</g>
<!-- Node6 -->
<g id="node6" class="node">
<title>Node6</title>
<g id="a_node6"><a xlink:href="main_8cpp.html#a3c04138a5bfe5d72780bb7e82a18e627" target="_top" xlink:title=" ">
<polygon fill="white" stroke="black" points="0,-0.7 0,-19.7 41,-19.7 41,-0.7 0,-0.7"/>
<text text-anchor="middle" x="20.5" y="-7.7" font-family="Helvetica,sans-Serif" font-size="10.00">main</text>
</a>
</g>
</g>
<!-- Node5&#45;&gt;Node6 -->
<g id="edge5" class="edge">
<title>Node5&#45;&gt;Node6</title>
<path fill="none" stroke="midnightblue" d="M66.72,-10.2C57.65,-10.2 48.64,-10.2 41.07,-10.2"/>
<polygon fill="midnightblue" stroke="midnightblue" points="66.91,-13.7 76.91,-10.2 66.91,-6.7 66.91,-13.7"/>
</g>
</g>
</svg>
