<?xml version="1.0" encoding="UTF-8" standalone="no"?>
<!DOCTYPE svg PUBLIC "-//W3C//DTD SVG 1.1//EN"
 "http://www.w3.org/Graphics/SVG/1.1/DTD/svg11.dtd">
<!-- Generated by graphviz version 2.43.0 (0)
 -->
<!-- Title: MainNamespace::PointerArray::operator[] Pages: 1 -->
<svg width="382pt" height="78pt"
 viewBox="0.00 0.00 382.00 77.50" xmlns="http://www.w3.org/2000/svg" xmlns:xlink="http://www.w3.org/1999/xlink">
<g id="graph0" class="graph" transform="scale(1 1) rotate(0) translate(4 73.5)">
<title>MainNamespace::PointerArray::operator[]</title>
<polygon fill="white" stroke="transparent" points="-4,4 -4,-73.5 378,-73.5 378,4 -4,4"/>
<!-- Node1 -->
<g id="node1" class="node">
<title>Node1</title>
<g id="a_node1"><a xlink:title=" ">
<polygon fill="#bfbfbf" stroke="black" points="0,-22.5 0,-52.5 165,-52.5 165,-22.5 0,-22.5"/>
<text text-anchor="start" x="8" y="-40.5" font-family="Helvetica,sans-Serif" font-size="10.00">MainNamespace::PointerArray</text>
<text text-anchor="middle" x="82.5" y="-29.5" font-family="Helvetica,sans-Serif" font-size="10.00">::operator[]</text>
</a>
</g>
</g>
<!-- Node2 -->
<g id="node2" class="node">
<title>Node2</title>
<g id="a_node2"><a xlink:href="namespace_main_namespace.html#af2bdf8b63f748b11f1bb616b59890873" target="_top" xlink:title=" ">
<polygon fill="white" stroke="black" points="201,-50 201,-69 374,-69 374,-50 201,-50"/>
<text text-anchor="middle" x="287.5" y="-57" font-family="Helvetica,sans-Serif" font-size="10.00">MainNamespace::getUnderlying</text>
</a>
</g>
</g>
<!-- Node1&#45;&gt;Node2 -->
<g id="edge1" class="edge">
<title>Node1&#45;&gt;Node2</title>
<path fill="none" stroke="midnightblue" d="M165.19,-46.35C173.66,-47.27 182.33,-48.21 190.94,-49.14"/>
<polygon fill="midnightblue" stroke="midnightblue" points="190.68,-52.64 201,-50.23 191.43,-45.68 190.68,-52.64"/>
</g>
<!-- Node3 -->
<g id="node3" class="node">
<title>Node3</title>
<g id="a_node3"><a xlink:href="class_main_namespace_1_1_pointer_array.html#a032877e29bba85493c6a770506ba0db3" target="_top" xlink:title=" ">
<polygon fill="white" stroke="black" points="205,-0.5 205,-30.5 370,-30.5 370,-0.5 205,-0.5"/>
<text text-anchor="start" x="213" y="-18.5" font-family="Helvetica,sans-Serif" font-size="10.00">MainNamespace::PointerArray</text>
<text text-anchor="middle" x="287.5" y="-7.5" font-family="Helvetica,sans-Serif" font-size="10.00">::operator[]</text>
</a>
</g>
</g>
<!-- Node1&#45;&gt;Node3 -->
<g id="edge2" class="edge">
<title>Node1&#45;&gt;Node3</title>
<path fill="none" stroke="midnightblue" d="M165.19,-28.65C174.92,-27.59 184.9,-26.51 194.76,-25.44"/>
<polygon fill="midnightblue" stroke="midnightblue" points="195.41,-28.89 204.98,-24.34 194.66,-21.93 195.41,-28.89"/>
</g>
</g>
</svg>
