<?xml version="1.0" encoding="UTF-8" standalone="no"?>
<!DOCTYPE svg PUBLIC "-//W3C//DTD SVG 1.1//EN"
 "http://www.w3.org/Graphics/SVG/1.1/DTD/svg11.dtd">
<!-- Generated by graphviz version 2.43.0 (0)
 -->
<!-- Title: MainNamespace::Surface::SingleSurface::buildOperator Pages: 1 -->
<!--zoomable 274 -->
<svg id="main" version="1.1" xmlns="http://www.w3.org/2000/svg" xmlns:xlink="http://www.w3.org/1999/xlink" xml:space="preserve" onload="init(evt)">
<style type="text/css"><![CDATA[
.edge:hover path { stroke: red; }
.edge:hover polygon { stroke: red; fill: red; }
]]></style>
<script type="text/javascript"><![CDATA[
var edges = document.getElementsByTagName('g');
if (edges && edges.length) {
  for (var i=0;i<edges.length;i++) {
    if (edges[i].id.substr(0,4)=='edge') {
      edges[i].setAttribute('class','edge');
    }
  }
}
]]></script>
        <defs>
                <circle id="rim" cx="0" cy="0" r="7"/>
                <circle id="rim2" cx="0" cy="0" r="3.5"/>
                <g id="zoomPlus">
                        <use xlink:href="#rim" fill="#404040">
                                <set attributeName="fill" to="#808080" begin="zoomplus.mouseover" end="zoomplus.mouseout"/>
                        </use>
                        <path d="M-4,0h8M0,-4v8" fill="none" stroke="white" stroke-width="1.5" pointer-events="none"/>
                </g>
                <g id="zoomMin">
                        <use xlink:href="#rim" fill="#404040">
                                <set attributeName="fill" to="#808080" begin="zoomminus.mouseover" end="zoomminus.mouseout"/>
                        </use>
                        <path d="M-4,0h8" fill="none" stroke="white" stroke-width="1.5" pointer-events="none"/>
                </g>
                <g id="dirArrow">
                        <path fill="none" stroke="white" stroke-width="1.5" d="M0,-3.0v7 M-2.5,-0.5L0,-3.0L2.5,-0.5"/>
                </g>
               <g id="resetDef">
                       <use xlink:href="#rim2" fill="#404040">
                               <set attributeName="fill" to="#808080" begin="reset.mouseover" end="reset.mouseout"/>
                       </use>
               </g>
        </defs>

<script type="text/javascript">
var viewWidth = 767;
var viewHeight = 274;
var sectionId = 'dynsection-4';
</script>
<script xlink:href="svgpan.js"/>
<svg id="graph" class="graph">
<g id="viewport">
<title>MainNamespace::Surface::SingleSurface::buildOperator</title>
<polygon fill="white" stroke="transparent" points="-4,4 -4,-270 763,-270 763,4 -4,4"/>
<!-- Node1 -->
<g id="node1" class="node">
<title>Node1</title>
<g id="a_node1"><a xlink:title="Build the operators.">
<polygon fill="#bfbfbf" stroke="black" points="0,-112.5 0,-142.5 162,-142.5 162,-112.5 0,-112.5"/>
<text text-anchor="start" x="8" y="-130.5" font-family="Helvetica,sans-Serif" font-size="10.00">MainNamespace::Surface</text>
<text text-anchor="middle" x="81" y="-119.5" font-family="Helvetica,sans-Serif" font-size="10.00">::SingleSurface::buildOperator</text>
</a>
</g>
</g>
<!-- Node2 -->
<g id="node2" class="node">
<title>Node2</title>
<g id="a_node2"><a xlink:href="class_main_namespace_1_1_surface_1_1_single_surface.html#ab51f55fa95a3e81416dd88ba743efa57" target="_top" xlink:title="Getter.">
<polygon fill="white" stroke="black" points="216.5,-235.5 216.5,-265.5 359.5,-265.5 359.5,-235.5 216.5,-235.5"/>
<text text-anchor="start" x="224.5" y="-253.5" font-family="Helvetica,sans-Serif" font-size="10.00">MainNamespace::Surface</text>
<text text-anchor="middle" x="288" y="-242.5" font-family="Helvetica,sans-Serif" font-size="10.00">::SingleSurface::geometry</text>
</a>
</g>
</g>
<!-- Node1&#45;&gt;Node2 -->
<g id="edge1" class="edge">
<title>Node1&#45;&gt;Node2</title>
<path fill="none" stroke="midnightblue" d="M95.45,-142.62C115.62,-164.37 155.84,-204.28 198,-226.5 201.56,-228.38 205.28,-230.12 209.1,-231.73"/>
<polygon fill="midnightblue" stroke="midnightblue" points="208.15,-235.11 218.74,-235.47 210.68,-228.59 208.15,-235.11"/>
</g>
<!-- Node3 -->
<g id="node3" class="node">
<title>Node3</title>
<g id="a_node3"><a xlink:href="namespace_main_namespace_1_1_logger.html#a298c090b2004381330b603cb50d25fc8" target="_top" xlink:title="Increase indentation level in the logger.">
<polygon fill="white" stroke="black" points="219.5,-186.5 219.5,-216.5 356.5,-216.5 356.5,-186.5 219.5,-186.5"/>
<text text-anchor="start" x="227.5" y="-204.5" font-family="Helvetica,sans-Serif" font-size="10.00">MainNamespace::Logger</text>
<text text-anchor="middle" x="288" y="-193.5" font-family="Helvetica,sans-Serif" font-size="10.00">::indent</text>
</a>
</g>
</g>
<!-- Node1&#45;&gt;Node3 -->
<g id="edge2" class="edge">
<title>Node1&#45;&gt;Node3</title>
<path fill="none" stroke="midnightblue" d="M113.52,-142.55C136.58,-153.19 168.8,-167.33 198,-177.5 203.95,-179.57 210.18,-181.58 216.45,-183.48"/>
<polygon fill="midnightblue" stroke="midnightblue" points="215.74,-186.92 226.32,-186.39 217.72,-180.21 215.74,-186.92"/>
</g>
<!-- Node4 -->
<g id="node4" class="node">
<title>Node4</title>
<g id="a_node4"><a xlink:href="namespace_main_namespace.html#a532a4d5934d8db064f36b2c1de35adc6" target="_top" xlink:title=" ">
<polygon fill="white" stroke="black" points="204.5,-137.5 204.5,-167.5 371.5,-167.5 371.5,-137.5 204.5,-137.5"/>
<text text-anchor="start" x="212.5" y="-155.5" font-family="Helvetica,sans-Serif" font-size="10.00">MainNamespace::interpolation</text>
<text text-anchor="middle" x="288" y="-144.5" font-family="Helvetica,sans-Serif" font-size="10.00">Points</text>
</a>
</g>
</g>
<!-- Node1&#45;&gt;Node4 -->
<g id="edge3" class="edge">
<title>Node1&#45;&gt;Node4</title>
<path fill="none" stroke="midnightblue" d="M162.14,-137.27C172.61,-138.55 183.4,-139.87 194.06,-141.17"/>
<polygon fill="midnightblue" stroke="midnightblue" points="193.86,-144.67 204.21,-142.4 194.71,-137.72 193.86,-144.67"/>
</g>
<!-- Node7 -->
<g id="node7" class="node">
<title>Node7</title>
<g id="a_node7"><a xlink:href="namespace_main_namespace.html#a8b73b19200a04ce9ed17991c99d347e5" target="_top" xlink:title=" ">
<polygon fill="white" stroke="black" points="198,-50 198,-69 378,-69 378,-50 198,-50"/>
<text text-anchor="middle" x="288" y="-57" font-family="Helvetica,sans-Serif" font-size="10.00">MainNamespace::operatorSpaces</text>
</a>
</g>
</g>
<!-- Node1&#45;&gt;Node7 -->
<g id="edge6" class="edge">
<title>Node1&#45;&gt;Node7</title>
<path fill="none" stroke="midnightblue" d="M113.39,-112.32C136.39,-101.68 168.6,-87.76 198,-78.5 206.43,-75.85 215.43,-73.44 224.34,-71.31"/>
<polygon fill="midnightblue" stroke="midnightblue" points="225.37,-74.67 234.33,-69.02 223.8,-67.84 225.37,-74.67"/>
</g>
<!-- Node10 -->
<g id="node10" class="node">
<title>Node10</title>
<g id="a_node10"><a xlink:href="namespace_main_namespace.html#a1406ef30c6be1a9eb467816516b32028" target="_top" xlink:title=" ">
<polygon fill="white" stroke="black" points="209,-88.5 209,-118.5 367,-118.5 367,-88.5 209,-88.5"/>
<text text-anchor="start" x="217" y="-106.5" font-family="Helvetica,sans-Serif" font-size="10.00">MainNamespace::quadrature</text>
<text text-anchor="middle" x="288" y="-95.5" font-family="Helvetica,sans-Serif" font-size="10.00">Points</text>
</a>
</g>
</g>
<!-- Node1&#45;&gt;Node10 -->
<g id="edge9" class="edge">
<title>Node1&#45;&gt;Node10</title>
<path fill="none" stroke="midnightblue" d="M162.14,-118.12C174.16,-116.71 186.61,-115.25 198.79,-113.83"/>
<polygon fill="midnightblue" stroke="midnightblue" points="199.41,-117.28 208.93,-112.64 198.59,-110.33 199.41,-117.28"/>
</g>
<!-- Node12 -->
<g id="node12" class="node">
<title>Node12</title>
<g id="a_node12"><a xlink:href="class_main_namespace_1_1_surface_1_1_single_surface.html#a9e07bd7a49f967b8f661cc4e5215a3bd" target="_top" xlink:title="Getter.">
<polygon fill="white" stroke="black" points="207.5,-0.5 207.5,-30.5 368.5,-30.5 368.5,-0.5 207.5,-0.5"/>
<text text-anchor="start" x="215.5" y="-18.5" font-family="Helvetica,sans-Serif" font-size="10.00">MainNamespace::Surface</text>
<text text-anchor="middle" x="288" y="-7.5" font-family="Helvetica,sans-Serif" font-size="10.00">::SingleSurface::waveNumber</text>
</a>
</g>
</g>
<!-- Node1&#45;&gt;Node12 -->
<g id="edge12" class="edge">
<title>Node1&#45;&gt;Node12</title>
<path fill="none" stroke="midnightblue" d="M97.99,-112.41C119.25,-93.12 158.73,-59.89 198,-40.5 202.65,-38.2 207.54,-36.09 212.54,-34.15"/>
<polygon fill="midnightblue" stroke="midnightblue" points="214.05,-37.33 222.25,-30.62 211.66,-30.75 214.05,-37.33"/>
</g>
<!-- Node5 -->
<g id="node5" class="node">
<title>Node5</title>
<g id="a_node5"><a xlink:href="namespace_main_namespace.html#a6fd76e14adc7d23a9822334cb389b369" target="_top" xlink:title=" ">
<polygon fill="white" stroke="black" points="414,-138 414,-157 586,-157 586,-138 414,-138"/>
<text text-anchor="middle" x="500" y="-145" font-family="Helvetica,sans-Serif" font-size="10.00">MainNamespace::globalOptions</text>
</a>
</g>
</g>
<!-- Node4&#45;&gt;Node5 -->
<g id="edge4" class="edge">
<title>Node4&#45;&gt;Node5</title>
<path fill="none" stroke="midnightblue" d="M371.7,-150.53C382.22,-150.28 393.06,-150.02 403.76,-149.77"/>
<polygon fill="midnightblue" stroke="midnightblue" points="404.05,-153.26 413.96,-149.52 403.88,-146.26 404.05,-153.26"/>
</g>
<!-- Node6 -->
<g id="node6" class="node">
<title>Node6</title>
<g id="a_node6"><a xlink:href="struct_main_namespace_1_1_options.html#adbe1881e6e24f021d2608257b156e68f" target="_top" xlink:title=" ">
<polygon fill="white" stroke="black" points="429,-176.5 429,-206.5 571,-206.5 571,-176.5 429,-176.5"/>
<text text-anchor="start" x="437" y="-194.5" font-family="Helvetica,sans-Serif" font-size="10.00">MainNamespace::Options</text>
<text text-anchor="middle" x="500" y="-183.5" font-family="Helvetica,sans-Serif" font-size="10.00">::interpolationPoints</text>
</a>
</g>
</g>
<!-- Node4&#45;&gt;Node6 -->
<g id="edge5" class="edge">
<title>Node4&#45;&gt;Node6</title>
<path fill="none" stroke="midnightblue" d="M369.89,-167.52C385.97,-170.51 402.84,-173.64 418.89,-176.62"/>
<polygon fill="midnightblue" stroke="midnightblue" points="418.29,-180.07 428.76,-178.46 419.57,-173.19 418.29,-180.07"/>
</g>
<!-- Node8 -->
<g id="node8" class="node">
<title>Node8</title>
<g id="a_node8"><a xlink:href="namespace_main_namespace_1_1_logger.html#afbb4cc2d8b498e71fcb228f0da8309a1" target="_top" xlink:title=" ">
<polygon fill="white" stroke="black" points="421,-50 421,-69 579,-69 579,-50 421,-50"/>
<text text-anchor="middle" x="500" y="-57" font-family="Helvetica,sans-Serif" font-size="10.00">MainNamespace::Logger::log</text>
</a>
</g>
</g>
<!-- Node7&#45;&gt;Node8 -->
<g id="edge7" class="edge">
<title>Node7&#45;&gt;Node8</title>
<path fill="none" stroke="midnightblue" d="M378.06,-59.5C388.82,-59.5 399.8,-59.5 410.55,-59.5"/>
<polygon fill="midnightblue" stroke="midnightblue" points="410.77,-63 420.77,-59.5 410.77,-56 410.77,-63"/>
</g>
<!-- Node9 -->
<g id="node9" class="node">
<title>Node9</title>
<g id="a_node9"><a xlink:href="namespace_main_namespace_1_1_logger.html#af052b0198f333fca77f0837a511ec7f7" target="_top" xlink:title=" ">
<polygon fill="white" stroke="black" points="622,-44.5 622,-74.5 759,-74.5 759,-44.5 622,-44.5"/>
<text text-anchor="start" x="630" y="-62.5" font-family="Helvetica,sans-Serif" font-size="10.00">MainNamespace::Logger</text>
<text text-anchor="middle" x="690.5" y="-51.5" font-family="Helvetica,sans-Serif" font-size="10.00">::forwardLog</text>
</a>
</g>
</g>
<!-- Node8&#45;&gt;Node9 -->
<g id="edge8" class="edge">
<title>Node8&#45;&gt;Node9</title>
<path fill="none" stroke="midnightblue" d="M579.03,-59.5C589.78,-59.5 600.81,-59.5 611.56,-59.5"/>
<polygon fill="midnightblue" stroke="midnightblue" points="611.75,-63 621.75,-59.5 611.75,-56 611.75,-63"/>
</g>
<!-- Node10&#45;&gt;Node5 -->
<g id="edge10" class="edge">
<title>Node10&#45;&gt;Node5</title>
<path fill="none" stroke="midnightblue" d="M360.68,-118.52C387.85,-124.21 418.34,-130.6 443.76,-135.93"/>
<polygon fill="midnightblue" stroke="midnightblue" points="443.09,-139.36 453.6,-137.99 444.53,-132.51 443.09,-139.36"/>
</g>
<!-- Node11 -->
<g id="node11" class="node">
<title>Node11</title>
<g id="a_node11"><a xlink:href="struct_main_namespace_1_1_options.html#a13e08a72c9531b3e5ba442ca4e0a7377" target="_top" xlink:title=" ">
<polygon fill="white" stroke="black" points="429,-88.5 429,-118.5 571,-118.5 571,-88.5 429,-88.5"/>
<text text-anchor="start" x="437" y="-106.5" font-family="Helvetica,sans-Serif" font-size="10.00">MainNamespace::Options</text>
<text text-anchor="middle" x="500" y="-95.5" font-family="Helvetica,sans-Serif" font-size="10.00">::quadraturePoints</text>
</a>
</g>
</g>
<!-- Node10&#45;&gt;Node11 -->
<g id="edge11" class="edge">
<title>Node10&#45;&gt;Node11</title>
<path fill="none" stroke="midnightblue" d="M367.2,-103.5C383.9,-103.5 401.58,-103.5 418.38,-103.5"/>
<polygon fill="midnightblue" stroke="midnightblue" points="418.7,-107 428.7,-103.5 418.7,-100 418.7,-107"/>
</g>
</g>
</svg>
        <g id="navigator" transform="translate(0 0)" fill="#404254">
                <rect fill="#f2f5e9" fill-opacity="0.5" stroke="#606060" stroke-width=".5" x="0" y="0" width="60" height="60"/>
                <use id="zoomplus" xlink:href="#zoomPlus" x="17" y="9" onmousedown="handleZoom(evt,'in')"/>
                <use id="zoomminus" xlink:href="#zoomMin" x="42" y="9" onmousedown="handleZoom(evt,'out')"/>
                <use id="reset" xlink:href="#resetDef" x="30" y="36" onmousedown="handleReset()"/>
                <g id="arrowUp" xlink:href="#dirArrow" transform="translate(30 24)" onmousedown="handlePan(0,-1)">
                  <use xlink:href="#rim" fill="#404040">
                        <set attributeName="fill" to="#808080" begin="arrowUp.mouseover" end="arrowUp.mouseout"/>
                  </use>
                  <path fill="none" stroke="white" stroke-width="1.5" d="M0,-3.0v7 M-2.5,-0.5L0,-3.0L2.5,-0.5"/>
                </g>
                <g id="arrowRight" xlink:href="#dirArrow" transform="rotate(90) translate(36 -43)" onmousedown="handlePan(1,0)">
                  <use xlink:href="#rim" fill="#404040">
                        <set attributeName="fill" to="#808080" begin="arrowRight.mouseover" end="arrowRight.mouseout"/>
                  </use>
                  <path fill="none" stroke="white" stroke-width="1.5" d="M0,-3.0v7 M-2.5,-0.5L0,-3.0L2.5,-0.5"/>
                </g>
                <g id="arrowDown" xlink:href="#dirArrow" transform="rotate(180) translate(-30 -48)" onmousedown="handlePan(0,1)">
                  <use xlink:href="#rim" fill="#404040">
                        <set attributeName="fill" to="#808080" begin="arrowDown.mouseover" end="arrowDown.mouseout"/>
                  </use>
                  <path fill="none" stroke="white" stroke-width="1.5" d="M0,-3.0v7 M-2.5,-0.5L0,-3.0L2.5,-0.5"/>
                </g>
                <g id="arrowLeft" xlink:href="#dirArrow" transform="rotate(270) translate(-36 17)" onmousedown="handlePan(-1,0)">
                  <use xlink:href="#rim" fill="#404040">
                        <set attributeName="fill" to="#808080" begin="arrowLeft.mouseover" end="arrowLeft.mouseout"/>
                  </use>
                  <path fill="none" stroke="white" stroke-width="1.5" d="M0,-3.0v7 M-2.5,-0.5L0,-3.0L2.5,-0.5"/>
                </g>
        </g>
        <svg viewBox="0 0 15 15" width="100%" height="30px" preserveAspectRatio="xMaxYMin meet">
         <g id="arrow_out" transform="scale(0.3 0.3)">
          <a xlink:href="class_main_namespace_1_1_surface_1_1_single_surface_a653f26daef216ab74bac87d618603c7f_cgraph_org.svg" target="_base">
           <rect id="button" ry="5" rx="5" y="6" x="6" height="38" width="38"
                fill="#f2f5e9" fill-opacity="0.5" stroke="#606060" stroke-width="1.0"/>
           <path id="arrow"
             d="M 11.500037,31.436501 C 11.940474,20.09759 22.043105,11.32322 32.158766,21.979434 L 37.068811,17.246167 C 37.068811,17.246167 37.088388,32 37.088388,32 L 22.160133,31.978069 C 22.160133,31.978069 26.997745,27.140456 26.997745,27.140456 C 18.528582,18.264221 13.291696,25.230495 11.500037,31.436501 z"
             style="fill:#404040;"/>
          </a>
         </g>
        </svg>
</svg>
