<?xml version="1.0" encoding="UTF-8" standalone="no"?>
<!DOCTYPE svg PUBLIC "-//W3C//DTD SVG 1.1//EN"
 "http://www.w3.org/Graphics/SVG/1.1/DTD/svg11.dtd">
<!-- Generated by graphviz version 2.43.0 (0)
 -->
<!-- Title: lyra::opt::name Pages: 1 -->
<svg width="459pt" height="294pt"
 viewBox="0.00 0.00 459.00 294.00" xmlns="http://www.w3.org/2000/svg" xmlns:xlink="http://www.w3.org/1999/xlink">
<g id="graph0" class="graph" transform="scale(1 1) rotate(0) translate(4 290)">
<title>lyra::opt::name</title>
<polygon fill="white" stroke="transparent" points="-4,4 -4,-290 455,-290 455,4 -4,4"/>
<!-- Node1 -->
<g id="node1" class="node">
<title>Node1</title>
<g id="a_node1"><a xlink:title=" ">
<polygon fill="#bfbfbf" stroke="black" points="360,-133.5 360,-152.5 451,-152.5 451,-133.5 360,-133.5"/>
<text text-anchor="middle" x="405.5" y="-140.5" font-family="Helvetica,sans-Serif" font-size="10.00">lyra::opt::name</text>
</a>
</g>
</g>
<!-- Node2 -->
<g id="node2" class="node">
<title>Node2</title>
<g id="a_node2"><a xlink:href="classlyra_1_1opt.html#ae2b0df0a8a61ea576348d56479530ffb" target="_top" xlink:title=" ">
<polygon fill="white" stroke="black" points="210,-266.5 210,-285.5 317,-285.5 317,-266.5 210,-266.5"/>
<text text-anchor="middle" x="263.5" y="-273.5" font-family="Helvetica,sans-Serif" font-size="10.00">lyra::opt::is_match</text>
</a>
</g>
</g>
<!-- Node1&#45;&gt;Node2 -->
<g id="edge1" class="edge">
<title>Node1&#45;&gt;Node2</title>
<path fill="none" stroke="midnightblue" d="M395,-161.62C381.96,-185.53 356.38,-226.92 324,-252 316.16,-258.07 306.58,-262.82 297.42,-266.44"/>
<polygon fill="midnightblue" stroke="midnightblue" points="398.22,-163.02 399.81,-152.54 392.04,-159.74 398.22,-163.02"/>
</g>
<!-- Node3 -->
<g id="node3" class="node">
<title>Node3</title>
<g id="a_node3"><a xlink:href="classlyra_1_1opt.html#a320fdddd60a89469dca1ba3c07e7bf20" target="_top" xlink:title=" ">
<polygon fill="white" stroke="black" points="77,-228.5 77,-247.5 167,-247.5 167,-228.5 77,-228.5"/>
<text text-anchor="middle" x="122" y="-235.5" font-family="Helvetica,sans-Serif" font-size="10.00">lyra::opt::parse</text>
</a>
</g>
</g>
<!-- Node1&#45;&gt;Node3 -->
<g id="edge8" class="edge">
<title>Node1&#45;&gt;Node3</title>
<path fill="none" stroke="midnightblue" d="M391.72,-160.59C377.45,-178.7 352.59,-206.05 324,-219 273.72,-241.79 209.22,-243.73 167.04,-241.85"/>
<polygon fill="midnightblue" stroke="midnightblue" points="394.57,-162.62 397.84,-152.54 389,-158.38 394.57,-162.62"/>
</g>
<!-- Node5 -->
<g id="node5" class="node">
<title>Node5</title>
<g id="a_node5"><a xlink:href="classlyra_1_1opt.html#a717cef9bc8cf4c422124867883695648" target="_top" xlink:title=" ">
<polygon fill="white" stroke="black" points="208.5,-190.5 208.5,-209.5 318.5,-209.5 318.5,-190.5 208.5,-190.5"/>
<text text-anchor="middle" x="263.5" y="-197.5" font-family="Helvetica,sans-Serif" font-size="10.00">lyra::opt::is_named</text>
</a>
</g>
</g>
<!-- Node1&#45;&gt;Node5 -->
<g id="edge4" class="edge">
<title>Node1&#45;&gt;Node5</title>
<path fill="none" stroke="midnightblue" d="M376.97,-157.1C361.6,-164.69 341.98,-173.92 324,-181 315.42,-184.38 305.98,-187.61 297.2,-190.41"/>
<polygon fill="midnightblue" stroke="midnightblue" points="378.56,-160.22 385.94,-152.62 375.43,-153.96 378.56,-160.22"/>
</g>
<!-- Node6 -->
<g id="node6" class="node">
<title>Node6</title>
<g id="a_node6"><a xlink:href="combined__parser_8cpp.html#a217dbf8b442f20279ea00b898af96f52" target="_top" xlink:title=" ">
<polygon fill="white" stroke="black" points="243,-152.5 243,-171.5 284,-171.5 284,-152.5 243,-152.5"/>
<text text-anchor="middle" x="263.5" y="-159.5" font-family="Helvetica,sans-Serif" font-size="10.00">main</text>
</a>
</g>
</g>
<!-- Node1&#45;&gt;Node6 -->
<g id="edge5" class="edge">
<title>Node1&#45;&gt;Node6</title>
<path fill="none" stroke="midnightblue" d="M349.75,-150.43C326.66,-153.56 301.25,-157.01 284.22,-159.32"/>
<polygon fill="midnightblue" stroke="midnightblue" points="350.38,-153.88 359.82,-149.06 349.44,-146.94 350.38,-153.88"/>
</g>
<!-- Node7 -->
<g id="node7" class="node">
<title>Node7</title>
<g id="a_node7"><a xlink:href="classlyra_1_1main.html#a504168ec39ad3b915a8f157a98a46b89" target="_top" xlink:title=" ">
<polygon fill="white" stroke="black" points="203,-114.5 203,-133.5 324,-133.5 324,-114.5 203,-114.5"/>
<text text-anchor="middle" x="263.5" y="-121.5" font-family="Helvetica,sans-Serif" font-size="10.00">lyra::main::operator()</text>
</a>
</g>
</g>
<!-- Node1&#45;&gt;Node7 -->
<g id="edge6" class="edge">
<title>Node1&#45;&gt;Node7</title>
<path fill="none" stroke="midnightblue" d="M349.74,-135.57C341.33,-134.43 332.6,-133.24 324.09,-132.09"/>
<polygon fill="midnightblue" stroke="midnightblue" points="349.44,-139.06 359.82,-136.94 350.38,-132.12 349.44,-139.06"/>
</g>
<!-- Node8 -->
<g id="node8" class="node">
<title>Node8</title>
<g id="a_node8"><a xlink:href="classlyra_1_1opt.html#af3f53591b37aa81f8f1cce381fc7feb0" target="_top" xlink:title=" ">
<polygon fill="white" stroke="black" points="207.5,-76.5 207.5,-95.5 319.5,-95.5 319.5,-76.5 207.5,-76.5"/>
<text text-anchor="middle" x="263.5" y="-83.5" font-family="Helvetica,sans-Serif" font-size="10.00">lyra::opt::operator[]</text>
</a>
</g>
</g>
<!-- Node1&#45;&gt;Node8 -->
<g id="edge7" class="edge">
<title>Node1&#45;&gt;Node8</title>
<path fill="none" stroke="midnightblue" d="M376.97,-128.9C361.6,-121.31 341.98,-112.08 324,-105 315.42,-101.62 305.98,-98.39 297.2,-95.59"/>
<polygon fill="midnightblue" stroke="midnightblue" points="375.43,-132.04 385.94,-133.38 378.56,-125.78 375.43,-132.04"/>
</g>
<!-- Node9 -->
<g id="node9" class="node">
<title>Node9</title>
<g id="a_node9"><a xlink:href="values__run__test_8cpp.html#a62c5a6cdfec8c364869ca33c65c3d4e6" target="_top" xlink:title=" ">
<polygon fill="white" stroke="black" points="235.5,-0.5 235.5,-19.5 291.5,-19.5 291.5,-0.5 235.5,-0.5"/>
<text text-anchor="middle" x="263.5" y="-7.5" font-family="Helvetica,sans-Serif" font-size="10.00">test_val</text>
</a>
</g>
</g>
<!-- Node1&#45;&gt;Node9 -->
<g id="edge9" class="edge">
<title>Node1&#45;&gt;Node9</title>
<path fill="none" stroke="midnightblue" d="M396.04,-124.23C383.73,-98.97 358.52,-54.3 324,-29 314.55,-22.08 302.49,-17.61 291.7,-14.77"/>
<polygon fill="midnightblue" stroke="midnightblue" points="392.96,-125.9 400.39,-133.46 399.3,-122.92 392.96,-125.9"/>
</g>
<!-- Node11 -->
<g id="node11" class="node">
<title>Node11</title>
<g id="a_node11"><a xlink:href="classlyra_1_1opt.html#afba3580e48226cae8006040e2cab8804" target="_top" xlink:title=" ">
<polygon fill="white" stroke="black" points="212,-38.5 212,-57.5 315,-57.5 315,-38.5 212,-38.5"/>
<text text-anchor="middle" x="263.5" y="-45.5" font-family="Helvetica,sans-Serif" font-size="10.00">lyra::opt::validate</text>
</a>
</g>
</g>
<!-- Node1&#45;&gt;Node11 -->
<g id="edge11" class="edge">
<title>Node1&#45;&gt;Node11</title>
<path fill="none" stroke="midnightblue" d="M389.99,-125.3C375.08,-108.16 350.36,-82.55 324,-67 317.56,-63.2 310.26,-60.07 303.05,-57.52"/>
<polygon fill="midnightblue" stroke="midnightblue" points="387.72,-128.03 396.86,-133.39 393.06,-123.5 387.72,-128.03"/>
</g>
<!-- Node2&#45;&gt;Node3 -->
<g id="edge2" class="edge">
<title>Node2&#45;&gt;Node3</title>
<path fill="none" stroke="midnightblue" d="M217.54,-263.75C198.32,-258.52 176.2,-252.49 158.19,-247.59"/>
<polygon fill="midnightblue" stroke="midnightblue" points="216.73,-267.16 227.3,-266.41 218.57,-260.41 216.73,-267.16"/>
</g>
<!-- Node4 -->
<g id="node4" class="node">
<title>Node4</title>
<g id="a_node4"><a xlink:href="single__parser__run__test_8cpp.html#ae66f6b31b5ad750f1fe042a706a4e3d4" target="_top" xlink:title=" ">
<polygon fill="white" stroke="black" points="0,-228.5 0,-247.5 41,-247.5 41,-228.5 0,-228.5"/>
<text text-anchor="middle" x="20.5" y="-235.5" font-family="Helvetica,sans-Serif" font-size="10.00">main</text>
</a>
</g>
</g>
<!-- Node3&#45;&gt;Node4 -->
<g id="edge3" class="edge">
<title>Node3&#45;&gt;Node4</title>
<path fill="none" stroke="midnightblue" d="M66.52,-238C57.46,-238 48.6,-238 41.18,-238"/>
<polygon fill="midnightblue" stroke="midnightblue" points="66.78,-241.5 76.78,-238 66.78,-234.5 66.78,-241.5"/>
</g>
<!-- Node10 -->
<g id="node10" class="node">
<title>Node10</title>
<g id="a_node10"><a xlink:href="values__run__test_8cpp.html#ae66f6b31b5ad750f1fe042a706a4e3d4" target="_top" xlink:title=" ">
<polygon fill="white" stroke="black" points="101.5,-0.5 101.5,-19.5 142.5,-19.5 142.5,-0.5 101.5,-0.5"/>
<text text-anchor="middle" x="122" y="-7.5" font-family="Helvetica,sans-Serif" font-size="10.00">main</text>
</a>
</g>
</g>
<!-- Node9&#45;&gt;Node10 -->
<g id="edge10" class="edge">
<title>Node9&#45;&gt;Node10</title>
<path fill="none" stroke="midnightblue" d="M225.15,-10C198.55,-10 163.86,-10 142.52,-10"/>
<polygon fill="midnightblue" stroke="midnightblue" points="225.27,-13.5 235.27,-10 225.27,-6.5 225.27,-13.5"/>
</g>
<!-- Node11&#45;&gt;Node3 -->
<g id="edge12" class="edge">
<title>Node11&#45;&gt;Node3</title>
<path fill="none" stroke="midnightblue" d="M209.18,-62.36C207,-63.77 204.92,-65.31 203,-67 151.06,-112.66 130.39,-199.22 124.73,-228.24"/>
<polygon fill="midnightblue" stroke="midnightblue" points="210.89,-65.42 218.04,-57.6 207.58,-59.25 210.89,-65.42"/>
</g>
</g>
</svg>
