<?xml version="1.0" encoding="UTF-8" standalone="no"?>
<!DOCTYPE svg PUBLIC "-//W3C//DTD SVG 1.1//EN"
 "http://www.w3.org/Graphics/SVG/1.1/DTD/svg11.dtd">
<!-- Generated by graphviz version 2.43.0 (0)
 -->
<!-- Title: lyra::printer::paragraph Pages: 1 -->
<svg width="749pt" height="39pt"
 viewBox="0.00 0.00 749.00 39.00" xmlns="http://www.w3.org/2000/svg" xmlns:xlink="http://www.w3.org/1999/xlink">
<g id="graph0" class="graph" transform="scale(1 1) rotate(0) translate(4 35)">
<title>lyra::printer::paragraph</title>
<polygon fill="white" stroke="transparent" points="-4,4 -4,-35 745,-35 745,4 -4,4"/>
<!-- Node1 -->
<g id="node1" class="node">
<title>Node1</title>
<g id="a_node1"><a xlink:title=" ">
<polygon fill="#bfbfbf" stroke="black" points="612,-6 612,-25 741,-25 741,-6 612,-6"/>
<text text-anchor="middle" x="676.5" y="-13" font-family="Helvetica,sans-Serif" font-size="10.00">lyra::printer::paragraph</text>
</a>
</g>
</g>
<!-- Node2 -->
<g id="node2" class="node">
<title>Node2</title>
<g id="a_node2"><a xlink:href="classlyra_1_1parser.html#a9ca7f234f1c01a862266e05d91ed4a93" target="_top" xlink:title=" ">
<polygon fill="white" stroke="black" points="457,-0.5 457,-30.5 576,-30.5 576,-0.5 457,-0.5"/>
<text text-anchor="start" x="465" y="-18.5" font-family="Helvetica,sans-Serif" font-size="10.00">lyra::parser::print</text>
<text text-anchor="middle" x="516.5" y="-7.5" font-family="Helvetica,sans-Serif" font-size="10.00">_help_text_summary</text>
</a>
</g>
</g>
<!-- Node1&#45;&gt;Node2 -->
<g id="edge1" class="edge">
<title>Node1&#45;&gt;Node2</title>
<path fill="none" stroke="midnightblue" d="M601.43,-15.5C592.96,-15.5 584.41,-15.5 576.19,-15.5"/>
<polygon fill="midnightblue" stroke="midnightblue" points="601.69,-19 611.69,-15.5 601.69,-12 601.69,-19"/>
</g>
<!-- Node3 -->
<g id="node3" class="node">
<title>Node3</title>
<g id="a_node3"><a xlink:href="classlyra_1_1parser.html#a6f7fc59f0b9bb8119c16638743c637d8" target="_top" xlink:title=" ">
<polygon fill="white" stroke="black" points="320,-0.5 320,-30.5 421,-30.5 421,-0.5 320,-0.5"/>
<text text-anchor="start" x="328" y="-18.5" font-family="Helvetica,sans-Serif" font-size="10.00">lyra::parser::print</text>
<text text-anchor="middle" x="370.5" y="-7.5" font-family="Helvetica,sans-Serif" font-size="10.00">_help_text</text>
</a>
</g>
</g>
<!-- Node2&#45;&gt;Node3 -->
<g id="edge2" class="edge">
<title>Node2&#45;&gt;Node3</title>
<path fill="none" stroke="midnightblue" d="M446.85,-15.5C438.22,-15.5 429.52,-15.5 421.26,-15.5"/>
<polygon fill="midnightblue" stroke="midnightblue" points="446.93,-19 456.93,-15.5 446.93,-12 446.93,-19"/>
</g>
<!-- Node4 -->
<g id="node4" class="node">
<title>Node4</title>
<g id="a_node4"><a xlink:href="classlyra_1_1arguments.html#a620f67bdd9518d9f7a0a5b0e3939c561" target="_top" xlink:title=" ">
<polygon fill="white" stroke="black" points="135,-6 135,-25 284,-25 284,-6 135,-6"/>
<text text-anchor="middle" x="209.5" y="-13" font-family="Helvetica,sans-Serif" font-size="10.00">lyra::arguments::print_help</text>
</a>
</g>
</g>
<!-- Node3&#45;&gt;Node4 -->
<g id="edge3" class="edge">
<title>Node3&#45;&gt;Node4</title>
<path fill="none" stroke="midnightblue" d="M309.35,-15.5C301.09,-15.5 292.54,-15.5 284.07,-15.5"/>
<polygon fill="midnightblue" stroke="midnightblue" points="309.63,-19 319.63,-15.5 309.63,-12 309.63,-19"/>
</g>
<!-- Node5 -->
<g id="node5" class="node">
<title>Node5</title>
<g id="a_node5"><a xlink:href="namespacelyra.html#ac376af987ad2c95c9a7e27cc61e0cb8c" target="_top" xlink:title=" ">
<polygon fill="white" stroke="black" points="0,-6 0,-25 99,-25 99,-6 0,-6"/>
<text text-anchor="middle" x="49.5" y="-13" font-family="Helvetica,sans-Serif" font-size="10.00">lyra::operator&lt;&lt;</text>
</a>
</g>
</g>
<!-- Node4&#45;&gt;Node5 -->
<g id="edge4" class="edge">
<title>Node4&#45;&gt;Node5</title>
<path fill="none" stroke="midnightblue" d="M124.41,-15.5C115.75,-15.5 107.18,-15.5 99.1,-15.5"/>
<polygon fill="midnightblue" stroke="midnightblue" points="124.59,-19 134.59,-15.5 124.59,-12 124.59,-19"/>
</g>
</g>
</svg>
