<?xml version="1.0" encoding="UTF-8" standalone="no"?>
<!DOCTYPE svg PUBLIC "-//W3C//DTD SVG 1.1//EN"
 "http://www.w3.org/Graphics/SVG/1.1/DTD/svg11.dtd">
<!-- Generated by graphviz version 2.43.0 (0)
 -->
<!-- Title: MainNamespace::Surface::MultiSurface::problemSize Pages: 1 -->
<svg width="755pt" height="88pt"
 viewBox="0.00 0.00 755.00 88.00" xmlns="http://www.w3.org/2000/svg" xmlns:xlink="http://www.w3.org/1999/xlink">
<g id="graph0" class="graph" transform="scale(1 1) rotate(0) translate(4 84)">
<title>MainNamespace::Surface::MultiSurface::problemSize</title>
<polygon fill="white" stroke="transparent" points="-4,4 -4,-84 751,-84 751,4 -4,4"/>
<!-- Node1 -->
<g id="node1" class="node">
<title>Node1</title>
<g id="a_node1"><a xlink:title="Get the dimension of the space of Cauchy space (i.e., Dirichlet and Neumann together).">
<polygon fill="#bfbfbf" stroke="black" points="0,-24.5 0,-54.5 151,-54.5 151,-24.5 0,-24.5"/>
<text text-anchor="start" x="8" y="-42.5" font-family="Helvetica,sans-Serif" font-size="10.00">MainNamespace::Surface</text>
<text text-anchor="middle" x="75.5" y="-31.5" font-family="Helvetica,sans-Serif" font-size="10.00">::MultiSurface::problemSize</text>
</a>
</g>
</g>
<!-- Node2 -->
<g id="node2" class="node">
<title>Node2</title>
<g id="a_node2"><a xlink:href="class_main_namespace_1_1_surface_1_1_multi_surface.html#a3fe9cd8e64de26e65e494aed35267b98" target="_top" xlink:title="Getter.">
<polygon fill="white" stroke="black" points="190,-49.5 190,-79.5 366,-79.5 366,-49.5 190,-49.5"/>
<text text-anchor="start" x="198" y="-67.5" font-family="Helvetica,sans-Serif" font-size="10.00">MainNamespace::Surface</text>
<text text-anchor="middle" x="278" y="-56.5" font-family="Helvetica,sans-Serif" font-size="10.00">::MultiSurface::dirichletBasisSize</text>
</a>
</g>
</g>
<!-- Node1&#45;&gt;Node2 -->
<g id="edge1" class="edge">
<title>Node1&#45;&gt;Node2</title>
<path fill="none" stroke="midnightblue" d="M151.16,-48.81C160.5,-49.97 170.15,-51.18 179.77,-52.38"/>
<polygon fill="midnightblue" stroke="midnightblue" points="179.41,-55.86 189.76,-53.62 180.27,-48.91 179.41,-55.86"/>
</g>
<!-- Node5 -->
<g id="node5" class="node">
<title>Node5</title>
<g id="a_node5"><a xlink:href="class_main_namespace_1_1_surface_1_1_multi_surface.html#a6a0c7507ab9799d47082175225850d0c" target="_top" xlink:title="Getter.">
<polygon fill="white" stroke="black" points="187,-0.5 187,-30.5 369,-30.5 369,-0.5 187,-0.5"/>
<text text-anchor="start" x="195" y="-18.5" font-family="Helvetica,sans-Serif" font-size="10.00">MainNamespace::Surface</text>
<text text-anchor="middle" x="278" y="-7.5" font-family="Helvetica,sans-Serif" font-size="10.00">::MultiSurface::neumannBasisSize</text>
</a>
</g>
</g>
<!-- Node1&#45;&gt;Node5 -->
<g id="edge4" class="edge">
<title>Node1&#45;&gt;Node5</title>
<path fill="none" stroke="midnightblue" d="M151.16,-30.56C159.48,-29.57 168.06,-28.54 176.63,-27.51"/>
<polygon fill="midnightblue" stroke="midnightblue" points="177.17,-30.97 186.68,-26.31 176.34,-24.02 177.17,-30.97"/>
</g>
<!-- Node3 -->
<g id="node3" class="node">
<title>Node3</title>
<g id="a_node3"><a xlink:href="class_main_namespace_1_1_surface_1_1_multi_surface.html#ab879b2422c1c86a5d5beea4cb8a17210" target="_top" xlink:title=" ">
<polygon fill="white" stroke="black" points="405,-24.5 405,-54.5 546,-54.5 546,-24.5 405,-24.5"/>
<text text-anchor="start" x="413" y="-42.5" font-family="Helvetica,sans-Serif" font-size="10.00">MainNamespace::Surface</text>
<text text-anchor="middle" x="475.5" y="-31.5" font-family="Helvetica,sans-Serif" font-size="10.00">::MultiSurface::mesh</text>
</a>
</g>
</g>
<!-- Node2&#45;&gt;Node3 -->
<g id="edge2" class="edge">
<title>Node2&#45;&gt;Node3</title>
<path fill="none" stroke="midnightblue" d="M366.17,-53.35C375.67,-52.14 385.3,-50.91 394.7,-49.7"/>
<polygon fill="midnightblue" stroke="midnightblue" points="395.32,-53.15 404.8,-48.41 394.43,-46.21 395.32,-53.15"/>
</g>
<!-- Node4 -->
<g id="node4" class="node">
<title>Node4</title>
<g id="a_node4"><a xlink:href="class_main_namespace_1_1_mesh_reader.html#a8311a1d62c5eced1bf7162a0f1f00687" target="_top" xlink:title=" ">
<polygon fill="white" stroke="black" points="582,-24.5 582,-54.5 747,-54.5 747,-24.5 582,-24.5"/>
<text text-anchor="start" x="590" y="-42.5" font-family="Helvetica,sans-Serif" font-size="10.00">MainNamespace::MeshReader</text>
<text text-anchor="middle" x="664.5" y="-31.5" font-family="Helvetica,sans-Serif" font-size="10.00">::mesh</text>
</a>
</g>
</g>
<!-- Node3&#45;&gt;Node4 -->
<g id="edge3" class="edge">
<title>Node3&#45;&gt;Node4</title>
<path fill="none" stroke="midnightblue" d="M546.13,-39.5C554.49,-39.5 563.12,-39.5 571.74,-39.5"/>
<polygon fill="midnightblue" stroke="midnightblue" points="571.82,-43 581.82,-39.5 571.82,-36 571.82,-43"/>
</g>
<!-- Node5&#45;&gt;Node3 -->
<g id="edge5" class="edge">
<title>Node5&#45;&gt;Node3</title>
<path fill="none" stroke="midnightblue" d="M369.02,-26.55C377.57,-27.6 386.2,-28.66 394.65,-29.7"/>
<polygon fill="midnightblue" stroke="midnightblue" points="394.49,-33.2 404.84,-30.95 395.34,-26.26 394.49,-33.2"/>
</g>
</g>
</svg>
