<?xml version="1.0" encoding="UTF-8" standalone="no"?>
<!DOCTYPE svg PUBLIC "-//W3C//DTD SVG 1.1//EN"
 "http://www.w3.org/Graphics/SVG/1.1/DTD/svg11.dtd">
<!-- Generated by graphviz version 2.43.0 (0)
 -->
<!-- Title: lyra::command::add_argument Pages: 1 -->
<svg width="307pt" height="71pt"
 viewBox="0.00 0.00 307.00 70.50" xmlns="http://www.w3.org/2000/svg" xmlns:xlink="http://www.w3.org/1999/xlink">
<g id="graph0" class="graph" transform="scale(1 1) rotate(0) translate(4 66.5)">
<title>lyra::command::add_argument</title>
<polygon fill="white" stroke="transparent" points="-4,4 -4,-66.5 303,-66.5 303,4 -4,4"/>
<!-- Node1 -->
<g id="node1" class="node">
<title>Node1</title>
<g id="a_node1"><a xlink:title=" ">
<polygon fill="#bfbfbf" stroke="black" points="185,-14 185,-44 299,-44 299,-14 185,-14"/>
<text text-anchor="start" x="193" y="-32" font-family="Helvetica,sans-Serif" font-size="10.00">lyra::command::add</text>
<text text-anchor="middle" x="242" y="-21" font-family="Helvetica,sans-Serif" font-size="10.00">_argument</text>
</a>
</g>
</g>
<!-- Node1&#45;&gt;Node1 -->
<g id="edge1" class="edge">
<title>Node1&#45;&gt;Node1</title>
<path fill="none" stroke="midnightblue" d="M271.5,-54.46C267.84,-59.18 258,-62.5 242,-62.5 215.74,-62.5 206.1,-53.56 213.07,-44.16"/>
<polygon fill="midnightblue" stroke="midnightblue" points="274.97,-53.95 270.93,-44.16 267.98,-54.34 274.97,-53.95"/>
</g>
<!-- Node2 -->
<g id="node2" class="node">
<title>Node2</title>
<g id="a_node2"><a xlink:href="command__run__test_8cpp.html#a0fc34f49b0e6eaed5e5c3accb409b1d1" target="_top" xlink:title=" ">
<polygon fill="white" stroke="black" points="54,-38.5 54,-57.5 95,-57.5 95,-38.5 54,-38.5"/>
<text text-anchor="middle" x="74.5" y="-45.5" font-family="Helvetica,sans-Serif" font-size="10.00">main</text>
</a>
</g>
</g>
<!-- Node1&#45;&gt;Node2 -->
<g id="edge2" class="edge">
<title>Node1&#45;&gt;Node2</title>
<path fill="none" stroke="midnightblue" d="M174.95,-36.58C146.24,-39.88 114.73,-43.5 95.03,-45.76"/>
<polygon fill="midnightblue" stroke="midnightblue" points="175.43,-40.05 184.97,-35.43 174.64,-33.1 175.43,-40.05"/>
</g>
<!-- Node3 -->
<g id="node3" class="node">
<title>Node3</title>
<g id="a_node3"><a xlink:href="classlyra_1_1command.html#af967b1a8f5e8a235a9badf4daecaa7c1" target="_top" xlink:title=" ">
<polygon fill="white" stroke="black" points="0,-0.5 0,-19.5 149,-19.5 149,-0.5 0,-0.5"/>
<text text-anchor="middle" x="74.5" y="-7.5" font-family="Helvetica,sans-Serif" font-size="10.00">lyra::command::operator|=</text>
</a>
</g>
</g>
<!-- Node1&#45;&gt;Node3 -->
<g id="edge3" class="edge">
<title>Node1&#45;&gt;Node3</title>
<path fill="none" stroke="midnightblue" d="M174.8,-21.4C166.34,-20.43 157.64,-19.43 149.08,-18.45"/>
<polygon fill="midnightblue" stroke="midnightblue" points="174.64,-24.9 184.97,-22.57 175.43,-17.95 174.64,-24.9"/>
</g>
</g>
</svg>
