<?xml version="1.0" encoding="UTF-8" standalone="no"?>
<!DOCTYPE svg PUBLIC "-//W3C//DTD SVG 1.1//EN"
 "http://www.w3.org/Graphics/SVG/1.1/DTD/svg11.dtd">
<!-- Generated by graphviz version 2.43.0 (0)
 -->
<!-- Title: MainNamespace::MeshReader::mesh Pages: 1 -->
<!--zoomable 269 -->
<svg id="main" version="1.1" xmlns="http://www.w3.org/2000/svg" xmlns:xlink="http://www.w3.org/1999/xlink" xml:space="preserve" onload="init(evt)">
<style type="text/css"><![CDATA[
.edge:hover path { stroke: red; }
.edge:hover polygon { stroke: red; fill: red; }
]]></style>
<script type="text/javascript"><![CDATA[
var edges = document.getElementsByTagName('g');
if (edges && edges.length) {
  for (var i=0;i<edges.length;i++) {
    if (edges[i].id.substr(0,4)=='edge') {
      edges[i].setAttribute('class','edge');
    }
  }
}
]]></script>
        <defs>
                <circle id="rim" cx="0" cy="0" r="7"/>
                <circle id="rim2" cx="0" cy="0" r="3.5"/>
                <g id="zoomPlus">
                        <use xlink:href="#rim" fill="#404040">
                                <set attributeName="fill" to="#808080" begin="zoomplus.mouseover" end="zoomplus.mouseout"/>
                        </use>
                        <path d="M-4,0h8M0,-4v8" fill="none" stroke="white" stroke-width="1.5" pointer-events="none"/>
                </g>
                <g id="zoomMin">
                        <use xlink:href="#rim" fill="#404040">
                                <set attributeName="fill" to="#808080" begin="zoomminus.mouseover" end="zoomminus.mouseout"/>
                        </use>
                        <path d="M-4,0h8" fill="none" stroke="white" stroke-width="1.5" pointer-events="none"/>
                </g>
                <g id="dirArrow">
                        <path fill="none" stroke="white" stroke-width="1.5" d="M0,-3.0v7 M-2.5,-0.5L0,-3.0L2.5,-0.5"/>
                </g>
               <g id="resetDef">
                       <use xlink:href="#rim2" fill="#404040">
                               <set attributeName="fill" to="#808080" begin="reset.mouseover" end="reset.mouseout"/>
                       </use>
               </g>
        </defs>

<script type="text/javascript">
var viewWidth = 1122;
var viewHeight = 269;
var sectionId = 'dynsection-3';
</script>
<script xlink:href="svgpan.js"/>
<svg id="graph" class="graph">
<g id="viewport">
<title>MainNamespace::MeshReader::mesh</title>
<polygon fill="white" stroke="transparent" points="-4,4 -4,-265 1118,-265 1118,4 -4,4"/>
<!-- Node1 -->
<g id="node1" class="node">
<title>Node1</title>
<g id="a_node1"><a xlink:title=" ">
<polygon fill="#bfbfbf" stroke="black" points="949,-167.5 949,-197.5 1114,-197.5 1114,-167.5 949,-167.5"/>
<text text-anchor="start" x="957" y="-185.5" font-family="Helvetica,sans-Serif" font-size="10.00">MainNamespace::MeshReader</text>
<text text-anchor="middle" x="1031.5" y="-174.5" font-family="Helvetica,sans-Serif" font-size="10.00">::mesh</text>
</a>
</g>
</g>
<!-- Node2 -->
<g id="node2" class="node">
<title>Node2</title>
<g id="a_node2"><a xlink:href="namespace_main_namespace_1_1_surface.html#a4c0c8122fd15716950c73989302ffdc3" target="_top" xlink:title=" ">
<polygon fill="white" stroke="black" points="772,-208.5 772,-238.5 913,-238.5 913,-208.5 772,-208.5"/>
<text text-anchor="start" x="780" y="-226.5" font-family="Helvetica,sans-Serif" font-size="10.00">MainNamespace::Surface</text>
<text text-anchor="middle" x="842.5" y="-215.5" font-family="Helvetica,sans-Serif" font-size="10.00">::getFromFile</text>
</a>
</g>
</g>
<!-- Node1&#45;&gt;Node2 -->
<g id="edge1" class="edge">
<title>Node1&#45;&gt;Node2</title>
<path fill="none" stroke="midnightblue" d="M951.9,-199.73C938.67,-202.63 925.02,-205.63 912.06,-208.47"/>
<polygon fill="midnightblue" stroke="midnightblue" points="952.91,-203.09 961.93,-197.53 951.41,-196.26 952.91,-203.09"/>
</g>
<!-- Node4 -->
<g id="node4" class="node">
<title>Node4</title>
<g id="a_node4"><a xlink:href="class_main_namespace_1_1_surface_1_1_multi_surface.html#ab879b2422c1c86a5d5beea4cb8a17210" target="_top" xlink:title=" ">
<polygon fill="white" stroke="black" points="772,-143.5 772,-173.5 913,-173.5 913,-143.5 772,-143.5"/>
<text text-anchor="start" x="780" y="-161.5" font-family="Helvetica,sans-Serif" font-size="10.00">MainNamespace::Surface</text>
<text text-anchor="middle" x="842.5" y="-150.5" font-family="Helvetica,sans-Serif" font-size="10.00">::MultiSurface::mesh</text>
</a>
</g>
</g>
<!-- Node1&#45;&gt;Node4 -->
<g id="edge3" class="edge">
<title>Node1&#45;&gt;Node4</title>
<path fill="none" stroke="midnightblue" d="M938.67,-170.71C930.07,-169.61 921.44,-168.5 913.09,-167.43"/>
<polygon fill="midnightblue" stroke="midnightblue" points="938.39,-174.21 948.75,-172.01 939.28,-167.26 938.39,-174.21"/>
</g>
<!-- Node3 -->
<g id="node3" class="node">
<title>Node3</title>
<g id="a_node3"><a xlink:href="class_main_namespace_1_1_surface_1_1_multi_surface.html#a3f8d56c9aa2c53fdbb578f534bd523e5" target="_top" xlink:title="Contructor. Parse a mesh file in gmsh format and build the global mesh.">
<polygon fill="white" stroke="black" points="366,-230.5 366,-260.5 518,-260.5 518,-230.5 366,-230.5"/>
<text text-anchor="start" x="374" y="-248.5" font-family="Helvetica,sans-Serif" font-size="10.00">MainNamespace::Surface</text>
<text text-anchor="middle" x="442" y="-237.5" font-family="Helvetica,sans-Serif" font-size="10.00">::MultiSurface::MultiSurface</text>
</a>
</g>
</g>
<!-- Node2&#45;&gt;Node3 -->
<g id="edge2" class="edge">
<title>Node2&#45;&gt;Node3</title>
<path fill="none" stroke="midnightblue" d="M761.4,-227.92C690.45,-231.84 587.65,-237.51 518.22,-241.35"/>
<polygon fill="midnightblue" stroke="midnightblue" points="761.84,-231.4 771.63,-227.36 761.45,-224.41 761.84,-231.4"/>
</g>
<!-- Node4&#45;&gt;Node3 -->
<g id="edge4" class="edge">
<title>Node4&#45;&gt;Node3</title>
<path fill="none" stroke="midnightblue" d="M769.02,-175.92C757.97,-178.5 746.69,-181.1 736,-183.5 661.42,-200.22 575.88,-218.19 516.56,-230.45"/>
<polygon fill="midnightblue" stroke="midnightblue" points="770.14,-179.25 779.08,-173.56 768.54,-172.44 770.14,-179.25"/>
</g>
<!-- Node5 -->
<g id="node5" class="node">
<title>Node5</title>
<g id="a_node5"><a xlink:href="class_main_namespace_1_1_surface_1_1_multi_surface.html#a3fe9cd8e64de26e65e494aed35267b98" target="_top" xlink:title="Getter.">
<polygon fill="white" stroke="black" points="557,-94.5 557,-124.5 733,-124.5 733,-94.5 557,-94.5"/>
<text text-anchor="start" x="565" y="-112.5" font-family="Helvetica,sans-Serif" font-size="10.00">MainNamespace::Surface</text>
<text text-anchor="middle" x="645" y="-101.5" font-family="Helvetica,sans-Serif" font-size="10.00">::MultiSurface::dirichletBasisSize</text>
</a>
</g>
</g>
<!-- Node4&#45;&gt;Node5 -->
<g id="edge5" class="edge">
<title>Node4&#45;&gt;Node5</title>
<path fill="none" stroke="midnightblue" d="M771.77,-141.02C750.22,-135.62 726.69,-129.72 705.87,-124.51"/>
<polygon fill="midnightblue" stroke="midnightblue" points="770.96,-144.43 781.51,-143.47 772.67,-137.64 770.96,-144.43"/>
</g>
<!-- Node12 -->
<g id="node12" class="node">
<title>Node12</title>
<g id="a_node12"><a xlink:href="class_main_namespace_1_1_surface_1_1_multi_surface.html#ab64975d85c8c58576590072b66fd7c9f" target="_top" xlink:title=" ">
<polygon fill="white" stroke="black" points="574.5,-143.5 574.5,-173.5 715.5,-173.5 715.5,-143.5 574.5,-143.5"/>
<text text-anchor="start" x="582.5" y="-161.5" font-family="Helvetica,sans-Serif" font-size="10.00">MainNamespace::Surface</text>
<text text-anchor="middle" x="645" y="-150.5" font-family="Helvetica,sans-Serif" font-size="10.00">::MultiSurface::geometry</text>
</a>
</g>
</g>
<!-- Node4&#45;&gt;Node12 -->
<g id="edge13" class="edge">
<title>Node4&#45;&gt;Node12</title>
<path fill="none" stroke="midnightblue" d="M761.38,-158.5C746.24,-158.5 730.51,-158.5 715.73,-158.5"/>
<polygon fill="midnightblue" stroke="midnightblue" points="761.75,-162 771.75,-158.5 761.75,-155 761.75,-162"/>
</g>
<!-- Node16 -->
<g id="node16" class="node">
<title>Node16</title>
<g id="a_node16"><a xlink:href="class_main_namespace_1_1_surface_1_1_multi_surface.html#a6a0c7507ab9799d47082175225850d0c" target="_top" xlink:title="Getter.">
<polygon fill="white" stroke="black" points="554,-45.5 554,-75.5 736,-75.5 736,-45.5 554,-45.5"/>
<text text-anchor="start" x="562" y="-63.5" font-family="Helvetica,sans-Serif" font-size="10.00">MainNamespace::Surface</text>
<text text-anchor="middle" x="645" y="-52.5" font-family="Helvetica,sans-Serif" font-size="10.00">::MultiSurface::neumannBasisSize</text>
</a>
</g>
</g>
<!-- Node4&#45;&gt;Node16 -->
<g id="edge25" class="edge">
<title>Node4&#45;&gt;Node16</title>
<path fill="none" stroke="midnightblue" d="M816.16,-136.86C795.72,-120.4 765.59,-98.29 736,-84.5 728.82,-81.15 721.09,-78.21 713.28,-75.63"/>
<polygon fill="midnightblue" stroke="midnightblue" points="814.08,-139.68 824.03,-143.31 818.51,-134.27 814.08,-139.68"/>
</g>
<!-- Node6 -->
<g id="node6" class="node">
<title>Node6</title>
<g id="a_node6"><a xlink:href="class_main_namespace_1_1_surface_1_1_multi_surface.html#ad9b40eaff715d73afae2ea12513471ca" target="_top" xlink:title="Get the dimension of the space of Cauchy space (i.e., Dirichlet and Neumann together).">
<polygon fill="white" stroke="black" points="366.5,-44.5 366.5,-74.5 517.5,-74.5 517.5,-44.5 366.5,-44.5"/>
<text text-anchor="start" x="374.5" y="-62.5" font-family="Helvetica,sans-Serif" font-size="10.00">MainNamespace::Surface</text>
<text text-anchor="middle" x="442" y="-51.5" font-family="Helvetica,sans-Serif" font-size="10.00">::MultiSurface::problemSize</text>
</a>
</g>
</g>
<!-- Node5&#45;&gt;Node6 -->
<g id="edge6" class="edge">
<title>Node5&#45;&gt;Node6</title>
<path fill="none" stroke="midnightblue" d="M573.71,-92.02C550.86,-86.33 525.7,-80.07 503.61,-74.58"/>
<polygon fill="midnightblue" stroke="midnightblue" points="573.14,-95.48 583.69,-94.5 574.83,-88.69 573.14,-95.48"/>
</g>
<!-- Node7 -->
<g id="node7" class="node">
<title>Node7</title>
<g id="a_node7"><a xlink:href="class_main_namespace_1_1_surface_1_1_multi_surface.html#a18e9ad0a8db9f1d27b1e13b3f9bd243b" target="_top" xlink:title=" ">
<polygon fill="white" stroke="black" points="189,-137.5 189,-167.5 330,-167.5 330,-137.5 189,-137.5"/>
<text text-anchor="start" x="197" y="-155.5" font-family="Helvetica,sans-Serif" font-size="10.00">MainNamespace::Surface</text>
<text text-anchor="middle" x="259.5" y="-144.5" font-family="Helvetica,sans-Serif" font-size="10.00">::MultiSurface::fillZeros</text>
</a>
</g>
</g>
<!-- Node6&#45;&gt;Node7 -->
<g id="edge7" class="edge">
<title>Node6&#45;&gt;Node7</title>
<path fill="none" stroke="midnightblue" d="M373.02,-79.14C370.6,-80.5 368.25,-81.95 366,-83.5 344.9,-98.02 350.93,-113.74 330,-128.5 325.2,-131.88 319.88,-134.83 314.39,-137.38"/>
<polygon fill="midnightblue" stroke="midnightblue" points="374.71,-82.21 382.08,-74.6 371.57,-75.96 374.71,-82.21"/>
</g>
<!-- Node8 -->
<g id="node8" class="node">
<title>Node8</title>
<g id="a_node8"><a xlink:href="class_main_namespace_1_1_surface_1_1_multi_surface.html#ae3eff63ac7eb44665df48568f0b8c12d" target="_top" xlink:title=" ">
<polygon fill="white" stroke="black" points="189,-88.5 189,-118.5 330,-118.5 330,-88.5 189,-88.5"/>
<text text-anchor="start" x="197" y="-106.5" font-family="Helvetica,sans-Serif" font-size="10.00">MainNamespace::Surface</text>
<text text-anchor="middle" x="259.5" y="-95.5" font-family="Helvetica,sans-Serif" font-size="10.00">::MultiSurface::filterBasis</text>
</a>
</g>
</g>
<!-- Node6&#45;&gt;Node8 -->
<g id="edge8" class="edge">
<title>Node6&#45;&gt;Node8</title>
<path fill="none" stroke="midnightblue" d="M369.27,-76.99C353.67,-80.79 337.31,-84.78 322.14,-88.47"/>
<polygon fill="midnightblue" stroke="midnightblue" points="370.5,-80.29 379.39,-74.52 368.84,-73.49 370.5,-80.29"/>
</g>
<!-- Node9 -->
<g id="node9" class="node">
<title>Node9</title>
<g id="a_node9"><a xlink:href="class_main_namespace_1_1_surface_1_1_multi_surface.html#a8839f7e49575079e39fbb95a692772a5" target="_top" xlink:title="Compute the right&#45;hand side, the operators, then solve the linear system.">
<polygon fill="white" stroke="black" points="189,-0.5 189,-30.5 330,-30.5 330,-0.5 189,-0.5"/>
<text text-anchor="start" x="197" y="-18.5" font-family="Helvetica,sans-Serif" font-size="10.00">MainNamespace::Surface</text>
<text text-anchor="middle" x="259.5" y="-7.5" font-family="Helvetica,sans-Serif" font-size="10.00">::MultiSurface::solve</text>
</a>
</g>
</g>
<!-- Node6&#45;&gt;Node9 -->
<g id="edge9" class="edge">
<title>Node6&#45;&gt;Node9</title>
<path fill="none" stroke="midnightblue" d="M369.27,-42.01C353.67,-38.21 337.31,-34.22 322.14,-30.53"/>
<polygon fill="midnightblue" stroke="midnightblue" points="368.84,-45.51 379.39,-44.48 370.5,-38.71 368.84,-45.51"/>
</g>
<!-- Node10 -->
<g id="node10" class="node">
<title>Node10</title>
<g id="a_node10"><a xlink:href="main_8cpp.html#a5d68713f22d1b3e2495b15d107ea7d21" target="_top" xlink:title=" ">
<polygon fill="white" stroke="black" points="77,-50 77,-69 153,-69 153,-50 77,-50"/>
<text text-anchor="middle" x="115" y="-57" font-family="Helvetica,sans-Serif" font-size="10.00">testProblem</text>
</a>
</g>
</g>
<!-- Node6&#45;&gt;Node10 -->
<g id="edge12" class="edge">
<title>Node6&#45;&gt;Node10</title>
<path fill="none" stroke="midnightblue" d="M356.09,-59.5C290.41,-59.5 202.61,-59.5 153.44,-59.5"/>
<polygon fill="midnightblue" stroke="midnightblue" points="356.44,-63 366.44,-59.5 356.44,-56 356.44,-63"/>
</g>
<!-- Node9&#45;&gt;Node10 -->
<g id="edge10" class="edge">
<title>Node9&#45;&gt;Node10</title>
<path fill="none" stroke="midnightblue" d="M200.18,-33.51C181.97,-39.13 162.59,-45.11 147.02,-49.92"/>
<polygon fill="midnightblue" stroke="midnightblue" points="201.34,-36.81 209.86,-30.52 199.27,-30.13 201.34,-36.81"/>
</g>
<!-- Node11 -->
<g id="node11" class="node">
<title>Node11</title>
<g id="a_node11"><a xlink:href="main_8cpp.html#a3c04138a5bfe5d72780bb7e82a18e627" target="_top" xlink:title=" ">
<polygon fill="white" stroke="black" points="0,-50 0,-69 41,-69 41,-50 0,-50"/>
<text text-anchor="middle" x="20.5" y="-57" font-family="Helvetica,sans-Serif" font-size="10.00">main</text>
</a>
</g>
</g>
<!-- Node10&#45;&gt;Node11 -->
<g id="edge11" class="edge">
<title>Node10&#45;&gt;Node11</title>
<path fill="none" stroke="midnightblue" d="M66.72,-59.5C57.65,-59.5 48.64,-59.5 41.07,-59.5"/>
<polygon fill="midnightblue" stroke="midnightblue" points="66.91,-63 76.91,-59.5 66.91,-56 66.91,-63"/>
</g>
<!-- Node12&#45;&gt;Node3 -->
<g id="edge14" class="edge">
<title>Node12&#45;&gt;Node3</title>
<path fill="none" stroke="midnightblue" d="M586.77,-177.17C575.7,-181.42 564.33,-186.26 554,-191.5 536.85,-200.2 535.02,-206.55 518,-215.5 507.57,-220.98 495.92,-226.1 484.96,-230.5"/>
<polygon fill="midnightblue" stroke="midnightblue" points="588.25,-180.35 596.4,-173.58 585.8,-173.79 588.25,-180.35"/>
</g>
<!-- Node13 -->
<g id="node13" class="node">
<title>Node13</title>
<g id="a_node13"><a xlink:href="class_main_namespace_1_1_surface_1_1_multi_surface.html#a0e9e2ea8cfd79249b03f920f1aca732c" target="_top" xlink:title="Print surface properties.">
<polygon fill="white" stroke="black" points="189,-186.5 189,-216.5 330,-216.5 330,-186.5 189,-186.5"/>
<text text-anchor="start" x="197" y="-204.5" font-family="Helvetica,sans-Serif" font-size="10.00">MainNamespace::Surface</text>
<text text-anchor="middle" x="259.5" y="-193.5" font-family="Helvetica,sans-Serif" font-size="10.00">::MultiSurface::properties</text>
</a>
</g>
</g>
<!-- Node12&#45;&gt;Node13 -->
<g id="edge15" class="edge">
<title>Node12&#45;&gt;Node13</title>
<path fill="none" stroke="midnightblue" d="M564.3,-175.11C548.98,-177.9 533.03,-180.52 518,-182.5 454.67,-190.84 382.06,-195.78 330.12,-198.53"/>
<polygon fill="midnightblue" stroke="midnightblue" points="565.06,-178.53 574.25,-173.26 563.78,-171.65 565.06,-178.53"/>
</g>
<!-- Node14 -->
<g id="node14" class="node">
<title>Node14</title>
<g id="a_node14"><a xlink:href="class_main_namespace_1_1_surface_1_1_multi_surface.html#a4057eaa562637a1f3a39b693718d7bb3" target="_top" xlink:title="Getter.">
<polygon fill="white" stroke="black" points="371.5,-142.5 371.5,-172.5 512.5,-172.5 512.5,-142.5 371.5,-142.5"/>
<text text-anchor="start" x="379.5" y="-160.5" font-family="Helvetica,sans-Serif" font-size="10.00">MainNamespace::Surface</text>
<text text-anchor="middle" x="442" y="-149.5" font-family="Helvetica,sans-Serif" font-size="10.00">::MultiSurface::triangles</text>
</a>
</g>
</g>
<!-- Node12&#45;&gt;Node14 -->
<g id="edge17" class="edge">
<title>Node12&#45;&gt;Node14</title>
<path fill="none" stroke="midnightblue" d="M563.83,-158.1C546.89,-158.02 529.13,-157.93 512.61,-157.85"/>
<polygon fill="midnightblue" stroke="midnightblue" points="564.25,-161.6 574.26,-158.15 564.28,-154.6 564.25,-161.6"/>
</g>
<!-- Node15 -->
<g id="node15" class="node">
<title>Node15</title>
<g id="a_node15"><a xlink:href="class_main_namespace_1_1_surface_1_1_multi_surface.html#ad03ff836a2ae7f060ef1aeaa3f2afb64" target="_top" xlink:title="Getter.">
<polygon fill="white" stroke="black" points="371.5,-93.5 371.5,-123.5 512.5,-123.5 512.5,-93.5 371.5,-93.5"/>
<text text-anchor="start" x="379.5" y="-111.5" font-family="Helvetica,sans-Serif" font-size="10.00">MainNamespace::Surface</text>
<text text-anchor="middle" x="442" y="-100.5" font-family="Helvetica,sans-Serif" font-size="10.00">::MultiSurface::vertices</text>
</a>
</g>
</g>
<!-- Node12&#45;&gt;Node15 -->
<g id="edge21" class="edge">
<title>Node12&#45;&gt;Node15</title>
<path fill="none" stroke="midnightblue" d="M573.71,-141.02C550.86,-135.33 525.7,-129.07 503.61,-123.58"/>
<polygon fill="midnightblue" stroke="midnightblue" points="573.14,-144.48 583.69,-143.5 574.83,-137.69 573.14,-144.48"/>
</g>
<!-- Node13&#45;&gt;Node10 -->
<g id="edge16" class="edge">
<title>Node13&#45;&gt;Node10</title>
<path fill="none" stroke="midnightblue" d="M194.03,-181.16C192.29,-180 190.61,-178.79 189,-177.5 151.19,-147.26 127.75,-91.76 119.42,-69.31"/>
<polygon fill="midnightblue" stroke="midnightblue" points="192.72,-184.45 203.13,-186.42 196.22,-178.39 192.72,-184.45"/>
</g>
<!-- Node14&#45;&gt;Node7 -->
<g id="edge18" class="edge">
<title>Node14&#45;&gt;Node7</title>
<path fill="none" stroke="midnightblue" d="M361.24,-155.29C350.93,-155 340.43,-154.71 330.29,-154.43"/>
<polygon fill="midnightblue" stroke="midnightblue" points="361.38,-158.8 371.47,-155.57 361.57,-151.8 361.38,-158.8"/>
</g>
<!-- Node14&#45;&gt;Node8 -->
<g id="edge19" class="edge">
<title>Node14&#45;&gt;Node8</title>
<path fill="none" stroke="midnightblue" d="M380.85,-139.5C358.13,-132.71 332.54,-125.05 310.82,-118.55"/>
<polygon fill="midnightblue" stroke="midnightblue" points="380.14,-142.94 390.72,-142.46 382.14,-136.24 380.14,-142.94"/>
</g>
<!-- Node14&#45;&gt;Node13 -->
<g id="edge20" class="edge">
<title>Node14&#45;&gt;Node13</title>
<path fill="none" stroke="midnightblue" d="M369.27,-174.99C353.67,-178.79 337.31,-182.78 322.14,-186.47"/>
<polygon fill="midnightblue" stroke="midnightblue" points="370.5,-178.29 379.39,-172.52 368.84,-171.49 370.5,-178.29"/>
</g>
<!-- Node15&#45;&gt;Node7 -->
<g id="edge22" class="edge">
<title>Node15&#45;&gt;Node7</title>
<path fill="none" stroke="midnightblue" d="M369.27,-125.99C353.67,-129.79 337.31,-133.78 322.14,-137.47"/>
<polygon fill="midnightblue" stroke="midnightblue" points="370.5,-129.29 379.39,-123.52 368.84,-122.49 370.5,-129.29"/>
</g>
<!-- Node15&#45;&gt;Node8 -->
<g id="edge23" class="edge">
<title>Node15&#45;&gt;Node8</title>
<path fill="none" stroke="midnightblue" d="M361.24,-106.29C350.93,-106 340.43,-105.71 330.29,-105.43"/>
<polygon fill="midnightblue" stroke="midnightblue" points="361.38,-109.8 371.47,-106.57 361.57,-102.8 361.38,-109.8"/>
</g>
<!-- Node15&#45;&gt;Node13 -->
<g id="edge24" class="edge">
<title>Node15&#45;&gt;Node13</title>
<path fill="none" stroke="midnightblue" d="M375.01,-128.02C371.88,-129.71 368.86,-131.53 366,-133.5 345.2,-147.84 350.73,-163.05 330,-177.5 325.08,-180.93 319.62,-183.91 313.99,-186.49"/>
<polygon fill="midnightblue" stroke="midnightblue" points="376.59,-131.14 384.05,-123.62 373.53,-124.85 376.59,-131.14"/>
</g>
<!-- Node16&#45;&gt;Node6 -->
<g id="edge26" class="edge">
<title>Node16&#45;&gt;Node6</title>
<path fill="none" stroke="midnightblue" d="M543.54,-60C534.8,-59.96 526.06,-59.91 517.58,-59.87"/>
<polygon fill="midnightblue" stroke="midnightblue" points="543.77,-63.5 553.79,-60.05 543.81,-56.5 543.77,-63.5"/>
</g>
</g>
</svg>
        <g id="navigator" transform="translate(0 0)" fill="#404254">
                <rect fill="#f2f5e9" fill-opacity="0.5" stroke="#606060" stroke-width=".5" x="0" y="0" width="60" height="60"/>
                <use id="zoomplus" xlink:href="#zoomPlus" x="17" y="9" onmousedown="handleZoom(evt,'in')"/>
                <use id="zoomminus" xlink:href="#zoomMin" x="42" y="9" onmousedown="handleZoom(evt,'out')"/>
                <use id="reset" xlink:href="#resetDef" x="30" y="36" onmousedown="handleReset()"/>
                <g id="arrowUp" xlink:href="#dirArrow" transform="translate(30 24)" onmousedown="handlePan(0,-1)">
                  <use xlink:href="#rim" fill="#404040">
                        <set attributeName="fill" to="#808080" begin="arrowUp.mouseover" end="arrowUp.mouseout"/>
                  </use>
                  <path fill="none" stroke="white" stroke-width="1.5" d="M0,-3.0v7 M-2.5,-0.5L0,-3.0L2.5,-0.5"/>
                </g>
                <g id="arrowRight" xlink:href="#dirArrow" transform="rotate(90) translate(36 -43)" onmousedown="handlePan(1,0)">
                  <use xlink:href="#rim" fill="#404040">
                        <set attributeName="fill" to="#808080" begin="arrowRight.mouseover" end="arrowRight.mouseout"/>
                  </use>
                  <path fill="none" stroke="white" stroke-width="1.5" d="M0,-3.0v7 M-2.5,-0.5L0,-3.0L2.5,-0.5"/>
                </g>
                <g id="arrowDown" xlink:href="#dirArrow" transform="rotate(180) translate(-30 -48)" onmousedown="handlePan(0,1)">
                  <use xlink:href="#rim" fill="#404040">
                        <set attributeName="fill" to="#808080" begin="arrowDown.mouseover" end="arrowDown.mouseout"/>
                  </use>
                  <path fill="none" stroke="white" stroke-width="1.5" d="M0,-3.0v7 M-2.5,-0.5L0,-3.0L2.5,-0.5"/>
                </g>
                <g id="arrowLeft" xlink:href="#dirArrow" transform="rotate(270) translate(-36 17)" onmousedown="handlePan(-1,0)">
                  <use xlink:href="#rim" fill="#404040">
                        <set attributeName="fill" to="#808080" begin="arrowLeft.mouseover" end="arrowLeft.mouseout"/>
                  </use>
                  <path fill="none" stroke="white" stroke-width="1.5" d="M0,-3.0v7 M-2.5,-0.5L0,-3.0L2.5,-0.5"/>
                </g>
        </g>
        <svg viewBox="0 0 15 15" width="100%" height="30px" preserveAspectRatio="xMaxYMin meet">
         <g id="arrow_out" transform="scale(0.3 0.3)">
          <a xlink:href="class_main_namespace_1_1_mesh_reader_a8311a1d62c5eced1bf7162a0f1f00687_icgraph_org.svg" target="_base">
           <rect id="button" ry="5" rx="5" y="6" x="6" height="38" width="38"
                fill="#f2f5e9" fill-opacity="0.5" stroke="#606060" stroke-width="1.0"/>
           <path id="arrow"
             d="M 11.500037,31.436501 C 11.940474,20.09759 22.043105,11.32322 32.158766,21.979434 L 37.068811,17.246167 C 37.068811,17.246167 37.088388,32 37.088388,32 L 22.160133,31.978069 C 22.160133,31.978069 26.997745,27.140456 26.997745,27.140456 C 18.528582,18.264221 13.291696,25.230495 11.500037,31.436501 z"
             style="fill:#404040;"/>
          </a>
         </g>
        </svg>
</svg>
