<?xml version="1.0" encoding="UTF-8" standalone="no"?>
<!DOCTYPE svg PUBLIC "-//W3C//DTD SVG 1.1//EN"
 "http://www.w3.org/Graphics/SVG/1.1/DTD/svg11.dtd">
<!-- Generated by graphviz version 2.43.0 (0)
 -->
<!-- Title: lyra::group::parse Pages: 1 -->
<svg width="648pt" height="236pt"
 viewBox="0.00 0.00 648.00 235.50" xmlns="http://www.w3.org/2000/svg" xmlns:xlink="http://www.w3.org/1999/xlink">
<g id="graph0" class="graph" transform="scale(1 1) rotate(0) translate(4 231.5)">
<title>lyra::group::parse</title>
<polygon fill="white" stroke="transparent" points="-4,4 -4,-231.5 644,-231.5 644,4 -4,4"/>
<!-- Node1 -->
<g id="node1" class="node">
<title>Node1</title>
<g id="a_node1"><a xlink:title=" ">
<polygon fill="#bfbfbf" stroke="black" points="0,-120.5 0,-139.5 102,-139.5 102,-120.5 0,-120.5"/>
<text text-anchor="middle" x="51" y="-127.5" font-family="Helvetica,sans-Serif" font-size="10.00">lyra::group::parse</text>
</a>
</g>
</g>
<!-- Node2 -->
<g id="node2" class="node">
<title>Node2</title>
<g id="a_node2"><a xlink:href="classlyra_1_1detail_1_1token__iterator.html#ac3007dcca2221df17bcfba6815a60aff" target="_top" xlink:title=" ">
<polygon fill="white" stroke="black" points="508,-197 508,-227 619,-227 619,-197 508,-197"/>
<text text-anchor="start" x="516" y="-215" font-family="Helvetica,sans-Serif" font-size="10.00">lyra::detail::token</text>
<text text-anchor="middle" x="563.5" y="-204" font-family="Helvetica,sans-Serif" font-size="10.00">_iterator::argument</text>
</a>
</g>
</g>
<!-- Node1&#45;&gt;Node2 -->
<g id="edge1" class="edge">
<title>Node1&#45;&gt;Node2</title>
<path fill="none" stroke="midnightblue" d="M68.84,-139.63C85.75,-148.81 112.83,-162.21 138,-169 262.27,-202.5 413.4,-210.34 497.69,-211.91"/>
<polygon fill="midnightblue" stroke="midnightblue" points="497.82,-215.41 507.88,-212.08 497.93,-208.42 497.82,-215.41"/>
</g>
<!-- Node3 -->
<g id="node3" class="node">
<title>Node3</title>
<g id="a_node3"><a xlink:href="classlyra_1_1parser.html#a59a2a42cea85955a811279a463777b9d" target="_top" xlink:title=" ">
<polygon fill="white" stroke="black" points="487,-158.5 487,-177.5 640,-177.5 640,-158.5 487,-158.5"/>
<text text-anchor="middle" x="563.5" y="-165.5" font-family="Helvetica,sans-Serif" font-size="10.00">lyra::parser::get_usage_text</text>
</a>
</g>
</g>
<!-- Node1&#45;&gt;Node3 -->
<g id="edge2" class="edge">
<title>Node1&#45;&gt;Node3</title>
<path fill="none" stroke="midnightblue" d="M88.58,-139.54C103.76,-143.12 121.63,-146.84 138,-149 254.49,-164.36 390.35,-167.96 476.38,-168.49"/>
<polygon fill="midnightblue" stroke="midnightblue" points="476.61,-171.99 486.62,-168.54 476.64,-164.99 476.61,-171.99"/>
</g>
<!-- Node4 -->
<g id="node4" class="node">
<title>Node4</title>
<g id="a_node4"><a xlink:href="classlyra_1_1arguments.html#abaa776f2a0b2c57de970cf35bd59c47c" target="_top" xlink:title=" ">
<polygon fill="white" stroke="black" points="138,-120.5 138,-139.5 265,-139.5 265,-120.5 138,-120.5"/>
<text text-anchor="middle" x="201.5" y="-127.5" font-family="Helvetica,sans-Serif" font-size="10.00">lyra::arguments::parse</text>
</a>
</g>
</g>
<!-- Node1&#45;&gt;Node4 -->
<g id="edge3" class="edge">
<title>Node1&#45;&gt;Node4</title>
<path fill="none" stroke="midnightblue" d="M102.28,-130C110.5,-130 119.16,-130 127.8,-130"/>
<polygon fill="midnightblue" stroke="midnightblue" points="127.9,-133.5 137.9,-130 127.9,-126.5 127.9,-133.5"/>
</g>
<!-- Node10 -->
<g id="node10" class="node">
<title>Node10</title>
<g id="a_node10"><a xlink:href="classlyra_1_1detail_1_1parse__state.html#a2b74a8fb6fea126c7d5a86e0f14cb6d1" target="_top" xlink:title=" ">
<polygon fill="white" stroke="black" points="150.5,-71 150.5,-101 252.5,-101 252.5,-71 150.5,-71"/>
<text text-anchor="start" x="158.5" y="-89" font-family="Helvetica,sans-Serif" font-size="10.00">lyra::detail::parse</text>
<text text-anchor="middle" x="201.5" y="-78" font-family="Helvetica,sans-Serif" font-size="10.00">_state::type</text>
</a>
</g>
</g>
<!-- Node1&#45;&gt;Node10 -->
<g id="edge17" class="edge">
<title>Node1&#45;&gt;Node10</title>
<path fill="none" stroke="midnightblue" d="M84.22,-120.45C100.71,-115.57 121.33,-109.46 140.61,-103.75"/>
<polygon fill="midnightblue" stroke="midnightblue" points="141.64,-107.09 150.23,-100.89 139.65,-100.38 141.64,-107.09"/>
</g>
<!-- Node11 -->
<g id="node11" class="node">
<title>Node11</title>
<g id="a_node11"><a xlink:href="classlyra_1_1detail_1_1result__value__base.html#a94509148b298c6452d7e2109e3d2e7cf" target="_top" xlink:title=" ">
<polygon fill="white" stroke="black" points="146.5,-22 146.5,-52 256.5,-52 256.5,-22 146.5,-22"/>
<text text-anchor="start" x="154.5" y="-40" font-family="Helvetica,sans-Serif" font-size="10.00">lyra::detail::result</text>
<text text-anchor="middle" x="201.5" y="-29" font-family="Helvetica,sans-Serif" font-size="10.00">_value_base::value</text>
</a>
</g>
</g>
<!-- Node1&#45;&gt;Node11 -->
<g id="edge18" class="edge">
<title>Node1&#45;&gt;Node11</title>
<path fill="none" stroke="midnightblue" d="M61.83,-120.39C77.07,-105.91 107.79,-78.35 138,-61 140.82,-59.38 143.77,-57.83 146.79,-56.34"/>
<polygon fill="midnightblue" stroke="midnightblue" points="148.37,-59.47 156,-52.12 145.45,-53.11 148.37,-59.47"/>
</g>
<!-- Node5 -->
<g id="node5" class="node">
<title>Node5</title>
<g id="a_node5"><a xlink:href="classlyra_1_1detail_1_1basic__result.html#ae878693d416cc48943171ab4187f5719" target="_top" xlink:title=" ">
<polygon fill="white" stroke="black" points="502.5,-0.5 502.5,-41.5 624.5,-41.5 624.5,-0.5 502.5,-0.5"/>
<text text-anchor="start" x="510.5" y="-29.5" font-family="Helvetica,sans-Serif" font-size="10.00">lyra::detail::basic</text>
<text text-anchor="start" x="510.5" y="-18.5" font-family="Helvetica,sans-Serif" font-size="10.00">_result&lt; detail::parse</text>
<text text-anchor="middle" x="563.5" y="-7.5" font-family="Helvetica,sans-Serif" font-size="10.00">_state &gt;::error</text>
</a>
</g>
</g>
<!-- Node4&#45;&gt;Node5 -->
<g id="edge4" class="edge">
<title>Node4&#45;&gt;Node5</title>
<path fill="none" stroke="midnightblue" d="M246.9,-120.48C253.3,-118 259.56,-114.89 265,-111 287.27,-95.07 277.65,-75.3 301,-61 358.71,-25.67 436.61,-17.76 492.34,-17.41"/>
<polygon fill="midnightblue" stroke="midnightblue" points="492.47,-20.91 502.48,-17.42 492.49,-13.91 492.47,-20.91"/>
</g>
<!-- Node6 -->
<g id="node6" class="node">
<title>Node6</title>
<g id="a_node6"><a xlink:href="classlyra_1_1arguments.html#a4509f3d7139b3cd823dcad3c75ae221b" target="_top" xlink:title=" ">
<polygon fill="white" stroke="black" points="301,-120.5 301,-139.5 451,-139.5 451,-120.5 301,-120.5"/>
<text text-anchor="middle" x="376" y="-127.5" font-family="Helvetica,sans-Serif" font-size="10.00">lyra::arguments::parse_any</text>
</a>
</g>
</g>
<!-- Node4&#45;&gt;Node6 -->
<g id="edge5" class="edge">
<title>Node4&#45;&gt;Node6</title>
<path fill="none" stroke="midnightblue" d="M265.26,-130C273.57,-130 282.2,-130 290.79,-130"/>
<polygon fill="midnightblue" stroke="midnightblue" points="290.85,-133.5 300.85,-130 290.85,-126.5 290.85,-133.5"/>
</g>
<!-- Node9 -->
<g id="node9" class="node">
<title>Node9</title>
<g id="a_node9"><a xlink:href="classlyra_1_1arguments.html#a125da5640a06de6f9268328a252e20d2" target="_top" xlink:title=" ">
<polygon fill="white" stroke="black" points="312.5,-71 312.5,-101 439.5,-101 439.5,-71 312.5,-71"/>
<text text-anchor="start" x="320.5" y="-89" font-family="Helvetica,sans-Serif" font-size="10.00">lyra::arguments::parse</text>
<text text-anchor="middle" x="376" y="-78" font-family="Helvetica,sans-Serif" font-size="10.00">_sequence</text>
</a>
</g>
</g>
<!-- Node4&#45;&gt;Node9 -->
<g id="edge11" class="edge">
<title>Node4&#45;&gt;Node9</title>
<path fill="none" stroke="midnightblue" d="M239.93,-120.45C259.26,-115.52 283.48,-109.34 306.05,-103.59"/>
<polygon fill="midnightblue" stroke="midnightblue" points="307.11,-106.93 315.94,-101.07 305.38,-100.15 307.11,-106.93"/>
</g>
<!-- Node6&#45;&gt;Node2 -->
<g id="edge6" class="edge">
<title>Node6&#45;&gt;Node2</title>
<path fill="none" stroke="midnightblue" d="M393.38,-139.53C414.53,-151.6 452.71,-172.55 487,-187 492.38,-189.27 498.04,-191.47 503.75,-193.56"/>
<polygon fill="midnightblue" stroke="midnightblue" points="502.75,-196.92 513.34,-196.98 505.1,-190.33 502.75,-196.92"/>
</g>
<!-- Node6&#45;&gt;Node3 -->
<g id="edge9" class="edge">
<title>Node6&#45;&gt;Node3</title>
<path fill="none" stroke="midnightblue" d="M423.81,-139.59C448.84,-144.72 479.84,-151.07 506.18,-156.46"/>
<polygon fill="midnightblue" stroke="midnightblue" points="505.53,-159.9 516.03,-158.48 506.93,-153.04 505.53,-159.9"/>
</g>
<!-- Node6&#45;&gt;Node5 -->
<g id="edge8" class="edge">
<title>Node6&#45;&gt;Node5</title>
<path fill="none" stroke="midnightblue" d="M433.69,-120.44C439.86,-117.98 445.79,-114.89 451,-111 475.93,-92.41 463.3,-71.14 487,-51 489.02,-49.28 491.15,-47.65 493.37,-46.11"/>
<polygon fill="midnightblue" stroke="midnightblue" points="495.62,-48.84 502.27,-40.59 491.93,-42.89 495.62,-48.84"/>
</g>
<!-- Node7 -->
<g id="node7" class="node">
<title>Node7</title>
<g id="a_node7"><a xlink:href="namespace_main_namespace.html#ac3a415fa8d1b6b56dfe215f13c7f67b1" target="_top" xlink:title=" ">
<polygon fill="white" stroke="black" points="498,-60.5 498,-79.5 629,-79.5 629,-60.5 498,-60.5"/>
<text text-anchor="middle" x="563.5" y="-67.5" font-family="Helvetica,sans-Serif" font-size="10.00">MainNamespace::count</text>
</a>
</g>
</g>
<!-- Node6&#45;&gt;Node7 -->
<g id="edge7" class="edge">
<title>Node6&#45;&gt;Node7</title>
<path fill="none" stroke="midnightblue" d="M423.1,-120.43C432.5,-117.85 442.2,-114.72 451,-111 468.27,-103.7 469.71,-96.26 487,-89 492.81,-86.56 499,-84.38 505.25,-82.45"/>
<polygon fill="midnightblue" stroke="midnightblue" points="506.43,-85.75 515.06,-79.61 504.48,-79.02 506.43,-85.75"/>
</g>
<!-- Node8 -->
<g id="node8" class="node">
<title>Node8</title>
<g id="a_node8"><a xlink:href="classlyra_1_1detail_1_1basic__result.html#aee577409a431e215136ffc0764e5432b" target="_top" xlink:title=" ">
<polygon fill="white" stroke="black" points="502.5,-98.5 502.5,-139.5 624.5,-139.5 624.5,-98.5 502.5,-98.5"/>
<text text-anchor="start" x="510.5" y="-127.5" font-family="Helvetica,sans-Serif" font-size="10.00">lyra::detail::basic</text>
<text text-anchor="start" x="510.5" y="-116.5" font-family="Helvetica,sans-Serif" font-size="10.00">_result&lt; detail::parse</text>
<text text-anchor="middle" x="563.5" y="-105.5" font-family="Helvetica,sans-Serif" font-size="10.00">_state &gt;::ok</text>
</a>
</g>
</g>
<!-- Node6&#45;&gt;Node8 -->
<g id="edge10" class="edge">
<title>Node6&#45;&gt;Node8</title>
<path fill="none" stroke="midnightblue" d="M451.11,-125.61C464.7,-124.8 478.85,-123.96 492.32,-123.16"/>
<polygon fill="midnightblue" stroke="midnightblue" points="492.7,-126.65 502.47,-122.56 492.28,-119.66 492.7,-126.65"/>
</g>
<!-- Node9&#45;&gt;Node2 -->
<g id="edge12" class="edge">
<title>Node9&#45;&gt;Node2</title>
<path fill="none" stroke="midnightblue" d="M436.39,-101.07C441.66,-103.84 446.64,-107.12 451,-111 478.92,-135.84 459,-162.24 487,-187 490.47,-190.07 494.32,-192.76 498.4,-195.12"/>
<polygon fill="midnightblue" stroke="midnightblue" points="497.13,-198.4 507.64,-199.79 500.29,-192.15 497.13,-198.4"/>
</g>
<!-- Node9&#45;&gt;Node3 -->
<g id="edge15" class="edge">
<title>Node9&#45;&gt;Node3</title>
<path fill="none" stroke="midnightblue" d="M431.76,-101.09C438.48,-103.91 445.06,-107.2 451,-111 470.6,-123.54 466.92,-137.25 487,-149 490.84,-151.25 494.95,-153.23 499.19,-154.99"/>
<polygon fill="midnightblue" stroke="midnightblue" points="498.02,-158.29 508.62,-158.46 500.44,-151.72 498.02,-158.29"/>
</g>
<!-- Node9&#45;&gt;Node5 -->
<g id="edge14" class="edge">
<title>Node9&#45;&gt;Node5</title>
<path fill="none" stroke="midnightblue" d="M420.02,-70.92C442.04,-63.21 469.36,-53.64 494.17,-44.94"/>
<polygon fill="midnightblue" stroke="midnightblue" points="495.62,-48.14 503.9,-41.53 493.31,-41.54 495.62,-48.14"/>
</g>
<!-- Node9&#45;&gt;Node7 -->
<g id="edge13" class="edge">
<title>Node9&#45;&gt;Node7</title>
<path fill="none" stroke="midnightblue" d="M439.54,-80.61C454.9,-79.28 471.5,-77.85 487.38,-76.48"/>
<polygon fill="midnightblue" stroke="midnightblue" points="488.03,-79.94 497.7,-75.59 487.43,-72.96 488.03,-79.94"/>
</g>
<!-- Node9&#45;&gt;Node8 -->
<g id="edge16" class="edge">
<title>Node9&#45;&gt;Node8</title>
<path fill="none" stroke="midnightblue" d="M439.54,-97.13C456.51,-100.15 475,-103.43 492.36,-106.52"/>
<polygon fill="midnightblue" stroke="midnightblue" points="491.97,-110.01 502.43,-108.31 493.19,-103.12 491.97,-110.01"/>
</g>
</g>
</svg>
