<?xml version="1.0" encoding="UTF-8" standalone="no"?>
<!DOCTYPE svg PUBLIC "-//W3C//DTD SVG 1.1//EN"
 "http://www.w3.org/Graphics/SVG/1.1/DTD/svg11.dtd">
<!-- Generated by graphviz version 2.43.0 (0)
 -->
<!-- Title: MainNamespace::CpuTimer Pages: 1 -->
<svg width="251pt" height="152pt"
 viewBox="0.00 0.00 250.50 152.00" xmlns="http://www.w3.org/2000/svg" xmlns:xlink="http://www.w3.org/1999/xlink">
<g id="graph0" class="graph" transform="scale(1 1) rotate(0) translate(4 148)">
<title>MainNamespace::CpuTimer</title>
<polygon fill="white" stroke="transparent" points="-4,4 -4,-148 246.5,-148 246.5,4 -4,4"/>
<!-- Node1 -->
<g id="node1" class="node">
<title>Node1</title>
<g id="a_node1"><a xlink:title=" ">
<polygon fill="#bfbfbf" stroke="black" points="0,-0.5 0,-19.5 151,-19.5 151,-0.5 0,-0.5"/>
<text text-anchor="middle" x="75.5" y="-7.5" font-family="Helvetica,sans-Serif" font-size="10.00">MainNamespace::CpuTimer</text>
</a>
</g>
</g>
<!-- Node2 -->
<g id="node2" class="node">
<title>Node2</title>
<g id="a_node2"><a xlink:href="class_main_namespace_1_1_base_timer.html" target="_top" xlink:title=" ">
<polygon fill="white" stroke="black" points="86.5,-57.5 86.5,-76.5 242.5,-76.5 242.5,-57.5 86.5,-57.5"/>
<text text-anchor="middle" x="164.5" y="-64.5" font-family="Helvetica,sans-Serif" font-size="10.00">MainNamespace::BaseTimer</text>
</a>
</g>
</g>
<!-- Node2&#45;&gt;Node1 -->
<g id="edge1" class="edge">
<title>Node2&#45;&gt;Node1</title>
<path fill="none" stroke="midnightblue" d="M142.02,-52.11C125.43,-41.86 103.38,-28.23 89.31,-19.53"/>
<polygon fill="midnightblue" stroke="midnightblue" points="140.25,-55.13 150.59,-57.41 143.93,-49.17 140.25,-55.13"/>
</g>
<!-- Node3 -->
<g id="node3" class="node">
<title>Node3</title>
<g id="a_node3"><a xlink:title=" ">
<polygon fill="white" stroke="black" points="28,-124.5 28,-143.5 79,-143.5 79,-124.5 28,-124.5"/>
<text text-anchor="middle" x="53.5" y="-131.5" font-family="Helvetica,sans-Serif" font-size="10.00">clock_t</text>
</a>
</g>
</g>
<!-- Node3&#45;&gt;Node1 -->
<g id="edge3" class="edge">
<title>Node3&#45;&gt;Node1</title>
<path fill="none" stroke="#9a32cd" stroke-dasharray="5,2" d="M48.03,-114.42C44.32,-98.81 41,-76.05 46.5,-57 50.64,-42.67 60.72,-28.51 67.82,-19.76"/>
<polygon fill="#9a32cd" stroke="#9a32cd" points="44.73,-115.61 50.68,-124.37 51.49,-113.81 44.73,-115.61"/>
<text text-anchor="middle" x="62" y="-64.5" font-family="Helvetica,sans-Serif" font-size="10.00"> start_</text>
</g>
<!-- Node3&#45;&gt;Node2 -->
<g id="edge2" class="edge">
<title>Node3&#45;&gt;Node2</title>
<path fill="none" stroke="#9a32cd" stroke-dasharray="5,2" d="M77.21,-119.12C99.2,-106.24 131.24,-87.48 149.77,-76.63"/>
<polygon fill="#9a32cd" stroke="#9a32cd" points="75.33,-116.16 68.47,-124.23 78.87,-122.2 75.33,-116.16"/>
<text text-anchor="middle" x="131" y="-98" font-family="Helvetica,sans-Serif" font-size="10.00"> total_</text>
</g>
</g>
</svg>
