<?xml version="1.0" encoding="UTF-8" standalone="no"?>
<!DOCTYPE svg PUBLIC "-//W3C//DTD SVG 1.1//EN"
 "http://www.w3.org/Graphics/SVG/1.1/DTD/svg11.dtd">
<!-- Generated by graphviz version 2.43.0 (0)
 -->
<!-- Title: lyra::printer::heading Pages: 1 -->
<svg width="739pt" height="137pt"
 viewBox="0.00 0.00 739.00 137.00" xmlns="http://www.w3.org/2000/svg" xmlns:xlink="http://www.w3.org/1999/xlink">
<g id="graph0" class="graph" transform="scale(1 1) rotate(0) translate(4 133)">
<title>lyra::printer::heading</title>
<polygon fill="white" stroke="transparent" points="-4,4 -4,-133 735,-133 735,4 -4,4"/>
<!-- Node1 -->
<g id="node1" class="node">
<title>Node1</title>
<g id="a_node1"><a xlink:title=" ">
<polygon fill="#bfbfbf" stroke="black" points="612,-55 612,-74 731,-74 731,-55 612,-55"/>
<text text-anchor="middle" x="671.5" y="-62" font-family="Helvetica,sans-Serif" font-size="10.00">lyra::printer::heading</text>
</a>
</g>
</g>
<!-- Node2 -->
<g id="node2" class="node">
<title>Node2</title>
<g id="a_node2"><a xlink:href="classlyra_1_1parser.html#a983e1c4c83992e0a636d41a38f0f7b0c" target="_top" xlink:title=" ">
<polygon fill="white" stroke="black" points="463.5,-98.5 463.5,-128.5 569.5,-128.5 569.5,-98.5 463.5,-98.5"/>
<text text-anchor="start" x="471.5" y="-116.5" font-family="Helvetica,sans-Serif" font-size="10.00">lyra::parser::print</text>
<text text-anchor="middle" x="516.5" y="-105.5" font-family="Helvetica,sans-Serif" font-size="10.00">_help_text_details</text>
</a>
</g>
</g>
<!-- Node1&#45;&gt;Node2 -->
<g id="edge1" class="edge">
<title>Node1&#45;&gt;Node2</title>
<path fill="none" stroke="midnightblue" d="M631.06,-77.13C610.72,-83.64 585.78,-91.63 564.45,-98.46"/>
<polygon fill="midnightblue" stroke="midnightblue" points="632.18,-80.45 640.64,-74.06 630.05,-73.78 632.18,-80.45"/>
</g>
<!-- Node6 -->
<g id="node6" class="node">
<title>Node6</title>
<g id="a_node6"><a xlink:href="classlyra_1_1command.html#a3370a0bf7f3e405341140cc765e809eb" target="_top" xlink:title=" ">
<polygon fill="white" stroke="black" points="457,-49.5 457,-79.5 576,-79.5 576,-49.5 457,-49.5"/>
<text text-anchor="start" x="465" y="-67.5" font-family="Helvetica,sans-Serif" font-size="10.00">lyra::command::print</text>
<text text-anchor="middle" x="516.5" y="-56.5" font-family="Helvetica,sans-Serif" font-size="10.00">_help_text_details</text>
</a>
</g>
</g>
<!-- Node1&#45;&gt;Node6 -->
<g id="edge5" class="edge">
<title>Node1&#45;&gt;Node6</title>
<path fill="none" stroke="midnightblue" d="M601.51,-64.5C593.01,-64.5 584.38,-64.5 576.06,-64.5"/>
<polygon fill="midnightblue" stroke="midnightblue" points="601.78,-68 611.78,-64.5 601.78,-61 601.78,-68"/>
</g>
<!-- Node7 -->
<g id="node7" class="node">
<title>Node7</title>
<g id="a_node7"><a xlink:href="classlyra_1_1parser.html#a9ca7f234f1c01a862266e05d91ed4a93" target="_top" xlink:title=" ">
<polygon fill="white" stroke="black" points="457,-0.5 457,-30.5 576,-30.5 576,-0.5 457,-0.5"/>
<text text-anchor="start" x="465" y="-18.5" font-family="Helvetica,sans-Serif" font-size="10.00">lyra::parser::print</text>
<text text-anchor="middle" x="516.5" y="-7.5" font-family="Helvetica,sans-Serif" font-size="10.00">_help_text_summary</text>
</a>
</g>
</g>
<!-- Node1&#45;&gt;Node7 -->
<g id="edge6" class="edge">
<title>Node1&#45;&gt;Node7</title>
<path fill="none" stroke="midnightblue" d="M631.06,-51.87C610.72,-45.36 585.78,-37.37 564.45,-30.54"/>
<polygon fill="midnightblue" stroke="midnightblue" points="630.05,-55.22 640.64,-54.94 632.18,-48.55 630.05,-55.22"/>
</g>
<!-- Node3 -->
<g id="node3" class="node">
<title>Node3</title>
<g id="a_node3"><a xlink:href="classlyra_1_1parser.html#a6f7fc59f0b9bb8119c16638743c637d8" target="_top" xlink:title=" ">
<polygon fill="white" stroke="black" points="320,-49.5 320,-79.5 421,-79.5 421,-49.5 320,-49.5"/>
<text text-anchor="start" x="328" y="-67.5" font-family="Helvetica,sans-Serif" font-size="10.00">lyra::parser::print</text>
<text text-anchor="middle" x="370.5" y="-56.5" font-family="Helvetica,sans-Serif" font-size="10.00">_help_text</text>
</a>
</g>
</g>
<!-- Node2&#45;&gt;Node3 -->
<g id="edge2" class="edge">
<title>Node2&#45;&gt;Node3</title>
<path fill="none" stroke="midnightblue" d="M461.46,-95.11C446.46,-90.01 430.36,-84.53 415.98,-79.64"/>
<polygon fill="midnightblue" stroke="midnightblue" points="460.53,-98.49 471.12,-98.4 462.78,-91.86 460.53,-98.49"/>
</g>
<!-- Node4 -->
<g id="node4" class="node">
<title>Node4</title>
<g id="a_node4"><a xlink:href="classlyra_1_1arguments.html#a620f67bdd9518d9f7a0a5b0e3939c561" target="_top" xlink:title=" ">
<polygon fill="white" stroke="black" points="135,-55 135,-74 284,-74 284,-55 135,-55"/>
<text text-anchor="middle" x="209.5" y="-62" font-family="Helvetica,sans-Serif" font-size="10.00">lyra::arguments::print_help</text>
</a>
</g>
</g>
<!-- Node3&#45;&gt;Node4 -->
<g id="edge3" class="edge">
<title>Node3&#45;&gt;Node4</title>
<path fill="none" stroke="midnightblue" d="M309.35,-64.5C301.09,-64.5 292.54,-64.5 284.07,-64.5"/>
<polygon fill="midnightblue" stroke="midnightblue" points="309.63,-68 319.63,-64.5 309.63,-61 309.63,-68"/>
</g>
<!-- Node5 -->
<g id="node5" class="node">
<title>Node5</title>
<g id="a_node5"><a xlink:href="namespacelyra.html#ac376af987ad2c95c9a7e27cc61e0cb8c" target="_top" xlink:title=" ">
<polygon fill="white" stroke="black" points="0,-55 0,-74 99,-74 99,-55 0,-55"/>
<text text-anchor="middle" x="49.5" y="-62" font-family="Helvetica,sans-Serif" font-size="10.00">lyra::operator&lt;&lt;</text>
</a>
</g>
</g>
<!-- Node4&#45;&gt;Node5 -->
<g id="edge4" class="edge">
<title>Node4&#45;&gt;Node5</title>
<path fill="none" stroke="midnightblue" d="M124.41,-64.5C115.75,-64.5 107.18,-64.5 99.1,-64.5"/>
<polygon fill="midnightblue" stroke="midnightblue" points="124.59,-68 134.59,-64.5 124.59,-61 124.59,-68"/>
</g>
<!-- Node7&#45;&gt;Node3 -->
<g id="edge7" class="edge">
<title>Node7&#45;&gt;Node3</title>
<path fill="none" stroke="midnightblue" d="M461.46,-33.89C446.46,-38.99 430.36,-44.47 415.98,-49.36"/>
<polygon fill="midnightblue" stroke="midnightblue" points="462.78,-37.14 471.12,-30.6 460.53,-30.51 462.78,-37.14"/>
</g>
</g>
</svg>
