<?xml version="1.0" encoding="UTF-8" standalone="no"?>
<!DOCTYPE svg PUBLIC "-//W3C//DTD SVG 1.1//EN"
 "http://www.w3.org/Graphics/SVG/1.1/DTD/svg11.dtd">
<!-- Generated by graphviz version 2.43.0 (0)
 -->
<!-- Title: lyra::cli::parse Pages: 1 -->
<!--zoomable 486 -->
<svg id="main" version="1.1" xmlns="http://www.w3.org/2000/svg" xmlns:xlink="http://www.w3.org/1999/xlink" xml:space="preserve" onload="init(evt)">
<style type="text/css"><![CDATA[
.edge:hover path { stroke: red; }
.edge:hover polygon { stroke: red; fill: red; }
]]></style>
<script type="text/javascript"><![CDATA[
var edges = document.getElementsByTagName('g');
if (edges && edges.length) {
  for (var i=0;i<edges.length;i++) {
    if (edges[i].id.substr(0,4)=='edge') {
      edges[i].setAttribute('class','edge');
    }
  }
}
]]></script>
        <defs>
                <circle id="rim" cx="0" cy="0" r="7"/>
                <circle id="rim2" cx="0" cy="0" r="3.5"/>
                <g id="zoomPlus">
                        <use xlink:href="#rim" fill="#404040">
                                <set attributeName="fill" to="#808080" begin="zoomplus.mouseover" end="zoomplus.mouseout"/>
                        </use>
                        <path d="M-4,0h8M0,-4v8" fill="none" stroke="white" stroke-width="1.5" pointer-events="none"/>
                </g>
                <g id="zoomMin">
                        <use xlink:href="#rim" fill="#404040">
                                <set attributeName="fill" to="#808080" begin="zoomminus.mouseover" end="zoomminus.mouseout"/>
                        </use>
                        <path d="M-4,0h8" fill="none" stroke="white" stroke-width="1.5" pointer-events="none"/>
                </g>
                <g id="dirArrow">
                        <path fill="none" stroke="white" stroke-width="1.5" d="M0,-3.0v7 M-2.5,-0.5L0,-3.0L2.5,-0.5"/>
                </g>
               <g id="resetDef">
                       <use xlink:href="#rim2" fill="#404040">
                               <set attributeName="fill" to="#808080" begin="reset.mouseover" end="reset.mouseout"/>
                       </use>
               </g>
        </defs>

<script type="text/javascript">
var viewWidth = 552;
var viewHeight = 486;
var sectionId = 'dynsection-22';
</script>
<script xlink:href="svgpan.js"/>
<svg id="graph" class="graph">
<g id="viewport">
<title>lyra::cli::parse</title>
<polygon fill="white" stroke="transparent" points="-4,4 -4,-482 548,-482 548,4 -4,4"/>
<!-- Node1 -->
<g id="node1" class="node">
<title>Node1</title>
<g id="a_node1"><a xlink:title=" ">
<polygon fill="#bfbfbf" stroke="black" points="0,-221 0,-240 86,-240 86,-221 0,-221"/>
<text text-anchor="middle" x="43" y="-228" font-family="Helvetica,sans-Serif" font-size="10.00">lyra::cli::parse</text>
</a>
</g>
</g>
<!-- Node2 -->
<g id="node2" class="node">
<title>Node2</title>
<g id="a_node2"><a xlink:href="classlyra_1_1detail_1_1token__iterator.html#ac3007dcca2221df17bcfba6815a60aff" target="_top" xlink:title=" ">
<polygon fill="white" stroke="black" points="134,-447.5 134,-477.5 245,-477.5 245,-447.5 134,-447.5"/>
<text text-anchor="start" x="142" y="-465.5" font-family="Helvetica,sans-Serif" font-size="10.00">lyra::detail::token</text>
<text text-anchor="middle" x="189.5" y="-454.5" font-family="Helvetica,sans-Serif" font-size="10.00">_iterator::argument</text>
</a>
</g>
</g>
<!-- Node1&#45;&gt;Node2 -->
<g id="edge1" class="edge">
<title>Node1&#45;&gt;Node2</title>
<path fill="none" stroke="midnightblue" d="M44.87,-240.24C48.28,-272.8 63.59,-379.14 122,-437.5 123.44,-438.94 124.97,-440.3 126.57,-441.58"/>
<polygon fill="midnightblue" stroke="midnightblue" points="124.87,-444.65 135.12,-447.35 128.79,-438.85 124.87,-444.65"/>
</g>
<!-- Node3 -->
<g id="node3" class="node">
<title>Node3</title>
<g id="a_node3"><a xlink:href="classlyra_1_1detail_1_1basic__result.html#ae878693d416cc48943171ab4187f5719" target="_top" xlink:title=" ">
<polygon fill="white" stroke="black" points="128.5,-387 128.5,-428 250.5,-428 250.5,-387 128.5,-387"/>
<text text-anchor="start" x="136.5" y="-416" font-family="Helvetica,sans-Serif" font-size="10.00">lyra::detail::basic</text>
<text text-anchor="start" x="136.5" y="-405" font-family="Helvetica,sans-Serif" font-size="10.00">_result&lt; detail::parse</text>
<text text-anchor="middle" x="189.5" y="-394" font-family="Helvetica,sans-Serif" font-size="10.00">_state &gt;::error</text>
</a>
</g>
</g>
<!-- Node1&#45;&gt;Node3 -->
<g id="edge2" class="edge">
<title>Node1&#45;&gt;Node3</title>
<path fill="none" stroke="midnightblue" d="M46.68,-240.1C54.3,-265.73 78.38,-336.59 122,-377.5 123.27,-378.69 124.6,-379.84 125.97,-380.95"/>
<polygon fill="midnightblue" stroke="midnightblue" points="124.08,-383.91 134.26,-386.87 128.15,-378.21 124.08,-383.91"/>
</g>
<!-- Node4 -->
<g id="node4" class="node">
<title>Node4</title>
<g id="a_node4"><a xlink:href="classlyra_1_1args.html#a7211fec31f462fce4ff59fbe356f50cd" target="_top" xlink:title=" ">
<polygon fill="white" stroke="black" points="130,-349 130,-368 249,-368 249,-349 130,-349"/>
<text text-anchor="middle" x="189.5" y="-356" font-family="Helvetica,sans-Serif" font-size="10.00">lyra::args::exe_name</text>
</a>
</g>
</g>
<!-- Node1&#45;&gt;Node4 -->
<g id="edge3" class="edge">
<title>Node1&#45;&gt;Node4</title>
<path fill="none" stroke="midnightblue" d="M48.1,-240.02C57.75,-261.24 83.96,-312.69 122,-339.5 124.83,-341.5 127.87,-343.29 131.04,-344.89"/>
<polygon fill="midnightblue" stroke="midnightblue" points="129.65,-348.1 140.22,-348.92 132.47,-341.69 129.65,-348.1"/>
</g>
<!-- Node5 -->
<g id="node5" class="node">
<title>Node5</title>
<g id="a_node5"><a xlink:href="classlyra_1_1detail_1_1parse__state.html#a6cd86be42bab305858f828e49140f6e1" target="_top" xlink:title=" ">
<polygon fill="white" stroke="black" points="132.5,-299.5 132.5,-329.5 246.5,-329.5 246.5,-299.5 132.5,-299.5"/>
<text text-anchor="start" x="140.5" y="-317.5" font-family="Helvetica,sans-Serif" font-size="10.00">lyra::detail::parse</text>
<text text-anchor="middle" x="189.5" y="-306.5" font-family="Helvetica,sans-Serif" font-size="10.00">_state::have_tokens</text>
</a>
</g>
</g>
<!-- Node1&#45;&gt;Node5 -->
<g id="edge4" class="edge">
<title>Node1&#45;&gt;Node5</title>
<path fill="none" stroke="midnightblue" d="M54.67,-240.18C69.08,-252.86 95.98,-275.16 122,-289.5 125.71,-291.54 129.61,-293.49 133.6,-295.32"/>
<polygon fill="midnightblue" stroke="midnightblue" points="132.43,-298.63 143,-299.4 135.22,-292.21 132.43,-298.63"/>
</g>
<!-- Node6 -->
<g id="node6" class="node">
<title>Node6</title>
<g id="a_node6"><a xlink:href="classlyra_1_1cli.html#a6d3e91c66ed03273471089eebcdeacae" target="_top" xlink:title=" ">
<polygon fill="white" stroke="black" points="146.5,-243 146.5,-262 232.5,-262 232.5,-243 146.5,-243"/>
<text text-anchor="middle" x="189.5" y="-250" font-family="Helvetica,sans-Serif" font-size="10.00">lyra::cli::parse</text>
</a>
</g>
</g>
<!-- Node1&#45;&gt;Node6 -->
<g id="edge5" class="edge">
<title>Node1&#45;&gt;Node6</title>
<path fill="none" stroke="midnightblue" d="M86.18,-236.92C101.77,-239.3 119.64,-242.02 136.03,-244.51"/>
<polygon fill="midnightblue" stroke="midnightblue" points="135.6,-247.99 146.01,-246.03 136.65,-241.07 135.6,-247.99"/>
</g>
<!-- Node8 -->
<g id="node8" class="node">
<title>Node8</title>
<g id="a_node8"><a xlink:href="classlyra_1_1detail_1_1parse__state.html#ae79d6d76b2cc4cbfcd4cfb2cf18a64dc" target="_top" xlink:title=" ">
<polygon fill="white" stroke="black" points="122,-193.5 122,-223.5 257,-223.5 257,-193.5 122,-193.5"/>
<text text-anchor="start" x="130" y="-211.5" font-family="Helvetica,sans-Serif" font-size="10.00">lyra::detail::parse</text>
<text text-anchor="middle" x="189.5" y="-200.5" font-family="Helvetica,sans-Serif" font-size="10.00">_state::remainingTokens</text>
</a>
</g>
</g>
<!-- Node1&#45;&gt;Node8 -->
<g id="edge8" class="edge">
<title>Node1&#45;&gt;Node8</title>
<path fill="none" stroke="midnightblue" d="M86.18,-224.08C94.29,-222.84 103.02,-221.51 111.83,-220.17"/>
<polygon fill="midnightblue" stroke="midnightblue" points="112.43,-223.62 121.79,-218.66 111.38,-216.7 112.43,-223.62"/>
</g>
<!-- Node9 -->
<g id="node9" class="node">
<title>Node9</title>
<g id="a_node9"><a xlink:href="classlyra_1_1exe__name.html#a0a8528cf259a3cd6f6d5ea0ba9f868c5" target="_top" xlink:title=" ">
<polygon fill="white" stroke="black" points="133,-155 133,-174 246,-174 246,-155 133,-155"/>
<text text-anchor="middle" x="189.5" y="-162" font-family="Helvetica,sans-Serif" font-size="10.00">lyra::exe_name::set</text>
</a>
</g>
</g>
<!-- Node1&#45;&gt;Node9 -->
<g id="edge9" class="edge">
<title>Node1&#45;&gt;Node9</title>
<path fill="none" stroke="midnightblue" d="M57.83,-220.95C73.01,-210.81 98.38,-194.84 122,-184.5 128.16,-181.8 134.79,-179.33 141.4,-177.12"/>
<polygon fill="midnightblue" stroke="midnightblue" points="142.53,-180.43 151,-174.06 140.41,-173.76 142.53,-180.43"/>
</g>
<!-- Node13 -->
<g id="node13" class="node">
<title>Node13</title>
<g id="a_node13"><a xlink:href="classlyra_1_1cli.html#a646a38771c685b00e17f116d6b2e926d" target="_top" xlink:title=" ">
<polygon fill="white" stroke="black" points="148,-99 148,-118 231,-118 231,-99 148,-99"/>
<text text-anchor="middle" x="189.5" y="-106" font-family="Helvetica,sans-Serif" font-size="10.00">lyra::cli::style</text>
</a>
</g>
</g>
<!-- Node1&#45;&gt;Node13 -->
<g id="edge13" class="edge">
<title>Node1&#45;&gt;Node13</title>
<path fill="none" stroke="midnightblue" d="M51.13,-220.9C63.93,-204.1 92.28,-168.95 122,-145.5 133.05,-136.78 146.42,-128.91 158.26,-122.7"/>
<polygon fill="midnightblue" stroke="midnightblue" points="160.03,-125.73 167.36,-118.08 156.86,-119.48 160.03,-125.73"/>
</g>
<!-- Node14 -->
<g id="node14" class="node">
<title>Node14</title>
<g id="a_node14"><a xlink:href="classlyra_1_1detail_1_1parse__state.html#a2b74a8fb6fea126c7d5a86e0f14cb6d1" target="_top" xlink:title=" ">
<polygon fill="white" stroke="black" points="138.5,-49.5 138.5,-79.5 240.5,-79.5 240.5,-49.5 138.5,-49.5"/>
<text text-anchor="start" x="146.5" y="-67.5" font-family="Helvetica,sans-Serif" font-size="10.00">lyra::detail::parse</text>
<text text-anchor="middle" x="189.5" y="-56.5" font-family="Helvetica,sans-Serif" font-size="10.00">_state::type</text>
</a>
</g>
</g>
<!-- Node1&#45;&gt;Node14 -->
<g id="edge15" class="edge">
<title>Node1&#45;&gt;Node14</title>
<path fill="none" stroke="midnightblue" d="M46.77,-220.78C54.46,-195.52 78.39,-127.18 122,-89.5 124.35,-87.47 126.88,-85.6 129.54,-83.87"/>
<polygon fill="midnightblue" stroke="midnightblue" points="131.41,-86.83 138.36,-78.84 127.94,-80.75 131.41,-86.83"/>
</g>
<!-- Node15 -->
<g id="node15" class="node">
<title>Node15</title>
<g id="a_node15"><a xlink:href="classlyra_1_1detail_1_1result__value__base.html#a94509148b298c6452d7e2109e3d2e7cf" target="_top" xlink:title=" ">
<polygon fill="white" stroke="black" points="134.5,-0.5 134.5,-30.5 244.5,-30.5 244.5,-0.5 134.5,-0.5"/>
<text text-anchor="start" x="142.5" y="-18.5" font-family="Helvetica,sans-Serif" font-size="10.00">lyra::detail::result</text>
<text text-anchor="middle" x="189.5" y="-7.5" font-family="Helvetica,sans-Serif" font-size="10.00">_value_base::value</text>
</a>
</g>
</g>
<!-- Node1&#45;&gt;Node15 -->
<g id="edge16" class="edge">
<title>Node1&#45;&gt;Node15</title>
<path fill="none" stroke="midnightblue" d="M45.2,-220.61C49.51,-189.47 66.95,-92.32 122,-39.5 123.25,-38.3 124.56,-37.16 125.93,-36.08"/>
<polygon fill="midnightblue" stroke="midnightblue" points="127.91,-38.96 134.25,-30.48 124,-33.16 127.91,-38.96"/>
</g>
<!-- Node6&#45;&gt;Node6 -->
<g id="edge6" class="edge">
<title>Node6&#45;&gt;Node6</title>
<path fill="none" stroke="midnightblue" d="M167,-262.26C156.05,-271.07 163.55,-280.5 189.5,-280.5 206.53,-280.5 215.61,-276.44 216.75,-271.15"/>
<polygon fill="midnightblue" stroke="midnightblue" points="219.8,-269.43 212,-262.26 213.62,-272.73 219.8,-269.43"/>
</g>
<!-- Node7 -->
<g id="node7" class="node">
<title>Node7</title>
<g id="a_node7"><a xlink:href="structlyra_1_1option__style.html#ad733f4434bb558b70262f04ae4b69e1d" target="_top" xlink:title=" ">
<polygon fill="white" stroke="black" points="293,-237.5 293,-267.5 394,-267.5 394,-237.5 293,-237.5"/>
<text text-anchor="start" x="301" y="-255.5" font-family="Helvetica,sans-Serif" font-size="10.00">lyra::option_style</text>
<text text-anchor="middle" x="343.5" y="-244.5" font-family="Helvetica,sans-Serif" font-size="10.00">::posix</text>
</a>
</g>
</g>
<!-- Node6&#45;&gt;Node7 -->
<g id="edge7" class="edge">
<title>Node6&#45;&gt;Node7</title>
<path fill="none" stroke="midnightblue" d="M232.84,-252.5C248.26,-252.5 266,-252.5 282.66,-252.5"/>
<polygon fill="midnightblue" stroke="midnightblue" points="282.85,-256 292.85,-252.5 282.85,-249 282.85,-256"/>
</g>
<!-- Node10 -->
<g id="node10" class="node">
<title>Node10</title>
<g id="a_node10"><a xlink:href="classlyra_1_1detail_1_1basic__result.html#aee577409a431e215136ffc0764e5432b" target="_top" xlink:title=" ">
<polygon fill="white" stroke="black" points="293,-149.5 293,-179.5 394,-179.5 394,-149.5 293,-149.5"/>
<text text-anchor="start" x="301" y="-167.5" font-family="Helvetica,sans-Serif" font-size="10.00">lyra::detail::basic</text>
<text text-anchor="middle" x="343.5" y="-156.5" font-family="Helvetica,sans-Serif" font-size="10.00">_result::ok</text>
</a>
</g>
</g>
<!-- Node9&#45;&gt;Node10 -->
<g id="edge10" class="edge">
<title>Node9&#45;&gt;Node10</title>
<path fill="none" stroke="midnightblue" d="M246.24,-164.5C258.03,-164.5 270.53,-164.5 282.48,-164.5"/>
<polygon fill="midnightblue" stroke="midnightblue" points="282.8,-168 292.8,-164.5 282.8,-161 282.8,-168"/>
</g>
<!-- Node11 -->
<g id="node11" class="node">
<title>Node11</title>
<g id="a_node11"><a xlink:href="classlyra_1_1detail_1_1basic__result.html#a2a6448a9babcc3d583edff8f13e076b9" target="_top" xlink:title=" ">
<polygon fill="white" stroke="black" points="430,-171.5 430,-201.5 544,-201.5 544,-171.5 430,-171.5"/>
<text text-anchor="start" x="438" y="-189.5" font-family="Helvetica,sans-Serif" font-size="10.00">lyra::detail::basic</text>
<text text-anchor="middle" x="487" y="-178.5" font-family="Helvetica,sans-Serif" font-size="10.00">_result::basic_result</text>
</a>
</g>
</g>
<!-- Node10&#45;&gt;Node11 -->
<g id="edge11" class="edge">
<title>Node10&#45;&gt;Node11</title>
<path fill="none" stroke="midnightblue" d="M394.39,-172.26C402.62,-173.54 411.27,-174.88 419.83,-176.21"/>
<polygon fill="midnightblue" stroke="midnightblue" points="419.39,-179.69 429.81,-177.76 420.47,-172.77 419.39,-179.69"/>
</g>
<!-- Node12 -->
<g id="node12" class="node">
<title>Node12</title>
<g id="a_node12"><a xlink:href="namespacelyra.html#a2138b812a6ac30b6abcab35c05664a64" target="_top" xlink:title=" ">
<polygon fill="white" stroke="black" points="459,-133 459,-152 515,-152 515,-133 459,-133"/>
<text text-anchor="middle" x="487" y="-140" font-family="Helvetica,sans-Serif" font-size="10.00">lyra::val</text>
</a>
</g>
</g>
<!-- Node10&#45;&gt;Node12 -->
<g id="edge12" class="edge">
<title>Node10&#45;&gt;Node12</title>
<path fill="none" stroke="midnightblue" d="M394.39,-156.74C412.31,-153.96 432.19,-150.87 448.85,-148.28"/>
<polygon fill="midnightblue" stroke="midnightblue" points="449.41,-151.73 458.75,-146.74 448.33,-144.81 449.41,-151.73"/>
</g>
<!-- Node13&#45;&gt;Node13 -->
<g id="edge14" class="edge">
<title>Node13&#45;&gt;Node13</title>
<path fill="none" stroke="midnightblue" d="M167,-118.26C156.05,-127.07 163.55,-136.5 189.5,-136.5 206.53,-136.5 215.61,-132.44 216.75,-127.15"/>
<polygon fill="midnightblue" stroke="midnightblue" points="219.8,-125.43 212,-118.26 213.62,-128.73 219.8,-125.43"/>
</g>
</g>
</svg>
        <g id="navigator" transform="translate(0 0)" fill="#404254">
                <rect fill="#f2f5e9" fill-opacity="0.5" stroke="#606060" stroke-width=".5" x="0" y="0" width="60" height="60"/>
                <use id="zoomplus" xlink:href="#zoomPlus" x="17" y="9" onmousedown="handleZoom(evt,'in')"/>
                <use id="zoomminus" xlink:href="#zoomMin" x="42" y="9" onmousedown="handleZoom(evt,'out')"/>
                <use id="reset" xlink:href="#resetDef" x="30" y="36" onmousedown="handleReset()"/>
                <g id="arrowUp" xlink:href="#dirArrow" transform="translate(30 24)" onmousedown="handlePan(0,-1)">
                  <use xlink:href="#rim" fill="#404040">
                        <set attributeName="fill" to="#808080" begin="arrowUp.mouseover" end="arrowUp.mouseout"/>
                  </use>
                  <path fill="none" stroke="white" stroke-width="1.5" d="M0,-3.0v7 M-2.5,-0.5L0,-3.0L2.5,-0.5"/>
                </g>
                <g id="arrowRight" xlink:href="#dirArrow" transform="rotate(90) translate(36 -43)" onmousedown="handlePan(1,0)">
                  <use xlink:href="#rim" fill="#404040">
                        <set attributeName="fill" to="#808080" begin="arrowRight.mouseover" end="arrowRight.mouseout"/>
                  </use>
                  <path fill="none" stroke="white" stroke-width="1.5" d="M0,-3.0v7 M-2.5,-0.5L0,-3.0L2.5,-0.5"/>
                </g>
                <g id="arrowDown" xlink:href="#dirArrow" transform="rotate(180) translate(-30 -48)" onmousedown="handlePan(0,1)">
                  <use xlink:href="#rim" fill="#404040">
                        <set attributeName="fill" to="#808080" begin="arrowDown.mouseover" end="arrowDown.mouseout"/>
                  </use>
                  <path fill="none" stroke="white" stroke-width="1.5" d="M0,-3.0v7 M-2.5,-0.5L0,-3.0L2.5,-0.5"/>
                </g>
                <g id="arrowLeft" xlink:href="#dirArrow" transform="rotate(270) translate(-36 17)" onmousedown="handlePan(-1,0)">
                  <use xlink:href="#rim" fill="#404040">
                        <set attributeName="fill" to="#808080" begin="arrowLeft.mouseover" end="arrowLeft.mouseout"/>
                  </use>
                  <path fill="none" stroke="white" stroke-width="1.5" d="M0,-3.0v7 M-2.5,-0.5L0,-3.0L2.5,-0.5"/>
                </g>
        </g>
        <svg viewBox="0 0 15 15" width="100%" height="30px" preserveAspectRatio="xMaxYMin meet">
         <g id="arrow_out" transform="scale(0.3 0.3)">
          <a xlink:href="classlyra_1_1cli_a49a8af627c74dfce2c2d594d4161116f_cgraph_org.svg" target="_base">
           <rect id="button" ry="5" rx="5" y="6" x="6" height="38" width="38"
                fill="#f2f5e9" fill-opacity="0.5" stroke="#606060" stroke-width="1.0"/>
           <path id="arrow"
             d="M 11.500037,31.436501 C 11.940474,20.09759 22.043105,11.32322 32.158766,21.979434 L 37.068811,17.246167 C 37.068811,17.246167 37.088388,32 37.088388,32 L 22.160133,31.978069 C 22.160133,31.978069 26.997745,27.140456 26.997745,27.140456 C 18.528582,18.264221 13.291696,25.230495 11.500037,31.436501 z"
             style="fill:#404040;"/>
          </a>
         </g>
        </svg>
</svg>
