<?xml version="1.0" encoding="UTF-8" standalone="no"?>
<!DOCTYPE svg PUBLIC "-//W3C//DTD SVG 1.1//EN"
 "http://www.w3.org/Graphics/SVG/1.1/DTD/svg11.dtd">
<!-- Generated by graphviz version 2.43.0 (0)
 -->
<!-- Title: MainNamespace::Surface::SingleSurface Pages: 1 -->
<svg width="1431pt" height="727pt"
 viewBox="0.00 0.00 1431.00 727.00" xmlns="http://www.w3.org/2000/svg" xmlns:xlink="http://www.w3.org/1999/xlink">
<g id="graph0" class="graph" transform="scale(1 1) rotate(0) translate(4 723)">
<title>MainNamespace::Surface::SingleSurface</title>
<polygon fill="white" stroke="transparent" points="-4,4 -4,-723 1427,-723 1427,4 -4,4"/>
<!-- Node1 -->
<g id="node1" class="node">
<title>Node1</title>
<g id="a_node1"><a xlink:title=" ">
<polygon fill="#bfbfbf" stroke="black" points="1282,-219 1282,-249 1423,-249 1423,-219 1282,-219"/>
<text text-anchor="start" x="1290" y="-237" font-family="Helvetica,sans-Serif" font-size="10.00">MainNamespace::Surface</text>
<text text-anchor="middle" x="1352.5" y="-226" font-family="Helvetica,sans-Serif" font-size="10.00">::SingleSurface</text>
</a>
</g>
</g>
<!-- Node2 -->
<g id="node2" class="node">
<title>Node2</title>
<g id="a_node2"><a xlink:href="struct_main_namespace_1_1_mesh.html" target="_top" xlink:title=" ">
<polygon fill="white" stroke="black" points="747.5,-520.5 747.5,-539.5 878.5,-539.5 878.5,-520.5 747.5,-520.5"/>
<text text-anchor="middle" x="813" y="-527.5" font-family="Helvetica,sans-Serif" font-size="10.00">MainNamespace::Mesh</text>
</a>
</g>
</g>
<!-- Node2&#45;&gt;Node1 -->
<g id="edge1" class="edge">
<title>Node2&#45;&gt;Node1</title>
<path fill="none" stroke="#9a32cd" stroke-dasharray="5,2" d="M888.84,-538.34C986.8,-544.95 1158.4,-541.15 1264,-451 1327.8,-396.54 1345.6,-288.74 1350.11,-249.09"/>
<polygon fill="#9a32cd" stroke="#9a32cd" points="888.96,-534.84 878.73,-537.6 888.45,-541.82 888.96,-534.84"/>
<text text-anchor="middle" x="1083" y="-542" font-family="Helvetica,sans-Serif" font-size="10.00"> mesh_</text>
</g>
<!-- Node24 -->
<g id="node24" class="node">
<title>Node24</title>
<g id="a_node24"><a xlink:href="class_main_namespace_1_1_mesh_reader.html" target="_top" xlink:title=" ">
<polygon fill="white" stroke="black" points="1000.5,-426.5 1000.5,-445.5 1165.5,-445.5 1165.5,-426.5 1000.5,-426.5"/>
<text text-anchor="middle" x="1083" y="-433.5" font-family="Helvetica,sans-Serif" font-size="10.00">MainNamespace::MeshReader</text>
</a>
</g>
</g>
<!-- Node2&#45;&gt;Node24 -->
<g id="edge33" class="edge">
<title>Node2&#45;&gt;Node24</title>
<path fill="none" stroke="#9a32cd" stroke-dasharray="5,2" d="M870.35,-518.05C879.31,-515.87 888.44,-513.5 897,-511 906.51,-508.22 971.8,-484.69 981,-481 1009.33,-469.65 1041.43,-455.04 1061.69,-445.6"/>
<polygon fill="#9a32cd" stroke="#9a32cd" points="869.28,-514.7 860.35,-520.41 870.88,-521.52 869.28,-514.7"/>
<text text-anchor="middle" x="948" y="-507" font-family="Helvetica,sans-Serif" font-size="10.00"> mesh_</text>
</g>
<!-- Node3 -->
<g id="node3" class="node">
<title>Node3</title>
<g id="a_node3"><a xlink:title=" ">
<polygon fill="white" stroke="black" points="427,-409.5 427,-428.5 500,-428.5 500,-409.5 427,-409.5"/>
<text text-anchor="middle" x="463.5" y="-416.5" font-family="Helvetica,sans-Serif" font-size="10.00">surface3d *</text>
</a>
</g>
</g>
<!-- Node3&#45;&gt;Node1 -->
<g id="edge8" class="edge">
<title>Node3&#45;&gt;Node1</title>
<path fill="none" stroke="#9a32cd" stroke-dasharray="5,2" d="M510.3,-418.74C601.2,-417.34 810.36,-409.77 981,-371 1110.74,-341.52 1256.61,-278.05 1319.66,-249.03"/>
<polygon fill="#9a32cd" stroke="#9a32cd" points="510.02,-415.24 500.07,-418.87 510.12,-422.24 510.02,-415.24"/>
<text text-anchor="middle" x="948" y="-386" font-family="Helvetica,sans-Serif" font-size="10.00"> geometry_</text>
</g>
<!-- Node3&#45;&gt;Node2 -->
<g id="edge2" class="edge">
<title>Node3&#45;&gt;Node2</title>
<path fill="none" stroke="#9a32cd" stroke-dasharray="5,2" d="M510.49,-417.86C573.37,-417.29 681.73,-420.11 711,-445 734.16,-464.7 707.06,-489.95 729,-511 734.23,-516.02 740.49,-519.81 747.21,-522.66"/>
<polygon fill="#9a32cd" stroke="#9a32cd" points="510.39,-414.37 500.43,-417.99 510.47,-421.37 510.39,-414.37"/>
<text text-anchor="middle" x="645.5" y="-448" font-family="Helvetica,sans-Serif" font-size="10.00"> mesh_</text>
</g>
<!-- Node4 -->
<g id="node4" class="node">
<title>Node4</title>
<g id="a_node4"><a xlink:title=" ">
<polygon fill="white" stroke="black" points="372,-475.5 372,-494.5 555,-494.5 555,-475.5 372,-475.5"/>
<text text-anchor="middle" x="463.5" y="-482.5" font-family="Helvetica,sans-Serif" font-size="10.00">std::vector&lt; MembershipVector &gt;</text>
</a>
</g>
</g>
<!-- Node4&#45;&gt;Node2 -->
<g id="edge3" class="edge">
<title>Node4&#45;&gt;Node2</title>
<path fill="none" stroke="#9a32cd" stroke-dasharray="5,2" d="M524.2,-473.73C587.15,-463.21 681.25,-451.76 711,-471 727.37,-481.59 713.92,-498.64 729,-511 734.37,-515.4 740.57,-518.83 747.11,-521.49"/>
<polygon fill="#9a32cd" stroke="#9a32cd" points="523.26,-470.34 513.99,-475.47 524.44,-477.24 523.26,-470.34"/>
<text text-anchor="middle" x="645.5" y="-474" font-family="Helvetica,sans-Serif" font-size="10.00"> membership_</text>
</g>
<!-- Node5 -->
<g id="node5" class="node">
<title>Node5</title>
<g id="a_node5"><a xlink:title=" ">
<polygon fill="white" stroke="black" points="114,-509.5 114,-528.5 211,-528.5 211,-509.5 114,-509.5"/>
<text text-anchor="middle" x="162.5" y="-516.5" font-family="Helvetica,sans-Serif" font-size="10.00">std::vector&lt; T &gt;</text>
</a>
</g>
</g>
<!-- Node5&#45;&gt;Node4 -->
<g id="edge4" class="edge">
<title>Node5&#45;&gt;Node4</title>
<path fill="none" stroke="#9a32cd" stroke-dasharray="5,2" d="M221.32,-512.43C266.04,-507.34 328.58,-500.23 378.77,-494.52"/>
<polygon fill="#9a32cd" stroke="#9a32cd" points="220.75,-508.97 211.21,-513.58 221.54,-515.92 220.75,-508.97"/>
<text text-anchor="middle" x="288" y="-513" font-family="Helvetica,sans-Serif" font-size="10.00"> elements</text>
</g>
<!-- Node5&#45;&gt;Node4 -->
<g id="edge6" class="edge">
<title>Node5&#45;&gt;Node4</title>
<path fill="none" stroke="orange" stroke-dasharray="5,2" d="M185.32,-503.83C197.56,-496.26 213.45,-487.89 229,-484 281.4,-470.88 342.51,-471.69 389.07,-475.48"/>
<polygon fill="orange" stroke="orange" points="183.24,-501.02 176.74,-509.39 187.04,-506.89 183.24,-501.02"/>
<text text-anchor="middle" x="288" y="-487" font-family="Helvetica,sans-Serif" font-size="10.00"> &lt; MembershipVector &gt;</text>
</g>
<!-- Node8 -->
<g id="node8" class="node">
<title>Node8</title>
<g id="a_node8"><a xlink:title=" ">
<polygon fill="white" stroke="black" points="757,-641.5 757,-660.5 869,-660.5 869,-641.5 757,-641.5"/>
<text text-anchor="middle" x="813" y="-648.5" font-family="Helvetica,sans-Serif" font-size="10.00">std::vector&lt; bool &gt;</text>
</a>
</g>
</g>
<!-- Node5&#45;&gt;Node8 -->
<g id="edge11" class="edge">
<title>Node5&#45;&gt;Node8</title>
<path fill="none" stroke="orange" stroke-dasharray="5,2" d="M172.26,-537.51C183.12,-558.87 203.36,-593.99 229,-617 279.75,-662.54 298.78,-671.75 365,-688 514.39,-724.65 559.31,-705.51 711,-680 736.55,-675.7 764.83,-667.25 784.95,-660.57"/>
<polygon fill="orange" stroke="orange" points="175.38,-535.93 167.83,-528.5 169.1,-539.02 175.38,-535.93"/>
<text text-anchor="middle" x="463.5" y="-711" font-family="Helvetica,sans-Serif" font-size="10.00"> &lt; bool &gt;</text>
</g>
<!-- Node27 -->
<g id="node27" class="node">
<title>Node27</title>
<g id="a_node27"><a xlink:title=" ">
<polygon fill="white" stroke="black" points="753.5,-573.5 753.5,-592.5 872.5,-592.5 872.5,-573.5 753.5,-573.5"/>
<text text-anchor="middle" x="813" y="-580.5" font-family="Helvetica,sans-Serif" font-size="10.00">std::vector&lt; size_t &gt;</text>
</a>
</g>
</g>
<!-- Node5&#45;&gt;Node27 -->
<g id="edge36" class="edge">
<title>Node5&#45;&gt;Node27</title>
<path fill="none" stroke="orange" stroke-dasharray="5,2" d="M182.5,-535.17C216.49,-563 291.09,-619.27 365,-643 438.28,-666.53 642.83,-693.72 711,-658 723.45,-651.48 718.71,-641.57 729,-632 747.26,-615.02 772.38,-601.2 790.19,-592.62"/>
<polygon fill="orange" stroke="orange" points="184.69,-532.43 174.76,-528.74 180.22,-537.82 184.69,-532.43"/>
<text text-anchor="middle" x="463.5" y="-676" font-family="Helvetica,sans-Serif" font-size="10.00"> &lt; size_t &gt;</text>
</g>
<!-- Node6 -->
<g id="node6" class="node">
<title>Node6</title>
<g id="a_node6"><a xlink:title=" ">
<polygon fill="white" stroke="black" points="0,-207.5 0,-226.5 29,-226.5 29,-207.5 0,-207.5"/>
<text text-anchor="middle" x="14.5" y="-214.5" font-family="Helvetica,sans-Serif" font-size="10.00">T</text>
</a>
</g>
</g>
<!-- Node6&#45;&gt;Node5 -->
<g id="edge5" class="edge">
<title>Node6&#45;&gt;Node5</title>
<path fill="none" stroke="#9a32cd" stroke-dasharray="5,2" d="M20.29,-236.33C25.66,-256.79 35.18,-289.84 47,-317 80.78,-394.62 136.19,-480.82 155.01,-509.3"/>
<polygon fill="#9a32cd" stroke="#9a32cd" points="23.67,-235.44 17.81,-226.62 16.89,-237.17 23.67,-235.44"/>
<text text-anchor="middle" x="71.5" y="-410" font-family="Helvetica,sans-Serif" font-size="10.00"> elements</text>
</g>
<!-- Node12 -->
<g id="node12" class="node">
<title>Node12</title>
<g id="a_node12"><a xlink:title=" ">
<polygon fill="white" stroke="black" points="242,-207.5 242,-226.5 334,-226.5 334,-207.5 242,-207.5"/>
<text text-anchor="middle" x="288" y="-214.5" font-family="Helvetica,sans-Serif" font-size="10.00">std::array&lt; T &gt;</text>
</a>
</g>
</g>
<!-- Node6&#45;&gt;Node12 -->
<g id="edge15" class="edge">
<title>Node6&#45;&gt;Node12</title>
<path fill="none" stroke="#9a32cd" stroke-dasharray="5,2" d="M39.39,-217C84.68,-217 183.69,-217 241.85,-217"/>
<polygon fill="#9a32cd" stroke="#9a32cd" points="39.34,-213.5 29.34,-217 39.34,-220.5 39.34,-213.5"/>
<text text-anchor="middle" x="71.5" y="-220" font-family="Helvetica,sans-Serif" font-size="10.00"> elements</text>
</g>
<!-- Node14 -->
<g id="node14" class="node">
<title>Node14</title>
<g id="a_node14"><a xlink:title=" ">
<polygon fill="white" stroke="black" points="116.5,-167.5 116.5,-186.5 208.5,-186.5 208.5,-167.5 116.5,-167.5"/>
<text text-anchor="middle" x="162.5" y="-174.5" font-family="Helvetica,sans-Serif" font-size="10.00">std::array&lt; T &gt;</text>
</a>
</g>
</g>
<!-- Node6&#45;&gt;Node14 -->
<g id="edge18" class="edge">
<title>Node6&#45;&gt;Node14</title>
<path fill="none" stroke="#9a32cd" stroke-dasharray="5,2" d="M28.21,-199.02C33.34,-193.19 39.76,-187.36 47,-184 68.4,-174.06 94.53,-171.82 116.41,-172.28"/>
<polygon fill="#9a32cd" stroke="#9a32cd" points="25.14,-197.27 21.69,-207.29 30.63,-201.61 25.14,-197.27"/>
<text text-anchor="middle" x="71.5" y="-187" font-family="Helvetica,sans-Serif" font-size="10.00"> elements</text>
</g>
<!-- Node16 -->
<g id="node16" class="node">
<title>Node16</title>
<g id="a_node16"><a xlink:title=" ">
<polygon fill="white" stroke="black" points="242,-122.5 242,-141.5 334,-141.5 334,-122.5 242,-122.5"/>
<text text-anchor="middle" x="288" y="-129.5" font-family="Helvetica,sans-Serif" font-size="10.00">std::array&lt; T &gt;</text>
</a>
</g>
</g>
<!-- Node6&#45;&gt;Node16 -->
<g id="edge21" class="edge">
<title>Node6&#45;&gt;Node16</title>
<path fill="none" stroke="#9a32cd" stroke-dasharray="5,2" d="M20.45,-197.49C24.99,-183.82 33.17,-166.37 47,-157 105.09,-117.64 189.91,-119.08 241.61,-124.78"/>
<polygon fill="#9a32cd" stroke="#9a32cd" points="16.99,-196.84 17.55,-207.42 23.71,-198.8 16.99,-196.84"/>
<text text-anchor="middle" x="71.5" y="-160" font-family="Helvetica,sans-Serif" font-size="10.00"> elements</text>
</g>
<!-- Node30 -->
<g id="node30" class="node">
<title>Node30</title>
<g id="a_node30"><a xlink:title=" ">
<polygon fill="white" stroke="black" points="417.5,-333.5 417.5,-352.5 509.5,-352.5 509.5,-333.5 417.5,-333.5"/>
<text text-anchor="middle" x="463.5" y="-340.5" font-family="Helvetica,sans-Serif" font-size="10.00">std::array&lt; T &gt;</text>
</a>
</g>
</g>
<!-- Node6&#45;&gt;Node30 -->
<g id="edge40" class="edge">
<title>Node6&#45;&gt;Node30</title>
<path fill="none" stroke="#9a32cd" stroke-dasharray="5,2" d="M38.42,-228.44C41.28,-229.71 44.19,-230.93 47,-232 184.54,-284.25 221.98,-289.45 365,-324 381.93,-328.09 400.68,-331.91 417.17,-335.04"/>
<polygon fill="#9a32cd" stroke="#9a32cd" points="39.63,-225.14 29.09,-224.07 36.66,-231.48 39.63,-225.14"/>
<text text-anchor="middle" x="162.5" y="-289" font-family="Helvetica,sans-Serif" font-size="10.00"> elements</text>
</g>
<!-- Node7 -->
<g id="node7" class="node">
<title>Node7</title>
<g id="a_node7"><a xlink:title=" ">
<polygon fill="white" stroke="black" points="441,-528.5 441,-547.5 486,-547.5 486,-528.5 441,-528.5"/>
<text text-anchor="middle" x="463.5" y="-535.5" font-family="Helvetica,sans-Serif" font-size="10.00">size_t</text>
</a>
</g>
</g>
<!-- Node7&#45;&gt;Node2 -->
<g id="edge7" class="edge">
<title>Node7&#45;&gt;Node2</title>
<path fill="none" stroke="#9a32cd" stroke-dasharray="5,2" d="M496.4,-537.27C553.18,-535.96 672.77,-533.21 747.34,-531.49"/>
<polygon fill="#9a32cd" stroke="#9a32cd" points="496.15,-533.77 486.24,-537.5 496.32,-540.77 496.15,-533.77"/>
<text text-anchor="middle" x="645.5" y="-549" font-family="Helvetica,sans-Serif" font-size="10.00"> triangleDofs_</text>
<text text-anchor="middle" x="645.5" y="-538" font-family="Helvetica,sans-Serif" font-size="10.00">vertexDofs_</text>
</g>
<!-- Node7&#45;&gt;Node27 -->
<g id="edge35" class="edge">
<title>Node7&#45;&gt;Node27</title>
<path fill="none" stroke="#9a32cd" stroke-dasharray="5,2" d="M496.04,-545.19C519.17,-550.23 551.41,-556.81 580,-561 638.64,-569.6 706.15,-575.56 753.16,-579.09"/>
<polygon fill="#9a32cd" stroke="#9a32cd" points="496.62,-541.73 486.1,-542.99 495.11,-548.56 496.62,-541.73"/>
<text text-anchor="middle" x="645.5" y="-578" font-family="Helvetica,sans-Serif" font-size="10.00"> elements</text>
</g>
<!-- Node32 -->
<g id="node32" class="node">
<title>Node32</title>
<g id="a_node32"><a xlink:title=" ">
<polygon fill="white" stroke="black" points="760,-422 760,-452 866,-452 866,-422 760,-422"/>
<text text-anchor="start" x="768" y="-440" font-family="Helvetica,sans-Serif" font-size="10.00">std::array&lt; size_t,</text>
<text text-anchor="middle" x="813" y="-429" font-family="Helvetica,sans-Serif" font-size="10.00"> size&lt; View &gt;()&gt;</text>
</a>
</g>
</g>
<!-- Node7&#45;&gt;Node32 -->
<g id="edge45" class="edge">
<title>Node7&#45;&gt;Node32</title>
<path fill="none" stroke="#9a32cd" stroke-dasharray="5,2" d="M496.48,-531.86C558.9,-519.71 692.53,-492.84 711,-482 721.31,-475.95 718.9,-468.41 729,-462 738.28,-456.12 749.01,-451.55 759.62,-448.04"/>
<polygon fill="#9a32cd" stroke="#9a32cd" points="495.54,-528.48 486.39,-533.81 496.88,-535.35 495.54,-528.48"/>
<text text-anchor="middle" x="645.5" y="-516" font-family="Helvetica,sans-Serif" font-size="10.00"> elements</text>
</g>
<!-- Node8&#45;&gt;Node1 -->
<g id="edge9" class="edge">
<title>Node8&#45;&gt;Node1</title>
<path fill="none" stroke="#9a32cd" stroke-dasharray="5,2" d="M879.24,-648.36C979.95,-640.43 1171.32,-609.27 1264,-488 1323.05,-410.73 1343.95,-290.84 1349.68,-249.01"/>
<polygon fill="#9a32cd" stroke="#9a32cd" points="878.91,-644.87 869.19,-649.1 879.42,-651.86 878.91,-644.87"/>
<text text-anchor="middle" x="1083" y="-633" font-family="Helvetica,sans-Serif" font-size="10.00"> orient_</text>
</g>
<!-- Node9 -->
<g id="node9" class="node">
<title>Node9</title>
<g id="a_node9"><a xlink:title=" ">
<polygon fill="white" stroke="black" points="444.5,-614.5 444.5,-633.5 482.5,-633.5 482.5,-614.5 444.5,-614.5"/>
<text text-anchor="middle" x="463.5" y="-621.5" font-family="Helvetica,sans-Serif" font-size="10.00">bool</text>
</a>
</g>
</g>
<!-- Node9&#45;&gt;Node8 -->
<g id="edge10" class="edge">
<title>Node9&#45;&gt;Node8</title>
<path fill="none" stroke="#9a32cd" stroke-dasharray="5,2" d="M492.87,-626.2C550.41,-630.68 681.77,-640.88 756.78,-646.71"/>
<polygon fill="#9a32cd" stroke="#9a32cd" points="492.93,-622.7 482.69,-625.41 492.39,-629.68 492.93,-622.7"/>
<text text-anchor="middle" x="645.5" y="-646" font-family="Helvetica,sans-Serif" font-size="10.00"> elements</text>
</g>
<!-- Node31 -->
<g id="node31" class="node">
<title>Node31</title>
<g id="a_node31"><a xlink:title=" ">
<polygon fill="white" stroke="black" points="752.5,-471 752.5,-501 873.5,-501 873.5,-471 752.5,-471"/>
<text text-anchor="start" x="760.5" y="-489" font-family="Helvetica,sans-Serif" font-size="10.00">std::array&lt; bool, size</text>
<text text-anchor="middle" x="813" y="-478" font-family="Helvetica,sans-Serif" font-size="10.00">&lt; View &gt;()&gt;</text>
</a>
</g>
</g>
<!-- Node9&#45;&gt;Node31 -->
<g id="edge42" class="edge">
<title>Node9&#45;&gt;Node31</title>
<path fill="none" stroke="#9a32cd" stroke-dasharray="5,2" d="M492.88,-621.89C554.26,-617.08 695.12,-604.56 711,-590 737.55,-565.67 704.42,-537.32 729,-511 735.37,-504.18 743.52,-499.2 752.22,-495.56"/>
<polygon fill="#9a32cd" stroke="#9a32cd" points="492.43,-618.42 482.73,-622.67 492.97,-625.4 492.43,-618.42"/>
<text text-anchor="middle" x="645.5" y="-617" font-family="Helvetica,sans-Serif" font-size="10.00"> elements</text>
</g>
<!-- Node10 -->
<g id="node10" class="node">
<title>Node10</title>
<g id="a_node10"><a xlink:title=" ">
<polygon fill="white" stroke="black" points="1026,-178.5 1026,-197.5 1140,-197.5 1140,-178.5 1026,-178.5"/>
<text text-anchor="middle" x="1083" y="-185.5" font-family="Helvetica,sans-Serif" font-size="10.00">IndexSpace&lt; uint &gt;</text>
</a>
</g>
</g>
<!-- Node10&#45;&gt;Node1 -->
<g id="edge12" class="edge">
<title>Node10&#45;&gt;Node1</title>
<path fill="none" stroke="#9a32cd" stroke-dasharray="5,2" d="M1150.63,-193.18C1184.74,-196.48 1226.81,-201.57 1264,-209 1277.17,-211.63 1291.24,-215.27 1304.16,-218.96"/>
<polygon fill="#9a32cd" stroke="#9a32cd" points="1150.6,-189.66 1140.31,-192.21 1149.94,-196.63 1150.6,-189.66"/>
<text text-anchor="middle" x="1224.5" y="-212" font-family="Helvetica,sans-Serif" font-size="10.00"> indices_</text>
</g>
<!-- Node11 -->
<g id="node11" class="node">
<title>Node11</title>
<g id="a_node11"><a xlink:href="class_main_namespace_1_1_pointer_array.html" target="_top" xlink:title=" ">
<polygon fill="white" stroke="black" points="730.5,-202 730.5,-232 895.5,-232 895.5,-202 730.5,-202"/>
<text text-anchor="start" x="738.5" y="-220" font-family="Helvetica,sans-Serif" font-size="10.00">MainNamespace::PointerArray</text>
<text text-anchor="middle" x="813" y="-209" font-family="Helvetica,sans-Serif" font-size="10.00">&lt; cluster &gt;</text>
</a>
</g>
</g>
<!-- Node11&#45;&gt;Node1 -->
<g id="edge13" class="edge">
<title>Node11&#45;&gt;Node1</title>
<path fill="none" stroke="#9a32cd" stroke-dasharray="5,2" d="M868.4,-235.2C887.03,-241.1 905.55,-246.52 915,-248 1068.26,-271.92 1109.44,-261.09 1264,-248 1269.83,-247.51 1275.85,-246.85 1281.88,-246.09"/>
<polygon fill="#9a32cd" stroke="#9a32cd" points="869.29,-231.81 858.7,-232.08 867.15,-238.47 869.29,-231.81"/>
<text text-anchor="middle" x="1083" y="-265" font-family="Helvetica,sans-Serif" font-size="10.00"> clusters_</text>
</g>
<!-- Node12&#45;&gt;Node11 -->
<g id="edge14" class="edge">
<title>Node12&#45;&gt;Node11</title>
<path fill="none" stroke="midnightblue" d="M344.3,-217C436.73,-217 623.01,-217 730.49,-217"/>
<polygon fill="midnightblue" stroke="midnightblue" points="344.04,-213.5 334.04,-217 344.04,-220.5 344.04,-213.5"/>
</g>
<!-- Node13 -->
<g id="node13" class="node">
<title>Node13</title>
<g id="a_node13"><a xlink:href="class_main_namespace_1_1_pointer_array.html" target="_top" xlink:title=" ">
<polygon fill="white" stroke="black" points="365,-158 365,-188 562,-188 562,-158 365,-158"/>
<text text-anchor="start" x="373" y="-176" font-family="Helvetica,sans-Serif" font-size="10.00">MainNamespace::PointerArray</text>
<text text-anchor="middle" x="463.5" y="-165" font-family="Helvetica,sans-Serif" font-size="10.00">&lt; BaseValues, length, ActualValue &gt;</text>
</a>
</g>
</g>
<!-- Node13&#45;&gt;Node11 -->
<g id="edge16" class="edge">
<title>Node13&#45;&gt;Node11</title>
<path fill="none" stroke="orange" stroke-dasharray="5,2" d="M572.11,-177.41C615.45,-180.2 665.79,-184.71 711,-192 726.52,-194.5 743.15,-198.19 758.35,-201.97"/>
<polygon fill="orange" stroke="orange" points="572.31,-173.92 562.11,-176.79 571.88,-180.91 572.31,-173.92"/>
<text text-anchor="middle" x="645.5" y="-195" font-family="Helvetica,sans-Serif" font-size="10.00"> &lt; cluster &gt;</text>
</g>
<!-- Node15 -->
<g id="node15" class="node">
<title>Node15</title>
<g id="a_node15"><a xlink:href="class_main_namespace_1_1_pointer_array.html" target="_top" xlink:title=" ">
<polygon fill="white" stroke="black" points="730.5,-142 730.5,-172 895.5,-172 895.5,-142 730.5,-142"/>
<text text-anchor="start" x="738.5" y="-160" font-family="Helvetica,sans-Serif" font-size="10.00">MainNamespace::PointerArray</text>
<text text-anchor="middle" x="813" y="-149" font-family="Helvetica,sans-Serif" font-size="10.00">&lt; dcluster &gt;</text>
</a>
</g>
</g>
<!-- Node13&#45;&gt;Node15 -->
<g id="edge22" class="edge">
<title>Node13&#45;&gt;Node15</title>
<path fill="none" stroke="orange" stroke-dasharray="5,2" d="M572.24,-158.57C574.85,-158.36 577.44,-158.17 580,-158 629.83,-154.67 685.82,-154.33 730.31,-154.87"/>
<polygon fill="orange" stroke="orange" points="571.75,-155.1 562.09,-159.46 572.35,-162.07 571.75,-155.1"/>
<text text-anchor="middle" x="645.5" y="-161" font-family="Helvetica,sans-Serif" font-size="10.00"> &lt; dcluster &gt;</text>
</g>
<!-- Node14&#45;&gt;Node13 -->
<g id="edge17" class="edge">
<title>Node14&#45;&gt;Node13</title>
<path fill="none" stroke="midnightblue" d="M218.63,-176.26C259.56,-175.71 316.46,-174.95 365,-174.3"/>
<polygon fill="midnightblue" stroke="midnightblue" points="218.54,-172.76 208.59,-176.4 218.63,-179.76 218.54,-172.76"/>
</g>
<!-- Node15&#45;&gt;Node1 -->
<g id="edge19" class="edge">
<title>Node15&#45;&gt;Node1</title>
<path fill="none" stroke="#9a32cd" stroke-dasharray="5,2" d="M870.14,-175.12C906.5,-186.12 955.09,-199.45 999,-207 1096.24,-223.71 1210.35,-230.08 1281.8,-232.51"/>
<polygon fill="#9a32cd" stroke="#9a32cd" points="870.81,-171.67 860.22,-172.09 868.76,-178.36 870.81,-171.67"/>
<text text-anchor="middle" x="1083" y="-229" font-family="Helvetica,sans-Serif" font-size="10.00"> directionalClusters_</text>
</g>
<!-- Node16&#45;&gt;Node15 -->
<g id="edge20" class="edge">
<title>Node16&#45;&gt;Node15</title>
<path fill="none" stroke="midnightblue" d="M344.72,-133.91C425.49,-136.77 579.79,-142.66 711,-150 717.32,-150.35 723.86,-150.75 730.43,-151.16"/>
<polygon fill="midnightblue" stroke="midnightblue" points="344.41,-130.39 334.3,-133.54 344.17,-137.39 344.41,-130.39"/>
</g>
<!-- Node17 -->
<g id="node17" class="node">
<title>Node17</title>
<g id="a_node17"><a xlink:title=" ">
<polygon fill="white" stroke="black" points="1004,-129 1004,-159 1162,-159 1162,-129 1004,-129"/>
<text text-anchor="start" x="1012" y="-147" font-family="Helvetica,sans-Serif" font-size="10.00">Operators&lt; MainNamespace</text>
<text text-anchor="middle" x="1083" y="-136" font-family="Helvetica,sans-Serif" font-size="10.00">::DH2MatrixWrapper &gt;</text>
</a>
</g>
</g>
<!-- Node17&#45;&gt;Node1 -->
<g id="edge23" class="edge">
<title>Node17&#45;&gt;Node1</title>
<path fill="none" stroke="#9a32cd" stroke-dasharray="5,2" d="M1172.27,-155.93C1202.04,-161.58 1235.05,-169.65 1264,-181 1288.47,-190.6 1313.89,-206.81 1330.99,-218.78"/>
<polygon fill="#9a32cd" stroke="#9a32cd" points="1172.78,-152.47 1162.31,-154.11 1171.52,-159.35 1172.78,-152.47"/>
<text text-anchor="middle" x="1224.5" y="-184" font-family="Helvetica,sans-Serif" font-size="10.00"> operators_</text>
</g>
<!-- Node18 -->
<g id="node18" class="node">
<title>Node18</title>
<g id="a_node18"><a xlink:href="class_main_namespace_1_1_dumb_pointer.html" target="_top" xlink:title=" ">
<polygon fill="white" stroke="black" points="999,-80 999,-110 1167,-110 1167,-80 999,-80"/>
<text text-anchor="start" x="1007" y="-98" font-family="Helvetica,sans-Serif" font-size="10.00">MainNamespace::DumbPointer</text>
<text text-anchor="middle" x="1083" y="-87" font-family="Helvetica,sans-Serif" font-size="10.00">&lt; avector &gt;</text>
</a>
</g>
</g>
<!-- Node18&#45;&gt;Node1 -->
<g id="edge24" class="edge">
<title>Node18&#45;&gt;Node1</title>
<path fill="none" stroke="#9a32cd" stroke-dasharray="5,2" d="M1176.83,-109.61C1206.07,-116.81 1237.59,-127.43 1264,-143 1297.42,-162.71 1326.45,-198.66 1341.19,-218.98"/>
<polygon fill="#9a32cd" stroke="#9a32cd" points="1177.55,-106.18 1167.01,-107.29 1175.94,-112.99 1177.55,-106.18"/>
<text text-anchor="middle" x="1224.5" y="-146" font-family="Helvetica,sans-Serif" font-size="10.00"> offset_</text>
</g>
<!-- Node19 -->
<g id="node19" class="node">
<title>Node19</title>
<g id="a_node19"><a xlink:href="classavector_01_5.html" target="_top" xlink:title=" ">
<polygon fill="white" stroke="black" points="782,-41.5 782,-60.5 844,-60.5 844,-41.5 782,-41.5"/>
<text text-anchor="middle" x="813" y="-48.5" font-family="Helvetica,sans-Serif" font-size="10.00">avector *</text>
</a>
</g>
</g>
<!-- Node19&#45;&gt;Node18 -->
<g id="edge25" class="edge">
<title>Node19&#45;&gt;Node18</title>
<path fill="none" stroke="#9a32cd" stroke-dasharray="5,2" d="M854.41,-57.63C892.5,-63.89 950.75,-73.45 998.79,-81.34"/>
<polygon fill="#9a32cd" stroke="#9a32cd" points="854.66,-54.13 844.22,-55.96 853.52,-61.04 854.66,-54.13"/>
<text text-anchor="middle" x="948" y="-81" font-family="Helvetica,sans-Serif" font-size="10.00"> data_</text>
</g>
<!-- Node20 -->
<g id="node20" class="node">
<title>Node20</title>
<g id="a_node20"><a xlink:href="class_main_namespace_1_1_dumb_pointer.html" target="_top" xlink:title=" ">
<polygon fill="white" stroke="black" points="729,-80 729,-110 897,-110 897,-80 729,-80"/>
<text text-anchor="start" x="737" y="-98" font-family="Helvetica,sans-Serif" font-size="10.00">MainNamespace::DumbPointer</text>
<text text-anchor="middle" x="813" y="-87" font-family="Helvetica,sans-Serif" font-size="10.00">&lt; BaseData &gt;</text>
</a>
</g>
</g>
<!-- Node20&#45;&gt;Node18 -->
<g id="edge26" class="edge">
<title>Node20&#45;&gt;Node18</title>
<path fill="none" stroke="orange" stroke-dasharray="5,2" d="M907.68,-95C937.32,-95 969.86,-95 998.72,-95"/>
<polygon fill="orange" stroke="orange" points="907.33,-91.5 897.33,-95 907.33,-98.5 907.33,-91.5"/>
<text text-anchor="middle" x="948" y="-98" font-family="Helvetica,sans-Serif" font-size="10.00"> &lt; avector &gt;</text>
</g>
<!-- Node21 -->
<g id="node21" class="node">
<title>Node21</title>
<g id="a_node21"><a xlink:title=" ">
<polygon fill="white" stroke="black" points="427.5,-76.5 427.5,-95.5 499.5,-95.5 499.5,-76.5 427.5,-76.5"/>
<text text-anchor="middle" x="463.5" y="-83.5" font-family="Helvetica,sans-Serif" font-size="10.00">BaseData *</text>
</a>
</g>
</g>
<!-- Node21&#45;&gt;Node20 -->
<g id="edge27" class="edge">
<title>Node21&#45;&gt;Node20</title>
<path fill="none" stroke="#9a32cd" stroke-dasharray="5,2" d="M509.94,-87.18C565.38,-88.61 660.17,-91.07 728.8,-92.85"/>
<polygon fill="#9a32cd" stroke="#9a32cd" points="509.82,-83.67 499.73,-86.91 509.64,-90.67 509.82,-83.67"/>
<text text-anchor="middle" x="645.5" y="-95" font-family="Helvetica,sans-Serif" font-size="10.00"> data_</text>
</g>
<!-- Node22 -->
<g id="node22" class="node">
<title>Node22</title>
<g id="a_node22"><a xlink:title=" ">
<polygon fill="white" stroke="black" points="1064,-41.5 1064,-60.5 1102,-60.5 1102,-41.5 1064,-41.5"/>
<text text-anchor="middle" x="1083" y="-48.5" font-family="Helvetica,sans-Serif" font-size="10.00">field</text>
</a>
</g>
</g>
<!-- Node22&#45;&gt;Node1 -->
<g id="edge28" class="edge">
<title>Node22&#45;&gt;Node1</title>
<path fill="none" stroke="#9a32cd" stroke-dasharray="5,2" d="M1112.56,-49.65C1150.57,-49.29 1218.31,-53.76 1264,-86 1311.8,-119.73 1337.7,-188.57 1347.21,-218.98"/>
<polygon fill="#9a32cd" stroke="#9a32cd" points="1112.14,-46.16 1102.22,-49.88 1112.29,-53.16 1112.14,-46.16"/>
<text text-anchor="middle" x="1224.5" y="-100" font-family="Helvetica,sans-Serif" font-size="10.00"> stabilizer_</text>
<text text-anchor="middle" x="1224.5" y="-89" font-family="Helvetica,sans-Serif" font-size="10.00">waveNumber_</text>
</g>
<!-- Node23 -->
<g id="node23" class="node">
<title>Node23</title>
<g id="a_node23"><a xlink:title=" ">
<polygon fill="white" stroke="black" points="1065.5,-0.5 1065.5,-19.5 1100.5,-19.5 1100.5,-0.5 1065.5,-0.5"/>
<text text-anchor="middle" x="1083" y="-7.5" font-family="Helvetica,sans-Serif" font-size="10.00">real</text>
</a>
</g>
</g>
<!-- Node23&#45;&gt;Node1 -->
<g id="edge29" class="edge">
<title>Node23&#45;&gt;Node1</title>
<path fill="none" stroke="#9a32cd" stroke-dasharray="5,2" d="M1110.88,-5.04C1148.9,0.4 1218.8,4.39 1264,-29 1327.96,-76.25 1345.62,-179.74 1350.1,-218.73"/>
<polygon fill="#9a32cd" stroke="#9a32cd" points="1109.94,-1.64 1100.6,-6.66 1111.03,-8.56 1109.94,-1.64"/>
<text text-anchor="middle" x="1224.5" y="-43" font-family="Helvetica,sans-Serif" font-size="10.00"> density_</text>
<text text-anchor="middle" x="1224.5" y="-32" font-family="Helvetica,sans-Serif" font-size="10.00">stiffness_</text>
</g>
<!-- Node24&#45;&gt;Node1 -->
<g id="edge30" class="edge">
<title>Node24&#45;&gt;Node1</title>
<path fill="none" stroke="#9a32cd" stroke-dasharray="5,2" d="M1176.09,-437.45C1206.46,-433.91 1238.86,-425.37 1264,-407 1318.48,-367.18 1341.3,-283.61 1348.63,-249.25"/>
<polygon fill="#9a32cd" stroke="#9a32cd" points="1175.49,-434 1165.88,-438.47 1176.18,-440.96 1175.49,-434"/>
<text text-anchor="middle" x="1224.5" y="-439" font-family="Helvetica,sans-Serif" font-size="10.00"> gmshInterface_</text>
</g>
<!-- Node25 -->
<g id="node25" class="node">
<title>Node25</title>
<g id="a_node25"><a xlink:title=" ">
<polygon fill="white" stroke="black" points="780.5,-253.5 780.5,-272.5 845.5,-272.5 845.5,-253.5 780.5,-253.5"/>
<text text-anchor="middle" x="813" y="-260.5" font-family="Helvetica,sans-Serif" font-size="10.00">std::string</text>
</a>
</g>
</g>
<!-- Node25&#45;&gt;Node24 -->
<g id="edge31" class="edge">
<title>Node25&#45;&gt;Node24</title>
<path fill="none" stroke="#9a32cd" stroke-dasharray="5,2" d="M855.63,-273.06C868.94,-276.54 883.67,-280.66 897,-285 905.16,-287.66 906.91,-289.14 915,-292 944.03,-302.25 955.52,-295.73 981,-313 1027.43,-344.47 1063.73,-403.37 1076.78,-426.41"/>
<polygon fill="#9a32cd" stroke="#9a32cd" points="856.33,-269.63 845.77,-270.54 854.59,-276.41 856.33,-269.63"/>
<text text-anchor="middle" x="948" y="-327" font-family="Helvetica,sans-Serif" font-size="10.00"> fileName_</text>
<text text-anchor="middle" x="948" y="-316" font-family="Helvetica,sans-Serif" font-size="10.00">modelName_</text>
</g>
<!-- Node26 -->
<g id="node26" class="node">
<title>Node26</title>
<g id="a_node26"><a xlink:title=" ">
<polygon fill="white" stroke="black" points="411.5,-246 411.5,-276 515.5,-276 515.5,-246 411.5,-246"/>
<text text-anchor="start" x="419.5" y="-264" font-family="Helvetica,sans-Serif" font-size="10.00">std::basic_string&lt;</text>
<text text-anchor="middle" x="463.5" y="-253" font-family="Helvetica,sans-Serif" font-size="10.00"> Char &gt;</text>
</a>
</g>
</g>
<!-- Node26&#45;&gt;Node25 -->
<g id="edge32" class="edge">
<title>Node26&#45;&gt;Node25</title>
<path fill="none" stroke="midnightblue" d="M525.76,-257.85C543.27,-257.09 562.39,-256.38 580,-256 638.21,-254.74 652.81,-253.99 711,-256 734.19,-256.8 760.32,-258.64 780.19,-260.23"/>
<polygon fill="midnightblue" stroke="midnightblue" points="525.49,-254.36 515.66,-258.31 525.8,-261.36 525.49,-254.36"/>
</g>
<!-- Node27&#45;&gt;Node24 -->
<g id="edge34" class="edge">
<title>Node27&#45;&gt;Node24</title>
<path fill="none" stroke="#9a32cd" stroke-dasharray="5,2" d="M857.92,-570.45C892.65,-559.54 941.67,-541.88 981,-519 1018.08,-497.43 1055.46,-462.47 1072.49,-445.65"/>
<polygon fill="#9a32cd" stroke="#9a32cd" points="856.6,-567.2 848.07,-573.49 858.66,-573.89 856.6,-567.2"/>
<text text-anchor="middle" x="948" y="-573" font-family="Helvetica,sans-Serif" font-size="10.00"> elementTag_</text>
<text text-anchor="middle" x="948" y="-562" font-family="Helvetica,sans-Serif" font-size="10.00">nodeTag_</text>
<text text-anchor="middle" x="948" y="-551" font-family="Helvetica,sans-Serif" font-size="10.00">reordering_</text>
</g>
<!-- Node28 -->
<g id="node28" class="node">
<title>Node28</title>
<g id="a_node28"><a xlink:title=" ">
<polygon fill="white" stroke="black" points="759.5,-294 759.5,-324 866.5,-324 866.5,-294 759.5,-294"/>
<text text-anchor="start" x="767.5" y="-312" font-family="Helvetica,sans-Serif" font-size="10.00">std::array&lt; int, 2</text>
<text text-anchor="middle" x="813" y="-301" font-family="Helvetica,sans-Serif" font-size="10.00"> *size&lt; View &gt;()&gt;</text>
</a>
</g>
</g>
<!-- Node28&#45;&gt;Node24 -->
<g id="edge37" class="edge">
<title>Node28&#45;&gt;Node24</title>
<path fill="none" stroke="#9a32cd" stroke-dasharray="5,2" d="M876.25,-326.87C919.58,-339.51 971.27,-355.05 981,-360 1017.57,-378.61 1054.61,-410.59 1071.91,-426.47"/>
<polygon fill="#9a32cd" stroke="#9a32cd" points="877.16,-323.5 866.58,-324.06 875.21,-330.22 877.16,-323.5"/>
<text text-anchor="middle" x="948" y="-363" font-family="Helvetica,sans-Serif" font-size="10.00"> viewTags_</text>
</g>
<!-- Node29 -->
<g id="node29" class="node">
<title>Node29</title>
<g id="a_node29"><a xlink:title=" ">
<polygon fill="white" stroke="black" points="449,-295.5 449,-314.5 478,-314.5 478,-295.5 449,-295.5"/>
<text text-anchor="middle" x="463.5" y="-302.5" font-family="Helvetica,sans-Serif" font-size="10.00">int</text>
</a>
</g>
</g>
<!-- Node29&#45;&gt;Node28 -->
<g id="edge38" class="edge">
<title>Node29&#45;&gt;Node28</title>
<path fill="none" stroke="#9a32cd" stroke-dasharray="5,2" d="M488.23,-302.49C508.33,-299.88 537.67,-294.88 562,-286 570.6,-282.86 571.14,-278.3 580,-276 636.36,-261.4 653.53,-266.67 711,-276 719.32,-277.35 720.99,-279.36 729,-282 740.8,-285.89 753.56,-290.05 765.45,-293.92"/>
<polygon fill="#9a32cd" stroke="#9a32cd" points="487.62,-299.04 478.11,-303.71 488.45,-305.99 487.62,-299.04"/>
<text text-anchor="middle" x="645.5" y="-279" font-family="Helvetica,sans-Serif" font-size="10.00"> elements</text>
</g>
<!-- Node30&#45;&gt;Node28 -->
<g id="edge39" class="edge">
<title>Node30&#45;&gt;Node28</title>
<path fill="none" stroke="orange" stroke-dasharray="5,2" d="M519.7,-336.88C533.89,-334.07 548.86,-329.97 562,-324 571.23,-319.81 570.42,-313.31 580,-310 638.82,-289.68 711.14,-293.52 759.25,-299.76"/>
<polygon fill="orange" stroke="orange" points="518.76,-333.5 509.53,-338.71 519.99,-340.39 518.76,-333.5"/>
<text text-anchor="middle" x="645.5" y="-313" font-family="Helvetica,sans-Serif" font-size="10.00"> &lt; int, 2 *size&lt; View &gt;()&gt;</text>
</g>
<!-- Node30&#45;&gt;Node31 -->
<g id="edge43" class="edge">
<title>Node30&#45;&gt;Node31</title>
<path fill="none" stroke="orange" stroke-dasharray="5,2" d="M519.6,-350.26C583.53,-359.74 683.68,-378.23 711,-404 730.63,-422.52 709.73,-443.1 729,-462 735.53,-468.41 743.66,-473.12 752.26,-476.59"/>
<polygon fill="orange" stroke="orange" points="520.07,-346.79 509.67,-348.81 519.06,-353.72 520.07,-346.79"/>
<text text-anchor="middle" x="645.5" y="-407" font-family="Helvetica,sans-Serif" font-size="10.00"> &lt; bool, size&lt; View &gt;()&gt;</text>
</g>
<!-- Node30&#45;&gt;Node32 -->
<g id="edge46" class="edge">
<title>Node30&#45;&gt;Node32</title>
<path fill="none" stroke="orange" stroke-dasharray="5,2" d="M519.88,-332.12C571.29,-324.54 649.01,-319.66 711,-344 751.16,-359.77 785.02,-399.73 801.41,-421.79"/>
<polygon fill="orange" stroke="orange" points="519.3,-328.66 509.96,-333.66 520.38,-335.58 519.3,-328.66"/>
<text text-anchor="middle" x="645.5" y="-347" font-family="Helvetica,sans-Serif" font-size="10.00"> &lt; size_t, size&lt; View &gt;()&gt;</text>
</g>
<!-- Node31&#45;&gt;Node24 -->
<g id="edge41" class="edge">
<title>Node31&#45;&gt;Node24</title>
<path fill="none" stroke="#9a32cd" stroke-dasharray="5,2" d="M883.73,-472.99C929.83,-464.39 989.22,-453.31 1030.94,-445.53"/>
<polygon fill="#9a32cd" stroke="#9a32cd" points="883,-469.57 873.81,-474.84 884.28,-476.45 883,-469.57"/>
<text text-anchor="middle" x="948" y="-469" font-family="Helvetica,sans-Serif" font-size="10.00"> enabled_</text>
</g>
<!-- Node32&#45;&gt;Node24 -->
<g id="edge44" class="edge">
<title>Node32&#45;&gt;Node24</title>
<path fill="none" stroke="#9a32cd" stroke-dasharray="5,2" d="M876.43,-436.77C913.32,-436.63 960.45,-436.45 1000.28,-436.3"/>
<polygon fill="#9a32cd" stroke="#9a32cd" points="876.3,-433.27 866.31,-436.8 876.32,-440.27 876.3,-433.27"/>
<text text-anchor="middle" x="948" y="-439" font-family="Helvetica,sans-Serif" font-size="10.00"> step_</text>
</g>
</g>
</svg>
