<?xml version="1.0" encoding="UTF-8" standalone="no"?>
<!DOCTYPE svg PUBLIC "-//W3C//DTD SVG 1.1//EN"
 "http://www.w3.org/Graphics/SVG/1.1/DTD/svg11.dtd">
<!-- Generated by graphviz version 2.43.0 (0)
 -->
<!-- Title: MainNamespace::DumbPointer::operator= Pages: 1 -->
<svg width="565pt" height="39pt"
 viewBox="0.00 0.00 565.00 39.00" xmlns="http://www.w3.org/2000/svg" xmlns:xlink="http://www.w3.org/1999/xlink">
<g id="graph0" class="graph" transform="scale(1 1) rotate(0) translate(4 35)">
<title>MainNamespace::DumbPointer::operator=</title>
<polygon fill="white" stroke="transparent" points="-4,4 -4,-35 561,-35 561,4 -4,4"/>
<!-- Node1 -->
<g id="node1" class="node">
<title>Node1</title>
<g id="a_node1"><a xlink:title=" ">
<polygon fill="#bfbfbf" stroke="black" points="0,-0.5 0,-30.5 168,-30.5 168,-0.5 0,-0.5"/>
<text text-anchor="start" x="8" y="-18.5" font-family="Helvetica,sans-Serif" font-size="10.00">MainNamespace::DumbPointer</text>
<text text-anchor="middle" x="84" y="-7.5" font-family="Helvetica,sans-Serif" font-size="10.00">::operator=</text>
</a>
</g>
</g>
<!-- Node2 -->
<g id="node2" class="node">
<title>Node2</title>
<g id="a_node2"><a xlink:href="namespace_main_namespace.html#a066656219cf67ef84d18b17a7daae845" target="_top" xlink:title=" ">
<polygon fill="white" stroke="black" points="204,-6 204,-25 363,-25 363,-6 204,-6"/>
<text text-anchor="middle" x="283.5" y="-13" font-family="Helvetica,sans-Serif" font-size="10.00">MainNamespace::maybeFree</text>
</a>
</g>
</g>
<!-- Node1&#45;&gt;Node2 -->
<g id="edge1" class="edge">
<title>Node1&#45;&gt;Node2</title>
<path fill="none" stroke="midnightblue" d="M168.19,-15.5C176.58,-15.5 185.13,-15.5 193.58,-15.5"/>
<polygon fill="midnightblue" stroke="midnightblue" points="193.82,-19 203.82,-15.5 193.82,-12 193.82,-19"/>
</g>
<!-- Node3 -->
<g id="node3" class="node">
<title>Node3</title>
<g id="a_node3"><a xlink:href="namespace_main_namespace_1_1_c_functions.html#a4c174a200de18d1f8aa4f313eef7513a" target="_top" xlink:title=" ">
<polygon fill="white" stroke="black" points="399,-0.5 399,-30.5 557,-30.5 557,-0.5 399,-0.5"/>
<text text-anchor="start" x="407" y="-18.5" font-family="Helvetica,sans-Serif" font-size="10.00">MainNamespace::CFunctions</text>
<text text-anchor="middle" x="478" y="-7.5" font-family="Helvetica,sans-Serif" font-size="10.00">::freeCPointer</text>
</a>
</g>
</g>
<!-- Node2&#45;&gt;Node3 -->
<g id="edge2" class="edge">
<title>Node2&#45;&gt;Node3</title>
<path fill="none" stroke="midnightblue" d="M363.07,-15.5C371.59,-15.5 380.3,-15.5 388.92,-15.5"/>
<polygon fill="midnightblue" stroke="midnightblue" points="388.99,-19 398.99,-15.5 388.99,-12 388.99,-19"/>
</g>
</g>
</svg>
