<?xml version="1.0" encoding="UTF-8" standalone="no"?>
<!DOCTYPE svg PUBLIC "-//W3C//DTD SVG 1.1//EN"
 "http://www.w3.org/Graphics/SVG/1.1/DTD/svg11.dtd">
<!-- Generated by graphviz version 2.43.0 (0)
 -->
<!-- Title: MainNamespace::Functions::MeshOffset::l2Neumann Pages: 1 -->
<svg width="346pt" height="235pt"
 viewBox="0.00 0.00 346.00 235.00" xmlns="http://www.w3.org/2000/svg" xmlns:xlink="http://www.w3.org/1999/xlink">
<g id="graph0" class="graph" transform="scale(1 1) rotate(0) translate(4 231)">
<title>MainNamespace::Functions::MeshOffset::l2Neumann</title>
<polygon fill="white" stroke="transparent" points="-4,4 -4,-231 342,-231 342,4 -4,4"/>
<!-- Node1 -->
<g id="node1" class="node">
<title>Node1</title>
<g id="a_node1"><a xlink:title="Compute the L² projection of the Nemuann trace into piecewise constant functions. The trace is scaled...">
<polygon fill="#bfbfbf" stroke="black" points="0,-98.5 0,-128.5 151,-128.5 151,-98.5 0,-98.5"/>
<text text-anchor="start" x="8" y="-116.5" font-family="Helvetica,sans-Serif" font-size="10.00">MainNamespace::Functions</text>
<text text-anchor="middle" x="75.5" y="-105.5" font-family="Helvetica,sans-Serif" font-size="10.00">::MeshOffset::l2Neumann</text>
</a>
</g>
</g>
<!-- Node2 -->
<g id="node2" class="node">
<title>Node2</title>
<g id="a_node2"><a xlink:href="class_main_namespace_1_1_functions_1_1_mesh_offset.html#a8397c8b0cc4e358dd5ccf2a94d1d52c3" target="_top" xlink:title="Compute an offset for the Neumann trace of the current solution.">
<polygon fill="white" stroke="black" points="187,-196.5 187,-226.5 338,-226.5 338,-196.5 187,-196.5"/>
<text text-anchor="start" x="195" y="-214.5" font-family="Helvetica,sans-Serif" font-size="10.00">MainNamespace::Functions</text>
<text text-anchor="middle" x="262.5" y="-203.5" font-family="Helvetica,sans-Serif" font-size="10.00">::MeshOffset::neumann</text>
</a>
</g>
</g>
<!-- Node1&#45;&gt;Node2 -->
<g id="edge1" class="edge">
<title>Node1&#45;&gt;Node2</title>
<path fill="none" stroke="midnightblue" d="M95.46,-128.61C116.72,-144.96 152.71,-170.9 187,-187.5 190.78,-189.33 194.74,-191.07 198.77,-192.71"/>
<polygon fill="midnightblue" stroke="midnightblue" points="197.69,-196.05 208.28,-196.37 200.2,-189.51 197.69,-196.05"/>
</g>
<!-- Node3 -->
<g id="node3" class="node">
<title>Node3</title>
<g id="a_node3"><a xlink:href="struct_main_namespace_1_1_mesh.html#acd5f992511be0c6e6776be2ec59c7ca6" target="_top" xlink:title="Get the normal to a triangle.">
<polygon fill="white" stroke="black" points="197,-147.5 197,-177.5 328,-177.5 328,-147.5 197,-147.5"/>
<text text-anchor="start" x="205" y="-165.5" font-family="Helvetica,sans-Serif" font-size="10.00">MainNamespace::Mesh</text>
<text text-anchor="middle" x="262.5" y="-154.5" font-family="Helvetica,sans-Serif" font-size="10.00">::normal</text>
</a>
</g>
</g>
<!-- Node1&#45;&gt;Node3 -->
<g id="edge2" class="edge">
<title>Node1&#45;&gt;Node3</title>
<path fill="none" stroke="midnightblue" d="M133.26,-128.53C152.8,-133.71 174.84,-139.55 195.08,-144.91"/>
<polygon fill="midnightblue" stroke="midnightblue" points="194.28,-148.32 204.84,-147.49 196.07,-141.55 194.28,-148.32"/>
</g>
<!-- Node4 -->
<g id="node4" class="node">
<title>Node4</title>
<g id="a_node4"><a xlink:href="struct_main_namespace_1_1_mesh.html#aecef8c2502305df7229d7bcf2f5df2ad" target="_top" xlink:title="Get a triangle.">
<polygon fill="white" stroke="black" points="197,-98.5 197,-128.5 328,-128.5 328,-98.5 197,-98.5"/>
<text text-anchor="start" x="205" y="-116.5" font-family="Helvetica,sans-Serif" font-size="10.00">MainNamespace::Mesh</text>
<text text-anchor="middle" x="262.5" y="-105.5" font-family="Helvetica,sans-Serif" font-size="10.00">::triangle</text>
</a>
</g>
</g>
<!-- Node1&#45;&gt;Node4 -->
<g id="edge3" class="edge">
<title>Node1&#45;&gt;Node4</title>
<path fill="none" stroke="midnightblue" d="M151.21,-113.5C162.93,-113.5 175.03,-113.5 186.75,-113.5"/>
<polygon fill="midnightblue" stroke="midnightblue" points="186.92,-117 196.92,-113.5 186.92,-110 186.92,-117"/>
</g>
<!-- Node5 -->
<g id="node5" class="node">
<title>Node5</title>
<g id="a_node5"><a xlink:href="struct_main_namespace_1_1_mesh.html#af0d92acd1c106ecbf5924ce4052667fb" target="_top" xlink:title="Get a vertex.">
<polygon fill="white" stroke="black" points="197,-49.5 197,-79.5 328,-79.5 328,-49.5 197,-49.5"/>
<text text-anchor="start" x="205" y="-67.5" font-family="Helvetica,sans-Serif" font-size="10.00">MainNamespace::Mesh</text>
<text text-anchor="middle" x="262.5" y="-56.5" font-family="Helvetica,sans-Serif" font-size="10.00">::vertex</text>
</a>
</g>
</g>
<!-- Node1&#45;&gt;Node5 -->
<g id="edge4" class="edge">
<title>Node1&#45;&gt;Node5</title>
<path fill="none" stroke="midnightblue" d="M133.26,-98.47C152.8,-93.29 174.84,-87.45 195.08,-82.09"/>
<polygon fill="midnightblue" stroke="midnightblue" points="196.07,-85.45 204.84,-79.51 194.28,-78.68 196.07,-85.45"/>
</g>
<!-- Node6 -->
<g id="node6" class="node">
<title>Node6</title>
<g id="a_node6"><a xlink:href="struct_main_namespace_1_1_mesh.html#ab0133714e18c8aaee3deb84910cef54c" target="_top" xlink:title="Getter.">
<polygon fill="white" stroke="black" points="197,-0.5 197,-30.5 328,-30.5 328,-0.5 197,-0.5"/>
<text text-anchor="start" x="205" y="-18.5" font-family="Helvetica,sans-Serif" font-size="10.00">MainNamespace::Mesh</text>
<text text-anchor="middle" x="262.5" y="-7.5" font-family="Helvetica,sans-Serif" font-size="10.00">::vertices</text>
</a>
</g>
</g>
<!-- Node1&#45;&gt;Node6 -->
<g id="edge5" class="edge">
<title>Node1&#45;&gt;Node6</title>
<path fill="none" stroke="midnightblue" d="M95.92,-98.4C117.29,-82.34 153.11,-57.03 187,-40.5 191.56,-38.28 196.36,-36.17 201.25,-34.2"/>
<polygon fill="midnightblue" stroke="midnightblue" points="202.62,-37.42 210.69,-30.57 200.1,-30.89 202.62,-37.42"/>
</g>
</g>
</svg>
