<?xml version="1.0" encoding="UTF-8" standalone="no"?>
<!DOCTYPE svg PUBLIC "-//W3C//DTD SVG 1.1//EN"
 "http://www.w3.org/Graphics/SVG/1.1/DTD/svg11.dtd">
<!-- Generated by graphviz version 2.43.0 (0)
 -->
<!-- Title: lyra::opt Pages: 1 -->
<!--zoomable 405 -->
<svg id="main" version="1.1" xmlns="http://www.w3.org/2000/svg" xmlns:xlink="http://www.w3.org/1999/xlink" xml:space="preserve" onload="init(evt)">
<style type="text/css"><![CDATA[
.edge:hover path { stroke: red; }
.edge:hover polygon { stroke: red; fill: red; }
]]></style>
<script type="text/javascript"><![CDATA[
var edges = document.getElementsByTagName('g');
if (edges && edges.length) {
  for (var i=0;i<edges.length;i++) {
    if (edges[i].id.substr(0,4)=='edge') {
      edges[i].setAttribute('class','edge');
    }
  }
}
]]></script>
        <defs>
                <circle id="rim" cx="0" cy="0" r="7"/>
                <circle id="rim2" cx="0" cy="0" r="3.5"/>
                <g id="zoomPlus">
                        <use xlink:href="#rim" fill="#404040">
                                <set attributeName="fill" to="#808080" begin="zoomplus.mouseover" end="zoomplus.mouseout"/>
                        </use>
                        <path d="M-4,0h8M0,-4v8" fill="none" stroke="white" stroke-width="1.5" pointer-events="none"/>
                </g>
                <g id="zoomMin">
                        <use xlink:href="#rim" fill="#404040">
                                <set attributeName="fill" to="#808080" begin="zoomminus.mouseover" end="zoomminus.mouseout"/>
                        </use>
                        <path d="M-4,0h8" fill="none" stroke="white" stroke-width="1.5" pointer-events="none"/>
                </g>
                <g id="dirArrow">
                        <path fill="none" stroke="white" stroke-width="1.5" d="M0,-3.0v7 M-2.5,-0.5L0,-3.0L2.5,-0.5"/>
                </g>
               <g id="resetDef">
                       <use xlink:href="#rim2" fill="#404040">
                               <set attributeName="fill" to="#808080" begin="reset.mouseover" end="reset.mouseout"/>
                       </use>
               </g>
        </defs>

<script type="text/javascript">
var viewWidth = 1206;
var viewHeight = 405;
var sectionId = 'dynsection-1';
</script>
<script xlink:href="svgpan.js"/>
<svg id="graph" class="graph">
<g id="viewport">
<title>lyra::opt</title>
<polygon fill="white" stroke="transparent" points="-4,4 -4,-401.36 1202,-401.36 1202,4 -4,4"/>
<!-- Node1 -->
<g id="node1" class="node">
<title>Node1</title>
<g id="a_node1"><a xlink:title=" ">
<polygon fill="#bfbfbf" stroke="black" points="1141,-201.5 1141,-220.5 1198,-220.5 1198,-201.5 1141,-201.5"/>
<text text-anchor="middle" x="1169.5" y="-208.5" font-family="Helvetica,sans-Serif" font-size="10.00">lyra::opt</text>
</a>
</g>
</g>
<!-- Node2 -->
<g id="node2" class="node">
<title>Node2</title>
<g id="a_node2"><a xlink:href="classlyra_1_1bound__parser.html" target="_top" xlink:title=" ">
<polygon fill="white" stroke="black" points="997,-196 997,-226 1104,-226 1104,-196 997,-196"/>
<text text-anchor="start" x="1005" y="-214" font-family="Helvetica,sans-Serif" font-size="10.00">lyra::bound_parser</text>
<text text-anchor="middle" x="1050.5" y="-203" font-family="Helvetica,sans-Serif" font-size="10.00">&lt; opt &gt;</text>
</a>
</g>
</g>
<!-- Node2&#45;&gt;Node1 -->
<g id="edge1" class="edge">
<title>Node2&#45;&gt;Node1</title>
<path fill="none" stroke="midnightblue" d="M1114.27,-204.27C1123.55,-204.34 1132.69,-204.63 1140.74,-205.16"/>
<polygon fill="midnightblue" stroke="midnightblue" points="1114.18,-200.77 1104.18,-204.28 1114.19,-207.77 1114.18,-200.77"/>
</g>
<!-- Node2&#45;&gt;Node1 -->
<g id="edge31" class="edge">
<title>Node2&#45;&gt;Node1</title>
<path fill="none" stroke="midnightblue" d="M1114.27,-217.73C1123.55,-217.66 1132.69,-217.37 1140.74,-216.84"/>
<polygon fill="midnightblue" stroke="midnightblue" points="1114.19,-214.23 1104.18,-217.72 1114.18,-221.23 1114.19,-214.23"/>
</g>
<!-- Node3 -->
<g id="node3" class="node">
<title>Node3</title>
<g id="a_node3"><a xlink:href="classlyra_1_1composable__parser.html" target="_top" xlink:title=" ">
<polygon fill="white" stroke="black" points="780.5,-363 780.5,-393 917.5,-393 917.5,-363 780.5,-363"/>
<text text-anchor="start" x="788.5" y="-381" font-family="Helvetica,sans-Serif" font-size="10.00">lyra::composable_parser</text>
<text text-anchor="middle" x="849" y="-370" font-family="Helvetica,sans-Serif" font-size="10.00">&lt; opt &gt;</text>
</a>
</g>
</g>
<!-- Node3&#45;&gt;Node2 -->
<g id="edge2" class="edge">
<title>Node3&#45;&gt;Node2</title>
<path fill="none" stroke="midnightblue" d="M927.58,-361.82C945.83,-356.89 964.24,-349.55 979,-338 1016.69,-308.49 1036.24,-253.24 1044.52,-226.17"/>
<polygon fill="midnightblue" stroke="midnightblue" points="926.64,-358.45 917.78,-364.26 928.33,-365.24 926.64,-358.45"/>
</g>
<!-- Node3&#45;&gt;Node2 -->
<g id="edge8" class="edge">
<title>Node3&#45;&gt;Node2</title>
<path fill="none" stroke="midnightblue" d="M927.58,-379.24C945.83,-374.89 964.24,-367.55 979,-356 1021.51,-322.72 1040.93,-256.7 1047.15,-226.31"/>
<polygon fill="midnightblue" stroke="midnightblue" points="926.84,-375.82 917.78,-381.31 928.29,-382.67 926.84,-375.82"/>
</g>
<!-- Node4 -->
<g id="node4" class="node">
<title>Node4</title>
<g id="a_node4"><a xlink:href="classlyra_1_1parser.html" target="_top" xlink:title=" ">
<polygon fill="white" stroke="black" points="259,-342.5 259,-361.5 331,-361.5 331,-342.5 259,-342.5"/>
<text text-anchor="middle" x="295" y="-349.5" font-family="Helvetica,sans-Serif" font-size="10.00">lyra::parser</text>
</a>
</g>
</g>
<!-- Node4&#45;&gt;Node3 -->
<g id="edge3" class="edge">
<title>Node4&#45;&gt;Node3</title>
<path fill="none" stroke="midnightblue" d="M341.08,-357.46C354.44,-360.66 369.19,-364.04 383,-366 523.08,-385.84 689.29,-379.92 780.2,-377.1"/>
<polygon fill="midnightblue" stroke="midnightblue" points="341.71,-354.01 331.17,-355.07 340.07,-360.81 341.71,-354.01"/>
</g>
<!-- Node4&#45;&gt;Node3 -->
<g id="edge4" class="edge">
<title>Node4&#45;&gt;Node3</title>
<path fill="none" stroke="midnightblue" d="M316.01,-365.87C333.47,-373.25 359.6,-380.69 383,-384 523.08,-403.84 689.29,-397.92 780.2,-389.33"/>
<polygon fill="midnightblue" stroke="midnightblue" points="317.36,-362.64 306.82,-361.56 314.39,-368.98 317.36,-362.64"/>
</g>
<!-- Node5 -->
<g id="node5" class="node">
<title>Node5</title>
<g id="a_node5"><a xlink:href="classlyra_1_1composable__parser.html" target="_top" xlink:title=" ">
<polygon fill="white" stroke="black" points="533,-337 533,-367 670,-367 670,-337 533,-337"/>
<text text-anchor="start" x="541" y="-355" font-family="Helvetica,sans-Serif" font-size="10.00">lyra::composable_parser</text>
<text text-anchor="middle" x="601.5" y="-344" font-family="Helvetica,sans-Serif" font-size="10.00">&lt; Derived &gt;</text>
</a>
</g>
</g>
<!-- Node4&#45;&gt;Node5 -->
<g id="edge6" class="edge">
<title>Node4&#45;&gt;Node5</title>
<path fill="none" stroke="midnightblue" d="M341.22,-347.03C391.89,-344.94 474.54,-344.69 532.89,-346.28"/>
<polygon fill="midnightblue" stroke="midnightblue" points="341.06,-343.54 331.23,-347.49 341.38,-350.53 341.06,-343.54"/>
</g>
<!-- Node4&#45;&gt;Node5 -->
<g id="edge7" class="edge">
<title>Node4&#45;&gt;Node5</title>
<path fill="none" stroke="midnightblue" d="M341.22,-356.97C391.89,-359.06 474.54,-359.31 532.89,-357.72"/>
<polygon fill="midnightblue" stroke="midnightblue" points="341.38,-353.47 331.23,-356.51 341.06,-360.46 341.38,-353.47"/>
</g>
<!-- Node18 -->
<g id="node18" class="node">
<title>Node18</title>
<g id="a_node18"><a xlink:href="classlyra_1_1composable__parser.html" target="_top" xlink:title=" ">
<polygon fill="white" stroke="black" points="533,-288 533,-318 670,-318 670,-288 533,-288"/>
<text text-anchor="start" x="541" y="-306" font-family="Helvetica,sans-Serif" font-size="10.00">lyra::composable_parser</text>
<text text-anchor="middle" x="601.5" y="-295" font-family="Helvetica,sans-Serif" font-size="10.00">&lt; Derived &gt;</text>
</a>
</g>
</g>
<!-- Node4&#45;&gt;Node18 -->
<g id="edge24" class="edge">
<title>Node4&#45;&gt;Node18</title>
<path fill="none" stroke="midnightblue" d="M338.2,-340.37C388.55,-330.06 473.41,-316.11 532.94,-308.15"/>
<polygon fill="midnightblue" stroke="midnightblue" points="337.37,-336.97 328.3,-342.45 338.8,-343.82 337.37,-336.97"/>
</g>
<!-- Node4&#45;&gt;Node18 -->
<g id="edge25" class="edge">
<title>Node4&#45;&gt;Node18</title>
<path fill="none" stroke="midnightblue" d="M341.36,-349.67C394.45,-343.32 482.54,-329.31 541.06,-318.05"/>
<polygon fill="midnightblue" stroke="midnightblue" points="340.76,-346.22 331.23,-350.84 341.56,-353.17 340.76,-346.22"/>
</g>
<!-- Node5&#45;&gt;Node3 -->
<g id="edge5" class="edge">
<title>Node5&#45;&gt;Node3</title>
<path fill="none" stroke="orange" stroke-dasharray="5,2" d="M680.49,-360.26C712.63,-363.66 749.52,-367.57 780.49,-370.85"/>
<polygon fill="orange" stroke="orange" points="680.55,-356.75 670.23,-359.17 679.81,-363.71 680.55,-356.75"/>
<text text-anchor="middle" x="724.5" y="-371" font-family="Helvetica,sans-Serif" font-size="10.00"> &lt; opt &gt;</text>
</g>
<!-- Node6 -->
<g id="node6" class="node">
<title>Node6</title>
<g id="a_node6"><a xlink:title=" ">
<polygon fill="white" stroke="black" points="542,-106 542,-136 661,-136 661,-106 542,-106"/>
<text text-anchor="start" x="550" y="-124" font-family="Helvetica,sans-Serif" font-size="10.00">std::shared_ptr&lt; lyra</text>
<text text-anchor="middle" x="601.5" y="-113" font-family="Helvetica,sans-Serif" font-size="10.00">::detail::BoundRef &gt;</text>
</a>
</g>
</g>
<!-- Node6&#45;&gt;Node2 -->
<g id="edge9" class="edge">
<title>Node6&#45;&gt;Node2</title>
<path fill="none" stroke="#9a32cd" stroke-dasharray="5,2" d="M671.33,-108.74C676.96,-108.04 682.57,-107.44 688,-107 720.34,-104.37 728.76,-103.37 761,-107 832.57,-115.05 851.4,-118.16 919,-143 957.61,-157.19 999.27,-180.43 1024.87,-195.72"/>
<polygon fill="#9a32cd" stroke="#9a32cd" points="670.66,-105.3 661.22,-110.1 671.59,-112.24 670.66,-105.3"/>
<text text-anchor="middle" x="849" y="-146" font-family="Helvetica,sans-Serif" font-size="10.00"> m_ref</text>
</g>
<!-- Node17 -->
<g id="node17" class="node">
<title>Node17</title>
<g id="a_node17"><a xlink:href="classlyra_1_1bound__parser.html" target="_top" xlink:title=" ">
<polygon fill="white" stroke="black" points="795.5,-164 795.5,-194 902.5,-194 902.5,-164 795.5,-164"/>
<text text-anchor="start" x="803.5" y="-182" font-family="Helvetica,sans-Serif" font-size="10.00">lyra::bound_parser</text>
<text text-anchor="middle" x="849" y="-171" font-family="Helvetica,sans-Serif" font-size="10.00">&lt; Derived &gt;</text>
</a>
</g>
</g>
<!-- Node6&#45;&gt;Node17 -->
<g id="edge27" class="edge">
<title>Node6&#45;&gt;Node17</title>
<path fill="none" stroke="#9a32cd" stroke-dasharray="5,2" d="M654.31,-139.17C665.35,-142.7 677,-146.18 688,-149 723.45,-158.09 763.98,-165.66 795.38,-170.92"/>
<polygon fill="#9a32cd" stroke="#9a32cd" points="655.39,-135.84 644.8,-136.07 653.22,-142.5 655.39,-135.84"/>
<text text-anchor="middle" x="724.5" y="-168" font-family="Helvetica,sans-Serif" font-size="10.00"> m_ref</text>
</g>
<!-- Node7 -->
<g id="node7" class="node">
<title>Node7</title>
<g id="a_node7"><a xlink:href="structlyra_1_1detail_1_1_bound_ref.html" target="_top" xlink:title=" ">
<polygon fill="white" stroke="black" points="234,-130.5 234,-149.5 356,-149.5 356,-130.5 234,-130.5"/>
<text text-anchor="middle" x="295" y="-137.5" font-family="Helvetica,sans-Serif" font-size="10.00">lyra::detail::BoundRef</text>
</a>
</g>
</g>
<!-- Node7&#45;&gt;Node6 -->
<g id="edge10" class="edge">
<title>Node7&#45;&gt;Node6</title>
<path fill="none" stroke="#9a32cd" stroke-dasharray="5,2" d="M366.19,-135.62C419.38,-132.3 491.61,-127.79 541.76,-124.67"/>
<polygon fill="#9a32cd" stroke="#9a32cd" points="365.92,-132.13 356.16,-136.25 366.36,-139.12 365.92,-132.13"/>
<text text-anchor="middle" x="449" y="-138" font-family="Helvetica,sans-Serif" font-size="10.00"> ptr</text>
</g>
<!-- Node8 -->
<g id="node8" class="node">
<title>Node8</title>
<g id="a_node8"><a xlink:href="structlyra_1_1detail_1_1_non_copyable.html" target="_top" xlink:title=" ">
<polygon fill="white" stroke="black" points="0,-130.5 0,-149.5 140,-149.5 140,-130.5 0,-130.5"/>
<text text-anchor="middle" x="70" y="-137.5" font-family="Helvetica,sans-Serif" font-size="10.00">lyra::detail::NonCopyable</text>
</a>
</g>
</g>
<!-- Node8&#45;&gt;Node7 -->
<g id="edge11" class="edge">
<title>Node8&#45;&gt;Node7</title>
<path fill="none" stroke="midnightblue" d="M150.05,-133.51C177.66,-133.06 208.16,-133.2 233.96,-133.93"/>
<polygon fill="midnightblue" stroke="midnightblue" points="149.96,-130.01 140.03,-133.71 150.1,-137.01 149.96,-130.01"/>
</g>
<!-- Node8&#45;&gt;Node7 -->
<g id="edge12" class="edge">
<title>Node8&#45;&gt;Node7</title>
<path fill="none" stroke="midnightblue" d="M150.05,-146.49C177.66,-146.94 208.16,-146.8 233.96,-146.07"/>
<polygon fill="midnightblue" stroke="midnightblue" points="150.1,-142.99 140.03,-146.29 149.96,-149.99 150.1,-142.99"/>
</g>
<!-- Node9 -->
<g id="node9" class="node">
<title>Node9</title>
<g id="a_node9"><a xlink:title=" ">
<polygon fill="white" stroke="black" points="236,-92.5 236,-111.5 354,-111.5 354,-92.5 236,-92.5"/>
<text text-anchor="middle" x="295" y="-99.5" font-family="Helvetica,sans-Serif" font-size="10.00">std::shared_ptr&lt; T &gt;</text>
</a>
</g>
</g>
<!-- Node9&#45;&gt;Node6 -->
<g id="edge13" class="edge">
<title>Node9&#45;&gt;Node6</title>
<path fill="none" stroke="orange" stroke-dasharray="5,2" d="M364.28,-104.08C407.51,-105.65 464.58,-108.2 515,-112 523.63,-112.65 532.74,-113.47 541.67,-114.34"/>
<polygon fill="orange" stroke="orange" points="364.27,-100.57 354.15,-103.72 364.02,-107.57 364.27,-100.57"/>
<text text-anchor="middle" x="449" y="-115" font-family="Helvetica,sans-Serif" font-size="10.00"> &lt; lyra::detail::BoundRef &gt;</text>
</g>
<!-- Node15 -->
<g id="node15" class="node">
<title>Node15</title>
<g id="a_node15"><a xlink:title=" ">
<polygon fill="white" stroke="black" points="535,-190 535,-220 668,-220 668,-190 535,-190"/>
<text text-anchor="start" x="543" y="-208" font-family="Helvetica,sans-Serif" font-size="10.00">std::shared_ptr&lt; lyra</text>
<text text-anchor="middle" x="601.5" y="-197" font-family="Helvetica,sans-Serif" font-size="10.00">::detail::choices_base &gt;</text>
</a>
</g>
</g>
<!-- Node9&#45;&gt;Node15 -->
<g id="edge21" class="edge">
<title>Node9&#45;&gt;Node15</title>
<path fill="none" stroke="orange" stroke-dasharray="5,2" d="M356.5,-115.78C359.48,-117.34 362.33,-119.07 365,-121 376.69,-129.45 371.24,-139.65 383,-148 432.4,-183.07 456.41,-166.58 515,-182 524.66,-184.54 534.93,-187.28 544.87,-189.94"/>
<polygon fill="orange" stroke="orange" points="357.84,-112.55 347.28,-111.62 354.96,-118.92 357.84,-112.55"/>
<text text-anchor="start" x="394" y="-196" font-family="Helvetica,sans-Serif" font-size="10.00"> &lt; lyra::detail::choices</text>
<text text-anchor="middle" x="449" y="-185" font-family="Helvetica,sans-Serif" font-size="10.00">_base &gt;</text>
</g>
<!-- Node10 -->
<g id="node10" class="node">
<title>Node10</title>
<g id="a_node10"><a xlink:title=" ">
<polygon fill="white" stroke="black" points="55.5,-48.5 55.5,-67.5 84.5,-67.5 84.5,-48.5 55.5,-48.5"/>
<text text-anchor="middle" x="70" y="-55.5" font-family="Helvetica,sans-Serif" font-size="10.00">T</text>
</a>
</g>
</g>
<!-- Node10&#45;&gt;Node9 -->
<g id="edge14" class="edge">
<title>Node10&#45;&gt;Node9</title>
<path fill="none" stroke="#9a32cd" stroke-dasharray="5,2" d="M94.6,-62.66C130.37,-69.71 199.08,-83.27 245.73,-92.48"/>
<polygon fill="#9a32cd" stroke="#9a32cd" points="95.1,-59.19 84.61,-60.69 93.75,-66.06 95.1,-59.19"/>
<text text-anchor="middle" x="182.5" y="-87" font-family="Helvetica,sans-Serif" font-size="10.00"> ptr</text>
</g>
<!-- Node20 -->
<g id="node20" class="node">
<title>Node20</title>
<g id="a_node20"><a xlink:title=" ">
<polygon fill="white" stroke="black" points="400.5,-0.5 400.5,-19.5 497.5,-19.5 497.5,-0.5 400.5,-0.5"/>
<text text-anchor="middle" x="449" y="-7.5" font-family="Helvetica,sans-Serif" font-size="10.00">std::vector&lt; T &gt;</text>
</a>
</g>
</g>
<!-- Node10&#45;&gt;Node20 -->
<g id="edge35" class="edge">
<title>Node10&#45;&gt;Node20</title>
<path fill="none" stroke="#9a32cd" stroke-dasharray="5,2" d="M94.53,-53.74C124.69,-48.39 178.61,-39.15 225,-33 285.38,-24.99 355.28,-18.18 400.49,-14.09"/>
<polygon fill="#9a32cd" stroke="#9a32cd" points="93.78,-50.32 84.56,-55.53 95.02,-57.21 93.78,-50.32"/>
<text text-anchor="middle" x="182.5" y="-46" font-family="Helvetica,sans-Serif" font-size="10.00"> elements</text>
</g>
<!-- Node11 -->
<g id="node11" class="node">
<title>Node11</title>
<g id="a_node11"><a xlink:title=" ">
<polygon fill="white" stroke="black" points="569,-53.5 569,-72.5 634,-72.5 634,-53.5 569,-53.5"/>
<text text-anchor="middle" x="601.5" y="-60.5" font-family="Helvetica,sans-Serif" font-size="10.00">std::string</text>
</a>
</g>
</g>
<!-- Node11&#45;&gt;Node2 -->
<g id="edge15" class="edge">
<title>Node11&#45;&gt;Node2</title>
<path fill="none" stroke="#9a32cd" stroke-dasharray="5,2" d="M644.5,-62.23C719.02,-61.45 871.05,-62.64 919,-84 974.45,-108.7 1020.13,-167.79 1039.51,-195.79"/>
<polygon fill="#9a32cd" stroke="#9a32cd" points="644.04,-58.74 634.09,-62.36 644.13,-65.74 644.04,-58.74"/>
<text text-anchor="middle" x="849" y="-98" font-family="Helvetica,sans-Serif" font-size="10.00"> m_description</text>
<text text-anchor="middle" x="849" y="-87" font-family="Helvetica,sans-Serif" font-size="10.00">m_hint</text>
</g>
<!-- Node11&#45;&gt;Node17 -->
<g id="edge28" class="edge">
<title>Node11&#45;&gt;Node17</title>
<path fill="none" stroke="#9a32cd" stroke-dasharray="5,2" d="M643.93,-74.14C677.06,-84.09 723.93,-100.56 761,-123 770.16,-128.54 770.33,-132.73 779,-139 791.57,-148.09 806.35,-156.88 818.99,-163.89"/>
<polygon fill="#9a32cd" stroke="#9a32cd" points="644.7,-70.71 634.12,-71.26 642.73,-77.43 644.7,-70.71"/>
<text text-anchor="middle" x="724.5" y="-137" font-family="Helvetica,sans-Serif" font-size="10.00"> m_description</text>
<text text-anchor="middle" x="724.5" y="-126" font-family="Helvetica,sans-Serif" font-size="10.00">m_hint</text>
</g>
<!-- Node19 -->
<g id="node19" class="node">
<title>Node19</title>
<g id="a_node19"><a xlink:title=" ">
<polygon fill="white" stroke="black" points="779,-10.5 779,-29.5 919,-29.5 919,-10.5 779,-10.5"/>
<text text-anchor="middle" x="849" y="-17.5" font-family="Helvetica,sans-Serif" font-size="10.00">std::vector&lt; std::string &gt;</text>
</a>
</g>
</g>
<!-- Node11&#45;&gt;Node19 -->
<g id="edge33" class="edge">
<title>Node11&#45;&gt;Node19</title>
<path fill="none" stroke="#9a32cd" stroke-dasharray="5,2" d="M644.12,-51.21C658,-47.57 673.59,-43.79 688,-41 717.57,-35.28 750.52,-30.66 778.79,-27.22"/>
<polygon fill="#9a32cd" stroke="#9a32cd" points="643.12,-47.85 634.37,-53.82 644.93,-54.62 643.12,-47.85"/>
<text text-anchor="middle" x="724.5" y="-44" font-family="Helvetica,sans-Serif" font-size="10.00"> elements</text>
</g>
<!-- Node12 -->
<g id="node12" class="node">
<title>Node12</title>
<g id="a_node12"><a xlink:title=" ">
<polygon fill="white" stroke="black" points="243,-43 243,-73 347,-73 347,-43 243,-43"/>
<text text-anchor="start" x="251" y="-61" font-family="Helvetica,sans-Serif" font-size="10.00">std::basic_string&lt;</text>
<text text-anchor="middle" x="295" y="-50" font-family="Helvetica,sans-Serif" font-size="10.00"> Char &gt;</text>
</a>
</g>
</g>
<!-- Node12&#45;&gt;Node11 -->
<g id="edge16" class="edge">
<title>Node12&#45;&gt;Node11</title>
<path fill="none" stroke="midnightblue" d="M357.65,-59.01C421.51,-60.06 518.79,-61.66 568.63,-62.48"/>
<polygon fill="midnightblue" stroke="midnightblue" points="357.37,-55.51 347.31,-58.84 357.25,-62.51 357.37,-55.51"/>
</g>
<!-- Node13 -->
<g id="node13" class="node">
<title>Node13</title>
<g id="a_node13"><a xlink:href="structlyra_1_1detail_1_1parser__cardinality.html" target="_top" xlink:title=" ">
<polygon fill="white" stroke="black" points="548.5,-239 548.5,-269 654.5,-269 654.5,-239 548.5,-239"/>
<text text-anchor="start" x="556.5" y="-257" font-family="Helvetica,sans-Serif" font-size="10.00">lyra::detail::parser</text>
<text text-anchor="middle" x="601.5" y="-246" font-family="Helvetica,sans-Serif" font-size="10.00">_cardinality</text>
</a>
</g>
</g>
<!-- Node13&#45;&gt;Node2 -->
<g id="edge17" class="edge">
<title>Node13&#45;&gt;Node2</title>
<path fill="none" stroke="#9a32cd" stroke-dasharray="5,2" d="M664.86,-253.66C739.9,-252.37 869.48,-247.37 979,-229 984.86,-228.02 990.94,-226.79 996.96,-225.44"/>
<polygon fill="#9a32cd" stroke="#9a32cd" points="664.59,-250.16 654.65,-253.82 664.7,-257.16 664.59,-250.16"/>
<text text-anchor="middle" x="849" y="-252" font-family="Helvetica,sans-Serif" font-size="10.00"> m_cardinality</text>
</g>
<!-- Node13&#45;&gt;Node17 -->
<g id="edge29" class="edge">
<title>Node13&#45;&gt;Node17</title>
<path fill="none" stroke="#9a32cd" stroke-dasharray="5,2" d="M664.33,-238.57C693.78,-230.88 729.39,-221.08 761,-211 776.95,-205.92 794.29,-199.68 809.27,-194.07"/>
<polygon fill="#9a32cd" stroke="#9a32cd" points="663.39,-235.2 654.59,-241.1 665.15,-241.97 663.39,-235.2"/>
<text text-anchor="middle" x="724.5" y="-235" font-family="Helvetica,sans-Serif" font-size="10.00"> m_cardinality</text>
</g>
<!-- Node14 -->
<g id="node14" class="node">
<title>Node14</title>
<g id="a_node14"><a xlink:title=" ">
<polygon fill="white" stroke="black" points="272.5,-244.5 272.5,-263.5 317.5,-263.5 317.5,-244.5 272.5,-244.5"/>
<text text-anchor="middle" x="295" y="-251.5" font-family="Helvetica,sans-Serif" font-size="10.00">size_t</text>
</a>
</g>
</g>
<!-- Node14&#45;&gt;Node13 -->
<g id="edge18" class="edge">
<title>Node14&#45;&gt;Node13</title>
<path fill="none" stroke="#9a32cd" stroke-dasharray="5,2" d="M327.96,-254C380.4,-254 485.17,-254 548.44,-254"/>
<polygon fill="#9a32cd" stroke="#9a32cd" points="327.9,-250.5 317.9,-254 327.9,-257.5 327.9,-250.5"/>
<text text-anchor="middle" x="449" y="-268" font-family="Helvetica,sans-Serif" font-size="10.00"> maximum</text>
<text text-anchor="middle" x="449" y="-257" font-family="Helvetica,sans-Serif" font-size="10.00">minimum</text>
</g>
<!-- Node15&#45;&gt;Node2 -->
<g id="edge19" class="edge">
<title>Node15&#45;&gt;Node2</title>
<path fill="none" stroke="#9a32cd" stroke-dasharray="5,2" d="M678.55,-210.57C681.74,-210.73 684.9,-210.87 688,-211 817.23,-216.31 849.69,-216.75 979,-214 984.76,-213.88 990.78,-213.7 996.77,-213.49"/>
<polygon fill="#9a32cd" stroke="#9a32cd" points="678.47,-207.06 668.3,-210 678.09,-214.05 678.47,-207.06"/>
<text text-anchor="middle" x="849" y="-219" font-family="Helvetica,sans-Serif" font-size="10.00"> value_choices</text>
</g>
<!-- Node15&#45;&gt;Node17 -->
<g id="edge30" class="edge">
<title>Node15&#45;&gt;Node17</title>
<path fill="none" stroke="#9a32cd" stroke-dasharray="5,2" d="M678.27,-196.98C716.18,-192.96 761.12,-188.2 795.24,-184.59"/>
<polygon fill="#9a32cd" stroke="#9a32cd" points="677.87,-193.5 668.29,-198.03 678.6,-200.46 677.87,-193.5"/>
<text text-anchor="middle" x="724.5" y="-199" font-family="Helvetica,sans-Serif" font-size="10.00"> value_choices</text>
</g>
<!-- Node16 -->
<g id="node16" class="node">
<title>Node16</title>
<g id="a_node16"><a xlink:href="structlyra_1_1detail_1_1choices__base.html" target="_top" xlink:title=" ">
<polygon fill="white" stroke="black" points="225,-205.5 225,-224.5 365,-224.5 365,-205.5 225,-205.5"/>
<text text-anchor="middle" x="295" y="-212.5" font-family="Helvetica,sans-Serif" font-size="10.00">lyra::detail::choices_base</text>
</a>
</g>
</g>
<!-- Node16&#45;&gt;Node15 -->
<g id="edge20" class="edge">
<title>Node16&#45;&gt;Node15</title>
<path fill="none" stroke="#9a32cd" stroke-dasharray="5,2" d="M375.15,-212.4C424.77,-210.77 487.97,-208.7 534.81,-207.16"/>
<polygon fill="#9a32cd" stroke="#9a32cd" points="374.98,-208.9 365.1,-212.73 375.21,-215.9 374.98,-208.9"/>
<text text-anchor="middle" x="449" y="-216" font-family="Helvetica,sans-Serif" font-size="10.00"> ptr</text>
</g>
<!-- Node17&#45;&gt;Node2 -->
<g id="edge22" class="edge">
<title>Node17&#45;&gt;Node2</title>
<path fill="none" stroke="orange" stroke-dasharray="5,2" d="M912.81,-189.07C939.84,-193.41 971.09,-198.42 996.87,-202.56"/>
<polygon fill="orange" stroke="orange" points="913.11,-185.58 902.68,-187.45 912,-192.49 913.11,-185.58"/>
<text text-anchor="middle" x="958" y="-202" font-family="Helvetica,sans-Serif" font-size="10.00"> &lt; opt &gt;</text>
</g>
<!-- Node18&#45;&gt;Node17 -->
<g id="edge23" class="edge">
<title>Node18&#45;&gt;Node17</title>
<path fill="none" stroke="midnightblue" d="M662.86,-285.37C695.17,-276.48 733.8,-262.54 761,-238 774.88,-225.48 765.57,-213 779,-200 783.79,-195.37 789.4,-191.39 795.33,-188.06"/>
<polygon fill="midnightblue" stroke="midnightblue" points="661.82,-282.02 653.05,-287.97 663.62,-288.79 661.82,-282.02"/>
</g>
<!-- Node18&#45;&gt;Node17 -->
<g id="edge26" class="edge">
<title>Node18&#45;&gt;Node17</title>
<path fill="none" stroke="midnightblue" d="M680.13,-297.06C708.22,-289.33 738.52,-276.29 761,-256 774.88,-243.48 765.57,-231 779,-218 790.35,-207.01 806.39,-199.7 820.15,-194.11"/>
<polygon fill="midnightblue" stroke="midnightblue" points="679.13,-293.71 670.31,-299.58 680.87,-300.49 679.13,-293.71"/>
</g>
<!-- Node19&#45;&gt;Node1 -->
<g id="edge32" class="edge">
<title>Node19&#45;&gt;Node1</title>
<path fill="none" stroke="#9a32cd" stroke-dasharray="5,2" d="M877.13,-34.31C903.43,-48.32 944.31,-70.49 979,-91 1045.38,-130.23 1122.44,-180.56 1153.95,-201.35"/>
<polygon fill="#9a32cd" stroke="#9a32cd" points="878.62,-31.13 868.14,-29.53 875.33,-37.32 878.62,-31.13"/>
<text text-anchor="middle" x="1050.5" y="-172" font-family="Helvetica,sans-Serif" font-size="10.00"> opt_names</text>
</g>
<!-- Node20&#45;&gt;Node19 -->
<g id="edge34" class="edge">
<title>Node20&#45;&gt;Node19</title>
<path fill="none" stroke="orange" stroke-dasharray="5,2" d="M507.84,-11.45C579.72,-13.26 702.26,-16.34 778.98,-18.27"/>
<polygon fill="orange" stroke="orange" points="507.7,-7.95 497.61,-11.2 507.52,-14.95 507.7,-7.95"/>
<text text-anchor="middle" x="601.5" y="-19" font-family="Helvetica,sans-Serif" font-size="10.00"> &lt; std::string &gt;</text>
</g>
</g>
</svg>
        <g id="navigator" transform="translate(0 0)" fill="#404254">
                <rect fill="#f2f5e9" fill-opacity="0.5" stroke="#606060" stroke-width=".5" x="0" y="0" width="60" height="60"/>
                <use id="zoomplus" xlink:href="#zoomPlus" x="17" y="9" onmousedown="handleZoom(evt,'in')"/>
                <use id="zoomminus" xlink:href="#zoomMin" x="42" y="9" onmousedown="handleZoom(evt,'out')"/>
                <use id="reset" xlink:href="#resetDef" x="30" y="36" onmousedown="handleReset()"/>
                <g id="arrowUp" xlink:href="#dirArrow" transform="translate(30 24)" onmousedown="handlePan(0,-1)">
                  <use xlink:href="#rim" fill="#404040">
                        <set attributeName="fill" to="#808080" begin="arrowUp.mouseover" end="arrowUp.mouseout"/>
                  </use>
                  <path fill="none" stroke="white" stroke-width="1.5" d="M0,-3.0v7 M-2.5,-0.5L0,-3.0L2.5,-0.5"/>
                </g>
                <g id="arrowRight" xlink:href="#dirArrow" transform="rotate(90) translate(36 -43)" onmousedown="handlePan(1,0)">
                  <use xlink:href="#rim" fill="#404040">
                        <set attributeName="fill" to="#808080" begin="arrowRight.mouseover" end="arrowRight.mouseout"/>
                  </use>
                  <path fill="none" stroke="white" stroke-width="1.5" d="M0,-3.0v7 M-2.5,-0.5L0,-3.0L2.5,-0.5"/>
                </g>
                <g id="arrowDown" xlink:href="#dirArrow" transform="rotate(180) translate(-30 -48)" onmousedown="handlePan(0,1)">
                  <use xlink:href="#rim" fill="#404040">
                        <set attributeName="fill" to="#808080" begin="arrowDown.mouseover" end="arrowDown.mouseout"/>
                  </use>
                  <path fill="none" stroke="white" stroke-width="1.5" d="M0,-3.0v7 M-2.5,-0.5L0,-3.0L2.5,-0.5"/>
                </g>
                <g id="arrowLeft" xlink:href="#dirArrow" transform="rotate(270) translate(-36 17)" onmousedown="handlePan(-1,0)">
                  <use xlink:href="#rim" fill="#404040">
                        <set attributeName="fill" to="#808080" begin="arrowLeft.mouseover" end="arrowLeft.mouseout"/>
                  </use>
                  <path fill="none" stroke="white" stroke-width="1.5" d="M0,-3.0v7 M-2.5,-0.5L0,-3.0L2.5,-0.5"/>
                </g>
        </g>
        <svg viewBox="0 0 15 15" width="100%" height="30px" preserveAspectRatio="xMaxYMin meet">
         <g id="arrow_out" transform="scale(0.3 0.3)">
          <a xlink:href="classlyra_1_1opt__coll__graph_org.svg" target="_base">
           <rect id="button" ry="5" rx="5" y="6" x="6" height="38" width="38"
                fill="#f2f5e9" fill-opacity="0.5" stroke="#606060" stroke-width="1.0"/>
           <path id="arrow"
             d="M 11.500037,31.436501 C 11.940474,20.09759 22.043105,11.32322 32.158766,21.979434 L 37.068811,17.246167 C 37.068811,17.246167 37.088388,32 37.088388,32 L 22.160133,31.978069 C 22.160133,31.978069 26.997745,27.140456 26.997745,27.140456 C 18.528582,18.264221 13.291696,25.230495 11.500037,31.436501 z"
             style="fill:#404040;"/>
          </a>
         </g>
        </svg>
</svg>
