<?xml version="1.0" encoding="UTF-8" standalone="no"?>
<!DOCTYPE svg PUBLIC "-//W3C//DTD SVG 1.1//EN"
 "http://www.w3.org/Graphics/SVG/1.1/DTD/svg11.dtd">
<!-- Generated by graphviz version 2.43.0 (0)
 -->
<!-- Title: MainNamespace::Surface::SingleSurface::SingleSurface Pages: 1 -->
<!--zoomable 370 -->
<svg id="main" version="1.1" xmlns="http://www.w3.org/2000/svg" xmlns:xlink="http://www.w3.org/1999/xlink" xml:space="preserve" onload="init(evt)">
<style type="text/css"><![CDATA[
.edge:hover path { stroke: red; }
.edge:hover polygon { stroke: red; fill: red; }
]]></style>
<script type="text/javascript"><![CDATA[
var edges = document.getElementsByTagName('g');
if (edges && edges.length) {
  for (var i=0;i<edges.length;i++) {
    if (edges[i].id.substr(0,4)=='edge') {
      edges[i].setAttribute('class','edge');
    }
  }
}
]]></script>
        <defs>
                <circle id="rim" cx="0" cy="0" r="7"/>
                <circle id="rim2" cx="0" cy="0" r="3.5"/>
                <g id="zoomPlus">
                        <use xlink:href="#rim" fill="#404040">
                                <set attributeName="fill" to="#808080" begin="zoomplus.mouseover" end="zoomplus.mouseout"/>
                        </use>
                        <path d="M-4,0h8M0,-4v8" fill="none" stroke="white" stroke-width="1.5" pointer-events="none"/>
                </g>
                <g id="zoomMin">
                        <use xlink:href="#rim" fill="#404040">
                                <set attributeName="fill" to="#808080" begin="zoomminus.mouseover" end="zoomminus.mouseout"/>
                        </use>
                        <path d="M-4,0h8" fill="none" stroke="white" stroke-width="1.5" pointer-events="none"/>
                </g>
                <g id="dirArrow">
                        <path fill="none" stroke="white" stroke-width="1.5" d="M0,-3.0v7 M-2.5,-0.5L0,-3.0L2.5,-0.5"/>
                </g>
               <g id="resetDef">
                       <use xlink:href="#rim2" fill="#404040">
                               <set attributeName="fill" to="#808080" begin="reset.mouseover" end="reset.mouseout"/>
                       </use>
               </g>
        </defs>

<script type="text/javascript">
var viewWidth = 1184;
var viewHeight = 370;
var sectionId = 'dynsection-1';
</script>
<script xlink:href="svgpan.js"/>
<svg id="graph" class="graph">
<g id="viewport">
<title>MainNamespace::Surface::SingleSurface::SingleSurface</title>
<polygon fill="white" stroke="transparent" points="-4,4 -4,-365.5 1180,-365.5 1180,4 -4,4"/>
<!-- Node1 -->
<g id="node1" class="node">
<title>Node1</title>
<g id="a_node1"><a xlink:title="Construct an object to manage data associated to a closed boundary.">
<polygon fill="#bfbfbf" stroke="black" points="0,-177.5 0,-207.5 162,-207.5 162,-177.5 0,-177.5"/>
<text text-anchor="start" x="8" y="-195.5" font-family="Helvetica,sans-Serif" font-size="10.00">MainNamespace::Surface</text>
<text text-anchor="middle" x="81" y="-184.5" font-family="Helvetica,sans-Serif" font-size="10.00">::SingleSurface::SingleSurface</text>
</a>
</g>
</g>
<!-- Node2 -->
<g id="node2" class="node">
<title>Node2</title>
<g id="a_node2"><a xlink:href="namespace_main_namespace.html#a057c5767cb2d6c22def63e2cdc335080" target="_top" xlink:title=" ">
<polygon fill="white" stroke="black" points="413,-339 413,-358 527,-358 527,-339 413,-339"/>
<text text-anchor="middle" x="470" y="-346" font-family="Helvetica,sans-Serif" font-size="10.00">MainNamespace::at</text>
</a>
</g>
</g>
<!-- Node1&#45;&gt;Node2 -->
<g id="edge1" class="edge">
<title>Node1&#45;&gt;Node2</title>
<path fill="none" stroke="midnightblue" d="M98.82,-207.72C120.33,-226.44 159.44,-258 198,-276.5 264.25,-308.29 346.58,-327.62 403.01,-338.13"/>
<polygon fill="midnightblue" stroke="midnightblue" points="402.41,-341.58 412.88,-339.93 403.67,-334.7 402.41,-341.58"/>
</g>
<!-- Node4 -->
<g id="node4" class="node">
<title>Node4</title>
<g id="a_node4"><a xlink:href="namespace_main_namespace_1_1_logger.html#afbb4cc2d8b498e71fcb228f0da8309a1" target="_top" xlink:title=" ">
<polygon fill="white" stroke="black" points="391,-301 391,-320 549,-320 549,-301 391,-301"/>
<text text-anchor="middle" x="470" y="-308" font-family="Helvetica,sans-Serif" font-size="10.00">MainNamespace::Logger::log</text>
</a>
</g>
</g>
<!-- Node1&#45;&gt;Node4 -->
<g id="edge3" class="edge">
<title>Node1&#45;&gt;Node4</title>
<path fill="none" stroke="midnightblue" d="M113.47,-207.68C136.51,-218.39 168.73,-232.54 198,-242.5 281.79,-270.99 305.12,-270.14 391,-291.5 400.24,-293.8 410.09,-296.22 419.58,-298.54"/>
<polygon fill="midnightblue" stroke="midnightblue" points="418.76,-301.94 429.3,-300.91 420.41,-295.14 418.76,-301.94"/>
</g>
<!-- Node6 -->
<g id="node6" class="node">
<title>Node6</title>
<g id="a_node6"><a xlink:href="namespace_main_namespace_1_1_surface.html#a91ad285a7a25853007779d157350ae2d" target="_top" xlink:title="Reorient all needed triangles by swapping two vertices.">
<polygon fill="white" stroke="black" points="206,-153.5 206,-183.5 347,-183.5 347,-153.5 206,-153.5"/>
<text text-anchor="start" x="214" y="-171.5" font-family="Helvetica,sans-Serif" font-size="10.00">MainNamespace::Surface</text>
<text text-anchor="middle" x="276.5" y="-160.5" font-family="Helvetica,sans-Serif" font-size="10.00">::orientCopy</text>
</a>
</g>
</g>
<!-- Node1&#45;&gt;Node6 -->
<g id="edge5" class="edge">
<title>Node1&#45;&gt;Node6</title>
<path fill="none" stroke="midnightblue" d="M162.1,-182.57C173.25,-181.18 184.69,-179.76 195.83,-178.38"/>
<polygon fill="midnightblue" stroke="midnightblue" points="196.46,-181.83 205.95,-177.13 195.6,-174.88 196.46,-181.83"/>
</g>
<!-- Node11 -->
<g id="node11" class="node">
<title>Node11</title>
<g id="a_node11"><a xlink:href="class_main_namespace_1_1_surface_1_1_single_surface.html#ae5d17671333d624db60d56cf43ffc6c5" target="_top" xlink:title="Setup cluster trees.">
<polygon fill="white" stroke="black" points="198,-202.5 198,-232.5 355,-232.5 355,-202.5 198,-202.5"/>
<text text-anchor="start" x="206" y="-220.5" font-family="Helvetica,sans-Serif" font-size="10.00">MainNamespace::Surface</text>
<text text-anchor="middle" x="276.5" y="-209.5" font-family="Helvetica,sans-Serif" font-size="10.00">::SingleSurface::setupCluster</text>
</a>
</g>
</g>
<!-- Node1&#45;&gt;Node11 -->
<g id="edge11" class="edge">
<title>Node1&#45;&gt;Node11</title>
<path fill="none" stroke="midnightblue" d="M162.1,-202.85C170.62,-203.95 179.32,-205.07 187.92,-206.18"/>
<polygon fill="midnightblue" stroke="midnightblue" points="187.58,-209.67 197.95,-207.48 188.48,-202.73 187.58,-209.67"/>
</g>
<!-- Node17 -->
<g id="node17" class="node">
<title>Node17</title>
<g id="a_node17"><a xlink:href="struct_main_namespace_1_1_mesh.html#a9e3b353180a3b67dc149e8703c164bc3" target="_top" xlink:title="Getter.">
<polygon fill="white" stroke="black" points="211,-104.5 211,-134.5 342,-134.5 342,-104.5 211,-104.5"/>
<text text-anchor="start" x="219" y="-122.5" font-family="Helvetica,sans-Serif" font-size="10.00">MainNamespace::Mesh</text>
<text text-anchor="middle" x="276.5" y="-111.5" font-family="Helvetica,sans-Serif" font-size="10.00">::triangles</text>
</a>
</g>
</g>
<!-- Node1&#45;&gt;Node17 -->
<g id="edge21" class="edge">
<title>Node1&#45;&gt;Node17</title>
<path fill="none" stroke="midnightblue" d="M116.23,-177.49C139.18,-167.63 170.18,-154.72 198,-144.5 204.24,-142.21 210.8,-139.91 217.36,-137.69"/>
<polygon fill="midnightblue" stroke="midnightblue" points="218.54,-140.99 226.93,-134.51 216.33,-134.35 218.54,-140.99"/>
</g>
<!-- Node18 -->
<g id="node18" class="node">
<title>Node18</title>
<g id="a_node18"><a xlink:href="struct_main_namespace_1_1_mesh.html#ab0133714e18c8aaee3deb84910cef54c" target="_top" xlink:title="Getter.">
<polygon fill="white" stroke="black" points="211,-55.5 211,-85.5 342,-85.5 342,-55.5 211,-55.5"/>
<text text-anchor="start" x="219" y="-73.5" font-family="Helvetica,sans-Serif" font-size="10.00">MainNamespace::Mesh</text>
<text text-anchor="middle" x="276.5" y="-62.5" font-family="Helvetica,sans-Serif" font-size="10.00">::vertices</text>
</a>
</g>
</g>
<!-- Node1&#45;&gt;Node18 -->
<g id="edge22" class="edge">
<title>Node1&#45;&gt;Node18</title>
<path fill="none" stroke="midnightblue" d="M95.94,-177.39C116.39,-156.05 156.61,-117.16 198,-94.5 201.28,-92.7 204.72,-91.02 208.24,-89.45"/>
<polygon fill="midnightblue" stroke="midnightblue" points="209.8,-92.59 217.71,-85.54 207.14,-86.12 209.8,-92.59"/>
</g>
<!-- Node3 -->
<g id="node3" class="node">
<title>Node3</title>
<g id="a_node3"><a xlink:href="namespace_main_namespace.html#af2bdf8b63f748b11f1bb616b59890873" target="_top" xlink:title=" ">
<polygon fill="white" stroke="black" points="593,-342 593,-361 766,-361 766,-342 593,-342"/>
<text text-anchor="middle" x="679.5" y="-349" font-family="Helvetica,sans-Serif" font-size="10.00">MainNamespace::getUnderlying</text>
</a>
</g>
</g>
<!-- Node2&#45;&gt;Node3 -->
<g id="edge2" class="edge">
<title>Node2&#45;&gt;Node3</title>
<path fill="none" stroke="midnightblue" d="M527.15,-349.31C544.24,-349.56 563.54,-349.84 582.48,-350.11"/>
<polygon fill="midnightblue" stroke="midnightblue" points="582.6,-353.61 592.65,-350.26 582.7,-346.61 582.6,-353.61"/>
</g>
<!-- Node5 -->
<g id="node5" class="node">
<title>Node5</title>
<g id="a_node5"><a xlink:href="namespace_main_namespace_1_1_logger.html#af052b0198f333fca77f0837a511ec7f7" target="_top" xlink:title=" ">
<polygon fill="white" stroke="black" points="611,-292.5 611,-322.5 748,-322.5 748,-292.5 611,-292.5"/>
<text text-anchor="start" x="619" y="-310.5" font-family="Helvetica,sans-Serif" font-size="10.00">MainNamespace::Logger</text>
<text text-anchor="middle" x="679.5" y="-299.5" font-family="Helvetica,sans-Serif" font-size="10.00">::forwardLog</text>
</a>
</g>
</g>
<!-- Node4&#45;&gt;Node5 -->
<g id="edge4" class="edge">
<title>Node4&#45;&gt;Node5</title>
<path fill="none" stroke="midnightblue" d="M549.15,-309.37C565.99,-309.13 583.79,-308.87 600.62,-308.63"/>
<polygon fill="midnightblue" stroke="midnightblue" points="601.01,-312.12 610.95,-308.48 600.9,-305.12 601.01,-312.12"/>
</g>
<!-- Node7 -->
<g id="node7" class="node">
<title>Node7</title>
<g id="a_node7"><a xlink:href="namespace_main_namespace.html#ad6c9cb208aad8941d4a3efa626110c5b" target="_top" xlink:title=" ">
<polygon fill="white" stroke="black" points="615.5,-50 615.5,-69 743.5,-69 743.5,-50 615.5,-50"/>
<text text-anchor="middle" x="679.5" y="-57" font-family="Helvetica,sans-Serif" font-size="10.00">MainNamespace::copy</text>
</a>
</g>
</g>
<!-- Node6&#45;&gt;Node7 -->
<g id="edge6" class="edge">
<title>Node6&#45;&gt;Node7</title>
<path fill="none" stroke="midnightblue" d="M338.9,-153.42C344.64,-150.65 350.13,-147.37 355,-143.5 379.35,-124.16 364.6,-99.94 391,-83.5 457.76,-41.94 550.78,-42.33 612.73,-48.85"/>
<polygon fill="midnightblue" stroke="midnightblue" points="612.45,-52.34 622.78,-49.99 613.23,-45.38 612.45,-52.34"/>
</g>
<!-- Node10 -->
<g id="node10" class="node">
<title>Node10</title>
<g id="a_node10"><a xlink:href="namespace_main_namespace_1_1_surface.html#ae2df9c52faa0d299f2d4241ff436ca77" target="_top" xlink:title=" ">
<polygon fill="white" stroke="black" points="399.5,-0.5 399.5,-30.5 540.5,-30.5 540.5,-0.5 399.5,-0.5"/>
<text text-anchor="start" x="407.5" y="-18.5" font-family="Helvetica,sans-Serif" font-size="10.00">MainNamespace::Surface</text>
<text text-anchor="middle" x="470" y="-7.5" font-family="Helvetica,sans-Serif" font-size="10.00">::copySurface</text>
</a>
</g>
</g>
<!-- Node6&#45;&gt;Node10 -->
<g id="edge9" class="edge">
<title>Node6&#45;&gt;Node10</title>
<path fill="none" stroke="midnightblue" d="M341.58,-153.3C346.46,-150.56 351.02,-147.32 355,-143.5 388.46,-111.35 358.44,-78.56 391,-45.5 394.66,-41.78 398.83,-38.52 403.3,-35.65"/>
<polygon fill="midnightblue" stroke="midnightblue" points="405.21,-38.59 412.19,-30.62 401.76,-32.5 405.21,-38.59"/>
</g>
<!-- Node8 -->
<g id="node8" class="node">
<title>Node8</title>
<g id="a_node8"><a xlink:href="namespace_main_namespace.html#a066656219cf67ef84d18b17a7daae845" target="_top" xlink:title=" ">
<polygon fill="white" stroke="black" points="816.5,-50 816.5,-69 975.5,-69 975.5,-50 816.5,-50"/>
<text text-anchor="middle" x="896" y="-57" font-family="Helvetica,sans-Serif" font-size="10.00">MainNamespace::maybeFree</text>
</a>
</g>
</g>
<!-- Node7&#45;&gt;Node8 -->
<g id="edge7" class="edge">
<title>Node7&#45;&gt;Node8</title>
<path fill="none" stroke="midnightblue" d="M743.7,-59.5C763.24,-59.5 785.14,-59.5 806.08,-59.5"/>
<polygon fill="midnightblue" stroke="midnightblue" points="806.27,-63 816.27,-59.5 806.27,-56 806.27,-63"/>
</g>
<!-- Node9 -->
<g id="node9" class="node">
<title>Node9</title>
<g id="a_node9"><a xlink:href="namespace_main_namespace_1_1_c_functions.html#a4c174a200de18d1f8aa4f313eef7513a" target="_top" xlink:title=" ">
<polygon fill="white" stroke="black" points="1018,-63.5 1018,-93.5 1176,-93.5 1176,-63.5 1018,-63.5"/>
<text text-anchor="start" x="1026" y="-81.5" font-family="Helvetica,sans-Serif" font-size="10.00">MainNamespace::CFunctions</text>
<text text-anchor="middle" x="1097" y="-70.5" font-family="Helvetica,sans-Serif" font-size="10.00">::freeCPointer</text>
</a>
</g>
</g>
<!-- Node8&#45;&gt;Node9 -->
<g id="edge8" class="edge">
<title>Node8&#45;&gt;Node9</title>
<path fill="none" stroke="midnightblue" d="M975.65,-67.01C986.19,-68.02 997.05,-69.05 1007.74,-70.07"/>
<polygon fill="midnightblue" stroke="midnightblue" points="1007.63,-73.58 1017.92,-71.05 1008.3,-66.61 1007.63,-73.58"/>
</g>
<!-- Node10&#45;&gt;Node7 -->
<g id="edge10" class="edge">
<title>Node10&#45;&gt;Node7</title>
<path fill="none" stroke="midnightblue" d="M540.67,-30.27C567.7,-36 598.19,-42.47 623.61,-47.86"/>
<polygon fill="midnightblue" stroke="midnightblue" points="622.94,-51.3 633.45,-49.95 624.39,-44.45 622.94,-51.3"/>
</g>
<!-- Node11&#45;&gt;Node2 -->
<g id="edge12" class="edge">
<title>Node11&#45;&gt;Node2</title>
<path fill="none" stroke="midnightblue" d="M288.53,-232.81C306.92,-257.17 346.27,-304.55 391,-329.5 395.01,-331.74 399.28,-333.71 403.68,-335.46"/>
<polygon fill="midnightblue" stroke="midnightblue" points="402.86,-338.88 413.46,-338.92 405.2,-332.28 402.86,-338.88"/>
</g>
<!-- Node11&#45;&gt;Node4 -->
<g id="edge19" class="edge">
<title>Node11&#45;&gt;Node4</title>
<path fill="none" stroke="midnightblue" d="M298.72,-232.58C326.01,-251.75 372.11,-283.33 391,-291.5 396.71,-293.97 402.8,-296.16 408.96,-298.08"/>
<polygon fill="midnightblue" stroke="midnightblue" points="408.08,-301.47 418.66,-300.9 410.03,-294.75 408.08,-301.47"/>
</g>
<!-- Node11&#45;&gt;Node9 -->
<g id="edge17" class="edge">
<title>Node11&#45;&gt;Node9</title>
<path fill="none" stroke="midnightblue" d="M340.42,-202.47C345.61,-199.93 350.55,-196.96 355,-193.5 379.24,-174.63 364.83,-150.58 391,-134.5 442.37,-102.93 830.01,-86.84 1007.61,-81.06"/>
<polygon fill="midnightblue" stroke="midnightblue" points="1007.83,-84.55 1017.71,-80.73 1007.6,-77.55 1007.83,-84.55"/>
</g>
<!-- Node12 -->
<g id="node12" class="node">
<title>Node12</title>
<g id="a_node12"><a xlink:href="namespace_main_namespace_1_1_surface.html#a7248ad7bf241ea07a39fc5264435d46e" target="_top" xlink:title=" ">
<polygon fill="white" stroke="black" points="399.5,-251.5 399.5,-281.5 540.5,-281.5 540.5,-251.5 399.5,-251.5"/>
<text text-anchor="start" x="407.5" y="-269.5" font-family="Helvetica,sans-Serif" font-size="10.00">MainNamespace::Surface</text>
<text text-anchor="middle" x="470" y="-258.5" font-family="Helvetica,sans-Serif" font-size="10.00">::buildGeometricCluster</text>
</a>
</g>
</g>
<!-- Node11&#45;&gt;Node12 -->
<g id="edge13" class="edge">
<title>Node11&#45;&gt;Node12</title>
<path fill="none" stroke="midnightblue" d="M336.26,-232.53C356.57,-237.73 379.51,-243.6 400.53,-248.98"/>
<polygon fill="midnightblue" stroke="midnightblue" points="399.8,-252.41 410.35,-251.49 401.53,-245.62 399.8,-252.41"/>
</g>
<!-- Node13 -->
<g id="node13" class="node">
<title>Node13</title>
<g id="a_node13"><a xlink:href="namespace_main_namespace.html#ae3de5f8d4e5a65270c9f1300f9eb0550" target="_top" xlink:title=" ">
<polygon fill="white" stroke="black" points="585,-188 585,-207 774,-207 774,-188 585,-188"/>
<text text-anchor="middle" x="679.5" y="-195" font-family="Helvetica,sans-Serif" font-size="10.00">MainNamespace::clusterResolution</text>
</a>
</g>
</g>
<!-- Node11&#45;&gt;Node13 -->
<g id="edge16" class="edge">
<title>Node11&#45;&gt;Node13</title>
<path fill="none" stroke="midnightblue" d="M337.73,-202.36C343.77,-199.82 349.64,-196.88 355,-193.5 374.95,-180.91 369.39,-163.96 391,-154.5 480,-115.53 597.73,-159.49 650.65,-183.69"/>
<polygon fill="midnightblue" stroke="midnightblue" points="649.21,-186.88 659.75,-187.95 652.18,-180.54 649.21,-186.88"/>
</g>
<!-- Node15 -->
<g id="node15" class="node">
<title>Node15</title>
<g id="a_node15"><a xlink:href="class_main_namespace_1_1_surface_1_1_single_surface.html#ab51f55fa95a3e81416dd88ba743efa57" target="_top" xlink:title="Getter.">
<polygon fill="white" stroke="black" points="398.5,-202.5 398.5,-232.5 541.5,-232.5 541.5,-202.5 398.5,-202.5"/>
<text text-anchor="start" x="406.5" y="-220.5" font-family="Helvetica,sans-Serif" font-size="10.00">MainNamespace::Surface</text>
<text text-anchor="middle" x="470" y="-209.5" font-family="Helvetica,sans-Serif" font-size="10.00">::SingleSurface::geometry</text>
</a>
</g>
</g>
<!-- Node11&#45;&gt;Node15 -->
<g id="edge18" class="edge">
<title>Node11&#45;&gt;Node15</title>
<path fill="none" stroke="midnightblue" d="M355.11,-217.5C366.07,-217.5 377.35,-217.5 388.36,-217.5"/>
<polygon fill="midnightblue" stroke="midnightblue" points="388.38,-221 398.38,-217.5 388.38,-214 388.38,-221"/>
</g>
<!-- Node16 -->
<g id="node16" class="node">
<title>Node16</title>
<g id="a_node16"><a xlink:href="namespace_main_namespace.html#a8104aa37d7d31758ac725060a96f07d9" target="_top" xlink:title=" ">
<polygon fill="white" stroke="black" points="408,-164 408,-183 532,-183 532,-164 408,-164"/>
<text text-anchor="middle" x="470" y="-171" font-family="Helvetica,sans-Serif" font-size="10.00">MainNamespace::size</text>
</a>
</g>
</g>
<!-- Node11&#45;&gt;Node16 -->
<g id="edge20" class="edge">
<title>Node11&#45;&gt;Node16</title>
<path fill="none" stroke="midnightblue" d="M342.87,-202.48C367.31,-196.86 394.71,-190.57 417.7,-185.29"/>
<polygon fill="midnightblue" stroke="midnightblue" points="418.64,-188.66 427.6,-183.01 417.07,-181.84 418.64,-188.66"/>
</g>
<!-- Node12&#45;&gt;Node13 -->
<g id="edge14" class="edge">
<title>Node12&#45;&gt;Node13</title>
<path fill="none" stroke="midnightblue" d="M521.02,-251.4C530.34,-248.51 539.98,-245.45 549,-242.5 580.55,-232.17 616.16,-219.74 642.05,-210.56"/>
<polygon fill="midnightblue" stroke="midnightblue" points="643.56,-213.74 651.81,-207.09 641.21,-207.14 643.56,-213.74"/>
</g>
<!-- Node14 -->
<g id="node14" class="node">
<title>Node14</title>
<g id="a_node14"><a xlink:href="namespace_main_namespace.html#a6fd76e14adc7d23a9822334cb389b369" target="_top" xlink:title=" ">
<polygon fill="white" stroke="black" points="810,-188 810,-207 982,-207 982,-188 810,-188"/>
<text text-anchor="middle" x="896" y="-195" font-family="Helvetica,sans-Serif" font-size="10.00">MainNamespace::globalOptions</text>
</a>
</g>
</g>
<!-- Node13&#45;&gt;Node14 -->
<g id="edge15" class="edge">
<title>Node13&#45;&gt;Node14</title>
<path fill="none" stroke="midnightblue" d="M774.27,-197.5C782.69,-197.5 791.21,-197.5 799.64,-197.5"/>
<polygon fill="midnightblue" stroke="midnightblue" points="799.86,-201 809.86,-197.5 799.86,-194 799.86,-201"/>
</g>
</g>
</svg>
        <g id="navigator" transform="translate(0 0)" fill="#404254">
                <rect fill="#f2f5e9" fill-opacity="0.5" stroke="#606060" stroke-width=".5" x="0" y="0" width="60" height="60"/>
                <use id="zoomplus" xlink:href="#zoomPlus" x="17" y="9" onmousedown="handleZoom(evt,'in')"/>
                <use id="zoomminus" xlink:href="#zoomMin" x="42" y="9" onmousedown="handleZoom(evt,'out')"/>
                <use id="reset" xlink:href="#resetDef" x="30" y="36" onmousedown="handleReset()"/>
                <g id="arrowUp" xlink:href="#dirArrow" transform="translate(30 24)" onmousedown="handlePan(0,-1)">
                  <use xlink:href="#rim" fill="#404040">
                        <set attributeName="fill" to="#808080" begin="arrowUp.mouseover" end="arrowUp.mouseout"/>
                  </use>
                  <path fill="none" stroke="white" stroke-width="1.5" d="M0,-3.0v7 M-2.5,-0.5L0,-3.0L2.5,-0.5"/>
                </g>
                <g id="arrowRight" xlink:href="#dirArrow" transform="rotate(90) translate(36 -43)" onmousedown="handlePan(1,0)">
                  <use xlink:href="#rim" fill="#404040">
                        <set attributeName="fill" to="#808080" begin="arrowRight.mouseover" end="arrowRight.mouseout"/>
                  </use>
                  <path fill="none" stroke="white" stroke-width="1.5" d="M0,-3.0v7 M-2.5,-0.5L0,-3.0L2.5,-0.5"/>
                </g>
                <g id="arrowDown" xlink:href="#dirArrow" transform="rotate(180) translate(-30 -48)" onmousedown="handlePan(0,1)">
                  <use xlink:href="#rim" fill="#404040">
                        <set attributeName="fill" to="#808080" begin="arrowDown.mouseover" end="arrowDown.mouseout"/>
                  </use>
                  <path fill="none" stroke="white" stroke-width="1.5" d="M0,-3.0v7 M-2.5,-0.5L0,-3.0L2.5,-0.5"/>
                </g>
                <g id="arrowLeft" xlink:href="#dirArrow" transform="rotate(270) translate(-36 17)" onmousedown="handlePan(-1,0)">
                  <use xlink:href="#rim" fill="#404040">
                        <set attributeName="fill" to="#808080" begin="arrowLeft.mouseover" end="arrowLeft.mouseout"/>
                  </use>
                  <path fill="none" stroke="white" stroke-width="1.5" d="M0,-3.0v7 M-2.5,-0.5L0,-3.0L2.5,-0.5"/>
                </g>
        </g>
        <svg viewBox="0 0 15 15" width="100%" height="30px" preserveAspectRatio="xMaxYMin meet">
         <g id="arrow_out" transform="scale(0.3 0.3)">
          <a xlink:href="class_main_namespace_1_1_surface_1_1_single_surface_a2cb253a6c5cc5d0c66ead47e5db3233b_cgraph_org.svg" target="_base">
           <rect id="button" ry="5" rx="5" y="6" x="6" height="38" width="38"
                fill="#f2f5e9" fill-opacity="0.5" stroke="#606060" stroke-width="1.0"/>
           <path id="arrow"
             d="M 11.500037,31.436501 C 11.940474,20.09759 22.043105,11.32322 32.158766,21.979434 L 37.068811,17.246167 C 37.068811,17.246167 37.088388,32 37.088388,32 L 22.160133,31.978069 C 22.160133,31.978069 26.997745,27.140456 26.997745,27.140456 C 18.528582,18.264221 13.291696,25.230495 11.500037,31.436501 z"
             style="fill:#404040;"/>
          </a>
         </g>
        </svg>
</svg>
