<?xml version="1.0" encoding="UTF-8" standalone="no"?>
<!DOCTYPE svg PUBLIC "-//W3C//DTD SVG 1.1//EN"
 "http://www.w3.org/Graphics/SVG/1.1/DTD/svg11.dtd">
<!-- Generated by graphviz version 2.43.0 (0)
 -->
<!-- Title: lyra::arg Pages: 1 -->
<svg width="369pt" height="309pt"
 viewBox="0.00 0.00 369.00 309.00" xmlns="http://www.w3.org/2000/svg" xmlns:xlink="http://www.w3.org/1999/xlink">
<g id="graph0" class="graph" transform="scale(1 1) rotate(0) translate(4 305)">
<title>lyra::arg</title>
<polygon fill="white" stroke="transparent" points="-4,4 -4,-305 365,-305 365,4 -4,4"/>
<!-- Node1 -->
<g id="node1" class="node">
<title>Node1</title>
<g id="a_node1"><a xlink:title=" ">
<polygon fill="#bfbfbf" stroke="black" points="40,-0.5 40,-19.5 97,-19.5 97,-0.5 40,-0.5"/>
<text text-anchor="middle" x="68.5" y="-7.5" font-family="Helvetica,sans-Serif" font-size="10.00">lyra::arg</text>
</a>
</g>
</g>
<!-- Node2 -->
<g id="node2" class="node">
<title>Node2</title>
<g id="a_node2"><a xlink:href="classlyra_1_1bound__parser.html" target="_top" xlink:title=" ">
<polygon fill="white" stroke="black" points="15,-57.5 15,-87.5 122,-87.5 122,-57.5 15,-57.5"/>
<text text-anchor="start" x="23" y="-75.5" font-family="Helvetica,sans-Serif" font-size="10.00">lyra::bound_parser</text>
<text text-anchor="middle" x="68.5" y="-64.5" font-family="Helvetica,sans-Serif" font-size="10.00">&lt; arg &gt;</text>
</a>
</g>
</g>
<!-- Node2&#45;&gt;Node1 -->
<g id="edge1" class="edge">
<title>Node2&#45;&gt;Node1</title>
<path fill="none" stroke="midnightblue" d="M61.87,-47.35C61.47,-37.51 62.05,-26.78 63.63,-19.54"/>
<polygon fill="midnightblue" stroke="midnightblue" points="58.4,-47.79 62.7,-57.47 65.37,-47.22 58.4,-47.79"/>
</g>
<!-- Node2&#45;&gt;Node1 -->
<g id="edge14" class="edge">
<title>Node2&#45;&gt;Node1</title>
<path fill="none" stroke="midnightblue" d="M75.13,-47.35C75.53,-37.51 74.95,-26.78 73.37,-19.54"/>
<polygon fill="midnightblue" stroke="midnightblue" points="71.63,-47.22 74.3,-57.47 78.6,-47.79 71.63,-47.22"/>
</g>
<!-- Node3 -->
<g id="node3" class="node">
<title>Node3</title>
<g id="a_node3"><a xlink:href="classlyra_1_1composable__parser.html" target="_top" xlink:title=" ">
<polygon fill="white" stroke="black" points="0,-135.5 0,-165.5 137,-165.5 137,-135.5 0,-135.5"/>
<text text-anchor="start" x="8" y="-153.5" font-family="Helvetica,sans-Serif" font-size="10.00">lyra::composable_parser</text>
<text text-anchor="middle" x="68.5" y="-142.5" font-family="Helvetica,sans-Serif" font-size="10.00">&lt; arg &gt;</text>
</a>
</g>
</g>
<!-- Node3&#45;&gt;Node2 -->
<g id="edge2" class="edge">
<title>Node3&#45;&gt;Node2</title>
<path fill="none" stroke="midnightblue" d="M62.15,-125.09C61.39,-112.76 61.71,-98.22 63.1,-87.73"/>
<polygon fill="midnightblue" stroke="midnightblue" points="58.68,-125.57 63.09,-135.2 65.65,-124.92 58.68,-125.57"/>
</g>
<!-- Node3&#45;&gt;Node2 -->
<g id="edge8" class="edge">
<title>Node3&#45;&gt;Node2</title>
<path fill="none" stroke="midnightblue" d="M74.85,-125.09C75.61,-112.76 75.29,-98.22 73.9,-87.73"/>
<polygon fill="midnightblue" stroke="midnightblue" points="71.35,-124.92 73.91,-135.2 78.32,-125.57 71.35,-124.92"/>
</g>
<!-- Node4 -->
<g id="node4" class="node">
<title>Node4</title>
<g id="a_node4"><a xlink:href="classlyra_1_1parser.html" target="_top" xlink:title=" ">
<polygon fill="white" stroke="black" points="101.5,-281.5 101.5,-300.5 173.5,-300.5 173.5,-281.5 101.5,-281.5"/>
<text text-anchor="middle" x="137.5" y="-288.5" font-family="Helvetica,sans-Serif" font-size="10.00">lyra::parser</text>
</a>
</g>
</g>
<!-- Node4&#45;&gt;Node3 -->
<g id="edge3" class="edge">
<title>Node4&#45;&gt;Node3</title>
<path fill="none" stroke="midnightblue" d="M91.99,-277.55C75.74,-270.33 59.36,-259.52 50.5,-244 36.42,-219.34 45.95,-184.87 56.21,-165.73"/>
<polygon fill="midnightblue" stroke="midnightblue" points="90.91,-280.88 101.49,-281.39 93.54,-274.4 90.91,-280.88"/>
</g>
<!-- Node4&#45;&gt;Node3 -->
<g id="edge4" class="edge">
<title>Node4&#45;&gt;Node3</title>
<path fill="none" stroke="midnightblue" d="M107.59,-277.14C93.13,-269.92 77.2,-259.23 68.5,-244 54.42,-219.34 63.95,-184.87 68.36,-165.73"/>
<polygon fill="midnightblue" stroke="midnightblue" points="106.25,-280.37 116.79,-281.39 109.18,-274.02 106.25,-280.37"/>
</g>
<!-- Node5 -->
<g id="node5" class="node">
<title>Node5</title>
<g id="a_node5"><a xlink:href="classlyra_1_1composable__parser.html" target="_top" xlink:title=" ">
<polygon fill="white" stroke="black" points="69,-213.5 69,-243.5 206,-243.5 206,-213.5 69,-213.5"/>
<text text-anchor="start" x="77" y="-231.5" font-family="Helvetica,sans-Serif" font-size="10.00">lyra::composable_parser</text>
<text text-anchor="middle" x="137.5" y="-220.5" font-family="Helvetica,sans-Serif" font-size="10.00">&lt; Derived &gt;</text>
</a>
</g>
</g>
<!-- Node4&#45;&gt;Node5 -->
<g id="edge6" class="edge">
<title>Node4&#45;&gt;Node5</title>
<path fill="none" stroke="midnightblue" d="M131.2,-271.22C130.47,-262.36 130.63,-251.96 131.67,-243.76"/>
<polygon fill="midnightblue" stroke="midnightblue" points="127.76,-271.91 132.6,-281.33 134.7,-270.95 127.76,-271.91"/>
</g>
<!-- Node4&#45;&gt;Node5 -->
<g id="edge7" class="edge">
<title>Node4&#45;&gt;Node5</title>
<path fill="none" stroke="midnightblue" d="M143.8,-271.22C144.53,-262.36 144.37,-251.96 143.33,-243.76"/>
<polygon fill="midnightblue" stroke="midnightblue" points="140.3,-270.95 142.4,-281.33 147.24,-271.91 140.3,-270.95"/>
</g>
<!-- Node7 -->
<g id="node7" class="node">
<title>Node7</title>
<g id="a_node7"><a xlink:href="classlyra_1_1composable__parser.html" target="_top" xlink:title=" ">
<polygon fill="white" stroke="black" points="224,-213.5 224,-243.5 361,-243.5 361,-213.5 224,-213.5"/>
<text text-anchor="start" x="232" y="-231.5" font-family="Helvetica,sans-Serif" font-size="10.00">lyra::composable_parser</text>
<text text-anchor="middle" x="292.5" y="-220.5" font-family="Helvetica,sans-Serif" font-size="10.00">&lt; Derived &gt;</text>
</a>
</g>
</g>
<!-- Node4&#45;&gt;Node7 -->
<g id="edge11" class="edge">
<title>Node4&#45;&gt;Node7</title>
<path fill="none" stroke="midnightblue" d="M163.96,-277.49C187.78,-267.62 222.99,-253.85 250.6,-243.59"/>
<polygon fill="midnightblue" stroke="midnightblue" points="162.37,-274.36 154.51,-281.46 165.08,-280.82 162.37,-274.36"/>
</g>
<!-- Node4&#45;&gt;Node7 -->
<g id="edge12" class="edge">
<title>Node4&#45;&gt;Node7</title>
<path fill="none" stroke="midnightblue" d="M173.72,-278.01C200.64,-268.11 236.81,-254.03 262.21,-243.59"/>
<polygon fill="midnightblue" stroke="midnightblue" points="172.45,-274.75 164.25,-281.46 174.85,-281.33 172.45,-274.75"/>
</g>
<!-- Node5&#45;&gt;Node3 -->
<g id="edge5" class="edge">
<title>Node5&#45;&gt;Node3</title>
<path fill="none" stroke="orange" stroke-dasharray="5,2" d="M117.68,-205.67C106.02,-192.83 91.62,-176.97 81.42,-165.73"/>
<polygon fill="orange" stroke="orange" points="115.21,-208.15 124.52,-213.2 120.39,-203.45 115.21,-208.15"/>
<text text-anchor="middle" x="128.5" y="-187" font-family="Helvetica,sans-Serif" font-size="10.00"> &lt; arg &gt;</text>
</g>
<!-- Node6 -->
<g id="node6" class="node">
<title>Node6</title>
<g id="a_node6"><a xlink:href="classlyra_1_1bound__parser.html" target="_top" xlink:title=" ">
<polygon fill="white" stroke="black" points="239,-135.5 239,-165.5 346,-165.5 346,-135.5 239,-135.5"/>
<text text-anchor="start" x="247" y="-153.5" font-family="Helvetica,sans-Serif" font-size="10.00">lyra::bound_parser</text>
<text text-anchor="middle" x="292.5" y="-142.5" font-family="Helvetica,sans-Serif" font-size="10.00">&lt; Derived &gt;</text>
</a>
</g>
</g>
<!-- Node6&#45;&gt;Node2 -->
<g id="edge9" class="edge">
<title>Node6&#45;&gt;Node2</title>
<path fill="none" stroke="orange" stroke-dasharray="5,2" d="M241.63,-132.24C201.82,-118.73 147.16,-100.19 109.98,-87.57"/>
<polygon fill="orange" stroke="orange" points="240.56,-135.57 251.15,-135.47 242.81,-128.94 240.56,-135.57"/>
<text text-anchor="middle" x="214.5" y="-109" font-family="Helvetica,sans-Serif" font-size="10.00"> &lt; arg &gt;</text>
</g>
<!-- Node7&#45;&gt;Node6 -->
<g id="edge10" class="edge">
<title>Node7&#45;&gt;Node6</title>
<path fill="none" stroke="midnightblue" d="M286.15,-203.09C285.39,-190.76 285.71,-176.22 287.1,-165.73"/>
<polygon fill="midnightblue" stroke="midnightblue" points="282.68,-203.57 287.09,-213.2 289.65,-202.92 282.68,-203.57"/>
</g>
<!-- Node7&#45;&gt;Node6 -->
<g id="edge13" class="edge">
<title>Node7&#45;&gt;Node6</title>
<path fill="none" stroke="midnightblue" d="M298.85,-203.09C299.61,-190.76 299.29,-176.22 297.9,-165.73"/>
<polygon fill="midnightblue" stroke="midnightblue" points="295.35,-202.92 297.91,-213.2 302.32,-203.57 295.35,-202.92"/>
</g>
</g>
</svg>
