<?xml version="1.0" encoding="UTF-8" standalone="no"?>
<!DOCTYPE svg PUBLIC "-//W3C//DTD SVG 1.1//EN"
 "http://www.w3.org/Graphics/SVG/1.1/DTD/svg11.dtd">
<!-- Generated by graphviz version 2.43.0 (0)
 -->
<!-- Title: MainNamespace::Surface::SingleSurface::makeSingleRhs Pages: 1 -->
<!--zoomable 372 -->
<svg id="main" version="1.1" xmlns="http://www.w3.org/2000/svg" xmlns:xlink="http://www.w3.org/1999/xlink" xml:space="preserve" onload="init(evt)">
<style type="text/css"><![CDATA[
.edge:hover path { stroke: red; }
.edge:hover polygon { stroke: red; fill: red; }
]]></style>
<script type="text/javascript"><![CDATA[
var edges = document.getElementsByTagName('g');
if (edges && edges.length) {
  for (var i=0;i<edges.length;i++) {
    if (edges[i].id.substr(0,4)=='edge') {
      edges[i].setAttribute('class','edge');
    }
  }
}
]]></script>
        <defs>
                <circle id="rim" cx="0" cy="0" r="7"/>
                <circle id="rim2" cx="0" cy="0" r="3.5"/>
                <g id="zoomPlus">
                        <use xlink:href="#rim" fill="#404040">
                                <set attributeName="fill" to="#808080" begin="zoomplus.mouseover" end="zoomplus.mouseout"/>
                        </use>
                        <path d="M-4,0h8M0,-4v8" fill="none" stroke="white" stroke-width="1.5" pointer-events="none"/>
                </g>
                <g id="zoomMin">
                        <use xlink:href="#rim" fill="#404040">
                                <set attributeName="fill" to="#808080" begin="zoomminus.mouseover" end="zoomminus.mouseout"/>
                        </use>
                        <path d="M-4,0h8" fill="none" stroke="white" stroke-width="1.5" pointer-events="none"/>
                </g>
                <g id="dirArrow">
                        <path fill="none" stroke="white" stroke-width="1.5" d="M0,-3.0v7 M-2.5,-0.5L0,-3.0L2.5,-0.5"/>
                </g>
               <g id="resetDef">
                       <use xlink:href="#rim2" fill="#404040">
                               <set attributeName="fill" to="#808080" begin="reset.mouseover" end="reset.mouseout"/>
                       </use>
               </g>
        </defs>

<script type="text/javascript">
var viewWidth = 772;
var viewHeight = 372;
var sectionId = 'dynsection-17';
</script>
<script xlink:href="svgpan.js"/>
<svg id="graph" class="graph">
<g id="viewport">
<title>MainNamespace::Surface::SingleSurface::makeSingleRhs</title>
<polygon fill="white" stroke="transparent" points="-4,4 -4,-367.5 768,-367.5 768,4 -4,4"/>
<!-- Node1 -->
<g id="node1" class="node">
<title>Node1</title>
<g id="a_node1"><a xlink:title="Project the offset on the current mesh, then use it to compute the right&#45;hand side.">
<polygon fill="#bfbfbf" stroke="black" points="0,-98.5 0,-128.5 170,-128.5 170,-98.5 0,-98.5"/>
<text text-anchor="start" x="8" y="-116.5" font-family="Helvetica,sans-Serif" font-size="10.00">MainNamespace::Surface</text>
<text text-anchor="middle" x="85" y="-105.5" font-family="Helvetica,sans-Serif" font-size="10.00">::SingleSurface::makeSingleRhs</text>
</a>
</g>
</g>
<!-- Node2 -->
<g id="node2" class="node">
<title>Node2</title>
<g id="a_node2"><a xlink:href="class_main_namespace_1_1_surface_1_1_single_surface.html#a18885e3f98157c025137d7668fe65301" target="_top" xlink:title="Apply the (scaled) Calderón operator (previously constructed) to the source vector,...">
<polygon fill="white" stroke="black" points="214.5,-171.5 214.5,-201.5 355.5,-201.5 355.5,-171.5 214.5,-171.5"/>
<text text-anchor="start" x="222.5" y="-189.5" font-family="Helvetica,sans-Serif" font-size="10.00">MainNamespace::Surface</text>
<text text-anchor="middle" x="285" y="-178.5" font-family="Helvetica,sans-Serif" font-size="10.00">::SingleSurface::apply</text>
</a>
</g>
</g>
<!-- Node1&#45;&gt;Node2 -->
<g id="edge1" class="edge">
<title>Node1&#45;&gt;Node2</title>
<path fill="none" stroke="midnightblue" d="M127.03,-128.63C157.95,-140.03 200.54,-155.73 233.55,-167.9"/>
<polygon fill="midnightblue" stroke="midnightblue" points="232.43,-171.22 243.03,-171.39 234.85,-164.65 232.43,-171.22"/>
</g>
<!-- Node11 -->
<g id="node11" class="node">
<title>Node11</title>
<g id="a_node11"><a xlink:href="namespace_main_namespace_1_1_logger.html#afbb4cc2d8b498e71fcb228f0da8309a1" target="_top" xlink:title=" ">
<polygon fill="white" stroke="black" points="206,-82 206,-101 364,-101 364,-82 206,-82"/>
<text text-anchor="middle" x="285" y="-89" font-family="Helvetica,sans-Serif" font-size="10.00">MainNamespace::Logger::log</text>
</a>
</g>
</g>
<!-- Node1&#45;&gt;Node11 -->
<g id="edge10" class="edge">
<title>Node1&#45;&gt;Node11</title>
<path fill="none" stroke="midnightblue" d="M170.26,-104.14C178.64,-103.21 187.16,-102.26 195.58,-101.32"/>
<polygon fill="midnightblue" stroke="midnightblue" points="196.24,-104.77 205.79,-100.19 195.46,-97.82 196.24,-104.77"/>
</g>
<!-- Node3 -->
<g id="node3" class="node">
<title>Node3</title>
<g id="a_node3"><a xlink:href="namespace_main_namespace.html#a85b811ee0af1eea8ab8cbabb1f200e9d" target="_top" xlink:title=" ">
<polygon fill="white" stroke="black" points="407,-344 407,-363 548,-363 548,-344 407,-344"/>
<text text-anchor="middle" x="477.5" y="-351" font-family="Helvetica,sans-Serif" font-size="10.00">MainNamespace::constAt</text>
</a>
</g>
</g>
<!-- Node2&#45;&gt;Node3 -->
<g id="edge2" class="edge">
<title>Node2&#45;&gt;Node3</title>
<path fill="none" stroke="midnightblue" d="M293.38,-201.65C308.81,-231.67 347.44,-298.81 400,-333.5 403.84,-336.04 407.99,-338.25 412.3,-340.18"/>
<polygon fill="midnightblue" stroke="midnightblue" points="411.34,-343.57 421.93,-343.99 413.91,-337.06 411.34,-343.57"/>
</g>
<!-- Node5 -->
<g id="node5" class="node">
<title>Node5</title>
<g id="a_node5"><a xlink:href="namespace_main_namespace_1_1_surface.html#a87d1cf457ea557719602c0fa146bb5d8" target="_top" xlink:title=" ">
<polygon fill="white" stroke="black" points="407,-294.5 407,-324.5 548,-324.5 548,-294.5 407,-294.5"/>
<text text-anchor="start" x="415" y="-312.5" font-family="Helvetica,sans-Serif" font-size="10.00">MainNamespace::Surface</text>
<text text-anchor="middle" x="477.5" y="-301.5" font-family="Helvetica,sans-Serif" font-size="10.00">::del_const_sub_avector</text>
</a>
</g>
</g>
<!-- Node2&#45;&gt;Node5 -->
<g id="edge4" class="edge">
<title>Node2&#45;&gt;Node5</title>
<path fill="none" stroke="midnightblue" d="M299.69,-201.54C319.78,-222.79 359.29,-261.57 400,-284.5 403.87,-286.68 407.96,-288.7 412.15,-290.58"/>
<polygon fill="midnightblue" stroke="midnightblue" points="410.88,-293.84 421.46,-294.44 413.57,-287.37 410.88,-293.84"/>
</g>
<!-- Node6 -->
<g id="node6" class="node">
<title>Node6</title>
<g id="a_node6"><a xlink:href="namespace_main_namespace_1_1_surface.html#a28f7f6dcbbc4ddd8c3944c19f6f6e846" target="_top" xlink:title=" ">
<polygon fill="white" stroke="black" points="407,-245.5 407,-275.5 548,-275.5 548,-245.5 407,-245.5"/>
<text text-anchor="start" x="415" y="-263.5" font-family="Helvetica,sans-Serif" font-size="10.00">MainNamespace::Surface</text>
<text text-anchor="middle" x="477.5" y="-252.5" font-family="Helvetica,sans-Serif" font-size="10.00">::flipForOrientation</text>
</a>
</g>
</g>
<!-- Node2&#45;&gt;Node6 -->
<g id="edge5" class="edge">
<title>Node2&#45;&gt;Node6</title>
<path fill="none" stroke="midnightblue" d="M319.1,-201.66C341.68,-211.78 372.39,-225.08 400,-235.5 405.92,-237.73 412.14,-239.96 418.37,-242.11"/>
<polygon fill="midnightblue" stroke="midnightblue" points="417.52,-245.52 428.12,-245.42 419.77,-238.89 417.52,-245.52"/>
</g>
<!-- Node7 -->
<g id="node7" class="node">
<title>Node7</title>
<g id="a_node7"><a xlink:href="namespace_main_namespace_1_1_surface.html#a2a1d5e2354fdae877885c0e041fd0f34" target="_top" xlink:title=" ">
<polygon fill="white" stroke="black" points="407,-196.5 407,-226.5 548,-226.5 548,-196.5 407,-196.5"/>
<text text-anchor="start" x="415" y="-214.5" font-family="Helvetica,sans-Serif" font-size="10.00">MainNamespace::Surface</text>
<text text-anchor="middle" x="477.5" y="-203.5" font-family="Helvetica,sans-Serif" font-size="10.00">::new_const_sub_avector</text>
</a>
</g>
</g>
<!-- Node2&#45;&gt;Node7 -->
<g id="edge6" class="edge">
<title>Node2&#45;&gt;Node7</title>
<path fill="none" stroke="midnightblue" d="M355.58,-195.63C368.88,-197.38 382.9,-199.22 396.49,-201"/>
<polygon fill="midnightblue" stroke="midnightblue" points="396.42,-204.52 406.79,-202.35 397.33,-197.58 396.42,-204.52"/>
</g>
<!-- Node8 -->
<g id="node8" class="node">
<title>Node8</title>
<g id="a_node8"><a xlink:href="class_main_namespace_1_1_surface_1_1_single_surface.html#a7d8e039812cd3719b07f14d641af0c2d" target="_top" xlink:title="Getter.">
<polygon fill="white" stroke="black" points="407,-147.5 407,-177.5 548,-177.5 548,-147.5 407,-147.5"/>
<text text-anchor="start" x="415" y="-165.5" font-family="Helvetica,sans-Serif" font-size="10.00">MainNamespace::Surface</text>
<text text-anchor="middle" x="477.5" y="-154.5" font-family="Helvetica,sans-Serif" font-size="10.00">::SingleSurface::stabilizer</text>
</a>
</g>
</g>
<!-- Node2&#45;&gt;Node8 -->
<g id="edge7" class="edge">
<title>Node2&#45;&gt;Node8</title>
<path fill="none" stroke="midnightblue" d="M355.58,-177.73C368.88,-176.06 382.9,-174.29 396.49,-172.58"/>
<polygon fill="midnightblue" stroke="midnightblue" points="397.3,-176.01 406.79,-171.28 396.43,-169.06 397.3,-176.01"/>
</g>
<!-- Node9 -->
<g id="node9" class="node">
<title>Node9</title>
<g id="a_node9"><a xlink:href="class_main_namespace_1_1_surface_1_1_single_surface.html#ab8312d4fb49958ca18e9286726a4807f" target="_top" xlink:title="Getter.">
<polygon fill="white" stroke="black" points="400,-98.5 400,-128.5 555,-128.5 555,-98.5 400,-98.5"/>
<text text-anchor="start" x="408" y="-116.5" font-family="Helvetica,sans-Serif" font-size="10.00">MainNamespace::Surface</text>
<text text-anchor="middle" x="477.5" y="-105.5" font-family="Helvetica,sans-Serif" font-size="10.00">::SingleSurface::triangleDofs</text>
</a>
</g>
</g>
<!-- Node2&#45;&gt;Node9 -->
<g id="edge8" class="edge">
<title>Node2&#45;&gt;Node9</title>
<path fill="none" stroke="midnightblue" d="M318.57,-171.45C341.18,-161.26 372.12,-147.83 400,-137.5 405.22,-135.56 410.68,-133.65 416.17,-131.79"/>
<polygon fill="midnightblue" stroke="midnightblue" points="417.65,-134.99 426.05,-128.52 415.46,-128.34 417.65,-134.99"/>
</g>
<!-- Node10 -->
<g id="node10" class="node">
<title>Node10</title>
<g id="a_node10"><a xlink:href="class_main_namespace_1_1_surface_1_1_single_surface.html#ae92b5553e908e57c25c2ebbf4bf94850" target="_top" xlink:title="Getter.">
<polygon fill="white" stroke="black" points="403,-49.5 403,-79.5 552,-79.5 552,-49.5 403,-49.5"/>
<text text-anchor="start" x="411" y="-67.5" font-family="Helvetica,sans-Serif" font-size="10.00">MainNamespace::Surface</text>
<text text-anchor="middle" x="477.5" y="-56.5" font-family="Helvetica,sans-Serif" font-size="10.00">::SingleSurface::vertexDofs</text>
</a>
</g>
</g>
<!-- Node2&#45;&gt;Node10 -->
<g id="edge9" class="edge">
<title>Node2&#45;&gt;Node10</title>
<path fill="none" stroke="midnightblue" d="M299.65,-171.39C319.7,-150.06 359.16,-111.19 400,-88.5 403.23,-86.7 406.62,-85.02 410.09,-83.45"/>
<polygon fill="midnightblue" stroke="midnightblue" points="411.56,-86.63 419.43,-79.55 408.86,-80.17 411.56,-86.63"/>
</g>
<!-- Node4 -->
<g id="node4" class="node">
<title>Node4</title>
<g id="a_node4"><a xlink:href="namespace_main_namespace.html#af2bdf8b63f748b11f1bb616b59890873" target="_top" xlink:title=" ">
<polygon fill="white" stroke="black" points="591,-344 591,-363 764,-363 764,-344 591,-344"/>
<text text-anchor="middle" x="677.5" y="-351" font-family="Helvetica,sans-Serif" font-size="10.00">MainNamespace::getUnderlying</text>
</a>
</g>
</g>
<!-- Node3&#45;&gt;Node4 -->
<g id="edge3" class="edge">
<title>Node3&#45;&gt;Node4</title>
<path fill="none" stroke="midnightblue" d="M548.03,-353.5C558.61,-353.5 569.68,-353.5 580.7,-353.5"/>
<polygon fill="midnightblue" stroke="midnightblue" points="580.79,-357 590.79,-353.5 580.79,-350 580.79,-357"/>
</g>
<!-- Node12 -->
<g id="node12" class="node">
<title>Node12</title>
<g id="a_node12"><a xlink:href="namespace_main_namespace_1_1_logger.html#af052b0198f333fca77f0837a511ec7f7" target="_top" xlink:title=" ">
<polygon fill="white" stroke="black" points="409,-0.5 409,-30.5 546,-30.5 546,-0.5 409,-0.5"/>
<text text-anchor="start" x="417" y="-18.5" font-family="Helvetica,sans-Serif" font-size="10.00">MainNamespace::Logger</text>
<text text-anchor="middle" x="477.5" y="-7.5" font-family="Helvetica,sans-Serif" font-size="10.00">::forwardLog</text>
</a>
</g>
</g>
<!-- Node11&#45;&gt;Node12 -->
<g id="edge11" class="edge">
<title>Node11&#45;&gt;Node12</title>
<path fill="none" stroke="midnightblue" d="M305.05,-81.93C327.44,-70.89 365.87,-52.58 400,-39.5 405.12,-37.54 410.47,-35.61 415.87,-33.76"/>
<polygon fill="midnightblue" stroke="midnightblue" points="417.21,-37 425.58,-30.5 414.99,-30.36 417.21,-37"/>
</g>
</g>
</svg>
        <g id="navigator" transform="translate(0 0)" fill="#404254">
                <rect fill="#f2f5e9" fill-opacity="0.5" stroke="#606060" stroke-width=".5" x="0" y="0" width="60" height="60"/>
                <use id="zoomplus" xlink:href="#zoomPlus" x="17" y="9" onmousedown="handleZoom(evt,'in')"/>
                <use id="zoomminus" xlink:href="#zoomMin" x="42" y="9" onmousedown="handleZoom(evt,'out')"/>
                <use id="reset" xlink:href="#resetDef" x="30" y="36" onmousedown="handleReset()"/>
                <g id="arrowUp" xlink:href="#dirArrow" transform="translate(30 24)" onmousedown="handlePan(0,-1)">
                  <use xlink:href="#rim" fill="#404040">
                        <set attributeName="fill" to="#808080" begin="arrowUp.mouseover" end="arrowUp.mouseout"/>
                  </use>
                  <path fill="none" stroke="white" stroke-width="1.5" d="M0,-3.0v7 M-2.5,-0.5L0,-3.0L2.5,-0.5"/>
                </g>
                <g id="arrowRight" xlink:href="#dirArrow" transform="rotate(90) translate(36 -43)" onmousedown="handlePan(1,0)">
                  <use xlink:href="#rim" fill="#404040">
                        <set attributeName="fill" to="#808080" begin="arrowRight.mouseover" end="arrowRight.mouseout"/>
                  </use>
                  <path fill="none" stroke="white" stroke-width="1.5" d="M0,-3.0v7 M-2.5,-0.5L0,-3.0L2.5,-0.5"/>
                </g>
                <g id="arrowDown" xlink:href="#dirArrow" transform="rotate(180) translate(-30 -48)" onmousedown="handlePan(0,1)">
                  <use xlink:href="#rim" fill="#404040">
                        <set attributeName="fill" to="#808080" begin="arrowDown.mouseover" end="arrowDown.mouseout"/>
                  </use>
                  <path fill="none" stroke="white" stroke-width="1.5" d="M0,-3.0v7 M-2.5,-0.5L0,-3.0L2.5,-0.5"/>
                </g>
                <g id="arrowLeft" xlink:href="#dirArrow" transform="rotate(270) translate(-36 17)" onmousedown="handlePan(-1,0)">
                  <use xlink:href="#rim" fill="#404040">
                        <set attributeName="fill" to="#808080" begin="arrowLeft.mouseover" end="arrowLeft.mouseout"/>
                  </use>
                  <path fill="none" stroke="white" stroke-width="1.5" d="M0,-3.0v7 M-2.5,-0.5L0,-3.0L2.5,-0.5"/>
                </g>
        </g>
        <svg viewBox="0 0 15 15" width="100%" height="30px" preserveAspectRatio="xMaxYMin meet">
         <g id="arrow_out" transform="scale(0.3 0.3)">
          <a xlink:href="class_main_namespace_1_1_surface_1_1_single_surface_aae06e89e8298b8e0708f7e6096328f84_cgraph_org.svg" target="_base">
           <rect id="button" ry="5" rx="5" y="6" x="6" height="38" width="38"
                fill="#f2f5e9" fill-opacity="0.5" stroke="#606060" stroke-width="1.0"/>
           <path id="arrow"
             d="M 11.500037,31.436501 C 11.940474,20.09759 22.043105,11.32322 32.158766,21.979434 L 37.068811,17.246167 C 37.068811,17.246167 37.088388,32 37.088388,32 L 22.160133,31.978069 C 22.160133,31.978069 26.997745,27.140456 26.997745,27.140456 C 18.528582,18.264221 13.291696,25.230495 11.500037,31.436501 z"
             style="fill:#404040;"/>
          </a>
         </g>
        </svg>
</svg>
