<?xml version="1.0" encoding="UTF-8" standalone="no"?>
<!DOCTYPE svg PUBLIC "-//W3C//DTD SVG 1.1//EN"
 "http://www.w3.org/Graphics/SVG/1.1/DTD/svg11.dtd">
<!-- Generated by graphviz version 2.43.0 (0)
 -->
<!-- Title: lyra::detail::token_iterator Pages: 1 -->
<svg width="425pt" height="284pt"
 viewBox="0.00 0.00 424.50 284.00" xmlns="http://www.w3.org/2000/svg" xmlns:xlink="http://www.w3.org/1999/xlink">
<g id="graph0" class="graph" transform="scale(1 1) rotate(0) translate(4 280)">
<title>lyra::detail::token_iterator</title>
<polygon fill="white" stroke="transparent" points="-4,4 -4,-280 420.5,-280 420.5,4 -4,4"/>
<!-- Node1 -->
<g id="node1" class="node">
<title>Node1</title>
<g id="a_node1"><a xlink:title=" ">
<polygon fill="#bfbfbf" stroke="black" points="200.5,-0.5 200.5,-30.5 302.5,-30.5 302.5,-0.5 200.5,-0.5"/>
<text text-anchor="start" x="208.5" y="-18.5" font-family="Helvetica,sans-Serif" font-size="10.00">lyra::detail::token</text>
<text text-anchor="middle" x="251.5" y="-7.5" font-family="Helvetica,sans-Serif" font-size="10.00">_iterator</text>
</a>
</g>
</g>
<!-- Node2 -->
<g id="node2" class="node">
<title>Node2</title>
<g id="a_node2"><a xlink:href="structlyra_1_1option__style.html" target="_top" xlink:title=" ">
<polygon fill="white" stroke="black" points="201,-89.5 201,-108.5 302,-108.5 302,-89.5 201,-89.5"/>
<text text-anchor="middle" x="251.5" y="-96.5" font-family="Helvetica,sans-Serif" font-size="10.00">lyra::option_style</text>
</a>
</g>
</g>
<!-- Node2&#45;&gt;Node1 -->
<g id="edge1" class="edge">
<title>Node2&#45;&gt;Node1</title>
<path fill="none" stroke="#9a32cd" stroke-dasharray="5,2" d="M251.5,-79.23C251.5,-64.41 251.5,-44.05 251.5,-30.6"/>
<polygon fill="#9a32cd" stroke="#9a32cd" points="248,-79.28 251.5,-89.28 255,-79.28 248,-79.28"/>
<text text-anchor="middle" x="265.5" y="-57.5" font-family="Helvetica,sans-Serif" font-size="10.00"> style</text>
</g>
<!-- Node3 -->
<g id="node3" class="node">
<title>Node3</title>
<g id="a_node3"><a xlink:title=" ">
<polygon fill="white" stroke="black" points="150,-178.5 150,-197.5 215,-197.5 215,-178.5 150,-178.5"/>
<text text-anchor="middle" x="182.5" y="-185.5" font-family="Helvetica,sans-Serif" font-size="10.00">std::string</text>
</a>
</g>
</g>
<!-- Node3&#45;&gt;Node2 -->
<g id="edge2" class="edge">
<title>Node3&#45;&gt;Node2</title>
<path fill="none" stroke="#9a32cd" stroke-dasharray="5,2" d="M191.45,-169.32C198.23,-156.81 208.28,-140.02 219.5,-127 225.38,-120.17 233.08,-113.62 239.44,-108.69"/>
<polygon fill="#9a32cd" stroke="#9a32cd" points="188.3,-167.8 186.75,-178.28 194.5,-171.05 188.3,-167.8"/>
<text text-anchor="middle" x="267" y="-152" font-family="Helvetica,sans-Serif" font-size="10.00"> long_option_prefix</text>
<text text-anchor="middle" x="267" y="-141" font-family="Helvetica,sans-Serif" font-size="10.00">short_option_prefix</text>
<text text-anchor="middle" x="267" y="-130" font-family="Helvetica,sans-Serif" font-size="10.00">value_delimiters</text>
</g>
<!-- Node6 -->
<g id="node6" class="node">
<title>Node6</title>
<g id="a_node6"><a xlink:title=" ">
<polygon fill="white" stroke="black" points="42.5,-89.5 42.5,-108.5 182.5,-108.5 182.5,-89.5 42.5,-89.5"/>
<text text-anchor="middle" x="112.5" y="-96.5" font-family="Helvetica,sans-Serif" font-size="10.00">std::vector&lt; std::string &gt;</text>
</a>
</g>
</g>
<!-- Node3&#45;&gt;Node6 -->
<g id="edge6" class="edge">
<title>Node3&#45;&gt;Node6</title>
<path fill="none" stroke="#9a32cd" stroke-dasharray="5,2" d="M158.76,-172.7C153.68,-168.97 148.61,-164.67 144.5,-160 137.17,-151.67 123.35,-123.22 116.52,-108.69"/>
<polygon fill="#9a32cd" stroke="#9a32cd" points="156.91,-175.68 167.15,-178.41 160.85,-169.89 156.91,-175.68"/>
<text text-anchor="middle" x="169" y="-141" font-family="Helvetica,sans-Serif" font-size="10.00"> elements</text>
</g>
<!-- Node4 -->
<g id="node4" class="node">
<title>Node4</title>
<g id="a_node4"><a xlink:title=" ">
<polygon fill="white" stroke="black" points="130.5,-245.5 130.5,-275.5 234.5,-275.5 234.5,-245.5 130.5,-245.5"/>
<text text-anchor="start" x="138.5" y="-263.5" font-family="Helvetica,sans-Serif" font-size="10.00">std::basic_string&lt;</text>
<text text-anchor="middle" x="182.5" y="-252.5" font-family="Helvetica,sans-Serif" font-size="10.00"> Char &gt;</text>
</a>
</g>
</g>
<!-- Node4&#45;&gt;Node3 -->
<g id="edge3" class="edge">
<title>Node4&#45;&gt;Node3</title>
<path fill="none" stroke="midnightblue" d="M182.5,-235.09C182.5,-222.21 182.5,-207.2 182.5,-197.89"/>
<polygon fill="midnightblue" stroke="midnightblue" points="179,-235.23 182.5,-245.23 186,-235.23 179,-235.23"/>
</g>
<!-- Node5 -->
<g id="node5" class="node">
<title>Node5</title>
<g id="a_node5"><a xlink:title=" ">
<polygon fill="white" stroke="black" points="314,-178.5 314,-197.5 359,-197.5 359,-178.5 314,-178.5"/>
<text text-anchor="middle" x="336.5" y="-185.5" font-family="Helvetica,sans-Serif" font-size="10.00">size_t</text>
</a>
</g>
</g>
<!-- Node5&#45;&gt;Node2 -->
<g id="edge4" class="edge">
<title>Node5&#45;&gt;Node2</title>
<path fill="none" stroke="#9a32cd" stroke-dasharray="5,2" d="M333.58,-167.93C330.7,-154.97 325.13,-138.21 314.5,-127 306.56,-118.62 295.59,-112.72 285.03,-108.61"/>
<polygon fill="#9a32cd" stroke="#9a32cd" points="330.2,-168.92 335.47,-178.11 337.08,-167.64 330.2,-168.92"/>
<text text-anchor="middle" x="373.5" y="-146.5" font-family="Helvetica,sans-Serif" font-size="10.00"> long_option_size</text>
<text text-anchor="middle" x="373.5" y="-135.5" font-family="Helvetica,sans-Serif" font-size="10.00">short_option_size</text>
</g>
<!-- Node6&#45;&gt;Node1 -->
<g id="edge5" class="edge">
<title>Node6&#45;&gt;Node1</title>
<path fill="none" stroke="#9a32cd" stroke-dasharray="5,2" d="M135.76,-84.36C161.23,-69.43 201.88,-45.59 227.6,-30.51"/>
<polygon fill="#9a32cd" stroke="#9a32cd" points="133.97,-81.35 127.11,-89.43 137.51,-87.39 133.97,-81.35"/>
<text text-anchor="middle" x="212.5" y="-63" font-family="Helvetica,sans-Serif" font-size="10.00"> args_e</text>
<text text-anchor="middle" x="212.5" y="-52" font-family="Helvetica,sans-Serif" font-size="10.00">args_i</text>
</g>
<!-- Node7 -->
<g id="node7" class="node">
<title>Node7</title>
<g id="a_node7"><a xlink:title=" ">
<polygon fill="white" stroke="black" points="0,-178.5 0,-197.5 97,-197.5 97,-178.5 0,-178.5"/>
<text text-anchor="middle" x="48.5" y="-185.5" font-family="Helvetica,sans-Serif" font-size="10.00">std::vector&lt; T &gt;</text>
</a>
</g>
</g>
<!-- Node7&#45;&gt;Node6 -->
<g id="edge7" class="edge">
<title>Node7&#45;&gt;Node6</title>
<path fill="none" stroke="orange" stroke-dasharray="5,2" d="M43.89,-168.45C41.83,-155.73 41.42,-139.04 49.5,-127 55.27,-118.4 64.4,-112.53 73.93,-108.53"/>
<polygon fill="orange" stroke="orange" points="40.49,-169.31 45.95,-178.39 47.34,-167.89 40.49,-169.31"/>
<text text-anchor="middle" x="87" y="-141" font-family="Helvetica,sans-Serif" font-size="10.00"> &lt; std::string &gt;</text>
</g>
<!-- Node8 -->
<g id="node8" class="node">
<title>Node8</title>
<g id="a_node8"><a xlink:title=" ">
<polygon fill="white" stroke="black" points="34,-251 34,-270 63,-270 63,-251 34,-251"/>
<text text-anchor="middle" x="48.5" y="-258" font-family="Helvetica,sans-Serif" font-size="10.00">T</text>
</a>
</g>
</g>
<!-- Node8&#45;&gt;Node7 -->
<g id="edge8" class="edge">
<title>Node8&#45;&gt;Node7</title>
<path fill="none" stroke="#9a32cd" stroke-dasharray="5,2" d="M48.5,-240.44C48.5,-226.53 48.5,-208.32 48.5,-197.72"/>
<polygon fill="#9a32cd" stroke="#9a32cd" points="45,-240.86 48.5,-250.86 52,-240.86 45,-240.86"/>
<text text-anchor="middle" x="73" y="-219" font-family="Helvetica,sans-Serif" font-size="10.00"> elements</text>
</g>
<!-- Node9 -->
<g id="node9" class="node">
<title>Node9</title>
<g id="a_node9"><a xlink:title=" ">
<polygon fill="white" stroke="black" points="320,-89.5 320,-108.5 383,-108.5 383,-89.5 320,-89.5"/>
<text text-anchor="middle" x="351.5" y="-96.5" font-family="Helvetica,sans-Serif" font-size="10.00">size_type</text>
</a>
</g>
</g>
<!-- Node9&#45;&gt;Node1 -->
<g id="edge9" class="edge">
<title>Node9&#45;&gt;Node1</title>
<path fill="none" stroke="#9a32cd" stroke-dasharray="5,2" d="M332.61,-82.61C314.25,-67.64 286.6,-45.11 268.8,-30.6"/>
<polygon fill="#9a32cd" stroke="#9a32cd" points="330.84,-85.67 340.8,-89.28 335.26,-80.25 330.84,-85.67"/>
<text text-anchor="middle" x="343" y="-57.5" font-family="Helvetica,sans-Serif" font-size="10.00"> args_i_sub</text>
</g>
</g>
</svg>
