<?xml version="1.0" encoding="UTF-8" standalone="no"?>
<!DOCTYPE svg PUBLIC "-//W3C//DTD SVG 1.1//EN"
 "http://www.w3.org/Graphics/SVG/1.1/DTD/svg11.dtd">
<!-- Generated by graphviz version 2.43.0 (0)
 -->
<!-- Title: lyra::cli Pages: 1 -->
<svg width="102pt" height="196pt"
 viewBox="0.00 0.00 102.00 196.00" xmlns="http://www.w3.org/2000/svg" xmlns:xlink="http://www.w3.org/1999/xlink">
<g id="graph0" class="graph" transform="scale(1 1) rotate(0) translate(4 192)">
<title>lyra::cli</title>
<polygon fill="white" stroke="transparent" points="-4,4 -4,-192 98,-192 98,4 -4,4"/>
<!-- Node1 -->
<g id="node1" class="node">
<title>Node1</title>
<g id="a_node1"><a xlink:title=" ">
<polygon fill="#bfbfbf" stroke="black" points="20.5,-56.5 20.5,-75.5 73.5,-75.5 73.5,-56.5 20.5,-56.5"/>
<text text-anchor="middle" x="47" y="-63.5" font-family="Helvetica,sans-Serif" font-size="10.00">lyra::cli</text>
</a>
</g>
</g>
<!-- Node4 -->
<g id="node4" class="node">
<title>Node4</title>
<g id="a_node4"><a xlink:href="classlyra_1_1main.html" target="_top" xlink:title=" ">
<polygon fill="white" stroke="black" points="14,-0.5 14,-19.5 80,-19.5 80,-0.5 14,-0.5"/>
<text text-anchor="middle" x="47" y="-7.5" font-family="Helvetica,sans-Serif" font-size="10.00">lyra::main</text>
</a>
</g>
</g>
<!-- Node1&#45;&gt;Node4 -->
<g id="edge5" class="edge">
<title>Node1&#45;&gt;Node4</title>
<path fill="none" stroke="darkgreen" d="M40.53,-46.1C39.9,-37.14 40.34,-26.86 41.87,-19.75"/>
<polygon fill="darkgreen" stroke="darkgreen" points="37.07,-46.62 41.83,-56.08 44.01,-45.71 37.07,-46.62"/>
</g>
<!-- Node1&#45;&gt;Node4 -->
<g id="edge6" class="edge">
<title>Node1&#45;&gt;Node4</title>
<path fill="none" stroke="darkgreen" d="M53.47,-46.1C54.1,-37.14 53.66,-26.86 52.13,-19.75"/>
<polygon fill="darkgreen" stroke="darkgreen" points="49.99,-45.71 52.17,-56.08 56.93,-46.62 49.99,-45.71"/>
</g>
<!-- Node2 -->
<g id="node2" class="node">
<title>Node2</title>
<g id="a_node2"><a xlink:href="classlyra_1_1arguments.html" target="_top" xlink:title=" ">
<polygon fill="white" stroke="black" points="0,-112.5 0,-131.5 94,-131.5 94,-112.5 0,-112.5"/>
<text text-anchor="middle" x="47" y="-119.5" font-family="Helvetica,sans-Serif" font-size="10.00">lyra::arguments</text>
</a>
</g>
</g>
<!-- Node2&#45;&gt;Node1 -->
<g id="edge1" class="edge">
<title>Node2&#45;&gt;Node1</title>
<path fill="none" stroke="darkgreen" d="M40.53,-102.1C39.9,-93.14 40.34,-82.86 41.87,-75.75"/>
<polygon fill="darkgreen" stroke="darkgreen" points="37.07,-102.62 41.83,-112.08 44.01,-101.71 37.07,-102.62"/>
</g>
<!-- Node2&#45;&gt;Node1 -->
<g id="edge4" class="edge">
<title>Node2&#45;&gt;Node1</title>
<path fill="none" stroke="darkgreen" d="M53.47,-102.1C54.1,-93.14 53.66,-82.86 52.13,-75.75"/>
<polygon fill="darkgreen" stroke="darkgreen" points="49.99,-101.71 52.17,-112.08 56.93,-102.62 49.99,-101.71"/>
</g>
<!-- Node3 -->
<g id="node3" class="node">
<title>Node3</title>
<g id="a_node3"><a xlink:href="classlyra_1_1parser.html" target="_top" xlink:title=" ">
<polygon fill="white" stroke="black" points="11,-168.5 11,-187.5 83,-187.5 83,-168.5 11,-168.5"/>
<text text-anchor="middle" x="47" y="-175.5" font-family="Helvetica,sans-Serif" font-size="10.00">lyra::parser</text>
</a>
</g>
</g>
<!-- Node3&#45;&gt;Node2 -->
<g id="edge2" class="edge">
<title>Node3&#45;&gt;Node2</title>
<path fill="none" stroke="midnightblue" d="M40.53,-158.1C39.9,-149.14 40.34,-138.86 41.87,-131.75"/>
<polygon fill="midnightblue" stroke="midnightblue" points="37.07,-158.62 41.83,-168.08 44.01,-157.71 37.07,-158.62"/>
</g>
<!-- Node3&#45;&gt;Node2 -->
<g id="edge3" class="edge">
<title>Node3&#45;&gt;Node2</title>
<path fill="none" stroke="midnightblue" d="M53.47,-158.1C54.1,-149.14 53.66,-138.86 52.13,-131.75"/>
<polygon fill="midnightblue" stroke="midnightblue" points="49.99,-157.71 52.17,-168.08 56.93,-158.62 49.99,-157.71"/>
</g>
</g>
</svg>
