<?xml version="1.0" encoding="UTF-8" standalone="no"?>
<!DOCTYPE svg PUBLIC "-//W3C//DTD SVG 1.1//EN"
 "http://www.w3.org/Graphics/SVG/1.1/DTD/svg11.dtd">
<!-- Generated by graphviz version 2.43.0 (0)
 -->
<!-- Title: MainNamespace::BoermTimer::~BoermTimer Pages: 1 -->
<svg width="561pt" height="39pt"
 viewBox="0.00 0.00 561.00 39.00" xmlns="http://www.w3.org/2000/svg" xmlns:xlink="http://www.w3.org/1999/xlink">
<g id="graph0" class="graph" transform="scale(1 1) rotate(0) translate(4 35)">
<title>MainNamespace::BoermTimer::~BoermTimer</title>
<polygon fill="white" stroke="transparent" points="-4,4 -4,-35 557,-35 557,4 -4,4"/>
<!-- Node1 -->
<g id="node1" class="node">
<title>Node1</title>
<g id="a_node1"><a xlink:title=" ">
<polygon fill="#bfbfbf" stroke="black" points="0,-0.5 0,-30.5 164,-30.5 164,-0.5 0,-0.5"/>
<text text-anchor="start" x="8" y="-18.5" font-family="Helvetica,sans-Serif" font-size="10.00">MainNamespace::BoermTimer</text>
<text text-anchor="middle" x="82" y="-7.5" font-family="Helvetica,sans-Serif" font-size="10.00">::~BoermTimer</text>
</a>
</g>
</g>
<!-- Node2 -->
<g id="node2" class="node">
<title>Node2</title>
<g id="a_node2"><a xlink:href="namespace_main_namespace.html#a066656219cf67ef84d18b17a7daae845" target="_top" xlink:title=" ">
<polygon fill="white" stroke="black" points="200,-6 200,-25 359,-25 359,-6 200,-6"/>
<text text-anchor="middle" x="279.5" y="-13" font-family="Helvetica,sans-Serif" font-size="10.00">MainNamespace::maybeFree</text>
</a>
</g>
</g>
<!-- Node1&#45;&gt;Node2 -->
<g id="edge1" class="edge">
<title>Node1&#45;&gt;Node2</title>
<path fill="none" stroke="midnightblue" d="M164.21,-15.5C172.56,-15.5 181.08,-15.5 189.52,-15.5"/>
<polygon fill="midnightblue" stroke="midnightblue" points="189.74,-19 199.74,-15.5 189.74,-12 189.74,-19"/>
</g>
<!-- Node3 -->
<g id="node3" class="node">
<title>Node3</title>
<g id="a_node3"><a xlink:href="namespace_main_namespace_1_1_c_functions.html#a4c174a200de18d1f8aa4f313eef7513a" target="_top" xlink:title=" ">
<polygon fill="white" stroke="black" points="395,-0.5 395,-30.5 553,-30.5 553,-0.5 395,-0.5"/>
<text text-anchor="start" x="403" y="-18.5" font-family="Helvetica,sans-Serif" font-size="10.00">MainNamespace::CFunctions</text>
<text text-anchor="middle" x="474" y="-7.5" font-family="Helvetica,sans-Serif" font-size="10.00">::freeCPointer</text>
</a>
</g>
</g>
<!-- Node2&#45;&gt;Node3 -->
<g id="edge2" class="edge">
<title>Node2&#45;&gt;Node3</title>
<path fill="none" stroke="midnightblue" d="M359.07,-15.5C367.59,-15.5 376.3,-15.5 384.92,-15.5"/>
<polygon fill="midnightblue" stroke="midnightblue" points="384.99,-19 394.99,-15.5 384.99,-12 384.99,-19"/>
</g>
</g>
</svg>
