<?xml version="1.0" encoding="UTF-8" standalone="no"?>
<!DOCTYPE svg PUBLIC "-//W3C//DTD SVG 1.1//EN"
 "http://www.w3.org/Graphics/SVG/1.1/DTD/svg11.dtd">
<!-- Generated by graphviz version 2.43.0 (0)
 -->
<!-- Title: MainNamespace::Functions::MeshOffset Pages: 1 -->
<svg width="233pt" height="117pt"
 viewBox="0.00 0.00 232.50 117.00" xmlns="http://www.w3.org/2000/svg" xmlns:xlink="http://www.w3.org/1999/xlink">
<g id="graph0" class="graph" transform="scale(1 1) rotate(0) translate(4 113)">
<title>MainNamespace::Functions::MeshOffset</title>
<polygon fill="white" stroke="transparent" points="-4,4 -4,-113 228.5,-113 228.5,4 -4,4"/>
<!-- Node1 -->
<g id="node1" class="node">
<title>Node1</title>
<g id="a_node1"><a xlink:title="Offset that takes its values from a mesh data.">
<polygon fill="#bfbfbf" stroke="black" points="33,-0.5 33,-30.5 184,-30.5 184,-0.5 33,-0.5"/>
<text text-anchor="start" x="41" y="-18.5" font-family="Helvetica,sans-Serif" font-size="10.00">MainNamespace::Functions</text>
<text text-anchor="middle" x="108.5" y="-7.5" font-family="Helvetica,sans-Serif" font-size="10.00">::MeshOffset</text>
</a>
</g>
</g>
<!-- Node2 -->
<g id="node2" class="node">
<title>Node2</title>
<g id="a_node2"><a xlink:href="class_main_namespace_1_1_functions_1_1_reference.html" target="_top" xlink:title="Virtual class that specifies the reference traces for testing.">
<polygon fill="white" stroke="black" points="0,-78.5 0,-108.5 151,-108.5 151,-78.5 0,-78.5"/>
<text text-anchor="start" x="8" y="-96.5" font-family="Helvetica,sans-Serif" font-size="10.00">MainNamespace::Functions</text>
<text text-anchor="middle" x="75.5" y="-85.5" font-family="Helvetica,sans-Serif" font-size="10.00">::Reference</text>
</a>
</g>
</g>
<!-- Node2&#45;&gt;Node1 -->
<g id="edge1" class="edge">
<title>Node2&#45;&gt;Node1</title>
<path fill="none" stroke="midnightblue" d="M82.09,-68.81C84.19,-62.28 86.7,-55.27 89.5,-49 92.27,-42.79 95.93,-36.27 99.29,-30.7"/>
<polygon fill="midnightblue" stroke="midnightblue" points="78.71,-67.91 79.17,-78.5 85.41,-69.94 78.71,-67.91"/>
</g>
<!-- Node2&#45;&gt;Node1 -->
<g id="edge2" class="edge">
<title>Node2&#45;&gt;Node1</title>
<path fill="none" stroke="#9a32cd" stroke-dasharray="5,2" d="M85.78,-68.83C91.2,-56.35 97.67,-41.44 102.32,-30.73"/>
<polygon fill="#9a32cd" stroke="#9a32cd" points="82.48,-67.64 81.71,-78.2 88.9,-70.43 82.48,-67.64"/>
<text text-anchor="middle" x="117.5" y="-52" font-family="Helvetica,sans-Serif" font-size="10.00"> solution_</text>
</g>
<!-- Node3 -->
<g id="node3" class="node">
<title>Node3</title>
<g id="a_node3"><a xlink:title=" ">
<polygon fill="white" stroke="black" points="169.5,-84 169.5,-103 207.5,-103 207.5,-84 169.5,-84"/>
<text text-anchor="middle" x="188.5" y="-91" font-family="Helvetica,sans-Serif" font-size="10.00">field</text>
</a>
</g>
</g>
<!-- Node3&#45;&gt;Node1 -->
<g id="edge3" class="edge">
<title>Node3&#45;&gt;Node1</title>
<path fill="none" stroke="#9a32cd" stroke-dasharray="5,2" d="M173.39,-76.68C165.26,-68.31 154.99,-57.94 145.5,-49 139.03,-42.9 131.71,-36.39 125.3,-30.82"/>
<polygon fill="#9a32cd" stroke="#9a32cd" points="170.97,-79.21 180.43,-83.99 176.01,-74.36 170.97,-79.21"/>
<text text-anchor="middle" x="190" y="-52" font-family="Helvetica,sans-Serif" font-size="10.00"> traceScaling_</text>
</g>
</g>
</svg>
