<?xml version="1.0" encoding="UTF-8" standalone="no"?>
<!DOCTYPE svg PUBLIC "-//W3C//DTD SVG 1.1//EN"
 "http://www.w3.org/Graphics/SVG/1.1/DTD/svg11.dtd">
<!-- Generated by graphviz version 2.43.0 (0)
 -->
<!-- Title: lyra::arguments::operator|= Pages: 1 -->
<svg width="454pt" height="39pt"
 viewBox="0.00 0.00 454.00 39.00" xmlns="http://www.w3.org/2000/svg" xmlns:xlink="http://www.w3.org/1999/xlink">
<g id="graph0" class="graph" transform="scale(1 1) rotate(0) translate(4 35)">
<title>lyra::arguments::operator|=</title>
<polygon fill="white" stroke="transparent" points="-4,4 -4,-35 450,-35 450,4 -4,4"/>
<!-- Node1 -->
<g id="node1" class="node">
<title>Node1</title>
<g id="a_node1"><a xlink:title=" ">
<polygon fill="#bfbfbf" stroke="black" points="0,-6 0,-25 152,-25 152,-6 0,-6"/>
<text text-anchor="middle" x="76" y="-13" font-family="Helvetica,sans-Serif" font-size="10.00">lyra::arguments::operator|=</text>
</a>
</g>
</g>
<!-- Node2 -->
<g id="node2" class="node">
<title>Node2</title>
<g id="a_node2"><a xlink:href="classlyra_1_1arguments.html#a2da55e33219324b5cd93bba0b44f13c9" target="_top" xlink:title=" ">
<polygon fill="white" stroke="black" points="188,-0.5 188,-30.5 306,-30.5 306,-0.5 188,-0.5"/>
<text text-anchor="start" x="196" y="-18.5" font-family="Helvetica,sans-Serif" font-size="10.00">lyra::arguments::add</text>
<text text-anchor="middle" x="247" y="-7.5" font-family="Helvetica,sans-Serif" font-size="10.00">_argument</text>
</a>
</g>
</g>
<!-- Node1&#45;&gt;Node2 -->
<g id="edge1" class="edge">
<title>Node1&#45;&gt;Node2</title>
<path fill="none" stroke="midnightblue" d="M152.11,-15.5C160.63,-15.5 169.29,-15.5 177.72,-15.5"/>
<polygon fill="midnightblue" stroke="midnightblue" points="177.86,-19 187.86,-15.5 177.86,-12 177.86,-19"/>
</g>
<!-- Node3 -->
<g id="node3" class="node">
<title>Node3</title>
<g id="a_node3"><a xlink:href="classlyra_1_1parser.html#a973c203c76dd3160378494ae12c70724" target="_top" xlink:title=" ">
<polygon fill="white" stroke="black" points="342,-6 342,-25 446,-25 446,-6 342,-6"/>
<text text-anchor="middle" x="394" y="-13" font-family="Helvetica,sans-Serif" font-size="10.00">lyra::parser::clone</text>
</a>
</g>
</g>
<!-- Node2&#45;&gt;Node3 -->
<g id="edge2" class="edge">
<title>Node2&#45;&gt;Node3</title>
<path fill="none" stroke="midnightblue" d="M306.14,-15.5C314.54,-15.5 323.21,-15.5 331.68,-15.5"/>
<polygon fill="midnightblue" stroke="midnightblue" points="331.86,-19 341.86,-15.5 331.86,-12 331.86,-19"/>
</g>
</g>
</svg>
