<?xml version="1.0" encoding="UTF-8" standalone="no"?>
<!DOCTYPE svg PUBLIC "-//W3C//DTD SVG 1.1//EN"
 "http://www.w3.org/Graphics/SVG/1.1/DTD/svg11.dtd">
<!-- Generated by graphviz version 2.43.0 (0)
 -->
<!-- Title: MainNamespace::Surface::SingleSurface::geometry Pages: 1 -->
<svg width="739pt" height="235pt"
 viewBox="0.00 0.00 739.00 235.00" xmlns="http://www.w3.org/2000/svg" xmlns:xlink="http://www.w3.org/1999/xlink">
<g id="graph0" class="graph" transform="scale(1 1) rotate(0) translate(4 231)">
<title>MainNamespace::Surface::SingleSurface::geometry</title>
<polygon fill="white" stroke="transparent" points="-4,4 -4,-231 735,-231 735,4 -4,4"/>
<!-- Node1 -->
<g id="node1" class="node">
<title>Node1</title>
<g id="a_node1"><a xlink:title="Getter.">
<polygon fill="#bfbfbf" stroke="black" points="588,-98.5 588,-128.5 731,-128.5 731,-98.5 588,-98.5"/>
<text text-anchor="start" x="596" y="-116.5" font-family="Helvetica,sans-Serif" font-size="10.00">MainNamespace::Surface</text>
<text text-anchor="middle" x="659.5" y="-105.5" font-family="Helvetica,sans-Serif" font-size="10.00">::SingleSurface::geometry</text>
</a>
</g>
</g>
<!-- Node2 -->
<g id="node2" class="node">
<title>Node2</title>
<g id="a_node2"><a xlink:href="class_main_namespace_1_1_surface_1_1_single_surface.html#a653f26daef216ab74bac87d618603c7f" target="_top" xlink:title="Build the operators.">
<polygon fill="white" stroke="black" points="388.5,-196.5 388.5,-226.5 550.5,-226.5 550.5,-196.5 388.5,-196.5"/>
<text text-anchor="start" x="396.5" y="-214.5" font-family="Helvetica,sans-Serif" font-size="10.00">MainNamespace::Surface</text>
<text text-anchor="middle" x="469.5" y="-203.5" font-family="Helvetica,sans-Serif" font-size="10.00">::SingleSurface::buildOperator</text>
</a>
</g>
</g>
<!-- Node1&#45;&gt;Node2 -->
<g id="edge1" class="edge">
<title>Node1&#45;&gt;Node2</title>
<path fill="none" stroke="midnightblue" d="M632.79,-134.91C612.07,-151.26 581.62,-173.31 552,-187.5 545.08,-190.81 537.61,-193.77 530.1,-196.38"/>
<polygon fill="midnightblue" stroke="midnightblue" points="635.15,-137.5 640.76,-128.52 630.77,-132.04 635.15,-137.5"/>
</g>
<!-- Node6 -->
<g id="node6" class="node">
<title>Node6</title>
<g id="a_node6"><a xlink:href="class_main_namespace_1_1_surface_1_1_single_surface.html#abe90bb18c5d7f2df09e1fc2764e59732" target="_top" xlink:title="Check that the surface is a boundary.">
<polygon fill="white" stroke="black" points="399,-147.5 399,-177.5 540,-177.5 540,-147.5 399,-147.5"/>
<text text-anchor="start" x="407" y="-165.5" font-family="Helvetica,sans-Serif" font-size="10.00">MainNamespace::Surface</text>
<text text-anchor="middle" x="469.5" y="-154.5" font-family="Helvetica,sans-Serif" font-size="10.00">::SingleSurface::check</text>
</a>
</g>
</g>
<!-- Node1&#45;&gt;Node6 -->
<g id="edge5" class="edge">
<title>Node1&#45;&gt;Node6</title>
<path fill="none" stroke="midnightblue" d="M590.89,-131.12C570.32,-136.48 547.92,-142.32 528.07,-147.49"/>
<polygon fill="midnightblue" stroke="midnightblue" points="592.02,-134.44 600.82,-128.53 590.26,-127.67 592.02,-134.44"/>
</g>
<!-- Node7 -->
<g id="node7" class="node">
<title>Node7</title>
<g id="a_node7"><a xlink:href="class_main_namespace_1_1_surface_1_1_single_surface.html#a3321422c36eccd213cfc48823a9f54d7" target="_top" xlink:title="Project the offset on the current mesh, then use it to compute the right&#45;hand side.">
<polygon fill="white" stroke="black" points="387,-98.5 387,-128.5 552,-128.5 552,-98.5 387,-98.5"/>
<text text-anchor="start" x="395" y="-116.5" font-family="Helvetica,sans-Serif" font-size="10.00">MainNamespace::Surface</text>
<text text-anchor="middle" x="469.5" y="-105.5" font-family="Helvetica,sans-Serif" font-size="10.00">::SingleSurface::makeMultiRhs</text>
</a>
</g>
</g>
<!-- Node1&#45;&gt;Node7 -->
<g id="edge6" class="edge">
<title>Node1&#45;&gt;Node7</title>
<path fill="none" stroke="midnightblue" d="M577.73,-113.5C569.27,-113.5 560.66,-113.5 552.19,-113.5"/>
<polygon fill="midnightblue" stroke="midnightblue" points="577.96,-117 587.96,-113.5 577.96,-110 577.96,-117"/>
</g>
<!-- Node8 -->
<g id="node8" class="node">
<title>Node8</title>
<g id="a_node8"><a xlink:href="class_main_namespace_1_1_surface_1_1_single_surface.html#a557cf7647815581e0660e2aa5ebfd2b5" target="_top" xlink:title="Apply the Calderón operator to the &quot;solution&quot; part of source.">
<polygon fill="white" stroke="black" points="397,-49.5 397,-79.5 542,-79.5 542,-49.5 397,-49.5"/>
<text text-anchor="start" x="405" y="-67.5" font-family="Helvetica,sans-Serif" font-size="10.00">MainNamespace::Surface</text>
<text text-anchor="middle" x="469.5" y="-56.5" font-family="Helvetica,sans-Serif" font-size="10.00">::SingleSurface::properties</text>
</a>
</g>
</g>
<!-- Node1&#45;&gt;Node8 -->
<g id="edge8" class="edge">
<title>Node1&#45;&gt;Node8</title>
<path fill="none" stroke="midnightblue" d="M590.89,-95.88C570.32,-90.52 547.92,-84.68 528.07,-79.51"/>
<polygon fill="midnightblue" stroke="midnightblue" points="590.26,-99.33 600.82,-98.47 592.02,-92.56 590.26,-99.33"/>
</g>
<!-- Node9 -->
<g id="node9" class="node">
<title>Node9</title>
<g id="a_node9"><a xlink:href="class_main_namespace_1_1_surface_1_1_single_surface.html#ae5d17671333d624db60d56cf43ffc6c5" target="_top" xlink:title="Setup cluster trees.">
<polygon fill="white" stroke="black" points="391,-0.5 391,-30.5 548,-30.5 548,-0.5 391,-0.5"/>
<text text-anchor="start" x="399" y="-18.5" font-family="Helvetica,sans-Serif" font-size="10.00">MainNamespace::Surface</text>
<text text-anchor="middle" x="469.5" y="-7.5" font-family="Helvetica,sans-Serif" font-size="10.00">::SingleSurface::setupCluster</text>
</a>
</g>
</g>
<!-- Node1&#45;&gt;Node9 -->
<g id="edge9" class="edge">
<title>Node1&#45;&gt;Node9</title>
<path fill="none" stroke="midnightblue" d="M632.79,-92.09C612.07,-75.74 581.62,-53.69 552,-39.5 545.08,-36.19 537.61,-33.23 530.1,-30.62"/>
<polygon fill="midnightblue" stroke="midnightblue" points="630.77,-94.96 640.76,-98.48 635.15,-89.5 630.77,-94.96"/>
</g>
<!-- Node3 -->
<g id="node3" class="node">
<title>Node3</title>
<g id="a_node3"><a xlink:href="class_main_namespace_1_1_surface_1_1_multi_surface.html#a8839f7e49575079e39fbb95a692772a5" target="_top" xlink:title="Compute the right&#45;hand side, the operators, then solve the linear system.">
<polygon fill="white" stroke="black" points="199.5,-147.5 199.5,-177.5 340.5,-177.5 340.5,-147.5 199.5,-147.5"/>
<text text-anchor="start" x="207.5" y="-165.5" font-family="Helvetica,sans-Serif" font-size="10.00">MainNamespace::Surface</text>
<text text-anchor="middle" x="270" y="-154.5" font-family="Helvetica,sans-Serif" font-size="10.00">::MultiSurface::solve</text>
</a>
</g>
</g>
<!-- Node2&#45;&gt;Node3 -->
<g id="edge2" class="edge">
<title>Node2&#45;&gt;Node3</title>
<path fill="none" stroke="midnightblue" d="M398.06,-194.02C376.29,-188.62 352.52,-182.72 331.48,-177.51"/>
<polygon fill="midnightblue" stroke="midnightblue" points="397.35,-197.45 407.9,-196.47 399.04,-190.66 397.35,-197.45"/>
</g>
<!-- Node4 -->
<g id="node4" class="node">
<title>Node4</title>
<g id="a_node4"><a xlink:href="main_8cpp.html#a5d68713f22d1b3e2495b15d107ea7d21" target="_top" xlink:title=" ">
<polygon fill="white" stroke="black" points="77,-153 77,-172 153,-172 153,-153 77,-153"/>
<text text-anchor="middle" x="115" y="-160" font-family="Helvetica,sans-Serif" font-size="10.00">testProblem</text>
</a>
</g>
</g>
<!-- Node3&#45;&gt;Node4 -->
<g id="edge3" class="edge">
<title>Node3&#45;&gt;Node4</title>
<path fill="none" stroke="midnightblue" d="M189.12,-162.5C176.52,-162.5 164.05,-162.5 153.07,-162.5"/>
<polygon fill="midnightblue" stroke="midnightblue" points="189.22,-166 199.22,-162.5 189.22,-159 189.22,-166"/>
</g>
<!-- Node5 -->
<g id="node5" class="node">
<title>Node5</title>
<g id="a_node5"><a xlink:href="main_8cpp.html#a3c04138a5bfe5d72780bb7e82a18e627" target="_top" xlink:title=" ">
<polygon fill="white" stroke="black" points="0,-153 0,-172 41,-172 41,-153 0,-153"/>
<text text-anchor="middle" x="20.5" y="-160" font-family="Helvetica,sans-Serif" font-size="10.00">main</text>
</a>
</g>
</g>
<!-- Node4&#45;&gt;Node5 -->
<g id="edge4" class="edge">
<title>Node4&#45;&gt;Node5</title>
<path fill="none" stroke="midnightblue" d="M66.72,-162.5C57.65,-162.5 48.64,-162.5 41.07,-162.5"/>
<polygon fill="midnightblue" stroke="midnightblue" points="66.91,-166 76.91,-162.5 66.91,-159 66.91,-166"/>
</g>
<!-- Node7&#45;&gt;Node3 -->
<g id="edge7" class="edge">
<title>Node7&#45;&gt;Node3</title>
<path fill="none" stroke="midnightblue" d="M398.06,-130.98C376.29,-136.38 352.52,-142.28 331.48,-147.49"/>
<polygon fill="midnightblue" stroke="midnightblue" points="399.04,-134.34 407.9,-128.53 397.35,-127.55 399.04,-134.34"/>
</g>
<!-- Node10 -->
<g id="node10" class="node">
<title>Node10</title>
<g id="a_node10"><a xlink:href="class_main_namespace_1_1_surface_1_1_single_surface.html#a2cb253a6c5cc5d0c66ead47e5db3233b" target="_top" xlink:title="Construct an object to manage data associated to a closed boundary.">
<polygon fill="white" stroke="black" points="189,-0.5 189,-30.5 351,-30.5 351,-0.5 189,-0.5"/>
<text text-anchor="start" x="197" y="-18.5" font-family="Helvetica,sans-Serif" font-size="10.00">MainNamespace::Surface</text>
<text text-anchor="middle" x="270" y="-7.5" font-family="Helvetica,sans-Serif" font-size="10.00">::SingleSurface::SingleSurface</text>
</a>
</g>
</g>
<!-- Node9&#45;&gt;Node10 -->
<g id="edge10" class="edge">
<title>Node9&#45;&gt;Node10</title>
<path fill="none" stroke="midnightblue" d="M380.62,-15.5C370.86,-15.5 360.96,-15.5 351.3,-15.5"/>
<polygon fill="midnightblue" stroke="midnightblue" points="380.73,-19 390.73,-15.5 380.73,-12 380.73,-19"/>
</g>
</g>
</svg>
