<?xml version="1.0" encoding="UTF-8" standalone="no"?>
<!DOCTYPE svg PUBLIC "-//W3C//DTD SVG 1.1//EN"
 "http://www.w3.org/Graphics/SVG/1.1/DTD/svg11.dtd">
<!-- Generated by graphviz version 2.43.0 (0)
 -->
<!-- Title: lyra::detail::result_value_base&lt; T &gt; Pages: 1 -->
<svg width="411pt" height="262pt"
 viewBox="0.00 0.00 410.50 262.00" xmlns="http://www.w3.org/2000/svg" xmlns:xlink="http://www.w3.org/1999/xlink">
<g id="graph0" class="graph" transform="scale(1 1) rotate(0) translate(4 258)">
<title>lyra::detail::result_value_base&lt; T &gt;</title>
<polygon fill="white" stroke="transparent" points="-4,4 -4,-258 406.5,-258 406.5,4 -4,4"/>
<!-- Node1 -->
<g id="node1" class="node">
<title>Node1</title>
<g id="a_node1"><a xlink:title=" ">
<polygon fill="#bfbfbf" stroke="black" points="40.5,-0.5 40.5,-30.5 146.5,-30.5 146.5,-0.5 40.5,-0.5"/>
<text text-anchor="start" x="48.5" y="-18.5" font-family="Helvetica,sans-Serif" font-size="10.00">lyra::detail::result</text>
<text text-anchor="middle" x="93.5" y="-7.5" font-family="Helvetica,sans-Serif" font-size="10.00">_value_base&lt; T &gt;</text>
</a>
</g>
</g>
<!-- Node2 -->
<g id="node2" class="node">
<title>Node2</title>
<g id="a_node2"><a xlink:href="classlyra_1_1detail_1_1result__base.html" target="_top" xlink:title=" ">
<polygon fill="white" stroke="black" points="28,-84 28,-103 159,-103 159,-84 28,-84"/>
<text text-anchor="middle" x="93.5" y="-91" font-family="Helvetica,sans-Serif" font-size="10.00">lyra::detail::result_base</text>
</a>
</g>
</g>
<!-- Node2&#45;&gt;Node1 -->
<g id="edge1" class="edge">
<title>Node2&#45;&gt;Node1</title>
<path fill="none" stroke="midnightblue" d="M87.59,-73.78C86.31,-60.4 86.49,-42.69 88.13,-30.52"/>
<polygon fill="midnightblue" stroke="midnightblue" points="84.14,-74.37 89.01,-83.78 91.07,-73.39 84.14,-74.37"/>
</g>
<!-- Node2&#45;&gt;Node1 -->
<g id="edge5" class="edge">
<title>Node2&#45;&gt;Node1</title>
<path fill="none" stroke="midnightblue" d="M99.41,-73.78C100.69,-60.4 100.51,-42.69 98.87,-30.52"/>
<polygon fill="midnightblue" stroke="midnightblue" points="95.93,-73.39 97.99,-83.78 102.86,-74.37 95.93,-73.39"/>
</g>
<!-- Node3 -->
<g id="node3" class="node">
<title>Node3</title>
<g id="a_node3"><a xlink:title=" ">
<polygon fill="white" stroke="black" points="0,-156.5 0,-175.5 71,-175.5 71,-156.5 0,-156.5"/>
<text text-anchor="middle" x="35.5" y="-163.5" font-family="Helvetica,sans-Serif" font-size="10.00">result_kind</text>
</a>
</g>
</g>
<!-- Node3&#45;&gt;Node2 -->
<g id="edge2" class="edge">
<title>Node3&#45;&gt;Node2</title>
<path fill="none" stroke="#9a32cd" stroke-dasharray="5,2" d="M49.16,-148.4C60.8,-134.24 77.08,-114.46 86.33,-103.22"/>
<polygon fill="#9a32cd" stroke="#9a32cd" points="46.26,-146.41 42.61,-156.36 51.67,-150.86 46.26,-146.41"/>
<text text-anchor="middle" x="81.5" y="-130" font-family="Helvetica,sans-Serif" font-size="10.00"> kind_</text>
</g>
<!-- Node4 -->
<g id="node4" class="node">
<title>Node4</title>
<g id="a_node4"><a xlink:title=" ">
<polygon fill="white" stroke="black" points="89,-156.5 89,-175.5 154,-175.5 154,-156.5 89,-156.5"/>
<text text-anchor="middle" x="121.5" y="-163.5" font-family="Helvetica,sans-Serif" font-size="10.00">std::string</text>
</a>
</g>
</g>
<!-- Node4&#45;&gt;Node2 -->
<g id="edge3" class="edge">
<title>Node4&#45;&gt;Node2</title>
<path fill="none" stroke="#9a32cd" stroke-dasharray="5,2" d="M114.26,-146.77C108.7,-132.76 101.26,-114.03 96.96,-103.22"/>
<polygon fill="#9a32cd" stroke="#9a32cd" points="111.12,-148.35 118.07,-156.36 117.63,-145.77 111.12,-148.35"/>
<text text-anchor="middle" x="137" y="-130" font-family="Helvetica,sans-Serif" font-size="10.00"> message_</text>
</g>
<!-- Node5 -->
<g id="node5" class="node">
<title>Node5</title>
<g id="a_node5"><a xlink:title=" ">
<polygon fill="white" stroke="black" points="69.5,-223.5 69.5,-253.5 173.5,-253.5 173.5,-223.5 69.5,-223.5"/>
<text text-anchor="start" x="77.5" y="-241.5" font-family="Helvetica,sans-Serif" font-size="10.00">std::basic_string&lt;</text>
<text text-anchor="middle" x="121.5" y="-230.5" font-family="Helvetica,sans-Serif" font-size="10.00"> Char &gt;</text>
</a>
</g>
</g>
<!-- Node5&#45;&gt;Node4 -->
<g id="edge4" class="edge">
<title>Node5&#45;&gt;Node4</title>
<path fill="none" stroke="midnightblue" d="M121.5,-213.09C121.5,-200.21 121.5,-185.2 121.5,-175.89"/>
<polygon fill="midnightblue" stroke="midnightblue" points="118,-213.23 121.5,-223.23 125,-213.23 118,-213.23"/>
</g>
<!-- Node6 -->
<g id="node6" class="node">
<title>Node6</title>
<g id="a_node6"><a xlink:title=" ">
<polygon fill="white" stroke="black" points="177.5,-78.5 177.5,-108.5 305.5,-108.5 305.5,-78.5 177.5,-78.5"/>
<text text-anchor="start" x="185.5" y="-96.5" font-family="Helvetica,sans-Serif" font-size="10.00">std::unique_ptr&lt; value</text>
<text text-anchor="middle" x="241.5" y="-85.5" font-family="Helvetica,sans-Serif" font-size="10.00">_type &gt;</text>
</a>
</g>
</g>
<!-- Node6&#45;&gt;Node1 -->
<g id="edge6" class="edge">
<title>Node6&#45;&gt;Node1</title>
<path fill="none" stroke="#9a32cd" stroke-dasharray="5,2" d="M204.84,-73.67C178.83,-60.32 144.47,-42.68 120.84,-30.54"/>
<polygon fill="#9a32cd" stroke="#9a32cd" points="203.51,-76.93 214.01,-78.38 206.71,-70.7 203.51,-76.93"/>
<text text-anchor="middle" x="194.5" y="-52" font-family="Helvetica,sans-Serif" font-size="10.00"> value_</text>
</g>
<!-- Node7 -->
<g id="node7" class="node">
<title>Node7</title>
<g id="a_node7"><a xlink:title=" ">
<polygon fill="white" stroke="black" points="195,-156.5 195,-175.5 266,-175.5 266,-156.5 195,-156.5"/>
<text text-anchor="middle" x="230.5" y="-163.5" font-family="Helvetica,sans-Serif" font-size="10.00">value_type</text>
</a>
</g>
</g>
<!-- Node7&#45;&gt;Node6 -->
<g id="edge7" class="edge">
<title>Node7&#45;&gt;Node6</title>
<path fill="none" stroke="#9a32cd" stroke-dasharray="5,2" d="M233.43,-146.24C235.27,-134.41 237.62,-119.38 239.3,-108.58"/>
<polygon fill="#9a32cd" stroke="#9a32cd" points="229.93,-145.94 231.85,-156.36 236.85,-147.01 229.93,-145.94"/>
<text text-anchor="middle" x="245" y="-130" font-family="Helvetica,sans-Serif" font-size="10.00"> ptr</text>
</g>
<!-- Node8 -->
<g id="node8" class="node">
<title>Node8</title>
<g id="a_node8"><a xlink:title=" ">
<polygon fill="white" stroke="black" points="284.5,-156.5 284.5,-175.5 402.5,-175.5 402.5,-156.5 284.5,-156.5"/>
<text text-anchor="middle" x="343.5" y="-163.5" font-family="Helvetica,sans-Serif" font-size="10.00">std::unique_ptr&lt; T &gt;</text>
</a>
</g>
</g>
<!-- Node8&#45;&gt;Node6 -->
<g id="edge8" class="edge">
<title>Node8&#45;&gt;Node6</title>
<path fill="none" stroke="orange" stroke-dasharray="5,2" d="M322.47,-150.47C304.71,-138.19 279.44,-120.72 261.87,-108.58"/>
<polygon fill="orange" stroke="orange" points="320.78,-153.55 330.99,-156.36 324.76,-147.79 320.78,-153.55"/>
<text text-anchor="middle" x="342.5" y="-130" font-family="Helvetica,sans-Serif" font-size="10.00"> &lt; value_type &gt;</text>
</g>
<!-- Node9 -->
<g id="node9" class="node">
<title>Node9</title>
<g id="a_node9"><a xlink:title=" ">
<polygon fill="white" stroke="black" points="329,-229 329,-248 358,-248 358,-229 329,-229"/>
<text text-anchor="middle" x="343.5" y="-236" font-family="Helvetica,sans-Serif" font-size="10.00">T</text>
</a>
</g>
</g>
<!-- Node9&#45;&gt;Node8 -->
<g id="edge9" class="edge">
<title>Node9&#45;&gt;Node8</title>
<path fill="none" stroke="#9a32cd" stroke-dasharray="5,2" d="M343.5,-218.44C343.5,-204.53 343.5,-186.32 343.5,-175.72"/>
<polygon fill="#9a32cd" stroke="#9a32cd" points="340,-218.86 343.5,-228.86 347,-218.86 340,-218.86"/>
<text text-anchor="middle" x="352" y="-197" font-family="Helvetica,sans-Serif" font-size="10.00"> ptr</text>
</g>
</g>
</svg>
