<?xml version="1.0" encoding="UTF-8" standalone="no"?>
<!DOCTYPE svg PUBLIC "-//W3C//DTD SVG 1.1//EN"
 "http://www.w3.org/Graphics/SVG/1.1/DTD/svg11.dtd">
<!-- Generated by graphviz version 2.43.0 (0)
 -->
<!-- Title: lyra::exe_name::parse Pages: 1 -->
<svg width="291pt" height="50pt"
 viewBox="0.00 0.00 291.00 50.00" xmlns="http://www.w3.org/2000/svg" xmlns:xlink="http://www.w3.org/1999/xlink">
<g id="graph0" class="graph" transform="scale(1 1) rotate(0) translate(4 46)">
<title>lyra::exe_name::parse</title>
<polygon fill="white" stroke="transparent" points="-4,4 -4,-46 287,-46 287,4 -4,4"/>
<!-- Node1 -->
<g id="node1" class="node">
<title>Node1</title>
<g id="a_node1"><a xlink:title=" ">
<polygon fill="#bfbfbf" stroke="black" points="0,-11.5 0,-30.5 125,-30.5 125,-11.5 0,-11.5"/>
<text text-anchor="middle" x="62.5" y="-18.5" font-family="Helvetica,sans-Serif" font-size="10.00">lyra::exe_name::parse</text>
</a>
</g>
</g>
<!-- Node2 -->
<g id="node2" class="node">
<title>Node2</title>
<g id="a_node2"><a xlink:href="classlyra_1_1detail_1_1basic__result.html#aee577409a431e215136ffc0764e5432b" target="_top" xlink:title=" ">
<polygon fill="white" stroke="black" points="161,-0.5 161,-41.5 283,-41.5 283,-0.5 161,-0.5"/>
<text text-anchor="start" x="169" y="-29.5" font-family="Helvetica,sans-Serif" font-size="10.00">lyra::detail::basic</text>
<text text-anchor="start" x="169" y="-18.5" font-family="Helvetica,sans-Serif" font-size="10.00">_result&lt; detail::parse</text>
<text text-anchor="middle" x="222" y="-7.5" font-family="Helvetica,sans-Serif" font-size="10.00">_state &gt;::ok</text>
</a>
</g>
</g>
<!-- Node1&#45;&gt;Node2 -->
<g id="edge1" class="edge">
<title>Node1&#45;&gt;Node2</title>
<path fill="none" stroke="midnightblue" d="M125.3,-21C133.63,-21 142.23,-21 150.69,-21"/>
<polygon fill="midnightblue" stroke="midnightblue" points="150.93,-24.5 160.93,-21 150.93,-17.5 150.93,-24.5"/>
</g>
</g>
</svg>
