<?xml version="1.0" encoding="UTF-8" standalone="no"?>
<!DOCTYPE svg PUBLIC "-//W3C//DTD SVG 1.1//EN"
 "http://www.w3.org/Graphics/SVG/1.1/DTD/svg11.dtd">
<!-- Generated by graphviz version 2.43.0 (0)
 -->
<!-- Title: MainNamespace::Surface::MultiSurface::fillZeros Pages: 1 -->
<!--zoomable 161 -->
<svg id="main" version="1.1" xmlns="http://www.w3.org/2000/svg" xmlns:xlink="http://www.w3.org/1999/xlink" xml:space="preserve" onload="init(evt)">
<style type="text/css"><![CDATA[
.edge:hover path { stroke: red; }
.edge:hover polygon { stroke: red; fill: red; }
]]></style>
<script type="text/javascript"><![CDATA[
var edges = document.getElementsByTagName('g');
if (edges && edges.length) {
  for (var i=0;i<edges.length;i++) {
    if (edges[i].id.substr(0,4)=='edge') {
      edges[i].setAttribute('class','edge');
    }
  }
}
]]></script>
        <defs>
                <circle id="rim" cx="0" cy="0" r="7"/>
                <circle id="rim2" cx="0" cy="0" r="3.5"/>
                <g id="zoomPlus">
                        <use xlink:href="#rim" fill="#404040">
                                <set attributeName="fill" to="#808080" begin="zoomplus.mouseover" end="zoomplus.mouseout"/>
                        </use>
                        <path d="M-4,0h8M0,-4v8" fill="none" stroke="white" stroke-width="1.5" pointer-events="none"/>
                </g>
                <g id="zoomMin">
                        <use xlink:href="#rim" fill="#404040">
                                <set attributeName="fill" to="#808080" begin="zoomminus.mouseover" end="zoomminus.mouseout"/>
                        </use>
                        <path d="M-4,0h8" fill="none" stroke="white" stroke-width="1.5" pointer-events="none"/>
                </g>
                <g id="dirArrow">
                        <path fill="none" stroke="white" stroke-width="1.5" d="M0,-3.0v7 M-2.5,-0.5L0,-3.0L2.5,-0.5"/>
                </g>
               <g id="resetDef">
                       <use xlink:href="#rim2" fill="#404040">
                               <set attributeName="fill" to="#808080" begin="reset.mouseover" end="reset.mouseout"/>
                       </use>
               </g>
        </defs>

<script type="text/javascript">
var viewWidth = 932;
var viewHeight = 161;
var sectionId = 'dynsection-8';
</script>
<script xlink:href="svgpan.js"/>
<svg id="graph" class="graph">
<g id="viewport">
<title>MainNamespace::Surface::MultiSurface::fillZeros</title>
<polygon fill="white" stroke="transparent" points="-4,4 -4,-157 928,-157 928,4 -4,4"/>
<!-- Node1 -->
<g id="node1" class="node">
<title>Node1</title>
<g id="a_node1"><a xlink:title=" ">
<polygon fill="#bfbfbf" stroke="black" points="0,-49.5 0,-79.5 141,-79.5 141,-49.5 0,-49.5"/>
<text text-anchor="start" x="8" y="-67.5" font-family="Helvetica,sans-Serif" font-size="10.00">MainNamespace::Surface</text>
<text text-anchor="middle" x="70.5" y="-56.5" font-family="Helvetica,sans-Serif" font-size="10.00">::MultiSurface::fillZeros</text>
</a>
</g>
</g>
<!-- Node2 -->
<g id="node2" class="node">
<title>Node2</title>
<g id="a_node2"><a xlink:href="class_main_namespace_1_1_surface_1_1_multi_surface.html#ad9b40eaff715d73afae2ea12513471ca" target="_top" xlink:title="Get the dimension of the space of Cauchy space (i.e., Dirichlet and Neumann together).">
<polygon fill="white" stroke="black" points="177,-98.5 177,-128.5 328,-128.5 328,-98.5 177,-98.5"/>
<text text-anchor="start" x="185" y="-116.5" font-family="Helvetica,sans-Serif" font-size="10.00">MainNamespace::Surface</text>
<text text-anchor="middle" x="252.5" y="-105.5" font-family="Helvetica,sans-Serif" font-size="10.00">::MultiSurface::problemSize</text>
</a>
</g>
</g>
<!-- Node1&#45;&gt;Node2 -->
<g id="edge1" class="edge">
<title>Node1&#45;&gt;Node2</title>
<path fill="none" stroke="midnightblue" d="M126.97,-79.6C145.8,-84.73 166.99,-90.5 186.49,-95.8"/>
<polygon fill="midnightblue" stroke="midnightblue" points="185.64,-99.2 196.21,-98.45 187.48,-92.44 185.64,-99.2"/>
</g>
<!-- Node7 -->
<g id="node7" class="node">
<title>Node7</title>
<g id="a_node7"><a xlink:href="class_main_namespace_1_1_surface_1_1_multi_surface.html#a4057eaa562637a1f3a39b693718d7bb3" target="_top" xlink:title="Getter.">
<polygon fill="white" stroke="black" points="182,-49.5 182,-79.5 323,-79.5 323,-49.5 182,-49.5"/>
<text text-anchor="start" x="190" y="-67.5" font-family="Helvetica,sans-Serif" font-size="10.00">MainNamespace::Surface</text>
<text text-anchor="middle" x="252.5" y="-56.5" font-family="Helvetica,sans-Serif" font-size="10.00">::MultiSurface::triangles</text>
</a>
</g>
</g>
<!-- Node1&#45;&gt;Node7 -->
<g id="edge7" class="edge">
<title>Node1&#45;&gt;Node7</title>
<path fill="none" stroke="midnightblue" d="M141.09,-64.5C151.11,-64.5 161.48,-64.5 171.68,-64.5"/>
<polygon fill="midnightblue" stroke="midnightblue" points="171.8,-68 181.8,-64.5 171.8,-61 171.8,-68"/>
</g>
<!-- Node9 -->
<g id="node9" class="node">
<title>Node9</title>
<g id="a_node9"><a xlink:href="class_main_namespace_1_1_surface_1_1_multi_surface.html#ad03ff836a2ae7f060ef1aeaa3f2afb64" target="_top" xlink:title="Getter.">
<polygon fill="white" stroke="black" points="182,-0.5 182,-30.5 323,-30.5 323,-0.5 182,-0.5"/>
<text text-anchor="start" x="190" y="-18.5" font-family="Helvetica,sans-Serif" font-size="10.00">MainNamespace::Surface</text>
<text text-anchor="middle" x="252.5" y="-7.5" font-family="Helvetica,sans-Serif" font-size="10.00">::MultiSurface::vertices</text>
</a>
</g>
</g>
<!-- Node1&#45;&gt;Node9 -->
<g id="edge10" class="edge">
<title>Node1&#45;&gt;Node9</title>
<path fill="none" stroke="midnightblue" d="M126.97,-49.4C145.8,-44.27 166.99,-38.5 186.49,-33.2"/>
<polygon fill="midnightblue" stroke="midnightblue" points="187.48,-36.56 196.21,-30.55 185.64,-29.8 187.48,-36.56"/>
</g>
<!-- Node3 -->
<g id="node3" class="node">
<title>Node3</title>
<g id="a_node3"><a xlink:href="class_main_namespace_1_1_surface_1_1_multi_surface.html#a3fe9cd8e64de26e65e494aed35267b98" target="_top" xlink:title="Getter.">
<polygon fill="white" stroke="black" points="367,-122.5 367,-152.5 543,-152.5 543,-122.5 367,-122.5"/>
<text text-anchor="start" x="375" y="-140.5" font-family="Helvetica,sans-Serif" font-size="10.00">MainNamespace::Surface</text>
<text text-anchor="middle" x="455" y="-129.5" font-family="Helvetica,sans-Serif" font-size="10.00">::MultiSurface::dirichletBasisSize</text>
</a>
</g>
</g>
<!-- Node2&#45;&gt;Node3 -->
<g id="edge2" class="edge">
<title>Node2&#45;&gt;Node3</title>
<path fill="none" stroke="midnightblue" d="M328.16,-122.44C337.5,-123.55 347.15,-124.71 356.77,-125.86"/>
<polygon fill="midnightblue" stroke="midnightblue" points="356.42,-129.34 366.76,-127.06 357.25,-122.39 356.42,-129.34"/>
</g>
<!-- Node6 -->
<g id="node6" class="node">
<title>Node6</title>
<g id="a_node6"><a xlink:href="class_main_namespace_1_1_surface_1_1_multi_surface.html#a6a0c7507ab9799d47082175225850d0c" target="_top" xlink:title="Getter.">
<polygon fill="white" stroke="black" points="364,-73.5 364,-103.5 546,-103.5 546,-73.5 364,-73.5"/>
<text text-anchor="start" x="372" y="-91.5" font-family="Helvetica,sans-Serif" font-size="10.00">MainNamespace::Surface</text>
<text text-anchor="middle" x="455" y="-80.5" font-family="Helvetica,sans-Serif" font-size="10.00">::MultiSurface::neumannBasisSize</text>
</a>
</g>
</g>
<!-- Node2&#45;&gt;Node6 -->
<g id="edge5" class="edge">
<title>Node2&#45;&gt;Node6</title>
<path fill="none" stroke="midnightblue" d="M328.16,-104.19C336.48,-103.15 345.06,-102.08 353.63,-101.01"/>
<polygon fill="midnightblue" stroke="midnightblue" points="354.19,-104.47 363.68,-99.76 353.33,-97.53 354.19,-104.47"/>
</g>
<!-- Node4 -->
<g id="node4" class="node">
<title>Node4</title>
<g id="a_node4"><a xlink:href="class_main_namespace_1_1_surface_1_1_multi_surface.html#ab879b2422c1c86a5d5beea4cb8a17210" target="_top" xlink:title=" ">
<polygon fill="white" stroke="black" points="582,-73.5 582,-103.5 723,-103.5 723,-73.5 582,-73.5"/>
<text text-anchor="start" x="590" y="-91.5" font-family="Helvetica,sans-Serif" font-size="10.00">MainNamespace::Surface</text>
<text text-anchor="middle" x="652.5" y="-80.5" font-family="Helvetica,sans-Serif" font-size="10.00">::MultiSurface::mesh</text>
</a>
</g>
</g>
<!-- Node3&#45;&gt;Node4 -->
<g id="edge3" class="edge">
<title>Node3&#45;&gt;Node4</title>
<path fill="none" stroke="midnightblue" d="M515.99,-122.47C536.81,-117.24 560.35,-111.35 581.89,-105.95"/>
<polygon fill="midnightblue" stroke="midnightblue" points="582.78,-109.33 591.63,-103.51 581.08,-102.54 582.78,-109.33"/>
</g>
<!-- Node5 -->
<g id="node5" class="node">
<title>Node5</title>
<g id="a_node5"><a xlink:href="class_main_namespace_1_1_mesh_reader.html#a8311a1d62c5eced1bf7162a0f1f00687" target="_top" xlink:title=" ">
<polygon fill="white" stroke="black" points="759,-73.5 759,-103.5 924,-103.5 924,-73.5 759,-73.5"/>
<text text-anchor="start" x="767" y="-91.5" font-family="Helvetica,sans-Serif" font-size="10.00">MainNamespace::MeshReader</text>
<text text-anchor="middle" x="841.5" y="-80.5" font-family="Helvetica,sans-Serif" font-size="10.00">::mesh</text>
</a>
</g>
</g>
<!-- Node4&#45;&gt;Node5 -->
<g id="edge4" class="edge">
<title>Node4&#45;&gt;Node5</title>
<path fill="none" stroke="midnightblue" d="M723.13,-88.5C731.49,-88.5 740.12,-88.5 748.74,-88.5"/>
<polygon fill="midnightblue" stroke="midnightblue" points="748.82,-92 758.82,-88.5 748.82,-85 748.82,-92"/>
</g>
<!-- Node6&#45;&gt;Node4 -->
<g id="edge6" class="edge">
<title>Node6&#45;&gt;Node4</title>
<path fill="none" stroke="midnightblue" d="M546.02,-88.5C554.57,-88.5 563.2,-88.5 571.65,-88.5"/>
<polygon fill="midnightblue" stroke="midnightblue" points="571.84,-92 581.84,-88.5 571.84,-85 571.84,-92"/>
</g>
<!-- Node8 -->
<g id="node8" class="node">
<title>Node8</title>
<g id="a_node8"><a xlink:href="class_main_namespace_1_1_surface_1_1_multi_surface.html#ab64975d85c8c58576590072b66fd7c9f" target="_top" xlink:title=" ">
<polygon fill="white" stroke="black" points="384.5,-24.5 384.5,-54.5 525.5,-54.5 525.5,-24.5 384.5,-24.5"/>
<text text-anchor="start" x="392.5" y="-42.5" font-family="Helvetica,sans-Serif" font-size="10.00">MainNamespace::Surface</text>
<text text-anchor="middle" x="455" y="-31.5" font-family="Helvetica,sans-Serif" font-size="10.00">::MultiSurface::geometry</text>
</a>
</g>
</g>
<!-- Node7&#45;&gt;Node8 -->
<g id="edge8" class="edge">
<title>Node7&#45;&gt;Node8</title>
<path fill="none" stroke="midnightblue" d="M323.06,-55.83C339.45,-53.78 357.06,-51.59 373.87,-49.49"/>
<polygon fill="midnightblue" stroke="midnightblue" points="374.73,-52.91 384.22,-48.2 373.86,-45.96 374.73,-52.91"/>
</g>
<!-- Node8&#45;&gt;Node4 -->
<g id="edge9" class="edge">
<title>Node8&#45;&gt;Node4</title>
<path fill="none" stroke="midnightblue" d="M515.99,-54.53C536.81,-59.76 560.35,-65.65 581.89,-71.05"/>
<polygon fill="midnightblue" stroke="midnightblue" points="581.08,-74.46 591.63,-73.49 582.78,-67.67 581.08,-74.46"/>
</g>
<!-- Node9&#45;&gt;Node8 -->
<g id="edge11" class="edge">
<title>Node9&#45;&gt;Node8</title>
<path fill="none" stroke="midnightblue" d="M323.06,-23.83C339.45,-25.79 357.06,-27.9 373.87,-29.91"/>
<polygon fill="midnightblue" stroke="midnightblue" points="373.88,-33.43 384.22,-31.15 374.71,-26.48 373.88,-33.43"/>
</g>
</g>
</svg>
        <g id="navigator" transform="translate(0 0)" fill="#404254">
                <rect fill="#f2f5e9" fill-opacity="0.5" stroke="#606060" stroke-width=".5" x="0" y="0" width="60" height="60"/>
                <use id="zoomplus" xlink:href="#zoomPlus" x="17" y="9" onmousedown="handleZoom(evt,'in')"/>
                <use id="zoomminus" xlink:href="#zoomMin" x="42" y="9" onmousedown="handleZoom(evt,'out')"/>
                <use id="reset" xlink:href="#resetDef" x="30" y="36" onmousedown="handleReset()"/>
                <g id="arrowUp" xlink:href="#dirArrow" transform="translate(30 24)" onmousedown="handlePan(0,-1)">
                  <use xlink:href="#rim" fill="#404040">
                        <set attributeName="fill" to="#808080" begin="arrowUp.mouseover" end="arrowUp.mouseout"/>
                  </use>
                  <path fill="none" stroke="white" stroke-width="1.5" d="M0,-3.0v7 M-2.5,-0.5L0,-3.0L2.5,-0.5"/>
                </g>
                <g id="arrowRight" xlink:href="#dirArrow" transform="rotate(90) translate(36 -43)" onmousedown="handlePan(1,0)">
                  <use xlink:href="#rim" fill="#404040">
                        <set attributeName="fill" to="#808080" begin="arrowRight.mouseover" end="arrowRight.mouseout"/>
                  </use>
                  <path fill="none" stroke="white" stroke-width="1.5" d="M0,-3.0v7 M-2.5,-0.5L0,-3.0L2.5,-0.5"/>
                </g>
                <g id="arrowDown" xlink:href="#dirArrow" transform="rotate(180) translate(-30 -48)" onmousedown="handlePan(0,1)">
                  <use xlink:href="#rim" fill="#404040">
                        <set attributeName="fill" to="#808080" begin="arrowDown.mouseover" end="arrowDown.mouseout"/>
                  </use>
                  <path fill="none" stroke="white" stroke-width="1.5" d="M0,-3.0v7 M-2.5,-0.5L0,-3.0L2.5,-0.5"/>
                </g>
                <g id="arrowLeft" xlink:href="#dirArrow" transform="rotate(270) translate(-36 17)" onmousedown="handlePan(-1,0)">
                  <use xlink:href="#rim" fill="#404040">
                        <set attributeName="fill" to="#808080" begin="arrowLeft.mouseover" end="arrowLeft.mouseout"/>
                  </use>
                  <path fill="none" stroke="white" stroke-width="1.5" d="M0,-3.0v7 M-2.5,-0.5L0,-3.0L2.5,-0.5"/>
                </g>
        </g>
        <svg viewBox="0 0 15 15" width="100%" height="30px" preserveAspectRatio="xMaxYMin meet">
         <g id="arrow_out" transform="scale(0.3 0.3)">
          <a xlink:href="class_main_namespace_1_1_surface_1_1_multi_surface_a18e9ad0a8db9f1d27b1e13b3f9bd243b_cgraph_org.svg" target="_base">
           <rect id="button" ry="5" rx="5" y="6" x="6" height="38" width="38"
                fill="#f2f5e9" fill-opacity="0.5" stroke="#606060" stroke-width="1.0"/>
           <path id="arrow"
             d="M 11.500037,31.436501 C 11.940474,20.09759 22.043105,11.32322 32.158766,21.979434 L 37.068811,17.246167 C 37.068811,17.246167 37.088388,32 37.088388,32 L 22.160133,31.978069 C 22.160133,31.978069 26.997745,27.140456 26.997745,27.140456 C 18.528582,18.264221 13.291696,25.230495 11.500037,31.436501 z"
             style="fill:#404040;"/>
          </a>
         </g>
        </svg>
</svg>
