<?xml version="1.0" encoding="UTF-8" standalone="no"?>
<!DOCTYPE svg PUBLIC "-//W3C//DTD SVG 1.1//EN"
 "http://www.w3.org/Graphics/SVG/1.1/DTD/svg11.dtd">
<!-- Generated by graphviz version 2.43.0 (0)
 -->
<!-- Title: gen_single_include.GenSingleInclude.cpp Pages: 1 -->
<svg width="368pt" height="57pt"
 viewBox="0.00 0.00 368.00 57.00" xmlns="http://www.w3.org/2000/svg" xmlns:xlink="http://www.w3.org/1999/xlink">
<g id="graph0" class="graph" transform="scale(1 1) rotate(0) translate(4 53)">
<title>gen_single_include.GenSingleInclude.cpp</title>
<polygon fill="white" stroke="transparent" points="-4,4 -4,-53 364,-53 364,4 -4,4"/>
<!-- Node1 -->
<g id="node1" class="node">
<title>Node1</title>
<g id="a_node1"><a xlink:title=" ">
<polygon fill="#bfbfbf" stroke="black" points="198,-0.5 198,-30.5 360,-30.5 360,-0.5 198,-0.5"/>
<text text-anchor="start" x="206" y="-18.5" font-family="Helvetica,sans-Serif" font-size="10.00">gen_single_include.GenSingle</text>
<text text-anchor="middle" x="279" y="-7.5" font-family="Helvetica,sans-Serif" font-size="10.00">Include.cpp</text>
</a>
</g>
</g>
<!-- Node1&#45;&gt;Node1 -->
<g id="edge1" class="edge">
<title>Node1&#45;&gt;Node1</title>
<path fill="none" stroke="midnightblue" d="M314.18,-40.96C309.82,-45.68 298.09,-49 279,-49 247.68,-49 236.17,-40.06 244.49,-30.66"/>
<polygon fill="midnightblue" stroke="midnightblue" points="317.65,-40.41 313.51,-30.66 310.67,-40.87 317.65,-40.41"/>
</g>
<!-- Node2 -->
<g id="node2" class="node">
<title>Node2</title>
<g id="a_node2"><a xlink:href="classgen__single__include_1_1_gen_single_include.html#a739cd56e45b4741214e672bd59b1363c" target="_top" xlink:title=" ">
<polygon fill="white" stroke="black" points="0,-0.5 0,-30.5 162,-30.5 162,-0.5 0,-0.5"/>
<text text-anchor="start" x="8" y="-18.5" font-family="Helvetica,sans-Serif" font-size="10.00">gen_single_include.GenSingle</text>
<text text-anchor="middle" x="81" y="-7.5" font-family="Helvetica,sans-Serif" font-size="10.00">Include.run</text>
</a>
</g>
</g>
<!-- Node1&#45;&gt;Node2 -->
<g id="edge2" class="edge">
<title>Node1&#45;&gt;Node2</title>
<path fill="none" stroke="midnightblue" d="M187.92,-15.5C179.3,-15.5 170.59,-15.5 162.07,-15.5"/>
<polygon fill="midnightblue" stroke="midnightblue" points="188,-19 198,-15.5 188,-12 188,-19"/>
</g>
</g>
</svg>
