<?xml version="1.0" encoding="UTF-8" standalone="no"?>
<!DOCTYPE svg PUBLIC "-//W3C//DTD SVG 1.1//EN"
 "http://www.w3.org/Graphics/SVG/1.1/DTD/svg11.dtd">
<!-- Generated by graphviz version 2.43.0 (0)
 -->
<!-- Title: MainNamespace::Logger::FilePointerDevice Pages: 1 -->
<svg width="418pt" height="184pt"
 viewBox="0.00 0.00 417.50 184.00" xmlns="http://www.w3.org/2000/svg" xmlns:xlink="http://www.w3.org/1999/xlink">
<g id="graph0" class="graph" transform="scale(1 1) rotate(0) translate(4 180)">
<title>MainNamespace::Logger::FilePointerDevice</title>
<polygon fill="white" stroke="transparent" points="-4,4 -4,-180 413.5,-180 413.5,4 -4,4"/>
<!-- Node1 -->
<g id="node1" class="node">
<title>Node1</title>
<g id="a_node1"><a xlink:title="Logger for a file stored on the filesystem. Log to a given file. Lack of color support is assumed....">
<polygon fill="#bfbfbf" stroke="black" points="176,-0.5 176,-30.5 313,-30.5 313,-0.5 176,-0.5"/>
<text text-anchor="start" x="184" y="-18.5" font-family="Helvetica,sans-Serif" font-size="10.00">MainNamespace::Logger</text>
<text text-anchor="middle" x="244.5" y="-7.5" font-family="Helvetica,sans-Serif" font-size="10.00">::FilePointerDevice</text>
</a>
</g>
</g>
<!-- Node2 -->
<g id="node2" class="node">
<title>Node2</title>
<g id="a_node2"><a xlink:href="class_main_namespace_1_1_logger_1_1_output_device.html" target="_top" xlink:title=" ">
<polygon fill="white" stroke="black" points="0,-78.5 0,-108.5 137,-108.5 137,-78.5 0,-78.5"/>
<text text-anchor="start" x="8" y="-96.5" font-family="Helvetica,sans-Serif" font-size="10.00">MainNamespace::Logger</text>
<text text-anchor="middle" x="68.5" y="-85.5" font-family="Helvetica,sans-Serif" font-size="10.00">::OutputDevice</text>
</a>
</g>
</g>
<!-- Node2&#45;&gt;Node1 -->
<g id="edge1" class="edge">
<title>Node2&#45;&gt;Node1</title>
<path fill="none" stroke="midnightblue" d="M110.48,-74.37C141.59,-60.94 183.39,-42.89 211.98,-30.54"/>
<polygon fill="midnightblue" stroke="midnightblue" points="108.98,-71.21 101.19,-78.38 111.76,-77.63 108.98,-71.21"/>
</g>
<!-- Node3 -->
<g id="node3" class="node">
<title>Node3</title>
<g id="a_node3"><a xlink:title=" ">
<polygon fill="white" stroke="black" points="47,-156.5 47,-175.5 90,-175.5 90,-156.5 47,-156.5"/>
<text text-anchor="middle" x="68.5" y="-163.5" font-family="Helvetica,sans-Serif" font-size="10.00">Level</text>
</a>
</g>
</g>
<!-- Node3&#45;&gt;Node2 -->
<g id="edge2" class="edge">
<title>Node3&#45;&gt;Node2</title>
<path fill="none" stroke="#9a32cd" stroke-dasharray="5,2" d="M68.5,-146.24C68.5,-134.41 68.5,-119.38 68.5,-108.58"/>
<polygon fill="#9a32cd" stroke="#9a32cd" points="65,-146.36 68.5,-156.36 72,-146.36 65,-146.36"/>
<text text-anchor="middle" x="93.5" y="-130" font-family="Helvetica,sans-Serif" font-size="10.00"> logLevel_</text>
</g>
<!-- Node4 -->
<g id="node4" class="node">
<title>Node4</title>
<g id="a_node4"><a xlink:title=" ">
<polygon fill="white" stroke="black" points="155.5,-84 155.5,-103 193.5,-103 193.5,-84 155.5,-84"/>
<text text-anchor="middle" x="174.5" y="-91" font-family="Helvetica,sans-Serif" font-size="10.00">bool</text>
</a>
</g>
</g>
<!-- Node4&#45;&gt;Node1 -->
<g id="edge3" class="edge">
<title>Node4&#45;&gt;Node1</title>
<path fill="none" stroke="#9a32cd" stroke-dasharray="5,2" d="M178.32,-74.03C180.75,-65.7 184.58,-56.16 190.5,-49 196.63,-41.58 204.93,-35.42 213.18,-30.53"/>
<polygon fill="#9a32cd" stroke="#9a32cd" points="174.87,-73.42 175.89,-83.97 181.67,-75.09 174.87,-73.42"/>
<text text-anchor="middle" x="214" y="-52" font-family="Helvetica,sans-Serif" font-size="10.00"> newline_</text>
</g>
<!-- Node5 -->
<g id="node5" class="node">
<title>Node5</title>
<g id="a_node5"><a xlink:title=" ">
<polygon fill="white" stroke="black" points="218,-84 218,-103 263,-103 263,-84 218,-84"/>
<text text-anchor="middle" x="240.5" y="-91" font-family="Helvetica,sans-Serif" font-size="10.00">FILE *</text>
</a>
</g>
</g>
<!-- Node5&#45;&gt;Node1 -->
<g id="edge4" class="edge">
<title>Node5&#45;&gt;Node1</title>
<path fill="none" stroke="#9a32cd" stroke-dasharray="5,2" d="M241.49,-73.78C242.19,-60.4 243.12,-42.69 243.76,-30.52"/>
<polygon fill="#9a32cd" stroke="#9a32cd" points="237.99,-73.61 240.96,-83.78 244.98,-73.98 237.99,-73.61"/>
<text text-anchor="middle" x="255" y="-52" font-family="Helvetica,sans-Serif" font-size="10.00"> file_</text>
</g>
<!-- Node6 -->
<g id="node6" class="node">
<title>Node6</title>
<g id="a_node6"><a xlink:title=" ">
<polygon fill="white" stroke="black" points="281,-84 281,-103 326,-103 326,-84 281,-84"/>
<text text-anchor="middle" x="303.5" y="-91" font-family="Helvetica,sans-Serif" font-size="10.00">size_t</text>
</a>
</g>
</g>
<!-- Node6&#45;&gt;Node1 -->
<g id="edge5" class="edge">
<title>Node6&#45;&gt;Node1</title>
<path fill="none" stroke="#9a32cd" stroke-dasharray="5,2" d="M291.31,-75.44C285.43,-67.34 278.21,-57.59 271.5,-49 266.71,-42.88 261.26,-36.25 256.51,-30.59"/>
<polygon fill="#9a32cd" stroke="#9a32cd" points="288.59,-77.65 297.27,-83.72 294.27,-73.56 288.59,-77.65"/>
<text text-anchor="middle" x="311.5" y="-52" font-family="Helvetica,sans-Serif" font-size="10.00"> indentation_</text>
</g>
<!-- Node7 -->
<g id="node7" class="node">
<title>Node7</title>
<g id="a_node7"><a xlink:title=" ">
<polygon fill="white" stroke="black" points="363.5,-84 363.5,-103 409.5,-103 409.5,-84 363.5,-84"/>
<text text-anchor="middle" x="386.5" y="-91" font-family="Helvetica,sans-Serif" font-size="10.00">char *</text>
</a>
</g>
</g>
<!-- Node7&#45;&gt;Node1 -->
<g id="edge6" class="edge">
<title>Node7&#45;&gt;Node1</title>
<path fill="none" stroke="#9a32cd" stroke-dasharray="5,2" d="M374.85,-75.6C367.86,-66.57 358.24,-55.93 347.5,-49 335.44,-41.23 321.4,-35.2 307.62,-30.56"/>
<polygon fill="#9a32cd" stroke="#9a32cd" points="372.19,-77.89 380.92,-83.89 377.84,-73.75 372.19,-77.89"/>
<text text-anchor="middle" x="380" y="-52" font-family="Helvetica,sans-Serif" font-size="10.00"> blanks_</text>
</g>
</g>
</svg>
