<?xml version="1.0" encoding="UTF-8" standalone="no"?>
<!DOCTYPE svg PUBLIC "-//W3C//DTD SVG 1.1//EN"
 "http://www.w3.org/Graphics/SVG/1.1/DTD/svg11.dtd">
<!-- Generated by graphviz version 2.43.0 (0)
 -->
<!-- Title: MainNamespace::Surface::SingleSurface::dirichletBasisSize Pages: 1 -->
<svg width="954pt" height="88pt"
 viewBox="0.00 0.00 954.00 88.00" xmlns="http://www.w3.org/2000/svg" xmlns:xlink="http://www.w3.org/1999/xlink">
<g id="graph0" class="graph" transform="scale(1 1) rotate(0) translate(4 84)">
<title>MainNamespace::Surface::SingleSurface::dirichletBasisSize</title>
<polygon fill="white" stroke="transparent" points="-4,4 -4,-84 950,-84 950,4 -4,4"/>
<!-- Node1 -->
<g id="node1" class="node">
<title>Node1</title>
<g id="a_node1"><a xlink:title="Getter.">
<polygon fill="#bfbfbf" stroke="black" points="764,-24.5 764,-54.5 946,-54.5 946,-24.5 764,-24.5"/>
<text text-anchor="start" x="772" y="-42.5" font-family="Helvetica,sans-Serif" font-size="10.00">MainNamespace::Surface</text>
<text text-anchor="middle" x="855" y="-31.5" font-family="Helvetica,sans-Serif" font-size="10.00">::SingleSurface::dirichletBasisSize</text>
</a>
</g>
</g>
<!-- Node2 -->
<g id="node2" class="node">
<title>Node2</title>
<g id="a_node2"><a xlink:href="class_main_namespace_1_1_surface_1_1_single_surface.html#af82898396f01292566ccfa0389b11d72" target="_top" xlink:title="Getter.">
<polygon fill="white" stroke="black" points="562,-49.5 562,-79.5 720,-79.5 720,-49.5 562,-49.5"/>
<text text-anchor="start" x="570" y="-67.5" font-family="Helvetica,sans-Serif" font-size="10.00">MainNamespace::Surface</text>
<text text-anchor="middle" x="641" y="-56.5" font-family="Helvetica,sans-Serif" font-size="10.00">::SingleSurface::fullBasisSize</text>
</a>
</g>
</g>
<!-- Node1&#45;&gt;Node2 -->
<g id="edge1" class="edge">
<title>Node1&#45;&gt;Node2</title>
<path fill="none" stroke="midnightblue" d="M753.51,-51.35C742.28,-52.67 730.97,-54.01 720.08,-55.29"/>
<polygon fill="midnightblue" stroke="midnightblue" points="754.26,-54.79 763.79,-50.14 753.44,-47.83 754.26,-54.79"/>
</g>
<!-- Node7 -->
<g id="node7" class="node">
<title>Node7</title>
<g id="a_node7"><a xlink:href="class_main_namespace_1_1_surface_1_1_single_surface.html#aa1a8598228000ef782f8de12b454b29e" target="_top" xlink:title="Getter.">
<polygon fill="white" stroke="black" points="554,-0.5 554,-30.5 728,-30.5 728,-0.5 554,-0.5"/>
<text text-anchor="start" x="562" y="-18.5" font-family="Helvetica,sans-Serif" font-size="10.00">MainNamespace::Surface</text>
<text text-anchor="middle" x="641" y="-7.5" font-family="Helvetica,sans-Serif" font-size="10.00">::SingleSurface::singleSpaceSize</text>
</a>
</g>
</g>
<!-- Node1&#45;&gt;Node7 -->
<g id="edge6" class="edge">
<title>Node1&#45;&gt;Node7</title>
<path fill="none" stroke="midnightblue" d="M753.75,-28.15C745.17,-27.18 736.54,-26.2 728.09,-25.25"/>
<polygon fill="midnightblue" stroke="midnightblue" points="753.46,-31.64 763.79,-29.29 754.24,-24.68 753.46,-31.64"/>
</g>
<!-- Node3 -->
<g id="node3" class="node">
<title>Node3</title>
<g id="a_node3"><a xlink:href="class_main_namespace_1_1_surface_1_1_single_surface.html#a48d60279cef854fc417ed395bc25ca15" target="_top" xlink:title="Project the offset on the current mesh.">
<polygon fill="white" stroke="black" points="366,-49.5 366,-79.5 518,-79.5 518,-49.5 366,-49.5"/>
<text text-anchor="start" x="374" y="-67.5" font-family="Helvetica,sans-Serif" font-size="10.00">MainNamespace::Surface</text>
<text text-anchor="middle" x="442" y="-56.5" font-family="Helvetica,sans-Serif" font-size="10.00">::SingleSurface::makeOffset</text>
</a>
</g>
</g>
<!-- Node2&#45;&gt;Node3 -->
<g id="edge2" class="edge">
<title>Node2&#45;&gt;Node3</title>
<path fill="none" stroke="midnightblue" d="M551.65,-64.5C540.47,-64.5 529.11,-64.5 518.16,-64.5"/>
<polygon fill="midnightblue" stroke="midnightblue" points="551.86,-68 561.86,-64.5 551.86,-61 551.86,-68"/>
</g>
<!-- Node4 -->
<g id="node4" class="node">
<title>Node4</title>
<g id="a_node4"><a xlink:href="class_main_namespace_1_1_surface_1_1_multi_surface.html#a8839f7e49575079e39fbb95a692772a5" target="_top" xlink:title="Compute the right&#45;hand side, the operators, then solve the linear system.">
<polygon fill="white" stroke="black" points="189,-49.5 189,-79.5 330,-79.5 330,-49.5 189,-49.5"/>
<text text-anchor="start" x="197" y="-67.5" font-family="Helvetica,sans-Serif" font-size="10.00">MainNamespace::Surface</text>
<text text-anchor="middle" x="259.5" y="-56.5" font-family="Helvetica,sans-Serif" font-size="10.00">::MultiSurface::solve</text>
</a>
</g>
</g>
<!-- Node3&#45;&gt;Node4 -->
<g id="edge3" class="edge">
<title>Node3&#45;&gt;Node4</title>
<path fill="none" stroke="midnightblue" d="M355.74,-64.5C347.16,-64.5 338.52,-64.5 330.14,-64.5"/>
<polygon fill="midnightblue" stroke="midnightblue" points="355.76,-68 365.76,-64.5 355.76,-61 355.76,-68"/>
</g>
<!-- Node5 -->
<g id="node5" class="node">
<title>Node5</title>
<g id="a_node5"><a xlink:href="main_8cpp.html#a5d68713f22d1b3e2495b15d107ea7d21" target="_top" xlink:title=" ">
<polygon fill="white" stroke="black" points="77,-55 77,-74 153,-74 153,-55 77,-55"/>
<text text-anchor="middle" x="115" y="-62" font-family="Helvetica,sans-Serif" font-size="10.00">testProblem</text>
</a>
</g>
</g>
<!-- Node4&#45;&gt;Node5 -->
<g id="edge4" class="edge">
<title>Node4&#45;&gt;Node5</title>
<path fill="none" stroke="midnightblue" d="M178.85,-64.5C169.97,-64.5 161.27,-64.5 153.31,-64.5"/>
<polygon fill="midnightblue" stroke="midnightblue" points="178.92,-68 188.92,-64.5 178.92,-61 178.92,-68"/>
</g>
<!-- Node6 -->
<g id="node6" class="node">
<title>Node6</title>
<g id="a_node6"><a xlink:href="main_8cpp.html#a3c04138a5bfe5d72780bb7e82a18e627" target="_top" xlink:title=" ">
<polygon fill="white" stroke="black" points="0,-55 0,-74 41,-74 41,-55 0,-55"/>
<text text-anchor="middle" x="20.5" y="-62" font-family="Helvetica,sans-Serif" font-size="10.00">main</text>
</a>
</g>
</g>
<!-- Node5&#45;&gt;Node6 -->
<g id="edge5" class="edge">
<title>Node5&#45;&gt;Node6</title>
<path fill="none" stroke="midnightblue" d="M66.72,-64.5C57.65,-64.5 48.64,-64.5 41.07,-64.5"/>
<polygon fill="midnightblue" stroke="midnightblue" points="66.91,-68 76.91,-64.5 66.91,-61 66.91,-68"/>
</g>
</g>
</svg>
