<?xml version="1.0" encoding="UTF-8" standalone="no"?>
<!DOCTYPE svg PUBLIC "-//W3C//DTD SVG 1.1//EN"
 "http://www.w3.org/Graphics/SVG/1.1/DTD/svg11.dtd">
<!-- Generated by graphviz version 2.43.0 (0)
 -->
<!-- Title: MainNamespace::Functions::MeshOffset::c0Dirichlet Pages: 1 -->
<svg width="346pt" height="88pt"
 viewBox="0.00 0.00 346.00 88.00" xmlns="http://www.w3.org/2000/svg" xmlns:xlink="http://www.w3.org/1999/xlink">
<g id="graph0" class="graph" transform="scale(1 1) rotate(0) translate(4 84)">
<title>MainNamespace::Functions::MeshOffset::c0Dirichlet</title>
<polygon fill="white" stroke="transparent" points="-4,4 -4,-84 342,-84 342,4 -4,4"/>
<!-- Node1 -->
<g id="node1" class="node">
<title>Node1</title>
<g id="a_node1"><a xlink:title="Interpolate the Dirichlet trace with continuous, picewise linear functions. The trace is scaled by s^...">
<polygon fill="#bfbfbf" stroke="black" points="0,-24.5 0,-54.5 151,-54.5 151,-24.5 0,-24.5"/>
<text text-anchor="start" x="8" y="-42.5" font-family="Helvetica,sans-Serif" font-size="10.00">MainNamespace::Functions</text>
<text text-anchor="middle" x="75.5" y="-31.5" font-family="Helvetica,sans-Serif" font-size="10.00">::MeshOffset::c0Dirichlet</text>
</a>
</g>
</g>
<!-- Node2 -->
<g id="node2" class="node">
<title>Node2</title>
<g id="a_node2"><a xlink:href="class_main_namespace_1_1_functions_1_1_mesh_offset.html#a16cc2b00078c4a2182c4030699f0a2a8" target="_top" xlink:title="Compute an offset for the Dirictlet trace of the current solution.">
<polygon fill="white" stroke="black" points="187,-49.5 187,-79.5 338,-79.5 338,-49.5 187,-49.5"/>
<text text-anchor="start" x="195" y="-67.5" font-family="Helvetica,sans-Serif" font-size="10.00">MainNamespace::Functions</text>
<text text-anchor="middle" x="262.5" y="-56.5" font-family="Helvetica,sans-Serif" font-size="10.00">::MeshOffset::dirichlet</text>
</a>
</g>
</g>
<!-- Node1&#45;&gt;Node2 -->
<g id="edge1" class="edge">
<title>Node1&#45;&gt;Node2</title>
<path fill="none" stroke="midnightblue" d="M151.21,-49.6C159.65,-50.74 168.28,-51.9 176.83,-53.06"/>
<polygon fill="midnightblue" stroke="midnightblue" points="176.43,-56.54 186.81,-54.41 177.37,-49.6 176.43,-56.54"/>
</g>
<!-- Node3 -->
<g id="node3" class="node">
<title>Node3</title>
<g id="a_node3"><a xlink:href="struct_main_namespace_1_1_mesh.html#af0d92acd1c106ecbf5924ce4052667fb" target="_top" xlink:title="Get a vertex.">
<polygon fill="white" stroke="black" points="197,-0.5 197,-30.5 328,-30.5 328,-0.5 197,-0.5"/>
<text text-anchor="start" x="205" y="-18.5" font-family="Helvetica,sans-Serif" font-size="10.00">MainNamespace::Mesh</text>
<text text-anchor="middle" x="262.5" y="-7.5" font-family="Helvetica,sans-Serif" font-size="10.00">::vertex</text>
</a>
</g>
</g>
<!-- Node1&#45;&gt;Node3 -->
<g id="edge2" class="edge">
<title>Node1&#45;&gt;Node3</title>
<path fill="none" stroke="midnightblue" d="M151.21,-29.81C162.93,-28.29 175.03,-26.72 186.75,-25.2"/>
<polygon fill="midnightblue" stroke="midnightblue" points="187.45,-28.64 196.92,-23.88 186.55,-21.69 187.45,-28.64"/>
</g>
</g>
</svg>
