<?xml version="1.0" encoding="UTF-8" standalone="no"?>
<!DOCTYPE svg PUBLIC "-//W3C//DTD SVG 1.1//EN"
 "http://www.w3.org/Graphics/SVG/1.1/DTD/svg11.dtd">
<!-- Generated by graphviz version 2.43.0 (0)
 -->
<!-- Title: lyra::detail::token_iterator::value Pages: 1 -->
<svg width="724pt" height="178pt"
 viewBox="0.00 0.00 724.00 178.00" xmlns="http://www.w3.org/2000/svg" xmlns:xlink="http://www.w3.org/1999/xlink">
<g id="graph0" class="graph" transform="scale(1 1) rotate(0) translate(4 174)">
<title>lyra::detail::token_iterator::value</title>
<polygon fill="white" stroke="transparent" points="-4,4 -4,-174 720,-174 720,4 -4,4"/>
<!-- Node1 -->
<g id="node1" class="node">
<title>Node1</title>
<g id="a_node1"><a xlink:title=" ">
<polygon fill="#bfbfbf" stroke="black" points="0,-79 0,-109 102,-109 102,-79 0,-79"/>
<text text-anchor="start" x="8" y="-97" font-family="Helvetica,sans-Serif" font-size="10.00">lyra::detail::token</text>
<text text-anchor="middle" x="51" y="-86" font-family="Helvetica,sans-Serif" font-size="10.00">_iterator::value</text>
</a>
</g>
</g>
<!-- Node2 -->
<g id="node2" class="node">
<title>Node2</title>
<g id="a_node2"><a xlink:href="classlyra_1_1detail_1_1token__iterator.html#a8006318eb718713b45bd0c7064d3e87f" target="_top" xlink:title=" ">
<polygon fill="white" stroke="black" points="293,-128.5 293,-169.5 400,-169.5 400,-128.5 293,-128.5"/>
<text text-anchor="start" x="301" y="-157.5" font-family="Helvetica,sans-Serif" font-size="10.00">lyra::detail::token</text>
<text text-anchor="start" x="301" y="-146.5" font-family="Helvetica,sans-Serif" font-size="10.00">_iterator::has_long</text>
<text text-anchor="middle" x="346.5" y="-135.5" font-family="Helvetica,sans-Serif" font-size="10.00">_option_prefix</text>
</a>
</g>
</g>
<!-- Node1&#45;&gt;Node2 -->
<g id="edge1" class="edge">
<title>Node1&#45;&gt;Node2</title>
<path fill="none" stroke="midnightblue" d="M68.97,-109.07C85.33,-122.51 111.46,-141.24 138,-149 185.12,-162.78 240.86,-161.89 282.7,-158.04"/>
<polygon fill="midnightblue" stroke="midnightblue" points="283.16,-161.51 292.76,-157.04 282.46,-154.55 283.16,-161.51"/>
</g>
<!-- Node5 -->
<g id="node5" class="node">
<title>Node5</title>
<g id="a_node5"><a xlink:href="classlyra_1_1detail_1_1token__iterator.html#a11350435cee36ca42019fc81662c018f" target="_top" xlink:title=" ">
<polygon fill="white" stroke="black" points="138,-98.5 138,-139.5 255,-139.5 255,-98.5 138,-98.5"/>
<text text-anchor="start" x="146" y="-127.5" font-family="Helvetica,sans-Serif" font-size="10.00">lyra::detail::token</text>
<text text-anchor="start" x="146" y="-116.5" font-family="Helvetica,sans-Serif" font-size="10.00">_iterator::has_option</text>
<text text-anchor="middle" x="196.5" y="-105.5" font-family="Helvetica,sans-Serif" font-size="10.00">_prefix</text>
</a>
</g>
</g>
<!-- Node1&#45;&gt;Node5 -->
<g id="edge4" class="edge">
<title>Node1&#45;&gt;Node5</title>
<path fill="none" stroke="midnightblue" d="M102.19,-102.74C110.44,-104.18 119.11,-105.69 127.7,-107.19"/>
<polygon fill="midnightblue" stroke="midnightblue" points="127.27,-110.67 137.72,-108.93 128.47,-103.77 127.27,-110.67"/>
</g>
<!-- Node6 -->
<g id="node6" class="node">
<title>Node6</title>
<g id="a_node6"><a xlink:href="classlyra_1_1detail_1_1token__iterator.html#a368b12d3ecc2c462c24e1d8723ce5f4f" target="_top" xlink:title=" ">
<polygon fill="white" stroke="black" points="291,-68.5 291,-109.5 402,-109.5 402,-68.5 291,-68.5"/>
<text text-anchor="start" x="299" y="-97.5" font-family="Helvetica,sans-Serif" font-size="10.00">lyra::detail::token</text>
<text text-anchor="start" x="299" y="-86.5" font-family="Helvetica,sans-Serif" font-size="10.00">_iterator::has_short</text>
<text text-anchor="middle" x="346.5" y="-75.5" font-family="Helvetica,sans-Serif" font-size="10.00">_option_prefix</text>
</a>
</g>
</g>
<!-- Node1&#45;&gt;Node6 -->
<g id="edge8" class="edge">
<title>Node1&#45;&gt;Node6</title>
<path fill="none" stroke="midnightblue" d="M102,-90.6C113.8,-89.94 126.34,-89.34 138,-89 185.8,-87.61 239.82,-87.66 280.76,-88.03"/>
<polygon fill="midnightblue" stroke="midnightblue" points="280.84,-91.54 290.88,-88.14 280.91,-84.54 280.84,-91.54"/>
</g>
<!-- Node7 -->
<g id="node7" class="node">
<title>Node7</title>
<g id="a_node7"><a xlink:href="classlyra_1_1detail_1_1token__iterator.html#adc46ba6c523a1633f29e0b4d5d46b591" target="_top" xlink:title=" ">
<polygon fill="white" stroke="black" points="140,-0.5 140,-41.5 253,-41.5 253,-0.5 140,-0.5"/>
<text text-anchor="start" x="148" y="-29.5" font-family="Helvetica,sans-Serif" font-size="10.00">lyra::detail::token</text>
<text text-anchor="start" x="148" y="-18.5" font-family="Helvetica,sans-Serif" font-size="10.00">_iterator::has_value</text>
<text text-anchor="middle" x="196.5" y="-7.5" font-family="Helvetica,sans-Serif" font-size="10.00">_delimiter</text>
</a>
</g>
</g>
<!-- Node1&#45;&gt;Node7 -->
<g id="edge9" class="edge">
<title>Node1&#45;&gt;Node7</title>
<path fill="none" stroke="midnightblue" d="M81.73,-78.87C100.34,-69.41 124.76,-56.99 146.21,-46.08"/>
<polygon fill="midnightblue" stroke="midnightblue" points="147.87,-49.16 155.19,-41.51 144.69,-42.92 147.87,-49.16"/>
</g>
<!-- Node3 -->
<g id="node3" class="node">
<title>Node3</title>
<g id="a_node3"><a xlink:href="classlyra_1_1detail_1_1token__iterator.html#a3f0301c7bb2bfe10f71739a26f9af219" target="_top" xlink:title=" ">
<polygon fill="white" stroke="black" points="438,-104 438,-134 556,-134 556,-104 438,-104"/>
<text text-anchor="start" x="446" y="-122" font-family="Helvetica,sans-Serif" font-size="10.00">lyra::detail::token</text>
<text text-anchor="middle" x="497" y="-111" font-family="Helvetica,sans-Serif" font-size="10.00">_iterator::is_prefixed</text>
</a>
</g>
</g>
<!-- Node2&#45;&gt;Node3 -->
<g id="edge2" class="edge">
<title>Node2&#45;&gt;Node3</title>
<path fill="none" stroke="midnightblue" d="M400.27,-138.34C409.21,-136.53 418.6,-134.64 427.87,-132.76"/>
<polygon fill="midnightblue" stroke="midnightblue" points="428.74,-136.16 437.84,-130.75 427.35,-129.3 428.74,-136.16"/>
</g>
<!-- Node4 -->
<g id="node4" class="node">
<title>Node4</title>
<g id="a_node4"><a xlink:href="namespace_main_namespace.html#a8104aa37d7d31758ac725060a96f07d9" target="_top" xlink:title=" ">
<polygon fill="white" stroke="black" points="592,-109.5 592,-128.5 716,-128.5 716,-109.5 592,-109.5"/>
<text text-anchor="middle" x="654" y="-116.5" font-family="Helvetica,sans-Serif" font-size="10.00">MainNamespace::size</text>
</a>
</g>
</g>
<!-- Node3&#45;&gt;Node4 -->
<g id="edge3" class="edge">
<title>Node3&#45;&gt;Node4</title>
<path fill="none" stroke="midnightblue" d="M556.16,-119C564.55,-119 573.27,-119 581.89,-119"/>
<polygon fill="midnightblue" stroke="midnightblue" points="581.93,-122.5 591.93,-119 581.93,-115.5 581.93,-122.5"/>
</g>
<!-- Node5&#45;&gt;Node2 -->
<g id="edge5" class="edge">
<title>Node5&#45;&gt;Node2</title>
<path fill="none" stroke="midnightblue" d="M255.14,-130.68C264.2,-132.52 273.61,-134.43 282.78,-136.29"/>
<polygon fill="midnightblue" stroke="midnightblue" points="282.11,-139.72 292.6,-138.28 283.5,-132.86 282.11,-139.72"/>
</g>
<!-- Node5&#45;&gt;Node6 -->
<g id="edge6" class="edge">
<title>Node5&#45;&gt;Node6</title>
<path fill="none" stroke="midnightblue" d="M255.14,-107.32C263.54,-105.61 272.24,-103.85 280.77,-102.12"/>
<polygon fill="midnightblue" stroke="midnightblue" points="281.57,-105.53 290.68,-100.11 280.18,-98.67 281.57,-105.53"/>
</g>
<!-- Node6&#45;&gt;Node3 -->
<g id="edge7" class="edge">
<title>Node6&#45;&gt;Node3</title>
<path fill="none" stroke="midnightblue" d="M402.37,-100.09C410.69,-101.77 419.35,-103.52 427.9,-105.24"/>
<polygon fill="midnightblue" stroke="midnightblue" points="427.37,-108.71 437.86,-107.26 428.76,-101.84 427.37,-108.71"/>
</g>
</g>
</svg>
