<?xml version="1.0" encoding="UTF-8" standalone="no"?>
<!DOCTYPE svg PUBLIC "-//W3C//DTD SVG 1.1//EN"
 "http://www.w3.org/Graphics/SVG/1.1/DTD/svg11.dtd">
<!-- Generated by graphviz version 2.43.0 (0)
 -->
<!-- Title: lyra::detail::result_base Pages: 1 -->
<svg width="985pt" height="158pt"
 viewBox="0.00 0.00 985.00 157.50" xmlns="http://www.w3.org/2000/svg" xmlns:xlink="http://www.w3.org/1999/xlink">
<g id="graph0" class="graph" transform="scale(1 1) rotate(0) translate(4 153.5)">
<title>lyra::detail::result_base</title>
<polygon fill="white" stroke="transparent" points="-4,4 -4,-153.5 981,-153.5 981,4 -4,4"/>
<!-- Node1 -->
<g id="node1" class="node">
<title>Node1</title>
<g id="a_node1"><a xlink:title=" ">
<polygon fill="#bfbfbf" stroke="black" points="0,-55 0,-74 131,-74 131,-55 0,-55"/>
<text text-anchor="middle" x="65.5" y="-62" font-family="Helvetica,sans-Serif" font-size="10.00">lyra::detail::result_base</text>
</a>
</g>
</g>
<!-- Node2 -->
<g id="node2" class="node">
<title>Node2</title>
<g id="a_node2"><a xlink:href="classlyra_1_1detail_1_1result__value__base.html" target="_top" xlink:title=" ">
<polygon fill="white" stroke="black" points="442,-108 442,-149 564,-149 564,-108 442,-108"/>
<text text-anchor="start" x="450" y="-137" font-family="Helvetica,sans-Serif" font-size="10.00">lyra::detail::result</text>
<text text-anchor="start" x="450" y="-126" font-family="Helvetica,sans-Serif" font-size="10.00">_value_base&lt; detail::</text>
<text text-anchor="middle" x="503" y="-115" font-family="Helvetica,sans-Serif" font-size="10.00">parse_state &gt;</text>
</a>
</g>
</g>
<!-- Node1&#45;&gt;Node2 -->
<g id="edge1" class="edge">
<title>Node1&#45;&gt;Node2</title>
<path fill="none" stroke="midnightblue" d="M140.52,-76.51C143.38,-77.2 146.21,-77.87 149,-78.5 218.54,-94.32 236.2,-97.89 307,-106.5 351.96,-111.97 403.06,-115.27 441.67,-118.45"/>
<polygon fill="midnightblue" stroke="midnightblue" points="141.3,-73.09 130.75,-74.1 139.62,-79.89 141.3,-73.09"/>
</g>
<!-- Node1&#45;&gt;Node2 -->
<g id="edge6" class="edge">
<title>Node1&#45;&gt;Node2</title>
<path fill="none" stroke="midnightblue" d="M87.18,-78.18C103.79,-84.83 127.75,-91.67 149,-96.5 218.54,-112.32 236.2,-115.89 307,-124.5 351.96,-129.97 403.06,-133.27 441.67,-133.9"/>
<polygon fill="midnightblue" stroke="midnightblue" points="88.45,-74.91 77.89,-74.08 85.63,-81.31 88.45,-74.91"/>
</g>
<!-- Node5 -->
<g id="node5" class="node">
<title>Node5</title>
<g id="a_node5"><a xlink:href="classlyra_1_1detail_1_1result__value__base.html" target="_top" xlink:title=" ">
<polygon fill="white" stroke="black" points="175.5,-49.5 175.5,-79.5 281.5,-79.5 281.5,-49.5 175.5,-49.5"/>
<text text-anchor="start" x="183.5" y="-67.5" font-family="Helvetica,sans-Serif" font-size="10.00">lyra::detail::result</text>
<text text-anchor="middle" x="228.5" y="-56.5" font-family="Helvetica,sans-Serif" font-size="10.00">_value_base&lt; T &gt;</text>
</a>
</g>
</g>
<!-- Node1&#45;&gt;Node5 -->
<g id="edge7" class="edge">
<title>Node1&#45;&gt;Node5</title>
<path fill="none" stroke="midnightblue" d="M141.14,-57.77C152.68,-57.7 164.39,-57.83 175.3,-58.14"/>
<polygon fill="midnightblue" stroke="midnightblue" points="141.02,-54.27 131.06,-57.87 141.09,-61.27 141.02,-54.27"/>
</g>
<!-- Node1&#45;&gt;Node5 -->
<g id="edge12" class="edge">
<title>Node1&#45;&gt;Node5</title>
<path fill="none" stroke="midnightblue" d="M141.14,-71.23C152.68,-71.3 164.39,-71.17 175.3,-70.86"/>
<polygon fill="midnightblue" stroke="midnightblue" points="141.09,-67.73 131.06,-71.13 141.02,-74.73 141.09,-67.73"/>
</g>
<!-- Node7 -->
<g id="node7" class="node">
<title>Node7</title>
<g id="a_node7"><a xlink:href="classlyra_1_1detail_1_1result__value__base_3_01void_01_4.html" target="_top" xlink:title=" ">
<polygon fill="white" stroke="black" points="168,-0.5 168,-30.5 289,-30.5 289,-0.5 168,-0.5"/>
<text text-anchor="start" x="176" y="-18.5" font-family="Helvetica,sans-Serif" font-size="10.00">lyra::detail::result</text>
<text text-anchor="middle" x="228.5" y="-7.5" font-family="Helvetica,sans-Serif" font-size="10.00">_value_base&lt; void &gt;</text>
</a>
</g>
</g>
<!-- Node1&#45;&gt;Node7 -->
<g id="edge13" class="edge">
<title>Node1&#45;&gt;Node7</title>
<path fill="none" stroke="midnightblue" d="M93.25,-51.18C113.56,-43.57 142.27,-34.38 167.93,-27.09"/>
<polygon fill="midnightblue" stroke="midnightblue" points="91.78,-48 83.73,-54.89 94.32,-54.52 91.78,-48"/>
</g>
<!-- Node1&#45;&gt;Node7 -->
<g id="edge16" class="edge">
<title>Node1&#45;&gt;Node7</title>
<path fill="none" stroke="midnightblue" d="M128.52,-52.21C151.64,-45.59 176.9,-37.53 196.12,-30.53"/>
<polygon fill="midnightblue" stroke="midnightblue" points="127.45,-48.88 118.77,-54.96 129.35,-55.62 127.45,-48.88"/>
</g>
<!-- Node3 -->
<g id="node3" class="node">
<title>Node3</title>
<g id="a_node3"><a xlink:href="classlyra_1_1detail_1_1basic__result.html" target="_top" xlink:title=" ">
<polygon fill="white" stroke="black" points="717,-108 717,-149 839,-149 839,-108 717,-108"/>
<text text-anchor="start" x="725" y="-137" font-family="Helvetica,sans-Serif" font-size="10.00">lyra::detail::basic</text>
<text text-anchor="start" x="725" y="-126" font-family="Helvetica,sans-Serif" font-size="10.00">_result&lt; detail::parse</text>
<text text-anchor="middle" x="778" y="-115" font-family="Helvetica,sans-Serif" font-size="10.00">_state &gt;</text>
</a>
</g>
</g>
<!-- Node2&#45;&gt;Node3 -->
<g id="edge2" class="edge">
<title>Node2&#45;&gt;Node3</title>
<path fill="none" stroke="midnightblue" d="M574.33,-122.51C618.49,-121.41 674.84,-121.5 716.9,-122.8"/>
<polygon fill="midnightblue" stroke="midnightblue" points="574.15,-119.01 564.25,-122.79 574.34,-126.01 574.15,-119.01"/>
</g>
<!-- Node2&#45;&gt;Node3 -->
<g id="edge5" class="edge">
<title>Node2&#45;&gt;Node3</title>
<path fill="none" stroke="midnightblue" d="M574.33,-134.49C618.49,-135.59 674.84,-135.5 716.9,-134.2"/>
<polygon fill="midnightblue" stroke="midnightblue" points="574.34,-130.99 564.25,-134.21 574.15,-137.99 574.34,-130.99"/>
</g>
<!-- Node4 -->
<g id="node4" class="node">
<title>Node4</title>
<g id="a_node4"><a xlink:href="classlyra_1_1parse__result.html" target="_top" xlink:title=" ">
<polygon fill="white" stroke="black" points="876,-119 876,-138 977,-138 977,-119 876,-119"/>
<text text-anchor="middle" x="926.5" y="-126" font-family="Helvetica,sans-Serif" font-size="10.00">lyra::parse_result</text>
</a>
</g>
</g>
<!-- Node3&#45;&gt;Node4 -->
<g id="edge3" class="edge">
<title>Node3&#45;&gt;Node4</title>
<path fill="none" stroke="midnightblue" d="M849.08,-121.76C858.04,-121.72 867.07,-121.83 875.63,-122.07"/>
<polygon fill="midnightblue" stroke="midnightblue" points="848.98,-118.26 839.01,-121.85 849.04,-125.26 848.98,-118.26"/>
</g>
<!-- Node3&#45;&gt;Node4 -->
<g id="edge4" class="edge">
<title>Node3&#45;&gt;Node4</title>
<path fill="none" stroke="midnightblue" d="M849.08,-135.24C858.04,-135.28 867.07,-135.17 875.63,-134.93"/>
<polygon fill="midnightblue" stroke="midnightblue" points="849.04,-131.74 839.01,-135.15 848.98,-138.74 849.04,-131.74"/>
</g>
<!-- Node5&#45;&gt;Node2 -->
<g id="edge11" class="edge">
<title>Node5&#45;&gt;Node2</title>
<path fill="none" stroke="orange" stroke-dasharray="5,2" d="M291.58,-78.24C296.8,-79.36 301.99,-80.46 307,-81.5 358.89,-92.29 372.6,-91.58 424,-104.5 429.77,-105.95 435.75,-107.57 441.71,-109.27"/>
<polygon fill="orange" stroke="orange" points="292.09,-74.77 281.58,-76.09 290.61,-81.62 292.09,-74.77"/>
<text text-anchor="middle" x="365.5" y="-107.5" font-family="Helvetica,sans-Serif" font-size="10.00"> &lt; detail::parse_state &gt;</text>
</g>
<!-- Node6 -->
<g id="node6" class="node">
<title>Node6</title>
<g id="a_node6"><a xlink:href="classlyra_1_1detail_1_1basic__result.html" target="_top" xlink:title=" ">
<polygon fill="white" stroke="black" points="452.5,-49.5 452.5,-79.5 553.5,-79.5 553.5,-49.5 452.5,-49.5"/>
<text text-anchor="start" x="460.5" y="-67.5" font-family="Helvetica,sans-Serif" font-size="10.00">lyra::detail::basic</text>
<text text-anchor="middle" x="503" y="-56.5" font-family="Helvetica,sans-Serif" font-size="10.00">_result&lt; T &gt;</text>
</a>
</g>
</g>
<!-- Node5&#45;&gt;Node6 -->
<g id="edge8" class="edge">
<title>Node5&#45;&gt;Node6</title>
<path fill="none" stroke="midnightblue" d="M291.81,-58.73C340.46,-57.3 407.14,-57.44 452.26,-59.14"/>
<polygon fill="midnightblue" stroke="midnightblue" points="291.6,-55.23 281.72,-59.05 291.83,-62.23 291.6,-55.23"/>
</g>
<!-- Node5&#45;&gt;Node6 -->
<g id="edge10" class="edge">
<title>Node5&#45;&gt;Node6</title>
<path fill="none" stroke="midnightblue" d="M291.81,-70.27C340.46,-71.7 407.14,-71.56 452.26,-69.86"/>
<polygon fill="midnightblue" stroke="midnightblue" points="291.83,-66.77 281.72,-69.95 291.6,-73.77 291.83,-66.77"/>
</g>
<!-- Node6&#45;&gt;Node3 -->
<g id="edge9" class="edge">
<title>Node6&#45;&gt;Node3</title>
<path fill="none" stroke="orange" stroke-dasharray="5,2" d="M563.74,-78.5C609.07,-89.13 671.13,-103.68 716.62,-114.35"/>
<polygon fill="orange" stroke="orange" points="564.29,-75.04 553.75,-76.16 562.69,-81.85 564.29,-75.04"/>
<text text-anchor="middle" x="640.5" y="-112.5" font-family="Helvetica,sans-Serif" font-size="10.00"> &lt; detail::parse_state &gt;</text>
</g>
<!-- Node8 -->
<g id="node8" class="node">
<title>Node8</title>
<g id="a_node8"><a xlink:href="classlyra_1_1detail_1_1basic__result_3_01void_01_4.html" target="_top" xlink:title=" ">
<polygon fill="white" stroke="black" points="452.5,-0.5 452.5,-30.5 553.5,-30.5 553.5,-0.5 452.5,-0.5"/>
<text text-anchor="start" x="460.5" y="-18.5" font-family="Helvetica,sans-Serif" font-size="10.00">lyra::detail::basic</text>
<text text-anchor="middle" x="503" y="-7.5" font-family="Helvetica,sans-Serif" font-size="10.00">_result&lt; void &gt;</text>
</a>
</g>
</g>
<!-- Node7&#45;&gt;Node8 -->
<g id="edge14" class="edge">
<title>Node7&#45;&gt;Node8</title>
<path fill="none" stroke="midnightblue" d="M299.58,-9.51C347.41,-8.32 409.61,-8.53 452.37,-10.15"/>
<polygon fill="midnightblue" stroke="midnightblue" points="299.2,-6.02 289.3,-9.8 299.39,-13.02 299.2,-6.02"/>
</g>
<!-- Node7&#45;&gt;Node8 -->
<g id="edge15" class="edge">
<title>Node7&#45;&gt;Node8</title>
<path fill="none" stroke="midnightblue" d="M299.58,-21.49C347.41,-22.68 409.61,-22.47 452.37,-20.85"/>
<polygon fill="midnightblue" stroke="midnightblue" points="299.39,-17.98 289.3,-21.2 299.2,-24.98 299.39,-17.98"/>
</g>
</g>
</svg>
