<?xml version="1.0" encoding="UTF-8" standalone="no"?>
<!DOCTYPE svg PUBLIC "-//W3C//DTD SVG 1.1//EN"
 "http://www.w3.org/Graphics/SVG/1.1/DTD/svg11.dtd">
<!-- Generated by graphviz version 2.43.0 (0)
 -->
<!-- Title: lyra::detail::basic_result&lt; T &gt; Pages: 1 -->
<svg width="191pt" height="310pt"
 viewBox="0.00 0.00 190.50 310.00" xmlns="http://www.w3.org/2000/svg" xmlns:xlink="http://www.w3.org/1999/xlink">
<g id="graph0" class="graph" transform="scale(1 1) rotate(0) translate(4 306)">
<title>lyra::detail::basic_result&lt; T &gt;</title>
<polygon fill="white" stroke="transparent" points="-4,4 -4,-306 186.5,-306 186.5,4 -4,4"/>
<!-- Node1 -->
<g id="node1" class="node">
<title>Node1</title>
<g id="a_node1"><a xlink:title=" ">
<polygon fill="#bfbfbf" stroke="black" points="15,-146.5 15,-176.5 116,-176.5 116,-146.5 15,-146.5"/>
<text text-anchor="start" x="23" y="-164.5" font-family="Helvetica,sans-Serif" font-size="10.00">lyra::detail::basic</text>
<text text-anchor="middle" x="65.5" y="-153.5" font-family="Helvetica,sans-Serif" font-size="10.00">_result&lt; T &gt;</text>
</a>
</g>
</g>
<!-- Node4 -->
<g id="node4" class="node">
<title>Node4</title>
<g id="a_node4"><a xlink:href="classlyra_1_1detail_1_1basic__result.html" target="_top" xlink:title=" ">
<polygon fill="white" stroke="black" points="4.5,-57.5 4.5,-98.5 126.5,-98.5 126.5,-57.5 4.5,-57.5"/>
<text text-anchor="start" x="12.5" y="-86.5" font-family="Helvetica,sans-Serif" font-size="10.00">lyra::detail::basic</text>
<text text-anchor="start" x="12.5" y="-75.5" font-family="Helvetica,sans-Serif" font-size="10.00">_result&lt; detail::parse</text>
<text text-anchor="middle" x="65.5" y="-64.5" font-family="Helvetica,sans-Serif" font-size="10.00">_state &gt;</text>
</a>
</g>
</g>
<!-- Node1&#45;&gt;Node4 -->
<g id="edge5" class="edge">
<title>Node1&#45;&gt;Node4</title>
<path fill="none" stroke="orange" stroke-dasharray="5,2" d="M65.5,-136.07C65.5,-124.06 65.5,-109.79 65.5,-98.53"/>
<polygon fill="orange" stroke="orange" points="62,-136.3 65.5,-146.3 69,-136.3 62,-136.3"/>
<text text-anchor="middle" x="124" y="-120" font-family="Helvetica,sans-Serif" font-size="10.00"> &lt; detail::parse_state &gt;</text>
</g>
<!-- Node2 -->
<g id="node2" class="node">
<title>Node2</title>
<g id="a_node2"><a xlink:href="classlyra_1_1detail_1_1result__value__base.html" target="_top" xlink:title=" ">
<polygon fill="white" stroke="black" points="12.5,-214.5 12.5,-244.5 118.5,-244.5 118.5,-214.5 12.5,-214.5"/>
<text text-anchor="start" x="20.5" y="-232.5" font-family="Helvetica,sans-Serif" font-size="10.00">lyra::detail::result</text>
<text text-anchor="middle" x="65.5" y="-221.5" font-family="Helvetica,sans-Serif" font-size="10.00">_value_base&lt; T &gt;</text>
</a>
</g>
</g>
<!-- Node2&#45;&gt;Node1 -->
<g id="edge1" class="edge">
<title>Node2&#45;&gt;Node1</title>
<path fill="none" stroke="midnightblue" d="M58.95,-204.03C58.51,-194.86 58.8,-184.74 59.83,-176.79"/>
<polygon fill="midnightblue" stroke="midnightblue" points="55.48,-204.51 59.82,-214.18 62.46,-203.92 55.48,-204.51"/>
</g>
<!-- Node2&#45;&gt;Node1 -->
<g id="edge4" class="edge">
<title>Node2&#45;&gt;Node1</title>
<path fill="none" stroke="midnightblue" d="M72.05,-204.03C72.49,-194.86 72.2,-184.74 71.17,-176.79"/>
<polygon fill="midnightblue" stroke="midnightblue" points="68.54,-203.92 71.18,-214.18 75.52,-204.51 68.54,-203.92"/>
</g>
<!-- Node3 -->
<g id="node3" class="node">
<title>Node3</title>
<g id="a_node3"><a xlink:href="classlyra_1_1detail_1_1result__base.html" target="_top" xlink:title=" ">
<polygon fill="white" stroke="black" points="0,-282.5 0,-301.5 131,-301.5 131,-282.5 0,-282.5"/>
<text text-anchor="middle" x="65.5" y="-289.5" font-family="Helvetica,sans-Serif" font-size="10.00">lyra::detail::result_base</text>
</a>
</g>
</g>
<!-- Node3&#45;&gt;Node2 -->
<g id="edge2" class="edge">
<title>Node3&#45;&gt;Node2</title>
<path fill="none" stroke="midnightblue" d="M59.2,-272.22C58.47,-263.36 58.63,-252.96 59.67,-244.76"/>
<polygon fill="midnightblue" stroke="midnightblue" points="55.76,-272.91 60.6,-282.33 62.7,-271.95 55.76,-272.91"/>
</g>
<!-- Node3&#45;&gt;Node2 -->
<g id="edge3" class="edge">
<title>Node3&#45;&gt;Node2</title>
<path fill="none" stroke="midnightblue" d="M71.8,-272.22C72.53,-263.36 72.37,-252.96 71.33,-244.76"/>
<polygon fill="midnightblue" stroke="midnightblue" points="68.3,-271.95 70.4,-282.33 75.24,-272.91 68.3,-271.95"/>
</g>
<!-- Node5 -->
<g id="node5" class="node">
<title>Node5</title>
<g id="a_node5"><a xlink:href="classlyra_1_1parse__result.html" target="_top" xlink:title=" ">
<polygon fill="white" stroke="black" points="15,-0.5 15,-19.5 116,-19.5 116,-0.5 15,-0.5"/>
<text text-anchor="middle" x="65.5" y="-7.5" font-family="Helvetica,sans-Serif" font-size="10.00">lyra::parse_result</text>
</a>
</g>
</g>
<!-- Node4&#45;&gt;Node5 -->
<g id="edge6" class="edge">
<title>Node4&#45;&gt;Node5</title>
<path fill="none" stroke="midnightblue" d="M58.78,-47.12C58.6,-37.17 59.26,-26.84 60.74,-19.79"/>
<polygon fill="midnightblue" stroke="midnightblue" points="55.28,-47.37 59.25,-57.2 62.28,-47.04 55.28,-47.37"/>
</g>
<!-- Node4&#45;&gt;Node5 -->
<g id="edge7" class="edge">
<title>Node4&#45;&gt;Node5</title>
<path fill="none" stroke="midnightblue" d="M72.22,-47.12C72.4,-37.17 71.74,-26.84 70.26,-19.79"/>
<polygon fill="midnightblue" stroke="midnightblue" points="68.72,-47.04 71.75,-57.2 75.72,-47.37 68.72,-47.04"/>
</g>
</g>
</svg>
