<?xml version="1.0" encoding="UTF-8" standalone="no"?>
<!DOCTYPE svg PUBLIC "-//W3C//DTD SVG 1.1//EN"
 "http://www.w3.org/Graphics/SVG/1.1/DTD/svg11.dtd">
<!-- Generated by graphviz version 2.43.0 (0)
 -->
<!-- Title: MainNamespace::Surface::SingleSurface::makeOffset Pages: 1 -->
<svg width="929pt" height="537pt"
 viewBox="0.00 0.00 929.00 536.50" xmlns="http://www.w3.org/2000/svg" xmlns:xlink="http://www.w3.org/1999/xlink">
<g id="graph0" class="graph" transform="scale(1 1) rotate(0) translate(4 532.5)">
<title>MainNamespace::Surface::SingleSurface::makeOffset</title>
<polygon fill="white" stroke="transparent" points="-4,4 -4,-532.5 925,-532.5 925,4 -4,4"/>
<!-- Node1 -->
<g id="node1" class="node">
<title>Node1</title>
<g id="a_node1"><a xlink:title="Project the offset on the current mesh.">
<polygon fill="#bfbfbf" stroke="black" points="0,-259.5 0,-289.5 152,-289.5 152,-259.5 0,-259.5"/>
<text text-anchor="start" x="8" y="-277.5" font-family="Helvetica,sans-Serif" font-size="10.00">MainNamespace::Surface</text>
<text text-anchor="middle" x="76" y="-266.5" font-family="Helvetica,sans-Serif" font-size="10.00">::SingleSurface::makeOffset</text>
</a>
</g>
</g>
<!-- Node2 -->
<g id="node2" class="node">
<title>Node2</title>
<g id="a_node2"><a xlink:href="namespace_main_namespace.html#a057c5767cb2d6c22def63e2cdc335080" target="_top" xlink:title=" ">
<polygon fill="white" stroke="black" points="213.5,-490 213.5,-509 327.5,-509 327.5,-490 213.5,-490"/>
<text text-anchor="middle" x="270.5" y="-497" font-family="Helvetica,sans-Serif" font-size="10.00">MainNamespace::at</text>
</a>
</g>
</g>
<!-- Node1&#45;&gt;Node2 -->
<g id="edge1" class="edge">
<title>Node1&#45;&gt;Node2</title>
<path fill="none" stroke="midnightblue" d="M82.38,-289.63C95.4,-324.34 131.74,-410.57 188,-461.5 199.66,-472.06 214.77,-480.19 228.8,-486.17"/>
<polygon fill="midnightblue" stroke="midnightblue" points="227.7,-489.5 238.29,-489.97 230.31,-483 227.7,-489.5"/>
</g>
<!-- Node4 -->
<g id="node4" class="node">
<title>Node4</title>
<g id="a_node4"><a xlink:href="class_main_namespace_1_1_functions_1_1_mesh_offset.html#a168086ca4f603029af2faf0e30282149" target="_top" xlink:title="Interpolate the Dirichlet trace with continuous, picewise linear functions. The trace is scaled by s^...">
<polygon fill="white" stroke="black" points="195,-235.5 195,-265.5 346,-265.5 346,-235.5 195,-235.5"/>
<text text-anchor="start" x="203" y="-253.5" font-family="Helvetica,sans-Serif" font-size="10.00">MainNamespace::Functions</text>
<text text-anchor="middle" x="270.5" y="-242.5" font-family="Helvetica,sans-Serif" font-size="10.00">::MeshOffset::c0Dirichlet</text>
</a>
</g>
</g>
<!-- Node1&#45;&gt;Node4 -->
<g id="edge3" class="edge">
<title>Node1&#45;&gt;Node4</title>
<path fill="none" stroke="midnightblue" d="M152.25,-265.12C162.99,-263.78 174.09,-262.39 185,-261.04"/>
<polygon fill="midnightblue" stroke="midnightblue" points="185.44,-264.51 194.93,-259.8 184.58,-257.56 185.44,-264.51"/>
</g>
<!-- Node7 -->
<g id="node7" class="node">
<title>Node7</title>
<g id="a_node7"><a xlink:href="class_main_namespace_1_1_surface_1_1_single_surface.html#af82898396f01292566ccfa0389b11d72" target="_top" xlink:title="Getter.">
<polygon fill="white" stroke="black" points="191.5,-284.5 191.5,-314.5 349.5,-314.5 349.5,-284.5 191.5,-284.5"/>
<text text-anchor="start" x="199.5" y="-302.5" font-family="Helvetica,sans-Serif" font-size="10.00">MainNamespace::Surface</text>
<text text-anchor="middle" x="270.5" y="-291.5" font-family="Helvetica,sans-Serif" font-size="10.00">::SingleSurface::fullBasisSize</text>
</a>
</g>
</g>
<!-- Node1&#45;&gt;Node7 -->
<g id="edge6" class="edge">
<title>Node1&#45;&gt;Node7</title>
<path fill="none" stroke="midnightblue" d="M152.25,-284.27C161.8,-285.51 171.64,-286.79 181.37,-288.05"/>
<polygon fill="midnightblue" stroke="midnightblue" points="181.08,-291.55 191.44,-289.36 181.98,-284.6 181.08,-291.55"/>
</g>
<!-- Node14 -->
<g id="node14" class="node">
<title>Node14</title>
<g id="a_node14"><a xlink:href="class_main_namespace_1_1_functions_1_1_mesh_offset.html#a4a768deff1384d61cba181363f4069a9" target="_top" xlink:title="Compute the L² projection of the Nemuann trace into piecewise constant functions. The trace is scaled...">
<polygon fill="white" stroke="black" points="195,-142.5 195,-172.5 346,-172.5 346,-142.5 195,-142.5"/>
<text text-anchor="start" x="203" y="-160.5" font-family="Helvetica,sans-Serif" font-size="10.00">MainNamespace::Functions</text>
<text text-anchor="middle" x="270.5" y="-149.5" font-family="Helvetica,sans-Serif" font-size="10.00">::MeshOffset::l2Neumann</text>
</a>
</g>
</g>
<!-- Node1&#45;&gt;Node14 -->
<g id="edge13" class="edge">
<title>Node1&#45;&gt;Node14</title>
<path fill="none" stroke="midnightblue" d="M101.77,-259.44C135.9,-238.7 197.48,-201.27 235.78,-177.99"/>
<polygon fill="midnightblue" stroke="midnightblue" points="237.79,-180.87 244.52,-172.68 234.15,-174.89 237.79,-180.87"/>
</g>
<!-- Node18 -->
<g id="node18" class="node">
<title>Node18</title>
<g id="a_node18"><a xlink:href="class_main_namespace_1_1_mesh_reader.html#a6b3bbaa0caf0b1e01681dc79a1ac72ea" target="_top" xlink:title="Save the Cauchy data associated to the mesh, with the given name.">
<polygon fill="white" stroke="black" points="188,-421.5 188,-451.5 353,-451.5 353,-421.5 188,-421.5"/>
<text text-anchor="start" x="196" y="-439.5" font-family="Helvetica,sans-Serif" font-size="10.00">MainNamespace::MeshReader</text>
<text text-anchor="middle" x="270.5" y="-428.5" font-family="Helvetica,sans-Serif" font-size="10.00">::saveView</text>
</a>
</g>
</g>
<!-- Node1&#45;&gt;Node18 -->
<g id="edge19" class="edge">
<title>Node1&#45;&gt;Node18</title>
<path fill="none" stroke="midnightblue" d="M95.11,-289.74C129.45,-318.64 204.13,-381.48 243.7,-414.78"/>
<polygon fill="midnightblue" stroke="midnightblue" points="241.67,-417.66 251.58,-421.42 246.18,-412.3 241.67,-417.66"/>
</g>
<!-- Node21 -->
<g id="node21" class="node">
<title>Node21</title>
<g id="a_node21"><a xlink:href="class_main_namespace_1_1_surface_1_1_single_surface.html#a7d8e039812cd3719b07f14d641af0c2d" target="_top" xlink:title="Getter.">
<polygon fill="white" stroke="black" points="200,-93.5 200,-123.5 341,-123.5 341,-93.5 200,-93.5"/>
<text text-anchor="start" x="208" y="-111.5" font-family="Helvetica,sans-Serif" font-size="10.00">MainNamespace::Surface</text>
<text text-anchor="middle" x="270.5" y="-100.5" font-family="Helvetica,sans-Serif" font-size="10.00">::SingleSurface::stabilizer</text>
</a>
</g>
</g>
<!-- Node1&#45;&gt;Node21 -->
<g id="edge25" class="edge">
<title>Node1&#45;&gt;Node21</title>
<path fill="none" stroke="midnightblue" d="M84.78,-259.1C100.33,-229.92 138.05,-166.44 188,-132.5 190.27,-130.96 192.63,-129.52 195.07,-128.16"/>
<polygon fill="midnightblue" stroke="midnightblue" points="196.77,-131.23 204.19,-123.66 193.67,-124.95 196.77,-131.23"/>
</g>
<!-- Node3 -->
<g id="node3" class="node">
<title>Node3</title>
<g id="a_node3"><a xlink:href="namespace_main_namespace.html#af2bdf8b63f748b11f1bb616b59890873" target="_top" xlink:title=" ">
<polygon fill="white" stroke="black" points="396.5,-509 396.5,-528 569.5,-528 569.5,-509 396.5,-509"/>
<text text-anchor="middle" x="483" y="-516" font-family="Helvetica,sans-Serif" font-size="10.00">MainNamespace::getUnderlying</text>
</a>
</g>
</g>
<!-- Node2&#45;&gt;Node3 -->
<g id="edge2" class="edge">
<title>Node2&#45;&gt;Node3</title>
<path fill="none" stroke="midnightblue" d="M327.63,-504.57C345.66,-506.19 366.16,-508.04 386.2,-509.85"/>
<polygon fill="midnightblue" stroke="midnightblue" points="386.03,-513.35 396.31,-510.77 386.66,-506.38 386.03,-513.35"/>
</g>
<!-- Node5 -->
<g id="node5" class="node">
<title>Node5</title>
<g id="a_node5"><a xlink:href="class_main_namespace_1_1_functions_1_1_mesh_offset.html#a16cc2b00078c4a2182c4030699f0a2a8" target="_top" xlink:title="Compute an offset for the Dirictlet trace of the current solution.">
<polygon fill="white" stroke="black" points="407.5,-235.5 407.5,-265.5 558.5,-265.5 558.5,-235.5 407.5,-235.5"/>
<text text-anchor="start" x="415.5" y="-253.5" font-family="Helvetica,sans-Serif" font-size="10.00">MainNamespace::Functions</text>
<text text-anchor="middle" x="483" y="-242.5" font-family="Helvetica,sans-Serif" font-size="10.00">::MeshOffset::dirichlet</text>
</a>
</g>
</g>
<!-- Node4&#45;&gt;Node5 -->
<g id="edge4" class="edge">
<title>Node4&#45;&gt;Node5</title>
<path fill="none" stroke="midnightblue" d="M346.01,-250.5C362.46,-250.5 380.02,-250.5 396.86,-250.5"/>
<polygon fill="midnightblue" stroke="midnightblue" points="397.23,-254 407.23,-250.5 397.23,-247 397.23,-254"/>
</g>
<!-- Node6 -->
<g id="node6" class="node">
<title>Node6</title>
<g id="a_node6"><a xlink:href="struct_main_namespace_1_1_mesh.html#af0d92acd1c106ecbf5924ce4052667fb" target="_top" xlink:title="Get a vertex.">
<polygon fill="white" stroke="black" points="417.5,-186.5 417.5,-216.5 548.5,-216.5 548.5,-186.5 417.5,-186.5"/>
<text text-anchor="start" x="425.5" y="-204.5" font-family="Helvetica,sans-Serif" font-size="10.00">MainNamespace::Mesh</text>
<text text-anchor="middle" x="483" y="-193.5" font-family="Helvetica,sans-Serif" font-size="10.00">::vertex</text>
</a>
</g>
</g>
<!-- Node4&#45;&gt;Node6 -->
<g id="edge5" class="edge">
<title>Node4&#45;&gt;Node6</title>
<path fill="none" stroke="midnightblue" d="M336.09,-235.47C358.72,-230.2 384.31,-224.24 407.67,-218.8"/>
<polygon fill="midnightblue" stroke="midnightblue" points="408.59,-222.18 417.53,-216.51 407,-215.36 408.59,-222.18"/>
</g>
<!-- Node8 -->
<g id="node8" class="node">
<title>Node8</title>
<g id="a_node8"><a xlink:href="class_main_namespace_1_1_surface_1_1_single_surface.html#a895b50a0b257398b19897c97f235b777" target="_top" xlink:title="Getter.">
<polygon fill="white" stroke="black" points="392,-284.5 392,-314.5 574,-314.5 574,-284.5 392,-284.5"/>
<text text-anchor="start" x="400" y="-302.5" font-family="Helvetica,sans-Serif" font-size="10.00">MainNamespace::Surface</text>
<text text-anchor="middle" x="483" y="-291.5" font-family="Helvetica,sans-Serif" font-size="10.00">::SingleSurface::dirichletBasisSize</text>
</a>
</g>
</g>
<!-- Node7&#45;&gt;Node8 -->
<g id="edge7" class="edge">
<title>Node7&#45;&gt;Node8</title>
<path fill="none" stroke="midnightblue" d="M349.58,-299.5C360.05,-299.5 370.89,-299.5 381.67,-299.5"/>
<polygon fill="midnightblue" stroke="midnightblue" points="381.97,-303 391.97,-299.5 381.97,-296 381.97,-303"/>
</g>
<!-- Node11 -->
<g id="node11" class="node">
<title>Node11</title>
<g id="a_node11"><a xlink:href="class_main_namespace_1_1_surface_1_1_single_surface.html#ac615b87bec340cd97530bfc17e317e5c" target="_top" xlink:title="Getter.">
<polygon fill="white" stroke="black" points="389,-333.5 389,-363.5 577,-363.5 577,-333.5 389,-333.5"/>
<text text-anchor="start" x="397" y="-351.5" font-family="Helvetica,sans-Serif" font-size="10.00">MainNamespace::Surface</text>
<text text-anchor="middle" x="483" y="-340.5" font-family="Helvetica,sans-Serif" font-size="10.00">::SingleSurface::neumannBasisSize</text>
</a>
</g>
</g>
<!-- Node7&#45;&gt;Node11 -->
<g id="edge10" class="edge">
<title>Node7&#45;&gt;Node11</title>
<path fill="none" stroke="midnightblue" d="M336.09,-314.53C358.72,-319.8 384.31,-325.76 407.67,-331.2"/>
<polygon fill="midnightblue" stroke="midnightblue" points="407,-334.64 417.53,-333.49 408.59,-327.82 407,-334.64"/>
</g>
<!-- Node9 -->
<g id="node9" class="node">
<title>Node9</title>
<g id="a_node9"><a xlink:href="class_main_namespace_1_1_surface_1_1_single_surface.html#a14d982b157c95bc7e304f60915960786" target="_top" xlink:title="Getter.">
<polygon fill="white" stroke="black" points="613,-284.5 613,-314.5 754,-314.5 754,-284.5 613,-284.5"/>
<text text-anchor="start" x="621" y="-302.5" font-family="Helvetica,sans-Serif" font-size="10.00">MainNamespace::Surface</text>
<text text-anchor="middle" x="683.5" y="-291.5" font-family="Helvetica,sans-Serif" font-size="10.00">::SingleSurface::vertices</text>
</a>
</g>
</g>
<!-- Node8&#45;&gt;Node9 -->
<g id="edge8" class="edge">
<title>Node8&#45;&gt;Node9</title>
<path fill="none" stroke="midnightblue" d="M574.25,-299.5C583.8,-299.5 593.46,-299.5 602.88,-299.5"/>
<polygon fill="midnightblue" stroke="midnightblue" points="602.99,-303 612.99,-299.5 602.99,-296 602.99,-303"/>
</g>
<!-- Node10 -->
<g id="node10" class="node">
<title>Node10</title>
<g id="a_node10"><a xlink:href="struct_main_namespace_1_1_mesh.html#ab0133714e18c8aaee3deb84910cef54c" target="_top" xlink:title="Getter.">
<polygon fill="white" stroke="black" points="790,-284.5 790,-314.5 921,-314.5 921,-284.5 790,-284.5"/>
<text text-anchor="start" x="798" y="-302.5" font-family="Helvetica,sans-Serif" font-size="10.00">MainNamespace::Mesh</text>
<text text-anchor="middle" x="855.5" y="-291.5" font-family="Helvetica,sans-Serif" font-size="10.00">::vertices</text>
</a>
</g>
</g>
<!-- Node9&#45;&gt;Node10 -->
<g id="edge9" class="edge">
<title>Node9&#45;&gt;Node10</title>
<path fill="none" stroke="midnightblue" d="M754.14,-299.5C762.55,-299.5 771.16,-299.5 779.64,-299.5"/>
<polygon fill="midnightblue" stroke="midnightblue" points="779.9,-303 789.9,-299.5 779.9,-296 779.9,-303"/>
</g>
<!-- Node12 -->
<g id="node12" class="node">
<title>Node12</title>
<g id="a_node12"><a xlink:href="class_main_namespace_1_1_surface_1_1_single_surface.html#a300e558fb3fa32029de0452e252eb5cc" target="_top" xlink:title="Getter.">
<polygon fill="white" stroke="black" points="613,-333.5 613,-363.5 754,-363.5 754,-333.5 613,-333.5"/>
<text text-anchor="start" x="621" y="-351.5" font-family="Helvetica,sans-Serif" font-size="10.00">MainNamespace::Surface</text>
<text text-anchor="middle" x="683.5" y="-340.5" font-family="Helvetica,sans-Serif" font-size="10.00">::SingleSurface::triangles</text>
</a>
</g>
</g>
<!-- Node11&#45;&gt;Node12 -->
<g id="edge11" class="edge">
<title>Node11&#45;&gt;Node12</title>
<path fill="none" stroke="midnightblue" d="M577.15,-348.5C585.67,-348.5 594.25,-348.5 602.64,-348.5"/>
<polygon fill="midnightblue" stroke="midnightblue" points="602.76,-352 612.76,-348.5 602.76,-345 602.76,-352"/>
</g>
<!-- Node13 -->
<g id="node13" class="node">
<title>Node13</title>
<g id="a_node13"><a xlink:href="struct_main_namespace_1_1_mesh.html#a9e3b353180a3b67dc149e8703c164bc3" target="_top" xlink:title="Getter.">
<polygon fill="white" stroke="black" points="790,-399.5 790,-429.5 921,-429.5 921,-399.5 790,-399.5"/>
<text text-anchor="start" x="798" y="-417.5" font-family="Helvetica,sans-Serif" font-size="10.00">MainNamespace::Mesh</text>
<text text-anchor="middle" x="855.5" y="-406.5" font-family="Helvetica,sans-Serif" font-size="10.00">::triangles</text>
</a>
</g>
</g>
<!-- Node12&#45;&gt;Node13 -->
<g id="edge12" class="edge">
<title>Node12&#45;&gt;Node13</title>
<path fill="none" stroke="midnightblue" d="M723.5,-363.64C748.12,-373.2 780.11,-385.62 806.31,-395.79"/>
<polygon fill="midnightblue" stroke="midnightblue" points="805.09,-399.07 815.68,-399.43 807.62,-392.55 805.09,-399.07"/>
</g>
<!-- Node14&#45;&gt;Node6 -->
<g id="edge17" class="edge">
<title>Node14&#45;&gt;Node6</title>
<path fill="none" stroke="midnightblue" d="M343.35,-172.52C363.93,-176.82 386.4,-181.52 407.15,-185.85"/>
<polygon fill="midnightblue" stroke="midnightblue" points="406.67,-189.33 417.18,-187.95 408.11,-182.48 406.67,-189.33"/>
</g>
<!-- Node14&#45;&gt;Node10 -->
<g id="edge18" class="edge">
<title>Node14&#45;&gt;Node10</title>
<path fill="none" stroke="midnightblue" d="M346.05,-155.21C408.59,-154.98 499.81,-158.63 577,-177.5 668.68,-199.92 768.09,-250.8 819.41,-279.26"/>
<polygon fill="midnightblue" stroke="midnightblue" points="817.99,-282.47 828.42,-284.3 821.41,-276.37 817.99,-282.47"/>
</g>
<!-- Node15 -->
<g id="node15" class="node">
<title>Node15</title>
<g id="a_node15"><a xlink:href="class_main_namespace_1_1_functions_1_1_mesh_offset.html#a8397c8b0cc4e358dd5ccf2a94d1d52c3" target="_top" xlink:title="Compute an offset for the Neumann trace of the current solution.">
<polygon fill="white" stroke="black" points="407.5,-0.5 407.5,-30.5 558.5,-30.5 558.5,-0.5 407.5,-0.5"/>
<text text-anchor="start" x="415.5" y="-18.5" font-family="Helvetica,sans-Serif" font-size="10.00">MainNamespace::Functions</text>
<text text-anchor="middle" x="483" y="-7.5" font-family="Helvetica,sans-Serif" font-size="10.00">::MeshOffset::neumann</text>
</a>
</g>
</g>
<!-- Node14&#45;&gt;Node15 -->
<g id="edge14" class="edge">
<title>Node14&#45;&gt;Node15</title>
<path fill="none" stroke="midnightblue" d="M339.19,-142.32C344.19,-139.58 348.88,-136.33 353,-132.5 385.44,-102.3 355.88,-68.96 389,-39.5 391.85,-36.97 394.92,-34.7 398.17,-32.66"/>
<polygon fill="midnightblue" stroke="midnightblue" points="400,-35.65 407.12,-27.8 396.66,-29.5 400,-35.65"/>
</g>
<!-- Node16 -->
<g id="node16" class="node">
<title>Node16</title>
<g id="a_node16"><a xlink:href="struct_main_namespace_1_1_mesh.html#acd5f992511be0c6e6776be2ec59c7ca6" target="_top" xlink:title="Get the normal to a triangle.">
<polygon fill="white" stroke="black" points="417.5,-98.5 417.5,-128.5 548.5,-128.5 548.5,-98.5 417.5,-98.5"/>
<text text-anchor="start" x="425.5" y="-116.5" font-family="Helvetica,sans-Serif" font-size="10.00">MainNamespace::Mesh</text>
<text text-anchor="middle" x="483" y="-105.5" font-family="Helvetica,sans-Serif" font-size="10.00">::normal</text>
</a>
</g>
</g>
<!-- Node14&#45;&gt;Node16 -->
<g id="edge15" class="edge">
<title>Node14&#45;&gt;Node16</title>
<path fill="none" stroke="midnightblue" d="M343.35,-142.48C363.93,-138.18 386.4,-133.48 407.15,-129.15"/>
<polygon fill="midnightblue" stroke="midnightblue" points="408.11,-132.52 417.18,-127.05 406.67,-125.67 408.11,-132.52"/>
</g>
<!-- Node17 -->
<g id="node17" class="node">
<title>Node17</title>
<g id="a_node17"><a xlink:href="struct_main_namespace_1_1_mesh.html#aecef8c2502305df7229d7bcf2f5df2ad" target="_top" xlink:title="Get a triangle.">
<polygon fill="white" stroke="black" points="417.5,-49.5 417.5,-79.5 548.5,-79.5 548.5,-49.5 417.5,-49.5"/>
<text text-anchor="start" x="425.5" y="-67.5" font-family="Helvetica,sans-Serif" font-size="10.00">MainNamespace::Mesh</text>
<text text-anchor="middle" x="483" y="-56.5" font-family="Helvetica,sans-Serif" font-size="10.00">::triangle</text>
</a>
</g>
</g>
<!-- Node14&#45;&gt;Node17 -->
<g id="edge16" class="edge">
<title>Node14&#45;&gt;Node17</title>
<path fill="none" stroke="midnightblue" d="M334.22,-142.47C340.82,-139.67 347.23,-136.38 353,-132.5 373.98,-118.41 367.71,-102.11 389,-88.5 394.76,-84.82 401.06,-81.7 407.57,-79.06"/>
<polygon fill="midnightblue" stroke="midnightblue" points="409.05,-82.25 417.24,-75.52 406.65,-75.67 409.05,-82.25"/>
</g>
<!-- Node18&#45;&gt;Node3 -->
<g id="edge20" class="edge">
<title>Node18&#45;&gt;Node3</title>
<path fill="none" stroke="midnightblue" d="M298.33,-451.73C321.7,-464.51 356.8,-482.54 389,-494.5 401.21,-499.03 414.63,-503.04 427.38,-506.41"/>
<polygon fill="midnightblue" stroke="midnightblue" points="426.87,-509.89 437.43,-508.98 428.61,-503.11 426.87,-509.89"/>
</g>
<!-- Node18&#45;&gt;Node10 -->
<g id="edge24" class="edge">
<title>Node18&#45;&gt;Node10</title>
<path fill="none" stroke="midnightblue" d="M353.29,-422.84C365.26,-420.97 377.44,-419.13 389,-417.5 550.79,-394.68 602.1,-433.7 754,-373.5 783.79,-361.69 812.69,-338.84 831.8,-321.63"/>
<polygon fill="midnightblue" stroke="midnightblue" points="834.39,-324.01 839.36,-314.66 829.64,-318.87 834.39,-324.01"/>
</g>
<!-- Node18&#45;&gt;Node13 -->
<g id="edge23" class="edge">
<title>Node18&#45;&gt;Node13</title>
<path fill="none" stroke="midnightblue" d="M340.38,-451.53C434.88,-469.57 609.48,-493.62 754,-461.5 777.59,-456.26 802.2,-444.86 821.16,-434.61"/>
<polygon fill="midnightblue" stroke="midnightblue" points="822.95,-437.62 829.99,-429.7 819.55,-431.5 822.95,-437.62"/>
</g>
<!-- Node19 -->
<g id="node19" class="node">
<title>Node19</title>
<g id="a_node19"><a xlink:href="namespace_main_namespace_1_1_logger.html#afbb4cc2d8b498e71fcb228f0da8309a1" target="_top" xlink:title=" ">
<polygon fill="white" stroke="black" points="404,-427 404,-446 562,-446 562,-427 404,-427"/>
<text text-anchor="middle" x="483" y="-434" font-family="Helvetica,sans-Serif" font-size="10.00">MainNamespace::Logger::log</text>
</a>
</g>
</g>
<!-- Node18&#45;&gt;Node19 -->
<g id="edge21" class="edge">
<title>Node18&#45;&gt;Node19</title>
<path fill="none" stroke="midnightblue" d="M353.19,-436.5C366.45,-436.5 380.23,-436.5 393.65,-436.5"/>
<polygon fill="midnightblue" stroke="midnightblue" points="393.81,-440 403.81,-436.5 393.81,-433 393.81,-440"/>
</g>
<!-- Node20 -->
<g id="node20" class="node">
<title>Node20</title>
<g id="a_node20"><a xlink:href="namespace_main_namespace_1_1_logger.html#af052b0198f333fca77f0837a511ec7f7" target="_top" xlink:title=" ">
<polygon fill="white" stroke="black" points="615,-421.5 615,-451.5 752,-451.5 752,-421.5 615,-421.5"/>
<text text-anchor="start" x="623" y="-439.5" font-family="Helvetica,sans-Serif" font-size="10.00">MainNamespace::Logger</text>
<text text-anchor="middle" x="683.5" y="-428.5" font-family="Helvetica,sans-Serif" font-size="10.00">::forwardLog</text>
</a>
</g>
</g>
<!-- Node19&#45;&gt;Node20 -->
<g id="edge22" class="edge">
<title>Node19&#45;&gt;Node20</title>
<path fill="none" stroke="midnightblue" d="M562.17,-436.5C576.14,-436.5 590.69,-436.5 604.65,-436.5"/>
<polygon fill="midnightblue" stroke="midnightblue" points="604.69,-440 614.69,-436.5 604.69,-433 604.69,-440"/>
</g>
</g>
</svg>
