<?xml version="1.0" encoding="UTF-8" standalone="no"?>
<!DOCTYPE svg PUBLIC "-//W3C//DTD SVG 1.1//EN"
 "http://www.w3.org/Graphics/SVG/1.1/DTD/svg11.dtd">
<!-- Generated by graphviz version 2.43.0 (0)
 -->
<!-- Title: lyra::opt::validate Pages: 1 -->
<svg width="566pt" height="121pt"
 viewBox="0.00 0.00 566.00 121.00" xmlns="http://www.w3.org/2000/svg" xmlns:xlink="http://www.w3.org/1999/xlink">
<g id="graph0" class="graph" transform="scale(1 1) rotate(0) translate(4 117)">
<title>lyra::opt::validate</title>
<polygon fill="white" stroke="transparent" points="-4,4 -4,-117 562,-117 562,4 -4,4"/>
<!-- Node1 -->
<g id="node1" class="node">
<title>Node1</title>
<g id="a_node1"><a xlink:title=" ">
<polygon fill="#bfbfbf" stroke="black" points="0,-44 0,-63 103,-63 103,-44 0,-44"/>
<text text-anchor="middle" x="51.5" y="-51" font-family="Helvetica,sans-Serif" font-size="10.00">lyra::opt::validate</text>
</a>
</g>
</g>
<!-- Node2 -->
<g id="node2" class="node">
<title>Node2</title>
<g id="a_node2"><a xlink:href="classlyra_1_1detail_1_1basic__result_3_01void_01_4.html#a5fab8869361e6299ed3f41ac690c050c" target="_top" xlink:title=" ">
<polygon fill="white" stroke="black" points="139,-82.5 139,-112.5 261,-112.5 261,-82.5 139,-82.5"/>
<text text-anchor="start" x="147" y="-100.5" font-family="Helvetica,sans-Serif" font-size="10.00">lyra::detail::basic</text>
<text text-anchor="middle" x="200" y="-89.5" font-family="Helvetica,sans-Serif" font-size="10.00">_result&lt; void &gt;::error</text>
</a>
</g>
</g>
<!-- Node1&#45;&gt;Node2 -->
<g id="edge1" class="edge">
<title>Node1&#45;&gt;Node2</title>
<path fill="none" stroke="midnightblue" d="M84.29,-63.05C100.34,-67.87 120.35,-73.88 139.15,-79.52"/>
<polygon fill="midnightblue" stroke="midnightblue" points="138.26,-82.91 148.84,-82.43 140.27,-76.21 138.26,-82.91"/>
</g>
<!-- Node5 -->
<g id="node5" class="node">
<title>Node5</title>
<g id="a_node5"><a xlink:href="classlyra_1_1opt.html#a462257fd2b66731a3b8513136dc34e0c" target="_top" xlink:title=" ">
<polygon fill="white" stroke="black" points="154.5,-44 154.5,-63 245.5,-63 245.5,-44 154.5,-44"/>
<text text-anchor="middle" x="200" y="-51" font-family="Helvetica,sans-Serif" font-size="10.00">lyra::opt::name</text>
</a>
</g>
</g>
<!-- Node1&#45;&gt;Node5 -->
<g id="edge4" class="edge">
<title>Node1&#45;&gt;Node5</title>
<path fill="none" stroke="midnightblue" d="M103.33,-53.5C116.5,-53.5 130.74,-53.5 144.11,-53.5"/>
<polygon fill="midnightblue" stroke="midnightblue" points="144.13,-57 154.13,-53.5 144.13,-50 144.13,-57"/>
</g>
<!-- Node6 -->
<g id="node6" class="node">
<title>Node6</title>
<g id="a_node6"><a xlink:href="classlyra_1_1parser.html#ab9d9c5b96021198e37bb80f2df888f71" target="_top" xlink:title=" ">
<polygon fill="white" stroke="black" points="141,-6 141,-25 259,-25 259,-6 141,-6"/>
<text text-anchor="middle" x="200" y="-13" font-family="Helvetica,sans-Serif" font-size="10.00">lyra::parser::validate</text>
</a>
</g>
</g>
<!-- Node1&#45;&gt;Node6 -->
<g id="edge5" class="edge">
<title>Node1&#45;&gt;Node6</title>
<path fill="none" stroke="midnightblue" d="M89.47,-43.91C108.63,-38.94 132.21,-32.82 152.59,-27.54"/>
<polygon fill="midnightblue" stroke="midnightblue" points="153.5,-30.92 162.3,-25.02 151.74,-24.14 153.5,-30.92"/>
</g>
<!-- Node3 -->
<g id="node3" class="node">
<title>Node3</title>
<g id="a_node3"><a xlink:href="classlyra_1_1detail_1_1basic__result.html#a2a6448a9babcc3d583edff8f13e076b9" target="_top" xlink:title=" ">
<polygon fill="white" stroke="black" points="444,-46.5 444,-76.5 558,-76.5 558,-46.5 444,-46.5"/>
<text text-anchor="start" x="452" y="-64.5" font-family="Helvetica,sans-Serif" font-size="10.00">lyra::detail::basic</text>
<text text-anchor="middle" x="501" y="-53.5" font-family="Helvetica,sans-Serif" font-size="10.00">_result::basic_result</text>
</a>
</g>
</g>
<!-- Node2&#45;&gt;Node3 -->
<g id="edge2" class="edge">
<title>Node2&#45;&gt;Node3</title>
<path fill="none" stroke="midnightblue" d="M261.2,-99.23C302.73,-99.43 359.06,-97.75 408,-89.5 421.38,-87.24 435.54,-83.6 448.63,-79.67"/>
<polygon fill="midnightblue" stroke="midnightblue" points="449.9,-82.94 458.41,-76.63 447.82,-76.26 449.9,-82.94"/>
</g>
<!-- Node4 -->
<g id="node4" class="node">
<title>Node4</title>
<g id="a_node4"><a xlink:href="classlyra_1_1detail_1_1result__base.html#af2039c056e3c27fd5efa1542bd7167be" target="_top" xlink:title=" ">
<polygon fill="white" stroke="black" points="301,-49.5 301,-79.5 404,-79.5 404,-49.5 301,-49.5"/>
<text text-anchor="start" x="309" y="-67.5" font-family="Helvetica,sans-Serif" font-size="10.00">lyra::detail::result</text>
<text text-anchor="middle" x="352.5" y="-56.5" font-family="Helvetica,sans-Serif" font-size="10.00">_base::message</text>
</a>
</g>
</g>
<!-- Node2&#45;&gt;Node4 -->
<g id="edge3" class="edge">
<title>Node2&#45;&gt;Node4</title>
<path fill="none" stroke="midnightblue" d="M261.35,-84.27C271.06,-82.14 281.11,-79.93 290.83,-77.8"/>
<polygon fill="midnightblue" stroke="midnightblue" points="291.79,-81.18 300.81,-75.61 290.29,-74.34 291.79,-81.18"/>
</g>
<!-- Node7 -->
<g id="node7" class="node">
<title>Node7</title>
<g id="a_node7"><a xlink:href="classlyra_1_1detail_1_1basic__result_3_01void_01_4.html#a3a596bcb3b08ecd14c8580a10f33a051" target="_top" xlink:title=" ">
<polygon fill="white" stroke="black" points="297,-0.5 297,-30.5 408,-30.5 408,-0.5 297,-0.5"/>
<text text-anchor="start" x="305" y="-18.5" font-family="Helvetica,sans-Serif" font-size="10.00">lyra::detail::basic</text>
<text text-anchor="middle" x="352.5" y="-7.5" font-family="Helvetica,sans-Serif" font-size="10.00">_result&lt; void &gt;::ok</text>
</a>
</g>
</g>
<!-- Node6&#45;&gt;Node7 -->
<g id="edge6" class="edge">
<title>Node6&#45;&gt;Node7</title>
<path fill="none" stroke="midnightblue" d="M259.19,-15.5C268.2,-15.5 277.56,-15.5 286.71,-15.5"/>
<polygon fill="midnightblue" stroke="midnightblue" points="286.92,-19 296.92,-15.5 286.92,-12 286.92,-19"/>
</g>
<!-- Node7&#45;&gt;Node3 -->
<g id="edge7" class="edge">
<title>Node7&#45;&gt;Node3</title>
<path fill="none" stroke="midnightblue" d="M401.47,-30.56C414.56,-34.67 428.89,-39.17 442.45,-43.43"/>
<polygon fill="midnightblue" stroke="midnightblue" points="441.58,-46.83 452.17,-46.48 443.68,-40.15 441.58,-46.83"/>
</g>
</g>
</svg>
