<?xml version="1.0" encoding="UTF-8" standalone="no"?>
<!DOCTYPE svg PUBLIC "-//W3C//DTD SVG 1.1//EN"
 "http://www.w3.org/Graphics/SVG/1.1/DTD/svg11.dtd">
<!-- Generated by graphviz version 2.43.0 (0)
 -->
<!-- Title: lyra::parser Pages: 1 -->
<svg width="882pt" height="329pt"
 viewBox="0.00 0.00 882.00 328.50" xmlns="http://www.w3.org/2000/svg" xmlns:xlink="http://www.w3.org/1999/xlink">
<g id="graph0" class="graph" transform="scale(1 1) rotate(0) translate(4 324.5)">
<title>lyra::parser</title>
<polygon fill="white" stroke="transparent" points="-4,4 -4,-324.5 878,-324.5 878,4 -4,4"/>
<!-- Node1 -->
<g id="node1" class="node">
<title>Node1</title>
<g id="a_node1"><a xlink:title=" ">
<polygon fill="#bfbfbf" stroke="black" points="0,-126.5 0,-145.5 72,-145.5 72,-126.5 0,-126.5"/>
<text text-anchor="middle" x="36" y="-133.5" font-family="Helvetica,sans-Serif" font-size="10.00">lyra::parser</text>
</a>
</g>
</g>
<!-- Node2 -->
<g id="node2" class="node">
<title>Node2</title>
<g id="a_node2"><a xlink:href="classlyra_1_1composable__parser.html" target="_top" xlink:title=" ">
<polygon fill="white" stroke="black" points="359,-290 359,-320 496,-320 496,-290 359,-290"/>
<text text-anchor="start" x="367" y="-308" font-family="Helvetica,sans-Serif" font-size="10.00">lyra::composable_parser</text>
<text text-anchor="middle" x="427.5" y="-297" font-family="Helvetica,sans-Serif" font-size="10.00">&lt; arg &gt;</text>
</a>
</g>
</g>
<!-- Node1&#45;&gt;Node2 -->
<g id="edge1" class="edge">
<title>Node1&#45;&gt;Node2</title>
<path fill="none" stroke="midnightblue" d="M46.58,-154.7C57.72,-178.55 78.55,-218.71 109,-242 181.06,-297.11 289.31,-304.06 358.94,-304.04"/>
<polygon fill="midnightblue" stroke="midnightblue" points="49.75,-153.21 42.4,-145.57 43.38,-156.12 49.75,-153.21"/>
</g>
<!-- Node1&#45;&gt;Node2 -->
<g id="edge16" class="edge">
<title>Node1&#45;&gt;Node2</title>
<path fill="none" stroke="midnightblue" d="M41.96,-155.36C51.26,-183.2 73.65,-232.97 109,-260 181.06,-315.11 289.31,-322.06 358.94,-317.46"/>
<polygon fill="midnightblue" stroke="midnightblue" points="45.22,-154.07 38.94,-145.54 38.53,-156.13 45.22,-154.07"/>
</g>
<!-- Node5 -->
<g id="node5" class="node">
<title>Node5</title>
<g id="a_node5"><a xlink:href="classlyra_1_1composable__parser.html" target="_top" xlink:title=" ">
<polygon fill="white" stroke="black" points="359,-82 359,-112 496,-112 496,-82 359,-82"/>
<text text-anchor="start" x="367" y="-100" font-family="Helvetica,sans-Serif" font-size="10.00">lyra::composable_parser</text>
<text text-anchor="middle" x="427.5" y="-89" font-family="Helvetica,sans-Serif" font-size="10.00">&lt; exe_name &gt;</text>
</a>
</g>
</g>
<!-- Node1&#45;&gt;Node5 -->
<g id="edge6" class="edge">
<title>Node1&#45;&gt;Node5</title>
<path fill="none" stroke="midnightblue" d="M82.23,-126.96C150.24,-117.44 279.31,-104.27 358.64,-98.53"/>
<polygon fill="midnightblue" stroke="midnightblue" points="81.65,-123.5 72.25,-128.39 82.65,-130.43 81.65,-123.5"/>
</g>
<!-- Node1&#45;&gt;Node5 -->
<g id="edge17" class="edge">
<title>Node1&#45;&gt;Node5</title>
<path fill="none" stroke="midnightblue" d="M82.65,-135.96C150.77,-131.83 279.48,-119.19 358.64,-109.06"/>
<polygon fill="midnightblue" stroke="midnightblue" points="82.04,-132.49 72.25,-136.55 82.43,-139.48 82.04,-132.49"/>
</g>
<!-- Node7 -->
<g id="node7" class="node">
<title>Node7</title>
<g id="a_node7"><a xlink:href="classlyra_1_1composable__parser.html" target="_top" xlink:title=" ">
<polygon fill="white" stroke="black" points="359,-161 359,-191 496,-191 496,-161 359,-161"/>
<text text-anchor="start" x="367" y="-179" font-family="Helvetica,sans-Serif" font-size="10.00">lyra::composable_parser</text>
<text text-anchor="middle" x="427.5" y="-168" font-family="Helvetica,sans-Serif" font-size="10.00">&lt; opt &gt;</text>
</a>
</g>
</g>
<!-- Node1&#45;&gt;Node7 -->
<g id="edge9" class="edge">
<title>Node1&#45;&gt;Node7</title>
<path fill="none" stroke="midnightblue" d="M81.96,-139.48C84.67,-140.04 87.36,-140.55 90,-141 182.29,-156.62 290.43,-162.87 358.71,-167.55"/>
<polygon fill="midnightblue" stroke="midnightblue" points="82.67,-136.06 72.16,-137.37 81.19,-142.9 82.67,-136.06"/>
</g>
<!-- Node1&#45;&gt;Node7 -->
<g id="edge18" class="edge">
<title>Node1&#45;&gt;Node7</title>
<path fill="none" stroke="midnightblue" d="M55.66,-149.81C65.73,-153.73 78.44,-157.04 90,-159 182.29,-174.62 290.43,-180.87 358.71,-181.18"/>
<polygon fill="midnightblue" stroke="midnightblue" points="56.82,-146.5 46.27,-145.54 53.92,-152.87 56.82,-146.5"/>
</g>
<!-- Node11 -->
<g id="node11" class="node">
<title>Node11</title>
<g id="a_node11"><a xlink:href="classlyra_1_1arguments.html" target="_top" xlink:title=" ">
<polygon fill="white" stroke="black" points="130.5,-43.5 130.5,-62.5 224.5,-62.5 224.5,-43.5 130.5,-43.5"/>
<text text-anchor="middle" x="177.5" y="-50.5" font-family="Helvetica,sans-Serif" font-size="10.00">lyra::arguments</text>
</a>
</g>
</g>
<!-- Node1&#45;&gt;Node11 -->
<g id="edge19" class="edge">
<title>Node1&#45;&gt;Node11</title>
<path fill="none" stroke="midnightblue" d="M45.39,-117.39C54.85,-102.35 71.37,-82.62 90,-71 102.15,-63.42 116.59,-57.82 130.16,-54.15"/>
<polygon fill="midnightblue" stroke="midnightblue" points="42.13,-116.03 40.24,-126.46 48.22,-119.49 42.13,-116.03"/>
</g>
<!-- Node1&#45;&gt;Node11 -->
<g id="edge28" class="edge">
<title>Node1&#45;&gt;Node11</title>
<path fill="none" stroke="midnightblue" d="M55.97,-118.99C65.2,-108.99 77.1,-97.05 90,-89 111.62,-75.51 140.52,-68.28 158.82,-62.51"/>
<polygon fill="midnightblue" stroke="midnightblue" points="53.3,-116.72 49.17,-126.48 58.48,-121.43 53.3,-116.72"/>
</g>
<!-- Node16 -->
<g id="node16" class="node">
<title>Node16</title>
<g id="a_node16"><a xlink:href="classlyra_1_1composable__parser.html" target="_top" xlink:title=" ">
<polygon fill="white" stroke="black" points="109,-211 109,-241 246,-241 246,-211 109,-211"/>
<text text-anchor="start" x="117" y="-229" font-family="Helvetica,sans-Serif" font-size="10.00">lyra::composable_parser</text>
<text text-anchor="middle" x="177.5" y="-218" font-family="Helvetica,sans-Serif" font-size="10.00">&lt; Derived &gt;</text>
</a>
</g>
</g>
<!-- Node1&#45;&gt;Node16 -->
<g id="edge29" class="edge">
<title>Node1&#45;&gt;Node16</title>
<path fill="none" stroke="midnightblue" d="M54.74,-153.45C64.07,-164.42 76.38,-177.87 90,-187 106.24,-197.89 126.84,-205.24 143.87,-210.93"/>
<polygon fill="midnightblue" stroke="midnightblue" points="57.32,-151.07 48.22,-145.65 51.95,-155.57 57.32,-151.07"/>
</g>
<!-- Node1&#45;&gt;Node16 -->
<g id="edge37" class="edge">
<title>Node1&#45;&gt;Node16</title>
<path fill="none" stroke="midnightblue" d="M45,-154.92C54.32,-170.84 70.88,-192.18 90,-205 95.81,-208.89 102.18,-212.34 108.74,-215.32"/>
<polygon fill="midnightblue" stroke="midnightblue" points="47.96,-153.04 40.18,-145.84 41.78,-156.32 47.96,-153.04"/>
</g>
<!-- Node18 -->
<g id="node18" class="node">
<title>Node18</title>
<g id="a_node18"><a xlink:href="classlyra_1_1literal.html" target="_top" xlink:title=" ">
<polygon fill="white" stroke="black" points="142.5,-4.5 142.5,-23.5 212.5,-23.5 212.5,-4.5 142.5,-4.5"/>
<text text-anchor="middle" x="177.5" y="-11.5" font-family="Helvetica,sans-Serif" font-size="10.00">lyra::literal</text>
</a>
</g>
</g>
<!-- Node1&#45;&gt;Node18 -->
<g id="edge38" class="edge">
<title>Node1&#45;&gt;Node18</title>
<path fill="none" stroke="midnightblue" d="M42.94,-116.81C53.2,-91.46 76.32,-48.43 109,-25 118.73,-18.02 130.91,-13.45 142.23,-10.98"/>
<polygon fill="midnightblue" stroke="midnightblue" points="39.55,-115.89 39.34,-126.48 46.11,-118.33 39.55,-115.89"/>
</g>
<!-- Node1&#45;&gt;Node18 -->
<g id="edge39" class="edge">
<title>Node1&#45;&gt;Node18</title>
<path fill="none" stroke="midnightblue" d="M48.78,-117.49C60.77,-96.31 81.5,-62.72 109,-43 123.4,-32.67 143.14,-27.63 157.56,-23.56"/>
<polygon fill="midnightblue" stroke="midnightblue" points="45.7,-115.81 43.89,-126.25 51.82,-119.22 45.7,-115.81"/>
</g>
<!-- Node3 -->
<g id="node3" class="node">
<title>Node3</title>
<g id="a_node3"><a xlink:href="classlyra_1_1bound__parser.html" target="_top" xlink:title=" ">
<polygon fill="white" stroke="black" points="574,-290 574,-320 681,-320 681,-290 574,-290"/>
<text text-anchor="start" x="582" y="-308" font-family="Helvetica,sans-Serif" font-size="10.00">lyra::bound_parser</text>
<text text-anchor="middle" x="627.5" y="-297" font-family="Helvetica,sans-Serif" font-size="10.00">&lt; arg &gt;</text>
</a>
</g>
</g>
<!-- Node2&#45;&gt;Node3 -->
<g id="edge2" class="edge">
<title>Node2&#45;&gt;Node3</title>
<path fill="none" stroke="midnightblue" d="M506.36,-298.39C529.01,-298.09 553.2,-298.28 573.9,-298.96"/>
<polygon fill="midnightblue" stroke="midnightblue" points="506.03,-294.89 496.09,-298.56 506.14,-301.89 506.03,-294.89"/>
</g>
<!-- Node2&#45;&gt;Node3 -->
<g id="edge5" class="edge">
<title>Node2&#45;&gt;Node3</title>
<path fill="none" stroke="midnightblue" d="M506.36,-311.61C529.01,-311.91 553.2,-311.72 573.9,-311.04"/>
<polygon fill="midnightblue" stroke="midnightblue" points="506.14,-308.11 496.09,-311.44 506.03,-315.11 506.14,-308.11"/>
</g>
<!-- Node4 -->
<g id="node4" class="node">
<title>Node4</title>
<g id="a_node4"><a xlink:href="classlyra_1_1arg.html" target="_top" xlink:title=" ">
<polygon fill="white" stroke="black" points="718,-295.5 718,-314.5 775,-314.5 775,-295.5 718,-295.5"/>
<text text-anchor="middle" x="746.5" y="-302.5" font-family="Helvetica,sans-Serif" font-size="10.00">lyra::arg</text>
</a>
</g>
</g>
<!-- Node3&#45;&gt;Node4 -->
<g id="edge3" class="edge">
<title>Node3&#45;&gt;Node4</title>
<path fill="none" stroke="midnightblue" d="M691.27,-298.27C700.55,-298.34 709.69,-298.63 717.74,-299.16"/>
<polygon fill="midnightblue" stroke="midnightblue" points="691.18,-294.77 681.18,-298.28 691.19,-301.77 691.18,-294.77"/>
</g>
<!-- Node3&#45;&gt;Node4 -->
<g id="edge4" class="edge">
<title>Node3&#45;&gt;Node4</title>
<path fill="none" stroke="midnightblue" d="M691.27,-311.73C700.55,-311.66 709.69,-311.37 717.74,-310.84"/>
<polygon fill="midnightblue" stroke="midnightblue" points="691.19,-308.23 681.18,-311.72 691.18,-315.23 691.19,-308.23"/>
</g>
<!-- Node6 -->
<g id="node6" class="node">
<title>Node6</title>
<g id="a_node6"><a xlink:href="classlyra_1_1exe__name.html" target="_top" xlink:title=" ">
<polygon fill="white" stroke="black" points="581.5,-87.5 581.5,-106.5 673.5,-106.5 673.5,-87.5 581.5,-87.5"/>
<text text-anchor="middle" x="627.5" y="-94.5" font-family="Helvetica,sans-Serif" font-size="10.00">lyra::exe_name</text>
</a>
</g>
</g>
<!-- Node5&#45;&gt;Node6 -->
<g id="edge7" class="edge">
<title>Node5&#45;&gt;Node6</title>
<path fill="none" stroke="midnightblue" d="M506.11,-90.39C531.59,-90.05 559.05,-90.33 581.3,-91.23"/>
<polygon fill="midnightblue" stroke="midnightblue" points="506.03,-86.89 496.09,-90.56 506.14,-93.89 506.03,-86.89"/>
</g>
<!-- Node5&#45;&gt;Node6 -->
<g id="edge8" class="edge">
<title>Node5&#45;&gt;Node6</title>
<path fill="none" stroke="midnightblue" d="M506.11,-103.61C531.59,-103.95 559.05,-103.67 581.3,-102.77"/>
<polygon fill="midnightblue" stroke="midnightblue" points="506.14,-100.11 496.09,-103.44 506.03,-107.11 506.14,-100.11"/>
</g>
<!-- Node8 -->
<g id="node8" class="node">
<title>Node8</title>
<g id="a_node8"><a xlink:href="classlyra_1_1bound__parser.html" target="_top" xlink:title=" ">
<polygon fill="white" stroke="black" points="574,-161 574,-191 681,-191 681,-161 574,-161"/>
<text text-anchor="start" x="582" y="-179" font-family="Helvetica,sans-Serif" font-size="10.00">lyra::bound_parser</text>
<text text-anchor="middle" x="627.5" y="-168" font-family="Helvetica,sans-Serif" font-size="10.00">&lt; opt &gt;</text>
</a>
</g>
</g>
<!-- Node7&#45;&gt;Node8 -->
<g id="edge10" class="edge">
<title>Node7&#45;&gt;Node8</title>
<path fill="none" stroke="midnightblue" d="M506.36,-169.39C529.01,-169.09 553.2,-169.28 573.9,-169.96"/>
<polygon fill="midnightblue" stroke="midnightblue" points="506.03,-165.89 496.09,-169.56 506.14,-172.89 506.03,-165.89"/>
</g>
<!-- Node7&#45;&gt;Node8 -->
<g id="edge15" class="edge">
<title>Node7&#45;&gt;Node8</title>
<path fill="none" stroke="midnightblue" d="M506.36,-182.61C529.01,-182.91 553.2,-182.72 573.9,-182.04"/>
<polygon fill="midnightblue" stroke="midnightblue" points="506.14,-179.11 496.09,-182.44 506.03,-186.11 506.14,-179.11"/>
</g>
<!-- Node9 -->
<g id="node9" class="node">
<title>Node9</title>
<g id="a_node9"><a xlink:href="classlyra_1_1opt.html" target="_top" xlink:title=" ">
<polygon fill="white" stroke="black" points="718,-166.5 718,-185.5 775,-185.5 775,-166.5 718,-166.5"/>
<text text-anchor="middle" x="746.5" y="-173.5" font-family="Helvetica,sans-Serif" font-size="10.00">lyra::opt</text>
</a>
</g>
</g>
<!-- Node8&#45;&gt;Node9 -->
<g id="edge11" class="edge">
<title>Node8&#45;&gt;Node9</title>
<path fill="none" stroke="midnightblue" d="M691.27,-169.27C700.55,-169.34 709.69,-169.63 717.74,-170.16"/>
<polygon fill="midnightblue" stroke="midnightblue" points="691.18,-165.77 681.18,-169.28 691.19,-172.77 691.18,-165.77"/>
</g>
<!-- Node8&#45;&gt;Node9 -->
<g id="edge14" class="edge">
<title>Node8&#45;&gt;Node9</title>
<path fill="none" stroke="midnightblue" d="M691.27,-182.73C700.55,-182.66 709.69,-182.37 717.74,-181.84"/>
<polygon fill="midnightblue" stroke="midnightblue" points="691.19,-179.23 681.18,-182.72 691.18,-186.23 691.19,-179.23"/>
</g>
<!-- Node10 -->
<g id="node10" class="node">
<title>Node10</title>
<g id="a_node10"><a xlink:href="classlyra_1_1help.html" target="_top" xlink:title=" ">
<polygon fill="white" stroke="black" points="812,-166.5 812,-185.5 874,-185.5 874,-166.5 812,-166.5"/>
<text text-anchor="middle" x="843" y="-173.5" font-family="Helvetica,sans-Serif" font-size="10.00">lyra::help</text>
</a>
</g>
</g>
<!-- Node9&#45;&gt;Node10 -->
<g id="edge12" class="edge">
<title>Node9&#45;&gt;Node10</title>
<path fill="none" stroke="midnightblue" d="M785.21,-169.37C794.08,-169.14 803.41,-169.24 811.9,-169.66"/>
<polygon fill="midnightblue" stroke="midnightblue" points="784.93,-165.88 775.09,-169.8 785.23,-172.88 784.93,-165.88"/>
</g>
<!-- Node9&#45;&gt;Node10 -->
<g id="edge13" class="edge">
<title>Node9&#45;&gt;Node10</title>
<path fill="none" stroke="midnightblue" d="M785.21,-182.63C794.08,-182.86 803.41,-182.76 811.9,-182.34"/>
<polygon fill="midnightblue" stroke="midnightblue" points="785.23,-179.12 775.09,-182.2 784.93,-186.12 785.23,-179.12"/>
</g>
<!-- Node12 -->
<g id="node12" class="node">
<title>Node12</title>
<g id="a_node12"><a xlink:href="classlyra_1_1cli.html" target="_top" xlink:title=" ">
<polygon fill="white" stroke="black" points="401,-43.5 401,-62.5 454,-62.5 454,-43.5 401,-43.5"/>
<text text-anchor="middle" x="427.5" y="-50.5" font-family="Helvetica,sans-Serif" font-size="10.00">lyra::cli</text>
</a>
</g>
</g>
<!-- Node11&#45;&gt;Node12 -->
<g id="edge20" class="edge">
<title>Node11&#45;&gt;Node12</title>
<path fill="none" stroke="darkgreen" d="M234.65,-47.24C286.71,-45.54 361.82,-46.03 400.81,-48.69"/>
<polygon fill="darkgreen" stroke="darkgreen" points="234.43,-43.75 224.57,-47.61 234.69,-50.74 234.43,-43.75"/>
</g>
<!-- Node11&#45;&gt;Node12 -->
<g id="edge23" class="edge">
<title>Node11&#45;&gt;Node12</title>
<path fill="none" stroke="darkgreen" d="M234.65,-58.76C286.71,-60.46 361.82,-59.97 400.81,-57.31"/>
<polygon fill="darkgreen" stroke="darkgreen" points="234.69,-55.26 224.57,-58.39 234.43,-62.25 234.69,-55.26"/>
</g>
<!-- Node14 -->
<g id="node14" class="node">
<title>Node14</title>
<g id="a_node14"><a xlink:href="classlyra_1_1group.html" target="_top" xlink:title=" ">
<polygon fill="white" stroke="black" points="393,-0.5 393,-19.5 462,-19.5 462,-0.5 393,-0.5"/>
<text text-anchor="middle" x="427.5" y="-7.5" font-family="Helvetica,sans-Serif" font-size="10.00">lyra::group</text>
</a>
</g>
</g>
<!-- Node11&#45;&gt;Node14 -->
<g id="edge24" class="edge">
<title>Node11&#45;&gt;Node14</title>
<path fill="none" stroke="midnightblue" d="M217.48,-41.17C265.67,-30.49 346.9,-16.5 392.61,-11.06"/>
<polygon fill="midnightblue" stroke="midnightblue" points="216.41,-37.82 207.43,-43.46 217.96,-44.65 216.41,-37.82"/>
</g>
<!-- Node11&#45;&gt;Node14 -->
<g id="edge27" class="edge">
<title>Node11&#45;&gt;Node14</title>
<path fill="none" stroke="midnightblue" d="M234.72,-49.01C285.42,-41.87 357.96,-28.88 397.72,-19.51"/>
<polygon fill="midnightblue" stroke="midnightblue" points="234,-45.58 224.57,-50.4 234.95,-52.51 234,-45.58"/>
</g>
<!-- Node13 -->
<g id="node13" class="node">
<title>Node13</title>
<g id="a_node13"><a xlink:href="classlyra_1_1main.html" target="_top" xlink:title=" ">
<polygon fill="white" stroke="black" points="594.5,-43.5 594.5,-62.5 660.5,-62.5 660.5,-43.5 594.5,-43.5"/>
<text text-anchor="middle" x="627.5" y="-50.5" font-family="Helvetica,sans-Serif" font-size="10.00">lyra::main</text>
</a>
</g>
</g>
<!-- Node12&#45;&gt;Node13 -->
<g id="edge21" class="edge">
<title>Node12&#45;&gt;Node13</title>
<path fill="none" stroke="darkgreen" d="M464.74,-47.64C501.81,-45.71 558.87,-45.79 594.37,-47.87"/>
<polygon fill="darkgreen" stroke="darkgreen" points="464.15,-44.17 454.39,-48.27 464.58,-51.16 464.15,-44.17"/>
</g>
<!-- Node12&#45;&gt;Node13 -->
<g id="edge22" class="edge">
<title>Node12&#45;&gt;Node13</title>
<path fill="none" stroke="darkgreen" d="M464.74,-58.36C501.81,-60.29 558.87,-60.21 594.37,-58.13"/>
<polygon fill="darkgreen" stroke="darkgreen" points="464.58,-54.84 454.39,-57.73 464.15,-61.83 464.58,-54.84"/>
</g>
<!-- Node15 -->
<g id="node15" class="node">
<title>Node15</title>
<g id="a_node15"><a xlink:href="classlyra_1_1command.html" target="_top" xlink:title=" ">
<polygon fill="white" stroke="black" points="582.5,-0.5 582.5,-19.5 672.5,-19.5 672.5,-0.5 582.5,-0.5"/>
<text text-anchor="middle" x="627.5" y="-7.5" font-family="Helvetica,sans-Serif" font-size="10.00">lyra::command</text>
</a>
</g>
</g>
<!-- Node14&#45;&gt;Node15 -->
<g id="edge25" class="edge">
<title>Node14&#45;&gt;Node15</title>
<path fill="none" stroke="midnightblue" d="M472.26,-4.29C504.96,-2.91 549.5,-2.9 582.3,-4.27"/>
<polygon fill="midnightblue" stroke="midnightblue" points="471.91,-0.8 462.09,-4.78 472.25,-7.79 471.91,-0.8"/>
</g>
<!-- Node14&#45;&gt;Node15 -->
<g id="edge26" class="edge">
<title>Node14&#45;&gt;Node15</title>
<path fill="none" stroke="midnightblue" d="M472.26,-15.71C504.96,-17.09 549.5,-17.1 582.3,-15.73"/>
<polygon fill="midnightblue" stroke="midnightblue" points="472.25,-12.21 462.09,-15.22 471.91,-19.2 472.25,-12.21"/>
</g>
<!-- Node16&#45;&gt;Node2 -->
<g id="edge34" class="edge">
<title>Node16&#45;&gt;Node2</title>
<path fill="none" stroke="orange" stroke-dasharray="5,2" d="M222.07,-245.06C235.4,-250.55 250.19,-256.32 264,-261 296.53,-272.01 333.43,-282.19 363.84,-289.97"/>
<polygon fill="orange" stroke="orange" points="223.24,-241.75 212.66,-241.12 220.54,-248.21 223.24,-241.75"/>
<text text-anchor="middle" x="302.5" y="-286" font-family="Helvetica,sans-Serif" font-size="10.00"> &lt; arg &gt;</text>
</g>
<!-- Node16&#45;&gt;Node5 -->
<g id="edge35" class="edge">
<title>Node16&#45;&gt;Node5</title>
<path fill="none" stroke="orange" stroke-dasharray="5,2" d="M213.22,-206C228.67,-197.23 247.15,-186.92 264,-178 309.13,-154.1 362.22,-128.01 395.12,-112.08"/>
<polygon fill="orange" stroke="orange" points="211.47,-202.97 204.51,-210.96 214.93,-209.05 211.47,-202.97"/>
<text text-anchor="middle" x="302.5" y="-181" font-family="Helvetica,sans-Serif" font-size="10.00"> &lt; exe_name &gt;</text>
</g>
<!-- Node16&#45;&gt;Node7 -->
<g id="edge36" class="edge">
<title>Node16&#45;&gt;Node7</title>
<path fill="none" stroke="orange" stroke-dasharray="5,2" d="M256.3,-210.32C289.18,-203.69 327.11,-196.04 358.81,-189.65"/>
<polygon fill="orange" stroke="orange" points="255.38,-206.93 246.27,-212.34 256.76,-213.79 255.38,-206.93"/>
<text text-anchor="middle" x="302.5" y="-211" font-family="Helvetica,sans-Serif" font-size="10.00"> &lt; opt &gt;</text>
</g>
<!-- Node17 -->
<g id="node17" class="node">
<title>Node17</title>
<g id="a_node17"><a xlink:href="classlyra_1_1bound__parser.html" target="_top" xlink:title=" ">
<polygon fill="white" stroke="black" points="374,-235 374,-265 481,-265 481,-235 374,-235"/>
<text text-anchor="start" x="382" y="-253" font-family="Helvetica,sans-Serif" font-size="10.00">lyra::bound_parser</text>
<text text-anchor="middle" x="427.5" y="-242" font-family="Helvetica,sans-Serif" font-size="10.00">&lt; Derived &gt;</text>
</a>
</g>
</g>
<!-- Node16&#45;&gt;Node17 -->
<g id="edge30" class="edge">
<title>Node16&#45;&gt;Node17</title>
<path fill="none" stroke="midnightblue" d="M256.34,-227.22C294.56,-230.16 339.61,-234.75 373.75,-239.25"/>
<polygon fill="midnightblue" stroke="midnightblue" points="256.5,-223.72 246.27,-226.47 255.98,-230.7 256.5,-223.72"/>
</g>
<!-- Node16&#45;&gt;Node17 -->
<g id="edge33" class="edge">
<title>Node16&#45;&gt;Node17</title>
<path fill="none" stroke="midnightblue" d="M256.34,-239.85C294.56,-244.3 339.61,-248.43 373.75,-250.54"/>
<polygon fill="midnightblue" stroke="midnightblue" points="256.61,-236.36 246.27,-238.65 255.78,-243.31 256.61,-236.36"/>
</g>
<!-- Node17&#45;&gt;Node3 -->
<g id="edge31" class="edge">
<title>Node17&#45;&gt;Node3</title>
<path fill="none" stroke="orange" stroke-dasharray="5,2" d="M491.01,-267.36C517.61,-274.75 548.28,-283.27 573.71,-290.34"/>
<polygon fill="orange" stroke="orange" points="491.61,-263.9 481.04,-264.59 489.74,-270.64 491.61,-263.9"/>
<text text-anchor="middle" x="535" y="-287" font-family="Helvetica,sans-Serif" font-size="10.00"> &lt; arg &gt;</text>
</g>
<!-- Node17&#45;&gt;Node8 -->
<g id="edge32" class="edge">
<title>Node17&#45;&gt;Node8</title>
<path fill="none" stroke="orange" stroke-dasharray="5,2" d="M478.62,-231.27C511.99,-218.8 555.25,-202.63 586.35,-191.01"/>
<polygon fill="orange" stroke="orange" points="477.19,-228.07 469.05,-234.85 479.64,-234.62 477.19,-228.07"/>
<text text-anchor="middle" x="535" y="-220" font-family="Helvetica,sans-Serif" font-size="10.00"> &lt; opt &gt;</text>
</g>
</g>
</svg>
