<?xml version="1.0" encoding="UTF-8" standalone="no"?>
<!DOCTYPE svg PUBLIC "-//W3C//DTD SVG 1.1//EN"
 "http://www.w3.org/Graphics/SVG/1.1/DTD/svg11.dtd">
<!-- Generated by graphviz version 2.43.0 (0)
 -->
<!-- Title: MainNamespace::Logger::OutputDevice::checkMessageLevel Pages: 1 -->
<svg width="348pt" height="88pt"
 viewBox="0.00 0.00 348.00 88.00" xmlns="http://www.w3.org/2000/svg" xmlns:xlink="http://www.w3.org/1999/xlink">
<g id="graph0" class="graph" transform="scale(1 1) rotate(0) translate(4 84)">
<title>MainNamespace::Logger::OutputDevice::checkMessageLevel</title>
<polygon fill="white" stroke="transparent" points="-4,4 -4,-84 344,-84 344,4 -4,4"/>
<!-- Node1 -->
<g id="node1" class="node">
<title>Node1</title>
<g id="a_node1"><a xlink:title="Check whether message should be logged.">
<polygon fill="#bfbfbf" stroke="black" points="173,-19 173,-60 340,-60 340,-19 173,-19"/>
<text text-anchor="start" x="181" y="-48" font-family="Helvetica,sans-Serif" font-size="10.00">MainNamespace::Logger</text>
<text text-anchor="start" x="181" y="-37" font-family="Helvetica,sans-Serif" font-size="10.00">::OutputDevice::checkMessage</text>
<text text-anchor="middle" x="256.5" y="-26" font-family="Helvetica,sans-Serif" font-size="10.00">Level</text>
</a>
</g>
</g>
<!-- Node2 -->
<g id="node2" class="node">
<title>Node2</title>
<g id="a_node2"><a xlink:href="class_main_namespace_1_1_logger_1_1_std_stream_device.html#a7364d2ba11f5fdca32a0cd66e74241f3" target="_top" xlink:title="Print a message to the device.">
<polygon fill="white" stroke="black" points="0,-49.5 0,-79.5 137,-79.5 137,-49.5 0,-49.5"/>
<text text-anchor="start" x="8" y="-67.5" font-family="Helvetica,sans-Serif" font-size="10.00">MainNamespace::Logger</text>
<text text-anchor="middle" x="68.5" y="-56.5" font-family="Helvetica,sans-Serif" font-size="10.00">::StdStreamDevice::print</text>
</a>
</g>
</g>
<!-- Node1&#45;&gt;Node2 -->
<g id="edge1" class="edge">
<title>Node1&#45;&gt;Node2</title>
<path fill="none" stroke="midnightblue" d="M162.73,-51.97C154.1,-53.13 145.48,-54.29 137.14,-55.41"/>
<polygon fill="midnightblue" stroke="midnightblue" points="163.39,-55.41 172.83,-50.61 162.46,-48.47 163.39,-55.41"/>
</g>
<!-- Node3 -->
<g id="node3" class="node">
<title>Node3</title>
<g id="a_node3"><a xlink:href="class_main_namespace_1_1_logger_1_1_file_pointer_device.html#a23816ed342498318f6243fc51df1addf" target="_top" xlink:title="Print a message to the device.">
<polygon fill="white" stroke="black" points="0,-0.5 0,-30.5 137,-30.5 137,-0.5 0,-0.5"/>
<text text-anchor="start" x="8" y="-18.5" font-family="Helvetica,sans-Serif" font-size="10.00">MainNamespace::Logger</text>
<text text-anchor="middle" x="68.5" y="-7.5" font-family="Helvetica,sans-Serif" font-size="10.00">::FilePointerDevice::print</text>
</a>
</g>
</g>
<!-- Node1&#45;&gt;Node3 -->
<g id="edge2" class="edge">
<title>Node1&#45;&gt;Node3</title>
<path fill="none" stroke="midnightblue" d="M162.73,-27.53C154.1,-26.42 145.48,-25.3 137.14,-24.23"/>
<polygon fill="midnightblue" stroke="midnightblue" points="162.47,-31.02 172.83,-28.83 163.36,-24.08 162.47,-31.02"/>
</g>
</g>
</svg>
