<?xml version="1.0" encoding="UTF-8" standalone="no"?>
<!DOCTYPE svg PUBLIC "-//W3C//DTD SVG 1.1//EN"
 "http://www.w3.org/Graphics/SVG/1.1/DTD/svg11.dtd">
<!-- Generated by graphviz version 2.43.0 (0)
 -->
<!-- Title: lyra::detail::parse_state Pages: 1 -->
<svg width="425pt" height="362pt"
 viewBox="0.00 0.00 424.50 362.00" xmlns="http://www.w3.org/2000/svg" xmlns:xlink="http://www.w3.org/1999/xlink">
<g id="graph0" class="graph" transform="scale(1 1) rotate(0) translate(4 358)">
<title>lyra::detail::parse_state</title>
<polygon fill="white" stroke="transparent" points="-4,4 -4,-358 420.5,-358 420.5,4 -4,4"/>
<!-- Node1 -->
<g id="node1" class="node">
<title>Node1</title>
<g id="a_node1"><a xlink:title=" ">
<polygon fill="#bfbfbf" stroke="black" points="117.5,-0.5 117.5,-30.5 219.5,-30.5 219.5,-0.5 117.5,-0.5"/>
<text text-anchor="start" x="125.5" y="-18.5" font-family="Helvetica,sans-Serif" font-size="10.00">lyra::detail::parse</text>
<text text-anchor="middle" x="168.5" y="-7.5" font-family="Helvetica,sans-Serif" font-size="10.00">_state</text>
</a>
</g>
</g>
<!-- Node2 -->
<g id="node2" class="node">
<title>Node2</title>
<g id="a_node2"><a xlink:title=" ">
<polygon fill="white" stroke="black" points="75,-84 75,-103 182,-103 182,-84 75,-84"/>
<text text-anchor="middle" x="128.5" y="-91" font-family="Helvetica,sans-Serif" font-size="10.00">parser_result_type</text>
</a>
</g>
</g>
<!-- Node2&#45;&gt;Node1 -->
<g id="edge1" class="edge">
<title>Node2&#45;&gt;Node1</title>
<path fill="none" stroke="#9a32cd" stroke-dasharray="5,2" d="M137.29,-74.75C141.26,-66.83 146.04,-57.41 150.5,-49 153.7,-42.96 157.34,-36.35 160.5,-30.68"/>
<polygon fill="#9a32cd" stroke="#9a32cd" points="134.11,-73.27 132.79,-83.78 140.38,-76.39 134.11,-73.27"/>
<text text-anchor="middle" x="179.5" y="-52" font-family="Helvetica,sans-Serif" font-size="10.00"> result_type</text>
</g>
<!-- Node3 -->
<g id="node3" class="node">
<title>Node3</title>
<g id="a_node3"><a xlink:href="classlyra_1_1detail_1_1token__iterator.html" target="_top" xlink:title=" ">
<polygon fill="white" stroke="black" points="200.5,-78.5 200.5,-108.5 302.5,-108.5 302.5,-78.5 200.5,-78.5"/>
<text text-anchor="start" x="208.5" y="-96.5" font-family="Helvetica,sans-Serif" font-size="10.00">lyra::detail::token</text>
<text text-anchor="middle" x="251.5" y="-85.5" font-family="Helvetica,sans-Serif" font-size="10.00">_iterator</text>
</a>
</g>
</g>
<!-- Node3&#45;&gt;Node1 -->
<g id="edge2" class="edge">
<title>Node3&#45;&gt;Node1</title>
<path fill="none" stroke="#9a32cd" stroke-dasharray="5,2" d="M231.16,-71C224.14,-63.83 216.12,-55.92 208.5,-49 201.61,-42.75 193.71,-36.21 186.77,-30.65"/>
<polygon fill="#9a32cd" stroke="#9a32cd" points="228.85,-73.64 238.31,-78.4 233.88,-68.78 228.85,-73.64"/>
<text text-anchor="middle" x="237.5" y="-52" font-family="Helvetica,sans-Serif" font-size="10.00"> tokens</text>
</g>
<!-- Node4 -->
<g id="node4" class="node">
<title>Node4</title>
<g id="a_node4"><a xlink:href="structlyra_1_1option__style.html" target="_top" xlink:title=" ">
<polygon fill="white" stroke="black" points="201,-167.5 201,-186.5 302,-186.5 302,-167.5 201,-167.5"/>
<text text-anchor="middle" x="251.5" y="-174.5" font-family="Helvetica,sans-Serif" font-size="10.00">lyra::option_style</text>
</a>
</g>
</g>
<!-- Node4&#45;&gt;Node3 -->
<g id="edge3" class="edge">
<title>Node4&#45;&gt;Node3</title>
<path fill="none" stroke="#9a32cd" stroke-dasharray="5,2" d="M251.5,-157.23C251.5,-142.41 251.5,-122.05 251.5,-108.6"/>
<polygon fill="#9a32cd" stroke="#9a32cd" points="248,-157.28 251.5,-167.28 255,-157.28 248,-157.28"/>
<text text-anchor="middle" x="265.5" y="-135.5" font-family="Helvetica,sans-Serif" font-size="10.00"> style</text>
</g>
<!-- Node5 -->
<g id="node5" class="node">
<title>Node5</title>
<g id="a_node5"><a xlink:title=" ">
<polygon fill="white" stroke="black" points="150,-256.5 150,-275.5 215,-275.5 215,-256.5 150,-256.5"/>
<text text-anchor="middle" x="182.5" y="-263.5" font-family="Helvetica,sans-Serif" font-size="10.00">std::string</text>
</a>
</g>
</g>
<!-- Node5&#45;&gt;Node4 -->
<g id="edge4" class="edge">
<title>Node5&#45;&gt;Node4</title>
<path fill="none" stroke="#9a32cd" stroke-dasharray="5,2" d="M191.45,-247.32C198.23,-234.81 208.28,-218.02 219.5,-205 225.38,-198.17 233.08,-191.62 239.44,-186.69"/>
<polygon fill="#9a32cd" stroke="#9a32cd" points="188.3,-245.8 186.75,-256.28 194.5,-249.05 188.3,-245.8"/>
<text text-anchor="middle" x="267" y="-230" font-family="Helvetica,sans-Serif" font-size="10.00"> long_option_prefix</text>
<text text-anchor="middle" x="267" y="-219" font-family="Helvetica,sans-Serif" font-size="10.00">short_option_prefix</text>
<text text-anchor="middle" x="267" y="-208" font-family="Helvetica,sans-Serif" font-size="10.00">value_delimiters</text>
</g>
<!-- Node8 -->
<g id="node8" class="node">
<title>Node8</title>
<g id="a_node8"><a xlink:title=" ">
<polygon fill="white" stroke="black" points="42.5,-167.5 42.5,-186.5 182.5,-186.5 182.5,-167.5 42.5,-167.5"/>
<text text-anchor="middle" x="112.5" y="-174.5" font-family="Helvetica,sans-Serif" font-size="10.00">std::vector&lt; std::string &gt;</text>
</a>
</g>
</g>
<!-- Node5&#45;&gt;Node8 -->
<g id="edge8" class="edge">
<title>Node5&#45;&gt;Node8</title>
<path fill="none" stroke="#9a32cd" stroke-dasharray="5,2" d="M158.76,-250.7C153.68,-246.97 148.61,-242.67 144.5,-238 137.17,-229.67 123.35,-201.22 116.52,-186.69"/>
<polygon fill="#9a32cd" stroke="#9a32cd" points="156.91,-253.68 167.15,-256.41 160.85,-247.89 156.91,-253.68"/>
<text text-anchor="middle" x="169" y="-219" font-family="Helvetica,sans-Serif" font-size="10.00"> elements</text>
</g>
<!-- Node6 -->
<g id="node6" class="node">
<title>Node6</title>
<g id="a_node6"><a xlink:title=" ">
<polygon fill="white" stroke="black" points="130.5,-323.5 130.5,-353.5 234.5,-353.5 234.5,-323.5 130.5,-323.5"/>
<text text-anchor="start" x="138.5" y="-341.5" font-family="Helvetica,sans-Serif" font-size="10.00">std::basic_string&lt;</text>
<text text-anchor="middle" x="182.5" y="-330.5" font-family="Helvetica,sans-Serif" font-size="10.00"> Char &gt;</text>
</a>
</g>
</g>
<!-- Node6&#45;&gt;Node5 -->
<g id="edge5" class="edge">
<title>Node6&#45;&gt;Node5</title>
<path fill="none" stroke="midnightblue" d="M182.5,-313.09C182.5,-300.21 182.5,-285.2 182.5,-275.89"/>
<polygon fill="midnightblue" stroke="midnightblue" points="179,-313.23 182.5,-323.23 186,-313.23 179,-313.23"/>
</g>
<!-- Node7 -->
<g id="node7" class="node">
<title>Node7</title>
<g id="a_node7"><a xlink:title=" ">
<polygon fill="white" stroke="black" points="314,-256.5 314,-275.5 359,-275.5 359,-256.5 314,-256.5"/>
<text text-anchor="middle" x="336.5" y="-263.5" font-family="Helvetica,sans-Serif" font-size="10.00">size_t</text>
</a>
</g>
</g>
<!-- Node7&#45;&gt;Node4 -->
<g id="edge6" class="edge">
<title>Node7&#45;&gt;Node4</title>
<path fill="none" stroke="#9a32cd" stroke-dasharray="5,2" d="M333.58,-245.93C330.7,-232.97 325.13,-216.21 314.5,-205 306.56,-196.62 295.59,-190.72 285.03,-186.61"/>
<polygon fill="#9a32cd" stroke="#9a32cd" points="330.2,-246.92 335.47,-256.11 337.08,-245.64 330.2,-246.92"/>
<text text-anchor="middle" x="373.5" y="-224.5" font-family="Helvetica,sans-Serif" font-size="10.00"> long_option_size</text>
<text text-anchor="middle" x="373.5" y="-213.5" font-family="Helvetica,sans-Serif" font-size="10.00">short_option_size</text>
</g>
<!-- Node8&#45;&gt;Node3 -->
<g id="edge7" class="edge">
<title>Node8&#45;&gt;Node3</title>
<path fill="none" stroke="#9a32cd" stroke-dasharray="5,2" d="M135.76,-162.36C161.23,-147.43 201.88,-123.59 227.6,-108.51"/>
<polygon fill="#9a32cd" stroke="#9a32cd" points="133.97,-159.35 127.11,-167.43 137.51,-165.39 133.97,-159.35"/>
<text text-anchor="middle" x="212.5" y="-141" font-family="Helvetica,sans-Serif" font-size="10.00"> args_e</text>
<text text-anchor="middle" x="212.5" y="-130" font-family="Helvetica,sans-Serif" font-size="10.00">args_i</text>
</g>
<!-- Node9 -->
<g id="node9" class="node">
<title>Node9</title>
<g id="a_node9"><a xlink:title=" ">
<polygon fill="white" stroke="black" points="0,-256.5 0,-275.5 97,-275.5 97,-256.5 0,-256.5"/>
<text text-anchor="middle" x="48.5" y="-263.5" font-family="Helvetica,sans-Serif" font-size="10.00">std::vector&lt; T &gt;</text>
</a>
</g>
</g>
<!-- Node9&#45;&gt;Node8 -->
<g id="edge9" class="edge">
<title>Node9&#45;&gt;Node8</title>
<path fill="none" stroke="orange" stroke-dasharray="5,2" d="M43.89,-246.45C41.83,-233.73 41.42,-217.04 49.5,-205 55.27,-196.4 64.4,-190.53 73.93,-186.53"/>
<polygon fill="orange" stroke="orange" points="40.49,-247.31 45.95,-256.39 47.34,-245.89 40.49,-247.31"/>
<text text-anchor="middle" x="87" y="-219" font-family="Helvetica,sans-Serif" font-size="10.00"> &lt; std::string &gt;</text>
</g>
<!-- Node10 -->
<g id="node10" class="node">
<title>Node10</title>
<g id="a_node10"><a xlink:title=" ">
<polygon fill="white" stroke="black" points="34,-329 34,-348 63,-348 63,-329 34,-329"/>
<text text-anchor="middle" x="48.5" y="-336" font-family="Helvetica,sans-Serif" font-size="10.00">T</text>
</a>
</g>
</g>
<!-- Node10&#45;&gt;Node9 -->
<g id="edge10" class="edge">
<title>Node10&#45;&gt;Node9</title>
<path fill="none" stroke="#9a32cd" stroke-dasharray="5,2" d="M48.5,-318.44C48.5,-304.53 48.5,-286.32 48.5,-275.72"/>
<polygon fill="#9a32cd" stroke="#9a32cd" points="45,-318.86 48.5,-328.86 52,-318.86 45,-318.86"/>
<text text-anchor="middle" x="73" y="-297" font-family="Helvetica,sans-Serif" font-size="10.00"> elements</text>
</g>
<!-- Node11 -->
<g id="node11" class="node">
<title>Node11</title>
<g id="a_node11"><a xlink:title=" ">
<polygon fill="white" stroke="black" points="320,-167.5 320,-186.5 383,-186.5 383,-167.5 320,-167.5"/>
<text text-anchor="middle" x="351.5" y="-174.5" font-family="Helvetica,sans-Serif" font-size="10.00">size_type</text>
</a>
</g>
</g>
<!-- Node11&#45;&gt;Node3 -->
<g id="edge11" class="edge">
<title>Node11&#45;&gt;Node3</title>
<path fill="none" stroke="#9a32cd" stroke-dasharray="5,2" d="M332.61,-160.61C314.25,-145.64 286.6,-123.11 268.8,-108.6"/>
<polygon fill="#9a32cd" stroke="#9a32cd" points="330.84,-163.67 340.8,-167.28 335.26,-158.25 330.84,-163.67"/>
<text text-anchor="middle" x="343" y="-135.5" font-family="Helvetica,sans-Serif" font-size="10.00"> args_i_sub</text>
</g>
</g>
</svg>
