<?xml version="1.0" encoding="UTF-8" standalone="no"?>
<!DOCTYPE svg PUBLIC "-//W3C//DTD SVG 1.1//EN"
 "http://www.w3.org/Graphics/SVG/1.1/DTD/svg11.dtd">
<!-- Generated by graphviz version 2.43.0 (0)
 -->
<!-- Title: lyra::exe_name Pages: 1 -->
<svg width="251pt" height="231pt"
 viewBox="0.00 0.00 251.00 231.00" xmlns="http://www.w3.org/2000/svg" xmlns:xlink="http://www.w3.org/1999/xlink">
<g id="graph0" class="graph" transform="scale(1 1) rotate(0) translate(4 227)">
<title>lyra::exe_name</title>
<polygon fill="white" stroke="transparent" points="-4,4 -4,-227 247,-227 247,4 -4,4"/>
<!-- Node1 -->
<g id="node1" class="node">
<title>Node1</title>
<g id="a_node1"><a xlink:title=" ">
<polygon fill="#bfbfbf" stroke="black" points="22.5,-0.5 22.5,-19.5 114.5,-19.5 114.5,-0.5 22.5,-0.5"/>
<text text-anchor="middle" x="68.5" y="-7.5" font-family="Helvetica,sans-Serif" font-size="10.00">lyra::exe_name</text>
</a>
</g>
</g>
<!-- Node2 -->
<g id="node2" class="node">
<title>Node2</title>
<g id="a_node2"><a xlink:href="classlyra_1_1composable__parser.html" target="_top" xlink:title=" ">
<polygon fill="white" stroke="black" points="0,-57.5 0,-87.5 137,-87.5 137,-57.5 0,-57.5"/>
<text text-anchor="start" x="8" y="-75.5" font-family="Helvetica,sans-Serif" font-size="10.00">lyra::composable_parser</text>
<text text-anchor="middle" x="68.5" y="-64.5" font-family="Helvetica,sans-Serif" font-size="10.00">&lt; exe_name &gt;</text>
</a>
</g>
</g>
<!-- Node2&#45;&gt;Node1 -->
<g id="edge1" class="edge">
<title>Node2&#45;&gt;Node1</title>
<path fill="none" stroke="midnightblue" d="M61.87,-47.35C61.47,-37.51 62.05,-26.78 63.63,-19.54"/>
<polygon fill="midnightblue" stroke="midnightblue" points="58.4,-47.79 62.7,-57.47 65.37,-47.22 58.4,-47.79"/>
</g>
<!-- Node2&#45;&gt;Node1 -->
<g id="edge7" class="edge">
<title>Node2&#45;&gt;Node1</title>
<path fill="none" stroke="midnightblue" d="M75.13,-47.35C75.53,-37.51 74.95,-26.78 73.37,-19.54"/>
<polygon fill="midnightblue" stroke="midnightblue" points="71.63,-47.22 74.3,-57.47 78.6,-47.79 71.63,-47.22"/>
</g>
<!-- Node3 -->
<g id="node3" class="node">
<title>Node3</title>
<g id="a_node3"><a xlink:href="classlyra_1_1parser.html" target="_top" xlink:title=" ">
<polygon fill="white" stroke="black" points="53.5,-203.5 53.5,-222.5 125.5,-222.5 125.5,-203.5 53.5,-203.5"/>
<text text-anchor="middle" x="89.5" y="-210.5" font-family="Helvetica,sans-Serif" font-size="10.00">lyra::parser</text>
</a>
</g>
</g>
<!-- Node3&#45;&gt;Node2 -->
<g id="edge2" class="edge">
<title>Node3&#45;&gt;Node2</title>
<path fill="none" stroke="midnightblue" d="M81.96,-193.63C74.91,-165.66 67.08,-112.99 66.36,-87.73"/>
<polygon fill="midnightblue" stroke="midnightblue" points="78.61,-194.66 84.7,-203.34 85.35,-192.76 78.61,-194.66"/>
</g>
<!-- Node3&#45;&gt;Node2 -->
<g id="edge3" class="edge">
<title>Node3&#45;&gt;Node2</title>
<path fill="none" stroke="midnightblue" d="M91.45,-193.25C89.96,-165.19 81.86,-112.88 74.96,-87.73"/>
<polygon fill="midnightblue" stroke="midnightblue" points="87.96,-193.42 91.67,-203.34 94.95,-193.26 87.96,-193.42"/>
</g>
<!-- Node4 -->
<g id="node4" class="node">
<title>Node4</title>
<g id="a_node4"><a xlink:href="classlyra_1_1composable__parser.html" target="_top" xlink:title=" ">
<polygon fill="white" stroke="black" points="106,-135.5 106,-165.5 243,-165.5 243,-135.5 106,-135.5"/>
<text text-anchor="start" x="114" y="-153.5" font-family="Helvetica,sans-Serif" font-size="10.00">lyra::composable_parser</text>
<text text-anchor="middle" x="174.5" y="-142.5" font-family="Helvetica,sans-Serif" font-size="10.00">&lt; Derived &gt;</text>
</a>
</g>
</g>
<!-- Node3&#45;&gt;Node4 -->
<g id="edge5" class="edge">
<title>Node3&#45;&gt;Node4</title>
<path fill="none" stroke="midnightblue" d="M104.78,-196.9C117.15,-187.29 134.57,-174.92 148.99,-165.53"/>
<polygon fill="midnightblue" stroke="midnightblue" points="102.38,-194.34 96.78,-203.33 106.77,-199.8 102.38,-194.34"/>
</g>
<!-- Node3&#45;&gt;Node4 -->
<g id="edge6" class="edge">
<title>Node3&#45;&gt;Node4</title>
<path fill="none" stroke="midnightblue" d="M115.38,-197.73C130.27,-188.01 148.26,-175.2 160.59,-165.53"/>
<polygon fill="midnightblue" stroke="midnightblue" points="113.14,-195.01 106.58,-203.33 116.89,-200.91 113.14,-195.01"/>
</g>
<!-- Node4&#45;&gt;Node2 -->
<g id="edge4" class="edge">
<title>Node4&#45;&gt;Node2</title>
<path fill="none" stroke="orange" stroke-dasharray="5,2" d="M146.06,-129.11C127.83,-116.04 104.61,-99.39 88.35,-87.73"/>
<polygon fill="orange" stroke="orange" points="144.4,-132.22 154.56,-135.2 148.47,-126.53 144.4,-132.22"/>
<text text-anchor="middle" x="166" y="-109" font-family="Helvetica,sans-Serif" font-size="10.00"> &lt; exe_name &gt;</text>
</g>
</g>
</svg>
