<?xml version="1.0" encoding="UTF-8" standalone="no"?>
<!DOCTYPE svg PUBLIC "-//W3C//DTD SVG 1.1//EN"
 "http://www.w3.org/Graphics/SVG/1.1/DTD/svg11.dtd">
<!-- Generated by graphviz version 2.43.0 (0)
 -->
<!-- Title: lyra::group Pages: 1 -->
<!--zoomable 295 -->
<svg id="main" version="1.1" xmlns="http://www.w3.org/2000/svg" xmlns:xlink="http://www.w3.org/1999/xlink" xml:space="preserve" onload="init(evt)">
<style type="text/css"><![CDATA[
.edge:hover path { stroke: red; }
.edge:hover polygon { stroke: red; fill: red; }
]]></style>
<script type="text/javascript"><![CDATA[
var edges = document.getElementsByTagName('g');
if (edges && edges.length) {
  for (var i=0;i<edges.length;i++) {
    if (edges[i].id.substr(0,4)=='edge') {
      edges[i].setAttribute('class','edge');
    }
  }
}
]]></script>
        <defs>
                <circle id="rim" cx="0" cy="0" r="7"/>
                <circle id="rim2" cx="0" cy="0" r="3.5"/>
                <g id="zoomPlus">
                        <use xlink:href="#rim" fill="#404040">
                                <set attributeName="fill" to="#808080" begin="zoomplus.mouseover" end="zoomplus.mouseout"/>
                        </use>
                        <path d="M-4,0h8M0,-4v8" fill="none" stroke="white" stroke-width="1.5" pointer-events="none"/>
                </g>
                <g id="zoomMin">
                        <use xlink:href="#rim" fill="#404040">
                                <set attributeName="fill" to="#808080" begin="zoomminus.mouseover" end="zoomminus.mouseout"/>
                        </use>
                        <path d="M-4,0h8" fill="none" stroke="white" stroke-width="1.5" pointer-events="none"/>
                </g>
                <g id="dirArrow">
                        <path fill="none" stroke="white" stroke-width="1.5" d="M0,-3.0v7 M-2.5,-0.5L0,-3.0L2.5,-0.5"/>
                </g>
               <g id="resetDef">
                       <use xlink:href="#rim2" fill="#404040">
                               <set attributeName="fill" to="#808080" begin="reset.mouseover" end="reset.mouseout"/>
                       </use>
               </g>
        </defs>

<script type="text/javascript">
var viewWidth = 1201;
var viewHeight = 295;
var sectionId = 'dynsection-1';
</script>
<script xlink:href="svgpan.js"/>
<svg id="graph" class="graph">
<g id="viewport">
<title>lyra::group</title>
<polygon fill="white" stroke="transparent" points="-4,4 -4,-291 1197,-291 1197,4 -4,4"/>
<!-- Node1 -->
<g id="node1" class="node">
<title>Node1</title>
<g id="a_node1"><a xlink:title=" ">
<polygon fill="#bfbfbf" stroke="black" points="1124,-113 1124,-132 1193,-132 1193,-113 1124,-113"/>
<text text-anchor="middle" x="1158.5" y="-120" font-family="Helvetica,sans-Serif" font-size="10.00">lyra::group</text>
</a>
</g>
</g>
<!-- Node2 -->
<g id="node2" class="node">
<title>Node2</title>
<g id="a_node2"><a xlink:href="classlyra_1_1arguments.html" target="_top" xlink:title=" ">
<polygon fill="white" stroke="black" points="905.5,-140 905.5,-159 999.5,-159 999.5,-140 905.5,-140"/>
<text text-anchor="middle" x="952.5" y="-147" font-family="Helvetica,sans-Serif" font-size="10.00">lyra::arguments</text>
</a>
</g>
</g>
<!-- Node2&#45;&gt;Node1 -->
<g id="edge1" class="edge">
<title>Node2&#45;&gt;Node1</title>
<path fill="none" stroke="midnightblue" d="M996.97,-138.1C1034.94,-131.46 1089.25,-124.43 1123.94,-121.78"/>
<polygon fill="midnightblue" stroke="midnightblue" points="995.94,-134.73 986.73,-139.96 997.19,-141.62 995.94,-134.73"/>
</g>
<!-- Node2&#45;&gt;Node1 -->
<g id="edge19" class="edge">
<title>Node2&#45;&gt;Node1</title>
<path fill="none" stroke="midnightblue" d="M1009.63,-148.17C1046.45,-144.41 1093.34,-137.89 1124.33,-132.03"/>
<polygon fill="midnightblue" stroke="midnightblue" points="1009.15,-144.7 999.54,-149.16 1009.83,-151.67 1009.15,-144.7"/>
</g>
<!-- Node3 -->
<g id="node3" class="node">
<title>Node3</title>
<g id="a_node3"><a xlink:href="classlyra_1_1parser.html" target="_top" xlink:title=" ">
<polygon fill="white" stroke="black" points="212,-151 212,-170 284,-170 284,-151 212,-151"/>
<text text-anchor="middle" x="248" y="-158" font-family="Helvetica,sans-Serif" font-size="10.00">lyra::parser</text>
</a>
</g>
</g>
<!-- Node3&#45;&gt;Node2 -->
<g id="edge2" class="edge">
<title>Node3&#45;&gt;Node2</title>
<path fill="none" stroke="midnightblue" d="M294.46,-156.25C421.27,-149.99 777.96,-144.4 905.47,-146.66"/>
<polygon fill="midnightblue" stroke="midnightblue" points="294.12,-152.76 284.32,-156.78 294.49,-159.75 294.12,-152.76"/>
</g>
<!-- Node3&#45;&gt;Node2 -->
<g id="edge3" class="edge">
<title>Node3&#45;&gt;Node2</title>
<path fill="none" stroke="midnightblue" d="M294.46,-163.33C421.27,-165.62 777.96,-160.04 905.47,-153.78"/>
<polygon fill="midnightblue" stroke="midnightblue" points="294.39,-159.82 284.32,-163.11 294.24,-166.82 294.39,-159.82"/>
</g>
<!-- Node12 -->
<g id="node12" class="node">
<title>Node12</title>
<g id="a_node12"><a xlink:title=" ">
<polygon fill="white" stroke="black" points="461,-256.5 461,-286.5 580,-286.5 580,-256.5 461,-256.5"/>
<text text-anchor="start" x="469" y="-274.5" font-family="Helvetica,sans-Serif" font-size="10.00">std::unique_ptr&lt; lyra</text>
<text text-anchor="middle" x="520.5" y="-263.5" font-family="Helvetica,sans-Serif" font-size="10.00">::parser &gt;</text>
</a>
</g>
</g>
<!-- Node3&#45;&gt;Node12 -->
<g id="edge13" class="edge">
<title>Node3&#45;&gt;Node12</title>
<path fill="none" stroke="#9a32cd" stroke-dasharray="5,2" d="M292.73,-172.66C303.26,-175.4 314.5,-178.19 325,-180.5 377.02,-191.95 400.98,-168.75 443,-201.5 458.38,-213.48 447.57,-227.37 461,-241.5 466.58,-247.37 473.57,-252.3 480.75,-256.35"/>
<polygon fill="#9a32cd" stroke="#9a32cd" points="293.47,-169.23 282.91,-170.05 291.68,-176 293.47,-169.23"/>
<text text-anchor="middle" x="384" y="-204.5" font-family="Helvetica,sans-Serif" font-size="10.00"> ptr</text>
</g>
<!-- Node4 -->
<g id="node4" class="node">
<title>Node4</title>
<g id="a_node4"><a xlink:title=" ">
<polygon fill="white" stroke="black" points="672.5,-54.5 672.5,-84.5 791.5,-84.5 791.5,-54.5 672.5,-54.5"/>
<text text-anchor="start" x="680.5" y="-72.5" font-family="Helvetica,sans-Serif" font-size="10.00">std::shared_ptr&lt; lyra</text>
<text text-anchor="middle" x="732" y="-61.5" font-family="Helvetica,sans-Serif" font-size="10.00">::option_style &gt;</text>
</a>
</g>
</g>
<!-- Node4&#45;&gt;Node2 -->
<g id="edge4" class="edge">
<title>Node4&#45;&gt;Node2</title>
<path fill="none" stroke="#9a32cd" stroke-dasharray="5,2" d="M801.71,-75.44C826.5,-80.17 853.62,-88.59 875,-103.5 886.83,-111.75 881.5,-121.79 893,-130.5 898.11,-134.37 904.03,-137.47 910.11,-139.95"/>
<polygon fill="#9a32cd" stroke="#9a32cd" points="802.06,-71.95 791.61,-73.68 800.87,-78.84 802.06,-71.95"/>
<text text-anchor="middle" x="846" y="-106.5" font-family="Helvetica,sans-Serif" font-size="10.00"> opt_style</text>
</g>
<!-- Node5 -->
<g id="node5" class="node">
<title>Node5</title>
<g id="a_node5"><a xlink:href="structlyra_1_1option__style.html" target="_top" xlink:title=" ">
<polygon fill="white" stroke="black" points="470,-57 470,-76 571,-76 571,-57 470,-57"/>
<text text-anchor="middle" x="520.5" y="-64" font-family="Helvetica,sans-Serif" font-size="10.00">lyra::option_style</text>
</a>
</g>
</g>
<!-- Node5&#45;&gt;Node4 -->
<g id="edge5" class="edge">
<title>Node5&#45;&gt;Node4</title>
<path fill="none" stroke="#9a32cd" stroke-dasharray="5,2" d="M581.4,-67.36C609.97,-67.77 644.02,-68.25 672.41,-68.66"/>
<polygon fill="#9a32cd" stroke="#9a32cd" points="581.2,-63.85 571.15,-67.21 581.1,-70.85 581.2,-63.85"/>
<text text-anchor="middle" x="622.5" y="-70.5" font-family="Helvetica,sans-Serif" font-size="10.00"> ptr</text>
</g>
<!-- Node6 -->
<g id="node6" class="node">
<title>Node6</title>
<g id="a_node6"><a xlink:title=" ">
<polygon fill="white" stroke="black" points="215.5,-6 215.5,-25 280.5,-25 280.5,-6 215.5,-6"/>
<text text-anchor="middle" x="248" y="-13" font-family="Helvetica,sans-Serif" font-size="10.00">std::string</text>
</a>
</g>
</g>
<!-- Node6&#45;&gt;Node5 -->
<g id="edge6" class="edge">
<title>Node6&#45;&gt;Node5</title>
<path fill="none" stroke="#9a32cd" stroke-dasharray="5,2" d="M290.97,-14.41C330.76,-14.39 391.88,-16.98 443,-30.5 465.14,-36.35 488.7,-48.44 503.73,-56.99"/>
<polygon fill="#9a32cd" stroke="#9a32cd" points="290.81,-10.91 280.83,-14.47 290.85,-17.91 290.81,-10.91"/>
<text text-anchor="middle" x="384" y="-55.5" font-family="Helvetica,sans-Serif" font-size="10.00"> long_option_prefix</text>
<text text-anchor="middle" x="384" y="-44.5" font-family="Helvetica,sans-Serif" font-size="10.00">short_option_prefix</text>
<text text-anchor="middle" x="384" y="-33.5" font-family="Helvetica,sans-Serif" font-size="10.00">value_delimiters</text>
</g>
<!-- Node7 -->
<g id="node7" class="node">
<title>Node7</title>
<g id="a_node7"><a xlink:title=" ">
<polygon fill="white" stroke="black" points="0,-0.5 0,-30.5 104,-30.5 104,-0.5 0,-0.5"/>
<text text-anchor="start" x="8" y="-18.5" font-family="Helvetica,sans-Serif" font-size="10.00">std::basic_string&lt;</text>
<text text-anchor="middle" x="52" y="-7.5" font-family="Helvetica,sans-Serif" font-size="10.00"> Char &gt;</text>
</a>
</g>
</g>
<!-- Node7&#45;&gt;Node6 -->
<g id="edge7" class="edge">
<title>Node7&#45;&gt;Node6</title>
<path fill="none" stroke="midnightblue" d="M114.39,-15.5C147.91,-15.5 188.01,-15.5 215.27,-15.5"/>
<polygon fill="midnightblue" stroke="midnightblue" points="114.23,-12 104.22,-15.5 114.22,-19 114.23,-12"/>
</g>
<!-- Node8 -->
<g id="node8" class="node">
<title>Node8</title>
<g id="a_node8"><a xlink:title=" ">
<polygon fill="white" stroke="black" points="225.5,-62 225.5,-81 270.5,-81 270.5,-62 225.5,-62"/>
<text text-anchor="middle" x="248" y="-69" font-family="Helvetica,sans-Serif" font-size="10.00">size_t</text>
</a>
</g>
</g>
<!-- Node8&#45;&gt;Node5 -->
<g id="edge8" class="edge">
<title>Node8&#45;&gt;Node5</title>
<path fill="none" stroke="#9a32cd" stroke-dasharray="5,2" d="M280.8,-70.91C327.42,-70.05 414.75,-68.44 469.86,-67.42"/>
<polygon fill="#9a32cd" stroke="#9a32cd" points="280.61,-67.41 270.68,-71.1 280.74,-74.41 280.61,-67.41"/>
<text text-anchor="middle" x="384" y="-83.5" font-family="Helvetica,sans-Serif" font-size="10.00"> long_option_size</text>
<text text-anchor="middle" x="384" y="-72.5" font-family="Helvetica,sans-Serif" font-size="10.00">short_option_size</text>
</g>
<!-- Node9 -->
<g id="node9" class="node">
<title>Node9</title>
<g id="a_node9"><a xlink:title=" ">
<polygon fill="white" stroke="black" points="325,-106 325,-125 443,-125 443,-106 325,-106"/>
<text text-anchor="middle" x="384" y="-113" font-family="Helvetica,sans-Serif" font-size="10.00">std::shared_ptr&lt; T &gt;</text>
</a>
</g>
</g>
<!-- Node9&#45;&gt;Node4 -->
<g id="edge9" class="edge">
<title>Node9&#45;&gt;Node4</title>
<path fill="none" stroke="orange" stroke-dasharray="5,2" d="M453.02,-107.47C505.95,-101.09 581.21,-91.73 647,-82.5 655.18,-81.35 663.81,-80.08 672.28,-78.8"/>
<polygon fill="orange" stroke="orange" points="452.59,-103.99 443.08,-108.66 453.42,-110.94 452.59,-103.99"/>
<text text-anchor="middle" x="520.5" y="-108.5" font-family="Helvetica,sans-Serif" font-size="10.00"> &lt; lyra::option_style &gt;</text>
</g>
<!-- Node10 -->
<g id="node10" class="node">
<title>Node10</title>
<g id="a_node10"><a xlink:title=" ">
<polygon fill="white" stroke="black" points="37.5,-219 37.5,-238 66.5,-238 66.5,-219 37.5,-219"/>
<text text-anchor="middle" x="52" y="-226" font-family="Helvetica,sans-Serif" font-size="10.00">T</text>
</a>
</g>
</g>
<!-- Node10&#45;&gt;Node9 -->
<g id="edge10" class="edge">
<title>Node10&#45;&gt;Node9</title>
<path fill="none" stroke="#9a32cd" stroke-dasharray="5,2" d="M72.03,-212.44C97.08,-192.26 143.33,-158.23 189,-141.5 232.87,-125.43 285.58,-119.12 324.98,-116.72"/>
<polygon fill="#9a32cd" stroke="#9a32cd" points="69.6,-209.91 64.08,-218.95 74.04,-215.32 69.6,-209.91"/>
<text text-anchor="middle" x="146.5" y="-178.5" font-family="Helvetica,sans-Serif" font-size="10.00"> ptr</text>
</g>
<!-- Node13 -->
<g id="node13" class="node">
<title>Node13</title>
<g id="a_node13"><a xlink:title=" ">
<polygon fill="white" stroke="black" points="189,-259 189,-278 307,-278 307,-259 189,-259"/>
<text text-anchor="middle" x="248" y="-266" font-family="Helvetica,sans-Serif" font-size="10.00">std::unique_ptr&lt; T &gt;</text>
</a>
</g>
</g>
<!-- Node10&#45;&gt;Node13 -->
<g id="edge15" class="edge">
<title>Node10&#45;&gt;Node13</title>
<path fill="none" stroke="#9a32cd" stroke-dasharray="5,2" d="M76.44,-233.33C107.13,-239.66 161.62,-250.89 200.75,-258.96"/>
<polygon fill="#9a32cd" stroke="#9a32cd" points="77.14,-229.9 66.64,-231.31 75.73,-236.76 77.14,-229.9"/>
<text text-anchor="middle" x="146.5" y="-254.5" font-family="Helvetica,sans-Serif" font-size="10.00"> ptr</text>
</g>
<!-- Node14 -->
<g id="node14" class="node">
<title>Node14</title>
<g id="a_node14"><a xlink:title=" ">
<polygon fill="white" stroke="black" points="335.5,-219 335.5,-238 432.5,-238 432.5,-219 335.5,-219"/>
<text text-anchor="middle" x="384" y="-226" font-family="Helvetica,sans-Serif" font-size="10.00">std::vector&lt; T &gt;</text>
</a>
</g>
</g>
<!-- Node10&#45;&gt;Node14 -->
<g id="edge17" class="edge">
<title>Node10&#45;&gt;Node14</title>
<path fill="none" stroke="#9a32cd" stroke-dasharray="5,2" d="M76.76,-228.5C130.82,-228.5 263.85,-228.5 335.48,-228.5"/>
<polygon fill="#9a32cd" stroke="#9a32cd" points="76.76,-225 66.76,-228.5 76.76,-232 76.76,-225"/>
<text text-anchor="middle" x="146.5" y="-231.5" font-family="Helvetica,sans-Serif" font-size="10.00"> elements</text>
</g>
<!-- Node11 -->
<g id="node11" class="node">
<title>Node11</title>
<g id="a_node11"><a xlink:title=" ">
<polygon fill="white" stroke="black" points="665,-200.5 665,-230.5 799,-230.5 799,-200.5 665,-200.5"/>
<text text-anchor="start" x="673" y="-218.5" font-family="Helvetica,sans-Serif" font-size="10.00">std::vector&lt; std::unique</text>
<text text-anchor="middle" x="732" y="-207.5" font-family="Helvetica,sans-Serif" font-size="10.00">_ptr&lt; lyra::parser &gt; &gt;</text>
</a>
</g>
</g>
<!-- Node11&#45;&gt;Node2 -->
<g id="edge11" class="edge">
<title>Node11&#45;&gt;Node2</title>
<path fill="none" stroke="#9a32cd" stroke-dasharray="5,2" d="M808.91,-201.28C830.5,-196.46 853.89,-190.5 875,-183.5 895.28,-176.78 917.49,-166.57 932.73,-159.09"/>
<polygon fill="#9a32cd" stroke="#9a32cd" points="808.15,-197.87 799.13,-203.42 809.64,-204.71 808.15,-197.87"/>
<text text-anchor="middle" x="846" y="-201.5" font-family="Helvetica,sans-Serif" font-size="10.00"> parsers</text>
</g>
<!-- Node12&#45;&gt;Node11 -->
<g id="edge12" class="edge">
<title>Node12&#45;&gt;Node11</title>
<path fill="none" stroke="#9a32cd" stroke-dasharray="5,2" d="M587.37,-253.89C615.41,-246.4 647.79,-237.74 674.7,-230.55"/>
<polygon fill="#9a32cd" stroke="#9a32cd" points="586.4,-250.53 577.64,-256.49 588.21,-257.29 586.4,-250.53"/>
<text text-anchor="middle" x="622.5" y="-252.5" font-family="Helvetica,sans-Serif" font-size="10.00"> elements</text>
</g>
<!-- Node13&#45;&gt;Node12 -->
<g id="edge14" class="edge">
<title>Node13&#45;&gt;Node12</title>
<path fill="none" stroke="orange" stroke-dasharray="5,2" d="M317.12,-269.26C361.34,-269.75 418.38,-270.38 460.63,-270.85"/>
<polygon fill="orange" stroke="orange" points="317.07,-265.75 307.03,-269.14 316.99,-272.75 317.07,-265.75"/>
<text text-anchor="middle" x="384" y="-273.5" font-family="Helvetica,sans-Serif" font-size="10.00"> &lt; lyra::parser &gt;</text>
</g>
<!-- Node14&#45;&gt;Node11 -->
<g id="edge16" class="edge">
<title>Node14&#45;&gt;Node11</title>
<path fill="none" stroke="orange" stroke-dasharray="5,2" d="M443.01,-226.2C449.08,-225.96 455.17,-225.72 461,-225.5 530.61,-222.84 610.31,-219.9 664.98,-217.9"/>
<polygon fill="orange" stroke="orange" points="442.69,-222.71 432.84,-226.59 442.97,-229.7 442.69,-222.71"/>
<text text-anchor="start" x="472.5" y="-239.5" font-family="Helvetica,sans-Serif" font-size="10.00"> &lt; std::unique_ptr&lt;</text>
<text text-anchor="middle" x="520.5" y="-228.5" font-family="Helvetica,sans-Serif" font-size="10.00"> lyra::parser &gt; &gt;</text>
</g>
<!-- Node15 -->
<g id="node15" class="node">
<title>Node15</title>
<g id="a_node15"><a xlink:title=" ">
<polygon fill="white" stroke="black" points="698,-104 698,-123 766,-123 766,-104 698,-104"/>
<text text-anchor="middle" x="732" y="-111" font-family="Helvetica,sans-Serif" font-size="10.00">evaluation</text>
</a>
</g>
</g>
<!-- Node15&#45;&gt;Node2 -->
<g id="edge18" class="edge">
<title>Node15&#45;&gt;Node2</title>
<path fill="none" stroke="#9a32cd" stroke-dasharray="5,2" d="M776.61,-115.22C804.87,-116.9 842.35,-120.16 875,-126.5 891.75,-129.75 910.06,-135.19 924.57,-139.96"/>
<polygon fill="#9a32cd" stroke="#9a32cd" points="776.44,-111.71 766.26,-114.66 776.06,-118.7 776.44,-111.71"/>
<text text-anchor="middle" x="846" y="-129.5" font-family="Helvetica,sans-Serif" font-size="10.00"> eval_mode</text>
</g>
<!-- Node16 -->
<g id="node16" class="node">
<title>Node16</title>
<g id="a_node16"><a xlink:title=" ">
<polygon fill="white" stroke="black" points="893,-90.5 893,-120.5 1012,-120.5 1012,-90.5 893,-90.5"/>
<text text-anchor="start" x="901" y="-108.5" font-family="Helvetica,sans-Serif" font-size="10.00">function&lt; void(const</text>
<text text-anchor="middle" x="952.5" y="-97.5" font-family="Helvetica,sans-Serif" font-size="10.00"> lyra::group &amp;)&gt;</text>
</a>
</g>
</g>
<!-- Node16&#45;&gt;Node1 -->
<g id="edge20" class="edge">
<title>Node16&#45;&gt;Node1</title>
<path fill="none" stroke="#9a32cd" stroke-dasharray="5,2" d="M1022.26,-104.9C1048.55,-105.41 1078.76,-106.91 1106,-110.5 1111.83,-111.27 1117.96,-112.4 1123.88,-113.67"/>
<polygon fill="#9a32cd" stroke="#9a32cd" points="1022.07,-101.39 1012.01,-104.74 1021.96,-108.39 1022.07,-101.39"/>
<text text-anchor="middle" x="1068" y="-113.5" font-family="Helvetica,sans-Serif" font-size="10.00"> success_signal</text>
</g>
<!-- Node17 -->
<g id="node17" class="node">
<title>Node17</title>
<g id="a_node17"><a xlink:href="structlyra_1_1detail_1_1parser__cardinality.html" target="_top" xlink:title=" ">
<polygon fill="white" stroke="black" points="899.5,-31.5 899.5,-61.5 1005.5,-61.5 1005.5,-31.5 899.5,-31.5"/>
<text text-anchor="start" x="907.5" y="-49.5" font-family="Helvetica,sans-Serif" font-size="10.00">lyra::detail::parser</text>
<text text-anchor="middle" x="952.5" y="-38.5" font-family="Helvetica,sans-Serif" font-size="10.00">_cardinality</text>
</a>
</g>
</g>
<!-- Node17&#45;&gt;Node1 -->
<g id="edge21" class="edge">
<title>Node17&#45;&gt;Node1</title>
<path fill="none" stroke="#9a32cd" stroke-dasharray="5,2" d="M1015.44,-59.56C1043.73,-66.63 1077.27,-76.59 1106,-89.5 1120.14,-95.86 1134.9,-105.69 1144.98,-112.98"/>
<polygon fill="#9a32cd" stroke="#9a32cd" points="1016.21,-56.14 1005.66,-57.18 1014.55,-62.94 1016.21,-56.14"/>
<text text-anchor="middle" x="1068" y="-92.5" font-family="Helvetica,sans-Serif" font-size="10.00"> m_cardinality</text>
</g>
<!-- Node18 -->
<g id="node18" class="node">
<title>Node18</title>
<g id="a_node18"><a xlink:title=" ">
<polygon fill="white" stroke="black" points="709.5,-16 709.5,-35 754.5,-35 754.5,-16 709.5,-16"/>
<text text-anchor="middle" x="732" y="-23" font-family="Helvetica,sans-Serif" font-size="10.00">size_t</text>
</a>
</g>
</g>
<!-- Node18&#45;&gt;Node17 -->
<g id="edge22" class="edge">
<title>Node18&#45;&gt;Node17</title>
<path fill="none" stroke="#9a32cd" stroke-dasharray="5,2" d="M765.03,-25.47C793.88,-25.78 837.41,-27.05 875,-31.5 882.93,-32.44 891.27,-33.74 899.4,-35.19"/>
<polygon fill="#9a32cd" stroke="#9a32cd" points="764.76,-21.97 754.73,-25.4 764.71,-28.97 764.76,-21.97"/>
<text text-anchor="middle" x="846" y="-45.5" font-family="Helvetica,sans-Serif" font-size="10.00"> maximum</text>
<text text-anchor="middle" x="846" y="-34.5" font-family="Helvetica,sans-Serif" font-size="10.00">minimum</text>
</g>
</g>
</svg>
        <g id="navigator" transform="translate(0 0)" fill="#404254">
                <rect fill="#f2f5e9" fill-opacity="0.5" stroke="#606060" stroke-width=".5" x="0" y="0" width="60" height="60"/>
                <use id="zoomplus" xlink:href="#zoomPlus" x="17" y="9" onmousedown="handleZoom(evt,'in')"/>
                <use id="zoomminus" xlink:href="#zoomMin" x="42" y="9" onmousedown="handleZoom(evt,'out')"/>
                <use id="reset" xlink:href="#resetDef" x="30" y="36" onmousedown="handleReset()"/>
                <g id="arrowUp" xlink:href="#dirArrow" transform="translate(30 24)" onmousedown="handlePan(0,-1)">
                  <use xlink:href="#rim" fill="#404040">
                        <set attributeName="fill" to="#808080" begin="arrowUp.mouseover" end="arrowUp.mouseout"/>
                  </use>
                  <path fill="none" stroke="white" stroke-width="1.5" d="M0,-3.0v7 M-2.5,-0.5L0,-3.0L2.5,-0.5"/>
                </g>
                <g id="arrowRight" xlink:href="#dirArrow" transform="rotate(90) translate(36 -43)" onmousedown="handlePan(1,0)">
                  <use xlink:href="#rim" fill="#404040">
                        <set attributeName="fill" to="#808080" begin="arrowRight.mouseover" end="arrowRight.mouseout"/>
                  </use>
                  <path fill="none" stroke="white" stroke-width="1.5" d="M0,-3.0v7 M-2.5,-0.5L0,-3.0L2.5,-0.5"/>
                </g>
                <g id="arrowDown" xlink:href="#dirArrow" transform="rotate(180) translate(-30 -48)" onmousedown="handlePan(0,1)">
                  <use xlink:href="#rim" fill="#404040">
                        <set attributeName="fill" to="#808080" begin="arrowDown.mouseover" end="arrowDown.mouseout"/>
                  </use>
                  <path fill="none" stroke="white" stroke-width="1.5" d="M0,-3.0v7 M-2.5,-0.5L0,-3.0L2.5,-0.5"/>
                </g>
                <g id="arrowLeft" xlink:href="#dirArrow" transform="rotate(270) translate(-36 17)" onmousedown="handlePan(-1,0)">
                  <use xlink:href="#rim" fill="#404040">
                        <set attributeName="fill" to="#808080" begin="arrowLeft.mouseover" end="arrowLeft.mouseout"/>
                  </use>
                  <path fill="none" stroke="white" stroke-width="1.5" d="M0,-3.0v7 M-2.5,-0.5L0,-3.0L2.5,-0.5"/>
                </g>
        </g>
        <svg viewBox="0 0 15 15" width="100%" height="30px" preserveAspectRatio="xMaxYMin meet">
         <g id="arrow_out" transform="scale(0.3 0.3)">
          <a xlink:href="classlyra_1_1group__coll__graph_org.svg" target="_base">
           <rect id="button" ry="5" rx="5" y="6" x="6" height="38" width="38"
                fill="#f2f5e9" fill-opacity="0.5" stroke="#606060" stroke-width="1.0"/>
           <path id="arrow"
             d="M 11.500037,31.436501 C 11.940474,20.09759 22.043105,11.32322 32.158766,21.979434 L 37.068811,17.246167 C 37.068811,17.246167 37.088388,32 37.088388,32 L 22.160133,31.978069 C 22.160133,31.978069 26.997745,27.140456 26.997745,27.140456 C 18.528582,18.264221 13.291696,25.230495 11.500037,31.436501 z"
             style="fill:#404040;"/>
          </a>
         </g>
        </svg>
</svg>
