<?xml version="1.0" encoding="UTF-8" standalone="no"?>
<!DOCTYPE svg PUBLIC "-//W3C//DTD SVG 1.1//EN"
 "http://www.w3.org/Graphics/SVG/1.1/DTD/svg11.dtd">
<!-- Generated by graphviz version 2.43.0 (0)
 -->
<!-- Title: Lyra/include/lyra/cli.hpp Pages: 1 -->
<svg width="1557pt" height="677pt"
 viewBox="0.00 0.00 1557.23 677.00" xmlns="http://www.w3.org/2000/svg" xmlns:xlink="http://www.w3.org/1999/xlink">
<g id="graph0" class="graph" transform="scale(1 1) rotate(0) translate(4 673)">
<title>Lyra/include/lyra/cli.hpp</title>
<polygon fill="white" stroke="transparent" points="-4,4 -4,-673 1553.23,-673 1553.23,4 -4,4"/>
<!-- Node1 -->
<g id="node1" class="node">
<title>Node1</title>
<g id="a_node1"><a xlink:title=" ">
<polygon fill="#bfbfbf" stroke="black" points="569,-649.5 569,-668.5 701,-668.5 701,-649.5 569,-649.5"/>
<text text-anchor="middle" x="635" y="-656.5" font-family="Helvetica,sans-Serif" font-size="10.00">Lyra/include/lyra/cli.hpp</text>
</a>
</g>
</g>
<!-- Node2 -->
<g id="node2" class="node">
<title>Node2</title>
<g id="a_node2"><a xlink:href="arguments_8hpp.html" target="_top" xlink:title=" ">
<polygon fill="white" stroke="black" points="516,-532 516,-551 628,-551 628,-532 516,-532"/>
<text text-anchor="middle" x="572" y="-539" font-family="Helvetica,sans-Serif" font-size="10.00">lyra/arguments.hpp</text>
</a>
</g>
</g>
<!-- Node1&#45;&gt;Node2 -->
<g id="edge1" class="edge">
<title>Node1&#45;&gt;Node2</title>
<path fill="none" stroke="midnightblue" d="M630.26,-649.32C619.96,-630.42 595.32,-585.25 581.61,-560.12"/>
<polygon fill="midnightblue" stroke="midnightblue" points="584.65,-558.38 576.79,-551.28 578.51,-561.74 584.65,-558.38"/>
</g>
<!-- Node3 -->
<g id="node3" class="node">
<title>Node3</title>
<g id="a_node3"><a xlink:href="print_8hpp.html" target="_top" xlink:title=" ">
<polygon fill="white" stroke="black" points="324.5,-470.5 324.5,-489.5 437.5,-489.5 437.5,-470.5 324.5,-470.5"/>
<text text-anchor="middle" x="381" y="-477.5" font-family="Helvetica,sans-Serif" font-size="10.00">lyra/detail/print.hpp</text>
</a>
</g>
</g>
<!-- Node1&#45;&gt;Node3 -->
<g id="edge74" class="edge">
<title>Node1&#45;&gt;Node3</title>
<path fill="none" stroke="midnightblue" d="M568.77,-654.79C531.21,-649.99 485.23,-638.75 452,-613 414.23,-583.73 394.11,-528.54 385.76,-499.67"/>
<polygon fill="midnightblue" stroke="midnightblue" points="389.05,-498.41 383.04,-489.69 382.29,-500.25 389.05,-498.41"/>
</g>
<!-- Node6 -->
<g id="node6" class="node">
<title>Node6</title>
<g id="a_node6"><a xlink:title=" ">
<polygon fill="white" stroke="#bfbfbf" points="1243.5,-0.5 1243.5,-19.5 1312.5,-19.5 1312.5,-0.5 1243.5,-0.5"/>
<text text-anchor="middle" x="1278" y="-7.5" font-family="Helvetica,sans-Serif" font-size="10.00">type_traits</text>
</a>
</g>
</g>
<!-- Node1&#45;&gt;Node6 -->
<g id="edge81" class="edge">
<title>Node1&#45;&gt;Node6</title>
<path fill="none" stroke="midnightblue" d="M701.03,-656.59C910.75,-651.23 1548,-627.93 1548,-542.5 1548,-542.5 1548,-542.5 1548,-126.5 1548,-94.05 1552.91,-77.94 1529,-56 1499.57,-28.99 1386.91,-17.7 1322.98,-13.39"/>
<polygon fill="midnightblue" stroke="midnightblue" points="1322.99,-9.88 1312.78,-12.73 1322.54,-16.87 1322.99,-9.88"/>
</g>
<!-- Node8 -->
<g id="node8" class="node">
<title>Node8</title>
<g id="a_node8"><a xlink:href="exe__name_8hpp.html" target="_top" xlink:title=" ">
<polygon fill="white" stroke="black" points="577,-470.5 577,-489.5 687,-489.5 687,-470.5 577,-470.5"/>
<text text-anchor="middle" x="632" y="-477.5" font-family="Helvetica,sans-Serif" font-size="10.00">lyra/exe_name.hpp</text>
</a>
</g>
</g>
<!-- Node1&#45;&gt;Node8 -->
<g id="edge75" class="edge">
<title>Node1&#45;&gt;Node8</title>
<path fill="none" stroke="midnightblue" d="M635.55,-649.34C636.81,-628.24 639.57,-572.45 637,-526 636.52,-517.36 635.53,-507.83 634.55,-499.77"/>
<polygon fill="midnightblue" stroke="midnightblue" points="637.99,-499.07 633.24,-489.6 631.05,-499.97 637.99,-499.07"/>
</g>
<!-- Node10 -->
<g id="node10" class="node">
<title>Node10</title>
<g id="a_node10"><a xlink:href="from__string_8hpp.html" target="_top" xlink:title=" ">
<polygon fill="white" stroke="black" points="1104,-118 1104,-137 1250,-137 1250,-118 1104,-118"/>
<text text-anchor="middle" x="1177" y="-125" font-family="Helvetica,sans-Serif" font-size="10.00">lyra/detail/from_string.hpp</text>
</a>
</g>
</g>
<!-- Node1&#45;&gt;Node10 -->
<g id="edge73" class="edge">
<title>Node1&#45;&gt;Node10</title>
<path fill="none" stroke="midnightblue" d="M701.14,-652.53C860.56,-638.46 1253,-598.17 1253,-542.5 1253,-542.5 1253,-542.5 1253,-367 1253,-280.83 1207.41,-185.07 1186.85,-146.26"/>
<polygon fill="midnightblue" stroke="midnightblue" points="1189.82,-144.41 1181.99,-137.27 1183.66,-147.73 1189.82,-144.41"/>
</g>
<!-- Node19 -->
<g id="node19" class="node">
<title>Node19</title>
<g id="a_node19"><a xlink:href="option__style_8hpp.html" target="_top" xlink:title=" ">
<polygon fill="white" stroke="black" points="256.5,-302.5 256.5,-321.5 375.5,-321.5 375.5,-302.5 256.5,-302.5"/>
<text text-anchor="middle" x="316" y="-309.5" font-family="Helvetica,sans-Serif" font-size="10.00">lyra/option_style.hpp</text>
</a>
</g>
</g>
<!-- Node1&#45;&gt;Node19 -->
<g id="edge80" class="edge">
<title>Node1&#45;&gt;Node19</title>
<path fill="none" stroke="midnightblue" d="M570.84,-649.49C472.56,-634.63 296,-599.94 296,-542.5 296,-542.5 296,-542.5 296,-423 296,-390.44 304.59,-353.32 310.51,-331.59"/>
<polygon fill="midnightblue" stroke="midnightblue" points="313.94,-332.32 313.3,-321.74 307.21,-330.41 313.94,-332.32"/>
</g>
<!-- Node29 -->
<g id="node29" class="node">
<title>Node29</title>
<g id="a_node29"><a xlink:href="deprecated__parser__customization_8hpp.html" target="_top" xlink:title=" ">
<polygon fill="white" stroke="black" points="1287,-526.5 1287,-556.5 1435,-556.5 1435,-526.5 1287,-526.5"/>
<text text-anchor="start" x="1295" y="-544.5" font-family="Helvetica,sans-Serif" font-size="10.00">lyra/detail/deprecated</text>
<text text-anchor="middle" x="1361" y="-533.5" font-family="Helvetica,sans-Serif" font-size="10.00">_parser_customization.hpp</text>
</a>
</g>
</g>
<!-- Node1&#45;&gt;Node29 -->
<g id="edge71" class="edge">
<title>Node1&#45;&gt;Node29</title>
<path fill="none" stroke="midnightblue" d="M701.11,-657.99C841.48,-657.2 1164.78,-651.16 1267,-613 1295.34,-602.42 1322.39,-580.44 1340.13,-563.82"/>
<polygon fill="midnightblue" stroke="midnightblue" points="1342.83,-566.08 1347.6,-556.62 1337.97,-561.04 1342.83,-566.08"/>
</g>
<!-- Node30 -->
<g id="node30" class="node">
<title>Node30</title>
<g id="a_node30"><a xlink:href="group_8hpp.html" target="_top" xlink:title=" ">
<polygon fill="white" stroke="black" points="461.5,-593.5 461.5,-612.5 548.5,-612.5 548.5,-593.5 461.5,-593.5"/>
<text text-anchor="middle" x="505" y="-600.5" font-family="Helvetica,sans-Serif" font-size="10.00">lyra/group.hpp</text>
</a>
</g>
</g>
<!-- Node1&#45;&gt;Node30 -->
<g id="edge76" class="edge">
<title>Node1&#45;&gt;Node30</title>
<path fill="none" stroke="midnightblue" d="M614.4,-649.44C593.01,-640.56 559.32,-626.56 534.98,-616.45"/>
<polygon fill="midnightblue" stroke="midnightblue" points="536.08,-613.12 525.5,-612.52 533.39,-619.58 536.08,-613.12"/>
</g>
<!-- Node2&#45;&gt;Node3 -->
<g id="edge2" class="edge">
<title>Node2&#45;&gt;Node3</title>
<path fill="none" stroke="midnightblue" d="M544.63,-531.98C511.45,-521.64 455.35,-504.16 418.24,-492.6"/>
<polygon fill="midnightblue" stroke="midnightblue" points="418.9,-489.14 408.31,-489.51 416.82,-495.82 418.9,-489.14"/>
</g>
<!-- Node5 -->
<g id="node5" class="node">
<title>Node5</title>
<g id="a_node5"><a xlink:href="trait__utils_8hpp.html" target="_top" xlink:title=" ">
<polygon fill="white" stroke="black" points="1382.5,-56.5 1382.5,-75.5 1519.5,-75.5 1519.5,-56.5 1382.5,-56.5"/>
<text text-anchor="middle" x="1451" y="-63.5" font-family="Helvetica,sans-Serif" font-size="10.00">lyra/detail/trait_utils.hpp</text>
</a>
</g>
</g>
<!-- Node2&#45;&gt;Node5 -->
<g id="edge4" class="edge">
<title>Node2&#45;&gt;Node5</title>
<path fill="none" stroke="midnightblue" d="M628.1,-539.65C765.95,-537.02 1118.12,-526.8 1229,-490 1341.97,-452.51 1430,-432.03 1430,-313 1430,-313 1430,-313 1430,-188 1430,-151.19 1439.55,-108.99 1445.77,-85.42"/>
<polygon fill="midnightblue" stroke="midnightblue" points="1449.16,-86.28 1448.42,-75.72 1442.41,-84.44 1449.16,-86.28"/>
</g>
<!-- Node2&#45;&gt;Node6 -->
<g id="edge70" class="edge">
<title>Node2&#45;&gt;Node6</title>
<path fill="none" stroke="midnightblue" d="M628.04,-537.11C812.95,-524.4 1392,-471.91 1392,-313 1392,-313 1392,-313 1392,-188 1392,-123.18 1369.14,-107.67 1330,-56 1321.33,-44.55 1309.32,-33.92 1299.03,-25.87"/>
<polygon fill="midnightblue" stroke="midnightblue" points="1301,-22.97 1290.9,-19.76 1296.79,-28.57 1301,-22.97"/>
</g>
<!-- Node2&#45;&gt;Node8 -->
<g id="edge7" class="edge">
<title>Node2&#45;&gt;Node8</title>
<path fill="none" stroke="midnightblue" d="M580.6,-531.98C589.86,-522.78 604.82,-507.96 616.21,-496.66"/>
<polygon fill="midnightblue" stroke="midnightblue" points="618.78,-499.04 623.42,-489.51 613.85,-494.07 618.78,-499.04"/>
</g>
<!-- Node21 -->
<g id="node21" class="node">
<title>Node21</title>
<g id="a_node21"><a xlink:href="parser_8hpp.html" target="_top" xlink:title=" ">
<polygon fill="white" stroke="black" points="611,-414.5 611,-433.5 701,-433.5 701,-414.5 611,-414.5"/>
<text text-anchor="middle" x="656" y="-421.5" font-family="Helvetica,sans-Serif" font-size="10.00">lyra/parser.hpp</text>
</a>
</g>
</g>
<!-- Node2&#45;&gt;Node21 -->
<g id="edge67" class="edge">
<title>Node2&#45;&gt;Node21</title>
<path fill="none" stroke="midnightblue" d="M628.23,-532.05C653.39,-525.16 680.76,-512.66 696,-490 707.23,-473.3 691.06,-453.54 676.04,-440.22"/>
<polygon fill="midnightblue" stroke="midnightblue" points="677.93,-437.24 668,-433.55 673.46,-442.63 677.93,-437.24"/>
</g>
<!-- Node25 -->
<g id="node25" class="node">
<title>Node25</title>
<g id="a_node25"><a xlink:href="printer_8hpp.html" target="_top" xlink:title=" ">
<polygon fill="white" stroke="black" points="138,-358.5 138,-377.5 230,-377.5 230,-358.5 138,-358.5"/>
<text text-anchor="middle" x="184" y="-365.5" font-family="Helvetica,sans-Serif" font-size="10.00">lyra/printer.hpp</text>
</a>
</g>
</g>
<!-- Node2&#45;&gt;Node25 -->
<g id="edge68" class="edge">
<title>Node2&#45;&gt;Node25</title>
<path fill="none" stroke="midnightblue" d="M569.51,-531.91C564.64,-516.73 552.32,-485.32 530,-470 451.93,-416.4 410.24,-462.69 320,-434 278.69,-420.87 233.89,-397.51 207.42,-382.66"/>
<polygon fill="midnightblue" stroke="midnightblue" points="208.96,-379.51 198.54,-377.61 205.5,-385.6 208.96,-379.51"/>
</g>
<!-- Node28 -->
<g id="node28" class="node">
<title>Node28</title>
<g id="a_node28"><a xlink:title=" ">
<polygon fill="white" stroke="#bfbfbf" points="455.5,-470.5 455.5,-489.5 520.5,-489.5 520.5,-470.5 455.5,-470.5"/>
<text text-anchor="middle" x="488" y="-477.5" font-family="Helvetica,sans-Serif" font-size="10.00">functional</text>
</a>
</g>
</g>
<!-- Node2&#45;&gt;Node28 -->
<g id="edge69" class="edge">
<title>Node2&#45;&gt;Node28</title>
<path fill="none" stroke="midnightblue" d="M559.96,-531.98C546.49,-522.43 524.43,-506.81 508.28,-495.37"/>
<polygon fill="midnightblue" stroke="midnightblue" points="510.2,-492.43 500.01,-489.51 506.15,-498.15 510.2,-492.43"/>
</g>
<!-- Node4 -->
<g id="node4" class="node">
<title>Node4</title>
<g id="a_node4"><a xlink:title=" ">
<polygon fill="white" stroke="#bfbfbf" points="566,-0.5 566,-19.5 610,-19.5 610,-0.5 566,-0.5"/>
<text text-anchor="middle" x="588" y="-7.5" font-family="Helvetica,sans-Serif" font-size="10.00">string</text>
</a>
</g>
</g>
<!-- Node3&#45;&gt;Node4 -->
<g id="edge3" class="edge">
<title>Node3&#45;&gt;Node4</title>
<path fill="none" stroke="midnightblue" d="M345.9,-470.5C294.77,-456.94 198.36,-426.86 129,-378 73.07,-338.6 50.51,-299.96 72,-235 103.13,-140.9 119.2,-105.62 205,-56 264.49,-21.59 474.85,-13.43 555.86,-11.55"/>
<polygon fill="midnightblue" stroke="midnightblue" points="556.05,-15.04 565.97,-11.33 555.9,-8.05 556.05,-15.04"/>
</g>
<!-- Node5&#45;&gt;Node6 -->
<g id="edge5" class="edge">
<title>Node5&#45;&gt;Node6</title>
<path fill="none" stroke="midnightblue" d="M1423.59,-56.44C1394.23,-47.28 1347.48,-32.69 1314.9,-22.52"/>
<polygon fill="midnightblue" stroke="midnightblue" points="1315.87,-19.16 1305.28,-19.52 1313.79,-25.84 1315.87,-19.16"/>
</g>
<!-- Node7 -->
<g id="node7" class="node">
<title>Node7</title>
<g id="a_node7"><a xlink:title=" ">
<polygon fill="white" stroke="#bfbfbf" points="1428.5,-0.5 1428.5,-19.5 1473.5,-19.5 1473.5,-0.5 1428.5,-0.5"/>
<text text-anchor="middle" x="1451" y="-7.5" font-family="Helvetica,sans-Serif" font-size="10.00">utility</text>
</a>
</g>
</g>
<!-- Node5&#45;&gt;Node7 -->
<g id="edge6" class="edge">
<title>Node5&#45;&gt;Node7</title>
<path fill="none" stroke="midnightblue" d="M1451,-56.08C1451,-49.01 1451,-38.86 1451,-29.99"/>
<polygon fill="midnightblue" stroke="midnightblue" points="1454.5,-29.75 1451,-19.75 1447.5,-29.75 1454.5,-29.75"/>
</g>
<!-- Node9 -->
<g id="node9" class="node">
<title>Node9</title>
<g id="a_node9"><a xlink:href="bound_8hpp.html" target="_top" xlink:title=" ">
<polygon fill="white" stroke="black" points="953,-302.5 953,-321.5 1073,-321.5 1073,-302.5 953,-302.5"/>
<text text-anchor="middle" x="1013" y="-309.5" font-family="Helvetica,sans-Serif" font-size="10.00">lyra/detail/bound.hpp</text>
</a>
</g>
</g>
<!-- Node8&#45;&gt;Node9 -->
<g id="edge8" class="edge">
<title>Node8&#45;&gt;Node9</title>
<path fill="none" stroke="midnightblue" d="M667.09,-470.5C723.34,-456.08 836.3,-423.87 924,-378 950.57,-364.11 977.95,-342.87 995.2,-328.48"/>
<polygon fill="midnightblue" stroke="midnightblue" points="997.88,-330.8 1003.24,-321.66 993.35,-325.46 997.88,-330.8"/>
</g>
<!-- Node14 -->
<g id="node14" class="node">
<title>Node14</title>
<g id="a_node14"><a xlink:href="parser__result_8hpp.html" target="_top" xlink:title=" ">
<polygon fill="white" stroke="black" points="332.5,-118 332.5,-137 455.5,-137 455.5,-118 332.5,-118"/>
<text text-anchor="middle" x="394" y="-125" font-family="Helvetica,sans-Serif" font-size="10.00">lyra/parser_result.hpp</text>
</a>
</g>
</g>
<!-- Node8&#45;&gt;Node14 -->
<g id="edge66" class="edge">
<title>Node8&#45;&gt;Node14</title>
<path fill="none" stroke="midnightblue" d="M596.16,-470.43C507.52,-448.37 282.56,-386.78 247,-322 206.67,-248.54 317.43,-172.58 369.09,-142.23"/>
<polygon fill="midnightblue" stroke="midnightblue" points="371.08,-145.12 378,-137.1 367.59,-139.06 371.08,-145.12"/>
</g>
<!-- Node18 -->
<g id="node18" class="node">
<title>Node18</title>
<g id="a_node18"><a xlink:href="tokens_8hpp.html" target="_top" xlink:title=" ">
<polygon fill="white" stroke="black" points="400,-358.5 400,-377.5 522,-377.5 522,-358.5 400,-358.5"/>
<text text-anchor="middle" x="461" y="-365.5" font-family="Helvetica,sans-Serif" font-size="10.00">lyra/detail/tokens.hpp</text>
</a>
</g>
</g>
<!-- Node8&#45;&gt;Node18 -->
<g id="edge30" class="edge">
<title>Node8&#45;&gt;Node18</title>
<path fill="none" stroke="midnightblue" d="M618.58,-470.37C589.24,-451.49 519.12,-406.38 483.13,-383.24"/>
<polygon fill="midnightblue" stroke="midnightblue" points="484.66,-380.06 474.36,-377.59 480.87,-385.95 484.66,-380.06"/>
</g>
<!-- Node8&#45;&gt;Node21 -->
<g id="edge35" class="edge">
<title>Node8&#45;&gt;Node21</title>
<path fill="none" stroke="midnightblue" d="M635.96,-470.08C639.21,-462.77 643.92,-452.18 647.95,-443.1"/>
<polygon fill="midnightblue" stroke="midnightblue" points="651.25,-444.31 652.11,-433.75 644.85,-441.47 651.25,-444.31"/>
</g>
<!-- Node9&#45;&gt;Node4 -->
<g id="edge29" class="edge">
<title>Node9&#45;&gt;Node4</title>
<path fill="none" stroke="midnightblue" d="M1021.24,-302.4C1038.31,-283.63 1076,-236.89 1076,-190 1076,-190 1076,-190 1076,-126.5 1076,-32.55 729.19,-14.92 620.3,-11.7"/>
<polygon fill="midnightblue" stroke="midnightblue" points="620.33,-8.2 610.24,-11.42 620.14,-15.2 620.33,-8.2"/>
</g>
<!-- Node9&#45;&gt;Node10 -->
<g id="edge9" class="edge">
<title>Node9&#45;&gt;Node10</title>
<path fill="none" stroke="midnightblue" d="M1034.01,-302.49C1050.76,-294.88 1074,-282.4 1090,-266 1120.84,-234.39 1113.77,-215.92 1138,-179 1145.73,-167.23 1155.39,-154.7 1163.17,-145.07"/>
<polygon fill="midnightblue" stroke="midnightblue" points="1166.04,-147.09 1169.67,-137.14 1160.62,-142.65 1166.04,-147.09"/>
</g>
<!-- Node12 -->
<g id="node12" class="node">
<title>Node12</title>
<g id="a_node12"><a xlink:href="invoke__lambda_8hpp.html" target="_top" xlink:title=" ">
<polygon fill="white" stroke="black" points="743.5,-235.5 743.5,-265.5 844.5,-265.5 844.5,-235.5 743.5,-235.5"/>
<text text-anchor="start" x="751.5" y="-253.5" font-family="Helvetica,sans-Serif" font-size="10.00">lyra/detail/invoke</text>
<text text-anchor="middle" x="794" y="-242.5" font-family="Helvetica,sans-Serif" font-size="10.00">_lambda.hpp</text>
</a>
</g>
</g>
<!-- Node9&#45;&gt;Node12 -->
<g id="edge14" class="edge">
<title>Node9&#45;&gt;Node12</title>
<path fill="none" stroke="midnightblue" d="M981.62,-302.48C948.56,-293.49 895.66,-279.12 854.44,-267.92"/>
<polygon fill="midnightblue" stroke="midnightblue" points="855.34,-264.54 844.77,-265.29 853.5,-271.29 855.34,-264.54"/>
</g>
<!-- Node13 -->
<g id="node13" class="node">
<title>Node13</title>
<g id="a_node13"><a xlink:href="parse_8hpp.html" target="_top" xlink:title=" ">
<polygon fill="white" stroke="black" points="671.5,-179.5 671.5,-198.5 788.5,-198.5 788.5,-179.5 671.5,-179.5"/>
<text text-anchor="middle" x="730" y="-186.5" font-family="Helvetica,sans-Serif" font-size="10.00">lyra/detail/parse.hpp</text>
</a>
</g>
</g>
<!-- Node9&#45;&gt;Node13 -->
<g id="edge27" class="edge">
<title>Node9&#45;&gt;Node13</title>
<path fill="none" stroke="midnightblue" d="M996.53,-302.47C967.93,-287.8 907.05,-257.24 854,-235 824.67,-222.7 790.67,-210.51 765.7,-201.92"/>
<polygon fill="midnightblue" stroke="midnightblue" points="766.53,-198.5 755.93,-198.58 764.27,-205.13 766.53,-198.5"/>
</g>
<!-- Node17 -->
<g id="node17" class="node">
<title>Node17</title>
<g id="a_node17"><a xlink:href="unary__lambda__traits_8hpp.html" target="_top" xlink:title=" ">
<polygon fill="white" stroke="black" points="870.5,-112.5 870.5,-142.5 1009.5,-142.5 1009.5,-112.5 870.5,-112.5"/>
<text text-anchor="start" x="878.5" y="-130.5" font-family="Helvetica,sans-Serif" font-size="10.00">lyra/detail/unary_lambda</text>
<text text-anchor="middle" x="940" y="-119.5" font-family="Helvetica,sans-Serif" font-size="10.00">_traits.hpp</text>
</a>
</g>
</g>
<!-- Node9&#45;&gt;Node17 -->
<g id="edge28" class="edge">
<title>Node9&#45;&gt;Node17</title>
<path fill="none" stroke="midnightblue" d="M1009.48,-302.2C998.69,-275.22 965.82,-193.05 949.46,-152.15"/>
<polygon fill="midnightblue" stroke="midnightblue" points="952.64,-150.68 945.68,-142.69 946.14,-153.28 952.64,-150.68"/>
</g>
<!-- Node10&#45;&gt;Node4 -->
<g id="edge12" class="edge">
<title>Node10&#45;&gt;Node4</title>
<path fill="none" stroke="midnightblue" d="M1169.46,-117.63C1155.57,-101.99 1124.23,-69.88 1090,-56 1004.22,-21.22 717.36,-13.19 620.36,-11.45"/>
<polygon fill="midnightblue" stroke="midnightblue" points="620.33,-7.95 610.28,-11.28 620.22,-14.95 620.33,-7.95"/>
</g>
<!-- Node10&#45;&gt;Node5 -->
<g id="edge10" class="edge">
<title>Node10&#45;&gt;Node5</title>
<path fill="none" stroke="midnightblue" d="M1216.26,-117.98C1265.19,-107.35 1348.84,-89.18 1401.95,-77.65"/>
<polygon fill="midnightblue" stroke="midnightblue" points="1402.79,-81.05 1411.82,-75.51 1401.3,-74.21 1402.79,-81.05"/>
</g>
<!-- Node10&#45;&gt;Node6 -->
<g id="edge13" class="edge">
<title>Node10&#45;&gt;Node6</title>
<path fill="none" stroke="midnightblue" d="M1184.59,-117.82C1201.33,-98.67 1241.67,-52.54 1263.46,-27.63"/>
<polygon fill="midnightblue" stroke="midnightblue" points="1266.37,-29.61 1270.32,-19.78 1261.1,-25.01 1266.37,-29.61"/>
</g>
<!-- Node11 -->
<g id="node11" class="node">
<title>Node11</title>
<g id="a_node11"><a xlink:title=" ">
<polygon fill="white" stroke="#bfbfbf" points="1149,-56.5 1149,-75.5 1205,-75.5 1205,-56.5 1149,-56.5"/>
<text text-anchor="middle" x="1177" y="-63.5" font-family="Helvetica,sans-Serif" font-size="10.00">sstream</text>
</a>
</g>
</g>
<!-- Node10&#45;&gt;Node11 -->
<g id="edge11" class="edge">
<title>Node10&#45;&gt;Node11</title>
<path fill="none" stroke="midnightblue" d="M1177,-117.98C1177,-109.58 1177,-96.48 1177,-85.66"/>
<polygon fill="midnightblue" stroke="midnightblue" points="1180.5,-85.51 1177,-75.51 1173.5,-85.51 1180.5,-85.51"/>
</g>
<!-- Node12&#45;&gt;Node13 -->
<g id="edge15" class="edge">
<title>Node12&#45;&gt;Node13</title>
<path fill="none" stroke="midnightblue" d="M778.83,-235.4C769.25,-226.49 756.84,-214.95 746.93,-205.74"/>
<polygon fill="midnightblue" stroke="midnightblue" points="749.02,-202.9 739.31,-198.66 744.25,-208.03 749.02,-202.9"/>
</g>
<!-- Node12&#45;&gt;Node14 -->
<g id="edge26" class="edge">
<title>Node12&#45;&gt;Node14</title>
<path fill="none" stroke="midnightblue" d="M743.07,-241C696.01,-232.51 624.45,-218.01 564,-199 512.35,-182.76 454.58,-157.13 421.43,-141.65"/>
<polygon fill="midnightblue" stroke="midnightblue" points="422.51,-138.29 411.97,-137.2 419.53,-144.62 422.51,-138.29"/>
</g>
<!-- Node15 -->
<g id="node15" class="node">
<title>Node15</title>
<g id="a_node15"><a xlink:href="result_8hpp.html" target="_top" xlink:title=" ">
<polygon fill="white" stroke="black" points="267,-56.5 267,-75.5 385,-75.5 385,-56.5 267,-56.5"/>
<text text-anchor="middle" x="326" y="-63.5" font-family="Helvetica,sans-Serif" font-size="10.00">lyra/detail/result.hpp</text>
</a>
</g>
</g>
<!-- Node12&#45;&gt;Node15 -->
<g id="edge23" class="edge">
<title>Node12&#45;&gt;Node15</title>
<path fill="none" stroke="midnightblue" d="M743.41,-246.11C632.31,-237.47 372.91,-210.36 323,-143 310.75,-126.46 314.53,-101.89 319.36,-85.2"/>
<polygon fill="midnightblue" stroke="midnightblue" points="322.74,-86.12 322.53,-75.53 316.09,-83.94 322.74,-86.12"/>
</g>
<!-- Node12&#45;&gt;Node17 -->
<g id="edge24" class="edge">
<title>Node12&#45;&gt;Node17</title>
<path fill="none" stroke="midnightblue" d="M844.69,-246.88C878.55,-242.18 920.8,-229.97 943,-199 952.48,-185.78 951.32,-167.31 948,-152.59"/>
<polygon fill="midnightblue" stroke="midnightblue" points="951.31,-151.41 945.33,-142.66 944.55,-153.23 951.31,-151.41"/>
</g>
<!-- Node13&#45;&gt;Node4 -->
<g id="edge22" class="edge">
<title>Node13&#45;&gt;Node4</title>
<path fill="none" stroke="midnightblue" d="M704.29,-179.49C685.96,-172.29 661.85,-160.34 646,-143 617.65,-111.99 626.11,-94.38 609,-56 604.96,-46.93 600.3,-36.91 596.4,-28.64"/>
<polygon fill="midnightblue" stroke="midnightblue" points="599.56,-27.13 592.11,-19.59 593.23,-30.12 599.56,-27.13"/>
</g>
<!-- Node13&#45;&gt;Node10 -->
<g id="edge16" class="edge">
<title>Node13&#45;&gt;Node10</title>
<path fill="none" stroke="midnightblue" d="M788.9,-180.16C869.71,-169.4 1014.93,-150.07 1102.99,-138.35"/>
<polygon fill="midnightblue" stroke="midnightblue" points="1103.46,-141.82 1112.91,-137.03 1102.53,-134.88 1103.46,-141.82"/>
</g>
<!-- Node13&#45;&gt;Node14 -->
<g id="edge17" class="edge">
<title>Node13&#45;&gt;Node14</title>
<path fill="none" stroke="midnightblue" d="M681.86,-179.48C621.23,-168.74 517.14,-150.31 452.14,-138.79"/>
<polygon fill="midnightblue" stroke="midnightblue" points="452.51,-135.31 442.05,-137.01 451.29,-142.2 452.51,-135.31"/>
</g>
<!-- Node14&#45;&gt;Node4 -->
<g id="edge21" class="edge">
<title>Node14&#45;&gt;Node4</title>
<path fill="none" stroke="midnightblue" d="M401.56,-117.53C414.33,-102.88 441.57,-73.67 470,-56 497.05,-39.19 531.39,-26.97 556.04,-19.54"/>
<polygon fill="midnightblue" stroke="midnightblue" points="557.34,-22.81 565.96,-16.65 555.38,-16.09 557.34,-22.81"/>
</g>
<!-- Node14&#45;&gt;Node15 -->
<g id="edge18" class="edge">
<title>Node14&#45;&gt;Node15</title>
<path fill="none" stroke="midnightblue" d="M384.26,-117.98C373.65,-108.7 356.48,-93.67 343.52,-82.33"/>
<polygon fill="midnightblue" stroke="midnightblue" points="345.56,-79.46 335.72,-75.51 340.95,-84.73 345.56,-79.46"/>
</g>
<!-- Node15&#45;&gt;Node4 -->
<g id="edge20" class="edge">
<title>Node15&#45;&gt;Node4</title>
<path fill="none" stroke="midnightblue" d="M367.51,-56.44C419.83,-45.66 508.62,-27.36 555.99,-17.6"/>
<polygon fill="midnightblue" stroke="midnightblue" points="556.91,-20.98 566,-15.54 555.49,-14.13 556.91,-20.98"/>
</g>
<!-- Node16 -->
<g id="node16" class="node">
<title>Node16</title>
<g id="a_node16"><a xlink:title=" ">
<polygon fill="white" stroke="#bfbfbf" points="85,-0.5 85,-19.5 143,-19.5 143,-0.5 85,-0.5"/>
<text text-anchor="middle" x="114" y="-7.5" font-family="Helvetica,sans-Serif" font-size="10.00">memory</text>
</a>
</g>
</g>
<!-- Node15&#45;&gt;Node16 -->
<g id="edge19" class="edge">
<title>Node15&#45;&gt;Node16</title>
<path fill="none" stroke="midnightblue" d="M292.41,-56.44C254.49,-46.79 192.91,-31.1 152.93,-20.92"/>
<polygon fill="midnightblue" stroke="midnightblue" points="153.56,-17.47 143.01,-18.39 151.83,-24.25 153.56,-17.47"/>
</g>
<!-- Node17&#45;&gt;Node6 -->
<g id="edge25" class="edge">
<title>Node17&#45;&gt;Node6</title>
<path fill="none" stroke="midnightblue" d="M978.99,-112.45C1019.23,-98.02 1083.87,-75.04 1140,-56 1174.33,-44.36 1213.64,-31.59 1241.51,-22.64"/>
<polygon fill="midnightblue" stroke="midnightblue" points="1242.77,-25.91 1251.22,-19.52 1240.63,-19.24 1242.77,-25.91"/>
</g>
<!-- Node18&#45;&gt;Node4 -->
<g id="edge33" class="edge">
<title>Node18&#45;&gt;Node4</title>
<path fill="none" stroke="midnightblue" d="M515.83,-358.48C593.44,-345.2 738.72,-315.78 854,-266 937.97,-229.74 982.9,-227.04 1019,-143 1024.44,-130.34 1027.56,-122.8 1019,-112 968.94,-48.86 711.7,-21.39 620.29,-13.52"/>
<polygon fill="midnightblue" stroke="midnightblue" points="620.49,-10.02 610.23,-12.68 619.9,-17 620.49,-10.02"/>
</g>
<!-- Node18&#45;&gt;Node19 -->
<g id="edge31" class="edge">
<title>Node18&#45;&gt;Node19</title>
<path fill="none" stroke="midnightblue" d="M438.02,-358.44C413.84,-349.44 375.58,-335.19 348.35,-325.05"/>
<polygon fill="midnightblue" stroke="midnightblue" points="349.46,-321.73 338.87,-321.52 347.02,-328.29 349.46,-321.73"/>
</g>
<!-- Node20 -->
<g id="node20" class="node">
<title>Node20</title>
<g id="a_node20"><a xlink:title=" ">
<polygon fill="white" stroke="#bfbfbf" points="512.5,-118 512.5,-137 559.5,-137 559.5,-118 512.5,-118"/>
<text text-anchor="middle" x="536" y="-125" font-family="Helvetica,sans-Serif" font-size="10.00">vector</text>
</a>
</g>
</g>
<!-- Node18&#45;&gt;Node20 -->
<g id="edge34" class="edge">
<title>Node18&#45;&gt;Node20</title>
<path fill="none" stroke="midnightblue" d="M463.76,-358.23C474.69,-323.46 515.13,-194.85 530.25,-146.78"/>
<polygon fill="midnightblue" stroke="midnightblue" points="533.63,-147.69 533.3,-137.1 526.96,-145.59 533.63,-147.69"/>
</g>
<!-- Node19&#45;&gt;Node4 -->
<g id="edge32" class="edge">
<title>Node19&#45;&gt;Node4</title>
<path fill="none" stroke="midnightblue" d="M303.39,-302.29C279.06,-284.34 228,-240.65 228,-190 228,-190 228,-190 228,-126.5 228,-92.45 230.93,-76.66 258,-56 304.33,-20.64 482.32,-13.06 555.89,-11.44"/>
<polygon fill="midnightblue" stroke="midnightblue" points="556.03,-14.94 565.96,-11.24 555.89,-7.94 556.03,-14.94"/>
</g>
<!-- Node21&#45;&gt;Node4 -->
<g id="edge64" class="edge">
<title>Node21&#45;&gt;Node4</title>
<path fill="none" stroke="midnightblue" d="M658.73,-414.34C662.28,-401.63 667.32,-377.37 661,-358 624.3,-245.51 540.7,-255.49 504,-143 488.66,-95.99 537.61,-49.1 567.17,-25.92"/>
<polygon fill="midnightblue" stroke="midnightblue" points="569.43,-28.6 575.28,-19.77 565.2,-23.02 569.43,-28.6"/>
</g>
<!-- Node21&#45;&gt;Node5 -->
<g id="edge53" class="edge">
<title>Node21&#45;&gt;Node5</title>
<path fill="none" stroke="midnightblue" d="M701.3,-421.77C818.62,-418.22 1130.07,-406.33 1229,-378 1289.2,-360.76 1354,-375.62 1354,-313 1354,-313 1354,-313 1354,-188 1354,-140.87 1399.36,-101.62 1428.04,-81.51"/>
<polygon fill="midnightblue" stroke="midnightblue" points="1430.36,-84.16 1436.69,-75.66 1426.44,-78.36 1430.36,-84.16"/>
</g>
<!-- Node21&#45;&gt;Node6 -->
<g id="edge65" class="edge">
<title>Node21&#45;&gt;Node6</title>
<path fill="none" stroke="midnightblue" d="M701.23,-420.69C764.46,-416.57 882.37,-405.61 979,-378 1129.93,-334.87 1278,-346.97 1278,-190 1278,-190 1278,-190 1278,-126.5 1278,-92.36 1278,-52.55 1278,-29.71"/>
<polygon fill="midnightblue" stroke="midnightblue" points="1281.5,-29.69 1278,-19.69 1274.5,-29.69 1281.5,-29.69"/>
</g>
<!-- Node21&#45;&gt;Node9 -->
<g id="edge40" class="edge">
<title>Node21&#45;&gt;Node9</title>
<path fill="none" stroke="midnightblue" d="M701.27,-418.04C748.58,-411.97 824.47,-399.72 887,-378 925.18,-364.74 966.22,-341.75 990.74,-326.96"/>
<polygon fill="midnightblue" stroke="midnightblue" points="992.89,-329.76 999.59,-321.55 989.23,-323.78 992.89,-329.76"/>
</g>
<!-- Node21&#45;&gt;Node10 -->
<g id="edge50" class="edge">
<title>Node21&#45;&gt;Node10</title>
<path fill="none" stroke="midnightblue" d="M701.32,-417.42C798.74,-404.63 1023.97,-370.5 1082,-322 1138.45,-274.82 1164.23,-185.99 1173.15,-147.3"/>
<polygon fill="midnightblue" stroke="midnightblue" points="1176.6,-147.92 1175.31,-137.4 1169.76,-146.42 1176.6,-147.92"/>
</g>
<!-- Node21&#45;&gt;Node14 -->
<g id="edge55" class="edge">
<title>Node21&#45;&gt;Node14</title>
<path fill="none" stroke="midnightblue" d="M632.35,-414.42C613.71,-406.85 587.82,-394.45 569,-378 487.69,-306.94 424.79,-190.59 402.64,-146.34"/>
<polygon fill="midnightblue" stroke="midnightblue" points="405.77,-144.79 398.21,-137.37 399.49,-147.89 405.77,-144.79"/>
</g>
<!-- Node21&#45;&gt;Node15 -->
<g id="edge51" class="edge">
<title>Node21&#45;&gt;Node15</title>
<path fill="none" stroke="midnightblue" d="M610.72,-421.75C542.96,-418.86 420.02,-409.32 391,-378 367.95,-353.12 392.76,-334.77 384,-302 373.96,-264.44 319.3,-180.98 311,-143 306.71,-123.36 312.54,-100.74 318.14,-85.32"/>
<polygon fill="midnightblue" stroke="midnightblue" points="321.44,-86.5 321.85,-75.92 314.93,-83.93 321.44,-86.5"/>
</g>
<!-- Node21&#45;&gt;Node16 -->
<g id="edge63" class="edge">
<title>Node21&#45;&gt;Node16</title>
<path fill="none" stroke="midnightblue" d="M610.79,-423.37C499.08,-423.61 212.98,-419.98 129,-378 38.36,-332.69 0,-291.33 0,-190 0,-190 0,-190 0,-126.5 0,-77.7 52.19,-42.06 85.95,-24.11"/>
<polygon fill="midnightblue" stroke="midnightblue" points="87.61,-27.19 94.92,-19.52 84.42,-20.96 87.61,-27.19"/>
</g>
<!-- Node21&#45;&gt;Node18 -->
<g id="edge52" class="edge">
<title>Node21&#45;&gt;Node18</title>
<path fill="none" stroke="midnightblue" d="M625.1,-414.44C591.73,-405.2 538.41,-390.44 501.65,-380.26"/>
<polygon fill="midnightblue" stroke="midnightblue" points="502.33,-376.81 491.75,-377.52 500.46,-383.56 502.33,-376.81"/>
</g>
<!-- Node21&#45;&gt;Node19 -->
<g id="edge54" class="edge">
<title>Node21&#45;&gt;Node19</title>
<path fill="none" stroke="midnightblue" d="M610.8,-420.69C538.04,-416.23 398.93,-404.44 358,-378 340.94,-366.98 329.39,-346.32 322.78,-331.24"/>
<polygon fill="midnightblue" stroke="midnightblue" points="325.99,-329.84 318.99,-321.88 319.5,-332.46 325.99,-329.84"/>
</g>
<!-- Node22 -->
<g id="node22" class="node">
<title>Node22</title>
<g id="a_node22"><a xlink:href="args_8hpp.html" target="_top" xlink:title=" ">
<polygon fill="white" stroke="black" points="573,-179.5 573,-198.5 653,-198.5 653,-179.5 573,-179.5"/>
<text text-anchor="middle" x="613" y="-186.5" font-family="Helvetica,sans-Serif" font-size="10.00">lyra/args.hpp</text>
</a>
</g>
</g>
<!-- Node21&#45;&gt;Node22 -->
<g id="edge36" class="edge">
<title>Node21&#45;&gt;Node22</title>
<path fill="none" stroke="midnightblue" d="M666.71,-414.3C675.94,-406.07 688.59,-392.79 694,-378 697.05,-369.65 695.98,-366.67 694,-358 680.52,-299.01 643.56,-236.62 624.58,-207.23"/>
<polygon fill="midnightblue" stroke="midnightblue" points="627.31,-205.01 618.89,-198.58 621.46,-208.86 627.31,-205.01"/>
</g>
<!-- Node24 -->
<g id="node24" class="node">
<title>Node24</title>
<g id="a_node24"><a xlink:href="choices_8hpp.html" target="_top" xlink:title=" ">
<polygon fill="white" stroke="black" points="806.5,-179.5 806.5,-198.5 933.5,-198.5 933.5,-179.5 806.5,-179.5"/>
<text text-anchor="middle" x="870" y="-186.5" font-family="Helvetica,sans-Serif" font-size="10.00">lyra/detail/choices.hpp</text>
</a>
</g>
</g>
<!-- Node21&#45;&gt;Node24 -->
<g id="edge41" class="edge">
<title>Node21&#45;&gt;Node24</title>
<path fill="none" stroke="midnightblue" d="M673.65,-414.46C712.96,-394.47 807.85,-340.62 854,-266 864.73,-248.65 868.37,-225.27 869.55,-209.04"/>
<polygon fill="midnightblue" stroke="midnightblue" points="873.06,-208.83 870.04,-198.67 866.07,-208.5 873.06,-208.83"/>
</g>
<!-- Node21&#45;&gt;Node25 -->
<g id="edge56" class="edge">
<title>Node21&#45;&gt;Node25</title>
<path fill="none" stroke="midnightblue" d="M610.74,-417.82C524.03,-407.9 334.7,-386.24 240.11,-375.42"/>
<polygon fill="midnightblue" stroke="midnightblue" points="240.5,-371.94 230.16,-374.28 239.7,-378.9 240.5,-371.94"/>
</g>
<!-- Node27 -->
<g id="node27" class="node">
<title>Node27</title>
<g id="a_node27"><a xlink:href="val_8hpp.html" target="_top" xlink:title=" ">
<polygon fill="white" stroke="black" points="578,-358.5 578,-377.5 652,-377.5 652,-358.5 578,-358.5"/>
<text text-anchor="middle" x="615" y="-365.5" font-family="Helvetica,sans-Serif" font-size="10.00">lyra/val.hpp</text>
</a>
</g>
</g>
<!-- Node21&#45;&gt;Node27 -->
<g id="edge60" class="edge">
<title>Node21&#45;&gt;Node27</title>
<path fill="none" stroke="midnightblue" d="M649.23,-414.08C643.44,-406.46 634.94,-395.26 627.86,-385.94"/>
<polygon fill="midnightblue" stroke="midnightblue" points="630.48,-383.6 621.64,-377.75 624.9,-387.83 630.48,-383.6"/>
</g>
<!-- Node22&#45;&gt;Node4 -->
<g id="edge38" class="edge">
<title>Node22&#45;&gt;Node4</title>
<path fill="none" stroke="midnightblue" d="M611.79,-179.46C607.98,-152.43 596.08,-68.24 590.7,-30.11"/>
<polygon fill="midnightblue" stroke="midnightblue" points="594.12,-29.28 589.25,-19.87 587.19,-30.26 594.12,-29.28"/>
</g>
<!-- Node22&#45;&gt;Node20 -->
<g id="edge39" class="edge">
<title>Node22&#45;&gt;Node20</title>
<path fill="none" stroke="midnightblue" d="M601.97,-179.48C589.73,-170.02 569.77,-154.6 555.01,-143.19"/>
<polygon fill="midnightblue" stroke="midnightblue" points="557.06,-140.35 547.01,-137.01 552.78,-145.89 557.06,-140.35"/>
</g>
<!-- Node23 -->
<g id="node23" class="node">
<title>Node23</title>
<g id="a_node23"><a xlink:title=" ">
<polygon fill="white" stroke="#bfbfbf" points="654.5,-118 654.5,-137 737.5,-137 737.5,-118 654.5,-118"/>
<text text-anchor="middle" x="696" y="-125" font-family="Helvetica,sans-Serif" font-size="10.00">initializer_list</text>
</a>
</g>
</g>
<!-- Node22&#45;&gt;Node23 -->
<g id="edge37" class="edge">
<title>Node22&#45;&gt;Node23</title>
<path fill="none" stroke="midnightblue" d="M624.89,-179.48C638.2,-169.93 660,-154.31 675.96,-142.87"/>
<polygon fill="midnightblue" stroke="midnightblue" points="678.04,-145.68 684.13,-137.01 673.96,-139.99 678.04,-145.68"/>
</g>
<!-- Node24&#45;&gt;Node4 -->
<g id="edge47" class="edge">
<title>Node24&#45;&gt;Node4</title>
<path fill="none" stroke="midnightblue" d="M861.32,-179.27C846.14,-164.31 813.4,-133.31 782,-112 726.96,-74.66 656.42,-41.13 617.36,-23.68"/>
<polygon fill="midnightblue" stroke="midnightblue" points="618.69,-20.45 608.13,-19.6 615.86,-26.85 618.69,-20.45"/>
</g>
<!-- Node24&#45;&gt;Node6 -->
<g id="edge48" class="edge">
<title>Node24&#45;&gt;Node6</title>
<path fill="none" stroke="midnightblue" d="M865.6,-179.42C858.44,-164.13 846.55,-131.92 862,-112 907.48,-53.35 1135.2,-24.74 1233.12,-14.99"/>
<polygon fill="midnightblue" stroke="midnightblue" points="1233.68,-18.46 1243.29,-14 1233,-11.49 1233.68,-18.46"/>
</g>
<!-- Node24&#45;&gt;Node10 -->
<g id="edge42" class="edge">
<title>Node24&#45;&gt;Node10</title>
<path fill="none" stroke="midnightblue" d="M913.99,-179.48C969.15,-168.78 1063.7,-150.46 1123.15,-138.94"/>
<polygon fill="midnightblue" stroke="midnightblue" points="1123.94,-142.35 1133.1,-137.01 1122.61,-135.48 1123.94,-142.35"/>
</g>
<!-- Node24&#45;&gt;Node14 -->
<g id="edge45" class="edge">
<title>Node24&#45;&gt;Node14</title>
<path fill="none" stroke="midnightblue" d="M806.4,-180.04C803.56,-179.69 800.75,-179.34 798,-179 667.35,-162.84 634.59,-159.6 504,-143 491.64,-141.43 478.5,-139.72 465.76,-138.06"/>
<polygon fill="midnightblue" stroke="midnightblue" points="466.03,-134.56 455.66,-136.73 465.11,-141.5 466.03,-134.56"/>
</g>
<!-- Node24&#45;&gt;Node15 -->
<g id="edge43" class="edge">
<title>Node24&#45;&gt;Node15</title>
<path fill="none" stroke="midnightblue" d="M853.44,-179.39C837.04,-170.7 811.35,-156.64 790,-143 770.15,-130.32 769,-120.42 747,-112 684.53,-88.09 498.1,-75.43 395.54,-70.11"/>
<polygon fill="midnightblue" stroke="midnightblue" points="395.44,-66.6 385.28,-69.59 395.08,-73.59 395.44,-66.6"/>
</g>
<!-- Node24&#45;&gt;Node17 -->
<g id="edge44" class="edge">
<title>Node24&#45;&gt;Node17</title>
<path fill="none" stroke="midnightblue" d="M880.03,-179.48C889.33,-171.57 903.55,-159.48 915.8,-149.07"/>
<polygon fill="midnightblue" stroke="midnightblue" points="918.15,-151.67 923.5,-142.52 913.62,-146.33 918.15,-151.67"/>
</g>
<!-- Node24&#45;&gt;Node20 -->
<g id="edge49" class="edge">
<title>Node24&#45;&gt;Node20</title>
<path fill="none" stroke="midnightblue" d="M822.15,-179.48C753.57,-167.26 629.07,-145.08 569.5,-134.47"/>
<polygon fill="midnightblue" stroke="midnightblue" points="569.96,-130.99 559.5,-132.69 568.73,-137.89 569.96,-130.99"/>
</g>
<!-- Node24&#45;&gt;Node23 -->
<g id="edge46" class="edge">
<title>Node24&#45;&gt;Node23</title>
<path fill="none" stroke="midnightblue" d="M845.07,-179.48C814.96,-169.18 764.17,-151.81 730.36,-140.25"/>
<polygon fill="midnightblue" stroke="midnightblue" points="731.48,-136.93 720.88,-137.01 729.21,-143.56 731.48,-136.93"/>
</g>
<!-- Node25&#45;&gt;Node4 -->
<g id="edge59" class="edge">
<title>Node25&#45;&gt;Node4</title>
<path fill="none" stroke="midnightblue" d="M184.76,-358.31C186.37,-339.09 190,-291.46 190,-251.5 190,-251.5 190,-251.5 190,-126.5 190,-89.33 203.6,-75.89 235,-56 287.96,-22.45 478.81,-13.81 555.63,-11.67"/>
<polygon fill="midnightblue" stroke="midnightblue" points="555.78,-15.17 565.69,-11.41 555.6,-8.17 555.78,-15.17"/>
</g>
<!-- Node25&#45;&gt;Node16 -->
<g id="edge57" class="edge">
<title>Node25&#45;&gt;Node16</title>
<path fill="none" stroke="midnightblue" d="M153.03,-358.5C133.69,-351.65 109.75,-340.13 95,-322 74.52,-296.83 76,-283.95 76,-251.5 76,-251.5 76,-251.5 76,-126.5 76,-90.25 93.09,-50.67 104.35,-28.53"/>
<polygon fill="midnightblue" stroke="midnightblue" points="107.46,-30.14 109.03,-19.66 101.27,-26.87 107.46,-30.14"/>
</g>
<!-- Node26 -->
<g id="node26" class="node">
<title>Node26</title>
<g id="a_node26"><a xlink:title=" ">
<polygon fill="white" stroke="#bfbfbf" points="104.5,-302.5 104.5,-321.5 161.5,-321.5 161.5,-302.5 104.5,-302.5"/>
<text text-anchor="middle" x="133" y="-309.5" font-family="Helvetica,sans-Serif" font-size="10.00">ostream</text>
</a>
</g>
</g>
<!-- Node25&#45;&gt;Node26 -->
<g id="edge58" class="edge">
<title>Node25&#45;&gt;Node26</title>
<path fill="none" stroke="midnightblue" d="M175.58,-358.08C168.15,-350.22 157.15,-338.57 148.19,-329.08"/>
<polygon fill="midnightblue" stroke="midnightblue" points="150.68,-326.62 141.26,-321.75 145.59,-331.42 150.68,-326.62"/>
</g>
<!-- Node27&#45;&gt;Node9 -->
<g id="edge61" class="edge">
<title>Node27&#45;&gt;Node9</title>
<path fill="none" stroke="midnightblue" d="M652.09,-361.97C718.29,-352.99 857.8,-334.06 942.67,-322.54"/>
<polygon fill="midnightblue" stroke="midnightblue" points="943.3,-325.99 952.74,-321.18 942.36,-319.05 943.3,-325.99"/>
</g>
<!-- Node27&#45;&gt;Node16 -->
<g id="edge62" class="edge">
<title>Node27&#45;&gt;Node16</title>
<path fill="none" stroke="midnightblue" d="M597.17,-358.34C550.45,-335.32 421.32,-269.49 324,-199 245.49,-142.13 162.72,-60.69 129.31,-26.77"/>
<polygon fill="midnightblue" stroke="midnightblue" points="131.75,-24.26 122.25,-19.56 126.75,-29.15 131.75,-24.26"/>
</g>
<!-- Node29&#45;&gt;Node4 -->
<g id="edge72" class="edge">
<title>Node29&#45;&gt;Node4</title>
<path fill="none" stroke="midnightblue" d="M1356.18,-526.32C1344.58,-490.83 1316,-395.13 1316,-313 1316,-313 1316,-313 1316,-126.5 1316,-71.39 1265.99,-74.29 1214,-56 1102.84,-16.89 732.63,-11.75 620.48,-11.09"/>
<polygon fill="midnightblue" stroke="midnightblue" points="620.17,-7.59 610.15,-11.04 620.13,-14.59 620.17,-7.59"/>
</g>
<!-- Node30&#45;&gt;Node2 -->
<g id="edge77" class="edge">
<title>Node30&#45;&gt;Node2</title>
<path fill="none" stroke="midnightblue" d="M514.6,-593.48C525.05,-584.2 541.97,-569.17 554.74,-557.83"/>
<polygon fill="midnightblue" stroke="midnightblue" points="557.27,-560.27 562.42,-551.01 552.62,-555.03 557.27,-560.27"/>
</g>
<!-- Node30&#45;&gt;Node3 -->
<g id="edge78" class="edge">
<title>Node30&#45;&gt;Node3</title>
<path fill="none" stroke="midnightblue" d="M496.08,-593.3C475.35,-573.07 423.65,-522.62 397.18,-496.79"/>
<polygon fill="midnightblue" stroke="midnightblue" points="399.44,-494.1 389.84,-489.62 394.55,-499.11 399.44,-494.1"/>
</g>
<!-- Node30&#45;&gt;Node28 -->
<g id="edge79" class="edge">
<title>Node30&#45;&gt;Node28</title>
<path fill="none" stroke="midnightblue" d="M503.78,-593.3C501.03,-573.76 494.33,-526.06 490.61,-499.55"/>
<polygon fill="midnightblue" stroke="midnightblue" points="494.07,-499.04 489.21,-489.62 487.14,-500.01 494.07,-499.04"/>
</g>
</g>
</svg>
