<?xml version="1.0" encoding="UTF-8" standalone="no"?>
<!DOCTYPE svg PUBLIC "-//W3C//DTD SVG 1.1//EN"
 "http://www.w3.org/Graphics/SVG/1.1/DTD/svg11.dtd">
<!-- Generated by graphviz version 2.43.0 (0)
 -->
<!-- Title: main/compress.cpp Pages: 1 -->
<svg width="1334pt" height="308pt"
 viewBox="0.00 0.00 1333.73 308.00" xmlns="http://www.w3.org/2000/svg" xmlns:xlink="http://www.w3.org/1999/xlink">
<g id="graph0" class="graph" transform="scale(1 1) rotate(0) translate(4 304)">
<title>main/compress.cpp</title>
<polygon fill="white" stroke="transparent" points="-4,4 -4,-304 1329.73,-304 1329.73,4 -4,4"/>
<!-- Node1 -->
<g id="node1" class="node">
<title>Node1</title>
<g id="a_node1"><a xlink:title=" ">
<polygon fill="#bfbfbf" stroke="black" points="538.73,-280.5 538.73,-299.5 650.73,-299.5 650.73,-280.5 538.73,-280.5"/>
<text text-anchor="middle" x="594.73" y="-287.5" font-family="Helvetica,sans-Serif" font-size="10.00">main/compress.cpp</text>
</a>
</g>
</g>
<!-- Node2 -->
<g id="node2" class="node">
<title>Node2</title>
<g id="a_node2"><a xlink:title=" ">
<polygon fill="white" stroke="#bfbfbf" points="202.23,-168.5 202.23,-187.5 267.23,-187.5 267.23,-168.5 202.23,-168.5"/>
<text text-anchor="middle" x="234.73" y="-175.5" font-family="Helvetica,sans-Serif" font-size="10.00">functional</text>
</a>
</g>
</g>
<!-- Node1&#45;&gt;Node2 -->
<g id="edge1" class="edge">
<title>Node1&#45;&gt;Node2</title>
<path fill="none" stroke="midnightblue" d="M538.52,-285.11C463.43,-279.16 335.02,-266.08 293.73,-244 273.03,-232.93 255.88,-211.65 245.5,-196.45"/>
<polygon fill="midnightblue" stroke="midnightblue" points="248.33,-194.39 239.94,-187.92 242.47,-198.21 248.33,-194.39"/>
</g>
<!-- Node3 -->
<g id="node3" class="node">
<title>Node3</title>
<g id="a_node3"><a xlink:title=" ">
<polygon fill="white" stroke="#bfbfbf" points="599.73,-224.5 599.73,-243.5 691.73,-243.5 691.73,-224.5 599.73,-224.5"/>
<text text-anchor="middle" x="645.73" y="-231.5" font-family="Helvetica,sans-Serif" font-size="10.00">h2lib/dcluster.h</text>
</a>
</g>
</g>
<!-- Node1&#45;&gt;Node3 -->
<g id="edge2" class="edge">
<title>Node1&#45;&gt;Node3</title>
<path fill="none" stroke="midnightblue" d="M603.15,-280.08C610.58,-272.22 621.58,-260.57 630.54,-251.08"/>
<polygon fill="midnightblue" stroke="midnightblue" points="633.14,-253.42 637.46,-243.75 628.05,-248.62 633.14,-253.42"/>
</g>
<!-- Node4 -->
<g id="node4" class="node">
<title>Node4</title>
<g id="a_node4"><a xlink:title=" ">
<polygon fill="white" stroke="#bfbfbf" points="710.23,-224.5 710.23,-243.5 843.23,-243.5 843.23,-224.5 710.23,-224.5"/>
<text text-anchor="middle" x="776.73" y="-231.5" font-family="Helvetica,sans-Serif" font-size="10.00">h2lib/dh2compression.h</text>
</a>
</g>
</g>
<!-- Node1&#45;&gt;Node4 -->
<g id="edge3" class="edge">
<title>Node1&#45;&gt;Node4</title>
<path fill="none" stroke="midnightblue" d="M623.57,-280.44C654.58,-271.24 704.06,-256.56 738.35,-246.39"/>
<polygon fill="midnightblue" stroke="midnightblue" points="739.43,-249.72 748.02,-243.52 737.44,-243.01 739.43,-249.72"/>
</g>
<!-- Node5 -->
<g id="node5" class="node">
<title>Node5</title>
<g id="a_node5"><a xlink:title=" ">
<polygon fill="white" stroke="#bfbfbf" points="861.23,-224.5 861.23,-243.5 958.23,-243.5 958.23,-224.5 861.23,-224.5"/>
<text text-anchor="middle" x="909.73" y="-231.5" font-family="Helvetica,sans-Serif" font-size="10.00">h2lib/h2matrix.h</text>
</a>
</g>
</g>
<!-- Node1&#45;&gt;Node5 -->
<g id="edge4" class="edge">
<title>Node1&#45;&gt;Node5</title>
<path fill="none" stroke="midnightblue" d="M644.64,-280.44C700.72,-270.83 791.68,-255.24 851.1,-245.05"/>
<polygon fill="midnightblue" stroke="midnightblue" points="851.82,-248.48 861.08,-243.34 850.64,-241.58 851.82,-248.48"/>
</g>
<!-- Node6 -->
<g id="node6" class="node">
<title>Node6</title>
<g id="a_node6"><a xlink:title=" ">
<polygon fill="white" stroke="#bfbfbf" points="976.23,-224.5 976.23,-243.5 1089.23,-243.5 1089.23,-224.5 976.23,-224.5"/>
<text text-anchor="middle" x="1032.73" y="-231.5" font-family="Helvetica,sans-Serif" font-size="10.00">h2lib/helmholtz3d.h</text>
</a>
</g>
</g>
<!-- Node1&#45;&gt;Node6 -->
<g id="edge5" class="edge">
<title>Node1&#45;&gt;Node6</title>
<path fill="none" stroke="midnightblue" d="M651.01,-282.52C721.99,-274.28 848.1,-259.41 965.75,-244.24"/>
<polygon fill="midnightblue" stroke="midnightblue" points="966.55,-247.67 976.01,-242.91 965.65,-240.72 966.55,-247.67"/>
</g>
<!-- Node7 -->
<g id="node7" class="node">
<title>Node7</title>
<g id="a_node7"><a xlink:title=" ">
<polygon fill="white" stroke="#bfbfbf" points="1107.73,-224.5 1107.73,-243.5 1209.73,-243.5 1209.73,-224.5 1107.73,-224.5"/>
<text text-anchor="middle" x="1158.73" y="-231.5" font-family="Helvetica,sans-Serif" font-size="10.00">h2lib/truncation.h</text>
</a>
</g>
</g>
<!-- Node1&#45;&gt;Node7 -->
<g id="edge6" class="edge">
<title>Node1&#45;&gt;Node7</title>
<path fill="none" stroke="midnightblue" d="M650.78,-285.1C742.12,-278.49 929,-263.98 1097.64,-244.06"/>
<polygon fill="midnightblue" stroke="midnightblue" points="1098.18,-247.52 1107.69,-242.87 1097.35,-240.57 1098.18,-247.52"/>
</g>
<!-- Node8 -->
<g id="node8" class="node">
<title>Node8</title>
<g id="a_node8"><a xlink:href="logger_8h.html" target="_top" xlink:title=" ">
<polygon fill="white" stroke="black" points="104.73,-112.5 104.73,-131.5 194.73,-131.5 194.73,-112.5 104.73,-112.5"/>
<text text-anchor="middle" x="149.73" y="-119.5" font-family="Helvetica,sans-Serif" font-size="10.00">logger/logger.h</text>
</a>
</g>
</g>
<!-- Node1&#45;&gt;Node8 -->
<g id="edge7" class="edge">
<title>Node1&#45;&gt;Node8</title>
<path fill="none" stroke="midnightblue" d="M538.62,-284.82C458.01,-278.22 313.81,-264.06 265.73,-244 227.99,-228.26 220.61,-217.91 192.73,-188 179.21,-173.51 167.09,-154.32 159.19,-140.56"/>
<polygon fill="midnightblue" stroke="midnightblue" points="162.14,-138.67 154.22,-131.64 156.03,-142.08 162.14,-138.67"/>
</g>
<!-- Node13 -->
<g id="node13" class="node">
<title>Node13</title>
<g id="a_node13"><a xlink:href="cutils_8h.html" target="_top" xlink:title=" ">
<polygon fill="white" stroke="black" points="674.73,-112.5 674.73,-131.5 750.73,-131.5 750.73,-112.5 674.73,-112.5"/>
<text text-anchor="middle" x="712.73" y="-119.5" font-family="Helvetica,sans-Serif" font-size="10.00">utils/cutils.h</text>
</a>
</g>
</g>
<!-- Node1&#45;&gt;Node13 -->
<g id="edge13" class="edge">
<title>Node1&#45;&gt;Node13</title>
<path fill="none" stroke="midnightblue" d="M553.68,-280.38C533.77,-273.92 511.63,-262.81 499.73,-244 487.49,-224.66 501.55,-180.68 514.73,-168 520.19,-162.74 607.86,-144.2 664.69,-132.62"/>
<polygon fill="midnightblue" stroke="midnightblue" points="665.46,-136.04 674.57,-130.62 664.07,-129.18 665.46,-136.04"/>
</g>
<!-- Node16 -->
<g id="node16" class="node">
<title>Node16</title>
<g id="a_node16"><a xlink:href="functionals_8h.html" target="_top" xlink:title=" ">
<polygon fill="white" stroke="black" points="302.73,-224.5 302.73,-243.5 406.73,-243.5 406.73,-224.5 302.73,-224.5"/>
<text text-anchor="middle" x="354.73" y="-231.5" font-family="Helvetica,sans-Serif" font-size="10.00">utils/functionals.h</text>
</a>
</g>
</g>
<!-- Node1&#45;&gt;Node16 -->
<g id="edge17" class="edge">
<title>Node1&#45;&gt;Node16</title>
<path fill="none" stroke="midnightblue" d="M556.7,-280.44C514.92,-271.04 447.75,-255.93 402.46,-245.74"/>
<polygon fill="midnightblue" stroke="midnightblue" points="403.1,-242.3 392.58,-243.52 401.57,-249.13 403.1,-242.3"/>
</g>
<!-- Node17 -->
<g id="node17" class="node">
<title>Node17</title>
<g id="a_node17"><a xlink:href="options_8h.html" target="_top" xlink:title=" ">
<polygon fill="white" stroke="black" points="362.23,-168.5 362.23,-187.5 451.23,-187.5 451.23,-168.5 362.23,-168.5"/>
<text text-anchor="middle" x="406.73" y="-175.5" font-family="Helvetica,sans-Serif" font-size="10.00">main/options.h</text>
</a>
</g>
</g>
<!-- Node1&#45;&gt;Node17 -->
<g id="edge31" class="edge">
<title>Node1&#45;&gt;Node17</title>
<path fill="none" stroke="midnightblue" d="M554.58,-280.5C527.86,-273.56 492.82,-261.94 465.73,-244 446.36,-231.18 429.15,-210.6 418.38,-196.03"/>
<polygon fill="midnightblue" stroke="midnightblue" points="421.21,-193.97 412.55,-187.86 415.51,-198.03 421.21,-193.97"/>
</g>
<!-- Node25 -->
<g id="node25" class="node">
<title>Node25</title>
<g id="a_node25"><a xlink:href="surfacehelpers_8h.html" target="_top" xlink:title=" ">
<polygon fill="white" stroke="black" points="1227.73,-224.5 1227.73,-243.5 1325.73,-243.5 1325.73,-224.5 1227.73,-224.5"/>
<text text-anchor="middle" x="1276.73" y="-231.5" font-family="Helvetica,sans-Serif" font-size="10.00">surfacehelpers.h</text>
</a>
</g>
</g>
<!-- Node1&#45;&gt;Node25 -->
<g id="edge32" class="edge">
<title>Node1&#45;&gt;Node25</title>
<path fill="none" stroke="midnightblue" d="M650.8,-286.5C758.54,-281.36 1002.13,-268.11 1217.48,-244.05"/>
<polygon fill="midnightblue" stroke="midnightblue" points="1218.17,-247.49 1227.72,-242.89 1217.39,-240.54 1218.17,-247.49"/>
</g>
<!-- Node26 -->
<g id="node26" class="node">
<title>Node26</title>
<g id="a_node26"><a xlink:href="compress_8h.html" target="_top" xlink:title=" ">
<polygon fill="white" stroke="black" points="508.23,-224.5 508.23,-243.5 581.23,-243.5 581.23,-224.5 508.23,-224.5"/>
<text text-anchor="middle" x="544.73" y="-231.5" font-family="Helvetica,sans-Serif" font-size="10.00">compress.h</text>
</a>
</g>
</g>
<!-- Node1&#45;&gt;Node26 -->
<g id="edge33" class="edge">
<title>Node1&#45;&gt;Node26</title>
<path fill="none" stroke="midnightblue" d="M586.47,-280.08C579.26,-272.3 568.62,-260.8 559.88,-251.37"/>
<polygon fill="midnightblue" stroke="midnightblue" points="562.19,-248.71 552.83,-243.75 557.06,-253.47 562.19,-248.71"/>
</g>
<!-- Node9 -->
<g id="node9" class="node">
<title>Node9</title>
<g id="a_node9"><a xlink:title=" ">
<polygon fill="white" stroke="#bfbfbf" points="140.23,-0.5 140.23,-19.5 209.23,-19.5 209.23,-0.5 140.23,-0.5"/>
<text text-anchor="middle" x="174.73" y="-7.5" font-family="Helvetica,sans-Serif" font-size="10.00">type_traits</text>
</a>
</g>
</g>
<!-- Node8&#45;&gt;Node9 -->
<g id="edge8" class="edge">
<title>Node8&#45;&gt;Node9</title>
<path fill="none" stroke="midnightblue" d="M104.42,-116.62C52.54,-109.76 -21.83,-93.21 6.73,-56 21.69,-36.5 85.58,-23.6 130.1,-16.79"/>
<polygon fill="midnightblue" stroke="midnightblue" points="130.74,-20.24 140.12,-15.32 129.72,-13.31 130.74,-20.24"/>
</g>
<!-- Node10 -->
<g id="node10" class="node">
<title>Node10</title>
<g id="a_node10"><a xlink:title=" ">
<polygon fill="white" stroke="#bfbfbf" points="111.73,-56.5 111.73,-75.5 169.73,-75.5 169.73,-56.5 111.73,-56.5"/>
<text text-anchor="middle" x="140.73" y="-63.5" font-family="Helvetica,sans-Serif" font-size="10.00">memory</text>
</a>
</g>
</g>
<!-- Node8&#45;&gt;Node10 -->
<g id="edge9" class="edge">
<title>Node8&#45;&gt;Node10</title>
<path fill="none" stroke="midnightblue" d="M148.24,-112.08C147.05,-104.93 145.33,-94.64 143.84,-85.69"/>
<polygon fill="midnightblue" stroke="midnightblue" points="147.28,-85.04 142.19,-75.75 140.38,-86.19 147.28,-85.04"/>
</g>
<!-- Node11 -->
<g id="node11" class="node">
<title>Node11</title>
<g id="a_node11"><a xlink:href="enum_8h.html" target="_top" xlink:title=" ">
<polygon fill="white" stroke="black" points="16.23,-56.5 16.23,-75.5 93.23,-75.5 93.23,-56.5 16.23,-56.5"/>
<text text-anchor="middle" x="54.73" y="-63.5" font-family="Helvetica,sans-Serif" font-size="10.00">utils/enum.h</text>
</a>
</g>
</g>
<!-- Node8&#45;&gt;Node11 -->
<g id="edge10" class="edge">
<title>Node8&#45;&gt;Node11</title>
<path fill="none" stroke="midnightblue" d="M134.46,-112.32C119.51,-103.82 96.47,-90.73 79,-80.8"/>
<polygon fill="midnightblue" stroke="midnightblue" points="80.38,-77.55 69.95,-75.65 76.92,-83.64 80.38,-77.55"/>
</g>
<!-- Node12 -->
<g id="node12" class="node">
<title>Node12</title>
<g id="a_node12"><a xlink:title=" ">
<polygon fill="white" stroke="#bfbfbf" points="187.73,-56.5 187.73,-75.5 267.73,-75.5 267.73,-56.5 187.73,-56.5"/>
<text text-anchor="middle" x="227.73" y="-63.5" font-family="Helvetica,sans-Serif" font-size="10.00">logger.levels</text>
</a>
</g>
</g>
<!-- Node8&#45;&gt;Node12 -->
<g id="edge12" class="edge">
<title>Node8&#45;&gt;Node12</title>
<path fill="none" stroke="midnightblue" d="M162.26,-112.32C174.31,-103.98 192.75,-91.21 207,-81.35"/>
<polygon fill="midnightblue" stroke="midnightblue" points="209,-84.22 215.23,-75.65 205.01,-78.47 209,-84.22"/>
</g>
<!-- Node11&#45;&gt;Node9 -->
<g id="edge11" class="edge">
<title>Node11&#45;&gt;Node9</title>
<path fill="none" stroke="midnightblue" d="M73.74,-56.44C93.31,-47.64 124.03,-33.81 146.46,-23.72"/>
<polygon fill="midnightblue" stroke="midnightblue" points="148.12,-26.81 155.8,-19.52 145.25,-20.43 148.12,-26.81"/>
</g>
<!-- Node13&#45;&gt;Node9 -->
<g id="edge14" class="edge">
<title>Node13&#45;&gt;Node9</title>
<path fill="none" stroke="midnightblue" d="M704.68,-112.39C690.51,-97.87 659.49,-68.83 626.73,-56 553.31,-27.25 318.81,-15.96 219.66,-12.39"/>
<polygon fill="midnightblue" stroke="midnightblue" points="219.5,-8.88 209.38,-12.03 219.25,-15.88 219.5,-8.88"/>
</g>
<!-- Node14 -->
<g id="node14" class="node">
<title>Node14</title>
<g id="a_node14"><a xlink:title=" ">
<polygon fill="white" stroke="#bfbfbf" points="673.73,-56.5 673.73,-75.5 751.73,-75.5 751.73,-56.5 673.73,-56.5"/>
<text text-anchor="middle" x="712.73" y="-63.5" font-family="Helvetica,sans-Serif" font-size="10.00">h2lib/basic.h</text>
</a>
</g>
</g>
<!-- Node13&#45;&gt;Node14 -->
<g id="edge15" class="edge">
<title>Node13&#45;&gt;Node14</title>
<path fill="none" stroke="midnightblue" d="M712.73,-112.08C712.73,-105.01 712.73,-94.86 712.73,-85.99"/>
<polygon fill="midnightblue" stroke="midnightblue" points="716.23,-85.75 712.73,-75.75 709.23,-85.75 716.23,-85.75"/>
</g>
<!-- Node15 -->
<g id="node15" class="node">
<title>Node15</title>
<g id="a_node15"><a xlink:title=" ">
<polygon fill="white" stroke="#bfbfbf" points="770.23,-56.5 770.23,-75.5 873.23,-75.5 873.23,-56.5 770.23,-56.5"/>
<text text-anchor="middle" x="821.73" y="-63.5" font-family="Helvetica,sans-Serif" font-size="10.00">h2lib/dh2matrix.h</text>
</a>
</g>
</g>
<!-- Node13&#45;&gt;Node15 -->
<g id="edge16" class="edge">
<title>Node13&#45;&gt;Node15</title>
<path fill="none" stroke="midnightblue" d="M730.24,-112.32C747.8,-103.62 775.06,-90.12 795.26,-80.11"/>
<polygon fill="midnightblue" stroke="midnightblue" points="796.85,-83.23 804.26,-75.65 793.74,-76.96 796.85,-83.23"/>
</g>
<!-- Node16&#45;&gt;Node2 -->
<g id="edge19" class="edge">
<title>Node16&#45;&gt;Node2</title>
<path fill="none" stroke="midnightblue" d="M335.71,-224.44C316.14,-215.64 285.42,-201.81 263,-191.72"/>
<polygon fill="midnightblue" stroke="midnightblue" points="264.21,-188.43 253.65,-187.52 261.34,-194.81 264.21,-188.43"/>
</g>
<!-- Node16&#45;&gt;Node9 -->
<g id="edge18" class="edge">
<title>Node16&#45;&gt;Node9</title>
<path fill="none" stroke="midnightblue" d="M351.31,-224.26C338,-190.39 289.78,-69.06 276.73,-56 261.04,-40.31 238.95,-29.65 219.34,-22.66"/>
<polygon fill="midnightblue" stroke="midnightblue" points="220.24,-19.27 209.65,-19.42 218.03,-25.91 220.24,-19.27"/>
</g>
<!-- Node16&#45;&gt;Node17 -->
<g id="edge20" class="edge">
<title>Node16&#45;&gt;Node17</title>
<path fill="none" stroke="midnightblue" d="M363.31,-224.08C370.89,-216.22 382.11,-204.57 391.24,-195.08"/>
<polygon fill="midnightblue" stroke="midnightblue" points="393.88,-197.38 398.3,-187.75 388.84,-192.53 393.88,-197.38"/>
</g>
<!-- Node17&#45;&gt;Node8 -->
<g id="edge24" class="edge">
<title>Node17&#45;&gt;Node8</title>
<path fill="none" stroke="midnightblue" d="M366,-168.44C321.08,-159 248.73,-143.8 200.23,-133.61"/>
<polygon fill="midnightblue" stroke="midnightblue" points="200.76,-130.15 190.26,-131.52 199.33,-137 200.76,-130.15"/>
</g>
<!-- Node17&#45;&gt;Node13 -->
<g id="edge25" class="edge">
<title>Node17&#45;&gt;Node13</title>
<path fill="none" stroke="midnightblue" d="M451.69,-169.43C501.26,-161.03 583.64,-146.91 664.19,-132.26"/>
<polygon fill="midnightblue" stroke="midnightblue" points="665.31,-135.61 674.52,-130.37 664.05,-128.72 665.31,-135.61"/>
</g>
<!-- Node18 -->
<g id="node18" class="node">
<title>Node18</title>
<g id="a_node18"><a xlink:title=" ">
<polygon fill="white" stroke="#bfbfbf" points="395.73,-56.5 395.73,-75.5 439.73,-75.5 439.73,-56.5 395.73,-56.5"/>
<text text-anchor="middle" x="417.73" y="-63.5" font-family="Helvetica,sans-Serif" font-size="10.00">string</text>
</a>
</g>
</g>
<!-- Node17&#45;&gt;Node18 -->
<g id="edge21" class="edge">
<title>Node17&#45;&gt;Node18</title>
<path fill="none" stroke="midnightblue" d="M411.35,-168.34C415.79,-159.49 422.18,-145.22 424.73,-132 427.68,-116.66 425.43,-99.02 422.72,-85.99"/>
<polygon fill="midnightblue" stroke="midnightblue" points="426.05,-84.83 420.34,-75.9 419.23,-86.44 426.05,-84.83"/>
</g>
<!-- Node19 -->
<g id="node19" class="node">
<title>Node19</title>
<g id="a_node19"><a xlink:title=" ">
<polygon fill="white" stroke="#bfbfbf" points="547.23,-112.5 547.23,-131.5 656.23,-131.5 656.23,-112.5 547.23,-112.5"/>
<text text-anchor="middle" x="601.73" y="-119.5" font-family="Helvetica,sans-Serif" font-size="10.00">h2lib/parameters.h</text>
</a>
</g>
</g>
<!-- Node17&#45;&gt;Node19 -->
<g id="edge22" class="edge">
<title>Node17&#45;&gt;Node19</title>
<path fill="none" stroke="midnightblue" d="M437.63,-168.44C471,-159.2 524.32,-144.44 561.08,-134.26"/>
<polygon fill="midnightblue" stroke="midnightblue" points="562.27,-137.56 570.97,-131.52 560.4,-130.81 562.27,-137.56"/>
</g>
<!-- Node20 -->
<g id="node20" class="node">
<title>Node20</title>
<g id="a_node20"><a xlink:title=" ">
<polygon fill="white" stroke="#bfbfbf" points="323.73,-112.5 323.73,-131.5 415.73,-131.5 415.73,-112.5 323.73,-112.5"/>
<text text-anchor="middle" x="369.73" y="-119.5" font-family="Helvetica,sans-Serif" font-size="10.00">h2lib/reporter.h</text>
</a>
</g>
</g>
<!-- Node17&#45;&gt;Node20 -->
<g id="edge23" class="edge">
<title>Node17&#45;&gt;Node20</title>
<path fill="none" stroke="midnightblue" d="M400.62,-168.08C395.44,-160.53 387.88,-149.49 381.53,-140.23"/>
<polygon fill="midnightblue" stroke="midnightblue" points="384.26,-138.02 375.72,-131.75 378.49,-141.98 384.26,-138.02"/>
</g>
<!-- Node21 -->
<g id="node21" class="node">
<title>Node21</title>
<g id="a_node21"><a xlink:href="timing_8h.html" target="_top" xlink:title=" ">
<polygon fill="white" stroke="black" points="472.23,-112.5 472.23,-131.5 529.23,-131.5 529.23,-112.5 472.23,-112.5"/>
<text text-anchor="middle" x="500.73" y="-119.5" font-family="Helvetica,sans-Serif" font-size="10.00">timing.h</text>
</a>
</g>
</g>
<!-- Node17&#45;&gt;Node21 -->
<g id="edge26" class="edge">
<title>Node17&#45;&gt;Node21</title>
<path fill="none" stroke="midnightblue" d="M421.83,-168.32C436.63,-159.82 459.42,-146.73 476.71,-136.8"/>
<polygon fill="midnightblue" stroke="midnightblue" points="478.73,-139.67 485.66,-131.65 475.25,-133.6 478.73,-139.67"/>
</g>
<!-- Node21&#45;&gt;Node18 -->
<g id="edge30" class="edge">
<title>Node21&#45;&gt;Node18</title>
<path fill="none" stroke="midnightblue" d="M487.39,-112.32C474.56,-103.98 454.94,-91.21 439.79,-81.35"/>
<polygon fill="midnightblue" stroke="midnightblue" points="441.32,-78.17 431.03,-75.65 437.5,-84.04 441.32,-78.17"/>
</g>
<!-- Node22 -->
<g id="node22" class="node">
<title>Node22</title>
<g id="a_node22"><a xlink:title=" ">
<polygon fill="white" stroke="#bfbfbf" points="508.23,-56.5 508.23,-75.5 555.23,-75.5 555.23,-56.5 508.23,-56.5"/>
<text text-anchor="middle" x="531.73" y="-63.5" font-family="Helvetica,sans-Serif" font-size="10.00">cmath</text>
</a>
</g>
</g>
<!-- Node21&#45;&gt;Node22 -->
<g id="edge27" class="edge">
<title>Node21&#45;&gt;Node22</title>
<path fill="none" stroke="midnightblue" d="M505.85,-112.08C510.13,-104.61 516.39,-93.72 521.67,-84.52"/>
<polygon fill="midnightblue" stroke="midnightblue" points="524.76,-86.17 526.7,-75.75 518.69,-82.68 524.76,-86.17"/>
</g>
<!-- Node23 -->
<g id="node23" class="node">
<title>Node23</title>
<g id="a_node23"><a xlink:title=" ">
<polygon fill="white" stroke="#bfbfbf" points="573.73,-56.5 573.73,-75.5 617.73,-75.5 617.73,-56.5 573.73,-56.5"/>
<text text-anchor="middle" x="595.73" y="-63.5" font-family="Helvetica,sans-Serif" font-size="10.00">ctime</text>
</a>
</g>
</g>
<!-- Node21&#45;&gt;Node23 -->
<g id="edge28" class="edge">
<title>Node21&#45;&gt;Node23</title>
<path fill="none" stroke="midnightblue" d="M515.99,-112.32C530.95,-103.82 553.98,-90.73 571.45,-80.8"/>
<polygon fill="midnightblue" stroke="midnightblue" points="573.54,-83.64 580.5,-75.65 570.08,-77.55 573.54,-83.64"/>
</g>
<!-- Node24 -->
<g id="node24" class="node">
<title>Node24</title>
<g id="a_node24"><a xlink:title=" ">
<polygon fill="white" stroke="#bfbfbf" points="457.73,-56.5 457.73,-75.5 489.73,-75.5 489.73,-56.5 457.73,-56.5"/>
<text text-anchor="middle" x="473.73" y="-63.5" font-family="Helvetica,sans-Serif" font-size="10.00">list</text>
</a>
</g>
</g>
<!-- Node21&#45;&gt;Node24 -->
<g id="edge29" class="edge">
<title>Node21&#45;&gt;Node24</title>
<path fill="none" stroke="midnightblue" d="M496.27,-112.08C492.57,-104.69 487.2,-93.95 482.63,-84.81"/>
<polygon fill="midnightblue" stroke="midnightblue" points="485.71,-83.13 478.1,-75.75 479.44,-86.26 485.71,-83.13"/>
</g>
<!-- Node26&#45;&gt;Node13 -->
<g id="edge35" class="edge">
<title>Node26&#45;&gt;Node13</title>
<path fill="none" stroke="midnightblue" d="M557.91,-224.37C586.74,-205.49 655.63,-160.38 690.98,-137.24"/>
<polygon fill="midnightblue" stroke="midnightblue" points="693.16,-140 699.61,-131.59 689.32,-134.14 693.16,-140"/>
</g>
<!-- Node27 -->
<g id="node27" class="node">
<title>Node27</title>
<g id="a_node27"><a xlink:title=" ">
<polygon fill="white" stroke="#bfbfbf" points="523.73,-168.5 523.73,-187.5 565.73,-187.5 565.73,-168.5 523.73,-168.5"/>
<text text-anchor="middle" x="544.73" y="-175.5" font-family="Helvetica,sans-Serif" font-size="10.00">array</text>
</a>
</g>
</g>
<!-- Node26&#45;&gt;Node27 -->
<g id="edge34" class="edge">
<title>Node26&#45;&gt;Node27</title>
<path fill="none" stroke="midnightblue" d="M544.73,-224.08C544.73,-217.01 544.73,-206.86 544.73,-197.99"/>
<polygon fill="midnightblue" stroke="midnightblue" points="548.23,-197.75 544.73,-187.75 541.23,-197.75 548.23,-197.75"/>
</g>
</g>
</svg>
