<?xml version="1.0" encoding="UTF-8" standalone="no"?>
<!DOCTYPE svg PUBLIC "-//W3C//DTD SVG 1.1//EN"
 "http://www.w3.org/Graphics/SVG/1.1/DTD/svg11.dtd">
<!-- Generated by graphviz version 2.43.0 (0)
 -->
<!-- Title: utils/cutils.h Pages: 1 -->
<svg width="1563pt" height="308pt"
 viewBox="0.00 0.00 1562.50 308.00" xmlns="http://www.w3.org/2000/svg" xmlns:xlink="http://www.w3.org/1999/xlink">
<g id="graph0" class="graph" transform="scale(1 1) rotate(0) translate(4 304)">
<title>utils/cutils.h</title>
<polygon fill="white" stroke="transparent" points="-4,4 -4,-304 1558.5,-304 1558.5,4 -4,4"/>
<!-- Node1 -->
<g id="node1" class="node">
<title>Node1</title>
<g id="a_node1"><a xlink:title=" ">
<polygon fill="#bfbfbf" stroke="black" points="937,-280.5 937,-299.5 1013,-299.5 1013,-280.5 937,-280.5"/>
<text text-anchor="middle" x="975" y="-287.5" font-family="Helvetica,sans-Serif" font-size="10.00">utils/cutils.h</text>
</a>
</g>
</g>
<!-- Node2 -->
<g id="node2" class="node">
<title>Node2</title>
<g id="a_node2"><a xlink:href="compress_8cpp.html" target="_top" xlink:title=" ">
<polygon fill="white" stroke="black" points="188,-56.5 188,-75.5 300,-75.5 300,-56.5 188,-56.5"/>
<text text-anchor="middle" x="244" y="-63.5" font-family="Helvetica,sans-Serif" font-size="10.00">main/compress.cpp</text>
</a>
</g>
</g>
<!-- Node1&#45;&gt;Node2 -->
<g id="edge1" class="edge">
<title>Node1&#45;&gt;Node2</title>
<path fill="none" stroke="midnightblue" d="M926.93,-289.1C830.25,-288.42 605.76,-282.41 422,-244 316.54,-221.96 246.38,-232.29 207,-132 198.65,-110.73 219.27,-87.98 232.97,-75.84"/>
<polygon fill="midnightblue" stroke="midnightblue" points="926.97,-292.6 936.99,-289.15 927.01,-285.6 926.97,-292.6"/>
</g>
<!-- Node3 -->
<g id="node3" class="node">
<title>Node3</title>
<g id="a_node3"><a xlink:href="compress_8h.html" target="_top" xlink:title=" ">
<polygon fill="white" stroke="black" points="28.5,-168.5 28.5,-187.5 129.5,-187.5 129.5,-168.5 28.5,-168.5"/>
<text text-anchor="middle" x="79" y="-175.5" font-family="Helvetica,sans-Serif" font-size="10.00">main/compress.h</text>
</a>
</g>
</g>
<!-- Node1&#45;&gt;Node3 -->
<g id="edge2" class="edge">
<title>Node1&#45;&gt;Node3</title>
<path fill="none" stroke="midnightblue" d="M926.56,-288.39C759.75,-286.01 215.37,-275.85 144,-244 116.6,-231.77 94.39,-202.45 84.52,-187.73"/>
<polygon fill="midnightblue" stroke="midnightblue" points="926.95,-291.89 937,-288.53 927.05,-284.89 926.95,-291.89"/>
</g>
<!-- Node4 -->
<g id="node4" class="node">
<title>Node4</title>
<g id="a_node4"><a xlink:href="dh2operator_8cpp.html" target="_top" xlink:title=" ">
<polygon fill="white" stroke="black" points="224,-112.5 224,-131.5 348,-131.5 348,-112.5 224,-112.5"/>
<text text-anchor="middle" x="286" y="-119.5" font-family="Helvetica,sans-Serif" font-size="10.00">main/dh2operator.cpp</text>
</a>
</g>
</g>
<!-- Node1&#45;&gt;Node4 -->
<g id="edge5" class="edge">
<title>Node1&#45;&gt;Node4</title>
<path fill="none" stroke="midnightblue" d="M927.58,-278.16C888.28,-269.15 830.97,-255.9 781,-244 607.59,-202.69 400.49,-151.45 320.17,-131.5"/>
<polygon fill="midnightblue" stroke="midnightblue" points="926.89,-281.6 937.42,-280.42 928.45,-274.77 926.89,-281.6"/>
</g>
<!-- Node5 -->
<g id="node5" class="node">
<title>Node5</title>
<g id="a_node5"><a xlink:href="dh2operator_8h.html" target="_top" xlink:title=" ">
<polygon fill="white" stroke="black" points="958.5,-168.5 958.5,-187.5 1071.5,-187.5 1071.5,-168.5 958.5,-168.5"/>
<text text-anchor="middle" x="1015" y="-175.5" font-family="Helvetica,sans-Serif" font-size="10.00">main/dh2operator.h</text>
</a>
</g>
</g>
<!-- Node1&#45;&gt;Node5 -->
<g id="edge6" class="edge">
<title>Node1&#45;&gt;Node5</title>
<path fill="none" stroke="midnightblue" d="M981.66,-270.67C990.41,-246.62 1005.4,-205.39 1011.88,-187.59"/>
<polygon fill="midnightblue" stroke="midnightblue" points="978.27,-269.77 978.14,-280.37 984.85,-272.17 978.27,-269.77"/>
</g>
<!-- Node6 -->
<g id="node6" class="node">
<title>Node6</title>
<g id="a_node6"><a xlink:href="surface_8cpp.html" target="_top" xlink:title=" ">
<polygon fill="white" stroke="black" points="779.5,-56.5 779.5,-75.5 880.5,-75.5 880.5,-56.5 779.5,-56.5"/>
<text text-anchor="middle" x="830" y="-63.5" font-family="Helvetica,sans-Serif" font-size="10.00">main/surface.cpp</text>
</a>
</g>
</g>
<!-- Node1&#45;&gt;Node6 -->
<g id="edge38" class="edge">
<title>Node1&#45;&gt;Node6</title>
<path fill="none" stroke="midnightblue" d="M926.71,-286.77C773.73,-278.61 304.54,-244.63 215,-132 209.47,-125.04 208.95,-118.51 215,-112 253.08,-71.03 638.89,-66.96 779.27,-66.85"/>
<polygon fill="midnightblue" stroke="midnightblue" points="926.58,-290.27 936.75,-287.3 926.95,-283.28 926.58,-290.27"/>
</g>
<!-- Node7 -->
<g id="node7" class="node">
<title>Node7</title>
<g id="a_node7"><a xlink:href="surface_8h.html" target="_top" xlink:title=" ">
<polygon fill="white" stroke="black" points="1245.5,-112.5 1245.5,-131.5 1334.5,-131.5 1334.5,-112.5 1245.5,-112.5"/>
<text text-anchor="middle" x="1290" y="-119.5" font-family="Helvetica,sans-Serif" font-size="10.00">main/surface.h</text>
</a>
</g>
</g>
<!-- Node1&#45;&gt;Node7 -->
<g id="edge39" class="edge">
<title>Node1&#45;&gt;Node7</title>
<path fill="none" stroke="midnightblue" d="M1023.27,-287.67C1068.69,-284.47 1137.15,-274.43 1188,-244 1236.57,-214.93 1273.02,-154.3 1285.4,-131.72"/>
<polygon fill="midnightblue" stroke="midnightblue" points="1022.85,-284.19 1013.09,-288.31 1023.29,-291.18 1022.85,-284.19"/>
</g>
<!-- Node8 -->
<g id="node8" class="node">
<title>Node8</title>
<g id="a_node8"><a xlink:href="multisurface_8cpp.html" target="_top" xlink:title=" ">
<polygon fill="white" stroke="black" points="801,-0.5 801,-19.5 927,-19.5 927,-0.5 801,-0.5"/>
<text text-anchor="middle" x="864" y="-7.5" font-family="Helvetica,sans-Serif" font-size="10.00">main/multisurface.cpp</text>
</a>
</g>
</g>
<!-- Node1&#45;&gt;Node8 -->
<g id="edge21" class="edge">
<title>Node1&#45;&gt;Node8</title>
<path fill="none" stroke="midnightblue" d="M926.63,-289.45C768.21,-290.46 266.29,-289.87 112,-244 56.83,-227.6 0,-236.55 0,-179 0,-179 0,-179 0,-121 0,-40.24 601.64,-17.67 800.82,-12.41"/>
<polygon fill="midnightblue" stroke="midnightblue" points="927.02,-292.95 937,-289.38 926.97,-285.95 927.02,-292.95"/>
</g>
<!-- Node9 -->
<g id="node9" class="node">
<title>Node9</title>
<g id="a_node9"><a xlink:href="multisurface_8h.html" target="_top" xlink:title=" ">
<polygon fill="white" stroke="black" points="1232.5,-56.5 1232.5,-75.5 1347.5,-75.5 1347.5,-56.5 1232.5,-56.5"/>
<text text-anchor="middle" x="1290" y="-63.5" font-family="Helvetica,sans-Serif" font-size="10.00">main/multisurface.h</text>
</a>
</g>
</g>
<!-- Node1&#45;&gt;Node9 -->
<g id="edge22" class="edge">
<title>Node1&#45;&gt;Node9</title>
<path fill="none" stroke="midnightblue" d="M1023.35,-287.7C1133.14,-284.23 1393.77,-273.02 1420,-244 1474.2,-184.04 1349.48,-102 1305,-75.57"/>
<polygon fill="midnightblue" stroke="midnightblue" points="1023.1,-284.2 1013.21,-288.01 1023.31,-291.2 1023.1,-284.2"/>
</g>
<!-- Node11 -->
<g id="node11" class="node">
<title>Node11</title>
<g id="a_node11"><a xlink:href="functions_8h.html" target="_top" xlink:title=" ">
<polygon fill="white" stroke="black" points="1277,-168.5 1277,-187.5 1375,-187.5 1375,-168.5 1277,-168.5"/>
<text text-anchor="middle" x="1326" y="-175.5" font-family="Helvetica,sans-Serif" font-size="10.00">main/functions.h</text>
</a>
</g>
</g>
<!-- Node1&#45;&gt;Node11 -->
<g id="edge15" class="edge">
<title>Node1&#45;&gt;Node11</title>
<path fill="none" stroke="midnightblue" d="M1023.25,-285.18C1094.07,-278.96 1222.15,-265.16 1263,-244 1288.95,-230.55 1310.45,-202.33 1320.27,-187.91"/>
<polygon fill="midnightblue" stroke="midnightblue" points="1022.9,-281.7 1013.24,-286.05 1023.5,-288.68 1022.9,-281.7"/>
</g>
<!-- Node13 -->
<g id="node13" class="node">
<title>Node13</title>
<g id="a_node13"><a xlink:href="meshreader_8cpp.html" target="_top" xlink:title=" ">
<polygon fill="white" stroke="black" points="861.5,-112.5 861.5,-131.5 984.5,-131.5 984.5,-112.5 861.5,-112.5"/>
<text text-anchor="middle" x="923" y="-119.5" font-family="Helvetica,sans-Serif" font-size="10.00">main/meshreader.cpp</text>
</a>
</g>
</g>
<!-- Node1&#45;&gt;Node13 -->
<g id="edge20" class="edge">
<title>Node1&#45;&gt;Node13</title>
<path fill="none" stroke="midnightblue" d="M969.17,-270.39C957.95,-234.59 933.76,-157.34 925.68,-131.57"/>
<polygon fill="midnightblue" stroke="midnightblue" points="965.87,-271.58 972.2,-280.08 972.55,-269.49 965.87,-271.58"/>
</g>
<!-- Node14 -->
<g id="node14" class="node">
<title>Node14</title>
<g id="a_node14"><a xlink:href="options_8h.html" target="_top" xlink:title=" ">
<polygon fill="white" stroke="black" points="608.5,-168.5 608.5,-187.5 697.5,-187.5 697.5,-168.5 608.5,-168.5"/>
<text text-anchor="middle" x="653" y="-175.5" font-family="Helvetica,sans-Serif" font-size="10.00">main/options.h</text>
</a>
</g>
</g>
<!-- Node1&#45;&gt;Node14 -->
<g id="edge23" class="edge">
<title>Node1&#45;&gt;Node14</title>
<path fill="none" stroke="midnightblue" d="M940.18,-277.1C874.85,-254.79 735.35,-207.13 678.2,-187.61"/>
<polygon fill="midnightblue" stroke="midnightblue" points="939.41,-280.54 950,-280.46 941.67,-273.92 939.41,-280.54"/>
</g>
<!-- Node18 -->
<g id="node18" class="node">
<title>Node18</title>
<g id="a_node18"><a xlink:href="timing_8cpp.html" target="_top" xlink:title=" ">
<polygon fill="white" stroke="black" points="1315,-224.5 1315,-243.5 1411,-243.5 1411,-224.5 1315,-224.5"/>
<text text-anchor="middle" x="1363" y="-231.5" font-family="Helvetica,sans-Serif" font-size="10.00">main/timing.cpp</text>
</a>
</g>
</g>
<!-- Node1&#45;&gt;Node18 -->
<g id="edge40" class="edge">
<title>Node1&#45;&gt;Node18</title>
<path fill="none" stroke="midnightblue" d="M1023.29,-282.44C1086.95,-273.77 1202.4,-257.96 1301,-244 1305.52,-243.36 1310.23,-242.69 1314.94,-242.01"/>
<polygon fill="midnightblue" stroke="midnightblue" points="1022.59,-279 1013.16,-283.82 1023.54,-285.94 1022.59,-279"/>
</g>
<!-- Node19 -->
<g id="node19" class="node">
<title>Node19</title>
<g id="a_node19"><a xlink:href="arrays_8h.html" target="_top" xlink:title=" ">
<polygon fill="white" stroke="black" points="1099,-224.5 1099,-243.5 1179,-243.5 1179,-224.5 1099,-224.5"/>
<text text-anchor="middle" x="1139" y="-231.5" font-family="Helvetica,sans-Serif" font-size="10.00">utils/arrays.h</text>
</a>
</g>
</g>
<!-- Node1&#45;&gt;Node19 -->
<g id="edge41" class="edge">
<title>Node1&#45;&gt;Node19</title>
<path fill="none" stroke="midnightblue" d="M1010.52,-277.3C1041.42,-267.13 1085.47,-252.62 1113.14,-243.52"/>
<polygon fill="midnightblue" stroke="midnightblue" points="1009.39,-273.99 1000.99,-280.44 1011.58,-280.64 1009.39,-273.99"/>
</g>
<!-- Node21 -->
<g id="node21" class="node">
<title>Node21</title>
<g id="a_node21"><a xlink:href="cutils_8cpp.html" target="_top" xlink:title=" ">
<polygon fill="white" stroke="black" points="1467.5,-224.5 1467.5,-243.5 1554.5,-243.5 1554.5,-224.5 1467.5,-224.5"/>
<text text-anchor="middle" x="1511" y="-231.5" font-family="Helvetica,sans-Serif" font-size="10.00">utils/cutils.cpp</text>
</a>
</g>
</g>
<!-- Node1&#45;&gt;Node21 -->
<g id="edge47" class="edge">
<title>Node1&#45;&gt;Node21</title>
<path fill="none" stroke="midnightblue" d="M1023.21,-285.42C1109.56,-278.81 1296.22,-263.53 1453,-244 1457.65,-243.42 1462.5,-242.76 1467.34,-242.06"/>
<polygon fill="midnightblue" stroke="midnightblue" points="1022.9,-281.94 1013.19,-286.19 1023.43,-288.92 1022.9,-281.94"/>
</g>
<!-- Node3&#45;&gt;Node2 -->
<g id="edge3" class="edge">
<title>Node3&#45;&gt;Node2</title>
<path fill="none" stroke="midnightblue" d="M92.49,-160.46C104.77,-146.21 123.99,-125.81 144,-112 167.35,-95.89 197.39,-83.29 218.43,-75.57"/>
<polygon fill="midnightblue" stroke="midnightblue" points="89.55,-158.52 85.8,-168.43 94.91,-163.02 89.55,-158.52"/>
</g>
<!-- Node3&#45;&gt;Node4 -->
<g id="edge4" class="edge">
<title>Node3&#45;&gt;Node4</title>
<path fill="none" stroke="midnightblue" d="M121.82,-165.83C160.91,-155.63 217.83,-140.78 253.35,-131.52"/>
<polygon fill="midnightblue" stroke="midnightblue" points="120.59,-162.53 111.8,-168.44 122.36,-169.31 120.59,-162.53"/>
</g>
<!-- Node5&#45;&gt;Node4 -->
<g id="edge7" class="edge">
<title>Node5&#45;&gt;Node4</title>
<path fill="none" stroke="midnightblue" d="M948.22,-172.05C807.94,-161.66 484.37,-137.69 348.19,-127.61"/>
<polygon fill="midnightblue" stroke="midnightblue" points="948.17,-175.56 958.4,-172.81 948.69,-168.58 948.17,-175.56"/>
</g>
<!-- Node5&#45;&gt;Node6 -->
<g id="edge8" class="edge">
<title>Node5&#45;&gt;Node6</title>
<path fill="none" stroke="midnightblue" d="M1065.01,-165.74C1102.3,-155.05 1143.37,-136.91 1122,-112 1114.19,-102.9 961.99,-83.08 880.5,-73.06"/>
<polygon fill="midnightblue" stroke="midnightblue" points="1063.89,-162.42 1055.16,-168.43 1065.73,-169.17 1063.89,-162.42"/>
</g>
<!-- Node5&#45;&gt;Node7 -->
<g id="edge9" class="edge">
<title>Node5&#45;&gt;Node7</title>
<path fill="none" stroke="midnightblue" d="M1068.61,-166.47C1120.58,-156.27 1198.44,-140.98 1246.63,-131.52"/>
<polygon fill="midnightblue" stroke="midnightblue" points="1067.71,-163.08 1058.57,-168.44 1069.06,-169.95 1067.71,-163.08"/>
</g>
<!-- Node7&#45;&gt;Node6 -->
<g id="edge14" class="edge">
<title>Node7&#45;&gt;Node6</title>
<path fill="none" stroke="midnightblue" d="M1235.5,-114.6C1145.74,-104.07 968.08,-83.21 880.81,-72.96"/>
<polygon fill="midnightblue" stroke="midnightblue" points="1235.14,-118.08 1245.48,-115.77 1235.95,-111.13 1235.14,-118.08"/>
</g>
<!-- Node7&#45;&gt;Node8 -->
<g id="edge10" class="edge">
<title>Node7&#45;&gt;Node8</title>
<path fill="none" stroke="midnightblue" d="M1247.07,-109.92C1161.95,-87.93 973.39,-39.25 897.05,-19.53"/>
<polygon fill="midnightblue" stroke="midnightblue" points="1246.37,-113.35 1256.93,-112.46 1248.12,-106.57 1246.37,-113.35"/>
</g>
<!-- Node7&#45;&gt;Node9 -->
<g id="edge11" class="edge">
<title>Node7&#45;&gt;Node9</title>
<path fill="none" stroke="midnightblue" d="M1290,-101.8C1290,-92.91 1290,-82.78 1290,-75.75"/>
<polygon fill="midnightblue" stroke="midnightblue" points="1286.5,-102.08 1290,-112.08 1293.5,-102.08 1286.5,-102.08"/>
</g>
<!-- Node9&#45;&gt;Node8 -->
<g id="edge13" class="edge">
<title>Node9&#45;&gt;Node8</title>
<path fill="none" stroke="midnightblue" d="M1222,-56.38C1140.87,-46.1 1006.32,-29.04 927.32,-19.03"/>
<polygon fill="midnightblue" stroke="midnightblue" points="1221.74,-59.88 1232.1,-57.66 1222.62,-52.93 1221.74,-59.88"/>
</g>
<!-- Node10 -->
<g id="node10" class="node">
<title>Node10</title>
<g id="a_node10"><a xlink:href="main_8cpp.html" target="_top" xlink:title=" ">
<polygon fill="white" stroke="black" points="1051.5,-0.5 1051.5,-19.5 1140.5,-19.5 1140.5,-0.5 1051.5,-0.5"/>
<text text-anchor="middle" x="1096" y="-7.5" font-family="Helvetica,sans-Serif" font-size="10.00">main/main.cpp</text>
</a>
</g>
</g>
<!-- Node9&#45;&gt;Node10 -->
<g id="edge12" class="edge">
<title>Node9&#45;&gt;Node10</title>
<path fill="none" stroke="midnightblue" d="M1249.4,-53.7C1212.78,-43.51 1159.74,-28.74 1126.6,-19.52"/>
<polygon fill="midnightblue" stroke="midnightblue" points="1248.69,-57.13 1259.26,-56.44 1250.56,-50.39 1248.69,-57.13"/>
</g>
<!-- Node11&#45;&gt;Node7 -->
<g id="edge19" class="edge">
<title>Node11&#45;&gt;Node7</title>
<path fill="none" stroke="midnightblue" d="M1314.38,-159.57C1308.18,-150.27 1300.83,-139.25 1295.83,-131.75"/>
<polygon fill="midnightblue" stroke="midnightblue" points="1311.6,-161.7 1320.06,-168.08 1317.42,-157.82 1311.6,-161.7"/>
</g>
<!-- Node11&#45;&gt;Node9 -->
<g id="edge18" class="edge">
<title>Node11&#45;&gt;Node9</title>
<path fill="none" stroke="midnightblue" d="M1337.3,-159.57C1344.48,-146.15 1351.19,-127.36 1344,-112 1336.34,-95.64 1319.49,-83.16 1306.63,-75.54"/>
<polygon fill="midnightblue" stroke="midnightblue" points="1334.24,-157.87 1332.18,-168.26 1340.27,-161.42 1334.24,-157.87"/>
</g>
<!-- Node11&#45;&gt;Node10 -->
<g id="edge17" class="edge">
<title>Node11&#45;&gt;Node10</title>
<path fill="none" stroke="midnightblue" d="M1341.71,-160.88C1348.43,-152.88 1355.51,-142.66 1359,-132 1364.47,-115.29 1369.34,-70.13 1357,-56 1329.29,-24.27 1207.51,-14.91 1140.54,-12.15"/>
<polygon fill="midnightblue" stroke="midnightblue" points="1339.1,-158.56 1335.02,-168.34 1344.3,-163.24 1339.1,-158.56"/>
</g>
<!-- Node12 -->
<g id="node12" class="node">
<title>Node12</title>
<g id="a_node12"><a xlink:href="functions_8cpp.html" target="_top" xlink:title=" ">
<polygon fill="white" stroke="black" points="1003,-112.5 1003,-131.5 1113,-131.5 1113,-112.5 1003,-112.5"/>
<text text-anchor="middle" x="1058" y="-119.5" font-family="Helvetica,sans-Serif" font-size="10.00">main/functions.cpp</text>
</a>
</g>
</g>
<!-- Node11&#45;&gt;Node12 -->
<g id="edge16" class="edge">
<title>Node11&#45;&gt;Node12</title>
<path fill="none" stroke="midnightblue" d="M1273.44,-166.41C1222.79,-156.2 1147.13,-140.96 1100.27,-131.52"/>
<polygon fill="midnightblue" stroke="midnightblue" points="1273.04,-169.9 1283.53,-168.44 1274.42,-163.04 1273.04,-169.9"/>
</g>
<!-- Node14&#45;&gt;Node2 -->
<g id="edge24" class="edge">
<title>Node14&#45;&gt;Node2</title>
<path fill="none" stroke="midnightblue" d="M598.29,-171.42C546.37,-165.16 466.61,-153.02 400,-132 379.9,-125.66 376.35,-120.35 357,-112 325.98,-98.62 289.59,-84.39 266.67,-75.59"/>
<polygon fill="midnightblue" stroke="midnightblue" points="597.95,-174.9 608.29,-172.6 598.76,-167.95 597.95,-174.9"/>
</g>
<!-- Node14&#45;&gt;Node4 -->
<g id="edge25" class="edge">
<title>Node14&#45;&gt;Node4</title>
<path fill="none" stroke="midnightblue" d="M598.24,-168.94C529.92,-158.89 413.63,-141.78 343.89,-131.52"/>
<polygon fill="midnightblue" stroke="midnightblue" points="597.96,-172.44 608.37,-170.43 598.98,-165.51 597.96,-172.44"/>
</g>
<!-- Node14&#45;&gt;Node6 -->
<g id="edge31" class="edge">
<title>Node14&#45;&gt;Node6</title>
<path fill="none" stroke="midnightblue" d="M626.28,-163.49C604.21,-150.56 578.8,-130.37 594,-112 605.73,-97.82 713.47,-81.8 779.25,-73.22"/>
<polygon fill="midnightblue" stroke="midnightblue" points="624.65,-166.59 635.09,-168.4 628.05,-160.47 624.65,-166.59"/>
</g>
<!-- Node14&#45;&gt;Node8 -->
<g id="edge29" class="edge">
<title>Node14&#45;&gt;Node8</title>
<path fill="none" stroke="midnightblue" d="M598.16,-173.52C539.92,-168.55 453.46,-157.07 433,-132 427.38,-125.11 427.72,-119.15 433,-112 476.26,-53.43 691.64,-26.23 800.62,-16.05"/>
<polygon fill="midnightblue" stroke="midnightblue" points="598.08,-177.03 608.33,-174.35 598.65,-170.05 598.08,-177.03"/>
</g>
<!-- Node14&#45;&gt;Node10 -->
<g id="edge27" class="edge">
<title>Node14&#45;&gt;Node10</title>
<path fill="none" stroke="midnightblue" d="M701.88,-166.06C734.23,-158.16 777.3,-146.37 814,-132 832.14,-124.9 835.33,-120.19 853,-112 933,-74.93 1030.49,-36.35 1073.63,-19.6"/>
<polygon fill="midnightblue" stroke="midnightblue" points="700.68,-162.75 691.77,-168.49 702.31,-169.55 700.68,-162.75"/>
</g>
<!-- Node14&#45;&gt;Node12 -->
<g id="edge26" class="edge">
<title>Node14&#45;&gt;Node12</title>
<path fill="none" stroke="midnightblue" d="M707.67,-169.93C775.03,-161.19 892.98,-145.77 994,-132 996.89,-131.61 999.85,-131.2 1002.85,-130.79"/>
<polygon fill="midnightblue" stroke="midnightblue" points="707.17,-166.47 697.7,-171.22 708.07,-173.41 707.17,-166.47"/>
</g>
<!-- Node14&#45;&gt;Node13 -->
<g id="edge28" class="edge">
<title>Node14&#45;&gt;Node13</title>
<path fill="none" stroke="midnightblue" d="M705.63,-166.47C756.66,-156.27 833.1,-140.98 880.42,-131.52"/>
<polygon fill="midnightblue" stroke="midnightblue" points="704.9,-163.05 695.78,-168.44 706.27,-169.91 704.9,-163.05"/>
</g>
<!-- Node15 -->
<g id="node15" class="node">
<title>Node15</title>
<g id="a_node15"><a xlink:href="options_8cpp.html" target="_top" xlink:title=" ">
<polygon fill="white" stroke="black" points="602.5,-112.5 602.5,-131.5 703.5,-131.5 703.5,-112.5 602.5,-112.5"/>
<text text-anchor="middle" x="653" y="-119.5" font-family="Helvetica,sans-Serif" font-size="10.00">main/options.cpp</text>
</a>
</g>
</g>
<!-- Node14&#45;&gt;Node15 -->
<g id="edge30" class="edge">
<title>Node14&#45;&gt;Node15</title>
<path fill="none" stroke="midnightblue" d="M653,-157.8C653,-148.91 653,-138.78 653,-131.75"/>
<polygon fill="midnightblue" stroke="midnightblue" points="649.5,-158.08 653,-168.08 656.5,-158.08 649.5,-158.08"/>
</g>
<!-- Node16 -->
<g id="node16" class="node">
<title>Node16</title>
<g id="a_node16"><a xlink:href="test_8cpp.html" target="_top" xlink:title=" ">
<polygon fill="white" stroke="black" points="721.5,-112.5 721.5,-131.5 804.5,-131.5 804.5,-112.5 721.5,-112.5"/>
<text text-anchor="middle" x="763" y="-119.5" font-family="Helvetica,sans-Serif" font-size="10.00">main/test.cpp</text>
</a>
</g>
</g>
<!-- Node14&#45;&gt;Node16 -->
<g id="edge32" class="edge">
<title>Node14&#45;&gt;Node16</title>
<path fill="none" stroke="midnightblue" d="M679.76,-163.86C700.16,-153.85 727.67,-140.35 745.37,-131.65"/>
<polygon fill="midnightblue" stroke="midnightblue" points="678.11,-160.78 670.67,-168.32 681.19,-167.06 678.11,-160.78"/>
</g>
<!-- Node17 -->
<g id="node17" class="node">
<title>Node17</title>
<g id="a_node17"><a xlink:href="functionals_8h.html" target="_top" xlink:title=" ">
<polygon fill="white" stroke="black" points="442,-112.5 442,-131.5 546,-131.5 546,-112.5 442,-112.5"/>
<text text-anchor="middle" x="494" y="-119.5" font-family="Helvetica,sans-Serif" font-size="10.00">utils/functionals.h</text>
</a>
</g>
</g>
<!-- Node14&#45;&gt;Node17 -->
<g id="edge33" class="edge">
<title>Node14&#45;&gt;Node17</title>
<path fill="none" stroke="midnightblue" d="M618.17,-165.17C588.23,-155 545.78,-140.59 519.08,-131.52"/>
<polygon fill="midnightblue" stroke="midnightblue" points="617.21,-168.54 627.81,-168.44 619.46,-161.91 617.21,-168.54"/>
</g>
<!-- Node17&#45;&gt;Node2 -->
<g id="edge34" class="edge">
<title>Node17&#45;&gt;Node2</title>
<path fill="none" stroke="midnightblue" d="M444.38,-110.28C397.13,-100.08 326.96,-84.92 283.43,-75.52"/>
<polygon fill="midnightblue" stroke="midnightblue" points="443.87,-113.75 454.39,-112.44 445.35,-106.91 443.87,-113.75"/>
</g>
<!-- Node17&#45;&gt;Node6 -->
<g id="edge37" class="edge">
<title>Node17&#45;&gt;Node6</title>
<path fill="none" stroke="midnightblue" d="M556.14,-111.01C620.46,-100.68 719.7,-84.73 779.4,-75.13"/>
<polygon fill="midnightblue" stroke="midnightblue" points="555.45,-107.58 546.13,-112.62 556.56,-114.49 555.45,-107.58"/>
</g>
<!-- Node17&#45;&gt;Node8 -->
<g id="edge36" class="edge">
<title>Node17&#45;&gt;Node8</title>
<path fill="none" stroke="midnightblue" d="M526.44,-108.78C563.68,-94.99 626.76,-72.34 682,-56 730.85,-41.55 787.99,-27.95 825.03,-19.56"/>
<polygon fill="midnightblue" stroke="midnightblue" points="524.8,-105.66 516.65,-112.42 527.24,-112.22 524.8,-105.66"/>
</g>
<!-- Node17&#45;&gt;Node10 -->
<g id="edge35" class="edge">
<title>Node17&#45;&gt;Node10</title>
<path fill="none" stroke="midnightblue" d="M536.11,-109.83C590.18,-95.79 687.06,-71.63 771,-56 870.54,-37.47 988.53,-22.98 1051.37,-15.85"/>
<polygon fill="midnightblue" stroke="midnightblue" points="535,-106.5 526.2,-112.41 536.76,-113.28 535,-106.5"/>
</g>
<!-- Node19&#45;&gt;Node7 -->
<g id="edge46" class="edge">
<title>Node19&#45;&gt;Node7</title>
<path fill="none" stroke="midnightblue" d="M1159.02,-218.42C1190.96,-195.15 1252.46,-150.35 1278.21,-131.59"/>
<polygon fill="midnightblue" stroke="midnightblue" points="1156.87,-215.65 1150.85,-224.37 1160.99,-221.31 1156.87,-215.65"/>
</g>
<!-- Node20 -->
<g id="node20" class="node">
<title>Node20</title>
<g id="a_node20"><a xlink:href="spaces_8h.html" target="_top" xlink:title=" ">
<polygon fill="white" stroke="black" points="1095.5,-168.5 1095.5,-187.5 1182.5,-187.5 1182.5,-168.5 1095.5,-168.5"/>
<text text-anchor="middle" x="1139" y="-175.5" font-family="Helvetica,sans-Serif" font-size="10.00">main/spaces.h</text>
</a>
</g>
</g>
<!-- Node19&#45;&gt;Node20 -->
<g id="edge42" class="edge">
<title>Node19&#45;&gt;Node20</title>
<path fill="none" stroke="midnightblue" d="M1139,-213.8C1139,-204.91 1139,-194.78 1139,-187.75"/>
<polygon fill="midnightblue" stroke="midnightblue" points="1135.5,-214.08 1139,-224.08 1142.5,-214.08 1135.5,-214.08"/>
</g>
<!-- Node20&#45;&gt;Node6 -->
<g id="edge44" class="edge">
<title>Node20&#45;&gt;Node6</title>
<path fill="none" stroke="midnightblue" d="M1144.59,-158.35C1147.66,-143.95 1148.92,-124.44 1138,-112 1129.58,-102.41 965.71,-82.45 880.52,-72.66"/>
<polygon fill="midnightblue" stroke="midnightblue" points="1141.16,-157.61 1142.06,-168.17 1147.94,-159.36 1141.16,-157.61"/>
</g>
<!-- Node20&#45;&gt;Node7 -->
<g id="edge45" class="edge">
<title>Node20&#45;&gt;Node7</title>
<path fill="none" stroke="midnightblue" d="M1172.45,-165.04C1200.86,-154.88 1240.94,-140.55 1266.19,-131.52"/>
<polygon fill="midnightblue" stroke="midnightblue" points="1171.16,-161.78 1162.93,-168.44 1173.52,-168.37 1171.16,-161.78"/>
</g>
<!-- Node20&#45;&gt;Node8 -->
<g id="edge43" class="edge">
<title>Node20&#45;&gt;Node8</title>
<path fill="none" stroke="midnightblue" d="M1151.06,-159.4C1159.05,-145.36 1166.33,-125.82 1156,-112 1122.15,-66.72 1087.55,-94.11 1034,-76 979.52,-57.58 916.58,-32.5 884.75,-19.54"/>
<polygon fill="midnightblue" stroke="midnightblue" points="1147.95,-157.77 1145.63,-168.11 1153.89,-161.48 1147.95,-157.77"/>
</g>
</g>
</svg>
