<?xml version="1.0" encoding="UTF-8" standalone="no"?>
<!DOCTYPE svg PUBLIC "-//W3C//DTD SVG 1.1//EN"
 "http://www.w3.org/Graphics/SVG/1.1/DTD/svg11.dtd">
<!-- Generated by graphviz version 2.43.0 (0)
 -->
<!-- Title: Lyra/data/single_include/lyra/lyra.hpp Pages: 1 -->
<svg width="756pt" height="95pt"
 viewBox="0.00 0.00 756.00 95.00" xmlns="http://www.w3.org/2000/svg" xmlns:xlink="http://www.w3.org/1999/xlink">
<g id="graph0" class="graph" transform="scale(1 1) rotate(0) translate(4 91)">
<title>Lyra/data/single_include/lyra/lyra.hpp</title>
<polygon fill="white" stroke="transparent" points="-4,4 -4,-91 752,-91 752,4 -4,4"/>
<!-- Node1 -->
<g id="node1" class="node">
<title>Node1</title>
<g id="a_node1"><a xlink:title=" ">
<polygon fill="#bfbfbf" stroke="black" points="305,-56.5 305,-86.5 439,-86.5 439,-56.5 305,-56.5"/>
<text text-anchor="start" x="313" y="-74.5" font-family="Helvetica,sans-Serif" font-size="10.00">Lyra/data/single_include</text>
<text text-anchor="middle" x="372" y="-63.5" font-family="Helvetica,sans-Serif" font-size="10.00">/lyra/lyra.hpp</text>
</a>
</g>
</g>
<!-- Node2 -->
<g id="node2" class="node">
<title>Node2</title>
<g id="a_node2"><a xlink:title=" ">
<polygon fill="white" stroke="#bfbfbf" points="0,-0.5 0,-19.5 44,-19.5 44,-0.5 0,-0.5"/>
<text text-anchor="middle" x="22" y="-7.5" font-family="Helvetica,sans-Serif" font-size="10.00">string</text>
</a>
</g>
</g>
<!-- Node1&#45;&gt;Node2 -->
<g id="edge1" class="edge">
<title>Node1&#45;&gt;Node2</title>
<path fill="none" stroke="midnightblue" d="M304.94,-62.38C242.35,-54.23 146.24,-40.28 54.3,-20.06"/>
<polygon fill="midnightblue" stroke="midnightblue" points="54.79,-16.58 44.26,-17.83 53.26,-23.42 54.79,-16.58"/>
</g>
<!-- Node3 -->
<g id="node3" class="node">
<title>Node3</title>
<g id="a_node3"><a xlink:title=" ">
<polygon fill="white" stroke="#bfbfbf" points="62.5,-0.5 62.5,-19.5 145.5,-19.5 145.5,-0.5 62.5,-0.5"/>
<text text-anchor="middle" x="104" y="-7.5" font-family="Helvetica,sans-Serif" font-size="10.00">initializer_list</text>
</a>
</g>
</g>
<!-- Node1&#45;&gt;Node3 -->
<g id="edge2" class="edge">
<title>Node1&#45;&gt;Node3</title>
<path fill="none" stroke="midnightblue" d="M308.83,-56.47C260.88,-45.83 195.94,-31.41 152.15,-21.69"/>
<polygon fill="midnightblue" stroke="midnightblue" points="152.84,-18.26 142.31,-19.51 151.32,-25.09 152.84,-18.26"/>
</g>
<!-- Node4 -->
<g id="node4" class="node">
<title>Node4</title>
<g id="a_node4"><a xlink:title=" ">
<polygon fill="white" stroke="#bfbfbf" points="163.5,-0.5 163.5,-19.5 210.5,-19.5 210.5,-0.5 163.5,-0.5"/>
<text text-anchor="middle" x="187" y="-7.5" font-family="Helvetica,sans-Serif" font-size="10.00">vector</text>
</a>
</g>
</g>
<!-- Node1&#45;&gt;Node4 -->
<g id="edge3" class="edge">
<title>Node1&#45;&gt;Node4</title>
<path fill="none" stroke="midnightblue" d="M328.16,-56.4C295.13,-45.78 250.54,-31.44 220.39,-21.74"/>
<polygon fill="midnightblue" stroke="midnightblue" points="221.34,-18.37 210.75,-18.64 219.2,-25.03 221.34,-18.37"/>
</g>
<!-- Node5 -->
<g id="node5" class="node">
<title>Node5</title>
<g id="a_node5"><a xlink:title=" ">
<polygon fill="white" stroke="#bfbfbf" points="228.5,-0.5 228.5,-19.5 297.5,-19.5 297.5,-0.5 228.5,-0.5"/>
<text text-anchor="middle" x="263" y="-7.5" font-family="Helvetica,sans-Serif" font-size="10.00">type_traits</text>
</a>
</g>
</g>
<!-- Node1&#45;&gt;Node5 -->
<g id="edge4" class="edge">
<title>Node1&#45;&gt;Node5</title>
<path fill="none" stroke="midnightblue" d="M346.17,-56.4C328.53,-46.77 305.3,-34.09 287.87,-24.58"/>
<polygon fill="midnightblue" stroke="midnightblue" points="289.31,-21.38 278.86,-19.66 285.96,-27.52 289.31,-21.38"/>
</g>
<!-- Node6 -->
<g id="node6" class="node">
<title>Node6</title>
<g id="a_node6"><a xlink:title=" ">
<polygon fill="white" stroke="#bfbfbf" points="315.5,-0.5 315.5,-19.5 360.5,-19.5 360.5,-0.5 315.5,-0.5"/>
<text text-anchor="middle" x="338" y="-7.5" font-family="Helvetica,sans-Serif" font-size="10.00">utility</text>
</a>
</g>
</g>
<!-- Node1&#45;&gt;Node6 -->
<g id="edge5" class="edge">
<title>Node1&#45;&gt;Node6</title>
<path fill="none" stroke="midnightblue" d="M363.94,-56.4C359.15,-48.02 353.04,-37.33 347.96,-28.42"/>
<polygon fill="midnightblue" stroke="midnightblue" points="350.95,-26.6 342.95,-19.66 344.87,-30.08 350.95,-26.6"/>
</g>
<!-- Node7 -->
<g id="node7" class="node">
<title>Node7</title>
<g id="a_node7"><a xlink:title=" ">
<polygon fill="white" stroke="#bfbfbf" points="379,-0.5 379,-19.5 435,-19.5 435,-0.5 379,-0.5"/>
<text text-anchor="middle" x="407" y="-7.5" font-family="Helvetica,sans-Serif" font-size="10.00">sstream</text>
</a>
</g>
</g>
<!-- Node1&#45;&gt;Node7 -->
<g id="edge6" class="edge">
<title>Node1&#45;&gt;Node7</title>
<path fill="none" stroke="midnightblue" d="M380.29,-56.4C385.22,-48.02 391.51,-37.33 396.75,-28.42"/>
<polygon fill="midnightblue" stroke="midnightblue" points="399.85,-30.05 401.91,-19.66 393.82,-26.5 399.85,-30.05"/>
</g>
<!-- Node8 -->
<g id="node8" class="node">
<title>Node8</title>
<g id="a_node8"><a xlink:title=" ">
<polygon fill="white" stroke="#bfbfbf" points="453,-0.5 453,-19.5 511,-19.5 511,-0.5 453,-0.5"/>
<text text-anchor="middle" x="482" y="-7.5" font-family="Helvetica,sans-Serif" font-size="10.00">memory</text>
</a>
</g>
</g>
<!-- Node1&#45;&gt;Node8 -->
<g id="edge7" class="edge">
<title>Node1&#45;&gt;Node8</title>
<path fill="none" stroke="midnightblue" d="M398.07,-56.4C415.87,-46.77 439.31,-34.09 456.9,-24.58"/>
<polygon fill="midnightblue" stroke="midnightblue" points="458.86,-27.49 465.99,-19.66 455.53,-21.34 458.86,-27.49"/>
</g>
<!-- Node9 -->
<g id="node9" class="node">
<title>Node9</title>
<g id="a_node9"><a xlink:title=" ">
<polygon fill="white" stroke="#bfbfbf" points="529.5,-0.5 529.5,-19.5 586.5,-19.5 586.5,-0.5 529.5,-0.5"/>
<text text-anchor="middle" x="558" y="-7.5" font-family="Helvetica,sans-Serif" font-size="10.00">ostream</text>
</a>
</g>
</g>
<!-- Node1&#45;&gt;Node9 -->
<g id="edge8" class="edge">
<title>Node1&#45;&gt;Node9</title>
<path fill="none" stroke="midnightblue" d="M416.08,-56.4C448.22,-46.12 491.26,-32.35 521.48,-22.68"/>
<polygon fill="midnightblue" stroke="midnightblue" points="522.75,-25.95 531.21,-19.57 520.62,-19.28 522.75,-25.95"/>
</g>
<!-- Node10 -->
<g id="node10" class="node">
<title>Node10</title>
<g id="a_node10"><a xlink:title=" ">
<polygon fill="white" stroke="#bfbfbf" points="604.5,-0.5 604.5,-19.5 669.5,-19.5 669.5,-0.5 604.5,-0.5"/>
<text text-anchor="middle" x="637" y="-7.5" font-family="Helvetica,sans-Serif" font-size="10.00">functional</text>
</a>
</g>
</g>
<!-- Node1&#45;&gt;Node10 -->
<g id="edge9" class="edge">
<title>Node1&#45;&gt;Node10</title>
<path fill="none" stroke="midnightblue" d="M434.47,-56.47C483.76,-45.41 551.21,-30.26 594.45,-20.55"/>
<polygon fill="midnightblue" stroke="midnightblue" points="595.37,-23.93 604.36,-18.33 593.84,-17.1 595.37,-23.93"/>
</g>
<!-- Node11 -->
<g id="node11" class="node">
<title>Node11</title>
<g id="a_node11"><a xlink:title=" ">
<polygon fill="white" stroke="#bfbfbf" points="688,-0.5 688,-19.5 748,-19.5 748,-0.5 688,-0.5"/>
<text text-anchor="middle" x="718" y="-7.5" font-family="Helvetica,sans-Serif" font-size="10.00">iostream</text>
</a>
</g>
</g>
<!-- Node1&#45;&gt;Node11 -->
<g id="edge10" class="edge">
<title>Node1&#45;&gt;Node11</title>
<path fill="none" stroke="midnightblue" d="M439.3,-60.69C499.39,-51.65 590.02,-37.3 677.93,-20.11"/>
<polygon fill="midnightblue" stroke="midnightblue" points="678.67,-23.53 687.81,-18.17 677.32,-16.67 678.67,-23.53"/>
</g>
</g>
</svg>
