<?xml version="1.0" encoding="UTF-8" standalone="no"?>
<!DOCTYPE svg PUBLIC "-//W3C//DTD SVG 1.1//EN"
 "http://www.w3.org/Graphics/SVG/1.1/DTD/svg11.dtd">
<!-- Generated by graphviz version 2.43.0 (0)
 -->
<!-- Title: logger/devices.h Pages: 1 -->
<svg width="280pt" height="196pt"
 viewBox="0.00 0.00 280.00 196.00" xmlns="http://www.w3.org/2000/svg" xmlns:xlink="http://www.w3.org/1999/xlink">
<g id="graph0" class="graph" transform="scale(1 1) rotate(0) translate(4 192)">
<title>logger/devices.h</title>
<polygon fill="white" stroke="transparent" points="-4,4 -4,-192 276,-192 276,4 -4,4"/>
<!-- Node1 -->
<g id="node1" class="node">
<title>Node1</title>
<g id="a_node1"><a xlink:title=" ">
<polygon fill="#bfbfbf" stroke="black" points="8.5,-168.5 8.5,-187.5 105.5,-187.5 105.5,-168.5 8.5,-168.5"/>
<text text-anchor="middle" x="57" y="-175.5" font-family="Helvetica,sans-Serif" font-size="10.00">logger/devices.h</text>
</a>
</g>
</g>
<!-- Node2 -->
<g id="node2" class="node">
<title>Node2</title>
<g id="a_node2"><a xlink:title=" ">
<polygon fill="white" stroke="#bfbfbf" points="0,-112.5 0,-131.5 46,-131.5 46,-112.5 0,-112.5"/>
<text text-anchor="middle" x="23" y="-119.5" font-family="Helvetica,sans-Serif" font-size="10.00">cstdio</text>
</a>
</g>
</g>
<!-- Node1&#45;&gt;Node2 -->
<g id="edge1" class="edge">
<title>Node1&#45;&gt;Node2</title>
<path fill="none" stroke="midnightblue" d="M51.39,-168.08C46.63,-160.53 39.68,-149.49 33.85,-140.23"/>
<polygon fill="midnightblue" stroke="midnightblue" points="36.8,-138.35 28.51,-131.75 30.88,-142.08 36.8,-138.35"/>
</g>
<!-- Node3 -->
<g id="node3" class="node">
<title>Node3</title>
<g id="a_node3"><a xlink:href="logger_8h.html" target="_top" xlink:title=" ">
<polygon fill="white" stroke="black" points="64,-112.5 64,-131.5 120,-131.5 120,-112.5 64,-112.5"/>
<text text-anchor="middle" x="92" y="-119.5" font-family="Helvetica,sans-Serif" font-size="10.00">logger.h</text>
</a>
</g>
</g>
<!-- Node1&#45;&gt;Node3 -->
<g id="edge2" class="edge">
<title>Node1&#45;&gt;Node3</title>
<path fill="none" stroke="midnightblue" d="M62.78,-168.08C67.67,-160.53 74.83,-149.49 80.83,-140.23"/>
<polygon fill="midnightblue" stroke="midnightblue" points="83.83,-142.05 86.33,-131.75 77.95,-138.24 83.83,-142.05"/>
</g>
<!-- Node4 -->
<g id="node4" class="node">
<title>Node4</title>
<g id="a_node4"><a xlink:title=" ">
<polygon fill="white" stroke="#bfbfbf" points="28.5,-0.5 28.5,-19.5 97.5,-19.5 97.5,-0.5 28.5,-0.5"/>
<text text-anchor="middle" x="63" y="-7.5" font-family="Helvetica,sans-Serif" font-size="10.00">type_traits</text>
</a>
</g>
</g>
<!-- Node3&#45;&gt;Node4 -->
<g id="edge3" class="edge">
<title>Node3&#45;&gt;Node4</title>
<path fill="none" stroke="midnightblue" d="M63.81,-113.47C45.25,-106.88 22.34,-95.27 11,-76 -0.14,-57.08 20.26,-37.72 38.69,-25.11"/>
<polygon fill="midnightblue" stroke="midnightblue" points="40.65,-28.01 47.16,-19.65 36.86,-22.12 40.65,-28.01"/>
</g>
<!-- Node5 -->
<g id="node5" class="node">
<title>Node5</title>
<g id="a_node5"><a xlink:title=" ">
<polygon fill="white" stroke="#bfbfbf" points="20,-56.5 20,-75.5 78,-75.5 78,-56.5 20,-56.5"/>
<text text-anchor="middle" x="49" y="-63.5" font-family="Helvetica,sans-Serif" font-size="10.00">memory</text>
</a>
</g>
</g>
<!-- Node3&#45;&gt;Node5 -->
<g id="edge4" class="edge">
<title>Node3&#45;&gt;Node5</title>
<path fill="none" stroke="midnightblue" d="M84.9,-112.08C78.76,-104.38 69.73,-93.03 62.26,-83.65"/>
<polygon fill="midnightblue" stroke="midnightblue" points="64.94,-81.39 55.97,-75.75 59.46,-85.75 64.94,-81.39"/>
</g>
<!-- Node6 -->
<g id="node6" class="node">
<title>Node6</title>
<g id="a_node6"><a xlink:href="enum_8h.html" target="_top" xlink:title=" ">
<polygon fill="white" stroke="black" points="96.5,-56.5 96.5,-75.5 173.5,-75.5 173.5,-56.5 96.5,-56.5"/>
<text text-anchor="middle" x="135" y="-63.5" font-family="Helvetica,sans-Serif" font-size="10.00">utils/enum.h</text>
</a>
</g>
</g>
<!-- Node3&#45;&gt;Node6 -->
<g id="edge5" class="edge">
<title>Node3&#45;&gt;Node6</title>
<path fill="none" stroke="midnightblue" d="M99.1,-112.08C105.24,-104.38 114.27,-93.03 121.74,-83.65"/>
<polygon fill="midnightblue" stroke="midnightblue" points="124.54,-85.75 128.03,-75.75 119.06,-81.39 124.54,-85.75"/>
</g>
<!-- Node7 -->
<g id="node7" class="node">
<title>Node7</title>
<g id="a_node7"><a xlink:title=" ">
<polygon fill="white" stroke="#bfbfbf" points="192,-56.5 192,-75.5 272,-75.5 272,-56.5 192,-56.5"/>
<text text-anchor="middle" x="232" y="-63.5" font-family="Helvetica,sans-Serif" font-size="10.00">logger.levels</text>
</a>
</g>
</g>
<!-- Node3&#45;&gt;Node7 -->
<g id="edge7" class="edge">
<title>Node3&#45;&gt;Node7</title>
<path fill="none" stroke="midnightblue" d="M114.18,-112.44C137.43,-103.48 174.15,-89.31 200.42,-79.18"/>
<polygon fill="midnightblue" stroke="midnightblue" points="201.85,-82.38 209.92,-75.52 199.33,-75.85 201.85,-82.38"/>
</g>
<!-- Node6&#45;&gt;Node4 -->
<g id="edge6" class="edge">
<title>Node6&#45;&gt;Node4</title>
<path fill="none" stroke="midnightblue" d="M123.43,-56.32C112.58,-48.18 96.12,-35.84 83.12,-26.09"/>
<polygon fill="midnightblue" stroke="midnightblue" points="84.88,-23.03 74.78,-19.83 80.68,-28.63 84.88,-23.03"/>
</g>
</g>
</svg>
