<?xml version="1.0" encoding="UTF-8" standalone="no"?>
<!DOCTYPE svg PUBLIC "-//W3C//DTD SVG 1.1//EN"
 "http://www.w3.org/Graphics/SVG/1.1/DTD/svg11.dtd">
<!-- Generated by graphviz version 2.43.0 (0)
 -->
<!-- Title: Lyra Pages: 1 -->
<svg width="310pt" height="148pt"
 viewBox="0.00 0.00 310.00 148.00" xmlns="http://www.w3.org/2000/svg" xmlns:xlink="http://www.w3.org/1999/xlink">
<g id="graph0" class="graph" transform="scale(1 1) rotate(0) translate(4 144)">
<title>Lyra</title>
<polygon fill="white" stroke="transparent" points="-4,4 -4,-144 306,-144 306,4 -4,4"/>
<g id="clust1" class="cluster">
<title>clusterdir_e1b0841462c0c9594e5307bd5dc174ad</title>
<g id="a_clust1"><a xlink:href="dir_e1b0841462c0c9594e5307bd5dc174ad.html" target="_top">
<polygon fill="#def7e1" stroke="#404040" stroke-width="2" points="8,-8 8,-132 294,-132 294,-8 8,-8"/>
</a>
</g>
</g>
<!-- dir_e1b0841462c0c9594e5307bd5dc174ad -->
<g id="node1" class="node">
<title>dir_e1b0841462c0c9594e5307bd5dc174ad</title>
<text text-anchor="middle" x="259" y="-103.5" font-family="Helvetica,sans-Serif" font-size="10.00">Lyra</text>
</g>
<!-- dir_276b1ac325caf802f1c21d45656d59af -->
<g id="node2" class="node">
<title>dir_276b1ac325caf802f1c21d45656d59af</title>
<g id="a_node2"><a xlink:href="dir_276b1ac325caf802f1c21d45656d59af.html" target="_top" xlink:title="data">
<polygon fill="#64db72" stroke="#404040" points="214,-124 160,-124 160,-88 214,-88 214,-124"/>
<text text-anchor="middle" x="187" y="-103.5" font-family="Helvetica,sans-Serif" font-size="10.00">data</text>
</a>
</g>
</g>
<!-- dir_9da6e56c5ff0132aef4ef296817b6291 -->
<g id="node3" class="node">
<title>dir_9da6e56c5ff0132aef4ef296817b6291</title>
<g id="a_node3"><a xlink:href="dir_9da6e56c5ff0132aef4ef296817b6291.html" target="_top" xlink:title="examples">
<polygon fill="#64db72" stroke="#404040" points="114.5,-52 49.5,-52 49.5,-16 114.5,-16 114.5,-52"/>
<text text-anchor="middle" x="82" y="-31.5" font-family="Helvetica,sans-Serif" font-size="10.00">examples</text>
</a>
</g>
</g>
<!-- dir_eabd99c7a0b0d21b0c160e67f662f576 -->
<g id="node4" class="node">
<title>dir_eabd99c7a0b0d21b0c160e67f662f576</title>
<g id="a_node4"><a xlink:href="dir_eabd99c7a0b0d21b0c160e67f662f576.html" target="_top" xlink:title="include">
<polygon fill="#64db72" stroke="#404040" points="187,-52 133,-52 133,-16 187,-16 187,-52"/>
<text text-anchor="middle" x="160" y="-31.5" font-family="Helvetica,sans-Serif" font-size="10.00">include</text>
</a>
</g>
</g>
<!-- dir_e032744040c1565cb9da66006488204e -->
<g id="node5" class="node">
<title>dir_e032744040c1565cb9da66006488204e</title>
<g id="a_node5"><a xlink:href="dir_e032744040c1565cb9da66006488204e.html" target="_top" xlink:title="tests">
<polygon fill="#64db72" stroke="#404040" points="142,-124 88,-124 88,-88 142,-88 142,-124"/>
<text text-anchor="middle" x="115" y="-103.5" font-family="Helvetica,sans-Serif" font-size="10.00">tests</text>
</a>
</g>
</g>
<!-- dir_e032744040c1565cb9da66006488204e&#45;&gt;dir_9da6e56c5ff0132aef4ef296817b6291 -->
<g id="edge1" class="edge">
<title>dir_e032744040c1565cb9da66006488204e&#45;&gt;dir_9da6e56c5ff0132aef4ef296817b6291</title>
<path fill="none" stroke="black" d="M106.84,-87.7C103.09,-79.73 98.55,-70.1 94.38,-61.26"/>
<polygon fill="black" stroke="black" points="97.49,-59.66 90.06,-52.1 91.16,-62.64 97.49,-59.66"/>
<g id="a_edge1&#45;headlabel"><a xlink:href="dir_000013_000002.html" target="_top" xlink:title="14">
<text text-anchor="middle" x="101.59" y="-59.2" font-family="Helvetica,sans-Serif" font-size="10.00">14</text>
</a>
</g>
</g>
<!-- dir_e032744040c1565cb9da66006488204e&#45;&gt;dir_eabd99c7a0b0d21b0c160e67f662f576 -->
<g id="edge2" class="edge">
<title>dir_e032744040c1565cb9da66006488204e&#45;&gt;dir_eabd99c7a0b0d21b0c160e67f662f576</title>
<path fill="none" stroke="black" d="M126.12,-87.7C131.36,-79.56 137.7,-69.69 143.48,-60.7"/>
<polygon fill="black" stroke="black" points="146.54,-62.41 149,-52.1 140.65,-58.62 146.54,-62.41"/>
<g id="a_edge2&#45;headlabel"><a xlink:href="dir_000013_000003.html" target="_top" xlink:title="1">
<text text-anchor="middle" x="146.99" y="-64.47" font-family="Helvetica,sans-Serif" font-size="10.00">1</text>
</a>
</g>
</g>
<!-- dir_bf986b0c23b122bdbbaff6fad8844659 -->
<g id="node6" class="node">
<title>dir_bf986b0c23b122bdbbaff6fad8844659</title>
<g id="a_node6"><a xlink:href="dir_bf986b0c23b122bdbbaff6fad8844659.html" target="_top" xlink:title="tools">
<polygon fill="#64db72" stroke="#404040" points="70,-124 16,-124 16,-88 70,-88 70,-124"/>
<text text-anchor="middle" x="43" y="-103.5" font-family="Helvetica,sans-Serif" font-size="10.00">tools</text>
</a>
</g>
</g>
</g>
</svg>
