<?xml version="1.0" encoding="UTF-8" standalone="no"?>
<!DOCTYPE svg PUBLIC "-//W3C//DTD SVG 1.1//EN"
 "http://www.w3.org/Graphics/SVG/1.1/DTD/svg11.dtd">
<!-- Generated by graphviz version 2.43.0 (0)
 -->
<!-- Title: Lyra/tests Pages: 1 -->
<svg width="203pt" height="175pt"
 viewBox="0.00 0.00 203.00 175.00" xmlns="http://www.w3.org/2000/svg" xmlns:xlink="http://www.w3.org/1999/xlink">
<g id="graph0" class="graph" transform="scale(1 1) rotate(0) translate(4 171)">
<title>Lyra/tests</title>
<polygon fill="white" stroke="transparent" points="-4,4 -4,-171 199,-171 199,4 -4,4"/>
<g id="clust1" class="cluster">
<title>clusterdir_e1b0841462c0c9594e5307bd5dc174ad</title>
<g id="a_clust1"><a xlink:href="dir_e1b0841462c0c9594e5307bd5dc174ad.html" target="_top" xlink:title="Lyra">
<polygon fill="#def7e1" stroke="#404040" stroke-dasharray="5,2" points="8,-8 8,-159 187,-159 187,-8 8,-8"/>
<text text-anchor="middle" x="97.5" y="-147" font-family="Helvetica,sans-Serif" font-size="10.00">Lyra</text>
</a>
</g>
</g>
<g id="clust2" class="cluster">
<title>clusterdir_e032744040c1565cb9da66006488204e</title>
<g id="a_clust2"><a xlink:href="dir_e032744040c1565cb9da66006488204e.html" target="_top">
<polygon fill="#def7e1" stroke="#404040" stroke-width="2" points="16,-80 16,-132 179,-132 179,-80 16,-80"/>
</a>
</g>
</g>
<!-- dir_9da6e56c5ff0132aef4ef296817b6291 -->
<g id="node1" class="node">
<title>dir_9da6e56c5ff0132aef4ef296817b6291</title>
<g id="a_node1"><a xlink:href="dir_9da6e56c5ff0132aef4ef296817b6291.html" target="_top" xlink:title="examples">
<polygon fill="#64db72" stroke="#404040" points="102.5,-52 37.5,-52 37.5,-16 102.5,-16 102.5,-52"/>
<text text-anchor="middle" x="70" y="-31.5" font-family="Helvetica,sans-Serif" font-size="10.00">examples</text>
</a>
</g>
</g>
<!-- dir_eabd99c7a0b0d21b0c160e67f662f576 -->
<g id="node2" class="node">
<title>dir_eabd99c7a0b0d21b0c160e67f662f576</title>
<g id="a_node2"><a xlink:href="dir_eabd99c7a0b0d21b0c160e67f662f576.html" target="_top" xlink:title="include">
<polygon fill="#64db72" stroke="red" points="175,-52 121,-52 121,-16 175,-16 175,-52"/>
<text text-anchor="middle" x="148" y="-31.5" font-family="Helvetica,sans-Serif" font-size="10.00">include</text>
</a>
</g>
</g>
<!-- dir_e032744040c1565cb9da66006488204e -->
<g id="node3" class="node">
<title>dir_e032744040c1565cb9da66006488204e</title>
<text text-anchor="middle" x="144" y="-103.5" font-family="Helvetica,sans-Serif" font-size="10.00">tests</text>
</g>
<!-- dir_e032744040c1565cb9da66006488204e&#45;&gt;dir_9da6e56c5ff0132aef4ef296817b6291 -->
<g id="edge1" class="edge">
<title>dir_e032744040c1565cb9da66006488204e&#45;&gt;dir_9da6e56c5ff0132aef4ef296817b6291</title>
<path fill="none" stroke="black" d="M125.71,-87.7C116.57,-79.05 105.36,-68.45 95.4,-59.03"/>
<polygon fill="black" stroke="black" points="97.75,-56.43 88.08,-52.1 92.94,-61.52 97.75,-56.43"/>
<g id="a_edge1&#45;headlabel"><a xlink:href="dir_000013_000002.html" target="_top" xlink:title="14">
<text text-anchor="middle" x="102.31" y="-54.34" font-family="Helvetica,sans-Serif" font-size="10.00">14</text>
</a>
</g>
</g>
<!-- dir_e032744040c1565cb9da66006488204e&#45;&gt;dir_eabd99c7a0b0d21b0c160e67f662f576 -->
<g id="edge2" class="edge">
<title>dir_e032744040c1565cb9da66006488204e&#45;&gt;dir_eabd99c7a0b0d21b0c160e67f662f576</title>
<path fill="none" stroke="black" d="M144.99,-87.7C145.43,-79.98 145.96,-70.71 146.45,-62.11"/>
<polygon fill="black" stroke="black" points="149.95,-62.29 147.02,-52.1 142.96,-61.89 149.95,-62.29"/>
<g id="a_edge2&#45;headlabel"><a xlink:href="dir_000013_000003.html" target="_top" xlink:title="1">
<text text-anchor="middle" x="152.58" y="-63.54" font-family="Helvetica,sans-Serif" font-size="10.00">1</text>
</a>
</g>
</g>
<!-- dir_76bc41a8f79f3cf695d71a99fd03efde -->
<g id="node4" class="node">
<title>dir_76bc41a8f79f3cf695d71a99fd03efde</title>
<g id="a_node4"><a xlink:href="dir_76bc41a8f79f3cf695d71a99fd03efde.html" target="_top" xlink:title="lib_use_test">
<polygon fill="#64db72" stroke="#404040" points="98.5,-124 23.5,-124 23.5,-88 98.5,-88 98.5,-124"/>
<text text-anchor="middle" x="61" y="-103.5" font-family="Helvetica,sans-Serif" font-size="10.00">lib_use_test</text>
</a>
</g>
</g>
</g>
</svg>
