<?xml version="1.0" encoding="UTF-8" standalone="no"?>
<!DOCTYPE svg PUBLIC "-//W3C//DTD SVG 1.1//EN"
 "http://www.w3.org/Graphics/SVG/1.1/DTD/svg11.dtd">
<!-- Generated by graphviz version 2.43.0 (0)
 -->
<!-- Title: Lyra/examples/doc_simple.cpp Pages: 1 -->
<svg width="175pt" height="84pt"
 viewBox="0.00 0.00 175.00 84.00" xmlns="http://www.w3.org/2000/svg" xmlns:xlink="http://www.w3.org/1999/xlink">
<g id="graph0" class="graph" transform="scale(1 1) rotate(0) translate(4 80)">
<title>Lyra/examples/doc_simple.cpp</title>
<polygon fill="white" stroke="transparent" points="-4,4 -4,-80 171,-80 171,4 -4,4"/>
<!-- Node1 -->
<g id="node1" class="node">
<title>Node1</title>
<g id="a_node1"><a xlink:title=" ">
<polygon fill="#bfbfbf" stroke="black" points="0,-56.5 0,-75.5 167,-75.5 167,-56.5 0,-56.5"/>
<text text-anchor="middle" x="83.5" y="-63.5" font-family="Helvetica,sans-Serif" font-size="10.00">Lyra/examples/doc_simple.cpp</text>
</a>
</g>
</g>
<!-- Node2 -->
<g id="node2" class="node">
<title>Node2</title>
<g id="a_node2"><a xlink:title=" ">
<polygon fill="white" stroke="#bfbfbf" points="10.5,-0.5 10.5,-19.5 70.5,-19.5 70.5,-0.5 10.5,-0.5"/>
<text text-anchor="middle" x="40.5" y="-7.5" font-family="Helvetica,sans-Serif" font-size="10.00">iostream</text>
</a>
</g>
</g>
<!-- Node1&#45;&gt;Node2 -->
<g id="edge1" class="edge">
<title>Node1&#45;&gt;Node2</title>
<path fill="none" stroke="midnightblue" d="M76.4,-56.08C70.26,-48.38 61.23,-37.03 53.76,-27.65"/>
<polygon fill="midnightblue" stroke="midnightblue" points="56.44,-25.39 47.47,-19.75 50.96,-29.75 56.44,-25.39"/>
</g>
<!-- Node3 -->
<g id="node3" class="node">
<title>Node3</title>
<g id="a_node3"><a xlink:title=" ">
<polygon fill="white" stroke="#bfbfbf" points="88.5,-0.5 88.5,-19.5 166.5,-19.5 166.5,-0.5 88.5,-0.5"/>
<text text-anchor="middle" x="127.5" y="-7.5" font-family="Helvetica,sans-Serif" font-size="10.00">lyra/lyra.hpp</text>
</a>
</g>
</g>
<!-- Node1&#45;&gt;Node3 -->
<g id="edge2" class="edge">
<title>Node1&#45;&gt;Node3</title>
<path fill="none" stroke="midnightblue" d="M90.77,-56.08C97.04,-48.38 106.29,-37.03 113.93,-27.65"/>
<polygon fill="midnightblue" stroke="midnightblue" points="116.77,-29.71 120.37,-19.75 111.34,-25.29 116.77,-29.71"/>
</g>
</g>
</svg>
