<?xml version="1.0" encoding="UTF-8" standalone="no"?>
<!DOCTYPE svg PUBLIC "-//W3C//DTD SVG 1.1//EN"
 "http://www.w3.org/Graphics/SVG/1.1/DTD/svg11.dtd">
<!-- Generated by graphviz version 2.43.0 (0)
 -->
<!-- Title: Lyra/include/lyra/exe_name.hpp Pages: 1 -->
<svg width="576pt" height="330pt"
 viewBox="0.00 0.00 576.13 330.00" xmlns="http://www.w3.org/2000/svg" xmlns:xlink="http://www.w3.org/1999/xlink">
<g id="graph0" class="graph" transform="scale(1 1) rotate(0) translate(4 326)">
<title>Lyra/include/lyra/exe_name.hpp</title>
<polygon fill="white" stroke="transparent" points="-4,4 -4,-326 572.13,-326 572.13,4 -4,4"/>
<!-- Node1 -->
<g id="node1" class="node">
<title>Node1</title>
<g id="a_node1"><a xlink:title=" ">
<polygon fill="#bfbfbf" stroke="black" points="159,-291.5 159,-321.5 277,-321.5 277,-291.5 159,-291.5"/>
<text text-anchor="start" x="167" y="-309.5" font-family="Helvetica,sans-Serif" font-size="10.00">Lyra/include/lyra/exe</text>
<text text-anchor="middle" x="218" y="-298.5" font-family="Helvetica,sans-Serif" font-size="10.00">_name.hpp</text>
</a>
</g>
</g>
<!-- Node2 -->
<g id="node2" class="node">
<title>Node2</title>
<g id="a_node2"><a xlink:href="arguments_8hpp.html" target="_top" xlink:title=" ">
<polygon fill="white" stroke="black" points="131.5,-235.5 131.5,-254.5 304.5,-254.5 304.5,-235.5 131.5,-235.5"/>
<text text-anchor="middle" x="218" y="-242.5" font-family="Helvetica,sans-Serif" font-size="10.00">Lyra/include/lyra/arguments.hpp</text>
</a>
</g>
</g>
<!-- Node1&#45;&gt;Node2 -->
<g id="edge1" class="edge">
<title>Node1&#45;&gt;Node2</title>
<path fill="none" stroke="midnightblue" d="M218,-281.29C218,-271.86 218,-261.65 218,-254.66"/>
<polygon fill="midnightblue" stroke="midnightblue" points="214.5,-281.4 218,-291.4 221.5,-281.4 214.5,-281.4"/>
</g>
<!-- Node3 -->
<g id="node3" class="node">
<title>Node3</title>
<g id="a_node3"><a xlink:href="cli_8hpp.html" target="_top" xlink:title=" ">
<polygon fill="white" stroke="black" points="292,-123.5 292,-142.5 424,-142.5 424,-123.5 292,-123.5"/>
<text text-anchor="middle" x="358" y="-130.5" font-family="Helvetica,sans-Serif" font-size="10.00">Lyra/include/lyra/cli.hpp</text>
</a>
</g>
</g>
<!-- Node1&#45;&gt;Node3 -->
<g id="edge14" class="edge">
<title>Node1&#45;&gt;Node3</title>
<path fill="none" stroke="midnightblue" d="M268.62,-287.02C284.55,-279.18 301.07,-268.63 313,-255 343.12,-220.6 353.81,-164.19 356.91,-142.69"/>
<polygon fill="midnightblue" stroke="midnightblue" points="266.94,-283.94 259.35,-291.34 269.9,-290.29 266.94,-283.94"/>
</g>
<!-- Node5 -->
<g id="node5" class="node">
<title>Node5</title>
<g id="a_node5"><a xlink:href="include_2lyra_2lyra_8hpp.html" target="_top" xlink:title=" ">
<polygon fill="white" stroke="black" points="175,-0.5 175,-19.5 315,-19.5 315,-0.5 175,-0.5"/>
<text text-anchor="middle" x="245" y="-7.5" font-family="Helvetica,sans-Serif" font-size="10.00">Lyra/include/lyra/lyra.hpp</text>
</a>
</g>
</g>
<!-- Node1&#45;&gt;Node5 -->
<g id="edge15" class="edge">
<title>Node1&#45;&gt;Node5</title>
<path fill="none" stroke="midnightblue" d="M148.67,-297.8C84.84,-286.41 0,-258.4 0,-190 0,-190 0,-190 0,-132 0,-53.49 102.4,-25.92 174.79,-16.24"/>
<polygon fill="midnightblue" stroke="midnightblue" points="148.28,-301.29 158.72,-299.49 149.44,-294.38 148.28,-301.29"/>
</g>
<!-- Node2&#45;&gt;Node3 -->
<g id="edge2" class="edge">
<title>Node2&#45;&gt;Node3</title>
<path fill="none" stroke="midnightblue" d="M247.57,-231.14C264.16,-223.18 284.73,-212 301,-199 322.35,-181.95 342.15,-156.29 351.82,-142.88"/>
<polygon fill="midnightblue" stroke="midnightblue" points="245.91,-228.05 238.33,-235.45 248.87,-234.4 245.91,-228.05"/>
</g>
<!-- Node2&#45;&gt;Node5 -->
<g id="edge13" class="edge">
<title>Node2&#45;&gt;Node5</title>
<path fill="none" stroke="midnightblue" d="M174.8,-232.55C117.25,-214.95 26.05,-177.46 57,-123 90.32,-64.37 167.81,-33.2 212.21,-19.6"/>
<polygon fill="midnightblue" stroke="midnightblue" points="173.84,-235.92 184.43,-235.41 175.83,-229.21 173.84,-235.92"/>
</g>
<!-- Node7 -->
<g id="node7" class="node">
<title>Node7</title>
<g id="a_node7"><a xlink:href="group_8hpp.html" target="_top" xlink:title=" ">
<polygon fill="white" stroke="black" points="143.5,-179.5 143.5,-198.5 292.5,-198.5 292.5,-179.5 143.5,-179.5"/>
<text text-anchor="middle" x="218" y="-186.5" font-family="Helvetica,sans-Serif" font-size="10.00">Lyra/include/lyra/group.hpp</text>
</a>
</g>
</g>
<!-- Node2&#45;&gt;Node7 -->
<g id="edge8" class="edge">
<title>Node2&#45;&gt;Node7</title>
<path fill="none" stroke="midnightblue" d="M218,-224.8C218,-215.91 218,-205.78 218,-198.75"/>
<polygon fill="midnightblue" stroke="midnightblue" points="214.5,-225.08 218,-235.08 221.5,-225.08 214.5,-225.08"/>
</g>
<!-- Node4 -->
<g id="node4" class="node">
<title>Node4</title>
<g id="a_node4"><a xlink:href="cli__parser_8hpp.html" target="_top" xlink:title=" ">
<polygon fill="white" stroke="black" points="273.5,-56.5 273.5,-86.5 384.5,-86.5 384.5,-56.5 273.5,-56.5"/>
<text text-anchor="start" x="281.5" y="-74.5" font-family="Helvetica,sans-Serif" font-size="10.00">Lyra/include/lyra/cli</text>
<text text-anchor="middle" x="329" y="-63.5" font-family="Helvetica,sans-Serif" font-size="10.00">_parser.hpp</text>
</a>
</g>
</g>
<!-- Node3&#45;&gt;Node4 -->
<g id="edge3" class="edge">
<title>Node3&#45;&gt;Node4</title>
<path fill="none" stroke="midnightblue" d="M349.42,-114.39C345.08,-105.5 339.9,-94.86 335.83,-86.52"/>
<polygon fill="midnightblue" stroke="midnightblue" points="346.32,-116.02 353.85,-123.48 352.61,-112.95 346.32,-116.02"/>
</g>
<!-- Node3&#45;&gt;Node5 -->
<g id="edge5" class="edge">
<title>Node3&#45;&gt;Node5</title>
<path fill="none" stroke="midnightblue" d="M434.23,-127.26C506.17,-119.97 597.55,-101.65 558,-56 527.22,-20.47 397.55,-12.34 315.08,-10.85"/>
<polygon fill="midnightblue" stroke="midnightblue" points="433.85,-123.78 424.23,-128.22 434.51,-130.75 433.85,-123.78"/>
</g>
<!-- Node6 -->
<g id="node6" class="node">
<title>Node6</title>
<g id="a_node6"><a xlink:href="main_8hpp.html" target="_top" xlink:title=" ">
<polygon fill="white" stroke="black" points="403,-62 403,-81 549,-81 549,-62 403,-62"/>
<text text-anchor="middle" x="476" y="-69" font-family="Helvetica,sans-Serif" font-size="10.00">Lyra/include/lyra/main.hpp</text>
</a>
</g>
</g>
<!-- Node3&#45;&gt;Node6 -->
<g id="edge6" class="edge">
<title>Node3&#45;&gt;Node6</title>
<path fill="none" stroke="midnightblue" d="M384.05,-118.87C406.92,-107.33 439.51,-90.9 459.12,-81.01"/>
<polygon fill="midnightblue" stroke="midnightblue" points="382.26,-115.85 374.91,-123.48 385.41,-122.1 382.26,-115.85"/>
</g>
<!-- Node4&#45;&gt;Node5 -->
<g id="edge4" class="edge">
<title>Node4&#45;&gt;Node5</title>
<path fill="none" stroke="midnightblue" d="M300.74,-50.48C285.94,-40 268.59,-27.71 257.22,-19.66"/>
<polygon fill="midnightblue" stroke="midnightblue" points="298.91,-53.48 309.09,-56.4 302.96,-47.76 298.91,-53.48"/>
</g>
<!-- Node6&#45;&gt;Node5 -->
<g id="edge7" class="edge">
<title>Node6&#45;&gt;Node5</title>
<path fill="none" stroke="midnightblue" d="M433.17,-59.47C388.32,-47.91 318.83,-30.02 278.04,-19.51"/>
<polygon fill="midnightblue" stroke="midnightblue" points="432.35,-62.87 442.9,-61.98 434.09,-56.09 432.35,-62.87"/>
</g>
<!-- Node7&#45;&gt;Node3 -->
<g id="edge9" class="edge">
<title>Node7&#45;&gt;Node3</title>
<path fill="none" stroke="midnightblue" d="M249.7,-175.77C276,-165.63 312.72,-151.47 335.92,-142.52"/>
<polygon fill="midnightblue" stroke="midnightblue" points="248.25,-172.58 240.18,-179.44 250.77,-179.11 248.25,-172.58"/>
</g>
<!-- Node7&#45;&gt;Node5 -->
<g id="edge12" class="edge">
<title>Node7&#45;&gt;Node5</title>
<path fill="none" stroke="midnightblue" d="M231.03,-171.23C236.49,-163.17 242.21,-153.08 245,-143 257.48,-97.95 250.07,-40.88 246.54,-19.55"/>
<polygon fill="midnightblue" stroke="midnightblue" points="228.18,-169.21 225.15,-179.36 233.85,-173.31 228.18,-169.21"/>
</g>
<!-- Node8 -->
<g id="node8" class="node">
<title>Node8</title>
<g id="a_node8"><a xlink:href="command_8hpp.html" target="_top" xlink:title=" ">
<polygon fill="white" stroke="black" points="66,-123.5 66,-142.5 236,-142.5 236,-123.5 66,-123.5"/>
<text text-anchor="middle" x="151" y="-130.5" font-family="Helvetica,sans-Serif" font-size="10.00">Lyra/include/lyra/command.hpp</text>
</a>
</g>
</g>
<!-- Node7&#45;&gt;Node8 -->
<g id="edge10" class="edge">
<title>Node7&#45;&gt;Node8</title>
<path fill="none" stroke="midnightblue" d="M199.17,-172.82C187.16,-163.15 172.03,-150.95 161.96,-142.83"/>
<polygon fill="midnightblue" stroke="midnightblue" points="197.25,-175.77 207.24,-179.32 201.65,-170.32 197.25,-175.77"/>
</g>
<!-- Node8&#45;&gt;Node5 -->
<g id="edge11" class="edge">
<title>Node8&#45;&gt;Node5</title>
<path fill="none" stroke="midnightblue" d="M164.13,-115.09C184.47,-88.91 222.85,-39.52 238.3,-19.62"/>
<polygon fill="midnightblue" stroke="midnightblue" points="161.13,-113.25 157.76,-123.3 166.66,-117.55 161.13,-113.25"/>
</g>
</g>
</svg>
