<?xml version="1.0" encoding="UTF-8" standalone="no"?>
<!DOCTYPE svg PUBLIC "-//W3C//DTD SVG 1.1//EN"
 "http://www.w3.org/Graphics/SVG/1.1/DTD/svg11.dtd">
<!-- Generated by graphviz version 2.43.0 (0)
 -->
<!-- Title: utils/functionals.h Pages: 1 -->
<svg width="821pt" height="252pt"
 viewBox="0.00 0.00 821.19 252.00" xmlns="http://www.w3.org/2000/svg" xmlns:xlink="http://www.w3.org/1999/xlink">
<g id="graph0" class="graph" transform="scale(1 1) rotate(0) translate(4 248)">
<title>utils/functionals.h</title>
<polygon fill="white" stroke="transparent" points="-4,4 -4,-248 817.19,-248 817.19,4 -4,4"/>
<!-- Node1 -->
<g id="node1" class="node">
<title>Node1</title>
<g id="a_node1"><a xlink:title=" ">
<polygon fill="#bfbfbf" stroke="black" points="70.19,-224.5 70.19,-243.5 174.19,-243.5 174.19,-224.5 70.19,-224.5"/>
<text text-anchor="middle" x="122.19" y="-231.5" font-family="Helvetica,sans-Serif" font-size="10.00">utils/functionals.h</text>
</a>
</g>
</g>
<!-- Node2 -->
<g id="node2" class="node">
<title>Node2</title>
<g id="a_node2"><a xlink:title=" ">
<polygon fill="white" stroke="#bfbfbf" points="172.69,-0.5 172.69,-19.5 241.69,-19.5 241.69,-0.5 172.69,-0.5"/>
<text text-anchor="middle" x="207.19" y="-7.5" font-family="Helvetica,sans-Serif" font-size="10.00">type_traits</text>
</a>
</g>
</g>
<!-- Node1&#45;&gt;Node2 -->
<g id="edge1" class="edge">
<title>Node1&#45;&gt;Node2</title>
<path fill="none" stroke="midnightblue" d="M104.22,-224.26C76.45,-209.63 24.14,-177.25 3.19,-132 -7,-109.97 13.27,-61.67 19.19,-56 39.5,-36.55 113.78,-23.28 162.67,-16.44"/>
<polygon fill="midnightblue" stroke="midnightblue" points="163.25,-19.89 172.69,-15.07 162.31,-12.95 163.25,-19.89"/>
</g>
<!-- Node3 -->
<g id="node3" class="node">
<title>Node3</title>
<g id="a_node3"><a xlink:title=" ">
<polygon fill="white" stroke="#bfbfbf" points="89.69,-168.5 89.69,-187.5 154.69,-187.5 154.69,-168.5 89.69,-168.5"/>
<text text-anchor="middle" x="122.19" y="-175.5" font-family="Helvetica,sans-Serif" font-size="10.00">functional</text>
</a>
</g>
</g>
<!-- Node1&#45;&gt;Node3 -->
<g id="edge2" class="edge">
<title>Node1&#45;&gt;Node3</title>
<path fill="none" stroke="midnightblue" d="M122.19,-224.08C122.19,-217.01 122.19,-206.86 122.19,-197.99"/>
<polygon fill="midnightblue" stroke="midnightblue" points="125.69,-197.75 122.19,-187.75 118.69,-197.75 125.69,-197.75"/>
</g>
<!-- Node4 -->
<g id="node4" class="node">
<title>Node4</title>
<g id="a_node4"><a xlink:href="options_8h.html" target="_top" xlink:title=" ">
<polygon fill="white" stroke="black" points="250.69,-168.5 250.69,-187.5 339.69,-187.5 339.69,-168.5 250.69,-168.5"/>
<text text-anchor="middle" x="295.19" y="-175.5" font-family="Helvetica,sans-Serif" font-size="10.00">main/options.h</text>
</a>
</g>
</g>
<!-- Node1&#45;&gt;Node4 -->
<g id="edge3" class="edge">
<title>Node1&#45;&gt;Node4</title>
<path fill="none" stroke="midnightblue" d="M149.61,-224.44C178.96,-215.28 225.71,-200.69 258.29,-190.52"/>
<polygon fill="midnightblue" stroke="midnightblue" points="259.41,-193.84 267.91,-187.52 257.32,-187.16 259.41,-193.84"/>
</g>
<!-- Node5 -->
<g id="node5" class="node">
<title>Node5</title>
<g id="a_node5"><a xlink:title=" ">
<polygon fill="white" stroke="#bfbfbf" points="769.19,-56.5 769.19,-75.5 813.19,-75.5 813.19,-56.5 769.19,-56.5"/>
<text text-anchor="middle" x="791.19" y="-63.5" font-family="Helvetica,sans-Serif" font-size="10.00">string</text>
</a>
</g>
</g>
<!-- Node4&#45;&gt;Node5 -->
<g id="edge4" class="edge">
<title>Node4&#45;&gt;Node5</title>
<path fill="none" stroke="midnightblue" d="M339.8,-175.01C431.46,-170.44 637.83,-157.58 703.19,-132 731.51,-120.92 758.83,-98.28 775.32,-82.87"/>
<polygon fill="midnightblue" stroke="midnightblue" points="778.12,-85.02 782.9,-75.57 773.27,-79.98 778.12,-85.02"/>
</g>
<!-- Node6 -->
<g id="node6" class="node">
<title>Node6</title>
<g id="a_node6"><a xlink:title=" ">
<polygon fill="white" stroke="#bfbfbf" points="12.69,-112.5 12.69,-131.5 121.69,-131.5 121.69,-112.5 12.69,-112.5"/>
<text text-anchor="middle" x="67.19" y="-119.5" font-family="Helvetica,sans-Serif" font-size="10.00">h2lib/parameters.h</text>
</a>
</g>
</g>
<!-- Node4&#45;&gt;Node6 -->
<g id="edge5" class="edge">
<title>Node4&#45;&gt;Node6</title>
<path fill="none" stroke="midnightblue" d="M259.07,-168.44C219.54,-159.08 156.1,-144.06 113.08,-133.87"/>
<polygon fill="midnightblue" stroke="midnightblue" points="113.69,-130.42 103.15,-131.52 112.08,-137.23 113.69,-130.42"/>
</g>
<!-- Node7 -->
<g id="node7" class="node">
<title>Node7</title>
<g id="a_node7"><a xlink:title=" ">
<polygon fill="white" stroke="#bfbfbf" points="140.19,-112.5 140.19,-131.5 232.19,-131.5 232.19,-112.5 140.19,-112.5"/>
<text text-anchor="middle" x="186.19" y="-119.5" font-family="Helvetica,sans-Serif" font-size="10.00">h2lib/reporter.h</text>
</a>
</g>
</g>
<!-- Node4&#45;&gt;Node7 -->
<g id="edge6" class="edge">
<title>Node4&#45;&gt;Node7</title>
<path fill="none" stroke="midnightblue" d="M277.68,-168.32C260.12,-159.62 232.86,-146.12 212.66,-136.11"/>
<polygon fill="midnightblue" stroke="midnightblue" points="214.18,-132.96 203.66,-131.65 211.07,-139.23 214.18,-132.96"/>
</g>
<!-- Node8 -->
<g id="node8" class="node">
<title>Node8</title>
<g id="a_node8"><a xlink:href="logger_8h.html" target="_top" xlink:title=" ">
<polygon fill="white" stroke="black" points="250.19,-112.5 250.19,-131.5 340.19,-131.5 340.19,-112.5 250.19,-112.5"/>
<text text-anchor="middle" x="295.19" y="-119.5" font-family="Helvetica,sans-Serif" font-size="10.00">logger/logger.h</text>
</a>
</g>
</g>
<!-- Node4&#45;&gt;Node8 -->
<g id="edge7" class="edge">
<title>Node4&#45;&gt;Node8</title>
<path fill="none" stroke="midnightblue" d="M295.19,-168.08C295.19,-161.01 295.19,-150.86 295.19,-141.99"/>
<polygon fill="midnightblue" stroke="midnightblue" points="298.69,-141.75 295.19,-131.75 291.69,-141.75 298.69,-141.75"/>
</g>
<!-- Node12 -->
<g id="node12" class="node">
<title>Node12</title>
<g id="a_node12"><a xlink:href="cutils_8h.html" target="_top" xlink:title=" ">
<polygon fill="white" stroke="black" points="402.19,-112.5 402.19,-131.5 478.19,-131.5 478.19,-112.5 402.19,-112.5"/>
<text text-anchor="middle" x="440.19" y="-119.5" font-family="Helvetica,sans-Serif" font-size="10.00">utils/cutils.h</text>
</a>
</g>
</g>
<!-- Node4&#45;&gt;Node12 -->
<g id="edge13" class="edge">
<title>Node4&#45;&gt;Node12</title>
<path fill="none" stroke="midnightblue" d="M318.17,-168.44C342.35,-159.44 380.61,-145.19 407.84,-135.05"/>
<polygon fill="midnightblue" stroke="midnightblue" points="409.18,-138.29 417.33,-131.52 406.73,-131.73 409.18,-138.29"/>
</g>
<!-- Node15 -->
<g id="node15" class="node">
<title>Node15</title>
<g id="a_node15"><a xlink:href="timing_8h.html" target="_top" xlink:title=" ">
<polygon fill="white" stroke="black" points="636.69,-112.5 636.69,-131.5 693.69,-131.5 693.69,-112.5 636.69,-112.5"/>
<text text-anchor="middle" x="665.19" y="-119.5" font-family="Helvetica,sans-Serif" font-size="10.00">timing.h</text>
</a>
</g>
</g>
<!-- Node4&#45;&gt;Node15 -->
<g id="edge17" class="edge">
<title>Node4&#45;&gt;Node15</title>
<path fill="none" stroke="midnightblue" d="M339.82,-170.49C412.95,-159.81 557.07,-138.78 626.29,-128.68"/>
<polygon fill="midnightblue" stroke="midnightblue" points="626.94,-132.12 636.33,-127.21 625.93,-125.19 626.94,-132.12"/>
</g>
<!-- Node8&#45;&gt;Node2 -->
<g id="edge8" class="edge">
<title>Node8&#45;&gt;Node2</title>
<path fill="none" stroke="midnightblue" d="M249.95,-112.44C213.53,-104.52 166.59,-91.63 155.19,-76 142.05,-57.97 163.67,-38.05 182.9,-25.08"/>
<polygon fill="midnightblue" stroke="midnightblue" points="184.88,-27.96 191.43,-19.64 181.12,-22.06 184.88,-27.96"/>
</g>
<!-- Node9 -->
<g id="node9" class="node">
<title>Node9</title>
<g id="a_node9"><a xlink:title=" ">
<polygon fill="white" stroke="#bfbfbf" points="164.19,-56.5 164.19,-75.5 222.19,-75.5 222.19,-56.5 164.19,-56.5"/>
<text text-anchor="middle" x="193.19" y="-63.5" font-family="Helvetica,sans-Serif" font-size="10.00">memory</text>
</a>
</g>
</g>
<!-- Node8&#45;&gt;Node9 -->
<g id="edge9" class="edge">
<title>Node8&#45;&gt;Node9</title>
<path fill="none" stroke="midnightblue" d="M278.81,-112.32C262.52,-103.7 237.33,-90.36 218.48,-80.39"/>
<polygon fill="midnightblue" stroke="midnightblue" points="220.02,-77.24 209.54,-75.65 216.74,-83.43 220.02,-77.24"/>
</g>
<!-- Node10 -->
<g id="node10" class="node">
<title>Node10</title>
<g id="a_node10"><a xlink:href="enum_8h.html" target="_top" xlink:title=" ">
<polygon fill="white" stroke="black" points="240.69,-56.5 240.69,-75.5 317.69,-75.5 317.69,-56.5 240.69,-56.5"/>
<text text-anchor="middle" x="279.19" y="-63.5" font-family="Helvetica,sans-Serif" font-size="10.00">utils/enum.h</text>
</a>
</g>
</g>
<!-- Node8&#45;&gt;Node10 -->
<g id="edge10" class="edge">
<title>Node8&#45;&gt;Node10</title>
<path fill="none" stroke="midnightblue" d="M292.55,-112.08C290.41,-104.85 287.31,-94.41 284.64,-85.4"/>
<polygon fill="midnightblue" stroke="midnightblue" points="287.98,-84.34 281.79,-75.75 281.27,-86.33 287.98,-84.34"/>
</g>
<!-- Node11 -->
<g id="node11" class="node">
<title>Node11</title>
<g id="a_node11"><a xlink:title=" ">
<polygon fill="white" stroke="#bfbfbf" points="28.19,-56.5 28.19,-75.5 108.19,-75.5 108.19,-56.5 28.19,-56.5"/>
<text text-anchor="middle" x="68.19" y="-63.5" font-family="Helvetica,sans-Serif" font-size="10.00">logger.levels</text>
</a>
</g>
</g>
<!-- Node8&#45;&gt;Node11 -->
<g id="edge12" class="edge">
<title>Node8&#45;&gt;Node11</title>
<path fill="none" stroke="midnightblue" d="M259.23,-112.44C219.87,-103.08 156.71,-88.06 113.88,-77.87"/>
<polygon fill="midnightblue" stroke="midnightblue" points="114.53,-74.43 103.99,-75.52 112.91,-81.24 114.53,-74.43"/>
</g>
<!-- Node10&#45;&gt;Node2 -->
<g id="edge11" class="edge">
<title>Node10&#45;&gt;Node2</title>
<path fill="none" stroke="midnightblue" d="M267.63,-56.32C256.77,-48.18 240.31,-35.84 227.31,-26.09"/>
<polygon fill="midnightblue" stroke="midnightblue" points="229.07,-23.03 218.97,-19.83 224.87,-28.63 229.07,-23.03"/>
</g>
<!-- Node12&#45;&gt;Node2 -->
<g id="edge14" class="edge">
<title>Node12&#45;&gt;Node2</title>
<path fill="none" stroke="midnightblue" d="M444.71,-112.28C451.08,-98.62 460.53,-72.07 447.19,-56 422.88,-26.7 314.55,-16.37 252.06,-12.8"/>
<polygon fill="midnightblue" stroke="midnightblue" points="251.87,-9.29 241.7,-12.25 251.5,-16.28 251.87,-9.29"/>
</g>
<!-- Node13 -->
<g id="node13" class="node">
<title>Node13</title>
<g id="a_node13"><a xlink:title=" ">
<polygon fill="white" stroke="#bfbfbf" points="495.19,-56.5 495.19,-75.5 573.19,-75.5 573.19,-56.5 495.19,-56.5"/>
<text text-anchor="middle" x="534.19" y="-63.5" font-family="Helvetica,sans-Serif" font-size="10.00">h2lib/basic.h</text>
</a>
</g>
</g>
<!-- Node12&#45;&gt;Node13 -->
<g id="edge15" class="edge">
<title>Node12&#45;&gt;Node13</title>
<path fill="none" stroke="midnightblue" d="M455.3,-112.32C470.1,-103.82 492.89,-90.73 510.18,-80.8"/>
<polygon fill="midnightblue" stroke="midnightblue" points="512.2,-83.67 519.13,-75.65 508.71,-77.6 512.2,-83.67"/>
</g>
<!-- Node14 -->
<g id="node14" class="node">
<title>Node14</title>
<g id="a_node14"><a xlink:title=" ">
<polygon fill="white" stroke="#bfbfbf" points="335.69,-56.5 335.69,-75.5 438.69,-75.5 438.69,-56.5 335.69,-56.5"/>
<text text-anchor="middle" x="387.19" y="-63.5" font-family="Helvetica,sans-Serif" font-size="10.00">h2lib/dh2matrix.h</text>
</a>
</g>
</g>
<!-- Node12&#45;&gt;Node14 -->
<g id="edge16" class="edge">
<title>Node12&#45;&gt;Node14</title>
<path fill="none" stroke="midnightblue" d="M431.44,-112.08C423.72,-104.22 412.29,-92.57 402.98,-83.08"/>
<polygon fill="midnightblue" stroke="midnightblue" points="405.29,-80.44 395.78,-75.75 400.29,-85.34 405.29,-80.44"/>
</g>
<!-- Node15&#45;&gt;Node5 -->
<g id="edge21" class="edge">
<title>Node15&#45;&gt;Node5</title>
<path fill="none" stroke="midnightblue" d="M685.16,-112.44C705.8,-103.6 738.26,-89.69 761.83,-79.59"/>
<polygon fill="midnightblue" stroke="midnightblue" points="763.51,-82.67 771.32,-75.52 760.75,-76.24 763.51,-82.67"/>
</g>
<!-- Node16 -->
<g id="node16" class="node">
<title>Node16</title>
<g id="a_node16"><a xlink:title=" ">
<polygon fill="white" stroke="#bfbfbf" points="641.69,-56.5 641.69,-75.5 688.69,-75.5 688.69,-56.5 641.69,-56.5"/>
<text text-anchor="middle" x="665.19" y="-63.5" font-family="Helvetica,sans-Serif" font-size="10.00">cmath</text>
</a>
</g>
</g>
<!-- Node15&#45;&gt;Node16 -->
<g id="edge18" class="edge">
<title>Node15&#45;&gt;Node16</title>
<path fill="none" stroke="midnightblue" d="M665.19,-112.08C665.19,-105.01 665.19,-94.86 665.19,-85.99"/>
<polygon fill="midnightblue" stroke="midnightblue" points="668.69,-85.75 665.19,-75.75 661.69,-85.75 668.69,-85.75"/>
</g>
<!-- Node17 -->
<g id="node17" class="node">
<title>Node17</title>
<g id="a_node17"><a xlink:title=" ">
<polygon fill="white" stroke="#bfbfbf" points="707.19,-56.5 707.19,-75.5 751.19,-75.5 751.19,-56.5 707.19,-56.5"/>
<text text-anchor="middle" x="729.19" y="-63.5" font-family="Helvetica,sans-Serif" font-size="10.00">ctime</text>
</a>
</g>
</g>
<!-- Node15&#45;&gt;Node17 -->
<g id="edge19" class="edge">
<title>Node15&#45;&gt;Node17</title>
<path fill="none" stroke="midnightblue" d="M675.48,-112.32C685.03,-104.26 699.47,-92.08 710.98,-82.37"/>
<polygon fill="midnightblue" stroke="midnightblue" points="713.34,-84.96 718.72,-75.83 708.82,-79.61 713.34,-84.96"/>
</g>
<!-- Node18 -->
<g id="node18" class="node">
<title>Node18</title>
<g id="a_node18"><a xlink:title=" ">
<polygon fill="white" stroke="#bfbfbf" points="591.19,-56.5 591.19,-75.5 623.19,-75.5 623.19,-56.5 591.19,-56.5"/>
<text text-anchor="middle" x="607.19" y="-63.5" font-family="Helvetica,sans-Serif" font-size="10.00">list</text>
</a>
</g>
</g>
<!-- Node15&#45;&gt;Node18 -->
<g id="edge20" class="edge">
<title>Node15&#45;&gt;Node18</title>
<path fill="none" stroke="midnightblue" d="M655.88,-112.32C647.3,-104.34 634.38,-92.31 624.01,-82.65"/>
<polygon fill="midnightblue" stroke="midnightblue" points="626.39,-80.09 616.68,-75.83 621.62,-85.21 626.39,-80.09"/>
</g>
</g>
</svg>
