<?xml version="1.0" encoding="UTF-8" standalone="no"?>
<!DOCTYPE svg PUBLIC "-//W3C//DTD SVG 1.1//EN"
 "http://www.w3.org/Graphics/SVG/1.1/DTD/svg11.dtd">
<!-- Generated by graphviz version 2.43.0 (0)
 -->
<!-- Title: Graphical Class Hierarchy Pages: 1 -->
<svg width="533pt" height="88pt"
 viewBox="0.00 0.00 533.00 88.00" xmlns="http://www.w3.org/2000/svg" xmlns:xlink="http://www.w3.org/1999/xlink">
<g id="graph0" class="graph" transform="scale(1 1) rotate(0) translate(4 84)">
<title>Graphical Class Hierarchy</title>
<polygon fill="white" stroke="transparent" points="-4,4 -4,-84 529,-84 529,4 -4,4"/>
<!-- Node0 -->
<g id="node1" class="node">
<title>Node0</title>
<g id="a_node1"><a xlink:href="class_main_namespace_1_1_functions_1_1_reference.html" target="_top" xlink:title="Virtual class that specifies the reference traces for testing.">
<polygon fill="white" stroke="black" points="0,-24.5 0,-54.5 151,-54.5 151,-24.5 0,-24.5"/>
<text text-anchor="start" x="8" y="-42.5" font-family="Helvetica,sans-Serif" font-size="10.00">MainNamespace::Functions</text>
<text text-anchor="middle" x="75.5" y="-31.5" font-family="Helvetica,sans-Serif" font-size="10.00">::Reference</text>
</a>
</g>
</g>
<!-- Node1 -->
<g id="node2" class="node">
<title>Node1</title>
<g id="a_node2"><a xlink:href="class_main_namespace_1_1_functions_1_1_mesh_offset.html" target="_top" xlink:title="Offset that takes its values from a mesh data.">
<polygon fill="white" stroke="black" points="187,-49.5 187,-79.5 338,-79.5 338,-49.5 187,-49.5"/>
<text text-anchor="start" x="195" y="-67.5" font-family="Helvetica,sans-Serif" font-size="10.00">MainNamespace::Functions</text>
<text text-anchor="middle" x="262.5" y="-56.5" font-family="Helvetica,sans-Serif" font-size="10.00">::MeshOffset</text>
</a>
</g>
</g>
<!-- Node0&#45;&gt;Node1 -->
<g id="edge1" class="edge">
<title>Node0&#45;&gt;Node1</title>
<path fill="none" stroke="midnightblue" d="M161.19,-50.94C169.74,-52.1 178.38,-53.27 186.81,-54.41"/>
<polygon fill="midnightblue" stroke="midnightblue" points="161.59,-47.47 151.21,-49.6 160.65,-54.4 161.59,-47.47"/>
</g>
<!-- Node3 -->
<g id="node4" class="node">
<title>Node3</title>
<g id="a_node4"><a xlink:href="class_main_namespace_1_1_functions_1_1_plane_wave.html" target="_top" xlink:title="Plane wave reference.">
<polygon fill="white" stroke="black" points="187,-0.5 187,-30.5 338,-30.5 338,-0.5 187,-0.5"/>
<text text-anchor="start" x="195" y="-18.5" font-family="Helvetica,sans-Serif" font-size="10.00">MainNamespace::Functions</text>
<text text-anchor="middle" x="262.5" y="-7.5" font-family="Helvetica,sans-Serif" font-size="10.00">::PlaneWave</text>
</a>
</g>
</g>
<!-- Node0&#45;&gt;Node3 -->
<g id="edge3" class="edge">
<title>Node0&#45;&gt;Node3</title>
<path fill="none" stroke="midnightblue" d="M161.19,-28.51C169.74,-27.4 178.38,-26.28 186.81,-25.19"/>
<polygon fill="midnightblue" stroke="midnightblue" points="160.68,-25.05 151.21,-29.81 161.58,-31.99 160.68,-25.05"/>
</g>
<!-- Node2 -->
<g id="node3" class="node">
<title>Node2</title>
<g id="a_node3"><a xlink:href="class_main_namespace_1_1_functions_1_1_zero_extension.html" target="_top" xlink:title="This only works decently for some solutions.">
<polygon fill="white" stroke="black" points="374,-49.5 374,-79.5 525,-79.5 525,-49.5 374,-49.5"/>
<text text-anchor="start" x="382" y="-67.5" font-family="Helvetica,sans-Serif" font-size="10.00">MainNamespace::Functions</text>
<text text-anchor="middle" x="449.5" y="-56.5" font-family="Helvetica,sans-Serif" font-size="10.00">::ZeroExtension</text>
</a>
</g>
</g>
<!-- Node1&#45;&gt;Node2 -->
<g id="edge2" class="edge">
<title>Node1&#45;&gt;Node2</title>
<path fill="none" stroke="midnightblue" d="M348.47,-64.5C356.93,-64.5 365.47,-64.5 373.81,-64.5"/>
<polygon fill="midnightblue" stroke="midnightblue" points="348.21,-61 338.21,-64.5 348.21,-68 348.21,-61"/>
</g>
</g>
</svg>
