<?xml version="1.0" encoding="UTF-8" standalone="no"?>
<!DOCTYPE svg PUBLIC "-//W3C//DTD SVG 1.1//EN"
 "http://www.w3.org/Graphics/SVG/1.1/DTD/svg11.dtd">
<!-- Generated by graphviz version 2.43.0 (0)
 -->
<!-- Title: Graphical Class Hierarchy Pages: 1 -->
<svg width="620pt" height="264pt"
 viewBox="0.00 0.00 620.00 263.50" xmlns="http://www.w3.org/2000/svg" xmlns:xlink="http://www.w3.org/1999/xlink">
<g id="graph0" class="graph" transform="scale(1 1) rotate(0) translate(4 259.5)">
<title>Graphical Class Hierarchy</title>
<polygon fill="white" stroke="transparent" points="-4,4 -4,-259.5 616,-259.5 616,4 -4,4"/>
<!-- Node0 -->
<g id="node1" class="node">
<title>Node0</title>
<g id="a_node1"><a xlink:href="classlyra_1_1parser.html" target="_top" xlink:title=" ">
<polygon fill="white" stroke="black" points="0,-110.5 0,-129.5 72,-129.5 72,-110.5 0,-110.5"/>
<text text-anchor="middle" x="36" y="-117.5" font-family="Helvetica,sans-Serif" font-size="10.00">lyra::parser</text>
</a>
</g>
</g>
<!-- Node1 -->
<g id="node2" class="node">
<title>Node1</title>
<g id="a_node2"><a xlink:href="classlyra_1_1composable__parser.html" target="_top" xlink:title=" ">
<polygon fill="white" stroke="black" points="108,-225 108,-255 245,-255 245,-225 108,-225"/>
<text text-anchor="start" x="116" y="-243" font-family="Helvetica,sans-Serif" font-size="10.00">lyra::composable_parser</text>
<text text-anchor="middle" x="176.5" y="-232" font-family="Helvetica,sans-Serif" font-size="10.00">&lt; arg &gt;</text>
</a>
</g>
</g>
<!-- Node0&#45;&gt;Node1 -->
<g id="edge1" class="edge">
<title>Node0&#45;&gt;Node1</title>
<path fill="none" stroke="midnightblue" d="M46.41,-138.75C58.1,-160.26 79.96,-195.22 108,-216 112.6,-219.41 117.72,-222.36 123.03,-224.92"/>
<polygon fill="midnightblue" stroke="midnightblue" points="49.39,-136.88 41.64,-129.65 43.19,-140.14 49.39,-136.88"/>
</g>
<!-- Node4 -->
<g id="node5" class="node">
<title>Node4</title>
<g id="a_node5"><a xlink:href="classlyra_1_1composable__parser.html" target="_top" xlink:title=" ">
<polygon fill="white" stroke="black" points="108,-176 108,-206 245,-206 245,-176 108,-176"/>
<text text-anchor="start" x="116" y="-194" font-family="Helvetica,sans-Serif" font-size="10.00">lyra::composable_parser</text>
<text text-anchor="middle" x="176.5" y="-183" font-family="Helvetica,sans-Serif" font-size="10.00">&lt; exe_name &gt;</text>
</a>
</g>
</g>
<!-- Node0&#45;&gt;Node4 -->
<g id="edge4" class="edge">
<title>Node0&#45;&gt;Node4</title>
<path fill="none" stroke="midnightblue" d="M57.77,-135.7C71.51,-145.59 90.21,-158.11 108,-167 114.45,-170.22 121.45,-173.22 128.41,-175.92"/>
<polygon fill="midnightblue" stroke="midnightblue" points="59.65,-132.74 49.51,-129.65 55.51,-138.39 59.65,-132.74"/>
</g>
<!-- Node6 -->
<g id="node7" class="node">
<title>Node6</title>
<g id="a_node7"><a xlink:href="classlyra_1_1composable__parser.html" target="_top" xlink:title=" ">
<polygon fill="white" stroke="black" points="108,-127 108,-157 245,-157 245,-127 108,-127"/>
<text text-anchor="start" x="116" y="-145" font-family="Helvetica,sans-Serif" font-size="10.00">lyra::composable_parser</text>
<text text-anchor="middle" x="176.5" y="-134" font-family="Helvetica,sans-Serif" font-size="10.00">&lt; opt &gt;</text>
</a>
</g>
</g>
<!-- Node0&#45;&gt;Node6 -->
<g id="edge6" class="edge">
<title>Node0&#45;&gt;Node6</title>
<path fill="none" stroke="midnightblue" d="M82.37,-127.21C90.56,-128.51 99.25,-129.89 107.92,-131.26"/>
<polygon fill="midnightblue" stroke="midnightblue" points="82.73,-123.72 72.31,-125.61 81.63,-130.63 82.73,-123.72"/>
</g>
<!-- Node10 -->
<g id="node11" class="node">
<title>Node10</title>
<g id="a_node11"><a xlink:href="classlyra_1_1arguments.html" target="_top" xlink:title=" ">
<polygon fill="white" stroke="black" points="129.5,-88.5 129.5,-107.5 223.5,-107.5 223.5,-88.5 129.5,-88.5"/>
<text text-anchor="middle" x="176.5" y="-95.5" font-family="Helvetica,sans-Serif" font-size="10.00">lyra::arguments</text>
</a>
</g>
</g>
<!-- Node0&#45;&gt;Node10 -->
<g id="edge10" class="edge">
<title>Node0&#45;&gt;Node10</title>
<path fill="none" stroke="midnightblue" d="M82.4,-112.79C97.43,-110.4 114.17,-107.74 129.27,-105.34"/>
<polygon fill="midnightblue" stroke="midnightblue" points="81.63,-109.37 72.31,-114.39 82.73,-116.28 81.63,-109.37"/>
</g>
<!-- Node15 -->
<g id="node16" class="node">
<title>Node15</title>
<g id="a_node16"><a xlink:href="classlyra_1_1composable__parser.html" target="_top" xlink:title=" ">
<polygon fill="white" stroke="black" points="108,-39 108,-69 245,-69 245,-39 108,-39"/>
<text text-anchor="start" x="116" y="-57" font-family="Helvetica,sans-Serif" font-size="10.00">lyra::composable_parser</text>
<text text-anchor="middle" x="176.5" y="-46" font-family="Helvetica,sans-Serif" font-size="10.00">&lt; Derived &gt;</text>
</a>
</g>
</g>
<!-- Node0&#45;&gt;Node15 -->
<g id="edge15" class="edge">
<title>Node0&#45;&gt;Node15</title>
<path fill="none" stroke="midnightblue" d="M60.53,-105.07C74.11,-96.8 91.67,-86.67 108,-79 115.47,-75.49 123.57,-72.13 131.48,-69.08"/>
<polygon fill="midnightblue" stroke="midnightblue" points="58.5,-102.21 51.84,-110.44 62.18,-108.16 58.5,-102.21"/>
</g>
<!-- Node17 -->
<g id="node18" class="node">
<title>Node17</title>
<g id="a_node18"><a xlink:href="classlyra_1_1literal.html" target="_top" xlink:title=" ">
<polygon fill="white" stroke="black" points="141.5,-0.5 141.5,-19.5 211.5,-19.5 211.5,-0.5 141.5,-0.5"/>
<text text-anchor="middle" x="176.5" y="-7.5" font-family="Helvetica,sans-Serif" font-size="10.00">lyra::literal</text>
</a>
</g>
</g>
<!-- Node0&#45;&gt;Node17 -->
<g id="edge17" class="edge">
<title>Node0&#45;&gt;Node17</title>
<path fill="none" stroke="midnightblue" d="M46.6,-101.59C58.34,-80.88 80.14,-47.71 108,-29 117.9,-22.35 130.12,-18.01 141.42,-15.18"/>
<polygon fill="midnightblue" stroke="midnightblue" points="43.52,-99.93 41.8,-110.39 49.66,-103.29 43.52,-99.93"/>
</g>
<!-- Node2 -->
<g id="node3" class="node">
<title>Node2</title>
<g id="a_node3"><a xlink:href="classlyra_1_1bound__parser.html" target="_top" xlink:title=" ">
<polygon fill="white" stroke="black" points="281,-225 281,-255 388,-255 388,-225 281,-225"/>
<text text-anchor="start" x="289" y="-243" font-family="Helvetica,sans-Serif" font-size="10.00">lyra::bound_parser</text>
<text text-anchor="middle" x="334.5" y="-232" font-family="Helvetica,sans-Serif" font-size="10.00">&lt; arg &gt;</text>
</a>
</g>
</g>
<!-- Node1&#45;&gt;Node2 -->
<g id="edge2" class="edge">
<title>Node1&#45;&gt;Node2</title>
<path fill="none" stroke="midnightblue" d="M255.21,-240C263.93,-240 272.64,-240 280.93,-240"/>
<polygon fill="midnightblue" stroke="midnightblue" points="255.02,-236.5 245.02,-240 255.02,-243.5 255.02,-236.5"/>
</g>
<!-- Node3 -->
<g id="node4" class="node">
<title>Node3</title>
<g id="a_node4"><a xlink:href="classlyra_1_1arg.html" target="_top" xlink:title=" ">
<polygon fill="white" stroke="black" points="440.5,-230.5 440.5,-249.5 497.5,-249.5 497.5,-230.5 440.5,-230.5"/>
<text text-anchor="middle" x="469" y="-237.5" font-family="Helvetica,sans-Serif" font-size="10.00">lyra::arg</text>
</a>
</g>
</g>
<!-- Node2&#45;&gt;Node3 -->
<g id="edge3" class="edge">
<title>Node2&#45;&gt;Node3</title>
<path fill="none" stroke="midnightblue" d="M398.34,-240C413.02,-240 427.93,-240 440.16,-240"/>
<polygon fill="midnightblue" stroke="midnightblue" points="398.25,-236.5 388.25,-240 398.25,-243.5 398.25,-236.5"/>
</g>
<!-- Node5 -->
<g id="node6" class="node">
<title>Node5</title>
<g id="a_node6"><a xlink:href="classlyra_1_1exe__name.html" target="_top" xlink:title=" ">
<polygon fill="white" stroke="black" points="288.5,-181.5 288.5,-200.5 380.5,-200.5 380.5,-181.5 288.5,-181.5"/>
<text text-anchor="middle" x="334.5" y="-188.5" font-family="Helvetica,sans-Serif" font-size="10.00">lyra::exe_name</text>
</a>
</g>
</g>
<!-- Node4&#45;&gt;Node5 -->
<g id="edge5" class="edge">
<title>Node4&#45;&gt;Node5</title>
<path fill="none" stroke="midnightblue" d="M255.03,-191C266.46,-191 277.9,-191 288.38,-191"/>
<polygon fill="midnightblue" stroke="midnightblue" points="255.02,-187.5 245.02,-191 255.02,-194.5 255.02,-187.5"/>
</g>
<!-- Node7 -->
<g id="node8" class="node">
<title>Node7</title>
<g id="a_node8"><a xlink:href="classlyra_1_1bound__parser.html" target="_top" xlink:title=" ">
<polygon fill="white" stroke="black" points="281,-130 281,-160 388,-160 388,-130 281,-130"/>
<text text-anchor="start" x="289" y="-148" font-family="Helvetica,sans-Serif" font-size="10.00">lyra::bound_parser</text>
<text text-anchor="middle" x="334.5" y="-137" font-family="Helvetica,sans-Serif" font-size="10.00">&lt; opt &gt;</text>
</a>
</g>
</g>
<!-- Node6&#45;&gt;Node7 -->
<g id="edge7" class="edge">
<title>Node6&#45;&gt;Node7</title>
<path fill="none" stroke="midnightblue" d="M255.21,-143.49C263.93,-143.66 272.64,-143.83 280.93,-143.99"/>
<polygon fill="midnightblue" stroke="midnightblue" points="255.08,-139.99 245.02,-143.3 254.95,-146.99 255.08,-139.99"/>
</g>
<!-- Node8 -->
<g id="node9" class="node">
<title>Node8</title>
<g id="a_node9"><a xlink:href="classlyra_1_1opt.html" target="_top" xlink:title=" ">
<polygon fill="white" stroke="black" points="440.5,-135.5 440.5,-154.5 497.5,-154.5 497.5,-135.5 440.5,-135.5"/>
<text text-anchor="middle" x="469" y="-142.5" font-family="Helvetica,sans-Serif" font-size="10.00">lyra::opt</text>
</a>
</g>
</g>
<!-- Node7&#45;&gt;Node8 -->
<g id="edge8" class="edge">
<title>Node7&#45;&gt;Node8</title>
<path fill="none" stroke="midnightblue" d="M398.34,-145C413.02,-145 427.93,-145 440.16,-145"/>
<polygon fill="midnightblue" stroke="midnightblue" points="398.25,-141.5 388.25,-145 398.25,-148.5 398.25,-141.5"/>
</g>
<!-- Node9 -->
<g id="node10" class="node">
<title>Node9</title>
<g id="a_node10"><a xlink:href="classlyra_1_1help.html" target="_top" xlink:title=" ">
<polygon fill="white" stroke="black" points="550,-135.5 550,-154.5 612,-154.5 612,-135.5 550,-135.5"/>
<text text-anchor="middle" x="581" y="-142.5" font-family="Helvetica,sans-Serif" font-size="10.00">lyra::help</text>
</a>
</g>
</g>
<!-- Node8&#45;&gt;Node9 -->
<g id="edge9" class="edge">
<title>Node8&#45;&gt;Node9</title>
<path fill="none" stroke="midnightblue" d="M507.89,-145C521.63,-145 536.96,-145 549.93,-145"/>
<polygon fill="midnightblue" stroke="midnightblue" points="507.76,-141.5 497.76,-145 507.76,-148.5 507.76,-141.5"/>
</g>
<!-- Node11 -->
<g id="node12" class="node">
<title>Node11</title>
<g id="a_node12"><a xlink:href="classlyra_1_1cli.html" target="_top" xlink:title=" ">
<polygon fill="white" stroke="black" points="308,-91.5 308,-110.5 361,-110.5 361,-91.5 308,-91.5"/>
<text text-anchor="middle" x="334.5" y="-98.5" font-family="Helvetica,sans-Serif" font-size="10.00">lyra::cli</text>
</a>
</g>
</g>
<!-- Node10&#45;&gt;Node11 -->
<g id="edge11" class="edge">
<title>Node10&#45;&gt;Node11</title>
<path fill="none" stroke="darkgreen" d="M234.11,-99.09C259.39,-99.57 287.91,-100.12 307.89,-100.51"/>
<polygon fill="darkgreen" stroke="darkgreen" points="233.95,-95.58 223.88,-98.89 233.81,-102.58 233.95,-95.58"/>
</g>
<!-- Node13 -->
<g id="node14" class="node">
<title>Node13</title>
<g id="a_node14"><a xlink:href="classlyra_1_1group.html" target="_top" xlink:title=" ">
<polygon fill="white" stroke="black" points="300,-53.5 300,-72.5 369,-72.5 369,-53.5 300,-53.5"/>
<text text-anchor="middle" x="334.5" y="-60.5" font-family="Helvetica,sans-Serif" font-size="10.00">lyra::group</text>
</a>
</g>
</g>
<!-- Node10&#45;&gt;Node13 -->
<g id="edge13" class="edge">
<title>Node10&#45;&gt;Node13</title>
<path fill="none" stroke="midnightblue" d="M230.1,-86.2C253.14,-81.03 279.48,-75.12 299.82,-70.56"/>
<polygon fill="midnightblue" stroke="midnightblue" points="229.12,-82.83 220.13,-88.44 230.65,-89.66 229.12,-82.83"/>
</g>
<!-- Node12 -->
<g id="node13" class="node">
<title>Node12</title>
<g id="a_node13"><a xlink:href="classlyra_1_1main.html" target="_top" xlink:title=" ">
<polygon fill="white" stroke="black" points="436,-91.5 436,-110.5 502,-110.5 502,-91.5 436,-91.5"/>
<text text-anchor="middle" x="469" y="-98.5" font-family="Helvetica,sans-Serif" font-size="10.00">lyra::main</text>
</a>
</g>
</g>
<!-- Node11&#45;&gt;Node12 -->
<g id="edge12" class="edge">
<title>Node11&#45;&gt;Node12</title>
<path fill="none" stroke="darkgreen" d="M371.11,-101C391.31,-101 416.39,-101 435.97,-101"/>
<polygon fill="darkgreen" stroke="darkgreen" points="371.05,-97.5 361.05,-101 371.05,-104.5 371.05,-97.5"/>
</g>
<!-- Node14 -->
<g id="node15" class="node">
<title>Node14</title>
<g id="a_node15"><a xlink:href="classlyra_1_1command.html" target="_top" xlink:title=" ">
<polygon fill="white" stroke="black" points="424,-53.5 424,-72.5 514,-72.5 514,-53.5 424,-53.5"/>
<text text-anchor="middle" x="469" y="-60.5" font-family="Helvetica,sans-Serif" font-size="10.00">lyra::command</text>
</a>
</g>
</g>
<!-- Node13&#45;&gt;Node14 -->
<g id="edge14" class="edge">
<title>Node13&#45;&gt;Node14</title>
<path fill="none" stroke="midnightblue" d="M379.35,-63C393.62,-63 409.47,-63 423.77,-63"/>
<polygon fill="midnightblue" stroke="midnightblue" points="379.28,-59.5 369.28,-63 379.28,-66.5 379.28,-59.5"/>
</g>
<!-- Node16 -->
<g id="node17" class="node">
<title>Node16</title>
<g id="a_node17"><a xlink:href="classlyra_1_1bound__parser.html" target="_top" xlink:title=" ">
<polygon fill="white" stroke="black" points="281,-4 281,-34 388,-34 388,-4 281,-4"/>
<text text-anchor="start" x="289" y="-22" font-family="Helvetica,sans-Serif" font-size="10.00">lyra::bound_parser</text>
<text text-anchor="middle" x="334.5" y="-11" font-family="Helvetica,sans-Serif" font-size="10.00">&lt; Derived &gt;</text>
</a>
</g>
</g>
<!-- Node15&#45;&gt;Node16 -->
<g id="edge16" class="edge">
<title>Node15&#45;&gt;Node16</title>
<path fill="none" stroke="midnightblue" d="M254.51,-36.72C263.35,-34.74 272.2,-32.75 280.62,-30.86"/>
<polygon fill="midnightblue" stroke="midnightblue" points="253.55,-33.35 244.56,-38.95 255.09,-40.18 253.55,-33.35"/>
</g>
</g>
</svg>
