<?xml version="1.0" encoding="UTF-8" standalone="no"?>
<!DOCTYPE svg PUBLIC "-//W3C//DTD SVG 1.1//EN"
 "http://www.w3.org/Graphics/SVG/1.1/DTD/svg11.dtd">
<!-- Generated by graphviz version 2.43.0 (0)
 -->
<!-- Title: Graphical Class Hierarchy Pages: 1 -->
<svg width="592pt" height="149pt"
 viewBox="0.00 0.00 592.00 148.50" xmlns="http://www.w3.org/2000/svg" xmlns:xlink="http://www.w3.org/1999/xlink">
<g id="graph0" class="graph" transform="scale(1 1) rotate(0) translate(4 144.5)">
<title>Graphical Class Hierarchy</title>
<polygon fill="white" stroke="transparent" points="-4,4 -4,-144.5 588,-144.5 588,4 -4,4"/>
<!-- Node0 -->
<g id="node1" class="node">
<title>Node0</title>
<g id="a_node1"><a xlink:href="classlyra_1_1detail_1_1result__base.html" target="_top" xlink:title=" ">
<polygon fill="white" stroke="black" points="0,-55 0,-74 131,-74 131,-55 0,-55"/>
<text text-anchor="middle" x="65.5" y="-62" font-family="Helvetica,sans-Serif" font-size="10.00">lyra::detail::result_base</text>
</a>
</g>
</g>
<!-- Node1 -->
<g id="node2" class="node">
<title>Node1</title>
<g id="a_node2"><a xlink:href="classlyra_1_1detail_1_1result__value__base.html" target="_top" xlink:title=" ">
<polygon fill="white" stroke="black" points="167,-99 167,-140 289,-140 289,-99 167,-99"/>
<text text-anchor="start" x="175" y="-128" font-family="Helvetica,sans-Serif" font-size="10.00">lyra::detail::result</text>
<text text-anchor="start" x="175" y="-117" font-family="Helvetica,sans-Serif" font-size="10.00">_value_base&lt; detail::</text>
<text text-anchor="middle" x="228" y="-106" font-family="Helvetica,sans-Serif" font-size="10.00">parse_state &gt;</text>
</a>
</g>
</g>
<!-- Node0&#45;&gt;Node1 -->
<g id="edge1" class="edge">
<title>Node0&#45;&gt;Node1</title>
<path fill="none" stroke="midnightblue" d="M104.11,-77.39C122.87,-83.82 146.01,-91.75 167.13,-98.98"/>
<polygon fill="midnightblue" stroke="midnightblue" points="105.05,-74.01 94.46,-74.08 102.78,-80.63 105.05,-74.01"/>
</g>
<!-- Node4 -->
<g id="node5" class="node">
<title>Node4</title>
<g id="a_node5"><a xlink:href="classlyra_1_1detail_1_1result__value__base.html" target="_top" xlink:title=" ">
<polygon fill="white" stroke="black" points="175,-49.5 175,-79.5 281,-79.5 281,-49.5 175,-49.5"/>
<text text-anchor="start" x="183" y="-67.5" font-family="Helvetica,sans-Serif" font-size="10.00">lyra::detail::result</text>
<text text-anchor="middle" x="228" y="-56.5" font-family="Helvetica,sans-Serif" font-size="10.00">_value_base&lt; T &gt;</text>
</a>
</g>
</g>
<!-- Node0&#45;&gt;Node4 -->
<g id="edge4" class="edge">
<title>Node0&#45;&gt;Node4</title>
<path fill="none" stroke="midnightblue" d="M141.56,-64.5C152.79,-64.5 164.14,-64.5 174.76,-64.5"/>
<polygon fill="midnightblue" stroke="midnightblue" points="141.32,-61 131.32,-64.5 141.32,-68 141.32,-61"/>
</g>
<!-- Node6 -->
<g id="node7" class="node">
<title>Node6</title>
<g id="a_node7"><a xlink:href="classlyra_1_1detail_1_1result__value__base_3_01void_01_4.html" target="_top" xlink:title=" ">
<polygon fill="white" stroke="black" points="167.5,-0.5 167.5,-30.5 288.5,-30.5 288.5,-0.5 167.5,-0.5"/>
<text text-anchor="start" x="175.5" y="-18.5" font-family="Helvetica,sans-Serif" font-size="10.00">lyra::detail::result</text>
<text text-anchor="middle" x="228" y="-7.5" font-family="Helvetica,sans-Serif" font-size="10.00">_value_base&lt; void &gt;</text>
</a>
</g>
</g>
<!-- Node0&#45;&gt;Node6 -->
<g id="edge6" class="edge">
<title>Node0&#45;&gt;Node6</title>
<path fill="none" stroke="midnightblue" d="M107.58,-51.96C128.97,-45.43 155.27,-37.4 177.75,-30.54"/>
<polygon fill="midnightblue" stroke="midnightblue" points="106.37,-48.67 97.83,-54.94 108.41,-55.36 106.37,-48.67"/>
</g>
<!-- Node2 -->
<g id="node3" class="node">
<title>Node2</title>
<g id="a_node3"><a xlink:href="classlyra_1_1detail_1_1basic__result.html" target="_top" xlink:title=" ">
<polygon fill="white" stroke="black" points="325,-99 325,-140 447,-140 447,-99 325,-99"/>
<text text-anchor="start" x="333" y="-128" font-family="Helvetica,sans-Serif" font-size="10.00">lyra::detail::basic</text>
<text text-anchor="start" x="333" y="-117" font-family="Helvetica,sans-Serif" font-size="10.00">_result&lt; detail::parse</text>
<text text-anchor="middle" x="386" y="-106" font-family="Helvetica,sans-Serif" font-size="10.00">_state &gt;</text>
</a>
</g>
</g>
<!-- Node1&#45;&gt;Node2 -->
<g id="edge2" class="edge">
<title>Node1&#45;&gt;Node2</title>
<path fill="none" stroke="midnightblue" d="M299.54,-119.5C307.99,-119.5 316.56,-119.5 324.85,-119.5"/>
<polygon fill="midnightblue" stroke="midnightblue" points="299.31,-116 289.31,-119.5 299.31,-123 299.31,-116"/>
</g>
<!-- Node3 -->
<g id="node4" class="node">
<title>Node3</title>
<g id="a_node4"><a xlink:href="classlyra_1_1parse__result.html" target="_top" xlink:title=" ">
<polygon fill="white" stroke="black" points="483,-110 483,-129 584,-129 584,-110 483,-110"/>
<text text-anchor="middle" x="533.5" y="-117" font-family="Helvetica,sans-Serif" font-size="10.00">lyra::parse_result</text>
</a>
</g>
</g>
<!-- Node2&#45;&gt;Node3 -->
<g id="edge3" class="edge">
<title>Node2&#45;&gt;Node3</title>
<path fill="none" stroke="midnightblue" d="M457.14,-119.5C465.81,-119.5 474.52,-119.5 482.8,-119.5"/>
<polygon fill="midnightblue" stroke="midnightblue" points="457.02,-116 447.02,-119.5 457.02,-123 457.02,-116"/>
</g>
<!-- Node5 -->
<g id="node6" class="node">
<title>Node5</title>
<g id="a_node6"><a xlink:href="classlyra_1_1detail_1_1basic__result.html" target="_top" xlink:title=" ">
<polygon fill="white" stroke="black" points="335.5,-49.5 335.5,-79.5 436.5,-79.5 436.5,-49.5 335.5,-49.5"/>
<text text-anchor="start" x="343.5" y="-67.5" font-family="Helvetica,sans-Serif" font-size="10.00">lyra::detail::basic</text>
<text text-anchor="middle" x="386" y="-56.5" font-family="Helvetica,sans-Serif" font-size="10.00">_result&lt; T &gt;</text>
</a>
</g>
</g>
<!-- Node4&#45;&gt;Node5 -->
<g id="edge5" class="edge">
<title>Node4&#45;&gt;Node5</title>
<path fill="none" stroke="midnightblue" d="M291.79,-64.5C306.3,-64.5 321.54,-64.5 335.4,-64.5"/>
<polygon fill="midnightblue" stroke="midnightblue" points="291.38,-61 281.38,-64.5 291.38,-68 291.38,-61"/>
</g>
<!-- Node7 -->
<g id="node8" class="node">
<title>Node7</title>
<g id="a_node8"><a xlink:href="classlyra_1_1detail_1_1basic__result_3_01void_01_4.html" target="_top" xlink:title=" ">
<polygon fill="white" stroke="black" points="335.5,-0.5 335.5,-30.5 436.5,-30.5 436.5,-0.5 335.5,-0.5"/>
<text text-anchor="start" x="343.5" y="-18.5" font-family="Helvetica,sans-Serif" font-size="10.00">lyra::detail::basic</text>
<text text-anchor="middle" x="386" y="-7.5" font-family="Helvetica,sans-Serif" font-size="10.00">_result&lt; void &gt;</text>
</a>
</g>
</g>
<!-- Node6&#45;&gt;Node7 -->
<g id="edge7" class="edge">
<title>Node6&#45;&gt;Node7</title>
<path fill="none" stroke="midnightblue" d="M299.02,-15.5C311.21,-15.5 323.66,-15.5 335.17,-15.5"/>
<polygon fill="midnightblue" stroke="midnightblue" points="298.87,-12 288.87,-15.5 298.87,-19 298.87,-12"/>
</g>
</g>
</svg>
