<?xml version="1.0" encoding="UTF-8" standalone="no"?>
<!DOCTYPE svg PUBLIC "-//W3C//DTD SVG 1.1//EN"
 "http://www.w3.org/Graphics/SVG/1.1/DTD/svg11.dtd">
<!-- Generated by graphviz version 2.43.0 (0)
 -->
<!-- Title: Lyra/include/lyra/literal.hpp Pages: 1 -->
<svg width="1510pt" height="498pt"
 viewBox="0.00 0.00 1509.50 498.00" xmlns="http://www.w3.org/2000/svg" xmlns:xlink="http://www.w3.org/1999/xlink">
<g id="graph0" class="graph" transform="scale(1 1) rotate(0) translate(4 494)">
<title>Lyra/include/lyra/literal.hpp</title>
<polygon fill="white" stroke="transparent" points="-4,4 -4,-494 1505.5,-494 1505.5,4 -4,4"/>
<!-- Node1 -->
<g id="node1" class="node">
<title>Node1</title>
<g id="a_node1"><a xlink:title=" ">
<polygon fill="#bfbfbf" stroke="black" points="392,-470.5 392,-489.5 541,-489.5 541,-470.5 392,-470.5"/>
<text text-anchor="middle" x="466.5" y="-477.5" font-family="Helvetica,sans-Serif" font-size="10.00">Lyra/include/lyra/literal.hpp</text>
</a>
</g>
</g>
<!-- Node2 -->
<g id="node2" class="node">
<title>Node2</title>
<g id="a_node2"><a xlink:href="parser_8hpp.html" target="_top" xlink:title=" ">
<polygon fill="white" stroke="black" points="800.5,-414.5 800.5,-433.5 890.5,-433.5 890.5,-414.5 800.5,-414.5"/>
<text text-anchor="middle" x="845.5" y="-421.5" font-family="Helvetica,sans-Serif" font-size="10.00">lyra/parser.hpp</text>
</a>
</g>
</g>
<!-- Node1&#45;&gt;Node2 -->
<g id="edge1" class="edge">
<title>Node1&#45;&gt;Node2</title>
<path fill="none" stroke="midnightblue" d="M526.55,-470.44C599.07,-460.11 720.02,-442.88 790.29,-432.87"/>
<polygon fill="midnightblue" stroke="midnightblue" points="790.88,-436.32 800.28,-431.44 789.89,-429.39 790.88,-436.32"/>
</g>
<!-- Node5 -->
<g id="node5" class="node">
<title>Node5</title>
<g id="a_node5"><a xlink:title=" ">
<polygon fill="white" stroke="#bfbfbf" points="778.5,-0.5 778.5,-19.5 822.5,-19.5 822.5,-0.5 778.5,-0.5"/>
<text text-anchor="middle" x="800.5" y="-7.5" font-family="Helvetica,sans-Serif" font-size="10.00">string</text>
</a>
</g>
</g>
<!-- Node1&#45;&gt;Node5 -->
<g id="edge59" class="edge">
<title>Node1&#45;&gt;Node5</title>
<path fill="none" stroke="midnightblue" d="M420.43,-470.49C327.74,-450.43 127.5,-390.95 127.5,-251.5 127.5,-251.5 127.5,-251.5 127.5,-188 127.5,-145.78 150.16,-136.57 184.5,-112 249.88,-65.22 277.84,-72.59 356.5,-56 508.24,-23.99 694.12,-14.53 768,-11.92"/>
<polygon fill="midnightblue" stroke="midnightblue" points="768.19,-15.42 778.07,-11.58 767.95,-8.42 768.19,-15.42"/>
</g>
<!-- Node3 -->
<g id="node3" class="node">
<title>Node3</title>
<g id="a_node3"><a xlink:href="args_8hpp.html" target="_top" xlink:title=" ">
<polygon fill="white" stroke="black" points="1111.5,-179.5 1111.5,-198.5 1191.5,-198.5 1191.5,-179.5 1111.5,-179.5"/>
<text text-anchor="middle" x="1151.5" y="-186.5" font-family="Helvetica,sans-Serif" font-size="10.00">lyra/args.hpp</text>
</a>
</g>
</g>
<!-- Node2&#45;&gt;Node3 -->
<g id="edge2" class="edge">
<title>Node2&#45;&gt;Node3</title>
<path fill="none" stroke="midnightblue" d="M890.86,-421.33C991.95,-417.14 1228.7,-404.58 1252.5,-378 1302,-322.73 1212.25,-238.89 1170.82,-205"/>
<polygon fill="midnightblue" stroke="midnightblue" points="1172.77,-202.08 1162.78,-198.55 1168.4,-207.54 1172.77,-202.08"/>
</g>
<!-- Node2&#45;&gt;Node5 -->
<g id="edge57" class="edge">
<title>Node2&#45;&gt;Node5</title>
<path fill="none" stroke="midnightblue" d="M835.91,-414.34C817.83,-397.02 780.5,-356.03 780.5,-313 780.5,-313 780.5,-313 780.5,-249.5 780.5,-167.26 792.46,-69.62 797.88,-29.55"/>
<polygon fill="midnightblue" stroke="midnightblue" points="801.35,-30.03 799.25,-19.64 794.41,-29.07 801.35,-30.03"/>
</g>
<!-- Node7 -->
<g id="node7" class="node">
<title>Node7</title>
<g id="a_node7"><a xlink:href="bound_8hpp.html" target="_top" xlink:title=" ">
<polygon fill="white" stroke="black" points="516.5,-302.5 516.5,-321.5 636.5,-321.5 636.5,-302.5 516.5,-302.5"/>
<text text-anchor="middle" x="576.5" y="-309.5" font-family="Helvetica,sans-Serif" font-size="10.00">lyra/detail/bound.hpp</text>
</a>
</g>
</g>
<!-- Node2&#45;&gt;Node7 -->
<g id="edge6" class="edge">
<title>Node2&#45;&gt;Node7</title>
<path fill="none" stroke="midnightblue" d="M821.02,-414.48C796.27,-405.75 756.98,-391.56 723.5,-378 681.44,-360.96 633.5,-339.34 604.12,-325.84"/>
<polygon fill="midnightblue" stroke="midnightblue" points="605.45,-322.6 594.9,-321.59 602.52,-328.95 605.45,-322.6"/>
</g>
<!-- Node8 -->
<g id="node8" class="node">
<title>Node8</title>
<g id="a_node8"><a xlink:href="from__string_8hpp.html" target="_top" xlink:title=" ">
<polygon fill="white" stroke="black" points="351.5,-118 351.5,-137 497.5,-137 497.5,-118 351.5,-118"/>
<text text-anchor="middle" x="424.5" y="-125" font-family="Helvetica,sans-Serif" font-size="10.00">lyra/detail/from_string.hpp</text>
</a>
</g>
</g>
<!-- Node2&#45;&gt;Node8 -->
<g id="edge39" class="edge">
<title>Node2&#45;&gt;Node8</title>
<path fill="none" stroke="midnightblue" d="M800.25,-422.22C680.51,-418.94 364.5,-401.88 364.5,-313 364.5,-313 364.5,-313 364.5,-249.5 364.5,-208.51 392.47,-167.09 410.22,-144.93"/>
<polygon fill="midnightblue" stroke="midnightblue" points="412.96,-147.1 416.66,-137.17 407.58,-142.63 412.96,-147.1"/>
</g>
<!-- Node9 -->
<g id="node9" class="node">
<title>Node9</title>
<g id="a_node9"><a xlink:href="trait__utils_8hpp.html" target="_top" xlink:title=" ">
<polygon fill="white" stroke="black" points="0,-56.5 0,-75.5 137,-75.5 137,-56.5 0,-56.5"/>
<text text-anchor="middle" x="68.5" y="-63.5" font-family="Helvetica,sans-Serif" font-size="10.00">lyra/detail/trait_utils.hpp</text>
</a>
</g>
</g>
<!-- Node2&#45;&gt;Node9 -->
<g id="edge46" class="edge">
<title>Node2&#45;&gt;Node9</title>
<path fill="none" stroke="midnightblue" d="M800.43,-422.67C655.12,-421.25 205.24,-413.98 151.5,-378 99.47,-343.17 89.5,-314.11 89.5,-251.5 89.5,-251.5 89.5,-251.5 89.5,-188 89.5,-151.19 79.95,-108.99 73.73,-85.42"/>
<polygon fill="midnightblue" stroke="midnightblue" points="77.09,-84.44 71.08,-75.72 70.34,-86.28 77.09,-84.44"/>
</g>
<!-- Node10 -->
<g id="node10" class="node">
<title>Node10</title>
<g id="a_node10"><a xlink:title=" ">
<polygon fill="white" stroke="#bfbfbf" points="169,-0.5 169,-19.5 238,-19.5 238,-0.5 169,-0.5"/>
<text text-anchor="middle" x="203.5" y="-7.5" font-family="Helvetica,sans-Serif" font-size="10.00">type_traits</text>
</a>
</g>
</g>
<!-- Node2&#45;&gt;Node10 -->
<g id="edge58" class="edge">
<title>Node2&#45;&gt;Node10</title>
<path fill="none" stroke="midnightblue" d="M800.36,-420.48C648.48,-411.41 165.5,-377.5 165.5,-313 165.5,-313 165.5,-313 165.5,-126.5 165.5,-90.25 182.59,-50.67 193.85,-28.53"/>
<polygon fill="midnightblue" stroke="midnightblue" points="196.96,-30.14 198.53,-19.66 190.77,-26.87 196.96,-30.14"/>
</g>
<!-- Node15 -->
<g id="node15" class="node">
<title>Node15</title>
<g id="a_node15"><a xlink:href="parser__result_8hpp.html" target="_top" xlink:title=" ">
<polygon fill="white" stroke="black" points="592,-118 592,-137 715,-137 715,-118 592,-118"/>
<text text-anchor="middle" x="653.5" y="-125" font-family="Helvetica,sans-Serif" font-size="10.00">lyra/parser_result.hpp</text>
</a>
</g>
</g>
<!-- Node2&#45;&gt;Node15 -->
<g id="edge48" class="edge">
<title>Node2&#45;&gt;Node15</title>
<path fill="none" stroke="midnightblue" d="M822.13,-414.37C804.85,-406.97 781.76,-394.84 766.5,-378 745.26,-354.56 737.5,-344.63 737.5,-313 737.5,-313 737.5,-313 737.5,-249.5 737.5,-204.66 698.1,-164.49 673.27,-143.62"/>
<polygon fill="midnightblue" stroke="midnightblue" points="675.15,-140.64 665.18,-137.06 670.75,-146.08 675.15,-140.64"/>
</g>
<!-- Node16 -->
<g id="node16" class="node">
<title>Node16</title>
<g id="a_node16"><a xlink:href="result_8hpp.html" target="_top" xlink:title=" ">
<polygon fill="white" stroke="black" points="1196.5,-56.5 1196.5,-75.5 1314.5,-75.5 1314.5,-56.5 1196.5,-56.5"/>
<text text-anchor="middle" x="1255.5" y="-63.5" font-family="Helvetica,sans-Serif" font-size="10.00">lyra/detail/result.hpp</text>
</a>
</g>
</g>
<!-- Node2&#45;&gt;Node16 -->
<g id="edge40" class="edge">
<title>Node2&#45;&gt;Node16</title>
<path fill="none" stroke="midnightblue" d="M890.94,-422.75C1015.38,-420.84 1352.5,-407.01 1352.5,-313 1352.5,-313 1352.5,-313 1352.5,-188 1352.5,-140.87 1307.14,-101.62 1278.46,-81.51"/>
<polygon fill="midnightblue" stroke="midnightblue" points="1280.06,-78.36 1269.81,-75.66 1276.14,-84.16 1280.06,-78.36"/>
</g>
<!-- Node17 -->
<g id="node17" class="node">
<title>Node17</title>
<g id="a_node17"><a xlink:title=" ">
<polygon fill="white" stroke="#bfbfbf" points="1332.5,-0.5 1332.5,-19.5 1390.5,-19.5 1390.5,-0.5 1332.5,-0.5"/>
<text text-anchor="middle" x="1361.5" y="-7.5" font-family="Helvetica,sans-Serif" font-size="10.00">memory</text>
</a>
</g>
</g>
<!-- Node2&#45;&gt;Node17 -->
<g id="edge56" class="edge">
<title>Node2&#45;&gt;Node17</title>
<path fill="none" stroke="midnightblue" d="M890.56,-423.44C1021.14,-423.51 1390.5,-414.71 1390.5,-313 1390.5,-313 1390.5,-313 1390.5,-188 1390.5,-129.51 1374.88,-61.55 1366.57,-29.52"/>
<polygon fill="midnightblue" stroke="midnightblue" points="1369.93,-28.52 1363.97,-19.76 1363.16,-30.32 1369.93,-28.52"/>
</g>
<!-- Node19 -->
<g id="node19" class="node">
<title>Node19</title>
<g id="a_node19"><a xlink:href="choices_8hpp.html" target="_top" xlink:title=" ">
<polygon fill="white" stroke="black" points="809,-179.5 809,-198.5 936,-198.5 936,-179.5 809,-179.5"/>
<text text-anchor="middle" x="872.5" y="-186.5" font-family="Helvetica,sans-Serif" font-size="10.00">lyra/detail/choices.hpp</text>
</a>
</g>
</g>
<!-- Node2&#45;&gt;Node19 -->
<g id="edge30" class="edge">
<title>Node2&#45;&gt;Node19</title>
<path fill="none" stroke="midnightblue" d="M846.49,-414.43C850.4,-380.75 864.74,-256.99 870.29,-209.1"/>
<polygon fill="midnightblue" stroke="midnightblue" points="873.79,-209.23 871.47,-198.9 866.84,-208.43 873.79,-209.23"/>
</g>
<!-- Node20 -->
<g id="node20" class="node">
<title>Node20</title>
<g id="a_node20"><a xlink:href="tokens_8hpp.html" target="_top" xlink:title=" ">
<polygon fill="white" stroke="black" points="971.5,-179.5 971.5,-198.5 1093.5,-198.5 1093.5,-179.5 971.5,-179.5"/>
<text text-anchor="middle" x="1032.5" y="-186.5" font-family="Helvetica,sans-Serif" font-size="10.00">lyra/detail/tokens.hpp</text>
</a>
</g>
</g>
<!-- Node2&#45;&gt;Node20 -->
<g id="edge41" class="edge">
<title>Node2&#45;&gt;Node20</title>
<path fill="none" stroke="midnightblue" d="M887.43,-414.47C910.37,-407.9 937.84,-396.68 956.5,-378 1004.98,-329.47 1023.69,-245.91 1029.86,-208.75"/>
<polygon fill="midnightblue" stroke="midnightblue" points="1033.33,-209.22 1031.39,-198.8 1026.41,-208.15 1033.33,-209.22"/>
</g>
<!-- Node21 -->
<g id="node21" class="node">
<title>Node21</title>
<g id="a_node21"><a xlink:href="option__style_8hpp.html" target="_top" xlink:title=" ">
<polygon fill="white" stroke="black" points="1091,-118 1091,-137 1210,-137 1210,-118 1091,-118"/>
<text text-anchor="middle" x="1150.5" y="-125" font-family="Helvetica,sans-Serif" font-size="10.00">lyra/option_style.hpp</text>
</a>
</g>
</g>
<!-- Node2&#45;&gt;Node21 -->
<g id="edge47" class="edge">
<title>Node2&#45;&gt;Node21</title>
<path fill="none" stroke="midnightblue" d="M879.72,-414.49C955.86,-393.4 1137.54,-330.65 1200.5,-199 1210.51,-178.06 1190.17,-156.69 1172.5,-143.05"/>
<polygon fill="midnightblue" stroke="midnightblue" points="1174.33,-140.05 1164.18,-137.01 1170.22,-145.72 1174.33,-140.05"/>
</g>
<!-- Node22 -->
<g id="node22" class="node">
<title>Node22</title>
<g id="a_node22"><a xlink:href="printer_8hpp.html" target="_top" xlink:title=" ">
<polygon fill="white" stroke="black" points="1409.5,-56.5 1409.5,-75.5 1501.5,-75.5 1501.5,-56.5 1409.5,-56.5"/>
<text text-anchor="middle" x="1455.5" y="-63.5" font-family="Helvetica,sans-Serif" font-size="10.00">lyra/printer.hpp</text>
</a>
</g>
</g>
<!-- Node2&#45;&gt;Node22 -->
<g id="edge49" class="edge">
<title>Node2&#45;&gt;Node22</title>
<path fill="none" stroke="midnightblue" d="M890.69,-421.65C1015.88,-417.58 1360.83,-404.1 1404.5,-378 1434.02,-360.35 1446.5,-347.39 1446.5,-313 1446.5,-313 1446.5,-313 1446.5,-188 1446.5,-151.79 1450.56,-109.66 1453.22,-85.88"/>
<polygon fill="midnightblue" stroke="midnightblue" points="1456.72,-86.13 1454.4,-75.79 1449.77,-85.32 1456.72,-86.13"/>
</g>
<!-- Node24 -->
<g id="node24" class="node">
<title>Node24</title>
<g id="a_node24"><a xlink:href="val_8hpp.html" target="_top" xlink:title=" ">
<polygon fill="white" stroke="black" points="873.5,-358.5 873.5,-377.5 947.5,-377.5 947.5,-358.5 873.5,-358.5"/>
<text text-anchor="middle" x="910.5" y="-365.5" font-family="Helvetica,sans-Serif" font-size="10.00">lyra/val.hpp</text>
</a>
</g>
</g>
<!-- Node2&#45;&gt;Node24 -->
<g id="edge53" class="edge">
<title>Node2&#45;&gt;Node24</title>
<path fill="none" stroke="midnightblue" d="M855.94,-414.32C865.65,-406.26 880.32,-394.08 892,-384.37"/>
<polygon fill="midnightblue" stroke="midnightblue" points="894.41,-386.92 899.87,-377.83 889.94,-381.53 894.41,-386.92"/>
</g>
<!-- Node4 -->
<g id="node4" class="node">
<title>Node4</title>
<g id="a_node4"><a xlink:title=" ">
<polygon fill="white" stroke="#bfbfbf" points="951,-118 951,-137 1034,-137 1034,-118 951,-118"/>
<text text-anchor="middle" x="992.5" y="-125" font-family="Helvetica,sans-Serif" font-size="10.00">initializer_list</text>
</a>
</g>
</g>
<!-- Node3&#45;&gt;Node4 -->
<g id="edge3" class="edge">
<title>Node3&#45;&gt;Node4</title>
<path fill="none" stroke="midnightblue" d="M1128.72,-179.48C1101.45,-169.27 1055.59,-152.11 1024.7,-140.55"/>
<polygon fill="midnightblue" stroke="midnightblue" points="1025.83,-137.24 1015.24,-137.01 1023.38,-143.79 1025.83,-137.24"/>
</g>
<!-- Node3&#45;&gt;Node5 -->
<g id="edge4" class="edge">
<title>Node3&#45;&gt;Node5</title>
<path fill="none" stroke="midnightblue" d="M1174.95,-179.41C1190.66,-172.28 1210.12,-160.46 1219.5,-143 1226.02,-130.86 1226.82,-123.67 1219.5,-112 1177.79,-45.55 923.27,-20.19 832.57,-13.2"/>
<polygon fill="midnightblue" stroke="midnightblue" points="832.82,-9.7 822.59,-12.45 832.3,-16.69 832.82,-9.7"/>
</g>
<!-- Node6 -->
<g id="node6" class="node">
<title>Node6</title>
<g id="a_node6"><a xlink:title=" ">
<polygon fill="white" stroke="#bfbfbf" points="886,-118 886,-137 933,-137 933,-118 886,-118"/>
<text text-anchor="middle" x="909.5" y="-125" font-family="Helvetica,sans-Serif" font-size="10.00">vector</text>
</a>
</g>
</g>
<!-- Node3&#45;&gt;Node6 -->
<g id="edge5" class="edge">
<title>Node3&#45;&gt;Node6</title>
<path fill="none" stroke="midnightblue" d="M1111.48,-180.49C1059.74,-170.59 972.58,-153.24 941.5,-143 939.63,-142.38 937.73,-141.69 935.82,-140.96"/>
<polygon fill="midnightblue" stroke="midnightblue" points="937.08,-137.69 926.5,-137.02 934.35,-144.13 937.08,-137.69"/>
</g>
<!-- Node7&#45;&gt;Node5 -->
<g id="edge29" class="edge">
<title>Node7&#45;&gt;Node5</title>
<path fill="none" stroke="midnightblue" d="M573.76,-302.09C565.15,-272.23 541.55,-174.02 582.5,-112 624.77,-47.98 718.82,-23.82 768.44,-15.29"/>
<polygon fill="midnightblue" stroke="midnightblue" points="769,-18.74 778.31,-13.69 767.88,-11.83 769,-18.74"/>
</g>
<!-- Node7&#45;&gt;Node8 -->
<g id="edge7" class="edge">
<title>Node7&#45;&gt;Node8</title>
<path fill="none" stroke="midnightblue" d="M553.51,-302.43C517.58,-287.64 449.38,-253.54 421.5,-199 413.32,-183.01 415.5,-162.21 418.85,-147.35"/>
<polygon fill="midnightblue" stroke="midnightblue" points="422.33,-147.89 421.49,-137.33 415.56,-146.11 422.33,-147.89"/>
</g>
<!-- Node13 -->
<g id="node13" class="node">
<title>Node13</title>
<g id="a_node13"><a xlink:href="invoke__lambda_8hpp.html" target="_top" xlink:title=" ">
<polygon fill="white" stroke="black" points="605,-235.5 605,-265.5 706,-265.5 706,-235.5 605,-235.5"/>
<text text-anchor="start" x="613" y="-253.5" font-family="Helvetica,sans-Serif" font-size="10.00">lyra/detail/invoke</text>
<text text-anchor="middle" x="655.5" y="-242.5" font-family="Helvetica,sans-Serif" font-size="10.00">_lambda.hpp</text>
</a>
</g>
</g>
<!-- Node7&#45;&gt;Node13 -->
<g id="edge14" class="edge">
<title>Node7&#45;&gt;Node13</title>
<path fill="none" stroke="midnightblue" d="M587.82,-302.48C598.42,-294.49 614.67,-282.25 628.59,-271.77"/>
<polygon fill="midnightblue" stroke="midnightblue" points="631,-274.33 636.88,-265.52 626.79,-268.74 631,-274.33"/>
</g>
<!-- Node14 -->
<g id="node14" class="node">
<title>Node14</title>
<g id="a_node14"><a xlink:href="parse_8hpp.html" target="_top" xlink:title=" ">
<polygon fill="white" stroke="black" points="431,-179.5 431,-198.5 548,-198.5 548,-179.5 431,-179.5"/>
<text text-anchor="middle" x="489.5" y="-186.5" font-family="Helvetica,sans-Serif" font-size="10.00">lyra/detail/parse.hpp</text>
</a>
</g>
</g>
<!-- Node7&#45;&gt;Node14 -->
<g id="edge27" class="edge">
<title>Node7&#45;&gt;Node14</title>
<path fill="none" stroke="midnightblue" d="M570.24,-302.3C555.88,-282.33 520.36,-232.92 501.58,-206.8"/>
<polygon fill="midnightblue" stroke="midnightblue" points="504.38,-204.7 495.7,-198.62 498.7,-208.79 504.38,-204.7"/>
</g>
<!-- Node18 -->
<g id="node18" class="node">
<title>Node18</title>
<g id="a_node18"><a xlink:href="unary__lambda__traits_8hpp.html" target="_top" xlink:title=" ">
<polygon fill="white" stroke="black" points="194,-112.5 194,-142.5 333,-142.5 333,-112.5 194,-112.5"/>
<text text-anchor="start" x="202" y="-130.5" font-family="Helvetica,sans-Serif" font-size="10.00">lyra/detail/unary_lambda</text>
<text text-anchor="middle" x="263.5" y="-119.5" font-family="Helvetica,sans-Serif" font-size="10.00">_traits.hpp</text>
</a>
</g>
</g>
<!-- Node7&#45;&gt;Node18 -->
<g id="edge28" class="edge">
<title>Node7&#45;&gt;Node18</title>
<path fill="none" stroke="midnightblue" d="M542.72,-302.44C515.76,-294.88 477.5,-282.49 446.5,-266 384.07,-232.8 320.03,-179.33 286.76,-149.8"/>
<polygon fill="midnightblue" stroke="midnightblue" points="288.77,-146.91 278.99,-142.84 284.1,-152.12 288.77,-146.91"/>
</g>
<!-- Node8&#45;&gt;Node5 -->
<g id="edge12" class="edge">
<title>Node8&#45;&gt;Node5</title>
<path fill="none" stroke="midnightblue" d="M432.13,-117.85C446.17,-102.56 477.74,-70.99 511.5,-56 598.52,-17.37 713.1,-11.19 768.19,-10.64"/>
<polygon fill="midnightblue" stroke="midnightblue" points="768.4,-14.14 778.39,-10.6 768.37,-7.14 768.4,-14.14"/>
</g>
<!-- Node8&#45;&gt;Node9 -->
<g id="edge8" class="edge">
<title>Node8&#45;&gt;Node9</title>
<path fill="none" stroke="midnightblue" d="M376.24,-117.99C364.85,-116 352.75,-113.91 341.5,-112 269.39,-99.76 186.47,-86.16 131.12,-77.15"/>
<polygon fill="midnightblue" stroke="midnightblue" points="131.55,-73.67 121.12,-75.52 130.42,-80.58 131.55,-73.67"/>
</g>
<!-- Node8&#45;&gt;Node10 -->
<g id="edge13" class="edge">
<title>Node8&#45;&gt;Node10</title>
<path fill="none" stroke="midnightblue" d="M407.89,-117.82C369.56,-97.79 274.72,-48.22 228.98,-24.32"/>
<polygon fill="midnightblue" stroke="midnightblue" points="230.49,-21.15 220,-19.62 227.24,-27.36 230.49,-21.15"/>
</g>
<!-- Node12 -->
<g id="node12" class="node">
<title>Node12</title>
<g id="a_node12"><a xlink:title=" ">
<polygon fill="white" stroke="#bfbfbf" points="365.5,-56.5 365.5,-75.5 421.5,-75.5 421.5,-56.5 365.5,-56.5"/>
<text text-anchor="middle" x="393.5" y="-63.5" font-family="Helvetica,sans-Serif" font-size="10.00">sstream</text>
</a>
</g>
</g>
<!-- Node8&#45;&gt;Node12 -->
<g id="edge11" class="edge">
<title>Node8&#45;&gt;Node12</title>
<path fill="none" stroke="midnightblue" d="M420.06,-117.98C415.55,-109.32 408.43,-95.65 402.69,-84.65"/>
<polygon fill="midnightblue" stroke="midnightblue" points="405.66,-82.76 397.93,-75.51 399.45,-85.99 405.66,-82.76"/>
</g>
<!-- Node9&#45;&gt;Node10 -->
<g id="edge9" class="edge">
<title>Node9&#45;&gt;Node10</title>
<path fill="none" stroke="midnightblue" d="M89.89,-56.44C112.21,-47.52 147.4,-33.44 172.71,-23.32"/>
<polygon fill="midnightblue" stroke="midnightblue" points="174.22,-26.48 182.21,-19.52 171.62,-19.98 174.22,-26.48"/>
</g>
<!-- Node11 -->
<g id="node11" class="node">
<title>Node11</title>
<g id="a_node11"><a xlink:title=" ">
<polygon fill="white" stroke="#bfbfbf" points="46,-0.5 46,-19.5 91,-19.5 91,-0.5 46,-0.5"/>
<text text-anchor="middle" x="68.5" y="-7.5" font-family="Helvetica,sans-Serif" font-size="10.00">utility</text>
</a>
</g>
</g>
<!-- Node9&#45;&gt;Node11 -->
<g id="edge10" class="edge">
<title>Node9&#45;&gt;Node11</title>
<path fill="none" stroke="midnightblue" d="M68.5,-56.08C68.5,-49.01 68.5,-38.86 68.5,-29.99"/>
<polygon fill="midnightblue" stroke="midnightblue" points="72,-29.75 68.5,-19.75 65,-29.75 72,-29.75"/>
</g>
<!-- Node13&#45;&gt;Node14 -->
<g id="edge15" class="edge">
<title>Node13&#45;&gt;Node14</title>
<path fill="none" stroke="midnightblue" d="M616.16,-235.4C587.94,-225.28 550.29,-211.79 523.4,-202.15"/>
<polygon fill="midnightblue" stroke="midnightblue" points="524.25,-198.74 513.65,-198.66 521.89,-205.33 524.25,-198.74"/>
</g>
<!-- Node13&#45;&gt;Node15 -->
<g id="edge26" class="edge">
<title>Node13&#45;&gt;Node15</title>
<path fill="none" stroke="midnightblue" d="M655.26,-235.14C654.9,-213.2 654.21,-171.33 653.81,-147.09"/>
<polygon fill="midnightblue" stroke="midnightblue" points="657.31,-146.99 653.64,-137.05 650.31,-147.11 657.31,-146.99"/>
</g>
<!-- Node13&#45;&gt;Node16 -->
<g id="edge23" class="edge">
<title>Node13&#45;&gt;Node16</title>
<path fill="none" stroke="midnightblue" d="M706.37,-247.35C833.71,-241.6 1158.99,-224.58 1200.5,-199 1239.86,-174.75 1251.06,-115.94 1254.24,-85.67"/>
<polygon fill="midnightblue" stroke="midnightblue" points="1257.74,-85.87 1255.11,-75.6 1250.76,-85.27 1257.74,-85.87"/>
</g>
<!-- Node13&#45;&gt;Node18 -->
<g id="edge24" class="edge">
<title>Node13&#45;&gt;Node18</title>
<path fill="none" stroke="midnightblue" d="M604.95,-241.71C557.01,-233.59 483.32,-219.22 421.5,-199 378.42,-184.91 331.23,-162.94 299.75,-147.27"/>
<polygon fill="midnightblue" stroke="midnightblue" points="301.01,-143.99 290.5,-142.62 297.87,-150.24 301.01,-143.99"/>
</g>
<!-- Node14&#45;&gt;Node5 -->
<g id="edge22" class="edge">
<title>Node14&#45;&gt;Node5</title>
<path fill="none" stroke="midnightblue" d="M492.96,-179.17C504.08,-150.95 538.87,-64.27 549.5,-56 583.21,-29.79 708.66,-17.53 768.43,-13.08"/>
<polygon fill="midnightblue" stroke="midnightblue" points="768.73,-16.56 778.45,-12.36 768.23,-9.58 768.73,-16.56"/>
</g>
<!-- Node14&#45;&gt;Node8 -->
<g id="edge16" class="edge">
<title>Node14&#45;&gt;Node8</title>
<path fill="none" stroke="midnightblue" d="M480.19,-179.48C470.05,-170.2 453.64,-155.17 441.25,-143.83"/>
<polygon fill="midnightblue" stroke="midnightblue" points="443.54,-141.18 433.8,-137.01 438.81,-146.34 443.54,-141.18"/>
</g>
<!-- Node14&#45;&gt;Node15 -->
<g id="edge17" class="edge">
<title>Node14&#45;&gt;Node15</title>
<path fill="none" stroke="midnightblue" d="M513,-179.48C541.13,-169.27 588.43,-152.11 620.29,-140.55"/>
<polygon fill="midnightblue" stroke="midnightblue" points="621.84,-143.71 630.05,-137.01 619.45,-137.13 621.84,-143.71"/>
</g>
<!-- Node15&#45;&gt;Node5 -->
<g id="edge21" class="edge">
<title>Node15&#45;&gt;Node5</title>
<path fill="none" stroke="midnightblue" d="M664.55,-117.82C689.45,-98.25 750.21,-50.52 781.37,-26.03"/>
<polygon fill="midnightblue" stroke="midnightblue" points="783.62,-28.71 789.32,-19.78 779.3,-23.21 783.62,-28.71"/>
</g>
<!-- Node15&#45;&gt;Node16 -->
<g id="edge18" class="edge">
<title>Node15&#45;&gt;Node16</title>
<path fill="none" stroke="midnightblue" d="M715.1,-120.41C828.07,-109.25 1067.68,-85.56 1186.18,-73.85"/>
<polygon fill="midnightblue" stroke="midnightblue" points="1186.61,-77.33 1196.22,-72.86 1185.93,-70.36 1186.61,-77.33"/>
</g>
<!-- Node16&#45;&gt;Node5 -->
<g id="edge20" class="edge">
<title>Node16&#45;&gt;Node5</title>
<path fill="none" stroke="midnightblue" d="M1196.14,-57.65C1191.53,-57.09 1186.94,-56.53 1182.5,-56 1053.13,-40.41 899.03,-22.44 833.07,-14.78"/>
<polygon fill="midnightblue" stroke="midnightblue" points="833.23,-11.27 822.89,-13.6 832.42,-18.23 833.23,-11.27"/>
</g>
<!-- Node16&#45;&gt;Node17 -->
<g id="edge19" class="edge">
<title>Node16&#45;&gt;Node17</title>
<path fill="none" stroke="midnightblue" d="M1272.53,-56.32C1289.53,-47.66 1315.88,-34.24 1335.49,-24.25"/>
<polygon fill="midnightblue" stroke="midnightblue" points="1337.19,-27.31 1344.51,-19.65 1334.01,-21.08 1337.19,-27.31"/>
</g>
<!-- Node18&#45;&gt;Node10 -->
<g id="edge25" class="edge">
<title>Node18&#45;&gt;Node10</title>
<path fill="none" stroke="midnightblue" d="M256.14,-112.34C245.18,-91.24 224.59,-51.6 212.67,-28.65"/>
<polygon fill="midnightblue" stroke="midnightblue" points="215.72,-26.93 208,-19.67 209.51,-30.16 215.72,-26.93"/>
</g>
<!-- Node19&#45;&gt;Node4 -->
<g id="edge35" class="edge">
<title>Node19&#45;&gt;Node4</title>
<path fill="none" stroke="midnightblue" d="M889.69,-179.48C909.74,-169.53 943.1,-152.99 966.36,-141.46"/>
<polygon fill="midnightblue" stroke="midnightblue" points="967.93,-144.59 975.34,-137.01 964.82,-138.32 967.93,-144.59"/>
</g>
<!-- Node19&#45;&gt;Node5 -->
<g id="edge36" class="edge">
<title>Node19&#45;&gt;Node5</title>
<path fill="none" stroke="midnightblue" d="M869.03,-179.46C857.94,-152.19 823.19,-66.78 807.88,-29.13"/>
<polygon fill="midnightblue" stroke="midnightblue" points="811.12,-27.81 804.11,-19.87 804.63,-30.45 811.12,-27.81"/>
</g>
<!-- Node19&#45;&gt;Node6 -->
<g id="edge38" class="edge">
<title>Node19&#45;&gt;Node6</title>
<path fill="none" stroke="midnightblue" d="M877.8,-179.48C883.24,-170.73 891.86,-156.87 898.74,-145.81"/>
<polygon fill="midnightblue" stroke="midnightblue" points="901.9,-147.35 904.21,-137.01 895.96,-143.65 901.9,-147.35"/>
</g>
<!-- Node19&#45;&gt;Node8 -->
<g id="edge31" class="edge">
<title>Node19&#45;&gt;Node8</title>
<path fill="none" stroke="midnightblue" d="M808.79,-179.54C726.99,-168.67 585.32,-149.86 498.74,-138.36"/>
<polygon fill="midnightblue" stroke="midnightblue" points="499.09,-134.88 488.72,-137.03 498.17,-141.82 499.09,-134.88"/>
</g>
<!-- Node19&#45;&gt;Node10 -->
<g id="edge37" class="edge">
<title>Node19&#45;&gt;Node10</title>
<path fill="none" stroke="midnightblue" d="M858.7,-179.28C833.07,-163.48 775.94,-130.06 723.5,-112 553.33,-53.38 339.44,-25.36 248.13,-15.41"/>
<polygon fill="midnightblue" stroke="midnightblue" points="248.44,-11.93 238.13,-14.34 247.7,-18.89 248.44,-11.93"/>
</g>
<!-- Node19&#45;&gt;Node15 -->
<g id="edge34" class="edge">
<title>Node19&#45;&gt;Node15</title>
<path fill="none" stroke="midnightblue" d="M841.12,-179.48C802.58,-169 737.09,-151.21 694.58,-139.66"/>
<polygon fill="midnightblue" stroke="midnightblue" points="695.39,-136.25 684.82,-137.01 693.55,-143.01 695.39,-136.25"/>
</g>
<!-- Node19&#45;&gt;Node16 -->
<g id="edge32" class="edge">
<title>Node19&#45;&gt;Node16</title>
<path fill="none" stroke="midnightblue" d="M869.81,-179.35C865.51,-163.66 859.25,-130.42 876.5,-112 897.27,-89.83 1082.78,-76.33 1186.34,-70.46"/>
<polygon fill="midnightblue" stroke="midnightblue" points="1186.62,-73.95 1196.41,-69.89 1186.23,-66.96 1186.62,-73.95"/>
</g>
<!-- Node19&#45;&gt;Node18 -->
<g id="edge33" class="edge">
<title>Node19&#45;&gt;Node18</title>
<path fill="none" stroke="midnightblue" d="M808.65,-184.58C710.76,-178.9 517.53,-165.93 343.35,-143.02"/>
<polygon fill="midnightblue" stroke="midnightblue" points="343.6,-139.53 333.23,-141.68 342.68,-146.46 343.6,-139.53"/>
</g>
<!-- Node20&#45;&gt;Node5 -->
<g id="edge44" class="edge">
<title>Node20&#45;&gt;Node5</title>
<path fill="none" stroke="midnightblue" d="M1037.36,-179.17C1044.96,-164.06 1057.41,-132.85 1043.5,-112 995.83,-40.57 887.16,-19.58 832.76,-13.47"/>
<polygon fill="midnightblue" stroke="midnightblue" points="832.95,-9.97 822.64,-12.44 832.23,-16.94 832.95,-9.97"/>
</g>
<!-- Node20&#45;&gt;Node6 -->
<g id="edge45" class="edge">
<title>Node20&#45;&gt;Node6</title>
<path fill="none" stroke="midnightblue" d="M1014.88,-179.48C994.33,-169.53 960.14,-152.99 936.29,-141.46"/>
<polygon fill="midnightblue" stroke="midnightblue" points="937.62,-138.21 927.09,-137.01 934.57,-144.51 937.62,-138.21"/>
</g>
<!-- Node20&#45;&gt;Node21 -->
<g id="edge42" class="edge">
<title>Node20&#45;&gt;Node21</title>
<path fill="none" stroke="midnightblue" d="M1049.41,-179.48C1069.03,-169.58 1101.63,-153.14 1124.49,-141.62"/>
<polygon fill="midnightblue" stroke="midnightblue" points="1126.27,-144.64 1133.62,-137.01 1123.12,-138.39 1126.27,-144.64"/>
</g>
<!-- Node21&#45;&gt;Node5 -->
<g id="edge43" class="edge">
<title>Node21&#45;&gt;Node5</title>
<path fill="none" stroke="midnightblue" d="M1144.3,-117.85C1132.83,-102.57 1106.69,-71.01 1076.5,-56 995.57,-15.76 886.38,-10.25 832.84,-10.24"/>
<polygon fill="midnightblue" stroke="midnightblue" points="832.57,-6.74 822.59,-10.3 832.61,-13.74 832.57,-6.74"/>
</g>
<!-- Node22&#45;&gt;Node5 -->
<g id="edge52" class="edge">
<title>Node22&#45;&gt;Node5</title>
<path fill="none" stroke="midnightblue" d="M1409.44,-61.2C1284.3,-50.89 940.24,-22.52 832.91,-13.67"/>
<polygon fill="midnightblue" stroke="midnightblue" points="832.97,-10.16 822.71,-12.83 832.39,-17.14 832.97,-10.16"/>
</g>
<!-- Node22&#45;&gt;Node17 -->
<g id="edge50" class="edge">
<title>Node22&#45;&gt;Node17</title>
<path fill="none" stroke="midnightblue" d="M1440.4,-56.32C1425.6,-47.82 1402.81,-34.73 1385.52,-24.8"/>
<polygon fill="midnightblue" stroke="midnightblue" points="1386.98,-21.6 1376.57,-19.65 1383.49,-27.67 1386.98,-21.6"/>
</g>
<!-- Node23 -->
<g id="node23" class="node">
<title>Node23</title>
<g id="a_node23"><a xlink:title=" ">
<polygon fill="white" stroke="#bfbfbf" points="1427,-0.5 1427,-19.5 1484,-19.5 1484,-0.5 1427,-0.5"/>
<text text-anchor="middle" x="1455.5" y="-7.5" font-family="Helvetica,sans-Serif" font-size="10.00">ostream</text>
</a>
</g>
</g>
<!-- Node22&#45;&gt;Node23 -->
<g id="edge51" class="edge">
<title>Node22&#45;&gt;Node23</title>
<path fill="none" stroke="midnightblue" d="M1455.5,-56.08C1455.5,-49.01 1455.5,-38.86 1455.5,-29.99"/>
<polygon fill="midnightblue" stroke="midnightblue" points="1459,-29.75 1455.5,-19.75 1452,-29.75 1459,-29.75"/>
</g>
<!-- Node24&#45;&gt;Node7 -->
<g id="edge54" class="edge">
<title>Node24&#45;&gt;Node7</title>
<path fill="none" stroke="midnightblue" d="M873.48,-361.01C816.9,-351.87 708.23,-334.3 639.2,-323.14"/>
<polygon fill="midnightblue" stroke="midnightblue" points="639.75,-319.68 629.32,-321.54 638.63,-326.59 639.75,-319.68"/>
</g>
<!-- Node24&#45;&gt;Node17 -->
<g id="edge55" class="edge">
<title>Node24&#45;&gt;Node17</title>
<path fill="none" stroke="midnightblue" d="M933.69,-358.37C988.44,-337.23 1128.35,-278.71 1224.5,-199 1285.34,-148.56 1333.22,-65.39 1352.4,-28.99"/>
<polygon fill="midnightblue" stroke="midnightblue" points="1355.74,-30.15 1357.23,-19.66 1349.52,-26.93 1355.74,-30.15"/>
</g>
</g>
</svg>
