<?xml version="1.0" encoding="UTF-8" standalone="no"?>
<!DOCTYPE svg PUBLIC "-//W3C//DTD SVG 1.1//EN"
 "http://www.w3.org/Graphics/SVG/1.1/DTD/svg11.dtd">
<!-- Generated by graphviz version 2.43.0 (0)
 -->
<!-- Title: main/main.cpp Pages: 1 -->
<svg width="1384pt" height="476pt"
 viewBox="0.00 0.00 1383.96 476.00" xmlns="http://www.w3.org/2000/svg" xmlns:xlink="http://www.w3.org/1999/xlink">
<g id="graph0" class="graph" transform="scale(1 1) rotate(0) translate(4 472)">
<title>main/main.cpp</title>
<polygon fill="white" stroke="transparent" points="-4,4 -4,-472 1379.96,-472 1379.96,4 -4,4"/>
<!-- Node1 -->
<g id="node1" class="node">
<title>Node1</title>
<g id="a_node1"><a xlink:title=" ">
<polygon fill="#bfbfbf" stroke="black" points="384.6,-448.5 384.6,-467.5 473.6,-467.5 473.6,-448.5 384.6,-448.5"/>
<text text-anchor="middle" x="429.1" y="-455.5" font-family="Helvetica,sans-Serif" font-size="10.00">main/main.cpp</text>
</a>
</g>
</g>
<!-- Node2 -->
<g id="node2" class="node">
<title>Node2</title>
<g id="a_node2"><a xlink:href="logger_8h.html" target="_top" xlink:title=" ">
<polygon fill="white" stroke="black" points="364.1,-112.5 364.1,-131.5 454.1,-131.5 454.1,-112.5 364.1,-112.5"/>
<text text-anchor="middle" x="409.1" y="-119.5" font-family="Helvetica,sans-Serif" font-size="10.00">logger/logger.h</text>
</a>
</g>
</g>
<!-- Node1&#45;&gt;Node2 -->
<g id="edge1" class="edge">
<title>Node1&#45;&gt;Node2</title>
<path fill="none" stroke="midnightblue" d="M409.25,-448.39C377.32,-433.04 318.1,-397.73 318.1,-347 318.1,-347 318.1,-347 318.1,-233 318.1,-190.47 358.98,-155.53 385.95,-137.12"/>
<polygon fill="midnightblue" stroke="midnightblue" points="388.04,-139.93 394.48,-131.52 384.19,-134.08 388.04,-139.93"/>
</g>
<!-- Node7 -->
<g id="node7" class="node">
<title>Node7</title>
<g id="a_node7"><a xlink:href="functionals_8h.html" target="_top" xlink:title=" ">
<polygon fill="white" stroke="black" points="121.1,-224.5 121.1,-243.5 225.1,-243.5 225.1,-224.5 121.1,-224.5"/>
<text text-anchor="middle" x="173.1" y="-231.5" font-family="Helvetica,sans-Serif" font-size="10.00">utils/functionals.h</text>
</a>
</g>
</g>
<!-- Node1&#45;&gt;Node7 -->
<g id="edge7" class="edge">
<title>Node1&#45;&gt;Node7</title>
<path fill="none" stroke="midnightblue" d="M384.31,-455.79C346.03,-452.54 291.52,-442.37 255.1,-412 204.63,-369.92 183.56,-289.97 176.32,-253.71"/>
<polygon fill="midnightblue" stroke="midnightblue" points="179.7,-252.77 174.43,-243.58 172.82,-254.05 179.7,-252.77"/>
</g>
<!-- Node9 -->
<g id="node9" class="node">
<title>Node9</title>
<g id="a_node9"><a xlink:href="options_8h.html" target="_top" xlink:title=" ">
<polygon fill="white" stroke="black" points="200.6,-168.5 200.6,-187.5 289.6,-187.5 289.6,-168.5 200.6,-168.5"/>
<text text-anchor="middle" x="245.1" y="-175.5" font-family="Helvetica,sans-Serif" font-size="10.00">main/options.h</text>
</a>
</g>
</g>
<!-- Node1&#45;&gt;Node9 -->
<g id="edge74" class="edge">
<title>Node1&#45;&gt;Node9</title>
<path fill="none" stroke="midnightblue" d="M384.57,-449.25C358.69,-442.87 326.81,-431.57 304.1,-412 279.24,-390.58 269.1,-379.81 269.1,-347 269.1,-347 269.1,-347 269.1,-289 269.1,-256.06 258.69,-218.82 251.59,-197.21"/>
<polygon fill="midnightblue" stroke="midnightblue" points="254.88,-196.03 248.33,-187.7 248.26,-198.29 254.88,-196.03"/>
</g>
<!-- Node20 -->
<g id="node20" class="node">
<title>Node20</title>
<g id="a_node20"><a xlink:href="data_8h.html" target="_top" xlink:title=" ">
<polygon fill="white" stroke="black" points="1180.6,-392.5 1180.6,-411.5 1251.6,-411.5 1251.6,-392.5 1180.6,-392.5"/>
<text text-anchor="middle" x="1216.1" y="-399.5" font-family="Helvetica,sans-Serif" font-size="10.00">utils/data.h</text>
</a>
</g>
</g>
<!-- Node1&#45;&gt;Node20 -->
<g id="edge24" class="edge">
<title>Node1&#45;&gt;Node20</title>
<path fill="none" stroke="midnightblue" d="M473.66,-453.94C611.52,-444.48 1030.12,-415.76 1170.01,-406.16"/>
<polygon fill="midnightblue" stroke="midnightblue" points="1170.63,-409.63 1180.37,-405.45 1170.15,-402.64 1170.63,-409.63"/>
</g>
<!-- Node22 -->
<g id="node22" class="node">
<title>Node22</title>
<g id="a_node22"><a xlink:href="functions_8h.html" target="_top" xlink:title=" ">
<polygon fill="white" stroke="black" points="900.6,-280.5 900.6,-299.5 971.6,-299.5 971.6,-280.5 900.6,-280.5"/>
<text text-anchor="middle" x="936.1" y="-287.5" font-family="Helvetica,sans-Serif" font-size="10.00">functions.h</text>
</a>
</g>
</g>
<!-- Node1&#45;&gt;Node22 -->
<g id="edge27" class="edge">
<title>Node1&#45;&gt;Node22</title>
<path fill="none" stroke="midnightblue" d="M473.72,-452.66C578.99,-441.62 839.02,-409.52 906.1,-356 920.49,-344.51 928.28,-324.54 932.28,-309.75"/>
<polygon fill="midnightblue" stroke="midnightblue" points="935.76,-310.22 934.65,-299.69 928.95,-308.62 935.76,-310.22"/>
</g>
<!-- Node32 -->
<g id="node32" class="node">
<title>Node32</title>
<g id="a_node32"><a xlink:href="multisurface_8h.html" target="_top" xlink:title=" ">
<polygon fill="white" stroke="black" points="539.6,-392.5 539.6,-411.5 626.6,-411.5 626.6,-392.5 539.6,-392.5"/>
<text text-anchor="middle" x="583.1" y="-399.5" font-family="Helvetica,sans-Serif" font-size="10.00">multisurface.h</text>
</a>
</g>
</g>
<!-- Node1&#45;&gt;Node32 -->
<g id="edge45" class="edge">
<title>Node1&#45;&gt;Node32</title>
<path fill="none" stroke="midnightblue" d="M453.5,-448.44C479.29,-439.4 520.17,-425.06 549.11,-414.92"/>
<polygon fill="midnightblue" stroke="midnightblue" points="550.53,-418.13 558.81,-411.52 548.21,-411.52 550.53,-418.13"/>
</g>
<!-- Node3 -->
<g id="node3" class="node">
<title>Node3</title>
<g id="a_node3"><a xlink:title=" ">
<polygon fill="white" stroke="#bfbfbf" points="397.6,-0.5 397.6,-19.5 466.6,-19.5 466.6,-0.5 397.6,-0.5"/>
<text text-anchor="middle" x="432.1" y="-7.5" font-family="Helvetica,sans-Serif" font-size="10.00">type_traits</text>
</a>
</g>
</g>
<!-- Node2&#45;&gt;Node3 -->
<g id="edge2" class="edge">
<title>Node2&#45;&gt;Node3</title>
<path fill="none" stroke="midnightblue" d="M363.83,-114.49C318.94,-106.05 260.06,-88.42 284.1,-56 307.57,-24.32 352.8,-14.18 387.1,-11.29"/>
<polygon fill="midnightblue" stroke="midnightblue" points="387.62,-14.76 397.37,-10.61 387.16,-7.78 387.62,-14.76"/>
</g>
<!-- Node4 -->
<g id="node4" class="node">
<title>Node4</title>
<g id="a_node4"><a xlink:title=" ">
<polygon fill="white" stroke="#bfbfbf" points="293.1,-56.5 293.1,-75.5 351.1,-75.5 351.1,-56.5 293.1,-56.5"/>
<text text-anchor="middle" x="322.1" y="-63.5" font-family="Helvetica,sans-Serif" font-size="10.00">memory</text>
</a>
</g>
</g>
<!-- Node2&#45;&gt;Node4 -->
<g id="edge3" class="edge">
<title>Node2&#45;&gt;Node4</title>
<path fill="none" stroke="midnightblue" d="M395.12,-112.32C381.55,-103.9 360.72,-90.97 344.77,-81.07"/>
<polygon fill="midnightblue" stroke="midnightblue" points="346.38,-77.95 336.04,-75.65 342.69,-83.9 346.38,-77.95"/>
</g>
<!-- Node5 -->
<g id="node5" class="node">
<title>Node5</title>
<g id="a_node5"><a xlink:href="enum_8h.html" target="_top" xlink:title=" ">
<polygon fill="white" stroke="black" points="723.6,-56.5 723.6,-75.5 800.6,-75.5 800.6,-56.5 723.6,-56.5"/>
<text text-anchor="middle" x="762.1" y="-63.5" font-family="Helvetica,sans-Serif" font-size="10.00">utils/enum.h</text>
</a>
</g>
</g>
<!-- Node2&#45;&gt;Node5 -->
<g id="edge4" class="edge">
<title>Node2&#45;&gt;Node5</title>
<path fill="none" stroke="midnightblue" d="M454.14,-114.91C511.75,-107 614.84,-92.43 713.23,-76.09"/>
<polygon fill="midnightblue" stroke="midnightblue" points="714.06,-79.5 723.35,-74.4 712.91,-72.59 714.06,-79.5"/>
</g>
<!-- Node6 -->
<g id="node6" class="node">
<title>Node6</title>
<g id="a_node6"><a xlink:title=" ">
<polygon fill="white" stroke="#bfbfbf" points="369.1,-56.5 369.1,-75.5 449.1,-75.5 449.1,-56.5 369.1,-56.5"/>
<text text-anchor="middle" x="409.1" y="-63.5" font-family="Helvetica,sans-Serif" font-size="10.00">logger.levels</text>
</a>
</g>
</g>
<!-- Node2&#45;&gt;Node6 -->
<g id="edge6" class="edge">
<title>Node2&#45;&gt;Node6</title>
<path fill="none" stroke="midnightblue" d="M409.1,-112.08C409.1,-105.01 409.1,-94.86 409.1,-85.99"/>
<polygon fill="midnightblue" stroke="midnightblue" points="412.6,-85.75 409.1,-75.75 405.6,-85.75 412.6,-85.75"/>
</g>
<!-- Node5&#45;&gt;Node3 -->
<g id="edge5" class="edge">
<title>Node5&#45;&gt;Node3</title>
<path fill="none" stroke="midnightblue" d="M723.34,-57.64C720.21,-57.07 717.1,-56.52 714.1,-56 630.4,-41.48 532.42,-26.24 476.76,-17.75"/>
<polygon fill="midnightblue" stroke="midnightblue" points="477.29,-14.29 466.88,-16.24 476.24,-21.21 477.29,-14.29"/>
</g>
<!-- Node7&#45;&gt;Node3 -->
<g id="edge8" class="edge">
<title>Node7&#45;&gt;Node3</title>
<path fill="none" stroke="midnightblue" d="M135.29,-224.49C78.45,-209.53 -19.94,-174.09 4.1,-112 16.25,-80.61 25.17,-71.41 55.1,-56 112.12,-26.64 300.27,-15.92 387.27,-12.46"/>
<polygon fill="midnightblue" stroke="midnightblue" points="387.5,-15.95 397.36,-12.07 387.23,-8.96 387.5,-15.95"/>
</g>
<!-- Node8 -->
<g id="node8" class="node">
<title>Node8</title>
<g id="a_node8"><a xlink:title=" ">
<polygon fill="white" stroke="#bfbfbf" points="117.6,-168.5 117.6,-187.5 182.6,-187.5 182.6,-168.5 117.6,-168.5"/>
<text text-anchor="middle" x="150.1" y="-175.5" font-family="Helvetica,sans-Serif" font-size="10.00">functional</text>
</a>
</g>
</g>
<!-- Node7&#45;&gt;Node8 -->
<g id="edge9" class="edge">
<title>Node7&#45;&gt;Node8</title>
<path fill="none" stroke="midnightblue" d="M169.3,-224.08C166.18,-216.77 161.67,-206.18 157.81,-197.1"/>
<polygon fill="midnightblue" stroke="midnightblue" points="160.96,-195.58 153.82,-187.75 154.52,-198.32 160.96,-195.58"/>
</g>
<!-- Node7&#45;&gt;Node9 -->
<g id="edge10" class="edge">
<title>Node7&#45;&gt;Node9</title>
<path fill="none" stroke="midnightblue" d="M184.66,-224.32C195.52,-216.18 211.98,-203.84 224.98,-194.09"/>
<polygon fill="midnightblue" stroke="midnightblue" points="227.42,-196.63 233.32,-187.83 223.22,-191.03 227.42,-196.63"/>
</g>
<!-- Node9&#45;&gt;Node2 -->
<g id="edge14" class="edge">
<title>Node9&#45;&gt;Node2</title>
<path fill="none" stroke="midnightblue" d="M271.08,-168.44C298.79,-159.32 342.85,-144.81 373.71,-134.65"/>
<polygon fill="midnightblue" stroke="midnightblue" points="374.83,-137.97 383.23,-131.52 372.64,-131.32 374.83,-137.97"/>
</g>
<!-- Node10 -->
<g id="node10" class="node">
<title>Node10</title>
<g id="a_node10"><a xlink:title=" ">
<polygon fill="white" stroke="#bfbfbf" points="1072.1,-56.5 1072.1,-75.5 1116.1,-75.5 1116.1,-56.5 1072.1,-56.5"/>
<text text-anchor="middle" x="1094.1" y="-63.5" font-family="Helvetica,sans-Serif" font-size="10.00">string</text>
</a>
</g>
</g>
<!-- Node9&#45;&gt;Node10 -->
<g id="edge11" class="edge">
<title>Node9&#45;&gt;Node10</title>
<path fill="none" stroke="midnightblue" d="M258.68,-168.49C285.74,-151.59 344.7,-115.18 355.1,-112 423.23,-91.13 927.89,-72.65 1061.64,-68.08"/>
<polygon fill="midnightblue" stroke="midnightblue" points="1062.15,-71.56 1072.02,-67.73 1061.91,-64.57 1062.15,-71.56"/>
</g>
<!-- Node11 -->
<g id="node11" class="node">
<title>Node11</title>
<g id="a_node11"><a xlink:title=" ">
<polygon fill="white" stroke="#bfbfbf" points="198.6,-112.5 198.6,-131.5 307.6,-131.5 307.6,-112.5 198.6,-112.5"/>
<text text-anchor="middle" x="253.1" y="-119.5" font-family="Helvetica,sans-Serif" font-size="10.00">h2lib/parameters.h</text>
</a>
</g>
</g>
<!-- Node9&#45;&gt;Node11 -->
<g id="edge12" class="edge">
<title>Node9&#45;&gt;Node11</title>
<path fill="none" stroke="midnightblue" d="M246.42,-168.08C247.48,-160.93 249,-150.64 250.33,-141.69"/>
<polygon fill="midnightblue" stroke="midnightblue" points="253.8,-142.16 251.8,-131.75 246.87,-141.13 253.8,-142.16"/>
</g>
<!-- Node12 -->
<g id="node12" class="node">
<title>Node12</title>
<g id="a_node12"><a xlink:title=" ">
<polygon fill="white" stroke="#bfbfbf" points="13.1,-112.5 13.1,-131.5 105.1,-131.5 105.1,-112.5 13.1,-112.5"/>
<text text-anchor="middle" x="59.1" y="-119.5" font-family="Helvetica,sans-Serif" font-size="10.00">h2lib/reporter.h</text>
</a>
</g>
</g>
<!-- Node9&#45;&gt;Node12 -->
<g id="edge13" class="edge">
<title>Node9&#45;&gt;Node12</title>
<path fill="none" stroke="midnightblue" d="M215.62,-168.44C183.92,-159.24 133.36,-144.56 98.32,-134.39"/>
<polygon fill="midnightblue" stroke="midnightblue" points="99.01,-130.94 88.43,-131.52 97.06,-137.67 99.01,-130.94"/>
</g>
<!-- Node13 -->
<g id="node13" class="node">
<title>Node13</title>
<g id="a_node13"><a xlink:href="cutils_8h.html" target="_top" xlink:title=" ">
<polygon fill="white" stroke="black" points="555.1,-112.5 555.1,-131.5 631.1,-131.5 631.1,-112.5 555.1,-112.5"/>
<text text-anchor="middle" x="593.1" y="-119.5" font-family="Helvetica,sans-Serif" font-size="10.00">utils/cutils.h</text>
</a>
</g>
</g>
<!-- Node9&#45;&gt;Node13 -->
<g id="edge15" class="edge">
<title>Node9&#45;&gt;Node13</title>
<path fill="none" stroke="midnightblue" d="M289.88,-170.05C355.53,-159.86 477.41,-140.95 544.94,-130.47"/>
<polygon fill="midnightblue" stroke="midnightblue" points="545.54,-133.92 554.89,-128.93 544.47,-127 545.54,-133.92"/>
</g>
<!-- Node16 -->
<g id="node16" class="node">
<title>Node16</title>
<g id="a_node16"><a xlink:href="timing_8h.html" target="_top" xlink:title=" ">
<polygon fill="white" stroke="black" points="123.6,-112.5 123.6,-131.5 180.6,-131.5 180.6,-112.5 123.6,-112.5"/>
<text text-anchor="middle" x="152.1" y="-119.5" font-family="Helvetica,sans-Serif" font-size="10.00">timing.h</text>
</a>
</g>
</g>
<!-- Node9&#45;&gt;Node16 -->
<g id="edge19" class="edge">
<title>Node9&#45;&gt;Node16</title>
<path fill="none" stroke="midnightblue" d="M230.15,-168.32C215.51,-159.82 192.96,-146.73 175.86,-136.8"/>
<polygon fill="midnightblue" stroke="midnightblue" points="177.41,-133.65 167,-131.65 173.89,-139.7 177.41,-133.65"/>
</g>
<!-- Node13&#45;&gt;Node3 -->
<g id="edge16" class="edge">
<title>Node13&#45;&gt;Node3</title>
<path fill="none" stroke="midnightblue" d="M593.81,-112.18C594.41,-98.38 593.46,-71.64 579.1,-56 553.11,-27.71 509.88,-17.01 477.01,-13.06"/>
<polygon fill="midnightblue" stroke="midnightblue" points="477.04,-9.54 466.74,-12 476.32,-16.5 477.04,-9.54"/>
</g>
<!-- Node14 -->
<g id="node14" class="node">
<title>Node14</title>
<g id="a_node14"><a xlink:title=" ">
<polygon fill="white" stroke="#bfbfbf" points="627.1,-56.5 627.1,-75.5 705.1,-75.5 705.1,-56.5 627.1,-56.5"/>
<text text-anchor="middle" x="666.1" y="-63.5" font-family="Helvetica,sans-Serif" font-size="10.00">h2lib/basic.h</text>
</a>
</g>
</g>
<!-- Node13&#45;&gt;Node14 -->
<g id="edge17" class="edge">
<title>Node13&#45;&gt;Node14</title>
<path fill="none" stroke="midnightblue" d="M604.82,-112.32C615.93,-104.11 632.84,-91.6 646.08,-81.81"/>
<polygon fill="midnightblue" stroke="midnightblue" points="648.2,-84.59 654.15,-75.83 644.03,-78.97 648.2,-84.59"/>
</g>
<!-- Node15 -->
<g id="node15" class="node">
<title>Node15</title>
<g id="a_node15"><a xlink:title=" ">
<polygon fill="white" stroke="#bfbfbf" points="467.6,-56.5 467.6,-75.5 570.6,-75.5 570.6,-56.5 467.6,-56.5"/>
<text text-anchor="middle" x="519.1" y="-63.5" font-family="Helvetica,sans-Serif" font-size="10.00">h2lib/dh2matrix.h</text>
</a>
</g>
</g>
<!-- Node13&#45;&gt;Node15 -->
<g id="edge18" class="edge">
<title>Node13&#45;&gt;Node15</title>
<path fill="none" stroke="midnightblue" d="M581.21,-112.32C569.95,-104.11 552.81,-91.6 539.39,-81.81"/>
<polygon fill="midnightblue" stroke="midnightblue" points="541.34,-78.9 531.2,-75.83 537.22,-84.56 541.34,-78.9"/>
</g>
<!-- Node16&#45;&gt;Node10 -->
<g id="edge23" class="edge">
<title>Node16&#45;&gt;Node10</title>
<path fill="none" stroke="midnightblue" d="M180.67,-113.48C183.51,-112.91 186.35,-112.4 189.1,-112 276.8,-99.27 911.32,-74.08 1062.04,-68.23"/>
<polygon fill="midnightblue" stroke="midnightblue" points="1062.18,-71.73 1072.04,-67.85 1061.91,-64.74 1062.18,-71.73"/>
</g>
<!-- Node17 -->
<g id="node17" class="node">
<title>Node17</title>
<g id="a_node17"><a xlink:title=" ">
<polygon fill="white" stroke="#bfbfbf" points="64.6,-56.5 64.6,-75.5 111.6,-75.5 111.6,-56.5 64.6,-56.5"/>
<text text-anchor="middle" x="88.1" y="-63.5" font-family="Helvetica,sans-Serif" font-size="10.00">cmath</text>
</a>
</g>
</g>
<!-- Node16&#45;&gt;Node17 -->
<g id="edge20" class="edge">
<title>Node16&#45;&gt;Node17</title>
<path fill="none" stroke="midnightblue" d="M141.81,-112.32C132.26,-104.26 117.82,-92.08 106.31,-82.37"/>
<polygon fill="midnightblue" stroke="midnightblue" points="108.47,-79.61 98.57,-75.83 103.95,-84.96 108.47,-79.61"/>
</g>
<!-- Node18 -->
<g id="node18" class="node">
<title>Node18</title>
<g id="a_node18"><a xlink:title=" ">
<polygon fill="white" stroke="#bfbfbf" points="130.1,-56.5 130.1,-75.5 174.1,-75.5 174.1,-56.5 130.1,-56.5"/>
<text text-anchor="middle" x="152.1" y="-63.5" font-family="Helvetica,sans-Serif" font-size="10.00">ctime</text>
</a>
</g>
</g>
<!-- Node16&#45;&gt;Node18 -->
<g id="edge21" class="edge">
<title>Node16&#45;&gt;Node18</title>
<path fill="none" stroke="midnightblue" d="M152.1,-112.08C152.1,-105.01 152.1,-94.86 152.1,-85.99"/>
<polygon fill="midnightblue" stroke="midnightblue" points="155.6,-85.75 152.1,-75.75 148.6,-85.75 155.6,-85.75"/>
</g>
<!-- Node19 -->
<g id="node19" class="node">
<title>Node19</title>
<g id="a_node19"><a xlink:title=" ">
<polygon fill="white" stroke="#bfbfbf" points="192.1,-56.5 192.1,-75.5 224.1,-75.5 224.1,-56.5 192.1,-56.5"/>
<text text-anchor="middle" x="208.1" y="-63.5" font-family="Helvetica,sans-Serif" font-size="10.00">list</text>
</a>
</g>
</g>
<!-- Node16&#45;&gt;Node19 -->
<g id="edge22" class="edge">
<title>Node16&#45;&gt;Node19</title>
<path fill="none" stroke="midnightblue" d="M161.09,-112.32C169.29,-104.42 181.6,-92.55 191.57,-82.94"/>
<polygon fill="midnightblue" stroke="midnightblue" points="194.17,-85.29 198.93,-75.83 189.31,-80.26 194.17,-85.29"/>
</g>
<!-- Node20&#45;&gt;Node10 -->
<g id="edge26" class="edge">
<title>Node20&#45;&gt;Node10</title>
<path fill="none" stroke="midnightblue" d="M1251.78,-393.12C1298.66,-380.42 1375.1,-350.58 1375.1,-291 1375.1,-291 1375.1,-291 1375.1,-177 1375.1,-146.9 1378.56,-132.03 1356.1,-112 1322.56,-82.09 1188.44,-71.65 1126.17,-68.36"/>
<polygon fill="midnightblue" stroke="midnightblue" points="1126.28,-64.86 1116.12,-67.86 1125.93,-71.85 1126.28,-64.86"/>
</g>
<!-- Node21 -->
<g id="node21" class="node">
<title>Node21</title>
<g id="a_node21"><a xlink:title=" ">
<polygon fill="white" stroke="#bfbfbf" points="1193.1,-336.5 1193.1,-355.5 1239.1,-355.5 1239.1,-336.5 1193.1,-336.5"/>
<text text-anchor="middle" x="1216.1" y="-343.5" font-family="Helvetica,sans-Serif" font-size="10.00">cstdio</text>
</a>
</g>
</g>
<!-- Node20&#45;&gt;Node21 -->
<g id="edge25" class="edge">
<title>Node20&#45;&gt;Node21</title>
<path fill="none" stroke="midnightblue" d="M1216.1,-392.08C1216.1,-385.01 1216.1,-374.86 1216.1,-365.99"/>
<polygon fill="midnightblue" stroke="midnightblue" points="1219.6,-365.75 1216.1,-355.75 1212.6,-365.75 1219.6,-365.75"/>
</g>
<!-- Node22&#45;&gt;Node13 -->
<g id="edge29" class="edge">
<title>Node22&#45;&gt;Node13</title>
<path fill="none" stroke="midnightblue" d="M938.26,-280.19C943.16,-257.93 952.43,-198.97 922.1,-168 883.99,-129.1 722.95,-123.11 641.18,-122.64"/>
<polygon fill="midnightblue" stroke="midnightblue" points="641.15,-119.14 631.13,-122.6 641.12,-126.14 641.15,-119.14"/>
</g>
<!-- Node23 -->
<g id="node23" class="node">
<title>Node23</title>
<g id="a_node23"><a xlink:title=" ">
<polygon fill="white" stroke="#bfbfbf" points="970.1,-224.5 970.1,-243.5 1062.1,-243.5 1062.1,-224.5 970.1,-224.5"/>
<text text-anchor="middle" x="1016.1" y="-231.5" font-family="Helvetica,sans-Serif" font-size="10.00">h2lib/settings.h</text>
</a>
</g>
</g>
<!-- Node22&#45;&gt;Node23 -->
<g id="edge28" class="edge">
<title>Node22&#45;&gt;Node23</title>
<path fill="none" stroke="midnightblue" d="M948.95,-280.32C961.31,-271.98 980.23,-259.21 994.83,-249.35"/>
<polygon fill="midnightblue" stroke="midnightblue" points="996.94,-252.15 1003.27,-243.65 993.03,-246.35 996.94,-252.15"/>
</g>
<!-- Node24 -->
<g id="node24" class="node">
<title>Node24</title>
<g id="a_node24"><a xlink:href="meshreader_8h.html" target="_top" xlink:title=" ">
<polygon fill="white" stroke="black" points="1118.1,-224.5 1118.1,-243.5 1202.1,-243.5 1202.1,-224.5 1118.1,-224.5"/>
<text text-anchor="middle" x="1160.1" y="-231.5" font-family="Helvetica,sans-Serif" font-size="10.00">meshreader.h</text>
</a>
</g>
</g>
<!-- Node22&#45;&gt;Node24 -->
<g id="edge30" class="edge">
<title>Node22&#45;&gt;Node24</title>
<path fill="none" stroke="midnightblue" d="M971.59,-280.44C1010.42,-271.08 1072.75,-256.06 1115.01,-245.87"/>
<polygon fill="midnightblue" stroke="midnightblue" points="1115.87,-249.26 1124.77,-243.52 1114.23,-242.46 1115.87,-249.26"/>
</g>
<!-- Node25 -->
<g id="node25" class="node">
<title>Node25</title>
<g id="a_node25"><a xlink:title=" ">
<polygon fill="white" stroke="#bfbfbf" points="913.1,-112.5 913.1,-131.5 955.1,-131.5 955.1,-112.5 913.1,-112.5"/>
<text text-anchor="middle" x="934.1" y="-119.5" font-family="Helvetica,sans-Serif" font-size="10.00">array</text>
</a>
</g>
</g>
<!-- Node22&#45;&gt;Node25 -->
<g id="edge43" class="edge">
<title>Node22&#45;&gt;Node25</title>
<path fill="none" stroke="midnightblue" d="M971.61,-282.04C1007.5,-274.2 1059.29,-260.38 1071.1,-244 1102.59,-200.31 1024.76,-204.24 1002.1,-188 981.9,-173.53 961.69,-153.3 948.62,-139.27"/>
<polygon fill="midnightblue" stroke="midnightblue" points="951.13,-136.83 941.8,-131.81 945.97,-141.55 951.13,-136.83"/>
</g>
<!-- Node27 -->
<g id="node27" class="node">
<title>Node27</title>
<g id="a_node27"><a xlink:title=" ">
<polygon fill="white" stroke="#bfbfbf" points="866.6,-168.5 866.6,-187.5 913.6,-187.5 913.6,-168.5 866.6,-168.5"/>
<text text-anchor="middle" x="890.1" y="-175.5" font-family="Helvetica,sans-Serif" font-size="10.00">vector</text>
</a>
</g>
</g>
<!-- Node22&#45;&gt;Node27 -->
<g id="edge44" class="edge">
<title>Node22&#45;&gt;Node27</title>
<path fill="none" stroke="midnightblue" d="M932.49,-280.37C925,-262.46 907.63,-220.92 897.6,-196.95"/>
<polygon fill="midnightblue" stroke="midnightblue" points="900.78,-195.47 893.69,-187.59 894.32,-198.17 900.78,-195.47"/>
</g>
<!-- Node24&#45;&gt;Node5 -->
<g id="edge35" class="edge">
<title>Node24&#45;&gt;Node5</title>
<path fill="none" stroke="midnightblue" d="M1148.9,-224.18C1120.04,-201.89 1040.04,-142.87 964.1,-112 913.82,-91.56 852.55,-79.58 810.76,-73.18"/>
<polygon fill="midnightblue" stroke="midnightblue" points="811.25,-69.72 800.84,-71.71 810.22,-76.64 811.25,-69.72"/>
</g>
<!-- Node24&#45;&gt;Node10 -->
<g id="edge34" class="edge">
<title>Node24&#45;&gt;Node10</title>
<path fill="none" stroke="midnightblue" d="M1147.06,-224.29C1136.13,-216.23 1121.05,-203.22 1113.1,-188 1095.93,-155.13 1093.33,-110.9 1093.42,-86.03"/>
<polygon fill="midnightblue" stroke="midnightblue" points="1096.93,-85.86 1093.62,-75.8 1089.93,-85.73 1096.93,-85.86"/>
</g>
<!-- Node24&#45;&gt;Node25 -->
<g id="edge31" class="edge">
<title>Node24&#45;&gt;Node25</title>
<path fill="none" stroke="midnightblue" d="M1133.76,-224.46C1109.46,-216.23 1072.65,-202.88 1042.1,-188 1010.73,-172.73 976.55,-151.27 955.22,-137.26"/>
<polygon fill="midnightblue" stroke="midnightblue" points="956.92,-134.18 946.65,-131.57 953.05,-140.01 956.92,-134.18"/>
</g>
<!-- Node26 -->
<g id="node26" class="node">
<title>Node26</title>
<g id="a_node26"><a xlink:title=" ">
<polygon fill="white" stroke="#bfbfbf" points="1122.1,-168.5 1122.1,-187.5 1160.1,-187.5 1160.1,-168.5 1122.1,-168.5"/>
<text text-anchor="middle" x="1141.1" y="-175.5" font-family="Helvetica,sans-Serif" font-size="10.00">map</text>
</a>
</g>
</g>
<!-- Node24&#45;&gt;Node26 -->
<g id="edge32" class="edge">
<title>Node24&#45;&gt;Node26</title>
<path fill="none" stroke="midnightblue" d="M1156.96,-224.08C1154.41,-216.85 1150.74,-206.41 1147.57,-197.4"/>
<polygon fill="midnightblue" stroke="midnightblue" points="1150.8,-196.02 1144.17,-187.75 1144.19,-198.35 1150.8,-196.02"/>
</g>
<!-- Node24&#45;&gt;Node27 -->
<g id="edge33" class="edge">
<title>Node24&#45;&gt;Node27</title>
<path fill="none" stroke="midnightblue" d="M1117.91,-224.56C1064.32,-213.85 972.92,-195.57 923.76,-185.73"/>
<polygon fill="midnightblue" stroke="midnightblue" points="924.43,-182.3 913.94,-183.77 923.06,-189.16 924.43,-182.3"/>
</g>
<!-- Node28 -->
<g id="node28" class="node">
<title>Node28</title>
<g id="a_node28"><a xlink:href="linearalgebra_8h.html" target="_top" xlink:title=" ">
<polygon fill="white" stroke="black" points="1178.1,-168.5 1178.1,-187.5 1268.1,-187.5 1268.1,-168.5 1178.1,-168.5"/>
<text text-anchor="middle" x="1223.1" y="-175.5" font-family="Helvetica,sans-Serif" font-size="10.00">linearalgebra.h</text>
</a>
</g>
</g>
<!-- Node24&#45;&gt;Node28 -->
<g id="edge36" class="edge">
<title>Node24&#45;&gt;Node28</title>
<path fill="none" stroke="midnightblue" d="M1170.22,-224.32C1179.62,-216.26 1193.84,-204.08 1205.16,-194.37"/>
<polygon fill="midnightblue" stroke="midnightblue" points="1207.47,-197 1212.79,-187.83 1202.92,-191.68 1207.47,-197"/>
</g>
<!-- Node28&#45;&gt;Node2 -->
<g id="edge40" class="edge">
<title>Node28&#45;&gt;Node2</title>
<path fill="none" stroke="midnightblue" d="M1178.07,-169.12C1175.03,-168.71 1172.02,-168.33 1169.1,-168 893.47,-137.16 822.92,-149.09 546.1,-132 519.12,-130.33 489.17,-128.38 464.17,-126.72"/>
<polygon fill="midnightblue" stroke="midnightblue" points="464.34,-123.22 454.13,-126.05 463.88,-130.21 464.34,-123.22"/>
</g>
<!-- Node28&#45;&gt;Node25 -->
<g id="edge37" class="edge">
<title>Node28&#45;&gt;Node25</title>
<path fill="none" stroke="midnightblue" d="M1177.94,-168.56C1118.8,-157.51 1016.64,-138.42 965.37,-128.84"/>
<polygon fill="midnightblue" stroke="midnightblue" points="965.7,-125.35 955.23,-126.95 964.42,-132.23 965.7,-125.35"/>
</g>
<!-- Node29 -->
<g id="node29" class="node">
<title>Node29</title>
<g id="a_node29"><a xlink:title=" ">
<polygon fill="white" stroke="#bfbfbf" points="1213.6,-112.5 1213.6,-131.5 1272.6,-131.5 1272.6,-112.5 1213.6,-112.5"/>
<text text-anchor="middle" x="1243.1" y="-119.5" font-family="Helvetica,sans-Serif" font-size="10.00">complex</text>
</a>
</g>
</g>
<!-- Node28&#45;&gt;Node29 -->
<g id="edge38" class="edge">
<title>Node28&#45;&gt;Node29</title>
<path fill="none" stroke="midnightblue" d="M1226.4,-168.08C1229.08,-160.85 1232.94,-150.41 1236.28,-141.4"/>
<polygon fill="midnightblue" stroke="midnightblue" points="1239.66,-142.34 1239.85,-131.75 1233.1,-139.91 1239.66,-142.34"/>
</g>
<!-- Node30 -->
<g id="node30" class="node">
<title>Node30</title>
<g id="a_node30"><a xlink:title=" ">
<polygon fill="white" stroke="#bfbfbf" points="1291.1,-112.5 1291.1,-131.5 1347.1,-131.5 1347.1,-112.5 1291.1,-112.5"/>
<text text-anchor="middle" x="1319.1" y="-119.5" font-family="Helvetica,sans-Serif" font-size="10.00">numeric</text>
</a>
</g>
</g>
<!-- Node28&#45;&gt;Node30 -->
<g id="edge39" class="edge">
<title>Node28&#45;&gt;Node30</title>
<path fill="none" stroke="midnightblue" d="M1238.52,-168.32C1253.64,-159.82 1276.91,-146.73 1294.57,-136.8"/>
<polygon fill="midnightblue" stroke="midnightblue" points="1296.71,-139.61 1303.71,-131.65 1293.28,-133.51 1296.71,-139.61"/>
</g>
<!-- Node31 -->
<g id="node31" class="node">
<title>Node31</title>
<g id="a_node31"><a xlink:href="constants_8h.html" target="_top" xlink:title=" ">
<polygon fill="white" stroke="black" points="1122.6,-112.5 1122.6,-131.5 1195.6,-131.5 1195.6,-112.5 1122.6,-112.5"/>
<text text-anchor="middle" x="1159.1" y="-119.5" font-family="Helvetica,sans-Serif" font-size="10.00">constants.h</text>
</a>
</g>
</g>
<!-- Node28&#45;&gt;Node31 -->
<g id="edge41" class="edge">
<title>Node28&#45;&gt;Node31</title>
<path fill="none" stroke="midnightblue" d="M1212.81,-168.32C1203.26,-160.26 1188.82,-148.08 1177.31,-138.37"/>
<polygon fill="midnightblue" stroke="midnightblue" points="1179.47,-135.61 1169.57,-131.83 1174.95,-140.96 1179.47,-135.61"/>
</g>
<!-- Node31&#45;&gt;Node10 -->
<g id="edge42" class="edge">
<title>Node31&#45;&gt;Node10</title>
<path fill="none" stroke="midnightblue" d="M1148.65,-112.32C1138.95,-104.26 1124.28,-92.08 1112.6,-82.37"/>
<polygon fill="midnightblue" stroke="midnightblue" points="1114.66,-79.53 1104.73,-75.83 1110.18,-84.92 1114.66,-79.53"/>
</g>
<!-- Node32&#45;&gt;Node2 -->
<g id="edge50" class="edge">
<title>Node32&#45;&gt;Node2</title>
<path fill="none" stroke="midnightblue" d="M539.33,-398.91C473.36,-393.15 356.1,-371.58 356.1,-291 356.1,-291 356.1,-291 356.1,-233 356.1,-196.99 379.43,-160.34 395.13,-139.75"/>
<polygon fill="midnightblue" stroke="midnightblue" points="398.03,-141.73 401.5,-131.72 392.55,-137.38 398.03,-141.73"/>
</g>
<!-- Node32&#45;&gt;Node13 -->
<g id="edge51" class="edge">
<title>Node32&#45;&gt;Node13</title>
<path fill="none" stroke="midnightblue" d="M544.87,-392.39C486.85,-377.19 386.01,-341.3 413.1,-280 444.12,-209.8 524.37,-159.04 566.45,-136.31"/>
<polygon fill="midnightblue" stroke="midnightblue" points="568.34,-139.27 575.55,-131.51 565.07,-133.08 568.34,-139.27"/>
</g>
<!-- Node32&#45;&gt;Node22 -->
<g id="edge52" class="edge">
<title>Node32&#45;&gt;Node22</title>
<path fill="none" stroke="midnightblue" d="M626.61,-398.12C698.25,-392.76 837.36,-379.62 880.1,-356 899.99,-345 916.06,-324.03 925.8,-308.87"/>
<polygon fill="midnightblue" stroke="midnightblue" points="929.04,-310.28 931.26,-299.92 923.07,-306.63 929.04,-310.28"/>
</g>
<!-- Node32&#45;&gt;Node24 -->
<g id="edge73" class="edge">
<title>Node32&#45;&gt;Node24</title>
<path fill="none" stroke="midnightblue" d="M626.84,-399.14C689.78,-395.52 809.03,-385.13 906.1,-356 996.1,-328.99 1094.28,-274.24 1137.51,-248.7"/>
<polygon fill="midnightblue" stroke="midnightblue" points="1139.32,-251.7 1146.11,-243.57 1135.73,-245.68 1139.32,-251.7"/>
</g>
<!-- Node32&#45;&gt;Node27 -->
<g id="edge47" class="edge">
<title>Node32&#45;&gt;Node27</title>
<path fill="none" stroke="midnightblue" d="M626.71,-394.55C681.36,-384.19 774.35,-358.7 828.1,-300 856.42,-269.06 875.3,-222.77 884.19,-197.35"/>
<polygon fill="midnightblue" stroke="midnightblue" points="887.62,-198.15 887.49,-187.55 880.98,-195.92 887.62,-198.15"/>
</g>
<!-- Node33 -->
<g id="node33" class="node">
<title>Node33</title>
<g id="a_node33"><a xlink:title=" ">
<polygon fill="white" stroke="#bfbfbf" points="422.1,-280.5 422.1,-299.5 490.1,-299.5 490.1,-280.5 422.1,-280.5"/>
<text text-anchor="middle" x="456.1" y="-287.5" font-family="Helvetica,sans-Serif" font-size="10.00">complex.h</text>
</a>
</g>
</g>
<!-- Node32&#45;&gt;Node33 -->
<g id="edge46" class="edge">
<title>Node32&#45;&gt;Node33</title>
<path fill="none" stroke="midnightblue" d="M540.23,-392.49C517.97,-386 491.96,-374.84 475.1,-356 463.71,-343.28 459.13,-324.08 457.29,-309.84"/>
<polygon fill="midnightblue" stroke="midnightblue" points="460.76,-309.33 456.34,-299.71 453.79,-309.99 460.76,-309.33"/>
</g>
<!-- Node34 -->
<g id="node34" class="node">
<title>Node34</title>
<g id="a_node34"><a xlink:title=" ">
<polygon fill="white" stroke="#bfbfbf" points="484.6,-336.5 484.6,-355.5 597.6,-355.5 597.6,-336.5 484.6,-336.5"/>
<text text-anchor="middle" x="541.1" y="-343.5" font-family="Helvetica,sans-Serif" font-size="10.00">h2lib/helmholtz3d.h</text>
</a>
</g>
</g>
<!-- Node32&#45;&gt;Node34 -->
<g id="edge48" class="edge">
<title>Node32&#45;&gt;Node34</title>
<path fill="none" stroke="midnightblue" d="M576.16,-392.08C570.17,-384.38 561.34,-373.03 554.05,-363.65"/>
<polygon fill="midnightblue" stroke="midnightblue" points="556.8,-361.5 547.9,-355.75 551.28,-365.79 556.8,-361.5"/>
</g>
<!-- Node35 -->
<g id="node35" class="node">
<title>Node35</title>
<g id="a_node35"><a xlink:title=" ">
<polygon fill="white" stroke="#bfbfbf" points="508.6,-280.5 508.6,-299.5 609.6,-299.5 609.6,-280.5 508.6,-280.5"/>
<text text-anchor="middle" x="559.1" y="-287.5" font-family="Helvetica,sans-Serif" font-size="10.00">h2lib/surface3d.h</text>
</a>
</g>
</g>
<!-- Node32&#45;&gt;Node35 -->
<g id="edge49" class="edge">
<title>Node32&#45;&gt;Node35</title>
<path fill="none" stroke="midnightblue" d="M590.21,-392.45C599.75,-379.9 614.56,-355.82 606.1,-336 600.95,-323.95 590.81,-313.58 581.27,-305.84"/>
<polygon fill="midnightblue" stroke="midnightblue" points="583.27,-302.96 573.17,-299.74 579.06,-308.55 583.27,-302.96"/>
</g>
<!-- Node36 -->
<g id="node36" class="node">
<title>Node36</title>
<g id="a_node36"><a xlink:href="surface_8h.html" target="_top" xlink:title=" ">
<polygon fill="white" stroke="black" points="668.1,-336.5 668.1,-355.5 730.1,-355.5 730.1,-336.5 668.1,-336.5"/>
<text text-anchor="middle" x="699.1" y="-343.5" font-family="Helvetica,sans-Serif" font-size="10.00">surface.h</text>
</a>
</g>
</g>
<!-- Node32&#45;&gt;Node36 -->
<g id="edge53" class="edge">
<title>Node32&#45;&gt;Node36</title>
<path fill="none" stroke="midnightblue" d="M601.48,-392.44C620.31,-383.68 649.83,-369.94 671.48,-359.86"/>
<polygon fill="midnightblue" stroke="midnightblue" points="673.21,-362.91 680.8,-355.52 670.26,-356.56 673.21,-362.91"/>
</g>
<!-- Node36&#45;&gt;Node5 -->
<g id="edge62" class="edge">
<title>Node36&#45;&gt;Node5</title>
<path fill="none" stroke="midnightblue" d="M710.11,-336.31C720.24,-327.88 735.14,-314.3 745.1,-300 760.67,-277.63 764.42,-270.66 770.1,-244 782.2,-187.22 772.1,-117.95 765.97,-85.47"/>
<polygon fill="midnightblue" stroke="midnightblue" points="769.39,-84.73 764,-75.6 762.52,-86.09 769.39,-84.73"/>
</g>
<!-- Node36&#45;&gt;Node13 -->
<g id="edge61" class="edge">
<title>Node36&#45;&gt;Node13</title>
<path fill="none" stroke="midnightblue" d="M688.56,-336.42C655.79,-309.46 556.92,-226.02 541.1,-188 532.87,-168.23 551.59,-149.57 568.81,-137.36"/>
<polygon fill="midnightblue" stroke="midnightblue" points="571.13,-140.03 577.53,-131.59 567.26,-134.19 571.13,-140.03"/>
</g>
<!-- Node36&#45;&gt;Node22 -->
<g id="edge66" class="edge">
<title>Node36&#45;&gt;Node22</title>
<path fill="none" stroke="midnightblue" d="M730.57,-337.83C771.51,-328.5 843.34,-312.14 890.31,-301.43"/>
<polygon fill="midnightblue" stroke="midnightblue" points="891.26,-304.81 900.23,-299.17 889.7,-297.98 891.26,-304.81"/>
</g>
<!-- Node36&#45;&gt;Node27 -->
<g id="edge55" class="edge">
<title>Node36&#45;&gt;Node27</title>
<path fill="none" stroke="midnightblue" d="M730.27,-337.05C752.71,-330.12 782.67,-318.28 804.1,-300 834.49,-274.07 828.49,-256.23 852.1,-224 859.35,-214.1 868.15,-203.6 875.46,-195.23"/>
<polygon fill="midnightblue" stroke="midnightblue" points="878.14,-197.48 882.15,-187.67 872.9,-192.83 878.14,-197.48"/>
</g>
<!-- Node36&#45;&gt;Node33 -->
<g id="edge54" class="edge">
<title>Node36&#45;&gt;Node33</title>
<path fill="none" stroke="midnightblue" d="M667.83,-338.05C625.22,-328.58 548.71,-311.58 500.27,-300.82"/>
<polygon fill="midnightblue" stroke="midnightblue" points="500.9,-297.37 490.38,-298.62 499.38,-304.2 500.9,-297.37"/>
</g>
<!-- Node36&#45;&gt;Node35 -->
<g id="edge56" class="edge">
<title>Node36&#45;&gt;Node35</title>
<path fill="none" stroke="midnightblue" d="M676.91,-336.44C653.67,-327.48 616.95,-313.31 590.68,-303.18"/>
<polygon fill="midnightblue" stroke="midnightblue" points="591.77,-299.85 581.18,-299.52 589.25,-306.38 591.77,-299.85"/>
</g>
<!-- Node37 -->
<g id="node37" class="node">
<title>Node37</title>
<g id="a_node37"><a xlink:href="arrays_8h.html" target="_top" xlink:title=" ">
<polygon fill="white" stroke="black" points="654.1,-168.5 654.1,-187.5 734.1,-187.5 734.1,-168.5 654.1,-168.5"/>
<text text-anchor="middle" x="694.1" y="-175.5" font-family="Helvetica,sans-Serif" font-size="10.00">utils/arrays.h</text>
</a>
</g>
</g>
<!-- Node36&#45;&gt;Node37 -->
<g id="edge57" class="edge">
<title>Node36&#45;&gt;Node37</title>
<path fill="none" stroke="midnightblue" d="M698.41,-336.36C697.06,-318.92 694.11,-278.24 693.1,-244 692.83,-235.12 693,-232.89 693.1,-224 693.19,-215.4 693.39,-205.87 693.58,-197.8"/>
<polygon fill="midnightblue" stroke="midnightblue" points="697.09,-197.71 693.85,-187.63 690.09,-197.53 697.09,-197.71"/>
</g>
<!-- Node38 -->
<g id="node38" class="node">
<title>Node38</title>
<g id="a_node38"><a xlink:href="dh2operator_8h.html" target="_top" xlink:title=" ">
<polygon fill="white" stroke="black" points="550.6,-168.5 550.6,-187.5 635.6,-187.5 635.6,-168.5 550.6,-168.5"/>
<text text-anchor="middle" x="593.1" y="-175.5" font-family="Helvetica,sans-Serif" font-size="10.00">dh2operator.h</text>
</a>
</g>
</g>
<!-- Node36&#45;&gt;Node38 -->
<g id="edge63" class="edge">
<title>Node36&#45;&gt;Node38</title>
<path fill="none" stroke="midnightblue" d="M693.4,-336.08C676.49,-309.61 626.43,-231.21 604.09,-196.21"/>
<polygon fill="midnightblue" stroke="midnightblue" points="606.9,-194.11 598.57,-187.57 601,-197.88 606.9,-194.11"/>
</g>
<!-- Node39 -->
<g id="node39" class="node">
<title>Node39</title>
<g id="a_node39"><a xlink:href="spaces_8h.html" target="_top" xlink:title=" ">
<polygon fill="white" stroke="black" points="702.6,-224.5 702.6,-243.5 761.6,-243.5 761.6,-224.5 702.6,-224.5"/>
<text text-anchor="middle" x="732.1" y="-231.5" font-family="Helvetica,sans-Serif" font-size="10.00">spaces.h</text>
</a>
</g>
</g>
<!-- Node36&#45;&gt;Node39 -->
<g id="edge67" class="edge">
<title>Node36&#45;&gt;Node39</title>
<path fill="none" stroke="midnightblue" d="M706.58,-336.4C713.54,-327.82 723.52,-313.95 728.1,-300 733,-285.04 733.75,-267.13 733.42,-253.9"/>
<polygon fill="midnightblue" stroke="midnightblue" points="736.91,-253.49 732.92,-243.67 729.91,-253.83 736.91,-253.49"/>
</g>
<!-- Node37&#45;&gt;Node5 -->
<g id="edge60" class="edge">
<title>Node37&#45;&gt;Node5</title>
<path fill="none" stroke="midnightblue" d="M699.43,-168.37C710.6,-150.3 736.64,-108.18 751.4,-84.31"/>
<polygon fill="midnightblue" stroke="midnightblue" points="754.5,-85.94 756.78,-75.59 748.55,-82.26 754.5,-85.94"/>
</g>
<!-- Node37&#45;&gt;Node13 -->
<g id="edge59" class="edge">
<title>Node37&#45;&gt;Node13</title>
<path fill="none" stroke="midnightblue" d="M677.87,-168.32C661.74,-159.7 636.8,-146.36 618.13,-136.39"/>
<polygon fill="midnightblue" stroke="midnightblue" points="619.75,-133.28 609.28,-131.65 616.45,-139.46 619.75,-133.28"/>
</g>
<!-- Node37&#45;&gt;Node25 -->
<g id="edge58" class="edge">
<title>Node37&#45;&gt;Node25</title>
<path fill="none" stroke="midnightblue" d="M732.12,-168.44C779.48,-157.79 859.46,-139.79 903.22,-129.95"/>
<polygon fill="midnightblue" stroke="midnightblue" points="904.02,-133.36 913.01,-127.75 902.48,-126.53 904.02,-133.36"/>
</g>
<!-- Node38&#45;&gt;Node13 -->
<g id="edge65" class="edge">
<title>Node38&#45;&gt;Node13</title>
<path fill="none" stroke="midnightblue" d="M593.1,-168.08C593.1,-161.01 593.1,-150.86 593.1,-141.99"/>
<polygon fill="midnightblue" stroke="midnightblue" points="596.6,-141.75 593.1,-131.75 589.6,-141.75 596.6,-141.75"/>
</g>
<!-- Node38&#45;&gt;Node25 -->
<g id="edge64" class="edge">
<title>Node38&#45;&gt;Node25</title>
<path fill="none" stroke="midnightblue" d="M635.65,-169.57C638.85,-169.04 642.02,-168.51 645.1,-168 738.85,-152.59 849.94,-135.67 902.94,-127.67"/>
<polygon fill="midnightblue" stroke="midnightblue" points="903.68,-131.1 913.04,-126.15 902.63,-124.18 903.68,-131.1"/>
</g>
<!-- Node39&#45;&gt;Node2 -->
<g id="edge70" class="edge">
<title>Node39&#45;&gt;Node2</title>
<path fill="none" stroke="midnightblue" d="M702.38,-228.15C664.29,-221.46 596.57,-207.9 541.1,-188 501.65,-173.85 458.56,-151.14 432.69,-136.66"/>
<polygon fill="midnightblue" stroke="midnightblue" points="434.09,-133.43 423.66,-131.54 430.64,-139.52 434.09,-133.43"/>
</g>
<!-- Node39&#45;&gt;Node5 -->
<g id="edge72" class="edge">
<title>Node39&#45;&gt;Node5</title>
<path fill="none" stroke="midnightblue" d="M734.42,-224.42C736.81,-215.4 740.54,-200.77 743.1,-188 750.31,-151.98 756.44,-109.48 759.66,-85.65"/>
<polygon fill="midnightblue" stroke="midnightblue" points="763.16,-85.93 761,-75.55 756.22,-85 763.16,-85.93"/>
</g>
<!-- Node39&#45;&gt;Node25 -->
<g id="edge68" class="edge">
<title>Node39&#45;&gt;Node25</title>
<path fill="none" stroke="midnightblue" d="M747.95,-224.37C782.98,-205.29 867.21,-159.42 909.3,-136.51"/>
<polygon fill="midnightblue" stroke="midnightblue" points="911.21,-139.45 918.32,-131.59 907.86,-133.3 911.21,-139.45"/>
</g>
<!-- Node39&#45;&gt;Node27 -->
<g id="edge69" class="edge">
<title>Node39&#45;&gt;Node27</title>
<path fill="none" stroke="midnightblue" d="M757.13,-224.44C784.1,-215.23 827.15,-200.51 856.92,-190.34"/>
<polygon fill="midnightblue" stroke="midnightblue" points="858.14,-193.62 866.47,-187.08 855.87,-187 858.14,-193.62"/>
</g>
<!-- Node39&#45;&gt;Node37 -->
<g id="edge71" class="edge">
<title>Node39&#45;&gt;Node37</title>
<path fill="none" stroke="midnightblue" d="M725.82,-224.08C720.45,-216.46 712.58,-205.26 706.02,-195.94"/>
<polygon fill="midnightblue" stroke="midnightblue" points="708.87,-193.91 700.25,-187.75 703.15,-197.94 708.87,-193.91"/>
</g>
</g>
</svg>
