<?xml version="1.0" encoding="UTF-8" standalone="no"?>
<!DOCTYPE svg PUBLIC "-//W3C//DTD SVG 1.1//EN"
 "http://www.w3.org/Graphics/SVG/1.1/DTD/svg11.dtd">
<!-- Generated by graphviz version 2.43.0 (0)
 -->
<!-- Title: main/meshreader.h Pages: 1 -->
<svg width="472pt" height="252pt"
 viewBox="0.00 0.00 471.73 252.00" xmlns="http://www.w3.org/2000/svg" xmlns:xlink="http://www.w3.org/1999/xlink">
<g id="graph0" class="graph" transform="scale(1 1) rotate(0) translate(4 248)">
<title>main/meshreader.h</title>
<polygon fill="white" stroke="transparent" points="-4,4 -4,-248 467.73,-248 467.73,4 -4,4"/>
<!-- Node1 -->
<g id="node1" class="node">
<title>Node1</title>
<g id="a_node1"><a xlink:title=" ">
<polygon fill="#bfbfbf" stroke="black" points="107.5,-224.5 107.5,-243.5 219.5,-243.5 219.5,-224.5 107.5,-224.5"/>
<text text-anchor="middle" x="163.5" y="-231.5" font-family="Helvetica,sans-Serif" font-size="10.00">main/meshreader.h</text>
</a>
</g>
</g>
<!-- Node2 -->
<g id="node2" class="node">
<title>Node2</title>
<g id="a_node2"><a xlink:title=" ">
<polygon fill="white" stroke="#bfbfbf" points="57.5,-112.5 57.5,-131.5 99.5,-131.5 99.5,-112.5 57.5,-112.5"/>
<text text-anchor="middle" x="78.5" y="-119.5" font-family="Helvetica,sans-Serif" font-size="10.00">array</text>
</a>
</g>
</g>
<!-- Node1&#45;&gt;Node2 -->
<g id="edge1" class="edge">
<title>Node1&#45;&gt;Node2</title>
<path fill="none" stroke="midnightblue" d="M167.44,-224.24C172.76,-210.98 180.38,-185.52 169.5,-168 162.55,-156.81 132.72,-143.36 109.08,-134.09"/>
<polygon fill="midnightblue" stroke="midnightblue" points="110.32,-130.82 99.73,-130.51 107.82,-137.36 110.32,-130.82"/>
</g>
<!-- Node3 -->
<g id="node3" class="node">
<title>Node3</title>
<g id="a_node3"><a xlink:title=" ">
<polygon fill="white" stroke="#bfbfbf" points="57.5,-168.5 57.5,-187.5 95.5,-187.5 95.5,-168.5 57.5,-168.5"/>
<text text-anchor="middle" x="76.5" y="-175.5" font-family="Helvetica,sans-Serif" font-size="10.00">map</text>
</a>
</g>
</g>
<!-- Node1&#45;&gt;Node3 -->
<g id="edge2" class="edge">
<title>Node1&#45;&gt;Node3</title>
<path fill="none" stroke="midnightblue" d="M149.52,-224.32C135.95,-215.9 115.12,-202.97 99.18,-193.07"/>
<polygon fill="midnightblue" stroke="midnightblue" points="100.79,-189.95 90.44,-187.65 97.09,-195.9 100.79,-189.95"/>
</g>
<!-- Node4 -->
<g id="node4" class="node">
<title>Node4</title>
<g id="a_node4"><a xlink:title=" ">
<polygon fill="white" stroke="#bfbfbf" points="114,-168.5 114,-187.5 161,-187.5 161,-168.5 114,-168.5"/>
<text text-anchor="middle" x="137.5" y="-175.5" font-family="Helvetica,sans-Serif" font-size="10.00">vector</text>
</a>
</g>
</g>
<!-- Node1&#45;&gt;Node4 -->
<g id="edge3" class="edge">
<title>Node1&#45;&gt;Node4</title>
<path fill="none" stroke="midnightblue" d="M159.21,-224.08C155.65,-216.69 150.48,-205.95 146.08,-196.81"/>
<polygon fill="midnightblue" stroke="midnightblue" points="149.21,-195.24 141.71,-187.75 142.9,-198.28 149.21,-195.24"/>
</g>
<!-- Node5 -->
<g id="node5" class="node">
<title>Node5</title>
<g id="a_node5"><a xlink:title=" ">
<polygon fill="white" stroke="#bfbfbf" points="381.5,-56.5 381.5,-75.5 425.5,-75.5 425.5,-56.5 381.5,-56.5"/>
<text text-anchor="middle" x="403.5" y="-63.5" font-family="Helvetica,sans-Serif" font-size="10.00">string</text>
</a>
</g>
</g>
<!-- Node1&#45;&gt;Node5 -->
<g id="edge4" class="edge">
<title>Node1&#45;&gt;Node5</title>
<path fill="none" stroke="midnightblue" d="M219.67,-232.52C289.65,-228.49 406.48,-209.71 459.5,-132 472.44,-113.03 449.48,-93.33 429.17,-80.66"/>
<polygon fill="midnightblue" stroke="midnightblue" points="430.85,-77.59 420.45,-75.53 427.29,-83.62 430.85,-77.59"/>
</g>
<!-- Node6 -->
<g id="node6" class="node">
<title>Node6</title>
<g id="a_node6"><a xlink:href="enum_8h.html" target="_top" xlink:title=" ">
<polygon fill="white" stroke="black" points="0,-56.5 0,-75.5 77,-75.5 77,-56.5 0,-56.5"/>
<text text-anchor="middle" x="38.5" y="-63.5" font-family="Helvetica,sans-Serif" font-size="10.00">utils/enum.h</text>
</a>
</g>
</g>
<!-- Node1&#45;&gt;Node6 -->
<g id="edge5" class="edge">
<title>Node1&#45;&gt;Node6</title>
<path fill="none" stroke="midnightblue" d="M108.59,-224.5C86.43,-218.18 62.78,-207.17 48.5,-188 26.13,-157.96 30,-111.32 34.46,-85.6"/>
<polygon fill="midnightblue" stroke="midnightblue" points="37.91,-86.17 36.39,-75.68 31.04,-84.83 37.91,-86.17"/>
</g>
<!-- Node8 -->
<g id="node8" class="node">
<title>Node8</title>
<g id="a_node8"><a xlink:href="linearalgebra_8h.html" target="_top" xlink:title=" ">
<polygon fill="white" stroke="black" points="217.5,-168.5 217.5,-187.5 307.5,-187.5 307.5,-168.5 217.5,-168.5"/>
<text text-anchor="middle" x="262.5" y="-175.5" font-family="Helvetica,sans-Serif" font-size="10.00">linearalgebra.h</text>
</a>
</g>
</g>
<!-- Node1&#45;&gt;Node8 -->
<g id="edge7" class="edge">
<title>Node1&#45;&gt;Node8</title>
<path fill="none" stroke="midnightblue" d="M179.41,-224.32C195.14,-215.74 219.44,-202.49 237.71,-192.52"/>
<polygon fill="midnightblue" stroke="midnightblue" points="239.53,-195.52 246.63,-187.65 236.18,-189.37 239.53,-195.52"/>
</g>
<!-- Node7 -->
<g id="node7" class="node">
<title>Node7</title>
<g id="a_node7"><a xlink:title=" ">
<polygon fill="white" stroke="#bfbfbf" points="37,-0.5 37,-19.5 106,-19.5 106,-0.5 37,-0.5"/>
<text text-anchor="middle" x="71.5" y="-7.5" font-family="Helvetica,sans-Serif" font-size="10.00">type_traits</text>
</a>
</g>
</g>
<!-- Node6&#45;&gt;Node7 -->
<g id="edge6" class="edge">
<title>Node6&#45;&gt;Node7</title>
<path fill="none" stroke="midnightblue" d="M43.95,-56.08C48.51,-48.61 55.17,-37.72 60.79,-28.52"/>
<polygon fill="midnightblue" stroke="midnightblue" points="63.92,-30.11 66.15,-19.75 57.95,-26.46 63.92,-30.11"/>
</g>
<!-- Node8&#45;&gt;Node2 -->
<g id="edge8" class="edge">
<title>Node8&#45;&gt;Node2</title>
<path fill="none" stroke="midnightblue" d="M232.96,-168.44C203.88,-159.99 157.96,-146.62 109.52,-132.29"/>
<polygon fill="midnightblue" stroke="midnightblue" points="110.38,-128.89 99.8,-129.41 108.39,-135.61 110.38,-128.89"/>
</g>
<!-- Node9 -->
<g id="node9" class="node">
<title>Node9</title>
<g id="a_node9"><a xlink:title=" ">
<polygon fill="white" stroke="#bfbfbf" points="317,-112.5 317,-131.5 376,-131.5 376,-112.5 317,-112.5"/>
<text text-anchor="middle" x="346.5" y="-119.5" font-family="Helvetica,sans-Serif" font-size="10.00">complex</text>
</a>
</g>
</g>
<!-- Node8&#45;&gt;Node9 -->
<g id="edge9" class="edge">
<title>Node8&#45;&gt;Node9</title>
<path fill="none" stroke="midnightblue" d="M276,-168.32C289.1,-159.9 309.21,-146.97 324.61,-137.07"/>
<polygon fill="midnightblue" stroke="midnightblue" points="326.52,-140.01 333.04,-131.65 322.73,-134.12 326.52,-140.01"/>
</g>
<!-- Node10 -->
<g id="node10" class="node">
<title>Node10</title>
<g id="a_node10"><a xlink:title=" ">
<polygon fill="white" stroke="#bfbfbf" points="394.5,-112.5 394.5,-131.5 450.5,-131.5 450.5,-112.5 394.5,-112.5"/>
<text text-anchor="middle" x="422.5" y="-119.5" font-family="Helvetica,sans-Serif" font-size="10.00">numeric</text>
</a>
</g>
</g>
<!-- Node8&#45;&gt;Node10 -->
<g id="edge10" class="edge">
<title>Node8&#45;&gt;Node10</title>
<path fill="none" stroke="midnightblue" d="M287.85,-168.44C314.77,-159.36 357.5,-144.94 387.59,-134.78"/>
<polygon fill="midnightblue" stroke="midnightblue" points="388.91,-138.03 397.27,-131.52 386.67,-131.4 388.91,-138.03"/>
</g>
<!-- Node11 -->
<g id="node11" class="node">
<title>Node11</title>
<g id="a_node11"><a xlink:href="logger_8h.html" target="_top" xlink:title=" ">
<polygon fill="white" stroke="black" points="117.5,-112.5 117.5,-131.5 207.5,-131.5 207.5,-112.5 117.5,-112.5"/>
<text text-anchor="middle" x="162.5" y="-119.5" font-family="Helvetica,sans-Serif" font-size="10.00">logger/logger.h</text>
</a>
</g>
</g>
<!-- Node8&#45;&gt;Node11 -->
<g id="edge11" class="edge">
<title>Node8&#45;&gt;Node11</title>
<path fill="none" stroke="midnightblue" d="M246.43,-168.32C230.54,-159.74 205.99,-146.49 187.54,-136.52"/>
<polygon fill="midnightblue" stroke="midnightblue" points="188.99,-133.33 178.53,-131.65 185.66,-139.49 188.99,-133.33"/>
</g>
<!-- Node14 -->
<g id="node14" class="node">
<title>Node14</title>
<g id="a_node14"><a xlink:href="constants_8h.html" target="_top" xlink:title=" ">
<polygon fill="white" stroke="black" points="226,-112.5 226,-131.5 299,-131.5 299,-112.5 226,-112.5"/>
<text text-anchor="middle" x="262.5" y="-119.5" font-family="Helvetica,sans-Serif" font-size="10.00">constants.h</text>
</a>
</g>
</g>
<!-- Node8&#45;&gt;Node14 -->
<g id="edge16" class="edge">
<title>Node8&#45;&gt;Node14</title>
<path fill="none" stroke="midnightblue" d="M262.5,-168.08C262.5,-161.01 262.5,-150.86 262.5,-141.99"/>
<polygon fill="midnightblue" stroke="midnightblue" points="266,-141.75 262.5,-131.75 259,-141.75 266,-141.75"/>
</g>
<!-- Node11&#45;&gt;Node6 -->
<g id="edge14" class="edge">
<title>Node11&#45;&gt;Node6</title>
<path fill="none" stroke="midnightblue" d="M142.85,-112.44C122.54,-103.6 90.6,-89.69 67.4,-79.59"/>
<polygon fill="midnightblue" stroke="midnightblue" points="68.62,-76.3 58.06,-75.52 65.83,-82.72 68.62,-76.3"/>
</g>
<!-- Node11&#45;&gt;Node7 -->
<g id="edge12" class="edge">
<title>Node11&#45;&gt;Node7</title>
<path fill="none" stroke="midnightblue" d="M155.17,-112.41C147.49,-103.38 135.08,-88.75 124.5,-76 111.05,-59.79 95.88,-41.15 85.23,-28"/>
<polygon fill="midnightblue" stroke="midnightblue" points="87.66,-25.44 78.65,-19.87 82.22,-29.85 87.66,-25.44"/>
</g>
<!-- Node12 -->
<g id="node12" class="node">
<title>Node12</title>
<g id="a_node12"><a xlink:title=" ">
<polygon fill="white" stroke="#bfbfbf" points="133.5,-56.5 133.5,-75.5 191.5,-75.5 191.5,-56.5 133.5,-56.5"/>
<text text-anchor="middle" x="162.5" y="-63.5" font-family="Helvetica,sans-Serif" font-size="10.00">memory</text>
</a>
</g>
</g>
<!-- Node11&#45;&gt;Node12 -->
<g id="edge13" class="edge">
<title>Node11&#45;&gt;Node12</title>
<path fill="none" stroke="midnightblue" d="M162.5,-112.08C162.5,-105.01 162.5,-94.86 162.5,-85.99"/>
<polygon fill="midnightblue" stroke="midnightblue" points="166,-85.75 162.5,-75.75 159,-85.75 166,-85.75"/>
</g>
<!-- Node13 -->
<g id="node13" class="node">
<title>Node13</title>
<g id="a_node13"><a xlink:title=" ">
<polygon fill="white" stroke="#bfbfbf" points="209.5,-56.5 209.5,-75.5 289.5,-75.5 289.5,-56.5 209.5,-56.5"/>
<text text-anchor="middle" x="249.5" y="-63.5" font-family="Helvetica,sans-Serif" font-size="10.00">logger.levels</text>
</a>
</g>
</g>
<!-- Node11&#45;&gt;Node13 -->
<g id="edge15" class="edge">
<title>Node11&#45;&gt;Node13</title>
<path fill="none" stroke="midnightblue" d="M176.48,-112.32C190.05,-103.9 210.88,-90.97 226.82,-81.07"/>
<polygon fill="midnightblue" stroke="midnightblue" points="228.91,-83.9 235.56,-75.65 225.21,-77.95 228.91,-83.9"/>
</g>
<!-- Node14&#45;&gt;Node5 -->
<g id="edge17" class="edge">
<title>Node14&#45;&gt;Node5</title>
<path fill="none" stroke="midnightblue" d="M284.84,-112.44C308.25,-103.48 345.24,-89.31 371.69,-79.18"/>
<polygon fill="midnightblue" stroke="midnightblue" points="373.18,-82.36 381.26,-75.52 370.67,-75.82 373.18,-82.36"/>
</g>
</g>
</svg>
