<?xml version="1.0" encoding="UTF-8" standalone="no"?>
<!DOCTYPE svg PUBLIC "-//W3C//DTD SVG 1.1//EN"
 "http://www.w3.org/Graphics/SVG/1.1/DTD/svg11.dtd">
<!-- Generated by graphviz version 2.43.0 (0)
 -->
<!-- Title: MainNamespace::globalOptions Pages: 1 -->
<svg width="2042pt" height="849pt"
 viewBox="0.00 0.00 2042.00 848.50" xmlns="http://www.w3.org/2000/svg" xmlns:xlink="http://www.w3.org/1999/xlink">
<g id="graph0" class="graph" transform="scale(1 1) rotate(0) translate(4 844.5)">
<title>MainNamespace::globalOptions</title>
<polygon fill="white" stroke="transparent" points="-4,4 -4,-844.5 2038,-844.5 2038,4 -4,4"/>
<!-- Node1 -->
<g id="node1" class="node">
<title>Node1</title>
<g id="a_node1"><a xlink:title=" ">
<polygon fill="#bfbfbf" stroke="black" points="1862,-399.5 1862,-418.5 2034,-418.5 2034,-399.5 1862,-399.5"/>
<text text-anchor="middle" x="1948" y="-406.5" font-family="Helvetica,sans-Serif" font-size="10.00">MainNamespace::globalOptions</text>
</a>
</g>
</g>
<!-- Node2 -->
<g id="node2" class="node">
<title>Node2</title>
<g id="a_node2"><a xlink:href="struct_main_namespace_1_1_options.html#a4db6a2fafb09fb140ca8dd77786dce3c" target="_top" xlink:title=" ">
<polygon fill="white" stroke="black" points="1660.5,-810 1660.5,-840 1802.5,-840 1802.5,-810 1660.5,-810"/>
<text text-anchor="start" x="1668.5" y="-828" font-family="Helvetica,sans-Serif" font-size="10.00">MainNamespace::Options</text>
<text text-anchor="middle" x="1731.5" y="-817" font-family="Helvetica,sans-Serif" font-size="10.00">::Options</text>
</a>
</g>
</g>
<!-- Node1&#45;&gt;Node2 -->
<g id="edge1" class="edge">
<title>Node1&#45;&gt;Node2</title>
<path fill="none" stroke="midnightblue" d="M1947.21,-428.97C1946.73,-493.14 1936.18,-696 1826,-801 1819.33,-807.36 1811.21,-812.09 1802.57,-815.61"/>
<polygon fill="midnightblue" stroke="midnightblue" points="1950.71,-428.66 1947.2,-418.66 1943.71,-428.66 1950.71,-428.66"/>
</g>
<!-- Node3 -->
<g id="node3" class="node">
<title>Node3</title>
<g id="a_node3"><a xlink:href="struct_main_namespace_1_1_options.html#a1ef6bad7a167ef792ae408aeb047c8cb" target="_top" xlink:title=" ">
<polygon fill="white" stroke="black" points="1660.5,-761 1660.5,-791 1802.5,-791 1802.5,-761 1660.5,-761"/>
<text text-anchor="start" x="1668.5" y="-779" font-family="Helvetica,sans-Serif" font-size="10.00">MainNamespace::Options</text>
<text text-anchor="middle" x="1731.5" y="-768" font-family="Helvetica,sans-Serif" font-size="10.00">::~Options</text>
</a>
</g>
</g>
<!-- Node1&#45;&gt;Node3 -->
<g id="edge2" class="edge">
<title>Node1&#45;&gt;Node3</title>
<path fill="none" stroke="midnightblue" d="M1946.14,-428.68C1942.5,-487.06 1923.57,-660.83 1826,-751 1819.34,-757.16 1811.32,-761.83 1802.83,-765.37"/>
<polygon fill="midnightblue" stroke="midnightblue" points="1949.64,-428.77 1946.69,-418.6 1942.65,-428.4 1949.64,-428.77"/>
</g>
<!-- Node4 -->
<g id="node4" class="node">
<title>Node4</title>
<g id="a_node4"><a xlink:href="namespace_main_namespace.html#ae3de5f8d4e5a65270c9f1300f9eb0550" target="_top" xlink:title=" ">
<polygon fill="white" stroke="black" points="1637,-722.5 1637,-741.5 1826,-741.5 1826,-722.5 1637,-722.5"/>
<text text-anchor="middle" x="1731.5" y="-729.5" font-family="Helvetica,sans-Serif" font-size="10.00">MainNamespace::clusterResolution</text>
</a>
</g>
</g>
<!-- Node1&#45;&gt;Node4 -->
<g id="edge3" class="edge">
<title>Node1&#45;&gt;Node4</title>
<path fill="none" stroke="midnightblue" d="M1945.45,-428.55C1940.02,-482.93 1916.94,-636.98 1826,-713 1821.42,-716.82 1816.29,-719.95 1810.84,-722.49"/>
<polygon fill="midnightblue" stroke="midnightblue" points="1948.94,-428.79 1946.35,-418.52 1941.97,-428.16 1948.94,-428.79"/>
</g>
<!-- Node8 -->
<g id="node8" class="node">
<title>Node8</title>
<g id="a_node8"><a xlink:href="namespace_main_namespace.html#ab563a8127ba49426e0e96329e3fcd1f2" target="_top" xlink:title=" ">
<polygon fill="white" stroke="black" points="1648,-684.5 1648,-703.5 1815,-703.5 1815,-684.5 1648,-684.5"/>
<text text-anchor="middle" x="1731.5" y="-691.5" font-family="Helvetica,sans-Serif" font-size="10.00">MainNamespace::compression</text>
</a>
</g>
</g>
<!-- Node1&#45;&gt;Node8 -->
<g id="edge8" class="edge">
<title>Node1&#45;&gt;Node8</title>
<path fill="none" stroke="midnightblue" d="M1944.2,-428.73C1936.02,-478.59 1907.39,-610.23 1826,-675 1821.2,-678.82 1815.84,-681.93 1810.18,-684.45"/>
<polygon fill="midnightblue" stroke="midnightblue" points="1947.69,-429.06 1945.75,-418.64 1940.77,-427.99 1947.69,-429.06"/>
</g>
<!-- Node9 -->
<g id="node9" class="node">
<title>Node9</title>
<g id="a_node9"><a xlink:href="namespace_main_namespace.html#a8057a9adb9cc3ea9f20bba5635745899" target="_top" xlink:title=" ">
<polygon fill="white" stroke="black" points="1653,-646.5 1653,-665.5 1810,-665.5 1810,-646.5 1653,-646.5"/>
<text text-anchor="middle" x="1731.5" y="-653.5" font-family="Helvetica,sans-Serif" font-size="10.00">MainNamespace::delOptions</text>
</a>
</g>
</g>
<!-- Node1&#45;&gt;Node9 -->
<g id="edge9" class="edge">
<title>Node1&#45;&gt;Node9</title>
<path fill="none" stroke="midnightblue" d="M1942.63,-428.61C1931.59,-473.31 1898.14,-583.1 1826,-637 1820.96,-640.77 1815.35,-643.84 1809.46,-646.33"/>
<polygon fill="midnightblue" stroke="midnightblue" points="1946.07,-429.25 1944.97,-418.71 1939.26,-427.64 1946.07,-429.25"/>
</g>
<!-- Node10 -->
<g id="node10" class="node">
<title>Node10</title>
<g id="a_node10"><a xlink:href="namespace_main_namespace.html#a4e7ea1c2ee502be36c9be19ea1c5ada3" target="_top" xlink:title=" ">
<polygon fill="white" stroke="black" points="1670.5,-304.5 1670.5,-323.5 1792.5,-323.5 1792.5,-304.5 1670.5,-304.5"/>
<text text-anchor="middle" x="1731.5" y="-311.5" font-family="Helvetica,sans-Serif" font-size="10.00">MainNamespace::eps</text>
</a>
</g>
</g>
<!-- Node1&#45;&gt;Node10 -->
<g id="edge10" class="edge">
<title>Node1&#45;&gt;Node10</title>
<path fill="none" stroke="midnightblue" d="M1927.12,-393.32C1904.09,-375.95 1864.39,-348.36 1826,-333 1815.54,-328.82 1804.04,-325.51 1792.79,-322.92"/>
<polygon fill="midnightblue" stroke="midnightblue" points="1925.02,-396.12 1935.09,-399.43 1929.28,-390.57 1925.02,-396.12"/>
</g>
<!-- Node19 -->
<g id="node19" class="node">
<title>Node19</title>
<g id="a_node19"><a xlink:href="namespace_main_namespace.html#ad7b9e400a2260e83b81b231cb20657a7" target="_top" xlink:title=" ">
<polygon fill="white" stroke="black" points="1655,-190.5 1655,-209.5 1808,-209.5 1808,-190.5 1655,-190.5"/>
<text text-anchor="middle" x="1731.5" y="-197.5" font-family="Helvetica,sans-Serif" font-size="10.00">MainNamespace::epsKrylov</text>
</a>
</g>
</g>
<!-- Node1&#45;&gt;Node19 -->
<g id="edge19" class="edge">
<title>Node1&#45;&gt;Node19</title>
<path fill="none" stroke="midnightblue" d="M1940.5,-389.5C1926.39,-350.37 1889.05,-262.33 1826,-219 1820.4,-215.15 1814.2,-212.05 1807.73,-209.55"/>
<polygon fill="midnightblue" stroke="midnightblue" points="1937.27,-390.87 1943.87,-399.16 1943.88,-388.57 1937.27,-390.87"/>
</g>
<!-- Node21 -->
<g id="node21" class="node">
<title>Node21</title>
<g id="a_node21"><a xlink:href="namespace_main_namespace.html#a3dd89125e308a73748435e6a7c8d3db4" target="_top" xlink:title=" ">
<polygon fill="white" stroke="black" points="1653,-532.5 1653,-551.5 1810,-551.5 1810,-532.5 1653,-532.5"/>
<text text-anchor="middle" x="1731.5" y="-539.5" font-family="Helvetica,sans-Serif" font-size="10.00">MainNamespace::interactive</text>
</a>
</g>
</g>
<!-- Node1&#45;&gt;Node21 -->
<g id="edge22" class="edge">
<title>Node1&#45;&gt;Node21</title>
<path fill="none" stroke="midnightblue" d="M1933.47,-426.94C1913.12,-452.55 1872.08,-499.13 1826,-523 1818.5,-526.89 1810.28,-529.98 1801.92,-532.44"/>
<polygon fill="midnightblue" stroke="midnightblue" points="1936.4,-428.87 1939.78,-418.83 1930.88,-424.57 1936.4,-428.87"/>
</g>
<!-- Node22 -->
<g id="node22" class="node">
<title>Node22</title>
<g id="a_node22"><a xlink:href="namespace_main_namespace.html#a532a4d5934d8db064f36b2c1de35adc6" target="_top" xlink:title=" ">
<polygon fill="white" stroke="black" points="567,-457 567,-487 734,-487 734,-457 567,-457"/>
<text text-anchor="start" x="575" y="-475" font-family="Helvetica,sans-Serif" font-size="10.00">MainNamespace::interpolation</text>
<text text-anchor="middle" x="650.5" y="-464" font-family="Helvetica,sans-Serif" font-size="10.00">Points</text>
</a>
</g>
</g>
<!-- Node1&#45;&gt;Node22 -->
<g id="edge23" class="edge">
<title>Node1&#45;&gt;Node22</title>
<path fill="none" stroke="midnightblue" d="M1938.52,-428.21C1922.32,-462.24 1883.39,-532.24 1826,-561 1722.14,-613.04 1419.67,-577 1303.5,-577 1303.5,-577 1303.5,-577 1070,-577 923.93,-577 757.57,-516.08 686.58,-487.04"/>
<polygon fill="midnightblue" stroke="midnightblue" points="1941.81,-429.43 1942.82,-418.89 1935.45,-426.5 1941.81,-429.43"/>
</g>
<!-- Node25 -->
<g id="node25" class="node">
<title>Node25</title>
<g id="a_node25"><a xlink:href="namespace_main_namespace.html#af66580f399351127a1946a6e6b068787" target="_top" xlink:title=" ">
<polygon fill="white" stroke="black" points="1647,-456.5 1647,-475.5 1816,-475.5 1816,-456.5 1647,-456.5"/>
<text text-anchor="middle" x="1731.5" y="-463.5" font-family="Helvetica,sans-Serif" font-size="10.00">MainNamespace::makeOptions</text>
</a>
</g>
</g>
<!-- Node1&#45;&gt;Node25 -->
<g id="edge28" class="edge">
<title>Node1&#45;&gt;Node25</title>
<path fill="none" stroke="midnightblue" d="M1909.68,-421.82C1885.91,-429.72 1854.36,-439.69 1826,-447 1812.53,-450.47 1797.83,-453.71 1784.16,-456.5"/>
<polygon fill="midnightblue" stroke="midnightblue" points="1910.99,-425.08 1919.36,-418.58 1908.77,-418.44 1910.99,-425.08"/>
</g>
<!-- Node26 -->
<g id="node26" class="node">
<title>Node26</title>
<g id="a_node26"><a xlink:href="namespace_main_namespace.html#afca69d7c710a9c0465cd087319823c56" target="_top" xlink:title=" ">
<polygon fill="white" stroke="black" points="1657.5,-494.5 1657.5,-513.5 1805.5,-513.5 1805.5,-494.5 1657.5,-494.5"/>
<text text-anchor="middle" x="1731.5" y="-501.5" font-family="Helvetica,sans-Serif" font-size="10.00">MainNamespace::meshFile</text>
</a>
</g>
</g>
<!-- Node1&#45;&gt;Node26 -->
<g id="edge29" class="edge">
<title>Node1&#45;&gt;Node26</title>
<path fill="none" stroke="midnightblue" d="M1927.12,-424.68C1904.09,-442.05 1864.39,-469.64 1826,-485 1816.31,-488.88 1805.73,-492 1795.28,-494.5"/>
<polygon fill="midnightblue" stroke="midnightblue" points="1929.28,-427.43 1935.09,-418.57 1925.02,-421.88 1929.28,-427.43"/>
</g>
<!-- Node28 -->
<g id="node28" class="node">
<title>Node28</title>
<g id="a_node28"><a xlink:href="namespace_main_namespace.html#a71dba2b09368b6de6d66105d0bca7911" target="_top" xlink:title=" ">
<polygon fill="white" stroke="black" points="1641,-608.5 1641,-627.5 1822,-627.5 1822,-608.5 1641,-608.5"/>
<text text-anchor="middle" x="1731.5" y="-615.5" font-family="Helvetica,sans-Serif" font-size="10.00">MainNamespace::outputDirectory</text>
</a>
</g>
</g>
<!-- Node1&#45;&gt;Node28 -->
<g id="edge31" class="edge">
<title>Node1&#45;&gt;Node28</title>
<path fill="none" stroke="midnightblue" d="M1939.96,-428.26C1925.08,-466.16 1886.75,-550.5 1826,-594 1817.14,-600.34 1806.76,-605.01 1796.19,-608.45"/>
<polygon fill="midnightblue" stroke="midnightblue" points="1943.24,-429.47 1943.53,-418.88 1936.7,-426.98 1943.24,-429.47"/>
</g>
<!-- Node30 -->
<g id="node30" class="node">
<title>Node30</title>
<g id="a_node30"><a xlink:href="namespace_main_namespace.html#a81be07be2d5cb2aa7737c9551518e82b" target="_top" xlink:title=" ">
<polygon fill="white" stroke="black" points="1650,-342.5 1650,-361.5 1813,-361.5 1813,-342.5 1650,-342.5"/>
<text text-anchor="middle" x="1731.5" y="-349.5" font-family="Helvetica,sans-Serif" font-size="10.00">MainNamespace::progressBar</text>
</a>
</g>
</g>
<!-- Node1&#45;&gt;Node30 -->
<g id="edge34" class="edge">
<title>Node1&#45;&gt;Node30</title>
<path fill="none" stroke="midnightblue" d="M1902.84,-396.78C1879.93,-390.49 1851.49,-382.75 1826,-376 1807.69,-371.15 1787.33,-365.91 1770.29,-361.56"/>
<polygon fill="midnightblue" stroke="midnightblue" points="1902.04,-400.2 1912.61,-399.47 1903.9,-393.45 1902.04,-400.2"/>
</g>
<!-- Node32 -->
<g id="node32" class="node">
<title>Node32</title>
<g id="a_node32"><a xlink:href="namespace_main_namespace.html#a1406ef30c6be1a9eb467816516b32028" target="_top" xlink:title=" ">
<polygon fill="white" stroke="black" points="571.5,-408 571.5,-438 729.5,-438 729.5,-408 571.5,-408"/>
<text text-anchor="start" x="579.5" y="-426" font-family="Helvetica,sans-Serif" font-size="10.00">MainNamespace::quadrature</text>
<text text-anchor="middle" x="650.5" y="-415" font-family="Helvetica,sans-Serif" font-size="10.00">Points</text>
</a>
</g>
</g>
<!-- Node1&#45;&gt;Node32 -->
<g id="edge39" class="edge">
<title>Node1&#45;&gt;Node32</title>
<path fill="none" stroke="midnightblue" d="M1851.74,-407.97C1790.42,-407.56 1709,-407.49 1637,-409 1488.68,-412.11 1451.85,-423 1303.5,-423 1303.5,-423 1303.5,-423 1070,-423 951.39,-423 813.87,-423 729.79,-423"/>
<polygon fill="midnightblue" stroke="midnightblue" points="1851.77,-411.47 1861.79,-408.04 1851.82,-404.47 1851.77,-411.47"/>
</g>
<!-- Node33 -->
<g id="node33" class="node">
<title>Node33</title>
<g id="a_node33"><a xlink:href="namespace_main_namespace.html#a78e94b3a3cdc51d20e1c665b3c4dd432" target="_top" xlink:title=" ">
<polygon fill="white" stroke="black" points="1227,-134.5 1227,-153.5 1378,-153.5 1378,-134.5 1227,-134.5"/>
<text text-anchor="middle" x="1302.5" y="-141.5" font-family="Helvetica,sans-Serif" font-size="10.00">MainNamespace::reference</text>
</a>
</g>
</g>
<!-- Node1&#45;&gt;Node33 -->
<g id="edge43" class="edge">
<title>Node1&#45;&gt;Node33</title>
<path fill="none" stroke="midnightblue" d="M1943.23,-389.36C1933.31,-343.66 1901.83,-230.34 1826,-181 1789.39,-157.18 1513.44,-148.27 1378.02,-145.31"/>
<polygon fill="midnightblue" stroke="midnightblue" points="1939.86,-390.35 1945.3,-399.44 1946.72,-388.94 1939.86,-390.35"/>
</g>
<!-- Node36 -->
<g id="node36" class="node">
<title>Node36</title>
<g id="a_node36"><a xlink:href="namespace_main_namespace.html#a5e50f145edc0e262f44ea6b4a46aa2b0" target="_top" xlink:title=" ">
<polygon fill="white" stroke="black" points="1656,-114.5 1656,-133.5 1807,-133.5 1807,-114.5 1656,-114.5"/>
<text text-anchor="middle" x="1731.5" y="-121.5" font-family="Helvetica,sans-Serif" font-size="10.00">MainNamespace::saveError</text>
</a>
</g>
</g>
<!-- Node1&#45;&gt;Node36 -->
<g id="edge48" class="edge">
<title>Node1&#45;&gt;Node36</title>
<path fill="none" stroke="midnightblue" d="M1943.82,-389.54C1934.82,-340.92 1904.54,-213.35 1826,-148 1818.4,-141.68 1809.34,-136.99 1799.89,-133.53"/>
<polygon fill="midnightblue" stroke="midnightblue" points="1940.37,-390.15 1945.55,-399.4 1947.27,-388.94 1940.37,-390.15"/>
</g>
<!-- Node38 -->
<g id="node38" class="node">
<title>Node38</title>
<g id="a_node38"><a xlink:href="namespace_main_namespace.html#a5ff1fdd680dc0320ff6e41ecd89e3aa6" target="_top" xlink:title=" ">
<polygon fill="white" stroke="black" points="1654.5,-418.5 1654.5,-437.5 1808.5,-437.5 1808.5,-418.5 1654.5,-418.5"/>
<text text-anchor="middle" x="1731.5" y="-425.5" font-family="Helvetica,sans-Serif" font-size="10.00">MainNamespace::saveMesh</text>
</a>
</g>
</g>
<!-- Node1&#45;&gt;Node38 -->
<g id="edge50" class="edge">
<title>Node1&#45;&gt;Node38</title>
<path fill="none" stroke="midnightblue" d="M1851.56,-417.45C1837.24,-418.72 1822.64,-420.02 1808.79,-421.24"/>
<polygon fill="midnightblue" stroke="midnightblue" points="1852.26,-420.91 1861.92,-416.54 1851.65,-413.93 1852.26,-420.91"/>
</g>
<!-- Node39 -->
<g id="node39" class="node">
<title>Node39</title>
<g id="a_node39"><a xlink:href="namespace_main_namespace.html#a6901e386a4b183d47269233b4daf35db" target="_top" xlink:title=" ">
<polygon fill="white" stroke="black" points="1652.5,-76.5 1652.5,-95.5 1810.5,-95.5 1810.5,-76.5 1652.5,-76.5"/>
<text text-anchor="middle" x="1731.5" y="-83.5" font-family="Helvetica,sans-Serif" font-size="10.00">MainNamespace::saveOffset</text>
</a>
</g>
</g>
<!-- Node1&#45;&gt;Node39 -->
<g id="edge52" class="edge">
<title>Node1&#45;&gt;Node39</title>
<path fill="none" stroke="midnightblue" d="M1945.45,-389.45C1940.02,-335.07 1916.94,-181.02 1826,-105 1821.42,-101.18 1816.29,-98.05 1810.84,-95.51"/>
<polygon fill="midnightblue" stroke="midnightblue" points="1941.97,-389.84 1946.35,-399.48 1948.94,-389.21 1941.97,-389.84"/>
</g>
<!-- Node40 -->
<g id="node40" class="node">
<title>Node40</title>
<g id="a_node40"><a xlink:href="namespace_main_namespace.html#ae223b3ed418e7eb9a6765804c9190e32" target="_top" xlink:title=" ">
<polygon fill="white" stroke="black" points="1658.5,-38.5 1658.5,-57.5 1804.5,-57.5 1804.5,-38.5 1658.5,-38.5"/>
<text text-anchor="middle" x="1731.5" y="-45.5" font-family="Helvetica,sans-Serif" font-size="10.00">MainNamespace::saveRhs</text>
</a>
</g>
</g>
<!-- Node1&#45;&gt;Node40 -->
<g id="edge54" class="edge">
<title>Node1&#45;&gt;Node40</title>
<path fill="none" stroke="midnightblue" d="M1946.39,-389.04C1943.45,-329.88 1926.26,-154.16 1826,-67 1819.75,-61.57 1812.37,-57.53 1804.55,-54.55"/>
<polygon fill="midnightblue" stroke="midnightblue" points="1942.9,-389.41 1946.81,-399.26 1949.9,-389.12 1942.9,-389.41"/>
</g>
<!-- Node41 -->
<g id="node41" class="node">
<title>Node41</title>
<g id="a_node41"><a xlink:href="namespace_main_namespace.html#ab5930d6a057edb1d01cb951c7a56c00c" target="_top" xlink:title=" ">
<polygon fill="white" stroke="black" points="1648,-0.5 1648,-19.5 1815,-19.5 1815,-0.5 1648,-0.5"/>
<text text-anchor="middle" x="1731.5" y="-7.5" font-family="Helvetica,sans-Serif" font-size="10.00">MainNamespace::saveSolution</text>
</a>
</g>
</g>
<!-- Node1&#45;&gt;Node41 -->
<g id="edge56" class="edge">
<title>Node1&#45;&gt;Node41</title>
<path fill="none" stroke="midnightblue" d="M1947.2,-388.98C1946.66,-325.58 1935.86,-127.62 1826,-29 1821.81,-25.24 1817.08,-22.14 1812.04,-19.6"/>
<polygon fill="midnightblue" stroke="midnightblue" points="1943.7,-389.2 1947.2,-399.2 1950.7,-389.2 1943.7,-389.2"/>
</g>
<!-- Node42 -->
<g id="node42" class="node">
<title>Node42</title>
<g id="a_node42"><a xlink:href="namespace_main_namespace.html#a29e3c10e67bcebfcf74b31964747e0d8" target="_top" xlink:title=" ">
<polygon fill="white" stroke="black" points="1651.5,-228.5 1651.5,-247.5 1811.5,-247.5 1811.5,-228.5 1651.5,-228.5"/>
<text text-anchor="middle" x="1731.5" y="-235.5" font-family="Helvetica,sans-Serif" font-size="10.00">MainNamespace::startTiming</text>
</a>
</g>
</g>
<!-- Node1&#45;&gt;Node42 -->
<g id="edge58" class="edge">
<title>Node1&#45;&gt;Node42</title>
<path fill="none" stroke="midnightblue" d="M1937.76,-390.27C1920.58,-357.56 1880.48,-290.36 1826,-257 1819.64,-253.11 1812.63,-250 1805.39,-247.51"/>
<polygon fill="midnightblue" stroke="midnightblue" points="1934.67,-391.92 1942.34,-399.23 1940.9,-388.74 1934.67,-391.92"/>
</g>
<!-- Node45 -->
<g id="node45" class="node">
<title>Node45</title>
<g id="a_node45"><a xlink:href="namespace_main_namespace.html#a03589b500835850f32276c9983678dc8" target="_top" xlink:title=" ">
<polygon fill="white" stroke="black" points="1652.5,-266.5 1652.5,-285.5 1810.5,-285.5 1810.5,-266.5 1652.5,-266.5"/>
<text text-anchor="middle" x="1731.5" y="-273.5" font-family="Helvetica,sans-Serif" font-size="10.00">MainNamespace::stopTiming</text>
</a>
</g>
</g>
<!-- Node1&#45;&gt;Node45 -->
<g id="edge65" class="edge">
<title>Node1&#45;&gt;Node45</title>
<path fill="none" stroke="midnightblue" d="M1933.47,-391.06C1913.12,-365.45 1872.08,-318.87 1826,-295 1818.5,-291.11 1810.28,-288.02 1801.92,-285.56"/>
<polygon fill="midnightblue" stroke="midnightblue" points="1930.88,-393.43 1939.78,-399.17 1936.4,-389.13 1930.88,-393.43"/>
</g>
<!-- Node5 -->
<g id="node5" class="node">
<title>Node5</title>
<g id="a_node5"><a xlink:href="namespace_main_namespace_1_1_surface.html#a7248ad7bf241ea07a39fc5264435d46e" target="_top" xlink:title=" ">
<polygon fill="white" stroke="black" points="1443,-742 1443,-772 1584,-772 1584,-742 1443,-742"/>
<text text-anchor="start" x="1451" y="-760" font-family="Helvetica,sans-Serif" font-size="10.00">MainNamespace::Surface</text>
<text text-anchor="middle" x="1513.5" y="-749" font-family="Helvetica,sans-Serif" font-size="10.00">::buildGeometricCluster</text>
</a>
</g>
</g>
<!-- Node4&#45;&gt;Node5 -->
<g id="edge4" class="edge">
<title>Node4&#45;&gt;Node5</title>
<path fill="none" stroke="midnightblue" d="M1638.24,-742.68C1620.14,-744.77 1601.44,-746.94 1584.23,-748.93"/>
<polygon fill="midnightblue" stroke="midnightblue" points="1638.69,-746.15 1648.22,-741.52 1637.89,-739.2 1638.69,-746.15"/>
</g>
<!-- Node6 -->
<g id="node6" class="node">
<title>Node6</title>
<g id="a_node6"><a xlink:href="class_main_namespace_1_1_surface_1_1_single_surface.html#ae5d17671333d624db60d56cf43ffc6c5" target="_top" xlink:title="Setup cluster trees.">
<polygon fill="white" stroke="black" points="1224,-707 1224,-737 1381,-737 1381,-707 1224,-707"/>
<text text-anchor="start" x="1232" y="-725" font-family="Helvetica,sans-Serif" font-size="10.00">MainNamespace::Surface</text>
<text text-anchor="middle" x="1302.5" y="-714" font-family="Helvetica,sans-Serif" font-size="10.00">::SingleSurface::setupCluster</text>
</a>
</g>
</g>
<!-- Node4&#45;&gt;Node6 -->
<g id="edge7" class="edge">
<title>Node4&#45;&gt;Node6</title>
<path fill="none" stroke="midnightblue" d="M1626.76,-729.57C1551.07,-727.8 1450.1,-725.43 1381.28,-723.82"/>
<polygon fill="midnightblue" stroke="midnightblue" points="1626.71,-733.07 1636.79,-729.81 1626.88,-726.07 1626.71,-733.07"/>
</g>
<!-- Node5&#45;&gt;Node6 -->
<g id="edge5" class="edge">
<title>Node5&#45;&gt;Node6</title>
<path fill="none" stroke="midnightblue" d="M1433.01,-743.69C1415.99,-740.84 1398.02,-737.83 1381.08,-734.99"/>
<polygon fill="midnightblue" stroke="midnightblue" points="1432.47,-747.15 1442.91,-745.35 1433.62,-740.24 1432.47,-747.15"/>
</g>
<!-- Node7 -->
<g id="node7" class="node">
<title>Node7</title>
<g id="a_node7"><a xlink:href="class_main_namespace_1_1_surface_1_1_single_surface.html#a2cb253a6c5cc5d0c66ead47e5db3233b" target="_top" xlink:title="Construct an object to manage data associated to a closed boundary.">
<polygon fill="white" stroke="black" points="990,-707 990,-737 1152,-737 1152,-707 990,-707"/>
<text text-anchor="start" x="998" y="-725" font-family="Helvetica,sans-Serif" font-size="10.00">MainNamespace::Surface</text>
<text text-anchor="middle" x="1071" y="-714" font-family="Helvetica,sans-Serif" font-size="10.00">::SingleSurface::SingleSurface</text>
</a>
</g>
</g>
<!-- Node6&#45;&gt;Node7 -->
<g id="edge6" class="edge">
<title>Node6&#45;&gt;Node7</title>
<path fill="none" stroke="midnightblue" d="M1213.7,-722C1193.53,-722 1172.19,-722 1152.36,-722"/>
<polygon fill="midnightblue" stroke="midnightblue" points="1213.8,-725.5 1223.8,-722 1213.8,-718.5 1213.8,-725.5"/>
</g>
<!-- Node11 -->
<g id="node11" class="node">
<title>Node11</title>
<g id="a_node11"><a xlink:href="namespace_main_namespace.html#ab0c0b0cb1d9d667bc93cb8e377796c8a" target="_top" xlink:title=" ">
<polygon fill="white" stroke="black" points="1427,-284 1427,-314 1600,-314 1600,-284 1427,-284"/>
<text text-anchor="start" x="1435" y="-302" font-family="Helvetica,sans-Serif" font-size="10.00">MainNamespace::compressRow</text>
<text text-anchor="middle" x="1513.5" y="-291" font-family="Helvetica,sans-Serif" font-size="10.00">ColumnFar</text>
</a>
</g>
</g>
<!-- Node10&#45;&gt;Node11 -->
<g id="edge11" class="edge">
<title>Node10&#45;&gt;Node11</title>
<path fill="none" stroke="midnightblue" d="M1660.2,-309.12C1641.04,-307.79 1620.08,-306.33 1600.17,-304.95"/>
<polygon fill="midnightblue" stroke="midnightblue" points="1660.11,-312.62 1670.33,-309.82 1660.6,-305.64 1660.11,-312.62"/>
</g>
<!-- Node12 -->
<g id="node12" class="node">
<title>Node12</title>
<g id="a_node12"><a xlink:href="namespace_main_namespace.html#aaa553a0feb6a9e785dce2ea7c2f25481" target="_top" xlink:title="Build a dh2matrix for the operator described by bemDescription, using the given clusters.">
<polygon fill="white" stroke="black" points="985.5,-287.5 985.5,-306.5 1156.5,-306.5 1156.5,-287.5 985.5,-287.5"/>
<text text-anchor="middle" x="1071" y="-294.5" font-family="Helvetica,sans-Serif" font-size="10.00">MainNamespace::buildOperator</text>
</a>
</g>
</g>
<!-- Node11&#45;&gt;Node12 -->
<g id="edge12" class="edge">
<title>Node11&#45;&gt;Node12</title>
<path fill="none" stroke="midnightblue" d="M1416.54,-298.56C1339.05,-298.21 1231.06,-297.72 1156.74,-297.38"/>
<polygon fill="midnightblue" stroke="midnightblue" points="1416.77,-302.07 1426.78,-298.61 1416.8,-295.07 1416.77,-302.07"/>
</g>
<!-- Node13 -->
<g id="node13" class="node">
<title>Node13</title>
<g id="a_node13"><a xlink:href="class_main_namespace_1_1_d_h2_matrix_wrapper.html#a8b3117680075ec79bc0500f3e901b133" target="_top" xlink:title="Take ownership of, the pointer to the bem description and build the matrix and all needed data struct...">
<polygon fill="white" stroke="black" points="770,-359 770,-389 927,-389 927,-359 770,-359"/>
<text text-anchor="start" x="778" y="-377" font-family="Helvetica,sans-Serif" font-size="10.00">MainNamespace::DH2Matrix</text>
<text text-anchor="middle" x="848.5" y="-366" font-family="Helvetica,sans-Serif" font-size="10.00">Wrapper::build</text>
</a>
</g>
</g>
<!-- Node12&#45;&gt;Node13 -->
<g id="edge13" class="edge">
<title>Node12&#45;&gt;Node13</title>
<path fill="none" stroke="midnightblue" d="M1032.67,-310.03C993.89,-323.58 933.28,-344.74 892.51,-358.98"/>
<polygon fill="midnightblue" stroke="midnightblue" points="1034.23,-313.2 1042.52,-306.6 1031.92,-306.59 1034.23,-313.2"/>
</g>
<!-- Node14 -->
<g id="node14" class="node">
<title>Node14</title>
<g id="a_node14"><a xlink:href="namespace_main_namespace_1_1_surface.html#a7e821744eeb79cb1faa8468d53cb7c1e" target="_top" xlink:title=" ">
<polygon fill="white" stroke="black" points="580,-359 580,-389 721,-389 721,-359 580,-359"/>
<text text-anchor="start" x="588" y="-377" font-family="Helvetica,sans-Serif" font-size="10.00">MainNamespace::Surface</text>
<text text-anchor="middle" x="650.5" y="-366" font-family="Helvetica,sans-Serif" font-size="10.00">::makeTmpApply</text>
</a>
</g>
</g>
<!-- Node13&#45;&gt;Node14 -->
<g id="edge14" class="edge">
<title>Node13&#45;&gt;Node14</title>
<path fill="none" stroke="midnightblue" d="M759.53,-374C746.69,-374 733.62,-374 721.21,-374"/>
<polygon fill="midnightblue" stroke="midnightblue" points="759.75,-377.5 769.75,-374 759.75,-370.5 759.75,-377.5"/>
</g>
<!-- Node15 -->
<g id="node15" class="node">
<title>Node15</title>
<g id="a_node15"><a xlink:href="class_main_namespace_1_1_surface_1_1_single_surface.html#a3321422c36eccd213cfc48823a9f54d7" target="_top" xlink:title="Project the offset on the current mesh, then use it to compute the right&#45;hand side.">
<polygon fill="white" stroke="black" points="366,-359 366,-389 531,-389 531,-359 366,-359"/>
<text text-anchor="start" x="374" y="-377" font-family="Helvetica,sans-Serif" font-size="10.00">MainNamespace::Surface</text>
<text text-anchor="middle" x="448.5" y="-366" font-family="Helvetica,sans-Serif" font-size="10.00">::SingleSurface::makeMultiRhs</text>
</a>
</g>
</g>
<!-- Node14&#45;&gt;Node15 -->
<g id="edge15" class="edge">
<title>Node14&#45;&gt;Node15</title>
<path fill="none" stroke="midnightblue" d="M569.78,-374C557.12,-374 543.99,-374 531.28,-374"/>
<polygon fill="midnightblue" stroke="midnightblue" points="569.83,-377.5 579.83,-374 569.83,-370.5 569.83,-377.5"/>
</g>
<!-- Node16 -->
<g id="node16" class="node">
<title>Node16</title>
<g id="a_node16"><a xlink:href="class_main_namespace_1_1_surface_1_1_multi_surface.html#a8839f7e49575079e39fbb95a692772a5" target="_top" xlink:title="Compute the right&#45;hand side, the operators, then solve the linear system.">
<polygon fill="white" stroke="black" points="189,-359 189,-389 330,-389 330,-359 189,-359"/>
<text text-anchor="start" x="197" y="-377" font-family="Helvetica,sans-Serif" font-size="10.00">MainNamespace::Surface</text>
<text text-anchor="middle" x="259.5" y="-366" font-family="Helvetica,sans-Serif" font-size="10.00">::MultiSurface::solve</text>
</a>
</g>
</g>
<!-- Node15&#45;&gt;Node16 -->
<g id="edge16" class="edge">
<title>Node15&#45;&gt;Node16</title>
<path fill="none" stroke="midnightblue" d="M355.67,-374C347.07,-374 338.44,-374 330.09,-374"/>
<polygon fill="midnightblue" stroke="midnightblue" points="355.75,-377.5 365.75,-374 355.75,-370.5 355.75,-377.5"/>
</g>
<!-- Node17 -->
<g id="node17" class="node">
<title>Node17</title>
<g id="a_node17"><a xlink:href="main_8cpp.html#a5d68713f22d1b3e2495b15d107ea7d21" target="_top" xlink:title=" ">
<polygon fill="white" stroke="black" points="77,-507.5 77,-526.5 153,-526.5 153,-507.5 77,-507.5"/>
<text text-anchor="middle" x="115" y="-514.5" font-family="Helvetica,sans-Serif" font-size="10.00">testProblem</text>
</a>
</g>
</g>
<!-- Node16&#45;&gt;Node17 -->
<g id="edge17" class="edge">
<title>Node16&#45;&gt;Node17</title>
<path fill="none" stroke="midnightblue" d="M236.45,-396.13C204.92,-427.77 148.26,-484.62 125.68,-507.29"/>
<polygon fill="midnightblue" stroke="midnightblue" points="238.94,-398.59 243.52,-389.03 233.98,-393.65 238.94,-398.59"/>
</g>
<!-- Node18 -->
<g id="node18" class="node">
<title>Node18</title>
<g id="a_node18"><a xlink:href="main_8cpp.html#a3c04138a5bfe5d72780bb7e82a18e627" target="_top" xlink:title=" ">
<polygon fill="white" stroke="black" points="0,-507.5 0,-526.5 41,-526.5 41,-507.5 0,-507.5"/>
<text text-anchor="middle" x="20.5" y="-514.5" font-family="Helvetica,sans-Serif" font-size="10.00">main</text>
</a>
</g>
</g>
<!-- Node17&#45;&gt;Node18 -->
<g id="edge18" class="edge">
<title>Node17&#45;&gt;Node18</title>
<path fill="none" stroke="midnightblue" d="M66.72,-517C57.65,-517 48.64,-517 41.07,-517"/>
<polygon fill="midnightblue" stroke="midnightblue" points="66.91,-520.5 76.91,-517 66.91,-513.5 66.91,-520.5"/>
</g>
<!-- Node20 -->
<g id="node20" class="node">
<title>Node20</title>
<g id="a_node20"><a xlink:href="namespace_main_namespace_1_1_surface.html#a9db507bc2f601fff92d0383899185f61" target="_top" xlink:title=" ">
<polygon fill="white" stroke="black" points="1443,-193 1443,-223 1584,-223 1584,-193 1443,-193"/>
<text text-anchor="start" x="1451" y="-211" font-family="Helvetica,sans-Serif" font-size="10.00">MainNamespace::Surface</text>
<text text-anchor="middle" x="1513.5" y="-200" font-family="Helvetica,sans-Serif" font-size="10.00">::doGmres</text>
</a>
</g>
</g>
<!-- Node19&#45;&gt;Node20 -->
<g id="edge20" class="edge">
<title>Node19&#45;&gt;Node20</title>
<path fill="none" stroke="midnightblue" d="M1644.86,-203.17C1624.74,-203.92 1603.54,-204.7 1584.21,-205.42"/>
<polygon fill="midnightblue" stroke="midnightblue" points="1645.09,-206.67 1654.95,-202.8 1644.83,-199.67 1645.09,-206.67"/>
</g>
<!-- Node20&#45;&gt;Node16 -->
<g id="edge21" class="edge">
<title>Node20&#45;&gt;Node16</title>
<path fill="none" stroke="midnightblue" d="M1432.64,-203.44C1308.12,-196.73 1060.11,-185 849.5,-185 849.5,-185 849.5,-185 649.5,-185 490.7,-185 328.78,-314 277.28,-358.85"/>
<polygon fill="midnightblue" stroke="midnightblue" points="1432.67,-206.95 1442.85,-203.99 1433.05,-199.96 1432.67,-206.95"/>
</g>
<!-- Node22&#45;&gt;Node15 -->
<g id="edge27" class="edge">
<title>Node22&#45;&gt;Node15</title>
<path fill="none" stroke="midnightblue" d="M573.67,-452.22C571.37,-450.9 569.14,-449.5 567,-448 544.85,-432.52 553.03,-414.64 531,-399 525.57,-395.14 519.53,-391.87 513.26,-389.1"/>
<polygon fill="midnightblue" stroke="midnightblue" points="572.36,-455.47 582.86,-456.88 575.52,-449.23 572.36,-455.47"/>
</g>
<!-- Node23 -->
<g id="node23" class="node">
<title>Node23</title>
<g id="a_node23"><a xlink:href="class_main_namespace_1_1_surface_1_1_multi_surface.html#a3f8d56c9aa2c53fdbb578f534bd523e5" target="_top" xlink:title="Contructor. Parse a mesh file in gmsh format and build the global mesh.">
<polygon fill="white" stroke="black" points="372.5,-408 372.5,-438 524.5,-438 524.5,-408 372.5,-408"/>
<text text-anchor="start" x="380.5" y="-426" font-family="Helvetica,sans-Serif" font-size="10.00">MainNamespace::Surface</text>
<text text-anchor="middle" x="448.5" y="-415" font-family="Helvetica,sans-Serif" font-size="10.00">::MultiSurface::MultiSurface</text>
</a>
</g>
</g>
<!-- Node22&#45;&gt;Node23 -->
<g id="edge24" class="edge">
<title>Node22&#45;&gt;Node23</title>
<path fill="none" stroke="midnightblue" d="M578.17,-454.52C556.12,-449.12 532.05,-443.22 510.75,-438.01"/>
<polygon fill="midnightblue" stroke="midnightblue" points="577.59,-457.99 588.13,-456.97 579.25,-451.19 577.59,-457.99"/>
</g>
<!-- Node24 -->
<g id="node24" class="node">
<title>Node24</title>
<g id="a_node24"><a xlink:href="class_main_namespace_1_1_surface_1_1_single_surface.html#a653f26daef216ab74bac87d618603c7f" target="_top" xlink:title="Build the operators.">
<polygon fill="white" stroke="black" points="367.5,-457 367.5,-487 529.5,-487 529.5,-457 367.5,-457"/>
<text text-anchor="start" x="375.5" y="-475" font-family="Helvetica,sans-Serif" font-size="10.00">MainNamespace::Surface</text>
<text text-anchor="middle" x="448.5" y="-464" font-family="Helvetica,sans-Serif" font-size="10.00">::SingleSurface::buildOperator</text>
</a>
</g>
</g>
<!-- Node22&#45;&gt;Node24 -->
<g id="edge25" class="edge">
<title>Node22&#45;&gt;Node24</title>
<path fill="none" stroke="midnightblue" d="M556.78,-472C547.69,-472 538.51,-472 529.56,-472"/>
<polygon fill="midnightblue" stroke="midnightblue" points="557,-475.5 567,-472 557,-468.5 557,-475.5"/>
</g>
<!-- Node24&#45;&gt;Node16 -->
<g id="edge26" class="edge">
<title>Node24&#45;&gt;Node16</title>
<path fill="none" stroke="midnightblue" d="M378.44,-453.41C374.18,-451.73 369.99,-449.92 366,-448 332.54,-431.88 298.12,-405.55 278.04,-389.03"/>
<polygon fill="midnightblue" stroke="midnightblue" points="377.29,-456.72 387.89,-456.91 379.72,-450.16 377.29,-456.72"/>
</g>
<!-- Node27 -->
<g id="node27" class="node">
<title>Node27</title>
<g id="a_node27"><a xlink:href="struct_main_namespace_1_1_mesh.html#a8f4a591243a4cc09ea849eaf72fcf7fc" target="_top" xlink:title="Write a mesh in a custom format, at a custom location. Format: one line with number of vertices,...">
<polygon fill="white" stroke="black" points="1448,-471 1448,-501 1579,-501 1579,-471 1448,-471"/>
<text text-anchor="start" x="1456" y="-489" font-family="Helvetica,sans-Serif" font-size="10.00">MainNamespace::Mesh</text>
<text text-anchor="middle" x="1513.5" y="-478" font-family="Helvetica,sans-Serif" font-size="10.00">::writeMesh</text>
</a>
</g>
</g>
<!-- Node26&#45;&gt;Node27 -->
<g id="edge30" class="edge">
<title>Node26&#45;&gt;Node27</title>
<path fill="none" stroke="midnightblue" d="M1647.14,-497.05C1624.61,-495.18 1600.57,-493.17 1579.22,-491.39"/>
<polygon fill="midnightblue" stroke="midnightblue" points="1647.12,-500.56 1657.37,-497.91 1647.7,-493.59 1647.12,-500.56"/>
</g>
<!-- Node28&#45;&gt;Node17 -->
<g id="edge33" class="edge">
<title>Node28&#45;&gt;Node17</title>
<path fill="none" stroke="midnightblue" d="M1671.48,-629.58C1660.02,-631.94 1648.12,-634.48 1637,-637 1620.91,-640.64 1617.3,-643.46 1601,-646 1470.08,-666.37 1435.99,-665 1303.5,-665 1303.5,-665 1303.5,-665 447.5,-665 311.36,-665 168.96,-559.64 127.78,-526.71"/>
<polygon fill="midnightblue" stroke="midnightblue" points="1672.3,-632.98 1681.4,-627.55 1670.9,-626.12 1672.3,-632.98"/>
</g>
<!-- Node29 -->
<g id="node29" class="node">
<title>Node29</title>
<g id="a_node29"><a xlink:href="class_main_namespace_1_1_mesh_reader.html#aa0e1d758744f315e330c6d0d50438322" target="_top" xlink:title=" ">
<polygon fill="white" stroke="black" points="1431,-606 1431,-636 1596,-636 1596,-606 1431,-606"/>
<text text-anchor="start" x="1439" y="-624" font-family="Helvetica,sans-Serif" font-size="10.00">MainNamespace::MeshReader</text>
<text text-anchor="middle" x="1513.5" y="-613" font-family="Helvetica,sans-Serif" font-size="10.00">::~MeshReader</text>
</a>
</g>
</g>
<!-- Node28&#45;&gt;Node29 -->
<g id="edge32" class="edge">
<title>Node28&#45;&gt;Node29</title>
<path fill="none" stroke="midnightblue" d="M1630.63,-619.39C1619.03,-619.55 1607.31,-619.71 1596.01,-619.87"/>
<polygon fill="midnightblue" stroke="midnightblue" points="1630.82,-622.88 1640.77,-619.25 1630.73,-615.89 1630.82,-622.88"/>
</g>
<!-- Node30&#45;&gt;Node11 -->
<g id="edge38" class="edge">
<title>Node30&#45;&gt;Node11</title>
<path fill="none" stroke="midnightblue" d="M1670.31,-340.42C1659.2,-338.1 1647.73,-335.58 1637,-333 1613.39,-327.33 1587.46,-320.26 1565.55,-314.03"/>
<polygon fill="midnightblue" stroke="midnightblue" points="1669.88,-343.9 1680.38,-342.49 1671.29,-337.05 1669.88,-343.9"/>
</g>
<!-- Node30&#45;&gt;Node13 -->
<g id="edge35" class="edge">
<title>Node30&#45;&gt;Node13</title>
<path fill="none" stroke="midnightblue" d="M1639.43,-358.86C1626.53,-359.67 1613.43,-360.42 1601,-361 1355.13,-372.45 1063.6,-374.08 927.17,-374.15"/>
<polygon fill="midnightblue" stroke="midnightblue" points="1639.96,-362.33 1649.71,-358.19 1639.5,-355.34 1639.96,-362.33"/>
</g>
<!-- Node31 -->
<g id="node31" class="node">
<title>Node31</title>
<g id="a_node31"><a xlink:href="namespace_main_namespace.html#a8d8fdac50b5e686e19890836bb305791" target="_top" xlink:title=" ">
<polygon fill="white" stroke="black" points="1220,-326 1220,-356 1385,-356 1385,-326 1220,-326"/>
<text text-anchor="start" x="1228" y="-344" font-family="Helvetica,sans-Serif" font-size="10.00">MainNamespace::buildImplicit</text>
<text text-anchor="middle" x="1302.5" y="-333" font-family="Helvetica,sans-Serif" font-size="10.00">ClusterBasis</text>
</a>
</g>
</g>
<!-- Node30&#45;&gt;Node31 -->
<g id="edge36" class="edge">
<title>Node30&#45;&gt;Node31</title>
<path fill="none" stroke="midnightblue" d="M1639.5,-349.66C1564.1,-347.71 1457.88,-344.98 1385.17,-343.1"/>
<polygon fill="midnightblue" stroke="midnightblue" points="1639.85,-353.17 1649.93,-349.92 1640.03,-346.17 1639.85,-353.17"/>
</g>
<!-- Node31&#45;&gt;Node12 -->
<g id="edge37" class="edge">
<title>Node31&#45;&gt;Node12</title>
<path fill="none" stroke="midnightblue" d="M1213.19,-324.07C1182.13,-318.11 1148.35,-311.64 1121.62,-306.51"/>
<polygon fill="midnightblue" stroke="midnightblue" points="1212.68,-327.54 1223.16,-325.98 1214,-320.66 1212.68,-327.54"/>
</g>
<!-- Node32&#45;&gt;Node15 -->
<g id="edge42" class="edge">
<title>Node32&#45;&gt;Node15</title>
<path fill="none" stroke="midnightblue" d="M578.17,-405.52C556.12,-400.12 532.05,-394.22 510.75,-389.01"/>
<polygon fill="midnightblue" stroke="midnightblue" points="577.59,-408.99 588.13,-407.97 579.25,-402.19 577.59,-408.99"/>
</g>
<!-- Node32&#45;&gt;Node23 -->
<g id="edge40" class="edge">
<title>Node32&#45;&gt;Node23</title>
<path fill="none" stroke="midnightblue" d="M561.16,-423C548.99,-423 536.59,-423 524.68,-423"/>
<polygon fill="midnightblue" stroke="midnightblue" points="561.32,-426.5 571.32,-423 561.32,-419.5 561.32,-426.5"/>
</g>
<!-- Node32&#45;&gt;Node24 -->
<g id="edge41" class="edge">
<title>Node32&#45;&gt;Node24</title>
<path fill="none" stroke="midnightblue" d="M578.17,-440.48C556.12,-445.88 532.05,-451.78 510.75,-456.99"/>
<polygon fill="midnightblue" stroke="midnightblue" points="579.25,-443.81 588.13,-438.03 577.59,-437.01 579.25,-443.81"/>
</g>
<!-- Node33&#45;&gt;Node12 -->
<g id="edge44" class="edge">
<title>Node33&#45;&gt;Node12</title>
<path fill="none" stroke="midnightblue" d="M1278.55,-159.3C1231.43,-190.71 1124.98,-261.68 1086.35,-287.43"/>
<polygon fill="midnightblue" stroke="midnightblue" points="1280.76,-162.03 1287.14,-153.57 1276.88,-156.21 1280.76,-162.03"/>
</g>
<!-- Node34 -->
<g id="node34" class="node">
<title>Node34</title>
<g id="a_node34"><a xlink:href="class_main_namespace_1_1_surface_1_1_single_surface.html#acd075e5e7ea6304b2e99e6e8aeed29db" target="_top" xlink:title="Compute the energy error norm.">
<polygon fill="white" stroke="black" points="963,-126 963,-156 1179,-156 1179,-126 963,-126"/>
<text text-anchor="start" x="971" y="-144" font-family="Helvetica,sans-Serif" font-size="10.00">MainNamespace::Surface</text>
<text text-anchor="middle" x="1071" y="-133" font-family="Helvetica,sans-Serif" font-size="10.00">::SingleSurface::computeDifferenceNorm</text>
</a>
</g>
</g>
<!-- Node33&#45;&gt;Node34 -->
<g id="edge45" class="edge">
<title>Node33&#45;&gt;Node34</title>
<path fill="none" stroke="midnightblue" d="M1216.79,-142.89C1204.51,-142.73 1191.72,-142.56 1179.06,-142.4"/>
<polygon fill="midnightblue" stroke="midnightblue" points="1216.94,-146.39 1226.99,-143.03 1217.03,-139.4 1216.94,-146.39"/>
</g>
<!-- Node35 -->
<g id="node35" class="node">
<title>Node35</title>
<g id="a_node35"><a xlink:href="class_main_namespace_1_1_surface_1_1_multi_surface.html#a5e65e47cb2b222bd9a5e7cc40e1c23e1" target="_top" xlink:title="Compute the error in several ways.">
<polygon fill="white" stroke="black" points="778,-104 778,-134 919,-134 919,-104 778,-104"/>
<text text-anchor="start" x="786" y="-122" font-family="Helvetica,sans-Serif" font-size="10.00">MainNamespace::Surface</text>
<text text-anchor="middle" x="848.5" y="-111" font-family="Helvetica,sans-Serif" font-size="10.00">::MultiSurface::error</text>
</a>
</g>
</g>
<!-- Node33&#45;&gt;Node35 -->
<g id="edge46" class="edge">
<title>Node33&#45;&gt;Node35</title>
<path fill="none" stroke="midnightblue" d="M1259.14,-131.85C1235.73,-125.76 1206,-119.05 1179,-116 1089.75,-105.93 986.04,-109.34 919.18,-113.48"/>
<polygon fill="midnightblue" stroke="midnightblue" points="1258.52,-135.3 1269.09,-134.49 1260.32,-128.54 1258.52,-135.3"/>
</g>
<!-- Node35&#45;&gt;Node16 -->
<g id="edge47" class="edge">
<title>Node35&#45;&gt;Node16</title>
<path fill="none" stroke="midnightblue" d="M767.62,-106.12C665.23,-94.07 486.59,-88.58 366,-171 298.61,-217.06 271.43,-319.98 263.33,-358.79"/>
<polygon fill="midnightblue" stroke="midnightblue" points="767.23,-109.6 777.59,-107.34 768.09,-102.65 767.23,-109.6"/>
</g>
<!-- Node37 -->
<g id="node37" class="node">
<title>Node37</title>
<g id="a_node37"><a xlink:href="class_main_namespace_1_1_mesh_reader.html#ac9fe1c957a70a29b35b8118a83a3111c" target="_top" xlink:title=" ">
<polygon fill="white" stroke="black" points="1431,-52 1431,-82 1596,-82 1596,-52 1431,-52"/>
<text text-anchor="start" x="1439" y="-70" font-family="Helvetica,sans-Serif" font-size="10.00">MainNamespace::MeshReader</text>
<text text-anchor="middle" x="1513.5" y="-59" font-family="Helvetica,sans-Serif" font-size="10.00">::MeshReader</text>
</a>
</g>
</g>
<!-- Node36&#45;&gt;Node37 -->
<g id="edge49" class="edge">
<title>Node36&#45;&gt;Node37</title>
<path fill="none" stroke="midnightblue" d="M1668.77,-112.37C1658.13,-110.1 1647.21,-107.62 1637,-105 1611.01,-98.35 1582.34,-89.54 1559.28,-82.07"/>
<polygon fill="midnightblue" stroke="midnightblue" points="1668.34,-115.86 1678.85,-114.47 1669.77,-109 1668.34,-115.86"/>
</g>
<!-- Node38&#45;&gt;Node27 -->
<g id="edge51" class="edge">
<title>Node38&#45;&gt;Node27</title>
<path fill="none" stroke="midnightblue" d="M1668.37,-439.65C1657.86,-441.9 1647.08,-444.38 1637,-447 1610.43,-453.91 1581.11,-463.18 1557.82,-470.95"/>
<polygon fill="midnightblue" stroke="midnightblue" points="1669.27,-443.04 1678.34,-437.56 1667.84,-436.18 1669.27,-443.04"/>
</g>
<!-- Node39&#45;&gt;Node37 -->
<g id="edge53" class="edge">
<title>Node39&#45;&gt;Node37</title>
<path fill="none" stroke="midnightblue" d="M1641.84,-78.2C1626.73,-76.87 1611.08,-75.5 1596.15,-74.18"/>
<polygon fill="midnightblue" stroke="midnightblue" points="1641.95,-81.72 1652.21,-79.11 1642.56,-74.75 1641.95,-81.72"/>
</g>
<!-- Node40&#45;&gt;Node37 -->
<g id="edge55" class="edge">
<title>Node40&#45;&gt;Node37</title>
<path fill="none" stroke="midnightblue" d="M1647.88,-55.27C1630.99,-56.75 1613.22,-58.32 1596.35,-59.8"/>
<polygon fill="midnightblue" stroke="midnightblue" points="1648.62,-58.72 1658.27,-54.35 1648.01,-51.74 1648.62,-58.72"/>
</g>
<!-- Node41&#45;&gt;Node37 -->
<g id="edge57" class="edge">
<title>Node41&#45;&gt;Node37</title>
<path fill="none" stroke="midnightblue" d="M1668.77,-21.63C1658.13,-23.9 1647.21,-26.38 1637,-29 1611.01,-35.65 1582.34,-44.46 1559.28,-51.93"/>
<polygon fill="midnightblue" stroke="midnightblue" points="1669.77,-25 1678.85,-19.53 1668.34,-18.14 1669.77,-25"/>
</g>
<!-- Node42&#45;&gt;Node11 -->
<g id="edge59" class="edge">
<title>Node42&#45;&gt;Node11</title>
<path fill="none" stroke="midnightblue" d="M1662.73,-249.75C1653.99,-251.86 1645.22,-254.27 1637,-257 1620.21,-262.58 1617.55,-267.75 1601,-274 1591.64,-277.54 1581.56,-280.87 1571.69,-283.87"/>
<polygon fill="midnightblue" stroke="midnightblue" points="1663.6,-253.15 1672.57,-247.51 1662.04,-246.32 1663.6,-253.15"/>
</g>
<!-- Node42&#45;&gt;Node20 -->
<g id="edge60" class="edge">
<title>Node42&#45;&gt;Node20</title>
<path fill="none" stroke="midnightblue" d="M1651.81,-227.07C1629.64,-223.99 1605.68,-220.66 1584.08,-217.66"/>
<polygon fill="midnightblue" stroke="midnightblue" points="1651.47,-230.56 1661.86,-228.47 1652.44,-223.62 1651.47,-230.56"/>
</g>
<!-- Node43 -->
<g id="node43" class="node">
<title>Node43</title>
<g id="a_node43"><a xlink:href="namespace_main_namespace.html#af2de50bf4da80fb75ac77bb7bdce2f40" target="_top" xlink:title=" ">
<polygon fill="white" stroke="black" points="1426,-245.5 1426,-264.5 1601,-264.5 1601,-245.5 1426,-245.5"/>
<text text-anchor="middle" x="1513.5" y="-252.5" font-family="Helvetica,sans-Serif" font-size="10.00">MainNamespace::timeExecution</text>
</a>
</g>
</g>
<!-- Node42&#45;&gt;Node43 -->
<g id="edge61" class="edge">
<title>Node42&#45;&gt;Node43</title>
<path fill="none" stroke="midnightblue" d="M1641.29,-245.02C1628.09,-246.06 1614.5,-247.13 1601.34,-248.17"/>
<polygon fill="midnightblue" stroke="midnightblue" points="1641.6,-248.51 1651.3,-244.23 1641.05,-241.53 1641.6,-248.51"/>
</g>
<!-- Node43&#45;&gt;Node12 -->
<g id="edge63" class="edge">
<title>Node43&#45;&gt;Node12</title>
<path fill="none" stroke="midnightblue" d="M1453.71,-243.84C1393.28,-234.28 1296.74,-224.31 1215,-240 1167.76,-249.07 1116.25,-273.56 1089.84,-287.31"/>
<polygon fill="midnightblue" stroke="midnightblue" points="1453.39,-247.34 1463.83,-245.49 1454.52,-240.43 1453.39,-247.34"/>
</g>
<!-- Node43&#45;&gt;Node31 -->
<g id="edge62" class="edge">
<title>Node43&#45;&gt;Node31</title>
<path fill="none" stroke="midnightblue" d="M1447.98,-267.04C1440.48,-269.06 1433.01,-271.38 1426,-274 1389.45,-287.69 1350.42,-310.66 1326.49,-325.82"/>
<polygon fill="midnightblue" stroke="midnightblue" points="1449,-270.39 1457.83,-264.54 1447.27,-263.6 1449,-270.39"/>
</g>
<!-- Node44 -->
<g id="node44" class="node">
<title>Node44</title>
<g id="a_node44"><a xlink:href="namespace_main_namespace.html#a7fbb3fdb876e764946fb04b8330feac7" target="_top" xlink:title=" ">
<polygon fill="white" stroke="black" points="1215,-249.5 1215,-268.5 1390,-268.5 1390,-249.5 1215,-249.5"/>
<text text-anchor="middle" x="1302.5" y="-256.5" font-family="Helvetica,sans-Serif" font-size="10.00">MainNamespace::timeExecution</text>
</a>
</g>
</g>
<!-- Node43&#45;&gt;Node44 -->
<g id="edge64" class="edge">
<title>Node43&#45;&gt;Node44</title>
<path fill="none" stroke="midnightblue" d="M1415.97,-256.85C1407.41,-257.01 1398.77,-257.18 1390.29,-257.34"/>
<polygon fill="midnightblue" stroke="midnightblue" points="1416.05,-260.35 1425.98,-256.66 1415.92,-253.35 1416.05,-260.35"/>
</g>
<!-- Node45&#45;&gt;Node11 -->
<g id="edge66" class="edge">
<title>Node45&#45;&gt;Node11</title>
<path fill="none" stroke="midnightblue" d="M1642.2,-285.4C1628.33,-286.88 1614,-288.4 1600.19,-289.88"/>
<polygon fill="midnightblue" stroke="midnightblue" points="1642.64,-288.88 1652.21,-284.34 1641.9,-281.91 1642.64,-288.88"/>
</g>
<!-- Node45&#45;&gt;Node20 -->
<g id="edge67" class="edge">
<title>Node45&#45;&gt;Node20</title>
<path fill="none" stroke="midnightblue" d="M1658.94,-263.99C1651.43,-261.98 1644,-259.67 1637,-257 1619.69,-250.4 1617.91,-243.56 1601,-236 1590.34,-231.23 1578.61,-226.88 1567.33,-223.1"/>
<polygon fill="midnightblue" stroke="midnightblue" points="1658.27,-267.43 1668.82,-266.46 1659.97,-260.64 1658.27,-267.43"/>
</g>
<!-- Node45&#45;&gt;Node43 -->
<g id="edge68" class="edge">
<title>Node45&#45;&gt;Node43</title>
<path fill="none" stroke="midnightblue" d="M1642.02,-267.4C1628.57,-266.09 1614.71,-264.74 1601.29,-263.44"/>
<polygon fill="midnightblue" stroke="midnightblue" points="1641.92,-270.9 1652.21,-268.39 1642.6,-263.94 1641.92,-270.9"/>
</g>
</g>
</svg>
