<?xml version="1.0" encoding="UTF-8" standalone="no"?>
<!DOCTYPE svg PUBLIC "-//W3C//DTD SVG 1.1//EN"
 "http://www.w3.org/Graphics/SVG/1.1/DTD/svg11.dtd">
<!-- Generated by graphviz version 2.43.0 (0)
 -->
<!-- Title: MainNamespace::CFunctions::freeCPointer Pages: 1 -->
<svg width="684pt" height="39pt"
 viewBox="0.00 0.00 684.00 39.00" xmlns="http://www.w3.org/2000/svg" xmlns:xlink="http://www.w3.org/1999/xlink">
<g id="graph0" class="graph" transform="scale(1 1) rotate(0) translate(4 35)">
<title>MainNamespace::CFunctions::freeCPointer</title>
<polygon fill="white" stroke="transparent" points="-4,4 -4,-35 680,-35 680,4 -4,4"/>
<!-- Node1 -->
<g id="node1" class="node">
<title>Node1</title>
<g id="a_node1"><a xlink:title=" ">
<polygon fill="#bfbfbf" stroke="black" points="0,-0.5 0,-30.5 158,-30.5 158,-0.5 0,-0.5"/>
<text text-anchor="start" x="8" y="-18.5" font-family="Helvetica,sans-Serif" font-size="10.00">MainNamespace::CFunctions</text>
<text text-anchor="middle" x="79" y="-7.5" font-family="Helvetica,sans-Serif" font-size="10.00">::freeCPointer</text>
</a>
</g>
</g>
<!-- Node2 -->
<g id="node2" class="node">
<title>Node2</title>
<g id="a_node2"><a xlink:href="cutils_8cpp.html#a96d88138364e45ce5235b414624023b0" target="_top" xlink:title=" ">
<polygon fill="white" stroke="black" points="194,-6 194,-25 287,-25 287,-6 194,-6"/>
<text text-anchor="middle" x="240.5" y="-13" font-family="Helvetica,sans-Serif" font-size="10.00">del_diradmdata</text>
</a>
</g>
</g>
<!-- Node1&#45;&gt;Node2 -->
<g id="edge1" class="edge">
<title>Node1&#45;&gt;Node2</title>
<path fill="none" stroke="midnightblue" d="M158.35,-15.5C166.88,-15.5 175.43,-15.5 183.61,-15.5"/>
<polygon fill="midnightblue" stroke="midnightblue" points="183.75,-19 193.75,-15.5 183.75,-12 183.75,-19"/>
</g>
<!-- Node3 -->
<g id="node3" class="node">
<title>Node3</title>
<g id="a_node3"><a xlink:href="namespace_main_namespace.html#a066656219cf67ef84d18b17a7daae845" target="_top" xlink:title=" ">
<polygon fill="white" stroke="black" points="323,-6 323,-25 482,-25 482,-6 323,-6"/>
<text text-anchor="middle" x="402.5" y="-13" font-family="Helvetica,sans-Serif" font-size="10.00">MainNamespace::maybeFree</text>
</a>
</g>
</g>
<!-- Node2&#45;&gt;Node3 -->
<g id="edge2" class="edge">
<title>Node2&#45;&gt;Node3</title>
<path fill="none" stroke="midnightblue" d="M287.35,-15.5C295.31,-15.5 303.83,-15.5 312.5,-15.5"/>
<polygon fill="midnightblue" stroke="midnightblue" points="312.71,-19 322.71,-15.5 312.71,-12 312.71,-19"/>
</g>
<!-- Node4 -->
<g id="node4" class="node">
<title>Node4</title>
<g id="a_node4"><a xlink:href="namespace_main_namespace_1_1_c_functions.html#a4c174a200de18d1f8aa4f313eef7513a" target="_top" xlink:title=" ">
<polygon fill="white" stroke="black" points="518,-0.5 518,-30.5 676,-30.5 676,-0.5 518,-0.5"/>
<text text-anchor="start" x="526" y="-18.5" font-family="Helvetica,sans-Serif" font-size="10.00">MainNamespace::CFunctions</text>
<text text-anchor="middle" x="597" y="-7.5" font-family="Helvetica,sans-Serif" font-size="10.00">::freeCPointer</text>
</a>
</g>
</g>
<!-- Node3&#45;&gt;Node4 -->
<g id="edge3" class="edge">
<title>Node3&#45;&gt;Node4</title>
<path fill="none" stroke="midnightblue" d="M482.07,-15.5C490.59,-15.5 499.3,-15.5 507.92,-15.5"/>
<polygon fill="midnightblue" stroke="midnightblue" points="507.99,-19 517.99,-15.5 507.99,-12 507.99,-19"/>
</g>
</g>
</svg>
