<?xml version="1.0" encoding="UTF-8" standalone="no"?>
<!DOCTYPE svg PUBLIC "-//W3C//DTD SVG 1.1//EN"
 "http://www.w3.org/Graphics/SVG/1.1/DTD/svg11.dtd">
<!-- Generated by graphviz version 2.43.0 (0)
 -->
<!-- Title: MainNamespace::quadraturePoints Pages: 1 -->
<svg width="374pt" height="78pt"
 viewBox="0.00 0.00 374.00 77.50" xmlns="http://www.w3.org/2000/svg" xmlns:xlink="http://www.w3.org/1999/xlink">
<g id="graph0" class="graph" transform="scale(1 1) rotate(0) translate(4 73.5)">
<title>MainNamespace::quadraturePoints</title>
<polygon fill="white" stroke="transparent" points="-4,4 -4,-73.5 370,-73.5 370,4 -4,4"/>
<!-- Node1 -->
<g id="node1" class="node">
<title>Node1</title>
<g id="a_node1"><a xlink:title=" ">
<polygon fill="#bfbfbf" stroke="black" points="0,-22.5 0,-52.5 158,-52.5 158,-22.5 0,-22.5"/>
<text text-anchor="start" x="8" y="-40.5" font-family="Helvetica,sans-Serif" font-size="10.00">MainNamespace::quadrature</text>
<text text-anchor="middle" x="79" y="-29.5" font-family="Helvetica,sans-Serif" font-size="10.00">Points</text>
</a>
</g>
</g>
<!-- Node2 -->
<g id="node2" class="node">
<title>Node2</title>
<g id="a_node2"><a xlink:href="namespace_main_namespace.html#a6fd76e14adc7d23a9822334cb389b369" target="_top" xlink:title=" ">
<polygon fill="white" stroke="black" points="194,-50 194,-69 366,-69 366,-50 194,-50"/>
<text text-anchor="middle" x="280" y="-57" font-family="Helvetica,sans-Serif" font-size="10.00">MainNamespace::globalOptions</text>
</a>
</g>
</g>
<!-- Node1&#45;&gt;Node2 -->
<g id="edge1" class="edge">
<title>Node1&#45;&gt;Node2</title>
<path fill="none" stroke="midnightblue" d="M158.08,-46.13C166.53,-47.07 175.2,-48.02 183.83,-48.98"/>
<polygon fill="midnightblue" stroke="midnightblue" points="183.59,-52.47 193.92,-50.09 184.36,-45.52 183.59,-52.47"/>
</g>
<!-- Node3 -->
<g id="node3" class="node">
<title>Node3</title>
<g id="a_node3"><a xlink:href="struct_main_namespace_1_1_options.html#a13e08a72c9531b3e5ba442ca4e0a7377" target="_top" xlink:title=" ">
<polygon fill="white" stroke="black" points="209,-0.5 209,-30.5 351,-30.5 351,-0.5 209,-0.5"/>
<text text-anchor="start" x="217" y="-18.5" font-family="Helvetica,sans-Serif" font-size="10.00">MainNamespace::Options</text>
<text text-anchor="middle" x="280" y="-7.5" font-family="Helvetica,sans-Serif" font-size="10.00">::quadraturePoints</text>
</a>
</g>
</g>
<!-- Node1&#45;&gt;Node3 -->
<g id="edge2" class="edge">
<title>Node1&#45;&gt;Node3</title>
<path fill="none" stroke="midnightblue" d="M158.08,-28.87C171.44,-27.39 185.35,-25.85 198.76,-24.37"/>
<polygon fill="midnightblue" stroke="midnightblue" points="199.36,-27.83 208.91,-23.25 198.59,-20.87 199.36,-27.83"/>
</g>
</g>
</svg>
