<?xml version="1.0" encoding="UTF-8" standalone="no"?>
<!DOCTYPE svg PUBLIC "-//W3C//DTD SVG 1.1//EN"
 "http://www.w3.org/Graphics/SVG/1.1/DTD/svg11.dtd">
<!-- Generated by graphviz version 2.43.0 (0)
 -->
<!-- Title: MainNamespace::CFunctions::freeCPointer Pages: 1 -->
<svg width="1931pt" height="438pt"
 viewBox="0.00 0.00 1931.00 438.00" xmlns="http://www.w3.org/2000/svg" xmlns:xlink="http://www.w3.org/1999/xlink">
<g id="graph0" class="graph" transform="scale(1 1) rotate(0) translate(4 434)">
<title>MainNamespace::CFunctions::freeCPointer</title>
<polygon fill="white" stroke="transparent" points="-4,4 -4,-434 1927,-434 1927,4 -4,4"/>
<!-- Node1 -->
<g id="node1" class="node">
<title>Node1</title>
<g id="a_node1"><a xlink:title=" ">
<polygon fill="#bfbfbf" stroke="black" points="1765,-93.5 1765,-123.5 1923,-123.5 1923,-93.5 1765,-93.5"/>
<text text-anchor="start" x="1773" y="-111.5" font-family="Helvetica,sans-Serif" font-size="10.00">MainNamespace::CFunctions</text>
<text text-anchor="middle" x="1844" y="-100.5" font-family="Helvetica,sans-Serif" font-size="10.00">::freeCPointer</text>
</a>
</g>
</g>
<!-- Node2 -->
<g id="node2" class="node">
<title>Node2</title>
<g id="a_node2"><a xlink:href="namespace_main_namespace.html#a066656219cf67ef84d18b17a7daae845" target="_top" xlink:title=" ">
<polygon fill="white" stroke="black" points="1570,-214 1570,-233 1729,-233 1729,-214 1570,-214"/>
<text text-anchor="middle" x="1649.5" y="-221" font-family="Helvetica,sans-Serif" font-size="10.00">MainNamespace::maybeFree</text>
</a>
</g>
</g>
<!-- Node1&#45;&gt;Node2 -->
<g id="edge1" class="edge">
<title>Node1&#45;&gt;Node2</title>
<path fill="none" stroke="midnightblue" d="M1809.08,-128.76C1767.16,-153.81 1697.56,-195.39 1666.41,-213.99"/>
<polygon fill="midnightblue" stroke="midnightblue" points="1811.04,-131.67 1817.83,-123.53 1807.45,-125.66 1811.04,-131.67"/>
</g>
<!-- Node24 -->
<g id="node24" class="node">
<title>Node24</title>
<g id="a_node24"><a xlink:href="class_main_namespace_1_1_surface_1_1_single_surface.html#ae5d17671333d624db60d56cf43ffc6c5" target="_top" xlink:title="Setup cluster trees.">
<polygon fill="white" stroke="black" points="1571,-71.5 1571,-101.5 1728,-101.5 1728,-71.5 1571,-71.5"/>
<text text-anchor="start" x="1579" y="-89.5" font-family="Helvetica,sans-Serif" font-size="10.00">MainNamespace::Surface</text>
<text text-anchor="middle" x="1649.5" y="-78.5" font-family="Helvetica,sans-Serif" font-size="10.00">::SingleSurface::setupCluster</text>
</a>
</g>
</g>
<!-- Node1&#45;&gt;Node24 -->
<g id="edge24" class="edge">
<title>Node1&#45;&gt;Node24</title>
<path fill="none" stroke="midnightblue" d="M1754.9,-98.43C1745.93,-97.41 1736.86,-96.37 1728.01,-95.36"/>
<polygon fill="midnightblue" stroke="midnightblue" points="1754.65,-101.93 1764.98,-99.58 1755.44,-94.97 1754.65,-101.93"/>
</g>
<!-- Node3 -->
<g id="node3" class="node">
<title>Node3</title>
<g id="a_node3"><a xlink:href="class_main_namespace_1_1_boerm_timer.html#aff0d16069d4aef7a94949fd613bc3f92" target="_top" xlink:title=" ">
<polygon fill="white" stroke="black" points="1368,-306.5 1368,-336.5 1532,-336.5 1532,-306.5 1368,-306.5"/>
<text text-anchor="start" x="1376" y="-324.5" font-family="Helvetica,sans-Serif" font-size="10.00">MainNamespace::BoermTimer</text>
<text text-anchor="middle" x="1450" y="-313.5" font-family="Helvetica,sans-Serif" font-size="10.00">::~BoermTimer</text>
</a>
</g>
</g>
<!-- Node2&#45;&gt;Node3 -->
<g id="edge2" class="edge">
<title>Node2&#45;&gt;Node3</title>
<path fill="none" stroke="midnightblue" d="M1628.18,-239.27C1606.07,-255.77 1569.17,-281.47 1534,-297.5 1526.77,-300.8 1518.97,-303.76 1511.15,-306.38"/>
<polygon fill="midnightblue" stroke="midnightblue" points="1630.3,-242.05 1636.16,-233.23 1626.07,-236.47 1630.3,-242.05"/>
</g>
<!-- Node4 -->
<g id="node4" class="node">
<title>Node4</title>
<g id="a_node4"><a xlink:href="class_main_namespace_1_1_dumb_pointer.html#a17cb0fe28ed20fcd69eabd5f6812d235" target="_top" xlink:title=" ">
<polygon fill="white" stroke="black" points="1366,-257.5 1366,-287.5 1534,-287.5 1534,-257.5 1366,-257.5"/>
<text text-anchor="start" x="1374" y="-275.5" font-family="Helvetica,sans-Serif" font-size="10.00">MainNamespace::DumbPointer</text>
<text text-anchor="middle" x="1450" y="-264.5" font-family="Helvetica,sans-Serif" font-size="10.00">::~DumbPointer</text>
</a>
</g>
</g>
<!-- Node2&#45;&gt;Node4 -->
<g id="edge3" class="edge">
<title>Node2&#45;&gt;Node4</title>
<path fill="none" stroke="midnightblue" d="M1600.08,-235.51C1573.39,-242.14 1540.01,-250.42 1511.61,-257.46"/>
<polygon fill="midnightblue" stroke="midnightblue" points="1601.09,-238.87 1609.95,-233.06 1599.4,-232.08 1601.09,-238.87"/>
</g>
<!-- Node5 -->
<g id="node5" class="node">
<title>Node5</title>
<g id="a_node5"><a xlink:href="class_main_namespace_1_1_surface_1_1_multi_surface.html#a7d510c455d42a31546e94a1711c4e7d4" target="_top" xlink:title="Destructor.">
<polygon fill="white" stroke="black" points="1370,-208.5 1370,-238.5 1530,-238.5 1530,-208.5 1370,-208.5"/>
<text text-anchor="start" x="1378" y="-226.5" font-family="Helvetica,sans-Serif" font-size="10.00">MainNamespace::Surface</text>
<text text-anchor="middle" x="1450" y="-215.5" font-family="Helvetica,sans-Serif" font-size="10.00">::MultiSurface::~MultiSurface</text>
</a>
</g>
</g>
<!-- Node2&#45;&gt;Node5 -->
<g id="edge4" class="edge">
<title>Node2&#45;&gt;Node5</title>
<path fill="none" stroke="midnightblue" d="M1559.73,-223.5C1549.93,-223.5 1540,-223.5 1530.32,-223.5"/>
<polygon fill="midnightblue" stroke="midnightblue" points="1559.88,-227 1569.88,-223.5 1559.88,-220 1559.88,-227"/>
</g>
<!-- Node6 -->
<g id="node6" class="node">
<title>Node6</title>
<g id="a_node6"><a xlink:href="struct_main_namespace_1_1_options.html#a1ef6bad7a167ef792ae408aeb047c8cb" target="_top" xlink:title=" ">
<polygon fill="white" stroke="black" points="1379,-159.5 1379,-189.5 1521,-189.5 1521,-159.5 1379,-159.5"/>
<text text-anchor="start" x="1387" y="-177.5" font-family="Helvetica,sans-Serif" font-size="10.00">MainNamespace::Options</text>
<text text-anchor="middle" x="1450" y="-166.5" font-family="Helvetica,sans-Serif" font-size="10.00">::~Options</text>
</a>
</g>
</g>
<!-- Node2&#45;&gt;Node6 -->
<g id="edge5" class="edge">
<title>Node2&#45;&gt;Node6</title>
<path fill="none" stroke="midnightblue" d="M1600.08,-211.49C1573.39,-204.86 1540.01,-196.58 1511.61,-189.54"/>
<polygon fill="midnightblue" stroke="midnightblue" points="1599.4,-214.92 1609.95,-213.94 1601.09,-208.13 1599.4,-214.92"/>
</g>
<!-- Node7 -->
<g id="node7" class="node">
<title>Node7</title>
<g id="a_node7"><a xlink:href="class_main_namespace_1_1_pointer_array.html#a175a61f734d79674a95934692d4891b8" target="_top" xlink:title=" ">
<polygon fill="white" stroke="black" points="1367.5,-110.5 1367.5,-140.5 1532.5,-140.5 1532.5,-110.5 1367.5,-110.5"/>
<text text-anchor="start" x="1375.5" y="-128.5" font-family="Helvetica,sans-Serif" font-size="10.00">MainNamespace::PointerArray</text>
<text text-anchor="middle" x="1450" y="-117.5" font-family="Helvetica,sans-Serif" font-size="10.00">::clear</text>
</a>
</g>
</g>
<!-- Node2&#45;&gt;Node7 -->
<g id="edge6" class="edge">
<title>Node2&#45;&gt;Node7</title>
<path fill="none" stroke="midnightblue" d="M1628.18,-207.73C1606.07,-191.23 1569.17,-165.53 1534,-149.5 1526.77,-146.2 1518.97,-143.24 1511.15,-140.62"/>
<polygon fill="midnightblue" stroke="midnightblue" points="1626.07,-210.53 1636.16,-213.77 1630.3,-204.95 1626.07,-210.53"/>
</g>
<!-- Node9 -->
<g id="node9" class="node">
<title>Node9</title>
<g id="a_node9"><a xlink:href="namespace_main_namespace.html#ad6c9cb208aad8941d4a3efa626110c5b" target="_top" xlink:title=" ">
<polygon fill="white" stroke="black" points="1386,-72 1386,-91 1514,-91 1514,-72 1386,-72"/>
<text text-anchor="middle" x="1450" y="-79" font-family="Helvetica,sans-Serif" font-size="10.00">MainNamespace::copy</text>
</a>
</g>
</g>
<!-- Node2&#45;&gt;Node9 -->
<g id="edge8" class="edge">
<title>Node2&#45;&gt;Node9</title>
<path fill="none" stroke="midnightblue" d="M1636.73,-205.07C1618.29,-177.77 1579.89,-126.97 1534,-100.5 1527.21,-96.59 1519.68,-93.48 1512,-91.01"/>
<polygon fill="midnightblue" stroke="midnightblue" points="1633.98,-207.25 1642.41,-213.67 1639.82,-203.4 1633.98,-207.25"/>
</g>
<!-- Node21 -->
<g id="node21" class="node">
<title>Node21</title>
<g id="a_node21"><a xlink:href="cutils_8cpp.html#a96d88138364e45ce5235b414624023b0" target="_top" xlink:title=" ">
<polygon fill="white" stroke="black" points="1403.5,-405 1403.5,-424 1496.5,-424 1496.5,-405 1403.5,-405"/>
<text text-anchor="middle" x="1450" y="-412" font-family="Helvetica,sans-Serif" font-size="10.00">del_diradmdata</text>
</a>
</g>
</g>
<!-- Node2&#45;&gt;Node21 -->
<g id="edge21" class="edge">
<title>Node2&#45;&gt;Node21</title>
<path fill="none" stroke="midnightblue" d="M1641.45,-242.5C1627.1,-278.42 1590.96,-356.17 1534,-395.5 1523.05,-403.06 1509.54,-407.65 1496.63,-410.43"/>
<polygon fill="midnightblue" stroke="midnightblue" points="1644.72,-243.76 1645.06,-233.17 1638.19,-241.23 1644.72,-243.76"/>
</g>
<!-- Node23 -->
<g id="node23" class="node">
<title>Node23</title>
<g id="a_node23"><a xlink:href="class_main_namespace_1_1_dumb_pointer.html#a88f5f60fc72578eb6a8a64c011c58162" target="_top" xlink:title=" ">
<polygon fill="white" stroke="black" points="1366,-355.5 1366,-385.5 1534,-385.5 1534,-355.5 1366,-355.5"/>
<text text-anchor="start" x="1374" y="-373.5" font-family="Helvetica,sans-Serif" font-size="10.00">MainNamespace::DumbPointer</text>
<text text-anchor="middle" x="1450" y="-362.5" font-family="Helvetica,sans-Serif" font-size="10.00">::operator=</text>
</a>
</g>
</g>
<!-- Node2&#45;&gt;Node23 -->
<g id="edge23" class="edge">
<title>Node2&#45;&gt;Node23</title>
<path fill="none" stroke="midnightblue" d="M1636.54,-241.6C1617.85,-268.48 1579.13,-318.75 1534,-346.5 1528.38,-349.96 1522.24,-352.93 1515.92,-355.5"/>
<polygon fill="midnightblue" stroke="midnightblue" points="1639.56,-243.38 1642.3,-233.14 1633.78,-239.44 1639.56,-243.38"/>
</g>
<!-- Node8 -->
<g id="node8" class="node">
<title>Node8</title>
<g id="a_node8"><a xlink:href="class_main_namespace_1_1_pointer_array.html#ac02d3aa39cd1a64c4f7ab7a46244db53" target="_top" xlink:title=" ">
<polygon fill="white" stroke="black" points="1157,-148.5 1157,-178.5 1322,-178.5 1322,-148.5 1157,-148.5"/>
<text text-anchor="start" x="1165" y="-166.5" font-family="Helvetica,sans-Serif" font-size="10.00">MainNamespace::PointerArray</text>
<text text-anchor="middle" x="1239.5" y="-155.5" font-family="Helvetica,sans-Serif" font-size="10.00">::~PointerArray</text>
</a>
</g>
</g>
<!-- Node7&#45;&gt;Node8 -->
<g id="edge7" class="edge">
<title>Node7&#45;&gt;Node8</title>
<path fill="none" stroke="midnightblue" d="M1357.32,-142.21C1345.66,-144.33 1333.78,-146.5 1322.29,-148.59"/>
<polygon fill="midnightblue" stroke="midnightblue" points="1358.28,-145.59 1367.49,-140.36 1357.03,-138.7 1358.28,-145.59"/>
</g>
<!-- Node10 -->
<g id="node10" class="node">
<title>Node10</title>
<g id="a_node10"><a xlink:href="namespace_main_namespace_1_1_surface.html#ae2df9c52faa0d299f2d4241ff436ca77" target="_top" xlink:title=" ">
<polygon fill="white" stroke="black" points="1169,-22.5 1169,-52.5 1310,-52.5 1310,-22.5 1169,-22.5"/>
<text text-anchor="start" x="1177" y="-40.5" font-family="Helvetica,sans-Serif" font-size="10.00">MainNamespace::Surface</text>
<text text-anchor="middle" x="1239.5" y="-29.5" font-family="Helvetica,sans-Serif" font-size="10.00">::copySurface</text>
</a>
</g>
</g>
<!-- Node9&#45;&gt;Node10 -->
<g id="edge9" class="edge">
<title>Node9&#45;&gt;Node10</title>
<path fill="none" stroke="midnightblue" d="M1393.85,-69.86C1368.23,-64.45 1337.48,-57.97 1310.26,-52.22"/>
<polygon fill="midnightblue" stroke="midnightblue" points="1393.25,-73.31 1403.76,-71.95 1394.7,-66.46 1393.25,-73.31"/>
</g>
<!-- Node11 -->
<g id="node11" class="node">
<title>Node11</title>
<g id="a_node11"><a xlink:href="namespace_main_namespace_1_1_surface.html#a91ad285a7a25853007779d157350ae2d" target="_top" xlink:title="Reorient all needed triangles by swapping two vertices.">
<polygon fill="white" stroke="black" points="957,-22.5 957,-52.5 1098,-52.5 1098,-22.5 957,-22.5"/>
<text text-anchor="start" x="965" y="-40.5" font-family="Helvetica,sans-Serif" font-size="10.00">MainNamespace::Surface</text>
<text text-anchor="middle" x="1027.5" y="-29.5" font-family="Helvetica,sans-Serif" font-size="10.00">::orientCopy</text>
</a>
</g>
</g>
<!-- Node9&#45;&gt;Node11 -->
<g id="edge20" class="edge">
<title>Node9&#45;&gt;Node11</title>
<path fill="none" stroke="midnightblue" d="M1375.56,-79.27C1314.66,-76.78 1225.92,-71.68 1149,-61.5 1131.66,-59.21 1113.06,-55.92 1095.8,-52.51"/>
<polygon fill="midnightblue" stroke="midnightblue" points="1375.72,-82.78 1385.85,-79.68 1375.99,-75.78 1375.72,-82.78"/>
</g>
<!-- Node13 -->
<g id="node13" class="node">
<title>Node13</title>
<g id="a_node13"><a xlink:href="namespace_main_namespace.html#a595f92c9feef4f77b05ba85969525fe1" target="_top" xlink:title=" ">
<polygon fill="white" stroke="black" points="1149,-110 1149,-129 1330,-129 1330,-110 1149,-110"/>
<text text-anchor="middle" x="1239.5" y="-117" font-family="Helvetica,sans-Serif" font-size="10.00">MainNamespace::makeDirections</text>
</a>
</g>
</g>
<!-- Node9&#45;&gt;Node13 -->
<g id="edge12" class="edge">
<title>Node9&#45;&gt;Node13</title>
<path fill="none" stroke="midnightblue" d="M1386.74,-92.85C1356.83,-98.3 1321.37,-104.76 1292.87,-109.96"/>
<polygon fill="midnightblue" stroke="midnightblue" points="1387.45,-96.28 1396.66,-91.04 1386.19,-89.39 1387.45,-96.28"/>
</g>
<!-- Node10&#45;&gt;Node11 -->
<g id="edge10" class="edge">
<title>Node10&#45;&gt;Node11</title>
<path fill="none" stroke="midnightblue" d="M1158.61,-37.5C1138.76,-37.5 1117.63,-37.5 1098.31,-37.5"/>
<polygon fill="midnightblue" stroke="midnightblue" points="1158.86,-41 1168.86,-37.5 1158.86,-34 1158.86,-41"/>
</g>
<!-- Node12 -->
<g id="node12" class="node">
<title>Node12</title>
<g id="a_node12"><a xlink:href="class_main_namespace_1_1_surface_1_1_single_surface.html#a2cb253a6c5cc5d0c66ead47e5db3233b" target="_top" xlink:title="Construct an object to manage data associated to a closed boundary.">
<polygon fill="white" stroke="black" points="744,-0.5 744,-30.5 906,-30.5 906,-0.5 744,-0.5"/>
<text text-anchor="start" x="752" y="-18.5" font-family="Helvetica,sans-Serif" font-size="10.00">MainNamespace::Surface</text>
<text text-anchor="middle" x="825" y="-7.5" font-family="Helvetica,sans-Serif" font-size="10.00">::SingleSurface::SingleSurface</text>
</a>
</g>
</g>
<!-- Node11&#45;&gt;Node12 -->
<g id="edge11" class="edge">
<title>Node11&#45;&gt;Node12</title>
<path fill="none" stroke="midnightblue" d="M946.81,-28.76C933.41,-27.29 919.51,-25.76 906.1,-24.29"/>
<polygon fill="midnightblue" stroke="midnightblue" points="946.62,-32.26 956.94,-29.87 947.38,-25.3 946.62,-32.26"/>
</g>
<!-- Node14 -->
<g id="node14" class="node">
<title>Node14</title>
<g id="a_node14"><a xlink:href="namespace_main_namespace.html#aaa553a0feb6a9e785dce2ea7c2f25481" target="_top" xlink:title="Build a dh2matrix for the operator described by bemDescription, using the given clusters.">
<polygon fill="white" stroke="black" points="942,-110 942,-129 1113,-129 1113,-110 942,-110"/>
<text text-anchor="middle" x="1027.5" y="-117" font-family="Helvetica,sans-Serif" font-size="10.00">MainNamespace::buildOperator</text>
</a>
</g>
</g>
<!-- Node13&#45;&gt;Node14 -->
<g id="edge13" class="edge">
<title>Node13&#45;&gt;Node14</title>
<path fill="none" stroke="midnightblue" d="M1138.81,-119.5C1130.25,-119.5 1121.63,-119.5 1113.2,-119.5"/>
<polygon fill="midnightblue" stroke="midnightblue" points="1138.83,-123 1148.83,-119.5 1138.83,-116 1138.83,-123"/>
</g>
<!-- Node15 -->
<g id="node15" class="node">
<title>Node15</title>
<g id="a_node15"><a xlink:href="class_main_namespace_1_1_d_h2_matrix_wrapper.html#a8b3117680075ec79bc0500f3e901b133" target="_top" xlink:title="Take ownership of, the pointer to the bem description and build the matrix and all needed data struct...">
<polygon fill="white" stroke="black" points="746.5,-104.5 746.5,-134.5 903.5,-134.5 903.5,-104.5 746.5,-104.5"/>
<text text-anchor="start" x="754.5" y="-122.5" font-family="Helvetica,sans-Serif" font-size="10.00">MainNamespace::DH2Matrix</text>
<text text-anchor="middle" x="825" y="-111.5" font-family="Helvetica,sans-Serif" font-size="10.00">Wrapper::build</text>
</a>
</g>
</g>
<!-- Node14&#45;&gt;Node15 -->
<g id="edge14" class="edge">
<title>Node14&#45;&gt;Node15</title>
<path fill="none" stroke="midnightblue" d="M931.66,-119.5C922.31,-119.5 912.89,-119.5 903.74,-119.5"/>
<polygon fill="midnightblue" stroke="midnightblue" points="931.76,-123 941.76,-119.5 931.76,-116 931.76,-123"/>
</g>
<!-- Node16 -->
<g id="node16" class="node">
<title>Node16</title>
<g id="a_node16"><a xlink:href="namespace_main_namespace_1_1_surface.html#a7e821744eeb79cb1faa8468d53cb7c1e" target="_top" xlink:title=" ">
<polygon fill="white" stroke="black" points="567,-104.5 567,-134.5 708,-134.5 708,-104.5 567,-104.5"/>
<text text-anchor="start" x="575" y="-122.5" font-family="Helvetica,sans-Serif" font-size="10.00">MainNamespace::Surface</text>
<text text-anchor="middle" x="637.5" y="-111.5" font-family="Helvetica,sans-Serif" font-size="10.00">::makeTmpApply</text>
</a>
</g>
</g>
<!-- Node15&#45;&gt;Node16 -->
<g id="edge15" class="edge">
<title>Node15&#45;&gt;Node16</title>
<path fill="none" stroke="midnightblue" d="M736.22,-119.5C726.78,-119.5 717.28,-119.5 708.1,-119.5"/>
<polygon fill="midnightblue" stroke="midnightblue" points="736.41,-123 746.41,-119.5 736.41,-116 736.41,-123"/>
</g>
<!-- Node17 -->
<g id="node17" class="node">
<title>Node17</title>
<g id="a_node17"><a xlink:href="class_main_namespace_1_1_surface_1_1_single_surface.html#a3321422c36eccd213cfc48823a9f54d7" target="_top" xlink:title="Project the offset on the current mesh, then use it to compute the right&#45;hand side.">
<polygon fill="white" stroke="black" points="366,-104.5 366,-134.5 531,-134.5 531,-104.5 366,-104.5"/>
<text text-anchor="start" x="374" y="-122.5" font-family="Helvetica,sans-Serif" font-size="10.00">MainNamespace::Surface</text>
<text text-anchor="middle" x="448.5" y="-111.5" font-family="Helvetica,sans-Serif" font-size="10.00">::SingleSurface::makeMultiRhs</text>
</a>
</g>
</g>
<!-- Node16&#45;&gt;Node17 -->
<g id="edge16" class="edge">
<title>Node16&#45;&gt;Node17</title>
<path fill="none" stroke="midnightblue" d="M556.67,-119.5C548.23,-119.5 539.64,-119.5 531.18,-119.5"/>
<polygon fill="midnightblue" stroke="midnightblue" points="556.87,-123 566.87,-119.5 556.87,-116 556.87,-123"/>
</g>
<!-- Node18 -->
<g id="node18" class="node">
<title>Node18</title>
<g id="a_node18"><a xlink:href="class_main_namespace_1_1_surface_1_1_multi_surface.html#a8839f7e49575079e39fbb95a692772a5" target="_top" xlink:title="Compute the right&#45;hand side, the operators, then solve the linear system.">
<polygon fill="white" stroke="black" points="189,-104.5 189,-134.5 330,-134.5 330,-104.5 189,-104.5"/>
<text text-anchor="start" x="197" y="-122.5" font-family="Helvetica,sans-Serif" font-size="10.00">MainNamespace::Surface</text>
<text text-anchor="middle" x="259.5" y="-111.5" font-family="Helvetica,sans-Serif" font-size="10.00">::MultiSurface::solve</text>
</a>
</g>
</g>
<!-- Node17&#45;&gt;Node18 -->
<g id="edge17" class="edge">
<title>Node17&#45;&gt;Node18</title>
<path fill="none" stroke="midnightblue" d="M355.67,-119.5C347.07,-119.5 338.44,-119.5 330.09,-119.5"/>
<polygon fill="midnightblue" stroke="midnightblue" points="355.75,-123 365.75,-119.5 355.75,-116 355.75,-123"/>
</g>
<!-- Node19 -->
<g id="node19" class="node">
<title>Node19</title>
<g id="a_node19"><a xlink:href="main_8cpp.html#a5d68713f22d1b3e2495b15d107ea7d21" target="_top" xlink:title=" ">
<polygon fill="white" stroke="black" points="77,-110 77,-129 153,-129 153,-110 77,-110"/>
<text text-anchor="middle" x="115" y="-117" font-family="Helvetica,sans-Serif" font-size="10.00">testProblem</text>
</a>
</g>
</g>
<!-- Node18&#45;&gt;Node19 -->
<g id="edge18" class="edge">
<title>Node18&#45;&gt;Node19</title>
<path fill="none" stroke="midnightblue" d="M178.85,-119.5C169.97,-119.5 161.27,-119.5 153.31,-119.5"/>
<polygon fill="midnightblue" stroke="midnightblue" points="178.92,-123 188.92,-119.5 178.92,-116 178.92,-123"/>
</g>
<!-- Node20 -->
<g id="node20" class="node">
<title>Node20</title>
<g id="a_node20"><a xlink:href="main_8cpp.html#a3c04138a5bfe5d72780bb7e82a18e627" target="_top" xlink:title=" ">
<polygon fill="white" stroke="black" points="0,-110 0,-129 41,-129 41,-110 0,-110"/>
<text text-anchor="middle" x="20.5" y="-117" font-family="Helvetica,sans-Serif" font-size="10.00">main</text>
</a>
</g>
</g>
<!-- Node19&#45;&gt;Node20 -->
<g id="edge19" class="edge">
<title>Node19&#45;&gt;Node20</title>
<path fill="none" stroke="midnightblue" d="M66.72,-119.5C57.65,-119.5 48.64,-119.5 41.07,-119.5"/>
<polygon fill="midnightblue" stroke="midnightblue" points="66.91,-123 76.91,-119.5 66.91,-116 66.91,-123"/>
</g>
<!-- Node22 -->
<g id="node22" class="node">
<title>Node22</title>
<g id="a_node22"><a xlink:href="namespace_main_namespace_1_1_c_functions.html#a0c64d68d65a71b58e87f5b178ca5780a" target="_top" xlink:title=" ">
<polygon fill="white" stroke="black" points="1160.5,-399.5 1160.5,-429.5 1318.5,-429.5 1318.5,-399.5 1160.5,-399.5"/>
<text text-anchor="start" x="1168.5" y="-417.5" font-family="Helvetica,sans-Serif" font-size="10.00">MainNamespace::CFunctions</text>
<text text-anchor="middle" x="1239.5" y="-406.5" font-family="Helvetica,sans-Serif" font-size="10.00">::freeCPointer</text>
</a>
</g>
</g>
<!-- Node21&#45;&gt;Node22 -->
<g id="edge22" class="edge">
<title>Node21&#45;&gt;Node22</title>
<path fill="none" stroke="midnightblue" d="M1393.03,-414.5C1370.15,-414.5 1343.29,-414.5 1318.53,-414.5"/>
<polygon fill="midnightblue" stroke="midnightblue" points="1393.24,-418 1403.24,-414.5 1393.24,-411 1393.24,-418"/>
</g>
<!-- Node24&#45;&gt;Node12 -->
<g id="edge25" class="edge">
<title>Node24&#45;&gt;Node12</title>
<path fill="none" stroke="midnightblue" d="M1589.92,-68.64C1526.56,-50.33 1422.21,-23.07 1330,-12.5 1158.68,7.14 1114.43,-10.27 942,-12.5 930.42,-12.65 918.19,-12.88 906.18,-13.16"/>
<polygon fill="midnightblue" stroke="midnightblue" points="1589.15,-72.06 1599.73,-71.5 1591.11,-65.34 1589.15,-72.06"/>
</g>
</g>
</svg>
