<?xml version="1.0" encoding="UTF-8" standalone="no"?>
<!DOCTYPE svg PUBLIC "-//W3C//DTD SVG 1.1//EN"
 "http://www.w3.org/Graphics/SVG/1.1/DTD/svg11.dtd">
<!-- Generated by graphviz version 2.43.0 (0)
 -->
<!-- Title: MainNamespace::timeExecution Pages: 1 -->
<svg width="741pt" height="127pt"
 viewBox="0.00 0.00 741.00 127.00" xmlns="http://www.w3.org/2000/svg" xmlns:xlink="http://www.w3.org/1999/xlink">
<g id="graph0" class="graph" transform="scale(1 1) rotate(0) translate(4 123)">
<title>MainNamespace::timeExecution</title>
<polygon fill="white" stroke="transparent" points="-4,4 -4,-123 737,-123 737,4 -4,4"/>
<!-- Node1 -->
<g id="node1" class="node">
<title>Node1</title>
<g id="a_node1"><a xlink:title=" ">
<polygon fill="#bfbfbf" stroke="black" points="0,-50 0,-69 175,-69 175,-50 0,-50"/>
<text text-anchor="middle" x="87.5" y="-57" font-family="Helvetica,sans-Serif" font-size="10.00">MainNamespace::timeExecution</text>
</a>
</g>
</g>
<!-- Node2 -->
<g id="node2" class="node">
<title>Node2</title>
<g id="a_node2"><a xlink:href="namespace_main_namespace.html#a29e3c10e67bcebfcf74b31964747e0d8" target="_top" xlink:title=" ">
<polygon fill="white" stroke="black" points="211,-69 211,-88 371,-88 371,-69 211,-69"/>
<text text-anchor="middle" x="291" y="-76" font-family="Helvetica,sans-Serif" font-size="10.00">MainNamespace::startTiming</text>
</a>
</g>
</g>
<!-- Node1&#45;&gt;Node2 -->
<g id="edge1" class="edge">
<title>Node1&#45;&gt;Node2</title>
<path fill="none" stroke="midnightblue" d="M175.12,-67.67C183.54,-68.46 192.09,-69.27 200.54,-70.06"/>
<polygon fill="midnightblue" stroke="midnightblue" points="200.48,-73.57 210.77,-71.03 201.14,-66.61 200.48,-73.57"/>
</g>
<!-- Node5 -->
<g id="node5" class="node">
<title>Node5</title>
<g id="a_node5"><a xlink:href="namespace_main_namespace.html#a03589b500835850f32276c9983678dc8" target="_top" xlink:title=" ">
<polygon fill="white" stroke="black" points="212,-31 212,-50 370,-50 370,-31 212,-31"/>
<text text-anchor="middle" x="291" y="-38" font-family="Helvetica,sans-Serif" font-size="10.00">MainNamespace::stopTiming</text>
</a>
</g>
</g>
<!-- Node1&#45;&gt;Node5 -->
<g id="edge4" class="edge">
<title>Node1&#45;&gt;Node5</title>
<path fill="none" stroke="midnightblue" d="M175.12,-51.33C183.86,-50.51 192.75,-49.67 201.51,-48.84"/>
<polygon fill="midnightblue" stroke="midnightblue" points="202.09,-52.3 211.72,-47.88 201.43,-45.34 202.09,-52.3"/>
</g>
<!-- Node3 -->
<g id="node3" class="node">
<title>Node3</title>
<g id="a_node3"><a xlink:href="namespace_main_namespace.html#a6fd76e14adc7d23a9822334cb389b369" target="_top" xlink:title=" ">
<polygon fill="white" stroke="black" points="407,-50 407,-69 579,-69 579,-50 407,-50"/>
<text text-anchor="middle" x="493" y="-57" font-family="Helvetica,sans-Serif" font-size="10.00">MainNamespace::globalOptions</text>
</a>
</g>
</g>
<!-- Node2&#45;&gt;Node3 -->
<g id="edge2" class="edge">
<title>Node2&#45;&gt;Node3</title>
<path fill="none" stroke="midnightblue" d="M371.05,-70.99C379.52,-70.19 388.21,-69.36 396.84,-68.54"/>
<polygon fill="midnightblue" stroke="midnightblue" points="397.32,-72.01 406.95,-67.58 396.66,-65.04 397.32,-72.01"/>
</g>
<!-- Node4 -->
<g id="node4" class="node">
<title>Node4</title>
<g id="a_node4"><a xlink:href="class_main_namespace_1_1_clocks.html#a0a4ef648fba7c4c6765db19c6a4a6c46" target="_top" xlink:title=" ">
<polygon fill="white" stroke="black" points="424.5,-88.5 424.5,-118.5 561.5,-118.5 561.5,-88.5 424.5,-88.5"/>
<text text-anchor="start" x="432.5" y="-106.5" font-family="Helvetica,sans-Serif" font-size="10.00">MainNamespace::Clocks</text>
<text text-anchor="middle" x="493" y="-95.5" font-family="Helvetica,sans-Serif" font-size="10.00">::start</text>
</a>
</g>
</g>
<!-- Node2&#45;&gt;Node4 -->
<g id="edge3" class="edge">
<title>Node2&#45;&gt;Node4</title>
<path fill="none" stroke="midnightblue" d="M368.18,-88.02C383.16,-89.9 398.9,-91.86 413.94,-93.74"/>
<polygon fill="midnightblue" stroke="midnightblue" points="413.86,-97.26 424.22,-95.03 414.73,-90.31 413.86,-97.26"/>
</g>
<!-- Node5&#45;&gt;Node3 -->
<g id="edge5" class="edge">
<title>Node5&#45;&gt;Node3</title>
<path fill="none" stroke="midnightblue" d="M370.18,-47.93C378.94,-48.76 387.93,-49.61 396.87,-50.46"/>
<polygon fill="midnightblue" stroke="midnightblue" points="396.64,-53.96 406.92,-51.42 397.3,-46.99 396.64,-53.96"/>
</g>
<!-- Node6 -->
<g id="node6" class="node">
<title>Node6</title>
<g id="a_node6"><a xlink:href="class_main_namespace_1_1_clocks.html#ae0f6374bfcfdbb939449238eabb488ab" target="_top" xlink:title=" ">
<polygon fill="white" stroke="black" points="424.5,-0.5 424.5,-30.5 561.5,-30.5 561.5,-0.5 424.5,-0.5"/>
<text text-anchor="start" x="432.5" y="-18.5" font-family="Helvetica,sans-Serif" font-size="10.00">MainNamespace::Clocks</text>
<text text-anchor="middle" x="493" y="-7.5" font-family="Helvetica,sans-Serif" font-size="10.00">::readAll</text>
</a>
</g>
</g>
<!-- Node5&#45;&gt;Node6 -->
<g id="edge6" class="edge">
<title>Node5&#45;&gt;Node6</title>
<path fill="none" stroke="midnightblue" d="M368.18,-30.98C383.16,-29.1 398.9,-27.14 413.94,-25.26"/>
<polygon fill="midnightblue" stroke="midnightblue" points="414.73,-28.69 424.22,-23.97 413.86,-21.74 414.73,-28.69"/>
</g>
<!-- Node7 -->
<g id="node7" class="node">
<title>Node7</title>
<g id="a_node7"><a xlink:href="namespacelyra_1_1detail.html#ae65bbfceff11344e7ae2b7f28bebcdb7" target="_top" xlink:title=" ">
<polygon fill="white" stroke="black" points="615,-6 615,-25 733,-25 733,-6 615,-6"/>
<text text-anchor="middle" x="674" y="-13" font-family="Helvetica,sans-Serif" font-size="10.00">lyra::detail::to_string</text>
</a>
</g>
</g>
<!-- Node6&#45;&gt;Node7 -->
<g id="edge7" class="edge">
<title>Node6&#45;&gt;Node7</title>
<path fill="none" stroke="midnightblue" d="M561.67,-15.5C575.77,-15.5 590.64,-15.5 604.77,-15.5"/>
<polygon fill="midnightblue" stroke="midnightblue" points="604.89,-19 614.89,-15.5 604.89,-12 604.89,-19"/>
</g>
</g>
</svg>
