<?xml version="1.0" encoding="UTF-8" standalone="no"?>
<!DOCTYPE svg PUBLIC "-//W3C//DTD SVG 1.1//EN"
 "http://www.w3.org/Graphics/SVG/1.1/DTD/svg11.dtd">
<!-- Generated by graphviz version 2.43.0 (0)
 -->
<!-- Title: MainNamespace::epsKrylov Pages: 1 -->
<svg width="704pt" height="39pt"
 viewBox="0.00 0.00 704.00 39.00" xmlns="http://www.w3.org/2000/svg" xmlns:xlink="http://www.w3.org/1999/xlink">
<g id="graph0" class="graph" transform="scale(1 1) rotate(0) translate(4 35)">
<title>MainNamespace::epsKrylov</title>
<polygon fill="white" stroke="transparent" points="-4,4 -4,-35 700,-35 700,4 -4,4"/>
<!-- Node1 -->
<g id="node1" class="node">
<title>Node1</title>
<g id="a_node1"><a xlink:title=" ">
<polygon fill="#bfbfbf" stroke="black" points="543,-6 543,-25 696,-25 696,-6 543,-6"/>
<text text-anchor="middle" x="619.5" y="-13" font-family="Helvetica,sans-Serif" font-size="10.00">MainNamespace::epsKrylov</text>
</a>
</g>
</g>
<!-- Node2 -->
<g id="node2" class="node">
<title>Node2</title>
<g id="a_node2"><a xlink:href="namespace_main_namespace_1_1_surface.html#a9db507bc2f601fff92d0383899185f61" target="_top" xlink:title=" ">
<polygon fill="white" stroke="black" points="366,-0.5 366,-30.5 507,-30.5 507,-0.5 366,-0.5"/>
<text text-anchor="start" x="374" y="-18.5" font-family="Helvetica,sans-Serif" font-size="10.00">MainNamespace::Surface</text>
<text text-anchor="middle" x="436.5" y="-7.5" font-family="Helvetica,sans-Serif" font-size="10.00">::doGmres</text>
</a>
</g>
</g>
<!-- Node1&#45;&gt;Node2 -->
<g id="edge1" class="edge">
<title>Node1&#45;&gt;Node2</title>
<path fill="none" stroke="midnightblue" d="M532.75,-15.5C524.17,-15.5 515.52,-15.5 507.13,-15.5"/>
<polygon fill="midnightblue" stroke="midnightblue" points="532.79,-19 542.79,-15.5 532.79,-12 532.79,-19"/>
</g>
<!-- Node3 -->
<g id="node3" class="node">
<title>Node3</title>
<g id="a_node3"><a xlink:href="class_main_namespace_1_1_surface_1_1_multi_surface.html#a8839f7e49575079e39fbb95a692772a5" target="_top" xlink:title="Compute the right&#45;hand side, the operators, then solve the linear system.">
<polygon fill="white" stroke="black" points="189,-0.5 189,-30.5 330,-30.5 330,-0.5 189,-0.5"/>
<text text-anchor="start" x="197" y="-18.5" font-family="Helvetica,sans-Serif" font-size="10.00">MainNamespace::Surface</text>
<text text-anchor="middle" x="259.5" y="-7.5" font-family="Helvetica,sans-Serif" font-size="10.00">::MultiSurface::solve</text>
</a>
</g>
</g>
<!-- Node2&#45;&gt;Node3 -->
<g id="edge2" class="edge">
<title>Node2&#45;&gt;Node3</title>
<path fill="none" stroke="midnightblue" d="M355.58,-15.5C347.11,-15.5 338.55,-15.5 330.21,-15.5"/>
<polygon fill="midnightblue" stroke="midnightblue" points="355.83,-19 365.83,-15.5 355.83,-12 355.83,-19"/>
</g>
<!-- Node4 -->
<g id="node4" class="node">
<title>Node4</title>
<g id="a_node4"><a xlink:href="main_8cpp.html#a5d68713f22d1b3e2495b15d107ea7d21" target="_top" xlink:title=" ">
<polygon fill="white" stroke="black" points="77,-6 77,-25 153,-25 153,-6 77,-6"/>
<text text-anchor="middle" x="115" y="-13" font-family="Helvetica,sans-Serif" font-size="10.00">testProblem</text>
</a>
</g>
</g>
<!-- Node3&#45;&gt;Node4 -->
<g id="edge3" class="edge">
<title>Node3&#45;&gt;Node4</title>
<path fill="none" stroke="midnightblue" d="M178.85,-15.5C169.97,-15.5 161.27,-15.5 153.31,-15.5"/>
<polygon fill="midnightblue" stroke="midnightblue" points="178.92,-19 188.92,-15.5 178.92,-12 178.92,-19"/>
</g>
<!-- Node5 -->
<g id="node5" class="node">
<title>Node5</title>
<g id="a_node5"><a xlink:href="main_8cpp.html#a3c04138a5bfe5d72780bb7e82a18e627" target="_top" xlink:title=" ">
<polygon fill="white" stroke="black" points="0,-6 0,-25 41,-25 41,-6 0,-6"/>
<text text-anchor="middle" x="20.5" y="-13" font-family="Helvetica,sans-Serif" font-size="10.00">main</text>
</a>
</g>
</g>
<!-- Node4&#45;&gt;Node5 -->
<g id="edge4" class="edge">
<title>Node4&#45;&gt;Node5</title>
<path fill="none" stroke="midnightblue" d="M66.72,-15.5C57.65,-15.5 48.64,-15.5 41.07,-15.5"/>
<polygon fill="midnightblue" stroke="midnightblue" points="66.91,-19 76.91,-15.5 66.91,-12 66.91,-19"/>
</g>
</g>
</svg>
