<?xml version="1.0" encoding="UTF-8" standalone="no"?>
<!DOCTYPE svg PUBLIC "-//W3C//DTD SVG 1.1//EN"
 "http://www.w3.org/Graphics/SVG/1.1/DTD/svg11.dtd">
<!-- Generated by graphviz version 2.43.0 (0)
 -->
<!-- Title: MainNamespace::maybeFree Pages: 1 -->
<svg width="1737pt" height="361pt"
 viewBox="0.00 0.00 1737.00 361.00" xmlns="http://www.w3.org/2000/svg" xmlns:xlink="http://www.w3.org/1999/xlink">
<g id="graph0" class="graph" transform="scale(1 1) rotate(0) translate(4 357)">
<title>MainNamespace::maybeFree</title>
<polygon fill="white" stroke="transparent" points="-4,4 -4,-357 1733,-357 1733,4 -4,4"/>
<!-- Node1 -->
<g id="node1" class="node">
<title>Node1</title>
<g id="a_node1"><a xlink:title=" ">
<polygon fill="#bfbfbf" stroke="black" points="1570,-156 1570,-175 1729,-175 1729,-156 1570,-156"/>
<text text-anchor="middle" x="1649.5" y="-163" font-family="Helvetica,sans-Serif" font-size="10.00">MainNamespace::maybeFree</text>
</a>
</g>
</g>
<!-- Node2 -->
<g id="node2" class="node">
<title>Node2</title>
<g id="a_node2"><a xlink:href="class_main_namespace_1_1_boerm_timer.html#aff0d16069d4aef7a94949fd613bc3f92" target="_top" xlink:title=" ">
<polygon fill="white" stroke="black" points="1368,-322.5 1368,-352.5 1532,-352.5 1532,-322.5 1368,-322.5"/>
<text text-anchor="start" x="1376" y="-340.5" font-family="Helvetica,sans-Serif" font-size="10.00">MainNamespace::BoermTimer</text>
<text text-anchor="middle" x="1450" y="-329.5" font-family="Helvetica,sans-Serif" font-size="10.00">::~BoermTimer</text>
</a>
</g>
</g>
<!-- Node1&#45;&gt;Node2 -->
<g id="edge1" class="edge">
<title>Node1&#45;&gt;Node2</title>
<path fill="none" stroke="midnightblue" d="M1639.16,-184.17C1622.46,-215.66 1584.43,-279.23 1534,-313.5 1528.91,-316.96 1523.33,-319.92 1517.53,-322.46"/>
<polygon fill="midnightblue" stroke="midnightblue" points="1642.34,-185.64 1643.83,-175.15 1636.13,-182.43 1642.34,-185.64"/>
</g>
<!-- Node3 -->
<g id="node3" class="node">
<title>Node3</title>
<g id="a_node3"><a xlink:href="class_main_namespace_1_1_dumb_pointer.html#a17cb0fe28ed20fcd69eabd5f6812d235" target="_top" xlink:title=" ">
<polygon fill="white" stroke="black" points="1366,-273.5 1366,-303.5 1534,-303.5 1534,-273.5 1366,-273.5"/>
<text text-anchor="start" x="1374" y="-291.5" font-family="Helvetica,sans-Serif" font-size="10.00">MainNamespace::DumbPointer</text>
<text text-anchor="middle" x="1450" y="-280.5" font-family="Helvetica,sans-Serif" font-size="10.00">::~DumbPointer</text>
</a>
</g>
</g>
<!-- Node1&#45;&gt;Node3 -->
<g id="edge2" class="edge">
<title>Node1&#45;&gt;Node3</title>
<path fill="none" stroke="midnightblue" d="M1633.08,-182.83C1612.55,-204.88 1574.14,-242.72 1534,-264.5 1527.8,-267.86 1521.08,-270.8 1514.24,-273.35"/>
<polygon fill="midnightblue" stroke="midnightblue" points="1635.88,-184.96 1640.04,-175.22 1630.71,-180.24 1635.88,-184.96"/>
</g>
<!-- Node4 -->
<g id="node4" class="node">
<title>Node4</title>
<g id="a_node4"><a xlink:href="class_main_namespace_1_1_surface_1_1_multi_surface.html#a7d510c455d42a31546e94a1711c4e7d4" target="_top" xlink:title="Destructor.">
<polygon fill="white" stroke="black" points="1370,-224.5 1370,-254.5 1530,-254.5 1530,-224.5 1370,-224.5"/>
<text text-anchor="start" x="1378" y="-242.5" font-family="Helvetica,sans-Serif" font-size="10.00">MainNamespace::Surface</text>
<text text-anchor="middle" x="1450" y="-231.5" font-family="Helvetica,sans-Serif" font-size="10.00">::MultiSurface::~MultiSurface</text>
</a>
</g>
</g>
<!-- Node1&#45;&gt;Node4 -->
<g id="edge3" class="edge">
<title>Node1&#45;&gt;Node4</title>
<path fill="none" stroke="midnightblue" d="M1619.39,-179.47C1596.5,-190.14 1563.63,-204.8 1534,-215.5 1525.25,-218.66 1515.87,-221.7 1506.68,-224.48"/>
<polygon fill="midnightblue" stroke="midnightblue" points="1620.99,-182.58 1628.55,-175.16 1618.01,-176.25 1620.99,-182.58"/>
</g>
<!-- Node5 -->
<g id="node5" class="node">
<title>Node5</title>
<g id="a_node5"><a xlink:href="struct_main_namespace_1_1_options.html#a1ef6bad7a167ef792ae408aeb047c8cb" target="_top" xlink:title=" ">
<polygon fill="white" stroke="black" points="1379,-175.5 1379,-205.5 1521,-205.5 1521,-175.5 1379,-175.5"/>
<text text-anchor="start" x="1387" y="-193.5" font-family="Helvetica,sans-Serif" font-size="10.00">MainNamespace::Options</text>
<text text-anchor="middle" x="1450" y="-182.5" font-family="Helvetica,sans-Serif" font-size="10.00">::~Options</text>
</a>
</g>
</g>
<!-- Node1&#45;&gt;Node5 -->
<g id="edge4" class="edge">
<title>Node1&#45;&gt;Node5</title>
<path fill="none" stroke="midnightblue" d="M1563.14,-176.3C1549.13,-178.08 1534.74,-179.9 1521.15,-181.62"/>
<polygon fill="midnightblue" stroke="midnightblue" points="1563.79,-179.75 1573.27,-175.02 1562.91,-172.81 1563.79,-179.75"/>
</g>
<!-- Node6 -->
<g id="node6" class="node">
<title>Node6</title>
<g id="a_node6"><a xlink:href="class_main_namespace_1_1_pointer_array.html#a175a61f734d79674a95934692d4891b8" target="_top" xlink:title=" ">
<polygon fill="white" stroke="black" points="1367.5,-126.5 1367.5,-156.5 1532.5,-156.5 1532.5,-126.5 1367.5,-126.5"/>
<text text-anchor="start" x="1375.5" y="-144.5" font-family="Helvetica,sans-Serif" font-size="10.00">MainNamespace::PointerArray</text>
<text text-anchor="middle" x="1450" y="-133.5" font-family="Helvetica,sans-Serif" font-size="10.00">::clear</text>
</a>
</g>
</g>
<!-- Node1&#45;&gt;Node6 -->
<g id="edge5" class="edge">
<title>Node1&#45;&gt;Node6</title>
<path fill="none" stroke="midnightblue" d="M1560.01,-154.75C1550.95,-153.65 1541.79,-152.53 1532.81,-151.44"/>
<polygon fill="midnightblue" stroke="midnightblue" points="1559.81,-158.25 1570.16,-155.98 1560.65,-151.3 1559.81,-158.25"/>
</g>
<!-- Node8 -->
<g id="node8" class="node">
<title>Node8</title>
<g id="a_node8"><a xlink:href="namespace_main_namespace.html#ad6c9cb208aad8941d4a3efa626110c5b" target="_top" xlink:title=" ">
<polygon fill="white" stroke="black" points="1386,-88 1386,-107 1514,-107 1514,-88 1386,-88"/>
<text text-anchor="middle" x="1450" y="-95" font-family="Helvetica,sans-Serif" font-size="10.00">MainNamespace::copy</text>
</a>
</g>
</g>
<!-- Node1&#45;&gt;Node8 -->
<g id="edge7" class="edge">
<title>Node1&#45;&gt;Node8</title>
<path fill="none" stroke="midnightblue" d="M1619.04,-151.61C1596.21,-141.22 1563.57,-127.19 1534,-117.5 1522.03,-113.58 1508.86,-110.05 1496.6,-107.1"/>
<polygon fill="midnightblue" stroke="midnightblue" points="1617.65,-154.82 1628.19,-155.82 1620.57,-148.46 1617.65,-154.82"/>
</g>
<!-- Node20 -->
<g id="node20" class="node">
<title>Node20</title>
<g id="a_node20"><a xlink:href="cutils_8cpp.html#a96d88138364e45ce5235b414624023b0" target="_top" xlink:title=" ">
<polygon fill="white" stroke="black" points="1403.5,-50 1403.5,-69 1496.5,-69 1496.5,-50 1403.5,-50"/>
<text text-anchor="middle" x="1450" y="-57" font-family="Helvetica,sans-Serif" font-size="10.00">del_diradmdata</text>
</a>
</g>
</g>
<!-- Node1&#45;&gt;Node20 -->
<g id="edge20" class="edge">
<title>Node1&#45;&gt;Node20</title>
<path fill="none" stroke="midnightblue" d="M1631.58,-148.86C1610.49,-129.09 1572.53,-96.52 1534,-78.5 1522.35,-73.05 1509.03,-69.11 1496.53,-66.29"/>
<polygon fill="midnightblue" stroke="midnightblue" points="1629.39,-151.62 1639.04,-155.99 1634.23,-146.56 1629.39,-151.62"/>
</g>
<!-- Node22 -->
<g id="node22" class="node">
<title>Node22</title>
<g id="a_node22"><a xlink:href="class_main_namespace_1_1_dumb_pointer.html#a88f5f60fc72578eb6a8a64c011c58162" target="_top" xlink:title=" ">
<polygon fill="white" stroke="black" points="1366,-0.5 1366,-30.5 1534,-30.5 1534,-0.5 1366,-0.5"/>
<text text-anchor="start" x="1374" y="-18.5" font-family="Helvetica,sans-Serif" font-size="10.00">MainNamespace::DumbPointer</text>
<text text-anchor="middle" x="1450" y="-7.5" font-family="Helvetica,sans-Serif" font-size="10.00">::operator=</text>
</a>
</g>
</g>
<!-- Node1&#45;&gt;Node22 -->
<g id="edge22" class="edge">
<title>Node1&#45;&gt;Node22</title>
<path fill="none" stroke="midnightblue" d="M1636.57,-147.16C1617.92,-119.92 1579.25,-68.93 1534,-40.5 1527.88,-36.66 1521.14,-33.38 1514.23,-30.58"/>
<polygon fill="midnightblue" stroke="midnightblue" points="1633.84,-149.37 1642.31,-155.73 1639.66,-145.48 1633.84,-149.37"/>
</g>
<!-- Node7 -->
<g id="node7" class="node">
<title>Node7</title>
<g id="a_node7"><a xlink:href="class_main_namespace_1_1_pointer_array.html#ac02d3aa39cd1a64c4f7ab7a46244db53" target="_top" xlink:title=" ">
<polygon fill="white" stroke="black" points="1157,-175.5 1157,-205.5 1322,-205.5 1322,-175.5 1157,-175.5"/>
<text text-anchor="start" x="1165" y="-193.5" font-family="Helvetica,sans-Serif" font-size="10.00">MainNamespace::PointerArray</text>
<text text-anchor="middle" x="1239.5" y="-182.5" font-family="Helvetica,sans-Serif" font-size="10.00">::~PointerArray</text>
</a>
</g>
</g>
<!-- Node6&#45;&gt;Node7 -->
<g id="edge6" class="edge">
<title>Node6&#45;&gt;Node7</title>
<path fill="none" stroke="midnightblue" d="M1375.26,-158.83C1352.11,-164.27 1326.76,-170.23 1304.35,-175.49"/>
<polygon fill="midnightblue" stroke="midnightblue" points="1376.09,-162.23 1385.03,-156.53 1374.49,-155.42 1376.09,-162.23"/>
</g>
<!-- Node9 -->
<g id="node9" class="node">
<title>Node9</title>
<g id="a_node9"><a xlink:href="namespace_main_namespace_1_1_surface.html#ae2df9c52faa0d299f2d4241ff436ca77" target="_top" xlink:title=" ">
<polygon fill="white" stroke="black" points="1169,-126.5 1169,-156.5 1310,-156.5 1310,-126.5 1169,-126.5"/>
<text text-anchor="start" x="1177" y="-144.5" font-family="Helvetica,sans-Serif" font-size="10.00">MainNamespace::Surface</text>
<text text-anchor="middle" x="1239.5" y="-133.5" font-family="Helvetica,sans-Serif" font-size="10.00">::copySurface</text>
</a>
</g>
</g>
<!-- Node8&#45;&gt;Node9 -->
<g id="edge8" class="edge">
<title>Node8&#45;&gt;Node9</title>
<path fill="none" stroke="midnightblue" d="M1393.85,-109.14C1368.23,-114.55 1337.48,-121.03 1310.26,-126.78"/>
<polygon fill="midnightblue" stroke="midnightblue" points="1394.7,-112.54 1403.76,-107.05 1393.25,-105.69 1394.7,-112.54"/>
</g>
<!-- Node10 -->
<g id="node10" class="node">
<title>Node10</title>
<g id="a_node10"><a xlink:href="namespace_main_namespace_1_1_surface.html#a91ad285a7a25853007779d157350ae2d" target="_top" xlink:title="Reorient all needed triangles by swapping two vertices.">
<polygon fill="white" stroke="black" points="957,-109.5 957,-139.5 1098,-139.5 1098,-109.5 957,-109.5"/>
<text text-anchor="start" x="965" y="-127.5" font-family="Helvetica,sans-Serif" font-size="10.00">MainNamespace::Surface</text>
<text text-anchor="middle" x="1027.5" y="-116.5" font-family="Helvetica,sans-Serif" font-size="10.00">::orientCopy</text>
</a>
</g>
</g>
<!-- Node8&#45;&gt;Node10 -->
<g id="edge19" class="edge">
<title>Node8&#45;&gt;Node10</title>
<path fill="none" stroke="midnightblue" d="M1375.34,-102.23C1297.17,-107.25 1174.6,-115.12 1098.04,-120.04"/>
<polygon fill="midnightblue" stroke="midnightblue" points="1375.84,-105.71 1385.59,-101.57 1375.39,-98.72 1375.84,-105.71"/>
</g>
<!-- Node12 -->
<g id="node12" class="node">
<title>Node12</title>
<g id="a_node12"><a xlink:href="namespace_main_namespace.html#a595f92c9feef4f77b05ba85969525fe1" target="_top" xlink:title=" ">
<polygon fill="white" stroke="black" points="1149,-50 1149,-69 1330,-69 1330,-50 1149,-50"/>
<text text-anchor="middle" x="1239.5" y="-57" font-family="Helvetica,sans-Serif" font-size="10.00">MainNamespace::makeDirections</text>
</a>
</g>
</g>
<!-- Node8&#45;&gt;Node12 -->
<g id="edge11" class="edge">
<title>Node8&#45;&gt;Node12</title>
<path fill="none" stroke="midnightblue" d="M1386.74,-86.15C1356.83,-80.7 1321.37,-74.24 1292.87,-69.04"/>
<polygon fill="midnightblue" stroke="midnightblue" points="1386.19,-89.61 1396.66,-87.96 1387.45,-82.72 1386.19,-89.61"/>
</g>
<!-- Node9&#45;&gt;Node10 -->
<g id="edge9" class="edge">
<title>Node9&#45;&gt;Node10</title>
<path fill="none" stroke="midnightblue" d="M1158.89,-135.06C1138.95,-133.44 1117.72,-131.72 1098.31,-130.15"/>
<polygon fill="midnightblue" stroke="midnightblue" points="1158.61,-138.54 1168.86,-135.86 1159.18,-131.57 1158.61,-138.54"/>
</g>
<!-- Node11 -->
<g id="node11" class="node">
<title>Node11</title>
<g id="a_node11"><a xlink:href="class_main_namespace_1_1_surface_1_1_single_surface.html#a2cb253a6c5cc5d0c66ead47e5db3233b" target="_top" xlink:title="Construct an object to manage data associated to a closed boundary.">
<polygon fill="white" stroke="black" points="744,-109.5 744,-139.5 906,-139.5 906,-109.5 744,-109.5"/>
<text text-anchor="start" x="752" y="-127.5" font-family="Helvetica,sans-Serif" font-size="10.00">MainNamespace::Surface</text>
<text text-anchor="middle" x="825" y="-116.5" font-family="Helvetica,sans-Serif" font-size="10.00">::SingleSurface::SingleSurface</text>
</a>
</g>
</g>
<!-- Node10&#45;&gt;Node11 -->
<g id="edge10" class="edge">
<title>Node10&#45;&gt;Node11</title>
<path fill="none" stroke="midnightblue" d="M946.81,-124.5C933.41,-124.5 919.51,-124.5 906.1,-124.5"/>
<polygon fill="midnightblue" stroke="midnightblue" points="946.94,-128 956.94,-124.5 946.94,-121 946.94,-128"/>
</g>
<!-- Node13 -->
<g id="node13" class="node">
<title>Node13</title>
<g id="a_node13"><a xlink:href="namespace_main_namespace.html#aaa553a0feb6a9e785dce2ea7c2f25481" target="_top" xlink:title="Build a dh2matrix for the operator described by bemDescription, using the given clusters.">
<polygon fill="white" stroke="black" points="942,-50 942,-69 1113,-69 1113,-50 942,-50"/>
<text text-anchor="middle" x="1027.5" y="-57" font-family="Helvetica,sans-Serif" font-size="10.00">MainNamespace::buildOperator</text>
</a>
</g>
</g>
<!-- Node12&#45;&gt;Node13 -->
<g id="edge12" class="edge">
<title>Node12&#45;&gt;Node13</title>
<path fill="none" stroke="midnightblue" d="M1138.81,-59.5C1130.25,-59.5 1121.63,-59.5 1113.2,-59.5"/>
<polygon fill="midnightblue" stroke="midnightblue" points="1138.83,-63 1148.83,-59.5 1138.83,-56 1138.83,-63"/>
</g>
<!-- Node14 -->
<g id="node14" class="node">
<title>Node14</title>
<g id="a_node14"><a xlink:href="class_main_namespace_1_1_d_h2_matrix_wrapper.html#a8b3117680075ec79bc0500f3e901b133" target="_top" xlink:title="Take ownership of, the pointer to the bem description and build the matrix and all needed data struct...">
<polygon fill="white" stroke="black" points="746.5,-44.5 746.5,-74.5 903.5,-74.5 903.5,-44.5 746.5,-44.5"/>
<text text-anchor="start" x="754.5" y="-62.5" font-family="Helvetica,sans-Serif" font-size="10.00">MainNamespace::DH2Matrix</text>
<text text-anchor="middle" x="825" y="-51.5" font-family="Helvetica,sans-Serif" font-size="10.00">Wrapper::build</text>
</a>
</g>
</g>
<!-- Node13&#45;&gt;Node14 -->
<g id="edge13" class="edge">
<title>Node13&#45;&gt;Node14</title>
<path fill="none" stroke="midnightblue" d="M931.66,-59.5C922.31,-59.5 912.89,-59.5 903.74,-59.5"/>
<polygon fill="midnightblue" stroke="midnightblue" points="931.76,-63 941.76,-59.5 931.76,-56 931.76,-63"/>
</g>
<!-- Node15 -->
<g id="node15" class="node">
<title>Node15</title>
<g id="a_node15"><a xlink:href="namespace_main_namespace_1_1_surface.html#a7e821744eeb79cb1faa8468d53cb7c1e" target="_top" xlink:title=" ">
<polygon fill="white" stroke="black" points="567,-44.5 567,-74.5 708,-74.5 708,-44.5 567,-44.5"/>
<text text-anchor="start" x="575" y="-62.5" font-family="Helvetica,sans-Serif" font-size="10.00">MainNamespace::Surface</text>
<text text-anchor="middle" x="637.5" y="-51.5" font-family="Helvetica,sans-Serif" font-size="10.00">::makeTmpApply</text>
</a>
</g>
</g>
<!-- Node14&#45;&gt;Node15 -->
<g id="edge14" class="edge">
<title>Node14&#45;&gt;Node15</title>
<path fill="none" stroke="midnightblue" d="M736.22,-59.5C726.78,-59.5 717.28,-59.5 708.1,-59.5"/>
<polygon fill="midnightblue" stroke="midnightblue" points="736.41,-63 746.41,-59.5 736.41,-56 736.41,-63"/>
</g>
<!-- Node16 -->
<g id="node16" class="node">
<title>Node16</title>
<g id="a_node16"><a xlink:href="class_main_namespace_1_1_surface_1_1_single_surface.html#a3321422c36eccd213cfc48823a9f54d7" target="_top" xlink:title="Project the offset on the current mesh, then use it to compute the right&#45;hand side.">
<polygon fill="white" stroke="black" points="366,-44.5 366,-74.5 531,-74.5 531,-44.5 366,-44.5"/>
<text text-anchor="start" x="374" y="-62.5" font-family="Helvetica,sans-Serif" font-size="10.00">MainNamespace::Surface</text>
<text text-anchor="middle" x="448.5" y="-51.5" font-family="Helvetica,sans-Serif" font-size="10.00">::SingleSurface::makeMultiRhs</text>
</a>
</g>
</g>
<!-- Node15&#45;&gt;Node16 -->
<g id="edge15" class="edge">
<title>Node15&#45;&gt;Node16</title>
<path fill="none" stroke="midnightblue" d="M556.67,-59.5C548.23,-59.5 539.64,-59.5 531.18,-59.5"/>
<polygon fill="midnightblue" stroke="midnightblue" points="556.87,-63 566.87,-59.5 556.87,-56 556.87,-63"/>
</g>
<!-- Node17 -->
<g id="node17" class="node">
<title>Node17</title>
<g id="a_node17"><a xlink:href="class_main_namespace_1_1_surface_1_1_multi_surface.html#a8839f7e49575079e39fbb95a692772a5" target="_top" xlink:title="Compute the right&#45;hand side, the operators, then solve the linear system.">
<polygon fill="white" stroke="black" points="189,-44.5 189,-74.5 330,-74.5 330,-44.5 189,-44.5"/>
<text text-anchor="start" x="197" y="-62.5" font-family="Helvetica,sans-Serif" font-size="10.00">MainNamespace::Surface</text>
<text text-anchor="middle" x="259.5" y="-51.5" font-family="Helvetica,sans-Serif" font-size="10.00">::MultiSurface::solve</text>
</a>
</g>
</g>
<!-- Node16&#45;&gt;Node17 -->
<g id="edge16" class="edge">
<title>Node16&#45;&gt;Node17</title>
<path fill="none" stroke="midnightblue" d="M355.67,-59.5C347.07,-59.5 338.44,-59.5 330.09,-59.5"/>
<polygon fill="midnightblue" stroke="midnightblue" points="355.75,-63 365.75,-59.5 355.75,-56 355.75,-63"/>
</g>
<!-- Node18 -->
<g id="node18" class="node">
<title>Node18</title>
<g id="a_node18"><a xlink:href="main_8cpp.html#a5d68713f22d1b3e2495b15d107ea7d21" target="_top" xlink:title=" ">
<polygon fill="white" stroke="black" points="77,-50 77,-69 153,-69 153,-50 77,-50"/>
<text text-anchor="middle" x="115" y="-57" font-family="Helvetica,sans-Serif" font-size="10.00">testProblem</text>
</a>
</g>
</g>
<!-- Node17&#45;&gt;Node18 -->
<g id="edge17" class="edge">
<title>Node17&#45;&gt;Node18</title>
<path fill="none" stroke="midnightblue" d="M178.85,-59.5C169.97,-59.5 161.27,-59.5 153.31,-59.5"/>
<polygon fill="midnightblue" stroke="midnightblue" points="178.92,-63 188.92,-59.5 178.92,-56 178.92,-63"/>
</g>
<!-- Node19 -->
<g id="node19" class="node">
<title>Node19</title>
<g id="a_node19"><a xlink:href="main_8cpp.html#a3c04138a5bfe5d72780bb7e82a18e627" target="_top" xlink:title=" ">
<polygon fill="white" stroke="black" points="0,-50 0,-69 41,-69 41,-50 0,-50"/>
<text text-anchor="middle" x="20.5" y="-57" font-family="Helvetica,sans-Serif" font-size="10.00">main</text>
</a>
</g>
</g>
<!-- Node18&#45;&gt;Node19 -->
<g id="edge18" class="edge">
<title>Node18&#45;&gt;Node19</title>
<path fill="none" stroke="midnightblue" d="M66.72,-59.5C57.65,-59.5 48.64,-59.5 41.07,-59.5"/>
<polygon fill="midnightblue" stroke="midnightblue" points="66.91,-63 76.91,-59.5 66.91,-56 66.91,-63"/>
</g>
<!-- Node21 -->
<g id="node21" class="node">
<title>Node21</title>
<g id="a_node21"><a xlink:href="namespace_main_namespace_1_1_c_functions.html#a0c64d68d65a71b58e87f5b178ca5780a" target="_top" xlink:title=" ">
<polygon fill="white" stroke="black" points="1160.5,-0.5 1160.5,-30.5 1318.5,-30.5 1318.5,-0.5 1160.5,-0.5"/>
<text text-anchor="start" x="1168.5" y="-18.5" font-family="Helvetica,sans-Serif" font-size="10.00">MainNamespace::CFunctions</text>
<text text-anchor="middle" x="1239.5" y="-7.5" font-family="Helvetica,sans-Serif" font-size="10.00">::freeCPointer</text>
</a>
</g>
</g>
<!-- Node20&#45;&gt;Node21 -->
<g id="edge21" class="edge">
<title>Node20&#45;&gt;Node21</title>
<path fill="none" stroke="midnightblue" d="M1393.69,-47.83C1368.61,-42.54 1338.64,-36.21 1311.89,-30.57"/>
<polygon fill="midnightblue" stroke="midnightblue" points="1393.25,-51.31 1403.76,-49.95 1394.7,-44.46 1393.25,-51.31"/>
</g>
</g>
</svg>
