<?xml version="1.0" encoding="UTF-8" standalone="no"?>
<!DOCTYPE svg PUBLIC "-//W3C//DTD SVG 1.1//EN"
 "http://www.w3.org/Graphics/SVG/1.1/DTD/svg11.dtd">
<!-- Generated by graphviz version 2.43.0 (0)
 -->
<!-- Title: MainNamespace::getElements Pages: 1 -->
<svg width="740pt" height="52pt"
 viewBox="0.00 0.00 740.00 51.50" xmlns="http://www.w3.org/2000/svg" xmlns:xlink="http://www.w3.org/1999/xlink">
<g id="graph0" class="graph" transform="scale(1 1) rotate(0) translate(4 47.5)">
<title>MainNamespace::getElements</title>
<polygon fill="white" stroke="transparent" points="-4,4 -4,-47.5 736,-47.5 736,4 -4,4"/>
<!-- Node1 -->
<g id="node1" class="node">
<title>Node1</title>
<g id="a_node1"><a xlink:title=" ">
<polygon fill="#bfbfbf" stroke="black" points="566,-6 566,-25 732,-25 732,-6 566,-6"/>
<text text-anchor="middle" x="649" y="-13" font-family="Helvetica,sans-Serif" font-size="10.00">MainNamespace::getElements</text>
</a>
</g>
</g>
<!-- Node1&#45;&gt;Node1 -->
<g id="edge1" class="edge">
<title>Node1&#45;&gt;Node1</title>
<path fill="none" stroke="midnightblue" d="M686.5,-33C686.49,-38.84 673.99,-43.5 649,-43.5 613.45,-43.5 603.18,-34.07 618.17,-25.26"/>
<polygon fill="midnightblue" stroke="midnightblue" points="689,-30.55 679.83,-25.26 683.7,-35.12 689,-30.55"/>
</g>
<!-- Node2 -->
<g id="node2" class="node">
<title>Node2</title>
<g id="a_node2"><a xlink:href="class_main_namespace_1_1_mesh_reader.html#a05a6ac577d6a74ddc0f355a83d7ad442" target="_top" xlink:title="Parse a gmsh mesh file into a surface3d structure. The mesh_ object is filled in the appropriate way.">
<polygon fill="white" stroke="black" points="365,-0.5 365,-30.5 530,-30.5 530,-0.5 365,-0.5"/>
<text text-anchor="start" x="373" y="-18.5" font-family="Helvetica,sans-Serif" font-size="10.00">MainNamespace::MeshReader</text>
<text text-anchor="middle" x="447.5" y="-7.5" font-family="Helvetica,sans-Serif" font-size="10.00">::parseMesh</text>
</a>
</g>
</g>
<!-- Node1&#45;&gt;Node2 -->
<g id="edge2" class="edge">
<title>Node1&#45;&gt;Node2</title>
<path fill="none" stroke="midnightblue" d="M555.95,-15.5C547.36,-15.5 538.68,-15.5 530.19,-15.5"/>
<polygon fill="midnightblue" stroke="midnightblue" points="555.99,-19 565.99,-15.5 555.99,-12 555.99,-19"/>
</g>
<!-- Node3 -->
<g id="node3" class="node">
<title>Node3</title>
<g id="a_node3"><a xlink:href="namespace_main_namespace_1_1_surface.html#a4c0c8122fd15716950c73989302ffdc3" target="_top" xlink:title=" ">
<polygon fill="white" stroke="black" points="188,-0.5 188,-30.5 329,-30.5 329,-0.5 188,-0.5"/>
<text text-anchor="start" x="196" y="-18.5" font-family="Helvetica,sans-Serif" font-size="10.00">MainNamespace::Surface</text>
<text text-anchor="middle" x="258.5" y="-7.5" font-family="Helvetica,sans-Serif" font-size="10.00">::getFromFile</text>
</a>
</g>
</g>
<!-- Node2&#45;&gt;Node3 -->
<g id="edge3" class="edge">
<title>Node2&#45;&gt;Node3</title>
<path fill="none" stroke="midnightblue" d="M354.67,-15.5C346.07,-15.5 337.44,-15.5 329.09,-15.5"/>
<polygon fill="midnightblue" stroke="midnightblue" points="354.75,-19 364.75,-15.5 354.75,-12 354.75,-19"/>
</g>
<!-- Node4 -->
<g id="node4" class="node">
<title>Node4</title>
<g id="a_node4"><a xlink:href="class_main_namespace_1_1_surface_1_1_multi_surface.html#a3f8d56c9aa2c53fdbb578f534bd523e5" target="_top" xlink:title="Contructor. Parse a mesh file in gmsh format and build the global mesh.">
<polygon fill="white" stroke="black" points="0,-0.5 0,-30.5 152,-30.5 152,-0.5 0,-0.5"/>
<text text-anchor="start" x="8" y="-18.5" font-family="Helvetica,sans-Serif" font-size="10.00">MainNamespace::Surface</text>
<text text-anchor="middle" x="76" y="-7.5" font-family="Helvetica,sans-Serif" font-size="10.00">::MultiSurface::MultiSurface</text>
</a>
</g>
</g>
<!-- Node3&#45;&gt;Node4 -->
<g id="edge4" class="edge">
<title>Node3&#45;&gt;Node4</title>
<path fill="none" stroke="midnightblue" d="M177.71,-15.5C169.22,-15.5 160.62,-15.5 152.19,-15.5"/>
<polygon fill="midnightblue" stroke="midnightblue" points="177.97,-19 187.97,-15.5 177.97,-12 177.97,-19"/>
</g>
</g>
</svg>
