<?xml version="1.0" encoding="UTF-8" standalone="no"?>
<!DOCTYPE svg PUBLIC "-//W3C//DTD SVG 1.1//EN"
 "http://www.w3.org/Graphics/SVG/1.1/DTD/svg11.dtd">
<!-- Generated by graphviz version 2.43.0 (0)
 -->
<!-- Title: MainNamespace::Logger::indent Pages: 1 -->
<svg width="720pt" height="294pt"
 viewBox="0.00 0.00 720.00 294.23" xmlns="http://www.w3.org/2000/svg" xmlns:xlink="http://www.w3.org/1999/xlink">
<g id="graph0" class="graph" transform="scale(1 1) rotate(0) translate(4 290.23)">
<title>MainNamespace::Logger::indent</title>
<polygon fill="white" stroke="transparent" points="-4,4 -4,-290.23 716,-290.23 716,4 -4,4"/>
<!-- Node1 -->
<g id="node1" class="node">
<title>Node1</title>
<g id="a_node1"><a xlink:title="Increase indentation level in the logger.">
<polygon fill="#bfbfbf" stroke="black" points="575,-131.5 575,-161.5 712,-161.5 712,-131.5 575,-131.5"/>
<text text-anchor="start" x="583" y="-149.5" font-family="Helvetica,sans-Serif" font-size="10.00">MainNamespace::Logger</text>
<text text-anchor="middle" x="643.5" y="-138.5" font-family="Helvetica,sans-Serif" font-size="10.00">::indent</text>
</a>
</g>
</g>
<!-- Node2 -->
<g id="node2" class="node">
<title>Node2</title>
<g id="a_node2"><a xlink:href="class_main_namespace_1_1_surface_1_1_multi_surface.html#a3f8d56c9aa2c53fdbb578f534bd523e5" target="_top" xlink:title="Contructor. Parse a mesh file in gmsh format and build the global mesh.">
<polygon fill="white" stroke="black" points="189,-246.5 189,-276.5 341,-276.5 341,-246.5 189,-246.5"/>
<text text-anchor="start" x="197" y="-264.5" font-family="Helvetica,sans-Serif" font-size="10.00">MainNamespace::Surface</text>
<text text-anchor="middle" x="265" y="-253.5" font-family="Helvetica,sans-Serif" font-size="10.00">::MultiSurface::MultiSurface</text>
</a>
</g>
</g>
<!-- Node1&#45;&gt;Node2 -->
<g id="edge1" class="edge">
<title>Node1&#45;&gt;Node2</title>
<path fill="none" stroke="midnightblue" d="M629.8,-170.68C613.25,-199.24 581.37,-245.3 539,-264.5 471.76,-294.96 385.28,-287.25 327.87,-276.54"/>
<polygon fill="midnightblue" stroke="midnightblue" points="632.98,-172.16 634.81,-161.72 626.87,-168.74 632.98,-172.16"/>
</g>
<!-- Node3 -->
<g id="node3" class="node">
<title>Node3</title>
<g id="a_node3"><a xlink:href="class_main_namespace_1_1_surface_1_1_single_surface.html#a653f26daef216ab74bac87d618603c7f" target="_top" xlink:title="Build the operators.">
<polygon fill="white" stroke="black" points="377,-175.5 377,-205.5 539,-205.5 539,-175.5 377,-175.5"/>
<text text-anchor="start" x="385" y="-193.5" font-family="Helvetica,sans-Serif" font-size="10.00">MainNamespace::Surface</text>
<text text-anchor="middle" x="458" y="-182.5" font-family="Helvetica,sans-Serif" font-size="10.00">::SingleSurface::buildOperator</text>
</a>
</g>
</g>
<!-- Node1&#45;&gt;Node3 -->
<g id="edge2" class="edge">
<title>Node1&#45;&gt;Node3</title>
<path fill="none" stroke="midnightblue" d="M570.03,-163.88C554.04,-167.71 537.23,-171.74 521.67,-175.47"/>
<polygon fill="midnightblue" stroke="midnightblue" points="570.95,-167.25 579.86,-161.52 569.32,-160.45 570.95,-167.25"/>
</g>
<!-- Node5 -->
<g id="node5" class="node">
<title>Node5</title>
<g id="a_node5"><a xlink:href="main_8cpp.html#a5d68713f22d1b3e2495b15d107ea7d21" target="_top" xlink:title=" ">
<polygon fill="white" stroke="black" points="77,-137 77,-156 153,-156 153,-137 77,-137"/>
<text text-anchor="middle" x="115" y="-144" font-family="Helvetica,sans-Serif" font-size="10.00">testProblem</text>
</a>
</g>
</g>
<!-- Node1&#45;&gt;Node5 -->
<g id="edge11" class="edge">
<title>Node1&#45;&gt;Node5</title>
<path fill="none" stroke="midnightblue" d="M564.6,-146.5C449.56,-146.5 238.66,-146.5 153.32,-146.5"/>
<polygon fill="midnightblue" stroke="midnightblue" points="564.75,-150 574.75,-146.5 564.75,-143 564.75,-150"/>
</g>
<!-- Node6 -->
<g id="node6" class="node">
<title>Node6</title>
<g id="a_node6"><a xlink:href="main_8cpp.html#a3c04138a5bfe5d72780bb7e82a18e627" target="_top" xlink:title=" ">
<polygon fill="white" stroke="black" points="0,-118 0,-137 41,-137 41,-118 0,-118"/>
<text text-anchor="middle" x="20.5" y="-125" font-family="Helvetica,sans-Serif" font-size="10.00">main</text>
</a>
</g>
</g>
<!-- Node1&#45;&gt;Node6 -->
<g id="edge8" class="edge">
<title>Node1&#45;&gt;Node6</title>
<path fill="none" stroke="midnightblue" d="M564.56,-142.54C468,-137.85 298.42,-130.32 153,-127.5 113.28,-126.73 66.81,-127.01 41.11,-127.26"/>
<polygon fill="midnightblue" stroke="midnightblue" points="564.66,-146.05 574.82,-143.04 565.01,-139.06 564.66,-146.05"/>
</g>
<!-- Node7 -->
<g id="node7" class="node">
<title>Node7</title>
<g id="a_node7"><a xlink:href="namespace_main_namespace_1_1_surface.html#a4c0c8122fd15716950c73989302ffdc3" target="_top" xlink:title=" ">
<polygon fill="white" stroke="black" points="387.5,-224.5 387.5,-254.5 528.5,-254.5 528.5,-224.5 387.5,-224.5"/>
<text text-anchor="start" x="395.5" y="-242.5" font-family="Helvetica,sans-Serif" font-size="10.00">MainNamespace::Surface</text>
<text text-anchor="middle" x="458" y="-231.5" font-family="Helvetica,sans-Serif" font-size="10.00">::getFromFile</text>
</a>
</g>
</g>
<!-- Node1&#45;&gt;Node7 -->
<g id="edge6" class="edge">
<title>Node1&#45;&gt;Node7</title>
<path fill="none" stroke="midnightblue" d="M615.61,-167.68C595.46,-182.71 566.7,-202.47 539,-215.5 531.91,-218.83 524.26,-221.83 516.59,-224.48"/>
<polygon fill="midnightblue" stroke="midnightblue" points="617.83,-170.38 623.69,-161.55 613.6,-164.8 617.83,-170.38"/>
</g>
<!-- Node8 -->
<g id="node8" class="node">
<title>Node8</title>
<g id="a_node8"><a xlink:href="classlyra_1_1ostream__printer.html#a26a9b0ef8710580a80aeff979efa2bc9" target="_top" xlink:title=" ">
<polygon fill="white" stroke="black" points="398.5,-49.5 398.5,-79.5 517.5,-79.5 517.5,-49.5 398.5,-49.5"/>
<text text-anchor="start" x="406.5" y="-67.5" font-family="Helvetica,sans-Serif" font-size="10.00">lyra::ostream_printer</text>
<text text-anchor="middle" x="458" y="-56.5" font-family="Helvetica,sans-Serif" font-size="10.00">::option</text>
</a>
</g>
</g>
<!-- Node1&#45;&gt;Node8 -->
<g id="edge9" class="edge">
<title>Node1&#45;&gt;Node8</title>
<path fill="none" stroke="midnightblue" d="M605.46,-126.68C585.93,-116.54 561.43,-104.31 539,-94.5 527.04,-89.27 513.85,-84.09 501.69,-79.55"/>
<polygon fill="midnightblue" stroke="midnightblue" points="603.85,-129.79 614.33,-131.32 607.09,-123.59 603.85,-129.79"/>
</g>
<!-- Node9 -->
<g id="node9" class="node">
<title>Node9</title>
<g id="a_node9"><a xlink:href="classlyra_1_1ostream__printer.html#aef86cc281a01321d12eb78b7706ff42e" target="_top" xlink:title=" ">
<polygon fill="white" stroke="black" points="398.5,-0.5 398.5,-30.5 517.5,-30.5 517.5,-0.5 398.5,-0.5"/>
<text text-anchor="start" x="406.5" y="-18.5" font-family="Helvetica,sans-Serif" font-size="10.00">lyra::ostream_printer</text>
<text text-anchor="middle" x="458" y="-7.5" font-family="Helvetica,sans-Serif" font-size="10.00">::paragraph</text>
</a>
</g>
</g>
<!-- Node1&#45;&gt;Node9 -->
<g id="edge10" class="edge">
<title>Node1&#45;&gt;Node9</title>
<path fill="none" stroke="midnightblue" d="M625.69,-123.06C607.1,-98.79 574.98,-61.4 539,-39.5 532.44,-35.5 525.16,-32.13 517.75,-29.3"/>
<polygon fill="midnightblue" stroke="midnightblue" points="623.11,-125.46 631.91,-131.36 628.71,-121.26 623.11,-125.46"/>
</g>
<!-- Node4 -->
<g id="node4" class="node">
<title>Node4</title>
<g id="a_node4"><a xlink:href="class_main_namespace_1_1_surface_1_1_multi_surface.html#a8839f7e49575079e39fbb95a692772a5" target="_top" xlink:title="Compute the right&#45;hand side, the operators, then solve the linear system.">
<polygon fill="white" stroke="black" points="194.5,-175.5 194.5,-205.5 335.5,-205.5 335.5,-175.5 194.5,-175.5"/>
<text text-anchor="start" x="202.5" y="-193.5" font-family="Helvetica,sans-Serif" font-size="10.00">MainNamespace::Surface</text>
<text text-anchor="middle" x="265" y="-182.5" font-family="Helvetica,sans-Serif" font-size="10.00">::MultiSurface::solve</text>
</a>
</g>
</g>
<!-- Node3&#45;&gt;Node4 -->
<g id="edge3" class="edge">
<title>Node3&#45;&gt;Node4</title>
<path fill="none" stroke="midnightblue" d="M366.51,-190.5C356.14,-190.5 345.69,-190.5 335.66,-190.5"/>
<polygon fill="midnightblue" stroke="midnightblue" points="366.83,-194 376.83,-190.5 366.83,-187 366.83,-194"/>
</g>
<!-- Node4&#45;&gt;Node5 -->
<g id="edge4" class="edge">
<title>Node4&#45;&gt;Node5</title>
<path fill="none" stroke="midnightblue" d="M203.69,-172.57C184.7,-166.92 164.46,-160.91 148.22,-156.08"/>
<polygon fill="midnightblue" stroke="midnightblue" points="202.9,-175.99 213.48,-175.48 204.89,-169.28 202.9,-175.99"/>
</g>
<!-- Node5&#45;&gt;Node6 -->
<g id="edge5" class="edge">
<title>Node5&#45;&gt;Node6</title>
<path fill="none" stroke="midnightblue" d="M67.02,-136.85C57.85,-134.97 48.72,-133.09 41.07,-131.52"/>
<polygon fill="midnightblue" stroke="midnightblue" points="66.41,-140.3 76.91,-138.88 67.82,-133.44 66.41,-140.3"/>
</g>
<!-- Node7&#45;&gt;Node2 -->
<g id="edge7" class="edge">
<title>Node7&#45;&gt;Node2</title>
<path fill="none" stroke="midnightblue" d="M377.26,-248.68C365.27,-250.07 352.94,-251.49 341.05,-252.86"/>
<polygon fill="midnightblue" stroke="midnightblue" points="377.7,-252.16 387.23,-247.54 376.9,-245.2 377.7,-252.16"/>
</g>
</g>
</svg>
