<?xml version="1.0" encoding="UTF-8" standalone="no"?>
<!DOCTYPE svg PUBLIC "-//W3C//DTD SVG 1.1//EN"
 "http://www.w3.org/Graphics/SVG/1.1/DTD/svg11.dtd">
<!-- Generated by graphviz version 2.43.0 (0)
 -->
<!-- Title: MainNamespace::meshFile Pages: 1 -->
<svg width="364pt" height="78pt"
 viewBox="0.00 0.00 364.00 77.50" xmlns="http://www.w3.org/2000/svg" xmlns:xlink="http://www.w3.org/1999/xlink">
<g id="graph0" class="graph" transform="scale(1 1) rotate(0) translate(4 73.5)">
<title>MainNamespace::meshFile</title>
<polygon fill="white" stroke="transparent" points="-4,4 -4,-73.5 360,-73.5 360,4 -4,4"/>
<!-- Node1 -->
<g id="node1" class="node">
<title>Node1</title>
<g id="a_node1"><a xlink:title=" ">
<polygon fill="#bfbfbf" stroke="black" points="0,-28 0,-47 148,-47 148,-28 0,-28"/>
<text text-anchor="middle" x="74" y="-35" font-family="Helvetica,sans-Serif" font-size="10.00">MainNamespace::meshFile</text>
</a>
</g>
</g>
<!-- Node2 -->
<g id="node2" class="node">
<title>Node2</title>
<g id="a_node2"><a xlink:href="namespace_main_namespace.html#a6fd76e14adc7d23a9822334cb389b369" target="_top" xlink:title=" ">
<polygon fill="white" stroke="black" points="184,-50 184,-69 356,-69 356,-50 184,-50"/>
<text text-anchor="middle" x="270" y="-57" font-family="Helvetica,sans-Serif" font-size="10.00">MainNamespace::globalOptions</text>
</a>
</g>
</g>
<!-- Node1&#45;&gt;Node2 -->
<g id="edge1" class="edge">
<title>Node1&#45;&gt;Node2</title>
<path fill="none" stroke="midnightblue" d="M148.07,-45.79C156.81,-46.78 165.82,-47.8 174.81,-48.82"/>
<polygon fill="midnightblue" stroke="midnightblue" points="174.59,-52.32 184.92,-49.97 175.38,-45.36 174.59,-52.32"/>
</g>
<!-- Node3 -->
<g id="node3" class="node">
<title>Node3</title>
<g id="a_node3"><a xlink:href="struct_main_namespace_1_1_options.html#a8d2158fc99c03c33d467c299101c5760" target="_top" xlink:title=" ">
<polygon fill="white" stroke="black" points="199,-0.5 199,-30.5 341,-30.5 341,-0.5 199,-0.5"/>
<text text-anchor="start" x="207" y="-18.5" font-family="Helvetica,sans-Serif" font-size="10.00">MainNamespace::Options</text>
<text text-anchor="middle" x="270" y="-7.5" font-family="Helvetica,sans-Serif" font-size="10.00">::meshFile</text>
</a>
</g>
</g>
<!-- Node1&#45;&gt;Node3 -->
<g id="edge2" class="edge">
<title>Node1&#45;&gt;Node3</title>
<path fill="none" stroke="midnightblue" d="M148.07,-29.21C161.33,-27.71 175.24,-26.13 188.7,-24.61"/>
<polygon fill="midnightblue" stroke="midnightblue" points="189.35,-28.06 198.89,-23.45 188.56,-21.1 189.35,-28.06"/>
</g>
</g>
</svg>
