<?xml version="1.0" encoding="UTF-8" standalone="no"?>
<!DOCTYPE svg PUBLIC "-//W3C//DTD SVG 1.1//EN"
 "http://www.w3.org/Graphics/SVG/1.1/DTD/svg11.dtd">
<!-- Generated by graphviz version 2.43.0 (0)
 -->
<!-- Title: MainNamespace::reference Pages: 1 -->
<svg width="1348pt" height="103pt"
 viewBox="0.00 0.00 1348.00 102.50" xmlns="http://www.w3.org/2000/svg" xmlns:xlink="http://www.w3.org/1999/xlink">
<g id="graph0" class="graph" transform="scale(1 1) rotate(0) translate(4 98.5)">
<title>MainNamespace::reference</title>
<polygon fill="white" stroke="transparent" points="-4,4 -4,-98.5 1344,-98.5 1344,4 -4,4"/>
<!-- Node1 -->
<g id="node1" class="node">
<title>Node1</title>
<g id="a_node1"><a xlink:title=" ">
<polygon fill="#bfbfbf" stroke="black" points="1189,-31 1189,-50 1340,-50 1340,-31 1189,-31"/>
<text text-anchor="middle" x="1264.5" y="-38" font-family="Helvetica,sans-Serif" font-size="10.00">MainNamespace::reference</text>
</a>
</g>
</g>
<!-- Node2 -->
<g id="node2" class="node">
<title>Node2</title>
<g id="a_node2"><a xlink:href="namespace_main_namespace.html#aaa553a0feb6a9e785dce2ea7c2f25481" target="_top" xlink:title="Build a dh2matrix for the operator described by bemDescription, using the given clusters.">
<polygon fill="white" stroke="black" points="959.5,-75 959.5,-94 1130.5,-94 1130.5,-75 959.5,-75"/>
<text text-anchor="middle" x="1045" y="-82" font-family="Helvetica,sans-Serif" font-size="10.00">MainNamespace::buildOperator</text>
</a>
</g>
</g>
<!-- Node1&#45;&gt;Node2 -->
<g id="edge1" class="edge">
<title>Node1&#45;&gt;Node2</title>
<path fill="none" stroke="midnightblue" d="M1213.54,-52.32C1194.62,-56.66 1172.86,-61.49 1153,-65.5 1136.63,-68.8 1118.79,-72.09 1102.46,-74.98"/>
<polygon fill="midnightblue" stroke="midnightblue" points="1214.49,-55.7 1223.44,-50.04 1212.91,-48.88 1214.49,-55.7"/>
</g>
<!-- Node9 -->
<g id="node9" class="node">
<title>Node9</title>
<g id="a_node9"><a xlink:href="class_main_namespace_1_1_surface_1_1_single_surface.html#acd075e5e7ea6304b2e99e6e8aeed29db" target="_top" xlink:title="Compute the energy error norm.">
<polygon fill="white" stroke="black" points="937,-25.5 937,-55.5 1153,-55.5 1153,-25.5 937,-25.5"/>
<text text-anchor="start" x="945" y="-43.5" font-family="Helvetica,sans-Serif" font-size="10.00">MainNamespace::Surface</text>
<text text-anchor="middle" x="1045" y="-32.5" font-family="Helvetica,sans-Serif" font-size="10.00">::SingleSurface::computeDifferenceNorm</text>
</a>
</g>
</g>
<!-- Node1&#45;&gt;Node9 -->
<g id="edge8" class="edge">
<title>Node1&#45;&gt;Node9</title>
<path fill="none" stroke="midnightblue" d="M1178.8,-40.5C1170.38,-40.5 1161.76,-40.5 1153.15,-40.5"/>
<polygon fill="midnightblue" stroke="midnightblue" points="1178.95,-44 1188.95,-40.5 1178.95,-37 1178.95,-44"/>
</g>
<!-- Node10 -->
<g id="node10" class="node">
<title>Node10</title>
<g id="a_node10"><a xlink:href="class_main_namespace_1_1_surface_1_1_multi_surface.html#a5e65e47cb2b222bd9a5e7cc40e1c23e1" target="_top" xlink:title="Compute the error in several ways.">
<polygon fill="white" stroke="black" points="752,-0.5 752,-30.5 893,-30.5 893,-0.5 752,-0.5"/>
<text text-anchor="start" x="760" y="-18.5" font-family="Helvetica,sans-Serif" font-size="10.00">MainNamespace::Surface</text>
<text text-anchor="middle" x="822.5" y="-7.5" font-family="Helvetica,sans-Serif" font-size="10.00">::MultiSurface::error</text>
</a>
</g>
</g>
<!-- Node1&#45;&gt;Node10 -->
<g id="edge9" class="edge">
<title>Node1&#45;&gt;Node10</title>
<path fill="none" stroke="midnightblue" d="M1220.13,-28.34C1199.9,-23.28 1175.41,-18 1153,-15.5 1063.74,-5.53 960.04,-7.79 893.17,-11.03"/>
<polygon fill="midnightblue" stroke="midnightblue" points="1219.42,-31.77 1229.98,-30.87 1221.16,-24.99 1219.42,-31.77"/>
</g>
<!-- Node3 -->
<g id="node3" class="node">
<title>Node3</title>
<g id="a_node3"><a xlink:href="class_main_namespace_1_1_d_h2_matrix_wrapper.html#a8b3117680075ec79bc0500f3e901b133" target="_top" xlink:title="Take ownership of, the pointer to the bem description and build the matrix and all needed data struct...">
<polygon fill="white" stroke="black" points="744,-59.5 744,-89.5 901,-89.5 901,-59.5 744,-59.5"/>
<text text-anchor="start" x="752" y="-77.5" font-family="Helvetica,sans-Serif" font-size="10.00">MainNamespace::DH2Matrix</text>
<text text-anchor="middle" x="822.5" y="-66.5" font-family="Helvetica,sans-Serif" font-size="10.00">Wrapper::build</text>
</a>
</g>
</g>
<!-- Node2&#45;&gt;Node3 -->
<g id="edge2" class="edge">
<title>Node2&#45;&gt;Node3</title>
<path fill="none" stroke="midnightblue" d="M948.94,-80.19C932.95,-79.46 916.51,-78.72 901.03,-78.02"/>
<polygon fill="midnightblue" stroke="midnightblue" points="949.23,-83.71 959.38,-80.66 949.55,-76.71 949.23,-83.71"/>
</g>
<!-- Node4 -->
<g id="node4" class="node">
<title>Node4</title>
<g id="a_node4"><a xlink:href="namespace_main_namespace_1_1_surface.html#a7e821744eeb79cb1faa8468d53cb7c1e" target="_top" xlink:title=" ">
<polygon fill="white" stroke="black" points="567,-47.5 567,-77.5 708,-77.5 708,-47.5 567,-47.5"/>
<text text-anchor="start" x="575" y="-65.5" font-family="Helvetica,sans-Serif" font-size="10.00">MainNamespace::Surface</text>
<text text-anchor="middle" x="637.5" y="-54.5" font-family="Helvetica,sans-Serif" font-size="10.00">::makeTmpApply</text>
</a>
</g>
</g>
<!-- Node3&#45;&gt;Node4 -->
<g id="edge3" class="edge">
<title>Node3&#45;&gt;Node4</title>
<path fill="none" stroke="midnightblue" d="M733.81,-68.75C725.18,-68.18 716.51,-67.62 708.1,-67.06"/>
<polygon fill="midnightblue" stroke="midnightblue" points="733.68,-72.25 743.89,-69.41 734.14,-65.26 733.68,-72.25"/>
</g>
<!-- Node5 -->
<g id="node5" class="node">
<title>Node5</title>
<g id="a_node5"><a xlink:href="class_main_namespace_1_1_surface_1_1_single_surface.html#a3321422c36eccd213cfc48823a9f54d7" target="_top" xlink:title="Project the offset on the current mesh, then use it to compute the right&#45;hand side.">
<polygon fill="white" stroke="black" points="366,-46.5 366,-76.5 531,-76.5 531,-46.5 366,-46.5"/>
<text text-anchor="start" x="374" y="-64.5" font-family="Helvetica,sans-Serif" font-size="10.00">MainNamespace::Surface</text>
<text text-anchor="middle" x="448.5" y="-53.5" font-family="Helvetica,sans-Serif" font-size="10.00">::SingleSurface::makeMultiRhs</text>
</a>
</g>
</g>
<!-- Node4&#45;&gt;Node5 -->
<g id="edge4" class="edge">
<title>Node4&#45;&gt;Node5</title>
<path fill="none" stroke="midnightblue" d="M556.67,-62.07C548.23,-62.03 539.64,-61.98 531.18,-61.94"/>
<polygon fill="midnightblue" stroke="midnightblue" points="556.85,-65.57 566.87,-62.13 556.89,-58.57 556.85,-65.57"/>
</g>
<!-- Node6 -->
<g id="node6" class="node">
<title>Node6</title>
<g id="a_node6"><a xlink:href="class_main_namespace_1_1_surface_1_1_multi_surface.html#a8839f7e49575079e39fbb95a692772a5" target="_top" xlink:title="Compute the right&#45;hand side, the operators, then solve the linear system.">
<polygon fill="white" stroke="black" points="189,-24.5 189,-54.5 330,-54.5 330,-24.5 189,-24.5"/>
<text text-anchor="start" x="197" y="-42.5" font-family="Helvetica,sans-Serif" font-size="10.00">MainNamespace::Surface</text>
<text text-anchor="middle" x="259.5" y="-31.5" font-family="Helvetica,sans-Serif" font-size="10.00">::MultiSurface::solve</text>
</a>
</g>
</g>
<!-- Node5&#45;&gt;Node6 -->
<g id="edge5" class="edge">
<title>Node5&#45;&gt;Node6</title>
<path fill="none" stroke="midnightblue" d="M355.67,-50.7C347.07,-49.68 338.44,-48.67 330.09,-47.69"/>
<polygon fill="midnightblue" stroke="midnightblue" points="355.41,-54.19 365.75,-51.88 356.23,-47.24 355.41,-54.19"/>
</g>
<!-- Node7 -->
<g id="node7" class="node">
<title>Node7</title>
<g id="a_node7"><a xlink:href="main_8cpp.html#a5d68713f22d1b3e2495b15d107ea7d21" target="_top" xlink:title=" ">
<polygon fill="white" stroke="black" points="77,-30 77,-49 153,-49 153,-30 77,-30"/>
<text text-anchor="middle" x="115" y="-37" font-family="Helvetica,sans-Serif" font-size="10.00">testProblem</text>
</a>
</g>
</g>
<!-- Node6&#45;&gt;Node7 -->
<g id="edge6" class="edge">
<title>Node6&#45;&gt;Node7</title>
<path fill="none" stroke="midnightblue" d="M178.85,-39.5C169.97,-39.5 161.27,-39.5 153.31,-39.5"/>
<polygon fill="midnightblue" stroke="midnightblue" points="178.92,-43 188.92,-39.5 178.92,-36 178.92,-43"/>
</g>
<!-- Node8 -->
<g id="node8" class="node">
<title>Node8</title>
<g id="a_node8"><a xlink:href="main_8cpp.html#a3c04138a5bfe5d72780bb7e82a18e627" target="_top" xlink:title=" ">
<polygon fill="white" stroke="black" points="0,-30 0,-49 41,-49 41,-30 0,-30"/>
<text text-anchor="middle" x="20.5" y="-37" font-family="Helvetica,sans-Serif" font-size="10.00">main</text>
</a>
</g>
</g>
<!-- Node7&#45;&gt;Node8 -->
<g id="edge7" class="edge">
<title>Node7&#45;&gt;Node8</title>
<path fill="none" stroke="midnightblue" d="M66.72,-39.5C57.65,-39.5 48.64,-39.5 41.07,-39.5"/>
<polygon fill="midnightblue" stroke="midnightblue" points="66.91,-43 76.91,-39.5 66.91,-36 66.91,-43"/>
</g>
<!-- Node10&#45;&gt;Node6 -->
<g id="edge10" class="edge">
<title>Node10&#45;&gt;Node6</title>
<path fill="none" stroke="midnightblue" d="M741.81,-18.91C631.63,-23.62 434.58,-32.05 330.05,-36.52"/>
<polygon fill="midnightblue" stroke="midnightblue" points="742.02,-22.4 751.87,-18.48 741.73,-15.41 742.02,-22.4"/>
</g>
</g>
</svg>
