<?xml version="1.0" encoding="UTF-8" standalone="no"?>
<!DOCTYPE svg PUBLIC "-//W3C//DTD SVG 1.1//EN"
 "http://www.w3.org/Graphics/SVG/1.1/DTD/svg11.dtd">
<!-- Generated by graphviz version 2.43.0 (0)
 -->
<!-- Title: MainNamespace::outputFile Pages: 1 -->
<svg width="527pt" height="72pt"
 viewBox="0.00 0.00 527.00 71.50" xmlns="http://www.w3.org/2000/svg" xmlns:xlink="http://www.w3.org/1999/xlink">
<g id="graph0" class="graph" transform="scale(1 1) rotate(0) translate(4 67.5)">
<title>MainNamespace::outputFile</title>
<polygon fill="white" stroke="transparent" points="-4,4 -4,-67.5 523,-67.5 523,4 -4,4"/>
<!-- Node1 -->
<g id="node1" class="node">
<title>Node1</title>
<g id="a_node1"><a xlink:title="Open a file for writing.">
<polygon fill="#bfbfbf" stroke="black" points="0,-19.5 0,-38.5 152,-38.5 152,-19.5 0,-19.5"/>
<text text-anchor="middle" x="76" y="-26.5" font-family="Helvetica,sans-Serif" font-size="10.00">MainNamespace::outputFile</text>
</a>
</g>
</g>
<!-- Node2 -->
<g id="node2" class="node">
<title>Node2</title>
<g id="a_node2"><a xlink:href="namespace_main_namespace_1_1_logger.html#afbb4cc2d8b498e71fcb228f0da8309a1" target="_top" xlink:title=" ">
<polygon fill="white" stroke="black" points="188,-38.5 188,-57.5 346,-57.5 346,-38.5 188,-38.5"/>
<text text-anchor="middle" x="267" y="-45.5" font-family="Helvetica,sans-Serif" font-size="10.00">MainNamespace::Logger::log</text>
</a>
</g>
</g>
<!-- Node1&#45;&gt;Node2 -->
<g id="edge1" class="edge">
<title>Node1&#45;&gt;Node2</title>
<path fill="none" stroke="midnightblue" d="M152.24,-36.56C160.68,-37.41 169.32,-38.28 177.9,-39.14"/>
<polygon fill="midnightblue" stroke="midnightblue" points="177.62,-42.63 187.92,-40.15 178.32,-35.67 177.62,-42.63"/>
</g>
<!-- Node4 -->
<g id="node4" class="node">
<title>Node4</title>
<g id="a_node4"><a xlink:href="namespace_main_namespace.html#a963bb0fc1186abae512b8fde5e8a078c" target="_top" xlink:title="Distribution warning (about h2lib and gmsh).">
<polygon fill="white" stroke="black" points="195.5,-0.5 195.5,-19.5 338.5,-19.5 338.5,-0.5 195.5,-0.5"/>
<text text-anchor="middle" x="267" y="-7.5" font-family="Helvetica,sans-Serif" font-size="10.00">MainNamespace::warning</text>
</a>
</g>
</g>
<!-- Node1&#45;&gt;Node4 -->
<g id="edge3" class="edge">
<title>Node1&#45;&gt;Node4</title>
<path fill="none" stroke="midnightblue" d="M152.24,-21.44C163.12,-20.34 174.35,-19.21 185.33,-18.11"/>
<polygon fill="midnightblue" stroke="midnightblue" points="185.72,-21.59 195.32,-17.11 185.02,-14.62 185.72,-21.59"/>
</g>
<!-- Node3 -->
<g id="node3" class="node">
<title>Node3</title>
<g id="a_node3"><a xlink:href="namespace_main_namespace_1_1_logger.html#af052b0198f333fca77f0837a511ec7f7" target="_top" xlink:title=" ">
<polygon fill="white" stroke="black" points="382,-33 382,-63 519,-63 519,-33 382,-33"/>
<text text-anchor="start" x="390" y="-51" font-family="Helvetica,sans-Serif" font-size="10.00">MainNamespace::Logger</text>
<text text-anchor="middle" x="450.5" y="-40" font-family="Helvetica,sans-Serif" font-size="10.00">::forwardLog</text>
</a>
</g>
</g>
<!-- Node2&#45;&gt;Node3 -->
<g id="edge2" class="edge">
<title>Node2&#45;&gt;Node3</title>
<path fill="none" stroke="midnightblue" d="M346.03,-48C354.5,-48 363.12,-48 371.59,-48"/>
<polygon fill="midnightblue" stroke="midnightblue" points="371.82,-51.5 381.82,-48 371.82,-44.5 371.82,-51.5"/>
</g>
</g>
</svg>
