<?xml version="1.0" encoding="UTF-8" standalone="no"?>
<!DOCTYPE svg PUBLIC "-//W3C//DTD SVG 1.1//EN"
 "http://www.w3.org/Graphics/SVG/1.1/DTD/svg11.dtd">
<!-- Generated by graphviz version 2.43.0 (0)
 -->
<!-- Title: lyra::operator&lt;&lt; Pages: 1 -->
<svg width="813pt" height="240pt"
 viewBox="0.00 0.00 813.00 239.50" xmlns="http://www.w3.org/2000/svg" xmlns:xlink="http://www.w3.org/1999/xlink">
<g id="graph0" class="graph" transform="scale(1 1) rotate(0) translate(4 235.5)">
<title>lyra::operator&lt;&lt;</title>
<polygon fill="white" stroke="transparent" points="-4,4 -4,-235.5 809,-235.5 809,4 -4,4"/>
<!-- Node1 -->
<g id="node1" class="node">
<title>Node1</title>
<g id="a_node1"><a xlink:title=" ">
<polygon fill="#bfbfbf" stroke="black" points="0,-162.5 0,-181.5 99,-181.5 99,-162.5 0,-162.5"/>
<text text-anchor="middle" x="49.5" y="-169.5" font-family="Helvetica,sans-Serif" font-size="10.00">lyra::operator&lt;&lt;</text>
</a>
</g>
</g>
<!-- Node2 -->
<g id="node2" class="node">
<title>Node2</title>
<g id="a_node2"><a xlink:href="classlyra_1_1arguments.html#a620f67bdd9518d9f7a0a5b0e3939c561" target="_top" xlink:title=" ">
<polygon fill="white" stroke="black" points="135,-162.5 135,-181.5 284,-181.5 284,-162.5 135,-162.5"/>
<text text-anchor="middle" x="209.5" y="-169.5" font-family="Helvetica,sans-Serif" font-size="10.00">lyra::arguments::print_help</text>
</a>
</g>
</g>
<!-- Node1&#45;&gt;Node2 -->
<g id="edge1" class="edge">
<title>Node1&#45;&gt;Node2</title>
<path fill="none" stroke="midnightblue" d="M99.19,-172C107.34,-172 115.99,-172 124.72,-172"/>
<polygon fill="midnightblue" stroke="midnightblue" points="124.98,-175.5 134.98,-172 124.98,-168.5 124.98,-175.5"/>
</g>
<!-- Node3 -->
<g id="node3" class="node">
<title>Node3</title>
<g id="a_node3"><a xlink:href="classlyra_1_1arguments.html#a9df61d2688325b486b441815bbc19f55" target="_top" xlink:title=" ">
<polygon fill="white" stroke="black" points="320,-201 320,-231 436,-231 436,-201 320,-201"/>
<text text-anchor="start" x="328" y="-219" font-family="Helvetica,sans-Serif" font-size="10.00">lyra::arguments::get</text>
<text text-anchor="middle" x="378" y="-208" font-family="Helvetica,sans-Serif" font-size="10.00">_option_style</text>
</a>
</g>
</g>
<!-- Node2&#45;&gt;Node3 -->
<g id="edge2" class="edge">
<title>Node2&#45;&gt;Node3</title>
<path fill="none" stroke="midnightblue" d="M246.63,-181.55C265.21,-186.46 288.45,-192.6 310.15,-198.33"/>
<polygon fill="midnightblue" stroke="midnightblue" points="309.43,-201.76 319.99,-200.93 311.22,-195 309.43,-201.76"/>
</g>
<!-- Node5 -->
<g id="node5" class="node">
<title>Node5</title>
<g id="a_node5"><a xlink:href="namespacelyra.html#a6fbb8f93af2d44173923423214d71d4c" target="_top" xlink:title=" ">
<polygon fill="white" stroke="black" points="325,-162.5 325,-181.5 431,-181.5 431,-162.5 325,-162.5"/>
<text text-anchor="middle" x="378" y="-169.5" font-family="Helvetica,sans-Serif" font-size="10.00">lyra::make_printer</text>
</a>
</g>
</g>
<!-- Node2&#45;&gt;Node5 -->
<g id="edge4" class="edge">
<title>Node2&#45;&gt;Node5</title>
<path fill="none" stroke="midnightblue" d="M284.01,-172C294.23,-172 304.64,-172 314.63,-172"/>
<polygon fill="midnightblue" stroke="midnightblue" points="314.85,-175.5 324.85,-172 314.85,-168.5 314.85,-175.5"/>
</g>
<!-- Node6 -->
<g id="node6" class="node">
<title>Node6</title>
<g id="a_node6"><a xlink:href="classlyra_1_1parser.html#a6f7fc59f0b9bb8119c16638743c637d8" target="_top" xlink:title=" ">
<polygon fill="white" stroke="black" points="327.5,-113 327.5,-143 428.5,-143 428.5,-113 327.5,-113"/>
<text text-anchor="start" x="335.5" y="-131" font-family="Helvetica,sans-Serif" font-size="10.00">lyra::parser::print</text>
<text text-anchor="middle" x="378" y="-120" font-family="Helvetica,sans-Serif" font-size="10.00">_help_text</text>
</a>
</g>
</g>
<!-- Node2&#45;&gt;Node6 -->
<g id="edge5" class="edge">
<title>Node2&#45;&gt;Node6</title>
<path fill="none" stroke="midnightblue" d="M246.63,-162.45C267.3,-156.99 293.75,-150 317.42,-143.75"/>
<polygon fill="midnightblue" stroke="midnightblue" points="318.59,-147.06 327.36,-141.12 316.8,-140.29 318.59,-147.06"/>
</g>
<!-- Node4 -->
<g id="node4" class="node">
<title>Node4</title>
<g id="a_node4"><a xlink:href="structlyra_1_1option__style.html#ad733f4434bb558b70262f04ae4b69e1d" target="_top" xlink:title=" ">
<polygon fill="white" stroke="black" points="481,-201 481,-231 582,-231 582,-201 481,-201"/>
<text text-anchor="start" x="489" y="-219" font-family="Helvetica,sans-Serif" font-size="10.00">lyra::option_style</text>
<text text-anchor="middle" x="531.5" y="-208" font-family="Helvetica,sans-Serif" font-size="10.00">::posix</text>
</a>
</g>
</g>
<!-- Node3&#45;&gt;Node4 -->
<g id="edge3" class="edge">
<title>Node3&#45;&gt;Node4</title>
<path fill="none" stroke="midnightblue" d="M436.28,-216C447.44,-216 459.17,-216 470.42,-216"/>
<polygon fill="midnightblue" stroke="midnightblue" points="470.59,-219.5 480.59,-216 470.59,-212.5 470.59,-219.5"/>
</g>
<!-- Node7 -->
<g id="node7" class="node">
<title>Node7</title>
<g id="a_node7"><a xlink:href="classlyra_1_1parser.html#a983e1c4c83992e0a636d41a38f0f7b0c" target="_top" xlink:title=" ">
<polygon fill="white" stroke="black" points="478.5,-133 478.5,-163 584.5,-163 584.5,-133 478.5,-133"/>
<text text-anchor="start" x="486.5" y="-151" font-family="Helvetica,sans-Serif" font-size="10.00">lyra::parser::print</text>
<text text-anchor="middle" x="531.5" y="-140" font-family="Helvetica,sans-Serif" font-size="10.00">_help_text_details</text>
</a>
</g>
</g>
<!-- Node6&#45;&gt;Node7 -->
<g id="edge6" class="edge">
<title>Node6&#45;&gt;Node7</title>
<path fill="none" stroke="midnightblue" d="M428.61,-134.55C441.33,-136.23 455.17,-138.06 468.44,-139.81"/>
<polygon fill="midnightblue" stroke="midnightblue" points="468.07,-143.29 478.44,-141.13 468.98,-136.35 468.07,-143.29"/>
</g>
<!-- Node11 -->
<g id="node11" class="node">
<title>Node11</title>
<g id="a_node11"><a xlink:href="classlyra_1_1parser.html#a9ca7f234f1c01a862266e05d91ed4a93" target="_top" xlink:title=" ">
<polygon fill="white" stroke="black" points="472,-71 472,-101 591,-101 591,-71 472,-71"/>
<text text-anchor="start" x="480" y="-89" font-family="Helvetica,sans-Serif" font-size="10.00">lyra::parser::print</text>
<text text-anchor="middle" x="531.5" y="-78" font-family="Helvetica,sans-Serif" font-size="10.00">_help_text_summary</text>
</a>
</g>
</g>
<!-- Node6&#45;&gt;Node11 -->
<g id="edge10" class="edge">
<title>Node6&#45;&gt;Node11</title>
<path fill="none" stroke="midnightblue" d="M428.61,-114.25C440.66,-110.91 453.72,-107.29 466.34,-103.79"/>
<polygon fill="midnightblue" stroke="midnightblue" points="467.63,-107.06 476.34,-101.02 465.76,-100.31 467.63,-107.06"/>
</g>
<!-- Node8 -->
<g id="node8" class="node">
<title>Node8</title>
<g id="a_node8"><a xlink:href="classlyra_1_1parser.html#ad897e66c1094cf09b5228c4b4c8eb5c5" target="_top" xlink:title=" ">
<polygon fill="white" stroke="black" points="643.5,-190.5 643.5,-209.5 788.5,-209.5 788.5,-190.5 643.5,-190.5"/>
<text text-anchor="middle" x="716" y="-197.5" font-family="Helvetica,sans-Serif" font-size="10.00">lyra::parser::get_help_text</text>
</a>
</g>
</g>
<!-- Node7&#45;&gt;Node8 -->
<g id="edge7" class="edge">
<title>Node7&#45;&gt;Node8</title>
<path fill="none" stroke="midnightblue" d="M572.16,-163.07C588.93,-169.12 608.77,-175.87 627,-181 636.16,-183.58 645.93,-186 655.52,-188.2"/>
<polygon fill="midnightblue" stroke="midnightblue" points="654.88,-191.65 665.4,-190.41 656.4,-184.81 654.88,-191.65"/>
</g>
<!-- Node9 -->
<g id="node9" class="node">
<title>Node9</title>
<g id="a_node9"><a xlink:href="classlyra_1_1printer.html#a7da793051885bba1d0a6e88149273a08" target="_top" xlink:title=" ">
<polygon fill="white" stroke="black" points="656.5,-114.5 656.5,-133.5 775.5,-133.5 775.5,-114.5 656.5,-114.5"/>
<text text-anchor="middle" x="716" y="-121.5" font-family="Helvetica,sans-Serif" font-size="10.00">lyra::printer::heading</text>
</a>
</g>
</g>
<!-- Node7&#45;&gt;Node9 -->
<g id="edge8" class="edge">
<title>Node7&#45;&gt;Node9</title>
<path fill="none" stroke="midnightblue" d="M584.8,-141.12C603.9,-138.61 625.81,-135.73 646.13,-133.06"/>
<polygon fill="midnightblue" stroke="midnightblue" points="646.82,-136.5 656.28,-131.72 645.91,-129.56 646.82,-136.5"/>
</g>
<!-- Node10 -->
<g id="node10" class="node">
<title>Node10</title>
<g id="a_node10"><a xlink:href="classlyra_1_1printer.html#a635b6e488f786e22f86197f36ff31b69" target="_top" xlink:title=" ">
<polygon fill="white" stroke="black" points="661,-152.5 661,-171.5 771,-171.5 771,-152.5 661,-152.5"/>
<text text-anchor="middle" x="716" y="-159.5" font-family="Helvetica,sans-Serif" font-size="10.00">lyra::printer::option</text>
</a>
</g>
</g>
<!-- Node7&#45;&gt;Node10 -->
<g id="edge9" class="edge">
<title>Node7&#45;&gt;Node10</title>
<path fill="none" stroke="midnightblue" d="M584.8,-152.01C605.35,-153.59 629.14,-155.41 650.72,-157.07"/>
<polygon fill="midnightblue" stroke="midnightblue" points="650.55,-160.57 660.79,-157.84 651.09,-153.59 650.55,-160.57"/>
</g>
<!-- Node11&#45;&gt;Node9 -->
<g id="edge13" class="edge">
<title>Node11&#45;&gt;Node9</title>
<path fill="none" stroke="midnightblue" d="M591.25,-98.23C613.02,-102.77 637.63,-107.89 659.13,-112.37"/>
<polygon fill="midnightblue" stroke="midnightblue" points="658.59,-115.83 669.09,-114.44 660.01,-108.98 658.59,-115.83"/>
</g>
<!-- Node12 -->
<g id="node12" class="node">
<title>Node12</title>
<g id="a_node12"><a xlink:href="classlyra_1_1parser.html#a420cbfdfb4e222155591fd2a5896e5d7" target="_top" xlink:title=" ">
<polygon fill="white" stroke="black" points="627,-76.5 627,-95.5 805,-95.5 805,-76.5 627,-76.5"/>
<text text-anchor="middle" x="716" y="-83.5" font-family="Helvetica,sans-Serif" font-size="10.00">lyra::parser::get_description_text</text>
</a>
</g>
</g>
<!-- Node11&#45;&gt;Node12 -->
<g id="edge11" class="edge">
<title>Node11&#45;&gt;Node12</title>
<path fill="none" stroke="midnightblue" d="M591.25,-86C599.41,-86 607.97,-86 616.62,-86"/>
<polygon fill="midnightblue" stroke="midnightblue" points="616.8,-89.5 626.8,-86 616.8,-82.5 616.8,-89.5"/>
</g>
<!-- Node13 -->
<g id="node13" class="node">
<title>Node13</title>
<g id="a_node13"><a xlink:href="classlyra_1_1parser.html#a59a2a42cea85955a811279a463777b9d" target="_top" xlink:title=" ">
<polygon fill="white" stroke="black" points="639.5,-38.5 639.5,-57.5 792.5,-57.5 792.5,-38.5 639.5,-38.5"/>
<text text-anchor="middle" x="716" y="-45.5" font-family="Helvetica,sans-Serif" font-size="10.00">lyra::parser::get_usage_text</text>
</a>
</g>
</g>
<!-- Node11&#45;&gt;Node13 -->
<g id="edge12" class="edge">
<title>Node11&#45;&gt;Node13</title>
<path fill="none" stroke="midnightblue" d="M591.25,-73.77C613.02,-69.23 637.63,-64.11 659.13,-59.63"/>
<polygon fill="midnightblue" stroke="midnightblue" points="660.01,-63.02 669.09,-57.56 658.59,-56.17 660.01,-63.02"/>
</g>
<!-- Node14 -->
<g id="node14" class="node">
<title>Node14</title>
<g id="a_node14"><a xlink:href="classlyra_1_1printer.html#a9483c878eaa7e07ec69a92987834a62e" target="_top" xlink:title=" ">
<polygon fill="white" stroke="black" points="651.5,-0.5 651.5,-19.5 780.5,-19.5 780.5,-0.5 651.5,-0.5"/>
<text text-anchor="middle" x="716" y="-7.5" font-family="Helvetica,sans-Serif" font-size="10.00">lyra::printer::paragraph</text>
</a>
</g>
</g>
<!-- Node11&#45;&gt;Node14 -->
<g id="edge14" class="edge">
<title>Node11&#45;&gt;Node14</title>
<path fill="none" stroke="midnightblue" d="M552.85,-70.99C571.32,-58.06 599.75,-39.81 627,-29 633.59,-26.38 640.61,-24.1 647.7,-22.11"/>
<polygon fill="midnightblue" stroke="midnightblue" points="648.59,-25.49 657.38,-19.58 646.82,-18.72 648.59,-25.49"/>
</g>
</g>
</svg>
