<?xml version="1.0" encoding="UTF-8" standalone="no"?>
<!DOCTYPE svg PUBLIC "-//W3C//DTD SVG 1.1//EN"
 "http://www.w3.org/Graphics/SVG/1.1/DTD/svg11.dtd">
<!-- Generated by graphviz version 2.43.0 (0)
 -->
<!-- Title: MainNamespace::copyrightNotice Pages: 1 -->
<svg width="471pt" height="39pt"
 viewBox="0.00 0.00 471.00 39.00" xmlns="http://www.w3.org/2000/svg" xmlns:xlink="http://www.w3.org/1999/xlink">
<g id="graph0" class="graph" transform="scale(1 1) rotate(0) translate(4 35)">
<title>MainNamespace::copyrightNotice</title>
<polygon fill="white" stroke="transparent" points="-4,4 -4,-35 467,-35 467,4 -4,4"/>
<!-- Node1 -->
<g id="node1" class="node">
<title>Node1</title>
<g id="a_node1"><a xlink:title="Library copyright notice.">
<polygon fill="#bfbfbf" stroke="black" points="0,-0.5 0,-30.5 150,-30.5 150,-0.5 0,-0.5"/>
<text text-anchor="start" x="8" y="-18.5" font-family="Helvetica,sans-Serif" font-size="10.00">MainNamespace::copyright</text>
<text text-anchor="middle" x="75" y="-7.5" font-family="Helvetica,sans-Serif" font-size="10.00">Notice</text>
</a>
</g>
</g>
<!-- Node2 -->
<g id="node2" class="node">
<title>Node2</title>
<g id="a_node2"><a xlink:href="namespace_main_namespace.html#adf78e2df8053674479f9eb2824b66f71" target="_top" xlink:title="Library short info.">
<polygon fill="white" stroke="black" points="186,-6 186,-25 309,-25 309,-6 186,-6"/>
<text text-anchor="middle" x="247.5" y="-13" font-family="Helvetica,sans-Serif" font-size="10.00">MainNamespace::info</text>
</a>
</g>
</g>
<!-- Node1&#45;&gt;Node2 -->
<g id="edge1" class="edge">
<title>Node1&#45;&gt;Node2</title>
<path fill="none" stroke="midnightblue" d="M150.29,-15.5C158.71,-15.5 167.28,-15.5 175.65,-15.5"/>
<polygon fill="midnightblue" stroke="midnightblue" points="175.75,-19 185.75,-15.5 175.75,-12 175.75,-19"/>
</g>
<!-- Node3 -->
<g id="node3" class="node">
<title>Node3</title>
<g id="a_node3"><a xlink:href="namespacelyra_1_1detail.html#ae65bbfceff11344e7ae2b7f28bebcdb7" target="_top" xlink:title=" ">
<polygon fill="white" stroke="black" points="345,-6 345,-25 463,-25 463,-6 345,-6"/>
<text text-anchor="middle" x="404" y="-13" font-family="Helvetica,sans-Serif" font-size="10.00">lyra::detail::to_string</text>
</a>
</g>
</g>
<!-- Node2&#45;&gt;Node3 -->
<g id="edge2" class="edge">
<title>Node2&#45;&gt;Node3</title>
<path fill="none" stroke="midnightblue" d="M309.12,-15.5C317.47,-15.5 326.1,-15.5 334.58,-15.5"/>
<polygon fill="midnightblue" stroke="midnightblue" points="334.83,-19 344.83,-15.5 334.83,-12 334.83,-19"/>
</g>
</g>
</svg>
