<?xml version="1.0" encoding="UTF-8" standalone="no"?>
<!DOCTYPE svg PUBLIC "-//W3C//DTD SVG 1.1//EN"
 "http://www.w3.org/Graphics/SVG/1.1/DTD/svg11.dtd">
<!-- Generated by graphviz version 2.43.0 (0)
 -->
<!-- Title: MainNamespace::count Pages: 1 -->
<svg width="626pt" height="116pt"
 viewBox="0.00 0.00 626.00 115.50" xmlns="http://www.w3.org/2000/svg" xmlns:xlink="http://www.w3.org/1999/xlink">
<g id="graph0" class="graph" transform="scale(1 1) rotate(0) translate(4 111.5)">
<title>MainNamespace::count</title>
<polygon fill="white" stroke="transparent" points="-4,4 -4,-111.5 622,-111.5 622,4 -4,4"/>
<!-- Node1 -->
<g id="node1" class="node">
<title>Node1</title>
<g id="a_node1"><a xlink:title=" ">
<polygon fill="#bfbfbf" stroke="black" points="487,-50 487,-69 618,-69 618,-50 487,-50"/>
<text text-anchor="middle" x="552.5" y="-57" font-family="Helvetica,sans-Serif" font-size="10.00">MainNamespace::count</text>
</a>
</g>
</g>
<!-- Node2 -->
<g id="node2" class="node">
<title>Node2</title>
<g id="a_node2"><a xlink:href="doc__example4_8cpp.html#a217dbf8b442f20279ea00b898af96f52" target="_top" xlink:title=" ">
<polygon fill="white" stroke="black" points="355.5,-88 355.5,-107 396.5,-107 396.5,-88 355.5,-88"/>
<text text-anchor="middle" x="376" y="-95" font-family="Helvetica,sans-Serif" font-size="10.00">main</text>
</a>
</g>
</g>
<!-- Node1&#45;&gt;Node2 -->
<g id="edge1" class="edge">
<title>Node1&#45;&gt;Node2</title>
<path fill="none" stroke="midnightblue" d="M497.6,-71.24C463.42,-78.68 421.19,-87.88 396.85,-93.18"/>
<polygon fill="midnightblue" stroke="midnightblue" points="498.44,-74.64 507.47,-69.09 496.95,-67.8 498.44,-74.64"/>
</g>
<!-- Node3 -->
<g id="node3" class="node">
<title>Node3</title>
<g id="a_node3"><a xlink:href="classlyra_1_1arguments.html#a4509f3d7139b3cd823dcad3c75ae221b" target="_top" xlink:title=" ">
<polygon fill="white" stroke="black" points="301,-50 301,-69 451,-69 451,-50 301,-50"/>
<text text-anchor="middle" x="376" y="-57" font-family="Helvetica,sans-Serif" font-size="10.00">lyra::arguments::parse_any</text>
</a>
</g>
</g>
<!-- Node1&#45;&gt;Node3 -->
<g id="edge2" class="edge">
<title>Node1&#45;&gt;Node3</title>
<path fill="none" stroke="midnightblue" d="M476.4,-59.5C468.03,-59.5 459.5,-59.5 451.14,-59.5"/>
<polygon fill="midnightblue" stroke="midnightblue" points="476.52,-63 486.52,-59.5 476.52,-56 476.52,-63"/>
</g>
<!-- Node6 -->
<g id="node6" class="node">
<title>Node6</title>
<g id="a_node6"><a xlink:href="classlyra_1_1arguments.html#a125da5640a06de6f9268328a252e20d2" target="_top" xlink:title=" ">
<polygon fill="white" stroke="black" points="312.5,-0.5 312.5,-30.5 439.5,-30.5 439.5,-0.5 312.5,-0.5"/>
<text text-anchor="start" x="320.5" y="-18.5" font-family="Helvetica,sans-Serif" font-size="10.00">lyra::arguments::parse</text>
<text text-anchor="middle" x="376" y="-7.5" font-family="Helvetica,sans-Serif" font-size="10.00">_sequence</text>
</a>
</g>
</g>
<!-- Node1&#45;&gt;Node6 -->
<g id="edge5" class="edge">
<title>Node1&#45;&gt;Node6</title>
<path fill="none" stroke="midnightblue" d="M503.81,-47.47C483.11,-42.25 458.64,-36.09 436.75,-30.57"/>
<polygon fill="midnightblue" stroke="midnightblue" points="503.08,-50.9 513.64,-49.95 504.8,-44.11 503.08,-50.9"/>
</g>
<!-- Node4 -->
<g id="node4" class="node">
<title>Node4</title>
<g id="a_node4"><a xlink:href="classlyra_1_1arguments.html#abaa776f2a0b2c57de970cf35bd59c47c" target="_top" xlink:title=" ">
<polygon fill="white" stroke="black" points="138,-28 138,-47 265,-47 265,-28 138,-28"/>
<text text-anchor="middle" x="201.5" y="-35" font-family="Helvetica,sans-Serif" font-size="10.00">lyra::arguments::parse</text>
</a>
</g>
</g>
<!-- Node3&#45;&gt;Node4 -->
<g id="edge3" class="edge">
<title>Node3&#45;&gt;Node4</title>
<path fill="none" stroke="midnightblue" d="M290.77,-48.76C282.17,-47.66 273.54,-46.56 265.22,-45.5"/>
<polygon fill="midnightblue" stroke="midnightblue" points="290.48,-52.25 300.84,-50.04 291.37,-45.31 290.48,-52.25"/>
</g>
<!-- Node5 -->
<g id="node5" class="node">
<title>Node5</title>
<g id="a_node5"><a xlink:href="classlyra_1_1group.html#a8b373ee89b9aa7d62c3a2045f4dc4a3c" target="_top" xlink:title=" ">
<polygon fill="white" stroke="black" points="0,-28 0,-47 102,-47 102,-28 0,-28"/>
<text text-anchor="middle" x="51" y="-35" font-family="Helvetica,sans-Serif" font-size="10.00">lyra::group::parse</text>
</a>
</g>
</g>
<!-- Node4&#45;&gt;Node5 -->
<g id="edge4" class="edge">
<title>Node4&#45;&gt;Node5</title>
<path fill="none" stroke="midnightblue" d="M127.85,-37.5C119.21,-37.5 110.54,-37.5 102.31,-37.5"/>
<polygon fill="midnightblue" stroke="midnightblue" points="127.95,-41 137.95,-37.5 127.95,-34 127.95,-41"/>
</g>
<!-- Node6&#45;&gt;Node4 -->
<g id="edge6" class="edge">
<title>Node6&#45;&gt;Node4</title>
<path fill="none" stroke="midnightblue" d="M302.05,-24.8C289.8,-26.37 277.18,-27.98 265.22,-29.5"/>
<polygon fill="midnightblue" stroke="midnightblue" points="302.76,-28.24 312.24,-23.5 301.87,-21.3 302.76,-28.24"/>
</g>
</g>
</svg>
