<?xml version="1.0" encoding="UTF-8" standalone="no"?>
<!DOCTYPE svg PUBLIC "-//W3C//DTD SVG 1.1//EN"
 "http://www.w3.org/Graphics/SVG/1.1/DTD/svg11.dtd">
<!-- Generated by graphviz version 2.43.0 (0)
 -->
<!-- Title: MainNamespace::Surface::flipForOrientation Pages: 1 -->
<svg width="997pt" height="132pt"
 viewBox="0.00 0.00 997.00 132.00" xmlns="http://www.w3.org/2000/svg" xmlns:xlink="http://www.w3.org/1999/xlink">
<g id="graph0" class="graph" transform="scale(1 1) rotate(0) translate(4 128)">
<title>MainNamespace::Surface::flipForOrientation</title>
<polygon fill="white" stroke="transparent" points="-4,4 -4,-128 993,-128 993,4 -4,4"/>
<!-- Node1 -->
<g id="node1" class="node">
<title>Node1</title>
<g id="a_node1"><a xlink:title=" ">
<polygon fill="#bfbfbf" stroke="black" points="848,-24.5 848,-54.5 989,-54.5 989,-24.5 848,-24.5"/>
<text text-anchor="start" x="856" y="-42.5" font-family="Helvetica,sans-Serif" font-size="10.00">MainNamespace::Surface</text>
<text text-anchor="middle" x="918.5" y="-31.5" font-family="Helvetica,sans-Serif" font-size="10.00">::flipForOrientation</text>
</a>
</g>
</g>
<!-- Node2 -->
<g id="node2" class="node">
<title>Node2</title>
<g id="a_node2"><a xlink:href="class_main_namespace_1_1_surface_1_1_single_surface.html#a18885e3f98157c025137d7668fe65301" target="_top" xlink:title="Apply the (scaled) Calderón operator (previously constructed) to the source vector,...">
<polygon fill="white" stroke="black" points="659,-49.5 659,-79.5 800,-79.5 800,-49.5 659,-49.5"/>
<text text-anchor="start" x="667" y="-67.5" font-family="Helvetica,sans-Serif" font-size="10.00">MainNamespace::Surface</text>
<text text-anchor="middle" x="729.5" y="-56.5" font-family="Helvetica,sans-Serif" font-size="10.00">::SingleSurface::apply</text>
</a>
</g>
</g>
<!-- Node1&#45;&gt;Node2 -->
<g id="edge1" class="edge">
<title>Node1&#45;&gt;Node2</title>
<path fill="none" stroke="midnightblue" d="M837.9,-50.14C825.36,-51.82 812.48,-53.54 800.19,-55.18"/>
<polygon fill="midnightblue" stroke="midnightblue" points="838.42,-53.6 847.87,-48.81 837.49,-46.67 838.42,-53.6"/>
</g>
<!-- Node9 -->
<g id="node9" class="node">
<title>Node9</title>
<g id="a_node9"><a xlink:href="class_main_namespace_1_1_surface_1_1_single_surface.html#a3321422c36eccd213cfc48823a9f54d7" target="_top" xlink:title="Project the offset on the current mesh, then use it to compute the right&#45;hand side.">
<polygon fill="white" stroke="black" points="647,-0.5 647,-30.5 812,-30.5 812,-0.5 647,-0.5"/>
<text text-anchor="start" x="655" y="-18.5" font-family="Helvetica,sans-Serif" font-size="10.00">MainNamespace::Surface</text>
<text text-anchor="middle" x="729.5" y="-7.5" font-family="Helvetica,sans-Serif" font-size="10.00">::SingleSurface::makeMultiRhs</text>
</a>
</g>
</g>
<!-- Node1&#45;&gt;Node9 -->
<g id="edge8" class="edge">
<title>Node1&#45;&gt;Node9</title>
<path fill="none" stroke="midnightblue" d="M837.95,-29.29C829.42,-28.2 820.73,-27.08 812.18,-25.98"/>
<polygon fill="midnightblue" stroke="midnightblue" points="837.5,-32.76 847.87,-30.56 838.4,-25.82 837.5,-32.76"/>
</g>
<!-- Node3 -->
<g id="node3" class="node">
<title>Node3</title>
<g id="a_node3"><a xlink:href="namespace_main_namespace_1_1_surface.html#a3d4fd69e80b2e323edeed0442aff254a" target="_top" xlink:title=" ">
<polygon fill="white" stroke="black" points="455.5,-93.5 455.5,-123.5 596.5,-123.5 596.5,-93.5 455.5,-93.5"/>
<text text-anchor="start" x="463.5" y="-111.5" font-family="Helvetica,sans-Serif" font-size="10.00">MainNamespace::Surface</text>
<text text-anchor="middle" x="526" y="-100.5" font-family="Helvetica,sans-Serif" font-size="10.00">::energyNorm</text>
</a>
</g>
</g>
<!-- Node2&#45;&gt;Node3 -->
<g id="edge2" class="edge">
<title>Node2&#45;&gt;Node3</title>
<path fill="none" stroke="midnightblue" d="M649.91,-81.66C632.06,-85.56 613.23,-89.67 595.81,-93.47"/>
<polygon fill="midnightblue" stroke="midnightblue" points="650.7,-85.07 659.72,-79.52 649.2,-78.23 650.7,-85.07"/>
</g>
<!-- Node5 -->
<g id="node5" class="node">
<title>Node5</title>
<g id="a_node5"><a xlink:href="class_main_namespace_1_1_surface_1_1_single_surface.html#aae06e89e8298b8e0708f7e6096328f84" target="_top" xlink:title="Project the offset on the current mesh, then use it to compute the right&#45;hand side.">
<polygon fill="white" stroke="black" points="441,-44.5 441,-74.5 611,-74.5 611,-44.5 441,-44.5"/>
<text text-anchor="start" x="449" y="-62.5" font-family="Helvetica,sans-Serif" font-size="10.00">MainNamespace::Surface</text>
<text text-anchor="middle" x="526" y="-51.5" font-family="Helvetica,sans-Serif" font-size="10.00">::SingleSurface::makeSingleRhs</text>
</a>
</g>
</g>
<!-- Node2&#45;&gt;Node5 -->
<g id="edge4" class="edge">
<title>Node2&#45;&gt;Node5</title>
<path fill="none" stroke="midnightblue" d="M648.66,-62.52C636.36,-62.21 623.62,-61.9 611.22,-61.59"/>
<polygon fill="midnightblue" stroke="midnightblue" points="648.79,-66.02 658.87,-62.77 648.96,-59.03 648.79,-66.02"/>
</g>
<!-- Node4 -->
<g id="node4" class="node">
<title>Node4</title>
<g id="a_node4"><a xlink:href="class_main_namespace_1_1_surface_1_1_single_surface.html#acd075e5e7ea6304b2e99e6e8aeed29db" target="_top" xlink:title="Compute the energy error norm.">
<polygon fill="white" stroke="black" points="189,-93.5 189,-123.5 405,-123.5 405,-93.5 189,-93.5"/>
<text text-anchor="start" x="197" y="-111.5" font-family="Helvetica,sans-Serif" font-size="10.00">MainNamespace::Surface</text>
<text text-anchor="middle" x="297" y="-100.5" font-family="Helvetica,sans-Serif" font-size="10.00">::SingleSurface::computeDifferenceNorm</text>
</a>
</g>
</g>
<!-- Node3&#45;&gt;Node4 -->
<g id="edge3" class="edge">
<title>Node3&#45;&gt;Node4</title>
<path fill="none" stroke="midnightblue" d="M445.12,-108.5C432.18,-108.5 418.59,-108.5 405.13,-108.5"/>
<polygon fill="midnightblue" stroke="midnightblue" points="445.35,-112 455.35,-108.5 445.35,-105 445.35,-112"/>
</g>
<!-- Node6 -->
<g id="node6" class="node">
<title>Node6</title>
<g id="a_node6"><a xlink:href="class_main_namespace_1_1_surface_1_1_multi_surface.html#a8839f7e49575079e39fbb95a692772a5" target="_top" xlink:title="Compute the right&#45;hand side, the operators, then solve the linear system.">
<polygon fill="white" stroke="black" points="226.5,-22.5 226.5,-52.5 367.5,-52.5 367.5,-22.5 226.5,-22.5"/>
<text text-anchor="start" x="234.5" y="-40.5" font-family="Helvetica,sans-Serif" font-size="10.00">MainNamespace::Surface</text>
<text text-anchor="middle" x="297" y="-29.5" font-family="Helvetica,sans-Serif" font-size="10.00">::MultiSurface::solve</text>
</a>
</g>
</g>
<!-- Node5&#45;&gt;Node6 -->
<g id="edge5" class="edge">
<title>Node5&#45;&gt;Node6</title>
<path fill="none" stroke="midnightblue" d="M430.82,-50.37C409.64,-48.32 387.54,-46.18 367.59,-44.24"/>
<polygon fill="midnightblue" stroke="midnightblue" points="430.51,-53.86 440.8,-51.34 431.18,-46.89 430.51,-53.86"/>
</g>
<!-- Node7 -->
<g id="node7" class="node">
<title>Node7</title>
<g id="a_node7"><a xlink:href="main_8cpp.html#a5d68713f22d1b3e2495b15d107ea7d21" target="_top" xlink:title=" ">
<polygon fill="white" stroke="black" points="77,-28 77,-47 153,-47 153,-28 77,-28"/>
<text text-anchor="middle" x="115" y="-35" font-family="Helvetica,sans-Serif" font-size="10.00">testProblem</text>
</a>
</g>
</g>
<!-- Node6&#45;&gt;Node7 -->
<g id="edge6" class="edge">
<title>Node6&#45;&gt;Node7</title>
<path fill="none" stroke="midnightblue" d="M216.38,-37.5C194.38,-37.5 171.54,-37.5 153.21,-37.5"/>
<polygon fill="midnightblue" stroke="midnightblue" points="216.41,-41 226.41,-37.5 216.41,-34 216.41,-41"/>
</g>
<!-- Node8 -->
<g id="node8" class="node">
<title>Node8</title>
<g id="a_node8"><a xlink:href="main_8cpp.html#a3c04138a5bfe5d72780bb7e82a18e627" target="_top" xlink:title=" ">
<polygon fill="white" stroke="black" points="0,-28 0,-47 41,-47 41,-28 0,-28"/>
<text text-anchor="middle" x="20.5" y="-35" font-family="Helvetica,sans-Serif" font-size="10.00">main</text>
</a>
</g>
</g>
<!-- Node7&#45;&gt;Node8 -->
<g id="edge7" class="edge">
<title>Node7&#45;&gt;Node8</title>
<path fill="none" stroke="midnightblue" d="M66.72,-37.5C57.65,-37.5 48.64,-37.5 41.07,-37.5"/>
<polygon fill="midnightblue" stroke="midnightblue" points="66.91,-41 76.91,-37.5 66.91,-34 66.91,-41"/>
</g>
<!-- Node9&#45;&gt;Node6 -->
<g id="edge9" class="edge">
<title>Node9&#45;&gt;Node6</title>
<path fill="none" stroke="midnightblue" d="M636.63,-20.19C556.11,-24.31 440.8,-30.2 367.68,-33.94"/>
<polygon fill="midnightblue" stroke="midnightblue" points="636.96,-23.68 646.77,-19.68 636.6,-16.69 636.96,-23.68"/>
</g>
</g>
</svg>
