<?xml version="1.0" encoding="UTF-8" standalone="no"?>
<!DOCTYPE svg PUBLIC "-//W3C//DTD SVG 1.1//EN"
 "http://www.w3.org/Graphics/SVG/1.1/DTD/svg11.dtd">
<!-- Generated by graphviz version 2.43.0 (0)
 -->
<!-- Title: MainNamespace::Surface::doGmres Pages: 1 -->
<!--zoomable 241 -->
<svg id="main" version="1.1" xmlns="http://www.w3.org/2000/svg" xmlns:xlink="http://www.w3.org/1999/xlink" xml:space="preserve" onload="init(evt)">
<style type="text/css"><![CDATA[
.edge:hover path { stroke: red; }
.edge:hover polygon { stroke: red; fill: red; }
]]></style>
<script type="text/javascript"><![CDATA[
var edges = document.getElementsByTagName('g');
if (edges && edges.length) {
  for (var i=0;i<edges.length;i++) {
    if (edges[i].id.substr(0,4)=='edge') {
      edges[i].setAttribute('class','edge');
    }
  }
}
]]></script>
        <defs>
                <circle id="rim" cx="0" cy="0" r="7"/>
                <circle id="rim2" cx="0" cy="0" r="3.5"/>
                <g id="zoomPlus">
                        <use xlink:href="#rim" fill="#404040">
                                <set attributeName="fill" to="#808080" begin="zoomplus.mouseover" end="zoomplus.mouseout"/>
                        </use>
                        <path d="M-4,0h8M0,-4v8" fill="none" stroke="white" stroke-width="1.5" pointer-events="none"/>
                </g>
                <g id="zoomMin">
                        <use xlink:href="#rim" fill="#404040">
                                <set attributeName="fill" to="#808080" begin="zoomminus.mouseover" end="zoomminus.mouseout"/>
                        </use>
                        <path d="M-4,0h8" fill="none" stroke="white" stroke-width="1.5" pointer-events="none"/>
                </g>
                <g id="dirArrow">
                        <path fill="none" stroke="white" stroke-width="1.5" d="M0,-3.0v7 M-2.5,-0.5L0,-3.0L2.5,-0.5"/>
                </g>
               <g id="resetDef">
                       <use xlink:href="#rim2" fill="#404040">
                               <set attributeName="fill" to="#808080" begin="reset.mouseover" end="reset.mouseout"/>
                       </use>
               </g>
        </defs>

<script type="text/javascript">
var viewWidth = 707;
var viewHeight = 241;
var sectionId = 'dynsection-5';
</script>
<script xlink:href="svgpan.js"/>
<svg id="graph" class="graph">
<g id="viewport">
<title>MainNamespace::Surface::doGmres</title>
<polygon fill="white" stroke="transparent" points="-4,4 -4,-236.5 703,-236.5 703,4 -4,4"/>
<!-- Node1 -->
<g id="node1" class="node">
<title>Node1</title>
<g id="a_node1"><a xlink:title=" ">
<polygon fill="#bfbfbf" stroke="black" points="0,-90 0,-120 141,-120 141,-90 0,-90"/>
<text text-anchor="start" x="8" y="-108" font-family="Helvetica,sans-Serif" font-size="10.00">MainNamespace::Surface</text>
<text text-anchor="middle" x="70.5" y="-97" font-family="Helvetica,sans-Serif" font-size="10.00">::doGmres</text>
</a>
</g>
</g>
<!-- Node2 -->
<g id="node2" class="node">
<title>Node2</title>
<g id="a_node2"><a xlink:href="namespace_main_namespace.html#a3e5f44dcb13e7df16570ec7993a4e348" target="_top" xlink:title=" ">
<polygon fill="white" stroke="black" points="179.5,-190.5 179.5,-209.5 334.5,-209.5 334.5,-190.5 179.5,-190.5"/>
<text text-anchor="middle" x="257" y="-197.5" font-family="Helvetica,sans-Serif" font-size="10.00">MainNamespace::dimKrylov</text>
</a>
</g>
</g>
<!-- Node1&#45;&gt;Node2 -->
<g id="edge1" class="edge">
<title>Node1&#45;&gt;Node2</title>
<path fill="none" stroke="midnightblue" d="M88.11,-120.16C107.87,-137.4 142.53,-165.19 177,-181 182.34,-183.45 188.03,-185.6 193.82,-187.5"/>
<polygon fill="midnightblue" stroke="midnightblue" points="193.03,-190.91 203.61,-190.44 195.04,-184.21 193.03,-190.91"/>
</g>
<!-- Node3 -->
<g id="node3" class="node">
<title>Node3</title>
<g id="a_node3"><a xlink:href="namespace_main_namespace.html#ad7b9e400a2260e83b81b231cb20657a7" target="_top" xlink:title=" ">
<polygon fill="white" stroke="black" points="180.5,-152.5 180.5,-171.5 333.5,-171.5 333.5,-152.5 180.5,-152.5"/>
<text text-anchor="middle" x="257" y="-159.5" font-family="Helvetica,sans-Serif" font-size="10.00">MainNamespace::epsKrylov</text>
</a>
</g>
</g>
<!-- Node1&#45;&gt;Node3 -->
<g id="edge2" class="edge">
<title>Node1&#45;&gt;Node3</title>
<path fill="none" stroke="midnightblue" d="M110.24,-120.11C130.04,-127.53 154.62,-136.3 177,-143 185.35,-145.5 194.26,-147.9 202.99,-150.1"/>
<polygon fill="midnightblue" stroke="midnightblue" points="202.17,-153.5 212.72,-152.5 203.85,-146.71 202.17,-153.5"/>
</g>
<!-- Node6 -->
<g id="node6" class="node">
<title>Node6</title>
<g id="a_node6"><a xlink:href="namespace_main_namespace_1_1_logger.html#afbb4cc2d8b498e71fcb228f0da8309a1" target="_top" xlink:title=" ">
<polygon fill="white" stroke="black" points="178,-38.5 178,-57.5 336,-57.5 336,-38.5 178,-38.5"/>
<text text-anchor="middle" x="257" y="-45.5" font-family="Helvetica,sans-Serif" font-size="10.00">MainNamespace::Logger::log</text>
</a>
</g>
</g>
<!-- Node1&#45;&gt;Node6 -->
<g id="edge5" class="edge">
<title>Node1&#45;&gt;Node6</title>
<path fill="none" stroke="midnightblue" d="M110.24,-89.89C130.04,-82.47 154.62,-73.7 177,-67 185.35,-64.5 194.26,-62.1 202.99,-59.9"/>
<polygon fill="midnightblue" stroke="midnightblue" points="203.85,-63.29 212.72,-57.5 202.17,-56.5 203.85,-63.29"/>
</g>
<!-- Node8 -->
<g id="node8" class="node">
<title>Node8</title>
<g id="a_node8"><a xlink:href="namespace_main_namespace.html#a29e3c10e67bcebfcf74b31964747e0d8" target="_top" xlink:title=" ">
<polygon fill="white" stroke="black" points="177,-114.5 177,-133.5 337,-133.5 337,-114.5 177,-114.5"/>
<text text-anchor="middle" x="257" y="-121.5" font-family="Helvetica,sans-Serif" font-size="10.00">MainNamespace::startTiming</text>
</a>
</g>
</g>
<!-- Node1&#45;&gt;Node8 -->
<g id="edge7" class="edge">
<title>Node1&#45;&gt;Node8</title>
<path fill="none" stroke="midnightblue" d="M141.25,-112.18C149.61,-113.04 158.24,-113.93 166.83,-114.82"/>
<polygon fill="midnightblue" stroke="midnightblue" points="166.57,-118.31 176.87,-115.85 167.28,-111.35 166.57,-118.31"/>
</g>
<!-- Node10 -->
<g id="node10" class="node">
<title>Node10</title>
<g id="a_node10"><a xlink:href="namespace_main_namespace.html#a03589b500835850f32276c9983678dc8" target="_top" xlink:title=" ">
<polygon fill="white" stroke="black" points="178,-76.5 178,-95.5 336,-95.5 336,-76.5 178,-76.5"/>
<text text-anchor="middle" x="257" y="-83.5" font-family="Helvetica,sans-Serif" font-size="10.00">MainNamespace::stopTiming</text>
</a>
</g>
</g>
<!-- Node1&#45;&gt;Node10 -->
<g id="edge10" class="edge">
<title>Node1&#45;&gt;Node10</title>
<path fill="none" stroke="midnightblue" d="M141.25,-97.82C149.93,-96.92 158.88,-96 167.79,-95.08"/>
<polygon fill="midnightblue" stroke="midnightblue" points="168.22,-98.56 177.81,-94.05 167.5,-91.6 168.22,-98.56"/>
</g>
<!-- Node13 -->
<g id="node13" class="node">
<title>Node13</title>
<g id="a_node13"><a xlink:href="namespace_main_namespace.html#a963bb0fc1186abae512b8fde5e8a078c" target="_top" xlink:title="Distribution warning (about h2lib and gmsh).">
<polygon fill="white" stroke="black" points="185.5,-0.5 185.5,-19.5 328.5,-19.5 328.5,-0.5 185.5,-0.5"/>
<text text-anchor="middle" x="257" y="-7.5" font-family="Helvetica,sans-Serif" font-size="10.00">MainNamespace::warning</text>
</a>
</g>
</g>
<!-- Node1&#45;&gt;Node13 -->
<g id="edge14" class="edge">
<title>Node1&#45;&gt;Node13</title>
<path fill="none" stroke="midnightblue" d="M88.11,-89.84C107.87,-72.6 142.53,-44.81 177,-29 182.34,-26.55 188.03,-24.4 193.82,-22.5"/>
<polygon fill="midnightblue" stroke="midnightblue" points="195.04,-25.79 203.61,-19.56 193.03,-19.09 195.04,-25.79"/>
</g>
<!-- Node4 -->
<g id="node4" class="node">
<title>Node4</title>
<g id="a_node4"><a xlink:href="struct_main_namespace_1_1_options.html#a723119ba0f1851a37f845d6cdbb70792" target="_top" xlink:title=" ">
<polygon fill="white" stroke="black" points="388,-202 388,-232 530,-232 530,-202 388,-202"/>
<text text-anchor="start" x="396" y="-220" font-family="Helvetica,sans-Serif" font-size="10.00">MainNamespace::Options</text>
<text text-anchor="middle" x="459" y="-209" font-family="Helvetica,sans-Serif" font-size="10.00">::epsKrylov</text>
</a>
</g>
</g>
<!-- Node3&#45;&gt;Node4 -->
<g id="edge3" class="edge">
<title>Node3&#45;&gt;Node4</title>
<path fill="none" stroke="midnightblue" d="M300.81,-171.59C312.59,-174.42 325.34,-177.66 337,-181 353.21,-185.64 356.88,-188.04 373,-193 379.5,-195 386.3,-197.03 393.1,-199.01"/>
<polygon fill="midnightblue" stroke="midnightblue" points="392.44,-202.47 403.02,-201.88 394.39,-195.74 392.44,-202.47"/>
</g>
<!-- Node5 -->
<g id="node5" class="node">
<title>Node5</title>
<g id="a_node5"><a xlink:href="namespace_main_namespace.html#a6fd76e14adc7d23a9822334cb389b369" target="_top" xlink:title=" ">
<polygon fill="white" stroke="black" points="373,-114.5 373,-133.5 545,-133.5 545,-114.5 373,-114.5"/>
<text text-anchor="middle" x="459" y="-121.5" font-family="Helvetica,sans-Serif" font-size="10.00">MainNamespace::globalOptions</text>
</a>
</g>
</g>
<!-- Node3&#45;&gt;Node5 -->
<g id="edge4" class="edge">
<title>Node3&#45;&gt;Node5</title>
<path fill="none" stroke="midnightblue" d="M308.21,-152.46C335.43,-147.29 369.26,-140.86 397.88,-135.42"/>
<polygon fill="midnightblue" stroke="midnightblue" points="398.6,-138.85 407.77,-133.54 397.29,-131.97 398.6,-138.85"/>
</g>
<!-- Node7 -->
<g id="node7" class="node">
<title>Node7</title>
<g id="a_node7"><a xlink:href="namespace_main_namespace_1_1_logger.html#af052b0198f333fca77f0837a511ec7f7" target="_top" xlink:title=" ">
<polygon fill="white" stroke="black" points="390.5,-16 390.5,-46 527.5,-46 527.5,-16 390.5,-16"/>
<text text-anchor="start" x="398.5" y="-34" font-family="Helvetica,sans-Serif" font-size="10.00">MainNamespace::Logger</text>
<text text-anchor="middle" x="459" y="-23" font-family="Helvetica,sans-Serif" font-size="10.00">::forwardLog</text>
</a>
</g>
</g>
<!-- Node6&#45;&gt;Node7 -->
<g id="edge6" class="edge">
<title>Node6&#45;&gt;Node7</title>
<path fill="none" stroke="midnightblue" d="M336.18,-41.35C350.55,-40.13 365.56,-38.86 379.92,-37.64"/>
<polygon fill="midnightblue" stroke="midnightblue" points="380.59,-41.09 390.25,-36.76 379.99,-34.12 380.59,-41.09"/>
</g>
<!-- Node8&#45;&gt;Node5 -->
<g id="edge8" class="edge">
<title>Node8&#45;&gt;Node5</title>
<path fill="none" stroke="midnightblue" d="M337.05,-124C345.52,-124 354.21,-124 362.84,-124"/>
<polygon fill="midnightblue" stroke="midnightblue" points="362.95,-127.5 372.95,-124 362.95,-120.5 362.95,-127.5"/>
</g>
<!-- Node9 -->
<g id="node9" class="node">
<title>Node9</title>
<g id="a_node9"><a xlink:href="class_main_namespace_1_1_clocks.html#a0a4ef648fba7c4c6765db19c6a4a6c46" target="_top" xlink:title=" ">
<polygon fill="white" stroke="black" points="390.5,-153 390.5,-183 527.5,-183 527.5,-153 390.5,-153"/>
<text text-anchor="start" x="398.5" y="-171" font-family="Helvetica,sans-Serif" font-size="10.00">MainNamespace::Clocks</text>
<text text-anchor="middle" x="459" y="-160" font-family="Helvetica,sans-Serif" font-size="10.00">::start</text>
</a>
</g>
</g>
<!-- Node8&#45;&gt;Node9 -->
<g id="edge9" class="edge">
<title>Node8&#45;&gt;Node9</title>
<path fill="none" stroke="midnightblue" d="M301.4,-133.55C324.52,-138.63 353.67,-145.05 380.53,-150.96"/>
<polygon fill="midnightblue" stroke="midnightblue" points="379.78,-154.38 390.3,-153.11 381.29,-147.54 379.78,-154.38"/>
</g>
<!-- Node10&#45;&gt;Node5 -->
<g id="edge11" class="edge">
<title>Node10&#45;&gt;Node5</title>
<path fill="none" stroke="midnightblue" d="M308.21,-95.54C335.43,-100.71 369.26,-107.14 397.88,-112.58"/>
<polygon fill="midnightblue" stroke="midnightblue" points="397.29,-116.03 407.77,-114.46 398.6,-109.15 397.29,-116.03"/>
</g>
<!-- Node11 -->
<g id="node11" class="node">
<title>Node11</title>
<g id="a_node11"><a xlink:href="class_main_namespace_1_1_clocks.html#ae0f6374bfcfdbb939449238eabb488ab" target="_top" xlink:title=" ">
<polygon fill="white" stroke="black" points="390.5,-65 390.5,-95 527.5,-95 527.5,-65 390.5,-65"/>
<text text-anchor="start" x="398.5" y="-83" font-family="Helvetica,sans-Serif" font-size="10.00">MainNamespace::Clocks</text>
<text text-anchor="middle" x="459" y="-72" font-family="Helvetica,sans-Serif" font-size="10.00">::readAll</text>
</a>
</g>
</g>
<!-- Node10&#45;&gt;Node11 -->
<g id="edge12" class="edge">
<title>Node10&#45;&gt;Node11</title>
<path fill="none" stroke="midnightblue" d="M336.18,-83.65C350.55,-83.22 365.56,-82.77 379.92,-82.34"/>
<polygon fill="midnightblue" stroke="midnightblue" points="380.36,-85.83 390.25,-82.03 380.15,-78.83 380.36,-85.83"/>
</g>
<!-- Node12 -->
<g id="node12" class="node">
<title>Node12</title>
<g id="a_node12"><a xlink:href="namespacelyra_1_1detail.html#ae65bbfceff11344e7ae2b7f28bebcdb7" target="_top" xlink:title=" ">
<polygon fill="white" stroke="black" points="581,-70.5 581,-89.5 699,-89.5 699,-70.5 581,-70.5"/>
<text text-anchor="middle" x="640" y="-77.5" font-family="Helvetica,sans-Serif" font-size="10.00">lyra::detail::to_string</text>
</a>
</g>
</g>
<!-- Node11&#45;&gt;Node12 -->
<g id="edge13" class="edge">
<title>Node11&#45;&gt;Node12</title>
<path fill="none" stroke="midnightblue" d="M527.67,-80C541.77,-80 556.64,-80 570.77,-80"/>
<polygon fill="midnightblue" stroke="midnightblue" points="570.89,-83.5 580.89,-80 570.89,-76.5 570.89,-83.5"/>
</g>
</g>
</svg>
        <g id="navigator" transform="translate(0 0)" fill="#404254">
                <rect fill="#f2f5e9" fill-opacity="0.5" stroke="#606060" stroke-width=".5" x="0" y="0" width="60" height="60"/>
                <use id="zoomplus" xlink:href="#zoomPlus" x="17" y="9" onmousedown="handleZoom(evt,'in')"/>
                <use id="zoomminus" xlink:href="#zoomMin" x="42" y="9" onmousedown="handleZoom(evt,'out')"/>
                <use id="reset" xlink:href="#resetDef" x="30" y="36" onmousedown="handleReset()"/>
                <g id="arrowUp" xlink:href="#dirArrow" transform="translate(30 24)" onmousedown="handlePan(0,-1)">
                  <use xlink:href="#rim" fill="#404040">
                        <set attributeName="fill" to="#808080" begin="arrowUp.mouseover" end="arrowUp.mouseout"/>
                  </use>
                  <path fill="none" stroke="white" stroke-width="1.5" d="M0,-3.0v7 M-2.5,-0.5L0,-3.0L2.5,-0.5"/>
                </g>
                <g id="arrowRight" xlink:href="#dirArrow" transform="rotate(90) translate(36 -43)" onmousedown="handlePan(1,0)">
                  <use xlink:href="#rim" fill="#404040">
                        <set attributeName="fill" to="#808080" begin="arrowRight.mouseover" end="arrowRight.mouseout"/>
                  </use>
                  <path fill="none" stroke="white" stroke-width="1.5" d="M0,-3.0v7 M-2.5,-0.5L0,-3.0L2.5,-0.5"/>
                </g>
                <g id="arrowDown" xlink:href="#dirArrow" transform="rotate(180) translate(-30 -48)" onmousedown="handlePan(0,1)">
                  <use xlink:href="#rim" fill="#404040">
                        <set attributeName="fill" to="#808080" begin="arrowDown.mouseover" end="arrowDown.mouseout"/>
                  </use>
                  <path fill="none" stroke="white" stroke-width="1.5" d="M0,-3.0v7 M-2.5,-0.5L0,-3.0L2.5,-0.5"/>
                </g>
                <g id="arrowLeft" xlink:href="#dirArrow" transform="rotate(270) translate(-36 17)" onmousedown="handlePan(-1,0)">
                  <use xlink:href="#rim" fill="#404040">
                        <set attributeName="fill" to="#808080" begin="arrowLeft.mouseover" end="arrowLeft.mouseout"/>
                  </use>
                  <path fill="none" stroke="white" stroke-width="1.5" d="M0,-3.0v7 M-2.5,-0.5L0,-3.0L2.5,-0.5"/>
                </g>
        </g>
        <svg viewBox="0 0 15 15" width="100%" height="30px" preserveAspectRatio="xMaxYMin meet">
         <g id="arrow_out" transform="scale(0.3 0.3)">
          <a xlink:href="namespace_main_namespace_1_1_surface_a9db507bc2f601fff92d0383899185f61_cgraph_org.svg" target="_base">
           <rect id="button" ry="5" rx="5" y="6" x="6" height="38" width="38"
                fill="#f2f5e9" fill-opacity="0.5" stroke="#606060" stroke-width="1.0"/>
           <path id="arrow"
             d="M 11.500037,31.436501 C 11.940474,20.09759 22.043105,11.32322 32.158766,21.979434 L 37.068811,17.246167 C 37.068811,17.246167 37.088388,32 37.088388,32 L 22.160133,31.978069 C 22.160133,31.978069 26.997745,27.140456 26.997745,27.140456 C 18.528582,18.264221 13.291696,25.230495 11.500037,31.436501 z"
             style="fill:#404040;"/>
          </a>
         </g>
        </svg>
</svg>
