<?xml version="1.0" encoding="UTF-8" standalone="no"?>
<!DOCTYPE svg PUBLIC "-//W3C//DTD SVG 1.1//EN"
 "http://www.w3.org/Graphics/SVG/1.1/DTD/svg11.dtd">
<!-- Generated by graphviz version 2.43.0 (0)
 -->
<!-- Title: MainNamespace::operatorSpaces Pages: 1 -->
<svg width="771pt" height="39pt"
 viewBox="0.00 0.00 771.00 39.00" xmlns="http://www.w3.org/2000/svg" xmlns:xlink="http://www.w3.org/1999/xlink">
<g id="graph0" class="graph" transform="scale(1 1) rotate(0) translate(4 35)">
<title>MainNamespace::operatorSpaces</title>
<polygon fill="white" stroke="transparent" points="-4,4 -4,-35 767,-35 767,4 -4,4"/>
<!-- Node1 -->
<g id="node1" class="node">
<title>Node1</title>
<g id="a_node1"><a xlink:title=" ">
<polygon fill="#bfbfbf" stroke="black" points="0,-6 0,-25 180,-25 180,-6 0,-6"/>
<text text-anchor="middle" x="90" y="-13" font-family="Helvetica,sans-Serif" font-size="10.00">MainNamespace::operatorSpaces</text>
</a>
</g>
</g>
<!-- Node2 -->
<g id="node2" class="node">
<title>Node2</title>
<g id="a_node2"><a xlink:href="namespace_main_namespace.html#a8b73b19200a04ce9ed17991c99d347e5" target="_top" xlink:title=" ">
<polygon fill="white" stroke="black" points="216,-6 216,-25 396,-25 396,-6 216,-6"/>
<text text-anchor="middle" x="306" y="-13" font-family="Helvetica,sans-Serif" font-size="10.00">MainNamespace::operatorSpaces</text>
</a>
</g>
</g>
<!-- Node1&#45;&gt;Node2 -->
<g id="edge1" class="edge">
<title>Node1&#45;&gt;Node2</title>
<path fill="none" stroke="midnightblue" d="M180.21,-15.5C188.7,-15.5 197.34,-15.5 205.92,-15.5"/>
<polygon fill="midnightblue" stroke="midnightblue" points="205.94,-19 215.94,-15.5 205.94,-12 205.94,-19"/>
</g>
<!-- Node3 -->
<g id="node3" class="node">
<title>Node3</title>
<g id="a_node3"><a xlink:href="namespace_main_namespace_1_1_logger.html#afbb4cc2d8b498e71fcb228f0da8309a1" target="_top" xlink:title=" ">
<polygon fill="white" stroke="black" points="432,-6 432,-25 590,-25 590,-6 432,-6"/>
<text text-anchor="middle" x="511" y="-13" font-family="Helvetica,sans-Serif" font-size="10.00">MainNamespace::Logger::log</text>
</a>
</g>
</g>
<!-- Node2&#45;&gt;Node3 -->
<g id="edge2" class="edge">
<title>Node2&#45;&gt;Node3</title>
<path fill="none" stroke="midnightblue" d="M396.04,-15.5C404.52,-15.5 413.12,-15.5 421.6,-15.5"/>
<polygon fill="midnightblue" stroke="midnightblue" points="421.86,-19 431.86,-15.5 421.86,-12 421.86,-19"/>
</g>
<!-- Node4 -->
<g id="node4" class="node">
<title>Node4</title>
<g id="a_node4"><a xlink:href="namespace_main_namespace_1_1_logger.html#af052b0198f333fca77f0837a511ec7f7" target="_top" xlink:title=" ">
<polygon fill="white" stroke="black" points="626,-0.5 626,-30.5 763,-30.5 763,-0.5 626,-0.5"/>
<text text-anchor="start" x="634" y="-18.5" font-family="Helvetica,sans-Serif" font-size="10.00">MainNamespace::Logger</text>
<text text-anchor="middle" x="694.5" y="-7.5" font-family="Helvetica,sans-Serif" font-size="10.00">::forwardLog</text>
</a>
</g>
</g>
<!-- Node3&#45;&gt;Node4 -->
<g id="edge3" class="edge">
<title>Node3&#45;&gt;Node4</title>
<path fill="none" stroke="midnightblue" d="M590.03,-15.5C598.5,-15.5 607.12,-15.5 615.59,-15.5"/>
<polygon fill="midnightblue" stroke="midnightblue" points="615.82,-19 625.82,-15.5 615.82,-12 615.82,-19"/>
</g>
</g>
</svg>
