<?xml version="1.0" encoding="UTF-8" standalone="no"?>
<!DOCTYPE svg PUBLIC "-//W3C//DTD SVG 1.1//EN"
 "http://www.w3.org/Graphics/SVG/1.1/DTD/svg11.dtd">
<!-- Generated by graphviz version 2.43.0 (0)
 -->
<!-- Title: main/options.cpp Pages: 1 -->
<svg width="834pt" height="252pt"
 viewBox="0.00 0.00 833.50 252.00" xmlns="http://www.w3.org/2000/svg" xmlns:xlink="http://www.w3.org/1999/xlink">
<g id="graph0" class="graph" transform="scale(1 1) rotate(0) translate(4 248)">
<title>main/options.cpp</title>
<polygon fill="white" stroke="transparent" points="-4,4 -4,-248 829.5,-248 829.5,4 -4,4"/>
<!-- Node1 -->
<g id="node1" class="node">
<title>Node1</title>
<g id="a_node1"><a xlink:title=" ">
<polygon fill="#bfbfbf" stroke="black" points="365,-224.5 365,-243.5 466,-243.5 466,-224.5 365,-224.5"/>
<text text-anchor="middle" x="415.5" y="-231.5" font-family="Helvetica,sans-Serif" font-size="10.00">main/options.cpp</text>
</a>
</g>
</g>
<!-- Node2 -->
<g id="node2" class="node">
<title>Node2</title>
<g id="a_node2"><a xlink:href="options_8h.html" target="_top" xlink:title=" ">
<polygon fill="white" stroke="black" points="272.5,-168.5 272.5,-187.5 334.5,-187.5 334.5,-168.5 272.5,-168.5"/>
<text text-anchor="middle" x="303.5" y="-175.5" font-family="Helvetica,sans-Serif" font-size="10.00">options.h</text>
</a>
</g>
</g>
<!-- Node1&#45;&gt;Node2 -->
<g id="edge1" class="edge">
<title>Node1&#45;&gt;Node2</title>
<path fill="none" stroke="midnightblue" d="M397.51,-224.32C379.46,-215.62 351.45,-202.12 330.7,-192.11"/>
<polygon fill="midnightblue" stroke="midnightblue" points="331.98,-188.84 321.45,-187.65 328.94,-195.15 331.98,-188.84"/>
</g>
<!-- Node6 -->
<g id="node6" class="node">
<title>Node6</title>
<g id="a_node6"><a xlink:href="logger_8h.html" target="_top" xlink:title=" ">
<polygon fill="white" stroke="black" points="544.5,-112.5 544.5,-131.5 634.5,-131.5 634.5,-112.5 544.5,-112.5"/>
<text text-anchor="middle" x="589.5" y="-119.5" font-family="Helvetica,sans-Serif" font-size="10.00">logger/logger.h</text>
</a>
</g>
</g>
<!-- Node1&#45;&gt;Node6 -->
<g id="edge24" class="edge">
<title>Node1&#45;&gt;Node6</title>
<path fill="none" stroke="midnightblue" d="M404.97,-224.37C390.27,-211.28 366.95,-186.04 381.5,-168 391.13,-156.06 475.76,-140.68 534.05,-131.34"/>
<polygon fill="midnightblue" stroke="midnightblue" points="534.92,-134.75 544.25,-129.73 533.82,-127.84 534.92,-134.75"/>
</g>
<!-- Node18 -->
<g id="node18" class="node">
<title>Node18</title>
<g id="a_node18"><a xlink:title=" ">
<polygon fill="white" stroke="#bfbfbf" points="391,-168.5 391,-187.5 440,-187.5 440,-168.5 391,-168.5"/>
<text text-anchor="middle" x="415.5" y="-175.5" font-family="Helvetica,sans-Serif" font-size="10.00">cstdlib</text>
</a>
</g>
</g>
<!-- Node1&#45;&gt;Node18 -->
<g id="edge20" class="edge">
<title>Node1&#45;&gt;Node18</title>
<path fill="none" stroke="midnightblue" d="M415.5,-224.08C415.5,-217.01 415.5,-206.86 415.5,-197.99"/>
<polygon fill="midnightblue" stroke="midnightblue" points="419,-197.75 415.5,-187.75 412,-197.75 419,-197.75"/>
</g>
<!-- Node19 -->
<g id="node19" class="node">
<title>Node19</title>
<g id="a_node19"><a xlink:title=" ">
<polygon fill="white" stroke="#bfbfbf" points="458.5,-168.5 458.5,-187.5 514.5,-187.5 514.5,-168.5 458.5,-168.5"/>
<text text-anchor="middle" x="486.5" y="-175.5" font-family="Helvetica,sans-Serif" font-size="10.00">sstream</text>
</a>
</g>
</g>
<!-- Node1&#45;&gt;Node19 -->
<g id="edge21" class="edge">
<title>Node1&#45;&gt;Node19</title>
<path fill="none" stroke="midnightblue" d="M426.91,-224.32C437.61,-216.18 453.84,-203.84 466.66,-194.09"/>
<polygon fill="midnightblue" stroke="midnightblue" points="469.04,-196.67 474.89,-187.83 464.81,-191.1 469.04,-196.67"/>
</g>
<!-- Node20 -->
<g id="node20" class="node">
<title>Node20</title>
<g id="a_node20"><a xlink:title=" ">
<polygon fill="white" stroke="#bfbfbf" points="532.5,-168.5 532.5,-187.5 582.5,-187.5 582.5,-168.5 532.5,-168.5"/>
<text text-anchor="middle" x="557.5" y="-175.5" font-family="Helvetica,sans-Serif" font-size="10.00">cstring</text>
</a>
</g>
</g>
<!-- Node1&#45;&gt;Node20 -->
<g id="edge22" class="edge">
<title>Node1&#45;&gt;Node20</title>
<path fill="none" stroke="midnightblue" d="M438,-224.44C461.58,-215.48 498.82,-201.31 525.46,-191.18"/>
<polygon fill="midnightblue" stroke="midnightblue" points="527,-194.34 535.1,-187.52 524.51,-187.8 527,-194.34"/>
</g>
<!-- Node21 -->
<g id="node21" class="node">
<title>Node21</title>
<g id="a_node21"><a xlink:title=" ">
<polygon fill="white" stroke="#bfbfbf" points="600.5,-168.5 600.5,-187.5 678.5,-187.5 678.5,-168.5 600.5,-168.5"/>
<text text-anchor="middle" x="639.5" y="-175.5" font-family="Helvetica,sans-Serif" font-size="10.00">lyra/lyra.hpp</text>
</a>
</g>
</g>
<!-- Node1&#45;&gt;Node21 -->
<g id="edge23" class="edge">
<title>Node1&#45;&gt;Node21</title>
<path fill="none" stroke="midnightblue" d="M450.99,-224.44C489.82,-215.08 552.16,-200.06 594.42,-189.87"/>
<polygon fill="midnightblue" stroke="midnightblue" points="595.27,-193.26 604.17,-187.52 593.63,-186.46 595.27,-193.26"/>
</g>
<!-- Node22 -->
<g id="node22" class="node">
<title>Node22</title>
<g id="a_node22"><a xlink:href="data_8h.html" target="_top" xlink:title=" ">
<polygon fill="white" stroke="black" points="0,-168.5 0,-187.5 71,-187.5 71,-168.5 0,-168.5"/>
<text text-anchor="middle" x="35.5" y="-175.5" font-family="Helvetica,sans-Serif" font-size="10.00">utils/data.h</text>
</a>
</g>
</g>
<!-- Node1&#45;&gt;Node22 -->
<g id="edge25" class="edge">
<title>Node1&#45;&gt;Node22</title>
<path fill="none" stroke="midnightblue" d="M364.65,-225.77C290.14,-215.19 152.46,-195.62 81.08,-185.48"/>
<polygon fill="midnightblue" stroke="midnightblue" points="81.44,-181.99 71.04,-184.05 80.45,-188.92 81.44,-181.99"/>
</g>
<!-- Node3 -->
<g id="node3" class="node">
<title>Node3</title>
<g id="a_node3"><a xlink:title=" ">
<polygon fill="white" stroke="#bfbfbf" points="16.5,-56.5 16.5,-75.5 60.5,-75.5 60.5,-56.5 16.5,-56.5"/>
<text text-anchor="middle" x="38.5" y="-63.5" font-family="Helvetica,sans-Serif" font-size="10.00">string</text>
</a>
</g>
</g>
<!-- Node2&#45;&gt;Node3 -->
<g id="edge2" class="edge">
<title>Node2&#45;&gt;Node3</title>
<path fill="none" stroke="midnightblue" d="M272.17,-175.11C231.51,-171.52 159.42,-161.24 105.5,-132 83.35,-119.99 63.39,-98.59 51.13,-83.64"/>
<polygon fill="midnightblue" stroke="midnightblue" points="53.8,-81.37 44.85,-75.7 48.31,-85.71 53.8,-81.37"/>
</g>
<!-- Node4 -->
<g id="node4" class="node">
<title>Node4</title>
<g id="a_node4"><a xlink:title=" ">
<polygon fill="white" stroke="#bfbfbf" points="190,-112.5 190,-131.5 299,-131.5 299,-112.5 190,-112.5"/>
<text text-anchor="middle" x="244.5" y="-119.5" font-family="Helvetica,sans-Serif" font-size="10.00">h2lib/parameters.h</text>
</a>
</g>
</g>
<!-- Node2&#45;&gt;Node4 -->
<g id="edge3" class="edge">
<title>Node2&#45;&gt;Node4</title>
<path fill="none" stroke="midnightblue" d="M294.02,-168.32C285.3,-160.34 272.16,-148.31 261.6,-138.65"/>
<polygon fill="midnightblue" stroke="midnightblue" points="263.89,-136 254.15,-131.83 259.17,-141.17 263.89,-136"/>
</g>
<!-- Node5 -->
<g id="node5" class="node">
<title>Node5</title>
<g id="a_node5"><a xlink:title=" ">
<polygon fill="white" stroke="#bfbfbf" points="317.5,-112.5 317.5,-131.5 409.5,-131.5 409.5,-112.5 317.5,-112.5"/>
<text text-anchor="middle" x="363.5" y="-119.5" font-family="Helvetica,sans-Serif" font-size="10.00">h2lib/reporter.h</text>
</a>
</g>
</g>
<!-- Node2&#45;&gt;Node5 -->
<g id="edge4" class="edge">
<title>Node2&#45;&gt;Node5</title>
<path fill="none" stroke="midnightblue" d="M313.14,-168.32C322.01,-160.34 335.37,-148.31 346.11,-138.65"/>
<polygon fill="midnightblue" stroke="midnightblue" points="348.59,-141.13 353.68,-131.83 343.91,-135.92 348.59,-141.13"/>
</g>
<!-- Node2&#45;&gt;Node6 -->
<g id="edge5" class="edge">
<title>Node2&#45;&gt;Node6</title>
<path fill="none" stroke="midnightblue" d="M334.96,-170.65C339.5,-169.75 344.12,-168.85 348.5,-168 412.09,-155.7 485.24,-142.13 534.11,-133.13"/>
<polygon fill="midnightblue" stroke="midnightblue" points="534.96,-136.54 544.16,-131.29 533.69,-129.65 534.96,-136.54"/>
</g>
<!-- Node11 -->
<g id="node11" class="node">
<title>Node11</title>
<g id="a_node11"><a xlink:href="cutils_8h.html" target="_top" xlink:title=" ">
<polygon fill="white" stroke="black" points="427.5,-112.5 427.5,-131.5 503.5,-131.5 503.5,-112.5 427.5,-112.5"/>
<text text-anchor="middle" x="465.5" y="-119.5" font-family="Helvetica,sans-Serif" font-size="10.00">utils/cutils.h</text>
</a>
</g>
</g>
<!-- Node2&#45;&gt;Node11 -->
<g id="edge11" class="edge">
<title>Node2&#45;&gt;Node11</title>
<path fill="none" stroke="midnightblue" d="M329.17,-168.44C356.42,-159.36 399.68,-144.94 430.15,-134.78"/>
<polygon fill="midnightblue" stroke="midnightblue" points="431.57,-138 439.95,-131.52 429.36,-131.36 431.57,-138"/>
</g>
<!-- Node14 -->
<g id="node14" class="node">
<title>Node14</title>
<g id="a_node14"><a xlink:href="timing_8h.html" target="_top" xlink:title=" ">
<polygon fill="white" stroke="black" points="115,-112.5 115,-131.5 172,-131.5 172,-112.5 115,-112.5"/>
<text text-anchor="middle" x="143.5" y="-119.5" font-family="Helvetica,sans-Serif" font-size="10.00">timing.h</text>
</a>
</g>
</g>
<!-- Node2&#45;&gt;Node14 -->
<g id="edge15" class="edge">
<title>Node2&#45;&gt;Node14</title>
<path fill="none" stroke="midnightblue" d="M278.15,-168.44C251.23,-159.36 208.5,-144.94 178.41,-134.78"/>
<polygon fill="midnightblue" stroke="midnightblue" points="179.33,-131.4 168.73,-131.52 177.09,-138.03 179.33,-131.4"/>
</g>
<!-- Node7 -->
<g id="node7" class="node">
<title>Node7</title>
<g id="a_node7"><a xlink:title=" ">
<polygon fill="white" stroke="#bfbfbf" points="511,-0.5 511,-19.5 580,-19.5 580,-0.5 511,-0.5"/>
<text text-anchor="middle" x="545.5" y="-7.5" font-family="Helvetica,sans-Serif" font-size="10.00">type_traits</text>
</a>
</g>
</g>
<!-- Node6&#45;&gt;Node7 -->
<g id="edge6" class="edge">
<title>Node6&#45;&gt;Node7</title>
<path fill="none" stroke="midnightblue" d="M583.92,-112.33C578.4,-103.47 570.01,-89.19 564.5,-76 558.13,-60.74 553.02,-42.64 549.72,-29.41"/>
<polygon fill="midnightblue" stroke="midnightblue" points="553.1,-28.53 547.37,-19.62 546.3,-30.16 553.1,-28.53"/>
</g>
<!-- Node8 -->
<g id="node8" class="node">
<title>Node8</title>
<g id="a_node8"><a xlink:title=" ">
<polygon fill="white" stroke="#bfbfbf" points="669.5,-56.5 669.5,-75.5 727.5,-75.5 727.5,-56.5 669.5,-56.5"/>
<text text-anchor="middle" x="698.5" y="-63.5" font-family="Helvetica,sans-Serif" font-size="10.00">memory</text>
</a>
</g>
</g>
<!-- Node6&#45;&gt;Node8 -->
<g id="edge7" class="edge">
<title>Node6&#45;&gt;Node8</title>
<path fill="none" stroke="midnightblue" d="M607.01,-112.32C624.57,-103.62 651.83,-90.12 672.03,-80.11"/>
<polygon fill="midnightblue" stroke="midnightblue" points="673.62,-83.23 681.03,-75.65 670.52,-76.96 673.62,-83.23"/>
</g>
<!-- Node9 -->
<g id="node9" class="node">
<title>Node9</title>
<g id="a_node9"><a xlink:href="enum_8h.html" target="_top" xlink:title=" ">
<polygon fill="white" stroke="black" points="574,-56.5 574,-75.5 651,-75.5 651,-56.5 574,-56.5"/>
<text text-anchor="middle" x="612.5" y="-63.5" font-family="Helvetica,sans-Serif" font-size="10.00">utils/enum.h</text>
</a>
</g>
</g>
<!-- Node6&#45;&gt;Node9 -->
<g id="edge8" class="edge">
<title>Node6&#45;&gt;Node9</title>
<path fill="none" stroke="midnightblue" d="M593.3,-112.08C596.41,-104.77 600.92,-94.18 604.79,-85.1"/>
<polygon fill="midnightblue" stroke="midnightblue" points="608.07,-86.32 608.77,-75.75 601.63,-83.58 608.07,-86.32"/>
</g>
<!-- Node10 -->
<g id="node10" class="node">
<title>Node10</title>
<g id="a_node10"><a xlink:title=" ">
<polygon fill="white" stroke="#bfbfbf" points="745.5,-56.5 745.5,-75.5 825.5,-75.5 825.5,-56.5 745.5,-56.5"/>
<text text-anchor="middle" x="785.5" y="-63.5" font-family="Helvetica,sans-Serif" font-size="10.00">logger.levels</text>
</a>
</g>
</g>
<!-- Node6&#45;&gt;Node10 -->
<g id="edge10" class="edge">
<title>Node6&#45;&gt;Node10</title>
<path fill="none" stroke="midnightblue" d="M620.56,-112.44C654.1,-103.2 707.7,-88.44 744.64,-78.26"/>
<polygon fill="midnightblue" stroke="midnightblue" points="745.88,-81.55 754.59,-75.52 744.02,-74.8 745.88,-81.55"/>
</g>
<!-- Node9&#45;&gt;Node7 -->
<g id="edge9" class="edge">
<title>Node9&#45;&gt;Node7</title>
<path fill="none" stroke="midnightblue" d="M601.74,-56.32C591.73,-48.26 576.61,-36.08 564.57,-26.37"/>
<polygon fill="midnightblue" stroke="midnightblue" points="566.44,-23.38 556.46,-19.83 562.05,-28.83 566.44,-23.38"/>
</g>
<!-- Node11&#45;&gt;Node7 -->
<g id="edge12" class="edge">
<title>Node11&#45;&gt;Node7</title>
<path fill="none" stroke="midnightblue" d="M427.48,-112.61C383.4,-102.51 315.8,-85.68 308.5,-76 303.15,-68.9 302.83,-62.85 308.5,-56 332.42,-27.11 438.91,-16.62 500.7,-12.92"/>
<polygon fill="midnightblue" stroke="midnightblue" points="501.17,-16.4 510.95,-12.34 500.77,-9.41 501.17,-16.4"/>
</g>
<!-- Node12 -->
<g id="node12" class="node">
<title>Node12</title>
<g id="a_node12"><a xlink:title=" ">
<polygon fill="white" stroke="#bfbfbf" points="317.5,-56.5 317.5,-75.5 395.5,-75.5 395.5,-56.5 317.5,-56.5"/>
<text text-anchor="middle" x="356.5" y="-63.5" font-family="Helvetica,sans-Serif" font-size="10.00">h2lib/basic.h</text>
</a>
</g>
</g>
<!-- Node11&#45;&gt;Node12 -->
<g id="edge13" class="edge">
<title>Node11&#45;&gt;Node12</title>
<path fill="none" stroke="midnightblue" d="M447.99,-112.32C430.43,-103.62 403.17,-90.12 382.97,-80.11"/>
<polygon fill="midnightblue" stroke="midnightblue" points="384.48,-76.96 373.97,-75.65 381.38,-83.23 384.48,-76.96"/>
</g>
<!-- Node13 -->
<g id="node13" class="node">
<title>Node13</title>
<g id="a_node13"><a xlink:title=" ">
<polygon fill="white" stroke="#bfbfbf" points="414,-56.5 414,-75.5 517,-75.5 517,-56.5 414,-56.5"/>
<text text-anchor="middle" x="465.5" y="-63.5" font-family="Helvetica,sans-Serif" font-size="10.00">h2lib/dh2matrix.h</text>
</a>
</g>
</g>
<!-- Node11&#45;&gt;Node13 -->
<g id="edge14" class="edge">
<title>Node11&#45;&gt;Node13</title>
<path fill="none" stroke="midnightblue" d="M465.5,-112.08C465.5,-105.01 465.5,-94.86 465.5,-85.99"/>
<polygon fill="midnightblue" stroke="midnightblue" points="469,-85.75 465.5,-75.75 462,-85.75 469,-85.75"/>
</g>
<!-- Node14&#45;&gt;Node3 -->
<g id="edge19" class="edge">
<title>Node14&#45;&gt;Node3</title>
<path fill="none" stroke="midnightblue" d="M126.63,-112.32C109.79,-103.66 83.69,-90.24 64.26,-80.25"/>
<polygon fill="midnightblue" stroke="midnightblue" points="65.82,-77.12 55.33,-75.65 62.62,-83.34 65.82,-77.12"/>
</g>
<!-- Node15 -->
<g id="node15" class="node">
<title>Node15</title>
<g id="a_node15"><a xlink:title=" ">
<polygon fill="white" stroke="#bfbfbf" points="79,-56.5 79,-75.5 126,-75.5 126,-56.5 79,-56.5"/>
<text text-anchor="middle" x="102.5" y="-63.5" font-family="Helvetica,sans-Serif" font-size="10.00">cmath</text>
</a>
</g>
</g>
<!-- Node14&#45;&gt;Node15 -->
<g id="edge16" class="edge">
<title>Node14&#45;&gt;Node15</title>
<path fill="none" stroke="midnightblue" d="M136.73,-112.08C130.94,-104.46 122.44,-93.26 115.36,-83.94"/>
<polygon fill="midnightblue" stroke="midnightblue" points="117.98,-81.6 109.14,-75.75 112.4,-85.83 117.98,-81.6"/>
</g>
<!-- Node16 -->
<g id="node16" class="node">
<title>Node16</title>
<g id="a_node16"><a xlink:title=" ">
<polygon fill="white" stroke="#bfbfbf" points="144.5,-56.5 144.5,-75.5 188.5,-75.5 188.5,-56.5 144.5,-56.5"/>
<text text-anchor="middle" x="166.5" y="-63.5" font-family="Helvetica,sans-Serif" font-size="10.00">ctime</text>
</a>
</g>
</g>
<!-- Node14&#45;&gt;Node16 -->
<g id="edge17" class="edge">
<title>Node14&#45;&gt;Node16</title>
<path fill="none" stroke="midnightblue" d="M147.3,-112.08C150.41,-104.77 154.92,-94.18 158.79,-85.1"/>
<polygon fill="midnightblue" stroke="midnightblue" points="162.07,-86.32 162.77,-75.75 155.63,-83.58 162.07,-86.32"/>
</g>
<!-- Node17 -->
<g id="node17" class="node">
<title>Node17</title>
<g id="a_node17"><a xlink:title=" ">
<polygon fill="white" stroke="#bfbfbf" points="206.5,-56.5 206.5,-75.5 238.5,-75.5 238.5,-56.5 206.5,-56.5"/>
<text text-anchor="middle" x="222.5" y="-63.5" font-family="Helvetica,sans-Serif" font-size="10.00">list</text>
</a>
</g>
</g>
<!-- Node14&#45;&gt;Node17 -->
<g id="edge18" class="edge">
<title>Node14&#45;&gt;Node17</title>
<path fill="none" stroke="midnightblue" d="M156.19,-112.32C168.4,-103.98 187.08,-91.21 201.5,-81.35"/>
<polygon fill="midnightblue" stroke="midnightblue" points="203.56,-84.19 209.84,-75.65 199.61,-78.41 203.56,-84.19"/>
</g>
<!-- Node22&#45;&gt;Node3 -->
<g id="edge27" class="edge">
<title>Node22&#45;&gt;Node3</title>
<path fill="none" stroke="midnightblue" d="M26.37,-168.47C14.54,-156.33 -3.77,-133.18 3.5,-112 7.22,-101.16 14.73,-90.92 21.85,-82.96"/>
<polygon fill="midnightblue" stroke="midnightblue" points="24.55,-85.19 28.94,-75.55 19.5,-80.35 24.55,-85.19"/>
</g>
<!-- Node23 -->
<g id="node23" class="node">
<title>Node23</title>
<g id="a_node23"><a xlink:title=" ">
<polygon fill="white" stroke="#bfbfbf" points="12.5,-112.5 12.5,-131.5 58.5,-131.5 58.5,-112.5 12.5,-112.5"/>
<text text-anchor="middle" x="35.5" y="-119.5" font-family="Helvetica,sans-Serif" font-size="10.00">cstdio</text>
</a>
</g>
</g>
<!-- Node22&#45;&gt;Node23 -->
<g id="edge26" class="edge">
<title>Node22&#45;&gt;Node23</title>
<path fill="none" stroke="midnightblue" d="M35.5,-168.08C35.5,-161.01 35.5,-150.86 35.5,-141.99"/>
<polygon fill="midnightblue" stroke="midnightblue" points="39,-141.75 35.5,-131.75 32,-141.75 39,-141.75"/>
</g>
</g>
</svg>
