<?xml version="1.0" encoding="UTF-8" standalone="no"?>
<!DOCTYPE svg PUBLIC "-//W3C//DTD SVG 1.1//EN"
 "http://www.w3.org/Graphics/SVG/1.1/DTD/svg11.dtd">
<!-- Generated by graphviz version 2.43.0 (0)
 -->
<!-- Title: main/options.h Pages: 1 -->
<svg width="794pt" height="196pt"
 viewBox="0.00 0.00 794.00 196.00" xmlns="http://www.w3.org/2000/svg" xmlns:xlink="http://www.w3.org/1999/xlink">
<g id="graph0" class="graph" transform="scale(1 1) rotate(0) translate(4 192)">
<title>main/options.h</title>
<polygon fill="white" stroke="transparent" points="-4,4 -4,-192 790,-192 790,4 -4,4"/>
<!-- Node1 -->
<g id="node1" class="node">
<title>Node1</title>
<g id="a_node1"><a xlink:title=" ">
<polygon fill="#bfbfbf" stroke="black" points="411.5,-168.5 411.5,-187.5 500.5,-187.5 500.5,-168.5 411.5,-168.5"/>
<text text-anchor="middle" x="456" y="-175.5" font-family="Helvetica,sans-Serif" font-size="10.00">main/options.h</text>
</a>
</g>
</g>
<!-- Node2 -->
<g id="node2" class="node">
<title>Node2</title>
<g id="a_node2"><a xlink:title=" ">
<polygon fill="white" stroke="#bfbfbf" points="564,-56.5 564,-75.5 608,-75.5 608,-56.5 564,-56.5"/>
<text text-anchor="middle" x="586" y="-63.5" font-family="Helvetica,sans-Serif" font-size="10.00">string</text>
</a>
</g>
</g>
<!-- Node1&#45;&gt;Node2 -->
<g id="edge1" class="edge">
<title>Node1&#45;&gt;Node2</title>
<path fill="none" stroke="midnightblue" d="M487.93,-168.47C508.85,-161.52 535.62,-149.89 554,-132 567.22,-119.14 575.79,-99.69 580.7,-85.41"/>
<polygon fill="midnightblue" stroke="midnightblue" points="584.1,-86.29 583.77,-75.7 577.42,-84.19 584.1,-86.29"/>
</g>
<!-- Node3 -->
<g id="node3" class="node">
<title>Node3</title>
<g id="a_node3"><a xlink:title=" ">
<polygon fill="white" stroke="#bfbfbf" points="231.5,-112.5 231.5,-131.5 340.5,-131.5 340.5,-112.5 231.5,-112.5"/>
<text text-anchor="middle" x="286" y="-119.5" font-family="Helvetica,sans-Serif" font-size="10.00">h2lib/parameters.h</text>
</a>
</g>
</g>
<!-- Node1&#45;&gt;Node3 -->
<g id="edge2" class="edge">
<title>Node1&#45;&gt;Node3</title>
<path fill="none" stroke="midnightblue" d="M429.06,-168.44C400.34,-159.32 354.67,-144.81 322.68,-134.65"/>
<polygon fill="midnightblue" stroke="midnightblue" points="323.4,-131.21 312.81,-131.52 321.28,-137.88 323.4,-131.21"/>
</g>
<!-- Node4 -->
<g id="node4" class="node">
<title>Node4</title>
<g id="a_node4"><a xlink:title=" ">
<polygon fill="white" stroke="#bfbfbf" points="359,-112.5 359,-131.5 451,-131.5 451,-112.5 359,-112.5"/>
<text text-anchor="middle" x="405" y="-119.5" font-family="Helvetica,sans-Serif" font-size="10.00">h2lib/reporter.h</text>
</a>
</g>
</g>
<!-- Node1&#45;&gt;Node4 -->
<g id="edge3" class="edge">
<title>Node1&#45;&gt;Node4</title>
<path fill="none" stroke="midnightblue" d="M447.58,-168.08C440.15,-160.22 429.15,-148.57 420.19,-139.08"/>
<polygon fill="midnightblue" stroke="midnightblue" points="422.68,-136.62 413.26,-131.75 417.59,-141.42 422.68,-136.62"/>
</g>
<!-- Node5 -->
<g id="node5" class="node">
<title>Node5</title>
<g id="a_node5"><a xlink:href="logger_8h.html" target="_top" xlink:title=" ">
<polygon fill="white" stroke="black" points="123,-112.5 123,-131.5 213,-131.5 213,-112.5 123,-112.5"/>
<text text-anchor="middle" x="168" y="-119.5" font-family="Helvetica,sans-Serif" font-size="10.00">logger/logger.h</text>
</a>
</g>
</g>
<!-- Node1&#45;&gt;Node5 -->
<g id="edge4" class="edge">
<title>Node1&#45;&gt;Node5</title>
<path fill="none" stroke="midnightblue" d="M411.32,-168.62C360.6,-159.11 277.83,-143.59 223.14,-133.34"/>
<polygon fill="midnightblue" stroke="midnightblue" points="223.74,-129.89 213.26,-131.49 222.45,-136.77 223.74,-129.89"/>
</g>
<!-- Node10 -->
<g id="node10" class="node">
<title>Node10</title>
<g id="a_node10"><a xlink:href="cutils_8h.html" target="_top" xlink:title=" ">
<polygon fill="white" stroke="black" points="469,-112.5 469,-131.5 545,-131.5 545,-112.5 469,-112.5"/>
<text text-anchor="middle" x="507" y="-119.5" font-family="Helvetica,sans-Serif" font-size="10.00">utils/cutils.h</text>
</a>
</g>
</g>
<!-- Node1&#45;&gt;Node10 -->
<g id="edge10" class="edge">
<title>Node1&#45;&gt;Node10</title>
<path fill="none" stroke="midnightblue" d="M464.42,-168.08C471.85,-160.22 482.85,-148.57 491.81,-139.08"/>
<polygon fill="midnightblue" stroke="midnightblue" points="494.41,-141.42 498.74,-131.75 489.32,-136.62 494.41,-141.42"/>
</g>
<!-- Node13 -->
<g id="node13" class="node">
<title>Node13</title>
<g id="a_node13"><a xlink:href="timing_8h.html" target="_top" xlink:title=" ">
<polygon fill="white" stroke="black" points="613.5,-112.5 613.5,-131.5 670.5,-131.5 670.5,-112.5 613.5,-112.5"/>
<text text-anchor="middle" x="642" y="-119.5" font-family="Helvetica,sans-Serif" font-size="10.00">timing.h</text>
</a>
</g>
</g>
<!-- Node1&#45;&gt;Node13 -->
<g id="edge14" class="edge">
<title>Node1&#45;&gt;Node13</title>
<path fill="none" stroke="midnightblue" d="M485.47,-168.44C517.36,-159.19 568.33,-144.39 603.39,-134.21"/>
<polygon fill="midnightblue" stroke="midnightblue" points="604.65,-137.49 613.28,-131.34 602.7,-130.77 604.65,-137.49"/>
</g>
<!-- Node6 -->
<g id="node6" class="node">
<title>Node6</title>
<g id="a_node6"><a xlink:title=" ">
<polygon fill="white" stroke="#bfbfbf" points="216.5,-0.5 216.5,-19.5 285.5,-19.5 285.5,-0.5 216.5,-0.5"/>
<text text-anchor="middle" x="251" y="-7.5" font-family="Helvetica,sans-Serif" font-size="10.00">type_traits</text>
</a>
</g>
</g>
<!-- Node5&#45;&gt;Node6 -->
<g id="edge5" class="edge">
<title>Node5&#45;&gt;Node6</title>
<path fill="none" stroke="midnightblue" d="M171.52,-112.48C177.09,-99.54 188.78,-74.49 203,-56 211.4,-45.08 222.55,-34.45 231.98,-26.27"/>
<polygon fill="midnightblue" stroke="midnightblue" points="234.32,-28.88 239.72,-19.77 229.82,-23.52 234.32,-28.88"/>
</g>
<!-- Node7 -->
<g id="node7" class="node">
<title>Node7</title>
<g id="a_node7"><a xlink:title=" ">
<polygon fill="white" stroke="#bfbfbf" points="98,-56.5 98,-75.5 156,-75.5 156,-56.5 98,-56.5"/>
<text text-anchor="middle" x="127" y="-63.5" font-family="Helvetica,sans-Serif" font-size="10.00">memory</text>
</a>
</g>
</g>
<!-- Node5&#45;&gt;Node7 -->
<g id="edge6" class="edge">
<title>Node5&#45;&gt;Node7</title>
<path fill="none" stroke="midnightblue" d="M161.23,-112.08C155.44,-104.46 146.94,-93.26 139.86,-83.94"/>
<polygon fill="midnightblue" stroke="midnightblue" points="142.48,-81.6 133.64,-75.75 136.9,-85.83 142.48,-81.6"/>
</g>
<!-- Node8 -->
<g id="node8" class="node">
<title>Node8</title>
<g id="a_node8"><a xlink:href="enum_8h.html" target="_top" xlink:title=" ">
<polygon fill="white" stroke="black" points="212.5,-56.5 212.5,-75.5 289.5,-75.5 289.5,-56.5 212.5,-56.5"/>
<text text-anchor="middle" x="251" y="-63.5" font-family="Helvetica,sans-Serif" font-size="10.00">utils/enum.h</text>
</a>
</g>
</g>
<!-- Node5&#45;&gt;Node8 -->
<g id="edge7" class="edge">
<title>Node5&#45;&gt;Node8</title>
<path fill="none" stroke="midnightblue" d="M181.34,-112.32C194.16,-103.98 213.78,-91.21 228.94,-81.35"/>
<polygon fill="midnightblue" stroke="midnightblue" points="231.22,-84.04 237.7,-75.65 227.41,-78.17 231.22,-84.04"/>
</g>
<!-- Node9 -->
<g id="node9" class="node">
<title>Node9</title>
<g id="a_node9"><a xlink:title=" ">
<polygon fill="white" stroke="#bfbfbf" points="0,-56.5 0,-75.5 80,-75.5 80,-56.5 0,-56.5"/>
<text text-anchor="middle" x="40" y="-63.5" font-family="Helvetica,sans-Serif" font-size="10.00">logger.levels</text>
</a>
</g>
</g>
<!-- Node5&#45;&gt;Node9 -->
<g id="edge9" class="edge">
<title>Node5&#45;&gt;Node9</title>
<path fill="none" stroke="midnightblue" d="M147.72,-112.44C126.65,-103.56 93.48,-89.56 69.51,-79.45"/>
<polygon fill="midnightblue" stroke="midnightblue" points="70.76,-76.18 60.19,-75.52 68.04,-82.63 70.76,-76.18"/>
</g>
<!-- Node8&#45;&gt;Node6 -->
<g id="edge8" class="edge">
<title>Node8&#45;&gt;Node6</title>
<path fill="none" stroke="midnightblue" d="M251,-56.08C251,-49.01 251,-38.86 251,-29.99"/>
<polygon fill="midnightblue" stroke="midnightblue" points="254.5,-29.75 251,-19.75 247.5,-29.75 254.5,-29.75"/>
</g>
<!-- Node10&#45;&gt;Node6 -->
<g id="edge11" class="edge">
<title>Node10&#45;&gt;Node6</title>
<path fill="none" stroke="midnightblue" d="M468.72,-112.68C426.07,-103.1 360.06,-87.22 337,-76 310.35,-63.03 283.75,-41.22 267.35,-26.48"/>
<polygon fill="midnightblue" stroke="midnightblue" points="269.48,-23.69 259.75,-19.5 264.75,-28.85 269.48,-23.69"/>
</g>
<!-- Node11 -->
<g id="node11" class="node">
<title>Node11</title>
<g id="a_node11"><a xlink:title=" ">
<polygon fill="white" stroke="#bfbfbf" points="468,-56.5 468,-75.5 546,-75.5 546,-56.5 468,-56.5"/>
<text text-anchor="middle" x="507" y="-63.5" font-family="Helvetica,sans-Serif" font-size="10.00">h2lib/basic.h</text>
</a>
</g>
</g>
<!-- Node10&#45;&gt;Node11 -->
<g id="edge12" class="edge">
<title>Node10&#45;&gt;Node11</title>
<path fill="none" stroke="midnightblue" d="M507,-112.08C507,-105.01 507,-94.86 507,-85.99"/>
<polygon fill="midnightblue" stroke="midnightblue" points="510.5,-85.75 507,-75.75 503.5,-85.75 510.5,-85.75"/>
</g>
<!-- Node12 -->
<g id="node12" class="node">
<title>Node12</title>
<g id="a_node12"><a xlink:title=" ">
<polygon fill="white" stroke="#bfbfbf" points="346.5,-56.5 346.5,-75.5 449.5,-75.5 449.5,-56.5 346.5,-56.5"/>
<text text-anchor="middle" x="398" y="-63.5" font-family="Helvetica,sans-Serif" font-size="10.00">h2lib/dh2matrix.h</text>
</a>
</g>
</g>
<!-- Node10&#45;&gt;Node12 -->
<g id="edge13" class="edge">
<title>Node10&#45;&gt;Node12</title>
<path fill="none" stroke="midnightblue" d="M489.49,-112.32C471.93,-103.62 444.67,-90.12 424.47,-80.11"/>
<polygon fill="midnightblue" stroke="midnightblue" points="425.98,-76.96 415.47,-75.65 422.88,-83.23 425.98,-76.96"/>
</g>
<!-- Node13&#45;&gt;Node2 -->
<g id="edge18" class="edge">
<title>Node13&#45;&gt;Node2</title>
<path fill="none" stroke="midnightblue" d="M633,-112.32C624.81,-104.42 612.49,-92.55 602.53,-82.94"/>
<polygon fill="midnightblue" stroke="midnightblue" points="604.79,-80.26 595.16,-75.83 599.93,-85.29 604.79,-80.26"/>
</g>
<!-- Node14 -->
<g id="node14" class="node">
<title>Node14</title>
<g id="a_node14"><a xlink:title=" ">
<polygon fill="white" stroke="#bfbfbf" points="676.5,-56.5 676.5,-75.5 723.5,-75.5 723.5,-56.5 676.5,-56.5"/>
<text text-anchor="middle" x="700" y="-63.5" font-family="Helvetica,sans-Serif" font-size="10.00">cmath</text>
</a>
</g>
</g>
<!-- Node13&#45;&gt;Node14 -->
<g id="edge15" class="edge">
<title>Node13&#45;&gt;Node14</title>
<path fill="none" stroke="midnightblue" d="M651.32,-112.32C659.89,-104.34 672.81,-92.31 683.19,-82.65"/>
<polygon fill="midnightblue" stroke="midnightblue" points="685.58,-85.21 690.51,-75.83 680.81,-80.09 685.58,-85.21"/>
</g>
<!-- Node15 -->
<g id="node15" class="node">
<title>Node15</title>
<g id="a_node15"><a xlink:title=" ">
<polygon fill="white" stroke="#bfbfbf" points="742,-56.5 742,-75.5 786,-75.5 786,-56.5 742,-56.5"/>
<text text-anchor="middle" x="764" y="-63.5" font-family="Helvetica,sans-Serif" font-size="10.00">ctime</text>
</a>
</g>
</g>
<!-- Node13&#45;&gt;Node15 -->
<g id="edge16" class="edge">
<title>Node13&#45;&gt;Node15</title>
<path fill="none" stroke="midnightblue" d="M661.33,-112.44C681.32,-103.6 712.74,-89.69 735.56,-79.59"/>
<polygon fill="midnightblue" stroke="midnightblue" points="737.03,-82.76 744.76,-75.52 734.2,-76.36 737.03,-82.76"/>
</g>
<!-- Node16 -->
<g id="node16" class="node">
<title>Node16</title>
<g id="a_node16"><a xlink:title=" ">
<polygon fill="white" stroke="#bfbfbf" points="626,-56.5 626,-75.5 658,-75.5 658,-56.5 626,-56.5"/>
<text text-anchor="middle" x="642" y="-63.5" font-family="Helvetica,sans-Serif" font-size="10.00">list</text>
</a>
</g>
</g>
<!-- Node13&#45;&gt;Node16 -->
<g id="edge17" class="edge">
<title>Node13&#45;&gt;Node16</title>
<path fill="none" stroke="midnightblue" d="M642,-112.08C642,-105.01 642,-94.86 642,-85.99"/>
<polygon fill="midnightblue" stroke="midnightblue" points="645.5,-85.75 642,-75.75 638.5,-85.75 645.5,-85.75"/>
</g>
</g>
</svg>
