<?xml version="1.0" encoding="UTF-8" standalone="no"?>
<!DOCTYPE svg PUBLIC "-//W3C//DTD SVG 1.1//EN"
 "http://www.w3.org/Graphics/SVG/1.1/DTD/svg11.dtd">
<!-- Generated by graphviz version 2.43.0 (0)
 -->
<!-- Title: Lyra/include/lyra/parser_result.hpp Pages: 1 -->
<!--zoomable 710 -->
<svg id="main" version="1.1" xmlns="http://www.w3.org/2000/svg" xmlns:xlink="http://www.w3.org/1999/xlink" xml:space="preserve" onload="init(evt)">
<style type="text/css"><![CDATA[
.edge:hover path { stroke: red; }
.edge:hover polygon { stroke: red; fill: red; }
]]></style>
<script type="text/javascript"><![CDATA[
var edges = document.getElementsByTagName('g');
if (edges && edges.length) {
  for (var i=0;i<edges.length;i++) {
    if (edges[i].id.substr(0,4)=='edge') {
      edges[i].setAttribute('class','edge');
    }
  }
}
]]></script>
        <defs>
                <circle id="rim" cx="0" cy="0" r="7"/>
                <circle id="rim2" cx="0" cy="0" r="3.5"/>
                <g id="zoomPlus">
                        <use xlink:href="#rim" fill="#404040">
                                <set attributeName="fill" to="#808080" begin="zoomplus.mouseover" end="zoomplus.mouseout"/>
                        </use>
                        <path d="M-4,0h8M0,-4v8" fill="none" stroke="white" stroke-width="1.5" pointer-events="none"/>
                </g>
                <g id="zoomMin">
                        <use xlink:href="#rim" fill="#404040">
                                <set attributeName="fill" to="#808080" begin="zoomminus.mouseover" end="zoomminus.mouseout"/>
                        </use>
                        <path d="M-4,0h8" fill="none" stroke="white" stroke-width="1.5" pointer-events="none"/>
                </g>
                <g id="dirArrow">
                        <path fill="none" stroke="white" stroke-width="1.5" d="M0,-3.0v7 M-2.5,-0.5L0,-3.0L2.5,-0.5"/>
                </g>
               <g id="resetDef">
                       <use xlink:href="#rim2" fill="#404040">
                               <set attributeName="fill" to="#808080" begin="reset.mouseover" end="reset.mouseout"/>
                       </use>
               </g>
        </defs>

<script type="text/javascript">
var viewWidth = 1042;
var viewHeight = 710;
var sectionId = 'dynsection-1';
</script>
<script xlink:href="svgpan.js"/>
<svg id="graph" class="graph">
<g id="viewport">
<title>Lyra/include/lyra/parser_result.hpp</title>
<polygon fill="white" stroke="transparent" points="-4,4 -4,-706 1038,-706 1038,4 -4,4"/>
<!-- Node1 -->
<g id="node1" class="node">
<title>Node1</title>
<g id="a_node1"><a xlink:title=" ">
<polygon fill="#bfbfbf" stroke="black" points="374.5,-671.5 374.5,-701.5 505.5,-701.5 505.5,-671.5 374.5,-671.5"/>
<text text-anchor="start" x="382.5" y="-689.5" font-family="Helvetica,sans-Serif" font-size="10.00">Lyra/include/lyra/parser</text>
<text text-anchor="middle" x="440" y="-678.5" font-family="Helvetica,sans-Serif" font-size="10.00">_result.hpp</text>
</a>
</g>
</g>
<!-- Node2 -->
<g id="node2" class="node">
<title>Node2</title>
<g id="a_node2"><a xlink:href="choices_8hpp.html" target="_top" xlink:title=" ">
<polygon fill="white" stroke="black" points="238,-537.5 238,-567.5 366,-567.5 366,-537.5 238,-537.5"/>
<text text-anchor="start" x="246" y="-555.5" font-family="Helvetica,sans-Serif" font-size="10.00">Lyra/include/lyra/detail</text>
<text text-anchor="middle" x="302" y="-544.5" font-family="Helvetica,sans-Serif" font-size="10.00">/choices.hpp</text>
</a>
</g>
</g>
<!-- Node1&#45;&gt;Node2 -->
<g id="edge1" class="edge">
<title>Node1&#45;&gt;Node2</title>
<path fill="none" stroke="midnightblue" d="M368.22,-667.61C350.61,-660.13 333.31,-649.64 321,-635 304.82,-615.76 301.83,-585.31 301.59,-567.58"/>
<polygon fill="midnightblue" stroke="midnightblue" points="367.41,-671.05 378,-671.46 369.98,-664.54 367.41,-671.05"/>
</g>
<!-- Node3 -->
<g id="node3" class="node">
<title>Node3</title>
<g id="a_node3"><a xlink:href="parser_8hpp.html" target="_top" xlink:title=" ">
<polygon fill="white" stroke="black" points="395,-358.5 395,-377.5 547,-377.5 547,-358.5 395,-358.5"/>
<text text-anchor="middle" x="471" y="-365.5" font-family="Helvetica,sans-Serif" font-size="10.00">Lyra/include/lyra/parser.hpp</text>
</a>
</g>
</g>
<!-- Node1&#45;&gt;Node3 -->
<g id="edge48" class="edge">
<title>Node1&#45;&gt;Node3</title>
<path fill="none" stroke="midnightblue" d="M482.24,-666.86C522.81,-645.75 578,-607.17 578,-553.5 578,-553.5 578,-553.5 578,-484.5 578,-432.56 519.06,-394.1 488.67,-377.72"/>
<polygon fill="midnightblue" stroke="midnightblue" points="480.42,-663.86 473.05,-671.47 483.56,-670.11 480.42,-663.86"/>
</g>
<!-- Node5 -->
<g id="node5" class="node">
<title>Node5</title>
<g id="a_node5"><a xlink:href="include_2lyra_2lyra_8hpp.html" target="_top" xlink:title=" ">
<polygon fill="white" stroke="black" points="487,-0.5 487,-19.5 627,-19.5 627,-0.5 487,-0.5"/>
<text text-anchor="middle" x="557" y="-7.5" font-family="Helvetica,sans-Serif" font-size="10.00">Lyra/include/lyra/lyra.hpp</text>
</a>
</g>
</g>
<!-- Node1&#45;&gt;Node5 -->
<g id="edge47" class="edge">
<title>Node1&#45;&gt;Node5</title>
<path fill="none" stroke="midnightblue" d="M364.16,-678.46C238.3,-664.67 0,-628.63 0,-553.5 0,-553.5 0,-553.5 0,-132 0,-90.31 18.75,-76.6 55,-56 126.89,-15.14 366.25,-10.08 486.61,-10.24"/>
<polygon fill="midnightblue" stroke="midnightblue" points="363.81,-681.95 374.13,-679.54 364.56,-674.99 363.81,-681.95"/>
</g>
<!-- Node12 -->
<g id="node12" class="node">
<title>Node12</title>
<g id="a_node12"><a xlink:href="exe__name_8hpp.html" target="_top" xlink:title=" ">
<polygon fill="white" stroke="black" points="613,-291.5 613,-321.5 731,-321.5 731,-291.5 613,-291.5"/>
<text text-anchor="start" x="621" y="-309.5" font-family="Helvetica,sans-Serif" font-size="10.00">Lyra/include/lyra/exe</text>
<text text-anchor="middle" x="672" y="-298.5" font-family="Helvetica,sans-Serif" font-size="10.00">_name.hpp</text>
</a>
</g>
</g>
<!-- Node1&#45;&gt;Node12 -->
<g id="edge46" class="edge">
<title>Node1&#45;&gt;Node12</title>
<path fill="none" stroke="midnightblue" d="M515.59,-671.75C578.22,-655.49 657,-621.52 657,-553.5 657,-553.5 657,-553.5 657,-423 657,-386.2 664.58,-343.35 668.96,-321.65"/>
<polygon fill="midnightblue" stroke="midnightblue" points="514.56,-668.4 505.7,-674.21 516.25,-675.2 514.56,-668.4"/>
</g>
<!-- Node16 -->
<g id="node16" class="node">
<title>Node16</title>
<g id="a_node16"><a xlink:href="invoke__lambda_8hpp.html" target="_top" xlink:title=" ">
<polygon fill="white" stroke="black" points="422,-537.5 422,-567.5 550,-567.5 550,-537.5 422,-537.5"/>
<text text-anchor="start" x="430" y="-555.5" font-family="Helvetica,sans-Serif" font-size="10.00">Lyra/include/lyra/detail</text>
<text text-anchor="middle" x="486" y="-544.5" font-family="Helvetica,sans-Serif" font-size="10.00">/invoke_lambda.hpp</text>
</a>
</g>
</g>
<!-- Node1&#45;&gt;Node16 -->
<g id="edge34" class="edge">
<title>Node1&#45;&gt;Node16</title>
<path fill="none" stroke="midnightblue" d="M453.92,-662.53C458.59,-654.1 463.49,-644.33 467,-635 475.6,-612.16 481.09,-584.2 483.86,-567.67"/>
<polygon fill="midnightblue" stroke="midnightblue" points="450.78,-660.97 448.84,-671.39 456.85,-664.45 450.78,-660.97"/>
</g>
<!-- Node19 -->
<g id="node19" class="node">
<title>Node19</title>
<g id="a_node19"><a xlink:href="parse_8hpp.html" target="_top" xlink:title=" ">
<polygon fill="white" stroke="black" points="330,-604.5 330,-634.5 458,-634.5 458,-604.5 330,-604.5"/>
<text text-anchor="start" x="338" y="-622.5" font-family="Helvetica,sans-Serif" font-size="10.00">Lyra/include/lyra/detail</text>
<text text-anchor="middle" x="394" y="-611.5" font-family="Helvetica,sans-Serif" font-size="10.00">/parse.hpp</text>
</a>
</g>
</g>
<!-- Node1&#45;&gt;Node19 -->
<g id="edge43" class="edge">
<title>Node1&#45;&gt;Node19</title>
<path fill="none" stroke="midnightblue" d="M424.19,-663.16C417.48,-653.68 409.87,-642.92 403.96,-634.58"/>
<polygon fill="midnightblue" stroke="midnightblue" points="421.38,-665.26 430.02,-671.4 427.1,-661.21 421.38,-665.26"/>
</g>
<!-- Node2&#45;&gt;Node3 -->
<g id="edge2" class="edge">
<title>Node2&#45;&gt;Node3</title>
<path fill="none" stroke="midnightblue" d="M321.82,-530.1C358.91,-490.04 437.37,-405.32 462.83,-377.82"/>
<polygon fill="midnightblue" stroke="midnightblue" points="319.21,-527.77 314.98,-537.48 324.34,-532.52 319.21,-527.77"/>
</g>
<!-- Node4 -->
<g id="node4" class="node">
<title>Node4</title>
<g id="a_node4"><a xlink:href="arg_8hpp.html" target="_top" xlink:title=" ">
<polygon fill="white" stroke="black" points="416.5,-123.5 416.5,-142.5 553.5,-142.5 553.5,-123.5 416.5,-123.5"/>
<text text-anchor="middle" x="485" y="-130.5" font-family="Helvetica,sans-Serif" font-size="10.00">Lyra/include/lyra/arg.hpp</text>
</a>
</g>
</g>
<!-- Node3&#45;&gt;Node4 -->
<g id="edge3" class="edge">
<title>Node3&#45;&gt;Node4</title>
<path fill="none" stroke="midnightblue" d="M472.12,-348.36C474.97,-300.95 482.41,-177.15 484.47,-142.9"/>
<polygon fill="midnightblue" stroke="midnightblue" points="468.62,-348.24 471.51,-358.43 475.61,-348.66 468.62,-348.24"/>
</g>
<!-- Node3&#45;&gt;Node5 -->
<g id="edge26" class="edge">
<title>Node3&#45;&gt;Node5</title>
<path fill="none" stroke="midnightblue" d="M451.47,-351.83C426.93,-330.9 388,-290.66 388,-246 388,-246 388,-246 388,-188 388,-157.9 389.83,-147.72 407,-123 442.03,-72.54 507.1,-35.54 538.75,-19.63"/>
<polygon fill="midnightblue" stroke="midnightblue" points="449.51,-354.75 459.46,-358.4 453.96,-349.35 449.51,-354.75"/>
</g>
<!-- Node6 -->
<g id="node6" class="node">
<title>Node6</title>
<g id="a_node6"><a xlink:href="main_8hpp.html" target="_top" xlink:title=" ">
<polygon fill="white" stroke="black" points="226,-62 226,-81 372,-81 372,-62 226,-62"/>
<text text-anchor="middle" x="299" y="-69" font-family="Helvetica,sans-Serif" font-size="10.00">Lyra/include/lyra/main.hpp</text>
</a>
</g>
</g>
<!-- Node3&#45;&gt;Node6 -->
<g id="edge27" class="edge">
<title>Node3&#45;&gt;Node6</title>
<path fill="none" stroke="midnightblue" d="M426.01,-354.95C407.66,-348 387.61,-337.48 374,-322 350.61,-295.4 350,-281.42 350,-246 350,-246 350,-246 350,-188 350,-144.82 319.8,-99.7 305.88,-81.2"/>
<polygon fill="midnightblue" stroke="midnightblue" points="425.09,-358.34 435.69,-358.35 427.42,-351.73 425.09,-358.34"/>
</g>
<!-- Node7 -->
<g id="node7" class="node">
<title>Node7</title>
<g id="a_node7"><a xlink:href="arguments_8hpp.html" target="_top" xlink:title=" ">
<polygon fill="white" stroke="black" points="595.5,-235.5 595.5,-254.5 768.5,-254.5 768.5,-235.5 595.5,-235.5"/>
<text text-anchor="middle" x="682" y="-242.5" font-family="Helvetica,sans-Serif" font-size="10.00">Lyra/include/lyra/arguments.hpp</text>
</a>
</g>
</g>
<!-- Node3&#45;&gt;Node7 -->
<g id="edge7" class="edge">
<title>Node3&#45;&gt;Node7</title>
<path fill="none" stroke="midnightblue" d="M494.63,-353.45C538.33,-328.39 630.62,-275.47 666.9,-254.66"/>
<polygon fill="midnightblue" stroke="midnightblue" points="492.77,-350.48 485.84,-358.49 496.25,-356.55 492.77,-350.48"/>
</g>
<!-- Node3&#45;&gt;Node12 -->
<g id="edge19" class="edge">
<title>Node3&#45;&gt;Node12</title>
<path fill="none" stroke="midnightblue" d="M509.48,-355.61C542.27,-345.9 589.52,-331.92 624.63,-321.52"/>
<polygon fill="midnightblue" stroke="midnightblue" points="508.39,-352.28 499.8,-358.48 510.38,-358.99 508.39,-352.28"/>
</g>
<!-- Node13 -->
<g id="node13" class="node">
<title>Node13</title>
<g id="a_node13"><a xlink:href="literal_8hpp.html" target="_top" xlink:title=" ">
<polygon fill="white" stroke="black" points="505.5,-179.5 505.5,-198.5 654.5,-198.5 654.5,-179.5 505.5,-179.5"/>
<text text-anchor="middle" x="580" y="-186.5" font-family="Helvetica,sans-Serif" font-size="10.00">Lyra/include/lyra/literal.hpp</text>
</a>
</g>
</g>
<!-- Node3&#45;&gt;Node13 -->
<g id="edge23" class="edge">
<title>Node3&#45;&gt;Node13</title>
<path fill="none" stroke="midnightblue" d="M481.6,-349.79C504.39,-312.78 557.39,-226.72 574.54,-198.87"/>
<polygon fill="midnightblue" stroke="midnightblue" points="478.52,-348.11 476.26,-358.46 484.48,-351.78 478.52,-348.11"/>
</g>
<!-- Node14 -->
<g id="node14" class="node">
<title>Node14</title>
<g id="a_node14"><a xlink:href="opt_8hpp.html" target="_top" xlink:title=" ">
<polygon fill="white" stroke="black" points="146.5,-179.5 146.5,-198.5 283.5,-198.5 283.5,-179.5 146.5,-179.5"/>
<text text-anchor="middle" x="215" y="-186.5" font-family="Helvetica,sans-Serif" font-size="10.00">Lyra/include/lyra/opt.hpp</text>
</a>
</g>
</g>
<!-- Node3&#45;&gt;Node14 -->
<g id="edge28" class="edge">
<title>Node3&#45;&gt;Node14</title>
<path fill="none" stroke="midnightblue" d="M417.76,-355.92C391.71,-348.89 360.72,-338.03 336,-322 282.01,-286.99 236.22,-222.29 220.67,-198.81"/>
<polygon fill="midnightblue" stroke="midnightblue" points="416.92,-359.32 427.48,-358.43 418.67,-352.54 416.92,-359.32"/>
</g>
<!-- Node4&#45;&gt;Node5 -->
<g id="edge4" class="edge">
<title>Node4&#45;&gt;Node5</title>
<path fill="none" stroke="midnightblue" d="M495.47,-114.4C511.15,-88.05 540.14,-39.34 551.87,-19.62"/>
<polygon fill="midnightblue" stroke="midnightblue" points="492.28,-112.91 490.18,-123.3 498.3,-116.49 492.28,-112.91"/>
</g>
<!-- Node4&#45;&gt;Node6 -->
<g id="edge5" class="edge">
<title>Node4&#45;&gt;Node6</title>
<path fill="none" stroke="midnightblue" d="M448.68,-120.38C412.52,-108.82 357.9,-91.34 325.6,-81.01"/>
<polygon fill="midnightblue" stroke="midnightblue" points="447.76,-123.76 458.35,-123.48 449.89,-117.09 447.76,-123.76"/>
</g>
<!-- Node6&#45;&gt;Node5 -->
<g id="edge6" class="edge">
<title>Node6&#45;&gt;Node5</title>
<path fill="none" stroke="midnightblue" d="M345.89,-59.69C395.95,-48.14 474.25,-30.08 520.1,-19.51"/>
<polygon fill="midnightblue" stroke="midnightblue" points="344.92,-56.32 335.97,-61.98 346.5,-63.14 344.92,-56.32"/>
</g>
<!-- Node7&#45;&gt;Node5 -->
<g id="edge18" class="edge">
<title>Node7&#45;&gt;Node5</title>
<path fill="none" stroke="midnightblue" d="M778.96,-238.47C869.43,-228.51 986.14,-200.69 955,-123 939.68,-84.78 927.69,-74.69 891,-56 846.23,-33.19 711.2,-20.73 627.17,-15"/>
<polygon fill="midnightblue" stroke="midnightblue" points="778.49,-235 768.91,-239.51 779.21,-241.96 778.49,-235"/>
</g>
<!-- Node8 -->
<g id="node8" class="node">
<title>Node8</title>
<g id="a_node8"><a xlink:href="cli_8hpp.html" target="_top" xlink:title=" ">
<polygon fill="white" stroke="black" points="798,-123.5 798,-142.5 930,-142.5 930,-123.5 798,-123.5"/>
<text text-anchor="middle" x="864" y="-130.5" font-family="Helvetica,sans-Serif" font-size="10.00">Lyra/include/lyra/cli.hpp</text>
</a>
</g>
</g>
<!-- Node7&#45;&gt;Node8 -->
<g id="edge8" class="edge">
<title>Node7&#45;&gt;Node8</title>
<path fill="none" stroke="midnightblue" d="M682.76,-224.74C684.36,-210.28 688.84,-190.98 701,-179 716.84,-163.39 771.02,-150.5 812.61,-142.57"/>
<polygon fill="midnightblue" stroke="midnightblue" points="679.25,-224.84 682.01,-235.07 686.23,-225.35 679.25,-224.84"/>
</g>
<!-- Node10 -->
<g id="node10" class="node">
<title>Node10</title>
<g id="a_node10"><a xlink:href="group_8hpp.html" target="_top" xlink:title=" ">
<polygon fill="white" stroke="black" points="709.5,-179.5 709.5,-198.5 858.5,-198.5 858.5,-179.5 709.5,-179.5"/>
<text text-anchor="middle" x="784" y="-186.5" font-family="Helvetica,sans-Serif" font-size="10.00">Lyra/include/lyra/group.hpp</text>
</a>
</g>
</g>
<!-- Node7&#45;&gt;Node10 -->
<g id="edge13" class="edge">
<title>Node7&#45;&gt;Node10</title>
<path fill="none" stroke="midnightblue" d="M707.33,-230.59C726.19,-220.61 751.38,-207.27 767.65,-198.65"/>
<polygon fill="midnightblue" stroke="midnightblue" points="705.59,-227.55 698.39,-235.32 708.86,-233.74 705.59,-227.55"/>
</g>
<!-- Node8&#45;&gt;Node5 -->
<g id="edge11" class="edge">
<title>Node8&#45;&gt;Node5</title>
<path fill="none" stroke="midnightblue" d="M857.67,-113.48C850.62,-95.78 837.44,-69.81 817,-56 786.73,-35.55 693.25,-23.11 627.08,-16.64"/>
<polygon fill="midnightblue" stroke="midnightblue" points="854.53,-115.08 861.28,-123.25 861.1,-112.66 854.53,-115.08"/>
</g>
<!-- Node8&#45;&gt;Node6 -->
<g id="edge12" class="edge">
<title>Node8&#45;&gt;Node6</title>
<path fill="none" stroke="midnightblue" d="M787.64,-122.86C633.7,-105.76 465.83,-88.9 372.1,-79.65"/>
<polygon fill="midnightblue" stroke="midnightblue" points="787.43,-126.36 797.75,-123.99 788.2,-119.4 787.43,-126.36"/>
</g>
<!-- Node9 -->
<g id="node9" class="node">
<title>Node9</title>
<g id="a_node9"><a xlink:href="cli__parser_8hpp.html" target="_top" xlink:title=" ">
<polygon fill="white" stroke="black" points="696.5,-56.5 696.5,-86.5 807.5,-86.5 807.5,-56.5 696.5,-56.5"/>
<text text-anchor="start" x="704.5" y="-74.5" font-family="Helvetica,sans-Serif" font-size="10.00">Lyra/include/lyra/cli</text>
<text text-anchor="middle" x="752" y="-63.5" font-family="Helvetica,sans-Serif" font-size="10.00">_parser.hpp</text>
</a>
</g>
</g>
<!-- Node8&#45;&gt;Node9 -->
<g id="edge9" class="edge">
<title>Node8&#45;&gt;Node9</title>
<path fill="none" stroke="midnightblue" d="M838.67,-118.54C820.69,-108.99 796.61,-96.2 778.4,-86.52"/>
<polygon fill="midnightblue" stroke="midnightblue" points="837.48,-121.87 847.95,-123.48 840.76,-115.69 837.48,-121.87"/>
</g>
<!-- Node9&#45;&gt;Node5 -->
<g id="edge10" class="edge">
<title>Node9&#45;&gt;Node5</title>
<path fill="none" stroke="midnightblue" d="M695.83,-53.36C659.55,-42.29 613.92,-28.37 585.09,-19.57"/>
<polygon fill="midnightblue" stroke="midnightblue" points="695.2,-56.83 705.79,-56.4 697.24,-50.13 695.2,-56.83"/>
</g>
<!-- Node10&#45;&gt;Node5 -->
<g id="edge17" class="edge">
<title>Node10&#45;&gt;Node5</title>
<path fill="none" stroke="midnightblue" d="M868.63,-181.38C913.88,-173.82 956.95,-157.63 939,-123 915.22,-77.13 891.89,-75.4 844,-56 773.65,-27.5 686.82,-16.96 627.21,-13.11"/>
<polygon fill="midnightblue" stroke="midnightblue" points="868.01,-177.94 858.66,-182.91 869.07,-184.86 868.01,-177.94"/>
</g>
<!-- Node10&#45;&gt;Node8 -->
<g id="edge14" class="edge">
<title>Node10&#45;&gt;Node8</title>
<path fill="none" stroke="midnightblue" d="M805.3,-173.62C819.92,-163.76 838.83,-150.99 851.18,-142.65"/>
<polygon fill="midnightblue" stroke="midnightblue" points="803.18,-170.83 796.85,-179.32 807.1,-176.63 803.18,-170.83"/>
</g>
<!-- Node11 -->
<g id="node11" class="node">
<title>Node11</title>
<g id="a_node11"><a xlink:href="command_8hpp.html" target="_top" xlink:title=" ">
<polygon fill="white" stroke="black" points="610,-123.5 610,-142.5 780,-142.5 780,-123.5 610,-123.5"/>
<text text-anchor="middle" x="695" y="-130.5" font-family="Helvetica,sans-Serif" font-size="10.00">Lyra/include/lyra/command.hpp</text>
</a>
</g>
</g>
<!-- Node10&#45;&gt;Node11 -->
<g id="edge15" class="edge">
<title>Node10&#45;&gt;Node11</title>
<path fill="none" stroke="midnightblue" d="M760.76,-173.9C744.44,-164 723.13,-151.07 709.26,-142.65"/>
<polygon fill="midnightblue" stroke="midnightblue" points="759.34,-177.13 769.7,-179.32 762.97,-171.14 759.34,-177.13"/>
</g>
<!-- Node11&#45;&gt;Node5 -->
<g id="edge16" class="edge">
<title>Node11&#45;&gt;Node5</title>
<path fill="none" stroke="midnightblue" d="M677.26,-116.44C647.84,-90.65 589.92,-39.86 566.83,-19.62"/>
<polygon fill="midnightblue" stroke="midnightblue" points="675.25,-119.34 685.08,-123.3 679.86,-114.07 675.25,-119.34"/>
</g>
<!-- Node12&#45;&gt;Node5 -->
<g id="edge22" class="edge">
<title>Node12&#45;&gt;Node5</title>
<path fill="none" stroke="midnightblue" d="M741.59,-297.66C846.75,-283.85 1034,-250.73 1034,-190 1034,-190 1034,-190 1034,-132 1034,-73.67 981.4,-77.06 927,-56 873.9,-35.44 718.93,-21.88 627.26,-15.41"/>
<polygon fill="midnightblue" stroke="midnightblue" points="740.84,-294.23 731.37,-298.98 741.74,-301.17 740.84,-294.23"/>
</g>
<!-- Node12&#45;&gt;Node7 -->
<g id="edge20" class="edge">
<title>Node12&#45;&gt;Node7</title>
<path fill="none" stroke="midnightblue" d="M676.07,-281.29C677.65,-271.86 679.37,-261.65 680.54,-254.66"/>
<polygon fill="midnightblue" stroke="midnightblue" points="672.58,-280.96 674.37,-291.4 679.48,-282.12 672.58,-280.96"/>
</g>
<!-- Node12&#45;&gt;Node8 -->
<g id="edge21" class="edge">
<title>Node12&#45;&gt;Node8</title>
<path fill="none" stroke="midnightblue" d="M741.2,-288.52C786.47,-273.34 841.89,-245.99 868,-199 877.99,-181.01 871.76,-155.75 867.31,-142.64"/>
<polygon fill="midnightblue" stroke="midnightblue" points="739.86,-285.28 731.41,-291.67 742,-291.94 739.86,-285.28"/>
</g>
<!-- Node13&#45;&gt;Node5 -->
<g id="edge25" class="edge">
<title>Node13&#45;&gt;Node5</title>
<path fill="none" stroke="midnightblue" d="M577.58,-169.35C572.67,-131.6 561.73,-47.36 558.15,-19.87"/>
<polygon fill="midnightblue" stroke="midnightblue" points="574.13,-170 578.89,-179.46 581.07,-169.1 574.13,-170"/>
</g>
<!-- Node13&#45;&gt;Node11 -->
<g id="edge24" class="edge">
<title>Node13&#45;&gt;Node11</title>
<path fill="none" stroke="midnightblue" d="M607.48,-175.1C628.97,-165.01 658.22,-151.27 676.86,-142.52"/>
<polygon fill="midnightblue" stroke="midnightblue" points="605.79,-172.02 598.22,-179.44 608.76,-178.36 605.79,-172.02"/>
</g>
<!-- Node14&#45;&gt;Node5 -->
<g id="edge32" class="edge">
<title>Node14&#45;&gt;Node5</title>
<path fill="none" stroke="midnightblue" d="M149.29,-177.02C114.04,-167.72 80.54,-151.24 95,-123 118.22,-77.66 140.56,-74.56 188,-56 240.89,-35.31 395.47,-21.8 486.91,-15.38"/>
<polygon fill="midnightblue" stroke="midnightblue" points="148.69,-180.48 159.23,-179.45 150.35,-173.68 148.69,-180.48"/>
</g>
<!-- Node14&#45;&gt;Node6 -->
<g id="edge33" class="edge">
<title>Node14&#45;&gt;Node6</title>
<path fill="none" stroke="midnightblue" d="M230.51,-171.9C238.23,-163.56 247.49,-153.04 255,-143 270.9,-121.74 286.68,-94.62 294.29,-81.05"/>
<polygon fill="midnightblue" stroke="midnightblue" points="227.74,-169.73 223.43,-179.41 232.84,-174.53 227.74,-169.73"/>
</g>
<!-- Node15 -->
<g id="node15" class="node">
<title>Node15</title>
<g id="a_node15"><a xlink:href="help_8hpp.html" target="_top" xlink:title=" ">
<polygon fill="white" stroke="black" points="104,-123.5 104,-142.5 246,-142.5 246,-123.5 104,-123.5"/>
<text text-anchor="middle" x="175" y="-130.5" font-family="Helvetica,sans-Serif" font-size="10.00">Lyra/include/lyra/help.hpp</text>
</a>
</g>
</g>
<!-- Node14&#45;&gt;Node15 -->
<g id="edge29" class="edge">
<title>Node14&#45;&gt;Node15</title>
<path fill="none" stroke="midnightblue" d="M202.3,-170.86C195.37,-161.5 187.09,-150.33 181.48,-142.75"/>
<polygon fill="midnightblue" stroke="midnightblue" points="199.63,-173.13 208.39,-179.08 205.25,-168.96 199.63,-173.13"/>
</g>
<!-- Node15&#45;&gt;Node5 -->
<g id="edge30" class="edge">
<title>Node15&#45;&gt;Node5</title>
<path fill="none" stroke="midnightblue" d="M179.99,-113.35C185.79,-95.56 197.2,-69.51 217,-56 259.61,-26.93 400.26,-16.6 486.75,-12.95"/>
<polygon fill="midnightblue" stroke="midnightblue" points="176.56,-112.6 177.08,-123.18 183.28,-114.59 176.56,-112.6"/>
</g>
<!-- Node15&#45;&gt;Node6 -->
<g id="edge31" class="edge">
<title>Node15&#45;&gt;Node6</title>
<path fill="none" stroke="midnightblue" d="M202.05,-119.02C226.1,-107.48 260.56,-90.94 281.27,-81.01"/>
<polygon fill="midnightblue" stroke="midnightblue" points="200.27,-115.99 192.77,-123.48 203.3,-122.3 200.27,-115.99"/>
</g>
<!-- Node17 -->
<g id="node17" class="node">
<title>Node17</title>
<g id="a_node17"><a xlink:href="bound_8hpp.html" target="_top" xlink:title=" ">
<polygon fill="white" stroke="black" points="407,-470.5 407,-500.5 535,-500.5 535,-470.5 407,-470.5"/>
<text text-anchor="start" x="415" y="-488.5" font-family="Helvetica,sans-Serif" font-size="10.00">Lyra/include/lyra/detail</text>
<text text-anchor="middle" x="471" y="-477.5" font-family="Helvetica,sans-Serif" font-size="10.00">/bound.hpp</text>
</a>
</g>
</g>
<!-- Node16&#45;&gt;Node17 -->
<g id="edge35" class="edge">
<title>Node16&#45;&gt;Node17</title>
<path fill="none" stroke="midnightblue" d="M480.44,-527.4C478.35,-518.37 476.06,-508.41 474.25,-500.58"/>
<polygon fill="midnightblue" stroke="midnightblue" points="477.09,-528.44 482.75,-537.4 483.91,-526.87 477.09,-528.44"/>
</g>
<!-- Node17&#45;&gt;Node3 -->
<g id="edge37" class="edge">
<title>Node17&#45;&gt;Node3</title>
<path fill="none" stroke="midnightblue" d="M471,-460.21C471,-434.41 471,-394.99 471,-377.67"/>
<polygon fill="midnightblue" stroke="midnightblue" points="467.5,-460.34 471,-470.34 474.5,-460.34 467.5,-460.34"/>
</g>
<!-- Node17&#45;&gt;Node12 -->
<g id="edge36" class="edge">
<title>Node17&#45;&gt;Node12</title>
<path fill="none" stroke="midnightblue" d="M494.81,-463.53C536.33,-426.97 620.91,-352.49 656.09,-321.51"/>
<polygon fill="midnightblue" stroke="midnightblue" points="492.3,-461.08 487.11,-470.31 496.93,-466.33 492.3,-461.08"/>
</g>
<!-- Node18 -->
<g id="node18" class="node">
<title>Node18</title>
<g id="a_node18"><a xlink:href="val_8hpp.html" target="_top" xlink:title=" ">
<polygon fill="white" stroke="black" points="206,-414.5 206,-433.5 342,-433.5 342,-414.5 206,-414.5"/>
<text text-anchor="middle" x="274" y="-421.5" font-family="Helvetica,sans-Serif" font-size="10.00">Lyra/include/lyra/val.hpp</text>
</a>
</g>
</g>
<!-- Node17&#45;&gt;Node18 -->
<g id="edge38" class="edge">
<title>Node17&#45;&gt;Node18</title>
<path fill="none" stroke="midnightblue" d="M414.72,-467.5C378,-456.41 331.62,-442.4 302.38,-433.57"/>
<polygon fill="midnightblue" stroke="midnightblue" points="413.73,-470.86 424.31,-470.4 415.75,-464.16 413.73,-470.86"/>
</g>
<!-- Node18&#45;&gt;Node3 -->
<g id="edge42" class="edge">
<title>Node18&#45;&gt;Node3</title>
<path fill="none" stroke="midnightblue" d="M315.23,-411.7C352.41,-401.51 406.27,-386.74 439.93,-377.52"/>
<polygon fill="midnightblue" stroke="midnightblue" points="313.93,-408.42 305.22,-414.44 315.78,-415.18 313.93,-408.42"/>
</g>
<!-- Node18&#45;&gt;Node5 -->
<g id="edge39" class="edge">
<title>Node18&#45;&gt;Node5</title>
<path fill="none" stroke="midnightblue" d="M195.76,-416.72C127.06,-406.42 38,-379.24 38,-307.5 38,-307.5 38,-307.5 38,-132 38,-82.63 74.09,-76.49 119,-56 182.81,-26.89 380.19,-16.39 486.86,-12.78"/>
<polygon fill="midnightblue" stroke="midnightblue" points="195.35,-420.2 205.74,-418.12 196.32,-413.27 195.35,-420.2"/>
</g>
<!-- Node18&#45;&gt;Node6 -->
<g id="edge40" class="edge">
<title>Node18&#45;&gt;Node6</title>
<path fill="none" stroke="midnightblue" d="M275.66,-404.28C279.04,-365.84 286.83,-275.2 292,-199 295.01,-154.67 297.63,-101.54 298.6,-81.09"/>
<polygon fill="midnightblue" stroke="midnightblue" points="272.16,-404.19 274.76,-414.46 279.13,-404.81 272.16,-404.19"/>
</g>
<!-- Node18&#45;&gt;Node14 -->
<g id="edge41" class="edge">
<title>Node18&#45;&gt;Node14</title>
<path fill="none" stroke="midnightblue" d="M268.04,-404.83C265.45,-396.66 262.44,-386.89 260,-378 241.14,-309.4 222.66,-225.49 216.86,-198.67"/>
<polygon fill="midnightblue" stroke="midnightblue" points="264.74,-405.98 271.14,-414.42 271.4,-403.83 264.74,-405.98"/>
</g>
<!-- Node19&#45;&gt;Node16 -->
<g id="edge45" class="edge">
<title>Node19&#45;&gt;Node16</title>
<path fill="none" stroke="midnightblue" d="M422.38,-598.45C436.53,-588.45 453.31,-576.6 466.08,-567.58"/>
<polygon fill="midnightblue" stroke="midnightblue" points="420.11,-595.77 413.96,-604.4 424.15,-601.48 420.11,-595.77"/>
</g>
<!-- Node19&#45;&gt;Node17 -->
<g id="edge44" class="edge">
<title>Node19&#45;&gt;Node17</title>
<path fill="none" stroke="midnightblue" d="M395.73,-594C397.85,-576.99 402.55,-554.36 413,-537 421.88,-522.24 436.54,-509.53 448.9,-500.56"/>
<polygon fill="midnightblue" stroke="midnightblue" points="392.22,-593.95 394.68,-604.25 399.18,-594.66 392.22,-593.95"/>
</g>
</g>
</svg>
        <g id="navigator" transform="translate(0 0)" fill="#404254">
                <rect fill="#f2f5e9" fill-opacity="0.5" stroke="#606060" stroke-width=".5" x="0" y="0" width="60" height="60"/>
                <use id="zoomplus" xlink:href="#zoomPlus" x="17" y="9" onmousedown="handleZoom(evt,'in')"/>
                <use id="zoomminus" xlink:href="#zoomMin" x="42" y="9" onmousedown="handleZoom(evt,'out')"/>
                <use id="reset" xlink:href="#resetDef" x="30" y="36" onmousedown="handleReset()"/>
                <g id="arrowUp" xlink:href="#dirArrow" transform="translate(30 24)" onmousedown="handlePan(0,-1)">
                  <use xlink:href="#rim" fill="#404040">
                        <set attributeName="fill" to="#808080" begin="arrowUp.mouseover" end="arrowUp.mouseout"/>
                  </use>
                  <path fill="none" stroke="white" stroke-width="1.5" d="M0,-3.0v7 M-2.5,-0.5L0,-3.0L2.5,-0.5"/>
                </g>
                <g id="arrowRight" xlink:href="#dirArrow" transform="rotate(90) translate(36 -43)" onmousedown="handlePan(1,0)">
                  <use xlink:href="#rim" fill="#404040">
                        <set attributeName="fill" to="#808080" begin="arrowRight.mouseover" end="arrowRight.mouseout"/>
                  </use>
                  <path fill="none" stroke="white" stroke-width="1.5" d="M0,-3.0v7 M-2.5,-0.5L0,-3.0L2.5,-0.5"/>
                </g>
                <g id="arrowDown" xlink:href="#dirArrow" transform="rotate(180) translate(-30 -48)" onmousedown="handlePan(0,1)">
                  <use xlink:href="#rim" fill="#404040">
                        <set attributeName="fill" to="#808080" begin="arrowDown.mouseover" end="arrowDown.mouseout"/>
                  </use>
                  <path fill="none" stroke="white" stroke-width="1.5" d="M0,-3.0v7 M-2.5,-0.5L0,-3.0L2.5,-0.5"/>
                </g>
                <g id="arrowLeft" xlink:href="#dirArrow" transform="rotate(270) translate(-36 17)" onmousedown="handlePan(-1,0)">
                  <use xlink:href="#rim" fill="#404040">
                        <set attributeName="fill" to="#808080" begin="arrowLeft.mouseover" end="arrowLeft.mouseout"/>
                  </use>
                  <path fill="none" stroke="white" stroke-width="1.5" d="M0,-3.0v7 M-2.5,-0.5L0,-3.0L2.5,-0.5"/>
                </g>
        </g>
        <svg viewBox="0 0 15 15" width="100%" height="30px" preserveAspectRatio="xMaxYMin meet">
         <g id="arrow_out" transform="scale(0.3 0.3)">
          <a xlink:href="parser__result_8hpp__dep__incl_org.svg" target="_base">
           <rect id="button" ry="5" rx="5" y="6" x="6" height="38" width="38"
                fill="#f2f5e9" fill-opacity="0.5" stroke="#606060" stroke-width="1.0"/>
           <path id="arrow"
             d="M 11.500037,31.436501 C 11.940474,20.09759 22.043105,11.32322 32.158766,21.979434 L 37.068811,17.246167 C 37.068811,17.246167 37.088388,32 37.088388,32 L 22.160133,31.978069 C 22.160133,31.978069 26.997745,27.140456 26.997745,27.140456 C 18.528582,18.264221 13.291696,25.230495 11.500037,31.436501 z"
             style="fill:#404040;"/>
          </a>
         </g>
        </svg>
</svg>
