<?xml version="1.0" encoding="UTF-8" standalone="no"?>
<!DOCTYPE svg PUBLIC "-//W3C//DTD SVG 1.1//EN"
 "http://www.w3.org/Graphics/SVG/1.1/DTD/svg11.dtd">
<!-- Generated by graphviz version 2.43.0 (0)
 -->
<!-- Title: Lyra/include/lyra/detail/result.hpp Pages: 1 -->
<!--zoomable 777 -->
<svg id="main" version="1.1" xmlns="http://www.w3.org/2000/svg" xmlns:xlink="http://www.w3.org/1999/xlink" xml:space="preserve" onload="init(evt)">
<style type="text/css"><![CDATA[
.edge:hover path { stroke: red; }
.edge:hover polygon { stroke: red; fill: red; }
]]></style>
<script type="text/javascript"><![CDATA[
var edges = document.getElementsByTagName('g');
if (edges && edges.length) {
  for (var i=0;i<edges.length;i++) {
    if (edges[i].id.substr(0,4)=='edge') {
      edges[i].setAttribute('class','edge');
    }
  }
}
]]></script>
        <defs>
                <circle id="rim" cx="0" cy="0" r="7"/>
                <circle id="rim2" cx="0" cy="0" r="3.5"/>
                <g id="zoomPlus">
                        <use xlink:href="#rim" fill="#404040">
                                <set attributeName="fill" to="#808080" begin="zoomplus.mouseover" end="zoomplus.mouseout"/>
                        </use>
                        <path d="M-4,0h8M0,-4v8" fill="none" stroke="white" stroke-width="1.5" pointer-events="none"/>
                </g>
                <g id="zoomMin">
                        <use xlink:href="#rim" fill="#404040">
                                <set attributeName="fill" to="#808080" begin="zoomminus.mouseover" end="zoomminus.mouseout"/>
                        </use>
                        <path d="M-4,0h8" fill="none" stroke="white" stroke-width="1.5" pointer-events="none"/>
                </g>
                <g id="dirArrow">
                        <path fill="none" stroke="white" stroke-width="1.5" d="M0,-3.0v7 M-2.5,-0.5L0,-3.0L2.5,-0.5"/>
                </g>
               <g id="resetDef">
                       <use xlink:href="#rim2" fill="#404040">
                               <set attributeName="fill" to="#808080" begin="reset.mouseover" end="reset.mouseout"/>
                       </use>
               </g>
        </defs>

<script type="text/javascript">
var viewWidth = 1042;
var viewHeight = 777;
var sectionId = 'dynsection-1';
</script>
<script xlink:href="svgpan.js"/>
<svg id="graph" class="graph">
<g id="viewport">
<title>Lyra/include/lyra/detail/result.hpp</title>
<polygon fill="white" stroke="transparent" points="-4,4 -4,-773 1038,-773 1038,4 -4,4"/>
<!-- Node1 -->
<g id="node1" class="node">
<title>Node1</title>
<g id="a_node1"><a xlink:title=" ">
<polygon fill="#bfbfbf" stroke="black" points="495,-738.5 495,-768.5 623,-768.5 623,-738.5 495,-738.5"/>
<text text-anchor="start" x="503" y="-756.5" font-family="Helvetica,sans-Serif" font-size="10.00">Lyra/include/lyra/detail</text>
<text text-anchor="middle" x="559" y="-745.5" font-family="Helvetica,sans-Serif" font-size="10.00">/result.hpp</text>
</a>
</g>
</g>
<!-- Node2 -->
<g id="node2" class="node">
<title>Node2</title>
<g id="a_node2"><a xlink:href="choices_8hpp.html" target="_top" xlink:title=" ">
<polygon fill="white" stroke="black" points="426,-604.5 426,-634.5 554,-634.5 554,-604.5 426,-604.5"/>
<text text-anchor="start" x="434" y="-622.5" font-family="Helvetica,sans-Serif" font-size="10.00">Lyra/include/lyra/detail</text>
<text text-anchor="middle" x="490" y="-611.5" font-family="Helvetica,sans-Serif" font-size="10.00">/choices.hpp</text>
</a>
</g>
</g>
<!-- Node1&#45;&gt;Node2 -->
<g id="edge1" class="edge">
<title>Node1&#45;&gt;Node2</title>
<path fill="none" stroke="midnightblue" d="M546.96,-729.48C532.64,-702.07 509.18,-657.19 497.33,-634.52"/>
<polygon fill="midnightblue" stroke="midnightblue" points="543.88,-731.13 551.62,-738.37 550.08,-727.89 543.88,-731.13"/>
</g>
<!-- Node3 -->
<g id="node3" class="node">
<title>Node3</title>
<g id="a_node3"><a xlink:href="parser_8hpp.html" target="_top" xlink:title=" ">
<polygon fill="white" stroke="black" points="414,-358.5 414,-377.5 566,-377.5 566,-358.5 414,-358.5"/>
<text text-anchor="middle" x="490" y="-365.5" font-family="Helvetica,sans-Serif" font-size="10.00">Lyra/include/lyra/parser.hpp</text>
</a>
</g>
</g>
<!-- Node1&#45;&gt;Node3 -->
<g id="edge43" class="edge">
<title>Node1&#45;&gt;Node3</title>
<path fill="none" stroke="midnightblue" d="M506.79,-734.6C459.78,-714.77 398,-677.82 398,-620.5 398,-620.5 398,-620.5 398,-484.5 398,-435.02 450.29,-394.5 476.03,-377.55"/>
<polygon fill="midnightblue" stroke="midnightblue" points="505.7,-737.93 516.28,-738.46 508.33,-731.45 505.7,-737.93"/>
</g>
<!-- Node16 -->
<g id="node16" class="node">
<title>Node16</title>
<g id="a_node16"><a xlink:href="invoke__lambda_8hpp.html" target="_top" xlink:title=" ">
<polygon fill="white" stroke="black" points="556,-537.5 556,-567.5 684,-567.5 684,-537.5 556,-537.5"/>
<text text-anchor="start" x="564" y="-555.5" font-family="Helvetica,sans-Serif" font-size="10.00">Lyra/include/lyra/detail</text>
<text text-anchor="middle" x="620" y="-544.5" font-family="Helvetica,sans-Serif" font-size="10.00">/invoke_lambda.hpp</text>
</a>
</g>
</g>
<!-- Node1&#45;&gt;Node16 -->
<g id="edge34" class="edge">
<title>Node1&#45;&gt;Node16</title>
<path fill="none" stroke="midnightblue" d="M566.35,-728.53C579.18,-686.65 605.32,-601.4 615.65,-567.68"/>
<polygon fill="midnightblue" stroke="midnightblue" points="562.97,-727.6 563.39,-738.19 569.66,-729.65 562.97,-727.6"/>
</g>
<!-- Node19 -->
<g id="node19" class="node">
<title>Node19</title>
<g id="a_node19"><a xlink:href="parser__result_8hpp.html" target="_top" xlink:title=" ">
<polygon fill="white" stroke="black" points="646.5,-671.5 646.5,-701.5 777.5,-701.5 777.5,-671.5 646.5,-671.5"/>
<text text-anchor="start" x="654.5" y="-689.5" font-family="Helvetica,sans-Serif" font-size="10.00">Lyra/include/lyra/parser</text>
<text text-anchor="middle" x="712" y="-678.5" font-family="Helvetica,sans-Serif" font-size="10.00">_result.hpp</text>
</a>
</g>
</g>
<!-- Node1&#45;&gt;Node19 -->
<g id="edge44" class="edge">
<title>Node1&#45;&gt;Node19</title>
<path fill="none" stroke="midnightblue" d="M601.59,-734.41C626.02,-724.03 656.22,-711.2 678.87,-701.58"/>
<polygon fill="midnightblue" stroke="midnightblue" points="600.03,-731.26 592.2,-738.4 602.77,-737.71 600.03,-731.26"/>
</g>
<!-- Node2&#45;&gt;Node3 -->
<g id="edge2" class="edge">
<title>Node2&#45;&gt;Node3</title>
<path fill="none" stroke="midnightblue" d="M490,-594.36C490,-540.56 490,-412.81 490,-377.93"/>
<polygon fill="midnightblue" stroke="midnightblue" points="486.5,-594.37 490,-604.37 493.5,-594.37 486.5,-594.37"/>
</g>
<!-- Node4 -->
<g id="node4" class="node">
<title>Node4</title>
<g id="a_node4"><a xlink:href="arg_8hpp.html" target="_top" xlink:title=" ">
<polygon fill="white" stroke="black" points="66.5,-123.5 66.5,-142.5 203.5,-142.5 203.5,-123.5 66.5,-123.5"/>
<text text-anchor="middle" x="135" y="-130.5" font-family="Helvetica,sans-Serif" font-size="10.00">Lyra/include/lyra/arg.hpp</text>
</a>
</g>
</g>
<!-- Node3&#45;&gt;Node4 -->
<g id="edge3" class="edge">
<title>Node3&#45;&gt;Node4</title>
<path fill="none" stroke="midnightblue" d="M403.37,-361.56C334.93,-355.67 246.38,-344 218,-322 157.1,-274.78 139.88,-173.4 135.99,-142.88"/>
<polygon fill="midnightblue" stroke="midnightblue" points="403.49,-365.08 413.74,-362.42 404.07,-358.11 403.49,-365.08"/>
</g>
<!-- Node5 -->
<g id="node5" class="node">
<title>Node5</title>
<g id="a_node5"><a xlink:href="include_2lyra_2lyra_8hpp.html" target="_top" xlink:title=" ">
<polygon fill="white" stroke="black" points="530,-0.5 530,-19.5 670,-19.5 670,-0.5 530,-0.5"/>
<text text-anchor="middle" x="600" y="-7.5" font-family="Helvetica,sans-Serif" font-size="10.00">Lyra/include/lyra/lyra.hpp</text>
</a>
</g>
</g>
<!-- Node3&#45;&gt;Node5 -->
<g id="edge26" class="edge">
<title>Node3&#45;&gt;Node5</title>
<path fill="none" stroke="midnightblue" d="M501.86,-349.82C521.3,-320.49 559.17,-258.2 573,-199 578.75,-174.38 566.41,-168.05 563,-143 561.8,-134.19 561.59,-131.78 563,-123 569.41,-83.17 587.86,-38.32 596.03,-19.76"/>
<polygon fill="midnightblue" stroke="midnightblue" points="498.73,-348.2 496.04,-358.45 504.53,-352.12 498.73,-348.2"/>
</g>
<!-- Node6 -->
<g id="node6" class="node">
<title>Node6</title>
<g id="a_node6"><a xlink:href="main_8hpp.html" target="_top" xlink:title=" ">
<polygon fill="white" stroke="black" points="197,-62 197,-81 343,-81 343,-62 197,-62"/>
<text text-anchor="middle" x="270" y="-69" font-family="Helvetica,sans-Serif" font-size="10.00">Lyra/include/lyra/main.hpp</text>
</a>
</g>
</g>
<!-- Node3&#45;&gt;Node6 -->
<g id="edge27" class="edge">
<title>Node3&#45;&gt;Node6</title>
<path fill="none" stroke="midnightblue" d="M404.02,-361.55C328.98,-351.57 232,-323.65 232,-246 232,-246 232,-246 232,-188 232,-146.2 254.73,-99.97 265.03,-81.16"/>
<polygon fill="midnightblue" stroke="midnightblue" points="403.63,-365.03 413.99,-362.79 404.5,-358.08 403.63,-365.03"/>
</g>
<!-- Node7 -->
<g id="node7" class="node">
<title>Node7</title>
<g id="a_node7"><a xlink:href="arguments_8hpp.html" target="_top" xlink:title=" ">
<polygon fill="white" stroke="black" points="755.5,-235.5 755.5,-254.5 928.5,-254.5 928.5,-235.5 755.5,-235.5"/>
<text text-anchor="middle" x="842" y="-242.5" font-family="Helvetica,sans-Serif" font-size="10.00">Lyra/include/lyra/arguments.hpp</text>
</a>
</g>
</g>
<!-- Node3&#45;&gt;Node7 -->
<g id="edge7" class="edge">
<title>Node3&#45;&gt;Node7</title>
<path fill="none" stroke="midnightblue" d="M524.51,-355.14C595.17,-330.85 754.88,-275.95 816.8,-254.66"/>
<polygon fill="midnightblue" stroke="midnightblue" points="523.07,-351.93 514.75,-358.49 525.35,-358.55 523.07,-351.93"/>
</g>
<!-- Node12 -->
<g id="node12" class="node">
<title>Node12</title>
<g id="a_node12"><a xlink:href="exe__name_8hpp.html" target="_top" xlink:title=" ">
<polygon fill="white" stroke="black" points="783,-291.5 783,-321.5 901,-321.5 901,-291.5 783,-291.5"/>
<text text-anchor="start" x="791" y="-309.5" font-family="Helvetica,sans-Serif" font-size="10.00">Lyra/include/lyra/exe</text>
<text text-anchor="middle" x="842" y="-298.5" font-family="Helvetica,sans-Serif" font-size="10.00">_name.hpp</text>
</a>
</g>
</g>
<!-- Node3&#45;&gt;Node12 -->
<g id="edge19" class="edge">
<title>Node3&#45;&gt;Node12</title>
<path fill="none" stroke="midnightblue" d="M550.54,-356.77C615.6,-345.77 718.33,-328.41 782.84,-317.5"/>
<polygon fill="midnightblue" stroke="midnightblue" points="549.71,-353.36 540.43,-358.48 550.88,-360.26 549.71,-353.36"/>
</g>
<!-- Node13 -->
<g id="node13" class="node">
<title>Node13</title>
<g id="a_node13"><a xlink:href="literal_8hpp.html" target="_top" xlink:title=" ">
<polygon fill="white" stroke="black" points="415.5,-179.5 415.5,-198.5 564.5,-198.5 564.5,-179.5 415.5,-179.5"/>
<text text-anchor="middle" x="490" y="-186.5" font-family="Helvetica,sans-Serif" font-size="10.00">Lyra/include/lyra/literal.hpp</text>
</a>
</g>
</g>
<!-- Node3&#45;&gt;Node13 -->
<g id="edge23" class="edge">
<title>Node3&#45;&gt;Node13</title>
<path fill="none" stroke="midnightblue" d="M490,-348.35C490,-310.6 490,-226.36 490,-198.87"/>
<polygon fill="midnightblue" stroke="midnightblue" points="486.5,-348.46 490,-358.46 493.5,-348.46 486.5,-348.46"/>
</g>
<!-- Node14 -->
<g id="node14" class="node">
<title>Node14</title>
<g id="a_node14"><a xlink:href="opt_8hpp.html" target="_top" xlink:title=" ">
<polygon fill="white" stroke="black" points="260.5,-179.5 260.5,-198.5 397.5,-198.5 397.5,-179.5 260.5,-179.5"/>
<text text-anchor="middle" x="329" y="-186.5" font-family="Helvetica,sans-Serif" font-size="10.00">Lyra/include/lyra/opt.hpp</text>
</a>
</g>
</g>
<!-- Node3&#45;&gt;Node14 -->
<g id="edge28" class="edge">
<title>Node3&#45;&gt;Node14</title>
<path fill="none" stroke="midnightblue" d="M475.2,-350.73C442.02,-314.25 362.62,-226.96 337.07,-198.87"/>
<polygon fill="midnightblue" stroke="midnightblue" points="472.92,-353.42 482.23,-358.46 478.09,-348.71 472.92,-353.42"/>
</g>
<!-- Node4&#45;&gt;Node5 -->
<g id="edge4" class="edge">
<title>Node4&#45;&gt;Node5</title>
<path fill="none" stroke="midnightblue" d="M142.35,-113.66C150.6,-95.7 165.79,-69.17 188,-56 244.16,-22.69 427.78,-13.99 529.9,-11.75"/>
<polygon fill="midnightblue" stroke="midnightblue" points="139.04,-112.51 138.3,-123.08 145.47,-115.28 139.04,-112.51"/>
</g>
<!-- Node4&#45;&gt;Node6 -->
<g id="edge5" class="edge">
<title>Node4&#45;&gt;Node6</title>
<path fill="none" stroke="midnightblue" d="M163.75,-119.33C189.96,-107.78 227.95,-91.03 250.69,-81.01"/>
<polygon fill="midnightblue" stroke="midnightblue" points="162.08,-116.24 154.34,-123.48 164.9,-122.64 162.08,-116.24"/>
</g>
<!-- Node6&#45;&gt;Node5 -->
<g id="edge6" class="edge">
<title>Node6&#45;&gt;Node5</title>
<path fill="none" stroke="midnightblue" d="M327.19,-60.19C391.07,-48.67 493.3,-30.24 552.81,-19.51"/>
<polygon fill="midnightblue" stroke="midnightblue" points="326.5,-56.76 317.28,-61.98 327.74,-63.65 326.5,-56.76"/>
</g>
<!-- Node7&#45;&gt;Node5 -->
<g id="edge18" class="edge">
<title>Node7&#45;&gt;Node5</title>
<path fill="none" stroke="midnightblue" d="M863.65,-229.43C887.31,-212.06 923.87,-180.6 939,-143 953.44,-107.13 964.48,-85.08 939,-56 921.59,-36.13 764.5,-22.13 670.39,-15.45"/>
<polygon fill="midnightblue" stroke="midnightblue" points="861.4,-226.73 855.28,-235.38 865.46,-232.44 861.4,-226.73"/>
</g>
<!-- Node8 -->
<g id="node8" class="node">
<title>Node8</title>
<g id="a_node8"><a xlink:href="cli_8hpp.html" target="_top" xlink:title=" ">
<polygon fill="white" stroke="black" points="798,-123.5 798,-142.5 930,-142.5 930,-123.5 798,-123.5"/>
<text text-anchor="middle" x="864" y="-130.5" font-family="Helvetica,sans-Serif" font-size="10.00">Lyra/include/lyra/cli.hpp</text>
</a>
</g>
</g>
<!-- Node7&#45;&gt;Node8 -->
<g id="edge8" class="edge">
<title>Node7&#45;&gt;Node8</title>
<path fill="none" stroke="midnightblue" d="M845.73,-225.35C850.55,-201.25 858.74,-160.31 862.28,-142.59"/>
<polygon fill="midnightblue" stroke="midnightblue" points="842.26,-224.88 843.73,-235.37 849.12,-226.25 842.26,-224.88"/>
</g>
<!-- Node10 -->
<g id="node10" class="node">
<title>Node10</title>
<g id="a_node10"><a xlink:href="group_8hpp.html" target="_top" xlink:title=" ">
<polygon fill="white" stroke="black" points="691.5,-179.5 691.5,-198.5 840.5,-198.5 840.5,-179.5 691.5,-179.5"/>
<text text-anchor="middle" x="766" y="-186.5" font-family="Helvetica,sans-Serif" font-size="10.00">Lyra/include/lyra/group.hpp</text>
</a>
</g>
</g>
<!-- Node7&#45;&gt;Node10 -->
<g id="edge13" class="edge">
<title>Node7&#45;&gt;Node10</title>
<path fill="none" stroke="midnightblue" d="M821.42,-229.38C807.69,-219.62 790.07,-207.11 778.43,-198.83"/>
<polygon fill="midnightblue" stroke="midnightblue" points="819.61,-232.38 829.79,-235.32 823.66,-226.68 819.61,-232.38"/>
</g>
<!-- Node8&#45;&gt;Node5 -->
<g id="edge11" class="edge">
<title>Node8&#45;&gt;Node5</title>
<path fill="none" stroke="midnightblue" d="M846.02,-116.66C822.67,-97 782.91,-64.42 766,-56 729.79,-37.96 685.4,-26.41 651.64,-19.53"/>
<polygon fill="midnightblue" stroke="midnightblue" points="843.91,-119.47 853.81,-123.26 848.44,-114.12 843.91,-119.47"/>
</g>
<!-- Node8&#45;&gt;Node6 -->
<g id="edge12" class="edge">
<title>Node8&#45;&gt;Node6</title>
<path fill="none" stroke="midnightblue" d="M787.75,-124.36C672.85,-112.85 456.72,-91.2 343.47,-79.86"/>
<polygon fill="midnightblue" stroke="midnightblue" points="787.58,-127.86 797.88,-125.38 788.27,-120.9 787.58,-127.86"/>
</g>
<!-- Node9 -->
<g id="node9" class="node">
<title>Node9</title>
<g id="a_node9"><a xlink:href="cli__parser_8hpp.html" target="_top" xlink:title=" ">
<polygon fill="white" stroke="black" points="818.5,-56.5 818.5,-86.5 929.5,-86.5 929.5,-56.5 818.5,-56.5"/>
<text text-anchor="start" x="826.5" y="-74.5" font-family="Helvetica,sans-Serif" font-size="10.00">Lyra/include/lyra/cli</text>
<text text-anchor="middle" x="874" y="-63.5" font-family="Helvetica,sans-Serif" font-size="10.00">_parser.hpp</text>
</a>
</g>
</g>
<!-- Node8&#45;&gt;Node9 -->
<g id="edge9" class="edge">
<title>Node8&#45;&gt;Node9</title>
<path fill="none" stroke="midnightblue" d="M867.1,-113.53C868.57,-104.81 870.29,-94.59 871.64,-86.52"/>
<polygon fill="midnightblue" stroke="midnightblue" points="863.64,-113.03 865.43,-123.48 870.54,-114.19 863.64,-113.03"/>
</g>
<!-- Node9&#45;&gt;Node5 -->
<g id="edge10" class="edge">
<title>Node9&#45;&gt;Node5</title>
<path fill="none" stroke="midnightblue" d="M808.29,-56.23C755.6,-44.79 683.41,-29.11 639.32,-19.54"/>
<polygon fill="midnightblue" stroke="midnightblue" points="807.71,-59.69 818.22,-58.39 809.19,-52.85 807.71,-59.69"/>
</g>
<!-- Node10&#45;&gt;Node5 -->
<g id="edge17" class="edge">
<title>Node10&#45;&gt;Node5</title>
<path fill="none" stroke="midnightblue" d="M765.09,-169.05C763.65,-155.3 760.02,-136.78 751,-123 717.3,-71.53 651.36,-35.13 618.93,-19.52"/>
<polygon fill="midnightblue" stroke="midnightblue" points="761.62,-169.56 765.86,-179.27 768.6,-169.03 761.62,-169.56"/>
</g>
<!-- Node10&#45;&gt;Node8 -->
<g id="edge14" class="edge">
<title>Node10&#45;&gt;Node8</title>
<path fill="none" stroke="midnightblue" d="M790.59,-174.45C808.68,-164.48 832.73,-151.23 848.29,-142.65"/>
<polygon fill="midnightblue" stroke="midnightblue" points="788.81,-171.43 781.75,-179.32 792.19,-177.56 788.81,-171.43"/>
</g>
<!-- Node11 -->
<g id="node11" class="node">
<title>Node11</title>
<g id="a_node11"><a xlink:href="command_8hpp.html" target="_top" xlink:title=" ">
<polygon fill="white" stroke="black" points="572,-123.5 572,-142.5 742,-142.5 742,-123.5 572,-123.5"/>
<text text-anchor="middle" x="657" y="-130.5" font-family="Helvetica,sans-Serif" font-size="10.00">Lyra/include/lyra/command.hpp</text>
</a>
</g>
</g>
<!-- Node10&#45;&gt;Node11 -->
<g id="edge15" class="edge">
<title>Node10&#45;&gt;Node11</title>
<path fill="none" stroke="midnightblue" d="M739.48,-174.86C719.27,-164.85 692.01,-151.35 674.47,-142.65"/>
<polygon fill="midnightblue" stroke="midnightblue" points="737.97,-178.02 748.49,-179.32 741.08,-171.75 737.97,-178.02"/>
</g>
<!-- Node11&#45;&gt;Node5 -->
<g id="edge16" class="edge">
<title>Node11&#45;&gt;Node5</title>
<path fill="none" stroke="midnightblue" d="M648.55,-114.05C636.1,-87.62 613.31,-39.26 604.06,-19.62"/>
<polygon fill="midnightblue" stroke="midnightblue" points="645.47,-115.74 652.9,-123.3 651.81,-112.76 645.47,-115.74"/>
</g>
<!-- Node12&#45;&gt;Node5 -->
<g id="edge22" class="edge">
<title>Node12&#45;&gt;Node5</title>
<path fill="none" stroke="midnightblue" d="M900.58,-287.79C944.11,-270.59 996,-239.66 996,-190 996,-190 996,-190 996,-132 996,-94.62 990.28,-77.91 960,-56 915.09,-23.51 761.78,-14.42 670.34,-11.92"/>
<polygon fill="midnightblue" stroke="midnightblue" points="899.26,-284.55 891.15,-291.36 901.74,-291.09 899.26,-284.55"/>
</g>
<!-- Node12&#45;&gt;Node7 -->
<g id="edge20" class="edge">
<title>Node12&#45;&gt;Node7</title>
<path fill="none" stroke="midnightblue" d="M842,-281.29C842,-271.86 842,-261.65 842,-254.66"/>
<polygon fill="midnightblue" stroke="midnightblue" points="838.5,-281.4 842,-291.4 845.5,-281.4 838.5,-281.4"/>
</g>
<!-- Node12&#45;&gt;Node8 -->
<g id="edge21" class="edge">
<title>Node12&#45;&gt;Node8</title>
<path fill="none" stroke="midnightblue" d="M900.81,-287.07C915.48,-279.53 929.45,-269.15 938,-255 963.46,-212.84 903.97,-162.7 876.73,-142.79"/>
<polygon fill="midnightblue" stroke="midnightblue" points="899.18,-283.97 891.62,-291.4 902.16,-290.3 899.18,-283.97"/>
</g>
<!-- Node13&#45;&gt;Node5 -->
<g id="edge25" class="edge">
<title>Node13&#45;&gt;Node5</title>
<path fill="none" stroke="midnightblue" d="M491.6,-169.21C494.78,-141.82 503.99,-90.44 530,-56 542.63,-39.28 563.41,-27.07 579.05,-19.62"/>
<polygon fill="midnightblue" stroke="midnightblue" points="488.1,-169.07 490.58,-179.37 495.06,-169.77 488.1,-169.07"/>
</g>
<!-- Node13&#45;&gt;Node11 -->
<g id="edge24" class="edge">
<title>Node13&#45;&gt;Node11</title>
<path fill="none" stroke="midnightblue" d="M526.17,-176.3C557.64,-166.13 602.49,-151.62 630.66,-142.52"/>
<polygon fill="midnightblue" stroke="midnightblue" points="524.9,-173.04 516.46,-179.44 527.05,-179.7 524.9,-173.04"/>
</g>
<!-- Node14&#45;&gt;Node5 -->
<g id="edge32" class="edge">
<title>Node14&#45;&gt;Node5</title>
<path fill="none" stroke="midnightblue" d="M379.25,-176.57C402.18,-169.59 428.68,-158.86 449,-143 486.02,-114.09 473.48,-86.73 509,-56 528.33,-39.28 554.96,-27.06 574.41,-19.61"/>
<polygon fill="midnightblue" stroke="midnightblue" points="377.97,-173.3 369.33,-179.43 379.91,-180.02 377.97,-173.3"/>
</g>
<!-- Node14&#45;&gt;Node6 -->
<g id="edge33" class="edge">
<title>Node14&#45;&gt;Node6</title>
<path fill="none" stroke="midnightblue" d="M311.57,-172.13C303.66,-164.09 294.81,-153.76 289,-143 277.92,-122.47 272.95,-95.03 271.03,-81.22"/>
<polygon fill="midnightblue" stroke="midnightblue" points="309.39,-174.89 319,-179.33 314.26,-169.86 309.39,-174.89"/>
</g>
<!-- Node15 -->
<g id="node15" class="node">
<title>Node15</title>
<g id="a_node15"><a xlink:href="help_8hpp.html" target="_top" xlink:title=" ">
<polygon fill="white" stroke="black" points="298,-123.5 298,-142.5 440,-142.5 440,-123.5 298,-123.5"/>
<text text-anchor="middle" x="369" y="-130.5" font-family="Helvetica,sans-Serif" font-size="10.00">Lyra/include/lyra/help.hpp</text>
</a>
</g>
</g>
<!-- Node14&#45;&gt;Node15 -->
<g id="edge29" class="edge">
<title>Node14&#45;&gt;Node15</title>
<path fill="none" stroke="midnightblue" d="M341.7,-170.86C348.63,-161.5 356.91,-150.33 362.52,-142.75"/>
<polygon fill="midnightblue" stroke="midnightblue" points="338.75,-168.96 335.61,-179.08 344.37,-173.13 338.75,-168.96"/>
</g>
<!-- Node15&#45;&gt;Node5 -->
<g id="edge30" class="edge">
<title>Node15&#45;&gt;Node5</title>
<path fill="none" stroke="midnightblue" d="M383.05,-115.84C398.75,-98.71 425.71,-71.98 454,-56 485.64,-38.13 525.23,-26.49 555.2,-19.54"/>
<polygon fill="midnightblue" stroke="midnightblue" points="380.36,-113.6 376.29,-123.39 385.57,-118.27 380.36,-113.6"/>
</g>
<!-- Node15&#45;&gt;Node6 -->
<g id="edge31" class="edge">
<title>Node15&#45;&gt;Node6</title>
<path fill="none" stroke="midnightblue" d="M346.11,-118.24C326.99,-106.75 300.32,-90.72 284.16,-81.01"/>
<polygon fill="midnightblue" stroke="midnightblue" points="344.44,-121.32 354.82,-123.48 348.05,-115.32 344.44,-121.32"/>
</g>
<!-- Node17 -->
<g id="node17" class="node">
<title>Node17</title>
<g id="a_node17"><a xlink:href="bound_8hpp.html" target="_top" xlink:title=" ">
<polygon fill="white" stroke="black" points="556,-470.5 556,-500.5 684,-500.5 684,-470.5 556,-470.5"/>
<text text-anchor="start" x="564" y="-488.5" font-family="Helvetica,sans-Serif" font-size="10.00">Lyra/include/lyra/detail</text>
<text text-anchor="middle" x="620" y="-477.5" font-family="Helvetica,sans-Serif" font-size="10.00">/bound.hpp</text>
</a>
</g>
</g>
<!-- Node16&#45;&gt;Node17 -->
<g id="edge35" class="edge">
<title>Node16&#45;&gt;Node17</title>
<path fill="none" stroke="midnightblue" d="M620,-527.11C620,-518.15 620,-508.32 620,-500.58"/>
<polygon fill="midnightblue" stroke="midnightblue" points="616.5,-527.4 620,-537.4 623.5,-527.4 616.5,-527.4"/>
</g>
<!-- Node17&#45;&gt;Node3 -->
<g id="edge37" class="edge">
<title>Node17&#45;&gt;Node3</title>
<path fill="none" stroke="midnightblue" d="M596.46,-463.59C567.63,-437.97 520.12,-395.76 499.76,-377.67"/>
<polygon fill="midnightblue" stroke="midnightblue" points="594.26,-466.31 604.06,-470.34 598.91,-461.08 594.26,-466.31"/>
</g>
<!-- Node17&#45;&gt;Node12 -->
<g id="edge36" class="edge">
<title>Node17&#45;&gt;Node12</title>
<path fill="none" stroke="midnightblue" d="M645.73,-463.99C691.38,-427.59 785.41,-352.62 824.43,-321.51"/>
<polygon fill="midnightblue" stroke="midnightblue" points="643.43,-461.34 637.79,-470.31 647.79,-466.82 643.43,-461.34"/>
</g>
<!-- Node18 -->
<g id="node18" class="node">
<title>Node18</title>
<g id="a_node18"><a xlink:href="val_8hpp.html" target="_top" xlink:title=" ">
<polygon fill="white" stroke="black" points="126,-414.5 126,-433.5 262,-433.5 262,-414.5 126,-414.5"/>
<text text-anchor="middle" x="194" y="-421.5" font-family="Helvetica,sans-Serif" font-size="10.00">Lyra/include/lyra/val.hpp</text>
</a>
</g>
</g>
<!-- Node17&#45;&gt;Node18 -->
<g id="edge38" class="edge">
<title>Node17&#45;&gt;Node18</title>
<path fill="none" stroke="midnightblue" d="M545.71,-474.12C463.22,-462.6 331.63,-444.22 254.96,-433.51"/>
<polygon fill="midnightblue" stroke="midnightblue" points="545.37,-477.61 555.76,-475.53 546.34,-470.68 545.37,-477.61"/>
</g>
<!-- Node18&#45;&gt;Node3 -->
<g id="edge42" class="edge">
<title>Node18&#45;&gt;Node3</title>
<path fill="none" stroke="midnightblue" d="M251,-412.6C306.94,-402.4 391.23,-387.02 443.32,-377.52"/>
<polygon fill="midnightblue" stroke="midnightblue" points="250.11,-409.21 240.9,-414.44 251.37,-416.09 250.11,-409.21"/>
</g>
<!-- Node18&#45;&gt;Node5 -->
<g id="edge39" class="edge">
<title>Node18&#45;&gt;Node5</title>
<path fill="none" stroke="midnightblue" d="M129.48,-412.17C73.03,-398.56 0,-369.07 0,-307.5 0,-307.5 0,-307.5 0,-132 0,-24.94 371.72,-11.45 530,-10.56"/>
<polygon fill="midnightblue" stroke="midnightblue" points="128.92,-415.63 139.44,-414.45 130.48,-408.81 128.92,-415.63"/>
</g>
<!-- Node18&#45;&gt;Node6 -->
<g id="edge40" class="edge">
<title>Node18&#45;&gt;Node6</title>
<path fill="none" stroke="midnightblue" d="M150.74,-411.3C104.57,-395.87 38,-363.85 38,-307.5 38,-307.5 38,-307.5 38,-188 38,-157.9 35.18,-143.73 57,-123 77.84,-103.21 148.41,-89.18 202.67,-81"/>
<polygon fill="midnightblue" stroke="midnightblue" points="149.94,-414.72 160.53,-414.43 152.07,-408.05 149.94,-414.72"/>
</g>
<!-- Node18&#45;&gt;Node14 -->
<g id="edge41" class="edge">
<title>Node18&#45;&gt;Node14</title>
<path fill="none" stroke="midnightblue" d="M204.11,-405.54C231.05,-359.05 303.83,-233.44 323.85,-198.9"/>
<polygon fill="midnightblue" stroke="midnightblue" points="200.95,-404.02 198.96,-414.43 207.01,-407.53 200.95,-404.02"/>
</g>
<!-- Node19&#45;&gt;Node2 -->
<g id="edge45" class="edge">
<title>Node19&#45;&gt;Node2</title>
<path fill="none" stroke="midnightblue" d="M654.21,-668.58C618.15,-658.02 572.28,-644.59 538.19,-634.61"/>
<polygon fill="midnightblue" stroke="midnightblue" points="653.52,-672.02 664.1,-671.48 655.49,-665.31 653.52,-672.02"/>
</g>
<!-- Node19&#45;&gt;Node3 -->
<g id="edge52" class="edge">
<title>Node19&#45;&gt;Node3</title>
<path fill="none" stroke="midnightblue" d="M750.65,-666.28C763.31,-658.22 776.34,-647.73 785,-635 805.92,-604.25 804,-590.69 804,-553.5 804,-553.5 804,-553.5 804,-484.5 804,-429.9 634.66,-393.2 544.69,-377.56"/>
<polygon fill="midnightblue" stroke="midnightblue" points="748.78,-663.32 742.01,-671.46 752.38,-669.32 748.78,-663.32"/>
</g>
<!-- Node19&#45;&gt;Node5 -->
<g id="edge51" class="edge">
<title>Node19&#45;&gt;Node5</title>
<path fill="none" stroke="midnightblue" d="M787.43,-670.29C882.6,-648.9 1034,-606.53 1034,-553.5 1034,-553.5 1034,-553.5 1034,-132 1034,-92.52 1021.22,-77.34 988,-56 936.94,-23.2 767.59,-14.27 670.33,-11.86"/>
<polygon fill="midnightblue" stroke="midnightblue" points="786.55,-666.9 777.55,-672.48 788.07,-673.74 786.55,-666.9"/>
</g>
<!-- Node19&#45;&gt;Node12 -->
<g id="edge50" class="edge">
<title>Node19&#45;&gt;Node12</title>
<path fill="none" stroke="midnightblue" d="M760.41,-667.12C776.5,-659.16 793.48,-648.52 806,-635 832.9,-605.94 842,-593.1 842,-553.5 842,-553.5 842,-553.5 842,-423 842,-386.51 842,-343.52 842,-321.72"/>
<polygon fill="midnightblue" stroke="midnightblue" points="758.65,-664.08 751.08,-671.49 761.62,-670.41 758.65,-664.08"/>
</g>
<!-- Node19&#45;&gt;Node16 -->
<g id="edge46" class="edge">
<title>Node19&#45;&gt;Node16</title>
<path fill="none" stroke="midnightblue" d="M673.35,-666.28C660.69,-658.22 647.66,-647.73 639,-635 625.03,-614.46 621.24,-584.99 620.27,-567.69"/>
<polygon fill="midnightblue" stroke="midnightblue" points="671.62,-669.32 681.99,-671.46 675.22,-663.32 671.62,-669.32"/>
</g>
<!-- Node20 -->
<g id="node20" class="node">
<title>Node20</title>
<g id="a_node20"><a xlink:href="parse_8hpp.html" target="_top" xlink:title=" ">
<polygon fill="white" stroke="black" points="648,-604.5 648,-634.5 776,-634.5 776,-604.5 648,-604.5"/>
<text text-anchor="start" x="656" y="-622.5" font-family="Helvetica,sans-Serif" font-size="10.00">Lyra/include/lyra/detail</text>
<text text-anchor="middle" x="712" y="-611.5" font-family="Helvetica,sans-Serif" font-size="10.00">/parse.hpp</text>
</a>
</g>
</g>
<!-- Node19&#45;&gt;Node20 -->
<g id="edge47" class="edge">
<title>Node19&#45;&gt;Node20</title>
<path fill="none" stroke="midnightblue" d="M712,-661.11C712,-652.15 712,-642.32 712,-634.58"/>
<polygon fill="midnightblue" stroke="midnightblue" points="708.5,-661.4 712,-671.4 715.5,-661.4 708.5,-661.4"/>
</g>
<!-- Node20&#45;&gt;Node16 -->
<g id="edge49" class="edge">
<title>Node20&#45;&gt;Node16</title>
<path fill="none" stroke="midnightblue" d="M683.62,-598.45C669.47,-588.45 652.69,-576.6 639.92,-567.58"/>
<polygon fill="midnightblue" stroke="midnightblue" points="681.85,-601.48 692.04,-604.4 685.89,-595.77 681.85,-601.48"/>
</g>
<!-- Node20&#45;&gt;Node17 -->
<g id="edge48" class="edge">
<title>Node20&#45;&gt;Node17</title>
<path fill="none" stroke="midnightblue" d="M710.89,-593.92C709.07,-576.7 704.46,-553.85 693,-537 682.34,-521.33 665.07,-509.06 650.01,-500.54"/>
<polygon fill="midnightblue" stroke="midnightblue" points="707.43,-594.62 711.73,-604.31 714.41,-594.06 707.43,-594.62"/>
</g>
</g>
</svg>
        <g id="navigator" transform="translate(0 0)" fill="#404254">
                <rect fill="#f2f5e9" fill-opacity="0.5" stroke="#606060" stroke-width=".5" x="0" y="0" width="60" height="60"/>
                <use id="zoomplus" xlink:href="#zoomPlus" x="17" y="9" onmousedown="handleZoom(evt,'in')"/>
                <use id="zoomminus" xlink:href="#zoomMin" x="42" y="9" onmousedown="handleZoom(evt,'out')"/>
                <use id="reset" xlink:href="#resetDef" x="30" y="36" onmousedown="handleReset()"/>
                <g id="arrowUp" xlink:href="#dirArrow" transform="translate(30 24)" onmousedown="handlePan(0,-1)">
                  <use xlink:href="#rim" fill="#404040">
                        <set attributeName="fill" to="#808080" begin="arrowUp.mouseover" end="arrowUp.mouseout"/>
                  </use>
                  <path fill="none" stroke="white" stroke-width="1.5" d="M0,-3.0v7 M-2.5,-0.5L0,-3.0L2.5,-0.5"/>
                </g>
                <g id="arrowRight" xlink:href="#dirArrow" transform="rotate(90) translate(36 -43)" onmousedown="handlePan(1,0)">
                  <use xlink:href="#rim" fill="#404040">
                        <set attributeName="fill" to="#808080" begin="arrowRight.mouseover" end="arrowRight.mouseout"/>
                  </use>
                  <path fill="none" stroke="white" stroke-width="1.5" d="M0,-3.0v7 M-2.5,-0.5L0,-3.0L2.5,-0.5"/>
                </g>
                <g id="arrowDown" xlink:href="#dirArrow" transform="rotate(180) translate(-30 -48)" onmousedown="handlePan(0,1)">
                  <use xlink:href="#rim" fill="#404040">
                        <set attributeName="fill" to="#808080" begin="arrowDown.mouseover" end="arrowDown.mouseout"/>
                  </use>
                  <path fill="none" stroke="white" stroke-width="1.5" d="M0,-3.0v7 M-2.5,-0.5L0,-3.0L2.5,-0.5"/>
                </g>
                <g id="arrowLeft" xlink:href="#dirArrow" transform="rotate(270) translate(-36 17)" onmousedown="handlePan(-1,0)">
                  <use xlink:href="#rim" fill="#404040">
                        <set attributeName="fill" to="#808080" begin="arrowLeft.mouseover" end="arrowLeft.mouseout"/>
                  </use>
                  <path fill="none" stroke="white" stroke-width="1.5" d="M0,-3.0v7 M-2.5,-0.5L0,-3.0L2.5,-0.5"/>
                </g>
        </g>
        <svg viewBox="0 0 15 15" width="100%" height="30px" preserveAspectRatio="xMaxYMin meet">
         <g id="arrow_out" transform="scale(0.3 0.3)">
          <a xlink:href="result_8hpp__dep__incl_org.svg" target="_base">
           <rect id="button" ry="5" rx="5" y="6" x="6" height="38" width="38"
                fill="#f2f5e9" fill-opacity="0.5" stroke="#606060" stroke-width="1.0"/>
           <path id="arrow"
             d="M 11.500037,31.436501 C 11.940474,20.09759 22.043105,11.32322 32.158766,21.979434 L 37.068811,17.246167 C 37.068811,17.246167 37.088388,32 37.088388,32 L 22.160133,31.978069 C 22.160133,31.978069 26.997745,27.140456 26.997745,27.140456 C 18.528582,18.264221 13.291696,25.230495 11.500037,31.436501 z"
             style="fill:#404040;"/>
          </a>
         </g>
        </svg>
</svg>
