<?xml version="1.0" encoding="UTF-8" standalone="no"?>
<!DOCTYPE svg PUBLIC "-//W3C//DTD SVG 1.1//EN"
 "http://www.w3.org/Graphics/SVG/1.1/DTD/svg11.dtd">
<!-- Generated by graphviz version 2.43.0 (0)
 -->
<!-- Title: main/spaces.h Pages: 1 -->
<svg width="305pt" height="196pt"
 viewBox="0.00 0.00 305.18 196.00" xmlns="http://www.w3.org/2000/svg" xmlns:xlink="http://www.w3.org/1999/xlink">
<g id="graph0" class="graph" transform="scale(1 1) rotate(0) translate(4 192)">
<title>main/spaces.h</title>
<polygon fill="white" stroke="transparent" points="-4,4 -4,-192 301.18,-192 301.18,4 -4,4"/>
<!-- Node1 -->
<g id="node1" class="node">
<title>Node1</title>
<g id="a_node1"><a xlink:title=" ">
<polygon fill="#bfbfbf" stroke="black" points="24.18,-168.5 24.18,-187.5 111.18,-187.5 111.18,-168.5 24.18,-168.5"/>
<text text-anchor="middle" x="67.68" y="-175.5" font-family="Helvetica,sans-Serif" font-size="10.00">main/spaces.h</text>
</a>
</g>
</g>
<!-- Node2 -->
<g id="node2" class="node">
<title>Node2</title>
<g id="a_node2"><a xlink:href="multisurface_8cpp.html" target="_top" xlink:title=" ">
<polygon fill="white" stroke="black" points="63.68,-0.5 63.68,-19.5 189.68,-19.5 189.68,-0.5 63.68,-0.5"/>
<text text-anchor="middle" x="126.68" y="-7.5" font-family="Helvetica,sans-Serif" font-size="10.00">main/multisurface.cpp</text>
</a>
</g>
</g>
<!-- Node1&#45;&gt;Node2 -->
<g id="edge1" class="edge">
<title>Node1&#45;&gt;Node2</title>
<path fill="none" stroke="midnightblue" d="M49.58,-161.42C24.11,-137.59 -16.61,-91.16 7.68,-56 20.87,-36.92 43.26,-25.92 65.08,-19.58"/>
<polygon fill="midnightblue" stroke="midnightblue" points="47.44,-164.21 57.21,-168.32 52.14,-159.02 47.44,-164.21"/>
</g>
<!-- Node3 -->
<g id="node3" class="node">
<title>Node3</title>
<g id="a_node3"><a xlink:href="surface_8cpp.html" target="_top" xlink:title=" ">
<polygon fill="white" stroke="black" points="17.18,-56.5 17.18,-75.5 118.18,-75.5 118.18,-56.5 17.18,-56.5"/>
<text text-anchor="middle" x="67.68" y="-63.5" font-family="Helvetica,sans-Serif" font-size="10.00">main/surface.cpp</text>
</a>
</g>
</g>
<!-- Node1&#45;&gt;Node3 -->
<g id="edge2" class="edge">
<title>Node1&#45;&gt;Node3</title>
<path fill="none" stroke="midnightblue" d="M67.68,-158.35C67.68,-134.25 67.68,-93.31 67.68,-75.59"/>
<polygon fill="midnightblue" stroke="midnightblue" points="64.19,-158.37 67.68,-168.37 71.19,-158.37 64.19,-158.37"/>
</g>
<!-- Node4 -->
<g id="node4" class="node">
<title>Node4</title>
<g id="a_node4"><a xlink:href="surface_8h.html" target="_top" xlink:title=" ">
<polygon fill="white" stroke="black" points="99.18,-112.5 99.18,-131.5 188.18,-131.5 188.18,-112.5 99.18,-112.5"/>
<text text-anchor="middle" x="143.68" y="-119.5" font-family="Helvetica,sans-Serif" font-size="10.00">main/surface.h</text>
</a>
</g>
</g>
<!-- Node1&#45;&gt;Node4 -->
<g id="edge3" class="edge">
<title>Node1&#45;&gt;Node4</title>
<path fill="none" stroke="midnightblue" d="M88.26,-162.38C102,-152.62 119.61,-140.11 131.25,-131.83"/>
<polygon fill="midnightblue" stroke="midnightblue" points="86.02,-159.68 79.9,-168.32 90.07,-165.38 86.02,-159.68"/>
</g>
<!-- Node4&#45;&gt;Node2 -->
<g id="edge4" class="edge">
<title>Node4&#45;&gt;Node2</title>
<path fill="none" stroke="midnightblue" d="M140.8,-102.35C137.08,-78.25 130.75,-37.31 128.01,-19.59"/>
<polygon fill="midnightblue" stroke="midnightblue" points="137.36,-103.02 142.35,-112.37 144.28,-101.95 137.36,-103.02"/>
</g>
<!-- Node4&#45;&gt;Node3 -->
<g id="edge8" class="edge">
<title>Node4&#45;&gt;Node3</title>
<path fill="none" stroke="midnightblue" d="M123.11,-106.38C109.37,-96.62 91.76,-84.11 80.12,-75.83"/>
<polygon fill="midnightblue" stroke="midnightblue" points="121.3,-109.38 131.47,-112.32 125.35,-103.68 121.3,-109.38"/>
</g>
<!-- Node5 -->
<g id="node5" class="node">
<title>Node5</title>
<g id="a_node5"><a xlink:href="multisurface_8h.html" target="_top" xlink:title=" ">
<polygon fill="white" stroke="black" points="175.18,-56.5 175.18,-75.5 290.18,-75.5 290.18,-56.5 175.18,-56.5"/>
<text text-anchor="middle" x="232.68" y="-63.5" font-family="Helvetica,sans-Serif" font-size="10.00">main/multisurface.h</text>
</a>
</g>
</g>
<!-- Node4&#45;&gt;Node5 -->
<g id="edge5" class="edge">
<title>Node4&#45;&gt;Node5</title>
<path fill="none" stroke="midnightblue" d="M166.92,-106.9C183.24,-97 204.55,-84.07 218.42,-75.65"/>
<polygon fill="midnightblue" stroke="midnightblue" points="164.72,-104.14 157.98,-112.32 168.35,-110.13 164.72,-104.14"/>
</g>
<!-- Node5&#45;&gt;Node2 -->
<g id="edge7" class="edge">
<title>Node5&#45;&gt;Node2</title>
<path fill="none" stroke="midnightblue" d="M206.63,-51.73C187,-41.73 160.66,-28.31 143.67,-19.65"/>
<polygon fill="midnightblue" stroke="midnightblue" points="205.16,-54.9 215.65,-56.32 208.33,-48.67 205.16,-54.9"/>
</g>
<!-- Node6 -->
<g id="node6" class="node">
<title>Node6</title>
<g id="a_node6"><a xlink:href="main_8cpp.html" target="_top" xlink:title=" ">
<polygon fill="white" stroke="black" points="208.18,-0.5 208.18,-19.5 297.18,-19.5 297.18,-0.5 208.18,-0.5"/>
<text text-anchor="middle" x="252.68" y="-7.5" font-family="Helvetica,sans-Serif" font-size="10.00">main/main.cpp</text>
</a>
</g>
</g>
<!-- Node5&#45;&gt;Node6 -->
<g id="edge6" class="edge">
<title>Node5&#45;&gt;Node6</title>
<path fill="none" stroke="midnightblue" d="M239.47,-46.69C242.84,-37.59 246.75,-27.01 249.44,-19.75"/>
<polygon fill="midnightblue" stroke="midnightblue" points="236.18,-45.49 235.99,-56.08 242.74,-47.92 236.18,-45.49"/>
</g>
</g>
</svg>
