<?xml version="1.0" encoding="UTF-8" standalone="no"?>
<!DOCTYPE svg PUBLIC "-//W3C//DTD SVG 1.1//EN"
 "http://www.w3.org/Graphics/SVG/1.1/DTD/svg11.dtd">
<!-- Generated by graphviz version 2.43.0 (0)
 -->
<!-- Title: main/spaces.h Pages: 1 -->
<svg width="490pt" height="196pt"
 viewBox="0.00 0.00 490.00 196.00" xmlns="http://www.w3.org/2000/svg" xmlns:xlink="http://www.w3.org/1999/xlink">
<g id="graph0" class="graph" transform="scale(1 1) rotate(0) translate(4 192)">
<title>main/spaces.h</title>
<polygon fill="white" stroke="transparent" points="-4,4 -4,-192 486,-192 486,4 -4,4"/>
<!-- Node1 -->
<g id="node1" class="node">
<title>Node1</title>
<g id="a_node1"><a xlink:title=" ">
<polygon fill="#bfbfbf" stroke="black" points="219.5,-168.5 219.5,-187.5 306.5,-187.5 306.5,-168.5 219.5,-168.5"/>
<text text-anchor="middle" x="263" y="-175.5" font-family="Helvetica,sans-Serif" font-size="10.00">main/spaces.h</text>
</a>
</g>
</g>
<!-- Node2 -->
<g id="node2" class="node">
<title>Node2</title>
<g id="a_node2"><a xlink:title=" ">
<polygon fill="white" stroke="#bfbfbf" points="378,-56.5 378,-75.5 420,-75.5 420,-56.5 378,-56.5"/>
<text text-anchor="middle" x="399" y="-63.5" font-family="Helvetica,sans-Serif" font-size="10.00">array</text>
</a>
</g>
</g>
<!-- Node1&#45;&gt;Node2 -->
<g id="edge1" class="edge">
<title>Node1&#45;&gt;Node2</title>
<path fill="none" stroke="midnightblue" d="M306.78,-170.01C331.43,-163.92 360.99,-152.66 380,-132 391.56,-119.44 396.12,-100.22 397.9,-85.93"/>
<polygon fill="midnightblue" stroke="midnightblue" points="401.41,-86.03 398.81,-75.76 394.43,-85.4 401.41,-86.03"/>
</g>
<!-- Node3 -->
<g id="node3" class="node">
<title>Node3</title>
<g id="a_node3"><a xlink:title=" ">
<polygon fill="white" stroke="#bfbfbf" points="187.5,-112.5 187.5,-131.5 234.5,-131.5 234.5,-112.5 187.5,-112.5"/>
<text text-anchor="middle" x="211" y="-119.5" font-family="Helvetica,sans-Serif" font-size="10.00">vector</text>
</a>
</g>
</g>
<!-- Node1&#45;&gt;Node3 -->
<g id="edge2" class="edge">
<title>Node1&#45;&gt;Node3</title>
<path fill="none" stroke="midnightblue" d="M254.41,-168.08C246.84,-160.22 235.62,-148.57 226.49,-139.08"/>
<polygon fill="midnightblue" stroke="midnightblue" points="228.88,-136.53 219.43,-131.75 223.84,-141.38 228.88,-136.53"/>
</g>
<!-- Node4 -->
<g id="node4" class="node">
<title>Node4</title>
<g id="a_node4"><a xlink:href="logger_8h.html" target="_top" xlink:title=" ">
<polygon fill="white" stroke="black" points="79,-112.5 79,-131.5 169,-131.5 169,-112.5 79,-112.5"/>
<text text-anchor="middle" x="124" y="-119.5" font-family="Helvetica,sans-Serif" font-size="10.00">logger/logger.h</text>
</a>
</g>
</g>
<!-- Node1&#45;&gt;Node4 -->
<g id="edge3" class="edge">
<title>Node1&#45;&gt;Node4</title>
<path fill="none" stroke="midnightblue" d="M240.98,-168.44C217.9,-159.48 181.44,-145.31 155.36,-135.18"/>
<polygon fill="midnightblue" stroke="midnightblue" points="156.51,-131.88 145.92,-131.52 153.98,-138.4 156.51,-131.88"/>
</g>
<!-- Node7 -->
<g id="node7" class="node">
<title>Node7</title>
<g id="a_node7"><a xlink:href="enum_8h.html" target="_top" xlink:title=" ">
<polygon fill="white" stroke="black" points="212.5,-56.5 212.5,-75.5 289.5,-75.5 289.5,-56.5 212.5,-56.5"/>
<text text-anchor="middle" x="251" y="-63.5" font-family="Helvetica,sans-Serif" font-size="10.00">utils/enum.h</text>
</a>
</g>
</g>
<!-- Node1&#45;&gt;Node7 -->
<g id="edge16" class="edge">
<title>Node1&#45;&gt;Node7</title>
<path fill="none" stroke="midnightblue" d="M262.06,-168.37C260.12,-150.62 255.65,-109.67 253.03,-85.6"/>
<polygon fill="midnightblue" stroke="midnightblue" points="256.5,-85.15 251.94,-75.59 249.54,-85.91 256.5,-85.15"/>
</g>
<!-- Node9 -->
<g id="node9" class="node">
<title>Node9</title>
<g id="a_node9"><a xlink:href="arrays_8h.html" target="_top" xlink:title=" ">
<polygon fill="white" stroke="black" points="291,-112.5 291,-131.5 371,-131.5 371,-112.5 291,-112.5"/>
<text text-anchor="middle" x="331" y="-119.5" font-family="Helvetica,sans-Serif" font-size="10.00">utils/arrays.h</text>
</a>
</g>
</g>
<!-- Node1&#45;&gt;Node9 -->
<g id="edge9" class="edge">
<title>Node1&#45;&gt;Node9</title>
<path fill="none" stroke="midnightblue" d="M273.93,-168.32C284.17,-160.18 299.72,-147.84 312,-138.09"/>
<polygon fill="midnightblue" stroke="midnightblue" points="314.22,-140.79 319.88,-131.83 309.87,-135.31 314.22,-140.79"/>
</g>
<!-- Node5 -->
<g id="node5" class="node">
<title>Node5</title>
<g id="a_node5"><a xlink:title=" ">
<polygon fill="white" stroke="#bfbfbf" points="195.5,-0.5 195.5,-19.5 264.5,-19.5 264.5,-0.5 195.5,-0.5"/>
<text text-anchor="middle" x="230" y="-7.5" font-family="Helvetica,sans-Serif" font-size="10.00">type_traits</text>
</a>
</g>
</g>
<!-- Node4&#45;&gt;Node5 -->
<g id="edge4" class="edge">
<title>Node4&#45;&gt;Node5</title>
<path fill="none" stroke="midnightblue" d="M132.32,-112.37C150.04,-93.97 191.77,-50.67 214.53,-27.05"/>
<polygon fill="midnightblue" stroke="midnightblue" points="217.3,-29.22 221.72,-19.59 212.26,-24.36 217.3,-29.22"/>
</g>
<!-- Node6 -->
<g id="node6" class="node">
<title>Node6</title>
<g id="a_node6"><a xlink:title=" ">
<polygon fill="white" stroke="#bfbfbf" points="0,-56.5 0,-75.5 58,-75.5 58,-56.5 0,-56.5"/>
<text text-anchor="middle" x="29" y="-63.5" font-family="Helvetica,sans-Serif" font-size="10.00">memory</text>
</a>
</g>
</g>
<!-- Node4&#45;&gt;Node6 -->
<g id="edge5" class="edge">
<title>Node4&#45;&gt;Node6</title>
<path fill="none" stroke="midnightblue" d="M108.74,-112.32C93.78,-103.82 70.75,-90.73 53.27,-80.8"/>
<polygon fill="midnightblue" stroke="midnightblue" points="54.65,-77.55 44.23,-75.65 51.19,-83.64 54.65,-77.55"/>
</g>
<!-- Node4&#45;&gt;Node7 -->
<g id="edge6" class="edge">
<title>Node4&#45;&gt;Node7</title>
<path fill="none" stroke="midnightblue" d="M144.12,-112.44C165.02,-103.56 197.93,-89.56 221.72,-79.45"/>
<polygon fill="midnightblue" stroke="midnightblue" points="223.14,-82.65 230.97,-75.52 220.4,-76.21 223.14,-82.65"/>
</g>
<!-- Node8 -->
<g id="node8" class="node">
<title>Node8</title>
<g id="a_node8"><a xlink:title=" ">
<polygon fill="white" stroke="#bfbfbf" points="76,-56.5 76,-75.5 156,-75.5 156,-56.5 76,-56.5"/>
<text text-anchor="middle" x="116" y="-63.5" font-family="Helvetica,sans-Serif" font-size="10.00">logger.levels</text>
</a>
</g>
</g>
<!-- Node4&#45;&gt;Node8 -->
<g id="edge8" class="edge">
<title>Node4&#45;&gt;Node8</title>
<path fill="none" stroke="midnightblue" d="M122.68,-112.08C121.62,-104.93 120.09,-94.64 118.77,-85.69"/>
<polygon fill="midnightblue" stroke="midnightblue" points="122.22,-85.13 117.3,-75.75 115.3,-86.16 122.22,-85.13"/>
</g>
<!-- Node7&#45;&gt;Node5 -->
<g id="edge7" class="edge">
<title>Node7&#45;&gt;Node5</title>
<path fill="none" stroke="midnightblue" d="M247.53,-56.08C244.69,-48.77 240.57,-38.18 237.04,-29.1"/>
<polygon fill="midnightblue" stroke="midnightblue" points="240.29,-27.8 233.4,-19.75 233.77,-30.34 240.29,-27.8"/>
</g>
<!-- Node9&#45;&gt;Node2 -->
<g id="edge10" class="edge">
<title>Node9&#45;&gt;Node2</title>
<path fill="none" stroke="midnightblue" d="M341.93,-112.32C352.17,-104.18 367.72,-91.84 380,-82.09"/>
<polygon fill="midnightblue" stroke="midnightblue" points="382.22,-84.79 387.88,-75.83 377.87,-79.31 382.22,-84.79"/>
</g>
<!-- Node9&#45;&gt;Node7 -->
<g id="edge15" class="edge">
<title>Node9&#45;&gt;Node7</title>
<path fill="none" stroke="midnightblue" d="M318.15,-112.32C305.78,-103.98 286.87,-91.21 272.26,-81.35"/>
<polygon fill="midnightblue" stroke="midnightblue" points="274.07,-78.35 263.82,-75.65 270.15,-84.15 274.07,-78.35"/>
</g>
<!-- Node10 -->
<g id="node10" class="node">
<title>Node10</title>
<g id="a_node10"><a xlink:href="cutils_8h.html" target="_top" xlink:title=" ">
<polygon fill="white" stroke="black" points="308,-56.5 308,-75.5 360,-75.5 360,-56.5 308,-56.5"/>
<text text-anchor="middle" x="334" y="-63.5" font-family="Helvetica,sans-Serif" font-size="10.00">cutils.h</text>
</a>
</g>
</g>
<!-- Node9&#45;&gt;Node10 -->
<g id="edge11" class="edge">
<title>Node9&#45;&gt;Node10</title>
<path fill="none" stroke="midnightblue" d="M331.5,-112.08C331.89,-105.01 332.45,-94.86 332.95,-85.99"/>
<polygon fill="midnightblue" stroke="midnightblue" points="336.45,-85.93 333.51,-75.75 329.46,-85.54 336.45,-85.93"/>
</g>
<!-- Node10&#45;&gt;Node5 -->
<g id="edge12" class="edge">
<title>Node10&#45;&gt;Node5</title>
<path fill="none" stroke="midnightblue" d="M317.29,-56.32C300.69,-47.7 275,-34.36 255.78,-24.39"/>
<polygon fill="midnightblue" stroke="midnightblue" points="257.16,-21.16 246.67,-19.65 253.93,-27.37 257.16,-21.16"/>
</g>
<!-- Node11 -->
<g id="node11" class="node">
<title>Node11</title>
<g id="a_node11"><a xlink:title=" ">
<polygon fill="white" stroke="#bfbfbf" points="404,-0.5 404,-19.5 482,-19.5 482,-0.5 404,-0.5"/>
<text text-anchor="middle" x="443" y="-7.5" font-family="Helvetica,sans-Serif" font-size="10.00">h2lib/basic.h</text>
</a>
</g>
</g>
<!-- Node10&#45;&gt;Node11 -->
<g id="edge13" class="edge">
<title>Node10&#45;&gt;Node11</title>
<path fill="none" stroke="midnightblue" d="M351.51,-56.32C369.07,-47.62 396.33,-34.12 416.53,-24.11"/>
<polygon fill="midnightblue" stroke="midnightblue" points="418.12,-27.23 425.53,-19.65 415.02,-20.96 418.12,-27.23"/>
</g>
<!-- Node12 -->
<g id="node12" class="node">
<title>Node12</title>
<g id="a_node12"><a xlink:title=" ">
<polygon fill="white" stroke="#bfbfbf" points="282.5,-0.5 282.5,-19.5 385.5,-19.5 385.5,-0.5 282.5,-0.5"/>
<text text-anchor="middle" x="334" y="-7.5" font-family="Helvetica,sans-Serif" font-size="10.00">h2lib/dh2matrix.h</text>
</a>
</g>
</g>
<!-- Node10&#45;&gt;Node12 -->
<g id="edge14" class="edge">
<title>Node10&#45;&gt;Node12</title>
<path fill="none" stroke="midnightblue" d="M334,-56.08C334,-49.01 334,-38.86 334,-29.99"/>
<polygon fill="midnightblue" stroke="midnightblue" points="337.5,-29.75 334,-19.75 330.5,-29.75 337.5,-29.75"/>
</g>
</g>
</svg>
