<?xml version="1.0" encoding="UTF-8" standalone="no"?>
<!DOCTYPE svg PUBLIC "-//W3C//DTD SVG 1.1//EN"
 "http://www.w3.org/Graphics/SVG/1.1/DTD/svg11.dtd">
<!-- Generated by graphviz version 2.43.0 (0)
 -->
<!-- Title: lyra::detail::BoundFlagLambda&lt; L &gt; Pages: 1 -->
<svg width="236pt" height="209pt"
 viewBox="0.00 0.00 235.50 209.00" xmlns="http://www.w3.org/2000/svg" xmlns:xlink="http://www.w3.org/1999/xlink">
<g id="graph0" class="graph" transform="scale(1 1) rotate(0) translate(4 205)">
<title>lyra::detail::BoundFlagLambda&lt; L &gt;</title>
<polygon fill="white" stroke="transparent" points="-4,4 -4,-205 231.5,-205 231.5,4 -4,4"/>
<!-- Node1 -->
<g id="node1" class="node">
<title>Node1</title>
<g id="a_node1"><a xlink:title=" ">
<polygon fill="#bfbfbf" stroke="black" points="0,-0.5 0,-19.5 194,-19.5 194,-0.5 0,-0.5"/>
<text text-anchor="middle" x="97" y="-7.5" font-family="Helvetica,sans-Serif" font-size="10.00">lyra::detail::BoundFlagLambda&lt; L &gt;</text>
</a>
</g>
</g>
<!-- Node2 -->
<g id="node2" class="node">
<title>Node2</title>
<g id="a_node2"><a xlink:href="structlyra_1_1detail_1_1_bound_flag_ref_base.html" target="_top" xlink:title=" ">
<polygon fill="white" stroke="black" points="13.5,-67.5 13.5,-86.5 180.5,-86.5 180.5,-67.5 13.5,-67.5"/>
<text text-anchor="middle" x="97" y="-74.5" font-family="Helvetica,sans-Serif" font-size="10.00">lyra::detail::BoundFlagRefBase</text>
</a>
</g>
</g>
<!-- Node2&#45;&gt;Node1 -->
<g id="edge1" class="edge">
<title>Node2&#45;&gt;Node1</title>
<path fill="none" stroke="midnightblue" d="M90.8,-57.04C89.74,-44.67 90.22,-29.12 92.24,-19.63"/>
<polygon fill="midnightblue" stroke="midnightblue" points="87.37,-57.81 92.21,-67.23 94.31,-56.85 87.37,-57.81"/>
</g>
<!-- Node2&#45;&gt;Node1 -->
<g id="edge6" class="edge">
<title>Node2&#45;&gt;Node1</title>
<path fill="none" stroke="midnightblue" d="M103.2,-57.04C104.26,-44.67 103.78,-29.12 101.76,-19.63"/>
<polygon fill="midnightblue" stroke="midnightblue" points="99.69,-56.85 101.79,-67.23 106.63,-57.81 99.69,-56.85"/>
</g>
<!-- Node3 -->
<g id="node3" class="node">
<title>Node3</title>
<g id="a_node3"><a xlink:href="structlyra_1_1detail_1_1_bound_ref.html" target="_top" xlink:title=" ">
<polygon fill="white" stroke="black" points="36,-124.5 36,-143.5 158,-143.5 158,-124.5 36,-124.5"/>
<text text-anchor="middle" x="97" y="-131.5" font-family="Helvetica,sans-Serif" font-size="10.00">lyra::detail::BoundRef</text>
</a>
</g>
</g>
<!-- Node3&#45;&gt;Node2 -->
<g id="edge2" class="edge">
<title>Node3&#45;&gt;Node2</title>
<path fill="none" stroke="midnightblue" d="M90.58,-114.42C89.87,-105.05 90.31,-94.14 91.91,-86.71"/>
<polygon fill="midnightblue" stroke="midnightblue" points="87.12,-114.97 91.94,-124.41 94.05,-114.03 87.12,-114.97"/>
</g>
<!-- Node3&#45;&gt;Node2 -->
<g id="edge5" class="edge">
<title>Node3&#45;&gt;Node2</title>
<path fill="none" stroke="midnightblue" d="M103.42,-114.42C104.13,-105.05 103.69,-94.14 102.09,-86.71"/>
<polygon fill="midnightblue" stroke="midnightblue" points="99.95,-114.03 102.06,-124.41 106.88,-114.97 99.95,-114.03"/>
</g>
<!-- Node4 -->
<g id="node4" class="node">
<title>Node4</title>
<g id="a_node4"><a xlink:href="structlyra_1_1detail_1_1_non_copyable.html" target="_top" xlink:title=" ">
<polygon fill="white" stroke="black" points="27,-181.5 27,-200.5 167,-200.5 167,-181.5 27,-181.5"/>
<text text-anchor="middle" x="97" y="-188.5" font-family="Helvetica,sans-Serif" font-size="10.00">lyra::detail::NonCopyable</text>
</a>
</g>
</g>
<!-- Node4&#45;&gt;Node3 -->
<g id="edge3" class="edge">
<title>Node4&#45;&gt;Node3</title>
<path fill="none" stroke="midnightblue" d="M90.58,-171.42C89.87,-162.05 90.31,-151.14 91.91,-143.71"/>
<polygon fill="midnightblue" stroke="midnightblue" points="87.12,-171.97 91.94,-181.41 94.05,-171.03 87.12,-171.97"/>
</g>
<!-- Node4&#45;&gt;Node3 -->
<g id="edge4" class="edge">
<title>Node4&#45;&gt;Node3</title>
<path fill="none" stroke="midnightblue" d="M103.42,-171.42C104.13,-162.05 103.69,-151.14 102.09,-143.71"/>
<polygon fill="midnightblue" stroke="midnightblue" points="99.95,-171.03 102.06,-181.41 106.88,-171.97 99.95,-171.03"/>
</g>
<!-- Node5 -->
<g id="node5" class="node">
<title>Node5</title>
<g id="a_node5"><a xlink:title=" ">
<polygon fill="white" stroke="black" points="198.5,-67.5 198.5,-86.5 227.5,-86.5 227.5,-67.5 198.5,-67.5"/>
<text text-anchor="middle" x="213" y="-74.5" font-family="Helvetica,sans-Serif" font-size="10.00">L</text>
</a>
</g>
</g>
<!-- Node5&#45;&gt;Node1 -->
<g id="edge7" class="edge">
<title>Node5&#45;&gt;Node1</title>
<path fill="none" stroke="#9a32cd" stroke-dasharray="5,2" d="M189.5,-62.83C166.47,-49.93 132.02,-30.62 112.31,-19.58"/>
<polygon fill="#9a32cd" stroke="#9a32cd" points="187.87,-65.93 198.31,-67.77 191.3,-59.83 187.87,-65.93"/>
<text text-anchor="middle" x="189.5" y="-41" font-family="Helvetica,sans-Serif" font-size="10.00"> m_lambda</text>
</g>
</g>
</svg>
