<?xml version="1.0" encoding="UTF-8" standalone="no"?>
<!DOCTYPE svg PUBLIC "-//W3C//DTD SVG 1.1//EN"
 "http://www.w3.org/Graphics/SVG/1.1/DTD/svg11.dtd">
<!-- Generated by graphviz version 2.43.0 (0)
 -->
<!-- Title: lyra::option_style::posix Pages: 1 -->
<svg width="581pt" height="230pt"
 viewBox="0.00 0.00 581.00 230.00" xmlns="http://www.w3.org/2000/svg" xmlns:xlink="http://www.w3.org/1999/xlink">
<g id="graph0" class="graph" transform="scale(1 1) rotate(0) translate(4 226)">
<title>lyra::option_style::posix</title>
<polygon fill="white" stroke="transparent" points="-4,4 -4,-226 577,-226 577,4 -4,4"/>
<!-- Node1 -->
<g id="node1" class="node">
<title>Node1</title>
<g id="a_node1"><a xlink:title=" ">
<polygon fill="#bfbfbf" stroke="black" points="472,-121 472,-151 573,-151 573,-121 472,-121"/>
<text text-anchor="start" x="480" y="-139" font-family="Helvetica,sans-Serif" font-size="10.00">lyra::option_style</text>
<text text-anchor="middle" x="522.5" y="-128" font-family="Helvetica,sans-Serif" font-size="10.00">::posix</text>
</a>
</g>
</g>
<!-- Node2 -->
<g id="node2" class="node">
<title>Node2</title>
<g id="a_node2"><a xlink:href="classlyra_1_1arguments.html#a9df61d2688325b486b441815bbc19f55" target="_top" xlink:title=" ">
<polygon fill="white" stroke="black" points="320,-174 320,-204 436,-204 436,-174 320,-174"/>
<text text-anchor="start" x="328" y="-192" font-family="Helvetica,sans-Serif" font-size="10.00">lyra::arguments::get</text>
<text text-anchor="middle" x="378" y="-181" font-family="Helvetica,sans-Serif" font-size="10.00">_option_style</text>
</a>
</g>
</g>
<!-- Node1&#45;&gt;Node2 -->
<g id="edge1" class="edge">
<title>Node1&#45;&gt;Node2</title>
<path fill="none" stroke="midnightblue" d="M471.3,-154.67C454.35,-160.97 435.66,-167.93 419.55,-173.92"/>
<polygon fill="midnightblue" stroke="midnightblue" points="472.89,-157.81 481.05,-151.05 470.45,-151.25 472.89,-157.81"/>
</g>
<!-- Node5 -->
<g id="node5" class="node">
<title>Node5</title>
<g id="a_node5"><a xlink:href="classlyra_1_1cli.html#a6d3e91c66ed03273471089eebcdeacae" target="_top" xlink:title=" ">
<polygon fill="white" stroke="black" points="335,-95.5 335,-114.5 421,-114.5 421,-95.5 335,-95.5"/>
<text text-anchor="middle" x="378" y="-102.5" font-family="Helvetica,sans-Serif" font-size="10.00">lyra::cli::parse</text>
</a>
</g>
</g>
<!-- Node1&#45;&gt;Node5 -->
<g id="edge4" class="edge">
<title>Node1&#45;&gt;Node5</title>
<path fill="none" stroke="midnightblue" d="M461.81,-123.01C448.1,-120.03 433.8,-116.92 421.01,-114.14"/>
<polygon fill="midnightblue" stroke="midnightblue" points="461.14,-126.45 471.66,-125.16 462.63,-119.61 461.14,-126.45"/>
</g>
<!-- Node3 -->
<g id="node3" class="node">
<title>Node3</title>
<g id="a_node3"><a xlink:href="classlyra_1_1arguments.html#a620f67bdd9518d9f7a0a5b0e3939c561" target="_top" xlink:title=" ">
<polygon fill="white" stroke="black" points="135,-202.5 135,-221.5 284,-221.5 284,-202.5 135,-202.5"/>
<text text-anchor="middle" x="209.5" y="-209.5" font-family="Helvetica,sans-Serif" font-size="10.00">lyra::arguments::print_help</text>
</a>
</g>
</g>
<!-- Node2&#45;&gt;Node3 -->
<g id="edge2" class="edge">
<title>Node2&#45;&gt;Node3</title>
<path fill="none" stroke="midnightblue" d="M309.5,-198.32C299.58,-199.7 289.35,-201.11 279.4,-202.48"/>
<polygon fill="midnightblue" stroke="midnightblue" points="310.27,-201.75 319.7,-196.92 309.32,-194.82 310.27,-201.75"/>
</g>
<!-- Node4 -->
<g id="node4" class="node">
<title>Node4</title>
<g id="a_node4"><a xlink:href="namespacelyra.html#ac376af987ad2c95c9a7e27cc61e0cb8c" target="_top" xlink:title=" ">
<polygon fill="white" stroke="black" points="0,-202.5 0,-221.5 99,-221.5 99,-202.5 0,-202.5"/>
<text text-anchor="middle" x="49.5" y="-209.5" font-family="Helvetica,sans-Serif" font-size="10.00">lyra::operator&lt;&lt;</text>
</a>
</g>
</g>
<!-- Node3&#45;&gt;Node4 -->
<g id="edge3" class="edge">
<title>Node3&#45;&gt;Node4</title>
<path fill="none" stroke="midnightblue" d="M124.41,-212C115.75,-212 107.18,-212 99.1,-212"/>
<polygon fill="midnightblue" stroke="midnightblue" points="124.59,-215.5 134.59,-212 124.59,-208.5 124.59,-215.5"/>
</g>
<!-- Node5&#45;&gt;Node5 -->
<g id="edge8" class="edge">
<title>Node5&#45;&gt;Node5</title>
<path fill="none" stroke="midnightblue" d="M404.88,-123.65C403.76,-128.94 394.8,-133 378,-133 352.41,-133 345.01,-123.57 355.81,-114.76"/>
<polygon fill="midnightblue" stroke="midnightblue" points="407.95,-121.97 400.19,-114.76 401.76,-125.24 407.95,-121.97"/>
</g>
<!-- Node6 -->
<g id="node6" class="node">
<title>Node6</title>
<g id="a_node6"><a xlink:href="struct_main_namespace_1_1_options.html#a4db6a2fafb09fb140ca8dd77786dce3c" target="_top" xlink:title=" ">
<polygon fill="white" stroke="black" points="138.5,-153 138.5,-183 280.5,-183 280.5,-153 138.5,-153"/>
<text text-anchor="start" x="146.5" y="-171" font-family="Helvetica,sans-Serif" font-size="10.00">MainNamespace::Options</text>
<text text-anchor="middle" x="209.5" y="-160" font-family="Helvetica,sans-Serif" font-size="10.00">::Options</text>
</a>
</g>
</g>
<!-- Node5&#45;&gt;Node6 -->
<g id="edge5" class="edge">
<title>Node5&#45;&gt;Node6</title>
<path fill="none" stroke="midnightblue" d="M345.21,-118.54C327.33,-126.02 304.54,-135.32 284,-143 275.04,-146.35 265.39,-149.77 256.13,-152.95"/>
<polygon fill="midnightblue" stroke="midnightblue" points="346.74,-121.7 354.6,-114.6 344.02,-115.24 346.74,-121.7"/>
</g>
<!-- Node7 -->
<g id="node7" class="node">
<title>Node7</title>
<g id="a_node7"><a xlink:href="doc__commands_8cpp.html#a217dbf8b442f20279ea00b898af96f52" target="_top" xlink:title=" ">
<polygon fill="white" stroke="black" points="189,-114.5 189,-133.5 230,-133.5 230,-114.5 189,-114.5"/>
<text text-anchor="middle" x="209.5" y="-121.5" font-family="Helvetica,sans-Serif" font-size="10.00">main</text>
</a>
</g>
</g>
<!-- Node5&#45;&gt;Node7 -->
<g id="edge6" class="edge">
<title>Node5&#45;&gt;Node7</title>
<path fill="none" stroke="midnightblue" d="M324.85,-110.95C292.77,-114.61 253.49,-119.09 230.32,-121.74"/>
<polygon fill="midnightblue" stroke="midnightblue" points="325.45,-114.41 334.99,-109.79 324.65,-107.45 325.45,-114.41"/>
</g>
<!-- Node8 -->
<g id="node8" class="node">
<title>Node8</title>
<g id="a_node8"><a xlink:href="classlyra_1_1main.html#a84834f37ab0c88f4f48036b8b20edab9" target="_top" xlink:title=" ">
<polygon fill="white" stroke="black" points="149,-76.5 149,-95.5 270,-95.5 270,-76.5 149,-76.5"/>
<text text-anchor="middle" x="209.5" y="-83.5" font-family="Helvetica,sans-Serif" font-size="10.00">lyra::main::operator()</text>
</a>
</g>
</g>
<!-- Node5&#45;&gt;Node8 -->
<g id="edge7" class="edge">
<title>Node5&#45;&gt;Node8</title>
<path fill="none" stroke="midnightblue" d="M325.01,-99.07C307.6,-97.08 288.06,-94.85 270.11,-92.8"/>
<polygon fill="midnightblue" stroke="midnightblue" points="324.65,-102.55 334.99,-100.21 325.45,-95.59 324.65,-102.55"/>
</g>
<!-- Node9 -->
<g id="node9" class="node">
<title>Node9</title>
<g id="a_node9"><a xlink:href="option__styles__run__test_8cpp.html#ab4d2ccb95df97b3b8f84b1cffb6d4c79" target="_top" xlink:title=" ">
<polygon fill="white" stroke="black" points="177,-38.5 177,-57.5 242,-57.5 242,-38.5 177,-38.5"/>
<text text-anchor="middle" x="209.5" y="-45.5" font-family="Helvetica,sans-Serif" font-size="10.00">test_style</text>
</a>
</g>
</g>
<!-- Node5&#45;&gt;Node9 -->
<g id="edge9" class="edge">
<title>Node5&#45;&gt;Node9</title>
<path fill="none" stroke="midnightblue" d="M346.5,-91.32C328.53,-83.57 305.23,-74.05 284,-67 270.49,-62.52 255.3,-58.43 242.25,-55.21"/>
<polygon fill="midnightblue" stroke="midnightblue" points="345.32,-94.62 355.88,-95.42 348.12,-88.21 345.32,-94.62"/>
</g>
<!-- Node11 -->
<g id="node11" class="node">
<title>Node11</title>
<g id="a_node11"><a xlink:href="values__run__test_8cpp.html#a62c5a6cdfec8c364869ca33c65c3d4e6" target="_top" xlink:title=" ">
<polygon fill="white" stroke="black" points="181.5,-0.5 181.5,-19.5 237.5,-19.5 237.5,-0.5 181.5,-0.5"/>
<text text-anchor="middle" x="209.5" y="-7.5" font-family="Helvetica,sans-Serif" font-size="10.00">test_val</text>
</a>
</g>
</g>
<!-- Node5&#45;&gt;Node11 -->
<g id="edge11" class="edge">
<title>Node5&#45;&gt;Node11</title>
<path fill="none" stroke="midnightblue" d="M360.83,-88.01C343.43,-70.7 314.16,-44.29 284,-29 269.54,-21.67 252.01,-17 237.69,-14.12"/>
<polygon fill="midnightblue" stroke="midnightblue" points="358.45,-90.58 367.95,-95.25 363.44,-85.67 358.45,-90.58"/>
</g>
<!-- Node10 -->
<g id="node10" class="node">
<title>Node10</title>
<g id="a_node10"><a xlink:href="option__styles__run__test_8cpp.html#ae66f6b31b5ad750f1fe042a706a4e3d4" target="_top" xlink:title=" ">
<polygon fill="white" stroke="black" points="29,-38.5 29,-57.5 70,-57.5 70,-38.5 29,-38.5"/>
<text text-anchor="middle" x="49.5" y="-45.5" font-family="Helvetica,sans-Serif" font-size="10.00">main</text>
</a>
</g>
</g>
<!-- Node9&#45;&gt;Node10 -->
<g id="edge10" class="edge">
<title>Node9&#45;&gt;Node10</title>
<path fill="none" stroke="midnightblue" d="M166.73,-48C135.45,-48 94.09,-48 70.08,-48"/>
<polygon fill="midnightblue" stroke="midnightblue" points="166.91,-51.5 176.91,-48 166.91,-44.5 166.91,-51.5"/>
</g>
<!-- Node12 -->
<g id="node12" class="node">
<title>Node12</title>
<g id="a_node12"><a xlink:href="values__run__test_8cpp.html#ae66f6b31b5ad750f1fe042a706a4e3d4" target="_top" xlink:title=" ">
<polygon fill="white" stroke="black" points="29,-0.5 29,-19.5 70,-19.5 70,-0.5 29,-0.5"/>
<text text-anchor="middle" x="49.5" y="-7.5" font-family="Helvetica,sans-Serif" font-size="10.00">main</text>
</a>
</g>
</g>
<!-- Node11&#45;&gt;Node12 -->
<g id="edge12" class="edge">
<title>Node11&#45;&gt;Node12</title>
<path fill="none" stroke="midnightblue" d="M171.15,-10C139.56,-10 95.52,-10 70.32,-10"/>
<polygon fill="midnightblue" stroke="midnightblue" points="171.34,-13.5 181.34,-10 171.34,-6.5 171.34,-13.5"/>
</g>
</g>
</svg>
