<?xml version="1.0" encoding="UTF-8" standalone="no"?>
<!DOCTYPE svg PUBLIC "-//W3C//DTD SVG 1.1//EN"
 "http://www.w3.org/Graphics/SVG/1.1/DTD/svg11.dtd">
<!-- Generated by graphviz version 2.43.0 (0)
 -->
<!-- Title: MainNamespace::Mesh Pages: 1 -->
<svg width="364pt" height="240pt"
 viewBox="0.00 0.00 363.50 240.00" xmlns="http://www.w3.org/2000/svg" xmlns:xlink="http://www.w3.org/1999/xlink">
<g id="graph0" class="graph" transform="scale(1 1) rotate(0) translate(4 236)">
<title>MainNamespace::Mesh</title>
<polygon fill="white" stroke="transparent" points="-4,4 -4,-236 359.5,-236 359.5,4 -4,4"/>
<!-- Node1 -->
<g id="node1" class="node">
<title>Node1</title>
<g id="a_node1"><a xlink:title=" ">
<polygon fill="#bfbfbf" stroke="black" points="117,-0.5 117,-19.5 248,-19.5 248,-0.5 117,-0.5"/>
<text text-anchor="middle" x="182.5" y="-7.5" font-family="Helvetica,sans-Serif" font-size="10.00">MainNamespace::Mesh</text>
</a>
</g>
</g>
<!-- Node2 -->
<g id="node2" class="node">
<title>Node2</title>
<g id="a_node2"><a xlink:title=" ">
<polygon fill="white" stroke="black" points="0,-78.5 0,-97.5 73,-97.5 73,-78.5 0,-78.5"/>
<text text-anchor="middle" x="36.5" y="-85.5" font-family="Helvetica,sans-Serif" font-size="10.00">surface3d *</text>
</a>
</g>
</g>
<!-- Node2&#45;&gt;Node1 -->
<g id="edge1" class="edge">
<title>Node2&#45;&gt;Node1</title>
<path fill="none" stroke="#9a32cd" stroke-dasharray="5,2" d="M61.95,-73.75C91.81,-58.21 140.47,-32.88 165.87,-19.66"/>
<polygon fill="#9a32cd" stroke="#9a32cd" points="60.22,-70.71 52.96,-78.43 63.45,-76.92 60.22,-70.71"/>
<text text-anchor="middle" x="145.5" y="-46.5" font-family="Helvetica,sans-Serif" font-size="10.00"> mesh_</text>
</g>
<!-- Node3 -->
<g id="node3" class="node">
<title>Node3</title>
<g id="a_node3"><a xlink:title=" ">
<polygon fill="white" stroke="black" points="91,-78.5 91,-97.5 274,-97.5 274,-78.5 91,-78.5"/>
<text text-anchor="middle" x="182.5" y="-85.5" font-family="Helvetica,sans-Serif" font-size="10.00">std::vector&lt; MembershipVector &gt;</text>
</a>
</g>
</g>
<!-- Node3&#45;&gt;Node1 -->
<g id="edge2" class="edge">
<title>Node3&#45;&gt;Node1</title>
<path fill="none" stroke="#9a32cd" stroke-dasharray="5,2" d="M182.5,-68.22C182.5,-52.7 182.5,-31.36 182.5,-19.62"/>
<polygon fill="#9a32cd" stroke="#9a32cd" points="179,-68.28 182.5,-78.28 186,-68.28 179,-68.28"/>
<text text-anchor="middle" x="217.5" y="-46.5" font-family="Helvetica,sans-Serif" font-size="10.00"> membership_</text>
</g>
<!-- Node4 -->
<g id="node4" class="node">
<title>Node4</title>
<g id="a_node4"><a xlink:title=" ">
<polygon fill="white" stroke="black" points="134,-145.5 134,-164.5 231,-164.5 231,-145.5 134,-145.5"/>
<text text-anchor="middle" x="182.5" y="-152.5" font-family="Helvetica,sans-Serif" font-size="10.00">std::vector&lt; T &gt;</text>
</a>
</g>
</g>
<!-- Node4&#45;&gt;Node3 -->
<g id="edge3" class="edge">
<title>Node4&#45;&gt;Node3</title>
<path fill="none" stroke="#9a32cd" stroke-dasharray="5,2" d="M157.23,-139.77C149.07,-133.21 143.12,-124.91 147.5,-116 151.29,-108.29 158.46,-102.15 165.33,-97.7"/>
<polygon fill="#9a32cd" stroke="#9a32cd" points="155.26,-142.66 165.47,-145.49 159.25,-136.91 155.26,-142.66"/>
<text text-anchor="middle" x="172" y="-119" font-family="Helvetica,sans-Serif" font-size="10.00"> elements</text>
</g>
<!-- Node4&#45;&gt;Node3 -->
<g id="edge5" class="edge">
<title>Node4&#45;&gt;Node3</title>
<path fill="none" stroke="orange" stroke-dasharray="5,2" d="M193.64,-136.43C196.4,-130.09 198.16,-122.81 196.5,-116 194.9,-109.43 191.4,-102.68 188.3,-97.58"/>
<polygon fill="orange" stroke="orange" points="190.45,-134.96 188.81,-145.42 196.62,-138.27 190.45,-134.96"/>
<text text-anchor="middle" x="256.5" y="-119" font-family="Helvetica,sans-Serif" font-size="10.00"> &lt; MembershipVector &gt;</text>
</g>
<!-- Node5 -->
<g id="node5" class="node">
<title>Node5</title>
<g id="a_node5"><a xlink:title=" ">
<polygon fill="white" stroke="black" points="168,-212.5 168,-231.5 197,-231.5 197,-212.5 168,-212.5"/>
<text text-anchor="middle" x="182.5" y="-219.5" font-family="Helvetica,sans-Serif" font-size="10.00">T</text>
</a>
</g>
</g>
<!-- Node5&#45;&gt;Node4 -->
<g id="edge4" class="edge">
<title>Node5&#45;&gt;Node4</title>
<path fill="none" stroke="#9a32cd" stroke-dasharray="5,2" d="M182.5,-202.04C182.5,-189.67 182.5,-174.12 182.5,-164.63"/>
<polygon fill="#9a32cd" stroke="#9a32cd" points="179,-202.23 182.5,-212.23 186,-202.23 179,-202.23"/>
<text text-anchor="middle" x="207" y="-186" font-family="Helvetica,sans-Serif" font-size="10.00"> elements</text>
</g>
<!-- Node6 -->
<g id="node6" class="node">
<title>Node6</title>
<g id="a_node6"><a xlink:title=" ">
<polygon fill="white" stroke="black" points="292,-78.5 292,-97.5 337,-97.5 337,-78.5 292,-78.5"/>
<text text-anchor="middle" x="314.5" y="-85.5" font-family="Helvetica,sans-Serif" font-size="10.00">size_t</text>
</a>
</g>
</g>
<!-- Node6&#45;&gt;Node1 -->
<g id="edge6" class="edge">
<title>Node6&#45;&gt;Node1</title>
<path fill="none" stroke="#9a32cd" stroke-dasharray="5,2" d="M299.02,-71.28C287.95,-60.73 272.28,-47.15 256.5,-38 243.13,-30.25 227.15,-24.08 213.46,-19.6"/>
<polygon fill="#9a32cd" stroke="#9a32cd" points="296.61,-73.81 306.2,-78.31 301.5,-68.81 296.61,-73.81"/>
<text text-anchor="middle" x="321" y="-52" font-family="Helvetica,sans-Serif" font-size="10.00"> triangleDofs_</text>
<text text-anchor="middle" x="321" y="-41" font-family="Helvetica,sans-Serif" font-size="10.00">vertexDofs_</text>
</g>
</g>
</svg>
