<?xml version="1.0" encoding="UTF-8" standalone="no"?>
<!DOCTYPE svg PUBLIC "-//W3C//DTD SVG 1.1//EN"
 "http://www.w3.org/Graphics/SVG/1.1/DTD/svg11.dtd">
<!-- Generated by graphviz version 2.43.0 (0)
 -->
<!-- Title: MainNamespace::Options::Options Pages: 1 -->
<svg width="581pt" height="225pt"
 viewBox="0.00 0.00 581.00 225.00" xmlns="http://www.w3.org/2000/svg" xmlns:xlink="http://www.w3.org/1999/xlink">
<g id="graph0" class="graph" transform="scale(1 1) rotate(0) translate(4 221)">
<title>MainNamespace::Options::Options</title>
<polygon fill="white" stroke="transparent" points="-4,4 -4,-221 577,-221 577,4 -4,4"/>
<!-- Node1 -->
<g id="node1" class="node">
<title>Node1</title>
<g id="a_node1"><a xlink:title=" ">
<polygon fill="#bfbfbf" stroke="black" points="0,-98.5 0,-128.5 142,-128.5 142,-98.5 0,-98.5"/>
<text text-anchor="start" x="8" y="-116.5" font-family="Helvetica,sans-Serif" font-size="10.00">MainNamespace::Options</text>
<text text-anchor="middle" x="71" y="-105.5" font-family="Helvetica,sans-Serif" font-size="10.00">::Options</text>
</a>
</g>
</g>
<!-- Node2 -->
<g id="node2" class="node">
<title>Node2</title>
<g id="a_node2"><a xlink:href="class_main_namespace_1_1_clocks.html#aef972ea2456448708aabef25f998379a" target="_top" xlink:title=" ">
<polygon fill="white" stroke="black" points="206.5,-186.5 206.5,-216.5 343.5,-216.5 343.5,-186.5 206.5,-186.5"/>
<text text-anchor="start" x="214.5" y="-204.5" font-family="Helvetica,sans-Serif" font-size="10.00">MainNamespace::Clocks</text>
<text text-anchor="middle" x="275" y="-193.5" font-family="Helvetica,sans-Serif" font-size="10.00">::addTimer</text>
</a>
</g>
</g>
<!-- Node1&#45;&gt;Node2 -->
<g id="edge1" class="edge">
<title>Node1&#45;&gt;Node2</title>
<path fill="none" stroke="midnightblue" d="M93.38,-128.67C114.14,-142.79 146.98,-163.55 178,-176.5 183.89,-178.96 190.09,-181.23 196.39,-183.32"/>
<polygon fill="midnightblue" stroke="midnightblue" points="195.73,-186.78 206.32,-186.45 197.84,-180.11 195.73,-186.78"/>
</g>
<!-- Node3 -->
<g id="node3" class="node">
<title>Node3</title>
<g id="a_node3"><a xlink:href="namespace_main_namespace.html#a2705a063ad73df792dd5c47195b0f403" target="_top" xlink:title=" ">
<polygon fill="white" stroke="black" points="178,-148 178,-167 372,-167 372,-148 178,-148"/>
<text text-anchor="middle" x="275" y="-155" font-family="Helvetica,sans-Serif" font-size="10.00">MainNamespace::createProgressBar</text>
</a>
</g>
</g>
<!-- Node1&#45;&gt;Node3 -->
<g id="edge2" class="edge">
<title>Node1&#45;&gt;Node3</title>
<path fill="none" stroke="midnightblue" d="M134.13,-128.55C148.51,-131.92 163.77,-135.42 178,-138.5 189.67,-141.03 202.18,-143.61 214.17,-146.01"/>
<polygon fill="midnightblue" stroke="midnightblue" points="213.61,-149.46 224.1,-147.98 214.98,-142.6 213.61,-149.46"/>
</g>
<!-- Node4 -->
<g id="node4" class="node">
<title>Node4</title>
<g id="a_node4"><a xlink:href="struct_main_namespace_1_1_options.html#a498b9918f2fdb3776667e57dc368a5d3" target="_top" xlink:title="Called by the constructor by default.">
<polygon fill="white" stroke="black" points="204,-98.5 204,-128.5 346,-128.5 346,-98.5 204,-98.5"/>
<text text-anchor="start" x="212" y="-116.5" font-family="Helvetica,sans-Serif" font-size="10.00">MainNamespace::Options</text>
<text text-anchor="middle" x="275" y="-105.5" font-family="Helvetica,sans-Serif" font-size="10.00">::fillDefaults</text>
</a>
</g>
</g>
<!-- Node1&#45;&gt;Node4 -->
<g id="edge3" class="edge">
<title>Node1&#45;&gt;Node4</title>
<path fill="none" stroke="midnightblue" d="M142.08,-113.5C158.6,-113.5 176.33,-113.5 193.27,-113.5"/>
<polygon fill="midnightblue" stroke="midnightblue" points="193.7,-117 203.7,-113.5 193.7,-110 193.7,-117"/>
</g>
<!-- Node10 -->
<g id="node10" class="node">
<title>Node10</title>
<g id="a_node10"><a xlink:href="class_main_namespace_1_1_clocks.html#a56a4435e89b1e25e2a33fc5471d5f814" target="_top" xlink:title=" ">
<polygon fill="white" stroke="black" points="206.5,-49.5 206.5,-79.5 343.5,-79.5 343.5,-49.5 206.5,-49.5"/>
<text text-anchor="start" x="214.5" y="-67.5" font-family="Helvetica,sans-Serif" font-size="10.00">MainNamespace::Clocks</text>
<text text-anchor="middle" x="275" y="-56.5" font-family="Helvetica,sans-Serif" font-size="10.00">::format</text>
</a>
</g>
</g>
<!-- Node1&#45;&gt;Node10 -->
<g id="edge9" class="edge">
<title>Node1&#45;&gt;Node10</title>
<path fill="none" stroke="midnightblue" d="M133.98,-98.47C155.6,-93.22 180.04,-87.29 202.37,-81.87"/>
<polygon fill="midnightblue" stroke="midnightblue" points="203.24,-85.26 212.14,-79.51 201.59,-78.46 203.24,-85.26"/>
</g>
<!-- Node11 -->
<g id="node11" class="node">
<title>Node11</title>
<g id="a_node11"><a xlink:href="namespace_main_namespace.html#a6fd76e14adc7d23a9822334cb389b369" target="_top" xlink:title=" ">
<polygon fill="white" stroke="black" points="189,-11 189,-30 361,-30 361,-11 189,-11"/>
<text text-anchor="middle" x="275" y="-18" font-family="Helvetica,sans-Serif" font-size="10.00">MainNamespace::globalOptions</text>
</a>
</g>
</g>
<!-- Node1&#45;&gt;Node11 -->
<g id="edge10" class="edge">
<title>Node1&#45;&gt;Node11</title>
<path fill="none" stroke="midnightblue" d="M89.02,-98.21C108.91,-81.2 143.51,-54.18 178,-39.5 184.14,-36.88 190.66,-34.62 197.3,-32.67"/>
<polygon fill="midnightblue" stroke="midnightblue" points="198.34,-36.02 207.08,-30.03 196.51,-29.26 198.34,-36.02"/>
</g>
<!-- Node5 -->
<g id="node5" class="node">
<title>Node5</title>
<g id="a_node5"><a xlink:href="struct_main_namespace_1_1_options.html#a9dd548e38db71d587c9185648edafb86" target="_top" xlink:title=" ">
<polygon fill="white" stroke="black" points="419.5,-186.5 419.5,-216.5 561.5,-216.5 561.5,-186.5 419.5,-186.5"/>
<text text-anchor="start" x="427.5" y="-204.5" font-family="Helvetica,sans-Serif" font-size="10.00">MainNamespace::Options</text>
<text text-anchor="middle" x="490.5" y="-193.5" font-family="Helvetica,sans-Serif" font-size="10.00">::clusterResolution</text>
</a>
</g>
</g>
<!-- Node4&#45;&gt;Node5 -->
<g id="edge4" class="edge">
<title>Node4&#45;&gt;Node5</title>
<path fill="none" stroke="midnightblue" d="M346.03,-126.8C355.09,-129.92 363.99,-133.77 372,-138.5 392.03,-150.33 388.23,-164.24 408,-176.5 411.37,-178.59 414.93,-180.52 418.6,-182.29"/>
<polygon fill="midnightblue" stroke="midnightblue" points="417.34,-185.56 427.9,-186.39 420.17,-179.16 417.34,-185.56"/>
</g>
<!-- Node6 -->
<g id="node6" class="node">
<title>Node6</title>
<g id="a_node6"><a xlink:href="struct_main_namespace_1_1_options.html#ad8a5dac97faa38719a378d695f4c3b6b" target="_top" xlink:title=" ">
<polygon fill="white" stroke="black" points="408,-148 408,-167 573,-167 573,-148 408,-148"/>
<text text-anchor="middle" x="490.5" y="-155" font-family="Helvetica,sans-Serif" font-size="10.00">MainNamespace::Options::eps</text>
</a>
</g>
</g>
<!-- Node4&#45;&gt;Node6 -->
<g id="edge5" class="edge">
<title>Node4&#45;&gt;Node6</title>
<path fill="none" stroke="midnightblue" d="M346.2,-127.97C374.44,-133.79 406.55,-140.41 433.21,-145.9"/>
<polygon fill="midnightblue" stroke="midnightblue" points="432.65,-149.36 443.15,-147.95 434.06,-142.5 432.65,-149.36"/>
</g>
<!-- Node7 -->
<g id="node7" class="node">
<title>Node7</title>
<g id="a_node7"><a xlink:href="struct_main_namespace_1_1_options.html#a723119ba0f1851a37f845d6cdbb70792" target="_top" xlink:title=" ">
<polygon fill="white" stroke="black" points="419.5,-98.5 419.5,-128.5 561.5,-128.5 561.5,-98.5 419.5,-98.5"/>
<text text-anchor="start" x="427.5" y="-116.5" font-family="Helvetica,sans-Serif" font-size="10.00">MainNamespace::Options</text>
<text text-anchor="middle" x="490.5" y="-105.5" font-family="Helvetica,sans-Serif" font-size="10.00">::epsKrylov</text>
</a>
</g>
</g>
<!-- Node4&#45;&gt;Node7 -->
<g id="edge6" class="edge">
<title>Node4&#45;&gt;Node7</title>
<path fill="none" stroke="midnightblue" d="M346.2,-113.5C366.36,-113.5 388.5,-113.5 409.21,-113.5"/>
<polygon fill="midnightblue" stroke="midnightblue" points="409.25,-117 419.25,-113.5 409.25,-110 409.25,-117"/>
</g>
<!-- Node8 -->
<g id="node8" class="node">
<title>Node8</title>
<g id="a_node8"><a xlink:href="struct_main_namespace_1_1_options.html#adbe1881e6e24f021d2608257b156e68f" target="_top" xlink:title=" ">
<polygon fill="white" stroke="black" points="419.5,-49.5 419.5,-79.5 561.5,-79.5 561.5,-49.5 419.5,-49.5"/>
<text text-anchor="start" x="427.5" y="-67.5" font-family="Helvetica,sans-Serif" font-size="10.00">MainNamespace::Options</text>
<text text-anchor="middle" x="490.5" y="-56.5" font-family="Helvetica,sans-Serif" font-size="10.00">::interpolationPoints</text>
</a>
</g>
</g>
<!-- Node4&#45;&gt;Node8 -->
<g id="edge7" class="edge">
<title>Node4&#45;&gt;Node8</title>
<path fill="none" stroke="midnightblue" d="M341.51,-98.47C364.46,-93.2 390.42,-87.24 414.11,-81.8"/>
<polygon fill="midnightblue" stroke="midnightblue" points="415.15,-85.15 424.12,-79.51 413.59,-78.33 415.15,-85.15"/>
</g>
<!-- Node9 -->
<g id="node9" class="node">
<title>Node9</title>
<g id="a_node9"><a xlink:href="struct_main_namespace_1_1_options.html#a13e08a72c9531b3e5ba442ca4e0a7377" target="_top" xlink:title=" ">
<polygon fill="white" stroke="black" points="419.5,-0.5 419.5,-30.5 561.5,-30.5 561.5,-0.5 419.5,-0.5"/>
<text text-anchor="start" x="427.5" y="-18.5" font-family="Helvetica,sans-Serif" font-size="10.00">MainNamespace::Options</text>
<text text-anchor="middle" x="490.5" y="-7.5" font-family="Helvetica,sans-Serif" font-size="10.00">::quadraturePoints</text>
</a>
</g>
</g>
<!-- Node4&#45;&gt;Node9 -->
<g id="edge8" class="edge">
<title>Node4&#45;&gt;Node9</title>
<path fill="none" stroke="midnightblue" d="M346.15,-102.15C355.29,-98.94 364.18,-94.8 372,-89.5 394.66,-74.13 385.66,-55.33 408,-39.5 410.11,-38.01 412.3,-36.61 414.57,-35.29"/>
<polygon fill="midnightblue" stroke="midnightblue" points="416.33,-38.32 423.63,-30.64 413.13,-32.1 416.33,-38.32"/>
</g>
</g>
</svg>
