<?xml version="1.0" encoding="UTF-8" standalone="no"?>
<!DOCTYPE svg PUBLIC "-//W3C//DTD SVG 1.1//EN"
 "http://www.w3.org/Graphics/SVG/1.1/DTD/svg11.dtd">
<!-- Generated by graphviz version 2.43.0 (0)
 -->
<!-- Title: MainNamespace::Options::interactive Pages: 1 -->
<svg width="343pt" height="78pt"
 viewBox="0.00 0.00 343.00 77.50" xmlns="http://www.w3.org/2000/svg" xmlns:xlink="http://www.w3.org/1999/xlink">
<g id="graph0" class="graph" transform="scale(1 1) rotate(0) translate(4 73.5)">
<title>MainNamespace::Options::interactive</title>
<polygon fill="white" stroke="transparent" points="-4,4 -4,-73.5 339,-73.5 339,4 -4,4"/>
<!-- Node1 -->
<g id="node1" class="node">
<title>Node1</title>
<g id="a_node1"><a xlink:title=" ">
<polygon fill="#bfbfbf" stroke="black" points="193,-22.5 193,-52.5 335,-52.5 335,-22.5 193,-22.5"/>
<text text-anchor="start" x="201" y="-40.5" font-family="Helvetica,sans-Serif" font-size="10.00">MainNamespace::Options</text>
<text text-anchor="middle" x="264" y="-29.5" font-family="Helvetica,sans-Serif" font-size="10.00">::interactive</text>
</a>
</g>
</g>
<!-- Node2 -->
<g id="node2" class="node">
<title>Node2</title>
<g id="a_node2"><a xlink:href="namespace_main_namespace.html#a3dd89125e308a73748435e6a7c8d3db4" target="_top" xlink:title=" ">
<polygon fill="white" stroke="black" points="0,-50 0,-69 157,-69 157,-50 0,-50"/>
<text text-anchor="middle" x="78.5" y="-57" font-family="Helvetica,sans-Serif" font-size="10.00">MainNamespace::interactive</text>
</a>
</g>
</g>
<!-- Node1&#45;&gt;Node2 -->
<g id="edge1" class="edge">
<title>Node1&#45;&gt;Node2</title>
<path fill="none" stroke="midnightblue" d="M182.65,-47.13C174.22,-48.14 165.67,-49.17 157.27,-50.18"/>
<polygon fill="midnightblue" stroke="midnightblue" points="183.33,-50.58 192.84,-45.91 182.5,-43.63 183.33,-50.58"/>
</g>
<!-- Node3 -->
<g id="node3" class="node">
<title>Node3</title>
<g id="a_node3"><a xlink:href="struct_main_namespace_1_1_options.html#a4c0837bfa3f2550e9ab98ccdf63bf01d" target="_top" xlink:title=" ">
<polygon fill="white" stroke="black" points="7.5,-0.5 7.5,-30.5 149.5,-30.5 149.5,-0.5 7.5,-0.5"/>
<text text-anchor="start" x="15.5" y="-18.5" font-family="Helvetica,sans-Serif" font-size="10.00">MainNamespace::Options</text>
<text text-anchor="middle" x="78.5" y="-7.5" font-family="Helvetica,sans-Serif" font-size="10.00">::interactive</text>
</a>
</g>
</g>
<!-- Node1&#45;&gt;Node3 -->
<g id="edge2" class="edge">
<title>Node1&#45;&gt;Node3</title>
<path fill="none" stroke="midnightblue" d="M182.78,-27.88C171.74,-26.56 160.46,-25.21 149.62,-23.91"/>
<polygon fill="midnightblue" stroke="midnightblue" points="182.5,-31.37 192.84,-29.09 183.33,-24.42 182.5,-31.37"/>
</g>
</g>
</svg>
