<?xml version="1.0" encoding="UTF-8" standalone="no"?>
<!DOCTYPE svg PUBLIC "-//W3C//DTD SVG 1.1//EN"
 "http://www.w3.org/Graphics/SVG/1.1/DTD/svg11.dtd">
<!-- Generated by graphviz version 2.43.0 (0)
 -->
<!-- Title: MainNamespace::Mesh::writeMesh Pages: 1 -->
<svg width="541pt" height="362pt"
 viewBox="0.00 0.00 541.00 361.50" xmlns="http://www.w3.org/2000/svg" xmlns:xlink="http://www.w3.org/1999/xlink">
<g id="graph0" class="graph" transform="scale(1 1) rotate(0) translate(4 357.5)">
<title>MainNamespace::Mesh::writeMesh</title>
<polygon fill="white" stroke="transparent" points="-4,4 -4,-357.5 537,-357.5 537,4 -4,4"/>
<!-- Node1 -->
<g id="node1" class="node">
<title>Node1</title>
<g id="a_node1"><a xlink:title="Write a mesh in a custom format, at a custom location. Format: one line with number of vertices,...">
<polygon fill="#bfbfbf" stroke="black" points="0,-161 0,-191 131,-191 131,-161 0,-161"/>
<text text-anchor="start" x="8" y="-179" font-family="Helvetica,sans-Serif" font-size="10.00">MainNamespace::Mesh</text>
<text text-anchor="middle" x="65.5" y="-168" font-family="Helvetica,sans-Serif" font-size="10.00">::writeMesh</text>
</a>
</g>
</g>
<!-- Node2 -->
<g id="node2" class="node">
<title>Node2</title>
<g id="a_node2"><a xlink:href="namespace_main_namespace_1_1_logger.html#afbb4cc2d8b498e71fcb228f0da8309a1" target="_top" xlink:title=" ">
<polygon fill="white" stroke="black" points="167,-319.5 167,-338.5 325,-338.5 325,-319.5 167,-319.5"/>
<text text-anchor="middle" x="246" y="-326.5" font-family="Helvetica,sans-Serif" font-size="10.00">MainNamespace::Logger::log</text>
</a>
</g>
</g>
<!-- Node1&#45;&gt;Node2 -->
<g id="edge1" class="edge">
<title>Node1&#45;&gt;Node2</title>
<path fill="none" stroke="midnightblue" d="M74.67,-191.1C89.62,-217.34 123.82,-271.47 167,-302 175.16,-307.77 184.67,-312.4 194.18,-316.08"/>
<polygon fill="midnightblue" stroke="midnightblue" points="193.04,-319.39 203.64,-319.46 195.39,-312.8 193.04,-319.39"/>
</g>
<!-- Node4 -->
<g id="node4" class="node">
<title>Node4</title>
<g id="a_node4"><a xlink:href="namespace_main_namespace.html#afca69d7c710a9c0465cd087319823c56" target="_top" xlink:title=" ">
<polygon fill="white" stroke="black" points="172,-273.5 172,-292.5 320,-292.5 320,-273.5 172,-273.5"/>
<text text-anchor="middle" x="246" y="-280.5" font-family="Helvetica,sans-Serif" font-size="10.00">MainNamespace::meshFile</text>
</a>
</g>
</g>
<!-- Node1&#45;&gt;Node4 -->
<g id="edge3" class="edge">
<title>Node1&#45;&gt;Node4</title>
<path fill="none" stroke="midnightblue" d="M79.5,-191.24C97.24,-211.04 130.98,-245.29 167,-264 171.52,-266.35 176.34,-268.41 181.29,-270.23"/>
<polygon fill="midnightblue" stroke="midnightblue" points="180.3,-273.59 190.9,-273.42 182.51,-266.95 180.3,-273.59"/>
</g>
<!-- Node7 -->
<g id="node7" class="node">
<title>Node7</title>
<g id="a_node7"><a xlink:href="namespace_main_namespace.html#a5ff1fdd680dc0320ff6e41ecd89e3aa6" target="_top" xlink:title=" ">
<polygon fill="white" stroke="black" points="169,-235.5 169,-254.5 323,-254.5 323,-235.5 169,-235.5"/>
<text text-anchor="middle" x="246" y="-242.5" font-family="Helvetica,sans-Serif" font-size="10.00">MainNamespace::saveMesh</text>
</a>
</g>
</g>
<!-- Node1&#45;&gt;Node7 -->
<g id="edge6" class="edge">
<title>Node1&#45;&gt;Node7</title>
<path fill="none" stroke="midnightblue" d="M93.57,-191.06C113.43,-201.65 141.31,-215.56 167,-225 174.74,-227.85 183.06,-230.44 191.28,-232.75"/>
<polygon fill="midnightblue" stroke="midnightblue" points="190.63,-236.21 201.2,-235.43 192.46,-229.45 190.63,-236.21"/>
</g>
<!-- Node9 -->
<g id="node9" class="node">
<title>Node9</title>
<g id="a_node9"><a xlink:href="struct_main_namespace_1_1_mesh.html#aecef8c2502305df7229d7bcf2f5df2ad" target="_top" xlink:title="Get a triangle.">
<polygon fill="white" stroke="black" points="180.5,-186 180.5,-216 311.5,-216 311.5,-186 180.5,-186"/>
<text text-anchor="start" x="188.5" y="-204" font-family="Helvetica,sans-Serif" font-size="10.00">MainNamespace::Mesh</text>
<text text-anchor="middle" x="246" y="-193" font-family="Helvetica,sans-Serif" font-size="10.00">::triangle</text>
</a>
</g>
</g>
<!-- Node1&#45;&gt;Node9 -->
<g id="edge9" class="edge">
<title>Node1&#45;&gt;Node9</title>
<path fill="none" stroke="midnightblue" d="M131.19,-185.06C143.79,-186.83 157.1,-188.69 169.99,-190.49"/>
<polygon fill="midnightblue" stroke="midnightblue" points="169.84,-194.01 180.23,-191.93 170.81,-187.07 169.84,-194.01"/>
</g>
<!-- Node10 -->
<g id="node10" class="node">
<title>Node10</title>
<g id="a_node10"><a xlink:href="struct_main_namespace_1_1_mesh.html#a9e3b353180a3b67dc149e8703c164bc3" target="_top" xlink:title="Getter.">
<polygon fill="white" stroke="black" points="180.5,-137 180.5,-167 311.5,-167 311.5,-137 180.5,-137"/>
<text text-anchor="start" x="188.5" y="-155" font-family="Helvetica,sans-Serif" font-size="10.00">MainNamespace::Mesh</text>
<text text-anchor="middle" x="246" y="-144" font-family="Helvetica,sans-Serif" font-size="10.00">::triangles</text>
</a>
</g>
</g>
<!-- Node1&#45;&gt;Node10 -->
<g id="edge10" class="edge">
<title>Node1&#45;&gt;Node10</title>
<path fill="none" stroke="midnightblue" d="M131.19,-167.3C143.79,-165.61 157.1,-163.82 169.99,-162.09"/>
<polygon fill="midnightblue" stroke="midnightblue" points="170.78,-165.51 180.23,-160.71 169.85,-158.57 170.78,-165.51"/>
</g>
<!-- Node11 -->
<g id="node11" class="node">
<title>Node11</title>
<g id="a_node11"><a xlink:href="struct_main_namespace_1_1_mesh.html#af0d92acd1c106ecbf5924ce4052667fb" target="_top" xlink:title="Get a vertex.">
<polygon fill="white" stroke="black" points="180.5,-88 180.5,-118 311.5,-118 311.5,-88 180.5,-88"/>
<text text-anchor="start" x="188.5" y="-106" font-family="Helvetica,sans-Serif" font-size="10.00">MainNamespace::Mesh</text>
<text text-anchor="middle" x="246" y="-95" font-family="Helvetica,sans-Serif" font-size="10.00">::vertex</text>
</a>
</g>
</g>
<!-- Node1&#45;&gt;Node11 -->
<g id="edge11" class="edge">
<title>Node1&#45;&gt;Node11</title>
<path fill="none" stroke="midnightblue" d="M94.56,-160.86C114.43,-150.5 141.9,-136.91 167,-127 172.02,-125.02 177.28,-123.09 182.59,-121.25"/>
<polygon fill="midnightblue" stroke="midnightblue" points="183.8,-124.54 192.17,-118.04 181.57,-117.9 183.8,-124.54"/>
</g>
<!-- Node12 -->
<g id="node12" class="node">
<title>Node12</title>
<g id="a_node12"><a xlink:href="struct_main_namespace_1_1_mesh.html#ab0133714e18c8aaee3deb84910cef54c" target="_top" xlink:title="Getter.">
<polygon fill="white" stroke="black" points="180.5,-39 180.5,-69 311.5,-69 311.5,-39 180.5,-39"/>
<text text-anchor="start" x="188.5" y="-57" font-family="Helvetica,sans-Serif" font-size="10.00">MainNamespace::Mesh</text>
<text text-anchor="middle" x="246" y="-46" font-family="Helvetica,sans-Serif" font-size="10.00">::vertices</text>
</a>
</g>
</g>
<!-- Node1&#45;&gt;Node12 -->
<g id="edge12" class="edge">
<title>Node1&#45;&gt;Node12</title>
<path fill="none" stroke="midnightblue" d="M78.13,-160.78C95.3,-139.31 129.49,-100.26 167,-78 169.86,-76.3 172.86,-74.71 175.94,-73.23"/>
<polygon fill="midnightblue" stroke="midnightblue" points="177.63,-76.3 185.37,-69.07 174.81,-69.9 177.63,-76.3"/>
</g>
<!-- Node13 -->
<g id="node13" class="node">
<title>Node13</title>
<g id="a_node13"><a xlink:href="namespace_main_namespace.html#a963bb0fc1186abae512b8fde5e8a078c" target="_top" xlink:title="Distribution warning (about h2lib and gmsh).">
<polygon fill="white" stroke="black" points="174.5,-0.5 174.5,-19.5 317.5,-19.5 317.5,-0.5 174.5,-0.5"/>
<text text-anchor="middle" x="246" y="-7.5" font-family="Helvetica,sans-Serif" font-size="10.00">MainNamespace::warning</text>
</a>
</g>
</g>
<!-- Node1&#45;&gt;Node13 -->
<g id="edge13" class="edge">
<title>Node1&#45;&gt;Node13</title>
<path fill="none" stroke="midnightblue" d="M72.45,-160.78C85.06,-130.63 117.42,-63.29 167,-29 169.9,-27 172.98,-25.2 176.19,-23.6"/>
<polygon fill="midnightblue" stroke="midnightblue" points="177.72,-26.75 185.5,-19.56 174.93,-20.33 177.72,-26.75"/>
</g>
<!-- Node3 -->
<g id="node3" class="node">
<title>Node3</title>
<g id="a_node3"><a xlink:href="namespace_main_namespace_1_1_logger.html#af052b0198f333fca77f0837a511ec7f7" target="_top" xlink:title=" ">
<polygon fill="white" stroke="black" points="378.5,-323 378.5,-353 515.5,-353 515.5,-323 378.5,-323"/>
<text text-anchor="start" x="386.5" y="-341" font-family="Helvetica,sans-Serif" font-size="10.00">MainNamespace::Logger</text>
<text text-anchor="middle" x="447" y="-330" font-family="Helvetica,sans-Serif" font-size="10.00">::forwardLog</text>
</a>
</g>
</g>
<!-- Node2&#45;&gt;Node3 -->
<g id="edge2" class="edge">
<title>Node2&#45;&gt;Node3</title>
<path fill="none" stroke="midnightblue" d="M325.08,-332.53C339.27,-333.17 354.08,-333.84 368.26,-334.48"/>
<polygon fill="midnightblue" stroke="midnightblue" points="368.32,-337.99 378.47,-334.95 368.63,-331 368.32,-337.99"/>
</g>
<!-- Node5 -->
<g id="node5" class="node">
<title>Node5</title>
<g id="a_node5"><a xlink:href="namespace_main_namespace.html#a6fd76e14adc7d23a9822334cb389b369" target="_top" xlink:title=" ">
<polygon fill="white" stroke="black" points="361,-235.5 361,-254.5 533,-254.5 533,-235.5 361,-235.5"/>
<text text-anchor="middle" x="447" y="-242.5" font-family="Helvetica,sans-Serif" font-size="10.00">MainNamespace::globalOptions</text>
</a>
</g>
</g>
<!-- Node4&#45;&gt;Node5 -->
<g id="edge4" class="edge">
<title>Node4&#45;&gt;Node5</title>
<path fill="none" stroke="midnightblue" d="M296.96,-273.46C324.05,-268.29 357.71,-261.86 386.18,-256.42"/>
<polygon fill="midnightblue" stroke="midnightblue" points="386.85,-259.86 396.02,-254.54 385.54,-252.98 386.85,-259.86"/>
</g>
<!-- Node6 -->
<g id="node6" class="node">
<title>Node6</title>
<g id="a_node6"><a xlink:href="struct_main_namespace_1_1_options.html#a8d2158fc99c03c33d467c299101c5760" target="_top" xlink:title=" ">
<polygon fill="white" stroke="black" points="376,-274 376,-304 518,-304 518,-274 376,-274"/>
<text text-anchor="start" x="384" y="-292" font-family="Helvetica,sans-Serif" font-size="10.00">MainNamespace::Options</text>
<text text-anchor="middle" x="447" y="-281" font-family="Helvetica,sans-Serif" font-size="10.00">::meshFile</text>
</a>
</g>
</g>
<!-- Node4&#45;&gt;Node6 -->
<g id="edge5" class="edge">
<title>Node4&#45;&gt;Node6</title>
<path fill="none" stroke="midnightblue" d="M320.25,-285.21C335.02,-285.65 350.62,-286.12 365.61,-286.58"/>
<polygon fill="midnightblue" stroke="midnightblue" points="365.78,-290.08 375.88,-286.89 365.99,-283.09 365.78,-290.08"/>
</g>
<!-- Node7&#45;&gt;Node5 -->
<g id="edge7" class="edge">
<title>Node7&#45;&gt;Node5</title>
<path fill="none" stroke="midnightblue" d="M323.09,-245C332.19,-245 341.57,-245 350.9,-245"/>
<polygon fill="midnightblue" stroke="midnightblue" points="350.99,-248.5 360.99,-245 350.99,-241.5 350.99,-248.5"/>
</g>
<!-- Node8 -->
<g id="node8" class="node">
<title>Node8</title>
<g id="a_node8"><a xlink:href="struct_main_namespace_1_1_options.html#a8f28e76d517d07cf8c62362c0a7dc50a" target="_top" xlink:title=" ">
<polygon fill="white" stroke="black" points="376,-186 376,-216 518,-216 518,-186 376,-186"/>
<text text-anchor="start" x="384" y="-204" font-family="Helvetica,sans-Serif" font-size="10.00">MainNamespace::Options</text>
<text text-anchor="middle" x="447" y="-193" font-family="Helvetica,sans-Serif" font-size="10.00">::saveMesh</text>
</a>
</g>
</g>
<!-- Node7&#45;&gt;Node8 -->
<g id="edge8" class="edge">
<title>Node7&#45;&gt;Node8</title>
<path fill="none" stroke="midnightblue" d="M290.18,-235.45C312.89,-230.43 341.42,-224.12 367.85,-218.28"/>
<polygon fill="midnightblue" stroke="midnightblue" points="368.85,-221.64 377.86,-216.07 367.34,-214.81 368.85,-221.64"/>
</g>
</g>
</svg>
