<?xml version="1.0" encoding="UTF-8" standalone="no"?>
<!DOCTYPE svg PUBLIC "-//W3C//DTD SVG 1.1//EN"
 "http://www.w3.org/Graphics/SVG/1.1/DTD/svg11.dtd">
<!-- Generated by graphviz version 2.43.0 (0)
 -->
<!-- Title: lyra::detail::unary_lambda_traits&lt; ReturnT(ClassT::*)(Args...) const &gt; Pages: 1 -->
<svg width="154pt" height="117pt"
 viewBox="0.00 0.00 154.00 117.00" xmlns="http://www.w3.org/2000/svg" xmlns:xlink="http://www.w3.org/1999/xlink">
<g id="graph0" class="graph" transform="scale(1 1) rotate(0) translate(4 113)">
<title>lyra::detail::unary_lambda_traits&lt; ReturnT(ClassT::*)(Args...) const &gt;</title>
<polygon fill="white" stroke="transparent" points="-4,4 -4,-113 150,-113 150,4 -4,4"/>
<!-- Node1 -->
<g id="node1" class="node">
<title>Node1</title>
<g id="a_node1"><a xlink:title=" ">
<polygon fill="#bfbfbf" stroke="black" points="0,-0.5 0,-41.5 146,-41.5 146,-0.5 0,-0.5"/>
<text text-anchor="start" x="8" y="-29.5" font-family="Helvetica,sans-Serif" font-size="10.00">lyra::detail::unary</text>
<text text-anchor="start" x="8" y="-18.5" font-family="Helvetica,sans-Serif" font-size="10.00">_lambda_traits&lt; ReturnT</text>
<text text-anchor="middle" x="73" y="-7.5" font-family="Helvetica,sans-Serif" font-size="10.00">(ClassT::*)(Args...) const &gt;</text>
</a>
</g>
</g>
<!-- Node2 -->
<g id="node2" class="node">
<title>Node2</title>
<g id="a_node2"><a xlink:title=" ">
<polygon fill="white" stroke="black" points="54,-89.5 54,-108.5 92,-108.5 92,-89.5 54,-89.5"/>
<text text-anchor="middle" x="73" y="-96.5" font-family="Helvetica,sans-Serif" font-size="10.00">bool</text>
</a>
</g>
</g>
<!-- Node2&#45;&gt;Node1 -->
<g id="edge1" class="edge">
<title>Node2&#45;&gt;Node1</title>
<path fill="none" stroke="#9a32cd" stroke-dasharray="5,2" d="M73,-79.14C73,-67.73 73,-53.21 73,-41.66"/>
<polygon fill="#9a32cd" stroke="#9a32cd" points="69.5,-79.28 73,-89.28 76.5,-79.28 69.5,-79.28"/>
<text text-anchor="middle" x="91.5" y="-63" font-family="Helvetica,sans-Serif" font-size="10.00"> isValid</text>
</g>
</g>
</svg>
