<?xml version="1.0" encoding="UTF-8" standalone="no"?>
<!DOCTYPE svg PUBLIC "-//W3C//DTD SVG 1.1//EN"
 "http://www.w3.org/Graphics/SVG/1.1/DTD/svg11.dtd">
<!-- Generated by graphviz version 2.43.0 (0)
 -->
<!-- Title: lyra::detail::is_specialization_of&lt; T, Primary &gt; Pages: 1 -->
<svg width="164pt" height="95pt"
 viewBox="0.00 0.00 164.00 95.00" xmlns="http://www.w3.org/2000/svg" xmlns:xlink="http://www.w3.org/1999/xlink">
<g id="graph0" class="graph" transform="scale(1 1) rotate(0) translate(4 91)">
<title>lyra::detail::is_specialization_of&lt; T, Primary &gt;</title>
<polygon fill="white" stroke="transparent" points="-4,4 -4,-91 160,-91 160,4 -4,4"/>
<!-- Node1 -->
<g id="node1" class="node">
<title>Node1</title>
<g id="a_node1"><a xlink:title=" ">
<polygon fill="#bfbfbf" stroke="black" points="0,-0.5 0,-30.5 156,-30.5 156,-0.5 0,-0.5"/>
<text text-anchor="start" x="8" y="-18.5" font-family="Helvetica,sans-Serif" font-size="10.00">lyra::detail::is_specialization</text>
<text text-anchor="middle" x="78" y="-7.5" font-family="Helvetica,sans-Serif" font-size="10.00">_of&lt; T, Primary &gt;</text>
</a>
</g>
</g>
<!-- Node2 -->
<g id="node2" class="node">
<title>Node2</title>
<g id="a_node2"><a xlink:title=" ">
<polygon fill="white" stroke="black" points="33.5,-67.5 33.5,-86.5 122.5,-86.5 122.5,-67.5 33.5,-67.5"/>
<text text-anchor="middle" x="78" y="-74.5" font-family="Helvetica,sans-Serif" font-size="10.00">std::false_type</text>
</a>
</g>
</g>
<!-- Node2&#45;&gt;Node1 -->
<g id="edge1" class="edge">
<title>Node2&#45;&gt;Node1</title>
<path fill="none" stroke="midnightblue" d="M71.7,-57.53C70.97,-48.81 71.13,-38.59 72.17,-30.52"/>
<polygon fill="midnightblue" stroke="midnightblue" points="68.24,-58.06 73.1,-67.48 75.17,-57.09 68.24,-58.06"/>
</g>
<!-- Node2&#45;&gt;Node1 -->
<g id="edge2" class="edge">
<title>Node2&#45;&gt;Node1</title>
<path fill="none" stroke="midnightblue" d="M84.3,-57.53C85.03,-48.81 84.87,-38.59 83.83,-30.52"/>
<polygon fill="midnightblue" stroke="midnightblue" points="80.83,-57.09 82.9,-67.48 87.76,-58.06 80.83,-57.09"/>
</g>
</g>
</svg>
