<?xml version="1.0" encoding="UTF-8" standalone="no"?>
<!DOCTYPE svg PUBLIC "-//W3C//DTD SVG 1.1//EN"
 "http://www.w3.org/Graphics/SVG/1.1/DTD/svg11.dtd">
<!-- Generated by graphviz version 2.43.0 (0)
 -->
<!-- Title: lyra::detail::BoundFlagRefBase Pages: 1 -->
<svg width="364pt" height="196pt"
 viewBox="0.00 0.00 363.50 196.00" xmlns="http://www.w3.org/2000/svg" xmlns:xlink="http://www.w3.org/1999/xlink">
<g id="graph0" class="graph" transform="scale(1 1) rotate(0) translate(4 192)">
<title>lyra::detail::BoundFlagRefBase</title>
<polygon fill="white" stroke="transparent" points="-4,4 -4,-192 359.5,-192 359.5,4 -4,4"/>
<!-- Node1 -->
<g id="node1" class="node">
<title>Node1</title>
<g id="a_node1"><a xlink:title=" ">
<polygon fill="#bfbfbf" stroke="black" points="106.5,-56.5 106.5,-75.5 273.5,-75.5 273.5,-56.5 106.5,-56.5"/>
<text text-anchor="middle" x="190" y="-63.5" font-family="Helvetica,sans-Serif" font-size="10.00">lyra::detail::BoundFlagRefBase</text>
</a>
</g>
</g>
<!-- Node4 -->
<g id="node4" class="node">
<title>Node4</title>
<g id="a_node4"><a xlink:href="structlyra_1_1detail_1_1_bound_flag_lambda.html" target="_top" xlink:title=" ">
<polygon fill="white" stroke="black" points="0,-0.5 0,-19.5 194,-19.5 194,-0.5 0,-0.5"/>
<text text-anchor="middle" x="97" y="-7.5" font-family="Helvetica,sans-Serif" font-size="10.00">lyra::detail::BoundFlagLambda&lt; L &gt;</text>
</a>
</g>
</g>
<!-- Node1&#45;&gt;Node4 -->
<g id="edge5" class="edge">
<title>Node1&#45;&gt;Node4</title>
<path fill="none" stroke="midnightblue" d="M160.98,-51.59C142.46,-41.61 119.76,-28.27 106.79,-19.65"/>
<polygon fill="midnightblue" stroke="midnightblue" points="159.47,-54.75 169.94,-56.32 162.74,-48.56 159.47,-54.75"/>
</g>
<!-- Node1&#45;&gt;Node4 -->
<g id="edge6" class="edge">
<title>Node1&#45;&gt;Node4</title>
<path fill="none" stroke="midnightblue" d="M171.73,-50.9C155.9,-41 133.34,-28.07 117.02,-19.65"/>
<polygon fill="midnightblue" stroke="midnightblue" points="169.87,-53.86 180.17,-56.32 173.65,-47.97 169.87,-53.86"/>
</g>
<!-- Node5 -->
<g id="node5" class="node">
<title>Node5</title>
<g id="a_node5"><a xlink:href="structlyra_1_1detail_1_1_bound_flag_ref.html" target="_top" xlink:title=" ">
<polygon fill="white" stroke="black" points="212.5,-0.5 212.5,-19.5 355.5,-19.5 355.5,-0.5 212.5,-0.5"/>
<text text-anchor="middle" x="284" y="-7.5" font-family="Helvetica,sans-Serif" font-size="10.00">lyra::detail::BoundFlagRef</text>
</a>
</g>
</g>
<!-- Node1&#45;&gt;Node5 -->
<g id="edge7" class="edge">
<title>Node1&#45;&gt;Node5</title>
<path fill="none" stroke="midnightblue" d="M208.53,-50.9C224.54,-41 247.35,-28.07 263.82,-19.65"/>
<polygon fill="midnightblue" stroke="midnightblue" points="206.55,-48.01 199.99,-56.32 210.31,-53.92 206.55,-48.01"/>
</g>
<!-- Node1&#45;&gt;Node5 -->
<g id="edge8" class="edge">
<title>Node1&#45;&gt;Node5</title>
<path fill="none" stroke="midnightblue" d="M219.27,-51.59C237.97,-41.61 260.92,-28.27 274.04,-19.65"/>
<polygon fill="midnightblue" stroke="midnightblue" points="217.46,-48.59 210.22,-56.32 220.7,-54.79 217.46,-48.59"/>
</g>
<!-- Node2 -->
<g id="node2" class="node">
<title>Node2</title>
<g id="a_node2"><a xlink:href="structlyra_1_1detail_1_1_bound_ref.html" target="_top" xlink:title=" ">
<polygon fill="white" stroke="black" points="129,-112.5 129,-131.5 251,-131.5 251,-112.5 129,-112.5"/>
<text text-anchor="middle" x="190" y="-119.5" font-family="Helvetica,sans-Serif" font-size="10.00">lyra::detail::BoundRef</text>
</a>
</g>
</g>
<!-- Node2&#45;&gt;Node1 -->
<g id="edge1" class="edge">
<title>Node2&#45;&gt;Node1</title>
<path fill="none" stroke="midnightblue" d="M183.53,-102.1C182.9,-93.14 183.34,-82.86 184.87,-75.75"/>
<polygon fill="midnightblue" stroke="midnightblue" points="180.07,-102.62 184.83,-112.08 187.01,-101.71 180.07,-102.62"/>
</g>
<!-- Node2&#45;&gt;Node1 -->
<g id="edge4" class="edge">
<title>Node2&#45;&gt;Node1</title>
<path fill="none" stroke="midnightblue" d="M196.47,-102.1C197.1,-93.14 196.66,-82.86 195.13,-75.75"/>
<polygon fill="midnightblue" stroke="midnightblue" points="192.99,-101.71 195.17,-112.08 199.93,-102.62 192.99,-101.71"/>
</g>
<!-- Node3 -->
<g id="node3" class="node">
<title>Node3</title>
<g id="a_node3"><a xlink:href="structlyra_1_1detail_1_1_non_copyable.html" target="_top" xlink:title=" ">
<polygon fill="white" stroke="black" points="120,-168.5 120,-187.5 260,-187.5 260,-168.5 120,-168.5"/>
<text text-anchor="middle" x="190" y="-175.5" font-family="Helvetica,sans-Serif" font-size="10.00">lyra::detail::NonCopyable</text>
</a>
</g>
</g>
<!-- Node3&#45;&gt;Node2 -->
<g id="edge2" class="edge">
<title>Node3&#45;&gt;Node2</title>
<path fill="none" stroke="midnightblue" d="M183.53,-158.1C182.9,-149.14 183.34,-138.86 184.87,-131.75"/>
<polygon fill="midnightblue" stroke="midnightblue" points="180.07,-158.62 184.83,-168.08 187.01,-157.71 180.07,-158.62"/>
</g>
<!-- Node3&#45;&gt;Node2 -->
<g id="edge3" class="edge">
<title>Node3&#45;&gt;Node2</title>
<path fill="none" stroke="midnightblue" d="M196.47,-158.1C197.1,-149.14 196.66,-138.86 195.13,-131.75"/>
<polygon fill="midnightblue" stroke="midnightblue" points="192.99,-157.71 195.17,-168.08 199.93,-158.62 192.99,-157.71"/>
</g>
</g>
</svg>
