<?xml version="1.0" encoding="UTF-8" standalone="no"?>
<!DOCTYPE svg PUBLIC "-//W3C//DTD SVG 1.1//EN"
 "http://www.w3.org/Graphics/SVG/1.1/DTD/svg11.dtd">
<!-- Generated by graphviz version 2.43.0 (0)
 -->
<!-- Title: lyra::option_style Pages: 1 -->
<svg width="257pt" height="185pt"
 viewBox="0.00 0.00 257.00 185.00" xmlns="http://www.w3.org/2000/svg" xmlns:xlink="http://www.w3.org/1999/xlink">
<g id="graph0" class="graph" transform="scale(1 1) rotate(0) translate(4 181)">
<title>lyra::option_style</title>
<polygon fill="white" stroke="transparent" points="-4,4 -4,-181 253,-181 253,4 -4,4"/>
<!-- Node1 -->
<g id="node1" class="node">
<title>Node1</title>
<g id="a_node1"><a xlink:title=" ">
<polygon fill="#bfbfbf" stroke="black" points="60.5,-0.5 60.5,-19.5 161.5,-19.5 161.5,-0.5 60.5,-0.5"/>
<text text-anchor="middle" x="111" y="-7.5" font-family="Helvetica,sans-Serif" font-size="10.00">lyra::option_style</text>
</a>
</g>
</g>
<!-- Node2 -->
<g id="node2" class="node">
<title>Node2</title>
<g id="a_node2"><a xlink:title=" ">
<polygon fill="white" stroke="black" points="19.5,-89.5 19.5,-108.5 84.5,-108.5 84.5,-89.5 19.5,-89.5"/>
<text text-anchor="middle" x="52" y="-96.5" font-family="Helvetica,sans-Serif" font-size="10.00">std::string</text>
</a>
</g>
</g>
<!-- Node2&#45;&gt;Node1 -->
<g id="edge1" class="edge">
<title>Node2&#45;&gt;Node1</title>
<path fill="none" stroke="#9a32cd" stroke-dasharray="5,2" d="M47.5,-79.53C45.5,-66.84 45.1,-50.16 53,-38 58.5,-29.52 67.42,-23.66 76.64,-19.63"/>
<polygon fill="#9a32cd" stroke="#9a32cd" points="44.09,-80.33 49.51,-89.43 50.95,-78.94 44.09,-80.33"/>
<text text-anchor="middle" x="100.5" y="-63" font-family="Helvetica,sans-Serif" font-size="10.00"> long_option_prefix</text>
<text text-anchor="middle" x="100.5" y="-52" font-family="Helvetica,sans-Serif" font-size="10.00">short_option_prefix</text>
<text text-anchor="middle" x="100.5" y="-41" font-family="Helvetica,sans-Serif" font-size="10.00">value_delimiters</text>
</g>
<!-- Node3 -->
<g id="node3" class="node">
<title>Node3</title>
<g id="a_node3"><a xlink:title=" ">
<polygon fill="white" stroke="black" points="0,-146.5 0,-176.5 104,-176.5 104,-146.5 0,-146.5"/>
<text text-anchor="start" x="8" y="-164.5" font-family="Helvetica,sans-Serif" font-size="10.00">std::basic_string&lt;</text>
<text text-anchor="middle" x="52" y="-153.5" font-family="Helvetica,sans-Serif" font-size="10.00"> Char &gt;</text>
</a>
</g>
</g>
<!-- Node3&#45;&gt;Node2 -->
<g id="edge2" class="edge">
<title>Node3&#45;&gt;Node2</title>
<path fill="none" stroke="midnightblue" d="M52,-136.35C52,-126.51 52,-115.78 52,-108.54"/>
<polygon fill="midnightblue" stroke="midnightblue" points="48.5,-136.47 52,-146.47 55.5,-136.47 48.5,-136.47"/>
</g>
<!-- Node4 -->
<g id="node4" class="node">
<title>Node4</title>
<g id="a_node4"><a xlink:title=" ">
<polygon fill="white" stroke="black" points="147.5,-89.5 147.5,-108.5 192.5,-108.5 192.5,-89.5 147.5,-89.5"/>
<text text-anchor="middle" x="170" y="-96.5" font-family="Helvetica,sans-Serif" font-size="10.00">size_t</text>
</a>
</g>
</g>
<!-- Node4&#45;&gt;Node1 -->
<g id="edge3" class="edge">
<title>Node4&#45;&gt;Node1</title>
<path fill="none" stroke="#9a32cd" stroke-dasharray="5,2" d="M166.25,-79.63C162.99,-67 157.3,-50.33 148,-38 142.35,-30.51 134.05,-24.18 126.74,-19.55"/>
<polygon fill="#9a32cd" stroke="#9a32cd" points="162.86,-80.53 168.51,-89.49 169.68,-78.96 162.86,-80.53"/>
<text text-anchor="middle" x="206" y="-57.5" font-family="Helvetica,sans-Serif" font-size="10.00"> long_option_size</text>
<text text-anchor="middle" x="206" y="-46.5" font-family="Helvetica,sans-Serif" font-size="10.00">short_option_size</text>
</g>
</g>
</svg>
