<?xml version="1.0" encoding="UTF-8" standalone="no"?>
<!DOCTYPE svg PUBLIC "-//W3C//DTD SVG 1.1//EN"
 "http://www.w3.org/Graphics/SVG/1.1/DTD/svg11.dtd">
<!-- Generated by graphviz version 2.43.0 (0)
 -->
<!-- Title: MainNamespace::Mesh::triangle Pages: 1 -->
<svg width="880pt" height="88pt"
 viewBox="0.00 0.00 880.00 88.00" xmlns="http://www.w3.org/2000/svg" xmlns:xlink="http://www.w3.org/1999/xlink">
<g id="graph0" class="graph" transform="scale(1 1) rotate(0) translate(4 84)">
<title>MainNamespace::Mesh::triangle</title>
<polygon fill="white" stroke="transparent" points="-4,4 -4,-84 876,-84 876,4 -4,4"/>
<!-- Node1 -->
<g id="node1" class="node">
<title>Node1</title>
<g id="a_node1"><a xlink:title="Get a triangle.">
<polygon fill="#bfbfbf" stroke="black" points="741,-24.5 741,-54.5 872,-54.5 872,-24.5 741,-24.5"/>
<text text-anchor="start" x="749" y="-42.5" font-family="Helvetica,sans-Serif" font-size="10.00">MainNamespace::Mesh</text>
<text text-anchor="middle" x="806.5" y="-31.5" font-family="Helvetica,sans-Serif" font-size="10.00">::triangle</text>
</a>
</g>
</g>
<!-- Node2 -->
<g id="node2" class="node">
<title>Node2</title>
<g id="a_node2"><a xlink:href="class_main_namespace_1_1_functions_1_1_mesh_offset.html#a4a768deff1384d61cba181363f4069a9" target="_top" xlink:title="Compute the L² projection of the Nemuann trace into piecewise constant functions. The trace is scaled...">
<polygon fill="white" stroke="black" points="554,-49.5 554,-79.5 705,-79.5 705,-49.5 554,-49.5"/>
<text text-anchor="start" x="562" y="-67.5" font-family="Helvetica,sans-Serif" font-size="10.00">MainNamespace::Functions</text>
<text text-anchor="middle" x="629.5" y="-56.5" font-family="Helvetica,sans-Serif" font-size="10.00">::MeshOffset::l2Neumann</text>
</a>
</g>
</g>
<!-- Node1&#45;&gt;Node2 -->
<g id="edge1" class="edge">
<title>Node1&#45;&gt;Node2</title>
<path fill="none" stroke="midnightblue" d="M730.66,-50.19C722.24,-51.39 713.66,-52.62 705.24,-53.82"/>
<polygon fill="midnightblue" stroke="midnightblue" points="731.43,-53.62 740.83,-48.74 730.44,-46.69 731.43,-53.62"/>
</g>
<!-- Node7 -->
<g id="node7" class="node">
<title>Node7</title>
<g id="a_node7"><a xlink:href="struct_main_namespace_1_1_mesh.html#a8f4a591243a4cc09ea849eaf72fcf7fc" target="_top" xlink:title="Write a mesh in a custom format, at a custom location. Format: one line with number of vertices,...">
<polygon fill="white" stroke="black" points="564,-0.5 564,-30.5 695,-30.5 695,-0.5 564,-0.5"/>
<text text-anchor="start" x="572" y="-18.5" font-family="Helvetica,sans-Serif" font-size="10.00">MainNamespace::Mesh</text>
<text text-anchor="middle" x="629.5" y="-7.5" font-family="Helvetica,sans-Serif" font-size="10.00">::writeMesh</text>
</a>
</g>
</g>
<!-- Node1&#45;&gt;Node7 -->
<g id="edge6" class="edge">
<title>Node1&#45;&gt;Node7</title>
<path fill="none" stroke="midnightblue" d="M730.58,-29.23C718.81,-27.61 706.72,-25.95 695.19,-24.37"/>
<polygon fill="midnightblue" stroke="midnightblue" points="730.45,-32.74 740.83,-30.63 731.4,-25.81 730.45,-32.74"/>
</g>
<!-- Node3 -->
<g id="node3" class="node">
<title>Node3</title>
<g id="a_node3"><a xlink:href="class_main_namespace_1_1_surface_1_1_single_surface.html#a48d60279cef854fc417ed395bc25ca15" target="_top" xlink:title="Project the offset on the current mesh.">
<polygon fill="white" stroke="black" points="366,-49.5 366,-79.5 518,-79.5 518,-49.5 366,-49.5"/>
<text text-anchor="start" x="374" y="-67.5" font-family="Helvetica,sans-Serif" font-size="10.00">MainNamespace::Surface</text>
<text text-anchor="middle" x="442" y="-56.5" font-family="Helvetica,sans-Serif" font-size="10.00">::SingleSurface::makeOffset</text>
</a>
</g>
</g>
<!-- Node2&#45;&gt;Node3 -->
<g id="edge2" class="edge">
<title>Node2&#45;&gt;Node3</title>
<path fill="none" stroke="midnightblue" d="M543.84,-64.5C535.25,-64.5 526.57,-64.5 518.1,-64.5"/>
<polygon fill="midnightblue" stroke="midnightblue" points="543.85,-68 553.85,-64.5 543.85,-61 543.85,-68"/>
</g>
<!-- Node4 -->
<g id="node4" class="node">
<title>Node4</title>
<g id="a_node4"><a xlink:href="class_main_namespace_1_1_surface_1_1_multi_surface.html#a8839f7e49575079e39fbb95a692772a5" target="_top" xlink:title="Compute the right&#45;hand side, the operators, then solve the linear system.">
<polygon fill="white" stroke="black" points="189,-49.5 189,-79.5 330,-79.5 330,-49.5 189,-49.5"/>
<text text-anchor="start" x="197" y="-67.5" font-family="Helvetica,sans-Serif" font-size="10.00">MainNamespace::Surface</text>
<text text-anchor="middle" x="259.5" y="-56.5" font-family="Helvetica,sans-Serif" font-size="10.00">::MultiSurface::solve</text>
</a>
</g>
</g>
<!-- Node3&#45;&gt;Node4 -->
<g id="edge3" class="edge">
<title>Node3&#45;&gt;Node4</title>
<path fill="none" stroke="midnightblue" d="M355.74,-64.5C347.16,-64.5 338.52,-64.5 330.14,-64.5"/>
<polygon fill="midnightblue" stroke="midnightblue" points="355.76,-68 365.76,-64.5 355.76,-61 355.76,-68"/>
</g>
<!-- Node5 -->
<g id="node5" class="node">
<title>Node5</title>
<g id="a_node5"><a xlink:href="main_8cpp.html#a5d68713f22d1b3e2495b15d107ea7d21" target="_top" xlink:title=" ">
<polygon fill="white" stroke="black" points="77,-55 77,-74 153,-74 153,-55 77,-55"/>
<text text-anchor="middle" x="115" y="-62" font-family="Helvetica,sans-Serif" font-size="10.00">testProblem</text>
</a>
</g>
</g>
<!-- Node4&#45;&gt;Node5 -->
<g id="edge4" class="edge">
<title>Node4&#45;&gt;Node5</title>
<path fill="none" stroke="midnightblue" d="M178.85,-64.5C169.97,-64.5 161.27,-64.5 153.31,-64.5"/>
<polygon fill="midnightblue" stroke="midnightblue" points="178.92,-68 188.92,-64.5 178.92,-61 178.92,-68"/>
</g>
<!-- Node6 -->
<g id="node6" class="node">
<title>Node6</title>
<g id="a_node6"><a xlink:href="main_8cpp.html#a3c04138a5bfe5d72780bb7e82a18e627" target="_top" xlink:title=" ">
<polygon fill="white" stroke="black" points="0,-55 0,-74 41,-74 41,-55 0,-55"/>
<text text-anchor="middle" x="20.5" y="-62" font-family="Helvetica,sans-Serif" font-size="10.00">main</text>
</a>
</g>
</g>
<!-- Node5&#45;&gt;Node6 -->
<g id="edge5" class="edge">
<title>Node5&#45;&gt;Node6</title>
<path fill="none" stroke="midnightblue" d="M66.72,-64.5C57.65,-64.5 48.64,-64.5 41.07,-64.5"/>
<polygon fill="midnightblue" stroke="midnightblue" points="66.91,-68 76.91,-64.5 66.91,-61 66.91,-68"/>
</g>
</g>
</svg>
