<?xml version="1.0" encoding="UTF-8" standalone="no"?>
<!DOCTYPE svg PUBLIC "-//W3C//DTD SVG 1.1//EN"
 "http://www.w3.org/Graphics/SVG/1.1/DTD/svg11.dtd">
<!-- Generated by graphviz version 2.43.0 (0)
 -->
<!-- Title: MainNamespace::Options::admissibilityParameters Pages: 1 -->
<svg width="405pt" height="127pt"
 viewBox="0.00 0.00 405.00 127.00" xmlns="http://www.w3.org/2000/svg" xmlns:xlink="http://www.w3.org/1999/xlink">
<g id="graph0" class="graph" transform="scale(1 1) rotate(0) translate(4 123)">
<title>MainNamespace::Options::admissibilityParameters</title>
<polygon fill="white" stroke="transparent" points="-4,4 -4,-123 401,-123 401,4 -4,4"/>
<!-- Node1 -->
<g id="node1" class="node">
<title>Node1</title>
<g id="a_node1"><a xlink:title=" ">
<polygon fill="#bfbfbf" stroke="black" points="255,-44.5 255,-74.5 397,-74.5 397,-44.5 255,-44.5"/>
<text text-anchor="start" x="263" y="-62.5" font-family="Helvetica,sans-Serif" font-size="10.00">MainNamespace::Options</text>
<text text-anchor="middle" x="326" y="-51.5" font-family="Helvetica,sans-Serif" font-size="10.00">::admissibilityParameters</text>
</a>
</g>
</g>
<!-- Node2 -->
<g id="node2" class="node">
<title>Node2</title>
<g id="a_node2"><a xlink:href="struct_main_namespace_1_1_options.html#a33d8354f3667eb7eb61e9dcbf4b8aa8e" target="_top" xlink:title=" ">
<polygon fill="white" stroke="black" points="77,-88.5 77,-118.5 219,-118.5 219,-88.5 77,-88.5"/>
<text text-anchor="start" x="85" y="-106.5" font-family="Helvetica,sans-Serif" font-size="10.00">MainNamespace::Options</text>
<text text-anchor="middle" x="148" y="-95.5" font-family="Helvetica,sans-Serif" font-size="10.00">::admissibilityParameters</text>
</a>
</g>
</g>
<!-- Node1&#45;&gt;Node2 -->
<g id="edge1" class="edge">
<title>Node1&#45;&gt;Node2</title>
<path fill="none" stroke="midnightblue" d="M255.06,-76.99C239.85,-80.79 223.89,-84.78 209.1,-88.47"/>
<polygon fill="midnightblue" stroke="midnightblue" points="256.07,-80.34 264.92,-74.52 254.37,-73.55 256.07,-80.34"/>
</g>
<!-- Node3 -->
<g id="node3" class="node">
<title>Node3</title>
<g id="a_node3"><a xlink:href="main_8cpp.html#a3c04138a5bfe5d72780bb7e82a18e627" target="_top" xlink:title=" ">
<polygon fill="white" stroke="black" points="0,-28 0,-47 41,-47 41,-28 0,-28"/>
<text text-anchor="middle" x="20.5" y="-35" font-family="Helvetica,sans-Serif" font-size="10.00">main</text>
</a>
</g>
</g>
<!-- Node1&#45;&gt;Node3 -->
<g id="edge2" class="edge">
<title>Node1&#45;&gt;Node3</title>
<path fill="none" stroke="midnightblue" d="M245.01,-53.7C176.05,-48.7 81.4,-41.84 41.03,-38.92"/>
<polygon fill="midnightblue" stroke="midnightblue" points="244.76,-57.19 254.99,-54.43 245.27,-50.21 244.76,-57.19"/>
</g>
<!-- Node4 -->
<g id="node4" class="node">
<title>Node4</title>
<g id="a_node4"><a xlink:href="struct_main_namespace_1_1_options.html#a95667d9cb0d41b3f16ce8fbca8b9f6cc" target="_top" xlink:title=" ">
<polygon fill="white" stroke="black" points="77,-0.5 77,-30.5 219,-30.5 219,-0.5 77,-0.5"/>
<text text-anchor="start" x="85" y="-18.5" font-family="Helvetica,sans-Serif" font-size="10.00">MainNamespace::Options</text>
<text text-anchor="middle" x="148" y="-7.5" font-family="Helvetica,sans-Serif" font-size="10.00">::waveNumber</text>
</a>
</g>
</g>
<!-- Node1&#45;&gt;Node4 -->
<g id="edge3" class="edge">
<title>Node1&#45;&gt;Node4</title>
<path fill="none" stroke="midnightblue" d="M255.06,-42.01C239.85,-38.21 223.89,-34.22 209.1,-30.53"/>
<polygon fill="midnightblue" stroke="midnightblue" points="254.37,-45.45 264.92,-44.48 256.07,-38.66 254.37,-45.45"/>
</g>
<!-- Node4&#45;&gt;Node3 -->
<g id="edge4" class="edge">
<title>Node4&#45;&gt;Node3</title>
<path fill="none" stroke="midnightblue" d="M66.88,-29.55C57.41,-31.21 48.51,-32.76 41.15,-34.06"/>
<polygon fill="midnightblue" stroke="midnightblue" points="67.67,-32.96 76.91,-27.79 66.46,-26.07 67.67,-32.96"/>
</g>
</g>
</svg>
