<?xml version="1.0" encoding="UTF-8" standalone="no"?>
<!DOCTYPE svg PUBLIC "-//W3C//DTD SVG 1.1//EN"
 "http://www.w3.org/Graphics/SVG/1.1/DTD/svg11.dtd">
<!-- Generated by graphviz version 2.43.0 (0)
 -->
<!-- Title: MainNamespace::Mesh::vertices Pages: 1 -->
<svg width="1386pt" height="342pt"
 viewBox="0.00 0.00 1386.00 341.87" xmlns="http://www.w3.org/2000/svg" xmlns:xlink="http://www.w3.org/1999/xlink">
<g id="graph0" class="graph" transform="scale(1 1) rotate(0) translate(4 337.87)">
<title>MainNamespace::Mesh::vertices</title>
<polygon fill="white" stroke="transparent" points="-4,4 -4,-337.87 1382,-337.87 1382,4 -4,4"/>
<!-- Node1 -->
<g id="node1" class="node">
<title>Node1</title>
<g id="a_node1"><a xlink:title="Getter.">
<polygon fill="#bfbfbf" stroke="black" points="1247,-166.37 1247,-196.37 1378,-196.37 1378,-166.37 1247,-166.37"/>
<text text-anchor="start" x="1255" y="-184.37" font-family="Helvetica,sans-Serif" font-size="10.00">MainNamespace::Mesh</text>
<text text-anchor="middle" x="1312.5" y="-173.37" font-family="Helvetica,sans-Serif" font-size="10.00">::vertices</text>
</a>
</g>
</g>
<!-- Node2 -->
<g id="node2" class="node">
<title>Node2</title>
<g id="a_node2"><a xlink:href="class_main_namespace_1_1_surface_1_1_single_surface.html#a2cb253a6c5cc5d0c66ead47e5db3233b" target="_top" xlink:title="Construct an object to manage data associated to a closed boundary.">
<polygon fill="white" stroke="black" points="1047.5,-303.37 1047.5,-333.37 1209.5,-333.37 1209.5,-303.37 1047.5,-303.37"/>
<text text-anchor="start" x="1055.5" y="-321.37" font-family="Helvetica,sans-Serif" font-size="10.00">MainNamespace::Surface</text>
<text text-anchor="middle" x="1128.5" y="-310.37" font-family="Helvetica,sans-Serif" font-size="10.00">::SingleSurface::SingleSurface</text>
</a>
</g>
</g>
<!-- Node1&#45;&gt;Node2 -->
<g id="edge1" class="edge">
<title>Node1&#45;&gt;Node2</title>
<path fill="none" stroke="midnightblue" d="M1296.45,-205.03C1278.94,-230.69 1247.69,-271.1 1211,-294.37 1205.64,-297.76 1199.79,-300.7 1193.75,-303.23"/>
<polygon fill="midnightblue" stroke="midnightblue" points="1299.43,-206.88 1302.06,-196.62 1293.6,-203 1299.43,-206.88"/>
</g>
<!-- Node3 -->
<g id="node3" class="node">
<title>Node3</title>
<g id="a_node3"><a xlink:href="namespace_main_namespace_1_1_surface.html#a4c0c8122fd15716950c73989302ffdc3" target="_top" xlink:title=" ">
<polygon fill="white" stroke="black" points="848.5,-254.37 848.5,-284.37 989.5,-284.37 989.5,-254.37 848.5,-254.37"/>
<text text-anchor="start" x="856.5" y="-272.37" font-family="Helvetica,sans-Serif" font-size="10.00">MainNamespace::Surface</text>
<text text-anchor="middle" x="919" y="-261.37" font-family="Helvetica,sans-Serif" font-size="10.00">::getFromFile</text>
</a>
</g>
</g>
<!-- Node1&#45;&gt;Node3 -->
<g id="edge2" class="edge">
<title>Node1&#45;&gt;Node3</title>
<path fill="none" stroke="midnightblue" d="M1242.35,-198.86C1231.86,-201.43 1221.15,-204.01 1211,-206.37 1135.48,-223.93 1048.55,-242.54 989.51,-254.94"/>
<polygon fill="midnightblue" stroke="midnightblue" points="1243.45,-202.2 1252.32,-196.41 1241.77,-195.4 1243.45,-202.2"/>
</g>
<!-- Node5 -->
<g id="node5" class="node">
<title>Node5</title>
<g id="a_node5"><a xlink:href="class_main_namespace_1_1_functions_1_1_mesh_offset.html#a4a768deff1384d61cba181363f4069a9" target="_top" xlink:title="Compute the L² projection of the Nemuann trace into piecewise constant functions. The trace is scaled...">
<polygon fill="white" stroke="black" points="843.5,-117.37 843.5,-147.37 994.5,-147.37 994.5,-117.37 843.5,-117.37"/>
<text text-anchor="start" x="851.5" y="-135.37" font-family="Helvetica,sans-Serif" font-size="10.00">MainNamespace::Functions</text>
<text text-anchor="middle" x="919" y="-124.37" font-family="Helvetica,sans-Serif" font-size="10.00">::MeshOffset::l2Neumann</text>
</a>
</g>
</g>
<!-- Node1&#45;&gt;Node5 -->
<g id="edge4" class="edge">
<title>Node1&#45;&gt;Node5</title>
<path fill="none" stroke="midnightblue" d="M1245.31,-164.09C1233.92,-161.54 1222.16,-159.17 1211,-157.37 1137.91,-145.57 1053.54,-139.1 994.53,-135.71"/>
<polygon fill="midnightblue" stroke="midnightblue" points="1244.66,-167.53 1255.19,-166.36 1246.23,-160.71 1244.66,-167.53"/>
</g>
<!-- Node10 -->
<g id="node10" class="node">
<title>Node10</title>
<g id="a_node10"><a xlink:href="class_main_namespace_1_1_mesh_reader.html#a05a6ac577d6a74ddc0f355a83d7ad442" target="_top" xlink:title="Parse a gmsh mesh file into a surface3d structure. The mesh_ object is filled in the appropriate way.">
<polygon fill="white" stroke="black" points="1046,-254.37 1046,-284.37 1211,-284.37 1211,-254.37 1046,-254.37"/>
<text text-anchor="start" x="1054" y="-272.37" font-family="Helvetica,sans-Serif" font-size="10.00">MainNamespace::MeshReader</text>
<text text-anchor="middle" x="1128.5" y="-261.37" font-family="Helvetica,sans-Serif" font-size="10.00">::parseMesh</text>
</a>
</g>
</g>
<!-- Node1&#45;&gt;Node10 -->
<g id="edge9" class="edge">
<title>Node1&#45;&gt;Node10</title>
<path fill="none" stroke="midnightblue" d="M1279.44,-201.75C1260.06,-213.59 1234.62,-228.3 1211,-239.37 1199.53,-244.74 1186.81,-249.82 1174.9,-254.21"/>
<polygon fill="midnightblue" stroke="midnightblue" points="1281.48,-204.6 1288.15,-196.37 1277.8,-198.65 1281.48,-204.6"/>
</g>
<!-- Node11 -->
<g id="node11" class="node">
<title>Node11</title>
<g id="a_node11"><a xlink:href="class_main_namespace_1_1_mesh_reader.html#a6b3bbaa0caf0b1e01681dc79a1ac72ea" target="_top" xlink:title="Save the Cauchy data associated to the mesh, with the given name.">
<polygon fill="white" stroke="black" points="622.5,-29.37 622.5,-59.37 787.5,-59.37 787.5,-29.37 622.5,-29.37"/>
<text text-anchor="start" x="630.5" y="-47.37" font-family="Helvetica,sans-Serif" font-size="10.00">MainNamespace::MeshReader</text>
<text text-anchor="middle" x="705" y="-36.37" font-family="Helvetica,sans-Serif" font-size="10.00">::saveView</text>
</a>
</g>
</g>
<!-- Node1&#45;&gt;Node11 -->
<g id="edge11" class="edge">
<title>Node1&#45;&gt;Node11</title>
<path fill="none" stroke="midnightblue" d="M1274.64,-161.79C1256,-152.6 1232.77,-142.19 1211,-135.37 1065.43,-89.73 888.63,-64.43 787.53,-52.68"/>
<polygon fill="midnightblue" stroke="midnightblue" points="1273.15,-164.96 1283.66,-166.32 1276.29,-158.71 1273.15,-164.96"/>
</g>
<!-- Node14 -->
<g id="node14" class="node">
<title>Node14</title>
<g id="a_node14"><a xlink:href="class_main_namespace_1_1_surface_1_1_single_surface.html#a14d982b157c95bc7e304f60915960786" target="_top" xlink:title="Getter.">
<polygon fill="white" stroke="black" points="1058,-166.37 1058,-196.37 1199,-196.37 1199,-166.37 1058,-166.37"/>
<text text-anchor="start" x="1066" y="-184.37" font-family="Helvetica,sans-Serif" font-size="10.00">MainNamespace::Surface</text>
<text text-anchor="middle" x="1128.5" y="-173.37" font-family="Helvetica,sans-Serif" font-size="10.00">::SingleSurface::vertices</text>
</a>
</g>
</g>
<!-- Node1&#45;&gt;Node14 -->
<g id="edge17" class="edge">
<title>Node1&#45;&gt;Node14</title>
<path fill="none" stroke="midnightblue" d="M1236.56,-181.37C1224.2,-181.37 1211.44,-181.37 1199.22,-181.37"/>
<polygon fill="midnightblue" stroke="midnightblue" points="1236.82,-184.87 1246.82,-181.37 1236.82,-177.87 1236.82,-184.87"/>
</g>
<!-- Node19 -->
<g id="node19" class="node">
<title>Node19</title>
<g id="a_node19"><a xlink:href="struct_main_namespace_1_1_mesh.html#a8f4a591243a4cc09ea849eaf72fcf7fc" target="_top" xlink:title="Write a mesh in a custom format, at a custom location. Format: one line with number of vertices,...">
<polygon fill="white" stroke="black" points="1063,-29.37 1063,-59.37 1194,-59.37 1194,-29.37 1063,-29.37"/>
<text text-anchor="start" x="1071" y="-47.37" font-family="Helvetica,sans-Serif" font-size="10.00">MainNamespace::Mesh</text>
<text text-anchor="middle" x="1128.5" y="-36.37" font-family="Helvetica,sans-Serif" font-size="10.00">::writeMesh</text>
</a>
</g>
</g>
<!-- Node1&#45;&gt;Node19 -->
<g id="edge24" class="edge">
<title>Node1&#45;&gt;Node19</title>
<path fill="none" stroke="midnightblue" d="M1294.76,-157.94C1276.56,-133.99 1245.45,-97.17 1211,-74.37 1202.07,-68.46 1191.83,-63.52 1181.69,-59.47"/>
<polygon fill="midnightblue" stroke="midnightblue" points="1292.08,-160.2 1300.86,-166.13 1297.69,-156.02 1292.08,-160.2"/>
</g>
<!-- Node4 -->
<g id="node4" class="node">
<title>Node4</title>
<g id="a_node4"><a xlink:href="class_main_namespace_1_1_surface_1_1_multi_surface.html#a3f8d56c9aa2c53fdbb578f534bd523e5" target="_top" xlink:title="Contructor. Parse a mesh file in gmsh format and build the global mesh.">
<polygon fill="white" stroke="black" points="629,-254.37 629,-284.37 781,-284.37 781,-254.37 629,-254.37"/>
<text text-anchor="start" x="637" y="-272.37" font-family="Helvetica,sans-Serif" font-size="10.00">MainNamespace::Surface</text>
<text text-anchor="middle" x="705" y="-261.37" font-family="Helvetica,sans-Serif" font-size="10.00">::MultiSurface::MultiSurface</text>
</a>
</g>
</g>
<!-- Node3&#45;&gt;Node4 -->
<g id="edge3" class="edge">
<title>Node3&#45;&gt;Node4</title>
<path fill="none" stroke="midnightblue" d="M838.07,-269.37C819.43,-269.37 799.65,-269.37 781.23,-269.37"/>
<polygon fill="midnightblue" stroke="midnightblue" points="838.29,-272.87 848.29,-269.37 838.29,-265.87 838.29,-272.87"/>
</g>
<!-- Node6 -->
<g id="node6" class="node">
<title>Node6</title>
<g id="a_node6"><a xlink:href="class_main_namespace_1_1_surface_1_1_single_surface.html#a48d60279cef854fc417ed395bc25ca15" target="_top" xlink:title="Project the offset on the current mesh.">
<polygon fill="white" stroke="black" points="398,-127.37 398,-157.37 550,-157.37 550,-127.37 398,-127.37"/>
<text text-anchor="start" x="406" y="-145.37" font-family="Helvetica,sans-Serif" font-size="10.00">MainNamespace::Surface</text>
<text text-anchor="middle" x="474" y="-134.37" font-family="Helvetica,sans-Serif" font-size="10.00">::SingleSurface::makeOffset</text>
</a>
</g>
</g>
<!-- Node5&#45;&gt;Node6 -->
<g id="edge5" class="edge">
<title>Node5&#45;&gt;Node6</title>
<path fill="none" stroke="midnightblue" d="M841.62,-115.44C825.32,-112.49 808.16,-109.89 792,-108.37 715.01,-101.1 694.62,-97.92 618,-108.37 601.55,-110.61 598.11,-114.33 582,-118.37 569.9,-121.4 556.99,-124.45 544.48,-127.32"/>
<polygon fill="midnightblue" stroke="midnightblue" points="841.16,-118.91 851.64,-117.3 842.45,-112.03 841.16,-118.91"/>
</g>
<!-- Node7 -->
<g id="node7" class="node">
<title>Node7</title>
<g id="a_node7"><a xlink:href="class_main_namespace_1_1_surface_1_1_multi_surface.html#a8839f7e49575079e39fbb95a692772a5" target="_top" xlink:title="Compute the right&#45;hand side, the operators, then solve the linear system.">
<polygon fill="white" stroke="black" points="189,-102.37 189,-132.37 330,-132.37 330,-102.37 189,-102.37"/>
<text text-anchor="start" x="197" y="-120.37" font-family="Helvetica,sans-Serif" font-size="10.00">MainNamespace::Surface</text>
<text text-anchor="middle" x="259.5" y="-109.37" font-family="Helvetica,sans-Serif" font-size="10.00">::MultiSurface::solve</text>
</a>
</g>
</g>
<!-- Node6&#45;&gt;Node7 -->
<g id="edge6" class="edge">
<title>Node6&#45;&gt;Node7</title>
<path fill="none" stroke="midnightblue" d="M387.62,-132.32C368.58,-130.08 348.61,-127.73 330.29,-125.58"/>
<polygon fill="midnightblue" stroke="midnightblue" points="387.44,-135.83 397.78,-133.52 388.26,-128.87 387.44,-135.83"/>
</g>
<!-- Node8 -->
<g id="node8" class="node">
<title>Node8</title>
<g id="a_node8"><a xlink:href="main_8cpp.html#a5d68713f22d1b3e2495b15d107ea7d21" target="_top" xlink:title=" ">
<polygon fill="white" stroke="black" points="77,-107.87 77,-126.87 153,-126.87 153,-107.87 77,-107.87"/>
<text text-anchor="middle" x="115" y="-114.87" font-family="Helvetica,sans-Serif" font-size="10.00">testProblem</text>
</a>
</g>
</g>
<!-- Node7&#45;&gt;Node8 -->
<g id="edge7" class="edge">
<title>Node7&#45;&gt;Node8</title>
<path fill="none" stroke="midnightblue" d="M178.85,-117.37C169.97,-117.37 161.27,-117.37 153.31,-117.37"/>
<polygon fill="midnightblue" stroke="midnightblue" points="178.92,-120.87 188.92,-117.37 178.92,-113.87 178.92,-120.87"/>
</g>
<!-- Node9 -->
<g id="node9" class="node">
<title>Node9</title>
<g id="a_node9"><a xlink:href="main_8cpp.html#a3c04138a5bfe5d72780bb7e82a18e627" target="_top" xlink:title=" ">
<polygon fill="white" stroke="black" points="0,-107.87 0,-126.87 41,-126.87 41,-107.87 0,-107.87"/>
<text text-anchor="middle" x="20.5" y="-114.87" font-family="Helvetica,sans-Serif" font-size="10.00">main</text>
</a>
</g>
</g>
<!-- Node8&#45;&gt;Node9 -->
<g id="edge8" class="edge">
<title>Node8&#45;&gt;Node9</title>
<path fill="none" stroke="midnightblue" d="M66.72,-117.37C57.65,-117.37 48.64,-117.37 41.07,-117.37"/>
<polygon fill="midnightblue" stroke="midnightblue" points="66.91,-120.87 76.91,-117.37 66.91,-113.87 66.91,-120.87"/>
</g>
<!-- Node10&#45;&gt;Node3 -->
<g id="edge10" class="edge">
<title>Node10&#45;&gt;Node3</title>
<path fill="none" stroke="midnightblue" d="M1035.68,-269.37C1020.2,-269.37 1004.36,-269.37 989.56,-269.37"/>
<polygon fill="midnightblue" stroke="midnightblue" points="1035.79,-272.87 1045.79,-269.37 1035.79,-265.87 1035.79,-272.87"/>
</g>
<!-- Node11&#45;&gt;Node6 -->
<g id="edge15" class="edge">
<title>Node11&#45;&gt;Node6</title>
<path fill="none" stroke="midnightblue" d="M637.09,-63.52C630.38,-66.66 623.88,-70.26 618,-74.37 597.3,-88.85 603.5,-105.1 582,-118.37 572.28,-124.37 561.24,-128.87 550.03,-132.25"/>
<polygon fill="midnightblue" stroke="midnightblue" points="638.54,-66.71 646.33,-59.53 635.77,-60.28 638.54,-66.71"/>
</g>
<!-- Node11&#45;&gt;Node7 -->
<g id="edge16" class="edge">
<title>Node11&#45;&gt;Node7</title>
<path fill="none" stroke="midnightblue" d="M650.32,-26.45C581.78,-6.65 460.74,17.85 366,-19.37 323.42,-36.09 287.8,-78.98 270.96,-102.09"/>
<polygon fill="midnightblue" stroke="midnightblue" points="649.46,-29.84 660.04,-29.33 651.45,-23.13 649.46,-29.84"/>
</g>
<!-- Node12 -->
<g id="node12" class="node">
<title>Node12</title>
<g id="a_node12"><a xlink:href="class_main_namespace_1_1_surface_1_1_single_surface.html#acd075e5e7ea6304b2e99e6e8aeed29db" target="_top" xlink:title="Compute the energy error norm.">
<polygon fill="white" stroke="black" points="366,-29.37 366,-59.37 582,-59.37 582,-29.37 366,-29.37"/>
<text text-anchor="start" x="374" y="-47.37" font-family="Helvetica,sans-Serif" font-size="10.00">MainNamespace::Surface</text>
<text text-anchor="middle" x="474" y="-36.37" font-family="Helvetica,sans-Serif" font-size="10.00">::SingleSurface::computeDifferenceNorm</text>
</a>
</g>
</g>
<!-- Node11&#45;&gt;Node12 -->
<g id="edge12" class="edge">
<title>Node11&#45;&gt;Node12</title>
<path fill="none" stroke="midnightblue" d="M612.15,-44.37C602.33,-44.37 592.27,-44.37 582.28,-44.37"/>
<polygon fill="midnightblue" stroke="midnightblue" points="612.3,-47.87 622.3,-44.37 612.3,-40.87 612.3,-47.87"/>
</g>
<!-- Node13 -->
<g id="node13" class="node">
<title>Node13</title>
<g id="a_node13"><a xlink:href="class_main_namespace_1_1_surface_1_1_multi_surface.html#a5e65e47cb2b222bd9a5e7cc40e1c23e1" target="_top" xlink:title="Compute the error in several ways.">
<polygon fill="white" stroke="black" points="403.5,-78.37 403.5,-108.37 544.5,-108.37 544.5,-78.37 403.5,-78.37"/>
<text text-anchor="start" x="411.5" y="-96.37" font-family="Helvetica,sans-Serif" font-size="10.00">MainNamespace::Surface</text>
<text text-anchor="middle" x="474" y="-85.37" font-family="Helvetica,sans-Serif" font-size="10.00">::MultiSurface::error</text>
</a>
</g>
</g>
<!-- Node11&#45;&gt;Node13 -->
<g id="edge13" class="edge">
<title>Node11&#45;&gt;Node13</title>
<path fill="none" stroke="midnightblue" d="M623.64,-61.56C597.91,-67.07 569.64,-73.12 544.74,-78.45"/>
<polygon fill="midnightblue" stroke="midnightblue" points="624.69,-64.92 633.74,-59.4 623.23,-58.07 624.69,-64.92"/>
</g>
<!-- Node13&#45;&gt;Node7 -->
<g id="edge14" class="edge">
<title>Node13&#45;&gt;Node7</title>
<path fill="none" stroke="midnightblue" d="M393.37,-102.36C372.62,-104.7 350.43,-107.21 330.24,-109.49"/>
<polygon fill="midnightblue" stroke="midnightblue" points="393.88,-105.83 403.42,-101.23 393.09,-98.87 393.88,-105.83"/>
</g>
<!-- Node15 -->
<g id="node15" class="node">
<title>Node15</title>
<g id="a_node15"><a xlink:href="class_main_namespace_1_1_surface_1_1_single_surface.html#a895b50a0b257398b19897c97f235b777" target="_top" xlink:title="Getter.">
<polygon fill="white" stroke="black" points="828,-166.37 828,-196.37 1010,-196.37 1010,-166.37 828,-166.37"/>
<text text-anchor="start" x="836" y="-184.37" font-family="Helvetica,sans-Serif" font-size="10.00">MainNamespace::Surface</text>
<text text-anchor="middle" x="919" y="-173.37" font-family="Helvetica,sans-Serif" font-size="10.00">::SingleSurface::dirichletBasisSize</text>
</a>
</g>
</g>
<!-- Node14&#45;&gt;Node15 -->
<g id="edge18" class="edge">
<title>Node14&#45;&gt;Node15</title>
<path fill="none" stroke="midnightblue" d="M1047.64,-181.37C1035.36,-181.37 1022.61,-181.37 1010.12,-181.37"/>
<polygon fill="midnightblue" stroke="midnightblue" points="1047.83,-184.87 1057.83,-181.37 1047.83,-177.87 1047.83,-184.87"/>
</g>
<!-- Node18 -->
<g id="node18" class="node">
<title>Node18</title>
<g id="a_node18"><a xlink:href="class_main_namespace_1_1_surface_1_1_single_surface.html#a3321422c36eccd213cfc48823a9f54d7" target="_top" xlink:title="Project the offset on the current mesh, then use it to compute the right&#45;hand side.">
<polygon fill="white" stroke="black" points="391.5,-193.37 391.5,-223.37 556.5,-223.37 556.5,-193.37 391.5,-193.37"/>
<text text-anchor="start" x="399.5" y="-211.37" font-family="Helvetica,sans-Serif" font-size="10.00">MainNamespace::Surface</text>
<text text-anchor="middle" x="474" y="-200.37" font-family="Helvetica,sans-Serif" font-size="10.00">::SingleSurface::makeMultiRhs</text>
</a>
</g>
</g>
<!-- Node14&#45;&gt;Node18 -->
<g id="edge22" class="edge">
<title>Node14&#45;&gt;Node18</title>
<path fill="none" stroke="midnightblue" d="M1058.22,-198.58C1042.47,-201.8 1025.74,-204.68 1010,-206.37 850.23,-223.48 662.07,-218.38 556.86,-213.27"/>
<polygon fill="midnightblue" stroke="midnightblue" points="1059.35,-201.92 1068.41,-196.42 1057.9,-195.07 1059.35,-201.92"/>
</g>
<!-- Node16 -->
<g id="node16" class="node">
<title>Node16</title>
<g id="a_node16"><a xlink:href="class_main_namespace_1_1_surface_1_1_single_surface.html#af82898396f01292566ccfa0389b11d72" target="_top" xlink:title="Getter.">
<polygon fill="white" stroke="black" points="626,-166.37 626,-196.37 784,-196.37 784,-166.37 626,-166.37"/>
<text text-anchor="start" x="634" y="-184.37" font-family="Helvetica,sans-Serif" font-size="10.00">MainNamespace::Surface</text>
<text text-anchor="middle" x="705" y="-173.37" font-family="Helvetica,sans-Serif" font-size="10.00">::SingleSurface::fullBasisSize</text>
</a>
</g>
</g>
<!-- Node15&#45;&gt;Node16 -->
<g id="edge19" class="edge">
<title>Node15&#45;&gt;Node16</title>
<path fill="none" stroke="midnightblue" d="M817.51,-181.37C806.28,-181.37 794.97,-181.37 784.08,-181.37"/>
<polygon fill="midnightblue" stroke="midnightblue" points="817.79,-184.87 827.79,-181.37 817.79,-177.87 817.79,-184.87"/>
</g>
<!-- Node17 -->
<g id="node17" class="node">
<title>Node17</title>
<g id="a_node17"><a xlink:href="class_main_namespace_1_1_surface_1_1_single_surface.html#aa1a8598228000ef782f8de12b454b29e" target="_top" xlink:title="Getter.">
<polygon fill="white" stroke="black" points="618,-117.37 618,-147.37 792,-147.37 792,-117.37 618,-117.37"/>
<text text-anchor="start" x="626" y="-135.37" font-family="Helvetica,sans-Serif" font-size="10.00">MainNamespace::Surface</text>
<text text-anchor="middle" x="705" y="-124.37" font-family="Helvetica,sans-Serif" font-size="10.00">::SingleSurface::singleSpaceSize</text>
</a>
</g>
</g>
<!-- Node15&#45;&gt;Node17 -->
<g id="edge21" class="edge">
<title>Node15&#45;&gt;Node17</title>
<path fill="none" stroke="midnightblue" d="M843.02,-164.04C819.48,-158.6 793.71,-152.64 770.92,-147.37"/>
<polygon fill="midnightblue" stroke="midnightblue" points="842.42,-167.49 852.95,-166.33 844,-160.67 842.42,-167.49"/>
</g>
<!-- Node16&#45;&gt;Node6 -->
<g id="edge20" class="edge">
<title>Node16&#45;&gt;Node6</title>
<path fill="none" stroke="midnightblue" d="M615.96,-166.37C594.23,-162.67 571.16,-158.74 550.11,-155.16"/>
<polygon fill="midnightblue" stroke="midnightblue" points="615.39,-169.83 625.83,-168.06 616.56,-162.93 615.39,-169.83"/>
</g>
<!-- Node18&#45;&gt;Node7 -->
<g id="edge23" class="edge">
<title>Node18&#45;&gt;Node7</title>
<path fill="none" stroke="midnightblue" d="M421.91,-189.7C404.1,-182.96 384.06,-175.09 366,-167.37 340.28,-156.37 311.64,-142.7 290.69,-132.43"/>
<polygon fill="midnightblue" stroke="midnightblue" points="420.95,-193.08 431.55,-193.33 423.42,-186.53 420.95,-193.08"/>
</g>
</g>
</svg>
