<?xml version="1.0" encoding="UTF-8" standalone="no"?>
<!DOCTYPE svg PUBLIC "-//W3C//DTD SVG 1.1//EN"
 "http://www.w3.org/Graphics/SVG/1.1/DTD/svg11.dtd">
<!-- Generated by graphviz version 2.43.0 (0)
 -->
<!-- Title: lyra::detail::choices_set&lt; T &gt; Pages: 1 -->
<svg width="153pt" height="242pt"
 viewBox="0.00 0.00 153.00 242.00" xmlns="http://www.w3.org/2000/svg" xmlns:xlink="http://www.w3.org/1999/xlink">
<g id="graph0" class="graph" transform="scale(1 1) rotate(0) translate(4 238)">
<title>lyra::detail::choices_set&lt; T &gt;</title>
<polygon fill="white" stroke="transparent" points="-4,4 -4,-238 149,-238 149,4 -4,4"/>
<!-- Node1 -->
<g id="node1" class="node">
<title>Node1</title>
<g id="a_node1"><a xlink:title=" ">
<polygon fill="#bfbfbf" stroke="black" points="14,-146.5 14,-176.5 126,-176.5 126,-146.5 14,-146.5"/>
<text text-anchor="start" x="22" y="-164.5" font-family="Helvetica,sans-Serif" font-size="10.00">lyra::detail::choices</text>
<text text-anchor="middle" x="70" y="-153.5" font-family="Helvetica,sans-Serif" font-size="10.00">_set&lt; T &gt;</text>
</a>
</g>
</g>
<!-- Node3 -->
<g id="node3" class="node">
<title>Node3</title>
<g id="a_node3"><a xlink:href="structlyra_1_1detail_1_1choices__set.html" target="_top" xlink:title=" ">
<polygon fill="white" stroke="black" points="14,-68.5 14,-98.5 126,-98.5 126,-68.5 14,-68.5"/>
<text text-anchor="start" x="22" y="-86.5" font-family="Helvetica,sans-Serif" font-size="10.00">lyra::detail::choices</text>
<text text-anchor="middle" x="70" y="-75.5" font-family="Helvetica,sans-Serif" font-size="10.00">_set&lt; std::string &gt;</text>
</a>
</g>
</g>
<!-- Node1&#45;&gt;Node3 -->
<g id="edge3" class="edge">
<title>Node1&#45;&gt;Node3</title>
<path fill="none" stroke="orange" stroke-dasharray="5,2" d="M70,-136.09C70,-123.76 70,-109.22 70,-98.73"/>
<polygon fill="orange" stroke="orange" points="66.5,-136.2 70,-146.2 73.5,-136.21 66.5,-136.2"/>
<text text-anchor="middle" x="107.5" y="-120" font-family="Helvetica,sans-Serif" font-size="10.00"> &lt; std::string &gt;</text>
</g>
<!-- Node2 -->
<g id="node2" class="node">
<title>Node2</title>
<g id="a_node2"><a xlink:href="structlyra_1_1detail_1_1choices__base.html" target="_top" xlink:title=" ">
<polygon fill="white" stroke="black" points="0,-214.5 0,-233.5 140,-233.5 140,-214.5 0,-214.5"/>
<text text-anchor="middle" x="70" y="-221.5" font-family="Helvetica,sans-Serif" font-size="10.00">lyra::detail::choices_base</text>
</a>
</g>
</g>
<!-- Node2&#45;&gt;Node1 -->
<g id="edge1" class="edge">
<title>Node2&#45;&gt;Node1</title>
<path fill="none" stroke="midnightblue" d="M63.7,-204.22C62.97,-195.36 63.13,-184.96 64.17,-176.76"/>
<polygon fill="midnightblue" stroke="midnightblue" points="60.26,-204.91 65.1,-214.33 67.2,-203.95 60.26,-204.91"/>
</g>
<!-- Node2&#45;&gt;Node1 -->
<g id="edge2" class="edge">
<title>Node2&#45;&gt;Node1</title>
<path fill="none" stroke="midnightblue" d="M76.3,-204.22C77.03,-195.36 76.87,-184.96 75.83,-176.76"/>
<polygon fill="midnightblue" stroke="midnightblue" points="72.8,-203.95 74.9,-214.33 79.74,-204.91 72.8,-203.95"/>
</g>
<!-- Node4 -->
<g id="node4" class="node">
<title>Node4</title>
<g id="a_node4"><a xlink:href="structlyra_1_1detail_1_1choices__set_3_01const_01char_01_5_01_4.html" target="_top" xlink:title=" ">
<polygon fill="white" stroke="black" points="11,-0.5 11,-30.5 129,-30.5 129,-0.5 11,-0.5"/>
<text text-anchor="start" x="19" y="-18.5" font-family="Helvetica,sans-Serif" font-size="10.00">lyra::detail::choices</text>
<text text-anchor="middle" x="70" y="-7.5" font-family="Helvetica,sans-Serif" font-size="10.00">_set&lt; const char * &gt;</text>
</a>
</g>
</g>
<!-- Node3&#45;&gt;Node4 -->
<g id="edge4" class="edge">
<title>Node3&#45;&gt;Node4</title>
<path fill="none" stroke="midnightblue" d="M63.45,-58.03C63.01,-48.86 63.3,-38.74 64.33,-30.79"/>
<polygon fill="midnightblue" stroke="midnightblue" points="59.98,-58.51 64.32,-68.18 66.96,-57.92 59.98,-58.51"/>
</g>
<!-- Node3&#45;&gt;Node4 -->
<g id="edge5" class="edge">
<title>Node3&#45;&gt;Node4</title>
<path fill="none" stroke="midnightblue" d="M76.55,-58.03C76.99,-48.86 76.7,-38.74 75.67,-30.79"/>
<polygon fill="midnightblue" stroke="midnightblue" points="73.04,-57.92 75.68,-68.18 80.02,-58.51 73.04,-57.92"/>
</g>
</g>
</svg>
