<?xml version="1.0" encoding="UTF-8" standalone="no"?>
<!DOCTYPE svg PUBLIC "-//W3C//DTD SVG 1.1//EN"
 "http://www.w3.org/Graphics/SVG/1.1/DTD/svg11.dtd">
<!-- Generated by graphviz version 2.43.0 (0)
 -->
<!-- Title: lyra::detail::BoundFlagRef::setFlag Pages: 1 -->
<svg width="438pt" height="78pt"
 viewBox="0.00 0.00 438.00 77.50" xmlns="http://www.w3.org/2000/svg" xmlns:xlink="http://www.w3.org/1999/xlink">
<g id="graph0" class="graph" transform="scale(1 1) rotate(0) translate(4 73.5)">
<title>lyra::detail::BoundFlagRef::setFlag</title>
<polygon fill="white" stroke="transparent" points="-4,4 -4,-73.5 434,-73.5 434,4 -4,4"/>
<!-- Node1 -->
<g id="node1" class="node">
<title>Node1</title>
<g id="a_node1"><a xlink:title=" ">
<polygon fill="#bfbfbf" stroke="black" points="0,-17 0,-47 143,-47 143,-17 0,-17"/>
<text text-anchor="start" x="8" y="-35" font-family="Helvetica,sans-Serif" font-size="10.00">lyra::detail::BoundFlagRef</text>
<text text-anchor="middle" x="71.5" y="-24" font-family="Helvetica,sans-Serif" font-size="10.00">::setFlag</text>
</a>
</g>
</g>
<!-- Node2 -->
<g id="node2" class="node">
<title>Node2</title>
<g id="a_node2"><a xlink:href="classlyra_1_1detail_1_1basic__result.html#aee577409a431e215136ffc0764e5432b" target="_top" xlink:title=" ">
<polygon fill="white" stroke="black" points="179,-17 179,-47 280,-47 280,-17 179,-17"/>
<text text-anchor="start" x="187" y="-35" font-family="Helvetica,sans-Serif" font-size="10.00">lyra::detail::basic</text>
<text text-anchor="middle" x="229.5" y="-24" font-family="Helvetica,sans-Serif" font-size="10.00">_result::ok</text>
</a>
</g>
</g>
<!-- Node1&#45;&gt;Node2 -->
<g id="edge1" class="edge">
<title>Node1&#45;&gt;Node2</title>
<path fill="none" stroke="midnightblue" d="M143.2,-32C151.59,-32 160.09,-32 168.31,-32"/>
<polygon fill="midnightblue" stroke="midnightblue" points="168.55,-35.5 178.55,-32 168.55,-28.5 168.55,-35.5"/>
</g>
<!-- Node3 -->
<g id="node3" class="node">
<title>Node3</title>
<g id="a_node3"><a xlink:href="classlyra_1_1detail_1_1basic__result.html#a2a6448a9babcc3d583edff8f13e076b9" target="_top" xlink:title=" ">
<polygon fill="white" stroke="black" points="316,-39 316,-69 430,-69 430,-39 316,-39"/>
<text text-anchor="start" x="324" y="-57" font-family="Helvetica,sans-Serif" font-size="10.00">lyra::detail::basic</text>
<text text-anchor="middle" x="373" y="-46" font-family="Helvetica,sans-Serif" font-size="10.00">_result::basic_result</text>
</a>
</g>
</g>
<!-- Node2&#45;&gt;Node3 -->
<g id="edge2" class="edge">
<title>Node2&#45;&gt;Node3</title>
<path fill="none" stroke="midnightblue" d="M280.39,-39.76C288.62,-41.04 297.27,-42.38 305.83,-43.71"/>
<polygon fill="midnightblue" stroke="midnightblue" points="305.39,-47.19 315.81,-45.26 306.47,-40.27 305.39,-47.19"/>
</g>
<!-- Node4 -->
<g id="node4" class="node">
<title>Node4</title>
<g id="a_node4"><a xlink:href="namespacelyra.html#a2138b812a6ac30b6abcab35c05664a64" target="_top" xlink:title=" ">
<polygon fill="white" stroke="black" points="345,-0.5 345,-19.5 401,-19.5 401,-0.5 345,-0.5"/>
<text text-anchor="middle" x="373" y="-7.5" font-family="Helvetica,sans-Serif" font-size="10.00">lyra::val</text>
</a>
</g>
</g>
<!-- Node2&#45;&gt;Node4 -->
<g id="edge3" class="edge">
<title>Node2&#45;&gt;Node4</title>
<path fill="none" stroke="midnightblue" d="M280.39,-24.24C298.31,-21.46 318.19,-18.37 334.85,-15.78"/>
<polygon fill="midnightblue" stroke="midnightblue" points="335.41,-19.23 344.75,-14.24 334.33,-12.31 335.41,-19.23"/>
</g>
</g>
</svg>
