<?xml version="1.0" encoding="UTF-8" standalone="no"?>
<!DOCTYPE svg PUBLIC "-//W3C//DTD SVG 1.1//EN"
 "http://www.w3.org/Graphics/SVG/1.1/DTD/svg11.dtd">
<!-- Generated by graphviz version 2.43.0 (0)
 -->
<!-- Title: lyra::detail::BoundFlagRefBase Pages: 1 -->
<svg width="175pt" height="140pt"
 viewBox="0.00 0.00 175.00 140.00" xmlns="http://www.w3.org/2000/svg" xmlns:xlink="http://www.w3.org/1999/xlink">
<g id="graph0" class="graph" transform="scale(1 1) rotate(0) translate(4 136)">
<title>lyra::detail::BoundFlagRefBase</title>
<polygon fill="white" stroke="transparent" points="-4,4 -4,-136 171,-136 171,4 -4,4"/>
<!-- Node1 -->
<g id="node1" class="node">
<title>Node1</title>
<g id="a_node1"><a xlink:title=" ">
<polygon fill="#bfbfbf" stroke="black" points="0,-0.5 0,-19.5 167,-19.5 167,-0.5 0,-0.5"/>
<text text-anchor="middle" x="83.5" y="-7.5" font-family="Helvetica,sans-Serif" font-size="10.00">lyra::detail::BoundFlagRefBase</text>
</a>
</g>
</g>
<!-- Node2 -->
<g id="node2" class="node">
<title>Node2</title>
<g id="a_node2"><a xlink:href="structlyra_1_1detail_1_1_bound_ref.html" target="_top" xlink:title=" ">
<polygon fill="white" stroke="black" points="22.5,-56.5 22.5,-75.5 144.5,-75.5 144.5,-56.5 22.5,-56.5"/>
<text text-anchor="middle" x="83.5" y="-63.5" font-family="Helvetica,sans-Serif" font-size="10.00">lyra::detail::BoundRef</text>
</a>
</g>
</g>
<!-- Node2&#45;&gt;Node1 -->
<g id="edge1" class="edge">
<title>Node2&#45;&gt;Node1</title>
<path fill="none" stroke="midnightblue" d="M77.03,-46.1C76.4,-37.14 76.84,-26.86 78.37,-19.75"/>
<polygon fill="midnightblue" stroke="midnightblue" points="73.57,-46.62 78.33,-56.08 80.51,-45.71 73.57,-46.62"/>
</g>
<!-- Node2&#45;&gt;Node1 -->
<g id="edge4" class="edge">
<title>Node2&#45;&gt;Node1</title>
<path fill="none" stroke="midnightblue" d="M89.97,-46.1C90.6,-37.14 90.16,-26.86 88.63,-19.75"/>
<polygon fill="midnightblue" stroke="midnightblue" points="86.49,-45.71 88.67,-56.08 93.43,-46.62 86.49,-45.71"/>
</g>
<!-- Node3 -->
<g id="node3" class="node">
<title>Node3</title>
<g id="a_node3"><a xlink:href="structlyra_1_1detail_1_1_non_copyable.html" target="_top" xlink:title=" ">
<polygon fill="white" stroke="black" points="13.5,-112.5 13.5,-131.5 153.5,-131.5 153.5,-112.5 13.5,-112.5"/>
<text text-anchor="middle" x="83.5" y="-119.5" font-family="Helvetica,sans-Serif" font-size="10.00">lyra::detail::NonCopyable</text>
</a>
</g>
</g>
<!-- Node3&#45;&gt;Node2 -->
<g id="edge2" class="edge">
<title>Node3&#45;&gt;Node2</title>
<path fill="none" stroke="midnightblue" d="M77.03,-102.1C76.4,-93.14 76.84,-82.86 78.37,-75.75"/>
<polygon fill="midnightblue" stroke="midnightblue" points="73.57,-102.62 78.33,-112.08 80.51,-101.71 73.57,-102.62"/>
</g>
<!-- Node3&#45;&gt;Node2 -->
<g id="edge3" class="edge">
<title>Node3&#45;&gt;Node2</title>
<path fill="none" stroke="midnightblue" d="M89.97,-102.1C90.6,-93.14 90.16,-82.86 88.63,-75.75"/>
<polygon fill="midnightblue" stroke="midnightblue" points="86.49,-101.71 88.67,-112.08 93.43,-102.62 86.49,-101.71"/>
</g>
</g>
</svg>
