<?xml version="1.0" encoding="UTF-8" standalone="no"?>
<!DOCTYPE svg PUBLIC "-//W3C//DTD SVG 1.1//EN"
 "http://www.w3.org/Graphics/SVG/1.1/DTD/svg11.dtd">
<!-- Generated by graphviz version 2.43.0 (0)
 -->
<!-- Title: MainNamespace::Mesh::vertex Pages: 1 -->
<!--zoomable 137 -->
<svg id="main" version="1.1" xmlns="http://www.w3.org/2000/svg" xmlns:xlink="http://www.w3.org/1999/xlink" xml:space="preserve" onload="init(evt)">
<style type="text/css"><![CDATA[
.edge:hover path { stroke: red; }
.edge:hover polygon { stroke: red; fill: red; }
]]></style>
<script type="text/javascript"><![CDATA[
var edges = document.getElementsByTagName('g');
if (edges && edges.length) {
  for (var i=0;i<edges.length;i++) {
    if (edges[i].id.substr(0,4)=='edge') {
      edges[i].setAttribute('class','edge');
    }
  }
}
]]></script>
        <defs>
                <circle id="rim" cx="0" cy="0" r="7"/>
                <circle id="rim2" cx="0" cy="0" r="3.5"/>
                <g id="zoomPlus">
                        <use xlink:href="#rim" fill="#404040">
                                <set attributeName="fill" to="#808080" begin="zoomplus.mouseover" end="zoomplus.mouseout"/>
                        </use>
                        <path d="M-4,0h8M0,-4v8" fill="none" stroke="white" stroke-width="1.5" pointer-events="none"/>
                </g>
                <g id="zoomMin">
                        <use xlink:href="#rim" fill="#404040">
                                <set attributeName="fill" to="#808080" begin="zoomminus.mouseover" end="zoomminus.mouseout"/>
                        </use>
                        <path d="M-4,0h8" fill="none" stroke="white" stroke-width="1.5" pointer-events="none"/>
                </g>
                <g id="dirArrow">
                        <path fill="none" stroke="white" stroke-width="1.5" d="M0,-3.0v7 M-2.5,-0.5L0,-3.0L2.5,-0.5"/>
                </g>
               <g id="resetDef">
                       <use xlink:href="#rim2" fill="#404040">
                               <set attributeName="fill" to="#808080" begin="reset.mouseover" end="reset.mouseout"/>
                       </use>
               </g>
        </defs>

<script type="text/javascript">
var viewWidth = 880;
var viewHeight = 137;
var sectionId = 'dynsection-4';
</script>
<script xlink:href="svgpan.js"/>
<svg id="graph" class="graph">
<g id="viewport">
<title>MainNamespace::Mesh::vertex</title>
<polygon fill="white" stroke="transparent" points="-4,4 -4,-133 876,-133 876,4 -4,4"/>
<!-- Node1 -->
<g id="node1" class="node">
<title>Node1</title>
<g id="a_node1"><a xlink:title="Get a vertex.">
<polygon fill="#bfbfbf" stroke="black" points="741,-49.5 741,-79.5 872,-79.5 872,-49.5 741,-49.5"/>
<text text-anchor="start" x="749" y="-67.5" font-family="Helvetica,sans-Serif" font-size="10.00">MainNamespace::Mesh</text>
<text text-anchor="middle" x="806.5" y="-56.5" font-family="Helvetica,sans-Serif" font-size="10.00">::vertex</text>
</a>
</g>
</g>
<!-- Node2 -->
<g id="node2" class="node">
<title>Node2</title>
<g id="a_node2"><a xlink:href="class_main_namespace_1_1_functions_1_1_mesh_offset.html#a168086ca4f603029af2faf0e30282149" target="_top" xlink:title="Interpolate the Dirichlet trace with continuous, picewise linear functions. The trace is scaled by s^...">
<polygon fill="white" stroke="black" points="554,-98.5 554,-128.5 705,-128.5 705,-98.5 554,-98.5"/>
<text text-anchor="start" x="562" y="-116.5" font-family="Helvetica,sans-Serif" font-size="10.00">MainNamespace::Functions</text>
<text text-anchor="middle" x="629.5" y="-105.5" font-family="Helvetica,sans-Serif" font-size="10.00">::MeshOffset::c0Dirichlet</text>
</a>
</g>
</g>
<!-- Node1&#45;&gt;Node2 -->
<g id="edge1" class="edge">
<title>Node1&#45;&gt;Node2</title>
<path fill="none" stroke="midnightblue" d="M741.85,-82.32C722.96,-87.61 702.46,-93.35 684.26,-98.45"/>
<polygon fill="midnightblue" stroke="midnightblue" points="742.88,-85.67 751.57,-79.6 740.99,-78.93 742.88,-85.67"/>
</g>
<!-- Node7 -->
<g id="node7" class="node">
<title>Node7</title>
<g id="a_node7"><a xlink:href="class_main_namespace_1_1_functions_1_1_mesh_offset.html#a4a768deff1384d61cba181363f4069a9" target="_top" xlink:title="Compute the L² projection of the Nemuann trace into piecewise constant functions. The trace is scaled...">
<polygon fill="white" stroke="black" points="554,-49.5 554,-79.5 705,-79.5 705,-49.5 554,-49.5"/>
<text text-anchor="start" x="562" y="-67.5" font-family="Helvetica,sans-Serif" font-size="10.00">MainNamespace::Functions</text>
<text text-anchor="middle" x="629.5" y="-56.5" font-family="Helvetica,sans-Serif" font-size="10.00">::MeshOffset::l2Neumann</text>
</a>
</g>
</g>
<!-- Node1&#45;&gt;Node7 -->
<g id="edge6" class="edge">
<title>Node1&#45;&gt;Node7</title>
<path fill="none" stroke="midnightblue" d="M730.66,-64.5C722.24,-64.5 713.66,-64.5 705.24,-64.5"/>
<polygon fill="midnightblue" stroke="midnightblue" points="730.83,-68 740.83,-64.5 730.83,-61 730.83,-68"/>
</g>
<!-- Node8 -->
<g id="node8" class="node">
<title>Node8</title>
<g id="a_node8"><a xlink:href="struct_main_namespace_1_1_mesh.html#a8f4a591243a4cc09ea849eaf72fcf7fc" target="_top" xlink:title="Write a mesh in a custom format, at a custom location. Format: one line with number of vertices,...">
<polygon fill="white" stroke="black" points="564,-0.5 564,-30.5 695,-30.5 695,-0.5 564,-0.5"/>
<text text-anchor="start" x="572" y="-18.5" font-family="Helvetica,sans-Serif" font-size="10.00">MainNamespace::Mesh</text>
<text text-anchor="middle" x="629.5" y="-7.5" font-family="Helvetica,sans-Serif" font-size="10.00">::writeMesh</text>
</a>
</g>
</g>
<!-- Node1&#45;&gt;Node8 -->
<g id="edge8" class="edge">
<title>Node1&#45;&gt;Node8</title>
<path fill="none" stroke="midnightblue" d="M741.85,-46.68C722.96,-41.39 702.46,-35.65 684.26,-30.55"/>
<polygon fill="midnightblue" stroke="midnightblue" points="740.99,-50.07 751.57,-49.4 742.88,-43.33 740.99,-50.07"/>
</g>
<!-- Node3 -->
<g id="node3" class="node">
<title>Node3</title>
<g id="a_node3"><a xlink:href="class_main_namespace_1_1_surface_1_1_single_surface.html#a48d60279cef854fc417ed395bc25ca15" target="_top" xlink:title="Project the offset on the current mesh.">
<polygon fill="white" stroke="black" points="366,-73.5 366,-103.5 518,-103.5 518,-73.5 366,-73.5"/>
<text text-anchor="start" x="374" y="-91.5" font-family="Helvetica,sans-Serif" font-size="10.00">MainNamespace::Surface</text>
<text text-anchor="middle" x="442" y="-80.5" font-family="Helvetica,sans-Serif" font-size="10.00">::SingleSurface::makeOffset</text>
</a>
</g>
</g>
<!-- Node2&#45;&gt;Node3 -->
<g id="edge2" class="edge">
<title>Node2&#45;&gt;Node3</title>
<path fill="none" stroke="midnightblue" d="M543.84,-102.09C535.25,-100.93 526.57,-99.76 518.1,-98.62"/>
<polygon fill="midnightblue" stroke="midnightblue" points="543.47,-105.57 553.85,-103.44 544.41,-98.64 543.47,-105.57"/>
</g>
<!-- Node4 -->
<g id="node4" class="node">
<title>Node4</title>
<g id="a_node4"><a xlink:href="class_main_namespace_1_1_surface_1_1_multi_surface.html#a8839f7e49575079e39fbb95a692772a5" target="_top" xlink:title="Compute the right&#45;hand side, the operators, then solve the linear system.">
<polygon fill="white" stroke="black" points="189,-73.5 189,-103.5 330,-103.5 330,-73.5 189,-73.5"/>
<text text-anchor="start" x="197" y="-91.5" font-family="Helvetica,sans-Serif" font-size="10.00">MainNamespace::Surface</text>
<text text-anchor="middle" x="259.5" y="-80.5" font-family="Helvetica,sans-Serif" font-size="10.00">::MultiSurface::solve</text>
</a>
</g>
</g>
<!-- Node3&#45;&gt;Node4 -->
<g id="edge3" class="edge">
<title>Node3&#45;&gt;Node4</title>
<path fill="none" stroke="midnightblue" d="M355.74,-88.5C347.16,-88.5 338.52,-88.5 330.14,-88.5"/>
<polygon fill="midnightblue" stroke="midnightblue" points="355.76,-92 365.76,-88.5 355.76,-85 355.76,-92"/>
</g>
<!-- Node5 -->
<g id="node5" class="node">
<title>Node5</title>
<g id="a_node5"><a xlink:href="main_8cpp.html#a5d68713f22d1b3e2495b15d107ea7d21" target="_top" xlink:title=" ">
<polygon fill="white" stroke="black" points="77,-79 77,-98 153,-98 153,-79 77,-79"/>
<text text-anchor="middle" x="115" y="-86" font-family="Helvetica,sans-Serif" font-size="10.00">testProblem</text>
</a>
</g>
</g>
<!-- Node4&#45;&gt;Node5 -->
<g id="edge4" class="edge">
<title>Node4&#45;&gt;Node5</title>
<path fill="none" stroke="midnightblue" d="M178.85,-88.5C169.97,-88.5 161.27,-88.5 153.31,-88.5"/>
<polygon fill="midnightblue" stroke="midnightblue" points="178.92,-92 188.92,-88.5 178.92,-85 178.92,-92"/>
</g>
<!-- Node6 -->
<g id="node6" class="node">
<title>Node6</title>
<g id="a_node6"><a xlink:href="main_8cpp.html#a3c04138a5bfe5d72780bb7e82a18e627" target="_top" xlink:title=" ">
<polygon fill="white" stroke="black" points="0,-79 0,-98 41,-98 41,-79 0,-79"/>
<text text-anchor="middle" x="20.5" y="-86" font-family="Helvetica,sans-Serif" font-size="10.00">main</text>
</a>
</g>
</g>
<!-- Node5&#45;&gt;Node6 -->
<g id="edge5" class="edge">
<title>Node5&#45;&gt;Node6</title>
<path fill="none" stroke="midnightblue" d="M66.72,-88.5C57.65,-88.5 48.64,-88.5 41.07,-88.5"/>
<polygon fill="midnightblue" stroke="midnightblue" points="66.91,-92 76.91,-88.5 66.91,-85 66.91,-92"/>
</g>
<!-- Node7&#45;&gt;Node3 -->
<g id="edge7" class="edge">
<title>Node7&#45;&gt;Node3</title>
<path fill="none" stroke="midnightblue" d="M543.84,-75.45C535.25,-76.56 526.57,-77.69 518.1,-78.78"/>
<polygon fill="midnightblue" stroke="midnightblue" points="544.38,-78.91 553.85,-74.16 543.49,-71.97 544.38,-78.91"/>
</g>
</g>
</svg>
        <g id="navigator" transform="translate(0 0)" fill="#404254">
                <rect fill="#f2f5e9" fill-opacity="0.5" stroke="#606060" stroke-width=".5" x="0" y="0" width="60" height="60"/>
                <use id="zoomplus" xlink:href="#zoomPlus" x="17" y="9" onmousedown="handleZoom(evt,'in')"/>
                <use id="zoomminus" xlink:href="#zoomMin" x="42" y="9" onmousedown="handleZoom(evt,'out')"/>
                <use id="reset" xlink:href="#resetDef" x="30" y="36" onmousedown="handleReset()"/>
                <g id="arrowUp" xlink:href="#dirArrow" transform="translate(30 24)" onmousedown="handlePan(0,-1)">
                  <use xlink:href="#rim" fill="#404040">
                        <set attributeName="fill" to="#808080" begin="arrowUp.mouseover" end="arrowUp.mouseout"/>
                  </use>
                  <path fill="none" stroke="white" stroke-width="1.5" d="M0,-3.0v7 M-2.5,-0.5L0,-3.0L2.5,-0.5"/>
                </g>
                <g id="arrowRight" xlink:href="#dirArrow" transform="rotate(90) translate(36 -43)" onmousedown="handlePan(1,0)">
                  <use xlink:href="#rim" fill="#404040">
                        <set attributeName="fill" to="#808080" begin="arrowRight.mouseover" end="arrowRight.mouseout"/>
                  </use>
                  <path fill="none" stroke="white" stroke-width="1.5" d="M0,-3.0v7 M-2.5,-0.5L0,-3.0L2.5,-0.5"/>
                </g>
                <g id="arrowDown" xlink:href="#dirArrow" transform="rotate(180) translate(-30 -48)" onmousedown="handlePan(0,1)">
                  <use xlink:href="#rim" fill="#404040">
                        <set attributeName="fill" to="#808080" begin="arrowDown.mouseover" end="arrowDown.mouseout"/>
                  </use>
                  <path fill="none" stroke="white" stroke-width="1.5" d="M0,-3.0v7 M-2.5,-0.5L0,-3.0L2.5,-0.5"/>
                </g>
                <g id="arrowLeft" xlink:href="#dirArrow" transform="rotate(270) translate(-36 17)" onmousedown="handlePan(-1,0)">
                  <use xlink:href="#rim" fill="#404040">
                        <set attributeName="fill" to="#808080" begin="arrowLeft.mouseover" end="arrowLeft.mouseout"/>
                  </use>
                  <path fill="none" stroke="white" stroke-width="1.5" d="M0,-3.0v7 M-2.5,-0.5L0,-3.0L2.5,-0.5"/>
                </g>
        </g>
        <svg viewBox="0 0 15 15" width="100%" height="30px" preserveAspectRatio="xMaxYMin meet">
         <g id="arrow_out" transform="scale(0.3 0.3)">
          <a xlink:href="struct_main_namespace_1_1_mesh_af0d92acd1c106ecbf5924ce4052667fb_icgraph_org.svg" target="_base">
           <rect id="button" ry="5" rx="5" y="6" x="6" height="38" width="38"
                fill="#f2f5e9" fill-opacity="0.5" stroke="#606060" stroke-width="1.0"/>
           <path id="arrow"
             d="M 11.500037,31.436501 C 11.940474,20.09759 22.043105,11.32322 32.158766,21.979434 L 37.068811,17.246167 C 37.068811,17.246167 37.088388,32 37.088388,32 L 22.160133,31.978069 C 22.160133,31.978069 26.997745,27.140456 26.997745,27.140456 C 18.528582,18.264221 13.291696,25.230495 11.500037,31.436501 z"
             style="fill:#404040;"/>
          </a>
         </g>
        </svg>
</svg>
