<?xml version="1.0" encoding="UTF-8" standalone="no"?>
<!DOCTYPE svg PUBLIC "-//W3C//DTD SVG 1.1//EN"
 "http://www.w3.org/Graphics/SVG/1.1/DTD/svg11.dtd">
<!-- Generated by graphviz version 2.43.0 (0)
 -->
<!-- Title: lyra::detail::choices_set&lt; const char * &gt; Pages: 1 -->
<svg width="966pt" height="175pt"
 viewBox="0.00 0.00 966.00 174.50" xmlns="http://www.w3.org/2000/svg" xmlns:xlink="http://www.w3.org/1999/xlink">
<g id="graph0" class="graph" transform="scale(1 1) rotate(0) translate(4 170.5)">
<title>lyra::detail::choices_set&lt; const char * &gt;</title>
<polygon fill="white" stroke="transparent" points="-4,4 -4,-170.5 962,-170.5 962,4 -4,4"/>
<!-- Node1 -->
<g id="node1" class="node">
<title>Node1</title>
<g id="a_node1"><a xlink:title=" ">
<polygon fill="#bfbfbf" stroke="black" points="840,-136 840,-166 958,-166 958,-136 840,-136"/>
<text text-anchor="start" x="848" y="-154" font-family="Helvetica,sans-Serif" font-size="10.00">lyra::detail::choices</text>
<text text-anchor="middle" x="899" y="-143" font-family="Helvetica,sans-Serif" font-size="10.00">_set&lt; const char * &gt;</text>
</a>
</g>
</g>
<!-- Node2 -->
<g id="node2" class="node">
<title>Node2</title>
<g id="a_node2"><a xlink:href="structlyra_1_1detail_1_1choices__set.html" target="_top" xlink:title=" ">
<polygon fill="white" stroke="black" points="691,-136 691,-166 803,-166 803,-136 691,-136"/>
<text text-anchor="start" x="699" y="-154" font-family="Helvetica,sans-Serif" font-size="10.00">lyra::detail::choices</text>
<text text-anchor="middle" x="747" y="-143" font-family="Helvetica,sans-Serif" font-size="10.00">_set&lt; std::string &gt;</text>
</a>
</g>
</g>
<!-- Node2&#45;&gt;Node1 -->
<g id="edge1" class="edge">
<title>Node2&#45;&gt;Node1</title>
<path fill="none" stroke="midnightblue" d="M813.02,-144.3C821.99,-144.21 831.15,-144.24 839.98,-144.41"/>
<polygon fill="midnightblue" stroke="midnightblue" points="812.94,-140.8 803,-144.47 813.06,-147.8 812.94,-140.8"/>
</g>
<!-- Node2&#45;&gt;Node1 -->
<g id="edge13" class="edge">
<title>Node2&#45;&gt;Node1</title>
<path fill="none" stroke="midnightblue" d="M813.02,-157.7C821.99,-157.79 831.15,-157.76 839.98,-157.59"/>
<polygon fill="midnightblue" stroke="midnightblue" points="813.06,-154.2 803,-157.53 812.94,-161.2 813.06,-154.2"/>
</g>
<!-- Node3 -->
<g id="node3" class="node">
<title>Node3</title>
<g id="a_node3"><a xlink:href="structlyra_1_1detail_1_1choices__base.html" target="_top" xlink:title=" ">
<polygon fill="white" stroke="black" points="189,-139.5 189,-158.5 329,-158.5 329,-139.5 189,-139.5"/>
<text text-anchor="middle" x="259" y="-146.5" font-family="Helvetica,sans-Serif" font-size="10.00">lyra::detail::choices_base</text>
</a>
</g>
</g>
<!-- Node3&#45;&gt;Node2 -->
<g id="edge2" class="edge">
<title>Node3&#45;&gt;Node2</title>
<path fill="none" stroke="midnightblue" d="M339.35,-144.18C438.22,-142.25 604.6,-143.15 690.68,-146.29"/>
<polygon fill="midnightblue" stroke="midnightblue" points="339.04,-140.69 329.12,-144.4 339.19,-147.69 339.04,-140.69"/>
</g>
<!-- Node3&#45;&gt;Node2 -->
<g id="edge3" class="edge">
<title>Node3&#45;&gt;Node2</title>
<path fill="none" stroke="midnightblue" d="M339.35,-154.47C438.22,-157.22 604.6,-157.68 690.68,-155.25"/>
<polygon fill="midnightblue" stroke="midnightblue" points="339.21,-150.97 329.12,-154.17 339.01,-157.96 339.21,-150.97"/>
</g>
<!-- Node9 -->
<g id="node9" class="node">
<title>Node9</title>
<g id="a_node9"><a xlink:href="structlyra_1_1detail_1_1choices__set.html" target="_top" xlink:title=" ">
<polygon fill="white" stroke="black" points="454,-101 454,-131 566,-131 566,-101 454,-101"/>
<text text-anchor="start" x="462" y="-119" font-family="Helvetica,sans-Serif" font-size="10.00">lyra::detail::choices</text>
<text text-anchor="middle" x="510" y="-108" font-family="Helvetica,sans-Serif" font-size="10.00">_set&lt; T &gt;</text>
</a>
</g>
</g>
<!-- Node3&#45;&gt;Node9 -->
<g id="edge10" class="edge">
<title>Node3&#45;&gt;Node9</title>
<path fill="none" stroke="midnightblue" d="M305.04,-137.69C346.83,-130.41 409.13,-122.03 453.87,-117.59"/>
<polygon fill="midnightblue" stroke="midnightblue" points="304.37,-134.26 295.15,-139.47 305.61,-141.15 304.37,-134.26"/>
</g>
<!-- Node3&#45;&gt;Node9 -->
<g id="edge11" class="edge">
<title>Node3&#45;&gt;Node9</title>
<path fill="none" stroke="midnightblue" d="M339.35,-144.82C376.58,-140.6 420.04,-134.63 453.65,-129.06"/>
<polygon fill="midnightblue" stroke="midnightblue" points="338.58,-141.39 329.03,-145.97 339.35,-148.34 338.58,-141.39"/>
</g>
<!-- Node4 -->
<g id="node4" class="node">
<title>Node4</title>
<g id="a_node4"><a xlink:title=" ">
<polygon fill="white" stroke="black" points="440,-43.5 440,-62.5 580,-62.5 580,-43.5 440,-43.5"/>
<text text-anchor="middle" x="510" y="-50.5" font-family="Helvetica,sans-Serif" font-size="10.00">std::vector&lt; std::string &gt;</text>
</a>
</g>
</g>
<!-- Node4&#45;&gt;Node2 -->
<g id="edge4" class="edge">
<title>Node4&#45;&gt;Node2</title>
<path fill="none" stroke="#9a32cd" stroke-dasharray="5,2" d="M553.12,-65.61C586.29,-76.06 633.37,-92.06 673,-110 689.69,-117.55 707.63,-127.6 721.55,-135.86"/>
<polygon fill="#9a32cd" stroke="#9a32cd" points="553.89,-62.18 543.3,-62.55 551.81,-68.86 553.89,-62.18"/>
<text text-anchor="middle" x="635.5" y="-113" font-family="Helvetica,sans-Serif" font-size="10.00"> values</text>
</g>
<!-- Node5 -->
<g id="node5" class="node">
<title>Node5</title>
<g id="a_node5"><a xlink:title=" ">
<polygon fill="white" stroke="black" points="226.5,-43.5 226.5,-62.5 291.5,-62.5 291.5,-43.5 226.5,-43.5"/>
<text text-anchor="middle" x="259" y="-50.5" font-family="Helvetica,sans-Serif" font-size="10.00">std::string</text>
</a>
</g>
</g>
<!-- Node5&#45;&gt;Node4 -->
<g id="edge5" class="edge">
<title>Node5&#45;&gt;Node4</title>
<path fill="none" stroke="#9a32cd" stroke-dasharray="5,2" d="M301.64,-53C339.31,-53 395.5,-53 439.89,-53"/>
<polygon fill="#9a32cd" stroke="#9a32cd" points="301.54,-49.5 291.54,-53 301.54,-56.5 301.54,-49.5"/>
<text text-anchor="middle" x="384.5" y="-56" font-family="Helvetica,sans-Serif" font-size="10.00"> elements</text>
</g>
<!-- Node6 -->
<g id="node6" class="node">
<title>Node6</title>
<g id="a_node6"><a xlink:title=" ">
<polygon fill="white" stroke="black" points="0,-39 0,-69 104,-69 104,-39 0,-39"/>
<text text-anchor="start" x="8" y="-57" font-family="Helvetica,sans-Serif" font-size="10.00">std::basic_string&lt;</text>
<text text-anchor="middle" x="52" y="-46" font-family="Helvetica,sans-Serif" font-size="10.00"> Char &gt;</text>
</a>
</g>
</g>
<!-- Node6&#45;&gt;Node5 -->
<g id="edge6" class="edge">
<title>Node6&#45;&gt;Node5</title>
<path fill="none" stroke="midnightblue" d="M114.34,-53.7C151.17,-53.52 196.49,-53.3 226.26,-53.15"/>
<polygon fill="midnightblue" stroke="midnightblue" points="114.18,-50.2 104.2,-53.75 114.22,-57.2 114.18,-50.2"/>
</g>
<!-- Node7 -->
<g id="node7" class="node">
<title>Node7</title>
<g id="a_node7"><a xlink:title=" ">
<polygon fill="white" stroke="black" points="210.5,-2.5 210.5,-21.5 307.5,-21.5 307.5,-2.5 210.5,-2.5"/>
<text text-anchor="middle" x="259" y="-9.5" font-family="Helvetica,sans-Serif" font-size="10.00">std::vector&lt; T &gt;</text>
</a>
</g>
</g>
<!-- Node7&#45;&gt;Node4 -->
<g id="edge7" class="edge">
<title>Node7&#45;&gt;Node4</title>
<path fill="none" stroke="orange" stroke-dasharray="5,2" d="M317.69,-21.09C348.64,-26.01 387.41,-32.24 422,-38 432.43,-39.74 443.56,-41.63 454.25,-43.46"/>
<polygon fill="orange" stroke="orange" points="317.94,-17.59 307.52,-19.48 316.84,-24.5 317.94,-17.59"/>
<text text-anchor="middle" x="384.5" y="-41" font-family="Helvetica,sans-Serif" font-size="10.00"> &lt; std::string &gt;</text>
</g>
<!-- Node8 -->
<g id="node8" class="node">
<title>Node8</title>
<g id="a_node8"><a xlink:title=" ">
<polygon fill="white" stroke="black" points="37.5,-0.5 37.5,-19.5 66.5,-19.5 66.5,-0.5 37.5,-0.5"/>
<text text-anchor="middle" x="52" y="-7.5" font-family="Helvetica,sans-Serif" font-size="10.00">T</text>
</a>
</g>
</g>
<!-- Node8&#45;&gt;Node7 -->
<g id="edge8" class="edge">
<title>Node8&#45;&gt;Node7</title>
<path fill="none" stroke="#9a32cd" stroke-dasharray="5,2" d="M77.15,-10.24C109.82,-10.55 168.78,-11.13 210.48,-11.54"/>
<polygon fill="#9a32cd" stroke="#9a32cd" points="76.8,-6.73 66.77,-10.13 76.73,-13.73 76.8,-6.73"/>
<text text-anchor="middle" x="146.5" y="-15" font-family="Helvetica,sans-Serif" font-size="10.00"> elements</text>
</g>
<!-- Node9&#45;&gt;Node2 -->
<g id="edge9" class="edge">
<title>Node9&#45;&gt;Node2</title>
<path fill="none" stroke="orange" stroke-dasharray="5,2" d="M576.51,-122.19C606.08,-125.37 641.4,-129.7 673,-135 678.76,-135.97 684.75,-137.09 690.71,-138.28"/>
<polygon fill="orange" stroke="orange" points="576.61,-118.68 566.3,-121.12 575.88,-125.65 576.61,-118.68"/>
<text text-anchor="middle" x="635.5" y="-138" font-family="Helvetica,sans-Serif" font-size="10.00"> &lt; std::string &gt;</text>
</g>
<!-- Node10 -->
<g id="node10" class="node">
<title>Node10</title>
<g id="a_node10"><a xlink:title=" ">
<polygon fill="white" stroke="black" points="221,-81.5 221,-100.5 297,-100.5 297,-81.5 221,-81.5"/>
<text text-anchor="middle" x="259" y="-88.5" font-family="Helvetica,sans-Serif" font-size="10.00">vector&lt; T &gt;</text>
</a>
</g>
</g>
<!-- Node10&#45;&gt;Node9 -->
<g id="edge12" class="edge">
<title>Node10&#45;&gt;Node9</title>
<path fill="none" stroke="#9a32cd" stroke-dasharray="5,2" d="M307.3,-88.04C339.73,-86.8 383.66,-86.69 422,-92 435.5,-93.87 449.88,-97.24 462.97,-100.88"/>
<polygon fill="#9a32cd" stroke="#9a32cd" points="307.03,-84.54 297.19,-88.47 307.34,-91.54 307.03,-84.54"/>
<text text-anchor="middle" x="384.5" y="-95" font-family="Helvetica,sans-Serif" font-size="10.00"> values</text>
</g>
</g>
</svg>
