<?xml version="1.0" encoding="UTF-8" standalone="no"?>
<!DOCTYPE svg PUBLIC "-//W3C//DTD SVG 1.1//EN"
 "http://www.w3.org/Graphics/SVG/1.1/DTD/svg11.dtd">
<!-- Generated by graphviz version 2.43.0 (0)
 -->
<!-- Title: MainNamespace::Options::reference Pages: 1 -->
<svg width="1526pt" height="122pt"
 viewBox="0.00 0.00 1526.00 121.50" xmlns="http://www.w3.org/2000/svg" xmlns:xlink="http://www.w3.org/1999/xlink">
<g id="graph0" class="graph" transform="scale(1 1) rotate(0) translate(4 117.5)">
<title>MainNamespace::Options::reference</title>
<polygon fill="white" stroke="transparent" points="-4,4 -4,-117.5 1522,-117.5 1522,4 -4,4"/>
<!-- Node1 -->
<g id="node1" class="node">
<title>Node1</title>
<g id="a_node1"><a xlink:title=" ">
<polygon fill="#bfbfbf" stroke="black" points="1376,-22.5 1376,-52.5 1518,-52.5 1518,-22.5 1376,-22.5"/>
<text text-anchor="start" x="1384" y="-40.5" font-family="Helvetica,sans-Serif" font-size="10.00">MainNamespace::Options</text>
<text text-anchor="middle" x="1447" y="-29.5" font-family="Helvetica,sans-Serif" font-size="10.00">::reference</text>
</a>
</g>
</g>
<!-- Node2 -->
<g id="node2" class="node">
<title>Node2</title>
<g id="a_node2"><a xlink:href="namespace_main_namespace.html#a78e94b3a3cdc51d20e1c665b3c4dd432" target="_top" xlink:title=" ">
<polygon fill="white" stroke="black" points="1189,-50 1189,-69 1340,-69 1340,-50 1189,-50"/>
<text text-anchor="middle" x="1264.5" y="-57" font-family="Helvetica,sans-Serif" font-size="10.00">MainNamespace::reference</text>
</a>
</g>
</g>
<!-- Node1&#45;&gt;Node2 -->
<g id="edge1" class="edge">
<title>Node1&#45;&gt;Node2</title>
<path fill="none" stroke="midnightblue" d="M1365.99,-47.25C1357.45,-48.29 1348.77,-49.35 1340.29,-50.38"/>
<polygon fill="midnightblue" stroke="midnightblue" points="1366.45,-50.72 1375.96,-46.04 1365.61,-43.77 1366.45,-50.72"/>
</g>
<!-- Node12 -->
<g id="node12" class="node">
<title>Node12</title>
<g id="a_node12"><a xlink:href="struct_main_namespace_1_1_options.html#a3abb54be7b5fd81a40beae65fa9e78c6" target="_top" xlink:title=" ">
<polygon fill="white" stroke="black" points="1193.5,-0.5 1193.5,-30.5 1335.5,-30.5 1335.5,-0.5 1193.5,-0.5"/>
<text text-anchor="start" x="1201.5" y="-18.5" font-family="Helvetica,sans-Serif" font-size="10.00">MainNamespace::Options</text>
<text text-anchor="middle" x="1264.5" y="-7.5" font-family="Helvetica,sans-Serif" font-size="10.00">::reference</text>
</a>
</g>
</g>
<!-- Node1&#45;&gt;Node12 -->
<g id="edge12" class="edge">
<title>Node1&#45;&gt;Node12</title>
<path fill="none" stroke="midnightblue" d="M1365.9,-27.74C1355.77,-26.5 1345.46,-25.25 1335.5,-24.03"/>
<polygon fill="midnightblue" stroke="midnightblue" points="1365.61,-31.23 1375.96,-28.96 1366.45,-24.28 1365.61,-31.23"/>
</g>
<!-- Node3 -->
<g id="node3" class="node">
<title>Node3</title>
<g id="a_node3"><a xlink:href="namespace_main_namespace.html#aaa553a0feb6a9e785dce2ea7c2f25481" target="_top" xlink:title="Build a dh2matrix for the operator described by bemDescription, using the given clusters.">
<polygon fill="white" stroke="black" points="959.5,-94 959.5,-113 1130.5,-113 1130.5,-94 959.5,-94"/>
<text text-anchor="middle" x="1045" y="-101" font-family="Helvetica,sans-Serif" font-size="10.00">MainNamespace::buildOperator</text>
</a>
</g>
</g>
<!-- Node2&#45;&gt;Node3 -->
<g id="edge2" class="edge">
<title>Node2&#45;&gt;Node3</title>
<path fill="none" stroke="midnightblue" d="M1213.54,-71.32C1194.62,-75.66 1172.86,-80.49 1153,-84.5 1136.63,-87.8 1118.79,-91.09 1102.46,-93.98"/>
<polygon fill="midnightblue" stroke="midnightblue" points="1214.49,-74.7 1223.44,-69.04 1212.91,-67.88 1214.49,-74.7"/>
</g>
<!-- Node10 -->
<g id="node10" class="node">
<title>Node10</title>
<g id="a_node10"><a xlink:href="class_main_namespace_1_1_surface_1_1_single_surface.html#acd075e5e7ea6304b2e99e6e8aeed29db" target="_top" xlink:title="Compute the energy error norm.">
<polygon fill="white" stroke="black" points="937,-44.5 937,-74.5 1153,-74.5 1153,-44.5 937,-44.5"/>
<text text-anchor="start" x="945" y="-62.5" font-family="Helvetica,sans-Serif" font-size="10.00">MainNamespace::Surface</text>
<text text-anchor="middle" x="1045" y="-51.5" font-family="Helvetica,sans-Serif" font-size="10.00">::SingleSurface::computeDifferenceNorm</text>
</a>
</g>
</g>
<!-- Node2&#45;&gt;Node10 -->
<g id="edge9" class="edge">
<title>Node2&#45;&gt;Node10</title>
<path fill="none" stroke="midnightblue" d="M1178.8,-59.5C1170.38,-59.5 1161.76,-59.5 1153.15,-59.5"/>
<polygon fill="midnightblue" stroke="midnightblue" points="1178.95,-63 1188.95,-59.5 1178.95,-56 1178.95,-63"/>
</g>
<!-- Node11 -->
<g id="node11" class="node">
<title>Node11</title>
<g id="a_node11"><a xlink:href="class_main_namespace_1_1_surface_1_1_multi_surface.html#a5e65e47cb2b222bd9a5e7cc40e1c23e1" target="_top" xlink:title="Compute the error in several ways.">
<polygon fill="white" stroke="black" points="752,-19.5 752,-49.5 893,-49.5 893,-19.5 752,-19.5"/>
<text text-anchor="start" x="760" y="-37.5" font-family="Helvetica,sans-Serif" font-size="10.00">MainNamespace::Surface</text>
<text text-anchor="middle" x="822.5" y="-26.5" font-family="Helvetica,sans-Serif" font-size="10.00">::MultiSurface::error</text>
</a>
</g>
</g>
<!-- Node2&#45;&gt;Node11 -->
<g id="edge10" class="edge">
<title>Node2&#45;&gt;Node11</title>
<path fill="none" stroke="midnightblue" d="M1220.13,-47.34C1199.9,-42.28 1175.41,-37 1153,-34.5 1063.74,-24.53 960.04,-26.79 893.17,-30.03"/>
<polygon fill="midnightblue" stroke="midnightblue" points="1219.42,-50.77 1229.98,-49.87 1221.16,-43.99 1219.42,-50.77"/>
</g>
<!-- Node4 -->
<g id="node4" class="node">
<title>Node4</title>
<g id="a_node4"><a xlink:href="class_main_namespace_1_1_d_h2_matrix_wrapper.html#a8b3117680075ec79bc0500f3e901b133" target="_top" xlink:title="Take ownership of, the pointer to the bem description and build the matrix and all needed data struct...">
<polygon fill="white" stroke="black" points="744,-78.5 744,-108.5 901,-108.5 901,-78.5 744,-78.5"/>
<text text-anchor="start" x="752" y="-96.5" font-family="Helvetica,sans-Serif" font-size="10.00">MainNamespace::DH2Matrix</text>
<text text-anchor="middle" x="822.5" y="-85.5" font-family="Helvetica,sans-Serif" font-size="10.00">Wrapper::build</text>
</a>
</g>
</g>
<!-- Node3&#45;&gt;Node4 -->
<g id="edge3" class="edge">
<title>Node3&#45;&gt;Node4</title>
<path fill="none" stroke="midnightblue" d="M948.94,-99.19C932.95,-98.46 916.51,-97.72 901.03,-97.02"/>
<polygon fill="midnightblue" stroke="midnightblue" points="949.23,-102.71 959.38,-99.66 949.55,-95.71 949.23,-102.71"/>
</g>
<!-- Node5 -->
<g id="node5" class="node">
<title>Node5</title>
<g id="a_node5"><a xlink:href="namespace_main_namespace_1_1_surface.html#a7e821744eeb79cb1faa8468d53cb7c1e" target="_top" xlink:title=" ">
<polygon fill="white" stroke="black" points="567,-66.5 567,-96.5 708,-96.5 708,-66.5 567,-66.5"/>
<text text-anchor="start" x="575" y="-84.5" font-family="Helvetica,sans-Serif" font-size="10.00">MainNamespace::Surface</text>
<text text-anchor="middle" x="637.5" y="-73.5" font-family="Helvetica,sans-Serif" font-size="10.00">::makeTmpApply</text>
</a>
</g>
</g>
<!-- Node4&#45;&gt;Node5 -->
<g id="edge4" class="edge">
<title>Node4&#45;&gt;Node5</title>
<path fill="none" stroke="midnightblue" d="M733.81,-87.75C725.18,-87.18 716.51,-86.62 708.1,-86.06"/>
<polygon fill="midnightblue" stroke="midnightblue" points="733.68,-91.25 743.89,-88.41 734.14,-84.26 733.68,-91.25"/>
</g>
<!-- Node6 -->
<g id="node6" class="node">
<title>Node6</title>
<g id="a_node6"><a xlink:href="class_main_namespace_1_1_surface_1_1_single_surface.html#a3321422c36eccd213cfc48823a9f54d7" target="_top" xlink:title="Project the offset on the current mesh, then use it to compute the right&#45;hand side.">
<polygon fill="white" stroke="black" points="366,-65.5 366,-95.5 531,-95.5 531,-65.5 366,-65.5"/>
<text text-anchor="start" x="374" y="-83.5" font-family="Helvetica,sans-Serif" font-size="10.00">MainNamespace::Surface</text>
<text text-anchor="middle" x="448.5" y="-72.5" font-family="Helvetica,sans-Serif" font-size="10.00">::SingleSurface::makeMultiRhs</text>
</a>
</g>
</g>
<!-- Node5&#45;&gt;Node6 -->
<g id="edge5" class="edge">
<title>Node5&#45;&gt;Node6</title>
<path fill="none" stroke="midnightblue" d="M556.67,-81.07C548.23,-81.03 539.64,-80.98 531.18,-80.94"/>
<polygon fill="midnightblue" stroke="midnightblue" points="556.85,-84.57 566.87,-81.13 556.89,-77.57 556.85,-84.57"/>
</g>
<!-- Node7 -->
<g id="node7" class="node">
<title>Node7</title>
<g id="a_node7"><a xlink:href="class_main_namespace_1_1_surface_1_1_multi_surface.html#a8839f7e49575079e39fbb95a692772a5" target="_top" xlink:title="Compute the right&#45;hand side, the operators, then solve the linear system.">
<polygon fill="white" stroke="black" points="189,-43.5 189,-73.5 330,-73.5 330,-43.5 189,-43.5"/>
<text text-anchor="start" x="197" y="-61.5" font-family="Helvetica,sans-Serif" font-size="10.00">MainNamespace::Surface</text>
<text text-anchor="middle" x="259.5" y="-50.5" font-family="Helvetica,sans-Serif" font-size="10.00">::MultiSurface::solve</text>
</a>
</g>
</g>
<!-- Node6&#45;&gt;Node7 -->
<g id="edge6" class="edge">
<title>Node6&#45;&gt;Node7</title>
<path fill="none" stroke="midnightblue" d="M355.67,-69.7C347.07,-68.68 338.44,-67.67 330.09,-66.69"/>
<polygon fill="midnightblue" stroke="midnightblue" points="355.41,-73.19 365.75,-70.88 356.23,-66.24 355.41,-73.19"/>
</g>
<!-- Node8 -->
<g id="node8" class="node">
<title>Node8</title>
<g id="a_node8"><a xlink:href="main_8cpp.html#a5d68713f22d1b3e2495b15d107ea7d21" target="_top" xlink:title=" ">
<polygon fill="white" stroke="black" points="77,-49 77,-68 153,-68 153,-49 77,-49"/>
<text text-anchor="middle" x="115" y="-56" font-family="Helvetica,sans-Serif" font-size="10.00">testProblem</text>
</a>
</g>
</g>
<!-- Node7&#45;&gt;Node8 -->
<g id="edge7" class="edge">
<title>Node7&#45;&gt;Node8</title>
<path fill="none" stroke="midnightblue" d="M178.85,-58.5C169.97,-58.5 161.27,-58.5 153.31,-58.5"/>
<polygon fill="midnightblue" stroke="midnightblue" points="178.92,-62 188.92,-58.5 178.92,-55 178.92,-62"/>
</g>
<!-- Node9 -->
<g id="node9" class="node">
<title>Node9</title>
<g id="a_node9"><a xlink:href="main_8cpp.html#a3c04138a5bfe5d72780bb7e82a18e627" target="_top" xlink:title=" ">
<polygon fill="white" stroke="black" points="0,-49 0,-68 41,-68 41,-49 0,-49"/>
<text text-anchor="middle" x="20.5" y="-56" font-family="Helvetica,sans-Serif" font-size="10.00">main</text>
</a>
</g>
</g>
<!-- Node8&#45;&gt;Node9 -->
<g id="edge8" class="edge">
<title>Node8&#45;&gt;Node9</title>
<path fill="none" stroke="midnightblue" d="M66.72,-58.5C57.65,-58.5 48.64,-58.5 41.07,-58.5"/>
<polygon fill="midnightblue" stroke="midnightblue" points="66.91,-62 76.91,-58.5 66.91,-55 66.91,-62"/>
</g>
<!-- Node11&#45;&gt;Node7 -->
<g id="edge11" class="edge">
<title>Node11&#45;&gt;Node7</title>
<path fill="none" stroke="midnightblue" d="M741.81,-37.91C631.63,-42.62 434.58,-51.05 330.05,-55.52"/>
<polygon fill="midnightblue" stroke="midnightblue" points="742.02,-41.4 751.87,-37.48 741.73,-34.41 742.02,-41.4"/>
</g>
</g>
</svg>
