<?xml version="1.0" encoding="UTF-8" standalone="no"?>
<!DOCTYPE svg PUBLIC "-//W3C//DTD SVG 1.1//EN"
 "http://www.w3.org/Graphics/SVG/1.1/DTD/svg11.dtd">
<!-- Generated by graphviz version 2.43.0 (0)
 -->
<!-- Title: lyra::detail::BoundValueRefBase Pages: 1 -->
<svg width="871pt" height="127pt"
 viewBox="0.00 0.00 871.00 126.50" xmlns="http://www.w3.org/2000/svg" xmlns:xlink="http://www.w3.org/1999/xlink">
<g id="graph0" class="graph" transform="scale(1 1) rotate(0) translate(4 122.5)">
<title>lyra::detail::BoundValueRefBase</title>
<polygon fill="white" stroke="transparent" points="-4,4 -4,-122.5 867,-122.5 867,4 -4,4"/>
<!-- Node1 -->
<g id="node1" class="node">
<title>Node1</title>
<g id="a_node1"><a xlink:title=" ">
<polygon fill="#bfbfbf" stroke="black" points="334,-49.5 334,-79.5 468,-79.5 468,-49.5 334,-49.5"/>
<text text-anchor="start" x="342" y="-67.5" font-family="Helvetica,sans-Serif" font-size="10.00">lyra::detail::BoundValue</text>
<text text-anchor="middle" x="401" y="-56.5" font-family="Helvetica,sans-Serif" font-size="10.00">RefBase</text>
</a>
</g>
</g>
<!-- Node4 -->
<g id="node4" class="node">
<title>Node4</title>
<g id="a_node4"><a xlink:href="structlyra_1_1detail_1_1_bound_lambda.html" target="_top" xlink:title=" ">
<polygon fill="white" stroke="black" points="504,-99 504,-118 677,-118 677,-99 504,-99"/>
<text text-anchor="middle" x="590.5" y="-106" font-family="Helvetica,sans-Serif" font-size="10.00">lyra::detail::BoundLambda&lt; L &gt;</text>
</a>
</g>
</g>
<!-- Node1&#45;&gt;Node4 -->
<g id="edge5" class="edge">
<title>Node1&#45;&gt;Node4</title>
<path fill="none" stroke="midnightblue" d="M477.98,-73.45C486.75,-75.45 495.57,-77.52 504,-79.5 529.23,-85.42 558.66,-92.3 575.58,-98.88"/>
<polygon fill="midnightblue" stroke="midnightblue" points="478.64,-70.01 468.11,-71.22 477.1,-76.84 478.64,-70.01"/>
</g>
<!-- Node1&#45;&gt;Node4 -->
<g id="edge6" class="edge">
<title>Node1&#45;&gt;Node4</title>
<path fill="none" stroke="midnightblue" d="M442.9,-82.35C461.54,-87.52 483.88,-92.78 504,-97.5 506.08,-97.99 508.18,-98.48 510.31,-98.98"/>
<polygon fill="midnightblue" stroke="midnightblue" points="443.82,-78.97 433.25,-79.57 441.89,-85.7 443.82,-78.97"/>
</g>
<!-- Node5 -->
<g id="node5" class="node">
<title>Node5</title>
<g id="a_node5"><a xlink:href="structlyra_1_1detail_1_1_bound_value_ref.html" target="_top" xlink:title=" ">
<polygon fill="white" stroke="black" points="523.5,-49.5 523.5,-79.5 657.5,-79.5 657.5,-49.5 523.5,-49.5"/>
<text text-anchor="start" x="531.5" y="-67.5" font-family="Helvetica,sans-Serif" font-size="10.00">lyra::detail::BoundValue</text>
<text text-anchor="middle" x="590.5" y="-56.5" font-family="Helvetica,sans-Serif" font-size="10.00">Ref&lt; T &gt;</text>
</a>
</g>
</g>
<!-- Node1&#45;&gt;Node5 -->
<g id="edge7" class="edge">
<title>Node1&#45;&gt;Node5</title>
<path fill="none" stroke="midnightblue" d="M478.32,-57.85C493.25,-57.67 508.79,-57.73 523.36,-58.02"/>
<polygon fill="midnightblue" stroke="midnightblue" points="478.05,-54.36 468.11,-58.02 478.16,-61.36 478.05,-54.36"/>
</g>
<!-- Node1&#45;&gt;Node5 -->
<g id="edge10" class="edge">
<title>Node1&#45;&gt;Node5</title>
<path fill="none" stroke="midnightblue" d="M478.32,-71.15C493.25,-71.33 508.79,-71.27 523.36,-70.98"/>
<polygon fill="midnightblue" stroke="midnightblue" points="478.16,-67.64 468.11,-70.98 478.05,-74.64 478.16,-67.64"/>
</g>
<!-- Node7 -->
<g id="node7" class="node">
<title>Node7</title>
<g id="a_node7"><a xlink:href="structlyra_1_1detail_1_1_bound_value_ref_3_01std_1_1vector_3_01_t_01_4_01_4.html" target="_top" xlink:title=" ">
<polygon fill="white" stroke="black" points="522.5,-0.5 522.5,-30.5 658.5,-30.5 658.5,-0.5 522.5,-0.5"/>
<text text-anchor="start" x="530.5" y="-18.5" font-family="Helvetica,sans-Serif" font-size="10.00">lyra::detail::BoundValue</text>
<text text-anchor="middle" x="590.5" y="-7.5" font-family="Helvetica,sans-Serif" font-size="10.00">Ref&lt; std::vector&lt; T &gt; &gt;</text>
</a>
</g>
</g>
<!-- Node1&#45;&gt;Node7 -->
<g id="edge11" class="edge">
<title>Node1&#45;&gt;Node7</title>
<path fill="none" stroke="midnightblue" d="M448.46,-46.44C470.72,-39.77 497.8,-32.5 522.26,-26.57"/>
<polygon fill="midnightblue" stroke="midnightblue" points="447.14,-43.18 438.6,-49.46 449.18,-49.88 447.14,-43.18"/>
</g>
<!-- Node1&#45;&gt;Node7 -->
<g id="edge12" class="edge">
<title>Node1&#45;&gt;Node7</title>
<path fill="none" stroke="midnightblue" d="M477.91,-51.3C503.76,-44.87 531.5,-37.23 552.86,-30.56"/>
<polygon fill="midnightblue" stroke="midnightblue" points="476.98,-47.93 468.11,-53.71 478.65,-54.72 476.98,-47.93"/>
</g>
<!-- Node2 -->
<g id="node2" class="node">
<title>Node2</title>
<g id="a_node2"><a xlink:href="structlyra_1_1detail_1_1_bound_ref.html" target="_top" xlink:title=" ">
<polygon fill="white" stroke="black" points="176,-55 176,-74 298,-74 298,-55 176,-55"/>
<text text-anchor="middle" x="237" y="-62" font-family="Helvetica,sans-Serif" font-size="10.00">lyra::detail::BoundRef</text>
</a>
</g>
</g>
<!-- Node2&#45;&gt;Node1 -->
<g id="edge1" class="edge">
<title>Node2&#45;&gt;Node1</title>
<path fill="none" stroke="midnightblue" d="M308.51,-57.8C316.95,-57.72 325.54,-57.74 333.91,-57.85"/>
<polygon fill="midnightblue" stroke="midnightblue" points="308.27,-54.3 298.32,-57.95 308.37,-61.3 308.27,-54.3"/>
</g>
<!-- Node2&#45;&gt;Node1 -->
<g id="edge4" class="edge">
<title>Node2&#45;&gt;Node1</title>
<path fill="none" stroke="midnightblue" d="M308.51,-71.2C316.95,-71.28 325.54,-71.26 333.91,-71.15"/>
<polygon fill="midnightblue" stroke="midnightblue" points="308.37,-67.7 298.32,-71.05 308.27,-74.7 308.37,-67.7"/>
</g>
<!-- Node3 -->
<g id="node3" class="node">
<title>Node3</title>
<g id="a_node3"><a xlink:href="structlyra_1_1detail_1_1_non_copyable.html" target="_top" xlink:title=" ">
<polygon fill="white" stroke="black" points="0,-55 0,-74 140,-74 140,-55 0,-55"/>
<text text-anchor="middle" x="70" y="-62" font-family="Helvetica,sans-Serif" font-size="10.00">lyra::detail::NonCopyable</text>
</a>
</g>
</g>
<!-- Node3&#45;&gt;Node2 -->
<g id="edge2" class="edge">
<title>Node3&#45;&gt;Node2</title>
<path fill="none" stroke="midnightblue" d="M150.15,-57.75C158.81,-57.73 167.53,-57.8 175.91,-57.98"/>
<polygon fill="midnightblue" stroke="midnightblue" points="149.99,-54.26 140.02,-57.83 150.04,-61.26 149.99,-54.26"/>
</g>
<!-- Node3&#45;&gt;Node2 -->
<g id="edge3" class="edge">
<title>Node3&#45;&gt;Node2</title>
<path fill="none" stroke="midnightblue" d="M150.15,-71.25C158.81,-71.27 167.53,-71.2 175.91,-71.02"/>
<polygon fill="midnightblue" stroke="midnightblue" points="150.04,-67.74 140.02,-71.17 149.99,-74.74 150.04,-67.74"/>
</g>
<!-- Node6 -->
<g id="node6" class="node">
<title>Node6</title>
<g id="a_node6"><a xlink:href="structlyra_1_1detail_1_1_bound_val.html" target="_top" xlink:title=" ">
<polygon fill="white" stroke="black" points="713,-55 713,-74 863,-74 863,-55 713,-55"/>
<text text-anchor="middle" x="788" y="-62" font-family="Helvetica,sans-Serif" font-size="10.00">lyra::detail::BoundVal&lt; T &gt;</text>
</a>
</g>
</g>
<!-- Node5&#45;&gt;Node6 -->
<g id="edge8" class="edge">
<title>Node5&#45;&gt;Node6</title>
<path fill="none" stroke="midnightblue" d="M667.8,-57.9C682.6,-57.69 698.08,-57.7 712.81,-57.93"/>
<polygon fill="midnightblue" stroke="midnightblue" points="667.62,-54.4 657.69,-58.07 667.75,-61.4 667.62,-54.4"/>
</g>
<!-- Node5&#45;&gt;Node6 -->
<g id="edge9" class="edge">
<title>Node5&#45;&gt;Node6</title>
<path fill="none" stroke="midnightblue" d="M667.8,-71.1C682.6,-71.31 698.08,-71.3 712.81,-71.07"/>
<polygon fill="midnightblue" stroke="midnightblue" points="667.75,-67.6 657.69,-70.93 667.62,-74.6 667.75,-67.6"/>
</g>
</g>
</svg>
