<?xml version="1.0" encoding="UTF-8" standalone="no"?>
<!DOCTYPE svg PUBLIC "-//W3C//DTD SVG 1.1//EN"
 "http://www.w3.org/Graphics/SVG/1.1/DTD/svg11.dtd">
<!-- Generated by graphviz version 2.43.0 (0)
 -->
<!-- Title: lyra::option_style::long_option_string Pages: 1 -->
<svg width="448pt" height="66pt"
 viewBox="0.00 0.00 448.00 66.00" xmlns="http://www.w3.org/2000/svg" xmlns:xlink="http://www.w3.org/1999/xlink">
<g id="graph0" class="graph" transform="scale(1 1) rotate(0) translate(4 62)">
<title>lyra::option_style::long_option_string</title>
<polygon fill="white" stroke="transparent" points="-4,4 -4,-62 444,-62 444,4 -4,4"/>
<!-- Node1 -->
<g id="node1" class="node">
<title>Node1</title>
<g id="a_node1"><a xlink:title=" ">
<polygon fill="#bfbfbf" stroke="black" points="327,-14 327,-44 440,-44 440,-14 327,-14"/>
<text text-anchor="start" x="335" y="-32" font-family="Helvetica,sans-Serif" font-size="10.00">lyra::option_style</text>
<text text-anchor="middle" x="383.5" y="-21" font-family="Helvetica,sans-Serif" font-size="10.00">::long_option_string</text>
</a>
</g>
</g>
<!-- Node2 -->
<g id="node2" class="node">
<title>Node2</title>
<g id="a_node2"><a xlink:href="classlyra_1_1opt.html#ab967f4e477c4eef325f7a2a37ba0d3f8" target="_top" xlink:title=" ">
<polygon fill="white" stroke="black" points="174,-19.5 174,-38.5 291,-38.5 291,-19.5 174,-19.5"/>
<text text-anchor="middle" x="232.5" y="-26.5" font-family="Helvetica,sans-Serif" font-size="10.00">lyra::opt::format_opt</text>
</a>
</g>
</g>
<!-- Node1&#45;&gt;Node2 -->
<g id="edge1" class="edge">
<title>Node1&#45;&gt;Node2</title>
<path fill="none" stroke="midnightblue" d="M316.44,-29C308.03,-29 299.47,-29 291.21,-29"/>
<polygon fill="midnightblue" stroke="midnightblue" points="316.59,-32.5 326.59,-29 316.59,-25.5 316.59,-32.5"/>
</g>
<!-- Node3 -->
<g id="node3" class="node">
<title>Node3</title>
<g id="a_node3"><a xlink:href="classlyra_1_1opt.html#a28b4742a69ac9435ae9fa0816040f572" target="_top" xlink:title=" ">
<polygon fill="white" stroke="black" points="4,-38.5 4,-57.5 134,-57.5 134,-38.5 4,-38.5"/>
<text text-anchor="middle" x="69" y="-45.5" font-family="Helvetica,sans-Serif" font-size="10.00">lyra::opt::get_help_text</text>
</a>
</g>
</g>
<!-- Node2&#45;&gt;Node3 -->
<g id="edge2" class="edge">
<title>Node2&#45;&gt;Node3</title>
<path fill="none" stroke="midnightblue" d="M163.57,-36.99C153.78,-38.14 143.73,-39.33 134.02,-40.47"/>
<polygon fill="midnightblue" stroke="midnightblue" points="164.13,-40.45 173.65,-35.81 163.31,-33.5 164.13,-40.45"/>
</g>
<!-- Node4 -->
<g id="node4" class="node">
<title>Node4</title>
<g id="a_node4"><a xlink:href="classlyra_1_1opt.html#af9d59d525fe83271edc918cb2ce359db" target="_top" xlink:title=" ">
<polygon fill="white" stroke="black" points="0,-0.5 0,-19.5 138,-19.5 138,-0.5 0,-0.5"/>
<text text-anchor="middle" x="69" y="-7.5" font-family="Helvetica,sans-Serif" font-size="10.00">lyra::opt::get_usage_text</text>
</a>
</g>
</g>
<!-- Node2&#45;&gt;Node4 -->
<g id="edge3" class="edge">
<title>Node2&#45;&gt;Node4</title>
<path fill="none" stroke="midnightblue" d="M163.54,-21C155.15,-20.02 146.58,-19.01 138.18,-18.02"/>
<polygon fill="midnightblue" stroke="midnightblue" points="163.31,-24.5 173.65,-22.19 164.13,-17.55 163.31,-24.5"/>
</g>
</g>
</svg>
