<?xml version="1.0" encoding="UTF-8" standalone="no"?>
<!DOCTYPE svg PUBLIC "-//W3C//DTD SVG 1.1//EN"
 "http://www.w3.org/Graphics/SVG/1.1/DTD/svg11.dtd">
<!-- Generated by graphviz version 2.43.0 (0)
 -->
<!-- Title: MainNamespace::Options::fillDefaults Pages: 1 -->
<svg width="351pt" height="225pt"
 viewBox="0.00 0.00 351.00 225.00" xmlns="http://www.w3.org/2000/svg" xmlns:xlink="http://www.w3.org/1999/xlink">
<g id="graph0" class="graph" transform="scale(1 1) rotate(0) translate(4 221)">
<title>MainNamespace::Options::fillDefaults</title>
<polygon fill="white" stroke="transparent" points="-4,4 -4,-221 347,-221 347,4 -4,4"/>
<!-- Node1 -->
<g id="node1" class="node">
<title>Node1</title>
<g id="a_node1"><a xlink:title="Called by the constructor by default.">
<polygon fill="#bfbfbf" stroke="black" points="0,-98.5 0,-128.5 142,-128.5 142,-98.5 0,-98.5"/>
<text text-anchor="start" x="8" y="-116.5" font-family="Helvetica,sans-Serif" font-size="10.00">MainNamespace::Options</text>
<text text-anchor="middle" x="71" y="-105.5" font-family="Helvetica,sans-Serif" font-size="10.00">::fillDefaults</text>
</a>
</g>
</g>
<!-- Node2 -->
<g id="node2" class="node">
<title>Node2</title>
<g id="a_node2"><a xlink:href="struct_main_namespace_1_1_options.html#a9dd548e38db71d587c9185648edafb86" target="_top" xlink:title=" ">
<polygon fill="white" stroke="black" points="189.5,-186.5 189.5,-216.5 331.5,-216.5 331.5,-186.5 189.5,-186.5"/>
<text text-anchor="start" x="197.5" y="-204.5" font-family="Helvetica,sans-Serif" font-size="10.00">MainNamespace::Options</text>
<text text-anchor="middle" x="260.5" y="-193.5" font-family="Helvetica,sans-Serif" font-size="10.00">::clusterResolution</text>
</a>
</g>
</g>
<!-- Node1&#45;&gt;Node2 -->
<g id="edge1" class="edge">
<title>Node1&#45;&gt;Node2</title>
<path fill="none" stroke="midnightblue" d="M93.91,-128.64C114.78,-142.54 147.46,-162.98 178,-176.5 183.29,-178.84 188.86,-181.05 194.51,-183.11"/>
<polygon fill="midnightblue" stroke="midnightblue" points="193.45,-186.45 204.05,-186.45 195.76,-179.84 193.45,-186.45"/>
</g>
<!-- Node3 -->
<g id="node3" class="node">
<title>Node3</title>
<g id="a_node3"><a xlink:href="struct_main_namespace_1_1_options.html#ad8a5dac97faa38719a378d695f4c3b6b" target="_top" xlink:title=" ">
<polygon fill="white" stroke="black" points="178,-148 178,-167 343,-167 343,-148 178,-148"/>
<text text-anchor="middle" x="260.5" y="-155" font-family="Helvetica,sans-Serif" font-size="10.00">MainNamespace::Options::eps</text>
</a>
</g>
</g>
<!-- Node1&#45;&gt;Node3 -->
<g id="edge2" class="edge">
<title>Node1&#45;&gt;Node3</title>
<path fill="none" stroke="midnightblue" d="M135.61,-128.53C149.58,-131.82 164.29,-135.28 178,-138.5 187.87,-140.81 198.41,-143.28 208.52,-145.64"/>
<polygon fill="midnightblue" stroke="midnightblue" points="207.92,-149.09 218.45,-147.95 209.51,-142.27 207.92,-149.09"/>
</g>
<!-- Node4 -->
<g id="node4" class="node">
<title>Node4</title>
<g id="a_node4"><a xlink:href="struct_main_namespace_1_1_options.html#a723119ba0f1851a37f845d6cdbb70792" target="_top" xlink:title=" ">
<polygon fill="white" stroke="black" points="189.5,-98.5 189.5,-128.5 331.5,-128.5 331.5,-98.5 189.5,-98.5"/>
<text text-anchor="start" x="197.5" y="-116.5" font-family="Helvetica,sans-Serif" font-size="10.00">MainNamespace::Options</text>
<text text-anchor="middle" x="260.5" y="-105.5" font-family="Helvetica,sans-Serif" font-size="10.00">::epsKrylov</text>
</a>
</g>
</g>
<!-- Node1&#45;&gt;Node4 -->
<g id="edge3" class="edge">
<title>Node1&#45;&gt;Node4</title>
<path fill="none" stroke="midnightblue" d="M142.08,-113.5C154.11,-113.5 166.69,-113.5 178.97,-113.5"/>
<polygon fill="midnightblue" stroke="midnightblue" points="179.19,-117 189.19,-113.5 179.19,-110 179.19,-117"/>
</g>
<!-- Node5 -->
<g id="node5" class="node">
<title>Node5</title>
<g id="a_node5"><a xlink:href="struct_main_namespace_1_1_options.html#adbe1881e6e24f021d2608257b156e68f" target="_top" xlink:title=" ">
<polygon fill="white" stroke="black" points="189.5,-49.5 189.5,-79.5 331.5,-79.5 331.5,-49.5 189.5,-49.5"/>
<text text-anchor="start" x="197.5" y="-67.5" font-family="Helvetica,sans-Serif" font-size="10.00">MainNamespace::Options</text>
<text text-anchor="middle" x="260.5" y="-56.5" font-family="Helvetica,sans-Serif" font-size="10.00">::interpolationPoints</text>
</a>
</g>
</g>
<!-- Node1&#45;&gt;Node5 -->
<g id="edge4" class="edge">
<title>Node1&#45;&gt;Node5</title>
<path fill="none" stroke="midnightblue" d="M129.53,-98.47C149.33,-93.29 171.67,-87.45 192.18,-82.09"/>
<polygon fill="midnightblue" stroke="midnightblue" points="193.29,-85.42 202.08,-79.51 191.52,-78.65 193.29,-85.42"/>
</g>
<!-- Node6 -->
<g id="node6" class="node">
<title>Node6</title>
<g id="a_node6"><a xlink:href="struct_main_namespace_1_1_options.html#a13e08a72c9531b3e5ba442ca4e0a7377" target="_top" xlink:title=" ">
<polygon fill="white" stroke="black" points="189.5,-0.5 189.5,-30.5 331.5,-30.5 331.5,-0.5 189.5,-0.5"/>
<text text-anchor="start" x="197.5" y="-18.5" font-family="Helvetica,sans-Serif" font-size="10.00">MainNamespace::Options</text>
<text text-anchor="middle" x="260.5" y="-7.5" font-family="Helvetica,sans-Serif" font-size="10.00">::quadraturePoints</text>
</a>
</g>
</g>
<!-- Node1&#45;&gt;Node6 -->
<g id="edge5" class="edge">
<title>Node1&#45;&gt;Node6</title>
<path fill="none" stroke="midnightblue" d="M90.08,-98.47C110.37,-82.24 144.81,-56.55 178,-40.5 182.83,-38.16 187.93,-35.99 193.12,-33.98"/>
<polygon fill="midnightblue" stroke="midnightblue" points="194.34,-37.26 202.52,-30.53 191.93,-30.68 194.34,-37.26"/>
</g>
</g>
</svg>
