<?xml version="1.0" encoding="UTF-8" standalone="no"?>
<!DOCTYPE svg PUBLIC "-//W3C//DTD SVG 1.1//EN"
 "http://www.w3.org/Graphics/SVG/1.1/DTD/svg11.dtd">
<!-- Generated by graphviz version 2.43.0 (0)
 -->
<!-- Title: MainNamespace::Options::outputDirectory Pages: 1 -->
<svg width="645pt" height="78pt"
 viewBox="0.00 0.00 645.00 77.50" xmlns="http://www.w3.org/2000/svg" xmlns:xlink="http://www.w3.org/1999/xlink">
<g id="graph0" class="graph" transform="scale(1 1) rotate(0) translate(4 73.5)">
<title>MainNamespace::Options::outputDirectory</title>
<polygon fill="white" stroke="transparent" points="-4,4 -4,-73.5 641,-73.5 641,4 -4,4"/>
<!-- Node1 -->
<g id="node1" class="node">
<title>Node1</title>
<g id="a_node1"><a xlink:title=" ">
<polygon fill="#bfbfbf" stroke="black" points="495,-17 495,-47 637,-47 637,-17 495,-17"/>
<text text-anchor="start" x="503" y="-35" font-family="Helvetica,sans-Serif" font-size="10.00">MainNamespace::Options</text>
<text text-anchor="middle" x="566" y="-24" font-family="Helvetica,sans-Serif" font-size="10.00">::outputDirectory</text>
</a>
</g>
</g>
<!-- Node2 -->
<g id="node2" class="node">
<title>Node2</title>
<g id="a_node2"><a xlink:href="namespace_main_namespace.html#a71dba2b09368b6de6d66105d0bca7911" target="_top" xlink:title=" ">
<polygon fill="white" stroke="black" points="278,-22.5 278,-41.5 459,-41.5 459,-22.5 278,-22.5"/>
<text text-anchor="middle" x="368.5" y="-29.5" font-family="Helvetica,sans-Serif" font-size="10.00">MainNamespace::outputDirectory</text>
</a>
</g>
</g>
<!-- Node1&#45;&gt;Node2 -->
<g id="edge1" class="edge">
<title>Node1&#45;&gt;Node2</title>
<path fill="none" stroke="midnightblue" d="M484.78,-32C476.33,-32 467.7,-32 459.16,-32"/>
<polygon fill="midnightblue" stroke="midnightblue" points="484.97,-35.5 494.97,-32 484.97,-28.5 484.97,-35.5"/>
</g>
<!-- Node3 -->
<g id="node3" class="node">
<title>Node3</title>
<g id="a_node3"><a xlink:href="class_main_namespace_1_1_mesh_reader.html#aa0e1d758744f315e330c6d0d50438322" target="_top" xlink:title=" ">
<polygon fill="white" stroke="black" points="77,-39 77,-69 242,-69 242,-39 77,-39"/>
<text text-anchor="start" x="85" y="-57" font-family="Helvetica,sans-Serif" font-size="10.00">MainNamespace::MeshReader</text>
<text text-anchor="middle" x="159.5" y="-46" font-family="Helvetica,sans-Serif" font-size="10.00">::~MeshReader</text>
</a>
</g>
</g>
<!-- Node2&#45;&gt;Node3 -->
<g id="edge2" class="edge">
<title>Node2&#45;&gt;Node3</title>
<path fill="none" stroke="midnightblue" d="M267.82,-42.59C259.19,-43.51 250.53,-44.43 242.08,-45.33"/>
<polygon fill="midnightblue" stroke="midnightblue" points="268.34,-46.06 277.91,-41.52 267.6,-39.1 268.34,-46.06"/>
</g>
<!-- Node4 -->
<g id="node4" class="node">
<title>Node4</title>
<g id="a_node4"><a xlink:href="main_8cpp.html#a5d68713f22d1b3e2495b15d107ea7d21" target="_top" xlink:title=" ">
<polygon fill="white" stroke="black" points="121.5,-0.5 121.5,-19.5 197.5,-19.5 197.5,-0.5 121.5,-0.5"/>
<text text-anchor="middle" x="159.5" y="-7.5" font-family="Helvetica,sans-Serif" font-size="10.00">testProblem</text>
</a>
</g>
</g>
<!-- Node2&#45;&gt;Node4 -->
<g id="edge3" class="edge">
<title>Node2&#45;&gt;Node4</title>
<path fill="none" stroke="midnightblue" d="M267.96,-21.42C242.88,-18.76 217.5,-16.06 197.7,-13.95"/>
<polygon fill="midnightblue" stroke="midnightblue" points="267.6,-24.9 277.91,-22.48 268.34,-17.94 267.6,-24.9"/>
</g>
<!-- Node5 -->
<g id="node5" class="node">
<title>Node5</title>
<g id="a_node5"><a xlink:href="main_8cpp.html#a3c04138a5bfe5d72780bb7e82a18e627" target="_top" xlink:title=" ">
<polygon fill="white" stroke="black" points="0,-0.5 0,-19.5 41,-19.5 41,-0.5 0,-0.5"/>
<text text-anchor="middle" x="20.5" y="-7.5" font-family="Helvetica,sans-Serif" font-size="10.00">main</text>
</a>
</g>
</g>
<!-- Node4&#45;&gt;Node5 -->
<g id="edge4" class="edge">
<title>Node4&#45;&gt;Node5</title>
<path fill="none" stroke="midnightblue" d="M111.42,-10C87.43,-10 59.53,-10 41.25,-10"/>
<polygon fill="midnightblue" stroke="midnightblue" points="111.43,-13.5 121.43,-10 111.43,-6.5 111.43,-13.5"/>
</g>
</g>
</svg>
