<?xml version="1.0" encoding="UTF-8" standalone="no"?>
<!DOCTYPE svg PUBLIC "-//W3C//DTD SVG 1.1//EN"
 "http://www.w3.org/Graphics/SVG/1.1/DTD/svg11.dtd">
<!-- Generated by graphviz version 2.43.0 (0)
 -->
<!-- Title: MainNamespace::Options::compression Pages: 1 -->
<svg width="353pt" height="78pt"
 viewBox="0.00 0.00 353.00 77.50" xmlns="http://www.w3.org/2000/svg" xmlns:xlink="http://www.w3.org/1999/xlink">
<g id="graph0" class="graph" transform="scale(1 1) rotate(0) translate(4 73.5)">
<title>MainNamespace::Options::compression</title>
<polygon fill="white" stroke="transparent" points="-4,4 -4,-73.5 349,-73.5 349,4 -4,4"/>
<!-- Node1 -->
<g id="node1" class="node">
<title>Node1</title>
<g id="a_node1"><a xlink:title=" ">
<polygon fill="#bfbfbf" stroke="black" points="203,-22.5 203,-52.5 345,-52.5 345,-22.5 203,-22.5"/>
<text text-anchor="start" x="211" y="-40.5" font-family="Helvetica,sans-Serif" font-size="10.00">MainNamespace::Options</text>
<text text-anchor="middle" x="274" y="-29.5" font-family="Helvetica,sans-Serif" font-size="10.00">::compression</text>
</a>
</g>
</g>
<!-- Node2 -->
<g id="node2" class="node">
<title>Node2</title>
<g id="a_node2"><a xlink:href="namespace_main_namespace.html#ab563a8127ba49426e0e96329e3fcd1f2" target="_top" xlink:title=" ">
<polygon fill="white" stroke="black" points="0,-50 0,-69 167,-69 167,-50 0,-50"/>
<text text-anchor="middle" x="83.5" y="-57" font-family="Helvetica,sans-Serif" font-size="10.00">MainNamespace::compression</text>
</a>
</g>
</g>
<!-- Node1&#45;&gt;Node2 -->
<g id="edge1" class="edge">
<title>Node1&#45;&gt;Node2</title>
<path fill="none" stroke="midnightblue" d="M192.63,-46.88C183.88,-47.9 174.96,-48.94 166.19,-49.97"/>
<polygon fill="midnightblue" stroke="midnightblue" points="193.28,-50.33 202.81,-45.69 192.47,-43.37 193.28,-50.33"/>
</g>
<!-- Node3 -->
<g id="node3" class="node">
<title>Node3</title>
<g id="a_node3"><a xlink:href="struct_main_namespace_1_1_options.html#ad9eebf0d3cc42a1336baee1f545c1182" target="_top" xlink:title=" ">
<polygon fill="white" stroke="black" points="12.5,-0.5 12.5,-30.5 154.5,-30.5 154.5,-0.5 12.5,-0.5"/>
<text text-anchor="start" x="20.5" y="-18.5" font-family="Helvetica,sans-Serif" font-size="10.00">MainNamespace::Options</text>
<text text-anchor="middle" x="83.5" y="-7.5" font-family="Helvetica,sans-Serif" font-size="10.00">::compression</text>
</a>
</g>
</g>
<!-- Node1&#45;&gt;Node3 -->
<g id="edge2" class="edge">
<title>Node1&#45;&gt;Node3</title>
<path fill="none" stroke="midnightblue" d="M192.76,-28.14C180.12,-26.66 167.14,-25.15 154.75,-23.7"/>
<polygon fill="midnightblue" stroke="midnightblue" points="192.47,-31.63 202.81,-29.31 193.28,-24.67 192.47,-31.63"/>
</g>
</g>
</svg>
