<?xml version="1.0" encoding="UTF-8" standalone="no"?>
<!DOCTYPE svg PUBLIC "-//W3C//DTD SVG 1.1//EN"
 "http://www.w3.org/Graphics/SVG/1.1/DTD/svg11.dtd">
<!-- Generated by graphviz version 2.43.0 (0)
 -->
<!-- Title: lyra::cli::value_result::vector&lt; T &gt; Pages: 1 -->
<svg width="289pt" height="127pt"
 viewBox="0.00 0.00 289.00 127.00" xmlns="http://www.w3.org/2000/svg" xmlns:xlink="http://www.w3.org/1999/xlink">
<g id="graph0" class="graph" transform="scale(1 1) rotate(0) translate(4 123)">
<title>lyra::cli::value_result::vector&lt; T &gt;</title>
<polygon fill="white" stroke="transparent" points="-4,4 -4,-123 285,-123 285,4 -4,4"/>
<!-- Node1 -->
<g id="node1" class="node">
<title>Node1</title>
<g id="a_node1"><a xlink:title=" ">
<polygon fill="#bfbfbf" stroke="black" points="0,-44.5 0,-74.5 119,-74.5 119,-44.5 0,-44.5"/>
<text text-anchor="start" x="8" y="-62.5" font-family="Helvetica,sans-Serif" font-size="10.00">lyra::cli::value_result</text>
<text text-anchor="middle" x="59.5" y="-51.5" font-family="Helvetica,sans-Serif" font-size="10.00">::vector&lt; T &gt;</text>
</a>
</g>
</g>
<!-- Node2 -->
<g id="node2" class="node">
<title>Node2</title>
<g id="a_node2"><a xlink:href="namespacelyra_1_1detail.html#ac687157112493fe0f0196dc562c0a1e0" target="_top" xlink:title=" ">
<polygon fill="white" stroke="black" points="169,-88.5 169,-118.5 267,-118.5 267,-88.5 169,-88.5"/>
<text text-anchor="start" x="177" y="-106.5" font-family="Helvetica,sans-Serif" font-size="10.00">lyra::detail::from</text>
<text text-anchor="middle" x="218" y="-95.5" font-family="Helvetica,sans-Serif" font-size="10.00">_string</text>
</a>
</g>
</g>
<!-- Node1&#45;&gt;Node2 -->
<g id="edge1" class="edge">
<title>Node1&#45;&gt;Node2</title>
<path fill="none" stroke="midnightblue" d="M113.92,-74.52C128.38,-78.58 144.11,-83.01 158.81,-87.14"/>
<polygon fill="midnightblue" stroke="midnightblue" points="158.23,-90.61 168.81,-89.95 160.13,-83.87 158.23,-90.61"/>
</g>
<!-- Node3 -->
<g id="node3" class="node">
<title>Node3</title>
<g id="a_node3"><a xlink:href="classlyra_1_1parser.html#a349d214f8389d9d0e8f163985674f440" target="_top" xlink:title=" ">
<polygon fill="white" stroke="black" points="155,-50 155,-69 281,-69 281,-50 155,-50"/>
<text text-anchor="middle" x="218" y="-57" font-family="Helvetica,sans-Serif" font-size="10.00">lyra::parser::get_value</text>
</a>
</g>
</g>
<!-- Node1&#45;&gt;Node3 -->
<g id="edge2" class="edge">
<title>Node1&#45;&gt;Node3</title>
<path fill="none" stroke="midnightblue" d="M119.22,-59.5C127.48,-59.5 136.06,-59.5 144.54,-59.5"/>
<polygon fill="midnightblue" stroke="midnightblue" points="144.81,-63 154.81,-59.5 144.81,-56 144.81,-63"/>
</g>
<!-- Node4 -->
<g id="node4" class="node">
<title>Node4</title>
<g id="a_node4"><a xlink:href="classlyra_1_1parser.html#a2da96698bd21a935fcbf979d2a27bf04" target="_top" xlink:title=" ">
<polygon fill="white" stroke="black" points="155,-0.5 155,-30.5 281,-30.5 281,-0.5 155,-0.5"/>
<text text-anchor="start" x="163" y="-18.5" font-family="Helvetica,sans-Serif" font-size="10.00">lyra::parser::get_value</text>
<text text-anchor="middle" x="218" y="-7.5" font-family="Helvetica,sans-Serif" font-size="10.00">_count</text>
</a>
</g>
</g>
<!-- Node1&#45;&gt;Node4 -->
<g id="edge3" class="edge">
<title>Node1&#45;&gt;Node4</title>
<path fill="none" stroke="midnightblue" d="M113.92,-44.48C126.69,-40.89 140.45,-37.02 153.62,-33.32"/>
<polygon fill="midnightblue" stroke="midnightblue" points="154.88,-36.6 163.55,-30.53 152.98,-29.86 154.88,-36.6"/>
</g>
</g>
</svg>
