<?xml version="1.0" encoding="UTF-8" standalone="no"?>
<!DOCTYPE svg PUBLIC "-//W3C//DTD SVG 1.1//EN"
 "http://www.w3.org/Graphics/SVG/1.1/DTD/svg11.dtd">
<!-- Generated by graphviz version 2.43.0 (0)
 -->
<!-- Title: main/surface.h Pages: 1 -->
<svg width="878pt" height="364pt"
 viewBox="0.00 0.00 878.00 364.00" xmlns="http://www.w3.org/2000/svg" xmlns:xlink="http://www.w3.org/1999/xlink">
<g id="graph0" class="graph" transform="scale(1 1) rotate(0) translate(4 360)">
<title>main/surface.h</title>
<polygon fill="white" stroke="transparent" points="-4,4 -4,-360 874,-360 874,4 -4,4"/>
<!-- Node1 -->
<g id="node1" class="node">
<title>Node1</title>
<g id="a_node1"><a xlink:title=" ">
<polygon fill="#bfbfbf" stroke="black" points="299.5,-336.5 299.5,-355.5 388.5,-355.5 388.5,-336.5 299.5,-336.5"/>
<text text-anchor="middle" x="344" y="-343.5" font-family="Helvetica,sans-Serif" font-size="10.00">main/surface.h</text>
</a>
</g>
</g>
<!-- Node2 -->
<g id="node2" class="node">
<title>Node2</title>
<g id="a_node2"><a xlink:title=" ">
<polygon fill="white" stroke="#bfbfbf" points="0,-280.5 0,-299.5 68,-299.5 68,-280.5 0,-280.5"/>
<text text-anchor="middle" x="34" y="-287.5" font-family="Helvetica,sans-Serif" font-size="10.00">complex.h</text>
</a>
</g>
</g>
<!-- Node1&#45;&gt;Node2 -->
<g id="edge1" class="edge">
<title>Node1&#45;&gt;Node2</title>
<path fill="none" stroke="midnightblue" d="M299.46,-337.56C247.3,-328.8 158.31,-313.71 82,-300 80.73,-299.77 79.45,-299.54 78.15,-299.3"/>
<polygon fill="midnightblue" stroke="midnightblue" points="78.54,-295.82 68.08,-297.46 77.28,-302.7 78.54,-295.82"/>
</g>
<!-- Node3 -->
<g id="node3" class="node">
<title>Node3</title>
<g id="a_node3"><a xlink:title=" ">
<polygon fill="white" stroke="#bfbfbf" points="680.5,-168.5 680.5,-187.5 727.5,-187.5 727.5,-168.5 680.5,-168.5"/>
<text text-anchor="middle" x="704" y="-175.5" font-family="Helvetica,sans-Serif" font-size="10.00">vector</text>
</a>
</g>
</g>
<!-- Node1&#45;&gt;Node3 -->
<g id="edge2" class="edge">
<title>Node1&#45;&gt;Node3</title>
<path fill="none" stroke="midnightblue" d="M388.73,-341.78C456.5,-334.76 586.06,-312.68 669,-244 683.63,-231.88 693.05,-212.01 698.39,-197.42"/>
<polygon fill="midnightblue" stroke="midnightblue" points="701.85,-198.11 701.7,-187.51 695.21,-195.89 701.85,-198.11"/>
</g>
<!-- Node4 -->
<g id="node4" class="node">
<title>Node4</title>
<g id="a_node4"><a xlink:title=" ">
<polygon fill="white" stroke="#bfbfbf" points="124.5,-280.5 124.5,-299.5 225.5,-299.5 225.5,-280.5 124.5,-280.5"/>
<text text-anchor="middle" x="175" y="-287.5" font-family="Helvetica,sans-Serif" font-size="10.00">h2lib/surface3d.h</text>
</a>
</g>
</g>
<!-- Node1&#45;&gt;Node4 -->
<g id="edge3" class="edge">
<title>Node1&#45;&gt;Node4</title>
<path fill="none" stroke="midnightblue" d="M317.22,-336.44C288.67,-327.32 243.27,-312.81 211.46,-302.65"/>
<polygon fill="midnightblue" stroke="midnightblue" points="212.24,-299.23 201.65,-299.52 210.11,-305.89 212.24,-299.23"/>
</g>
<!-- Node5 -->
<g id="node5" class="node">
<title>Node5</title>
<g id="a_node5"><a xlink:href="arrays_8h.html" target="_top" xlink:title=" ">
<polygon fill="white" stroke="black" points="304,-168.5 304,-187.5 384,-187.5 384,-168.5 304,-168.5"/>
<text text-anchor="middle" x="344" y="-175.5" font-family="Helvetica,sans-Serif" font-size="10.00">utils/arrays.h</text>
</a>
</g>
</g>
<!-- Node1&#45;&gt;Node5 -->
<g id="edge4" class="edge">
<title>Node1&#45;&gt;Node5</title>
<path fill="none" stroke="midnightblue" d="M344,-336.08C344,-309.95 344,-233.21 344,-197.58"/>
<polygon fill="midnightblue" stroke="midnightblue" points="347.5,-197.57 344,-187.57 340.5,-197.57 347.5,-197.57"/>
</g>
<!-- Node7 -->
<g id="node7" class="node">
<title>Node7</title>
<g id="a_node7"><a xlink:href="cutils_8h.html" target="_top" xlink:title=" ">
<polygon fill="white" stroke="black" points="179,-112.5 179,-131.5 231,-131.5 231,-112.5 179,-112.5"/>
<text text-anchor="middle" x="205" y="-119.5" font-family="Helvetica,sans-Serif" font-size="10.00">cutils.h</text>
</a>
</g>
</g>
<!-- Node1&#45;&gt;Node7 -->
<g id="edge12" class="edge">
<title>Node1&#45;&gt;Node7</title>
<path fill="none" stroke="midnightblue" d="M299.31,-342.75C239.39,-338.7 137.88,-327.81 115,-300 91.89,-271.91 55.43,-301.93 146,-168 154.63,-155.24 168.06,-144.59 179.93,-136.86"/>
<polygon fill="midnightblue" stroke="midnightblue" points="181.91,-139.74 188.6,-131.52 178.25,-133.78 181.91,-139.74"/>
</g>
<!-- Node11 -->
<g id="node11" class="node">
<title>Node11</title>
<g id="a_node11"><a xlink:href="enum_8h.html" target="_top" xlink:title=" ">
<polygon fill="white" stroke="black" points="737.5,-56.5 737.5,-75.5 790.5,-75.5 790.5,-56.5 737.5,-56.5"/>
<text text-anchor="middle" x="764" y="-63.5" font-family="Helvetica,sans-Serif" font-size="10.00">enum.h</text>
</a>
</g>
</g>
<!-- Node1&#45;&gt;Node11 -->
<g id="edge13" class="edge">
<title>Node1&#45;&gt;Node11</title>
<path fill="none" stroke="midnightblue" d="M388.85,-345.11C516.05,-344.22 870,-332.96 870,-235 870,-235 870,-235 870,-177 870,-131.81 823.05,-98.05 791.64,-80.52"/>
<polygon fill="midnightblue" stroke="midnightblue" points="792.93,-77.24 782.46,-75.61 789.63,-83.41 792.93,-77.24"/>
</g>
<!-- Node12 -->
<g id="node12" class="node">
<title>Node12</title>
<g id="a_node12"><a xlink:href="dh2operator_8h.html" target="_top" xlink:title=" ">
<polygon fill="white" stroke="black" points="162.5,-168.5 162.5,-187.5 247.5,-187.5 247.5,-168.5 162.5,-168.5"/>
<text text-anchor="middle" x="205" y="-175.5" font-family="Helvetica,sans-Serif" font-size="10.00">dh2operator.h</text>
</a>
</g>
</g>
<!-- Node1&#45;&gt;Node12 -->
<g id="edge14" class="edge">
<title>Node1&#45;&gt;Node12</title>
<path fill="none" stroke="midnightblue" d="M336.53,-336.08C314.17,-309.38 247.59,-229.87 218.67,-195.32"/>
<polygon fill="midnightblue" stroke="midnightblue" points="221.28,-192.99 212.17,-187.57 215.91,-197.48 221.28,-192.99"/>
</g>
<!-- Node13 -->
<g id="node13" class="node">
<title>Node13</title>
<g id="a_node13"><a xlink:href="functions_8h.html" target="_top" xlink:title=" ">
<polygon fill="white" stroke="black" points="411.5,-280.5 411.5,-299.5 482.5,-299.5 482.5,-280.5 411.5,-280.5"/>
<text text-anchor="middle" x="447" y="-287.5" font-family="Helvetica,sans-Serif" font-size="10.00">functions.h</text>
</a>
</g>
</g>
<!-- Node1&#45;&gt;Node13 -->
<g id="edge17" class="edge">
<title>Node1&#45;&gt;Node13</title>
<path fill="none" stroke="midnightblue" d="M360.55,-336.32C376.99,-327.7 402.43,-314.36 421.47,-304.39"/>
<polygon fill="midnightblue" stroke="midnightblue" points="423.26,-307.4 430.49,-299.65 420.01,-301.2 423.26,-307.4"/>
</g>
<!-- Node25 -->
<g id="node25" class="node">
<title>Node25</title>
<g id="a_node25"><a xlink:href="spaces_8h.html" target="_top" xlink:title=" ">
<polygon fill="white" stroke="black" points="728.5,-224.5 728.5,-243.5 787.5,-243.5 787.5,-224.5 728.5,-224.5"/>
<text text-anchor="middle" x="758" y="-231.5" font-family="Helvetica,sans-Serif" font-size="10.00">spaces.h</text>
</a>
</g>
</g>
<!-- Node1&#45;&gt;Node25 -->
<g id="edge39" class="edge">
<title>Node1&#45;&gt;Node25</title>
<path fill="none" stroke="midnightblue" d="M388.5,-344.14C474.62,-341.74 660.3,-332.81 714,-300 731.57,-289.26 743.73,-268.55 750.75,-253.38"/>
<polygon fill="midnightblue" stroke="midnightblue" points="754.06,-254.53 754.78,-243.96 747.63,-251.77 754.06,-254.53"/>
</g>
<!-- Node6 -->
<g id="node6" class="node">
<title>Node6</title>
<g id="a_node6"><a xlink:title=" ">
<polygon fill="white" stroke="#bfbfbf" points="342,-112.5 342,-131.5 384,-131.5 384,-112.5 342,-112.5"/>
<text text-anchor="middle" x="363" y="-119.5" font-family="Helvetica,sans-Serif" font-size="10.00">array</text>
</a>
</g>
</g>
<!-- Node5&#45;&gt;Node6 -->
<g id="edge5" class="edge">
<title>Node5&#45;&gt;Node6</title>
<path fill="none" stroke="midnightblue" d="M347.14,-168.08C349.68,-160.85 353.36,-150.41 356.53,-141.4"/>
<polygon fill="midnightblue" stroke="midnightblue" points="359.9,-142.35 359.92,-131.75 353.3,-140.02 359.9,-142.35"/>
</g>
<!-- Node5&#45;&gt;Node7 -->
<g id="edge6" class="edge">
<title>Node5&#45;&gt;Node7</title>
<path fill="none" stroke="midnightblue" d="M321.98,-168.44C298.9,-159.48 262.44,-145.31 236.36,-135.18"/>
<polygon fill="midnightblue" stroke="midnightblue" points="237.51,-131.88 226.92,-131.52 234.98,-138.4 237.51,-131.88"/>
</g>
<!-- Node5&#45;&gt;Node11 -->
<g id="edge10" class="edge">
<title>Node5&#45;&gt;Node11</title>
<path fill="none" stroke="midnightblue" d="M338.51,-168.16C330.7,-154.33 318.8,-127.55 333,-112 361.21,-81.11 652.62,-83.06 727.31,-75.46"/>
<polygon fill="midnightblue" stroke="midnightblue" points="727.9,-78.91 737.36,-74.15 726.99,-71.97 727.9,-78.91"/>
</g>
<!-- Node8 -->
<g id="node8" class="node">
<title>Node8</title>
<g id="a_node8"><a xlink:title=" ">
<polygon fill="white" stroke="#bfbfbf" points="500.5,-0.5 500.5,-19.5 569.5,-19.5 569.5,-0.5 500.5,-0.5"/>
<text text-anchor="middle" x="535" y="-7.5" font-family="Helvetica,sans-Serif" font-size="10.00">type_traits</text>
</a>
</g>
</g>
<!-- Node7&#45;&gt;Node8 -->
<g id="edge7" class="edge">
<title>Node7&#45;&gt;Node8</title>
<path fill="none" stroke="midnightblue" d="M228.97,-112.49C264.64,-99.88 333.83,-75.6 393,-56 428.36,-44.29 468.87,-31.51 497.55,-22.58"/>
<polygon fill="midnightblue" stroke="midnightblue" points="498.67,-25.89 507.18,-19.58 496.59,-19.21 498.67,-25.89"/>
</g>
<!-- Node9 -->
<g id="node9" class="node">
<title>Node9</title>
<g id="a_node9"><a xlink:title=" ">
<polygon fill="white" stroke="#bfbfbf" points="221,-56.5 221,-75.5 299,-75.5 299,-56.5 221,-56.5"/>
<text text-anchor="middle" x="260" y="-63.5" font-family="Helvetica,sans-Serif" font-size="10.00">h2lib/basic.h</text>
</a>
</g>
</g>
<!-- Node7&#45;&gt;Node9 -->
<g id="edge8" class="edge">
<title>Node7&#45;&gt;Node9</title>
<path fill="none" stroke="midnightblue" d="M214.08,-112.08C222.17,-104.14 234.2,-92.34 243.91,-82.8"/>
<polygon fill="midnightblue" stroke="midnightblue" points="246.4,-85.25 251.09,-75.75 241.5,-80.26 246.4,-85.25"/>
</g>
<!-- Node10 -->
<g id="node10" class="node">
<title>Node10</title>
<g id="a_node10"><a xlink:title=" ">
<polygon fill="white" stroke="#bfbfbf" points="99.5,-56.5 99.5,-75.5 202.5,-75.5 202.5,-56.5 99.5,-56.5"/>
<text text-anchor="middle" x="151" y="-63.5" font-family="Helvetica,sans-Serif" font-size="10.00">h2lib/dh2matrix.h</text>
</a>
</g>
</g>
<!-- Node7&#45;&gt;Node10 -->
<g id="edge9" class="edge">
<title>Node7&#45;&gt;Node10</title>
<path fill="none" stroke="midnightblue" d="M196.08,-112.08C188.22,-104.22 176.57,-92.57 167.08,-83.08"/>
<polygon fill="midnightblue" stroke="midnightblue" points="169.3,-80.35 159.75,-75.75 164.35,-85.3 169.3,-80.35"/>
</g>
<!-- Node11&#45;&gt;Node8 -->
<g id="edge11" class="edge">
<title>Node11&#45;&gt;Node8</title>
<path fill="none" stroke="midnightblue" d="M737.28,-58.27C734.15,-57.5 731.01,-56.73 728,-56 677.08,-43.7 618.47,-30.11 579.32,-21.12"/>
<polygon fill="midnightblue" stroke="midnightblue" points="580.08,-17.71 569.55,-18.88 578.52,-24.53 580.08,-17.71"/>
</g>
<!-- Node12&#45;&gt;Node6 -->
<g id="edge15" class="edge">
<title>Node12&#45;&gt;Node6</title>
<path fill="none" stroke="midnightblue" d="M230.04,-168.44C257.71,-158.99 302.31,-143.74 332.13,-133.55"/>
<polygon fill="midnightblue" stroke="midnightblue" points="333.3,-136.85 341.63,-130.3 331.03,-130.23 333.3,-136.85"/>
</g>
<!-- Node12&#45;&gt;Node7 -->
<g id="edge16" class="edge">
<title>Node12&#45;&gt;Node7</title>
<path fill="none" stroke="midnightblue" d="M205,-168.08C205,-161.01 205,-150.86 205,-141.99"/>
<polygon fill="midnightblue" stroke="midnightblue" points="208.5,-141.75 205,-131.75 201.5,-141.75 208.5,-141.75"/>
</g>
<!-- Node13&#45;&gt;Node3 -->
<g id="edge38" class="edge">
<title>Node13&#45;&gt;Node3</title>
<path fill="none" stroke="midnightblue" d="M482.53,-287.06C523.62,-283.47 592.14,-273.22 643,-244 663.67,-232.13 681.55,-211.01 692.51,-196.07"/>
<polygon fill="midnightblue" stroke="midnightblue" points="695.51,-197.9 698.41,-187.71 689.79,-193.86 695.51,-197.9"/>
</g>
<!-- Node13&#45;&gt;Node6 -->
<g id="edge37" class="edge">
<title>Node13&#45;&gt;Node6</title>
<path fill="none" stroke="midnightblue" d="M443.68,-280.25C435.88,-259.99 415.32,-208.49 393,-168 387.73,-158.44 381.06,-148.28 375.35,-140.04"/>
<polygon fill="midnightblue" stroke="midnightblue" points="378.07,-137.83 369.43,-131.69 372.35,-141.87 378.07,-137.83"/>
</g>
<!-- Node13&#45;&gt;Node7 -->
<g id="edge19" class="edge">
<title>Node13&#45;&gt;Node7</title>
<path fill="none" stroke="midnightblue" d="M411.35,-289C347.07,-286.83 212.89,-271.9 153,-188 140.04,-169.84 161.61,-149.95 180.79,-137.02"/>
<polygon fill="midnightblue" stroke="midnightblue" points="182.74,-139.92 189.3,-131.59 178.98,-134.02 182.74,-139.92"/>
</g>
<!-- Node14 -->
<g id="node14" class="node">
<title>Node14</title>
<g id="a_node14"><a xlink:title=" ">
<polygon fill="white" stroke="#bfbfbf" points="542,-224.5 542,-243.5 634,-243.5 634,-224.5 542,-224.5"/>
<text text-anchor="middle" x="588" y="-231.5" font-family="Helvetica,sans-Serif" font-size="10.00">h2lib/settings.h</text>
</a>
</g>
</g>
<!-- Node13&#45;&gt;Node14 -->
<g id="edge18" class="edge">
<title>Node13&#45;&gt;Node14</title>
<path fill="none" stroke="midnightblue" d="M469.34,-280.44C492.75,-271.48 529.74,-257.31 556.19,-247.18"/>
<polygon fill="midnightblue" stroke="midnightblue" points="557.68,-250.36 565.76,-243.52 555.17,-243.82 557.68,-250.36"/>
</g>
<!-- Node15 -->
<g id="node15" class="node">
<title>Node15</title>
<g id="a_node15"><a xlink:href="meshreader_8h.html" target="_top" xlink:title=" ">
<polygon fill="white" stroke="black" points="440,-224.5 440,-243.5 524,-243.5 524,-224.5 440,-224.5"/>
<text text-anchor="middle" x="482" y="-231.5" font-family="Helvetica,sans-Serif" font-size="10.00">meshreader.h</text>
</a>
</g>
</g>
<!-- Node13&#45;&gt;Node15 -->
<g id="edge20" class="edge">
<title>Node13&#45;&gt;Node15</title>
<path fill="none" stroke="midnightblue" d="M452.78,-280.08C457.67,-272.53 464.83,-261.49 470.83,-252.23"/>
<polygon fill="midnightblue" stroke="midnightblue" points="473.83,-254.05 476.33,-243.75 467.95,-250.24 473.83,-254.05"/>
</g>
<!-- Node15&#45;&gt;Node3 -->
<g id="edge23" class="edge">
<title>Node15&#45;&gt;Node3</title>
<path fill="none" stroke="midnightblue" d="M517.18,-224.44C559.22,-214.22 629.06,-197.23 670.39,-187.18"/>
<polygon fill="midnightblue" stroke="midnightblue" points="671.36,-190.54 680.25,-184.78 669.71,-183.74 671.36,-190.54"/>
</g>
<!-- Node15&#45;&gt;Node6 -->
<g id="edge21" class="edge">
<title>Node15&#45;&gt;Node6</title>
<path fill="none" stroke="midnightblue" d="M475.69,-224.43C465.88,-211.42 446.02,-186.28 426,-168 413.46,-156.55 397.95,-145.44 385.46,-137.13"/>
<polygon fill="midnightblue" stroke="midnightblue" points="387.27,-134.13 376.99,-131.6 383.45,-139.99 387.27,-134.13"/>
</g>
<!-- Node15&#45;&gt;Node11 -->
<g id="edge25" class="edge">
<title>Node15&#45;&gt;Node11</title>
<path fill="none" stroke="midnightblue" d="M517.41,-224.42C548.42,-216.45 594.41,-203.49 633,-188 651.08,-180.74 654.62,-176.8 672,-168 703.92,-151.84 720.87,-159.3 744,-132 755.08,-118.92 760.03,-99.77 762.23,-85.64"/>
<polygon fill="midnightblue" stroke="midnightblue" points="765.72,-85.95 763.48,-75.6 758.77,-85.09 765.72,-85.95"/>
</g>
<!-- Node16 -->
<g id="node16" class="node">
<title>Node16</title>
<g id="a_node16"><a xlink:title=" ">
<polygon fill="white" stroke="#bfbfbf" points="586,-168.5 586,-187.5 624,-187.5 624,-168.5 586,-168.5"/>
<text text-anchor="middle" x="605" y="-175.5" font-family="Helvetica,sans-Serif" font-size="10.00">map</text>
</a>
</g>
</g>
<!-- Node15&#45;&gt;Node16 -->
<g id="edge22" class="edge">
<title>Node15&#45;&gt;Node16</title>
<path fill="none" stroke="midnightblue" d="M501.49,-224.44C521.64,-215.6 553.32,-201.69 576.33,-191.59"/>
<polygon fill="midnightblue" stroke="midnightblue" points="577.85,-194.74 585.6,-187.52 575.04,-188.33 577.85,-194.74"/>
</g>
<!-- Node17 -->
<g id="node17" class="node">
<title>Node17</title>
<g id="a_node17"><a xlink:title=" ">
<polygon fill="white" stroke="#bfbfbf" points="402,-56.5 402,-75.5 446,-75.5 446,-56.5 402,-56.5"/>
<text text-anchor="middle" x="424" y="-63.5" font-family="Helvetica,sans-Serif" font-size="10.00">string</text>
</a>
</g>
</g>
<!-- Node15&#45;&gt;Node17 -->
<g id="edge24" class="edge">
<title>Node15&#45;&gt;Node17</title>
<path fill="none" stroke="midnightblue" d="M439.69,-228.83C390.17,-222.97 312.67,-210.43 295,-188 276.7,-164.78 307.03,-127.28 323,-112 342.28,-93.56 370.4,-81.88 392.07,-75.05"/>
<polygon fill="midnightblue" stroke="midnightblue" points="393.23,-78.36 401.82,-72.17 391.24,-71.65 393.23,-78.36"/>
</g>
<!-- Node18 -->
<g id="node18" class="node">
<title>Node18</title>
<g id="a_node18"><a xlink:href="linearalgebra_8h.html" target="_top" xlink:title=" ">
<polygon fill="white" stroke="black" points="478,-168.5 478,-187.5 568,-187.5 568,-168.5 478,-168.5"/>
<text text-anchor="middle" x="523" y="-175.5" font-family="Helvetica,sans-Serif" font-size="10.00">linearalgebra.h</text>
</a>
</g>
</g>
<!-- Node15&#45;&gt;Node18 -->
<g id="edge26" class="edge">
<title>Node15&#45;&gt;Node18</title>
<path fill="none" stroke="midnightblue" d="M488.77,-224.08C494.56,-216.46 503.06,-205.26 510.14,-195.94"/>
<polygon fill="midnightblue" stroke="midnightblue" points="513.1,-197.83 516.36,-187.75 507.52,-193.6 513.1,-197.83"/>
</g>
<!-- Node18&#45;&gt;Node6 -->
<g id="edge27" class="edge">
<title>Node18&#45;&gt;Node6</title>
<path fill="none" stroke="midnightblue" d="M497.65,-168.44C469.46,-158.93 423.95,-143.57 393.75,-133.38"/>
<polygon fill="midnightblue" stroke="midnightblue" points="394.74,-130.02 384.15,-130.14 392.5,-136.65 394.74,-130.02"/>
</g>
<!-- Node19 -->
<g id="node19" class="node">
<title>Node19</title>
<g id="a_node19"><a xlink:title=" ">
<polygon fill="white" stroke="#bfbfbf" points="493.5,-112.5 493.5,-131.5 552.5,-131.5 552.5,-112.5 493.5,-112.5"/>
<text text-anchor="middle" x="523" y="-119.5" font-family="Helvetica,sans-Serif" font-size="10.00">complex</text>
</a>
</g>
</g>
<!-- Node18&#45;&gt;Node19 -->
<g id="edge28" class="edge">
<title>Node18&#45;&gt;Node19</title>
<path fill="none" stroke="midnightblue" d="M523,-168.08C523,-161.01 523,-150.86 523,-141.99"/>
<polygon fill="midnightblue" stroke="midnightblue" points="526.5,-141.75 523,-131.75 519.5,-141.75 526.5,-141.75"/>
</g>
<!-- Node20 -->
<g id="node20" class="node">
<title>Node20</title>
<g id="a_node20"><a xlink:title=" ">
<polygon fill="white" stroke="#bfbfbf" points="571,-112.5 571,-131.5 627,-131.5 627,-112.5 571,-112.5"/>
<text text-anchor="middle" x="599" y="-119.5" font-family="Helvetica,sans-Serif" font-size="10.00">numeric</text>
</a>
</g>
</g>
<!-- Node18&#45;&gt;Node20 -->
<g id="edge29" class="edge">
<title>Node18&#45;&gt;Node20</title>
<path fill="none" stroke="midnightblue" d="M535.21,-168.32C546.78,-160.11 564.38,-147.6 578.16,-137.81"/>
<polygon fill="midnightblue" stroke="midnightblue" points="580.44,-140.48 586.57,-131.83 576.39,-134.77 580.44,-140.48"/>
</g>
<!-- Node21 -->
<g id="node21" class="node">
<title>Node21</title>
<g id="a_node21"><a xlink:href="logger_8h.html" target="_top" xlink:title=" ">
<polygon fill="white" stroke="black" points="645,-112.5 645,-131.5 735,-131.5 735,-112.5 645,-112.5"/>
<text text-anchor="middle" x="690" y="-119.5" font-family="Helvetica,sans-Serif" font-size="10.00">logger/logger.h</text>
</a>
</g>
</g>
<!-- Node18&#45;&gt;Node21 -->
<g id="edge30" class="edge">
<title>Node18&#45;&gt;Node21</title>
<path fill="none" stroke="midnightblue" d="M549.46,-168.44C577.68,-159.32 622.54,-144.81 653.97,-134.65"/>
<polygon fill="midnightblue" stroke="midnightblue" points="655.22,-137.92 663.66,-131.52 653.07,-131.26 655.22,-137.92"/>
</g>
<!-- Node24 -->
<g id="node24" class="node">
<title>Node24</title>
<g id="a_node24"><a xlink:href="constants_8h.html" target="_top" xlink:title=" ">
<polygon fill="white" stroke="black" points="402.5,-112.5 402.5,-131.5 475.5,-131.5 475.5,-112.5 402.5,-112.5"/>
<text text-anchor="middle" x="439" y="-119.5" font-family="Helvetica,sans-Serif" font-size="10.00">constants.h</text>
</a>
</g>
</g>
<!-- Node18&#45;&gt;Node24 -->
<g id="edge35" class="edge">
<title>Node18&#45;&gt;Node24</title>
<path fill="none" stroke="midnightblue" d="M509.5,-168.32C496.4,-159.9 476.29,-146.97 460.89,-137.07"/>
<polygon fill="midnightblue" stroke="midnightblue" points="462.77,-134.12 452.46,-131.65 458.98,-140.01 462.77,-134.12"/>
</g>
<!-- Node21&#45;&gt;Node8 -->
<g id="edge31" class="edge">
<title>Node21&#45;&gt;Node8</title>
<path fill="none" stroke="midnightblue" d="M651.47,-112.48C616.25,-103.96 567.65,-90.13 554,-76 542.14,-63.72 537.62,-44.46 535.93,-30.09"/>
<polygon fill="midnightblue" stroke="midnightblue" points="539.4,-29.52 535.1,-19.84 532.42,-30.09 539.4,-29.52"/>
</g>
<!-- Node21&#45;&gt;Node11 -->
<g id="edge33" class="edge">
<title>Node21&#45;&gt;Node11</title>
<path fill="none" stroke="midnightblue" d="M701.89,-112.32C713.15,-104.11 730.29,-91.6 743.71,-81.81"/>
<polygon fill="midnightblue" stroke="midnightblue" points="745.88,-84.56 751.89,-75.83 741.75,-78.9 745.88,-84.56"/>
</g>
<!-- Node22 -->
<g id="node22" class="node">
<title>Node22</title>
<g id="a_node22"><a xlink:title=" ">
<polygon fill="white" stroke="#bfbfbf" points="661,-56.5 661,-75.5 719,-75.5 719,-56.5 661,-56.5"/>
<text text-anchor="middle" x="690" y="-63.5" font-family="Helvetica,sans-Serif" font-size="10.00">memory</text>
</a>
</g>
</g>
<!-- Node21&#45;&gt;Node22 -->
<g id="edge32" class="edge">
<title>Node21&#45;&gt;Node22</title>
<path fill="none" stroke="midnightblue" d="M690,-112.08C690,-105.01 690,-94.86 690,-85.99"/>
<polygon fill="midnightblue" stroke="midnightblue" points="693.5,-85.75 690,-75.75 686.5,-85.75 693.5,-85.75"/>
</g>
<!-- Node23 -->
<g id="node23" class="node">
<title>Node23</title>
<g id="a_node23"><a xlink:title=" ">
<polygon fill="white" stroke="#bfbfbf" points="563,-56.5 563,-75.5 643,-75.5 643,-56.5 563,-56.5"/>
<text text-anchor="middle" x="603" y="-63.5" font-family="Helvetica,sans-Serif" font-size="10.00">logger.levels</text>
</a>
</g>
</g>
<!-- Node21&#45;&gt;Node23 -->
<g id="edge34" class="edge">
<title>Node21&#45;&gt;Node23</title>
<path fill="none" stroke="midnightblue" d="M676.02,-112.32C662.45,-103.9 641.62,-90.97 625.68,-81.07"/>
<polygon fill="midnightblue" stroke="midnightblue" points="627.29,-77.95 616.94,-75.65 623.59,-83.9 627.29,-77.95"/>
</g>
<!-- Node24&#45;&gt;Node17 -->
<g id="edge36" class="edge">
<title>Node24&#45;&gt;Node17</title>
<path fill="none" stroke="midnightblue" d="M436.52,-112.08C434.51,-104.85 431.61,-94.41 429.11,-85.4"/>
<polygon fill="midnightblue" stroke="midnightblue" points="432.48,-84.45 426.43,-75.75 425.74,-86.32 432.48,-84.45"/>
</g>
<!-- Node25&#45;&gt;Node3 -->
<g id="edge41" class="edge">
<title>Node25&#45;&gt;Node3</title>
<path fill="none" stroke="midnightblue" d="M749.08,-224.08C741.22,-216.22 729.57,-204.57 720.08,-195.08"/>
<polygon fill="midnightblue" stroke="midnightblue" points="722.3,-192.35 712.75,-187.75 717.35,-197.3 722.3,-192.35"/>
</g>
<!-- Node25&#45;&gt;Node5 -->
<g id="edge43" class="edge">
<title>Node25&#45;&gt;Node5</title>
<path fill="none" stroke="midnightblue" d="M728.23,-229.12C658.03,-219.96 481.55,-196.94 394.36,-185.57"/>
<polygon fill="midnightblue" stroke="midnightblue" points="394.55,-182.06 384.18,-184.24 393.64,-189 394.55,-182.06"/>
</g>
<!-- Node25&#45;&gt;Node6 -->
<g id="edge40" class="edge">
<title>Node25&#45;&gt;Node6</title>
<path fill="none" stroke="midnightblue" d="M757.99,-224.19C757.45,-209.91 754.13,-181.89 737,-168 677.48,-119.72 469.21,-146.74 394,-132 393.9,-131.98 393.8,-131.96 393.7,-131.94"/>
<polygon fill="midnightblue" stroke="midnightblue" points="394.76,-128.59 384.22,-129.7 393.15,-135.41 394.76,-128.59"/>
</g>
<!-- Node25&#45;&gt;Node11 -->
<g id="edge44" class="edge">
<title>Node25&#45;&gt;Node11</title>
<path fill="none" stroke="midnightblue" d="M765.41,-224.41C772.28,-215.84 782.01,-201.98 786,-188 796.27,-152.05 782.2,-108.68 772.28,-84.85"/>
<polygon fill="midnightblue" stroke="midnightblue" points="775.47,-83.39 768.24,-75.64 769.05,-86.21 775.47,-83.39"/>
</g>
<!-- Node25&#45;&gt;Node21 -->
<g id="edge42" class="edge">
<title>Node25&#45;&gt;Node21</title>
<path fill="none" stroke="midnightblue" d="M763.07,-224.37C770.03,-211.28 780.54,-186.03 770,-168 761.14,-152.85 745.09,-142.41 729.69,-135.42"/>
<polygon fill="midnightblue" stroke="midnightblue" points="730.83,-132.11 720.25,-131.51 728.15,-138.57 730.83,-132.11"/>
</g>
</g>
</svg>
