<?xml version="1.0" encoding="UTF-8" standalone="no"?>
<!DOCTYPE svg PUBLIC "-//W3C//DTD SVG 1.1//EN"
 "http://www.w3.org/Graphics/SVG/1.1/DTD/svg11.dtd">
<!-- Generated by graphviz version 2.43.0 (0)
 -->
<!-- Title: main/surface.cpp Pages: 1 -->
<svg width="1969pt" height="420pt"
 viewBox="0.00 0.00 1968.66 420.00" xmlns="http://www.w3.org/2000/svg" xmlns:xlink="http://www.w3.org/1999/xlink">
<g id="graph0" class="graph" transform="scale(1 1) rotate(0) translate(4 416)">
<title>main/surface.cpp</title>
<polygon fill="white" stroke="transparent" points="-4,4 -4,-416 1964.66,-416 1964.66,4 -4,4"/>
<!-- Node1 -->
<g id="node1" class="node">
<title>Node1</title>
<g id="a_node1"><a xlink:title=" ">
<polygon fill="#bfbfbf" stroke="black" points="977,-392.5 977,-411.5 1078,-411.5 1078,-392.5 977,-392.5"/>
<text text-anchor="middle" x="1027.5" y="-399.5" font-family="Helvetica,sans-Serif" font-size="10.00">main/surface.cpp</text>
</a>
</g>
</g>
<!-- Node2 -->
<g id="node2" class="node">
<title>Node2</title>
<g id="a_node2"><a xlink:title=" ">
<polygon fill="white" stroke="#bfbfbf" points="0,-336.5 0,-355.5 131,-355.5 131,-336.5 0,-336.5"/>
<text text-anchor="middle" x="65.5" y="-343.5" font-family="Helvetica,sans-Serif" font-size="10.00">bits/iterator_concepts.h</text>
</a>
</g>
</g>
<!-- Node1&#45;&gt;Node2 -->
<g id="edge1" class="edge">
<title>Node1&#45;&gt;Node2</title>
<path fill="none" stroke="midnightblue" d="M976.91,-399.65C842.65,-395.81 465.97,-383.34 141.39,-356.01"/>
<polygon fill="midnightblue" stroke="midnightblue" points="141.58,-352.52 131.32,-355.16 140.99,-359.49 141.58,-352.52"/>
</g>
<!-- Node3 -->
<g id="node3" class="node">
<title>Node3</title>
<g id="a_node3"><a xlink:title=" ">
<polygon fill="white" stroke="#bfbfbf" points="149.5,-336.5 149.5,-355.5 201.5,-355.5 201.5,-336.5 149.5,-336.5"/>
<text text-anchor="middle" x="175.5" y="-343.5" font-family="Helvetica,sans-Serif" font-size="10.00">cassert</text>
</a>
</g>
</g>
<!-- Node1&#45;&gt;Node3 -->
<g id="edge2" class="edge">
<title>Node1&#45;&gt;Node3</title>
<path fill="none" stroke="midnightblue" d="M976.94,-401.65C849.66,-402.57 505.78,-400.48 211.76,-355.88"/>
<polygon fill="midnightblue" stroke="midnightblue" points="212.17,-352.4 201.76,-354.34 211.11,-359.32 212.17,-352.4"/>
</g>
<!-- Node4 -->
<g id="node4" class="node">
<title>Node4</title>
<g id="a_node4"><a xlink:title=" ">
<polygon fill="white" stroke="#bfbfbf" points="220,-336.5 220,-355.5 273,-355.5 273,-336.5 220,-336.5"/>
<text text-anchor="middle" x="246.5" y="-343.5" font-family="Helvetica,sans-Serif" font-size="10.00">cstddef</text>
</a>
</g>
</g>
<!-- Node1&#45;&gt;Node4 -->
<g id="edge3" class="edge">
<title>Node1&#45;&gt;Node4</title>
<path fill="none" stroke="midnightblue" d="M976.93,-401.27C857.52,-401.21 548.71,-396.88 283.36,-356.01"/>
<polygon fill="midnightblue" stroke="midnightblue" points="283.56,-352.5 273.14,-354.41 282.48,-359.41 283.56,-352.5"/>
</g>
<!-- Node5 -->
<g id="node5" class="node">
<title>Node5</title>
<g id="a_node5"><a xlink:title=" ">
<polygon fill="white" stroke="#bfbfbf" points="291,-336.5 291,-355.5 422,-355.5 422,-336.5 291,-336.5"/>
<text text-anchor="middle" x="356.5" y="-343.5" font-family="Helvetica,sans-Serif" font-size="10.00">h2lib/clustergeometry.h</text>
</a>
</g>
</g>
<!-- Node1&#45;&gt;Node5 -->
<g id="edge4" class="edge">
<title>Node1&#45;&gt;Node5</title>
<path fill="none" stroke="midnightblue" d="M976.72,-397.96C875.29,-391.72 640.2,-376.39 432.44,-356.15"/>
<polygon fill="midnightblue" stroke="midnightblue" points="432.54,-352.65 422.25,-355.16 431.86,-359.61 432.54,-352.65"/>
</g>
<!-- Node6 -->
<g id="node6" class="node">
<title>Node6</title>
<g id="a_node6"><a xlink:title=" ">
<polygon fill="white" stroke="#bfbfbf" points="440,-336.5 440,-355.5 525,-355.5 525,-336.5 440,-336.5"/>
<text text-anchor="middle" x="482.5" y="-343.5" font-family="Helvetica,sans-Serif" font-size="10.00">h2lib/dblock.h</text>
</a>
</g>
</g>
<!-- Node1&#45;&gt;Node6 -->
<g id="edge5" class="edge">
<title>Node1&#45;&gt;Node6</title>
<path fill="none" stroke="midnightblue" d="M976.85,-397.79C888.96,-391.92 702.31,-378.1 535.01,-356.11"/>
<polygon fill="midnightblue" stroke="midnightblue" points="535.41,-352.63 525.04,-354.78 534.49,-359.57 535.41,-352.63"/>
</g>
<!-- Node7 -->
<g id="node7" class="node">
<title>Node7</title>
<g id="a_node7"><a xlink:title=" ">
<polygon fill="white" stroke="#bfbfbf" points="543,-336.5 543,-355.5 660,-355.5 660,-336.5 543,-336.5"/>
<text text-anchor="middle" x="601.5" y="-343.5" font-family="Helvetica,sans-Serif" font-size="10.00">h2lib/dclusterbasis.h</text>
</a>
</g>
</g>
<!-- Node1&#45;&gt;Node7 -->
<g id="edge6" class="edge">
<title>Node1&#45;&gt;Node7</title>
<path fill="none" stroke="midnightblue" d="M976.95,-394.81C909.4,-386.5 785.7,-371.17 670.38,-356.24"/>
<polygon fill="midnightblue" stroke="midnightblue" points="670.69,-352.75 660.32,-354.93 669.79,-359.69 670.69,-352.75"/>
</g>
<!-- Node8 -->
<g id="node8" class="node">
<title>Node8</title>
<g id="a_node8"><a xlink:title=" ">
<polygon fill="white" stroke="#bfbfbf" points="678,-336.5 678,-355.5 811,-355.5 811,-336.5 678,-336.5"/>
<text text-anchor="middle" x="744.5" y="-343.5" font-family="Helvetica,sans-Serif" font-size="10.00">h2lib/dh2compression.h</text>
</a>
</g>
</g>
<!-- Node1&#45;&gt;Node8 -->
<g id="edge7" class="edge">
<title>Node1&#45;&gt;Node8</title>
<path fill="none" stroke="midnightblue" d="M982.66,-392.44C932.88,-382.94 852.52,-367.61 799.11,-357.42"/>
<polygon fill="midnightblue" stroke="midnightblue" points="799.61,-353.95 789.13,-355.52 798.3,-360.83 799.61,-353.95"/>
</g>
<!-- Node9 -->
<g id="node9" class="node">
<title>Node9</title>
<g id="a_node9"><a xlink:title=" ">
<polygon fill="white" stroke="#bfbfbf" points="829,-336.5 829,-355.5 942,-355.5 942,-336.5 829,-336.5"/>
<text text-anchor="middle" x="885.5" y="-343.5" font-family="Helvetica,sans-Serif" font-size="10.00">h2lib/helmholtz3d.h</text>
</a>
</g>
</g>
<!-- Node1&#45;&gt;Node9 -->
<g id="edge8" class="edge">
<title>Node1&#45;&gt;Node9</title>
<path fill="none" stroke="midnightblue" d="M1005,-392.44C981.42,-383.48 944.18,-369.31 917.54,-359.18"/>
<polygon fill="midnightblue" stroke="midnightblue" points="918.49,-355.8 907.9,-355.52 916,-362.34 918.49,-355.8"/>
</g>
<!-- Node10 -->
<g id="node10" class="node">
<title>Node10</title>
<g id="a_node10"><a xlink:title=" ">
<polygon fill="white" stroke="#bfbfbf" points="1189,-280.5 1189,-299.5 1290,-299.5 1290,-280.5 1189,-280.5"/>
<text text-anchor="middle" x="1239.5" y="-287.5" font-family="Helvetica,sans-Serif" font-size="10.00">h2lib/surface3d.h</text>
</a>
</g>
</g>
<!-- Node1&#45;&gt;Node10 -->
<g id="edge9" class="edge">
<title>Node1&#45;&gt;Node10</title>
<path fill="none" stroke="midnightblue" d="M1075.63,-392.48C1105.59,-385.72 1144.08,-374.29 1174.5,-356 1195.34,-343.47 1214.4,-322.83 1226.42,-308.17"/>
<polygon fill="midnightblue" stroke="midnightblue" points="1229.47,-309.95 1232.94,-299.94 1223.98,-305.6 1229.47,-309.95"/>
</g>
<!-- Node11 -->
<g id="node11" class="node">
<title>Node11</title>
<g id="a_node11"><a xlink:href="logger_8h.html" target="_top" xlink:title=" ">
<polygon fill="white" stroke="black" points="993.5,-112.5 993.5,-131.5 1083.5,-131.5 1083.5,-112.5 993.5,-112.5"/>
<text text-anchor="middle" x="1038.5" y="-119.5" font-family="Helvetica,sans-Serif" font-size="10.00">logger/logger.h</text>
</a>
</g>
</g>
<!-- Node1&#45;&gt;Node11 -->
<g id="edge10" class="edge">
<title>Node1&#45;&gt;Node11</title>
<path fill="none" stroke="midnightblue" d="M1024.14,-392.48C1008.66,-352.95 945.45,-188.48 957.5,-168 966.42,-152.84 982.49,-142.43 997.98,-135.46"/>
<polygon fill="midnightblue" stroke="midnightblue" points="999.56,-138.6 1007.48,-131.56 996.9,-132.12 999.56,-138.6"/>
</g>
<!-- Node14 -->
<g id="node14" class="node">
<title>Node14</title>
<g id="a_node14"><a xlink:href="enum_8h.html" target="_top" xlink:title=" ">
<polygon fill="white" stroke="black" points="1580,-56.5 1580,-75.5 1657,-75.5 1657,-56.5 1580,-56.5"/>
<text text-anchor="middle" x="1618.5" y="-63.5" font-family="Helvetica,sans-Serif" font-size="10.00">utils/enum.h</text>
</a>
</g>
</g>
<!-- Node1&#45;&gt;Node14 -->
<g id="edge20" class="edge">
<title>Node1&#45;&gt;Node14</title>
<path fill="none" stroke="midnightblue" d="M1078.02,-400.12C1264.69,-396.66 1906.45,-382.86 1940.5,-356 1964.13,-337.36 1959.5,-321.1 1959.5,-291 1959.5,-291 1959.5,-291 1959.5,-177 1959.5,-116.37 1761.76,-84.29 1667.44,-72.44"/>
<polygon fill="midnightblue" stroke="midnightblue" points="1667.64,-68.94 1657.29,-71.19 1666.78,-75.89 1667.64,-68.94"/>
</g>
<!-- Node16 -->
<g id="node16" class="node">
<title>Node16</title>
<g id="a_node16"><a xlink:href="cutils_8h.html" target="_top" xlink:title=" ">
<polygon fill="white" stroke="black" points="1253.5,-112.5 1253.5,-131.5 1329.5,-131.5 1329.5,-112.5 1253.5,-112.5"/>
<text text-anchor="middle" x="1291.5" y="-119.5" font-family="Helvetica,sans-Serif" font-size="10.00">utils/cutils.h</text>
</a>
</g>
</g>
<!-- Node1&#45;&gt;Node16 -->
<g id="edge16" class="edge">
<title>Node1&#45;&gt;Node16</title>
<path fill="none" stroke="midnightblue" d="M1035.67,-392.38C1051.43,-374.81 1084.5,-332.94 1084.5,-291 1084.5,-291 1084.5,-291 1084.5,-233 1084.5,-198.61 1098.74,-188.31 1126.5,-168 1136.19,-160.91 1199.52,-144.81 1244.83,-133.92"/>
<polygon fill="midnightblue" stroke="midnightblue" points="1245.85,-137.27 1254.77,-131.55 1244.23,-130.47 1245.85,-137.27"/>
</g>
<!-- Node19 -->
<g id="node19" class="node">
<title>Node19</title>
<g id="a_node19"><a xlink:href="functionals_8h.html" target="_top" xlink:title=" ">
<polygon fill="white" stroke="black" points="700.5,-224.5 700.5,-243.5 804.5,-243.5 804.5,-224.5 700.5,-224.5"/>
<text text-anchor="middle" x="752.5" y="-231.5" font-family="Helvetica,sans-Serif" font-size="10.00">utils/functionals.h</text>
</a>
</g>
</g>
<!-- Node1&#45;&gt;Node19 -->
<g id="edge21" class="edge">
<title>Node1&#45;&gt;Node19</title>
<path fill="none" stroke="midnightblue" d="M1018.57,-392.26C1004.75,-379.04 977.02,-353.62 950.5,-336 894.2,-298.6 822.25,-265.1 782.42,-247.67"/>
<polygon fill="midnightblue" stroke="midnightblue" points="783.59,-244.35 773.02,-243.59 780.8,-250.78 783.59,-244.35"/>
</g>
<!-- Node21 -->
<g id="node21" class="node">
<title>Node21</title>
<g id="a_node21"><a xlink:href="options_8h.html" target="_top" xlink:title=" ">
<polygon fill="white" stroke="black" points="755,-168.5 755,-187.5 844,-187.5 844,-168.5 755,-168.5"/>
<text text-anchor="middle" x="799.5" y="-175.5" font-family="Helvetica,sans-Serif" font-size="10.00">main/options.h</text>
</a>
</g>
</g>
<!-- Node1&#45;&gt;Node21 -->
<g id="edge38" class="edge">
<title>Node1&#45;&gt;Node21</title>
<path fill="none" stroke="midnightblue" d="M1021.68,-392.14C1013,-379.2 995.81,-354.64 978.5,-336 925.57,-279 853.73,-220.96 819.39,-194.21"/>
<polygon fill="midnightblue" stroke="midnightblue" points="821.17,-191.17 811.12,-187.82 816.88,-196.7 821.17,-191.17"/>
</g>
<!-- Node29 -->
<g id="node29" class="node">
<title>Node29</title>
<g id="a_node29"><a xlink:href="dh2operator_8h.html" target="_top" xlink:title=" ">
<polygon fill="white" stroke="black" points="1253,-224.5 1253,-243.5 1338,-243.5 1338,-224.5 1253,-224.5"/>
<text text-anchor="middle" x="1295.5" y="-231.5" font-family="Helvetica,sans-Serif" font-size="10.00">dh2operator.h</text>
</a>
</g>
</g>
<!-- Node1&#45;&gt;Node29 -->
<g id="edge35" class="edge">
<title>Node1&#45;&gt;Node29</title>
<path fill="none" stroke="midnightblue" d="M1053.3,-392.45C1073.31,-384.96 1101,-372.67 1121.5,-356 1154.47,-329.19 1145.53,-305.53 1179.5,-280 1200.18,-264.46 1226.9,-253.61 1249.49,-246.46"/>
<polygon fill="midnightblue" stroke="midnightblue" points="1250.64,-249.77 1259.21,-243.53 1248.62,-243.07 1250.64,-249.77"/>
</g>
<!-- Node31 -->
<g id="node31" class="node">
<title>Node31</title>
<g id="a_node31"><a xlink:href="meshreader_8h.html" target="_top" xlink:title=" ">
<polygon fill="white" stroke="black" points="1150.5,-224.5 1150.5,-243.5 1234.5,-243.5 1234.5,-224.5 1150.5,-224.5"/>
<text text-anchor="middle" x="1192.5" y="-231.5" font-family="Helvetica,sans-Serif" font-size="10.00">meshreader.h</text>
</a>
</g>
</g>
<!-- Node1&#45;&gt;Node31 -->
<g id="edge39" class="edge">
<title>Node1&#45;&gt;Node31</title>
<path fill="none" stroke="midnightblue" d="M1045.68,-392.37C1061.03,-384.45 1082.93,-371.59 1098.5,-356 1126.73,-327.73 1121.38,-311.07 1146.5,-280 1155,-269.49 1165.73,-258.86 1174.7,-250.58"/>
<polygon fill="midnightblue" stroke="midnightblue" points="1177.24,-253 1182.32,-243.7 1172.55,-247.8 1177.24,-253"/>
</g>
<!-- Node38 -->
<g id="node38" class="node">
<title>Node38</title>
<g id="a_node38"><a xlink:href="orient_8h.html" target="_top" xlink:title=" ">
<polygon fill="white" stroke="black" points="1790.5,-280.5 1790.5,-299.5 1844.5,-299.5 1844.5,-280.5 1790.5,-280.5"/>
<text text-anchor="middle" x="1817.5" y="-287.5" font-family="Helvetica,sans-Serif" font-size="10.00">orient.h</text>
</a>
</g>
</g>
<!-- Node1&#45;&gt;Node38 -->
<g id="edge52" class="edge">
<title>Node1&#45;&gt;Node38</title>
<path fill="none" stroke="midnightblue" d="M1078.1,-398.89C1170.05,-394.53 1370.5,-382.62 1537.5,-356 1625.7,-341.94 1727.42,-315.77 1780.66,-301.3"/>
<polygon fill="midnightblue" stroke="midnightblue" points="1781.61,-304.66 1790.33,-298.65 1779.76,-297.91 1781.61,-304.66"/>
</g>
<!-- Node39 -->
<g id="node39" class="node">
<title>Node39</title>
<g id="a_node39"><a xlink:href="spaces_8h.html" target="_top" xlink:title=" ">
<polygon fill="white" stroke="black" points="1695,-224.5 1695,-243.5 1754,-243.5 1754,-224.5 1695,-224.5"/>
<text text-anchor="middle" x="1724.5" y="-231.5" font-family="Helvetica,sans-Serif" font-size="10.00">spaces.h</text>
</a>
</g>
</g>
<!-- Node1&#45;&gt;Node39 -->
<g id="edge54" class="edge">
<title>Node1&#45;&gt;Node39</title>
<path fill="none" stroke="midnightblue" d="M1078.12,-398.83C1250.21,-390.93 1804.71,-360.87 1853.5,-300 1880.75,-266 1811.59,-248.21 1764.33,-240.29"/>
<polygon fill="midnightblue" stroke="midnightblue" points="1764.75,-236.81 1754.33,-238.7 1763.66,-243.73 1764.75,-236.81"/>
</g>
<!-- Node41 -->
<g id="node41" class="node">
<title>Node41</title>
<g id="a_node41"><a xlink:href="surfacehelpers_8h.html" target="_top" xlink:title=" ">
<polygon fill="white" stroke="black" points="1833.5,-336.5 1833.5,-355.5 1931.5,-355.5 1931.5,-336.5 1833.5,-336.5"/>
<text text-anchor="middle" x="1882.5" y="-343.5" font-family="Helvetica,sans-Serif" font-size="10.00">surfacehelpers.h</text>
</a>
</g>
</g>
<!-- Node1&#45;&gt;Node41 -->
<g id="edge63" class="edge">
<title>Node1&#45;&gt;Node41</title>
<path fill="none" stroke="midnightblue" d="M1078.11,-399.62C1203.82,-395.86 1540.27,-383.83 1819.5,-356 1820.77,-355.87 1822.05,-355.74 1823.34,-355.6"/>
<polygon fill="midnightblue" stroke="midnightblue" points="1823.84,-359.07 1833.37,-354.43 1823.03,-352.11 1823.84,-359.07"/>
</g>
<!-- Node42 -->
<g id="node42" class="node">
<title>Node42</title>
<g id="a_node42"><a xlink:href="surface_8h.html" target="_top" xlink:title=" ">
<polygon fill="white" stroke="black" points="1466.5,-336.5 1466.5,-355.5 1528.5,-355.5 1528.5,-336.5 1466.5,-336.5"/>
<text text-anchor="middle" x="1497.5" y="-343.5" font-family="Helvetica,sans-Serif" font-size="10.00">surface.h</text>
</a>
</g>
</g>
<!-- Node1&#45;&gt;Node42 -->
<g id="edge64" class="edge">
<title>Node1&#45;&gt;Node42</title>
<path fill="none" stroke="midnightblue" d="M1078.24,-395.17C1171.9,-384.41 1370.17,-361.63 1456.22,-351.74"/>
<polygon fill="midnightblue" stroke="midnightblue" points="1456.85,-355.19 1466.38,-350.58 1456.05,-348.24 1456.85,-355.19"/>
</g>
<!-- Node12 -->
<g id="node12" class="node">
<title>Node12</title>
<g id="a_node12"><a xlink:title=" ">
<polygon fill="white" stroke="#bfbfbf" points="1061,-0.5 1061,-19.5 1130,-19.5 1130,-0.5 1061,-0.5"/>
<text text-anchor="middle" x="1095.5" y="-7.5" font-family="Helvetica,sans-Serif" font-size="10.00">type_traits</text>
</a>
</g>
</g>
<!-- Node11&#45;&gt;Node12 -->
<g id="edge11" class="edge">
<title>Node11&#45;&gt;Node12</title>
<path fill="none" stroke="midnightblue" d="M1029.06,-112.27C1016.43,-99.48 996.87,-75.11 1008.5,-56 1018.03,-40.34 1034.97,-29.88 1051.39,-23.03"/>
<polygon fill="midnightblue" stroke="midnightblue" points="1052.83,-26.23 1060.93,-19.4 1050.34,-19.69 1052.83,-26.23"/>
</g>
<!-- Node13 -->
<g id="node13" class="node">
<title>Node13</title>
<g id="a_node13"><a xlink:title=" ">
<polygon fill="white" stroke="#bfbfbf" points="1017.5,-56.5 1017.5,-75.5 1075.5,-75.5 1075.5,-56.5 1017.5,-56.5"/>
<text text-anchor="middle" x="1046.5" y="-63.5" font-family="Helvetica,sans-Serif" font-size="10.00">memory</text>
</a>
</g>
</g>
<!-- Node11&#45;&gt;Node13 -->
<g id="edge12" class="edge">
<title>Node11&#45;&gt;Node13</title>
<path fill="none" stroke="midnightblue" d="M1039.82,-112.08C1040.88,-104.93 1042.41,-94.64 1043.73,-85.69"/>
<polygon fill="midnightblue" stroke="midnightblue" points="1047.2,-86.16 1045.2,-75.75 1040.28,-85.13 1047.2,-86.16"/>
</g>
<!-- Node11&#45;&gt;Node14 -->
<g id="edge13" class="edge">
<title>Node11&#45;&gt;Node14</title>
<path fill="none" stroke="midnightblue" d="M1083.54,-113.22C1086.57,-112.78 1089.58,-112.37 1092.5,-112 1267.4,-89.98 1476.41,-75.65 1569.54,-69.88"/>
<polygon fill="midnightblue" stroke="midnightblue" points="1570.02,-73.36 1579.78,-69.25 1569.59,-66.37 1570.02,-73.36"/>
</g>
<!-- Node15 -->
<g id="node15" class="node">
<title>Node15</title>
<g id="a_node15"><a xlink:title=" ">
<polygon fill="white" stroke="#bfbfbf" points="1093.5,-56.5 1093.5,-75.5 1173.5,-75.5 1173.5,-56.5 1093.5,-56.5"/>
<text text-anchor="middle" x="1133.5" y="-63.5" font-family="Helvetica,sans-Serif" font-size="10.00">logger.levels</text>
</a>
</g>
</g>
<!-- Node11&#45;&gt;Node15 -->
<g id="edge15" class="edge">
<title>Node11&#45;&gt;Node15</title>
<path fill="none" stroke="midnightblue" d="M1053.76,-112.32C1068.72,-103.82 1091.75,-90.73 1109.23,-80.8"/>
<polygon fill="midnightblue" stroke="midnightblue" points="1111.31,-83.64 1118.27,-75.65 1107.85,-77.55 1111.31,-83.64"/>
</g>
<!-- Node14&#45;&gt;Node12 -->
<g id="edge14" class="edge">
<title>Node14&#45;&gt;Node12</title>
<path fill="none" stroke="midnightblue" d="M1579.62,-60.99C1484.62,-51.18 1241.13,-26.04 1140.29,-15.62"/>
<polygon fill="midnightblue" stroke="midnightblue" points="1140.43,-12.12 1130.13,-14.58 1139.72,-19.08 1140.43,-12.12"/>
</g>
<!-- Node16&#45;&gt;Node12 -->
<g id="edge17" class="edge">
<title>Node16&#45;&gt;Node12</title>
<path fill="none" stroke="midnightblue" d="M1277.55,-112.31C1256.97,-99.58 1217.16,-75.28 1182.5,-56 1162.44,-44.84 1139.34,-32.94 1121.99,-24.18"/>
<polygon fill="midnightblue" stroke="midnightblue" points="1123.5,-21.02 1113,-19.66 1120.36,-27.28 1123.5,-21.02"/>
</g>
<!-- Node17 -->
<g id="node17" class="node">
<title>Node17</title>
<g id="a_node17"><a xlink:title=" ">
<polygon fill="white" stroke="#bfbfbf" points="1237.5,-56.5 1237.5,-75.5 1315.5,-75.5 1315.5,-56.5 1237.5,-56.5"/>
<text text-anchor="middle" x="1276.5" y="-63.5" font-family="Helvetica,sans-Serif" font-size="10.00">h2lib/basic.h</text>
</a>
</g>
</g>
<!-- Node16&#45;&gt;Node17 -->
<g id="edge18" class="edge">
<title>Node16&#45;&gt;Node17</title>
<path fill="none" stroke="midnightblue" d="M1289.02,-112.08C1287.01,-104.85 1284.11,-94.41 1281.61,-85.4"/>
<polygon fill="midnightblue" stroke="midnightblue" points="1284.98,-84.45 1278.93,-75.75 1278.24,-86.32 1284.98,-84.45"/>
</g>
<!-- Node18 -->
<g id="node18" class="node">
<title>Node18</title>
<g id="a_node18"><a xlink:title=" ">
<polygon fill="white" stroke="#bfbfbf" points="1334,-56.5 1334,-75.5 1437,-75.5 1437,-56.5 1334,-56.5"/>
<text text-anchor="middle" x="1385.5" y="-63.5" font-family="Helvetica,sans-Serif" font-size="10.00">h2lib/dh2matrix.h</text>
</a>
</g>
</g>
<!-- Node16&#45;&gt;Node18 -->
<g id="edge19" class="edge">
<title>Node16&#45;&gt;Node18</title>
<path fill="none" stroke="midnightblue" d="M1306.6,-112.32C1321.4,-103.82 1344.19,-90.73 1361.48,-80.8"/>
<polygon fill="midnightblue" stroke="midnightblue" points="1363.51,-83.67 1370.43,-75.65 1360.02,-77.6 1363.51,-83.67"/>
</g>
<!-- Node19&#45;&gt;Node12 -->
<g id="edge22" class="edge">
<title>Node19&#45;&gt;Node12</title>
<path fill="none" stroke="midnightblue" d="M700.31,-228.59C640.96,-220.46 546.61,-197.39 502.5,-132 483.61,-104 479.54,-80.77 502.5,-56 539.53,-16.05 918.49,-11.39 1050.47,-10.98"/>
<polygon fill="midnightblue" stroke="midnightblue" points="1050.65,-14.48 1060.64,-10.96 1050.63,-7.48 1050.65,-14.48"/>
</g>
<!-- Node20 -->
<g id="node20" class="node">
<title>Node20</title>
<g id="a_node20"><a xlink:title=" ">
<polygon fill="white" stroke="#bfbfbf" points="672,-168.5 672,-187.5 737,-187.5 737,-168.5 672,-168.5"/>
<text text-anchor="middle" x="704.5" y="-175.5" font-family="Helvetica,sans-Serif" font-size="10.00">functional</text>
</a>
</g>
</g>
<!-- Node19&#45;&gt;Node20 -->
<g id="edge23" class="edge">
<title>Node19&#45;&gt;Node20</title>
<path fill="none" stroke="midnightblue" d="M744.57,-224.08C737.65,-216.3 727.43,-204.8 719.05,-195.37"/>
<polygon fill="midnightblue" stroke="midnightblue" points="721.54,-192.9 712.28,-187.75 716.31,-197.55 721.54,-192.9"/>
</g>
<!-- Node19&#45;&gt;Node21 -->
<g id="edge24" class="edge">
<title>Node19&#45;&gt;Node21</title>
<path fill="none" stroke="midnightblue" d="M760.26,-224.08C767.04,-216.3 777.04,-204.8 785.26,-195.37"/>
<polygon fill="midnightblue" stroke="midnightblue" points="787.96,-197.59 791.88,-187.75 782.68,-193 787.96,-197.59"/>
</g>
<!-- Node21&#45;&gt;Node11 -->
<g id="edge28" class="edge">
<title>Node21&#45;&gt;Node11</title>
<path fill="none" stroke="midnightblue" d="M837.37,-168.44C878.98,-159.04 945.87,-143.93 990.97,-133.74"/>
<polygon fill="midnightblue" stroke="midnightblue" points="991.82,-137.13 1000.81,-131.52 990.28,-130.31 991.82,-137.13"/>
</g>
<!-- Node21&#45;&gt;Node16 -->
<g id="edge29" class="edge">
<title>Node21&#45;&gt;Node16</title>
<path fill="none" stroke="midnightblue" d="M844.19,-173.8C922.83,-167.87 1091.26,-153.91 1243.34,-132.05"/>
<polygon fill="midnightblue" stroke="midnightblue" points="1243.93,-135.5 1253.33,-130.6 1242.93,-128.58 1243.93,-135.5"/>
</g>
<!-- Node22 -->
<g id="node22" class="node">
<title>Node22</title>
<g id="a_node22"><a xlink:title=" ">
<polygon fill="white" stroke="#bfbfbf" points="770.5,-56.5 770.5,-75.5 814.5,-75.5 814.5,-56.5 770.5,-56.5"/>
<text text-anchor="middle" x="792.5" y="-63.5" font-family="Helvetica,sans-Serif" font-size="10.00">string</text>
</a>
</g>
</g>
<!-- Node21&#45;&gt;Node22 -->
<g id="edge25" class="edge">
<title>Node21&#45;&gt;Node22</title>
<path fill="none" stroke="midnightblue" d="M754.78,-168.97C703.42,-159.29 625.1,-142.98 616.5,-132 611.02,-125 611.05,-119.02 616.5,-112 634,-89.47 714.66,-76.31 760.47,-70.53"/>
<polygon fill="midnightblue" stroke="midnightblue" points="760.99,-73.99 770.5,-69.31 760.15,-67.04 760.99,-73.99"/>
</g>
<!-- Node23 -->
<g id="node23" class="node">
<title>Node23</title>
<g id="a_node23"><a xlink:title=" ">
<polygon fill="white" stroke="#bfbfbf" points="626,-112.5 626,-131.5 735,-131.5 735,-112.5 626,-112.5"/>
<text text-anchor="middle" x="680.5" y="-119.5" font-family="Helvetica,sans-Serif" font-size="10.00">h2lib/parameters.h</text>
</a>
</g>
</g>
<!-- Node21&#45;&gt;Node23 -->
<g id="edge26" class="edge">
<title>Node21&#45;&gt;Node23</title>
<path fill="none" stroke="midnightblue" d="M780.64,-168.44C761.23,-159.64 730.77,-145.81 708.54,-135.72"/>
<polygon fill="midnightblue" stroke="midnightblue" points="709.82,-132.46 699.27,-131.52 706.93,-138.84 709.82,-132.46"/>
</g>
<!-- Node24 -->
<g id="node24" class="node">
<title>Node24</title>
<g id="a_node24"><a xlink:title=" ">
<polygon fill="white" stroke="#bfbfbf" points="753.5,-112.5 753.5,-131.5 845.5,-131.5 845.5,-112.5 753.5,-112.5"/>
<text text-anchor="middle" x="799.5" y="-119.5" font-family="Helvetica,sans-Serif" font-size="10.00">h2lib/reporter.h</text>
</a>
</g>
</g>
<!-- Node21&#45;&gt;Node24 -->
<g id="edge27" class="edge">
<title>Node21&#45;&gt;Node24</title>
<path fill="none" stroke="midnightblue" d="M799.5,-168.08C799.5,-161.01 799.5,-150.86 799.5,-141.99"/>
<polygon fill="midnightblue" stroke="midnightblue" points="803,-141.75 799.5,-131.75 796,-141.75 803,-141.75"/>
</g>
<!-- Node25 -->
<g id="node25" class="node">
<title>Node25</title>
<g id="a_node25"><a xlink:href="timing_8h.html" target="_top" xlink:title=" ">
<polygon fill="white" stroke="black" points="512,-112.5 512,-131.5 569,-131.5 569,-112.5 512,-112.5"/>
<text text-anchor="middle" x="540.5" y="-119.5" font-family="Helvetica,sans-Serif" font-size="10.00">timing.h</text>
</a>
</g>
</g>
<!-- Node21&#45;&gt;Node25 -->
<g id="edge30" class="edge">
<title>Node21&#45;&gt;Node25</title>
<path fill="none" stroke="midnightblue" d="M758.49,-168.47C715.04,-159.43 644.43,-144.72 583.5,-132 582.05,-131.7 580.58,-131.39 579.09,-131.08"/>
<polygon fill="midnightblue" stroke="midnightblue" points="579.68,-127.63 569.18,-129.01 578.25,-134.48 579.68,-127.63"/>
</g>
<!-- Node25&#45;&gt;Node22 -->
<g id="edge34" class="edge">
<title>Node25&#45;&gt;Node22</title>
<path fill="none" stroke="midnightblue" d="M569.41,-114.81C616.84,-104.64 710.86,-84.5 760.33,-73.89"/>
<polygon fill="midnightblue" stroke="midnightblue" points="761.14,-77.3 770.18,-71.78 759.67,-70.46 761.14,-77.3"/>
</g>
<!-- Node26 -->
<g id="node26" class="node">
<title>Node26</title>
<g id="a_node26"><a xlink:title=" ">
<polygon fill="white" stroke="#bfbfbf" points="512,-56.5 512,-75.5 559,-75.5 559,-56.5 512,-56.5"/>
<text text-anchor="middle" x="535.5" y="-63.5" font-family="Helvetica,sans-Serif" font-size="10.00">cmath</text>
</a>
</g>
</g>
<!-- Node25&#45;&gt;Node26 -->
<g id="edge31" class="edge">
<title>Node25&#45;&gt;Node26</title>
<path fill="none" stroke="midnightblue" d="M539.67,-112.08C539.02,-105.01 538.08,-94.86 537.26,-85.99"/>
<polygon fill="midnightblue" stroke="midnightblue" points="540.72,-85.39 536.31,-75.75 533.75,-86.03 540.72,-85.39"/>
</g>
<!-- Node27 -->
<g id="node27" class="node">
<title>Node27</title>
<g id="a_node27"><a xlink:title=" ">
<polygon fill="white" stroke="#bfbfbf" points="577.5,-56.5 577.5,-75.5 621.5,-75.5 621.5,-56.5 577.5,-56.5"/>
<text text-anchor="middle" x="599.5" y="-63.5" font-family="Helvetica,sans-Serif" font-size="10.00">ctime</text>
</a>
</g>
</g>
<!-- Node25&#45;&gt;Node27 -->
<g id="edge32" class="edge">
<title>Node25&#45;&gt;Node27</title>
<path fill="none" stroke="midnightblue" d="M549.98,-112.32C558.7,-104.34 571.84,-92.31 582.4,-82.65"/>
<polygon fill="midnightblue" stroke="midnightblue" points="584.83,-85.17 589.85,-75.83 580.11,-80 584.83,-85.17"/>
</g>
<!-- Node28 -->
<g id="node28" class="node">
<title>Node28</title>
<g id="a_node28"><a xlink:title=" ">
<polygon fill="white" stroke="#bfbfbf" points="639.5,-56.5 639.5,-75.5 671.5,-75.5 671.5,-56.5 639.5,-56.5"/>
<text text-anchor="middle" x="655.5" y="-63.5" font-family="Helvetica,sans-Serif" font-size="10.00">list</text>
</a>
</g>
</g>
<!-- Node25&#45;&gt;Node28 -->
<g id="edge33" class="edge">
<title>Node25&#45;&gt;Node28</title>
<path fill="none" stroke="midnightblue" d="M558.72,-112.44C577.94,-103.42 608.39,-89.12 629.99,-78.98"/>
<polygon fill="midnightblue" stroke="midnightblue" points="631.66,-82.06 639.22,-74.64 628.68,-75.73 631.66,-82.06"/>
</g>
<!-- Node29&#45;&gt;Node16 -->
<g id="edge37" class="edge">
<title>Node29&#45;&gt;Node16</title>
<path fill="none" stroke="midnightblue" d="M1295.19,-224.37C1294.54,-206.62 1293.05,-165.67 1292.18,-141.6"/>
<polygon fill="midnightblue" stroke="midnightblue" points="1295.67,-141.46 1291.81,-131.59 1288.68,-141.71 1295.67,-141.46"/>
</g>
<!-- Node30 -->
<g id="node30" class="node">
<title>Node30</title>
<g id="a_node30"><a xlink:title=" ">
<polygon fill="white" stroke="#bfbfbf" points="1385.5,-112.5 1385.5,-131.5 1427.5,-131.5 1427.5,-112.5 1385.5,-112.5"/>
<text text-anchor="middle" x="1406.5" y="-119.5" font-family="Helvetica,sans-Serif" font-size="10.00">array</text>
</a>
</g>
</g>
<!-- Node29&#45;&gt;Node30 -->
<g id="edge36" class="edge">
<title>Node29&#45;&gt;Node30</title>
<path fill="none" stroke="midnightblue" d="M1304.21,-224.37C1322.85,-205.89 1366.85,-162.29 1390.61,-138.74"/>
<polygon fill="midnightblue" stroke="midnightblue" points="1393.19,-141.12 1397.83,-131.59 1388.26,-136.14 1393.19,-141.12"/>
</g>
<!-- Node31&#45;&gt;Node14 -->
<g id="edge44" class="edge">
<title>Node31&#45;&gt;Node14</title>
<path fill="none" stroke="midnightblue" d="M1202.48,-224.49C1217.86,-211.56 1248.51,-186.52 1276.5,-168 1281.81,-164.49 1370.51,-114.17 1376.5,-112 1441.03,-88.65 1519.82,-76.89 1569.59,-71.36"/>
<polygon fill="midnightblue" stroke="midnightblue" points="1570.19,-74.82 1579.76,-70.28 1569.44,-67.86 1570.19,-74.82"/>
</g>
<!-- Node31&#45;&gt;Node22 -->
<g id="edge43" class="edge">
<title>Node31&#45;&gt;Node22</title>
<path fill="none" stroke="midnightblue" d="M1150.08,-230.55C1101.69,-226.48 1021.05,-215.81 957.5,-188 905.38,-165.2 900.41,-145.6 854.5,-112 840.51,-101.76 824.69,-90.28 812.53,-81.48"/>
<polygon fill="midnightblue" stroke="midnightblue" points="814.56,-78.63 804.41,-75.6 810.46,-84.3 814.56,-78.63"/>
</g>
<!-- Node31&#45;&gt;Node30 -->
<g id="edge40" class="edge">
<title>Node31&#45;&gt;Node30</title>
<path fill="none" stroke="midnightblue" d="M1209.29,-224.37C1246.56,-205.21 1336.39,-159.04 1380.79,-136.22"/>
<polygon fill="midnightblue" stroke="midnightblue" points="1382.49,-139.28 1389.79,-131.59 1379.29,-133.05 1382.49,-139.28"/>
</g>
<!-- Node32 -->
<g id="node32" class="node">
<title>Node32</title>
<g id="a_node32"><a xlink:title=" ">
<polygon fill="white" stroke="#bfbfbf" points="1150.5,-168.5 1150.5,-187.5 1188.5,-187.5 1188.5,-168.5 1150.5,-168.5"/>
<text text-anchor="middle" x="1169.5" y="-175.5" font-family="Helvetica,sans-Serif" font-size="10.00">map</text>
</a>
</g>
</g>
<!-- Node31&#45;&gt;Node32 -->
<g id="edge41" class="edge">
<title>Node31&#45;&gt;Node32</title>
<path fill="none" stroke="midnightblue" d="M1188.7,-224.08C1185.59,-216.77 1181.08,-206.18 1177.21,-197.1"/>
<polygon fill="midnightblue" stroke="midnightblue" points="1180.37,-195.58 1173.23,-187.75 1173.93,-198.32 1180.37,-195.58"/>
</g>
<!-- Node33 -->
<g id="node33" class="node">
<title>Node33</title>
<g id="a_node33"><a xlink:title=" ">
<polygon fill="white" stroke="#bfbfbf" points="1475,-168.5 1475,-187.5 1522,-187.5 1522,-168.5 1475,-168.5"/>
<text text-anchor="middle" x="1498.5" y="-175.5" font-family="Helvetica,sans-Serif" font-size="10.00">vector</text>
</a>
</g>
</g>
<!-- Node31&#45;&gt;Node33 -->
<g id="edge42" class="edge">
<title>Node31&#45;&gt;Node33</title>
<path fill="none" stroke="midnightblue" d="M1234.73,-225.55C1296.03,-214.73 1408.47,-194.89 1464.66,-184.97"/>
<polygon fill="midnightblue" stroke="midnightblue" points="1465.56,-188.37 1474.8,-183.18 1464.34,-181.47 1465.56,-188.37"/>
</g>
<!-- Node34 -->
<g id="node34" class="node">
<title>Node34</title>
<g id="a_node34"><a xlink:href="linearalgebra_8h.html" target="_top" xlink:title=" ">
<polygon fill="white" stroke="black" points="966.5,-168.5 966.5,-187.5 1056.5,-187.5 1056.5,-168.5 966.5,-168.5"/>
<text text-anchor="middle" x="1011.5" y="-175.5" font-family="Helvetica,sans-Serif" font-size="10.00">linearalgebra.h</text>
</a>
</g>
</g>
<!-- Node31&#45;&gt;Node34 -->
<g id="edge45" class="edge">
<title>Node31&#45;&gt;Node34</title>
<path fill="none" stroke="midnightblue" d="M1163.82,-224.44C1132.97,-215.24 1083.77,-200.56 1049.67,-190.39"/>
<polygon fill="midnightblue" stroke="midnightblue" points="1050.63,-187.02 1040.05,-187.52 1048.63,-193.73 1050.63,-187.02"/>
</g>
<!-- Node34&#45;&gt;Node11 -->
<g id="edge49" class="edge">
<title>Node34&#45;&gt;Node11</title>
<path fill="none" stroke="midnightblue" d="M1015.96,-168.08C1019.65,-160.69 1025.02,-149.95 1029.59,-140.81"/>
<polygon fill="midnightblue" stroke="midnightblue" points="1032.78,-142.26 1034.12,-131.75 1026.52,-139.13 1032.78,-142.26"/>
</g>
<!-- Node34&#45;&gt;Node30 -->
<g id="edge46" class="edge">
<title>Node34&#45;&gt;Node30</title>
<path fill="none" stroke="midnightblue" d="M1056.81,-170.81C1137.79,-159.73 1305.39,-136.82 1375.06,-127.3"/>
<polygon fill="midnightblue" stroke="midnightblue" points="1375.94,-130.71 1385.37,-125.89 1374.99,-123.78 1375.94,-130.71"/>
</g>
<!-- Node35 -->
<g id="node35" class="node">
<title>Node35</title>
<g id="a_node35"><a xlink:title=" ">
<polygon fill="white" stroke="#bfbfbf" points="1102,-112.5 1102,-131.5 1161,-131.5 1161,-112.5 1102,-112.5"/>
<text text-anchor="middle" x="1131.5" y="-119.5" font-family="Helvetica,sans-Serif" font-size="10.00">complex</text>
</a>
</g>
</g>
<!-- Node34&#45;&gt;Node35 -->
<g id="edge47" class="edge">
<title>Node34&#45;&gt;Node35</title>
<path fill="none" stroke="midnightblue" d="M1030.51,-168.44C1050.09,-159.64 1080.81,-145.81 1103.23,-135.72"/>
<polygon fill="midnightblue" stroke="midnightblue" points="1104.89,-138.81 1112.57,-131.52 1102.02,-132.43 1104.89,-138.81"/>
</g>
<!-- Node36 -->
<g id="node36" class="node">
<title>Node36</title>
<g id="a_node36"><a xlink:title=" ">
<polygon fill="white" stroke="#bfbfbf" points="1179.5,-112.5 1179.5,-131.5 1235.5,-131.5 1235.5,-112.5 1179.5,-112.5"/>
<text text-anchor="middle" x="1207.5" y="-119.5" font-family="Helvetica,sans-Serif" font-size="10.00">numeric</text>
</a>
</g>
</g>
<!-- Node34&#45;&gt;Node36 -->
<g id="edge48" class="edge">
<title>Node34&#45;&gt;Node36</title>
<path fill="none" stroke="midnightblue" d="M1042.56,-168.44C1076.99,-158.96 1132.55,-143.65 1169.54,-133.46"/>
<polygon fill="midnightblue" stroke="midnightblue" points="1170.74,-136.76 1179.45,-130.73 1168.88,-130.01 1170.74,-136.76"/>
</g>
<!-- Node37 -->
<g id="node37" class="node">
<title>Node37</title>
<g id="a_node37"><a xlink:href="constants_8h.html" target="_top" xlink:title=" ">
<polygon fill="white" stroke="black" points="902,-112.5 902,-131.5 975,-131.5 975,-112.5 902,-112.5"/>
<text text-anchor="middle" x="938.5" y="-119.5" font-family="Helvetica,sans-Serif" font-size="10.00">constants.h</text>
</a>
</g>
</g>
<!-- Node34&#45;&gt;Node37 -->
<g id="edge50" class="edge">
<title>Node34&#45;&gt;Node37</title>
<path fill="none" stroke="midnightblue" d="M999.77,-168.32C988.66,-160.11 971.76,-147.6 958.52,-137.81"/>
<polygon fill="midnightblue" stroke="midnightblue" points="960.56,-134.97 950.44,-131.83 956.4,-140.59 960.56,-134.97"/>
</g>
<!-- Node37&#45;&gt;Node22 -->
<g id="edge51" class="edge">
<title>Node37&#45;&gt;Node22</title>
<path fill="none" stroke="midnightblue" d="M915.37,-112.44C890.73,-103.33 851.58,-88.85 824.11,-78.69"/>
<polygon fill="midnightblue" stroke="midnightblue" points="825.16,-75.35 814.57,-75.16 822.74,-81.91 825.16,-75.35"/>
</g>
<!-- Node38&#45;&gt;Node33 -->
<g id="edge53" class="edge">
<title>Node38&#45;&gt;Node33</title>
<path fill="none" stroke="midnightblue" d="M1792.18,-280.42C1765.6,-271.4 1722.59,-256.77 1685.5,-244 1631.73,-225.49 1569.36,-203.76 1531.96,-190.7"/>
<polygon fill="midnightblue" stroke="midnightblue" points="1532.69,-187.25 1522.1,-187.25 1530.39,-193.86 1532.69,-187.25"/>
</g>
<!-- Node39&#45;&gt;Node11 -->
<g id="edge57" class="edge">
<title>Node39&#45;&gt;Node11</title>
<path fill="none" stroke="midnightblue" d="M1694.8,-226.18C1663.18,-218.5 1611.95,-204.87 1569.5,-188 1551.4,-180.81 1549.23,-173.34 1530.5,-168 1345.79,-115.3 1288.24,-154.72 1093.52,-132"/>
<polygon fill="midnightblue" stroke="midnightblue" points="1093.89,-128.52 1083.54,-130.79 1093.05,-135.47 1093.89,-128.52"/>
</g>
<!-- Node39&#45;&gt;Node14 -->
<g id="edge62" class="edge">
<title>Node39&#45;&gt;Node14</title>
<path fill="none" stroke="midnightblue" d="M1720.99,-224.31C1715.72,-211.58 1705.11,-187.28 1693.5,-168 1674.55,-136.52 1648.12,-102.8 1632.22,-83.37"/>
<polygon fill="midnightblue" stroke="midnightblue" points="1634.79,-80.99 1625.72,-75.52 1629.4,-85.45 1634.79,-80.99"/>
</g>
<!-- Node39&#45;&gt;Node30 -->
<g id="edge55" class="edge">
<title>Node39&#45;&gt;Node30</title>
<path fill="none" stroke="midnightblue" d="M1719.51,-224.14C1710.91,-209.78 1691.85,-181.65 1667.5,-168 1628.53,-146.16 1498.32,-131.55 1437.85,-125.77"/>
<polygon fill="midnightblue" stroke="midnightblue" points="1438.03,-122.27 1427.75,-124.83 1437.38,-129.24 1438.03,-122.27"/>
</g>
<!-- Node39&#45;&gt;Node33 -->
<g id="edge56" class="edge">
<title>Node39&#45;&gt;Node33</title>
<path fill="none" stroke="midnightblue" d="M1694.95,-225.94C1652.97,-215.91 1576.27,-197.58 1532.15,-187.04"/>
<polygon fill="midnightblue" stroke="midnightblue" points="1532.74,-183.58 1522.2,-184.66 1531.12,-190.39 1532.74,-183.58"/>
</g>
<!-- Node40 -->
<g id="node40" class="node">
<title>Node40</title>
<g id="a_node40"><a xlink:href="arrays_8h.html" target="_top" xlink:title=" ">
<polygon fill="white" stroke="black" points="1578.5,-168.5 1578.5,-187.5 1658.5,-187.5 1658.5,-168.5 1578.5,-168.5"/>
<text text-anchor="middle" x="1618.5" y="-175.5" font-family="Helvetica,sans-Serif" font-size="10.00">utils/arrays.h</text>
</a>
</g>
</g>
<!-- Node39&#45;&gt;Node40 -->
<g id="edge58" class="edge">
<title>Node39&#45;&gt;Node40</title>
<path fill="none" stroke="midnightblue" d="M1707.47,-224.32C1690.47,-215.66 1664.12,-202.24 1644.51,-192.25"/>
<polygon fill="midnightblue" stroke="midnightblue" points="1645.99,-189.08 1635.49,-187.65 1642.81,-195.31 1645.99,-189.08"/>
</g>
<!-- Node40&#45;&gt;Node14 -->
<g id="edge61" class="edge">
<title>Node40&#45;&gt;Node14</title>
<path fill="none" stroke="midnightblue" d="M1618.5,-168.37C1618.5,-150.62 1618.5,-109.67 1618.5,-85.6"/>
<polygon fill="midnightblue" stroke="midnightblue" points="1622,-85.59 1618.5,-75.59 1615,-85.59 1622,-85.59"/>
</g>
<!-- Node40&#45;&gt;Node16 -->
<g id="edge60" class="edge">
<title>Node40&#45;&gt;Node16</title>
<path fill="none" stroke="midnightblue" d="M1578.4,-170.31C1573.71,-169.53 1569,-168.75 1564.5,-168 1485.92,-154.98 1394.61,-139.94 1340.02,-130.97"/>
<polygon fill="midnightblue" stroke="midnightblue" points="1340.37,-127.48 1329.93,-129.31 1339.23,-134.39 1340.37,-127.48"/>
</g>
<!-- Node40&#45;&gt;Node30 -->
<g id="edge59" class="edge">
<title>Node40&#45;&gt;Node30</title>
<path fill="none" stroke="midnightblue" d="M1584.91,-168.44C1544.4,-158.12 1476.85,-140.92 1437.52,-130.9"/>
<polygon fill="midnightblue" stroke="midnightblue" points="1438.25,-127.48 1427.7,-128.4 1436.52,-134.26 1438.25,-127.48"/>
</g>
<!-- Node42&#45;&gt;Node10 -->
<g id="edge67" class="edge">
<title>Node42&#45;&gt;Node10</title>
<path fill="none" stroke="midnightblue" d="M1466.38,-338.49C1422.78,-329.36 1342.99,-312.66 1290.6,-301.7"/>
<polygon fill="midnightblue" stroke="midnightblue" points="1291.02,-298.21 1280.51,-299.58 1289.58,-305.06 1291.02,-298.21"/>
</g>
<!-- Node42&#45;&gt;Node14 -->
<g id="edge70" class="edge">
<title>Node42&#45;&gt;Node14</title>
<path fill="none" stroke="midnightblue" d="M1528.89,-337.03C1530.45,-336.68 1531.99,-336.33 1533.5,-336 1618.75,-317.41 1654.09,-348.69 1726.5,-300 1751.05,-283.49 1754.16,-272.39 1762.5,-244 1784.01,-170.75 1691.52,-107.47 1644.49,-80.67"/>
<polygon fill="midnightblue" stroke="midnightblue" points="1645.91,-77.45 1635.47,-75.66 1642.51,-83.57 1645.91,-77.45"/>
</g>
<!-- Node42&#45;&gt;Node16 -->
<g id="edge69" class="edge">
<title>Node42&#45;&gt;Node16</title>
<path fill="none" stroke="midnightblue" d="M1467.96,-336.48C1438.35,-327.8 1391.52,-313.71 1351.5,-300 1327.68,-291.84 1322.6,-287.27 1298.5,-280 1229.96,-259.32 1186.11,-299.99 1141.5,-244 1120.45,-217.58 1121.34,-195.1 1141.5,-168 1147.92,-159.37 1203.76,-144.2 1245.45,-133.89"/>
<polygon fill="midnightblue" stroke="midnightblue" points="1246.29,-137.28 1255.17,-131.5 1244.62,-130.49 1246.29,-137.28"/>
</g>
<!-- Node42&#45;&gt;Node29 -->
<g id="edge71" class="edge">
<title>Node42&#45;&gt;Node29</title>
<path fill="none" stroke="midnightblue" d="M1471.59,-336.45C1448.58,-328.41 1414.38,-315.33 1386.5,-300 1359.74,-285.29 1331.52,-264.12 1313.73,-249.98"/>
<polygon fill="midnightblue" stroke="midnightblue" points="1315.87,-247.21 1305.88,-243.67 1311.48,-252.66 1315.87,-247.21"/>
</g>
<!-- Node42&#45;&gt;Node33 -->
<g id="edge66" class="edge">
<title>Node42&#45;&gt;Node33</title>
<path fill="none" stroke="midnightblue" d="M1506.89,-336.4C1523.75,-320.26 1558.59,-283.46 1571.5,-244 1574.26,-235.55 1575.83,-231.76 1571.5,-224 1562.93,-208.64 1546.72,-197.88 1531.76,-190.74"/>
<polygon fill="midnightblue" stroke="midnightblue" points="1532.76,-187.35 1522.19,-186.55 1529.95,-193.77 1532.76,-187.35"/>
</g>
<!-- Node42&#45;&gt;Node39 -->
<g id="edge78" class="edge">
<title>Node42&#45;&gt;Node39</title>
<path fill="none" stroke="midnightblue" d="M1528.76,-342.13C1580.35,-336.77 1680.15,-323.6 1705.5,-300 1718.13,-288.24 1722.52,-268.6 1723.97,-253.98"/>
<polygon fill="midnightblue" stroke="midnightblue" points="1727.49,-253.77 1724.6,-243.58 1720.5,-253.35 1727.49,-253.77"/>
</g>
<!-- Node42&#45;&gt;Node40 -->
<g id="edge68" class="edge">
<title>Node42&#45;&gt;Node40</title>
<path fill="none" stroke="midnightblue" d="M1514.31,-336.42C1528.41,-328.53 1548.3,-315.7 1561.5,-300 1587.93,-268.57 1605.04,-222.83 1613.1,-197.54"/>
<polygon fill="midnightblue" stroke="midnightblue" points="1616.51,-198.36 1616.08,-187.77 1609.81,-196.31 1616.51,-198.36"/>
</g>
<!-- Node43 -->
<g id="node43" class="node">
<title>Node43</title>
<g id="a_node43"><a xlink:title=" ">
<polygon fill="white" stroke="#bfbfbf" points="1628.5,-280.5 1628.5,-299.5 1696.5,-299.5 1696.5,-280.5 1628.5,-280.5"/>
<text text-anchor="middle" x="1662.5" y="-287.5" font-family="Helvetica,sans-Serif" font-size="10.00">complex.h</text>
</a>
</g>
</g>
<!-- Node42&#45;&gt;Node43 -->
<g id="edge65" class="edge">
<title>Node42&#45;&gt;Node43</title>
<path fill="none" stroke="midnightblue" d="M1523.64,-336.44C1551.52,-327.32 1595.85,-312.81 1626.9,-302.65"/>
<polygon fill="midnightblue" stroke="midnightblue" points="1628.06,-305.95 1636.48,-299.52 1625.88,-299.3 1628.06,-305.95"/>
</g>
<!-- Node44 -->
<g id="node44" class="node">
<title>Node44</title>
<g id="a_node44"><a xlink:href="functions_8h.html" target="_top" xlink:title=" ">
<polygon fill="white" stroke="black" points="1396,-280.5 1396,-299.5 1467,-299.5 1467,-280.5 1396,-280.5"/>
<text text-anchor="middle" x="1431.5" y="-287.5" font-family="Helvetica,sans-Serif" font-size="10.00">functions.h</text>
</a>
</g>
</g>
<!-- Node42&#45;&gt;Node44 -->
<g id="edge72" class="edge">
<title>Node42&#45;&gt;Node44</title>
<path fill="none" stroke="midnightblue" d="M1486.9,-336.32C1477.04,-328.26 1462.15,-316.08 1450.28,-306.37"/>
<polygon fill="midnightblue" stroke="midnightblue" points="1452.25,-303.46 1442.3,-299.83 1447.82,-308.88 1452.25,-303.46"/>
</g>
<!-- Node44&#45;&gt;Node16 -->
<g id="edge74" class="edge">
<title>Node44&#45;&gt;Node16</title>
<path fill="none" stroke="midnightblue" d="M1423.97,-280.08C1401.46,-253.38 1334.4,-173.87 1305.27,-139.32"/>
<polygon fill="midnightblue" stroke="midnightblue" points="1307.85,-136.96 1298.73,-131.57 1302.5,-141.47 1307.85,-136.96"/>
</g>
<!-- Node44&#45;&gt;Node30 -->
<g id="edge76" class="edge">
<title>Node44&#45;&gt;Node30</title>
<path fill="none" stroke="midnightblue" d="M1430.16,-280.08C1426.22,-253.95 1414.66,-177.21 1409.3,-141.58"/>
<polygon fill="midnightblue" stroke="midnightblue" points="1412.74,-140.94 1407.79,-131.57 1405.82,-141.98 1412.74,-140.94"/>
</g>
<!-- Node44&#45;&gt;Node31 -->
<g id="edge75" class="edge">
<title>Node44&#45;&gt;Node31</title>
<path fill="none" stroke="midnightblue" d="M1395.98,-280.97C1354.63,-271.63 1286.17,-256.16 1240.21,-245.78"/>
<polygon fill="midnightblue" stroke="midnightblue" points="1240.72,-242.31 1230.19,-243.52 1239.17,-249.13 1240.72,-242.31"/>
</g>
<!-- Node44&#45;&gt;Node33 -->
<g id="edge77" class="edge">
<title>Node44&#45;&gt;Node33</title>
<path fill="none" stroke="midnightblue" d="M1434.72,-280.23C1439.61,-267.39 1449.61,-242.95 1461.5,-224 1467.8,-213.95 1476.1,-203.67 1483.23,-195.47"/>
<polygon fill="midnightblue" stroke="midnightblue" points="1486.05,-197.57 1490.12,-187.78 1480.84,-192.9 1486.05,-197.57"/>
</g>
<!-- Node45 -->
<g id="node45" class="node">
<title>Node45</title>
<g id="a_node45"><a xlink:title=" ">
<polygon fill="white" stroke="#bfbfbf" points="1470.5,-224.5 1470.5,-243.5 1562.5,-243.5 1562.5,-224.5 1470.5,-224.5"/>
<text text-anchor="middle" x="1516.5" y="-231.5" font-family="Helvetica,sans-Serif" font-size="10.00">h2lib/settings.h</text>
</a>
</g>
</g>
<!-- Node44&#45;&gt;Node45 -->
<g id="edge73" class="edge">
<title>Node44&#45;&gt;Node45</title>
<path fill="none" stroke="midnightblue" d="M1445.16,-280.32C1458.42,-271.9 1478.77,-258.97 1494.35,-249.07"/>
<polygon fill="midnightblue" stroke="midnightblue" points="1496.31,-251.97 1502.88,-243.65 1492.56,-246.06 1496.31,-251.97"/>
</g>
</g>
</svg>
