<?xml version="1.0" encoding="UTF-8" standalone="no"?>
<!DOCTYPE svg PUBLIC "-//W3C//DTD SVG 1.1//EN"
 "http://www.w3.org/Graphics/SVG/1.1/DTD/svg11.dtd">
<!-- Generated by graphviz version 2.43.0 (0)
 -->
<!-- Title: main/timing.h Pages: 1 -->
<svg width="1006pt" height="196pt"
 viewBox="0.00 0.00 1005.50 196.00" xmlns="http://www.w3.org/2000/svg" xmlns:xlink="http://www.w3.org/1999/xlink">
<g id="graph0" class="graph" transform="scale(1 1) rotate(0) translate(4 192)">
<title>main/timing.h</title>
<polygon fill="white" stroke="transparent" points="-4,4 -4,-192 1001.5,-192 1001.5,4 -4,4"/>
<!-- Node1 -->
<g id="node1" class="node">
<title>Node1</title>
<g id="a_node1"><a xlink:title=" ">
<polygon fill="#bfbfbf" stroke="black" points="413.5,-168.5 413.5,-187.5 498.5,-187.5 498.5,-168.5 413.5,-168.5"/>
<text text-anchor="middle" x="456" y="-175.5" font-family="Helvetica,sans-Serif" font-size="10.00">main/timing.h</text>
</a>
</g>
</g>
<!-- Node2 -->
<g id="node2" class="node">
<title>Node2</title>
<g id="a_node2"><a xlink:href="options_8h.html" target="_top" xlink:title=" ">
<polygon fill="white" stroke="black" points="356.5,-112.5 356.5,-131.5 445.5,-131.5 445.5,-112.5 356.5,-112.5"/>
<text text-anchor="middle" x="401" y="-119.5" font-family="Helvetica,sans-Serif" font-size="10.00">main/options.h</text>
</a>
</g>
</g>
<!-- Node1&#45;&gt;Node2 -->
<g id="edge1" class="edge">
<title>Node1&#45;&gt;Node2</title>
<path fill="none" stroke="midnightblue" d="M439.71,-161C429.96,-151.43 417.95,-139.64 409.91,-131.75"/>
<polygon fill="midnightblue" stroke="midnightblue" points="437.33,-163.57 446.92,-168.08 442.23,-158.58 437.33,-163.57"/>
</g>
<!-- Node13 -->
<g id="node13" class="node">
<title>Node13</title>
<g id="a_node13"><a xlink:href="timing_8cpp.html" target="_top" xlink:title=" ">
<polygon fill="white" stroke="black" points="464,-112.5 464,-131.5 560,-131.5 560,-112.5 464,-112.5"/>
<text text-anchor="middle" x="512" y="-119.5" font-family="Helvetica,sans-Serif" font-size="10.00">main/timing.cpp</text>
</a>
</g>
</g>
<!-- Node1&#45;&gt;Node13 -->
<g id="edge16" class="edge">
<title>Node1&#45;&gt;Node13</title>
<path fill="none" stroke="midnightblue" d="M472.33,-161.25C482.26,-151.67 494.59,-139.79 502.84,-131.83"/>
<polygon fill="midnightblue" stroke="midnightblue" points="469.77,-158.86 465,-168.32 474.63,-163.9 469.77,-158.86"/>
</g>
<!-- Node3 -->
<g id="node3" class="node">
<title>Node3</title>
<g id="a_node3"><a xlink:href="compress_8cpp.html" target="_top" xlink:title=" ">
<polygon fill="white" stroke="black" points="0,-0.5 0,-19.5 112,-19.5 112,-0.5 0,-0.5"/>
<text text-anchor="middle" x="56" y="-7.5" font-family="Helvetica,sans-Serif" font-size="10.00">main/compress.cpp</text>
</a>
</g>
</g>
<!-- Node2&#45;&gt;Node3 -->
<g id="edge2" class="edge">
<title>Node2&#45;&gt;Node3</title>
<path fill="none" stroke="midnightblue" d="M346.21,-116.03C297.41,-110.33 224.7,-98.68 165,-76 126.69,-61.45 86.51,-33.73 67.4,-19.66"/>
<polygon fill="midnightblue" stroke="midnightblue" points="345.92,-119.52 356.24,-117.15 346.7,-112.56 345.92,-119.52"/>
</g>
<!-- Node4 -->
<g id="node4" class="node">
<title>Node4</title>
<g id="a_node4"><a xlink:href="dh2operator_8cpp.html" target="_top" xlink:title=" ">
<polygon fill="white" stroke="black" points="384,-56.5 384,-75.5 508,-75.5 508,-56.5 384,-56.5"/>
<text text-anchor="middle" x="446" y="-63.5" font-family="Helvetica,sans-Serif" font-size="10.00">main/dh2operator.cpp</text>
</a>
</g>
</g>
<!-- Node2&#45;&gt;Node4 -->
<g id="edge3" class="edge">
<title>Node2&#45;&gt;Node4</title>
<path fill="none" stroke="midnightblue" d="M415.05,-104.14C422.89,-94.74 432.33,-83.4 438.71,-75.75"/>
<polygon fill="midnightblue" stroke="midnightblue" points="412.14,-102.16 408.43,-112.08 417.52,-106.64 412.14,-102.16"/>
</g>
<!-- Node5 -->
<g id="node5" class="node">
<title>Node5</title>
<g id="a_node5"><a xlink:href="functions_8cpp.html" target="_top" xlink:title=" ">
<polygon fill="white" stroke="black" points="526,-56.5 526,-75.5 636,-75.5 636,-56.5 526,-56.5"/>
<text text-anchor="middle" x="581" y="-63.5" font-family="Helvetica,sans-Serif" font-size="10.00">main/functions.cpp</text>
</a>
</g>
</g>
<!-- Node2&#45;&gt;Node5 -->
<g id="edge4" class="edge">
<title>Node2&#45;&gt;Node5</title>
<path fill="none" stroke="midnightblue" d="M439.11,-109.57C473.06,-99.38 521.99,-84.7 552.61,-75.52"/>
<polygon fill="midnightblue" stroke="midnightblue" points="438.09,-106.22 429.52,-112.44 440.11,-112.92 438.09,-106.22"/>
</g>
<!-- Node6 -->
<g id="node6" class="node">
<title>Node6</title>
<g id="a_node6"><a xlink:href="main_8cpp.html" target="_top" xlink:title=" ">
<polygon fill="white" stroke="black" points="130.5,-0.5 130.5,-19.5 219.5,-19.5 219.5,-0.5 130.5,-0.5"/>
<text text-anchor="middle" x="175" y="-7.5" font-family="Helvetica,sans-Serif" font-size="10.00">main/main.cpp</text>
</a>
</g>
</g>
<!-- Node2&#45;&gt;Node6 -->
<g id="edge5" class="edge">
<title>Node2&#45;&gt;Node6</title>
<path fill="none" stroke="midnightblue" d="M345.83,-117.59C286.66,-112.67 198.32,-101.22 177,-76 163.59,-60.13 168.42,-33.5 172.2,-19.77"/>
<polygon fill="midnightblue" stroke="midnightblue" points="345.9,-121.11 356.15,-118.41 346.45,-114.13 345.9,-121.11"/>
</g>
<!-- Node7 -->
<g id="node7" class="node">
<title>Node7</title>
<g id="a_node7"><a xlink:href="meshreader_8cpp.html" target="_top" xlink:title=" ">
<polygon fill="white" stroke="black" points="654.5,-56.5 654.5,-75.5 777.5,-75.5 777.5,-56.5 654.5,-56.5"/>
<text text-anchor="middle" x="716" y="-63.5" font-family="Helvetica,sans-Serif" font-size="10.00">main/meshreader.cpp</text>
</a>
</g>
</g>
<!-- Node2&#45;&gt;Node7 -->
<g id="edge6" class="edge">
<title>Node2&#45;&gt;Node7</title>
<path fill="none" stroke="midnightblue" d="M455.73,-111.62C515.03,-101.45 608.84,-85.37 666.16,-75.54"/>
<polygon fill="midnightblue" stroke="midnightblue" points="455.06,-108.18 445.8,-113.32 456.24,-115.08 455.06,-108.18"/>
</g>
<!-- Node8 -->
<g id="node8" class="node">
<title>Node8</title>
<g id="a_node8"><a xlink:href="multisurface_8cpp.html" target="_top" xlink:title=" ">
<polygon fill="white" stroke="black" points="238,-0.5 238,-19.5 364,-19.5 364,-0.5 238,-0.5"/>
<text text-anchor="middle" x="301" y="-7.5" font-family="Helvetica,sans-Serif" font-size="10.00">main/multisurface.cpp</text>
</a>
</g>
</g>
<!-- Node2&#45;&gt;Node8 -->
<g id="edge7" class="edge">
<title>Node2&#45;&gt;Node8</title>
<path fill="none" stroke="midnightblue" d="M386.36,-104.9C364.86,-81.25 325.5,-37.95 308.81,-19.59"/>
<polygon fill="midnightblue" stroke="midnightblue" points="383.84,-107.32 393.15,-112.37 389.02,-102.61 383.84,-107.32"/>
</g>
<!-- Node9 -->
<g id="node9" class="node">
<title>Node9</title>
<g id="a_node9"><a xlink:href="options_8cpp.html" target="_top" xlink:title=" ">
<polygon fill="white" stroke="black" points="795.5,-56.5 795.5,-75.5 896.5,-75.5 896.5,-56.5 795.5,-56.5"/>
<text text-anchor="middle" x="846" y="-63.5" font-family="Helvetica,sans-Serif" font-size="10.00">main/options.cpp</text>
</a>
</g>
</g>
<!-- Node2&#45;&gt;Node9 -->
<g id="edge8" class="edge">
<title>Node2&#45;&gt;Node9</title>
<path fill="none" stroke="midnightblue" d="M455.67,-111.98C603.71,-91.93 642.99,-94.78 787,-76 789.77,-75.64 792.62,-75.25 795.49,-74.85"/>
<polygon fill="midnightblue" stroke="midnightblue" points="455.19,-108.52 445.76,-113.34 456.14,-115.45 455.19,-108.52"/>
</g>
<!-- Node10 -->
<g id="node10" class="node">
<title>Node10</title>
<g id="a_node10"><a xlink:href="surface_8cpp.html" target="_top" xlink:title=" ">
<polygon fill="white" stroke="black" points="382.5,-0.5 382.5,-19.5 483.5,-19.5 483.5,-0.5 382.5,-0.5"/>
<text text-anchor="middle" x="433" y="-7.5" font-family="Helvetica,sans-Serif" font-size="10.00">main/surface.cpp</text>
</a>
</g>
</g>
<!-- Node2&#45;&gt;Node10 -->
<g id="edge9" class="edge">
<title>Node2&#45;&gt;Node10</title>
<path fill="none" stroke="midnightblue" d="M386.45,-104.21C376.78,-90.9 367.18,-71.96 375,-56 383.19,-39.29 400.9,-27 414.61,-19.53"/>
<polygon fill="midnightblue" stroke="midnightblue" points="383.99,-106.74 392.94,-112.41 389.48,-102.4 383.99,-106.74"/>
</g>
<!-- Node11 -->
<g id="node11" class="node">
<title>Node11</title>
<g id="a_node11"><a xlink:href="test_8cpp.html" target="_top" xlink:title=" ">
<polygon fill="white" stroke="black" points="914.5,-56.5 914.5,-75.5 997.5,-75.5 997.5,-56.5 914.5,-56.5"/>
<text text-anchor="middle" x="956" y="-63.5" font-family="Helvetica,sans-Serif" font-size="10.00">main/test.cpp</text>
</a>
</g>
</g>
<!-- Node2&#45;&gt;Node11 -->
<g id="edge10" class="edge">
<title>Node2&#45;&gt;Node11</title>
<path fill="none" stroke="midnightblue" d="M455.72,-112.02C656.29,-87.9 709.8,-101.43 906,-76 908.71,-75.65 911.5,-75.25 914.31,-74.82"/>
<polygon fill="midnightblue" stroke="midnightblue" points="455.25,-108.56 445.75,-113.24 456.1,-115.5 455.25,-108.56"/>
</g>
<!-- Node12 -->
<g id="node12" class="node">
<title>Node12</title>
<g id="a_node12"><a xlink:href="functionals_8h.html" target="_top" xlink:title=" ">
<polygon fill="white" stroke="black" points="186,-56.5 186,-75.5 290,-75.5 290,-56.5 186,-56.5"/>
<text text-anchor="middle" x="238" y="-63.5" font-family="Helvetica,sans-Serif" font-size="10.00">utils/functionals.h</text>
</a>
</g>
</g>
<!-- Node2&#45;&gt;Node12 -->
<g id="edge11" class="edge">
<title>Node2&#45;&gt;Node12</title>
<path fill="none" stroke="midnightblue" d="M365.3,-109.17C334.6,-99 291.08,-84.59 263.71,-75.52"/>
<polygon fill="midnightblue" stroke="midnightblue" points="364.58,-112.62 375.17,-112.44 366.78,-105.98 364.58,-112.62"/>
</g>
<!-- Node12&#45;&gt;Node3 -->
<g id="edge12" class="edge">
<title>Node12&#45;&gt;Node3</title>
<path fill="none" stroke="midnightblue" d="M199.47,-53.57C165.14,-43.38 115.67,-28.7 84.7,-19.52"/>
<polygon fill="midnightblue" stroke="midnightblue" points="198.58,-56.95 209.16,-56.44 200.57,-50.24 198.58,-56.95"/>
</g>
<!-- Node12&#45;&gt;Node6 -->
<g id="edge13" class="edge">
<title>Node12&#45;&gt;Node6</title>
<path fill="none" stroke="midnightblue" d="M219.96,-49.54C208.73,-39.91 194.68,-27.87 185.31,-19.83"/>
<polygon fill="midnightblue" stroke="midnightblue" points="218.01,-52.47 227.88,-56.32 222.56,-47.16 218.01,-52.47"/>
</g>
<!-- Node12&#45;&gt;Node8 -->
<g id="edge14" class="edge">
<title>Node12&#45;&gt;Node8</title>
<path fill="none" stroke="midnightblue" d="M256.04,-49.54C267.27,-39.91 281.32,-27.87 290.69,-19.83"/>
<polygon fill="midnightblue" stroke="midnightblue" points="253.44,-47.16 248.12,-56.32 257.99,-52.47 253.44,-47.16"/>
</g>
<!-- Node12&#45;&gt;Node10 -->
<g id="edge15" class="edge">
<title>Node12&#45;&gt;Node10</title>
<path fill="none" stroke="midnightblue" d="M278.81,-53.7C315.61,-43.51 368.93,-28.74 402.25,-19.52"/>
<polygon fill="midnightblue" stroke="midnightblue" points="277.6,-50.4 268.9,-56.44 279.47,-57.15 277.6,-50.4"/>
</g>
</g>
</svg>
