<?xml version="1.0" encoding="UTF-8" standalone="no"?>
<!DOCTYPE svg PUBLIC "-//W3C//DTD SVG 1.1//EN"
 "http://www.w3.org/Graphics/SVG/1.1/DTD/svg11.dtd">
<!-- Generated by graphviz version 2.43.0 (0)
 -->
<!-- Title: Lyra/include/lyra/detail/tokens.hpp Pages: 1 -->
<svg width="231pt" height="151pt"
 viewBox="0.00 0.00 231.00 151.00" xmlns="http://www.w3.org/2000/svg" xmlns:xlink="http://www.w3.org/1999/xlink">
<g id="graph0" class="graph" transform="scale(1 1) rotate(0) translate(4 147)">
<title>Lyra/include/lyra/detail/tokens.hpp</title>
<polygon fill="white" stroke="transparent" points="-4,4 -4,-147 227,-147 227,4 -4,4"/>
<!-- Node1 -->
<g id="node1" class="node">
<title>Node1</title>
<g id="a_node1"><a xlink:title=" ">
<polygon fill="#bfbfbf" stroke="black" points="83.5,-112.5 83.5,-142.5 211.5,-142.5 211.5,-112.5 83.5,-112.5"/>
<text text-anchor="start" x="91.5" y="-130.5" font-family="Helvetica,sans-Serif" font-size="10.00">Lyra/include/lyra/detail</text>
<text text-anchor="middle" x="147.5" y="-119.5" font-family="Helvetica,sans-Serif" font-size="10.00">/tokens.hpp</text>
</a>
</g>
</g>
<!-- Node2 -->
<g id="node2" class="node">
<title>Node2</title>
<g id="a_node2"><a xlink:href="option__style_8hpp.html" target="_top" xlink:title=" ">
<polygon fill="white" stroke="black" points="0,-56.5 0,-75.5 119,-75.5 119,-56.5 0,-56.5"/>
<text text-anchor="middle" x="59.5" y="-63.5" font-family="Helvetica,sans-Serif" font-size="10.00">lyra/option_style.hpp</text>
</a>
</g>
</g>
<!-- Node1&#45;&gt;Node2 -->
<g id="edge1" class="edge">
<title>Node1&#45;&gt;Node2</title>
<path fill="none" stroke="midnightblue" d="M126.65,-112.4C112.8,-103.04 94.69,-90.79 80.76,-81.38"/>
<polygon fill="midnightblue" stroke="midnightblue" points="82.55,-78.36 72.3,-75.66 78.63,-84.16 82.55,-78.36"/>
</g>
<!-- Node3 -->
<g id="node3" class="node">
<title>Node3</title>
<g id="a_node3"><a xlink:title=" ">
<polygon fill="white" stroke="#bfbfbf" points="81.5,-0.5 81.5,-19.5 125.5,-19.5 125.5,-0.5 81.5,-0.5"/>
<text text-anchor="middle" x="103.5" y="-7.5" font-family="Helvetica,sans-Serif" font-size="10.00">string</text>
</a>
</g>
</g>
<!-- Node1&#45;&gt;Node3 -->
<g id="edge3" class="edge">
<title>Node1&#45;&gt;Node3</title>
<path fill="none" stroke="midnightblue" d="M144.76,-112.39C141.71,-97.92 136.17,-74.91 128.5,-56 124.64,-46.48 119.2,-36.43 114.38,-28.25"/>
<polygon fill="midnightblue" stroke="midnightblue" points="117.34,-26.37 109.14,-19.65 111.36,-30.01 117.34,-26.37"/>
</g>
<!-- Node4 -->
<g id="node4" class="node">
<title>Node4</title>
<g id="a_node4"><a xlink:title=" ">
<polygon fill="white" stroke="#bfbfbf" points="176,-56.5 176,-75.5 223,-75.5 223,-56.5 176,-56.5"/>
<text text-anchor="middle" x="199.5" y="-63.5" font-family="Helvetica,sans-Serif" font-size="10.00">vector</text>
</a>
</g>
</g>
<!-- Node1&#45;&gt;Node4 -->
<g id="edge4" class="edge">
<title>Node1&#45;&gt;Node4</title>
<path fill="none" stroke="midnightblue" d="M159.82,-112.4C167.46,-103.66 177.29,-92.41 185.26,-83.3"/>
<polygon fill="midnightblue" stroke="midnightblue" points="187.99,-85.49 191.93,-75.66 182.72,-80.88 187.99,-85.49"/>
</g>
<!-- Node2&#45;&gt;Node3 -->
<g id="edge2" class="edge">
<title>Node2&#45;&gt;Node3</title>
<path fill="none" stroke="midnightblue" d="M66.77,-56.08C73.04,-48.38 82.29,-37.03 89.93,-27.65"/>
<polygon fill="midnightblue" stroke="midnightblue" points="92.77,-29.71 96.37,-19.75 87.34,-25.29 92.77,-29.71"/>
</g>
</g>
</svg>
