<?xml version="1.0" encoding="UTF-8" standalone="no"?>
<!DOCTYPE svg PUBLIC "-//W3C//DTD SVG 1.1//EN"
 "http://www.w3.org/Graphics/SVG/1.1/DTD/svg11.dtd">
<!-- Generated by graphviz version 2.43.0 (0)
 -->
<!-- Title: Lyra/include/lyra/arg.hpp Pages: 1 -->
<svg width="1504pt" height="498pt"
 viewBox="0.00 0.00 1503.78 498.00" xmlns="http://www.w3.org/2000/svg" xmlns:xlink="http://www.w3.org/1999/xlink">
<g id="graph0" class="graph" transform="scale(1 1) rotate(0) translate(4 494)">
<title>Lyra/include/lyra/arg.hpp</title>
<polygon fill="white" stroke="transparent" points="-4,4 -4,-494 1499.78,-494 1499.78,4 -4,4"/>
<!-- Node1 -->
<g id="node1" class="node">
<title>Node1</title>
<g id="a_node1"><a xlink:title=" ">
<polygon fill="#bfbfbf" stroke="black" points="16.5,-470.5 16.5,-489.5 153.5,-489.5 153.5,-470.5 16.5,-470.5"/>
<text text-anchor="middle" x="85" y="-477.5" font-family="Helvetica,sans-Serif" font-size="10.00">Lyra/include/lyra/arg.hpp</text>
</a>
</g>
</g>
<!-- Node2 -->
<g id="node2" class="node">
<title>Node2</title>
<g id="a_node2"><a xlink:href="print_8hpp.html" target="_top" xlink:title=" ">
<polygon fill="white" stroke="black" points="28.5,-358.5 28.5,-377.5 141.5,-377.5 141.5,-358.5 28.5,-358.5"/>
<text text-anchor="middle" x="85" y="-365.5" font-family="Helvetica,sans-Serif" font-size="10.00">lyra/detail/print.hpp</text>
</a>
</g>
</g>
<!-- Node1&#45;&gt;Node2 -->
<g id="edge1" class="edge">
<title>Node1&#45;&gt;Node2</title>
<path fill="none" stroke="midnightblue" d="M85,-470.37C85,-452.62 85,-411.67 85,-387.6"/>
<polygon fill="midnightblue" stroke="midnightblue" points="88.5,-387.59 85,-377.59 81.5,-387.59 88.5,-387.59"/>
</g>
<!-- Node3 -->
<g id="node3" class="node">
<title>Node3</title>
<g id="a_node3"><a xlink:title=" ">
<polygon fill="white" stroke="#bfbfbf" points="449,-0.5 449,-19.5 493,-19.5 493,-0.5 449,-0.5"/>
<text text-anchor="middle" x="471" y="-7.5" font-family="Helvetica,sans-Serif" font-size="10.00">string</text>
</a>
</g>
</g>
<!-- Node1&#45;&gt;Node3 -->
<g id="edge61" class="edge">
<title>Node1&#45;&gt;Node3</title>
<path fill="none" stroke="midnightblue" d="M71.34,-470.24C47.32,-453.64 0,-415.1 0,-369 0,-369 0,-369 0,-126.5 0,-35.94 332.56,-16.02 438.79,-11.97"/>
<polygon fill="midnightblue" stroke="midnightblue" points="439.05,-15.46 448.91,-11.6 438.8,-8.47 439.05,-15.46"/>
</g>
<!-- Node4 -->
<g id="node4" class="node">
<title>Node4</title>
<g id="a_node4"><a xlink:href="parser_8hpp.html" target="_top" xlink:title=" ">
<polygon fill="white" stroke="black" points="599,-414.5 599,-433.5 689,-433.5 689,-414.5 599,-414.5"/>
<text text-anchor="middle" x="644" y="-421.5" font-family="Helvetica,sans-Serif" font-size="10.00">lyra/parser.hpp</text>
</a>
</g>
</g>
<!-- Node1&#45;&gt;Node4 -->
<g id="edge3" class="edge">
<title>Node1&#45;&gt;Node4</title>
<path fill="none" stroke="midnightblue" d="M153.54,-472.38C265.58,-461.56 485.75,-440.29 588.6,-430.35"/>
<polygon fill="midnightblue" stroke="midnightblue" points="589.16,-433.81 598.77,-429.37 588.48,-426.85 589.16,-433.81"/>
</g>
<!-- Node2&#45;&gt;Node3 -->
<g id="edge2" class="edge">
<title>Node2&#45;&gt;Node3</title>
<path fill="none" stroke="midnightblue" d="M85,-358.31C85,-339.06 85,-291.4 85,-251.5 85,-251.5 85,-251.5 85,-126.5 85,-52.91 345.78,-22.26 438.65,-13.68"/>
<polygon fill="midnightblue" stroke="midnightblue" points="439.21,-17.14 448.86,-12.77 438.59,-10.17 439.21,-17.14"/>
</g>
<!-- Node4&#45;&gt;Node3 -->
<g id="edge59" class="edge">
<title>Node4&#45;&gt;Node3</title>
<path fill="none" stroke="midnightblue" d="M598.72,-415.85C515.8,-401.47 348,-365.84 348,-313 348,-313 348,-313 348,-249.5 348,-163.39 301.87,-121.31 358,-56 378.44,-32.21 413.21,-20.88 438.79,-15.56"/>
<polygon fill="midnightblue" stroke="midnightblue" points="439.59,-18.97 448.78,-13.68 438.3,-12.09 439.59,-18.97"/>
</g>
<!-- Node5 -->
<g id="node5" class="node">
<title>Node5</title>
<g id="a_node5"><a xlink:href="args_8hpp.html" target="_top" xlink:title=" ">
<polygon fill="white" stroke="black" points="1009,-179.5 1009,-198.5 1089,-198.5 1089,-179.5 1009,-179.5"/>
<text text-anchor="middle" x="1049" y="-186.5" font-family="Helvetica,sans-Serif" font-size="10.00">lyra/args.hpp</text>
</a>
</g>
</g>
<!-- Node4&#45;&gt;Node5 -->
<g id="edge4" class="edge">
<title>Node4&#45;&gt;Node5</title>
<path fill="none" stroke="midnightblue" d="M658.89,-414.43C719.8,-379.39 950.19,-246.85 1025.22,-203.68"/>
<polygon fill="midnightblue" stroke="midnightblue" points="1027.05,-206.67 1033.97,-198.65 1023.56,-200.6 1027.05,-206.67"/>
</g>
<!-- Node8 -->
<g id="node8" class="node">
<title>Node8</title>
<g id="a_node8"><a xlink:href="bound_8hpp.html" target="_top" xlink:title=" ">
<polygon fill="white" stroke="black" points="496,-302.5 496,-321.5 616,-321.5 616,-302.5 496,-302.5"/>
<text text-anchor="middle" x="556" y="-309.5" font-family="Helvetica,sans-Serif" font-size="10.00">lyra/detail/bound.hpp</text>
</a>
</g>
</g>
<!-- Node4&#45;&gt;Node8 -->
<g id="edge8" class="edge">
<title>Node4&#45;&gt;Node8</title>
<path fill="none" stroke="midnightblue" d="M598.81,-416.85C574.97,-411.06 547.7,-399.82 533,-378 523.02,-363.18 532.5,-343.54 542.14,-329.74"/>
<polygon fill="midnightblue" stroke="midnightblue" points="545.04,-331.71 548.29,-321.62 539.46,-327.48 545.04,-331.71"/>
</g>
<!-- Node9 -->
<g id="node9" class="node">
<title>Node9</title>
<g id="a_node9"><a xlink:href="from__string_8hpp.html" target="_top" xlink:title=" ">
<polygon fill="white" stroke="black" points="365,-118 365,-137 511,-137 511,-118 365,-118"/>
<text text-anchor="middle" x="438" y="-125" font-family="Helvetica,sans-Serif" font-size="10.00">lyra/detail/from_string.hpp</text>
</a>
</g>
</g>
<!-- Node4&#45;&gt;Node9 -->
<g id="edge41" class="edge">
<title>Node4&#45;&gt;Node9</title>
<path fill="none" stroke="midnightblue" d="M598.78,-419.37C536.52,-411.63 432,-387.53 432,-313 432,-313 432,-313 432,-249.5 432,-213.17 434.73,-170.78 436.51,-147.04"/>
<polygon fill="midnightblue" stroke="midnightblue" points="440,-147.24 437.29,-137 433.02,-146.7 440,-147.24"/>
</g>
<!-- Node10 -->
<g id="node10" class="node">
<title>Node10</title>
<g id="a_node10"><a xlink:href="trait__utils_8hpp.html" target="_top" xlink:title=" ">
<polygon fill="white" stroke="black" points="1181.5,-56.5 1181.5,-75.5 1318.5,-75.5 1318.5,-56.5 1181.5,-56.5"/>
<text text-anchor="middle" x="1250" y="-63.5" font-family="Helvetica,sans-Serif" font-size="10.00">lyra/detail/trait_utils.hpp</text>
</a>
</g>
</g>
<!-- Node4&#45;&gt;Node10 -->
<g id="edge48" class="edge">
<title>Node4&#45;&gt;Node10</title>
<path fill="none" stroke="midnightblue" d="M689.17,-423.27C814.23,-423.45 1162.73,-420.07 1268,-378 1310.22,-361.12 1347,-358.47 1347,-313 1347,-313 1347,-313 1347,-188 1347,-140.87 1301.64,-101.62 1272.96,-81.51"/>
<polygon fill="midnightblue" stroke="midnightblue" points="1274.56,-78.36 1264.31,-75.66 1270.64,-84.16 1274.56,-78.36"/>
</g>
<!-- Node11 -->
<g id="node11" class="node">
<title>Node11</title>
<g id="a_node11"><a xlink:title=" ">
<polygon fill="white" stroke="#bfbfbf" points="944.5,-0.5 944.5,-19.5 1013.5,-19.5 1013.5,-0.5 944.5,-0.5"/>
<text text-anchor="middle" x="979" y="-7.5" font-family="Helvetica,sans-Serif" font-size="10.00">type_traits</text>
</a>
</g>
</g>
<!-- Node4&#45;&gt;Node11 -->
<g id="edge60" class="edge">
<title>Node4&#45;&gt;Node11</title>
<path fill="none" stroke="midnightblue" d="M689.4,-418.15C804.5,-402.99 1104.47,-344.67 1188,-143 1218.64,-69.03 1093.61,-32.76 1023.54,-18.54"/>
<polygon fill="midnightblue" stroke="midnightblue" points="1024.11,-15.08 1013.62,-16.6 1022.76,-21.95 1024.11,-15.08"/>
</g>
<!-- Node16 -->
<g id="node16" class="node">
<title>Node16</title>
<g id="a_node16"><a xlink:href="parser__result_8hpp.html" target="_top" xlink:title=" ">
<polygon fill="white" stroke="black" points="567.5,-118 567.5,-137 690.5,-137 690.5,-118 567.5,-118"/>
<text text-anchor="middle" x="629" y="-125" font-family="Helvetica,sans-Serif" font-size="10.00">lyra/parser_result.hpp</text>
</a>
</g>
</g>
<!-- Node4&#45;&gt;Node16 -->
<g id="edge50" class="edge">
<title>Node4&#45;&gt;Node16</title>
<path fill="none" stroke="midnightblue" d="M644,-414.44C644,-395.94 644,-350.81 644,-313 644,-313 644,-313 644,-249.5 644,-213.12 637.24,-171.05 632.79,-147.33"/>
<polygon fill="midnightblue" stroke="midnightblue" points="636.18,-146.41 630.84,-137.26 629.31,-147.74 636.18,-146.41"/>
</g>
<!-- Node17 -->
<g id="node17" class="node">
<title>Node17</title>
<g id="a_node17"><a xlink:href="result_8hpp.html" target="_top" xlink:title=" ">
<polygon fill="white" stroke="black" points="1007,-56.5 1007,-75.5 1125,-75.5 1125,-56.5 1007,-56.5"/>
<text text-anchor="middle" x="1066" y="-63.5" font-family="Helvetica,sans-Serif" font-size="10.00">lyra/detail/result.hpp</text>
</a>
</g>
</g>
<!-- Node4&#45;&gt;Node17 -->
<g id="edge42" class="edge">
<title>Node4&#45;&gt;Node17</title>
<path fill="none" stroke="midnightblue" d="M689.38,-423.08C823.2,-422.85 1209.28,-418.64 1247,-378 1260.58,-363.37 1339.6,-282.63 1188,-112 1173.31,-95.46 1151.99,-84.99 1131.27,-78.37"/>
<polygon fill="midnightblue" stroke="midnightblue" points="1132.08,-74.96 1121.5,-75.5 1130.11,-81.68 1132.08,-74.96"/>
</g>
<!-- Node18 -->
<g id="node18" class="node">
<title>Node18</title>
<g id="a_node18"><a xlink:title=" ">
<polygon fill="white" stroke="#bfbfbf" points="1318,-0.5 1318,-19.5 1376,-19.5 1376,-0.5 1318,-0.5"/>
<text text-anchor="middle" x="1347" y="-7.5" font-family="Helvetica,sans-Serif" font-size="10.00">memory</text>
</a>
</g>
</g>
<!-- Node4&#45;&gt;Node18 -->
<g id="edge58" class="edge">
<title>Node4&#45;&gt;Node18</title>
<path fill="none" stroke="midnightblue" d="M689.42,-422.3C825.36,-419.84 1227.37,-410.01 1354,-378 1420.9,-361.09 1495,-382 1495,-313 1495,-313 1495,-313 1495,-126.5 1495,-94.05 1498.1,-79.76 1476,-56 1463.56,-42.62 1419.37,-29.05 1386.15,-20.36"/>
<polygon fill="midnightblue" stroke="midnightblue" points="1386.8,-16.91 1376.24,-17.83 1385.07,-23.69 1386.8,-16.91"/>
</g>
<!-- Node20 -->
<g id="node20" class="node">
<title>Node20</title>
<g id="a_node20"><a xlink:href="choices_8hpp.html" target="_top" xlink:title=" ">
<polygon fill="white" stroke="black" points="830.5,-179.5 830.5,-198.5 957.5,-198.5 957.5,-179.5 830.5,-179.5"/>
<text text-anchor="middle" x="894" y="-186.5" font-family="Helvetica,sans-Serif" font-size="10.00">lyra/detail/choices.hpp</text>
</a>
</g>
</g>
<!-- Node4&#45;&gt;Node20 -->
<g id="edge32" class="edge">
<title>Node4&#45;&gt;Node20</title>
<path fill="none" stroke="midnightblue" d="M653.19,-414.43C690.25,-379.89 828.97,-250.61 877.28,-205.58"/>
<polygon fill="midnightblue" stroke="midnightblue" points="879.79,-208.03 884.72,-198.65 875.02,-202.9 879.79,-208.03"/>
</g>
<!-- Node21 -->
<g id="node21" class="node">
<title>Node21</title>
<g id="a_node21"><a xlink:href="tokens_8hpp.html" target="_top" xlink:title=" ">
<polygon fill="white" stroke="black" points="198,-179.5 198,-198.5 320,-198.5 320,-179.5 198,-179.5"/>
<text text-anchor="middle" x="259" y="-186.5" font-family="Helvetica,sans-Serif" font-size="10.00">lyra/detail/tokens.hpp</text>
</a>
</g>
</g>
<!-- Node4&#45;&gt;Node21 -->
<g id="edge43" class="edge">
<title>Node4&#45;&gt;Node21</title>
<path fill="none" stroke="midnightblue" d="M598.8,-421.87C522.91,-419.11 374.2,-409.69 334,-378 279.98,-335.41 264.72,-248.03 260.53,-209.26"/>
<polygon fill="midnightblue" stroke="midnightblue" points="263.98,-208.52 259.56,-198.89 257.01,-209.18 263.98,-208.52"/>
</g>
<!-- Node22 -->
<g id="node22" class="node">
<title>Node22</title>
<g id="a_node22"><a xlink:href="option__style_8hpp.html" target="_top" xlink:title=" ">
<polygon fill="white" stroke="black" points="113.5,-118 113.5,-137 232.5,-137 232.5,-118 113.5,-118"/>
<text text-anchor="middle" x="173" y="-125" font-family="Helvetica,sans-Serif" font-size="10.00">lyra/option_style.hpp</text>
</a>
</g>
</g>
<!-- Node4&#45;&gt;Node22 -->
<g id="edge49" class="edge">
<title>Node4&#45;&gt;Node22</title>
<path fill="none" stroke="midnightblue" d="M598.98,-422.08C480.66,-418.44 170,-400.54 170,-313 170,-313 170,-313 170,-249.5 170,-213.2 171.37,-170.8 172.25,-147.06"/>
<polygon fill="midnightblue" stroke="midnightblue" points="175.75,-147.13 172.64,-137.01 168.76,-146.86 175.75,-147.13"/>
</g>
<!-- Node23 -->
<g id="node23" class="node">
<title>Node23</title>
<g id="a_node23"><a xlink:href="printer_8hpp.html" target="_top" xlink:title=" ">
<polygon fill="white" stroke="black" points="1375,-56.5 1375,-75.5 1467,-75.5 1467,-56.5 1375,-56.5"/>
<text text-anchor="middle" x="1421" y="-63.5" font-family="Helvetica,sans-Serif" font-size="10.00">lyra/printer.hpp</text>
</a>
</g>
</g>
<!-- Node4&#45;&gt;Node23 -->
<g id="edge51" class="edge">
<title>Node4&#45;&gt;Node23</title>
<path fill="none" stroke="midnightblue" d="M689.43,-422.98C819.7,-422.45 1192.46,-417.42 1307,-378 1355.72,-361.23 1403,-364.53 1403,-313 1403,-313 1403,-313 1403,-188 1403,-151.5 1411.11,-109.47 1416.45,-85.79"/>
<polygon fill="midnightblue" stroke="midnightblue" points="1419.93,-86.27 1418.79,-75.74 1413.11,-84.68 1419.93,-86.27"/>
</g>
<!-- Node25 -->
<g id="node25" class="node">
<title>Node25</title>
<g id="a_node25"><a xlink:href="val_8hpp.html" target="_top" xlink:title=" ">
<polygon fill="white" stroke="black" points="542,-358.5 542,-377.5 616,-377.5 616,-358.5 542,-358.5"/>
<text text-anchor="middle" x="579" y="-365.5" font-family="Helvetica,sans-Serif" font-size="10.00">lyra/val.hpp</text>
</a>
</g>
</g>
<!-- Node4&#45;&gt;Node25 -->
<g id="edge55" class="edge">
<title>Node4&#45;&gt;Node25</title>
<path fill="none" stroke="midnightblue" d="M633.56,-414.32C623.85,-406.26 609.18,-394.08 597.5,-384.37"/>
<polygon fill="midnightblue" stroke="midnightblue" points="599.56,-381.53 589.63,-377.83 595.09,-386.92 599.56,-381.53"/>
</g>
<!-- Node5&#45;&gt;Node3 -->
<g id="edge6" class="edge">
<title>Node5&#45;&gt;Node3</title>
<path fill="none" stroke="midnightblue" d="M1085.7,-179.35C1104.83,-172.77 1126.57,-161.58 1138,-143 1145.22,-131.26 1146.77,-122.63 1138,-112 1117.19,-86.77 881.32,-61.05 849,-56 721.58,-36.1 568.78,-20.39 503.33,-14.05"/>
<polygon fill="midnightblue" stroke="midnightblue" points="503.52,-10.55 493.23,-13.07 502.85,-17.52 503.52,-10.55"/>
</g>
<!-- Node6 -->
<g id="node6" class="node">
<title>Node6</title>
<g id="a_node6"><a xlink:title=" ">
<polygon fill="white" stroke="#bfbfbf" points="1045.5,-118 1045.5,-137 1128.5,-137 1128.5,-118 1045.5,-118"/>
<text text-anchor="middle" x="1087" y="-125" font-family="Helvetica,sans-Serif" font-size="10.00">initializer_list</text>
</a>
</g>
</g>
<!-- Node5&#45;&gt;Node6 -->
<g id="edge5" class="edge">
<title>Node5&#45;&gt;Node6</title>
<path fill="none" stroke="midnightblue" d="M1054.44,-179.48C1060.09,-170.64 1069.06,-156.59 1076.16,-145.48"/>
<polygon fill="midnightblue" stroke="midnightblue" points="1079.13,-147.32 1081.57,-137.01 1073.23,-143.55 1079.13,-147.32"/>
</g>
<!-- Node7 -->
<g id="node7" class="node">
<title>Node7</title>
<g id="a_node7"><a xlink:title=" ">
<polygon fill="white" stroke="#bfbfbf" points="865.5,-118 865.5,-137 912.5,-137 912.5,-118 865.5,-118"/>
<text text-anchor="middle" x="889" y="-125" font-family="Helvetica,sans-Serif" font-size="10.00">vector</text>
</a>
</g>
</g>
<!-- Node5&#45;&gt;Node7 -->
<g id="edge7" class="edge">
<title>Node5&#45;&gt;Node7</title>
<path fill="none" stroke="midnightblue" d="M1026.08,-179.48C998.63,-169.27 952.48,-152.11 921.4,-140.55"/>
<polygon fill="midnightblue" stroke="midnightblue" points="922.47,-137.21 911.88,-137.01 920.03,-143.78 922.47,-137.21"/>
</g>
<!-- Node8&#45;&gt;Node3 -->
<g id="edge31" class="edge">
<title>Node8&#45;&gt;Node3</title>
<path fill="none" stroke="midnightblue" d="M537.29,-302.36C495.33,-281.79 394.4,-225.41 356,-143 339.15,-106.85 350.89,-85.26 378,-56 394.37,-38.33 419.16,-26.81 439.03,-19.86"/>
<polygon fill="midnightblue" stroke="midnightblue" points="440.21,-23.16 448.62,-16.72 438.03,-16.51 440.21,-23.16"/>
</g>
<!-- Node8&#45;&gt;Node9 -->
<g id="edge9" class="edge">
<title>Node8&#45;&gt;Node9</title>
<path fill="none" stroke="midnightblue" d="M550.31,-302.2C531.89,-273.71 473.68,-183.68 449.11,-145.68"/>
<polygon fill="midnightblue" stroke="midnightblue" points="452,-143.71 443.63,-137.21 446.12,-147.51 452,-143.71"/>
</g>
<!-- Node14 -->
<g id="node14" class="node">
<title>Node14</title>
<g id="a_node14"><a xlink:href="invoke__lambda_8hpp.html" target="_top" xlink:title=" ">
<polygon fill="white" stroke="black" points="672.5,-235.5 672.5,-265.5 773.5,-265.5 773.5,-235.5 672.5,-235.5"/>
<text text-anchor="start" x="680.5" y="-253.5" font-family="Helvetica,sans-Serif" font-size="10.00">lyra/detail/invoke</text>
<text text-anchor="middle" x="723" y="-242.5" font-family="Helvetica,sans-Serif" font-size="10.00">_lambda.hpp</text>
</a>
</g>
</g>
<!-- Node8&#45;&gt;Node14 -->
<g id="edge16" class="edge">
<title>Node8&#45;&gt;Node14</title>
<path fill="none" stroke="midnightblue" d="M579.93,-302.48C604.34,-293.78 642.93,-280.03 673.89,-269"/>
<polygon fill="midnightblue" stroke="midnightblue" points="675.4,-272.18 683.64,-265.52 673.05,-265.58 675.4,-272.18"/>
</g>
<!-- Node15 -->
<g id="node15" class="node">
<title>Node15</title>
<g id="a_node15"><a xlink:href="parse_8hpp.html" target="_top" xlink:title=" ">
<polygon fill="white" stroke="black" points="498.5,-179.5 498.5,-198.5 615.5,-198.5 615.5,-179.5 498.5,-179.5"/>
<text text-anchor="middle" x="557" y="-186.5" font-family="Helvetica,sans-Serif" font-size="10.00">lyra/detail/parse.hpp</text>
</a>
</g>
</g>
<!-- Node8&#45;&gt;Node15 -->
<g id="edge29" class="edge">
<title>Node8&#45;&gt;Node15</title>
<path fill="none" stroke="midnightblue" d="M556.07,-302.3C556.23,-282.85 556.62,-235.49 556.84,-208.9"/>
<polygon fill="midnightblue" stroke="midnightblue" points="560.35,-208.65 556.93,-198.62 553.35,-208.59 560.35,-208.65"/>
</g>
<!-- Node19 -->
<g id="node19" class="node">
<title>Node19</title>
<g id="a_node19"><a xlink:href="unary__lambda__traits_8hpp.html" target="_top" xlink:title=" ">
<polygon fill="white" stroke="black" points="708.5,-112.5 708.5,-142.5 847.5,-142.5 847.5,-112.5 708.5,-112.5"/>
<text text-anchor="start" x="716.5" y="-130.5" font-family="Helvetica,sans-Serif" font-size="10.00">lyra/detail/unary_lambda</text>
<text text-anchor="middle" x="778" y="-119.5" font-family="Helvetica,sans-Serif" font-size="10.00">_traits.hpp</text>
</a>
</g>
</g>
<!-- Node8&#45;&gt;Node19 -->
<g id="edge30" class="edge">
<title>Node8&#45;&gt;Node19</title>
<path fill="none" stroke="midnightblue" d="M616.17,-307.43C675.88,-302.49 761.38,-291.13 782,-266 808.15,-234.13 797.21,-182.71 787.31,-152.6"/>
<polygon fill="midnightblue" stroke="midnightblue" points="790.53,-151.19 783.92,-142.91 783.92,-153.5 790.53,-151.19"/>
</g>
<!-- Node9&#45;&gt;Node3 -->
<g id="edge14" class="edge">
<title>Node9&#45;&gt;Node3</title>
<path fill="none" stroke="midnightblue" d="M440.48,-117.82C445.81,-99.17 458.44,-54.94 465.68,-29.63"/>
<polygon fill="midnightblue" stroke="midnightblue" points="469.11,-30.36 468.49,-19.78 462.38,-28.44 469.11,-30.36"/>
</g>
<!-- Node9&#45;&gt;Node10 -->
<g id="edge10" class="edge">
<title>Node9&#45;&gt;Node10</title>
<path fill="none" stroke="midnightblue" d="M502.7,-117.99C520.59,-115.82 540.03,-113.65 558,-112 813.43,-88.61 878.13,-93.92 1134,-76 1145.96,-75.16 1158.62,-74.23 1171,-73.29"/>
<polygon fill="midnightblue" stroke="midnightblue" points="1171.61,-76.75 1181.31,-72.5 1171.08,-69.77 1171.61,-76.75"/>
</g>
<!-- Node9&#45;&gt;Node11 -->
<g id="edge15" class="edge">
<title>Node9&#45;&gt;Node11</title>
<path fill="none" stroke="midnightblue" d="M478.22,-117.91C577.04,-96.81 831.2,-42.55 934.42,-20.52"/>
<polygon fill="midnightblue" stroke="midnightblue" points="935.17,-23.94 944.22,-18.42 933.71,-17.09 935.17,-23.94"/>
</g>
<!-- Node13 -->
<g id="node13" class="node">
<title>Node13</title>
<g id="a_node13"><a xlink:title=" ">
<polygon fill="white" stroke="#bfbfbf" points="387,-56.5 387,-75.5 443,-75.5 443,-56.5 387,-56.5"/>
<text text-anchor="middle" x="415" y="-63.5" font-family="Helvetica,sans-Serif" font-size="10.00">sstream</text>
</a>
</g>
</g>
<!-- Node9&#45;&gt;Node13 -->
<g id="edge13" class="edge">
<title>Node9&#45;&gt;Node13</title>
<path fill="none" stroke="midnightblue" d="M434.7,-117.98C431.39,-109.4 426.18,-95.93 421.95,-84.98"/>
<polygon fill="midnightblue" stroke="midnightblue" points="425.16,-83.57 418.29,-75.51 418.63,-86.1 425.16,-83.57"/>
</g>
<!-- Node10&#45;&gt;Node11 -->
<g id="edge11" class="edge">
<title>Node10&#45;&gt;Node11</title>
<path fill="none" stroke="midnightblue" d="M1207.06,-56.44C1156.93,-46.46 1074.43,-30.02 1023.6,-19.89"/>
<polygon fill="midnightblue" stroke="midnightblue" points="1024.06,-16.41 1013.57,-17.89 1022.69,-23.28 1024.06,-16.41"/>
</g>
<!-- Node12 -->
<g id="node12" class="node">
<title>Node12</title>
<g id="a_node12"><a xlink:title=" ">
<polygon fill="white" stroke="#bfbfbf" points="1227.5,-0.5 1227.5,-19.5 1272.5,-19.5 1272.5,-0.5 1227.5,-0.5"/>
<text text-anchor="middle" x="1250" y="-7.5" font-family="Helvetica,sans-Serif" font-size="10.00">utility</text>
</a>
</g>
</g>
<!-- Node10&#45;&gt;Node12 -->
<g id="edge12" class="edge">
<title>Node10&#45;&gt;Node12</title>
<path fill="none" stroke="midnightblue" d="M1250,-56.08C1250,-49.01 1250,-38.86 1250,-29.99"/>
<polygon fill="midnightblue" stroke="midnightblue" points="1253.5,-29.75 1250,-19.75 1246.5,-29.75 1253.5,-29.75"/>
</g>
<!-- Node14&#45;&gt;Node15 -->
<g id="edge17" class="edge">
<title>Node14&#45;&gt;Node15</title>
<path fill="none" stroke="midnightblue" d="M683.66,-235.4C655.44,-225.28 617.79,-211.79 590.9,-202.15"/>
<polygon fill="midnightblue" stroke="midnightblue" points="591.75,-198.74 581.15,-198.66 589.39,-205.33 591.75,-198.74"/>
</g>
<!-- Node14&#45;&gt;Node16 -->
<g id="edge28" class="edge">
<title>Node14&#45;&gt;Node16</title>
<path fill="none" stroke="midnightblue" d="M711.85,-235.14C694.34,-212.61 660.49,-169.04 641.94,-145.16"/>
<polygon fill="midnightblue" stroke="midnightblue" points="644.54,-142.8 635.64,-137.05 639.01,-147.1 644.54,-142.8"/>
</g>
<!-- Node14&#45;&gt;Node17 -->
<g id="edge25" class="edge">
<title>Node14&#45;&gt;Node17</title>
<path fill="none" stroke="midnightblue" d="M773.78,-245.91C862.19,-239.13 1040.45,-222.93 1098,-199 1144.61,-179.62 1198.79,-154.14 1171,-112 1160.36,-95.86 1142.61,-85.49 1124.69,-78.83"/>
<polygon fill="midnightblue" stroke="midnightblue" points="1125.37,-75.37 1114.77,-75.5 1123.14,-82 1125.37,-75.37"/>
</g>
<!-- Node14&#45;&gt;Node19 -->
<g id="edge26" class="edge">
<title>Node14&#45;&gt;Node19</title>
<path fill="none" stroke="midnightblue" d="M729.53,-235.14C738.83,-214.68 756.02,-176.86 767.23,-152.2"/>
<polygon fill="midnightblue" stroke="midnightblue" points="770.53,-153.39 771.48,-142.84 764.16,-150.49 770.53,-153.39"/>
</g>
<!-- Node15&#45;&gt;Node3 -->
<g id="edge24" class="edge">
<title>Node15&#45;&gt;Node3</title>
<path fill="none" stroke="midnightblue" d="M552.85,-179.46C539.6,-152.19 498.1,-66.78 479.81,-29.13"/>
<polygon fill="midnightblue" stroke="midnightblue" points="482.83,-27.33 475.31,-19.87 476.53,-30.39 482.83,-27.33"/>
</g>
<!-- Node15&#45;&gt;Node9 -->
<g id="edge18" class="edge">
<title>Node15&#45;&gt;Node9</title>
<path fill="none" stroke="midnightblue" d="M539.95,-179.48C520.16,-169.58 487.28,-153.14 464.23,-141.62"/>
<polygon fill="midnightblue" stroke="midnightblue" points="465.53,-138.35 455.02,-137.01 462.4,-144.61 465.53,-138.35"/>
</g>
<!-- Node15&#45;&gt;Node16 -->
<g id="edge19" class="edge">
<title>Node15&#45;&gt;Node16</title>
<path fill="none" stroke="midnightblue" d="M567.32,-179.48C578.65,-170.11 597.07,-154.88 610.84,-143.51"/>
<polygon fill="midnightblue" stroke="midnightblue" points="613.22,-146.08 618.7,-137.01 608.77,-140.68 613.22,-146.08"/>
</g>
<!-- Node16&#45;&gt;Node3 -->
<g id="edge23" class="edge">
<title>Node16&#45;&gt;Node3</title>
<path fill="none" stroke="midnightblue" d="M621.15,-117.96C607.97,-103.93 580.15,-75.58 553,-56 535.94,-43.69 515.14,-32.31 498.76,-24.08"/>
<polygon fill="midnightblue" stroke="midnightblue" points="500.2,-20.89 489.69,-19.61 497.11,-27.17 500.2,-20.89"/>
</g>
<!-- Node16&#45;&gt;Node17 -->
<g id="edge20" class="edge">
<title>Node16&#45;&gt;Node17</title>
<path fill="none" stroke="midnightblue" d="M667.41,-117.95C677.64,-115.84 688.71,-113.69 699,-112 802.29,-95 922.92,-81.4 996.87,-73.76"/>
<polygon fill="midnightblue" stroke="midnightblue" points="997.4,-77.23 1006.99,-72.72 996.69,-70.26 997.4,-77.23"/>
</g>
<!-- Node17&#45;&gt;Node3 -->
<g id="edge22" class="edge">
<title>Node17&#45;&gt;Node3</title>
<path fill="none" stroke="midnightblue" d="M1006.77,-59.62C882.8,-48.37 599.54,-22.67 503.52,-13.95"/>
<polygon fill="midnightblue" stroke="midnightblue" points="503.55,-10.44 493.27,-13.02 502.92,-17.41 503.55,-10.44"/>
</g>
<!-- Node17&#45;&gt;Node18 -->
<g id="edge21" class="edge">
<title>Node17&#45;&gt;Node18</title>
<path fill="none" stroke="midnightblue" d="M1110.53,-56.44C1164.82,-46.01 1255.74,-28.54 1307.6,-18.57"/>
<polygon fill="midnightblue" stroke="midnightblue" points="1308.57,-21.95 1317.73,-16.62 1307.25,-15.07 1308.57,-21.95"/>
</g>
<!-- Node19&#45;&gt;Node11 -->
<g id="edge27" class="edge">
<title>Node19&#45;&gt;Node11</title>
<path fill="none" stroke="midnightblue" d="M802.65,-112.34C841.59,-89.96 916.87,-46.7 955.25,-24.65"/>
<polygon fill="midnightblue" stroke="midnightblue" points="957.24,-27.54 964.17,-19.52 953.75,-21.47 957.24,-27.54"/>
</g>
<!-- Node20&#45;&gt;Node3 -->
<g id="edge38" class="edge">
<title>Node20&#45;&gt;Node3</title>
<path fill="none" stroke="midnightblue" d="M902.37,-179.13C915.68,-163.95 938.52,-132.63 922,-112 869.12,-45.96 597.34,-20.19 503.17,-13.15"/>
<polygon fill="midnightblue" stroke="midnightblue" points="503.33,-9.65 493.1,-12.42 502.82,-16.64 503.33,-9.65"/>
</g>
<!-- Node20&#45;&gt;Node6 -->
<g id="edge37" class="edge">
<title>Node20&#45;&gt;Node6</title>
<path fill="none" stroke="midnightblue" d="M921.65,-179.48C955.19,-169.14 1011.87,-151.66 1049.37,-140.1"/>
<polygon fill="midnightblue" stroke="midnightblue" points="1050.87,-143.3 1059.4,-137.01 1048.81,-136.61 1050.87,-143.3"/>
</g>
<!-- Node20&#45;&gt;Node7 -->
<g id="edge40" class="edge">
<title>Node20&#45;&gt;Node7</title>
<path fill="none" stroke="midnightblue" d="M893.28,-179.48C892.58,-171.08 891.48,-157.98 890.57,-147.16"/>
<polygon fill="midnightblue" stroke="midnightblue" points="894.04,-146.68 889.72,-137.01 887.06,-147.27 894.04,-146.68"/>
</g>
<!-- Node20&#45;&gt;Node9 -->
<g id="edge33" class="edge">
<title>Node20&#45;&gt;Node9</title>
<path fill="none" stroke="midnightblue" d="M830.12,-179.66C746.92,-168.81 601.7,-149.86 513.26,-138.32"/>
<polygon fill="midnightblue" stroke="midnightblue" points="513.67,-134.84 503.3,-137.02 512.76,-141.78 513.67,-134.84"/>
</g>
<!-- Node20&#45;&gt;Node11 -->
<g id="edge39" class="edge">
<title>Node20&#45;&gt;Node11</title>
<path fill="none" stroke="midnightblue" d="M912.19,-179.4C926.17,-171.82 944.76,-159.42 955,-143 977.11,-107.55 980.02,-56.97 979.78,-29.87"/>
<polygon fill="midnightblue" stroke="midnightblue" points="983.28,-29.72 979.53,-19.8 976.28,-29.89 983.28,-29.72"/>
</g>
<!-- Node20&#45;&gt;Node16 -->
<g id="edge36" class="edge">
<title>Node20&#45;&gt;Node16</title>
<path fill="none" stroke="midnightblue" d="M856.03,-179.48C808.8,-168.87 728.14,-150.76 676.76,-139.22"/>
<polygon fill="midnightblue" stroke="midnightblue" points="677.42,-135.78 666.9,-137.01 675.89,-142.61 677.42,-135.78"/>
</g>
<!-- Node20&#45;&gt;Node17 -->
<g id="edge34" class="edge">
<title>Node20&#45;&gt;Node17</title>
<path fill="none" stroke="midnightblue" d="M919.82,-179.35C940.67,-171.66 970.2,-159.15 993,-143 1016.94,-126.05 1039.52,-100.53 1053.06,-83.81"/>
<polygon fill="midnightblue" stroke="midnightblue" points="1056.14,-85.56 1059.6,-75.54 1050.65,-81.22 1056.14,-85.56"/>
</g>
<!-- Node20&#45;&gt;Node19 -->
<g id="edge35" class="edge">
<title>Node20&#45;&gt;Node19</title>
<path fill="none" stroke="midnightblue" d="M877.38,-179.48C861.01,-171.08 835.46,-157.97 814.37,-147.15"/>
<polygon fill="midnightblue" stroke="midnightblue" points="815.83,-143.97 805.34,-142.52 812.64,-150.2 815.83,-143.97"/>
</g>
<!-- Node21&#45;&gt;Node3 -->
<g id="edge46" class="edge">
<title>Node21&#45;&gt;Node3</title>
<path fill="none" stroke="midnightblue" d="M257.82,-179.18C255.2,-155.67 251.55,-90.91 285,-56 305.94,-34.14 391.31,-20.6 438.77,-14.61"/>
<polygon fill="midnightblue" stroke="midnightblue" points="439.35,-18.07 448.85,-13.38 438.5,-11.12 439.35,-18.07"/>
</g>
<!-- Node21&#45;&gt;Node7 -->
<g id="edge47" class="edge">
<title>Node21&#45;&gt;Node7</title>
<path fill="none" stroke="midnightblue" d="M320.18,-186.01C451.34,-181.31 755.78,-168.02 856,-143 858.36,-142.41 860.76,-141.67 863.13,-140.83"/>
<polygon fill="midnightblue" stroke="midnightblue" points="864.64,-144 872.6,-137.01 862.02,-137.51 864.64,-144"/>
</g>
<!-- Node21&#45;&gt;Node22 -->
<g id="edge44" class="edge">
<title>Node21&#45;&gt;Node22</title>
<path fill="none" stroke="midnightblue" d="M246.68,-179.48C232.88,-169.93 210.3,-154.31 193.77,-142.87"/>
<polygon fill="midnightblue" stroke="midnightblue" points="195.51,-139.82 185.3,-137.01 191.53,-145.58 195.51,-139.82"/>
</g>
<!-- Node22&#45;&gt;Node3 -->
<g id="edge45" class="edge">
<title>Node22&#45;&gt;Node3</title>
<path fill="none" stroke="midnightblue" d="M179.26,-117.96C190.82,-102.86 217.09,-71.56 247,-56 309.71,-23.37 393.66,-14.37 438.89,-11.9"/>
<polygon fill="midnightblue" stroke="midnightblue" points="439.17,-15.39 448.99,-11.43 438.84,-8.4 439.17,-15.39"/>
</g>
<!-- Node23&#45;&gt;Node3 -->
<g id="edge54" class="edge">
<title>Node23&#45;&gt;Node3</title>
<path fill="none" stroke="midnightblue" d="M1374.68,-60.11C1359.78,-58.65 1343.21,-57.13 1328,-56 1006.67,-32.03 616.61,-16.44 503.29,-12.18"/>
<polygon fill="midnightblue" stroke="midnightblue" points="503.33,-8.68 493.2,-11.81 503.07,-15.68 503.33,-8.68"/>
</g>
<!-- Node23&#45;&gt;Node18 -->
<g id="edge52" class="edge">
<title>Node23&#45;&gt;Node18</title>
<path fill="none" stroke="midnightblue" d="M1409.11,-56.32C1397.85,-48.11 1380.71,-35.6 1367.29,-25.81"/>
<polygon fill="midnightblue" stroke="midnightblue" points="1369.25,-22.9 1359.11,-19.83 1365.12,-28.56 1369.25,-22.9"/>
</g>
<!-- Node24 -->
<g id="node24" class="node">
<title>Node24</title>
<g id="a_node24"><a xlink:title=" ">
<polygon fill="white" stroke="#bfbfbf" points="1394.5,-0.5 1394.5,-19.5 1451.5,-19.5 1451.5,-0.5 1394.5,-0.5"/>
<text text-anchor="middle" x="1423" y="-7.5" font-family="Helvetica,sans-Serif" font-size="10.00">ostream</text>
</a>
</g>
</g>
<!-- Node23&#45;&gt;Node24 -->
<g id="edge53" class="edge">
<title>Node23&#45;&gt;Node24</title>
<path fill="none" stroke="midnightblue" d="M1421.33,-56.08C1421.59,-49.01 1421.97,-38.86 1422.3,-29.99"/>
<polygon fill="midnightblue" stroke="midnightblue" points="1425.8,-29.87 1422.68,-19.75 1418.81,-29.61 1425.8,-29.87"/>
</g>
<!-- Node25&#45;&gt;Node8 -->
<g id="edge56" class="edge">
<title>Node25&#45;&gt;Node8</title>
<path fill="none" stroke="midnightblue" d="M575.2,-358.08C572.09,-350.77 567.58,-340.18 563.71,-331.1"/>
<polygon fill="midnightblue" stroke="midnightblue" points="566.87,-329.58 559.73,-321.75 560.43,-332.32 566.87,-329.58"/>
</g>
<!-- Node25&#45;&gt;Node18 -->
<g id="edge57" class="edge">
<title>Node25&#45;&gt;Node18</title>
<path fill="none" stroke="midnightblue" d="M616.13,-359.31C706.94,-339.76 946.43,-283.59 1132,-199 1225.58,-156.34 1265.98,-158.04 1328,-76 1338.18,-62.53 1342.92,-43.72 1345.12,-29.8"/>
<polygon fill="midnightblue" stroke="midnightblue" points="1348.59,-30.24 1346.39,-19.88 1341.65,-29.35 1348.59,-30.24"/>
</g>
</g>
</svg>
