<?xml version="1.0" encoding="UTF-8" standalone="no"?>
<!DOCTYPE svg PUBLIC "-//W3C//DTD SVG 1.1//EN"
 "http://www.w3.org/Graphics/SVG/1.1/DTD/svg11.dtd">
<!-- Generated by graphviz version 2.43.0 (0)
 -->
<!-- Title: Lyra/include/lyra/args.hpp Pages: 1 -->
<svg width="915pt" height="442pt"
 viewBox="0.00 0.00 914.86 442.00" xmlns="http://www.w3.org/2000/svg" xmlns:xlink="http://www.w3.org/1999/xlink">
<g id="graph0" class="graph" transform="scale(1 1) rotate(0) translate(4 438)">
<title>Lyra/include/lyra/args.hpp</title>
<polygon fill="white" stroke="transparent" points="-4,4 -4,-438 910.86,-438 910.86,4 -4,4"/>
<!-- Node1 -->
<g id="node1" class="node">
<title>Node1</title>
<g id="a_node1"><a xlink:title=" ">
<polygon fill="#bfbfbf" stroke="black" points="693.82,-414.5 693.82,-433.5 835.82,-433.5 835.82,-414.5 693.82,-414.5"/>
<text text-anchor="middle" x="764.82" y="-421.5" font-family="Helvetica,sans-Serif" font-size="10.00">Lyra/include/lyra/args.hpp</text>
</a>
</g>
</g>
<!-- Node2 -->
<g id="node2" class="node">
<title>Node2</title>
<g id="a_node2"><a xlink:href="main_8hpp.html" target="_top" xlink:title=" ">
<polygon fill="white" stroke="black" points="592.82,-62 592.82,-81 738.82,-81 738.82,-62 592.82,-62"/>
<text text-anchor="middle" x="665.82" y="-69" font-family="Helvetica,sans-Serif" font-size="10.00">Lyra/include/lyra/main.hpp</text>
</a>
</g>
</g>
<!-- Node1&#45;&gt;Node2 -->
<g id="edge1" class="edge">
<title>Node1&#45;&gt;Node2</title>
<path fill="none" stroke="midnightblue" d="M800.24,-410.79C840.83,-394.28 901.82,-360.64 901.82,-307.5 901.82,-307.5 901.82,-307.5 901.82,-188 901.82,-157.9 904.68,-143.68 882.82,-123 861.7,-103.03 790.62,-89.11 735.5,-81.01"/>
<polygon fill="midnightblue" stroke="midnightblue" points="798.95,-407.54 790.91,-414.44 801.5,-414.06 798.95,-407.54"/>
</g>
<!-- Node4 -->
<g id="node4" class="node">
<title>Node4</title>
<g id="a_node4"><a xlink:href="parser_8hpp.html" target="_top" xlink:title=" ">
<polygon fill="white" stroke="black" points="570.82,-358.5 570.82,-377.5 722.82,-377.5 722.82,-358.5 570.82,-358.5"/>
<text text-anchor="middle" x="646.82" y="-365.5" font-family="Helvetica,sans-Serif" font-size="10.00">Lyra/include/lyra/parser.hpp</text>
</a>
</g>
</g>
<!-- Node1&#45;&gt;Node4 -->
<g id="edge3" class="edge">
<title>Node1&#45;&gt;Node4</title>
<path fill="none" stroke="midnightblue" d="M736.92,-410.23C714.84,-400.13 684.64,-386.31 665.43,-377.52"/>
<polygon fill="midnightblue" stroke="midnightblue" points="735.57,-413.46 746.12,-414.44 738.48,-407.1 735.57,-413.46"/>
</g>
<!-- Node3 -->
<g id="node3" class="node">
<title>Node3</title>
<g id="a_node3"><a xlink:href="include_2lyra_2lyra_8hpp.html" target="_top" xlink:title=" ">
<polygon fill="white" stroke="black" points="372.82,-0.5 372.82,-19.5 512.82,-19.5 512.82,-0.5 372.82,-0.5"/>
<text text-anchor="middle" x="442.82" y="-7.5" font-family="Helvetica,sans-Serif" font-size="10.00">Lyra/include/lyra/lyra.hpp</text>
</a>
</g>
</g>
<!-- Node2&#45;&gt;Node3 -->
<g id="edge2" class="edge">
<title>Node2&#45;&gt;Node3</title>
<path fill="none" stroke="midnightblue" d="M624.2,-59.4C580.89,-47.84 514.01,-30 474.71,-19.51"/>
<polygon fill="midnightblue" stroke="midnightblue" points="623.3,-62.78 633.87,-61.98 625.11,-56.02 623.3,-62.78"/>
</g>
<!-- Node4&#45;&gt;Node2 -->
<g id="edge27" class="edge">
<title>Node4&#45;&gt;Node2</title>
<path fill="none" stroke="midnightblue" d="M651.55,-348.55C657.17,-324.94 665.82,-282.71 665.82,-246 665.82,-246 665.82,-246 665.82,-188 665.82,-148.1 665.82,-100.44 665.82,-81.19"/>
<polygon fill="midnightblue" stroke="midnightblue" points="648.15,-347.72 649.15,-358.27 654.94,-349.4 648.15,-347.72"/>
</g>
<!-- Node4&#45;&gt;Node3 -->
<g id="edge26" class="edge">
<title>Node4&#45;&gt;Node3</title>
<path fill="none" stroke="midnightblue" d="M680.3,-354.84C759.29,-324.04 947.09,-237.17 898.82,-123 882.17,-83.63 868.43,-74.33 829.82,-56 775.36,-30.15 609.11,-18.48 513.15,-13.78"/>
<polygon fill="midnightblue" stroke="midnightblue" points="678.88,-351.64 670.79,-358.49 681.38,-358.18 678.88,-351.64"/>
</g>
<!-- Node5 -->
<g id="node5" class="node">
<title>Node5</title>
<g id="a_node5"><a xlink:href="arg_8hpp.html" target="_top" xlink:title=" ">
<polygon fill="white" stroke="black" points="500.32,-123.5 500.32,-142.5 637.32,-142.5 637.32,-123.5 500.32,-123.5"/>
<text text-anchor="middle" x="568.82" y="-130.5" font-family="Helvetica,sans-Serif" font-size="10.00">Lyra/include/lyra/arg.hpp</text>
</a>
</g>
</g>
<!-- Node4&#45;&gt;Node5 -->
<g id="edge4" class="edge">
<title>Node4&#45;&gt;Node5</title>
<path fill="none" stroke="midnightblue" d="M640.68,-348.66C624.88,-301.48 583.29,-177.22 571.79,-142.9"/>
<polygon fill="midnightblue" stroke="midnightblue" points="637.45,-350.06 643.95,-358.43 644.09,-347.84 637.45,-350.06"/>
</g>
<!-- Node6 -->
<g id="node6" class="node">
<title>Node6</title>
<g id="a_node6"><a xlink:href="arguments_8hpp.html" target="_top" xlink:title=" ">
<polygon fill="white" stroke="black" points="107.32,-235.5 107.32,-254.5 280.32,-254.5 280.32,-235.5 107.32,-235.5"/>
<text text-anchor="middle" x="193.82" y="-242.5" font-family="Helvetica,sans-Serif" font-size="10.00">Lyra/include/lyra/arguments.hpp</text>
</a>
</g>
</g>
<!-- Node4&#45;&gt;Node6 -->
<g id="edge7" class="edge">
<title>Node4&#45;&gt;Node6</title>
<path fill="none" stroke="midnightblue" d="M605.15,-355.87C515.56,-331.94 306.22,-276.02 225.94,-254.58"/>
<polygon fill="midnightblue" stroke="midnightblue" points="604.4,-359.29 614.96,-358.49 606.2,-352.53 604.4,-359.29"/>
</g>
<!-- Node11 -->
<g id="node11" class="node">
<title>Node11</title>
<g id="a_node11"><a xlink:href="exe__name_8hpp.html" target="_top" xlink:title=" ">
<polygon fill="white" stroke="black" points="64.82,-291.5 64.82,-321.5 182.82,-321.5 182.82,-291.5 64.82,-291.5"/>
<text text-anchor="start" x="72.82" y="-309.5" font-family="Helvetica,sans-Serif" font-size="10.00">Lyra/include/lyra/exe</text>
<text text-anchor="middle" x="123.82" y="-298.5" font-family="Helvetica,sans-Serif" font-size="10.00">_name.hpp</text>
</a>
</g>
</g>
<!-- Node4&#45;&gt;Node11 -->
<g id="edge19" class="edge">
<title>Node4&#45;&gt;Node11</title>
<path fill="none" stroke="midnightblue" d="M561.82,-357.33C455.42,-345.23 275.92,-324.8 183.2,-314.26"/>
<polygon fill="midnightblue" stroke="midnightblue" points="561.55,-360.82 571.88,-358.48 562.34,-353.87 561.55,-360.82"/>
</g>
<!-- Node12 -->
<g id="node12" class="node">
<title>Node12</title>
<g id="a_node12"><a xlink:href="literal_8hpp.html" target="_top" xlink:title=" ">
<polygon fill="white" stroke="black" points="397.32,-179.5 397.32,-198.5 546.32,-198.5 546.32,-179.5 397.32,-179.5"/>
<text text-anchor="middle" x="471.82" y="-186.5" font-family="Helvetica,sans-Serif" font-size="10.00">Lyra/include/lyra/literal.hpp</text>
</a>
</g>
</g>
<!-- Node4&#45;&gt;Node12 -->
<g id="edge23" class="edge">
<title>Node4&#45;&gt;Node12</title>
<path fill="none" stroke="midnightblue" d="M625.38,-352.59C613.54,-344.23 598.83,-333.16 586.82,-322 541.18,-279.58 494.89,-220.45 478.26,-198.58"/>
<polygon fill="midnightblue" stroke="midnightblue" points="623.58,-355.6 633.8,-358.42 627.57,-349.85 623.58,-355.6"/>
</g>
<!-- Node13 -->
<g id="node13" class="node">
<title>Node13</title>
<g id="a_node13"><a xlink:href="opt_8hpp.html" target="_top" xlink:title=" ">
<polygon fill="white" stroke="black" points="714.32,-179.5 714.32,-198.5 851.32,-198.5 851.32,-179.5 714.32,-179.5"/>
<text text-anchor="middle" x="782.82" y="-186.5" font-family="Helvetica,sans-Serif" font-size="10.00">Lyra/include/lyra/opt.hpp</text>
</a>
</g>
</g>
<!-- Node4&#45;&gt;Node13 -->
<g id="edge28" class="edge">
<title>Node4&#45;&gt;Node13</title>
<path fill="none" stroke="midnightblue" d="M659.68,-350.26C687.91,-313.52 754.51,-226.84 776,-198.87"/>
<polygon fill="midnightblue" stroke="midnightblue" points="656.69,-348.4 653.38,-358.46 662.24,-352.67 656.69,-348.4"/>
</g>
<!-- Node5&#45;&gt;Node2 -->
<g id="edge6" class="edge">
<title>Node5&#45;&gt;Node2</title>
<path fill="none" stroke="midnightblue" d="M591.24,-118.24C609.98,-106.75 636.11,-90.72 651.94,-81.01"/>
<polygon fill="midnightblue" stroke="midnightblue" points="589.41,-115.26 582.71,-123.48 593.07,-121.23 589.41,-115.26"/>
</g>
<!-- Node5&#45;&gt;Node3 -->
<g id="edge5" class="edge">
<title>Node5&#45;&gt;Node3</title>
<path fill="none" stroke="midnightblue" d="M552.27,-116.11C525.3,-90.21 472.78,-39.78 451.8,-19.62"/>
<polygon fill="midnightblue" stroke="midnightblue" points="550.12,-118.9 559.76,-123.3 554.97,-113.85 550.12,-118.9"/>
</g>
<!-- Node6&#45;&gt;Node3 -->
<g id="edge18" class="edge">
<title>Node6&#45;&gt;Node3</title>
<path fill="none" stroke="midnightblue" d="M235.67,-231.61C251.43,-224.69 267.72,-214.28 276.82,-199 294.31,-169.62 248.28,-152.93 264.82,-123 296.59,-65.47 371.68,-33.47 413.47,-19.54"/>
<polygon fill="midnightblue" stroke="midnightblue" points="233.98,-228.52 226,-235.49 236.59,-235.02 233.98,-228.52"/>
</g>
<!-- Node7 -->
<g id="node7" class="node">
<title>Node7</title>
<g id="a_node7"><a xlink:href="cli_8hpp.html" target="_top" xlink:title=" ">
<polygon fill="white" stroke="black" points="38.82,-123.5 38.82,-142.5 170.82,-142.5 170.82,-123.5 38.82,-123.5"/>
<text text-anchor="middle" x="104.82" y="-130.5" font-family="Helvetica,sans-Serif" font-size="10.00">Lyra/include/lyra/cli.hpp</text>
</a>
</g>
</g>
<!-- Node6&#45;&gt;Node7 -->
<g id="edge8" class="edge">
<title>Node6&#45;&gt;Node7</title>
<path fill="none" stroke="midnightblue" d="M152.87,-231.72C136.77,-224.76 119.79,-214.29 109.82,-199 98.56,-181.75 100.78,-156.17 103.01,-142.83"/>
<polygon fill="midnightblue" stroke="midnightblue" points="151.6,-234.99 162.18,-235.43 154.18,-228.48 151.6,-234.99"/>
</g>
<!-- Node9 -->
<g id="node9" class="node">
<title>Node9</title>
<g id="a_node9"><a xlink:href="group_8hpp.html" target="_top" xlink:title=" ">
<polygon fill="white" stroke="black" points="119.32,-179.5 119.32,-198.5 268.32,-198.5 268.32,-179.5 119.32,-179.5"/>
<text text-anchor="middle" x="193.82" y="-186.5" font-family="Helvetica,sans-Serif" font-size="10.00">Lyra/include/lyra/group.hpp</text>
</a>
</g>
</g>
<!-- Node6&#45;&gt;Node9 -->
<g id="edge13" class="edge">
<title>Node6&#45;&gt;Node9</title>
<path fill="none" stroke="midnightblue" d="M193.82,-224.8C193.82,-215.91 193.82,-205.78 193.82,-198.75"/>
<polygon fill="midnightblue" stroke="midnightblue" points="190.32,-225.08 193.82,-235.08 197.32,-225.08 190.32,-225.08"/>
</g>
<!-- Node7&#45;&gt;Node2 -->
<g id="edge12" class="edge">
<title>Node7&#45;&gt;Node2</title>
<path fill="none" stroke="midnightblue" d="M181.01,-123.92C289.18,-112.45 485.96,-91.58 592.53,-80.27"/>
<polygon fill="midnightblue" stroke="midnightblue" points="180.4,-120.46 170.82,-125 181.13,-127.43 180.4,-120.46"/>
</g>
<!-- Node7&#45;&gt;Node3 -->
<g id="edge11" class="edge">
<title>Node7&#45;&gt;Node3</title>
<path fill="none" stroke="midnightblue" d="M120.88,-116.47C141.83,-96.55 177.7,-63.64 193.82,-56 250.38,-29.18 321.12,-18.27 372.74,-13.88"/>
<polygon fill="midnightblue" stroke="midnightblue" points="118.45,-113.95 113.65,-123.39 123.3,-119 118.45,-113.95"/>
</g>
<!-- Node8 -->
<g id="node8" class="node">
<title>Node8</title>
<g id="a_node8"><a xlink:href="cli__parser_8hpp.html" target="_top" xlink:title=" ">
<polygon fill="white" stroke="black" points="30.32,-56.5 30.32,-86.5 141.32,-86.5 141.32,-56.5 30.32,-56.5"/>
<text text-anchor="start" x="38.32" y="-74.5" font-family="Helvetica,sans-Serif" font-size="10.00">Lyra/include/lyra/cli</text>
<text text-anchor="middle" x="85.82" y="-63.5" font-family="Helvetica,sans-Serif" font-size="10.00">_parser.hpp</text>
</a>
</g>
</g>
<!-- Node7&#45;&gt;Node8 -->
<g id="edge9" class="edge">
<title>Node7&#45;&gt;Node8</title>
<path fill="none" stroke="midnightblue" d="M99.01,-113.82C96.21,-105.04 92.9,-94.68 90.29,-86.52"/>
<polygon fill="midnightblue" stroke="midnightblue" points="95.72,-115.01 102.09,-123.48 102.39,-112.88 95.72,-115.01"/>
</g>
<!-- Node8&#45;&gt;Node3 -->
<g id="edge10" class="edge">
<title>Node8&#45;&gt;Node3</title>
<path fill="none" stroke="midnightblue" d="M151.42,-56.81C152.9,-56.53 154.37,-56.26 155.82,-56 234.09,-41.76 324.88,-27.99 383.03,-19.51"/>
<polygon fill="midnightblue" stroke="midnightblue" points="150.72,-53.38 141.55,-58.7 152.03,-60.26 150.72,-53.38"/>
</g>
<!-- Node9&#45;&gt;Node3 -->
<g id="edge17" class="edge">
<title>Node9&#45;&gt;Node3</title>
<path fill="none" stroke="midnightblue" d="M193.54,-169.09C194.2,-140.31 199.93,-85.73 231.82,-56 252.09,-37.1 319.45,-25.01 372.67,-18.18"/>
<polygon fill="midnightblue" stroke="midnightblue" points="190.04,-169.37 193.5,-179.39 197.04,-169.4 190.04,-169.37"/>
</g>
<!-- Node9&#45;&gt;Node7 -->
<g id="edge14" class="edge">
<title>Node9&#45;&gt;Node7</title>
<path fill="none" stroke="midnightblue" d="M170.58,-173.9C154.26,-164 132.95,-151.07 119.08,-142.65"/>
<polygon fill="midnightblue" stroke="midnightblue" points="169.15,-177.13 179.52,-179.32 172.78,-171.14 169.15,-177.13"/>
</g>
<!-- Node10 -->
<g id="node10" class="node">
<title>Node10</title>
<g id="a_node10"><a xlink:href="command_8hpp.html" target="_top" xlink:title=" ">
<polygon fill="white" stroke="black" points="273.82,-123.5 273.82,-142.5 443.82,-142.5 443.82,-123.5 273.82,-123.5"/>
<text text-anchor="middle" x="358.82" y="-130.5" font-family="Helvetica,sans-Serif" font-size="10.00">Lyra/include/lyra/command.hpp</text>
</a>
</g>
</g>
<!-- Node9&#45;&gt;Node10 -->
<g id="edge15" class="edge">
<title>Node9&#45;&gt;Node10</title>
<path fill="none" stroke="midnightblue" d="M229.55,-176.3C260.64,-166.13 304.96,-151.62 332.79,-142.52"/>
<polygon fill="midnightblue" stroke="midnightblue" points="228.38,-173.01 219.96,-179.44 230.55,-179.66 228.38,-173.01"/>
</g>
<!-- Node10&#45;&gt;Node3 -->
<g id="edge16" class="edge">
<title>Node10&#45;&gt;Node3</title>
<path fill="none" stroke="midnightblue" d="M370.79,-114.75C389.03,-88.48 423.08,-39.43 436.83,-19.62"/>
<polygon fill="midnightblue" stroke="midnightblue" points="367.69,-113.09 364.86,-123.3 373.44,-117.08 367.69,-113.09"/>
</g>
<!-- Node11&#45;&gt;Node3 -->
<g id="edge22" class="edge">
<title>Node11&#45;&gt;Node3</title>
<path fill="none" stroke="midnightblue" d="M81.61,-286.74C46.36,-267.88 1.82,-235.11 1.82,-190 1.82,-190 1.82,-190 1.82,-132 1.82,-97.18 -5.45,-78.85 20.82,-56 46.77,-33.42 259.43,-19.84 372.58,-14.14"/>
<polygon fill="midnightblue" stroke="midnightblue" points="80.31,-290.01 90.8,-291.47 83.51,-283.78 80.31,-290.01"/>
</g>
<!-- Node11&#45;&gt;Node6 -->
<g id="edge20" class="edge">
<title>Node11&#45;&gt;Node6</title>
<path fill="none" stroke="midnightblue" d="M148.06,-284.89C160.24,-274.54 174.34,-262.56 183.63,-254.66"/>
<polygon fill="midnightblue" stroke="midnightblue" points="145.76,-282.26 140.41,-291.4 150.29,-287.59 145.76,-282.26"/>
</g>
<!-- Node11&#45;&gt;Node7 -->
<g id="edge21" class="edge">
<title>Node11&#45;&gt;Node7</title>
<path fill="none" stroke="midnightblue" d="M109.04,-282.47C104.51,-274.15 100.11,-264.47 97.82,-255 87.86,-213.89 97.85,-162.74 102.61,-142.66"/>
<polygon fill="midnightblue" stroke="midnightblue" points="106.07,-284.32 114.12,-291.21 112.12,-280.8 106.07,-284.32"/>
</g>
<!-- Node12&#45;&gt;Node3 -->
<g id="edge25" class="edge">
<title>Node12&#45;&gt;Node3</title>
<path fill="none" stroke="midnightblue" d="M468.76,-169.35C462.58,-131.6 448.77,-47.36 444.27,-19.87"/>
<polygon fill="midnightblue" stroke="midnightblue" points="465.35,-170.16 470.42,-179.46 472.26,-169.03 465.35,-170.16"/>
</g>
<!-- Node12&#45;&gt;Node10 -->
<g id="edge24" class="edge">
<title>Node12&#45;&gt;Node10</title>
<path fill="none" stroke="midnightblue" d="M444.81,-175.1C423.7,-165.01 394.96,-151.27 376.64,-142.52"/>
<polygon fill="midnightblue" stroke="midnightblue" points="443.38,-178.29 453.91,-179.44 446.4,-171.97 443.38,-178.29"/>
</g>
<!-- Node13&#45;&gt;Node2 -->
<g id="edge33" class="edge">
<title>Node13&#45;&gt;Node2</title>
<path fill="none" stroke="midnightblue" d="M760.77,-173.45C748.95,-165.17 734.47,-154.24 722.82,-143 701.97,-122.9 681.64,-95.27 671.86,-81.32"/>
<polygon fill="midnightblue" stroke="midnightblue" points="758.97,-176.46 769.2,-179.22 762.92,-170.68 758.97,-176.46"/>
</g>
<!-- Node13&#45;&gt;Node3 -->
<g id="edge32" class="edge">
<title>Node13&#45;&gt;Node3</title>
<path fill="none" stroke="midnightblue" d="M831.96,-176.5C863.88,-166.36 897.11,-149.08 882.82,-123 856.21,-74.46 829.8,-75.02 777.82,-56 690.19,-23.94 582.19,-14.35 512.92,-11.68"/>
<polygon fill="midnightblue" stroke="midnightblue" points="830.73,-173.21 822.15,-179.42 832.73,-179.92 830.73,-173.21"/>
</g>
<!-- Node14 -->
<g id="node14" class="node">
<title>Node14</title>
<g id="a_node14"><a xlink:href="help_8hpp.html" target="_top" xlink:title=" ">
<polygon fill="white" stroke="black" points="731.82,-123.5 731.82,-142.5 873.82,-142.5 873.82,-123.5 731.82,-123.5"/>
<text text-anchor="middle" x="802.82" y="-130.5" font-family="Helvetica,sans-Serif" font-size="10.00">Lyra/include/lyra/help.hpp</text>
</a>
</g>
</g>
<!-- Node13&#45;&gt;Node14 -->
<g id="edge29" class="edge">
<title>Node13&#45;&gt;Node14</title>
<path fill="none" stroke="midnightblue" d="M789.6,-169.69C792.97,-160.59 796.89,-150.01 799.58,-142.75"/>
<polygon fill="midnightblue" stroke="midnightblue" points="786.31,-168.49 786.12,-179.08 792.87,-170.92 786.31,-168.49"/>
</g>
<!-- Node14&#45;&gt;Node2 -->
<g id="edge31" class="edge">
<title>Node14&#45;&gt;Node2</title>
<path fill="none" stroke="midnightblue" d="M773.99,-119.48C747.38,-107.92 708.59,-91.08 685.41,-81.01"/>
<polygon fill="midnightblue" stroke="midnightblue" points="772.62,-122.7 783.19,-123.48 775.41,-116.28 772.62,-122.7"/>
</g>
<!-- Node14&#45;&gt;Node3 -->
<g id="edge30" class="edge">
<title>Node14&#45;&gt;Node3</title>
<path fill="none" stroke="midnightblue" d="M795.02,-114.07C786.26,-96.24 770.27,-69.62 747.82,-56 709.44,-32.71 590.39,-20.62 512.88,-15.05"/>
<polygon fill="midnightblue" stroke="midnightblue" points="791.85,-115.57 799.24,-123.17 798.2,-112.62 791.85,-115.57"/>
</g>
</g>
</svg>
