<?xml version="1.0" encoding="UTF-8" standalone="no"?>
<!DOCTYPE svg PUBLIC "-//W3C//DTD SVG 1.1//EN"
 "http://www.w3.org/Graphics/SVG/1.1/DTD/svg11.dtd">
<!-- Generated by graphviz version 2.43.0 (0)
 -->
<!-- Title: Lyra/include/lyra/arguments.hpp Pages: 1 -->
<svg width="1544pt" height="554pt"
 viewBox="0.00 0.00 1544.28 554.00" xmlns="http://www.w3.org/2000/svg" xmlns:xlink="http://www.w3.org/1999/xlink">
<g id="graph0" class="graph" transform="scale(1 1) rotate(0) translate(4 550)">
<title>Lyra/include/lyra/arguments.hpp</title>
<polygon fill="white" stroke="transparent" points="-4,4 -4,-550 1540.28,-550 1540.28,4 -4,4"/>
<!-- Node1 -->
<g id="node1" class="node">
<title>Node1</title>
<g id="a_node1"><a xlink:title=" ">
<polygon fill="#bfbfbf" stroke="black" points="831.6,-526.5 831.6,-545.5 1004.6,-545.5 1004.6,-526.5 831.6,-526.5"/>
<text text-anchor="middle" x="918.1" y="-533.5" font-family="Helvetica,sans-Serif" font-size="10.00">Lyra/include/lyra/arguments.hpp</text>
</a>
</g>
</g>
<!-- Node2 -->
<g id="node2" class="node">
<title>Node2</title>
<g id="a_node2"><a xlink:href="print_8hpp.html" target="_top" xlink:title=" ">
<polygon fill="white" stroke="black" points="418.6,-414.5 418.6,-433.5 531.6,-433.5 531.6,-414.5 418.6,-414.5"/>
<text text-anchor="middle" x="475.1" y="-421.5" font-family="Helvetica,sans-Serif" font-size="10.00">lyra/detail/print.hpp</text>
</a>
</g>
</g>
<!-- Node1&#45;&gt;Node2 -->
<g id="edge1" class="edge">
<title>Node1&#45;&gt;Node2</title>
<path fill="none" stroke="midnightblue" d="M883.71,-526.46C804.14,-506.7 607.42,-457.86 519.18,-435.94"/>
<polygon fill="midnightblue" stroke="midnightblue" points="520.02,-432.55 509.47,-433.53 518.33,-439.34 520.02,-432.55"/>
</g>
<!-- Node4 -->
<g id="node4" class="node">
<title>Node4</title>
<g id="a_node4"><a xlink:href="trait__utils_8hpp.html" target="_top" xlink:title=" ">
<polygon fill="white" stroke="black" points="29.6,-56.5 29.6,-75.5 166.6,-75.5 166.6,-56.5 29.6,-56.5"/>
<text text-anchor="middle" x="98.1" y="-63.5" font-family="Helvetica,sans-Serif" font-size="10.00">lyra/detail/trait_utils.hpp</text>
</a>
</g>
</g>
<!-- Node1&#45;&gt;Node4 -->
<g id="edge3" class="edge">
<title>Node1&#45;&gt;Node4</title>
<path fill="none" stroke="midnightblue" d="M831.52,-535.76C626.49,-536.82 123.88,-534.76 63.1,-490 38.3,-471.74 39.1,-455.8 39.1,-425 39.1,-425 39.1,-425 39.1,-188 39.1,-147.15 66.61,-105.67 84.06,-83.47"/>
<polygon fill="midnightblue" stroke="midnightblue" points="86.79,-85.66 90.39,-75.69 81.36,-81.24 86.79,-85.66"/>
</g>
<!-- Node5 -->
<g id="node5" class="node">
<title>Node5</title>
<g id="a_node5"><a xlink:title=" ">
<polygon fill="white" stroke="#bfbfbf" points="183.6,-0.5 183.6,-19.5 252.6,-19.5 252.6,-0.5 183.6,-0.5"/>
<text text-anchor="middle" x="218.1" y="-7.5" font-family="Helvetica,sans-Serif" font-size="10.00">type_traits</text>
</a>
</g>
</g>
<!-- Node1&#45;&gt;Node5 -->
<g id="edge69" class="edge">
<title>Node1&#45;&gt;Node5</title>
<path fill="none" stroke="midnightblue" d="M831.42,-526.9C602.83,-503.17 1.1,-424.28 1.1,-251.5 1.1,-251.5 1.1,-251.5 1.1,-126.5 1.1,-94.05 -3.3,-78.49 20.1,-56 41.68,-35.26 121.74,-22.24 173.21,-15.82"/>
<polygon fill="midnightblue" stroke="midnightblue" points="173.91,-19.26 183.41,-14.58 173.07,-12.31 173.91,-19.26"/>
</g>
<!-- Node7 -->
<g id="node7" class="node">
<title>Node7</title>
<g id="a_node7"><a xlink:href="exe__name_8hpp.html" target="_top" xlink:title=" ">
<polygon fill="white" stroke="black" points="977.1,-470.5 977.1,-489.5 1087.1,-489.5 1087.1,-470.5 977.1,-470.5"/>
<text text-anchor="middle" x="1032.1" y="-477.5" font-family="Helvetica,sans-Serif" font-size="10.00">lyra/exe_name.hpp</text>
</a>
</g>
</g>
<!-- Node1&#45;&gt;Node7 -->
<g id="edge6" class="edge">
<title>Node1&#45;&gt;Node7</title>
<path fill="none" stroke="midnightblue" d="M936.16,-526.44C954.67,-517.68 983.68,-503.94 1004.96,-493.86"/>
<polygon fill="midnightblue" stroke="midnightblue" points="1006.58,-496.96 1014.12,-489.52 1003.58,-490.63 1006.58,-496.96"/>
</g>
<!-- Node20 -->
<g id="node20" class="node">
<title>Node20</title>
<g id="a_node20"><a xlink:href="parser_8hpp.html" target="_top" xlink:title=" ">
<polygon fill="white" stroke="black" points="873.1,-414.5 873.1,-433.5 963.1,-433.5 963.1,-414.5 873.1,-414.5"/>
<text text-anchor="middle" x="918.1" y="-421.5" font-family="Helvetica,sans-Serif" font-size="10.00">lyra/parser.hpp</text>
</a>
</g>
</g>
<!-- Node1&#45;&gt;Node20 -->
<g id="edge66" class="edge">
<title>Node1&#45;&gt;Node20</title>
<path fill="none" stroke="midnightblue" d="M918.1,-526.37C918.1,-508.62 918.1,-467.67 918.1,-443.6"/>
<polygon fill="midnightblue" stroke="midnightblue" points="921.6,-443.59 918.1,-433.59 914.6,-443.59 921.6,-443.59"/>
</g>
<!-- Node24 -->
<g id="node24" class="node">
<title>Node24</title>
<g id="a_node24"><a xlink:href="printer_8hpp.html" target="_top" xlink:title=" ">
<polygon fill="white" stroke="black" points="1394.1,-358.5 1394.1,-377.5 1486.1,-377.5 1486.1,-358.5 1394.1,-358.5"/>
<text text-anchor="middle" x="1440.1" y="-365.5" font-family="Helvetica,sans-Serif" font-size="10.00">lyra/printer.hpp</text>
</a>
</g>
</g>
<!-- Node1&#45;&gt;Node24 -->
<g id="edge67" class="edge">
<title>Node1&#45;&gt;Node24</title>
<path fill="none" stroke="midnightblue" d="M1004.97,-531.48C1102.21,-524.18 1261.67,-501.86 1380.1,-434 1400.62,-422.24 1418.17,-401.1 1428.89,-386.13"/>
<polygon fill="midnightblue" stroke="midnightblue" points="1431.88,-387.96 1434.65,-377.74 1426.11,-384 1431.88,-387.96"/>
</g>
<!-- Node27 -->
<g id="node27" class="node">
<title>Node27</title>
<g id="a_node27"><a xlink:title=" ">
<polygon fill="white" stroke="#bfbfbf" points="1432.6,-470.5 1432.6,-489.5 1497.6,-489.5 1497.6,-470.5 1432.6,-470.5"/>
<text text-anchor="middle" x="1465.1" y="-477.5" font-family="Helvetica,sans-Serif" font-size="10.00">functional</text>
</a>
</g>
</g>
<!-- Node1&#45;&gt;Node27 -->
<g id="edge68" class="edge">
<title>Node1&#45;&gt;Node27</title>
<path fill="none" stroke="midnightblue" d="M1004.67,-529.83C1104.6,-523.26 1273.75,-510.27 1418.1,-490 1419.57,-489.79 1421.05,-489.57 1422.56,-489.34"/>
<polygon fill="midnightblue" stroke="midnightblue" points="1423.27,-492.77 1432.55,-487.67 1422.11,-485.87 1423.27,-492.77"/>
</g>
<!-- Node3 -->
<g id="node3" class="node">
<title>Node3</title>
<g id="a_node3"><a xlink:title=" ">
<polygon fill="white" stroke="#bfbfbf" points="964.1,-0.5 964.1,-19.5 1008.1,-19.5 1008.1,-0.5 964.1,-0.5"/>
<text text-anchor="middle" x="986.1" y="-7.5" font-family="Helvetica,sans-Serif" font-size="10.00">string</text>
</a>
</g>
</g>
<!-- Node2&#45;&gt;Node3 -->
<g id="edge2" class="edge">
<title>Node2&#45;&gt;Node3</title>
<path fill="none" stroke="midnightblue" d="M418.55,-420.95C342.83,-417.14 213.73,-406.54 177.1,-378 129.02,-340.53 124.1,-312.46 124.1,-251.5 124.1,-251.5 124.1,-251.5 124.1,-188 124.1,-15.31 796.35,-9.59 953.52,-10.61"/>
<polygon fill="midnightblue" stroke="midnightblue" points="953.9,-14.11 963.93,-10.69 953.95,-7.11 953.9,-14.11"/>
</g>
<!-- Node4&#45;&gt;Node5 -->
<g id="edge4" class="edge">
<title>Node4&#45;&gt;Node5</title>
<path fill="none" stroke="midnightblue" d="M117.11,-56.44C136.69,-47.64 167.41,-33.81 189.83,-23.72"/>
<polygon fill="midnightblue" stroke="midnightblue" points="191.49,-26.81 199.17,-19.52 188.62,-20.43 191.49,-26.81"/>
</g>
<!-- Node6 -->
<g id="node6" class="node">
<title>Node6</title>
<g id="a_node6"><a xlink:title=" ">
<polygon fill="white" stroke="#bfbfbf" points="75.6,-0.5 75.6,-19.5 120.6,-19.5 120.6,-0.5 75.6,-0.5"/>
<text text-anchor="middle" x="98.1" y="-7.5" font-family="Helvetica,sans-Serif" font-size="10.00">utility</text>
</a>
</g>
</g>
<!-- Node4&#45;&gt;Node6 -->
<g id="edge5" class="edge">
<title>Node4&#45;&gt;Node6</title>
<path fill="none" stroke="midnightblue" d="M98.1,-56.08C98.1,-49.01 98.1,-38.86 98.1,-29.99"/>
<polygon fill="midnightblue" stroke="midnightblue" points="101.6,-29.75 98.1,-19.75 94.6,-29.75 101.6,-29.75"/>
</g>
<!-- Node8 -->
<g id="node8" class="node">
<title>Node8</title>
<g id="a_node8"><a xlink:href="bound_8hpp.html" target="_top" xlink:title=" ">
<polygon fill="white" stroke="black" points="1010.1,-302.5 1010.1,-321.5 1130.1,-321.5 1130.1,-302.5 1010.1,-302.5"/>
<text text-anchor="middle" x="1070.1" y="-309.5" font-family="Helvetica,sans-Serif" font-size="10.00">lyra/detail/bound.hpp</text>
</a>
</g>
</g>
<!-- Node7&#45;&gt;Node8 -->
<g id="edge7" class="edge">
<title>Node7&#45;&gt;Node8</title>
<path fill="none" stroke="midnightblue" d="M1048.06,-470.42C1073.79,-455.56 1123.5,-422.32 1143.1,-378 1153.28,-354.98 1127.16,-336.82 1103.39,-325.61"/>
<polygon fill="midnightblue" stroke="midnightblue" points="1104.69,-322.36 1094.13,-321.52 1101.86,-328.76 1104.69,-322.36"/>
</g>
<!-- Node13 -->
<g id="node13" class="node">
<title>Node13</title>
<g id="a_node13"><a xlink:href="parser__result_8hpp.html" target="_top" xlink:title=" ">
<polygon fill="white" stroke="black" points="1122.6,-118 1122.6,-137 1245.6,-137 1245.6,-118 1122.6,-118"/>
<text text-anchor="middle" x="1184.1" y="-125" font-family="Helvetica,sans-Serif" font-size="10.00">lyra/parser_result.hpp</text>
</a>
</g>
</g>
<!-- Node7&#45;&gt;Node13 -->
<g id="edge65" class="edge">
<title>Node7&#45;&gt;Node13</title>
<path fill="none" stroke="midnightblue" d="M1087.25,-472.4C1182.12,-459.5 1366.1,-427 1366.1,-369 1366.1,-369 1366.1,-369 1366.1,-311 1366.1,-225.66 1265.1,-166.19 1213.58,-141.41"/>
<polygon fill="midnightblue" stroke="midnightblue" points="1214.81,-138.12 1204.27,-137.05 1211.84,-144.46 1214.81,-138.12"/>
</g>
<!-- Node17 -->
<g id="node17" class="node">
<title>Node17</title>
<g id="a_node17"><a xlink:href="tokens_8hpp.html" target="_top" xlink:title=" ">
<polygon fill="white" stroke="black" points="870.1,-179.5 870.1,-198.5 992.1,-198.5 992.1,-179.5 870.1,-179.5"/>
<text text-anchor="middle" x="931.1" y="-186.5" font-family="Helvetica,sans-Serif" font-size="10.00">lyra/detail/tokens.hpp</text>
</a>
</g>
</g>
<!-- Node7&#45;&gt;Node17 -->
<g id="edge29" class="edge">
<title>Node7&#45;&gt;Node17</title>
<path fill="none" stroke="midnightblue" d="M1029.08,-470.35C1015.14,-430.46 956.91,-263.86 937.46,-208.2"/>
<polygon fill="midnightblue" stroke="midnightblue" points="940.71,-206.9 934.11,-198.62 934.11,-209.21 940.71,-206.9"/>
</g>
<!-- Node7&#45;&gt;Node20 -->
<g id="edge34" class="edge">
<title>Node7&#45;&gt;Node20</title>
<path fill="none" stroke="midnightblue" d="M1014.04,-470.44C995.52,-461.68 966.52,-447.94 945.24,-437.86"/>
<polygon fill="midnightblue" stroke="midnightblue" points="946.61,-434.63 936.08,-433.52 943.62,-440.96 946.61,-434.63"/>
</g>
<!-- Node8&#45;&gt;Node3 -->
<g id="edge28" class="edge">
<title>Node8&#45;&gt;Node3</title>
<path fill="none" stroke="midnightblue" d="M1067.44,-302.36C1061.76,-283.67 1048.3,-238 1040.1,-199 1026.87,-136.07 1042.27,-115.59 1018.1,-56 1013.92,-45.69 1006.95,-35.48 1000.59,-27.4"/>
<polygon fill="midnightblue" stroke="midnightblue" points="1003.16,-25.02 994.07,-19.56 997.77,-29.49 1003.16,-25.02"/>
</g>
<!-- Node9 -->
<g id="node9" class="node">
<title>Node9</title>
<g id="a_node9"><a xlink:href="from__string_8hpp.html" target="_top" xlink:title=" ">
<polygon fill="white" stroke="black" points="386.1,-118 386.1,-137 532.1,-137 532.1,-118 386.1,-118"/>
<text text-anchor="middle" x="459.1" y="-125" font-family="Helvetica,sans-Serif" font-size="10.00">lyra/detail/from_string.hpp</text>
</a>
</g>
</g>
<!-- Node8&#45;&gt;Node9 -->
<g id="edge8" class="edge">
<title>Node8&#45;&gt;Node9</title>
<path fill="none" stroke="midnightblue" d="M1046.46,-302.45C1002.23,-286.78 903.66,-253.35 818.1,-235 697.15,-209.05 655.21,-249.09 542.1,-199 514.13,-186.61 488.36,-161.72 473.18,-145.08"/>
<polygon fill="midnightblue" stroke="midnightblue" points="475.5,-142.42 466.26,-137.24 470.25,-147.05 475.5,-142.42"/>
</g>
<!-- Node11 -->
<g id="node11" class="node">
<title>Node11</title>
<g id="a_node11"><a xlink:href="invoke__lambda_8hpp.html" target="_top" xlink:title=" ">
<polygon fill="white" stroke="black" points="1098.6,-235.5 1098.6,-265.5 1199.6,-265.5 1199.6,-235.5 1098.6,-235.5"/>
<text text-anchor="start" x="1106.6" y="-253.5" font-family="Helvetica,sans-Serif" font-size="10.00">lyra/detail/invoke</text>
<text text-anchor="middle" x="1149.1" y="-242.5" font-family="Helvetica,sans-Serif" font-size="10.00">_lambda.hpp</text>
</a>
</g>
</g>
<!-- Node8&#45;&gt;Node11 -->
<g id="edge13" class="edge">
<title>Node8&#45;&gt;Node11</title>
<path fill="none" stroke="midnightblue" d="M1081.42,-302.48C1092.02,-294.49 1108.27,-282.25 1122.19,-271.77"/>
<polygon fill="midnightblue" stroke="midnightblue" points="1124.6,-274.33 1130.48,-265.52 1120.39,-268.74 1124.6,-274.33"/>
</g>
<!-- Node12 -->
<g id="node12" class="node">
<title>Node12</title>
<g id="a_node12"><a xlink:href="parse_8hpp.html" target="_top" xlink:title=" ">
<polygon fill="white" stroke="black" points="1048.6,-179.5 1048.6,-198.5 1165.6,-198.5 1165.6,-179.5 1048.6,-179.5"/>
<text text-anchor="middle" x="1107.1" y="-186.5" font-family="Helvetica,sans-Serif" font-size="10.00">lyra/detail/parse.hpp</text>
</a>
</g>
</g>
<!-- Node8&#45;&gt;Node12 -->
<g id="edge26" class="edge">
<title>Node8&#45;&gt;Node12</title>
<path fill="none" stroke="midnightblue" d="M1072.04,-302.48C1075.32,-288.34 1082.38,-259.17 1090.1,-235 1092.99,-225.94 1096.68,-216.03 1099.88,-207.83"/>
<polygon fill="midnightblue" stroke="midnightblue" points="1103.13,-209.12 1103.57,-198.53 1096.63,-206.53 1103.13,-209.12"/>
</g>
<!-- Node16 -->
<g id="node16" class="node">
<title>Node16</title>
<g id="a_node16"><a xlink:href="unary__lambda__traits_8hpp.html" target="_top" xlink:title=" ">
<polygon fill="white" stroke="black" points="190.6,-112.5 190.6,-142.5 329.6,-142.5 329.6,-112.5 190.6,-112.5"/>
<text text-anchor="start" x="198.6" y="-130.5" font-family="Helvetica,sans-Serif" font-size="10.00">lyra/detail/unary_lambda</text>
<text text-anchor="middle" x="260.1" y="-119.5" font-family="Helvetica,sans-Serif" font-size="10.00">_traits.hpp</text>
</a>
</g>
</g>
<!-- Node8&#45;&gt;Node16 -->
<g id="edge27" class="edge">
<title>Node8&#45;&gt;Node16</title>
<path fill="none" stroke="midnightblue" d="M1010.08,-303.25C899.9,-288.3 658.48,-252.19 460.1,-199 405.4,-184.33 344.23,-161.84 304.11,-146.22"/>
<polygon fill="midnightblue" stroke="midnightblue" points="305.22,-142.9 294.63,-142.5 302.67,-149.41 305.22,-142.9"/>
</g>
<!-- Node9&#45;&gt;Node3 -->
<g id="edge11" class="edge">
<title>Node9&#45;&gt;Node3</title>
<path fill="none" stroke="midnightblue" d="M466.66,-117.67C480.57,-102.1 511.96,-70.09 546.1,-56 620.03,-25.48 864.98,-14.83 953.68,-11.93"/>
<polygon fill="midnightblue" stroke="midnightblue" points="954.05,-15.42 963.94,-11.6 953.83,-8.42 954.05,-15.42"/>
</g>
<!-- Node9&#45;&gt;Node4 -->
<g id="edge9" class="edge">
<title>Node9&#45;&gt;Node4</title>
<path fill="none" stroke="midnightblue" d="M407.38,-117.98C341.97,-107.19 229.48,-88.65 159.7,-77.15"/>
<polygon fill="midnightblue" stroke="midnightblue" points="160.16,-73.68 149.73,-75.51 159.02,-80.59 160.16,-73.68"/>
</g>
<!-- Node9&#45;&gt;Node5 -->
<g id="edge12" class="edge">
<title>Node9&#45;&gt;Node5</title>
<path fill="none" stroke="midnightblue" d="M441.59,-117.99C414.21,-104.7 359.57,-78.22 313.1,-56 290.39,-45.14 264.57,-32.91 245.58,-23.95"/>
<polygon fill="midnightblue" stroke="midnightblue" points="246.87,-20.69 236.33,-19.59 243.88,-27.02 246.87,-20.69"/>
</g>
<!-- Node10 -->
<g id="node10" class="node">
<title>Node10</title>
<g id="a_node10"><a xlink:title=" ">
<polygon fill="white" stroke="#bfbfbf" points="431.1,-56.5 431.1,-75.5 487.1,-75.5 487.1,-56.5 431.1,-56.5"/>
<text text-anchor="middle" x="459.1" y="-63.5" font-family="Helvetica,sans-Serif" font-size="10.00">sstream</text>
</a>
</g>
</g>
<!-- Node9&#45;&gt;Node10 -->
<g id="edge10" class="edge">
<title>Node9&#45;&gt;Node10</title>
<path fill="none" stroke="midnightblue" d="M459.1,-117.98C459.1,-109.58 459.1,-96.48 459.1,-85.66"/>
<polygon fill="midnightblue" stroke="midnightblue" points="462.6,-85.51 459.1,-75.51 455.6,-85.51 462.6,-85.51"/>
</g>
<!-- Node11&#45;&gt;Node12 -->
<g id="edge14" class="edge">
<title>Node11&#45;&gt;Node12</title>
<path fill="none" stroke="midnightblue" d="M1139.15,-235.4C1133.11,-226.84 1125.36,-215.87 1119,-206.86"/>
<polygon fill="midnightblue" stroke="midnightblue" points="1121.84,-204.81 1113.21,-198.66 1116.12,-208.85 1121.84,-204.81"/>
</g>
<!-- Node11&#45;&gt;Node13 -->
<g id="edge25" class="edge">
<title>Node11&#45;&gt;Node13</title>
<path fill="none" stroke="midnightblue" d="M1158.01,-235.49C1163.82,-225.66 1171.06,-212 1175.1,-199 1180.36,-182.08 1182.55,-161.96 1183.46,-147.55"/>
<polygon fill="midnightblue" stroke="midnightblue" points="1186.96,-147.55 1183.95,-137.39 1179.97,-147.21 1186.96,-147.55"/>
</g>
<!-- Node14 -->
<g id="node14" class="node">
<title>Node14</title>
<g id="a_node14"><a xlink:href="result_8hpp.html" target="_top" xlink:title=" ">
<polygon fill="white" stroke="black" points="1193.1,-56.5 1193.1,-75.5 1311.1,-75.5 1311.1,-56.5 1193.1,-56.5"/>
<text text-anchor="middle" x="1252.1" y="-63.5" font-family="Helvetica,sans-Serif" font-size="10.00">lyra/detail/result.hpp</text>
</a>
</g>
</g>
<!-- Node11&#45;&gt;Node14 -->
<g id="edge22" class="edge">
<title>Node11&#45;&gt;Node14</title>
<path fill="none" stroke="midnightblue" d="M1171.22,-235.4C1196.99,-217.51 1238.18,-183.99 1255.1,-143 1262.64,-124.73 1260.34,-101.85 1257.13,-85.99"/>
<polygon fill="midnightblue" stroke="midnightblue" points="1260.44,-84.79 1254.75,-75.85 1253.62,-86.38 1260.44,-84.79"/>
</g>
<!-- Node11&#45;&gt;Node16 -->
<g id="edge23" class="edge">
<title>Node11&#45;&gt;Node16</title>
<path fill="none" stroke="midnightblue" d="M1098.4,-248.05C993.76,-244.46 746.58,-232.84 542.1,-199 536.66,-198.1 407.04,-165.53 325.45,-144.98"/>
<polygon fill="midnightblue" stroke="midnightblue" points="326.3,-141.58 315.75,-142.53 324.59,-148.37 326.3,-141.58"/>
</g>
<!-- Node12&#45;&gt;Node3 -->
<g id="edge21" class="edge">
<title>Node12&#45;&gt;Node3</title>
<path fill="none" stroke="midnightblue" d="M1106.93,-179.24C1106.04,-156.41 1100.78,-94.24 1070.1,-56 1056.73,-39.34 1035.49,-28.04 1017.71,-20.93"/>
<polygon fill="midnightblue" stroke="midnightblue" points="1018.85,-17.62 1008.26,-17.4 1016.4,-24.18 1018.85,-17.62"/>
</g>
<!-- Node12&#45;&gt;Node9 -->
<g id="edge15" class="edge">
<title>Node12&#45;&gt;Node9</title>
<path fill="none" stroke="midnightblue" d="M1048.19,-183C913.09,-171.52 591.63,-144.18 580.1,-143 566.21,-141.58 551.44,-139.92 537.17,-138.25"/>
<polygon fill="midnightblue" stroke="midnightblue" points="537.23,-134.73 526.89,-137.04 536.41,-141.69 537.23,-134.73"/>
</g>
<!-- Node12&#45;&gt;Node13 -->
<g id="edge16" class="edge">
<title>Node12&#45;&gt;Node13</title>
<path fill="none" stroke="midnightblue" d="M1118.13,-179.48C1130.37,-170.02 1150.33,-154.6 1165.09,-143.19"/>
<polygon fill="midnightblue" stroke="midnightblue" points="1167.32,-145.89 1173.09,-137.01 1163.03,-140.35 1167.32,-145.89"/>
</g>
<!-- Node13&#45;&gt;Node3 -->
<g id="edge20" class="edge">
<title>Node13&#45;&gt;Node3</title>
<path fill="none" stroke="midnightblue" d="M1176.96,-117.97C1164.4,-103.43 1136.93,-73.7 1108.1,-56 1079.86,-38.66 1043.9,-26.41 1018.35,-19.12"/>
<polygon fill="midnightblue" stroke="midnightblue" points="1019,-15.67 1008.43,-16.38 1017.14,-22.41 1019,-15.67"/>
</g>
<!-- Node13&#45;&gt;Node14 -->
<g id="edge17" class="edge">
<title>Node13&#45;&gt;Node14</title>
<path fill="none" stroke="midnightblue" d="M1193.84,-117.98C1204.45,-108.7 1221.62,-93.67 1234.58,-82.33"/>
<polygon fill="midnightblue" stroke="midnightblue" points="1237.15,-84.73 1242.37,-75.51 1232.54,-79.46 1237.15,-84.73"/>
</g>
<!-- Node14&#45;&gt;Node3 -->
<g id="edge19" class="edge">
<title>Node14&#45;&gt;Node3</title>
<path fill="none" stroke="midnightblue" d="M1209.95,-56.44C1156.59,-45.61 1065.85,-27.19 1017.93,-17.46"/>
<polygon fill="midnightblue" stroke="midnightblue" points="1018.6,-14.03 1008.1,-15.47 1017.2,-20.89 1018.6,-14.03"/>
</g>
<!-- Node15 -->
<g id="node15" class="node">
<title>Node15</title>
<g id="a_node15"><a xlink:title=" ">
<polygon fill="white" stroke="#bfbfbf" points="1403.1,-0.5 1403.1,-19.5 1461.1,-19.5 1461.1,-0.5 1403.1,-0.5"/>
<text text-anchor="middle" x="1432.1" y="-7.5" font-family="Helvetica,sans-Serif" font-size="10.00">memory</text>
</a>
</g>
</g>
<!-- Node14&#45;&gt;Node15 -->
<g id="edge18" class="edge">
<title>Node14&#45;&gt;Node15</title>
<path fill="none" stroke="midnightblue" d="M1280.62,-56.44C1311.17,-47.28 1359.81,-32.69 1393.7,-22.52"/>
<polygon fill="midnightblue" stroke="midnightblue" points="1395.14,-25.74 1403.71,-19.52 1393.13,-19.04 1395.14,-25.74"/>
</g>
<!-- Node16&#45;&gt;Node5 -->
<g id="edge24" class="edge">
<title>Node16&#45;&gt;Node5</title>
<path fill="none" stroke="midnightblue" d="M254.95,-112.34C247.35,-91.43 233.12,-52.31 224.74,-29.27"/>
<polygon fill="midnightblue" stroke="midnightblue" points="227.96,-27.87 221.25,-19.67 221.38,-30.26 227.96,-27.87"/>
</g>
<!-- Node17&#45;&gt;Node3 -->
<g id="edge32" class="edge">
<title>Node17&#45;&gt;Node3</title>
<path fill="none" stroke="midnightblue" d="M954.55,-179.41C970.26,-172.28 989.72,-160.46 999.1,-143 1018.74,-106.45 1004.29,-55.96 994.01,-29.26"/>
<polygon fill="midnightblue" stroke="midnightblue" points="997.12,-27.61 990.1,-19.68 990.64,-30.26 997.12,-27.61"/>
</g>
<!-- Node18 -->
<g id="node18" class="node">
<title>Node18</title>
<g id="a_node18"><a xlink:href="option__style_8hpp.html" target="_top" xlink:title=" ">
<polygon fill="white" stroke="black" points="870.6,-118 870.6,-137 989.6,-137 989.6,-118 870.6,-118"/>
<text text-anchor="middle" x="930.1" y="-125" font-family="Helvetica,sans-Serif" font-size="10.00">lyra/option_style.hpp</text>
</a>
</g>
</g>
<!-- Node17&#45;&gt;Node18 -->
<g id="edge30" class="edge">
<title>Node17&#45;&gt;Node18</title>
<path fill="none" stroke="midnightblue" d="M930.96,-179.48C930.82,-171.08 930.6,-157.98 930.41,-147.16"/>
<polygon fill="midnightblue" stroke="midnightblue" points="933.91,-146.95 930.24,-137.01 926.91,-147.07 933.91,-146.95"/>
</g>
<!-- Node19 -->
<g id="node19" class="node">
<title>Node19</title>
<g id="a_node19"><a xlink:title=" ">
<polygon fill="white" stroke="#bfbfbf" points="728.6,-118 728.6,-137 775.6,-137 775.6,-118 728.6,-118"/>
<text text-anchor="middle" x="752.1" y="-125" font-family="Helvetica,sans-Serif" font-size="10.00">vector</text>
</a>
</g>
</g>
<!-- Node17&#45;&gt;Node19 -->
<g id="edge33" class="edge">
<title>Node17&#45;&gt;Node19</title>
<path fill="none" stroke="midnightblue" d="M905.45,-179.48C873.87,-168.98 820.14,-151.12 785.4,-139.57"/>
<polygon fill="midnightblue" stroke="midnightblue" points="786.29,-136.18 775.7,-136.35 784.09,-142.82 786.29,-136.18"/>
</g>
<!-- Node18&#45;&gt;Node3 -->
<g id="edge31" class="edge">
<title>Node18&#45;&gt;Node3</title>
<path fill="none" stroke="midnightblue" d="M934.31,-117.82C943.43,-99.01 965.18,-54.15 977.39,-28.96"/>
<polygon fill="midnightblue" stroke="midnightblue" points="980.63,-30.31 981.84,-19.78 974.33,-27.25 980.63,-30.31"/>
</g>
<!-- Node20&#45;&gt;Node3 -->
<g id="edge63" class="edge">
<title>Node20&#45;&gt;Node3</title>
<path fill="none" stroke="midnightblue" d="M898.43,-414.42C883.52,-406.91 863.68,-394.61 852.1,-378 815.25,-325.13 819.44,-298.86 828.1,-235 835.72,-178.8 831.09,-159.49 862.1,-112 887.6,-72.94 933.04,-41.65 961.26,-24.75"/>
<polygon fill="midnightblue" stroke="midnightblue" points="963.25,-27.65 970.12,-19.58 959.72,-21.6 963.25,-27.65"/>
</g>
<!-- Node20&#45;&gt;Node4 -->
<g id="edge52" class="edge">
<title>Node20&#45;&gt;Node4</title>
<path fill="none" stroke="midnightblue" d="M873.07,-421.33C717.09,-415.41 207.66,-394.85 177.1,-378 116.45,-344.56 86.1,-320.76 86.1,-251.5 86.1,-251.5 86.1,-251.5 86.1,-188 86.1,-151.72 91.51,-109.61 95.06,-85.86"/>
<polygon fill="midnightblue" stroke="midnightblue" points="98.55,-86.19 96.63,-75.78 91.64,-85.12 98.55,-86.19"/>
</g>
<!-- Node20&#45;&gt;Node5 -->
<g id="edge64" class="edge">
<title>Node20&#45;&gt;Node5</title>
<path fill="none" stroke="midnightblue" d="M872.96,-422.41C768.92,-420.48 515.26,-412.28 438.1,-378 296.95,-315.3 244.24,-284.4 182.1,-143 164.81,-103.66 189.93,-54.01 206.16,-28.26"/>
<polygon fill="midnightblue" stroke="midnightblue" points="209.26,-29.91 211.83,-19.64 203.41,-26.06 209.26,-29.91"/>
</g>
<!-- Node20&#45;&gt;Node8 -->
<g id="edge39" class="edge">
<title>Node20&#45;&gt;Node8</title>
<path fill="none" stroke="midnightblue" d="M924.92,-414.07C935.57,-400.6 957.27,-374.87 980.1,-358 998,-344.77 1020.38,-333.57 1038.34,-325.64"/>
<polygon fill="midnightblue" stroke="midnightblue" points="1039.99,-328.74 1047.81,-321.59 1037.23,-322.31 1039.99,-328.74"/>
</g>
<!-- Node20&#45;&gt;Node9 -->
<g id="edge49" class="edge">
<title>Node20&#45;&gt;Node9</title>
<path fill="none" stroke="midnightblue" d="M872.84,-422.81C748.02,-421.07 408.1,-407.65 408.1,-313 408.1,-313 408.1,-313 408.1,-249.5 408.1,-209.81 431.69,-168.13 446.79,-145.53"/>
<polygon fill="midnightblue" stroke="midnightblue" points="449.83,-147.29 452.64,-137.08 444.07,-143.31 449.83,-147.29"/>
</g>
<!-- Node20&#45;&gt;Node13 -->
<g id="edge54" class="edge">
<title>Node20&#45;&gt;Node13</title>
<path fill="none" stroke="midnightblue" d="M934.73,-414.43C959.74,-401.64 1008.65,-377.03 1051.1,-358 1125.25,-324.76 1173.9,-339.24 1209.1,-266 1228.3,-226.05 1207.37,-173.11 1193.81,-146.05"/>
<polygon fill="midnightblue" stroke="midnightblue" points="1196.82,-144.26 1189.07,-137.03 1190.62,-147.51 1196.82,-144.26"/>
</g>
<!-- Node20&#45;&gt;Node14 -->
<g id="edge50" class="edge">
<title>Node20&#45;&gt;Node14</title>
<path fill="none" stroke="midnightblue" d="M963.45,-423.28C1011.57,-421.57 1088.1,-412.88 1143.1,-378 1243.54,-314.3 1250.35,-260.11 1271.1,-143 1273.5,-129.43 1273.83,-125.5 1271.1,-112 1269.21,-102.65 1265.31,-92.83 1261.53,-84.75"/>
<polygon fill="midnightblue" stroke="midnightblue" points="1264.57,-83.01 1256.98,-75.63 1258.31,-86.14 1264.57,-83.01"/>
</g>
<!-- Node20&#45;&gt;Node15 -->
<g id="edge62" class="edge">
<title>Node20&#45;&gt;Node15</title>
<path fill="none" stroke="midnightblue" d="M963.38,-423.97C1093.64,-424.18 1460.1,-405.6 1460.1,-190 1460.1,-190 1460.1,-190 1460.1,-126.5 1460.1,-91.21 1447.6,-51.53 1439.31,-29.07"/>
<polygon fill="midnightblue" stroke="midnightblue" points="1442.5,-27.6 1435.65,-19.52 1435.96,-30.11 1442.5,-27.6"/>
</g>
<!-- Node20&#45;&gt;Node17 -->
<g id="edge51" class="edge">
<title>Node20&#45;&gt;Node17</title>
<path fill="none" stroke="midnightblue" d="M918.58,-414.43C920.46,-380.75 927.36,-256.99 930.03,-209.1"/>
<polygon fill="midnightblue" stroke="midnightblue" points="933.54,-209.08 930.6,-198.9 926.55,-208.69 933.54,-209.08"/>
</g>
<!-- Node20&#45;&gt;Node18 -->
<g id="edge53" class="edge">
<title>Node20&#45;&gt;Node18</title>
<path fill="none" stroke="midnightblue" d="M906.56,-414.43C885.3,-397.57 842.1,-357.8 842.1,-313 842.1,-313 842.1,-313 842.1,-249.5 842.1,-217.05 842.75,-205.76 861.1,-179 871.77,-163.43 888.87,-150.87 903.37,-142.17"/>
<polygon fill="midnightblue" stroke="midnightblue" points="905.47,-145 912.43,-137.02 902.01,-138.92 905.47,-145"/>
</g>
<!-- Node21 -->
<g id="node21" class="node">
<title>Node21</title>
<g id="a_node21"><a xlink:href="args_8hpp.html" target="_top" xlink:title=" ">
<polygon fill="white" stroke="black" points="696.1,-179.5 696.1,-198.5 776.1,-198.5 776.1,-179.5 696.1,-179.5"/>
<text text-anchor="middle" x="736.1" y="-186.5" font-family="Helvetica,sans-Serif" font-size="10.00">lyra/args.hpp</text>
</a>
</g>
</g>
<!-- Node20&#45;&gt;Node21 -->
<g id="edge35" class="edge">
<title>Node20&#45;&gt;Node21</title>
<path fill="none" stroke="midnightblue" d="M872.85,-416.63C829.19,-409.49 767.5,-396.45 752.1,-378 711.2,-329 723.29,-245.68 731.4,-208.67"/>
<polygon fill="midnightblue" stroke="midnightblue" points="734.85,-209.3 733.73,-198.76 728.03,-207.7 734.85,-209.3"/>
</g>
<!-- Node23 -->
<g id="node23" class="node">
<title>Node23</title>
<g id="a_node23"><a xlink:href="choices_8hpp.html" target="_top" xlink:title=" ">
<polygon fill="white" stroke="black" points="550.6,-179.5 550.6,-198.5 677.6,-198.5 677.6,-179.5 550.6,-179.5"/>
<text text-anchor="middle" x="614.1" y="-186.5" font-family="Helvetica,sans-Serif" font-size="10.00">lyra/detail/choices.hpp</text>
</a>
</g>
</g>
<!-- Node20&#45;&gt;Node23 -->
<g id="edge40" class="edge">
<title>Node20&#45;&gt;Node23</title>
<path fill="none" stroke="midnightblue" d="M872.85,-421.13C833.25,-417.48 775.84,-407.09 735.1,-378 673,-333.66 634.92,-246.55 620.59,-208.51"/>
<polygon fill="midnightblue" stroke="midnightblue" points="623.75,-206.97 617.04,-198.77 617.18,-209.36 623.75,-206.97"/>
</g>
<!-- Node20&#45;&gt;Node24 -->
<g id="edge55" class="edge">
<title>Node20&#45;&gt;Node24</title>
<path fill="none" stroke="midnightblue" d="M963.51,-418.3C1058.93,-408.43 1280.01,-385.56 1384.05,-374.8"/>
<polygon fill="midnightblue" stroke="midnightblue" points="1384.46,-378.27 1394.05,-373.76 1383.74,-371.31 1384.46,-378.27"/>
</g>
<!-- Node26 -->
<g id="node26" class="node">
<title>Node26</title>
<g id="a_node26"><a xlink:href="val_8hpp.html" target="_top" xlink:title=" ">
<polygon fill="white" stroke="black" points="1060.1,-358.5 1060.1,-377.5 1134.1,-377.5 1134.1,-358.5 1060.1,-358.5"/>
<text text-anchor="middle" x="1097.1" y="-365.5" font-family="Helvetica,sans-Serif" font-size="10.00">lyra/val.hpp</text>
</a>
</g>
</g>
<!-- Node20&#45;&gt;Node26 -->
<g id="edge59" class="edge">
<title>Node20&#45;&gt;Node26</title>
<path fill="none" stroke="midnightblue" d="M946.46,-414.44C976.84,-405.28 1025.21,-390.69 1058.92,-380.52"/>
<polygon fill="midnightblue" stroke="midnightblue" points="1060.31,-383.76 1068.87,-377.52 1058.28,-377.05 1060.31,-383.76"/>
</g>
<!-- Node21&#45;&gt;Node3 -->
<g id="edge37" class="edge">
<title>Node21&#45;&gt;Node3</title>
<path fill="none" stroke="midnightblue" d="M730.73,-179.13C722.6,-164.48 709.24,-134.6 720.1,-112 737.36,-76.09 754.23,-73.34 790.1,-56 844.06,-29.92 913.78,-18.58 953.87,-13.94"/>
<polygon fill="midnightblue" stroke="midnightblue" points="954.31,-17.42 963.87,-12.85 953.55,-10.46 954.31,-17.42"/>
</g>
<!-- Node21&#45;&gt;Node19 -->
<g id="edge38" class="edge">
<title>Node21&#45;&gt;Node19</title>
<path fill="none" stroke="midnightblue" d="M738.39,-179.48C740.67,-170.99 744.25,-157.7 747.17,-146.82"/>
<polygon fill="midnightblue" stroke="midnightblue" points="750.59,-147.57 749.81,-137.01 743.83,-145.76 750.59,-147.57"/>
</g>
<!-- Node22 -->
<g id="node22" class="node">
<title>Node22</title>
<g id="a_node22"><a xlink:title=" ">
<polygon fill="white" stroke="#bfbfbf" points="588.6,-118 588.6,-137 671.6,-137 671.6,-118 588.6,-118"/>
<text text-anchor="middle" x="630.1" y="-125" font-family="Helvetica,sans-Serif" font-size="10.00">initializer_list</text>
</a>
</g>
</g>
<!-- Node21&#45;&gt;Node22 -->
<g id="edge36" class="edge">
<title>Node21&#45;&gt;Node22</title>
<path fill="none" stroke="midnightblue" d="M720.91,-179.48C703.44,-169.67 674.52,-153.43 654.02,-141.92"/>
<polygon fill="midnightblue" stroke="midnightblue" points="655.69,-138.85 645.26,-137.01 652.27,-144.96 655.69,-138.85"/>
</g>
<!-- Node23&#45;&gt;Node3 -->
<g id="edge46" class="edge">
<title>Node23&#45;&gt;Node3</title>
<path fill="none" stroke="midnightblue" d="M604.83,-179.44C590.03,-164.72 564.27,-134.09 580.1,-112 624.21,-50.44 865.84,-22.16 953.94,-13.78"/>
<polygon fill="midnightblue" stroke="midnightblue" points="954.26,-17.27 963.9,-12.86 953.62,-10.3 954.26,-17.27"/>
</g>
<!-- Node23&#45;&gt;Node5 -->
<g id="edge47" class="edge">
<title>Node23&#45;&gt;Node5</title>
<path fill="none" stroke="midnightblue" d="M550.5,-179.59C491.09,-171.07 407.17,-157.17 377.1,-143 375.05,-142.04 277.57,-60.68 236.28,-26.19"/>
<polygon fill="midnightblue" stroke="midnightblue" points="238.29,-23.31 228.37,-19.59 233.8,-28.68 238.29,-23.31"/>
</g>
<!-- Node23&#45;&gt;Node9 -->
<g id="edge41" class="edge">
<title>Node23&#45;&gt;Node9</title>
<path fill="none" stroke="midnightblue" d="M591.89,-179.48C565.42,-169.31 520.99,-152.26 490.88,-140.7"/>
<polygon fill="midnightblue" stroke="midnightblue" points="491.86,-137.33 481.27,-137.01 489.35,-143.86 491.86,-137.33"/>
</g>
<!-- Node23&#45;&gt;Node13 -->
<g id="edge44" class="edge">
<title>Node23&#45;&gt;Node13</title>
<path fill="none" stroke="midnightblue" d="M677.79,-180.07C680.94,-179.7 684.05,-179.34 687.1,-179 838.24,-162.01 1015.52,-144.6 1112.21,-135.32"/>
<polygon fill="midnightblue" stroke="midnightblue" points="1112.84,-138.77 1122.46,-134.34 1112.17,-131.81 1112.84,-138.77"/>
</g>
<!-- Node23&#45;&gt;Node14 -->
<g id="edge42" class="edge">
<title>Node23&#45;&gt;Node14</title>
<path fill="none" stroke="midnightblue" d="M652.2,-179.42C687.12,-171.22 740.08,-157.92 785.1,-143 820.12,-131.39 826.34,-121.08 862.1,-112 972.1,-84.05 1104.02,-73.42 1182.79,-69.41"/>
<polygon fill="midnightblue" stroke="midnightblue" points="1183.25,-72.89 1193.07,-68.9 1182.91,-65.9 1183.25,-72.89"/>
</g>
<!-- Node23&#45;&gt;Node16 -->
<g id="edge43" class="edge">
<title>Node23&#45;&gt;Node16</title>
<path fill="none" stroke="midnightblue" d="M562.32,-179.46C507.96,-170.48 420,-155.88 344.1,-143 342.64,-142.75 341.17,-142.5 339.68,-142.25"/>
<polygon fill="midnightblue" stroke="midnightblue" points="340.21,-138.79 329.77,-140.56 339.04,-145.69 340.21,-138.79"/>
</g>
<!-- Node23&#45;&gt;Node19 -->
<g id="edge48" class="edge">
<title>Node23&#45;&gt;Node19</title>
<path fill="none" stroke="midnightblue" d="M633.87,-179.48C657.24,-169.4 696.31,-152.55 723.1,-141"/>
<polygon fill="midnightblue" stroke="midnightblue" points="724.57,-144.18 732.36,-137.01 721.8,-137.75 724.57,-144.18"/>
</g>
<!-- Node23&#45;&gt;Node22 -->
<g id="edge45" class="edge">
<title>Node23&#45;&gt;Node22</title>
<path fill="none" stroke="midnightblue" d="M616.39,-179.48C618.67,-170.99 622.25,-157.7 625.17,-146.82"/>
<polygon fill="midnightblue" stroke="midnightblue" points="628.59,-147.57 627.81,-137.01 621.83,-145.76 628.59,-147.57"/>
</g>
<!-- Node24&#45;&gt;Node3 -->
<g id="edge58" class="edge">
<title>Node24&#45;&gt;Node3</title>
<path fill="none" stroke="midnightblue" d="M1439.76,-358.25C1437.62,-316.58 1422.53,-136.86 1320.1,-56 1273.81,-19.46 1093.32,-12.56 1018.68,-11.28"/>
<polygon fill="midnightblue" stroke="midnightblue" points="1018.52,-7.78 1008.47,-11.13 1018.41,-14.78 1018.52,-7.78"/>
</g>
<!-- Node24&#45;&gt;Node15 -->
<g id="edge56" class="edge">
<title>Node24&#45;&gt;Node15</title>
<path fill="none" stroke="midnightblue" d="M1464.73,-358.42C1481.83,-351.24 1503.84,-339.35 1517.1,-322 1536.81,-296.22 1536.1,-283.95 1536.1,-251.5 1536.1,-251.5 1536.1,-251.5 1536.1,-126.5 1536.1,-79.79 1488.55,-43.44 1457.76,-24.8"/>
<polygon fill="midnightblue" stroke="midnightblue" points="1459.21,-21.6 1448.81,-19.59 1455.69,-27.65 1459.21,-21.6"/>
</g>
<!-- Node25 -->
<g id="node25" class="node">
<title>Node25</title>
<g id="a_node25"><a xlink:title=" ">
<polygon fill="white" stroke="#bfbfbf" points="1450.6,-302.5 1450.6,-321.5 1507.6,-321.5 1507.6,-302.5 1450.6,-302.5"/>
<text text-anchor="middle" x="1479.1" y="-309.5" font-family="Helvetica,sans-Serif" font-size="10.00">ostream</text>
</a>
</g>
</g>
<!-- Node24&#45;&gt;Node25 -->
<g id="edge57" class="edge">
<title>Node24&#45;&gt;Node25</title>
<path fill="none" stroke="midnightblue" d="M1446.54,-358.08C1452.05,-350.46 1460.13,-339.26 1466.86,-329.94"/>
<polygon fill="midnightblue" stroke="midnightblue" points="1469.76,-331.91 1472.78,-321.75 1464.09,-327.81 1469.76,-331.91"/>
</g>
<!-- Node26&#45;&gt;Node8 -->
<g id="edge60" class="edge">
<title>Node26&#45;&gt;Node8</title>
<path fill="none" stroke="midnightblue" d="M1092.64,-358.08C1088.95,-350.69 1083.58,-339.95 1079.01,-330.81"/>
<polygon fill="midnightblue" stroke="midnightblue" points="1082.08,-329.13 1074.48,-321.75 1075.82,-332.26 1082.08,-329.13"/>
</g>
<!-- Node26&#45;&gt;Node15 -->
<g id="edge61" class="edge">
<title>Node26&#45;&gt;Node15</title>
<path fill="none" stroke="midnightblue" d="M1119.73,-358.41C1138.26,-350.69 1164.52,-338.08 1184.1,-322 1296.18,-229.97 1391.26,-79.65 1421.81,-28.6"/>
<polygon fill="midnightblue" stroke="midnightblue" points="1424.96,-30.15 1427.05,-19.76 1418.94,-26.58 1424.96,-30.15"/>
</g>
</g>
</svg>
