<?xml version="1.0" encoding="UTF-8" standalone="no"?>
<!DOCTYPE svg PUBLIC "-//W3C//DTD SVG 1.1//EN"
 "http://www.w3.org/Graphics/SVG/1.1/DTD/svg11.dtd">
<!-- Generated by graphviz version 2.43.0 (0)
 -->
<!-- Title: Lyra/tests/lib_use_test/base_lib.cpp Pages: 1 -->
<svg width="133pt" height="151pt"
 viewBox="0.00 0.00 133.00 151.00" xmlns="http://www.w3.org/2000/svg" xmlns:xlink="http://www.w3.org/1999/xlink">
<g id="graph0" class="graph" transform="scale(1 1) rotate(0) translate(4 147)">
<title>Lyra/tests/lib_use_test/base_lib.cpp</title>
<polygon fill="white" stroke="transparent" points="-4,4 -4,-147 129,-147 129,4 -4,4"/>
<!-- Node1 -->
<g id="node1" class="node">
<title>Node1</title>
<g id="a_node1"><a xlink:title=" ">
<polygon fill="#bfbfbf" stroke="black" points="0,-112.5 0,-142.5 104,-142.5 104,-112.5 0,-112.5"/>
<text text-anchor="start" x="8" y="-130.5" font-family="Helvetica,sans-Serif" font-size="10.00">Lyra/tests/lib_use</text>
<text text-anchor="middle" x="52" y="-119.5" font-family="Helvetica,sans-Serif" font-size="10.00">_test/base_lib.cpp</text>
</a>
</g>
</g>
<!-- Node2 -->
<g id="node2" class="node">
<title>Node2</title>
<g id="a_node2"><a xlink:title=" ">
<polygon fill="white" stroke="#bfbfbf" points="13,-0.5 13,-19.5 91,-19.5 91,-0.5 13,-0.5"/>
<text text-anchor="middle" x="52" y="-7.5" font-family="Helvetica,sans-Serif" font-size="10.00">lyra/lyra.hpp</text>
</a>
</g>
</g>
<!-- Node1&#45;&gt;Node2 -->
<g id="edge1" class="edge">
<title>Node1&#45;&gt;Node2</title>
<path fill="none" stroke="midnightblue" d="M46.21,-112.25C41.14,-98.06 35.02,-75.62 38,-56 39.37,-47 42.19,-37.33 44.95,-29.26"/>
<polygon fill="midnightblue" stroke="midnightblue" points="48.27,-30.37 48.4,-19.78 41.69,-27.98 48.27,-30.37"/>
</g>
<!-- Node3 -->
<g id="node3" class="node">
<title>Node3</title>
<g id="a_node3"><a xlink:href="base__lib_8hpp.html" target="_top" xlink:title=" ">
<polygon fill="white" stroke="black" points="47,-56.5 47,-75.5 125,-75.5 125,-56.5 47,-56.5"/>
<text text-anchor="middle" x="86" y="-63.5" font-family="Helvetica,sans-Serif" font-size="10.00">base_lib.hpp</text>
</a>
</g>
</g>
<!-- Node1&#45;&gt;Node3 -->
<g id="edge2" class="edge">
<title>Node1&#45;&gt;Node3</title>
<path fill="none" stroke="midnightblue" d="M60.06,-112.4C64.85,-104.02 70.96,-93.33 76.04,-84.42"/>
<polygon fill="midnightblue" stroke="midnightblue" points="79.13,-86.08 81.05,-75.66 73.05,-82.6 79.13,-86.08"/>
</g>
<!-- Node3&#45;&gt;Node2 -->
<g id="edge3" class="edge">
<title>Node3&#45;&gt;Node2</title>
<path fill="none" stroke="midnightblue" d="M80.39,-56.08C75.63,-48.53 68.68,-37.49 62.85,-28.23"/>
<polygon fill="midnightblue" stroke="midnightblue" points="65.8,-26.35 57.51,-19.75 59.88,-30.08 65.8,-26.35"/>
</g>
</g>
</svg>
