<?xml version="1.0" encoding="UTF-8" standalone="no"?>
<!DOCTYPE svg PUBLIC "-//W3C//DTD SVG 1.1//EN"
 "http://www.w3.org/Graphics/SVG/1.1/DTD/svg11.dtd">
<!-- Generated by graphviz version 2.43.0 (0)
 -->
<!-- Title: Lyra/include/lyra/detail/bound.hpp Pages: 1 -->
<svg width="554pt" height="341pt"
 viewBox="0.00 0.00 553.95 341.00" xmlns="http://www.w3.org/2000/svg" xmlns:xlink="http://www.w3.org/1999/xlink">
<g id="graph0" class="graph" transform="scale(1 1) rotate(0) translate(4 337)">
<title>Lyra/include/lyra/detail/bound.hpp</title>
<polygon fill="white" stroke="transparent" points="-4,4 -4,-337 549.95,-337 549.95,4 -4,4"/>
<!-- Node1 -->
<g id="node1" class="node">
<title>Node1</title>
<g id="a_node1"><a xlink:title=" ">
<polygon fill="#bfbfbf" stroke="black" points="257.94,-302.5 257.94,-332.5 385.94,-332.5 385.94,-302.5 257.94,-302.5"/>
<text text-anchor="start" x="265.94" y="-320.5" font-family="Helvetica,sans-Serif" font-size="10.00">Lyra/include/lyra/detail</text>
<text text-anchor="middle" x="321.94" y="-309.5" font-family="Helvetica,sans-Serif" font-size="10.00">/bound.hpp</text>
</a>
</g>
</g>
<!-- Node2 -->
<g id="node2" class="node">
<title>Node2</title>
<g id="a_node2"><a xlink:href="from__string_8hpp.html" target="_top" xlink:title=" ">
<polygon fill="white" stroke="black" points="81.94,-112.5 81.94,-131.5 227.94,-131.5 227.94,-112.5 81.94,-112.5"/>
<text text-anchor="middle" x="154.94" y="-119.5" font-family="Helvetica,sans-Serif" font-size="10.00">lyra/detail/from_string.hpp</text>
</a>
</g>
</g>
<!-- Node1&#45;&gt;Node2 -->
<g id="edge1" class="edge">
<title>Node1&#45;&gt;Node2</title>
<path fill="none" stroke="midnightblue" d="M277.44,-302.46C232.82,-285.72 166.62,-253.02 136.94,-199 126.77,-180.5 135.63,-156.39 144.13,-140.34"/>
<polygon fill="midnightblue" stroke="midnightblue" points="147.26,-141.92 149.21,-131.51 141.19,-138.44 147.26,-141.92"/>
</g>
<!-- Node7 -->
<g id="node7" class="node">
<title>Node7</title>
<g id="a_node7"><a xlink:title=" ">
<polygon fill="white" stroke="#bfbfbf" points="346.94,-0.5 346.94,-19.5 390.94,-19.5 390.94,-0.5 346.94,-0.5"/>
<text text-anchor="middle" x="368.94" y="-7.5" font-family="Helvetica,sans-Serif" font-size="10.00">string</text>
</a>
</g>
</g>
<!-- Node1&#45;&gt;Node7 -->
<g id="edge23" class="edge">
<title>Node1&#45;&gt;Node7</title>
<path fill="none" stroke="midnightblue" d="M386.13,-306.68C452.32,-292.49 545.94,-259.2 545.94,-184.5 545.94,-184.5 545.94,-184.5 545.94,-121 545.94,-90.5 545.97,-77.09 523.94,-56 506.33,-39.15 441.08,-24.42 401.07,-16.71"/>
<polygon fill="midnightblue" stroke="midnightblue" points="401.48,-13.23 391,-14.82 400.18,-20.1 401.48,-13.23"/>
</g>
<!-- Node8 -->
<g id="node8" class="node">
<title>Node8</title>
<g id="a_node8"><a xlink:href="invoke__lambda_8hpp.html" target="_top" xlink:title=" ">
<polygon fill="white" stroke="black" points="350.44,-235.5 350.44,-265.5 451.44,-265.5 451.44,-235.5 350.44,-235.5"/>
<text text-anchor="start" x="358.44" y="-253.5" font-family="Helvetica,sans-Serif" font-size="10.00">lyra/detail/invoke</text>
<text text-anchor="middle" x="400.94" y="-242.5" font-family="Helvetica,sans-Serif" font-size="10.00">_lambda.hpp</text>
</a>
</g>
</g>
<!-- Node1&#45;&gt;Node8 -->
<g id="edge8" class="edge">
<title>Node1&#45;&gt;Node8</title>
<path fill="none" stroke="midnightblue" d="M339.08,-302.4C349.85,-293.54 363.92,-281.96 375.92,-272.09"/>
<polygon fill="midnightblue" stroke="midnightblue" points="378.33,-274.63 383.83,-265.58 373.89,-269.23 378.33,-274.63"/>
</g>
<!-- Node9 -->
<g id="node9" class="node">
<title>Node9</title>
<g id="a_node9"><a xlink:href="parse_8hpp.html" target="_top" xlink:title=" ">
<polygon fill="white" stroke="black" points="303.44,-174 303.44,-193 420.44,-193 420.44,-174 303.44,-174"/>
<text text-anchor="middle" x="361.94" y="-181" font-family="Helvetica,sans-Serif" font-size="10.00">lyra/detail/parse.hpp</text>
</a>
</g>
</g>
<!-- Node1&#45;&gt;Node9 -->
<g id="edge21" class="edge">
<title>Node1&#45;&gt;Node9</title>
<path fill="none" stroke="midnightblue" d="M324.48,-302.47C327.61,-286.07 333.46,-258.23 340.94,-235 344.49,-223.98 349.42,-212.01 353.61,-202.48"/>
<polygon fill="midnightblue" stroke="midnightblue" points="356.84,-203.83 357.77,-193.27 350.46,-200.95 356.84,-203.83"/>
</g>
<!-- Node13 -->
<g id="node13" class="node">
<title>Node13</title>
<g id="a_node13"><a xlink:href="unary__lambda__traits_8hpp.html" target="_top" xlink:title=" ">
<polygon fill="white" stroke="black" points="146.44,-168.5 146.44,-198.5 285.44,-198.5 285.44,-168.5 146.44,-168.5"/>
<text text-anchor="start" x="154.44" y="-186.5" font-family="Helvetica,sans-Serif" font-size="10.00">lyra/detail/unary_lambda</text>
<text text-anchor="middle" x="215.94" y="-175.5" font-family="Helvetica,sans-Serif" font-size="10.00">_traits.hpp</text>
</a>
</g>
</g>
<!-- Node1&#45;&gt;Node13 -->
<g id="edge22" class="edge">
<title>Node1&#45;&gt;Node13</title>
<path fill="none" stroke="midnightblue" d="M310.6,-302.37C292.11,-279.35 255.35,-233.57 233.47,-206.34"/>
<polygon fill="midnightblue" stroke="midnightblue" points="236.19,-204.13 227.2,-198.52 230.73,-208.51 236.19,-204.13"/>
</g>
<!-- Node3 -->
<g id="node3" class="node">
<title>Node3</title>
<g id="a_node3"><a xlink:href="trait__utils_8hpp.html" target="_top" xlink:title=" ">
<polygon fill="white" stroke="black" points="124.44,-56.5 124.44,-75.5 261.44,-75.5 261.44,-56.5 124.44,-56.5"/>
<text text-anchor="middle" x="192.94" y="-63.5" font-family="Helvetica,sans-Serif" font-size="10.00">lyra/detail/trait_utils.hpp</text>
</a>
</g>
</g>
<!-- Node2&#45;&gt;Node3 -->
<g id="edge2" class="edge">
<title>Node2&#45;&gt;Node3</title>
<path fill="none" stroke="midnightblue" d="M161.21,-112.08C166.58,-104.46 174.46,-93.26 181.02,-83.94"/>
<polygon fill="midnightblue" stroke="midnightblue" points="183.89,-85.94 186.78,-75.75 178.16,-81.91 183.89,-85.94"/>
</g>
<!-- Node4 -->
<g id="node4" class="node">
<title>Node4</title>
<g id="a_node4"><a xlink:title=" ">
<polygon fill="white" stroke="#bfbfbf" points="61.44,-0.5 61.44,-19.5 130.44,-19.5 130.44,-0.5 61.44,-0.5"/>
<text text-anchor="middle" x="95.94" y="-7.5" font-family="Helvetica,sans-Serif" font-size="10.00">type_traits</text>
</a>
</g>
</g>
<!-- Node2&#45;&gt;Node4 -->
<g id="edge7" class="edge">
<title>Node2&#45;&gt;Node4</title>
<path fill="none" stroke="midnightblue" d="M145.01,-112.3C135.96,-103.86 122.84,-90.27 114.94,-76 106.93,-61.53 101.99,-43.35 99.16,-29.89"/>
<polygon fill="midnightblue" stroke="midnightblue" points="102.56,-29.06 97.26,-19.89 95.69,-30.37 102.56,-29.06"/>
</g>
<!-- Node6 -->
<g id="node6" class="node">
<title>Node6</title>
<g id="a_node6"><a xlink:title=" ">
<polygon fill="white" stroke="#bfbfbf" points="11.94,-56.5 11.94,-75.5 67.94,-75.5 67.94,-56.5 11.94,-56.5"/>
<text text-anchor="middle" x="39.94" y="-63.5" font-family="Helvetica,sans-Serif" font-size="10.00">sstream</text>
</a>
</g>
</g>
<!-- Node2&#45;&gt;Node6 -->
<g id="edge5" class="edge">
<title>Node2&#45;&gt;Node6</title>
<path fill="none" stroke="midnightblue" d="M136.72,-112.44C118.04,-103.68 88.78,-89.94 67.32,-79.86"/>
<polygon fill="midnightblue" stroke="midnightblue" points="68.62,-76.6 58.08,-75.52 65.64,-82.93 68.62,-76.6"/>
</g>
<!-- Node2&#45;&gt;Node7 -->
<g id="edge6" class="edge">
<title>Node2&#45;&gt;Node7</title>
<path fill="none" stroke="midnightblue" d="M181.19,-112.48C204.95,-104.36 240.61,-91.16 269.94,-76 298.93,-61.02 330.02,-39.63 349.47,-25.54"/>
<polygon fill="midnightblue" stroke="midnightblue" points="351.54,-28.36 357.53,-19.63 347.4,-22.72 351.54,-28.36"/>
</g>
<!-- Node3&#45;&gt;Node4 -->
<g id="edge3" class="edge">
<title>Node3&#45;&gt;Node4</title>
<path fill="none" stroke="midnightblue" d="M177.35,-56.32C161.94,-47.74 138.13,-34.49 120.23,-24.52"/>
<polygon fill="midnightblue" stroke="midnightblue" points="121.93,-21.46 111.49,-19.65 118.52,-27.58 121.93,-21.46"/>
</g>
<!-- Node5 -->
<g id="node5" class="node">
<title>Node5</title>
<g id="a_node5"><a xlink:title=" ">
<polygon fill="white" stroke="#bfbfbf" points="170.44,-0.5 170.44,-19.5 215.44,-19.5 215.44,-0.5 170.44,-0.5"/>
<text text-anchor="middle" x="192.94" y="-7.5" font-family="Helvetica,sans-Serif" font-size="10.00">utility</text>
</a>
</g>
</g>
<!-- Node3&#45;&gt;Node5 -->
<g id="edge4" class="edge">
<title>Node3&#45;&gt;Node5</title>
<path fill="none" stroke="midnightblue" d="M192.94,-56.08C192.94,-49.01 192.94,-38.86 192.94,-29.99"/>
<polygon fill="midnightblue" stroke="midnightblue" points="196.44,-29.75 192.94,-19.75 189.44,-29.75 196.44,-29.75"/>
</g>
<!-- Node8&#45;&gt;Node9 -->
<g id="edge9" class="edge">
<title>Node8&#45;&gt;Node9</title>
<path fill="none" stroke="midnightblue" d="M392.48,-235.4C386.58,-225.56 378.67,-212.38 372.37,-201.89"/>
<polygon fill="midnightblue" stroke="midnightblue" points="375.3,-199.97 367.16,-193.19 369.3,-203.57 375.3,-199.97"/>
</g>
<!-- Node10 -->
<g id="node10" class="node">
<title>Node10</title>
<g id="a_node10"><a xlink:href="parser__result_8hpp.html" target="_top" xlink:title=" ">
<polygon fill="white" stroke="black" points="356.44,-112.5 356.44,-131.5 479.44,-131.5 479.44,-112.5 356.44,-112.5"/>
<text text-anchor="middle" x="417.94" y="-119.5" font-family="Helvetica,sans-Serif" font-size="10.00">lyra/parser_result.hpp</text>
</a>
</g>
</g>
<!-- Node8&#45;&gt;Node10 -->
<g id="edge20" class="edge">
<title>Node8&#45;&gt;Node10</title>
<path fill="none" stroke="midnightblue" d="M411.38,-235.31C417.84,-225.63 425.53,-212.2 428.94,-199 433.94,-179.68 429.33,-156.97 424.64,-141.44"/>
<polygon fill="midnightblue" stroke="midnightblue" points="427.83,-139.94 421.35,-131.55 421.19,-142.15 427.83,-139.94"/>
</g>
<!-- Node11 -->
<g id="node11" class="node">
<title>Node11</title>
<g id="a_node11"><a xlink:href="result_8hpp.html" target="_top" xlink:title=" ">
<polygon fill="white" stroke="black" points="396.94,-56.5 396.94,-75.5 514.94,-75.5 514.94,-56.5 396.94,-56.5"/>
<text text-anchor="middle" x="455.94" y="-63.5" font-family="Helvetica,sans-Serif" font-size="10.00">lyra/detail/result.hpp</text>
</a>
</g>
</g>
<!-- Node8&#45;&gt;Node11 -->
<g id="edge17" class="edge">
<title>Node8&#45;&gt;Node11</title>
<path fill="none" stroke="midnightblue" d="M416.71,-235.5C438.13,-215.23 475.22,-175.35 487.94,-132 490.44,-123.47 490.64,-120.47 487.94,-112 484.6,-101.54 477.84,-91.43 471.39,-83.45"/>
<polygon fill="midnightblue" stroke="midnightblue" points="473.88,-80.98 464.69,-75.71 468.59,-85.56 473.88,-80.98"/>
</g>
<!-- Node8&#45;&gt;Node13 -->
<g id="edge18" class="edge">
<title>Node8&#45;&gt;Node13</title>
<path fill="none" stroke="midnightblue" d="M360.8,-235.4C332.92,-225.6 295.58,-212.48 265.79,-202.02"/>
<polygon fill="midnightblue" stroke="midnightblue" points="266.6,-198.59 256,-198.58 264.28,-205.19 266.6,-198.59"/>
</g>
<!-- Node9&#45;&gt;Node2 -->
<g id="edge10" class="edge">
<title>Node9&#45;&gt;Node2</title>
<path fill="none" stroke="midnightblue" d="M332.28,-173.98C296,-163.55 234.48,-145.86 194.28,-134.31"/>
<polygon fill="midnightblue" stroke="midnightblue" points="195.12,-130.91 184.54,-131.51 193.19,-137.64 195.12,-130.91"/>
</g>
<!-- Node9&#45;&gt;Node7 -->
<g id="edge16" class="edge">
<title>Node9&#45;&gt;Node7</title>
<path fill="none" stroke="midnightblue" d="M358.49,-173.73C354.78,-163.8 349.12,-147.02 346.94,-132 341.61,-95.35 353.6,-52.82 361.89,-29.2"/>
<polygon fill="midnightblue" stroke="midnightblue" points="365.19,-30.36 365.36,-19.77 358.62,-27.95 365.19,-30.36"/>
</g>
<!-- Node9&#45;&gt;Node10 -->
<g id="edge11" class="edge">
<title>Node9&#45;&gt;Node10</title>
<path fill="none" stroke="midnightblue" d="M369.96,-173.98C378.53,-164.87 392.3,-150.24 402.9,-138.98"/>
<polygon fill="midnightblue" stroke="midnightblue" points="405.63,-141.19 409.93,-131.51 400.53,-136.39 405.63,-141.19"/>
</g>
<!-- Node10&#45;&gt;Node7 -->
<g id="edge15" class="edge">
<title>Node10&#45;&gt;Node7</title>
<path fill="none" stroke="midnightblue" d="M410.87,-112.18C404.17,-103.44 394.21,-89.45 387.94,-76 380.95,-61.01 375.91,-42.88 372.78,-29.58"/>
<polygon fill="midnightblue" stroke="midnightblue" points="376.18,-28.72 370.6,-19.71 369.34,-30.23 376.18,-28.72"/>
</g>
<!-- Node10&#45;&gt;Node11 -->
<g id="edge12" class="edge">
<title>Node10&#45;&gt;Node11</title>
<path fill="none" stroke="midnightblue" d="M424.21,-112.08C429.58,-104.46 437.46,-93.26 444.02,-83.94"/>
<polygon fill="midnightblue" stroke="midnightblue" points="446.89,-85.94 449.78,-75.75 441.16,-81.91 446.89,-85.94"/>
</g>
<!-- Node11&#45;&gt;Node7 -->
<g id="edge14" class="edge">
<title>Node11&#45;&gt;Node7</title>
<path fill="none" stroke="midnightblue" d="M441.96,-56.32C428.39,-47.9 407.56,-34.97 391.61,-25.07"/>
<polygon fill="midnightblue" stroke="midnightblue" points="393.23,-21.95 382.88,-19.65 389.53,-27.9 393.23,-21.95"/>
</g>
<!-- Node12 -->
<g id="node12" class="node">
<title>Node12</title>
<g id="a_node12"><a xlink:title=" ">
<polygon fill="white" stroke="#bfbfbf" points="426.94,-0.5 426.94,-19.5 484.94,-19.5 484.94,-0.5 426.94,-0.5"/>
<text text-anchor="middle" x="455.94" y="-7.5" font-family="Helvetica,sans-Serif" font-size="10.00">memory</text>
</a>
</g>
</g>
<!-- Node11&#45;&gt;Node12 -->
<g id="edge13" class="edge">
<title>Node11&#45;&gt;Node12</title>
<path fill="none" stroke="midnightblue" d="M455.94,-56.08C455.94,-49.01 455.94,-38.86 455.94,-29.99"/>
<polygon fill="midnightblue" stroke="midnightblue" points="459.44,-29.75 455.94,-19.75 452.44,-29.75 459.44,-29.75"/>
</g>
<!-- Node13&#45;&gt;Node4 -->
<g id="edge19" class="edge">
<title>Node13&#45;&gt;Node4</title>
<path fill="none" stroke="midnightblue" d="M146.24,-170.54C94.69,-157.39 29.09,-130.4 2.94,-76 -9.4,-50.32 21.89,-32.91 51.45,-22.62"/>
<polygon fill="midnightblue" stroke="midnightblue" points="52.92,-25.82 61.35,-19.4 50.76,-19.17 52.92,-25.82"/>
</g>
</g>
</svg>
