<?xml version="1.0" encoding="UTF-8" standalone="no"?>
<!DOCTYPE svg PUBLIC "-//W3C//DTD SVG 1.1//EN"
 "http://www.w3.org/Graphics/SVG/1.1/DTD/svg11.dtd">
<!-- Generated by graphviz version 2.43.0 (0)
 -->
<!-- Title: Lyra/include/lyra/detail/choices.hpp Pages: 1 -->
<svg width="926pt" height="453pt"
 viewBox="0.00 0.00 926.06 453.00" xmlns="http://www.w3.org/2000/svg" xmlns:xlink="http://www.w3.org/1999/xlink">
<g id="graph0" class="graph" transform="scale(1 1) rotate(0) translate(4 449)">
<title>Lyra/include/lyra/detail/choices.hpp</title>
<polygon fill="white" stroke="transparent" points="-4,4 -4,-449 922.06,-449 922.06,4 -4,4"/>
<!-- Node1 -->
<g id="node1" class="node">
<title>Node1</title>
<g id="a_node1"><a xlink:title=" ">
<polygon fill="#bfbfbf" stroke="black" points="391,-414.5 391,-444.5 519,-444.5 519,-414.5 391,-414.5"/>
<text text-anchor="start" x="399" y="-432.5" font-family="Helvetica,sans-Serif" font-size="10.00">Lyra/include/lyra/detail</text>
<text text-anchor="middle" x="455" y="-421.5" font-family="Helvetica,sans-Serif" font-size="10.00">/choices.hpp</text>
</a>
</g>
</g>
<!-- Node2 -->
<g id="node2" class="node">
<title>Node2</title>
<g id="a_node2"><a xlink:href="parser_8hpp.html" target="_top" xlink:title=" ">
<polygon fill="white" stroke="black" points="379,-358.5 379,-377.5 531,-377.5 531,-358.5 379,-358.5"/>
<text text-anchor="middle" x="455" y="-365.5" font-family="Helvetica,sans-Serif" font-size="10.00">Lyra/include/lyra/parser.hpp</text>
</a>
</g>
</g>
<!-- Node1&#45;&gt;Node2 -->
<g id="edge1" class="edge">
<title>Node1&#45;&gt;Node2</title>
<path fill="none" stroke="midnightblue" d="M455,-404.29C455,-394.86 455,-384.65 455,-377.66"/>
<polygon fill="midnightblue" stroke="midnightblue" points="451.5,-404.4 455,-414.4 458.5,-404.4 451.5,-404.4"/>
</g>
<!-- Node3 -->
<g id="node3" class="node">
<title>Node3</title>
<g id="a_node3"><a xlink:href="arg_8hpp.html" target="_top" xlink:title=" ">
<polygon fill="white" stroke="black" points="531.5,-123.5 531.5,-142.5 668.5,-142.5 668.5,-123.5 531.5,-123.5"/>
<text text-anchor="middle" x="600" y="-130.5" font-family="Helvetica,sans-Serif" font-size="10.00">Lyra/include/lyra/arg.hpp</text>
</a>
</g>
</g>
<!-- Node2&#45;&gt;Node3 -->
<g id="edge2" class="edge">
<title>Node2&#45;&gt;Node3</title>
<path fill="none" stroke="midnightblue" d="M465.68,-349.83C494.47,-303.58 572.92,-177.51 594.46,-142.9"/>
<polygon fill="midnightblue" stroke="midnightblue" points="462.64,-348.09 460.33,-358.43 468.59,-351.79 462.64,-348.09"/>
</g>
<!-- Node4 -->
<g id="node4" class="node">
<title>Node4</title>
<g id="a_node4"><a xlink:href="include_2lyra_2lyra_8hpp.html" target="_top" xlink:title=" ">
<polygon fill="white" stroke="black" points="248,-0.5 248,-19.5 388,-19.5 388,-0.5 248,-0.5"/>
<text text-anchor="middle" x="318" y="-7.5" font-family="Helvetica,sans-Serif" font-size="10.00">Lyra/include/lyra/lyra.hpp</text>
</a>
</g>
</g>
<!-- Node2&#45;&gt;Node4 -->
<g id="edge25" class="edge">
<title>Node2&#45;&gt;Node4</title>
<path fill="none" stroke="midnightblue" d="M368.7,-361.29C279.34,-354.46 146.29,-341.45 99,-322 47.7,-300.9 0,-301.47 0,-246 0,-246 0,-246 0,-132 0,-94.81 5.36,-78.46 35,-56 67.61,-31.29 175.17,-19.75 247.88,-14.67"/>
<polygon fill="midnightblue" stroke="midnightblue" points="368.6,-364.79 378.83,-362.05 369.12,-357.81 368.6,-364.79"/>
</g>
<!-- Node5 -->
<g id="node5" class="node">
<title>Node5</title>
<g id="a_node5"><a xlink:href="main_8hpp.html" target="_top" xlink:title=" ">
<polygon fill="white" stroke="black" points="597,-62 597,-81 743,-81 743,-62 597,-62"/>
<text text-anchor="middle" x="670" y="-69" font-family="Helvetica,sans-Serif" font-size="10.00">Lyra/include/lyra/main.hpp</text>
</a>
</g>
</g>
<!-- Node2&#45;&gt;Node5 -->
<g id="edge26" class="edge">
<title>Node2&#45;&gt;Node5</title>
<path fill="none" stroke="midnightblue" d="M541.36,-358.84C610.85,-346.95 697,-317.75 697,-246 697,-246 697,-246 697,-188 697,-147.02 680.68,-99.96 673.42,-81.03"/>
<polygon fill="midnightblue" stroke="midnightblue" points="540.55,-355.43 531.24,-360.47 541.67,-362.34 540.55,-355.43"/>
</g>
<!-- Node6 -->
<g id="node6" class="node">
<title>Node6</title>
<g id="a_node6"><a xlink:href="arguments_8hpp.html" target="_top" xlink:title=" ">
<polygon fill="white" stroke="black" points="134.5,-235.5 134.5,-254.5 307.5,-254.5 307.5,-235.5 134.5,-235.5"/>
<text text-anchor="middle" x="221" y="-242.5" font-family="Helvetica,sans-Serif" font-size="10.00">Lyra/include/lyra/arguments.hpp</text>
</a>
</g>
</g>
<!-- Node2&#45;&gt;Node6 -->
<g id="edge6" class="edge">
<title>Node2&#45;&gt;Node6</title>
<path fill="none" stroke="midnightblue" d="M429.4,-353.76C381.19,-328.83 278.15,-275.55 237.75,-254.66"/>
<polygon fill="midnightblue" stroke="midnightblue" points="428.06,-357.01 438.55,-358.49 431.27,-350.79 428.06,-357.01"/>
</g>
<!-- Node11 -->
<g id="node11" class="node">
<title>Node11</title>
<g id="a_node11"><a xlink:href="exe__name_8hpp.html" target="_top" xlink:title=" ">
<polygon fill="white" stroke="black" points="108,-291.5 108,-321.5 226,-321.5 226,-291.5 108,-291.5"/>
<text text-anchor="start" x="116" y="-309.5" font-family="Helvetica,sans-Serif" font-size="10.00">Lyra/include/lyra/exe</text>
<text text-anchor="middle" x="167" y="-298.5" font-family="Helvetica,sans-Serif" font-size="10.00">_name.hpp</text>
</a>
</g>
</g>
<!-- Node2&#45;&gt;Node11 -->
<g id="edge18" class="edge">
<title>Node2&#45;&gt;Node11</title>
<path fill="none" stroke="midnightblue" d="M403.83,-356.43C354.07,-346.15 278.51,-330.54 226.18,-319.73"/>
<polygon fill="midnightblue" stroke="midnightblue" points="403.24,-359.88 413.74,-358.48 404.65,-353.02 403.24,-359.88"/>
</g>
<!-- Node12 -->
<g id="node12" class="node">
<title>Node12</title>
<g id="a_node12"><a xlink:href="literal_8hpp.html" target="_top" xlink:title=" ">
<polygon fill="white" stroke="black" points="380.5,-179.5 380.5,-198.5 529.5,-198.5 529.5,-179.5 380.5,-179.5"/>
<text text-anchor="middle" x="455" y="-186.5" font-family="Helvetica,sans-Serif" font-size="10.00">Lyra/include/lyra/literal.hpp</text>
</a>
</g>
</g>
<!-- Node2&#45;&gt;Node12 -->
<g id="edge22" class="edge">
<title>Node2&#45;&gt;Node12</title>
<path fill="none" stroke="midnightblue" d="M455,-348.35C455,-310.6 455,-226.36 455,-198.87"/>
<polygon fill="midnightblue" stroke="midnightblue" points="451.5,-348.46 455,-358.46 458.5,-348.46 451.5,-348.46"/>
</g>
<!-- Node13 -->
<g id="node13" class="node">
<title>Node13</title>
<g id="a_node13"><a xlink:href="opt_8hpp.html" target="_top" xlink:title=" ">
<polygon fill="white" stroke="black" points="745.5,-179.5 745.5,-198.5 882.5,-198.5 882.5,-179.5 745.5,-179.5"/>
<text text-anchor="middle" x="814" y="-186.5" font-family="Helvetica,sans-Serif" font-size="10.00">Lyra/include/lyra/opt.hpp</text>
</a>
</g>
</g>
<!-- Node2&#45;&gt;Node13 -->
<g id="edge27" class="edge">
<title>Node2&#45;&gt;Node13</title>
<path fill="none" stroke="midnightblue" d="M541.23,-358.53C604.05,-351.13 682.87,-338.91 711,-322 763.07,-290.71 798.77,-222.53 810.13,-198.55"/>
<polygon fill="midnightblue" stroke="midnightblue" points="540.83,-355.05 531.29,-359.68 541.63,-362.01 540.83,-355.05"/>
</g>
<!-- Node3&#45;&gt;Node4 -->
<g id="edge3" class="edge">
<title>Node3&#45;&gt;Node4</title>
<path fill="none" stroke="midnightblue" d="M586.82,-115.68C571.79,-98.19 545.57,-70.94 517,-56 477.14,-35.15 427.85,-23.91 388.3,-17.88"/>
<polygon fill="midnightblue" stroke="midnightblue" points="584.16,-117.96 593.26,-123.38 589.53,-113.47 584.16,-117.96"/>
</g>
<!-- Node3&#45;&gt;Node5 -->
<g id="edge4" class="edge">
<title>Node3&#45;&gt;Node5</title>
<path fill="none" stroke="midnightblue" d="M617.68,-116.97C631.07,-105.59 648.98,-90.37 659.99,-81.01"/>
<polygon fill="midnightblue" stroke="midnightblue" points="615.38,-114.33 610.03,-123.48 619.92,-119.67 615.38,-114.33"/>
</g>
<!-- Node5&#45;&gt;Node4 -->
<g id="edge5" class="edge">
<title>Node5&#45;&gt;Node4</title>
<path fill="none" stroke="midnightblue" d="M609.42,-60.26C541.3,-48.75 431.94,-30.26 368.34,-19.51"/>
<polygon fill="midnightblue" stroke="midnightblue" points="609.12,-63.76 619.57,-61.98 610.29,-56.86 609.12,-63.76"/>
</g>
<!-- Node6&#45;&gt;Node4 -->
<g id="edge17" class="edge">
<title>Node6&#45;&gt;Node4</title>
<path fill="none" stroke="midnightblue" d="M262.86,-231.61C278.61,-224.69 294.9,-214.28 304,-199 308.55,-191.36 304.97,-187.84 304,-179 302.21,-162.71 297.79,-159.29 296,-143 295.03,-134.16 295.14,-131.85 296,-123 299.8,-83.95 310.88,-38.31 315.71,-19.63"/>
<polygon fill="midnightblue" stroke="midnightblue" points="261.17,-228.52 253.18,-235.49 263.77,-235.02 261.17,-228.52"/>
</g>
<!-- Node7 -->
<g id="node7" class="node">
<title>Node7</title>
<g id="a_node7"><a xlink:href="cli_8hpp.html" target="_top" xlink:title=" ">
<polygon fill="white" stroke="black" points="75,-123.5 75,-142.5 207,-142.5 207,-123.5 75,-123.5"/>
<text text-anchor="middle" x="141" y="-130.5" font-family="Helvetica,sans-Serif" font-size="10.00">Lyra/include/lyra/cli.hpp</text>
</a>
</g>
</g>
<!-- Node6&#45;&gt;Node7 -->
<g id="edge7" class="edge">
<title>Node6&#45;&gt;Node7</title>
<path fill="none" stroke="midnightblue" d="M178.29,-231.57C162.46,-224.67 146.15,-214.28 137,-199 126.43,-181.35 132.91,-155.94 137.54,-142.73"/>
<polygon fill="midnightblue" stroke="midnightblue" points="177.43,-235 188.01,-235.44 180.01,-228.49 177.43,-235"/>
</g>
<!-- Node9 -->
<g id="node9" class="node">
<title>Node9</title>
<g id="a_node9"><a xlink:href="group_8hpp.html" target="_top" xlink:title=" ">
<polygon fill="white" stroke="black" points="146.5,-179.5 146.5,-198.5 295.5,-198.5 295.5,-179.5 146.5,-179.5"/>
<text text-anchor="middle" x="221" y="-186.5" font-family="Helvetica,sans-Serif" font-size="10.00">Lyra/include/lyra/group.hpp</text>
</a>
</g>
</g>
<!-- Node6&#45;&gt;Node9 -->
<g id="edge12" class="edge">
<title>Node6&#45;&gt;Node9</title>
<path fill="none" stroke="midnightblue" d="M221,-224.8C221,-215.91 221,-205.78 221,-198.75"/>
<polygon fill="midnightblue" stroke="midnightblue" points="217.5,-225.08 221,-235.08 224.5,-225.08 217.5,-225.08"/>
</g>
<!-- Node7&#45;&gt;Node4 -->
<g id="edge10" class="edge">
<title>Node7&#45;&gt;Node4</title>
<path fill="none" stroke="midnightblue" d="M157.26,-116.06C174.42,-99.74 202.72,-74.26 230,-56 252.1,-41.21 279.7,-27.83 298.04,-19.58"/>
<polygon fill="midnightblue" stroke="midnightblue" points="154.56,-113.8 149.78,-123.26 159.41,-118.84 154.56,-113.8"/>
</g>
<!-- Node7&#45;&gt;Node5 -->
<g id="edge11" class="edge">
<title>Node7&#45;&gt;Node5</title>
<path fill="none" stroke="midnightblue" d="M217.38,-123.41C318.92,-111.99 497.12,-91.95 596.95,-80.72"/>
<polygon fill="midnightblue" stroke="midnightblue" points="216.74,-119.96 207.2,-124.55 217.52,-126.91 216.74,-119.96"/>
</g>
<!-- Node8 -->
<g id="node8" class="node">
<title>Node8</title>
<g id="a_node8"><a xlink:href="cli__parser_8hpp.html" target="_top" xlink:title=" ">
<polygon fill="white" stroke="black" points="66.5,-56.5 66.5,-86.5 177.5,-86.5 177.5,-56.5 66.5,-56.5"/>
<text text-anchor="start" x="74.5" y="-74.5" font-family="Helvetica,sans-Serif" font-size="10.00">Lyra/include/lyra/cli</text>
<text text-anchor="middle" x="122" y="-63.5" font-family="Helvetica,sans-Serif" font-size="10.00">_parser.hpp</text>
</a>
</g>
</g>
<!-- Node7&#45;&gt;Node8 -->
<g id="edge8" class="edge">
<title>Node7&#45;&gt;Node8</title>
<path fill="none" stroke="midnightblue" d="M135.19,-113.82C132.39,-105.04 129.08,-94.68 126.48,-86.52"/>
<polygon fill="midnightblue" stroke="midnightblue" points="131.9,-115.01 138.28,-123.48 138.57,-112.88 131.9,-115.01"/>
</g>
<!-- Node8&#45;&gt;Node4 -->
<g id="edge9" class="edge">
<title>Node8&#45;&gt;Node4</title>
<path fill="none" stroke="midnightblue" d="M178.46,-53.36C214.92,-42.29 260.79,-28.37 289.77,-19.57"/>
<polygon fill="midnightblue" stroke="midnightblue" points="177,-50.15 168.45,-56.4 179.03,-56.84 177,-50.15"/>
</g>
<!-- Node9&#45;&gt;Node4 -->
<g id="edge16" class="edge">
<title>Node9&#45;&gt;Node4</title>
<path fill="none" stroke="midnightblue" d="M224.59,-169.35C230.39,-142.51 243.72,-92.26 268,-56 278.01,-41.06 294.07,-27.81 305.28,-19.62"/>
<polygon fill="midnightblue" stroke="midnightblue" points="221.12,-168.81 222.55,-179.3 227.98,-170.21 221.12,-168.81"/>
</g>
<!-- Node9&#45;&gt;Node7 -->
<g id="edge13" class="edge">
<title>Node9&#45;&gt;Node7</title>
<path fill="none" stroke="midnightblue" d="M199.7,-173.62C185.08,-163.76 166.17,-150.99 153.82,-142.65"/>
<polygon fill="midnightblue" stroke="midnightblue" points="197.9,-176.63 208.15,-179.32 201.82,-170.83 197.9,-176.63"/>
</g>
<!-- Node10 -->
<g id="node10" class="node">
<title>Node10</title>
<g id="a_node10"><a xlink:href="command_8hpp.html" target="_top" xlink:title=" ">
<polygon fill="white" stroke="black" points="305,-123.5 305,-142.5 475,-142.5 475,-123.5 305,-123.5"/>
<text text-anchor="middle" x="390" y="-130.5" font-family="Helvetica,sans-Serif" font-size="10.00">Lyra/include/lyra/command.hpp</text>
</a>
</g>
</g>
<!-- Node9&#45;&gt;Node10 -->
<g id="edge14" class="edge">
<title>Node9&#45;&gt;Node10</title>
<path fill="none" stroke="midnightblue" d="M257.6,-176.3C289.45,-166.13 334.84,-151.62 363.35,-142.52"/>
<polygon fill="midnightblue" stroke="midnightblue" points="256.24,-173.07 247.78,-179.44 258.37,-179.73 256.24,-173.07"/>
</g>
<!-- Node10&#45;&gt;Node4 -->
<g id="edge15" class="edge">
<title>Node10&#45;&gt;Node4</title>
<path fill="none" stroke="midnightblue" d="M379.53,-114.4C363.85,-88.05 334.86,-39.34 323.13,-19.62"/>
<polygon fill="midnightblue" stroke="midnightblue" points="376.7,-116.49 384.82,-123.3 382.72,-112.91 376.7,-116.49"/>
</g>
<!-- Node11&#45;&gt;Node4 -->
<g id="edge21" class="edge">
<title>Node11&#45;&gt;Node4</title>
<path fill="none" stroke="midnightblue" d="M121.51,-286.97C84.37,-268.47 38,-236.14 38,-190 38,-190 38,-190 38,-132 38,-97.18 31.48,-79.69 57,-56 84.08,-30.86 180.07,-19.55 247.74,-14.61"/>
<polygon fill="midnightblue" stroke="midnightblue" points="120.19,-290.22 130.72,-291.37 123.21,-283.9 120.19,-290.22"/>
</g>
<!-- Node11&#45;&gt;Node6 -->
<g id="edge19" class="edge">
<title>Node11&#45;&gt;Node6</title>
<path fill="none" stroke="midnightblue" d="M186.78,-283.7C195.92,-273.64 206.25,-262.26 213.14,-254.66"/>
<polygon fill="midnightblue" stroke="midnightblue" points="183.93,-281.64 179.8,-291.4 189.11,-286.35 183.93,-281.64"/>
</g>
<!-- Node11&#45;&gt;Node7 -->
<g id="edge20" class="edge">
<title>Node11&#45;&gt;Node7</title>
<path fill="none" stroke="midnightblue" d="M143.54,-284.05C136.14,-275.78 128.88,-265.73 125,-255 110.45,-214.75 128.82,-162.68 137.22,-142.51"/>
<polygon fill="midnightblue" stroke="midnightblue" points="141.14,-286.6 150.59,-291.4 146.19,-281.76 141.14,-286.6"/>
</g>
<!-- Node12&#45;&gt;Node4 -->
<g id="edge24" class="edge">
<title>Node12&#45;&gt;Node4</title>
<path fill="none" stroke="midnightblue" d="M470.79,-171.58C481.6,-158.26 492.56,-139.11 484,-123 454.22,-66.98 382.53,-33.91 343.83,-19.54"/>
<polygon fill="midnightblue" stroke="midnightblue" points="467.88,-169.59 463.91,-179.41 473.14,-174.21 467.88,-169.59"/>
</g>
<!-- Node12&#45;&gt;Node10 -->
<g id="edge23" class="edge">
<title>Node12&#45;&gt;Node10</title>
<path fill="none" stroke="midnightblue" d="M436.73,-172.82C425.08,-163.15 410.4,-150.95 400.63,-142.83"/>
<polygon fill="midnightblue" stroke="midnightblue" points="434.63,-175.63 444.56,-179.32 439.1,-170.24 434.63,-175.63"/>
</g>
<!-- Node13&#45;&gt;Node4 -->
<g id="edge31" class="edge">
<title>Node13&#45;&gt;Node4</title>
<path fill="none" stroke="midnightblue" d="M862.82,-176.45C895.33,-166.17 929.46,-148.74 914,-123 860.39,-33.77 533.97,-15.56 388.2,-11.9"/>
<polygon fill="midnightblue" stroke="midnightblue" points="861.43,-173.21 852.84,-179.41 863.42,-179.92 861.43,-173.21"/>
</g>
<!-- Node13&#45;&gt;Node5 -->
<g id="edge32" class="edge">
<title>Node13&#45;&gt;Node5</title>
<path fill="none" stroke="midnightblue" d="M793.65,-173.17C781.94,-164.52 767,-153.32 754,-143 726.71,-121.34 695.51,-94.62 679.94,-81.14"/>
<polygon fill="midnightblue" stroke="midnightblue" points="791.77,-176.13 801.9,-179.23 795.91,-170.49 791.77,-176.13"/>
</g>
<!-- Node14 -->
<g id="node14" class="node">
<title>Node14</title>
<g id="a_node14"><a xlink:href="help_8hpp.html" target="_top" xlink:title=" ">
<polygon fill="white" stroke="black" points="763,-123.5 763,-142.5 905,-142.5 905,-123.5 763,-123.5"/>
<text text-anchor="middle" x="834" y="-130.5" font-family="Helvetica,sans-Serif" font-size="10.00">Lyra/include/lyra/help.hpp</text>
</a>
</g>
</g>
<!-- Node13&#45;&gt;Node14 -->
<g id="edge28" class="edge">
<title>Node13&#45;&gt;Node14</title>
<path fill="none" stroke="midnightblue" d="M820.78,-169.69C824.15,-160.59 828.07,-150.01 830.76,-142.75"/>
<polygon fill="midnightblue" stroke="midnightblue" points="817.49,-168.49 817.3,-179.08 824.06,-170.92 817.49,-168.49"/>
</g>
<!-- Node14&#45;&gt;Node4 -->
<g id="edge29" class="edge">
<title>Node14&#45;&gt;Node4</title>
<path fill="none" stroke="midnightblue" d="M821.34,-115.03C806.8,-96.97 781.17,-69.22 752,-56 688.86,-27.4 494.22,-16.69 388.34,-12.91"/>
<polygon fill="midnightblue" stroke="midnightblue" points="818.65,-117.27 827.55,-123.01 824.17,-112.97 818.65,-117.27"/>
</g>
<!-- Node14&#45;&gt;Node5 -->
<g id="edge30" class="edge">
<title>Node14&#45;&gt;Node5</title>
<path fill="none" stroke="midnightblue" d="M800.74,-119.93C768.86,-108.37 721.57,-91.21 693.45,-81.01"/>
<polygon fill="midnightblue" stroke="midnightblue" points="799.91,-123.35 810.5,-123.48 802.3,-116.77 799.91,-123.35"/>
</g>
</g>
</svg>
