<?xml version="1.0" encoding="UTF-8" standalone="no"?>
<!DOCTYPE svg PUBLIC "-//W3C//DTD SVG 1.1//EN"
 "http://www.w3.org/Graphics/SVG/1.1/DTD/svg11.dtd">
<!-- Generated by graphviz version 2.43.0 (0)
 -->
<!-- Title: Lyra/include/lyra/detail/choices.hpp Pages: 1 -->
<!--zoomable 218 -->
<svg id="main" version="1.1" xmlns="http://www.w3.org/2000/svg" xmlns:xlink="http://www.w3.org/1999/xlink" xml:space="preserve" onload="init(evt)">
<style type="text/css"><![CDATA[
.edge:hover path { stroke: red; }
.edge:hover polygon { stroke: red; fill: red; }
]]></style>
<script type="text/javascript"><![CDATA[
var edges = document.getElementsByTagName('g');
if (edges && edges.length) {
  for (var i=0;i<edges.length;i++) {
    if (edges[i].id.substr(0,4)=='edge') {
      edges[i].setAttribute('class','edge');
    }
  }
}
]]></script>
        <defs>
                <circle id="rim" cx="0" cy="0" r="7"/>
                <circle id="rim2" cx="0" cy="0" r="3.5"/>
                <g id="zoomPlus">
                        <use xlink:href="#rim" fill="#404040">
                                <set attributeName="fill" to="#808080" begin="zoomplus.mouseover" end="zoomplus.mouseout"/>
                        </use>
                        <path d="M-4,0h8M0,-4v8" fill="none" stroke="white" stroke-width="1.5" pointer-events="none"/>
                </g>
                <g id="zoomMin">
                        <use xlink:href="#rim" fill="#404040">
                                <set attributeName="fill" to="#808080" begin="zoomminus.mouseover" end="zoomminus.mouseout"/>
                        </use>
                        <path d="M-4,0h8" fill="none" stroke="white" stroke-width="1.5" pointer-events="none"/>
                </g>
                <g id="dirArrow">
                        <path fill="none" stroke="white" stroke-width="1.5" d="M0,-3.0v7 M-2.5,-0.5L0,-3.0L2.5,-0.5"/>
                </g>
               <g id="resetDef">
                       <use xlink:href="#rim2" fill="#404040">
                               <set attributeName="fill" to="#808080" begin="reset.mouseover" end="reset.mouseout"/>
                       </use>
               </g>
        </defs>

<script type="text/javascript">
var viewWidth = 837;
var viewHeight = 218;
var sectionId = 'dynsection-0';
</script>
<script xlink:href="svgpan.js"/>
<svg id="graph" class="graph">
<g id="viewport">
<title>Lyra/include/lyra/detail/choices.hpp</title>
<polygon fill="white" stroke="transparent" points="-4,4 -4,-214 832.67,-214 832.67,4 -4,4"/>
<!-- Node1 -->
<g id="node1" class="node">
<title>Node1</title>
<g id="a_node1"><a xlink:title=" ">
<polygon fill="#bfbfbf" stroke="black" points="453.17,-179.5 453.17,-209.5 581.17,-209.5 581.17,-179.5 453.17,-179.5"/>
<text text-anchor="start" x="461.17" y="-197.5" font-family="Helvetica,sans-Serif" font-size="10.00">Lyra/include/lyra/detail</text>
<text text-anchor="middle" x="517.17" y="-186.5" font-family="Helvetica,sans-Serif" font-size="10.00">/choices.hpp</text>
</a>
</g>
</g>
<!-- Node2 -->
<g id="node2" class="node">
<title>Node2</title>
<g id="a_node2"><a xlink:href="from__string_8hpp.html" target="_top" xlink:title=" ">
<polygon fill="white" stroke="black" points="281.17,-123.5 281.17,-142.5 427.17,-142.5 427.17,-123.5 281.17,-123.5"/>
<text text-anchor="middle" x="354.17" y="-130.5" font-family="Helvetica,sans-Serif" font-size="10.00">lyra/detail/from_string.hpp</text>
</a>
</g>
</g>
<!-- Node1&#45;&gt;Node2 -->
<g id="edge1" class="edge">
<title>Node1&#45;&gt;Node2</title>
<path fill="none" stroke="midnightblue" d="M478.54,-179.4C450.83,-169.28 413.87,-155.79 387.45,-146.15"/>
<polygon fill="midnightblue" stroke="midnightblue" points="388.48,-142.8 377.89,-142.66 386.08,-149.37 388.48,-142.8"/>
</g>
<!-- Node4 -->
<g id="node4" class="node">
<title>Node4</title>
<g id="a_node4"><a xlink:title=" ">
<polygon fill="white" stroke="#bfbfbf" points="99.67,-0.5 99.67,-19.5 168.67,-19.5 168.67,-0.5 99.67,-0.5"/>
<text text-anchor="middle" x="134.17" y="-7.5" font-family="Helvetica,sans-Serif" font-size="10.00">type_traits</text>
</a>
</g>
</g>
<!-- Node1&#45;&gt;Node4 -->
<g id="edge18" class="edge">
<title>Node1&#45;&gt;Node4</title>
<path fill="none" stroke="midnightblue" d="M453.09,-190.2C328.21,-182.26 59.79,-157.23 6.17,-87 -2.19,-76.05 -1.79,-67.24 6.17,-56 24.93,-29.52 60.56,-18.51 89.48,-13.99"/>
<polygon fill="midnightblue" stroke="midnightblue" points="89.95,-17.45 99.39,-12.64 89.01,-10.52 89.95,-17.45"/>
</g>
<!-- Node7 -->
<g id="node7" class="node">
<title>Node7</title>
<g id="a_node7"><a xlink:title=" ">
<polygon fill="white" stroke="#bfbfbf" points="486.17,-0.5 486.17,-19.5 530.17,-19.5 530.17,-0.5 486.17,-0.5"/>
<text text-anchor="middle" x="508.17" y="-7.5" font-family="Helvetica,sans-Serif" font-size="10.00">string</text>
</a>
</g>
</g>
<!-- Node1&#45;&gt;Node7 -->
<g id="edge17" class="edge">
<title>Node1&#45;&gt;Node7</title>
<path fill="none" stroke="midnightblue" d="M507.47,-179.21C501.47,-169.47 494.33,-156.03 491.17,-143 481.51,-103.11 493.44,-55.03 501.65,-29.33"/>
<polygon fill="midnightblue" stroke="midnightblue" points="504.99,-30.36 504.87,-19.77 498.36,-28.13 504.99,-30.36"/>
</g>
<!-- Node8 -->
<g id="node8" class="node">
<title>Node8</title>
<g id="a_node8"><a xlink:href="result_8hpp.html" target="_top" xlink:title=" ">
<polygon fill="white" stroke="black" points="555.17,-62 555.17,-81 673.17,-81 673.17,-62 555.17,-62"/>
<text text-anchor="middle" x="614.17" y="-69" font-family="Helvetica,sans-Serif" font-size="10.00">lyra/detail/result.hpp</text>
</a>
</g>
</g>
<!-- Node1&#45;&gt;Node8 -->
<g id="edge8" class="edge">
<title>Node1&#45;&gt;Node8</title>
<path fill="none" stroke="midnightblue" d="M581.47,-179.87C601.1,-172.37 620.55,-160.8 632.17,-143 642.71,-126.86 634.29,-104.92 625.77,-89.82"/>
<polygon fill="midnightblue" stroke="midnightblue" points="628.58,-87.7 620.35,-81.02 622.61,-91.37 628.58,-87.7"/>
</g>
<!-- Node10 -->
<g id="node10" class="node">
<title>Node10</title>
<g id="a_node10"><a xlink:href="unary__lambda__traits_8hpp.html" target="_top" xlink:title=" ">
<polygon fill="white" stroke="black" points="15.67,-56.5 15.67,-86.5 154.67,-86.5 154.67,-56.5 15.67,-56.5"/>
<text text-anchor="start" x="23.67" y="-74.5" font-family="Helvetica,sans-Serif" font-size="10.00">lyra/detail/unary_lambda</text>
<text text-anchor="middle" x="85.17" y="-63.5" font-family="Helvetica,sans-Serif" font-size="10.00">_traits.hpp</text>
</a>
</g>
</g>
<!-- Node1&#45;&gt;Node10 -->
<g id="edge11" class="edge">
<title>Node1&#45;&gt;Node10</title>
<path fill="none" stroke="midnightblue" d="M453.05,-183.13C403.22,-174.39 332.66,-160.52 272.17,-143 221.39,-128.29 164.8,-106.11 127.32,-90.57"/>
<polygon fill="midnightblue" stroke="midnightblue" points="128.32,-87.2 117.75,-86.57 125.62,-93.66 128.32,-87.2"/>
</g>
<!-- Node11 -->
<g id="node11" class="node">
<title>Node11</title>
<g id="a_node11"><a xlink:href="parser__result_8hpp.html" target="_top" xlink:title=" ">
<polygon fill="white" stroke="black" points="500.67,-123.5 500.67,-142.5 623.67,-142.5 623.67,-123.5 500.67,-123.5"/>
<text text-anchor="middle" x="562.17" y="-130.5" font-family="Helvetica,sans-Serif" font-size="10.00">lyra/parser_result.hpp</text>
</a>
</g>
</g>
<!-- Node1&#45;&gt;Node11 -->
<g id="edge13" class="edge">
<title>Node1&#45;&gt;Node11</title>
<path fill="none" stroke="midnightblue" d="M527.84,-179.4C534.31,-170.84 542.61,-159.87 549.42,-150.86"/>
<polygon fill="midnightblue" stroke="midnightblue" points="552.38,-152.74 555.62,-142.66 546.8,-148.52 552.38,-152.74"/>
</g>
<!-- Node12 -->
<g id="node12" class="node">
<title>Node12</title>
<g id="a_node12"><a xlink:title=" ">
<polygon fill="white" stroke="#bfbfbf" points="680.67,-123.5 680.67,-142.5 763.67,-142.5 763.67,-123.5 680.67,-123.5"/>
<text text-anchor="middle" x="722.17" y="-130.5" font-family="Helvetica,sans-Serif" font-size="10.00">initializer_list</text>
</a>
</g>
</g>
<!-- Node1&#45;&gt;Node12 -->
<g id="edge16" class="edge">
<title>Node1&#45;&gt;Node12</title>
<path fill="none" stroke="midnightblue" d="M565.49,-179.47C601.32,-169.08 649.55,-155.08 682.99,-145.37"/>
<polygon fill="midnightblue" stroke="midnightblue" points="684.24,-148.66 692.86,-142.51 682.28,-141.93 684.24,-148.66"/>
</g>
<!-- Node13 -->
<g id="node13" class="node">
<title>Node13</title>
<g id="a_node13"><a xlink:title=" ">
<polygon fill="white" stroke="#bfbfbf" points="781.67,-123.5 781.67,-142.5 828.67,-142.5 828.67,-123.5 781.67,-123.5"/>
<text text-anchor="middle" x="805.17" y="-130.5" font-family="Helvetica,sans-Serif" font-size="10.00">vector</text>
</a>
</g>
</g>
<!-- Node1&#45;&gt;Node13 -->
<g id="edge19" class="edge">
<title>Node1&#45;&gt;Node13</title>
<path fill="none" stroke="midnightblue" d="M581.39,-182.29C631.02,-173.3 701.6,-159.78 771.59,-143.25"/>
<polygon fill="midnightblue" stroke="midnightblue" points="772.54,-146.62 781.46,-140.89 770.92,-139.81 772.54,-146.62"/>
</g>
<!-- Node3 -->
<g id="node3" class="node">
<title>Node3</title>
<g id="a_node3"><a xlink:href="trait__utils_8hpp.html" target="_top" xlink:title=" ">
<polygon fill="white" stroke="black" points="285.67,-62 285.67,-81 422.67,-81 422.67,-62 285.67,-62"/>
<text text-anchor="middle" x="354.17" y="-69" font-family="Helvetica,sans-Serif" font-size="10.00">lyra/detail/trait_utils.hpp</text>
</a>
</g>
</g>
<!-- Node2&#45;&gt;Node3 -->
<g id="edge2" class="edge">
<title>Node2&#45;&gt;Node3</title>
<path fill="none" stroke="midnightblue" d="M354.17,-123.48C354.17,-115.08 354.17,-101.98 354.17,-91.16"/>
<polygon fill="midnightblue" stroke="midnightblue" points="357.67,-91.01 354.17,-81.01 350.67,-91.01 357.67,-91.01"/>
</g>
<!-- Node2&#45;&gt;Node4 -->
<g id="edge7" class="edge">
<title>Node2&#45;&gt;Node4</title>
<path fill="none" stroke="midnightblue" d="M299.78,-123.48C269.34,-116.92 231.7,-105.69 202.17,-87 178.06,-71.74 157.36,-45.57 145.33,-28.28"/>
<polygon fill="midnightblue" stroke="midnightblue" points="148.05,-26.06 139.57,-19.71 142.24,-29.96 148.05,-26.06"/>
</g>
<!-- Node6 -->
<g id="node6" class="node">
<title>Node6</title>
<g id="a_node6"><a xlink:title=" ">
<polygon fill="white" stroke="#bfbfbf" points="211.17,-62 211.17,-81 267.17,-81 267.17,-62 211.17,-62"/>
<text text-anchor="middle" x="239.17" y="-69" font-family="Helvetica,sans-Serif" font-size="10.00">sstream</text>
</a>
</g>
</g>
<!-- Node2&#45;&gt;Node6 -->
<g id="edge5" class="edge">
<title>Node2&#45;&gt;Node6</title>
<path fill="none" stroke="midnightblue" d="M337.69,-123.48C318.57,-113.58 286.8,-97.14 264.52,-85.62"/>
<polygon fill="midnightblue" stroke="midnightblue" points="266.11,-82.5 255.62,-81.01 262.89,-88.71 266.11,-82.5"/>
</g>
<!-- Node2&#45;&gt;Node7 -->
<g id="edge6" class="edge">
<title>Node2&#45;&gt;Node7</title>
<path fill="none" stroke="midnightblue" d="M371.46,-123.49C387.6,-115.19 412,-101.69 431.17,-87 455.04,-68.71 479.17,-43.57 493.9,-27.31"/>
<polygon fill="midnightblue" stroke="midnightblue" points="496.65,-29.48 500.69,-19.69 491.42,-24.82 496.65,-29.48"/>
</g>
<!-- Node3&#45;&gt;Node4 -->
<g id="edge3" class="edge">
<title>Node3&#45;&gt;Node4</title>
<path fill="none" stroke="midnightblue" d="M322.65,-61.98C283.93,-51.5 218.15,-33.71 175.44,-22.16"/>
<polygon fill="midnightblue" stroke="midnightblue" points="176.2,-18.74 165.63,-19.51 174.37,-25.5 176.2,-18.74"/>
</g>
<!-- Node5 -->
<g id="node5" class="node">
<title>Node5</title>
<g id="a_node5"><a xlink:title=" ">
<polygon fill="white" stroke="#bfbfbf" points="331.67,-0.5 331.67,-19.5 376.67,-19.5 376.67,-0.5 331.67,-0.5"/>
<text text-anchor="middle" x="354.17" y="-7.5" font-family="Helvetica,sans-Serif" font-size="10.00">utility</text>
</a>
</g>
</g>
<!-- Node3&#45;&gt;Node5 -->
<g id="edge4" class="edge">
<title>Node3&#45;&gt;Node5</title>
<path fill="none" stroke="midnightblue" d="M354.17,-61.98C354.17,-53.58 354.17,-40.48 354.17,-29.66"/>
<polygon fill="midnightblue" stroke="midnightblue" points="357.67,-29.51 354.17,-19.51 350.67,-29.51 357.67,-29.51"/>
</g>
<!-- Node8&#45;&gt;Node7 -->
<g id="edge10" class="edge">
<title>Node8&#45;&gt;Node7</title>
<path fill="none" stroke="midnightblue" d="M598.98,-61.98C581.51,-52.17 552.59,-35.93 532.09,-24.42"/>
<polygon fill="midnightblue" stroke="midnightblue" points="533.76,-21.35 523.33,-19.51 530.34,-27.46 533.76,-21.35"/>
</g>
<!-- Node9 -->
<g id="node9" class="node">
<title>Node9</title>
<g id="a_node9"><a xlink:title=" ">
<polygon fill="white" stroke="#bfbfbf" points="585.17,-0.5 585.17,-19.5 643.17,-19.5 643.17,-0.5 585.17,-0.5"/>
<text text-anchor="middle" x="614.17" y="-7.5" font-family="Helvetica,sans-Serif" font-size="10.00">memory</text>
</a>
</g>
</g>
<!-- Node8&#45;&gt;Node9 -->
<g id="edge9" class="edge">
<title>Node8&#45;&gt;Node9</title>
<path fill="none" stroke="midnightblue" d="M614.17,-61.98C614.17,-53.58 614.17,-40.48 614.17,-29.66"/>
<polygon fill="midnightblue" stroke="midnightblue" points="617.67,-29.51 614.17,-19.51 610.67,-29.51 617.67,-29.51"/>
</g>
<!-- Node10&#45;&gt;Node4 -->
<g id="edge12" class="edge">
<title>Node10&#45;&gt;Node4</title>
<path fill="none" stroke="midnightblue" d="M96.78,-56.4C103.9,-47.75 113.05,-36.64 120.52,-27.58"/>
<polygon fill="midnightblue" stroke="midnightblue" points="123.39,-29.6 127.04,-19.66 117.98,-25.15 123.39,-29.6"/>
</g>
<!-- Node11&#45;&gt;Node7 -->
<g id="edge15" class="edge">
<title>Node11&#45;&gt;Node7</title>
<path fill="none" stroke="midnightblue" d="M558.29,-123.3C549.49,-103.59 527.9,-55.21 516.13,-28.84"/>
<polygon fill="midnightblue" stroke="midnightblue" points="519.29,-27.33 512.02,-19.62 512.9,-30.18 519.29,-27.33"/>
</g>
<!-- Node11&#45;&gt;Node8 -->
<g id="edge14" class="edge">
<title>Node11&#45;&gt;Node8</title>
<path fill="none" stroke="midnightblue" d="M569.62,-123.48C577.5,-114.46 590.12,-100.02 599.92,-88.81"/>
<polygon fill="midnightblue" stroke="midnightblue" points="602.79,-90.84 606.74,-81.01 597.52,-86.24 602.79,-90.84"/>
</g>
</g>
</svg>
        <g id="navigator" transform="translate(0 0)" fill="#404254">
                <rect fill="#f2f5e9" fill-opacity="0.5" stroke="#606060" stroke-width=".5" x="0" y="0" width="60" height="60"/>
                <use id="zoomplus" xlink:href="#zoomPlus" x="17" y="9" onmousedown="handleZoom(evt,'in')"/>
                <use id="zoomminus" xlink:href="#zoomMin" x="42" y="9" onmousedown="handleZoom(evt,'out')"/>
                <use id="reset" xlink:href="#resetDef" x="30" y="36" onmousedown="handleReset()"/>
                <g id="arrowUp" xlink:href="#dirArrow" transform="translate(30 24)" onmousedown="handlePan(0,-1)">
                  <use xlink:href="#rim" fill="#404040">
                        <set attributeName="fill" to="#808080" begin="arrowUp.mouseover" end="arrowUp.mouseout"/>
                  </use>
                  <path fill="none" stroke="white" stroke-width="1.5" d="M0,-3.0v7 M-2.5,-0.5L0,-3.0L2.5,-0.5"/>
                </g>
                <g id="arrowRight" xlink:href="#dirArrow" transform="rotate(90) translate(36 -43)" onmousedown="handlePan(1,0)">
                  <use xlink:href="#rim" fill="#404040">
                        <set attributeName="fill" to="#808080" begin="arrowRight.mouseover" end="arrowRight.mouseout"/>
                  </use>
                  <path fill="none" stroke="white" stroke-width="1.5" d="M0,-3.0v7 M-2.5,-0.5L0,-3.0L2.5,-0.5"/>
                </g>
                <g id="arrowDown" xlink:href="#dirArrow" transform="rotate(180) translate(-30 -48)" onmousedown="handlePan(0,1)">
                  <use xlink:href="#rim" fill="#404040">
                        <set attributeName="fill" to="#808080" begin="arrowDown.mouseover" end="arrowDown.mouseout"/>
                  </use>
                  <path fill="none" stroke="white" stroke-width="1.5" d="M0,-3.0v7 M-2.5,-0.5L0,-3.0L2.5,-0.5"/>
                </g>
                <g id="arrowLeft" xlink:href="#dirArrow" transform="rotate(270) translate(-36 17)" onmousedown="handlePan(-1,0)">
                  <use xlink:href="#rim" fill="#404040">
                        <set attributeName="fill" to="#808080" begin="arrowLeft.mouseover" end="arrowLeft.mouseout"/>
                  </use>
                  <path fill="none" stroke="white" stroke-width="1.5" d="M0,-3.0v7 M-2.5,-0.5L0,-3.0L2.5,-0.5"/>
                </g>
        </g>
        <svg viewBox="0 0 15 15" width="100%" height="30px" preserveAspectRatio="xMaxYMin meet">
         <g id="arrow_out" transform="scale(0.3 0.3)">
          <a xlink:href="choices_8hpp__incl_org.svg" target="_base">
           <rect id="button" ry="5" rx="5" y="6" x="6" height="38" width="38"
                fill="#f2f5e9" fill-opacity="0.5" stroke="#606060" stroke-width="1.0"/>
           <path id="arrow"
             d="M 11.500037,31.436501 C 11.940474,20.09759 22.043105,11.32322 32.158766,21.979434 L 37.068811,17.246167 C 37.068811,17.246167 37.088388,32 37.088388,32 L 22.160133,31.978069 C 22.160133,31.978069 26.997745,27.140456 26.997745,27.140456 C 18.528582,18.264221 13.291696,25.230495 11.500037,31.436501 z"
             style="fill:#404040;"/>
          </a>
         </g>
        </svg>
</svg>
