<?xml version="1.0" encoding="UTF-8" standalone="no"?>
<!DOCTYPE svg PUBLIC "-//W3C//DTD SVG 1.1//EN"
 "http://www.w3.org/Graphics/SVG/1.1/DTD/svg11.dtd">
<!-- Generated by graphviz version 2.43.0 (0)
 -->
<!-- Title: MainNamespace::Functions::PlaneWave::PlaneWave Pages: 1 -->
<svg width="526pt" height="83pt"
 viewBox="0.00 0.00 526.00 83.00" xmlns="http://www.w3.org/2000/svg" xmlns:xlink="http://www.w3.org/1999/xlink">
<g id="graph0" class="graph" transform="scale(1 1) rotate(0) translate(4 79)">
<title>MainNamespace::Functions::PlaneWave::PlaneWave</title>
<polygon fill="white" stroke="transparent" points="-4,4 -4,-79 522,-79 522,4 -4,4"/>
<!-- Node1 -->
<g id="node1" class="node">
<title>Node1</title>
<g id="a_node1"><a xlink:title="Construct a reference plane wave.">
<polygon fill="#bfbfbf" stroke="black" points="0,-22.5 0,-52.5 151,-52.5 151,-22.5 0,-22.5"/>
<text text-anchor="start" x="8" y="-40.5" font-family="Helvetica,sans-Serif" font-size="10.00">MainNamespace::Functions</text>
<text text-anchor="middle" x="75.5" y="-29.5" font-family="Helvetica,sans-Serif" font-size="10.00">::PlaneWave::PlaneWave</text>
</a>
</g>
</g>
<!-- Node2 -->
<g id="node2" class="node">
<title>Node2</title>
<g id="a_node2"><a xlink:href="namespace_main_namespace_1_1_logger.html#afbb4cc2d8b498e71fcb228f0da8309a1" target="_top" xlink:title=" ">
<polygon fill="white" stroke="black" points="187,-50 187,-69 345,-69 345,-50 187,-50"/>
<text text-anchor="middle" x="266" y="-57" font-family="Helvetica,sans-Serif" font-size="10.00">MainNamespace::Logger::log</text>
</a>
</g>
</g>
<!-- Node1&#45;&gt;Node2 -->
<g id="edge1" class="edge">
<title>Node1&#45;&gt;Node2</title>
<path fill="none" stroke="midnightblue" d="M151,-46.19C159.43,-47.18 168.09,-48.19 176.67,-49.19"/>
<polygon fill="midnightblue" stroke="midnightblue" points="176.37,-52.68 186.71,-50.36 177.18,-45.73 176.37,-52.68"/>
</g>
<!-- Node4 -->
<g id="node4" class="node">
<title>Node4</title>
<g id="a_node4"><a xlink:href="class_main_namespace_1_1_functions_1_1_plane_wave.html#acbe9c6263cce1f707248986504f0f8d7" target="_top" xlink:title="Getter.">
<polygon fill="white" stroke="black" points="190.5,-0.5 190.5,-30.5 341.5,-30.5 341.5,-0.5 190.5,-0.5"/>
<text text-anchor="start" x="198.5" y="-18.5" font-family="Helvetica,sans-Serif" font-size="10.00">MainNamespace::Functions</text>
<text text-anchor="middle" x="266" y="-7.5" font-family="Helvetica,sans-Serif" font-size="10.00">::PlaneWave::waveNumber</text>
</a>
</g>
</g>
<!-- Node1&#45;&gt;Node4 -->
<g id="edge3" class="edge">
<title>Node1&#45;&gt;Node4</title>
<path fill="none" stroke="midnightblue" d="M151,-28.81C160.62,-27.68 170.53,-26.53 180.31,-25.38"/>
<polygon fill="midnightblue" stroke="midnightblue" points="180.9,-28.84 190.42,-24.2 180.09,-21.89 180.9,-28.84"/>
</g>
<!-- Node3 -->
<g id="node3" class="node">
<title>Node3</title>
<g id="a_node3"><a xlink:href="namespace_main_namespace_1_1_logger.html#af052b0198f333fca77f0837a511ec7f7" target="_top" xlink:title=" ">
<polygon fill="white" stroke="black" points="381,-44.5 381,-74.5 518,-74.5 518,-44.5 381,-44.5"/>
<text text-anchor="start" x="389" y="-62.5" font-family="Helvetica,sans-Serif" font-size="10.00">MainNamespace::Logger</text>
<text text-anchor="middle" x="449.5" y="-51.5" font-family="Helvetica,sans-Serif" font-size="10.00">::forwardLog</text>
</a>
</g>
</g>
<!-- Node2&#45;&gt;Node3 -->
<g id="edge2" class="edge">
<title>Node2&#45;&gt;Node3</title>
<path fill="none" stroke="midnightblue" d="M345.03,-59.5C353.5,-59.5 362.12,-59.5 370.59,-59.5"/>
<polygon fill="midnightblue" stroke="midnightblue" points="370.82,-63 380.82,-59.5 370.82,-56 370.82,-63"/>
</g>
</g>
</svg>
