<?xml version="1.0" encoding="UTF-8" standalone="no"?>
<!DOCTYPE svg PUBLIC "-//W3C//DTD SVG 1.1//EN"
 "http://www.w3.org/Graphics/SVG/1.1/DTD/svg11.dtd">
<!-- Generated by graphviz version 2.43.0 (0)
 -->
<!-- Title: lyra::main::style Pages: 1 -->
<svg width="223pt" height="46pt"
 viewBox="0.00 0.00 223.00 46.00" xmlns="http://www.w3.org/2000/svg" xmlns:xlink="http://www.w3.org/1999/xlink">
<g id="graph0" class="graph" transform="scale(1 1) rotate(0) translate(4 42)">
<title>lyra::main::style</title>
<polygon fill="white" stroke="transparent" points="-4,4 -4,-42 219,-42 219,4 -4,4"/>
<!-- Node1 -->
<g id="node1" class="node">
<title>Node1</title>
<g id="a_node1"><a xlink:title=" ">
<polygon fill="#bfbfbf" stroke="black" points="0,-0.5 0,-19.5 96,-19.5 96,-0.5 0,-0.5"/>
<text text-anchor="middle" x="48" y="-7.5" font-family="Helvetica,sans-Serif" font-size="10.00">lyra::main::style</text>
</a>
</g>
</g>
<!-- Node1&#45;&gt;Node1 -->
<g id="edge3" class="edge">
<title>Node1&#45;&gt;Node1</title>
<path fill="none" stroke="midnightblue" d="M28.89,-19.76C19.59,-28.57 25.96,-38 48,-38 62.12,-38 69.81,-34.13 71.07,-29.03"/>
<polygon fill="midnightblue" stroke="midnightblue" points="74.25,-27.58 67.11,-19.76 67.81,-30.33 74.25,-27.58"/>
</g>
<!-- Node2 -->
<g id="node2" class="node">
<title>Node2</title>
<g id="a_node2"><a xlink:href="classlyra_1_1cli.html#a646a38771c685b00e17f116d6b2e926d" target="_top" xlink:title=" ">
<polygon fill="white" stroke="black" points="132,-0.5 132,-19.5 215,-19.5 215,-0.5 132,-0.5"/>
<text text-anchor="middle" x="173.5" y="-7.5" font-family="Helvetica,sans-Serif" font-size="10.00">lyra::cli::style</text>
</a>
</g>
</g>
<!-- Node1&#45;&gt;Node2 -->
<g id="edge1" class="edge">
<title>Node1&#45;&gt;Node2</title>
<path fill="none" stroke="midnightblue" d="M96.04,-10C104.38,-10 113.09,-10 121.53,-10"/>
<polygon fill="midnightblue" stroke="midnightblue" points="121.64,-13.5 131.64,-10 121.64,-6.5 121.64,-13.5"/>
</g>
<!-- Node2&#45;&gt;Node2 -->
<g id="edge2" class="edge">
<title>Node2&#45;&gt;Node2</title>
<path fill="none" stroke="midnightblue" d="M154.39,-19.76C145.09,-28.57 151.46,-38 173.5,-38 187.62,-38 195.31,-34.13 196.57,-29.03"/>
<polygon fill="midnightblue" stroke="midnightblue" points="199.75,-27.58 192.61,-19.76 193.31,-30.33 199.75,-27.58"/>
</g>
</g>
</svg>
