<?xml version="1.0" encoding="UTF-8" standalone="no"?>
<!DOCTYPE svg PUBLIC "-//W3C//DTD SVG 1.1//EN"
 "http://www.w3.org/Graphics/SVG/1.1/DTD/svg11.dtd">
<!-- Generated by graphviz version 2.43.0 (0)
 -->
<!-- Title: lyra::main Pages: 1 -->
<!--zoomable 445 -->
<svg id="main" version="1.1" xmlns="http://www.w3.org/2000/svg" xmlns:xlink="http://www.w3.org/1999/xlink" xml:space="preserve" onload="init(evt)">
<style type="text/css"><![CDATA[
.edge:hover path { stroke: red; }
.edge:hover polygon { stroke: red; fill: red; }
]]></style>
<script type="text/javascript"><![CDATA[
var edges = document.getElementsByTagName('g');
if (edges && edges.length) {
  for (var i=0;i<edges.length;i++) {
    if (edges[i].id.substr(0,4)=='edge') {
      edges[i].setAttribute('class','edge');
    }
  }
}
]]></script>
        <defs>
                <circle id="rim" cx="0" cy="0" r="7"/>
                <circle id="rim2" cx="0" cy="0" r="3.5"/>
                <g id="zoomPlus">
                        <use xlink:href="#rim" fill="#404040">
                                <set attributeName="fill" to="#808080" begin="zoomplus.mouseover" end="zoomplus.mouseout"/>
                        </use>
                        <path d="M-4,0h8M0,-4v8" fill="none" stroke="white" stroke-width="1.5" pointer-events="none"/>
                </g>
                <g id="zoomMin">
                        <use xlink:href="#rim" fill="#404040">
                                <set attributeName="fill" to="#808080" begin="zoomminus.mouseover" end="zoomminus.mouseout"/>
                        </use>
                        <path d="M-4,0h8" fill="none" stroke="white" stroke-width="1.5" pointer-events="none"/>
                </g>
                <g id="dirArrow">
                        <path fill="none" stroke="white" stroke-width="1.5" d="M0,-3.0v7 M-2.5,-0.5L0,-3.0L2.5,-0.5"/>
                </g>
               <g id="resetDef">
                       <use xlink:href="#rim2" fill="#404040">
                               <set attributeName="fill" to="#808080" begin="reset.mouseover" end="reset.mouseout"/>
                       </use>
               </g>
        </defs>

<script type="text/javascript">
var viewWidth = 1460;
var viewHeight = 445;
var sectionId = 'dynsection-1';
</script>
<script xlink:href="svgpan.js"/>
<svg id="graph" class="graph">
<g id="viewport">
<title>lyra::main</title>
<polygon fill="white" stroke="transparent" points="-4,4 -4,-441.46 1456,-441.46 1456,4 -4,4"/>
<!-- Node1 -->
<g id="node1" class="node">
<title>Node1</title>
<g id="a_node1"><a xlink:title=" ">
<polygon fill="#bfbfbf" stroke="black" points="1386,-253.5 1386,-272.5 1452,-272.5 1452,-253.5 1386,-253.5"/>
<text text-anchor="middle" x="1419" y="-260.5" font-family="Helvetica,sans-Serif" font-size="10.00">lyra::main</text>
</a>
</g>
</g>
<!-- Node2 -->
<g id="node2" class="node">
<title>Node2</title>
<g id="a_node2"><a xlink:href="classlyra_1_1cli.html" target="_top" xlink:title=" ">
<polygon fill="white" stroke="black" points="1242,-253.5 1242,-272.5 1295,-272.5 1295,-253.5 1242,-253.5"/>
<text text-anchor="middle" x="1268.5" y="-260.5" font-family="Helvetica,sans-Serif" font-size="10.00">lyra::cli</text>
</a>
</g>
</g>
<!-- Node2&#45;&gt;Node1 -->
<g id="edge1" class="edge">
<title>Node2&#45;&gt;Node1</title>
<path fill="none" stroke="darkgreen" d="M1305.03,-257.14C1329.59,-255.89 1362.01,-255.96 1385.82,-257.32"/>
<polygon fill="darkgreen" stroke="darkgreen" points="1304.79,-253.65 1295.03,-257.76 1305.22,-260.64 1304.79,-253.65"/>
</g>
<!-- Node2&#45;&gt;Node1 -->
<g id="edge39" class="edge">
<title>Node2&#45;&gt;Node1</title>
<path fill="none" stroke="darkgreen" d="M1305.03,-268.86C1329.59,-270.11 1362.01,-270.04 1385.82,-268.68"/>
<polygon fill="darkgreen" stroke="darkgreen" points="1305.22,-265.36 1295.03,-268.24 1304.79,-272.35 1305.22,-265.36"/>
</g>
<!-- Node3 -->
<g id="node3" class="node">
<title>Node3</title>
<g id="a_node3"><a xlink:href="classlyra_1_1arguments.html" target="_top" xlink:title=" ">
<polygon fill="white" stroke="black" points="1046,-253.5 1046,-272.5 1140,-272.5 1140,-253.5 1046,-253.5"/>
<text text-anchor="middle" x="1093" y="-260.5" font-family="Helvetica,sans-Serif" font-size="10.00">lyra::arguments</text>
</a>
</g>
</g>
<!-- Node3&#45;&gt;Node2 -->
<g id="edge2" class="edge">
<title>Node3&#45;&gt;Node2</title>
<path fill="none" stroke="darkgreen" d="M1150.23,-256.64C1181.02,-255.83 1217.69,-256.29 1241.72,-258.03"/>
<polygon fill="darkgreen" stroke="darkgreen" points="1149.92,-253.14 1140.04,-256.96 1150.15,-260.14 1149.92,-253.14"/>
</g>
<!-- Node3&#45;&gt;Node2 -->
<g id="edge20" class="edge">
<title>Node3&#45;&gt;Node2</title>
<path fill="none" stroke="darkgreen" d="M1150.23,-269.36C1181.02,-270.17 1217.69,-269.71 1241.72,-267.97"/>
<polygon fill="darkgreen" stroke="darkgreen" points="1150.15,-265.86 1140.04,-269.04 1149.92,-272.86 1150.15,-265.86"/>
</g>
<!-- Node4 -->
<g id="node4" class="node">
<title>Node4</title>
<g id="a_node4"><a xlink:href="classlyra_1_1parser.html" target="_top" xlink:title=" ">
<polygon fill="white" stroke="black" points="250,-379.5 250,-398.5 322,-398.5 322,-379.5 250,-379.5"/>
<text text-anchor="middle" x="286" y="-386.5" font-family="Helvetica,sans-Serif" font-size="10.00">lyra::parser</text>
</a>
</g>
</g>
<!-- Node4&#45;&gt;Node3 -->
<g id="edge3" class="edge">
<title>Node4&#45;&gt;Node3</title>
<path fill="none" stroke="midnightblue" d="M323.79,-377.39C362.59,-370.01 425.54,-361.97 480,-356 723.19,-329.35 800.7,-394.5 1028,-304 1046.21,-296.75 1063.51,-282.63 1075.53,-272.68"/>
<polygon fill="midnightblue" stroke="midnightblue" points="322.62,-374.06 313.51,-379.46 324,-380.92 322.62,-374.06"/>
</g>
<!-- Node4&#45;&gt;Node3 -->
<g id="edge4" class="edge">
<title>Node4&#45;&gt;Node3</title>
<path fill="none" stroke="midnightblue" d="M332.19,-390.16C371.27,-386.91 429.32,-379.55 480,-374 723.19,-347.35 800.7,-412.5 1028,-322 1053.94,-311.67 1078.04,-287.41 1087.63,-272.78"/>
<polygon fill="midnightblue" stroke="midnightblue" points="331.88,-386.67 322.18,-390.92 332.42,-393.65 331.88,-386.67"/>
</g>
<!-- Node13 -->
<g id="node13" class="node">
<title>Node13</title>
<g id="a_node13"><a xlink:title=" ">
<polygon fill="white" stroke="black" points="489,-51 489,-81 608,-81 608,-51 489,-51"/>
<text text-anchor="start" x="497" y="-69" font-family="Helvetica,sans-Serif" font-size="10.00">std::unique_ptr&lt; lyra</text>
<text text-anchor="middle" x="548.5" y="-58" font-family="Helvetica,sans-Serif" font-size="10.00">::parser &gt;</text>
</a>
</g>
</g>
<!-- Node4&#45;&gt;Node13 -->
<g id="edge14" class="edge">
<title>Node4&#45;&gt;Node13</title>
<path fill="none" stroke="#9a32cd" stroke-dasharray="5,2" d="M302.81,-371.78C317,-355.22 337.08,-328.82 347,-302 360.26,-266.16 339.62,-159.57 365,-131 394.36,-97.95 423.3,-130.36 462,-109 471.91,-103.53 470.48,-97.11 480,-91 485.89,-87.22 492.44,-83.9 499.06,-81.02"/>
<polygon fill="#9a32cd" stroke="#9a32cd" points="300,-369.68 296.01,-379.49 305.25,-374.31 300,-369.68"/>
<text text-anchor="middle" x="413.5" y="-134" font-family="Helvetica,sans-Serif" font-size="10.00"> ptr</text>
</g>
<!-- Node18 -->
<g id="node18" class="node">
<title>Node18</title>
<g id="a_node18"><a xlink:href="classlyra_1_1composable__parser.html" target="_top" xlink:title=" ">
<polygon fill="white" stroke="black" points="800,-398 800,-428 937,-428 937,-398 800,-398"/>
<text text-anchor="start" x="808" y="-416" font-family="Helvetica,sans-Serif" font-size="10.00">lyra::composable_parser</text>
<text text-anchor="middle" x="868.5" y="-405" font-family="Helvetica,sans-Serif" font-size="10.00">&lt; exe_name &gt;</text>
</a>
</g>
</g>
<!-- Node4&#45;&gt;Node18 -->
<g id="edge23" class="edge">
<title>Node4&#45;&gt;Node18</title>
<path fill="none" stroke="midnightblue" d="M332.2,-395.74C342.84,-398.53 354.22,-401.3 365,-403 541.51,-430.82 588.39,-415.33 767,-410 777.66,-409.68 788.94,-409.18 799.95,-408.71"/>
<polygon fill="midnightblue" stroke="midnightblue" points="332.84,-392.29 322.28,-393.09 331.04,-399.05 332.84,-392.29"/>
</g>
<!-- Node4&#45;&gt;Node18 -->
<g id="edge24" class="edge">
<title>Node4&#45;&gt;Node18</title>
<path fill="none" stroke="midnightblue" d="M306.02,-403.4C321.62,-410.6 344.41,-417.75 365,-421 541.51,-448.82 588.39,-433.33 767,-428 777.66,-427.68 788.94,-427.18 799.95,-426.47"/>
<polygon fill="midnightblue" stroke="midnightblue" points="307.4,-400.17 296.9,-398.7 304.19,-406.39 307.4,-400.17"/>
</g>
<!-- Node19 -->
<g id="node19" class="node">
<title>Node19</title>
<g id="a_node19"><a xlink:href="classlyra_1_1composable__parser.html" target="_top" xlink:title=" ">
<polygon fill="white" stroke="black" points="480,-374 480,-404 617,-404 617,-374 480,-374"/>
<text text-anchor="start" x="488" y="-392" font-family="Helvetica,sans-Serif" font-size="10.00">lyra::composable_parser</text>
<text text-anchor="middle" x="548.5" y="-381" font-family="Helvetica,sans-Serif" font-size="10.00">&lt; Derived &gt;</text>
</a>
</g>
</g>
<!-- Node4&#45;&gt;Node19 -->
<g id="edge26" class="edge">
<title>Node4&#45;&gt;Node19</title>
<path fill="none" stroke="midnightblue" d="M332.3,-383.74C373.02,-382.04 433.4,-381.8 479.85,-383"/>
<polygon fill="midnightblue" stroke="midnightblue" points="331.96,-380.25 322.13,-384.21 332.28,-387.24 331.96,-380.25"/>
</g>
<!-- Node4&#45;&gt;Node19 -->
<g id="edge27" class="edge">
<title>Node4&#45;&gt;Node19</title>
<path fill="none" stroke="midnightblue" d="M332.3,-394.26C373.02,-395.96 433.4,-396.2 479.85,-395"/>
<polygon fill="midnightblue" stroke="midnightblue" points="332.28,-390.76 322.13,-393.79 331.96,-397.75 332.28,-390.76"/>
</g>
<!-- Node5 -->
<g id="node5" class="node">
<title>Node5</title>
<g id="a_node5"><a xlink:title=" ">
<polygon fill="white" stroke="black" points="809,-118 809,-148 928,-148 928,-118 809,-118"/>
<text text-anchor="start" x="817" y="-136" font-family="Helvetica,sans-Serif" font-size="10.00">std::shared_ptr&lt; lyra</text>
<text text-anchor="middle" x="868.5" y="-125" font-family="Helvetica,sans-Serif" font-size="10.00">::option_style &gt;</text>
</a>
</g>
</g>
<!-- Node5&#45;&gt;Node3 -->
<g id="edge5" class="edge">
<title>Node5&#45;&gt;Node3</title>
<path fill="none" stroke="#9a32cd" stroke-dasharray="5,2" d="M927.43,-151.49C958.67,-162.91 997.04,-179.33 1028,-200 1051.08,-215.41 1073.01,-239.85 1084.22,-253.31"/>
<polygon fill="#9a32cd" stroke="#9a32cd" points="928.58,-148.19 917.98,-148.11 926.22,-154.78 928.58,-148.19"/>
<text text-anchor="middle" x="999" y="-203" font-family="Helvetica,sans-Serif" font-size="10.00"> opt_style</text>
</g>
<!-- Node6 -->
<g id="node6" class="node">
<title>Node6</title>
<g id="a_node6"><a xlink:href="structlyra_1_1option__style.html" target="_top" xlink:title=" ">
<polygon fill="white" stroke="black" points="498,-100.5 498,-119.5 599,-119.5 599,-100.5 498,-100.5"/>
<text text-anchor="middle" x="548.5" y="-107.5" font-family="Helvetica,sans-Serif" font-size="10.00">lyra::option_style</text>
</a>
</g>
</g>
<!-- Node6&#45;&gt;Node5 -->
<g id="edge6" class="edge">
<title>Node6&#45;&gt;Node5</title>
<path fill="none" stroke="#9a32cd" stroke-dasharray="5,2" d="M609,-100.77C652.92,-95.52 714.02,-91.52 767,-100 788.76,-103.48 812.2,-110.95 830.97,-117.9"/>
<polygon fill="#9a32cd" stroke="#9a32cd" points="608.55,-97.3 599.06,-102.01 609.42,-104.24 608.55,-97.3"/>
<text text-anchor="middle" x="701" y="-103" font-family="Helvetica,sans-Serif" font-size="10.00"> ptr</text>
</g>
<!-- Node7 -->
<g id="node7" class="node">
<title>Node7</title>
<g id="a_node7"><a xlink:title=" ">
<polygon fill="white" stroke="black" points="253.5,-207.5 253.5,-226.5 318.5,-226.5 318.5,-207.5 253.5,-207.5"/>
<text text-anchor="middle" x="286" y="-214.5" font-family="Helvetica,sans-Serif" font-size="10.00">std::string</text>
</a>
</g>
</g>
<!-- Node7&#45;&gt;Node6 -->
<g id="edge7" class="edge">
<title>Node7&#45;&gt;Node6</title>
<path fill="none" stroke="#9a32cd" stroke-dasharray="5,2" d="M320.14,-203.7C355.38,-189.53 412.7,-166.38 462,-146 483.43,-137.14 507.81,-126.86 525.03,-119.56"/>
<polygon fill="#9a32cd" stroke="#9a32cd" points="318.79,-200.48 310.82,-207.45 321.4,-206.97 318.79,-200.48"/>
<text text-anchor="middle" x="413.5" y="-210" font-family="Helvetica,sans-Serif" font-size="10.00"> long_option_prefix</text>
<text text-anchor="middle" x="413.5" y="-199" font-family="Helvetica,sans-Serif" font-size="10.00">short_option_prefix</text>
<text text-anchor="middle" x="413.5" y="-188" font-family="Helvetica,sans-Serif" font-size="10.00">value_delimiters</text>
</g>
<!-- Node20 -->
<g id="node20" class="node">
<title>Node20</title>
<g id="a_node20"><a xlink:title=" ">
<polygon fill="white" stroke="black" points="810.5,-219 810.5,-249 926.5,-249 926.5,-219 810.5,-219"/>
<text text-anchor="start" x="818.5" y="-237" font-family="Helvetica,sans-Serif" font-size="10.00">std::shared_ptr&lt; std</text>
<text text-anchor="middle" x="868.5" y="-226" font-family="Helvetica,sans-Serif" font-size="10.00">::string &gt;</text>
</a>
</g>
</g>
<!-- Node7&#45;&gt;Node20 -->
<g id="edge30" class="edge">
<title>Node7&#45;&gt;Node20</title>
<path fill="none" stroke="#9a32cd" stroke-dasharray="5,2" d="M329.18,-220.01C340.79,-220.76 353.38,-221.49 365,-222 526.28,-229.09 716.88,-232.2 810.2,-233.38"/>
<polygon fill="#9a32cd" stroke="#9a32cd" points="329.07,-216.5 318.86,-219.33 328.61,-223.48 329.07,-216.5"/>
<text text-anchor="middle" x="548.5" y="-233" font-family="Helvetica,sans-Serif" font-size="10.00"> ptr</text>
</g>
<!-- Node8 -->
<g id="node8" class="node">
<title>Node8</title>
<g id="a_node8"><a xlink:title=" ">
<polygon fill="white" stroke="black" points="18,-202 18,-232 122,-232 122,-202 18,-202"/>
<text text-anchor="start" x="26" y="-220" font-family="Helvetica,sans-Serif" font-size="10.00">std::basic_string&lt;</text>
<text text-anchor="middle" x="70" y="-209" font-family="Helvetica,sans-Serif" font-size="10.00"> Char &gt;</text>
</a>
</g>
</g>
<!-- Node8&#45;&gt;Node7 -->
<g id="edge8" class="edge">
<title>Node8&#45;&gt;Node7</title>
<path fill="none" stroke="midnightblue" d="M132.33,-217C171.87,-217 221.64,-217 253.4,-217"/>
<polygon fill="midnightblue" stroke="midnightblue" points="132.26,-213.5 122.26,-217 132.26,-220.5 132.26,-213.5"/>
</g>
<!-- Node9 -->
<g id="node9" class="node">
<title>Node9</title>
<g id="a_node9"><a xlink:title=" ">
<polygon fill="white" stroke="black" points="263.5,-76.5 263.5,-95.5 308.5,-95.5 308.5,-76.5 263.5,-76.5"/>
<text text-anchor="middle" x="286" y="-83.5" font-family="Helvetica,sans-Serif" font-size="10.00">size_t</text>
</a>
</g>
</g>
<!-- Node9&#45;&gt;Node6 -->
<g id="edge9" class="edge">
<title>Node9&#45;&gt;Node6</title>
<path fill="none" stroke="#9a32cd" stroke-dasharray="5,2" d="M318.82,-83.74C354.03,-81.81 412.34,-80.29 462,-87 481.5,-89.63 502.87,-95.38 519.37,-100.48"/>
<polygon fill="#9a32cd" stroke="#9a32cd" points="318.45,-80.26 308.68,-84.35 318.87,-87.25 318.45,-80.26"/>
<text text-anchor="middle" x="413.5" y="-101" font-family="Helvetica,sans-Serif" font-size="10.00"> long_option_size</text>
<text text-anchor="middle" x="413.5" y="-90" font-family="Helvetica,sans-Serif" font-size="10.00">short_option_size</text>
</g>
<!-- Node10 -->
<g id="node10" class="node">
<title>Node10</title>
<g id="a_node10"><a xlink:title=" ">
<polygon fill="white" stroke="black" points="489.5,-152.5 489.5,-171.5 607.5,-171.5 607.5,-152.5 489.5,-152.5"/>
<text text-anchor="middle" x="548.5" y="-159.5" font-family="Helvetica,sans-Serif" font-size="10.00">std::shared_ptr&lt; T &gt;</text>
</a>
</g>
</g>
<!-- Node10&#45;&gt;Node5 -->
<g id="edge10" class="edge">
<title>Node10&#45;&gt;Node5</title>
<path fill="none" stroke="orange" stroke-dasharray="5,2" d="M582,-148.7C597.72,-142.96 617.04,-136.91 635,-134 693.57,-124.52 761.54,-125.6 808.8,-128.24"/>
<polygon fill="orange" stroke="orange" points="580.36,-145.58 572.24,-152.39 582.83,-152.13 580.36,-145.58"/>
<text text-anchor="middle" x="701" y="-137" font-family="Helvetica,sans-Serif" font-size="10.00"> &lt; lyra::option_style &gt;</text>
</g>
<!-- Node10&#45;&gt;Node20 -->
<g id="edge31" class="edge">
<title>Node10&#45;&gt;Node20</title>
<path fill="none" stroke="orange" stroke-dasharray="5,2" d="M618.06,-156.12C672.57,-152.84 743.45,-152.15 767,-168 783.51,-179.11 770.11,-195.79 785,-209 792.28,-215.46 801.18,-220.25 810.41,-223.8"/>
<polygon fill="orange" stroke="orange" points="617.5,-152.65 607.74,-156.78 617.94,-159.63 617.5,-152.65"/>
<text text-anchor="middle" x="701" y="-171" font-family="Helvetica,sans-Serif" font-size="10.00"> &lt; std::string &gt;</text>
</g>
<!-- Node21 -->
<g id="node21" class="node">
<title>Node21</title>
<g id="a_node21"><a xlink:title=" ">
<polygon fill="white" stroke="black" points="785,-268 785,-298 952,-298 952,-268 785,-268"/>
<text text-anchor="start" x="793" y="-286" font-family="Helvetica,sans-Serif" font-size="10.00">std::shared_ptr&lt; lyra</text>
<text text-anchor="middle" x="868.5" y="-275" font-family="Helvetica,sans-Serif" font-size="10.00">::detail::BoundValueRefBase &gt;</text>
</a>
</g>
</g>
<!-- Node10&#45;&gt;Node21 -->
<g id="edge38" class="edge">
<title>Node10&#45;&gt;Node21</title>
<path fill="none" stroke="orange" stroke-dasharray="5,2" d="M580.41,-175.68C625.09,-195.19 710.52,-231.6 785,-258 794.73,-261.45 805.21,-264.86 815.33,-267.99"/>
<polygon fill="orange" stroke="orange" points="581.56,-172.36 570.99,-171.55 578.75,-178.77 581.56,-172.36"/>
<text text-anchor="start" x="635" y="-265" font-family="Helvetica,sans-Serif" font-size="10.00"> &lt; lyra::detail::BoundValue</text>
<text text-anchor="middle" x="701" y="-254" font-family="Helvetica,sans-Serif" font-size="10.00">RefBase &gt;</text>
</g>
<!-- Node11 -->
<g id="node11" class="node">
<title>Node11</title>
<g id="a_node11"><a xlink:title=" ">
<polygon fill="white" stroke="black" points="55.5,-38.5 55.5,-57.5 84.5,-57.5 84.5,-38.5 55.5,-38.5"/>
<text text-anchor="middle" x="70" y="-45.5" font-family="Helvetica,sans-Serif" font-size="10.00">T</text>
</a>
</g>
</g>
<!-- Node11&#45;&gt;Node10 -->
<g id="edge11" class="edge">
<title>Node11&#45;&gt;Node10</title>
<path fill="none" stroke="#9a32cd" stroke-dasharray="5,2" d="M94.44,-57.42C124.43,-69.31 178.12,-90 225,-105 286.4,-124.65 301.62,-131.18 365,-143 406.18,-150.68 453.21,-155.48 489.21,-158.34"/>
<polygon fill="#9a32cd" stroke="#9a32cd" points="95.45,-54.06 84.87,-53.61 92.86,-60.56 95.45,-54.06"/>
<text text-anchor="middle" x="286" y="-143" font-family="Helvetica,sans-Serif" font-size="10.00"> ptr</text>
</g>
<!-- Node14 -->
<g id="node14" class="node">
<title>Node14</title>
<g id="a_node14"><a xlink:title=" ">
<polygon fill="white" stroke="black" points="227,-38.5 227,-57.5 345,-57.5 345,-38.5 227,-38.5"/>
<text text-anchor="middle" x="286" y="-45.5" font-family="Helvetica,sans-Serif" font-size="10.00">std::unique_ptr&lt; T &gt;</text>
</a>
</g>
</g>
<!-- Node11&#45;&gt;Node14 -->
<g id="edge16" class="edge">
<title>Node11&#45;&gt;Node14</title>
<path fill="none" stroke="#9a32cd" stroke-dasharray="5,2" d="M94.77,-48C126.35,-48 183.22,-48 226.58,-48"/>
<polygon fill="#9a32cd" stroke="#9a32cd" points="94.71,-44.5 84.71,-48 94.71,-51.5 94.71,-44.5"/>
<text text-anchor="middle" x="182.5" y="-51" font-family="Helvetica,sans-Serif" font-size="10.00"> ptr</text>
</g>
<!-- Node15 -->
<g id="node15" class="node">
<title>Node15</title>
<g id="a_node15"><a xlink:title=" ">
<polygon fill="white" stroke="black" points="365,-0.5 365,-19.5 462,-19.5 462,-0.5 365,-0.5"/>
<text text-anchor="middle" x="413.5" y="-7.5" font-family="Helvetica,sans-Serif" font-size="10.00">std::vector&lt; T &gt;</text>
</a>
</g>
</g>
<!-- Node11&#45;&gt;Node15 -->
<g id="edge18" class="edge">
<title>Node11&#45;&gt;Node15</title>
<path fill="none" stroke="#9a32cd" stroke-dasharray="5,2" d="M94.39,-43.44C111.86,-40.16 136.35,-35.84 158,-33 229.92,-23.57 313.78,-16.8 365,-13.14"/>
<polygon fill="#9a32cd" stroke="#9a32cd" points="93.68,-40.01 84.51,-45.32 94.99,-46.89 93.68,-40.01"/>
<text text-anchor="middle" x="182.5" y="-36" font-family="Helvetica,sans-Serif" font-size="10.00"> elements</text>
</g>
<!-- Node12 -->
<g id="node12" class="node">
<title>Node12</title>
<g id="a_node12"><a xlink:title=" ">
<polygon fill="white" stroke="black" points="801.5,-50 801.5,-80 935.5,-80 935.5,-50 801.5,-50"/>
<text text-anchor="start" x="809.5" y="-68" font-family="Helvetica,sans-Serif" font-size="10.00">std::vector&lt; std::unique</text>
<text text-anchor="middle" x="868.5" y="-57" font-family="Helvetica,sans-Serif" font-size="10.00">_ptr&lt; lyra::parser &gt; &gt;</text>
</a>
</g>
</g>
<!-- Node12&#45;&gt;Node3 -->
<g id="edge12" class="edge">
<title>Node12&#45;&gt;Node3</title>
<path fill="none" stroke="#9a32cd" stroke-dasharray="5,2" d="M917.64,-84.14C951.7,-99.55 996.7,-123.93 1028,-156 1057.78,-186.52 1079.63,-233.43 1088.11,-253.43"/>
<polygon fill="#9a32cd" stroke="#9a32cd" points="918.9,-80.87 908.34,-80.03 916.07,-87.27 918.9,-80.87"/>
<text text-anchor="middle" x="999" y="-159" font-family="Helvetica,sans-Serif" font-size="10.00"> parsers</text>
</g>
<!-- Node13&#45;&gt;Node12 -->
<g id="edge13" class="edge">
<title>Node13&#45;&gt;Node12</title>
<path fill="none" stroke="#9a32cd" stroke-dasharray="5,2" d="M618.42,-65.78C672.72,-65.61 747.92,-65.38 801.46,-65.21"/>
<polygon fill="#9a32cd" stroke="#9a32cd" points="618.19,-62.28 608.2,-65.82 618.21,-69.28 618.19,-62.28"/>
<text text-anchor="middle" x="701" y="-69" font-family="Helvetica,sans-Serif" font-size="10.00"> elements</text>
</g>
<!-- Node14&#45;&gt;Node13 -->
<g id="edge15" class="edge">
<title>Node14&#45;&gt;Node13</title>
<path fill="none" stroke="orange" stroke-dasharray="5,2" d="M355.3,-48.02C387.69,-48.52 426.9,-49.84 462,-53 470.67,-53.78 479.81,-54.87 488.74,-56.1"/>
<polygon fill="orange" stroke="orange" points="355.09,-44.51 345.04,-47.88 354.99,-51.51 355.09,-44.51"/>
<text text-anchor="middle" x="413.5" y="-56" font-family="Helvetica,sans-Serif" font-size="10.00"> &lt; lyra::parser &gt;</text>
</g>
<!-- Node15&#45;&gt;Node12 -->
<g id="edge17" class="edge">
<title>Node15&#45;&gt;Node12</title>
<path fill="none" stroke="orange" stroke-dasharray="5,2" d="M472.35,-10.47C512.95,-11.31 568.43,-13.49 617,-19 680.05,-26.16 751.12,-39.74 801.42,-50.3"/>
<polygon fill="orange" stroke="orange" points="472.17,-6.96 462.11,-10.28 472.04,-13.96 472.17,-6.96"/>
<text text-anchor="start" x="500.5" y="-33" font-family="Helvetica,sans-Serif" font-size="10.00"> &lt; std::unique_ptr&lt;</text>
<text text-anchor="middle" x="548.5" y="-22" font-family="Helvetica,sans-Serif" font-size="10.00"> lyra::parser &gt; &gt;</text>
</g>
<!-- Node16 -->
<g id="node16" class="node">
<title>Node16</title>
<g id="a_node16"><a xlink:title=" ">
<polygon fill="white" stroke="black" points="834.5,-180.5 834.5,-199.5 902.5,-199.5 902.5,-180.5 834.5,-180.5"/>
<text text-anchor="middle" x="868.5" y="-187.5" font-family="Helvetica,sans-Serif" font-size="10.00">evaluation</text>
</a>
</g>
</g>
<!-- Node16&#45;&gt;Node3 -->
<g id="edge19" class="edge">
<title>Node16&#45;&gt;Node3</title>
<path fill="none" stroke="#9a32cd" stroke-dasharray="5,2" d="M912.55,-199.03C925.32,-201.95 939.29,-205.37 952,-209 986.33,-218.8 994.73,-222.06 1028,-235 1042.69,-240.72 1058.97,-247.85 1071.43,-253.48"/>
<polygon fill="#9a32cd" stroke="#9a32cd" points="913.14,-195.58 902.62,-196.81 911.61,-202.41 913.14,-195.58"/>
<text text-anchor="middle" x="999" y="-238" font-family="Helvetica,sans-Serif" font-size="10.00"> eval_mode</text>
</g>
<!-- Node17 -->
<g id="node17" class="node">
<title>Node17</title>
<g id="a_node17"><a xlink:href="classlyra_1_1exe__name.html" target="_top" xlink:title=" ">
<polygon fill="white" stroke="black" points="1047,-368.5 1047,-387.5 1139,-387.5 1139,-368.5 1047,-368.5"/>
<text text-anchor="middle" x="1093" y="-375.5" font-family="Helvetica,sans-Serif" font-size="10.00">lyra::exe_name</text>
</a>
</g>
</g>
<!-- Node17&#45;&gt;Node2 -->
<g id="edge21" class="edge">
<title>Node17&#45;&gt;Node2</title>
<path fill="none" stroke="#9a32cd" stroke-dasharray="5,2" d="M1116.93,-362.8C1153.09,-338.83 1222.37,-292.92 1252.68,-272.82"/>
<polygon fill="#9a32cd" stroke="#9a32cd" points="1114.9,-359.95 1108.49,-368.39 1118.76,-365.79 1114.9,-359.95"/>
<text text-anchor="middle" x="1191" y="-337" font-family="Helvetica,sans-Serif" font-size="10.00"> m_exeName</text>
</g>
<!-- Node18&#45;&gt;Node17 -->
<g id="edge22" class="edge">
<title>Node18&#45;&gt;Node17</title>
<path fill="none" stroke="midnightblue" d="M932.8,-396.22C961.85,-391.33 996.72,-386.2 1028,-381 1034.13,-379.98 1040.59,-378.85 1046.94,-377.78"/>
<polygon fill="midnightblue" stroke="midnightblue" points="932.04,-392.8 922.78,-397.94 933.23,-399.7 932.04,-392.8"/>
</g>
<!-- Node18&#45;&gt;Node17 -->
<g id="edge28" class="edge">
<title>Node18&#45;&gt;Node17</title>
<path fill="none" stroke="midnightblue" d="M947.17,-410.91C972.93,-407.69 1001.73,-403.37 1028,-399 1045.62,-396.07 1065.87,-392.19 1078.79,-387.53"/>
<polygon fill="midnightblue" stroke="midnightblue" points="946.59,-407.46 937.08,-412.13 947.43,-414.4 946.59,-407.46"/>
</g>
<!-- Node19&#45;&gt;Node18 -->
<g id="edge25" class="edge">
<title>Node19&#45;&gt;Node18</title>
<path fill="none" stroke="orange" stroke-dasharray="5,2" d="M627.33,-394.87C680.13,-398.86 749.25,-404.08 799.78,-407.89"/>
<polygon fill="orange" stroke="orange" points="627.56,-391.38 617.33,-394.12 627.04,-398.36 627.56,-391.38"/>
<text text-anchor="middle" x="701" y="-408" font-family="Helvetica,sans-Serif" font-size="10.00"> &lt; exe_name &gt;</text>
</g>
<!-- Node20&#45;&gt;Node17 -->
<g id="edge29" class="edge">
<title>Node20&#45;&gt;Node17</title>
<path fill="none" stroke="#9a32cd" stroke-dasharray="5,2" d="M936.5,-251.34C941.83,-253.37 947.06,-255.58 952,-258 1010.38,-286.55 1064.2,-345.28 1083.99,-368.37"/>
<polygon fill="#9a32cd" stroke="#9a32cd" points="937.42,-247.95 926.83,-247.9 935.07,-254.55 937.42,-247.95"/>
<text text-anchor="middle" x="999" y="-313" font-family="Helvetica,sans-Serif" font-size="10.00"> m_name</text>
</g>
<!-- Node21&#45;&gt;Node17 -->
<g id="edge32" class="edge">
<title>Node21&#45;&gt;Node17</title>
<path fill="none" stroke="#9a32cd" stroke-dasharray="5,2" d="M914.09,-302.04C961.05,-322.09 1033.14,-352.87 1069.45,-368.37"/>
<polygon fill="#9a32cd" stroke="#9a32cd" points="915.33,-298.76 904.76,-298.05 912.58,-305.2 915.33,-298.76"/>
<text text-anchor="middle" x="999" y="-352" font-family="Helvetica,sans-Serif" font-size="10.00"> m_ref</text>
</g>
<!-- Node22 -->
<g id="node22" class="node">
<title>Node22</title>
<g id="a_node22"><a xlink:href="structlyra_1_1detail_1_1_bound_value_ref_base.html" target="_top" xlink:title=" ">
<polygon fill="white" stroke="black" points="481.5,-268 481.5,-298 615.5,-298 615.5,-268 481.5,-268"/>
<text text-anchor="start" x="489.5" y="-286" font-family="Helvetica,sans-Serif" font-size="10.00">lyra::detail::BoundValue</text>
<text text-anchor="middle" x="548.5" y="-275" font-family="Helvetica,sans-Serif" font-size="10.00">RefBase</text>
</a>
</g>
</g>
<!-- Node22&#45;&gt;Node21 -->
<g id="edge33" class="edge">
<title>Node22&#45;&gt;Node21</title>
<path fill="none" stroke="#9a32cd" stroke-dasharray="5,2" d="M625.8,-283C673.8,-283 735.73,-283 784.89,-283"/>
<polygon fill="#9a32cd" stroke="#9a32cd" points="625.78,-279.5 615.78,-283 625.78,-286.5 625.78,-279.5"/>
<text text-anchor="middle" x="701" y="-286" font-family="Helvetica,sans-Serif" font-size="10.00"> ptr</text>
</g>
<!-- Node23 -->
<g id="node23" class="node">
<title>Node23</title>
<g id="a_node23"><a xlink:href="structlyra_1_1detail_1_1_bound_ref.html" target="_top" xlink:title=" ">
<polygon fill="white" stroke="black" points="225,-273.5 225,-292.5 347,-292.5 347,-273.5 225,-273.5"/>
<text text-anchor="middle" x="286" y="-280.5" font-family="Helvetica,sans-Serif" font-size="10.00">lyra::detail::BoundRef</text>
</a>
</g>
</g>
<!-- Node23&#45;&gt;Node22 -->
<g id="edge34" class="edge">
<title>Node23&#45;&gt;Node22</title>
<path fill="none" stroke="midnightblue" d="M357.21,-276.93C395.79,-275.99 443.38,-276.02 481.31,-277.04"/>
<polygon fill="midnightblue" stroke="midnightblue" points="356.99,-273.44 347.09,-277.21 357.18,-280.43 356.99,-273.44"/>
</g>
<!-- Node23&#45;&gt;Node22 -->
<g id="edge37" class="edge">
<title>Node23&#45;&gt;Node22</title>
<path fill="none" stroke="midnightblue" d="M357.21,-289.07C395.79,-290.01 443.38,-289.98 481.31,-288.96"/>
<polygon fill="midnightblue" stroke="midnightblue" points="357.18,-285.57 347.09,-288.79 356.99,-292.56 357.18,-285.57"/>
</g>
<!-- Node24 -->
<g id="node24" class="node">
<title>Node24</title>
<g id="a_node24"><a xlink:href="structlyra_1_1detail_1_1_non_copyable.html" target="_top" xlink:title=" ">
<polygon fill="white" stroke="black" points="0,-273.5 0,-292.5 140,-292.5 140,-273.5 0,-273.5"/>
<text text-anchor="middle" x="70" y="-280.5" font-family="Helvetica,sans-Serif" font-size="10.00">lyra::detail::NonCopyable</text>
</a>
</g>
</g>
<!-- Node24&#45;&gt;Node23 -->
<g id="edge35" class="edge">
<title>Node24&#45;&gt;Node23</title>
<path fill="none" stroke="midnightblue" d="M150.23,-276.46C174.85,-276.08 201.58,-276.22 224.7,-276.86"/>
<polygon fill="midnightblue" stroke="midnightblue" points="150.12,-272.96 140.18,-276.64 150.25,-279.96 150.12,-272.96"/>
</g>
<!-- Node24&#45;&gt;Node23 -->
<g id="edge36" class="edge">
<title>Node24&#45;&gt;Node23</title>
<path fill="none" stroke="midnightblue" d="M150.23,-289.54C174.85,-289.92 201.58,-289.78 224.7,-289.14"/>
<polygon fill="midnightblue" stroke="midnightblue" points="150.25,-286.04 140.18,-289.36 150.12,-293.04 150.25,-286.04"/>
</g>
<!-- Node25 -->
<g id="node25" class="node">
<title>Node25</title>
<g id="a_node25"><a xlink:title=" ">
<polygon fill="white" stroke="black" points="1249.5,-215.5 1249.5,-234.5 1287.5,-234.5 1287.5,-215.5 1249.5,-215.5"/>
<text text-anchor="middle" x="1268.5" y="-222.5" font-family="Helvetica,sans-Serif" font-size="10.00">bool</text>
</a>
</g>
</g>
<!-- Node25&#45;&gt;Node1 -->
<g id="edge40" class="edge">
<title>Node25&#45;&gt;Node1</title>
<path fill="none" stroke="#9a32cd" stroke-dasharray="5,2" d="M1297.63,-231.08C1317.4,-235.47 1344.41,-241.71 1368,-248 1374.31,-249.68 1381.02,-251.6 1387.41,-253.5"/>
<polygon fill="#9a32cd" stroke="#9a32cd" points="1298.26,-227.64 1287.74,-228.9 1296.75,-234.47 1298.26,-227.64"/>
<text text-anchor="middle" x="1340.5" y="-251" font-family="Helvetica,sans-Serif" font-size="10.00"> show_help</text>
</g>
</g>
</svg>
        <g id="navigator" transform="translate(0 0)" fill="#404254">
                <rect fill="#f2f5e9" fill-opacity="0.5" stroke="#606060" stroke-width=".5" x="0" y="0" width="60" height="60"/>
                <use id="zoomplus" xlink:href="#zoomPlus" x="17" y="9" onmousedown="handleZoom(evt,'in')"/>
                <use id="zoomminus" xlink:href="#zoomMin" x="42" y="9" onmousedown="handleZoom(evt,'out')"/>
                <use id="reset" xlink:href="#resetDef" x="30" y="36" onmousedown="handleReset()"/>
                <g id="arrowUp" xlink:href="#dirArrow" transform="translate(30 24)" onmousedown="handlePan(0,-1)">
                  <use xlink:href="#rim" fill="#404040">
                        <set attributeName="fill" to="#808080" begin="arrowUp.mouseover" end="arrowUp.mouseout"/>
                  </use>
                  <path fill="none" stroke="white" stroke-width="1.5" d="M0,-3.0v7 M-2.5,-0.5L0,-3.0L2.5,-0.5"/>
                </g>
                <g id="arrowRight" xlink:href="#dirArrow" transform="rotate(90) translate(36 -43)" onmousedown="handlePan(1,0)">
                  <use xlink:href="#rim" fill="#404040">
                        <set attributeName="fill" to="#808080" begin="arrowRight.mouseover" end="arrowRight.mouseout"/>
                  </use>
                  <path fill="none" stroke="white" stroke-width="1.5" d="M0,-3.0v7 M-2.5,-0.5L0,-3.0L2.5,-0.5"/>
                </g>
                <g id="arrowDown" xlink:href="#dirArrow" transform="rotate(180) translate(-30 -48)" onmousedown="handlePan(0,1)">
                  <use xlink:href="#rim" fill="#404040">
                        <set attributeName="fill" to="#808080" begin="arrowDown.mouseover" end="arrowDown.mouseout"/>
                  </use>
                  <path fill="none" stroke="white" stroke-width="1.5" d="M0,-3.0v7 M-2.5,-0.5L0,-3.0L2.5,-0.5"/>
                </g>
                <g id="arrowLeft" xlink:href="#dirArrow" transform="rotate(270) translate(-36 17)" onmousedown="handlePan(-1,0)">
                  <use xlink:href="#rim" fill="#404040">
                        <set attributeName="fill" to="#808080" begin="arrowLeft.mouseover" end="arrowLeft.mouseout"/>
                  </use>
                  <path fill="none" stroke="white" stroke-width="1.5" d="M0,-3.0v7 M-2.5,-0.5L0,-3.0L2.5,-0.5"/>
                </g>
        </g>
        <svg viewBox="0 0 15 15" width="100%" height="30px" preserveAspectRatio="xMaxYMin meet">
         <g id="arrow_out" transform="scale(0.3 0.3)">
          <a xlink:href="classlyra_1_1main__coll__graph_org.svg" target="_base">
           <rect id="button" ry="5" rx="5" y="6" x="6" height="38" width="38"
                fill="#f2f5e9" fill-opacity="0.5" stroke="#606060" stroke-width="1.0"/>
           <path id="arrow"
             d="M 11.500037,31.436501 C 11.940474,20.09759 22.043105,11.32322 32.158766,21.979434 L 37.068811,17.246167 C 37.068811,17.246167 37.088388,32 37.088388,32 L 22.160133,31.978069 C 22.160133,31.978069 26.997745,27.140456 26.997745,27.140456 C 18.528582,18.264221 13.291696,25.230495 11.500037,31.436501 z"
             style="fill:#404040;"/>
          </a>
         </g>
        </svg>
</svg>
