<?xml version="1.0" encoding="UTF-8" standalone="no"?>
<!DOCTYPE svg PUBLIC "-//W3C//DTD SVG 1.1//EN"
 "http://www.w3.org/Graphics/SVG/1.1/DTD/svg11.dtd">
<!-- Generated by graphviz version 2.43.0 (0)
 -->
<!-- Title: lyra::exe_name Pages: 1 -->
<svg width="1006pt" height="246pt"
 viewBox="0.00 0.00 1006.00 246.00" xmlns="http://www.w3.org/2000/svg" xmlns:xlink="http://www.w3.org/1999/xlink">
<g id="graph0" class="graph" transform="scale(1 1) rotate(0) translate(4 242)">
<title>lyra::exe_name</title>
<polygon fill="white" stroke="transparent" points="-4,4 -4,-242 1002,-242 1002,4 -4,4"/>
<!-- Node1 -->
<g id="node1" class="node">
<title>Node1</title>
<g id="a_node1"><a xlink:title=" ">
<polygon fill="#bfbfbf" stroke="black" points="906,-131 906,-150 998,-150 998,-131 906,-131"/>
<text text-anchor="middle" x="952" y="-138" font-family="Helvetica,sans-Serif" font-size="10.00">lyra::exe_name</text>
</a>
</g>
</g>
<!-- Node2 -->
<g id="node2" class="node">
<title>Node2</title>
<g id="a_node2"><a xlink:href="classlyra_1_1composable__parser.html" target="_top" xlink:title=" ">
<polygon fill="white" stroke="black" points="672,-154.5 672,-184.5 809,-184.5 809,-154.5 672,-154.5"/>
<text text-anchor="start" x="680" y="-172.5" font-family="Helvetica,sans-Serif" font-size="10.00">lyra::composable_parser</text>
<text text-anchor="middle" x="740.5" y="-161.5" font-family="Helvetica,sans-Serif" font-size="10.00">&lt; exe_name &gt;</text>
</a>
</g>
</g>
<!-- Node2&#45;&gt;Node1 -->
<g id="edge1" class="edge">
<title>Node2&#45;&gt;Node1</title>
<path fill="none" stroke="midnightblue" d="M815.01,-152.85C845.24,-148.12 879.28,-143.68 905.74,-141.09"/>
<polygon fill="midnightblue" stroke="midnightblue" points="814.25,-149.43 804.93,-154.46 815.35,-156.34 814.25,-149.43"/>
</g>
<!-- Node2&#45;&gt;Node1 -->
<g id="edge7" class="edge">
<title>Node2&#45;&gt;Node1</title>
<path fill="none" stroke="midnightblue" d="M819.27,-165.28C853.66,-161.05 892.2,-155.21 918.67,-150.01"/>
<polygon fill="midnightblue" stroke="midnightblue" points="818.74,-161.82 809.23,-166.49 819.57,-168.77 818.74,-161.82"/>
</g>
<!-- Node3 -->
<g id="node3" class="node">
<title>Node3</title>
<g id="a_node3"><a xlink:href="classlyra_1_1parser.html" target="_top" xlink:title=" ">
<polygon fill="white" stroke="black" points="202,-181 202,-200 274,-200 274,-181 202,-181"/>
<text text-anchor="middle" x="238" y="-188" font-family="Helvetica,sans-Serif" font-size="10.00">lyra::parser</text>
</a>
</g>
</g>
<!-- Node3&#45;&gt;Node2 -->
<g id="edge2" class="edge">
<title>Node3&#45;&gt;Node2</title>
<path fill="none" stroke="midnightblue" d="M284.43,-184.51C372.78,-177.5 568.19,-169.07 671.85,-167.55"/>
<polygon fill="midnightblue" stroke="midnightblue" points="283.87,-181.04 274.19,-185.36 284.45,-188.02 283.87,-181.04"/>
</g>
<!-- Node3&#45;&gt;Node2 -->
<g id="edge3" class="edge">
<title>Node3&#45;&gt;Node2</title>
<path fill="none" stroke="midnightblue" d="M284.43,-192.68C372.78,-192.27 568.19,-184.31 671.85,-177.13"/>
<polygon fill="midnightblue" stroke="midnightblue" points="284.19,-189.18 274.19,-192.69 284.2,-196.18 284.19,-189.18"/>
</g>
<!-- Node4 -->
<g id="node4" class="node">
<title>Node4</title>
<g id="a_node4"><a xlink:href="classlyra_1_1composable__parser.html" target="_top" xlink:title=" ">
<polygon fill="white" stroke="black" points="352,-207.5 352,-237.5 489,-237.5 489,-207.5 352,-207.5"/>
<text text-anchor="start" x="360" y="-225.5" font-family="Helvetica,sans-Serif" font-size="10.00">lyra::composable_parser</text>
<text text-anchor="middle" x="420.5" y="-214.5" font-family="Helvetica,sans-Serif" font-size="10.00">&lt; Derived &gt;</text>
</a>
</g>
</g>
<!-- Node3&#45;&gt;Node4 -->
<g id="edge5" class="edge">
<title>Node3&#45;&gt;Node4</title>
<path fill="none" stroke="midnightblue" d="M284.16,-192.57C310.07,-196.14 342.64,-201.86 369.33,-207.49"/>
<polygon fill="midnightblue" stroke="midnightblue" points="284.6,-189.1 274.23,-191.26 283.69,-196.04 284.6,-189.1"/>
</g>
<!-- Node3&#45;&gt;Node4 -->
<g id="edge6" class="edge">
<title>Node3&#45;&gt;Node4</title>
<path fill="none" stroke="midnightblue" d="M275.14,-202.43C297.1,-207.47 325.86,-212.91 351.91,-217.07"/>
<polygon fill="midnightblue" stroke="midnightblue" points="275.78,-198.99 265.25,-200.08 274.16,-205.8 275.78,-198.99"/>
</g>
<!-- Node4&#45;&gt;Node2 -->
<g id="edge4" class="edge">
<title>Node4&#45;&gt;Node2</title>
<path fill="none" stroke="orange" stroke-dasharray="5,2" d="M499.41,-213.44C540.98,-208.18 592.93,-200.93 639,-192.5 651.59,-190.2 664.99,-187.38 677.76,-184.53"/>
<polygon fill="orange" stroke="orange" points="498.83,-209.98 489.34,-214.7 499.7,-216.93 498.83,-209.98"/>
<text text-anchor="middle" x="573" y="-214.5" font-family="Helvetica,sans-Serif" font-size="10.00"> &lt; exe_name &gt;</text>
</g>
<!-- Node5 -->
<g id="node5" class="node">
<title>Node5</title>
<g id="a_node5"><a xlink:title=" ">
<polygon fill="white" stroke="black" points="682.5,-105.5 682.5,-135.5 798.5,-135.5 798.5,-105.5 682.5,-105.5"/>
<text text-anchor="start" x="690.5" y="-123.5" font-family="Helvetica,sans-Serif" font-size="10.00">std::shared_ptr&lt; std</text>
<text text-anchor="middle" x="740.5" y="-112.5" font-family="Helvetica,sans-Serif" font-size="10.00">::string &gt;</text>
</a>
</g>
</g>
<!-- Node5&#45;&gt;Node1 -->
<g id="edge8" class="edge">
<title>Node5&#45;&gt;Node1</title>
<path fill="none" stroke="#9a32cd" stroke-dasharray="5,2" d="M808.72,-124.6C833.65,-126.37 862.15,-128.69 888,-131.5 893.82,-132.13 899.93,-132.89 905.96,-133.69"/>
<polygon fill="#9a32cd" stroke="#9a32cd" points="808.85,-121.1 798.63,-123.9 808.36,-128.08 808.85,-121.1"/>
<text text-anchor="middle" x="865" y="-134.5" font-family="Helvetica,sans-Serif" font-size="10.00"> m_name</text>
</g>
<!-- Node6 -->
<g id="node6" class="node">
<title>Node6</title>
<g id="a_node6"><a xlink:title=" ">
<polygon fill="white" stroke="black" points="388,-113 388,-132 453,-132 453,-113 388,-113"/>
<text text-anchor="middle" x="420.5" y="-120" font-family="Helvetica,sans-Serif" font-size="10.00">std::string</text>
</a>
</g>
</g>
<!-- Node6&#45;&gt;Node5 -->
<g id="edge9" class="edge">
<title>Node6&#45;&gt;Node5</title>
<path fill="none" stroke="#9a32cd" stroke-dasharray="5,2" d="M463.44,-122.24C519.58,-121.88 619.37,-121.26 682.35,-120.86"/>
<polygon fill="#9a32cd" stroke="#9a32cd" points="463.13,-118.74 453.15,-122.3 463.18,-125.74 463.13,-118.74"/>
<text text-anchor="middle" x="573" y="-124.5" font-family="Helvetica,sans-Serif" font-size="10.00"> ptr</text>
</g>
<!-- Node7 -->
<g id="node7" class="node">
<title>Node7</title>
<g id="a_node7"><a xlink:title=" ">
<polygon fill="white" stroke="black" points="186,-107.5 186,-137.5 290,-137.5 290,-107.5 186,-107.5"/>
<text text-anchor="start" x="194" y="-125.5" font-family="Helvetica,sans-Serif" font-size="10.00">std::basic_string&lt;</text>
<text text-anchor="middle" x="238" y="-114.5" font-family="Helvetica,sans-Serif" font-size="10.00"> Char &gt;</text>
</a>
</g>
</g>
<!-- Node7&#45;&gt;Node6 -->
<g id="edge10" class="edge">
<title>Node7&#45;&gt;Node6</title>
<path fill="none" stroke="midnightblue" d="M300.44,-122.5C329.87,-122.5 363.88,-122.5 387.99,-122.5"/>
<polygon fill="midnightblue" stroke="midnightblue" points="300.24,-119 290.24,-122.5 300.24,-126 300.24,-119"/>
</g>
<!-- Node8 -->
<g id="node8" class="node">
<title>Node8</title>
<g id="a_node8"><a xlink:title=" ">
<polygon fill="white" stroke="black" points="361.5,-60 361.5,-79 479.5,-79 479.5,-60 361.5,-60"/>
<text text-anchor="middle" x="420.5" y="-67" font-family="Helvetica,sans-Serif" font-size="10.00">std::shared_ptr&lt; T &gt;</text>
</a>
</g>
</g>
<!-- Node8&#45;&gt;Node5 -->
<g id="edge11" class="edge">
<title>Node8&#45;&gt;Node5</title>
<path fill="none" stroke="orange" stroke-dasharray="5,2" d="M489.9,-80.47C547.3,-89.68 628.35,-102.67 682.35,-111.33"/>
<polygon fill="orange" stroke="orange" points="490.25,-76.98 479.83,-78.85 489.15,-83.89 490.25,-76.98"/>
<text text-anchor="middle" x="573" y="-106.5" font-family="Helvetica,sans-Serif" font-size="10.00"> &lt; std::string &gt;</text>
</g>
<!-- Node10 -->
<g id="node10" class="node">
<title>Node10</title>
<g id="a_node10"><a xlink:title=" ">
<polygon fill="white" stroke="black" points="657,-34.5 657,-64.5 824,-64.5 824,-34.5 657,-34.5"/>
<text text-anchor="start" x="665" y="-52.5" font-family="Helvetica,sans-Serif" font-size="10.00">std::shared_ptr&lt; lyra</text>
<text text-anchor="middle" x="740.5" y="-41.5" font-family="Helvetica,sans-Serif" font-size="10.00">::detail::BoundValueRefBase &gt;</text>
</a>
</g>
</g>
<!-- Node8&#45;&gt;Node10 -->
<g id="edge19" class="edge">
<title>Node8&#45;&gt;Node10</title>
<path fill="none" stroke="orange" stroke-dasharray="5,2" d="M466.64,-57.57C479.58,-54.67 493.76,-51.98 507,-50.5 556.54,-44.95 612.39,-44.53 656.94,-45.57"/>
<polygon fill="orange" stroke="orange" points="465.51,-54.24 456.57,-59.93 467.11,-61.06 465.51,-54.24"/>
<text text-anchor="start" x="507" y="-64.5" font-family="Helvetica,sans-Serif" font-size="10.00"> &lt; lyra::detail::BoundValue</text>
<text text-anchor="middle" x="573" y="-53.5" font-family="Helvetica,sans-Serif" font-size="10.00">RefBase &gt;</text>
</g>
<!-- Node9 -->
<g id="node9" class="node">
<title>Node9</title>
<g id="a_node9"><a xlink:title=" ">
<polygon fill="white" stroke="black" points="223.5,-60 223.5,-79 252.5,-79 252.5,-60 223.5,-60"/>
<text text-anchor="middle" x="238" y="-67" font-family="Helvetica,sans-Serif" font-size="10.00">T</text>
</a>
</g>
</g>
<!-- Node9&#45;&gt;Node8 -->
<g id="edge12" class="edge">
<title>Node9&#45;&gt;Node8</title>
<path fill="none" stroke="#9a32cd" stroke-dasharray="5,2" d="M262.57,-69.5C287.54,-69.5 327.92,-69.5 361.46,-69.5"/>
<polygon fill="#9a32cd" stroke="#9a32cd" points="262.57,-66 252.57,-69.5 262.57,-73 262.57,-66"/>
<text text-anchor="middle" x="325.5" y="-72.5" font-family="Helvetica,sans-Serif" font-size="10.00"> ptr</text>
</g>
<!-- Node10&#45;&gt;Node1 -->
<g id="edge13" class="edge">
<title>Node10&#45;&gt;Node1</title>
<path fill="none" stroke="#9a32cd" stroke-dasharray="5,2" d="M787.5,-68.54C816.45,-80.62 854.52,-96.71 888,-111.5 902.32,-117.82 918.34,-125.2 930.64,-130.94"/>
<polygon fill="#9a32cd" stroke="#9a32cd" points="788.64,-65.22 778.06,-64.6 785.94,-71.68 788.64,-65.22"/>
<text text-anchor="middle" x="865" y="-114.5" font-family="Helvetica,sans-Serif" font-size="10.00"> m_ref</text>
</g>
<!-- Node11 -->
<g id="node11" class="node">
<title>Node11</title>
<g id="a_node11"><a xlink:href="structlyra_1_1detail_1_1_bound_value_ref_base.html" target="_top" xlink:title=" ">
<polygon fill="white" stroke="black" points="353.5,-0.5 353.5,-30.5 487.5,-30.5 487.5,-0.5 353.5,-0.5"/>
<text text-anchor="start" x="361.5" y="-18.5" font-family="Helvetica,sans-Serif" font-size="10.00">lyra::detail::BoundValue</text>
<text text-anchor="middle" x="420.5" y="-7.5" font-family="Helvetica,sans-Serif" font-size="10.00">RefBase</text>
</a>
</g>
</g>
<!-- Node11&#45;&gt;Node10 -->
<g id="edge14" class="edge">
<title>Node11&#45;&gt;Node10</title>
<path fill="none" stroke="#9a32cd" stroke-dasharray="5,2" d="M497.96,-18.56C539.75,-20.79 592.35,-24.5 639,-30.5 647.63,-31.61 656.64,-32.99 665.56,-34.5"/>
<polygon fill="#9a32cd" stroke="#9a32cd" points="498.02,-15.06 487.85,-18.04 497.66,-22.05 498.02,-15.06"/>
<text text-anchor="middle" x="573" y="-33.5" font-family="Helvetica,sans-Serif" font-size="10.00"> ptr</text>
</g>
<!-- Node12 -->
<g id="node12" class="node">
<title>Node12</title>
<g id="a_node12"><a xlink:href="structlyra_1_1detail_1_1_bound_ref.html" target="_top" xlink:title=" ">
<polygon fill="white" stroke="black" points="177,-6 177,-25 299,-25 299,-6 177,-6"/>
<text text-anchor="middle" x="238" y="-13" font-family="Helvetica,sans-Serif" font-size="10.00">lyra::detail::BoundRef</text>
</a>
</g>
</g>
<!-- Node12&#45;&gt;Node11 -->
<g id="edge15" class="edge">
<title>Node12&#45;&gt;Node11</title>
<path fill="none" stroke="midnightblue" d="M309.49,-8.9C323.96,-8.68 339.14,-8.7 353.45,-8.97"/>
<polygon fill="midnightblue" stroke="midnightblue" points="309.03,-5.4 299.1,-9.1 309.17,-12.4 309.03,-5.4"/>
</g>
<!-- Node12&#45;&gt;Node11 -->
<g id="edge18" class="edge">
<title>Node12&#45;&gt;Node11</title>
<path fill="none" stroke="midnightblue" d="M309.49,-22.1C323.96,-22.32 339.14,-22.3 353.45,-22.03"/>
<polygon fill="midnightblue" stroke="midnightblue" points="309.17,-18.6 299.1,-21.9 309.03,-25.6 309.17,-18.6"/>
</g>
<!-- Node13 -->
<g id="node13" class="node">
<title>Node13</title>
<g id="a_node13"><a xlink:href="structlyra_1_1detail_1_1_non_copyable.html" target="_top" xlink:title=" ">
<polygon fill="white" stroke="black" points="0,-6 0,-25 140,-25 140,-6 0,-6"/>
<text text-anchor="middle" x="70" y="-13" font-family="Helvetica,sans-Serif" font-size="10.00">lyra::detail::NonCopyable</text>
</a>
</g>
</g>
<!-- Node13&#45;&gt;Node12 -->
<g id="edge16" class="edge">
<title>Node13&#45;&gt;Node12</title>
<path fill="none" stroke="midnightblue" d="M150.7,-8.75C159.49,-8.73 168.32,-8.81 176.81,-8.98"/>
<polygon fill="midnightblue" stroke="midnightblue" points="150.41,-5.26 140.44,-8.83 150.46,-12.26 150.41,-5.26"/>
</g>
<!-- Node13&#45;&gt;Node12 -->
<g id="edge17" class="edge">
<title>Node13&#45;&gt;Node12</title>
<path fill="none" stroke="midnightblue" d="M150.7,-22.25C159.49,-22.27 168.32,-22.19 176.81,-22.02"/>
<polygon fill="midnightblue" stroke="midnightblue" points="150.46,-18.74 140.44,-22.17 150.41,-25.74 150.46,-18.74"/>
</g>
</g>
</svg>
