<?xml version="1.0" encoding="UTF-8" standalone="no"?>
<!DOCTYPE svg PUBLIC "-//W3C//DTD SVG 1.1//EN"
 "http://www.w3.org/Graphics/SVG/1.1/DTD/svg11.dtd">
<!-- Generated by graphviz version 2.43.0 (0)
 -->
<!-- Title: lyra::cli::get_usage_text Pages: 1 -->
<svg width="331pt" height="122pt"
 viewBox="0.00 0.00 331.00 122.00" xmlns="http://www.w3.org/2000/svg" xmlns:xlink="http://www.w3.org/1999/xlink">
<g id="graph0" class="graph" transform="scale(1 1) rotate(0) translate(4 118)">
<title>lyra::cli::get_usage_text</title>
<polygon fill="white" stroke="transparent" points="-4,4 -4,-118 327,-118 327,4 -4,4"/>
<!-- Node1 -->
<g id="node1" class="node">
<title>Node1</title>
<g id="a_node1"><a xlink:title=" ">
<polygon fill="#bfbfbf" stroke="black" points="0,-56.5 0,-75.5 134,-75.5 134,-56.5 0,-56.5"/>
<text text-anchor="middle" x="67" y="-63.5" font-family="Helvetica,sans-Serif" font-size="10.00">lyra::cli::get_usage_text</text>
</a>
</g>
</g>
<!-- Node2 -->
<g id="node2" class="node">
<title>Node2</title>
<g id="a_node2"><a xlink:href="classlyra_1_1parser.html#a59a2a42cea85955a811279a463777b9d" target="_top" xlink:title=" ">
<polygon fill="white" stroke="black" points="170,-94.5 170,-113.5 323,-113.5 323,-94.5 170,-94.5"/>
<text text-anchor="middle" x="246.5" y="-101.5" font-family="Helvetica,sans-Serif" font-size="10.00">lyra::parser::get_usage_text</text>
</a>
</g>
</g>
<!-- Node1&#45;&gt;Node2 -->
<g id="edge1" class="edge">
<title>Node1&#45;&gt;Node2</title>
<path fill="none" stroke="midnightblue" d="M112.79,-75.59C136.53,-80.67 165.88,-86.96 190.94,-92.32"/>
<polygon fill="midnightblue" stroke="midnightblue" points="190.52,-95.81 201.03,-94.48 191.99,-88.96 190.52,-95.81"/>
</g>
<!-- Node3 -->
<g id="node3" class="node">
<title>Node3</title>
<g id="a_node3"><a xlink:href="classlyra_1_1exe__name.html#ae137c67b004c37041832ac12ee4663bf" target="_top" xlink:title=" ">
<polygon fill="white" stroke="black" points="183.5,-56.5 183.5,-75.5 309.5,-75.5 309.5,-56.5 183.5,-56.5"/>
<text text-anchor="middle" x="246.5" y="-63.5" font-family="Helvetica,sans-Serif" font-size="10.00">lyra::exe_name::name</text>
</a>
</g>
</g>
<!-- Node1&#45;&gt;Node3 -->
<g id="edge2" class="edge">
<title>Node1&#45;&gt;Node3</title>
<path fill="none" stroke="midnightblue" d="M134.09,-66C146.85,-66 160.27,-66 173.21,-66"/>
<polygon fill="midnightblue" stroke="midnightblue" points="173.47,-69.5 183.47,-66 173.47,-62.5 173.47,-69.5"/>
</g>
<!-- Node4 -->
<g id="node4" class="node">
<title>Node4</title>
<g id="a_node4"><a xlink:href="classlyra_1_1cli.html#a646a38771c685b00e17f116d6b2e926d" target="_top" xlink:title=" ">
<polygon fill="white" stroke="black" points="205,-0.5 205,-19.5 288,-19.5 288,-0.5 205,-0.5"/>
<text text-anchor="middle" x="246.5" y="-7.5" font-family="Helvetica,sans-Serif" font-size="10.00">lyra::cli::style</text>
</a>
</g>
</g>
<!-- Node1&#45;&gt;Node4 -->
<g id="edge3" class="edge">
<title>Node1&#45;&gt;Node4</title>
<path fill="none" stroke="midnightblue" d="M98.51,-56.37C128.16,-47.02 173.32,-32.77 205.76,-22.54"/>
<polygon fill="midnightblue" stroke="midnightblue" points="206.9,-25.85 215.38,-19.5 204.8,-19.17 206.9,-25.85"/>
</g>
<!-- Node4&#45;&gt;Node4 -->
<g id="edge4" class="edge">
<title>Node4&#45;&gt;Node4</title>
<path fill="none" stroke="midnightblue" d="M219.07,-19.76C205.72,-28.57 214.86,-38 246.5,-38 268.25,-38 279.37,-33.54 279.86,-27.89"/>
<polygon fill="midnightblue" stroke="midnightblue" points="282.65,-25.78 273.93,-19.76 276.99,-29.9 282.65,-25.78"/>
</g>
</g>
</svg>
