<?xml version="1.0" encoding="UTF-8" standalone="no"?>
<!DOCTYPE svg PUBLIC "-//W3C//DTD SVG 1.1//EN"
 "http://www.w3.org/Graphics/SVG/1.1/DTD/svg11.dtd">
<!-- Generated by graphviz version 2.43.0 (0)
 -->
<!-- Title: MainNamespace::Surface::MultiSurface::mesh Pages: 1 -->
<svg width="921pt" height="247pt"
 viewBox="0.00 0.00 921.00 246.58" xmlns="http://www.w3.org/2000/svg" xmlns:xlink="http://www.w3.org/1999/xlink">
<g id="graph0" class="graph" transform="scale(1 1) rotate(0) translate(4 242.58)">
<title>MainNamespace::Surface::MultiSurface::mesh</title>
<polygon fill="white" stroke="transparent" points="-4,4 -4,-242.58 917,-242.58 917,4 -4,4"/>
<!-- Node1 -->
<g id="node1" class="node">
<title>Node1</title>
<g id="a_node1"><a xlink:title=" ">
<polygon fill="#bfbfbf" stroke="black" points="772,-95.08 772,-125.08 913,-125.08 913,-95.08 772,-95.08"/>
<text text-anchor="start" x="780" y="-113.08" font-family="Helvetica,sans-Serif" font-size="10.00">MainNamespace::Surface</text>
<text text-anchor="middle" x="842.5" y="-102.08" font-family="Helvetica,sans-Serif" font-size="10.00">::MultiSurface::mesh</text>
</a>
</g>
</g>
<!-- Node2 -->
<g id="node2" class="node">
<title>Node2</title>
<g id="a_node2"><a xlink:href="class_main_namespace_1_1_surface_1_1_multi_surface.html#a3f8d56c9aa2c53fdbb578f534bd523e5" target="_top" xlink:title="Contructor. Parse a mesh file in gmsh format and build the global mesh.">
<polygon fill="white" stroke="black" points="366,-208.08 366,-238.08 518,-238.08 518,-208.08 366,-208.08"/>
<text text-anchor="start" x="374" y="-226.08" font-family="Helvetica,sans-Serif" font-size="10.00">MainNamespace::Surface</text>
<text text-anchor="middle" x="442" y="-215.08" font-family="Helvetica,sans-Serif" font-size="10.00">::MultiSurface::MultiSurface</text>
</a>
</g>
</g>
<!-- Node1&#45;&gt;Node2 -->
<g id="edge1" class="edge">
<title>Node1&#45;&gt;Node2</title>
<path fill="none" stroke="midnightblue" d="M804.99,-129.94C785.07,-140.13 759.69,-152.04 736,-160.08 663.7,-184.62 578.01,-201.73 518.04,-211.86"/>
<polygon fill="midnightblue" stroke="midnightblue" points="806.76,-132.97 814.02,-125.26 803.53,-126.76 806.76,-132.97"/>
</g>
<!-- Node3 -->
<g id="node3" class="node">
<title>Node3</title>
<g id="a_node3"><a xlink:href="class_main_namespace_1_1_surface_1_1_multi_surface.html#a3fe9cd8e64de26e65e494aed35267b98" target="_top" xlink:title="Getter.">
<polygon fill="white" stroke="black" points="557,-71.08 557,-101.08 733,-101.08 733,-71.08 557,-71.08"/>
<text text-anchor="start" x="565" y="-89.08" font-family="Helvetica,sans-Serif" font-size="10.00">MainNamespace::Surface</text>
<text text-anchor="middle" x="645" y="-78.08" font-family="Helvetica,sans-Serif" font-size="10.00">::MultiSurface::dirichletBasisSize</text>
</a>
</g>
</g>
<!-- Node1&#45;&gt;Node3 -->
<g id="edge2" class="edge">
<title>Node1&#45;&gt;Node3</title>
<path fill="none" stroke="midnightblue" d="M761.66,-100.28C752.27,-99.13 742.65,-97.94 733.16,-96.78"/>
<polygon fill="midnightblue" stroke="midnightblue" points="761.4,-103.77 771.75,-101.52 762.25,-96.82 761.4,-103.77"/>
</g>
<!-- Node10 -->
<g id="node10" class="node">
<title>Node10</title>
<g id="a_node10"><a xlink:href="class_main_namespace_1_1_surface_1_1_multi_surface.html#ab64975d85c8c58576590072b66fd7c9f" target="_top" xlink:title=" ">
<polygon fill="white" stroke="black" points="574.5,-120.08 574.5,-150.08 715.5,-150.08 715.5,-120.08 574.5,-120.08"/>
<text text-anchor="start" x="582.5" y="-138.08" font-family="Helvetica,sans-Serif" font-size="10.00">MainNamespace::Surface</text>
<text text-anchor="middle" x="645" y="-127.08" font-family="Helvetica,sans-Serif" font-size="10.00">::MultiSurface::geometry</text>
</a>
</g>
</g>
<!-- Node1&#45;&gt;Node10 -->
<g id="edge10" class="edge">
<title>Node1&#45;&gt;Node10</title>
<path fill="none" stroke="midnightblue" d="M761.81,-120.27C746.54,-122.22 730.66,-124.25 715.73,-126.16"/>
<polygon fill="midnightblue" stroke="midnightblue" points="762.27,-123.74 771.75,-119 761.38,-116.8 762.27,-123.74"/>
</g>
<!-- Node14 -->
<g id="node14" class="node">
<title>Node14</title>
<g id="a_node14"><a xlink:href="class_main_namespace_1_1_surface_1_1_multi_surface.html#a6a0c7507ab9799d47082175225850d0c" target="_top" xlink:title="Getter.">
<polygon fill="white" stroke="black" points="554,-22.08 554,-52.08 736,-52.08 736,-22.08 554,-22.08"/>
<text text-anchor="start" x="562" y="-40.08" font-family="Helvetica,sans-Serif" font-size="10.00">MainNamespace::Surface</text>
<text text-anchor="middle" x="645" y="-29.08" font-family="Helvetica,sans-Serif" font-size="10.00">::MultiSurface::neumannBasisSize</text>
</a>
</g>
</g>
<!-- Node1&#45;&gt;Node14 -->
<g id="edge22" class="edge">
<title>Node1&#45;&gt;Node14</title>
<path fill="none" stroke="midnightblue" d="M803.52,-90.48C783.74,-80.78 758.95,-69.4 736,-61.08 727.18,-57.88 717.74,-54.9 708.41,-52.21"/>
<polygon fill="midnightblue" stroke="midnightblue" points="802.01,-93.64 812.52,-94.95 805.12,-87.37 802.01,-93.64"/>
</g>
<!-- Node4 -->
<g id="node4" class="node">
<title>Node4</title>
<g id="a_node4"><a xlink:href="class_main_namespace_1_1_surface_1_1_multi_surface.html#ad9b40eaff715d73afae2ea12513471ca" target="_top" xlink:title="Get the dimension of the space of Cauchy space (i.e., Dirichlet and Neumann together).">
<polygon fill="white" stroke="black" points="366.5,-22.08 366.5,-52.08 517.5,-52.08 517.5,-22.08 366.5,-22.08"/>
<text text-anchor="start" x="374.5" y="-40.08" font-family="Helvetica,sans-Serif" font-size="10.00">MainNamespace::Surface</text>
<text text-anchor="middle" x="442" y="-29.08" font-family="Helvetica,sans-Serif" font-size="10.00">::MultiSurface::problemSize</text>
</a>
</g>
</g>
<!-- Node3&#45;&gt;Node4 -->
<g id="edge3" class="edge">
<title>Node3&#45;&gt;Node4</title>
<path fill="none" stroke="midnightblue" d="M572.61,-68.68C550.37,-63.26 526.06,-57.33 504.56,-52.09"/>
<polygon fill="midnightblue" stroke="midnightblue" points="571.78,-72.08 582.33,-71.05 573.44,-65.28 571.78,-72.08"/>
</g>
<!-- Node5 -->
<g id="node5" class="node">
<title>Node5</title>
<g id="a_node5"><a xlink:href="class_main_namespace_1_1_surface_1_1_multi_surface.html#a18e9ad0a8db9f1d27b1e13b3f9bd243b" target="_top" xlink:title=" ">
<polygon fill="white" stroke="black" points="189,-115.08 189,-145.08 330,-145.08 330,-115.08 189,-115.08"/>
<text text-anchor="start" x="197" y="-133.08" font-family="Helvetica,sans-Serif" font-size="10.00">MainNamespace::Surface</text>
<text text-anchor="middle" x="259.5" y="-122.08" font-family="Helvetica,sans-Serif" font-size="10.00">::MultiSurface::fillZeros</text>
</a>
</g>
</g>
<!-- Node4&#45;&gt;Node5 -->
<g id="edge4" class="edge">
<title>Node4&#45;&gt;Node5</title>
<path fill="none" stroke="midnightblue" d="M373.02,-56.72C370.6,-58.08 368.25,-59.53 366,-61.08 344.9,-75.6 350.93,-91.32 330,-106.08 325.2,-109.46 319.88,-112.41 314.39,-114.96"/>
<polygon fill="midnightblue" stroke="midnightblue" points="374.71,-59.79 382.08,-52.18 371.57,-53.53 374.71,-59.79"/>
</g>
<!-- Node6 -->
<g id="node6" class="node">
<title>Node6</title>
<g id="a_node6"><a xlink:href="class_main_namespace_1_1_surface_1_1_multi_surface.html#ae3eff63ac7eb44665df48568f0b8c12d" target="_top" xlink:title=" ">
<polygon fill="white" stroke="black" points="189,-66.08 189,-96.08 330,-96.08 330,-66.08 189,-66.08"/>
<text text-anchor="start" x="197" y="-84.08" font-family="Helvetica,sans-Serif" font-size="10.00">MainNamespace::Surface</text>
<text text-anchor="middle" x="259.5" y="-73.08" font-family="Helvetica,sans-Serif" font-size="10.00">::MultiSurface::filterBasis</text>
</a>
</g>
</g>
<!-- Node4&#45;&gt;Node6 -->
<g id="edge5" class="edge">
<title>Node4&#45;&gt;Node6</title>
<path fill="none" stroke="midnightblue" d="M369.27,-54.57C353.67,-58.37 337.31,-62.36 322.14,-66.05"/>
<polygon fill="midnightblue" stroke="midnightblue" points="370.5,-57.87 379.39,-52.1 368.84,-51.07 370.5,-57.87"/>
</g>
<!-- Node7 -->
<g id="node7" class="node">
<title>Node7</title>
<g id="a_node7"><a xlink:href="class_main_namespace_1_1_surface_1_1_multi_surface.html#a8839f7e49575079e39fbb95a692772a5" target="_top" xlink:title="Compute the right&#45;hand side, the operators, then solve the linear system.">
<polygon fill="white" stroke="black" points="189,-17.08 189,-47.08 330,-47.08 330,-17.08 189,-17.08"/>
<text text-anchor="start" x="197" y="-35.08" font-family="Helvetica,sans-Serif" font-size="10.00">MainNamespace::Surface</text>
<text text-anchor="middle" x="259.5" y="-24.08" font-family="Helvetica,sans-Serif" font-size="10.00">::MultiSurface::solve</text>
</a>
</g>
</g>
<!-- Node4&#45;&gt;Node7 -->
<g id="edge6" class="edge">
<title>Node4&#45;&gt;Node7</title>
<path fill="none" stroke="midnightblue" d="M356.15,-34.73C347.47,-34.49 338.73,-34.25 330.24,-34.01"/>
<polygon fill="midnightblue" stroke="midnightblue" points="356.19,-38.23 366.28,-35.01 356.38,-31.23 356.19,-38.23"/>
</g>
<!-- Node8 -->
<g id="node8" class="node">
<title>Node8</title>
<g id="a_node8"><a xlink:href="main_8cpp.html#a5d68713f22d1b3e2495b15d107ea7d21" target="_top" xlink:title=" ">
<polygon fill="white" stroke="black" points="77,-22.58 77,-41.58 153,-41.58 153,-22.58 77,-22.58"/>
<text text-anchor="middle" x="115" y="-29.58" font-family="Helvetica,sans-Serif" font-size="10.00">testProblem</text>
</a>
</g>
</g>
<!-- Node4&#45;&gt;Node8 -->
<g id="edge9" class="edge">
<title>Node4&#45;&gt;Node8</title>
<path fill="none" stroke="midnightblue" d="M386.54,-19.29C368.72,-14.3 348.7,-9.56 330,-7.08 267.88,1.17 250.82,3.21 189,-7.08 171.29,-10.03 152.12,-16.74 137.87,-22.47"/>
<polygon fill="midnightblue" stroke="midnightblue" points="385.61,-22.66 396.19,-22.07 387.55,-15.94 385.61,-22.66"/>
</g>
<!-- Node7&#45;&gt;Node8 -->
<g id="edge7" class="edge">
<title>Node7&#45;&gt;Node8</title>
<path fill="none" stroke="midnightblue" d="M178.85,-32.08C169.97,-32.08 161.27,-32.08 153.31,-32.08"/>
<polygon fill="midnightblue" stroke="midnightblue" points="178.92,-35.58 188.92,-32.08 178.92,-28.58 178.92,-35.58"/>
</g>
<!-- Node9 -->
<g id="node9" class="node">
<title>Node9</title>
<g id="a_node9"><a xlink:href="main_8cpp.html#a3c04138a5bfe5d72780bb7e82a18e627" target="_top" xlink:title=" ">
<polygon fill="white" stroke="black" points="0,-22.58 0,-41.58 41,-41.58 41,-22.58 0,-22.58"/>
<text text-anchor="middle" x="20.5" y="-29.58" font-family="Helvetica,sans-Serif" font-size="10.00">main</text>
</a>
</g>
</g>
<!-- Node8&#45;&gt;Node9 -->
<g id="edge8" class="edge">
<title>Node8&#45;&gt;Node9</title>
<path fill="none" stroke="midnightblue" d="M66.72,-32.08C57.65,-32.08 48.64,-32.08 41.07,-32.08"/>
<polygon fill="midnightblue" stroke="midnightblue" points="66.91,-35.58 76.91,-32.08 66.91,-28.58 66.91,-35.58"/>
</g>
<!-- Node10&#45;&gt;Node2 -->
<g id="edge11" class="edge">
<title>Node10&#45;&gt;Node2</title>
<path fill="none" stroke="midnightblue" d="M603,-154.59C578.47,-166.11 546.61,-180.78 518,-193.08 506.28,-198.12 493.41,-203.37 481.7,-208.04"/>
<polygon fill="midnightblue" stroke="midnightblue" points="604.8,-157.62 612.35,-150.19 601.81,-151.28 604.8,-157.62"/>
</g>
<!-- Node11 -->
<g id="node11" class="node">
<title>Node11</title>
<g id="a_node11"><a xlink:href="class_main_namespace_1_1_surface_1_1_multi_surface.html#a0e9e2ea8cfd79249b03f920f1aca732c" target="_top" xlink:title="Print surface properties.">
<polygon fill="white" stroke="black" points="189,-164.08 189,-194.08 330,-194.08 330,-164.08 189,-164.08"/>
<text text-anchor="start" x="197" y="-182.08" font-family="Helvetica,sans-Serif" font-size="10.00">MainNamespace::Surface</text>
<text text-anchor="middle" x="259.5" y="-171.08" font-family="Helvetica,sans-Serif" font-size="10.00">::MultiSurface::properties</text>
</a>
</g>
</g>
<!-- Node10&#45;&gt;Node11 -->
<g id="edge12" class="edge">
<title>Node10&#45;&gt;Node11</title>
<path fill="none" stroke="midnightblue" d="M566.43,-152.02C550.47,-155.06 533.74,-157.95 518,-160.08 454.7,-168.66 382.09,-173.58 330.14,-176.25"/>
<polygon fill="midnightblue" stroke="midnightblue" points="567.1,-155.45 576.25,-150.1 565.76,-148.58 567.1,-155.45"/>
</g>
<!-- Node12 -->
<g id="node12" class="node">
<title>Node12</title>
<g id="a_node12"><a xlink:href="class_main_namespace_1_1_surface_1_1_multi_surface.html#a4057eaa562637a1f3a39b693718d7bb3" target="_top" xlink:title="Getter.">
<polygon fill="white" stroke="black" points="371.5,-120.08 371.5,-150.08 512.5,-150.08 512.5,-120.08 371.5,-120.08"/>
<text text-anchor="start" x="379.5" y="-138.08" font-family="Helvetica,sans-Serif" font-size="10.00">MainNamespace::Surface</text>
<text text-anchor="middle" x="442" y="-127.08" font-family="Helvetica,sans-Serif" font-size="10.00">::MultiSurface::triangles</text>
</a>
</g>
</g>
<!-- Node10&#45;&gt;Node12 -->
<g id="edge14" class="edge">
<title>Node10&#45;&gt;Node12</title>
<path fill="none" stroke="midnightblue" d="M563.83,-135.08C546.89,-135.08 529.13,-135.08 512.61,-135.08"/>
<polygon fill="midnightblue" stroke="midnightblue" points="564.26,-138.58 574.26,-135.08 564.26,-131.58 564.26,-138.58"/>
</g>
<!-- Node13 -->
<g id="node13" class="node">
<title>Node13</title>
<g id="a_node13"><a xlink:href="class_main_namespace_1_1_surface_1_1_multi_surface.html#ad03ff836a2ae7f060ef1aeaa3f2afb64" target="_top" xlink:title="Getter.">
<polygon fill="white" stroke="black" points="371.5,-71.08 371.5,-101.08 512.5,-101.08 512.5,-71.08 371.5,-71.08"/>
<text text-anchor="start" x="379.5" y="-89.08" font-family="Helvetica,sans-Serif" font-size="10.00">MainNamespace::Surface</text>
<text text-anchor="middle" x="442" y="-78.08" font-family="Helvetica,sans-Serif" font-size="10.00">::MultiSurface::vertices</text>
</a>
</g>
</g>
<!-- Node10&#45;&gt;Node13 -->
<g id="edge18" class="edge">
<title>Node10&#45;&gt;Node13</title>
<path fill="none" stroke="midnightblue" d="M572.61,-117.68C550.37,-112.26 526.06,-106.33 504.56,-101.09"/>
<polygon fill="midnightblue" stroke="midnightblue" points="571.78,-121.08 582.33,-120.05 573.44,-114.28 571.78,-121.08"/>
</g>
<!-- Node11&#45;&gt;Node8 -->
<g id="edge13" class="edge">
<title>Node11&#45;&gt;Node8</title>
<path fill="none" stroke="midnightblue" d="M193.87,-158.7C192.19,-157.55 190.56,-156.35 189,-155.08 149.93,-123.23 126.92,-64.55 119.07,-41.62"/>
<polygon fill="midnightblue" stroke="midnightblue" points="192.32,-161.84 202.71,-163.91 195.87,-155.81 192.32,-161.84"/>
</g>
<!-- Node12&#45;&gt;Node5 -->
<g id="edge15" class="edge">
<title>Node12&#45;&gt;Node5</title>
<path fill="none" stroke="midnightblue" d="M361.24,-132.87C350.93,-132.58 340.43,-132.29 330.29,-132.01"/>
<polygon fill="midnightblue" stroke="midnightblue" points="361.38,-136.38 371.47,-133.15 361.57,-129.38 361.38,-136.38"/>
</g>
<!-- Node12&#45;&gt;Node6 -->
<g id="edge16" class="edge">
<title>Node12&#45;&gt;Node6</title>
<path fill="none" stroke="midnightblue" d="M380.85,-117.08C358.13,-110.29 332.54,-102.63 310.82,-96.13"/>
<polygon fill="midnightblue" stroke="midnightblue" points="380.14,-120.52 390.72,-120.04 382.14,-113.82 380.14,-120.52"/>
</g>
<!-- Node12&#45;&gt;Node11 -->
<g id="edge17" class="edge">
<title>Node12&#45;&gt;Node11</title>
<path fill="none" stroke="midnightblue" d="M369.27,-152.57C353.67,-156.37 337.31,-160.36 322.14,-164.05"/>
<polygon fill="midnightblue" stroke="midnightblue" points="370.5,-155.87 379.39,-150.1 368.84,-149.07 370.5,-155.87"/>
</g>
<!-- Node13&#45;&gt;Node5 -->
<g id="edge19" class="edge">
<title>Node13&#45;&gt;Node5</title>
<path fill="none" stroke="midnightblue" d="M369.27,-103.57C353.67,-107.37 337.31,-111.36 322.14,-115.05"/>
<polygon fill="midnightblue" stroke="midnightblue" points="370.5,-106.87 379.39,-101.1 368.84,-100.07 370.5,-106.87"/>
</g>
<!-- Node13&#45;&gt;Node6 -->
<g id="edge20" class="edge">
<title>Node13&#45;&gt;Node6</title>
<path fill="none" stroke="midnightblue" d="M361.24,-83.87C350.93,-83.58 340.43,-83.29 330.29,-83.01"/>
<polygon fill="midnightblue" stroke="midnightblue" points="361.38,-87.38 371.47,-84.15 361.57,-80.38 361.38,-87.38"/>
</g>
<!-- Node13&#45;&gt;Node11 -->
<g id="edge21" class="edge">
<title>Node13&#45;&gt;Node11</title>
<path fill="none" stroke="midnightblue" d="M375.01,-105.6C371.88,-107.29 368.86,-109.11 366,-111.08 345.2,-125.42 350.73,-140.63 330,-155.08 325.08,-158.51 319.62,-161.49 313.99,-164.07"/>
<polygon fill="midnightblue" stroke="midnightblue" points="376.59,-108.72 384.05,-101.2 373.53,-102.43 376.59,-108.72"/>
</g>
<!-- Node14&#45;&gt;Node4 -->
<g id="edge23" class="edge">
<title>Node14&#45;&gt;Node4</title>
<path fill="none" stroke="midnightblue" d="M543.54,-37.08C534.8,-37.08 526.06,-37.08 517.58,-37.08"/>
<polygon fill="midnightblue" stroke="midnightblue" points="543.79,-40.58 553.79,-37.08 543.79,-33.58 543.79,-40.58"/>
</g>
</g>
</svg>
