<?xml version="1.0" encoding="UTF-8" standalone="no"?>
<!DOCTYPE svg PUBLIC "-//W3C//DTD SVG 1.1//EN"
 "http://www.w3.org/Graphics/SVG/1.1/DTD/svg11.dtd">
<!-- Generated by graphviz version 2.43.0 (0)
 -->
<!-- Title: lyra::detail::token_iterator::has_value_delimiter Pages: 1 -->
<svg width="462pt" height="137pt"
 viewBox="0.00 0.00 462.00 137.00" xmlns="http://www.w3.org/2000/svg" xmlns:xlink="http://www.w3.org/1999/xlink">
<g id="graph0" class="graph" transform="scale(1 1) rotate(0) translate(4 133)">
<title>lyra::detail::token_iterator::has_value_delimiter</title>
<polygon fill="white" stroke="transparent" points="-4,4 -4,-133 458,-133 458,4 -4,4"/>
<!-- Node1 -->
<g id="node1" class="node">
<title>Node1</title>
<g id="a_node1"><a xlink:title=" ">
<polygon fill="#bfbfbf" stroke="black" points="341,-44 341,-85 454,-85 454,-44 341,-44"/>
<text text-anchor="start" x="349" y="-73" font-family="Helvetica,sans-Serif" font-size="10.00">lyra::detail::token</text>
<text text-anchor="start" x="349" y="-62" font-family="Helvetica,sans-Serif" font-size="10.00">_iterator::has_value</text>
<text text-anchor="middle" x="397.5" y="-51" font-family="Helvetica,sans-Serif" font-size="10.00">_delimiter</text>
</a>
</g>
</g>
<!-- Node2 -->
<g id="node2" class="node">
<title>Node2</title>
<g id="a_node2"><a xlink:href="classlyra_1_1detail_1_1token__iterator.html#a7e4904a6b3beafa1280358cdd6002353" target="_top" xlink:title=" ">
<polygon fill="white" stroke="black" points="203,-98.5 203,-128.5 305,-128.5 305,-98.5 203,-98.5"/>
<text text-anchor="start" x="211" y="-116.5" font-family="Helvetica,sans-Serif" font-size="10.00">lyra::detail::token</text>
<text text-anchor="middle" x="254" y="-105.5" font-family="Helvetica,sans-Serif" font-size="10.00">_iterator::option</text>
</a>
</g>
</g>
<!-- Node1&#45;&gt;Node2 -->
<g id="edge1" class="edge">
<title>Node1&#45;&gt;Node2</title>
<path fill="none" stroke="midnightblue" d="M331.3,-87.08C320.2,-90.92 308.92,-94.83 298.55,-98.42"/>
<polygon fill="midnightblue" stroke="midnightblue" points="332.68,-90.31 340.98,-83.73 330.39,-83.69 332.68,-90.31"/>
</g>
<!-- Node5 -->
<g id="node5" class="node">
<title>Node5</title>
<g id="a_node5"><a xlink:href="classlyra_1_1detail_1_1token__iterator.html#a149c83b2738fb4aa6bffd8cec56fbcce" target="_top" xlink:title=" ">
<polygon fill="white" stroke="black" points="203,-49.5 203,-79.5 305,-79.5 305,-49.5 203,-49.5"/>
<text text-anchor="start" x="211" y="-67.5" font-family="Helvetica,sans-Serif" font-size="10.00">lyra::detail::token</text>
<text text-anchor="middle" x="254" y="-56.5" font-family="Helvetica,sans-Serif" font-size="10.00">_iterator::pop</text>
</a>
</g>
</g>
<!-- Node1&#45;&gt;Node5 -->
<g id="edge4" class="edge">
<title>Node1&#45;&gt;Node5</title>
<path fill="none" stroke="midnightblue" d="M330.94,-64.5C322.32,-64.5 313.6,-64.5 305.29,-64.5"/>
<polygon fill="midnightblue" stroke="midnightblue" points="330.98,-68 340.98,-64.5 330.98,-61 330.98,-68"/>
</g>
<!-- Node6 -->
<g id="node6" class="node">
<title>Node6</title>
<g id="a_node6"><a xlink:href="classlyra_1_1detail_1_1token__iterator.html#aefbced0b2cbf66ad7967b6a2891166d0" target="_top" xlink:title=" ">
<polygon fill="white" stroke="black" points="203,-0.5 203,-30.5 305,-30.5 305,-0.5 203,-0.5"/>
<text text-anchor="start" x="211" y="-18.5" font-family="Helvetica,sans-Serif" font-size="10.00">lyra::detail::token</text>
<text text-anchor="middle" x="254" y="-7.5" font-family="Helvetica,sans-Serif" font-size="10.00">_iterator::value</text>
</a>
</g>
</g>
<!-- Node1&#45;&gt;Node6 -->
<g id="edge5" class="edge">
<title>Node1&#45;&gt;Node6</title>
<path fill="none" stroke="midnightblue" d="M331.3,-41.92C320.2,-38.08 308.92,-34.17 298.55,-30.58"/>
<polygon fill="midnightblue" stroke="midnightblue" points="330.39,-45.31 340.98,-45.27 332.68,-38.69 330.39,-45.31"/>
</g>
<!-- Node3 -->
<g id="node3" class="node">
<title>Node3</title>
<g id="a_node3"><a xlink:href="classlyra_1_1opt.html#a320fdddd60a89469dca1ba3c07e7bf20" target="_top" xlink:title=" ">
<polygon fill="white" stroke="black" points="77,-104 77,-123 167,-123 167,-104 77,-104"/>
<text text-anchor="middle" x="122" y="-111" font-family="Helvetica,sans-Serif" font-size="10.00">lyra::opt::parse</text>
</a>
</g>
</g>
<!-- Node2&#45;&gt;Node3 -->
<g id="edge2" class="edge">
<title>Node2&#45;&gt;Node3</title>
<path fill="none" stroke="midnightblue" d="M192.73,-113.5C184.13,-113.5 175.41,-113.5 167.2,-113.5"/>
<polygon fill="midnightblue" stroke="midnightblue" points="192.74,-117 202.74,-113.5 192.74,-110 192.74,-117"/>
</g>
<!-- Node4 -->
<g id="node4" class="node">
<title>Node4</title>
<g id="a_node4"><a xlink:href="single__parser__run__test_8cpp.html#ae66f6b31b5ad750f1fe042a706a4e3d4" target="_top" xlink:title=" ">
<polygon fill="white" stroke="black" points="0,-104 0,-123 41,-123 41,-104 0,-104"/>
<text text-anchor="middle" x="20.5" y="-111" font-family="Helvetica,sans-Serif" font-size="10.00">main</text>
</a>
</g>
</g>
<!-- Node3&#45;&gt;Node4 -->
<g id="edge3" class="edge">
<title>Node3&#45;&gt;Node4</title>
<path fill="none" stroke="midnightblue" d="M66.52,-113.5C57.46,-113.5 48.6,-113.5 41.18,-113.5"/>
<polygon fill="midnightblue" stroke="midnightblue" points="66.78,-117 76.78,-113.5 66.78,-110 66.78,-117"/>
</g>
</g>
</svg>
