<?xml version="1.0" encoding="UTF-8" standalone="no"?>
<!DOCTYPE svg PUBLIC "-//W3C//DTD SVG 1.1//EN"
 "http://www.w3.org/Graphics/SVG/1.1/DTD/svg11.dtd">
<!-- Generated by graphviz version 2.43.0 (0)
 -->
<!-- Title: lyra::bound_parser&lt; Derived &gt; Pages: 1 -->
<!--zoomable 255 -->
<svg id="main" version="1.1" xmlns="http://www.w3.org/2000/svg" xmlns:xlink="http://www.w3.org/1999/xlink" xml:space="preserve" onload="init(evt)">
<style type="text/css"><![CDATA[
.edge:hover path { stroke: red; }
.edge:hover polygon { stroke: red; fill: red; }
]]></style>
<script type="text/javascript"><![CDATA[
var edges = document.getElementsByTagName('g');
if (edges && edges.length) {
  for (var i=0;i<edges.length;i++) {
    if (edges[i].id.substr(0,4)=='edge') {
      edges[i].setAttribute('class','edge');
    }
  }
}
]]></script>
        <defs>
                <circle id="rim" cx="0" cy="0" r="7"/>
                <circle id="rim2" cx="0" cy="0" r="3.5"/>
                <g id="zoomPlus">
                        <use xlink:href="#rim" fill="#404040">
                                <set attributeName="fill" to="#808080" begin="zoomplus.mouseover" end="zoomplus.mouseout"/>
                        </use>
                        <path d="M-4,0h8M0,-4v8" fill="none" stroke="white" stroke-width="1.5" pointer-events="none"/>
                </g>
                <g id="zoomMin">
                        <use xlink:href="#rim" fill="#404040">
                                <set attributeName="fill" to="#808080" begin="zoomminus.mouseover" end="zoomminus.mouseout"/>
                        </use>
                        <path d="M-4,0h8" fill="none" stroke="white" stroke-width="1.5" pointer-events="none"/>
                </g>
                <g id="dirArrow">
                        <path fill="none" stroke="white" stroke-width="1.5" d="M0,-3.0v7 M-2.5,-0.5L0,-3.0L2.5,-0.5"/>
                </g>
               <g id="resetDef">
                       <use xlink:href="#rim2" fill="#404040">
                               <set attributeName="fill" to="#808080" begin="reset.mouseover" end="reset.mouseout"/>
                       </use>
               </g>
        </defs>

<script type="text/javascript">
var viewWidth = 862;
var viewHeight = 255;
var sectionId = 'dynsection-1';
</script>
<script xlink:href="svgpan.js"/>
<svg id="graph" class="graph">
<g id="viewport">
<title>lyra::bound_parser&lt; Derived &gt;</title>
<polygon fill="white" stroke="transparent" points="-4,4 -4,-251 858,-251 858,4 -4,4"/>
<!-- Node1 -->
<g id="node1" class="node">
<title>Node1</title>
<g id="a_node1"><a xlink:title=" ">
<polygon fill="#bfbfbf" stroke="black" points="747,-117 747,-147 854,-147 854,-117 747,-117"/>
<text text-anchor="start" x="755" y="-135" font-family="Helvetica,sans-Serif" font-size="10.00">lyra::bound_parser</text>
<text text-anchor="middle" x="800.5" y="-124" font-family="Helvetica,sans-Serif" font-size="10.00">&lt; Derived &gt;</text>
</a>
</g>
</g>
<!-- Node2 -->
<g id="node2" class="node">
<title>Node2</title>
<g id="a_node2"><a xlink:href="classlyra_1_1composable__parser.html" target="_top" xlink:title=" ">
<polygon fill="white" stroke="black" points="501,-211 501,-241 638,-241 638,-211 501,-211"/>
<text text-anchor="start" x="509" y="-229" font-family="Helvetica,sans-Serif" font-size="10.00">lyra::composable_parser</text>
<text text-anchor="middle" x="569.5" y="-218" font-family="Helvetica,sans-Serif" font-size="10.00">&lt; Derived &gt;</text>
</a>
</g>
</g>
<!-- Node2&#45;&gt;Node1 -->
<g id="edge1" class="edge">
<title>Node2&#45;&gt;Node1</title>
<path fill="none" stroke="midnightblue" d="M604.59,-206.72C636.87,-192.81 686.59,-174.06 729,-156 735.59,-153.19 742.47,-150.13 749.25,-147.13"/>
<polygon fill="midnightblue" stroke="midnightblue" points="602.89,-203.64 595.15,-210.88 605.71,-210.05 602.89,-203.64"/>
</g>
<!-- Node2&#45;&gt;Node1 -->
<g id="edge4" class="edge">
<title>Node2&#45;&gt;Node1</title>
<path fill="none" stroke="midnightblue" d="M643.9,-207.42C670.83,-197.75 701.46,-185.73 729,-174 747.9,-165.95 769.21,-155.83 783.41,-147.05"/>
<polygon fill="midnightblue" stroke="midnightblue" points="642.41,-204.24 634.15,-210.88 644.75,-210.84 642.41,-204.24"/>
</g>
<!-- Node3 -->
<g id="node3" class="node">
<title>Node3</title>
<g id="a_node3"><a xlink:href="classlyra_1_1parser.html" target="_top" xlink:title=" ">
<polygon fill="white" stroke="black" points="227,-227.5 227,-246.5 299,-246.5 299,-227.5 227,-227.5"/>
<text text-anchor="middle" x="263" y="-234.5" font-family="Helvetica,sans-Serif" font-size="10.00">lyra::parser</text>
</a>
</g>
</g>
<!-- Node3&#45;&gt;Node2 -->
<g id="edge2" class="edge">
<title>Node3&#45;&gt;Node2</title>
<path fill="none" stroke="midnightblue" d="M309.22,-230.4C359.89,-226.48 442.54,-223.24 500.89,-222.72"/>
<polygon fill="midnightblue" stroke="midnightblue" points="308.91,-226.91 299.23,-231.22 309.48,-233.89 308.91,-226.91"/>
</g>
<!-- Node3&#45;&gt;Node2 -->
<g id="edge3" class="edge">
<title>Node3&#45;&gt;Node2</title>
<path fill="none" stroke="midnightblue" d="M309.54,-240.34C360.23,-240.58 442.67,-237.85 500.89,-234.16"/>
<polygon fill="midnightblue" stroke="midnightblue" points="309.26,-236.83 299.23,-240.24 309.19,-243.83 309.26,-236.83"/>
</g>
<!-- Node4 -->
<g id="node4" class="node">
<title>Node4</title>
<g id="a_node4"><a xlink:title=" ">
<polygon fill="white" stroke="black" points="510,-98 510,-128 629,-128 629,-98 510,-98"/>
<text text-anchor="start" x="518" y="-116" font-family="Helvetica,sans-Serif" font-size="10.00">std::shared_ptr&lt; lyra</text>
<text text-anchor="middle" x="569.5" y="-105" font-family="Helvetica,sans-Serif" font-size="10.00">::detail::BoundRef &gt;</text>
</a>
</g>
</g>
<!-- Node4&#45;&gt;Node1 -->
<g id="edge5" class="edge">
<title>Node4&#45;&gt;Node1</title>
<path fill="none" stroke="#9a32cd" stroke-dasharray="5,2" d="M639.33,-116.38C667.2,-118 699.67,-120.21 729,-123 734.77,-123.55 740.8,-124.2 746.8,-124.9"/>
<polygon fill="#9a32cd" stroke="#9a32cd" points="639.46,-112.88 629.28,-115.81 639.07,-119.87 639.46,-112.88"/>
<text text-anchor="middle" x="692.5" y="-126" font-family="Helvetica,sans-Serif" font-size="10.00"> m_ref</text>
</g>
<!-- Node5 -->
<g id="node5" class="node">
<title>Node5</title>
<g id="a_node5"><a xlink:href="structlyra_1_1detail_1_1_bound_ref.html" target="_top" xlink:title=" ">
<polygon fill="white" stroke="black" points="202,-88.5 202,-107.5 324,-107.5 324,-88.5 202,-88.5"/>
<text text-anchor="middle" x="263" y="-95.5" font-family="Helvetica,sans-Serif" font-size="10.00">lyra::detail::BoundRef</text>
</a>
</g>
</g>
<!-- Node5&#45;&gt;Node4 -->
<g id="edge6" class="edge">
<title>Node5&#45;&gt;Node4</title>
<path fill="none" stroke="#9a32cd" stroke-dasharray="5,2" d="M334.35,-88.12C377.46,-83.72 433.65,-80.93 483,-88 497.24,-90.04 512.41,-93.9 525.97,-97.98"/>
<polygon fill="#9a32cd" stroke="#9a32cd" points="333.82,-84.66 324.25,-89.21 334.56,-91.62 333.82,-84.66"/>
<text text-anchor="middle" x="417" y="-91" font-family="Helvetica,sans-Serif" font-size="10.00"> ptr</text>
</g>
<!-- Node6 -->
<g id="node6" class="node">
<title>Node6</title>
<g id="a_node6"><a xlink:href="structlyra_1_1detail_1_1_non_copyable.html" target="_top" xlink:title=" ">
<polygon fill="white" stroke="black" points="0,-88.5 0,-107.5 140,-107.5 140,-88.5 0,-88.5"/>
<text text-anchor="middle" x="70" y="-95.5" font-family="Helvetica,sans-Serif" font-size="10.00">lyra::detail::NonCopyable</text>
</a>
</g>
</g>
<!-- Node6&#45;&gt;Node5 -->
<g id="edge7" class="edge">
<title>Node6&#45;&gt;Node5</title>
<path fill="none" stroke="midnightblue" d="M150.28,-91.34C167.52,-91.15 185.49,-91.26 201.85,-91.68"/>
<polygon fill="midnightblue" stroke="midnightblue" points="150.17,-87.84 140.23,-91.48 150.27,-94.84 150.17,-87.84"/>
</g>
<!-- Node6&#45;&gt;Node5 -->
<g id="edge8" class="edge">
<title>Node6&#45;&gt;Node5</title>
<path fill="none" stroke="midnightblue" d="M150.28,-104.66C167.52,-104.85 185.49,-104.74 201.85,-104.32"/>
<polygon fill="midnightblue" stroke="midnightblue" points="150.27,-101.16 140.23,-104.52 150.17,-108.16 150.27,-101.16"/>
</g>
<!-- Node7 -->
<g id="node7" class="node">
<title>Node7</title>
<g id="a_node7"><a xlink:title=" ">
<polygon fill="white" stroke="black" points="204,-137.5 204,-156.5 322,-156.5 322,-137.5 204,-137.5"/>
<text text-anchor="middle" x="263" y="-144.5" font-family="Helvetica,sans-Serif" font-size="10.00">std::shared_ptr&lt; T &gt;</text>
</a>
</g>
</g>
<!-- Node7&#45;&gt;Node4 -->
<g id="edge9" class="edge">
<title>Node7&#45;&gt;Node4</title>
<path fill="none" stroke="orange" stroke-dasharray="5,2" d="M332.79,-137.28C338.95,-136.48 345.08,-135.71 351,-135 404.7,-128.58 466.01,-122.49 509.82,-118.35"/>
<polygon fill="orange" stroke="orange" points="331.92,-133.86 322.46,-138.64 332.83,-140.8 331.92,-133.86"/>
<text text-anchor="middle" x="417" y="-138" font-family="Helvetica,sans-Serif" font-size="10.00"> &lt; lyra::detail::BoundRef &gt;</text>
</g>
<!-- Node13 -->
<g id="node13" class="node">
<title>Node13</title>
<g id="a_node13"><a xlink:title=" ">
<polygon fill="white" stroke="black" points="503,-147 503,-177 636,-177 636,-147 503,-147"/>
<text text-anchor="start" x="511" y="-165" font-family="Helvetica,sans-Serif" font-size="10.00">std::shared_ptr&lt; lyra</text>
<text text-anchor="middle" x="569.5" y="-154" font-family="Helvetica,sans-Serif" font-size="10.00">::detail::choices_base &gt;</text>
</a>
</g>
</g>
<!-- Node7&#45;&gt;Node13 -->
<g id="edge17" class="edge">
<title>Node7&#45;&gt;Node13</title>
<path fill="none" stroke="orange" stroke-dasharray="5,2" d="M332.24,-149.3C375.46,-150.88 432.52,-153.19 483,-156 489.39,-156.36 496.04,-156.76 502.69,-157.19"/>
<polygon fill="orange" stroke="orange" points="332.24,-145.79 322.12,-148.93 331.99,-152.79 332.24,-145.79"/>
<text text-anchor="start" x="362" y="-170" font-family="Helvetica,sans-Serif" font-size="10.00"> &lt; lyra::detail::choices</text>
<text text-anchor="middle" x="417" y="-159" font-family="Helvetica,sans-Serif" font-size="10.00">_base &gt;</text>
</g>
<!-- Node8 -->
<g id="node8" class="node">
<title>Node8</title>
<g id="a_node8"><a xlink:title=" ">
<polygon fill="white" stroke="black" points="55.5,-137.5 55.5,-156.5 84.5,-156.5 84.5,-137.5 55.5,-137.5"/>
<text text-anchor="middle" x="70" y="-144.5" font-family="Helvetica,sans-Serif" font-size="10.00">T</text>
</a>
</g>
</g>
<!-- Node8&#45;&gt;Node7 -->
<g id="edge10" class="edge">
<title>Node8&#45;&gt;Node7</title>
<path fill="none" stroke="#9a32cd" stroke-dasharray="5,2" d="M94.82,-147C121.89,-147 167.05,-147 203.61,-147"/>
<polygon fill="#9a32cd" stroke="#9a32cd" points="94.74,-143.5 84.74,-147 94.74,-150.5 94.74,-143.5"/>
<text text-anchor="middle" x="166.5" y="-150" font-family="Helvetica,sans-Serif" font-size="10.00"> ptr</text>
</g>
<!-- Node9 -->
<g id="node9" class="node">
<title>Node9</title>
<g id="a_node9"><a xlink:title=" ">
<polygon fill="white" stroke="black" points="537,-56.5 537,-75.5 602,-75.5 602,-56.5 537,-56.5"/>
<text text-anchor="middle" x="569.5" y="-63.5" font-family="Helvetica,sans-Serif" font-size="10.00">std::string</text>
</a>
</g>
</g>
<!-- Node9&#45;&gt;Node1 -->
<g id="edge11" class="edge">
<title>Node9&#45;&gt;Node1</title>
<path fill="none" stroke="#9a32cd" stroke-dasharray="5,2" d="M612.1,-68.35C644.69,-71.18 690.75,-77.4 729,-91 746.61,-97.26 764.8,-107.97 778.3,-116.87"/>
<polygon fill="#9a32cd" stroke="#9a32cd" points="612.27,-64.85 602.02,-67.54 611.71,-71.83 612.27,-64.85"/>
<text text-anchor="middle" x="692.5" y="-105" font-family="Helvetica,sans-Serif" font-size="10.00"> m_description</text>
<text text-anchor="middle" x="692.5" y="-94" font-family="Helvetica,sans-Serif" font-size="10.00">m_hint</text>
</g>
<!-- Node10 -->
<g id="node10" class="node">
<title>Node10</title>
<g id="a_node10"><a xlink:title=" ">
<polygon fill="white" stroke="black" points="211,-39 211,-69 315,-69 315,-39 211,-39"/>
<text text-anchor="start" x="219" y="-57" font-family="Helvetica,sans-Serif" font-size="10.00">std::basic_string&lt;</text>
<text text-anchor="middle" x="263" y="-46" font-family="Helvetica,sans-Serif" font-size="10.00"> Char &gt;</text>
</a>
</g>
</g>
<!-- Node10&#45;&gt;Node9 -->
<g id="edge12" class="edge">
<title>Node10&#45;&gt;Node9</title>
<path fill="none" stroke="midnightblue" d="M325.65,-56.43C389.51,-58.95 486.79,-62.78 536.63,-64.74"/>
<polygon fill="midnightblue" stroke="midnightblue" points="325.44,-52.92 315.31,-56.02 325.16,-59.91 325.44,-52.92"/>
</g>
<!-- Node11 -->
<g id="node11" class="node">
<title>Node11</title>
<g id="a_node11"><a xlink:href="structlyra_1_1detail_1_1parser__cardinality.html" target="_top" xlink:title=" ">
<polygon fill="white" stroke="black" points="516.5,-5 516.5,-35 622.5,-35 622.5,-5 516.5,-5"/>
<text text-anchor="start" x="524.5" y="-23" font-family="Helvetica,sans-Serif" font-size="10.00">lyra::detail::parser</text>
<text text-anchor="middle" x="569.5" y="-12" font-family="Helvetica,sans-Serif" font-size="10.00">_cardinality</text>
</a>
</g>
</g>
<!-- Node11&#45;&gt;Node1 -->
<g id="edge13" class="edge">
<title>Node11&#45;&gt;Node1</title>
<path fill="none" stroke="#9a32cd" stroke-dasharray="5,2" d="M632.64,-26.5C663.22,-31.73 699.7,-41.13 729,-58 754.68,-72.79 776.86,-99.77 789.17,-116.75"/>
<polygon fill="#9a32cd" stroke="#9a32cd" points="632.95,-23 622.52,-24.88 631.84,-29.92 632.95,-23"/>
<text text-anchor="middle" x="692.5" y="-61" font-family="Helvetica,sans-Serif" font-size="10.00"> m_cardinality</text>
</g>
<!-- Node12 -->
<g id="node12" class="node">
<title>Node12</title>
<g id="a_node12"><a xlink:title=" ">
<polygon fill="white" stroke="black" points="240.5,-0.5 240.5,-19.5 285.5,-19.5 285.5,-0.5 240.5,-0.5"/>
<text text-anchor="middle" x="263" y="-7.5" font-family="Helvetica,sans-Serif" font-size="10.00">size_t</text>
</a>
</g>
</g>
<!-- Node12&#45;&gt;Node11 -->
<g id="edge14" class="edge">
<title>Node12&#45;&gt;Node11</title>
<path fill="none" stroke="#9a32cd" stroke-dasharray="5,2" d="M295.96,-11.05C348.4,-12.77 453.17,-16.21 516.44,-18.29"/>
<polygon fill="#9a32cd" stroke="#9a32cd" points="296.01,-7.55 285.9,-10.72 295.78,-14.55 296.01,-7.55"/>
<text text-anchor="middle" x="417" y="-32" font-family="Helvetica,sans-Serif" font-size="10.00"> maximum</text>
<text text-anchor="middle" x="417" y="-21" font-family="Helvetica,sans-Serif" font-size="10.00">minimum</text>
</g>
<!-- Node13&#45;&gt;Node1 -->
<g id="edge15" class="edge">
<title>Node13&#45;&gt;Node1</title>
<path fill="none" stroke="#9a32cd" stroke-dasharray="5,2" d="M646.2,-152.08C679.2,-147.76 717.09,-142.8 746.94,-138.89"/>
<polygon fill="#9a32cd" stroke="#9a32cd" points="645.58,-148.63 636.12,-153.4 646.49,-155.57 645.58,-148.63"/>
<text text-anchor="middle" x="692.5" y="-153" font-family="Helvetica,sans-Serif" font-size="10.00"> value_choices</text>
</g>
<!-- Node14 -->
<g id="node14" class="node">
<title>Node14</title>
<g id="a_node14"><a xlink:href="structlyra_1_1detail_1_1choices__base.html" target="_top" xlink:title=" ">
<polygon fill="white" stroke="black" points="193,-189.5 193,-208.5 333,-208.5 333,-189.5 193,-189.5"/>
<text text-anchor="middle" x="263" y="-196.5" font-family="Helvetica,sans-Serif" font-size="10.00">lyra::detail::choices_base</text>
</a>
</g>
</g>
<!-- Node14&#45;&gt;Node13 -->
<g id="edge16" class="edge">
<title>Node14&#45;&gt;Node13</title>
<path fill="none" stroke="#9a32cd" stroke-dasharray="5,2" d="M343.32,-193.11C385.01,-189.59 436.88,-184.51 483,-178 489.43,-177.09 496.11,-176.04 502.78,-174.91"/>
<polygon fill="#9a32cd" stroke="#9a32cd" points="342.91,-189.64 333.23,-193.95 343.49,-196.61 342.91,-189.64"/>
<text text-anchor="middle" x="417" y="-195" font-family="Helvetica,sans-Serif" font-size="10.00"> ptr</text>
</g>
</g>
</svg>
        <g id="navigator" transform="translate(0 0)" fill="#404254">
                <rect fill="#f2f5e9" fill-opacity="0.5" stroke="#606060" stroke-width=".5" x="0" y="0" width="60" height="60"/>
                <use id="zoomplus" xlink:href="#zoomPlus" x="17" y="9" onmousedown="handleZoom(evt,'in')"/>
                <use id="zoomminus" xlink:href="#zoomMin" x="42" y="9" onmousedown="handleZoom(evt,'out')"/>
                <use id="reset" xlink:href="#resetDef" x="30" y="36" onmousedown="handleReset()"/>
                <g id="arrowUp" xlink:href="#dirArrow" transform="translate(30 24)" onmousedown="handlePan(0,-1)">
                  <use xlink:href="#rim" fill="#404040">
                        <set attributeName="fill" to="#808080" begin="arrowUp.mouseover" end="arrowUp.mouseout"/>
                  </use>
                  <path fill="none" stroke="white" stroke-width="1.5" d="M0,-3.0v7 M-2.5,-0.5L0,-3.0L2.5,-0.5"/>
                </g>
                <g id="arrowRight" xlink:href="#dirArrow" transform="rotate(90) translate(36 -43)" onmousedown="handlePan(1,0)">
                  <use xlink:href="#rim" fill="#404040">
                        <set attributeName="fill" to="#808080" begin="arrowRight.mouseover" end="arrowRight.mouseout"/>
                  </use>
                  <path fill="none" stroke="white" stroke-width="1.5" d="M0,-3.0v7 M-2.5,-0.5L0,-3.0L2.5,-0.5"/>
                </g>
                <g id="arrowDown" xlink:href="#dirArrow" transform="rotate(180) translate(-30 -48)" onmousedown="handlePan(0,1)">
                  <use xlink:href="#rim" fill="#404040">
                        <set attributeName="fill" to="#808080" begin="arrowDown.mouseover" end="arrowDown.mouseout"/>
                  </use>
                  <path fill="none" stroke="white" stroke-width="1.5" d="M0,-3.0v7 M-2.5,-0.5L0,-3.0L2.5,-0.5"/>
                </g>
                <g id="arrowLeft" xlink:href="#dirArrow" transform="rotate(270) translate(-36 17)" onmousedown="handlePan(-1,0)">
                  <use xlink:href="#rim" fill="#404040">
                        <set attributeName="fill" to="#808080" begin="arrowLeft.mouseover" end="arrowLeft.mouseout"/>
                  </use>
                  <path fill="none" stroke="white" stroke-width="1.5" d="M0,-3.0v7 M-2.5,-0.5L0,-3.0L2.5,-0.5"/>
                </g>
        </g>
        <svg viewBox="0 0 15 15" width="100%" height="30px" preserveAspectRatio="xMaxYMin meet">
         <g id="arrow_out" transform="scale(0.3 0.3)">
          <a xlink:href="classlyra_1_1bound__parser__coll__graph_org.svg" target="_base">
           <rect id="button" ry="5" rx="5" y="6" x="6" height="38" width="38"
                fill="#f2f5e9" fill-opacity="0.5" stroke="#606060" stroke-width="1.0"/>
           <path id="arrow"
             d="M 11.500037,31.436501 C 11.940474,20.09759 22.043105,11.32322 32.158766,21.979434 L 37.068811,17.246167 C 37.068811,17.246167 37.088388,32 37.088388,32 L 22.160133,31.978069 C 22.160133,31.978069 26.997745,27.140456 26.997745,27.140456 C 18.528582,18.264221 13.291696,25.230495 11.500037,31.436501 z"
             style="fill:#404040;"/>
          </a>
         </g>
        </svg>
</svg>
