<?xml version="1.0" encoding="UTF-8" standalone="no"?>
<!DOCTYPE svg PUBLIC "-//W3C//DTD SVG 1.1//EN"
 "http://www.w3.org/Graphics/SVG/1.1/DTD/svg11.dtd">
<!-- Generated by graphviz version 2.43.0 (0)
 -->
<!-- Title: lyra::detail::token_iterator::is_prefixed Pages: 1 -->
<svg width="664pt" height="254pt"
 viewBox="0.00 0.00 664.00 254.41" xmlns="http://www.w3.org/2000/svg" xmlns:xlink="http://www.w3.org/1999/xlink">
<g id="graph0" class="graph" transform="scale(1 1) rotate(0) translate(4 250.41)">
<title>lyra::detail::token_iterator::is_prefixed</title>
<polygon fill="white" stroke="transparent" points="-4,4 -4,-250.41 660,-250.41 660,4 -4,4"/>
<!-- Node1 -->
<g id="node1" class="node">
<title>Node1</title>
<g id="a_node1"><a xlink:title=" ">
<polygon fill="#bfbfbf" stroke="black" points="538,-128 538,-158 656,-158 656,-128 538,-128"/>
<text text-anchor="start" x="546" y="-146" font-family="Helvetica,sans-Serif" font-size="10.00">lyra::detail::token</text>
<text text-anchor="middle" x="597" y="-135" font-family="Helvetica,sans-Serif" font-size="10.00">_iterator::is_prefixed</text>
</a>
</g>
</g>
<!-- Node2 -->
<g id="node2" class="node">
<title>Node2</title>
<g id="a_node2"><a xlink:href="classlyra_1_1detail_1_1token__iterator.html#a8006318eb718713b45bd0c7064d3e87f" target="_top" xlink:title=" ">
<polygon fill="white" stroke="black" points="382,-185.5 382,-226.5 489,-226.5 489,-185.5 382,-185.5"/>
<text text-anchor="start" x="390" y="-214.5" font-family="Helvetica,sans-Serif" font-size="10.00">lyra::detail::token</text>
<text text-anchor="start" x="390" y="-203.5" font-family="Helvetica,sans-Serif" font-size="10.00">_iterator::has_long</text>
<text text-anchor="middle" x="435.5" y="-192.5" font-family="Helvetica,sans-Serif" font-size="10.00">_option_prefix</text>
</a>
</g>
</g>
<!-- Node1&#45;&gt;Node2 -->
<g id="edge1" class="edge">
<title>Node1&#45;&gt;Node2</title>
<path fill="none" stroke="midnightblue" d="M548.25,-161.86C529.43,-169.29 507.78,-177.85 488.56,-185.44"/>
<polygon fill="midnightblue" stroke="midnightblue" points="549.78,-165.02 557.8,-158.09 547.21,-158.51 549.78,-165.02"/>
</g>
<!-- Node8 -->
<g id="node8" class="node">
<title>Node8</title>
<g id="a_node8"><a xlink:href="classlyra_1_1detail_1_1token__iterator.html#a368b12d3ecc2c462c24e1d8723ce5f4f" target="_top" xlink:title=" ">
<polygon fill="white" stroke="black" points="380,-122.5 380,-163.5 491,-163.5 491,-122.5 380,-122.5"/>
<text text-anchor="start" x="388" y="-151.5" font-family="Helvetica,sans-Serif" font-size="10.00">lyra::detail::token</text>
<text text-anchor="start" x="388" y="-140.5" font-family="Helvetica,sans-Serif" font-size="10.00">_iterator::has_short</text>
<text text-anchor="middle" x="435.5" y="-129.5" font-family="Helvetica,sans-Serif" font-size="10.00">_option_prefix</text>
</a>
</g>
</g>
<!-- Node1&#45;&gt;Node8 -->
<g id="edge8" class="edge">
<title>Node1&#45;&gt;Node8</title>
<path fill="none" stroke="midnightblue" d="M527.77,-143C515.5,-143 502.86,-143 491.04,-143"/>
<polygon fill="midnightblue" stroke="midnightblue" points="527.97,-146.5 537.97,-143 527.97,-139.5 527.97,-146.5"/>
</g>
<!-- Node12 -->
<g id="node12" class="node">
<title>Node12</title>
<g id="a_node12"><a xlink:href="classlyra_1_1opt.html#a7fca6b73465a8e266ced413fbed375aa" target="_top" xlink:title=" ">
<polygon fill="white" stroke="black" points="369,-77.5 369,-96.5 502,-96.5 502,-77.5 369,-77.5"/>
<text text-anchor="middle" x="435.5" y="-84.5" font-family="Helvetica,sans-Serif" font-size="10.00">lyra::opt::normalise_opt</text>
</a>
</g>
</g>
<!-- Node1&#45;&gt;Node12 -->
<g id="edge15" class="edge">
<title>Node1&#45;&gt;Node12</title>
<path fill="none" stroke="midnightblue" d="M543.67,-124.63C517,-115.26 485.67,-104.26 463.8,-96.58"/>
<polygon fill="midnightblue" stroke="midnightblue" points="542.66,-127.98 553.26,-127.99 544.98,-121.38 542.66,-127.98"/>
</g>
<!-- Node3 -->
<g id="node3" class="node">
<title>Node3</title>
<g id="a_node3"><a xlink:href="classlyra_1_1detail_1_1token__iterator.html#a11350435cee36ca42019fc81662c018f" target="_top" xlink:title=" ">
<polygon fill="white" stroke="black" points="216,-189.5 216,-230.5 333,-230.5 333,-189.5 216,-189.5"/>
<text text-anchor="start" x="224" y="-218.5" font-family="Helvetica,sans-Serif" font-size="10.00">lyra::detail::token</text>
<text text-anchor="start" x="224" y="-207.5" font-family="Helvetica,sans-Serif" font-size="10.00">_iterator::has_option</text>
<text text-anchor="middle" x="274.5" y="-196.5" font-family="Helvetica,sans-Serif" font-size="10.00">_prefix</text>
</a>
</g>
</g>
<!-- Node2&#45;&gt;Node3 -->
<g id="edge2" class="edge">
<title>Node2&#45;&gt;Node3</title>
<path fill="none" stroke="midnightblue" d="M371.91,-207.57C359.13,-207.9 345.75,-208.23 333.16,-208.55"/>
<polygon fill="midnightblue" stroke="midnightblue" points="372.09,-211.07 382,-207.32 371.91,-204.07 372.09,-211.07"/>
</g>
<!-- Node4 -->
<g id="node4" class="node">
<title>Node4</title>
<g id="a_node4"><a xlink:href="classlyra_1_1detail_1_1token__iterator.html#aefbced0b2cbf66ad7967b6a2891166d0" target="_top" xlink:title=" ">
<polygon fill="white" stroke="black" points="77.5,-195 77.5,-225 179.5,-225 179.5,-195 77.5,-195"/>
<text text-anchor="start" x="85.5" y="-213" font-family="Helvetica,sans-Serif" font-size="10.00">lyra::detail::token</text>
<text text-anchor="middle" x="128.5" y="-202" font-family="Helvetica,sans-Serif" font-size="10.00">_iterator::value</text>
</a>
</g>
</g>
<!-- Node2&#45;&gt;Node4 -->
<g id="edge7" class="edge">
<title>Node2&#45;&gt;Node4</title>
<path fill="none" stroke="midnightblue" d="M374.35,-229.69C360.95,-233.97 346.65,-237.77 333,-240 281.68,-248.37 267.28,-248.64 216,-240 198.6,-237.07 180.03,-231.04 164.57,-225.15"/>
<polygon fill="midnightblue" stroke="midnightblue" points="375.55,-232.98 383.94,-226.51 373.35,-226.34 375.55,-232.98"/>
</g>
<!-- Node5 -->
<g id="node5" class="node">
<title>Node5</title>
<g id="a_node5"><a xlink:href="classlyra_1_1detail_1_1token__iterator.html#a7e4904a6b3beafa1280358cdd6002353" target="_top" xlink:title=" ">
<polygon fill="white" stroke="black" points="223.5,-140 223.5,-170 325.5,-170 325.5,-140 223.5,-140"/>
<text text-anchor="start" x="231.5" y="-158" font-family="Helvetica,sans-Serif" font-size="10.00">lyra::detail::token</text>
<text text-anchor="middle" x="274.5" y="-147" font-family="Helvetica,sans-Serif" font-size="10.00">_iterator::option</text>
</a>
</g>
</g>
<!-- Node2&#45;&gt;Node5 -->
<g id="edge4" class="edge">
<title>Node2&#45;&gt;Node5</title>
<path fill="none" stroke="midnightblue" d="M372.34,-186.06C355.7,-180.72 337.99,-175.04 322.33,-170.02"/>
<polygon fill="midnightblue" stroke="midnightblue" points="371.41,-189.44 382,-189.16 373.54,-182.77 371.41,-189.44"/>
</g>
<!-- Node3&#45;&gt;Node4 -->
<g id="edge3" class="edge">
<title>Node3&#45;&gt;Node4</title>
<path fill="none" stroke="midnightblue" d="M205.63,-210C196.94,-210 188.17,-210 179.83,-210"/>
<polygon fill="midnightblue" stroke="midnightblue" points="205.76,-213.5 215.76,-210 205.76,-206.5 205.76,-213.5"/>
</g>
<!-- Node6 -->
<g id="node6" class="node">
<title>Node6</title>
<g id="a_node6"><a xlink:href="classlyra_1_1opt.html#a320fdddd60a89469dca1ba3c07e7bf20" target="_top" xlink:title=" ">
<polygon fill="white" stroke="black" points="83.5,-111.5 83.5,-130.5 173.5,-130.5 173.5,-111.5 83.5,-111.5"/>
<text text-anchor="middle" x="128.5" y="-118.5" font-family="Helvetica,sans-Serif" font-size="10.00">lyra::opt::parse</text>
</a>
</g>
</g>
<!-- Node5&#45;&gt;Node6 -->
<g id="edge5" class="edge">
<title>Node5&#45;&gt;Node6</title>
<path fill="none" stroke="midnightblue" d="M213.21,-140.76C198.67,-137.33 183.48,-133.75 170.1,-130.59"/>
<polygon fill="midnightblue" stroke="midnightblue" points="212.6,-144.22 223.14,-143.11 214.21,-137.4 212.6,-144.22"/>
</g>
<!-- Node7 -->
<g id="node7" class="node">
<title>Node7</title>
<g id="a_node7"><a xlink:href="single__parser__run__test_8cpp.html#ae66f6b31b5ad750f1fe042a706a4e3d4" target="_top" xlink:title=" ">
<polygon fill="white" stroke="black" points="0,-111.5 0,-130.5 41,-130.5 41,-111.5 0,-111.5"/>
<text text-anchor="middle" x="20.5" y="-118.5" font-family="Helvetica,sans-Serif" font-size="10.00">main</text>
</a>
</g>
</g>
<!-- Node6&#45;&gt;Node7 -->
<g id="edge6" class="edge">
<title>Node6&#45;&gt;Node7</title>
<path fill="none" stroke="midnightblue" d="M73.32,-121C61.74,-121 50.23,-121 41.01,-121"/>
<polygon fill="midnightblue" stroke="midnightblue" points="73.47,-124.5 83.47,-121 73.47,-117.5 73.47,-124.5"/>
</g>
<!-- Node8&#45;&gt;Node3 -->
<g id="edge9" class="edge">
<title>Node8&#45;&gt;Node3</title>
<path fill="none" stroke="midnightblue" d="M376.2,-167.57C359.16,-174.75 340.73,-182.51 324.34,-189.42"/>
<polygon fill="midnightblue" stroke="midnightblue" points="377.64,-170.76 385.5,-163.65 374.92,-164.31 377.64,-170.76"/>
</g>
<!-- Node8&#45;&gt;Node4 -->
<g id="edge14" class="edge">
<title>Node8&#45;&gt;Node4</title>
<path fill="none" stroke="midnightblue" d="M369.69,-125.71C325.01,-117.05 265.06,-111.97 216,-131 183.01,-143.8 154.9,-175.7 140.28,-194.82"/>
<polygon fill="midnightblue" stroke="midnightblue" points="369.05,-129.16 379.55,-127.73 370.46,-122.3 369.05,-129.16"/>
</g>
<!-- Node8&#45;&gt;Node5 -->
<g id="edge10" class="edge">
<title>Node8&#45;&gt;Node5</title>
<path fill="none" stroke="midnightblue" d="M369.71,-147.89C354.97,-149 339.53,-150.17 325.52,-151.23"/>
<polygon fill="midnightblue" stroke="midnightblue" points="370.07,-151.37 379.78,-147.13 369.55,-144.39 370.07,-151.37"/>
</g>
<!-- Node9 -->
<g id="node9" class="node">
<title>Node9</title>
<g id="a_node9"><a xlink:href="classlyra_1_1detail_1_1token__iterator.html#a017af8979ef14eac5c1fd010b1391035" target="_top" xlink:title=" ">
<polygon fill="white" stroke="black" points="223.5,-14 223.5,-44 325.5,-44 325.5,-14 223.5,-14"/>
<text text-anchor="start" x="231.5" y="-32" font-family="Helvetica,sans-Serif" font-size="10.00">lyra::detail::token</text>
<text text-anchor="middle" x="274.5" y="-21" font-family="Helvetica,sans-Serif" font-size="10.00">_iterator::pop</text>
</a>
</g>
</g>
<!-- Node8&#45;&gt;Node9 -->
<g id="edge11" class="edge">
<title>Node8&#45;&gt;Node9</title>
<path fill="none" stroke="midnightblue" d="M382.94,-116.92C378.01,-113.54 373.26,-109.89 369,-106 348.24,-87.05 354.72,-71.84 333,-54 328.37,-50.2 323.08,-46.88 317.62,-44.01"/>
<polygon fill="midnightblue" stroke="midnightblue" points="381.06,-119.87 391.37,-122.34 384.85,-113.99 381.06,-119.87"/>
</g>
<!-- Node10 -->
<g id="node10" class="node">
<title>Node10</title>
<g id="a_node10"><a xlink:href="classlyra_1_1literal.html#a0b616706829da82299d42c4a188d6408" target="_top" xlink:title=" ">
<polygon fill="white" stroke="black" points="77,-38.5 77,-57.5 180,-57.5 180,-38.5 77,-38.5"/>
<text text-anchor="middle" x="128.5" y="-45.5" font-family="Helvetica,sans-Serif" font-size="10.00">lyra::literal::parse</text>
</a>
</g>
</g>
<!-- Node9&#45;&gt;Node10 -->
<g id="edge12" class="edge">
<title>Node9&#45;&gt;Node10</title>
<path fill="none" stroke="midnightblue" d="M213.16,-36.96C202.15,-38.41 190.77,-39.92 180.08,-41.33"/>
<polygon fill="midnightblue" stroke="midnightblue" points="213.68,-40.42 223.14,-35.65 212.76,-33.48 213.68,-40.42"/>
</g>
<!-- Node11 -->
<g id="node11" class="node">
<title>Node11</title>
<g id="a_node11"><a xlink:href="classlyra_1_1arg.html#a027ca631a2fe3824db141195371b0349" target="_top" xlink:title=" ">
<polygon fill="white" stroke="black" points="83.5,-0.5 83.5,-19.5 173.5,-19.5 173.5,-0.5 83.5,-0.5"/>
<text text-anchor="middle" x="128.5" y="-7.5" font-family="Helvetica,sans-Serif" font-size="10.00">lyra::arg::parse</text>
</a>
</g>
</g>
<!-- Node9&#45;&gt;Node11 -->
<g id="edge13" class="edge">
<title>Node9&#45;&gt;Node11</title>
<path fill="none" stroke="midnightblue" d="M213.18,-21.04C199.99,-19.3 186.27,-17.49 173.84,-15.85"/>
<polygon fill="midnightblue" stroke="midnightblue" points="212.76,-24.52 223.14,-22.35 213.68,-17.58 212.76,-24.52"/>
</g>
<!-- Node13 -->
<g id="node13" class="node">
<title>Node13</title>
<g id="a_node13"><a xlink:href="classlyra_1_1opt.html#ae2b0df0a8a61ea576348d56479530ffb" target="_top" xlink:title=" ">
<polygon fill="white" stroke="black" points="221,-63.5 221,-82.5 328,-82.5 328,-63.5 221,-63.5"/>
<text text-anchor="middle" x="274.5" y="-70.5" font-family="Helvetica,sans-Serif" font-size="10.00">lyra::opt::is_match</text>
</a>
</g>
</g>
<!-- Node12&#45;&gt;Node13 -->
<g id="edge16" class="edge">
<title>Node12&#45;&gt;Node13</title>
<path fill="none" stroke="midnightblue" d="M358.7,-80.33C348.43,-79.42 338.08,-78.51 328.33,-77.65"/>
<polygon fill="midnightblue" stroke="midnightblue" points="358.64,-83.83 368.91,-81.22 359.26,-76.86 358.64,-83.83"/>
</g>
<!-- Node13&#45;&gt;Node6 -->
<g id="edge17" class="edge">
<title>Node13&#45;&gt;Node6</title>
<path fill="none" stroke="midnightblue" d="M235.13,-85.79C210.98,-93.84 180.31,-104.06 158.24,-111.42"/>
<polygon fill="midnightblue" stroke="midnightblue" points="236.33,-89.08 244.71,-82.6 234.11,-82.44 236.33,-89.08"/>
</g>
</g>
</svg>
