<?xml version="1.0" encoding="UTF-8" standalone="no"?>
<!DOCTYPE svg PUBLIC "-//W3C//DTD SVG 1.1//EN"
 "http://www.w3.org/Graphics/SVG/1.1/DTD/svg11.dtd">
<!-- Generated by graphviz version 2.43.0 (0)
 -->
<!-- Title: lyra::detail::token_iterator::argument Pages: 1 -->
<svg width="606pt" height="230pt"
 viewBox="0.00 0.00 606.00 229.50" xmlns="http://www.w3.org/2000/svg" xmlns:xlink="http://www.w3.org/1999/xlink">
<g id="graph0" class="graph" transform="scale(1 1) rotate(0) translate(4 225.5)">
<title>lyra::detail::token_iterator::argument</title>
<polygon fill="white" stroke="transparent" points="-4,4 -4,-225.5 602,-225.5 602,4 -4,4"/>
<!-- Node1 -->
<g id="node1" class="node">
<title>Node1</title>
<g id="a_node1"><a xlink:title=" ">
<polygon fill="#bfbfbf" stroke="black" points="487,-101.5 487,-131.5 598,-131.5 598,-101.5 487,-101.5"/>
<text text-anchor="start" x="495" y="-119.5" font-family="Helvetica,sans-Serif" font-size="10.00">lyra::detail::token</text>
<text text-anchor="middle" x="542.5" y="-108.5" font-family="Helvetica,sans-Serif" font-size="10.00">_iterator::argument</text>
</a>
</g>
</g>
<!-- Node2 -->
<g id="node2" class="node">
<title>Node2</title>
<g id="a_node2"><a xlink:href="classlyra_1_1cli.html#a49a8af627c74dfce2c2d594d4161116f" target="_top" xlink:title=" ">
<polygon fill="white" stroke="black" points="333,-202 333,-221 419,-221 419,-202 333,-202"/>
<text text-anchor="middle" x="376" y="-209" font-family="Helvetica,sans-Serif" font-size="10.00">lyra::cli::parse</text>
</a>
</g>
</g>
<!-- Node1&#45;&gt;Node2 -->
<g id="edge1" class="edge">
<title>Node1&#45;&gt;Node2</title>
<path fill="none" stroke="midnightblue" d="M520.38,-139.06C503.22,-156.11 477.58,-178.83 451,-192.5 441.21,-197.53 429.99,-201.3 419.29,-204.09"/>
<polygon fill="midnightblue" stroke="midnightblue" points="523.12,-141.26 527.64,-131.68 518.13,-136.35 523.12,-141.26"/>
</g>
<!-- Node3 -->
<g id="node3" class="node">
<title>Node3</title>
<g id="a_node3"><a xlink:href="classlyra_1_1literal.html#a0b616706829da82299d42c4a188d6408" target="_top" xlink:title=" ">
<polygon fill="white" stroke="black" points="324.5,-164 324.5,-183 427.5,-183 427.5,-164 324.5,-164"/>
<text text-anchor="middle" x="376" y="-171" font-family="Helvetica,sans-Serif" font-size="10.00">lyra::literal::parse</text>
</a>
</g>
</g>
<!-- Node1&#45;&gt;Node3 -->
<g id="edge2" class="edge">
<title>Node1&#45;&gt;Node3</title>
<path fill="none" stroke="midnightblue" d="M499.29,-135.73C484.24,-142.18 467.03,-149.11 451,-154.5 440.69,-157.97 429.39,-161.16 418.8,-163.9"/>
<polygon fill="midnightblue" stroke="midnightblue" points="501.07,-138.77 508.85,-131.57 498.28,-132.35 501.07,-138.77"/>
</g>
<!-- Node4 -->
<g id="node4" class="node">
<title>Node4</title>
<g id="a_node4"><a xlink:href="classlyra_1_1arg.html#a027ca631a2fe3824db141195371b0349" target="_top" xlink:title=" ">
<polygon fill="white" stroke="black" points="331,-126 331,-145 421,-145 421,-126 331,-126"/>
<text text-anchor="middle" x="376" y="-133" font-family="Helvetica,sans-Serif" font-size="10.00">lyra::arg::parse</text>
</a>
</g>
</g>
<!-- Node1&#45;&gt;Node4 -->
<g id="edge3" class="edge">
<title>Node1&#45;&gt;Node4</title>
<path fill="none" stroke="midnightblue" d="M476.56,-124C457.98,-126.15 438.17,-128.43 421.16,-130.4"/>
<polygon fill="midnightblue" stroke="midnightblue" points="477.19,-127.45 486.72,-122.83 476.39,-120.5 477.19,-127.45"/>
</g>
<!-- Node5 -->
<g id="node5" class="node">
<title>Node5</title>
<g id="a_node5"><a xlink:href="classlyra_1_1group.html#a8b373ee89b9aa7d62c3a2045f4dc4a3c" target="_top" xlink:title=" ">
<polygon fill="white" stroke="black" points="0,-69 0,-88 102,-88 102,-69 0,-69"/>
<text text-anchor="middle" x="51" y="-76" font-family="Helvetica,sans-Serif" font-size="10.00">lyra::group::parse</text>
</a>
</g>
</g>
<!-- Node1&#45;&gt;Node5 -->
<g id="edge4" class="edge">
<title>Node1&#45;&gt;Node5</title>
<path fill="none" stroke="midnightblue" d="M476.62,-111.46C377.8,-103.79 191.66,-89.34 102.33,-82.41"/>
<polygon fill="midnightblue" stroke="midnightblue" points="476.53,-114.97 486.77,-112.25 477.07,-107.99 476.53,-114.97"/>
</g>
<!-- Node6 -->
<g id="node6" class="node">
<title>Node6</title>
<g id="a_node6"><a xlink:href="classlyra_1_1arguments.html#a4509f3d7139b3cd823dcad3c75ae221b" target="_top" xlink:title=" ">
<polygon fill="white" stroke="black" points="301,-50 301,-69 451,-69 451,-50 301,-50"/>
<text text-anchor="middle" x="376" y="-57" font-family="Helvetica,sans-Serif" font-size="10.00">lyra::arguments::parse_any</text>
</a>
</g>
</g>
<!-- Node1&#45;&gt;Node6 -->
<g id="edge5" class="edge">
<title>Node1&#45;&gt;Node6</title>
<path fill="none" stroke="midnightblue" d="M491.29,-97.83C478.21,-93.06 464.1,-88.01 451,-83.5 436.7,-78.57 420.75,-73.37 407.33,-69.06"/>
<polygon fill="midnightblue" stroke="midnightblue" points="490.47,-101.25 501.07,-101.4 492.88,-94.68 490.47,-101.25"/>
</g>
<!-- Node8 -->
<g id="node8" class="node">
<title>Node8</title>
<g id="a_node8"><a xlink:href="classlyra_1_1arguments.html#a125da5640a06de6f9268328a252e20d2" target="_top" xlink:title=" ">
<polygon fill="white" stroke="black" points="312.5,-0.5 312.5,-30.5 439.5,-30.5 439.5,-0.5 312.5,-0.5"/>
<text text-anchor="start" x="320.5" y="-18.5" font-family="Helvetica,sans-Serif" font-size="10.00">lyra::arguments::parse</text>
<text text-anchor="middle" x="376" y="-7.5" font-family="Helvetica,sans-Serif" font-size="10.00">_sequence</text>
</a>
</g>
</g>
<!-- Node1&#45;&gt;Node8 -->
<g id="edge8" class="edge">
<title>Node1&#45;&gt;Node8</title>
<path fill="none" stroke="midnightblue" d="M519.77,-94.19C502.46,-77.47 476.9,-55.06 451,-40.5 444.38,-36.78 437.12,-33.49 429.81,-30.62"/>
<polygon fill="midnightblue" stroke="midnightblue" points="517.54,-96.9 527.12,-101.42 522.45,-91.91 517.54,-96.9"/>
</g>
<!-- Node7 -->
<g id="node7" class="node">
<title>Node7</title>
<g id="a_node7"><a xlink:href="classlyra_1_1arguments.html#abaa776f2a0b2c57de970cf35bd59c47c" target="_top" xlink:title=" ">
<polygon fill="white" stroke="black" points="138,-50 138,-69 265,-69 265,-50 138,-50"/>
<text text-anchor="middle" x="201.5" y="-57" font-family="Helvetica,sans-Serif" font-size="10.00">lyra::arguments::parse</text>
</a>
</g>
</g>
<!-- Node6&#45;&gt;Node7 -->
<g id="edge6" class="edge">
<title>Node6&#45;&gt;Node7</title>
<path fill="none" stroke="midnightblue" d="M290.77,-59.5C282.17,-59.5 273.54,-59.5 265.22,-59.5"/>
<polygon fill="midnightblue" stroke="midnightblue" points="290.84,-63 300.84,-59.5 290.84,-56 290.84,-63"/>
</g>
<!-- Node7&#45;&gt;Node5 -->
<g id="edge7" class="edge">
<title>Node7&#45;&gt;Node5</title>
<path fill="none" stroke="midnightblue" d="M127.85,-68.8C119.21,-69.9 110.54,-71.01 102.31,-72.06"/>
<polygon fill="midnightblue" stroke="midnightblue" points="128.48,-72.24 137.95,-67.5 127.59,-65.3 128.48,-72.24"/>
</g>
<!-- Node8&#45;&gt;Node7 -->
<g id="edge9" class="edge">
<title>Node8&#45;&gt;Node7</title>
<path fill="none" stroke="midnightblue" d="M306.19,-33.05C283.53,-38.83 259.19,-45.04 239.79,-49.99"/>
<polygon fill="midnightblue" stroke="midnightblue" points="307.29,-36.38 316.12,-30.52 305.56,-29.6 307.29,-36.38"/>
</g>
</g>
</svg>
