<?xml version="1.0" encoding="UTF-8" standalone="no"?>
<!DOCTYPE svg PUBLIC "-//W3C//DTD SVG 1.1//EN"
 "http://www.w3.org/Graphics/SVG/1.1/DTD/svg11.dtd">
<!-- Generated by graphviz version 2.43.0 (0)
 -->
<!-- Title: MainNamespace::DH2MatrixWrapper::build Pages: 1 -->
<!--zoomable 716 -->
<svg id="main" version="1.1" xmlns="http://www.w3.org/2000/svg" xmlns:xlink="http://www.w3.org/1999/xlink" xml:space="preserve" onload="init(evt)">
<style type="text/css"><![CDATA[
.edge:hover path { stroke: red; }
.edge:hover polygon { stroke: red; fill: red; }
]]></style>
<script type="text/javascript"><![CDATA[
var edges = document.getElementsByTagName('g');
if (edges && edges.length) {
  for (var i=0;i<edges.length;i++) {
    if (edges[i].id.substr(0,4)=='edge') {
      edges[i].setAttribute('class','edge');
    }
  }
}
]]></script>
        <defs>
                <circle id="rim" cx="0" cy="0" r="7"/>
                <circle id="rim2" cx="0" cy="0" r="3.5"/>
                <g id="zoomPlus">
                        <use xlink:href="#rim" fill="#404040">
                                <set attributeName="fill" to="#808080" begin="zoomplus.mouseover" end="zoomplus.mouseout"/>
                        </use>
                        <path d="M-4,0h8M0,-4v8" fill="none" stroke="white" stroke-width="1.5" pointer-events="none"/>
                </g>
                <g id="zoomMin">
                        <use xlink:href="#rim" fill="#404040">
                                <set attributeName="fill" to="#808080" begin="zoomminus.mouseover" end="zoomminus.mouseout"/>
                        </use>
                        <path d="M-4,0h8" fill="none" stroke="white" stroke-width="1.5" pointer-events="none"/>
                </g>
                <g id="dirArrow">
                        <path fill="none" stroke="white" stroke-width="1.5" d="M0,-3.0v7 M-2.5,-0.5L0,-3.0L2.5,-0.5"/>
                </g>
               <g id="resetDef">
                       <use xlink:href="#rim2" fill="#404040">
                               <set attributeName="fill" to="#808080" begin="reset.mouseover" end="reset.mouseout"/>
                       </use>
               </g>
        </defs>

<script type="text/javascript">
var viewWidth = 1363;
var viewHeight = 716;
var sectionId = 'dynsection-3';
</script>
<script xlink:href="svgpan.js"/>
<svg id="graph" class="graph">
<g id="viewport">
<title>MainNamespace::DH2MatrixWrapper::build</title>
<polygon fill="white" stroke="transparent" points="-4,4 -4,-711.5 1359,-711.5 1359,4 -4,4"/>
<!-- Node1 -->
<g id="node1" class="node">
<title>Node1</title>
<g id="a_node1"><a xlink:title="Take ownership of, the pointer to the bem description and build the matrix and all needed data struct...">
<polygon fill="#bfbfbf" stroke="black" points="0,-241 0,-271 157,-271 157,-241 0,-241"/>
<text text-anchor="start" x="8" y="-259" font-family="Helvetica,sans-Serif" font-size="10.00">MainNamespace::DH2Matrix</text>
<text text-anchor="middle" x="78.5" y="-248" font-family="Helvetica,sans-Serif" font-size="10.00">Wrapper::build</text>
</a>
</g>
</g>
<!-- Node2 -->
<g id="node2" class="node">
<title>Node2</title>
<g id="a_node2"><a xlink:href="namespace_main_namespace.html#aaa553a0feb6a9e785dce2ea7c2f25481" target="_top" xlink:title="Build a dh2matrix for the operator described by bemDescription, using the given clusters.">
<polygon fill="white" stroke="black" points="193,-455.5 193,-474.5 364,-474.5 364,-455.5 193,-455.5"/>
<text text-anchor="middle" x="278.5" y="-462.5" font-family="Helvetica,sans-Serif" font-size="10.00">MainNamespace::buildOperator</text>
</a>
</g>
</g>
<!-- Node1&#45;&gt;Node2 -->
<g id="edge1" class="edge">
<title>Node1&#45;&gt;Node2</title>
<path fill="none" stroke="midnightblue" d="M93.74,-271.03C129.58,-308.86 223.34,-407.83 261.25,-447.84"/>
<polygon fill="midnightblue" stroke="midnightblue" points="258.83,-450.38 268.25,-455.23 263.91,-445.57 258.83,-450.38"/>
</g>
<!-- Node7 -->
<g id="node7" class="node">
<title>Node7</title>
<g id="a_node7"><a xlink:href="namespace_main_namespace_1_1_logger.html#afbb4cc2d8b498e71fcb228f0da8309a1" target="_top" xlink:title=" ">
<polygon fill="white" stroke="black" points="831.5,-189.5 831.5,-208.5 989.5,-208.5 989.5,-189.5 831.5,-189.5"/>
<text text-anchor="middle" x="910.5" y="-196.5" font-family="Helvetica,sans-Serif" font-size="10.00">MainNamespace::Logger::log</text>
</a>
</g>
</g>
<!-- Node1&#45;&gt;Node7 -->
<g id="edge46" class="edge">
<title>Node1&#45;&gt;Node7</title>
<path fill="none" stroke="midnightblue" d="M103.67,-240.81C155.6,-209.03 282.62,-135.87 400,-104 568.33,-58.3 630.35,-19.47 792,-85 840.07,-104.49 879.31,-154.12 897.89,-181.02"/>
<polygon fill="midnightblue" stroke="midnightblue" points="895.1,-183.14 903.58,-189.5 900.91,-179.24 895.1,-183.14"/>
</g>
<!-- Node9 -->
<g id="node9" class="node">
<title>Node9</title>
<g id="a_node9"><a xlink:href="namespace_main_namespace.html#a81be07be2d5cb2aa7737c9551518e82b" target="_top" xlink:title=" ">
<polygon fill="white" stroke="black" points="623,-562.5 623,-581.5 786,-581.5 786,-562.5 623,-562.5"/>
<text text-anchor="middle" x="704.5" y="-569.5" font-family="Helvetica,sans-Serif" font-size="10.00">MainNamespace::progressBar</text>
</a>
</g>
</g>
<!-- Node1&#45;&gt;Node9 -->
<g id="edge47" class="edge">
<title>Node1&#45;&gt;Node9</title>
<path fill="none" stroke="midnightblue" d="M82.79,-271.26C92.34,-311.95 123.91,-423.97 193,-484 311.01,-586.53 504.12,-590.4 615.94,-582.31"/>
<polygon fill="midnightblue" stroke="midnightblue" points="616.47,-585.78 626.17,-581.52 615.93,-578.8 616.47,-585.78"/>
</g>
<!-- Node29 -->
<g id="node29" class="node">
<title>Node29</title>
<g id="a_node29"><a xlink:href="namespace_main_namespace.html#a563d3275892f06e378b075454231763f" target="_top" xlink:title=" ">
<polygon fill="white" stroke="black" points="193,-0.5 193,-19.5 364,-19.5 364,-0.5 193,-0.5"/>
<text text-anchor="middle" x="278.5" y="-7.5" font-family="Helvetica,sans-Serif" font-size="10.00">MainNamespace::cloneDcluster</text>
</a>
</g>
</g>
<!-- Node1&#45;&gt;Node29 -->
<g id="edge44" class="edge">
<title>Node1&#45;&gt;Node29</title>
<path fill="none" stroke="midnightblue" d="M84.34,-240.97C96.81,-204.27 133.34,-108.95 193,-52 205.95,-39.63 223.25,-30.17 238.82,-23.39"/>
<polygon fill="midnightblue" stroke="midnightblue" points="240.33,-26.55 248.24,-19.51 237.66,-20.08 240.33,-26.55"/>
</g>
<!-- Node3 -->
<g id="node3" class="node">
<title>Node3</title>
<g id="a_node3"><a xlink:href="namespace_main_namespace.html#a8d8fdac50b5e686e19890836bb305791" target="_top" xlink:title=" ">
<polygon fill="white" stroke="black" points="408,-513 408,-543 573,-543 573,-513 408,-513"/>
<text text-anchor="start" x="416" y="-531" font-family="Helvetica,sans-Serif" font-size="10.00">MainNamespace::buildImplicit</text>
<text text-anchor="middle" x="490.5" y="-520" font-family="Helvetica,sans-Serif" font-size="10.00">ClusterBasis</text>
</a>
</g>
</g>
<!-- Node2&#45;&gt;Node3 -->
<g id="edge2" class="edge">
<title>Node2&#45;&gt;Node3</title>
<path fill="none" stroke="midnightblue" d="M311.39,-474.57C342.57,-483.92 390.82,-498.4 429.24,-509.92"/>
<polygon fill="midnightblue" stroke="midnightblue" points="428.7,-513.41 439.28,-512.93 430.71,-506.71 428.7,-513.41"/>
</g>
<!-- Node4 -->
<g id="node4" class="node">
<title>Node4</title>
<g id="a_node4"><a xlink:href="namespace_main_namespace.html#a8b635a657e6b53278f8c3df8f0f4dd7e" target="_top" xlink:title=" ">
<polygon fill="white" stroke="black" points="834,-448.5 834,-467.5 987,-467.5 987,-448.5 834,-448.5"/>
<text text-anchor="middle" x="910.5" y="-455.5" font-family="Helvetica,sans-Serif" font-size="10.00">MainNamespace::bytes2MB</text>
</a>
</g>
</g>
<!-- Node2&#45;&gt;Node4 -->
<g id="edge18" class="edge">
<title>Node2&#45;&gt;Node4</title>
<path fill="none" stroke="midnightblue" d="M364.14,-464.06C484.13,-462.73 702.52,-460.3 823.34,-458.96"/>
<polygon fill="midnightblue" stroke="midnightblue" points="823.69,-462.45 833.65,-458.84 823.62,-455.45 823.69,-462.45"/>
</g>
<!-- Node5 -->
<g id="node5" class="node">
<title>Node5</title>
<g id="a_node5"><a xlink:href="namespace_main_namespace.html#a1a47811df49aff58a267d9845ae9da15" target="_top" xlink:title=" ">
<polygon fill="white" stroke="black" points="633,-486.5 633,-505.5 776,-505.5 776,-486.5 633,-486.5"/>
<text text-anchor="middle" x="704.5" y="-493.5" font-family="Helvetica,sans-Serif" font-size="10.00">MainNamespace::kBRatio</text>
</a>
</g>
</g>
<!-- Node2&#45;&gt;Node5 -->
<g id="edge31" class="edge">
<title>Node2&#45;&gt;Node5</title>
<path fill="none" stroke="midnightblue" d="M364.03,-471.18C439.25,-476.68 548.52,-484.67 622.62,-490.09"/>
<polygon fill="midnightblue" stroke="midnightblue" points="622.6,-493.59 632.83,-490.83 623.11,-486.61 622.6,-493.59"/>
</g>
<!-- Node2&#45;&gt;Node7 -->
<g id="edge32" class="edge">
<title>Node2&#45;&gt;Node7</title>
<path fill="none" stroke="midnightblue" d="M286.96,-455.31C319.94,-413.37 458.12,-247.28 617,-194 697,-167.17 796.36,-177.27 856.25,-187.67"/>
<polygon fill="midnightblue" stroke="midnightblue" points="855.78,-191.14 866.24,-189.47 857.02,-184.25 855.78,-191.14"/>
</g>
<!-- Node11 -->
<g id="node11" class="node">
<title>Node11</title>
<g id="a_node11"><a xlink:href="namespace_main_namespace.html#af2de50bf4da80fb75ac77bb7bdce2f40" target="_top" xlink:title=" ">
<polygon fill="white" stroke="black" points="617,-600.5 617,-619.5 792,-619.5 792,-600.5 617,-600.5"/>
<text text-anchor="middle" x="704.5" y="-607.5" font-family="Helvetica,sans-Serif" font-size="10.00">MainNamespace::timeExecution</text>
</a>
</g>
</g>
<!-- Node2&#45;&gt;Node11 -->
<g id="edge43" class="edge">
<title>Node2&#45;&gt;Node11</title>
<path fill="none" stroke="midnightblue" d="M289.46,-474.76C308.93,-493.21 354.11,-533.15 400,-553 465.72,-581.43 545.48,-595.71 606.74,-602.86"/>
<polygon fill="midnightblue" stroke="midnightblue" points="606.46,-606.35 616.79,-603.99 607.25,-599.4 606.46,-606.35"/>
</g>
<!-- Node17 -->
<g id="node17" class="node">
<title>Node17</title>
<g id="a_node17"><a xlink:href="namespace_main_namespace.html#ab0c0b0cb1d9d667bc93cb8e377796c8a" target="_top" xlink:title=" ">
<polygon fill="white" stroke="black" points="404,-367 404,-397 577,-397 577,-367 404,-367"/>
<text text-anchor="start" x="412" y="-385" font-family="Helvetica,sans-Serif" font-size="10.00">MainNamespace::compressRow</text>
<text text-anchor="middle" x="490.5" y="-374" font-family="Helvetica,sans-Serif" font-size="10.00">ColumnFar</text>
</a>
</g>
</g>
<!-- Node2&#45;&gt;Node17 -->
<g id="edge19" class="edge">
<title>Node2&#45;&gt;Node17</title>
<path fill="none" stroke="midnightblue" d="M303.59,-455.48C337.24,-442.18 399.03,-417.76 442.1,-400.73"/>
<polygon fill="midnightblue" stroke="midnightblue" points="443.52,-403.94 451.53,-397.01 440.94,-397.43 443.52,-403.94"/>
</g>
<!-- Node21 -->
<g id="node21" class="node">
<title>Node21</title>
<g id="a_node21"><a xlink:href="namespace_main_namespace.html#a595f92c9feef4f77b05ba85969525fe1" target="_top" xlink:title=" ">
<polygon fill="white" stroke="black" points="400,-113.5 400,-132.5 581,-132.5 581,-113.5 400,-113.5"/>
<text text-anchor="middle" x="490.5" y="-120.5" font-family="Helvetica,sans-Serif" font-size="10.00">MainNamespace::makeDirections</text>
</a>
</g>
</g>
<!-- Node2&#45;&gt;Node21 -->
<g id="edge33" class="edge">
<title>Node2&#45;&gt;Node21</title>
<path fill="none" stroke="midnightblue" d="M280.82,-455.38C286.81,-414.93 315.04,-256.65 400,-166 412.51,-152.65 430.04,-142.97 446.27,-136.23"/>
<polygon fill="midnightblue" stroke="midnightblue" points="447.58,-139.47 455.63,-132.58 445.04,-132.95 447.58,-139.47"/>
</g>
<!-- Node26 -->
<g id="node26" class="node">
<title>Node26</title>
<g id="a_node26"><a xlink:href="namespace_main_namespace.html#ab762b20c1f4f516b4c9043ce99d64ea9" target="_top" xlink:title=" ">
<polygon fill="white" stroke="black" points="407,-676.5 407,-695.5 574,-695.5 574,-676.5 407,-676.5"/>
<text text-anchor="middle" x="490.5" y="-683.5" font-family="Helvetica,sans-Serif" font-size="10.00">MainNamespace::percentRatio</text>
</a>
</g>
</g>
<!-- Node2&#45;&gt;Node26 -->
<g id="edge39" class="edge">
<title>Node2&#45;&gt;Node26</title>
<path fill="none" stroke="midnightblue" d="M282.29,-474.95C292.14,-508.16 328.6,-615.91 400,-667 402.57,-668.84 405.27,-670.5 408.08,-672.01"/>
<polygon fill="midnightblue" stroke="midnightblue" points="406.82,-675.28 417.36,-676.32 409.77,-668.93 406.82,-675.28"/>
</g>
<!-- Node27 -->
<g id="node27" class="node">
<title>Node27</title>
<g id="a_node27"><a xlink:href="namespace_main_namespace.html#a78e94b3a3cdc51d20e1c665b3c4dd432" target="_top" xlink:title=" ">
<polygon fill="white" stroke="black" points="415,-638.5 415,-657.5 566,-657.5 566,-638.5 415,-638.5"/>
<text text-anchor="middle" x="490.5" y="-645.5" font-family="Helvetica,sans-Serif" font-size="10.00">MainNamespace::reference</text>
</a>
</g>
</g>
<!-- Node2&#45;&gt;Node27 -->
<g id="edge40" class="edge">
<title>Node2&#45;&gt;Node27</title>
<path fill="none" stroke="midnightblue" d="M283.93,-474.62C297.23,-502.42 339.65,-583.4 400,-624 406.64,-628.47 414.09,-632.11 421.77,-635.07"/>
<polygon fill="midnightblue" stroke="midnightblue" points="420.62,-638.37 431.21,-638.36 422.92,-631.76 420.62,-638.37"/>
</g>
<!-- Node3&#45;&gt;Node4 -->
<g id="edge3" class="edge">
<title>Node3&#45;&gt;Node4</title>
<path fill="none" stroke="midnightblue" d="M573.14,-533.33C634.32,-535.2 719.6,-533.29 792,-515 826.58,-506.26 863.04,-486.74 886,-472.98"/>
<polygon fill="midnightblue" stroke="midnightblue" points="887.98,-475.88 894.68,-467.67 884.33,-469.9 887.98,-475.88"/>
</g>
<!-- Node3&#45;&gt;Node5 -->
<g id="edge4" class="edge">
<title>Node3&#45;&gt;Node5</title>
<path fill="none" stroke="midnightblue" d="M573.16,-515.67C591.96,-512.84 611.84,-509.84 630.25,-507.06"/>
<polygon fill="midnightblue" stroke="midnightblue" points="630.95,-510.49 640.32,-505.54 629.9,-503.57 630.95,-510.49"/>
</g>
<!-- Node3&#45;&gt;Node7 -->
<g id="edge6" class="edge">
<title>Node3&#45;&gt;Node7</title>
<path fill="none" stroke="midnightblue" d="M505.71,-512.8C525.36,-491 560.7,-448.85 581,-407 607.54,-352.29 573.23,-317.22 617,-275 674.5,-219.54 714.8,-254.52 792,-234 817.98,-227.09 846.93,-218.48 869.59,-211.53"/>
<polygon fill="midnightblue" stroke="midnightblue" points="870.68,-214.85 879.21,-208.56 868.62,-208.17 870.68,-214.85"/>
</g>
<!-- Node3&#45;&gt;Node9 -->
<g id="edge8" class="edge">
<title>Node3&#45;&gt;Node9</title>
<path fill="none" stroke="midnightblue" d="M563.87,-543.02C591.29,-548.71 622.07,-555.1 647.74,-560.43"/>
<polygon fill="midnightblue" stroke="midnightblue" points="647.16,-563.88 657.67,-562.49 648.59,-557.03 647.16,-563.88"/>
</g>
<!-- Node3&#45;&gt;Node11 -->
<g id="edge10" class="edge">
<title>Node3&#45;&gt;Node11</title>
<path fill="none" stroke="midnightblue" d="M517.1,-543.24C541.9,-557.41 580.92,-578.21 617,-591 624.34,-593.6 632.15,-595.92 639.98,-597.96"/>
<polygon fill="midnightblue" stroke="midnightblue" points="639.3,-601.4 649.85,-600.4 640.98,-594.6 639.3,-601.4"/>
</g>
<!-- Node6 -->
<g id="node6" class="node">
<title>Node6</title>
<g id="a_node6"><a xlink:href="namespace_main_namespace.html#a676f5efd45b0c88c4ef129b59e69ac71" target="_top" xlink:title=" ">
<polygon fill="white" stroke="black" points="835,-397.5 835,-416.5 986,-416.5 986,-397.5 835,-397.5"/>
<text text-anchor="middle" x="910.5" y="-404.5" font-family="Helvetica,sans-Serif" font-size="10.00">MainNamespace::bytes2KB</text>
</a>
</g>
</g>
<!-- Node5&#45;&gt;Node6 -->
<g id="edge5" class="edge">
<title>Node5&#45;&gt;Node6</title>
<path fill="none" stroke="midnightblue" d="M725.28,-486.34C749.35,-474.69 791.35,-454.71 828,-439 843.1,-432.53 859.97,-425.82 874.43,-420.23"/>
<polygon fill="midnightblue" stroke="midnightblue" points="875.93,-423.4 884.01,-416.55 873.42,-416.87 875.93,-423.4"/>
</g>
<!-- Node8 -->
<g id="node8" class="node">
<title>Node8</title>
<g id="a_node8"><a xlink:href="namespace_main_namespace_1_1_logger.html#af052b0198f333fca77f0837a511ec7f7" target="_top" xlink:title=" ">
<polygon fill="white" stroke="black" points="1046.5,-184 1046.5,-214 1183.5,-214 1183.5,-184 1046.5,-184"/>
<text text-anchor="start" x="1054.5" y="-202" font-family="Helvetica,sans-Serif" font-size="10.00">MainNamespace::Logger</text>
<text text-anchor="middle" x="1115" y="-191" font-family="Helvetica,sans-Serif" font-size="10.00">::forwardLog</text>
</a>
</g>
</g>
<!-- Node7&#45;&gt;Node8 -->
<g id="edge7" class="edge">
<title>Node7&#45;&gt;Node8</title>
<path fill="none" stroke="midnightblue" d="M989.5,-199C1004.71,-199 1020.66,-199 1035.87,-199"/>
<polygon fill="midnightblue" stroke="midnightblue" points="1036.27,-202.5 1046.27,-199 1036.27,-195.5 1036.27,-202.5"/>
</g>
<!-- Node10 -->
<g id="node10" class="node">
<title>Node10</title>
<g id="a_node10"><a xlink:href="namespace_main_namespace.html#a6fd76e14adc7d23a9822334cb389b369" target="_top" xlink:title=" ">
<polygon fill="white" stroke="black" points="1029,-562.5 1029,-581.5 1201,-581.5 1201,-562.5 1029,-562.5"/>
<text text-anchor="middle" x="1115" y="-569.5" font-family="Helvetica,sans-Serif" font-size="10.00">MainNamespace::globalOptions</text>
</a>
</g>
</g>
<!-- Node9&#45;&gt;Node10 -->
<g id="edge9" class="edge">
<title>Node9&#45;&gt;Node10</title>
<path fill="none" stroke="midnightblue" d="M786.21,-572C853.02,-572 948.1,-572 1018.66,-572"/>
<polygon fill="midnightblue" stroke="midnightblue" points="1018.89,-575.5 1028.89,-572 1018.89,-568.5 1018.89,-575.5"/>
</g>
<!-- Node12 -->
<g id="node12" class="node">
<title>Node12</title>
<g id="a_node12"><a xlink:href="namespace_main_namespace.html#a29e3c10e67bcebfcf74b31964747e0d8" target="_top" xlink:title=" ">
<polygon fill="white" stroke="black" points="830.5,-600.5 830.5,-619.5 990.5,-619.5 990.5,-600.5 830.5,-600.5"/>
<text text-anchor="middle" x="910.5" y="-607.5" font-family="Helvetica,sans-Serif" font-size="10.00">MainNamespace::startTiming</text>
</a>
</g>
</g>
<!-- Node11&#45;&gt;Node12 -->
<g id="edge11" class="edge">
<title>Node11&#45;&gt;Node12</title>
<path fill="none" stroke="midnightblue" d="M792.01,-610C801.34,-610 810.85,-610 820.22,-610"/>
<polygon fill="midnightblue" stroke="midnightblue" points="820.3,-613.5 830.3,-610 820.3,-606.5 820.3,-613.5"/>
</g>
<!-- Node14 -->
<g id="node14" class="node">
<title>Node14</title>
<g id="a_node14"><a xlink:href="namespace_main_namespace.html#a03589b500835850f32276c9983678dc8" target="_top" xlink:title=" ">
<polygon fill="white" stroke="black" points="831.5,-521.5 831.5,-540.5 989.5,-540.5 989.5,-521.5 831.5,-521.5"/>
<text text-anchor="middle" x="910.5" y="-528.5" font-family="Helvetica,sans-Serif" font-size="10.00">MainNamespace::stopTiming</text>
</a>
</g>
</g>
<!-- Node11&#45;&gt;Node14 -->
<g id="edge14" class="edge">
<title>Node11&#45;&gt;Node14</title>
<path fill="none" stroke="midnightblue" d="M759.17,-600.45C770.18,-597.87 781.58,-594.74 792,-591 825.54,-578.98 861.71,-559.41 884.92,-545.91"/>
<polygon fill="midnightblue" stroke="midnightblue" points="886.91,-548.8 893.74,-540.71 883.35,-542.77 886.91,-548.8"/>
</g>
<!-- Node12&#45;&gt;Node10 -->
<g id="edge12" class="edge">
<title>Node12&#45;&gt;Node10</title>
<path fill="none" stroke="midnightblue" d="M962.34,-600.46C989.9,-595.29 1024.15,-588.86 1053.13,-583.42"/>
<polygon fill="midnightblue" stroke="midnightblue" points="1053.96,-586.83 1063.14,-581.54 1052.67,-579.95 1053.96,-586.83"/>
</g>
<!-- Node13 -->
<g id="node13" class="node">
<title>Node13</title>
<g id="a_node13"><a xlink:href="class_main_namespace_1_1_clocks.html#a0a4ef648fba7c4c6765db19c6a4a6c46" target="_top" xlink:title=" ">
<polygon fill="white" stroke="black" points="1046.5,-601 1046.5,-631 1183.5,-631 1183.5,-601 1046.5,-601"/>
<text text-anchor="start" x="1054.5" y="-619" font-family="Helvetica,sans-Serif" font-size="10.00">MainNamespace::Clocks</text>
<text text-anchor="middle" x="1115" y="-608" font-family="Helvetica,sans-Serif" font-size="10.00">::start</text>
</a>
</g>
</g>
<!-- Node12&#45;&gt;Node13 -->
<g id="edge13" class="edge">
<title>Node12&#45;&gt;Node13</title>
<path fill="none" stroke="midnightblue" d="M990.66,-612.35C1005.62,-612.79 1021.26,-613.25 1036.18,-613.69"/>
<polygon fill="midnightblue" stroke="midnightblue" points="1036.28,-617.2 1046.38,-614 1036.49,-610.2 1036.28,-617.2"/>
</g>
<!-- Node14&#45;&gt;Node10 -->
<g id="edge15" class="edge">
<title>Node14&#45;&gt;Node10</title>
<path fill="none" stroke="midnightblue" d="M958.47,-540.51C987.88,-546.46 1025.97,-554.18 1057.1,-560.48"/>
<polygon fill="midnightblue" stroke="midnightblue" points="1056.44,-563.92 1066.94,-562.47 1057.83,-557.06 1056.44,-563.92"/>
</g>
<!-- Node15 -->
<g id="node15" class="node">
<title>Node15</title>
<g id="a_node15"><a xlink:href="class_main_namespace_1_1_clocks.html#ae0f6374bfcfdbb939449238eabb488ab" target="_top" xlink:title=" ">
<polygon fill="white" stroke="black" points="1046.5,-513 1046.5,-543 1183.5,-543 1183.5,-513 1046.5,-513"/>
<text text-anchor="start" x="1054.5" y="-531" font-family="Helvetica,sans-Serif" font-size="10.00">MainNamespace::Clocks</text>
<text text-anchor="middle" x="1115" y="-520" font-family="Helvetica,sans-Serif" font-size="10.00">::readAll</text>
</a>
</g>
</g>
<!-- Node14&#45;&gt;Node15 -->
<g id="edge16" class="edge">
<title>Node14&#45;&gt;Node15</title>
<path fill="none" stroke="midnightblue" d="M989.5,-529.84C1004.71,-529.62 1020.66,-529.38 1035.87,-529.16"/>
<polygon fill="midnightblue" stroke="midnightblue" points="1036.32,-532.65 1046.27,-529 1036.22,-525.65 1036.32,-532.65"/>
</g>
<!-- Node16 -->
<g id="node16" class="node">
<title>Node16</title>
<g id="a_node16"><a xlink:href="namespacelyra_1_1detail.html#ae65bbfceff11344e7ae2b7f28bebcdb7" target="_top" xlink:title=" ">
<polygon fill="white" stroke="black" points="1237,-518.5 1237,-537.5 1355,-537.5 1355,-518.5 1237,-518.5"/>
<text text-anchor="middle" x="1296" y="-525.5" font-family="Helvetica,sans-Serif" font-size="10.00">lyra::detail::to_string</text>
</a>
</g>
</g>
<!-- Node15&#45;&gt;Node16 -->
<g id="edge17" class="edge">
<title>Node15&#45;&gt;Node16</title>
<path fill="none" stroke="midnightblue" d="M1183.67,-528C1197.77,-528 1212.64,-528 1226.77,-528"/>
<polygon fill="midnightblue" stroke="midnightblue" points="1226.89,-531.5 1236.89,-528 1226.89,-524.5 1226.89,-531.5"/>
</g>
<!-- Node17&#45;&gt;Node7 -->
<g id="edge23" class="edge">
<title>Node17&#45;&gt;Node7</title>
<path fill="none" stroke="midnightblue" d="M500.2,-366.62C517.91,-336.91 561.21,-271.97 617,-242 679.73,-208.3 760.36,-198.5 821.08,-196.59"/>
<polygon fill="midnightblue" stroke="midnightblue" points="821.5,-200.08 831.41,-196.33 821.33,-193.08 821.5,-200.08"/>
</g>
<!-- Node17&#45;&gt;Node9 -->
<g id="edge24" class="edge">
<title>Node17&#45;&gt;Node9</title>
<path fill="none" stroke="midnightblue" d="M503.69,-397.04C525.04,-422.88 571.29,-476.62 617,-515 636.12,-531.05 659.93,-546.46 677.73,-557.19"/>
<polygon fill="midnightblue" stroke="midnightblue" points="676.05,-560.26 686.44,-562.36 679.62,-554.25 676.05,-560.26"/>
</g>
<!-- Node17&#45;&gt;Node12 -->
<g id="edge29" class="edge">
<title>Node17&#45;&gt;Node12</title>
<path fill="none" stroke="midnightblue" d="M559.87,-397.02C637.2,-415.13 756.92,-446.88 792,-477 819.45,-500.56 804.77,-522.27 828,-550 843.56,-568.58 866.02,-584.56 883.42,-595.35"/>
<polygon fill="midnightblue" stroke="midnightblue" points="881.62,-598.35 892,-600.5 885.23,-592.35 881.62,-598.35"/>
</g>
<!-- Node17&#45;&gt;Node14 -->
<g id="edge30" class="edge">
<title>Node17&#45;&gt;Node14</title>
<path fill="none" stroke="midnightblue" d="M577.11,-367.73C641.54,-361.67 729.19,-363.89 792,-406 821.39,-425.7 804.47,-450.58 828,-477 842.67,-493.47 863.44,-507.13 880.34,-516.6"/>
<polygon fill="midnightblue" stroke="midnightblue" points="878.81,-519.75 889.27,-521.41 882.13,-513.58 878.81,-519.75"/>
</g>
<!-- Node18 -->
<g id="node18" class="node">
<title>Node18</title>
<g id="a_node18"><a xlink:href="namespace_main_namespace.html#a4e7ea1c2ee502be36c9be19ea1c5ada3" target="_top" xlink:title=" ">
<polygon fill="white" stroke="black" points="643.5,-284.5 643.5,-303.5 765.5,-303.5 765.5,-284.5 643.5,-284.5"/>
<text text-anchor="middle" x="704.5" y="-291.5" font-family="Helvetica,sans-Serif" font-size="10.00">MainNamespace::eps</text>
</a>
</g>
</g>
<!-- Node17&#45;&gt;Node18 -->
<g id="edge20" class="edge">
<title>Node17&#45;&gt;Node18</title>
<path fill="none" stroke="midnightblue" d="M514.65,-366.98C539.17,-351.67 579.45,-328.21 617,-314 624.87,-311.02 633.33,-308.4 641.75,-306.12"/>
<polygon fill="midnightblue" stroke="midnightblue" points="642.77,-309.48 651.59,-303.61 641.04,-302.69 642.77,-309.48"/>
</g>
<!-- Node20 -->
<g id="node20" class="node">
<title>Node20</title>
<g id="a_node20"><a xlink:href="namespace_main_namespace.html#a616c9a4091e842c4469e1ceffc02b864" target="_top" xlink:title=" ">
<polygon fill="white" stroke="black" points="620.5,-323 620.5,-353 788.5,-353 788.5,-323 620.5,-323"/>
<text text-anchor="start" x="628.5" y="-341" font-family="Helvetica,sans-Serif" font-size="10.00">MainNamespace::reportCluster</text>
<text text-anchor="middle" x="704.5" y="-330" font-family="Helvetica,sans-Serif" font-size="10.00">Compression</text>
</a>
</g>
</g>
<!-- Node17&#45;&gt;Node20 -->
<g id="edge25" class="edge">
<title>Node17&#45;&gt;Node20</title>
<path fill="none" stroke="midnightblue" d="M563.87,-366.98C582.35,-363.14 602.37,-358.99 621.31,-355.06"/>
<polygon fill="midnightblue" stroke="midnightblue" points="622.02,-358.49 631.1,-353.03 620.6,-351.63 622.02,-358.49"/>
</g>
<!-- Node18&#45;&gt;Node10 -->
<g id="edge22" class="edge">
<title>Node18&#45;&gt;Node10</title>
<path fill="none" stroke="midnightblue" d="M753.7,-303.54C827,-319.03 961.32,-351.61 993,-388 1042.29,-444.61 976.06,-499.79 1029,-553 1030.28,-554.29 1031.63,-555.5 1033.04,-556.64"/>
<polygon fill="midnightblue" stroke="midnightblue" points="1031.41,-559.75 1041.68,-562.36 1035.27,-553.92 1031.41,-559.75"/>
</g>
<!-- Node19 -->
<g id="node19" class="node">
<title>Node19</title>
<g id="a_node19"><a xlink:href="struct_main_namespace_1_1_options.html#ad8a5dac97faa38719a378d695f4c3b6b" target="_top" xlink:title=" ">
<polygon fill="white" stroke="black" points="828,-284.5 828,-303.5 993,-303.5 993,-284.5 828,-284.5"/>
<text text-anchor="middle" x="910.5" y="-291.5" font-family="Helvetica,sans-Serif" font-size="10.00">MainNamespace::Options::eps</text>
</a>
</g>
</g>
<!-- Node18&#45;&gt;Node19 -->
<g id="edge21" class="edge">
<title>Node18&#45;&gt;Node19</title>
<path fill="none" stroke="midnightblue" d="M765.6,-294C781.91,-294 799.95,-294 817.58,-294"/>
<polygon fill="midnightblue" stroke="midnightblue" points="817.9,-297.5 827.9,-294 817.9,-290.5 817.9,-297.5"/>
</g>
<!-- Node20&#45;&gt;Node4 -->
<g id="edge27" class="edge">
<title>Node20&#45;&gt;Node4</title>
<path fill="none" stroke="midnightblue" d="M766.43,-353.16C775.55,-357.07 784.43,-361.94 792,-368 815.69,-386.95 804.69,-406.58 828,-426 837.58,-433.98 849.39,-440.14 861.01,-444.81"/>
<polygon fill="midnightblue" stroke="midnightblue" points="860.09,-448.2 870.68,-448.4 862.53,-441.64 860.09,-448.2"/>
</g>
<!-- Node20&#45;&gt;Node6 -->
<g id="edge26" class="edge">
<title>Node20&#45;&gt;Node6</title>
<path fill="none" stroke="midnightblue" d="M750.02,-353.06C786.4,-365.36 837.28,-382.57 871.71,-394.22"/>
<polygon fill="midnightblue" stroke="midnightblue" points="870.8,-397.6 881.39,-397.49 873.04,-390.97 870.8,-397.6"/>
</g>
<!-- Node20&#45;&gt;Node7 -->
<g id="edge28" class="edge">
<title>Node20&#45;&gt;Node7</title>
<path fill="none" stroke="midnightblue" d="M771.78,-322.86C778.84,-320.08 785.72,-316.82 792,-313 811.87,-300.9 811.48,-291.39 828,-275 849.24,-253.92 874.57,-230.57 891.29,-215.38"/>
<polygon fill="midnightblue" stroke="midnightblue" points="893.69,-217.94 898.75,-208.63 888.99,-212.75 893.69,-217.94"/>
</g>
<!-- Node21&#45;&gt;Node7 -->
<g id="edge38" class="edge">
<title>Node21&#45;&gt;Node7</title>
<path fill="none" stroke="midnightblue" d="M579.81,-132.53C639.96,-139.78 721.23,-151.07 792,-166 818.37,-171.56 847.54,-179.74 870.21,-186.57"/>
<polygon fill="midnightblue" stroke="midnightblue" points="869.24,-189.93 879.83,-189.5 871.28,-183.23 869.24,-189.93"/>
</g>
<!-- Node22 -->
<g id="node22" class="node">
<title>Node22</title>
<g id="a_node22"><a xlink:href="namespace_main_namespace.html#ad6c9cb208aad8941d4a3efa626110c5b" target="_top" xlink:title=" ">
<polygon fill="white" stroke="black" points="640.5,-18.5 640.5,-37.5 768.5,-37.5 768.5,-18.5 640.5,-18.5"/>
<text text-anchor="middle" x="704.5" y="-25.5" font-family="Helvetica,sans-Serif" font-size="10.00">MainNamespace::copy</text>
</a>
</g>
</g>
<!-- Node21&#45;&gt;Node22 -->
<g id="edge34" class="edge">
<title>Node21&#45;&gt;Node22</title>
<path fill="none" stroke="midnightblue" d="M512.99,-113.37C550.87,-96.4 629.59,-61.12 673.04,-41.65"/>
<polygon fill="midnightblue" stroke="midnightblue" points="674.57,-44.8 682.26,-37.52 671.71,-38.41 674.57,-44.8"/>
</g>
<!-- Node25 -->
<g id="node25" class="node">
<title>Node25</title>
<g id="a_node25"><a xlink:href="namespace_main_namespace.html#a02c8bef81335a9abf6f7c56770f0c7a1" target="_top" xlink:title=" ">
<polygon fill="white" stroke="black" points="644.5,-94.5 644.5,-113.5 764.5,-113.5 764.5,-94.5 644.5,-94.5"/>
<text text-anchor="middle" x="704.5" y="-101.5" font-family="Helvetica,sans-Serif" font-size="10.00">MainNamespace::init</text>
</a>
</g>
</g>
<!-- Node21&#45;&gt;Node25 -->
<g id="edge37" class="edge">
<title>Node21&#45;&gt;Node25</title>
<path fill="none" stroke="midnightblue" d="M581.1,-114.97C598.79,-113.38 617.1,-111.74 634,-110.23"/>
<polygon fill="midnightblue" stroke="midnightblue" points="634.68,-113.68 644.32,-109.3 634.05,-106.71 634.68,-113.68"/>
</g>
<!-- Node23 -->
<g id="node23" class="node">
<title>Node23</title>
<g id="a_node23"><a xlink:href="namespace_main_namespace.html#a066656219cf67ef84d18b17a7daae845" target="_top" xlink:title=" ">
<polygon fill="white" stroke="black" points="831,-18.5 831,-37.5 990,-37.5 990,-18.5 831,-18.5"/>
<text text-anchor="middle" x="910.5" y="-25.5" font-family="Helvetica,sans-Serif" font-size="10.00">MainNamespace::maybeFree</text>
</a>
</g>
</g>
<!-- Node22&#45;&gt;Node23 -->
<g id="edge35" class="edge">
<title>Node22&#45;&gt;Node23</title>
<path fill="none" stroke="midnightblue" d="M768.65,-28C785.08,-28 803.1,-28 820.59,-28"/>
<polygon fill="midnightblue" stroke="midnightblue" points="820.82,-31.5 830.82,-28 820.82,-24.5 820.82,-31.5"/>
</g>
<!-- Node24 -->
<g id="node24" class="node">
<title>Node24</title>
<g id="a_node24"><a xlink:href="namespace_main_namespace_1_1_c_functions.html#a4c174a200de18d1f8aa4f313eef7513a" target="_top" xlink:title=" ">
<polygon fill="white" stroke="black" points="1036,-13 1036,-43 1194,-43 1194,-13 1036,-13"/>
<text text-anchor="start" x="1044" y="-31" font-family="Helvetica,sans-Serif" font-size="10.00">MainNamespace::CFunctions</text>
<text text-anchor="middle" x="1115" y="-20" font-family="Helvetica,sans-Serif" font-size="10.00">::freeCPointer</text>
</a>
</g>
</g>
<!-- Node23&#45;&gt;Node24 -->
<g id="edge36" class="edge">
<title>Node23&#45;&gt;Node24</title>
<path fill="none" stroke="midnightblue" d="M990.08,-28C1001.69,-28 1013.72,-28 1025.51,-28"/>
<polygon fill="midnightblue" stroke="midnightblue" points="1025.8,-31.5 1035.8,-28 1025.8,-24.5 1025.8,-31.5"/>
</g>
<!-- Node27&#45;&gt;Node10 -->
<g id="edge41" class="edge">
<title>Node27&#45;&gt;Node10</title>
<path fill="none" stroke="midnightblue" d="M566.39,-651.88C687.15,-657.02 918.86,-661.97 993,-629 1013.96,-619.68 1009.03,-603.3 1029,-592 1033.78,-589.29 1038.91,-586.95 1044.2,-584.93"/>
<polygon fill="midnightblue" stroke="midnightblue" points="1045.53,-588.17 1053.84,-581.61 1043.25,-581.55 1045.53,-588.17"/>
</g>
<!-- Node28 -->
<g id="node28" class="node">
<title>Node28</title>
<g id="a_node28"><a xlink:href="struct_main_namespace_1_1_options.html#a7265db95ee1db24aa677c747ec2ec49b" target="_top" xlink:title=" ">
<polygon fill="white" stroke="black" points="633.5,-677 633.5,-707 775.5,-707 775.5,-677 633.5,-677"/>
<text text-anchor="start" x="641.5" y="-695" font-family="Helvetica,sans-Serif" font-size="10.00">MainNamespace::Options</text>
<text text-anchor="middle" x="704.5" y="-684" font-family="Helvetica,sans-Serif" font-size="10.00">::reference</text>
</a>
</g>
</g>
<!-- Node27&#45;&gt;Node28 -->
<g id="edge42" class="edge">
<title>Node27&#45;&gt;Node28</title>
<path fill="none" stroke="midnightblue" d="M537.5,-657.55C562.56,-662.75 594.28,-669.33 623.27,-675.35"/>
<polygon fill="midnightblue" stroke="midnightblue" points="622.89,-678.84 633.39,-677.45 624.31,-671.99 622.89,-678.84"/>
</g>
<!-- Node29&#45;&gt;Node29 -->
<g id="edge45" class="edge">
<title>Node29&#45;&gt;Node29</title>
<path fill="none" stroke="midnightblue" d="M247.67,-19.76C232.68,-28.57 242.95,-38 278.5,-38 303.49,-38 315.99,-33.34 316,-27.5"/>
<polygon fill="midnightblue" stroke="midnightblue" points="318.5,-25.05 309.33,-19.76 313.2,-29.62 318.5,-25.05"/>
</g>
</g>
</svg>
        <g id="navigator" transform="translate(0 0)" fill="#404254">
                <rect fill="#f2f5e9" fill-opacity="0.5" stroke="#606060" stroke-width=".5" x="0" y="0" width="60" height="60"/>
                <use id="zoomplus" xlink:href="#zoomPlus" x="17" y="9" onmousedown="handleZoom(evt,'in')"/>
                <use id="zoomminus" xlink:href="#zoomMin" x="42" y="9" onmousedown="handleZoom(evt,'out')"/>
                <use id="reset" xlink:href="#resetDef" x="30" y="36" onmousedown="handleReset()"/>
                <g id="arrowUp" xlink:href="#dirArrow" transform="translate(30 24)" onmousedown="handlePan(0,-1)">
                  <use xlink:href="#rim" fill="#404040">
                        <set attributeName="fill" to="#808080" begin="arrowUp.mouseover" end="arrowUp.mouseout"/>
                  </use>
                  <path fill="none" stroke="white" stroke-width="1.5" d="M0,-3.0v7 M-2.5,-0.5L0,-3.0L2.5,-0.5"/>
                </g>
                <g id="arrowRight" xlink:href="#dirArrow" transform="rotate(90) translate(36 -43)" onmousedown="handlePan(1,0)">
                  <use xlink:href="#rim" fill="#404040">
                        <set attributeName="fill" to="#808080" begin="arrowRight.mouseover" end="arrowRight.mouseout"/>
                  </use>
                  <path fill="none" stroke="white" stroke-width="1.5" d="M0,-3.0v7 M-2.5,-0.5L0,-3.0L2.5,-0.5"/>
                </g>
                <g id="arrowDown" xlink:href="#dirArrow" transform="rotate(180) translate(-30 -48)" onmousedown="handlePan(0,1)">
                  <use xlink:href="#rim" fill="#404040">
                        <set attributeName="fill" to="#808080" begin="arrowDown.mouseover" end="arrowDown.mouseout"/>
                  </use>
                  <path fill="none" stroke="white" stroke-width="1.5" d="M0,-3.0v7 M-2.5,-0.5L0,-3.0L2.5,-0.5"/>
                </g>
                <g id="arrowLeft" xlink:href="#dirArrow" transform="rotate(270) translate(-36 17)" onmousedown="handlePan(-1,0)">
                  <use xlink:href="#rim" fill="#404040">
                        <set attributeName="fill" to="#808080" begin="arrowLeft.mouseover" end="arrowLeft.mouseout"/>
                  </use>
                  <path fill="none" stroke="white" stroke-width="1.5" d="M0,-3.0v7 M-2.5,-0.5L0,-3.0L2.5,-0.5"/>
                </g>
        </g>
        <svg viewBox="0 0 15 15" width="100%" height="30px" preserveAspectRatio="xMaxYMin meet">
         <g id="arrow_out" transform="scale(0.3 0.3)">
          <a xlink:href="class_main_namespace_1_1_d_h2_matrix_wrapper_a8b3117680075ec79bc0500f3e901b133_cgraph_org.svg" target="_base">
           <rect id="button" ry="5" rx="5" y="6" x="6" height="38" width="38"
                fill="#f2f5e9" fill-opacity="0.5" stroke="#606060" stroke-width="1.0"/>
           <path id="arrow"
             d="M 11.500037,31.436501 C 11.940474,20.09759 22.043105,11.32322 32.158766,21.979434 L 37.068811,17.246167 C 37.068811,17.246167 37.088388,32 37.088388,32 L 22.160133,31.978069 C 22.160133,31.978069 26.997745,27.140456 26.997745,27.140456 C 18.528582,18.264221 13.291696,25.230495 11.500037,31.436501 z"
             style="fill:#404040;"/>
          </a>
         </g>
        </svg>
</svg>
