<?xml version="1.0" encoding="UTF-8" standalone="no"?>
<!DOCTYPE svg PUBLIC "-//W3C//DTD SVG 1.1//EN"
 "http://www.w3.org/Graphics/SVG/1.1/DTD/svg11.dtd">
<!-- Generated by graphviz version 2.43.0 (0)
 -->
<!-- Title: lyra::bound_parser::help Pages: 1 -->
<svg width="272pt" height="66pt"
 viewBox="0.00 0.00 272.00 66.00" xmlns="http://www.w3.org/2000/svg" xmlns:xlink="http://www.w3.org/1999/xlink">
<g id="graph0" class="graph" transform="scale(1 1) rotate(0) translate(4 62)">
<title>lyra::bound_parser::help</title>
<polygon fill="white" stroke="transparent" points="-4,4 -4,-62 268,-62 268,4 -4,4"/>
<!-- Node1 -->
<g id="node1" class="node">
<title>Node1</title>
<g id="a_node1"><a xlink:title=" ">
<polygon fill="#bfbfbf" stroke="black" points="157,-14 157,-44 264,-44 264,-14 157,-14"/>
<text text-anchor="start" x="165" y="-32" font-family="Helvetica,sans-Serif" font-size="10.00">lyra::bound_parser</text>
<text text-anchor="middle" x="210.5" y="-21" font-family="Helvetica,sans-Serif" font-size="10.00">::help</text>
</a>
</g>
</g>
<!-- Node2 -->
<g id="node2" class="node">
<title>Node2</title>
<g id="a_node2"><a xlink:href="combined__parser_8cpp.html#a217dbf8b442f20279ea00b898af96f52" target="_top" xlink:title=" ">
<polygon fill="white" stroke="black" points="40,-38.5 40,-57.5 81,-57.5 81,-38.5 40,-38.5"/>
<text text-anchor="middle" x="60.5" y="-45.5" font-family="Helvetica,sans-Serif" font-size="10.00">main</text>
</a>
</g>
</g>
<!-- Node1&#45;&gt;Node2 -->
<g id="edge1" class="edge">
<title>Node1&#45;&gt;Node2</title>
<path fill="none" stroke="midnightblue" d="M146.9,-37.04C123.27,-40.07 98.05,-43.31 81.2,-45.47"/>
<polygon fill="midnightblue" stroke="midnightblue" points="147.43,-40.5 156.9,-35.75 146.54,-33.55 147.43,-40.5"/>
</g>
<!-- Node3 -->
<g id="node3" class="node">
<title>Node3</title>
<g id="a_node3"><a xlink:href="classlyra_1_1main.html#a504168ec39ad3b915a8f157a98a46b89" target="_top" xlink:title=" ">
<polygon fill="white" stroke="black" points="0,-0.5 0,-19.5 121,-19.5 121,-0.5 0,-0.5"/>
<text text-anchor="middle" x="60.5" y="-7.5" font-family="Helvetica,sans-Serif" font-size="10.00">lyra::main::operator()</text>
</a>
</g>
</g>
<!-- Node1&#45;&gt;Node3 -->
<g id="edge2" class="edge">
<title>Node1&#45;&gt;Node3</title>
<path fill="none" stroke="midnightblue" d="M146.73,-20.94C138.28,-19.86 129.63,-18.75 121.24,-17.67"/>
<polygon fill="midnightblue" stroke="midnightblue" points="146.54,-24.45 156.9,-22.25 147.43,-17.5 146.54,-24.45"/>
</g>
</g>
</svg>
