<?xml version="1.0" encoding="UTF-8" standalone="no"?>
<!DOCTYPE svg PUBLIC "-//W3C//DTD SVG 1.1//EN"
 "http://www.w3.org/Graphics/SVG/1.1/DTD/svg11.dtd">
<!-- Generated by graphviz version 2.43.0 (0)
 -->
<!-- Title: lyra::detail::token_iterator::is_opt_prefix Pages: 1 -->
<svg width="463pt" height="39pt"
 viewBox="0.00 0.00 463.00 39.00" xmlns="http://www.w3.org/2000/svg" xmlns:xlink="http://www.w3.org/1999/xlink">
<g id="graph0" class="graph" transform="scale(1 1) rotate(0) translate(4 35)">
<title>lyra::detail::token_iterator::is_opt_prefix</title>
<polygon fill="white" stroke="transparent" points="-4,4 -4,-35 459,-35 459,4 -4,4"/>
<!-- Node1 -->
<g id="node1" class="node">
<title>Node1</title>
<g id="a_node1"><a xlink:title=" ">
<polygon fill="#bfbfbf" stroke="black" points="0,-0.5 0,-30.5 127,-30.5 127,-0.5 0,-0.5"/>
<text text-anchor="start" x="8" y="-18.5" font-family="Helvetica,sans-Serif" font-size="10.00">lyra::detail::token</text>
<text text-anchor="middle" x="63.5" y="-7.5" font-family="Helvetica,sans-Serif" font-size="10.00">_iterator::is_opt_prefix</text>
</a>
</g>
</g>
<!-- Node2 -->
<g id="node2" class="node">
<title>Node2</title>
<g id="a_node2"><a xlink:href="classlyra_1_1detail_1_1token__iterator.html#ac3094a0243c70f8cd61ae7b0fb48eaa4" target="_top" xlink:title=" ">
<polygon fill="white" stroke="black" points="163,-0.5 163,-30.5 295,-30.5 295,-0.5 163,-0.5"/>
<text text-anchor="start" x="171" y="-18.5" font-family="Helvetica,sans-Serif" font-size="10.00">lyra::detail::token</text>
<text text-anchor="middle" x="229" y="-7.5" font-family="Helvetica,sans-Serif" font-size="10.00">_iterator::is_prefix_char</text>
</a>
</g>
</g>
<!-- Node1&#45;&gt;Node2 -->
<g id="edge1" class="edge">
<title>Node1&#45;&gt;Node2</title>
<path fill="none" stroke="midnightblue" d="M127.25,-15.5C135.66,-15.5 144.36,-15.5 152.96,-15.5"/>
<polygon fill="midnightblue" stroke="midnightblue" points="152.98,-19 162.98,-15.5 152.98,-12 152.98,-19"/>
</g>
<!-- Node3 -->
<g id="node3" class="node">
<title>Node3</title>
<g id="a_node3"><a xlink:href="namespace_main_namespace.html#a8104aa37d7d31758ac725060a96f07d9" target="_top" xlink:title=" ">
<polygon fill="white" stroke="black" points="331,-6 331,-25 455,-25 455,-6 331,-6"/>
<text text-anchor="middle" x="393" y="-13" font-family="Helvetica,sans-Serif" font-size="10.00">MainNamespace::size</text>
</a>
</g>
</g>
<!-- Node2&#45;&gt;Node3 -->
<g id="edge2" class="edge">
<title>Node2&#45;&gt;Node3</title>
<path fill="none" stroke="midnightblue" d="M295.42,-15.5C303.73,-15.5 312.26,-15.5 320.65,-15.5"/>
<polygon fill="midnightblue" stroke="midnightblue" points="320.79,-19 330.79,-15.5 320.79,-12 320.79,-19"/>
</g>
</g>
</svg>
