<?xml version="1.0" encoding="UTF-8" standalone="no"?>
<!DOCTYPE svg PUBLIC "-//W3C//DTD SVG 1.1//EN"
 "http://www.w3.org/Graphics/SVG/1.1/DTD/svg11.dtd">
<!-- Generated by graphviz version 2.43.0 (0)
 -->
<!-- Title: lyra::bound_parser&lt; Derived &gt; Pages: 1 -->
<svg width="240pt" height="356pt"
 viewBox="0.00 0.00 240.00 356.00" xmlns="http://www.w3.org/2000/svg" xmlns:xlink="http://www.w3.org/1999/xlink">
<g id="graph0" class="graph" transform="scale(1 1) rotate(0) translate(4 352)">
<title>lyra::bound_parser&lt; Derived &gt;</title>
<polygon fill="white" stroke="transparent" points="-4,4 -4,-352 236,-352 236,4 -4,4"/>
<!-- Node1 -->
<g id="node1" class="node">
<title>Node1</title>
<g id="a_node1"><a xlink:title=" ">
<polygon fill="#bfbfbf" stroke="black" points="62,-192.5 62,-222.5 169,-222.5 169,-192.5 62,-192.5"/>
<text text-anchor="start" x="70" y="-210.5" font-family="Helvetica,sans-Serif" font-size="10.00">lyra::bound_parser</text>
<text text-anchor="middle" x="115.5" y="-199.5" font-family="Helvetica,sans-Serif" font-size="10.00">&lt; Derived &gt;</text>
</a>
</g>
</g>
<!-- Node4 -->
<g id="node4" class="node">
<title>Node4</title>
<g id="a_node4"><a xlink:href="classlyra_1_1bound__parser.html" target="_top" xlink:title=" ">
<polygon fill="white" stroke="black" points="0,-114.5 0,-144.5 107,-144.5 107,-114.5 0,-114.5"/>
<text text-anchor="start" x="8" y="-132.5" font-family="Helvetica,sans-Serif" font-size="10.00">lyra::bound_parser</text>
<text text-anchor="middle" x="53.5" y="-121.5" font-family="Helvetica,sans-Serif" font-size="10.00">&lt; arg &gt;</text>
</a>
</g>
</g>
<!-- Node1&#45;&gt;Node4 -->
<g id="edge5" class="edge">
<title>Node1&#45;&gt;Node4</title>
<path fill="none" stroke="orange" stroke-dasharray="5,2" d="M97.39,-184.31C86.97,-171.53 74.19,-155.86 65.11,-144.73"/>
<polygon fill="orange" stroke="orange" points="94.8,-186.67 103.84,-192.2 100.23,-182.24 94.8,-186.67"/>
<text text-anchor="middle" x="109.5" y="-166" font-family="Helvetica,sans-Serif" font-size="10.00"> &lt; arg &gt;</text>
</g>
<!-- Node6 -->
<g id="node6" class="node">
<title>Node6</title>
<g id="a_node6"><a xlink:href="classlyra_1_1bound__parser.html" target="_top" xlink:title=" ">
<polygon fill="white" stroke="black" points="125,-114.5 125,-144.5 232,-144.5 232,-114.5 125,-114.5"/>
<text text-anchor="start" x="133" y="-132.5" font-family="Helvetica,sans-Serif" font-size="10.00">lyra::bound_parser</text>
<text text-anchor="middle" x="178.5" y="-121.5" font-family="Helvetica,sans-Serif" font-size="10.00">&lt; opt &gt;</text>
</a>
</g>
</g>
<!-- Node1&#45;&gt;Node6 -->
<g id="edge8" class="edge">
<title>Node1&#45;&gt;Node6</title>
<path fill="none" stroke="orange" stroke-dasharray="5,2" d="M133.9,-184.31C144.49,-171.53 157.48,-155.86 166.7,-144.73"/>
<polygon fill="orange" stroke="orange" points="131.04,-182.27 127.35,-192.2 136.43,-186.74 131.04,-182.27"/>
<text text-anchor="middle" x="172.5" y="-166" font-family="Helvetica,sans-Serif" font-size="10.00"> &lt; opt &gt;</text>
</g>
<!-- Node2 -->
<g id="node2" class="node">
<title>Node2</title>
<g id="a_node2"><a xlink:href="classlyra_1_1composable__parser.html" target="_top" xlink:title=" ">
<polygon fill="white" stroke="black" points="47,-260.5 47,-290.5 184,-290.5 184,-260.5 47,-260.5"/>
<text text-anchor="start" x="55" y="-278.5" font-family="Helvetica,sans-Serif" font-size="10.00">lyra::composable_parser</text>
<text text-anchor="middle" x="115.5" y="-267.5" font-family="Helvetica,sans-Serif" font-size="10.00">&lt; Derived &gt;</text>
</a>
</g>
</g>
<!-- Node2&#45;&gt;Node1 -->
<g id="edge1" class="edge">
<title>Node2&#45;&gt;Node1</title>
<path fill="none" stroke="midnightblue" d="M108.95,-250.03C108.51,-240.86 108.8,-230.74 109.83,-222.79"/>
<polygon fill="midnightblue" stroke="midnightblue" points="105.48,-250.51 109.82,-260.18 112.46,-249.92 105.48,-250.51"/>
</g>
<!-- Node2&#45;&gt;Node1 -->
<g id="edge4" class="edge">
<title>Node2&#45;&gt;Node1</title>
<path fill="none" stroke="midnightblue" d="M122.05,-250.03C122.49,-240.86 122.2,-230.74 121.17,-222.79"/>
<polygon fill="midnightblue" stroke="midnightblue" points="118.54,-249.92 121.18,-260.18 125.52,-250.51 118.54,-249.92"/>
</g>
<!-- Node3 -->
<g id="node3" class="node">
<title>Node3</title>
<g id="a_node3"><a xlink:href="classlyra_1_1parser.html" target="_top" xlink:title=" ">
<polygon fill="white" stroke="black" points="79.5,-328.5 79.5,-347.5 151.5,-347.5 151.5,-328.5 79.5,-328.5"/>
<text text-anchor="middle" x="115.5" y="-335.5" font-family="Helvetica,sans-Serif" font-size="10.00">lyra::parser</text>
</a>
</g>
</g>
<!-- Node3&#45;&gt;Node2 -->
<g id="edge2" class="edge">
<title>Node3&#45;&gt;Node2</title>
<path fill="none" stroke="midnightblue" d="M109.2,-318.22C108.47,-309.36 108.63,-298.96 109.67,-290.76"/>
<polygon fill="midnightblue" stroke="midnightblue" points="105.76,-318.91 110.6,-328.33 112.7,-317.95 105.76,-318.91"/>
</g>
<!-- Node3&#45;&gt;Node2 -->
<g id="edge3" class="edge">
<title>Node3&#45;&gt;Node2</title>
<path fill="none" stroke="midnightblue" d="M121.8,-318.22C122.53,-309.36 122.37,-298.96 121.33,-290.76"/>
<polygon fill="midnightblue" stroke="midnightblue" points="118.3,-317.95 120.4,-328.33 125.24,-318.91 118.3,-317.95"/>
</g>
<!-- Node5 -->
<g id="node5" class="node">
<title>Node5</title>
<g id="a_node5"><a xlink:href="classlyra_1_1arg.html" target="_top" xlink:title=" ">
<polygon fill="white" stroke="black" points="25,-57.5 25,-76.5 82,-76.5 82,-57.5 25,-57.5"/>
<text text-anchor="middle" x="53.5" y="-64.5" font-family="Helvetica,sans-Serif" font-size="10.00">lyra::arg</text>
</a>
</g>
</g>
<!-- Node4&#45;&gt;Node5 -->
<g id="edge6" class="edge">
<title>Node4&#45;&gt;Node5</title>
<path fill="none" stroke="midnightblue" d="M46.87,-104.35C46.47,-94.51 47.05,-83.78 48.63,-76.54"/>
<polygon fill="midnightblue" stroke="midnightblue" points="43.4,-104.79 47.7,-114.47 50.37,-104.22 43.4,-104.79"/>
</g>
<!-- Node4&#45;&gt;Node5 -->
<g id="edge7" class="edge">
<title>Node4&#45;&gt;Node5</title>
<path fill="none" stroke="midnightblue" d="M60.13,-104.35C60.53,-94.51 59.95,-83.78 58.37,-76.54"/>
<polygon fill="midnightblue" stroke="midnightblue" points="56.63,-104.22 59.3,-114.47 63.6,-104.79 56.63,-104.22"/>
</g>
<!-- Node7 -->
<g id="node7" class="node">
<title>Node7</title>
<g id="a_node7"><a xlink:href="classlyra_1_1opt.html" target="_top" xlink:title=" ">
<polygon fill="white" stroke="black" points="150,-57.5 150,-76.5 207,-76.5 207,-57.5 150,-57.5"/>
<text text-anchor="middle" x="178.5" y="-64.5" font-family="Helvetica,sans-Serif" font-size="10.00">lyra::opt</text>
</a>
</g>
</g>
<!-- Node6&#45;&gt;Node7 -->
<g id="edge9" class="edge">
<title>Node6&#45;&gt;Node7</title>
<path fill="none" stroke="midnightblue" d="M171.87,-104.35C171.47,-94.51 172.05,-83.78 173.63,-76.54"/>
<polygon fill="midnightblue" stroke="midnightblue" points="168.4,-104.79 172.7,-114.47 175.37,-104.22 168.4,-104.79"/>
</g>
<!-- Node6&#45;&gt;Node7 -->
<g id="edge12" class="edge">
<title>Node6&#45;&gt;Node7</title>
<path fill="none" stroke="midnightblue" d="M185.13,-104.35C185.53,-94.51 184.95,-83.78 183.37,-76.54"/>
<polygon fill="midnightblue" stroke="midnightblue" points="181.63,-104.22 184.3,-114.47 188.6,-104.79 181.63,-104.22"/>
</g>
<!-- Node8 -->
<g id="node8" class="node">
<title>Node8</title>
<g id="a_node8"><a xlink:href="classlyra_1_1help.html" target="_top" xlink:title=" ">
<polygon fill="white" stroke="black" points="147.5,-0.5 147.5,-19.5 209.5,-19.5 209.5,-0.5 147.5,-0.5"/>
<text text-anchor="middle" x="178.5" y="-7.5" font-family="Helvetica,sans-Serif" font-size="10.00">lyra::help</text>
</a>
</g>
</g>
<!-- Node7&#45;&gt;Node8 -->
<g id="edge10" class="edge">
<title>Node7&#45;&gt;Node8</title>
<path fill="none" stroke="midnightblue" d="M172.08,-47.42C171.37,-38.05 171.81,-27.14 173.41,-19.71"/>
<polygon fill="midnightblue" stroke="midnightblue" points="168.62,-47.97 173.44,-57.41 175.55,-47.03 168.62,-47.97"/>
</g>
<!-- Node7&#45;&gt;Node8 -->
<g id="edge11" class="edge">
<title>Node7&#45;&gt;Node8</title>
<path fill="none" stroke="midnightblue" d="M184.92,-47.42C185.63,-38.05 185.19,-27.14 183.59,-19.71"/>
<polygon fill="midnightblue" stroke="midnightblue" points="181.45,-47.03 183.56,-57.41 188.38,-47.97 181.45,-47.03"/>
</g>
</g>
</svg>
