<?xml version="1.0" encoding="UTF-8" standalone="no"?>
<!DOCTYPE svg PUBLIC "-//W3C//DTD SVG 1.1//EN"
 "http://www.w3.org/Graphics/SVG/1.1/DTD/svg11.dtd">
<!-- Generated by graphviz version 2.43.0 (0)
 -->
<!-- Title: lyra::opt::format_opt Pages: 1 -->
<svg width="277pt" height="88pt"
 viewBox="0.00 0.00 277.00 88.00" xmlns="http://www.w3.org/2000/svg" xmlns:xlink="http://www.w3.org/1999/xlink">
<g id="graph0" class="graph" transform="scale(1 1) rotate(0) translate(4 84)">
<title>lyra::opt::format_opt</title>
<polygon fill="white" stroke="transparent" points="-4,4 -4,-84 273,-84 273,4 -4,4"/>
<!-- Node1 -->
<g id="node1" class="node">
<title>Node1</title>
<g id="a_node1"><a xlink:title=" ">
<polygon fill="#bfbfbf" stroke="black" points="0,-30 0,-49 117,-49 117,-30 0,-30"/>
<text text-anchor="middle" x="58.5" y="-37" font-family="Helvetica,sans-Serif" font-size="10.00">lyra::opt::format_opt</text>
</a>
</g>
</g>
<!-- Node2 -->
<g id="node2" class="node">
<title>Node2</title>
<g id="a_node2"><a xlink:href="structlyra_1_1option__style.html#a719f50cdfca288bea91acf03cbc801a1" target="_top" xlink:title=" ">
<polygon fill="white" stroke="black" points="154.5,-49.5 154.5,-79.5 267.5,-79.5 267.5,-49.5 154.5,-49.5"/>
<text text-anchor="start" x="162.5" y="-67.5" font-family="Helvetica,sans-Serif" font-size="10.00">lyra::option_style</text>
<text text-anchor="middle" x="211" y="-56.5" font-family="Helvetica,sans-Serif" font-size="10.00">::long_option_string</text>
</a>
</g>
</g>
<!-- Node1&#45;&gt;Node2 -->
<g id="edge1" class="edge">
<title>Node1&#45;&gt;Node2</title>
<path fill="none" stroke="midnightblue" d="M116.83,-49.02C125.86,-50.52 135.25,-52.08 144.45,-53.61"/>
<polygon fill="midnightblue" stroke="midnightblue" points="143.89,-57.07 154.32,-55.25 145.03,-50.16 143.89,-57.07"/>
</g>
<!-- Node3 -->
<g id="node3" class="node">
<title>Node3</title>
<g id="a_node3"><a xlink:href="structlyra_1_1option__style.html#a77d42ad087acdbac4392d520dc0690aa" target="_top" xlink:title=" ">
<polygon fill="white" stroke="black" points="153,-0.5 153,-30.5 269,-30.5 269,-0.5 153,-0.5"/>
<text text-anchor="start" x="161" y="-18.5" font-family="Helvetica,sans-Serif" font-size="10.00">lyra::option_style</text>
<text text-anchor="middle" x="211" y="-7.5" font-family="Helvetica,sans-Serif" font-size="10.00">::short_option_string</text>
</a>
</g>
</g>
<!-- Node1&#45;&gt;Node3 -->
<g id="edge2" class="edge">
<title>Node1&#45;&gt;Node3</title>
<path fill="none" stroke="midnightblue" d="M117.26,-30.29C125.6,-28.96 134.24,-27.58 142.75,-26.22"/>
<polygon fill="midnightblue" stroke="midnightblue" points="143.32,-29.68 152.65,-24.65 142.22,-22.76 143.32,-29.68"/>
</g>
</g>
</svg>
