<?xml version="1.0" encoding="UTF-8" standalone="no"?>
<!DOCTYPE svg PUBLIC "-//W3C//DTD SVG 1.1//EN"
 "http://www.w3.org/Graphics/SVG/1.1/DTD/svg11.dtd">
<!-- Generated by graphviz version 2.43.0 (0)
 -->
<!-- Title: MainNamespace::Surface::MultiSurface::geometry Pages: 1 -->
<svg width="703pt" height="181pt"
 viewBox="0.00 0.00 703.00 181.00" xmlns="http://www.w3.org/2000/svg" xmlns:xlink="http://www.w3.org/1999/xlink">
<g id="graph0" class="graph" transform="scale(1 1) rotate(0) translate(4 177)">
<title>MainNamespace::Surface::MultiSurface::geometry</title>
<polygon fill="white" stroke="transparent" points="-4,4 -4,-177 699,-177 699,4 -4,4"/>
<!-- Node1 -->
<g id="node1" class="node">
<title>Node1</title>
<g id="a_node1"><a xlink:title=" ">
<polygon fill="#bfbfbf" stroke="black" points="554,-76.5 554,-106.5 695,-106.5 695,-76.5 554,-76.5"/>
<text text-anchor="start" x="562" y="-94.5" font-family="Helvetica,sans-Serif" font-size="10.00">MainNamespace::Surface</text>
<text text-anchor="middle" x="624.5" y="-83.5" font-family="Helvetica,sans-Serif" font-size="10.00">::MultiSurface::geometry</text>
</a>
</g>
</g>
<!-- Node2 -->
<g id="node2" class="node">
<title>Node2</title>
<g id="a_node2"><a xlink:href="class_main_namespace_1_1_surface_1_1_multi_surface.html#a3f8d56c9aa2c53fdbb578f534bd523e5" target="_top" xlink:title="Contructor. Parse a mesh file in gmsh format and build the global mesh.">
<polygon fill="white" stroke="black" points="366,-142.5 366,-172.5 518,-172.5 518,-142.5 366,-142.5"/>
<text text-anchor="start" x="374" y="-160.5" font-family="Helvetica,sans-Serif" font-size="10.00">MainNamespace::Surface</text>
<text text-anchor="middle" x="442" y="-149.5" font-family="Helvetica,sans-Serif" font-size="10.00">::MultiSurface::MultiSurface</text>
</a>
</g>
</g>
<!-- Node1&#45;&gt;Node2 -->
<g id="edge1" class="edge">
<title>Node1&#45;&gt;Node2</title>
<path fill="none" stroke="midnightblue" d="M572.5,-110.15C544.58,-120.36 510.43,-132.84 484.22,-142.43"/>
<polygon fill="midnightblue" stroke="midnightblue" points="573.9,-113.36 582.09,-106.64 571.5,-106.79 573.9,-113.36"/>
</g>
<!-- Node3 -->
<g id="node3" class="node">
<title>Node3</title>
<g id="a_node3"><a xlink:href="class_main_namespace_1_1_surface_1_1_multi_surface.html#a0e9e2ea8cfd79249b03f920f1aca732c" target="_top" xlink:title="Print surface properties.">
<polygon fill="white" stroke="black" points="189,-98.5 189,-128.5 330,-128.5 330,-98.5 189,-98.5"/>
<text text-anchor="start" x="197" y="-116.5" font-family="Helvetica,sans-Serif" font-size="10.00">MainNamespace::Surface</text>
<text text-anchor="middle" x="259.5" y="-105.5" font-family="Helvetica,sans-Serif" font-size="10.00">::MultiSurface::properties</text>
</a>
</g>
</g>
<!-- Node1&#45;&gt;Node3 -->
<g id="edge2" class="edge">
<title>Node1&#45;&gt;Node3</title>
<path fill="none" stroke="midnightblue" d="M543.91,-96.32C480.03,-100.2 391.22,-105.58 330.13,-109.28"/>
<polygon fill="midnightblue" stroke="midnightblue" points="544.17,-99.81 553.94,-95.72 543.75,-92.83 544.17,-99.81"/>
</g>
<!-- Node6 -->
<g id="node6" class="node">
<title>Node6</title>
<g id="a_node6"><a xlink:href="class_main_namespace_1_1_surface_1_1_multi_surface.html#a4057eaa562637a1f3a39b693718d7bb3" target="_top" xlink:title="Getter.">
<polygon fill="white" stroke="black" points="371.5,-54.5 371.5,-84.5 512.5,-84.5 512.5,-54.5 371.5,-54.5"/>
<text text-anchor="start" x="379.5" y="-72.5" font-family="Helvetica,sans-Serif" font-size="10.00">MainNamespace::Surface</text>
<text text-anchor="middle" x="442" y="-61.5" font-family="Helvetica,sans-Serif" font-size="10.00">::MultiSurface::triangles</text>
</a>
</g>
</g>
<!-- Node1&#45;&gt;Node6 -->
<g id="edge5" class="edge">
<title>Node1&#45;&gt;Node6</title>
<path fill="none" stroke="midnightblue" d="M543.74,-81.78C533.43,-80.52 522.93,-79.24 512.79,-78.01"/>
<polygon fill="midnightblue" stroke="midnightblue" points="543.62,-85.29 553.97,-83.03 544.47,-78.34 543.62,-85.29"/>
</g>
<!-- Node9 -->
<g id="node9" class="node">
<title>Node9</title>
<g id="a_node9"><a xlink:href="class_main_namespace_1_1_surface_1_1_multi_surface.html#ad03ff836a2ae7f060ef1aeaa3f2afb64" target="_top" xlink:title="Getter.">
<polygon fill="white" stroke="black" points="371.5,-5.5 371.5,-35.5 512.5,-35.5 512.5,-5.5 371.5,-5.5"/>
<text text-anchor="start" x="379.5" y="-23.5" font-family="Helvetica,sans-Serif" font-size="10.00">MainNamespace::Surface</text>
<text text-anchor="middle" x="442" y="-12.5" font-family="Helvetica,sans-Serif" font-size="10.00">::MultiSurface::vertices</text>
</a>
</g>
</g>
<!-- Node1&#45;&gt;Node9 -->
<g id="edge9" class="edge">
<title>Node1&#45;&gt;Node9</title>
<path fill="none" stroke="midnightblue" d="M582.86,-72.15C563.44,-63.22 539.74,-52.79 518,-44.5 509.95,-41.43 501.32,-38.42 492.89,-35.62"/>
<polygon fill="midnightblue" stroke="midnightblue" points="581.48,-75.36 592.02,-76.39 584.42,-69.01 581.48,-75.36"/>
</g>
<!-- Node4 -->
<g id="node4" class="node">
<title>Node4</title>
<g id="a_node4"><a xlink:href="main_8cpp.html#a5d68713f22d1b3e2495b15d107ea7d21" target="_top" xlink:title=" ">
<polygon fill="white" stroke="black" points="77,-104 77,-123 153,-123 153,-104 77,-104"/>
<text text-anchor="middle" x="115" y="-111" font-family="Helvetica,sans-Serif" font-size="10.00">testProblem</text>
</a>
</g>
</g>
<!-- Node3&#45;&gt;Node4 -->
<g id="edge3" class="edge">
<title>Node3&#45;&gt;Node4</title>
<path fill="none" stroke="midnightblue" d="M178.85,-113.5C169.97,-113.5 161.27,-113.5 153.31,-113.5"/>
<polygon fill="midnightblue" stroke="midnightblue" points="178.92,-117 188.92,-113.5 178.92,-110 178.92,-117"/>
</g>
<!-- Node5 -->
<g id="node5" class="node">
<title>Node5</title>
<g id="a_node5"><a xlink:href="main_8cpp.html#a3c04138a5bfe5d72780bb7e82a18e627" target="_top" xlink:title=" ">
<polygon fill="white" stroke="black" points="0,-104 0,-123 41,-123 41,-104 0,-104"/>
<text text-anchor="middle" x="20.5" y="-111" font-family="Helvetica,sans-Serif" font-size="10.00">main</text>
</a>
</g>
</g>
<!-- Node4&#45;&gt;Node5 -->
<g id="edge4" class="edge">
<title>Node4&#45;&gt;Node5</title>
<path fill="none" stroke="midnightblue" d="M66.72,-113.5C57.65,-113.5 48.64,-113.5 41.07,-113.5"/>
<polygon fill="midnightblue" stroke="midnightblue" points="66.91,-117 76.91,-113.5 66.91,-110 66.91,-117"/>
</g>
<!-- Node6&#45;&gt;Node3 -->
<g id="edge8" class="edge">
<title>Node6&#45;&gt;Node3</title>
<path fill="none" stroke="midnightblue" d="M369.27,-86.99C353.67,-90.79 337.31,-94.78 322.14,-98.47"/>
<polygon fill="midnightblue" stroke="midnightblue" points="370.5,-90.29 379.39,-84.52 368.84,-83.49 370.5,-90.29"/>
</g>
<!-- Node7 -->
<g id="node7" class="node">
<title>Node7</title>
<g id="a_node7"><a xlink:href="class_main_namespace_1_1_surface_1_1_multi_surface.html#a18e9ad0a8db9f1d27b1e13b3f9bd243b" target="_top" xlink:title=" ">
<polygon fill="white" stroke="black" points="189,-0.5 189,-30.5 330,-30.5 330,-0.5 189,-0.5"/>
<text text-anchor="start" x="197" y="-18.5" font-family="Helvetica,sans-Serif" font-size="10.00">MainNamespace::Surface</text>
<text text-anchor="middle" x="259.5" y="-7.5" font-family="Helvetica,sans-Serif" font-size="10.00">::MultiSurface::fillZeros</text>
</a>
</g>
</g>
<!-- Node6&#45;&gt;Node7 -->
<g id="edge6" class="edge">
<title>Node6&#45;&gt;Node7</title>
<path fill="none" stroke="midnightblue" d="M380.85,-51.5C358.13,-44.71 332.54,-37.05 310.82,-30.55"/>
<polygon fill="midnightblue" stroke="midnightblue" points="380.14,-54.94 390.72,-54.46 382.14,-48.24 380.14,-54.94"/>
</g>
<!-- Node8 -->
<g id="node8" class="node">
<title>Node8</title>
<g id="a_node8"><a xlink:href="class_main_namespace_1_1_surface_1_1_multi_surface.html#ae3eff63ac7eb44665df48568f0b8c12d" target="_top" xlink:title=" ">
<polygon fill="white" stroke="black" points="189,-49.5 189,-79.5 330,-79.5 330,-49.5 189,-49.5"/>
<text text-anchor="start" x="197" y="-67.5" font-family="Helvetica,sans-Serif" font-size="10.00">MainNamespace::Surface</text>
<text text-anchor="middle" x="259.5" y="-56.5" font-family="Helvetica,sans-Serif" font-size="10.00">::MultiSurface::filterBasis</text>
</a>
</g>
</g>
<!-- Node6&#45;&gt;Node8 -->
<g id="edge7" class="edge">
<title>Node6&#45;&gt;Node8</title>
<path fill="none" stroke="midnightblue" d="M361.24,-67.29C350.93,-67 340.43,-66.71 330.29,-66.43"/>
<polygon fill="midnightblue" stroke="midnightblue" points="361.38,-70.8 371.47,-67.57 361.57,-63.8 361.38,-70.8"/>
</g>
<!-- Node9&#45;&gt;Node3 -->
<g id="edge12" class="edge">
<title>Node9&#45;&gt;Node3</title>
<path fill="none" stroke="midnightblue" d="M373.02,-40.14C370.6,-41.5 368.25,-42.95 366,-44.5 344.9,-59.02 350.93,-74.74 330,-89.5 325.2,-92.88 319.88,-95.83 314.39,-98.38"/>
<polygon fill="midnightblue" stroke="midnightblue" points="374.71,-43.21 382.08,-35.6 371.57,-36.96 374.71,-43.21"/>
</g>
<!-- Node9&#45;&gt;Node7 -->
<g id="edge10" class="edge">
<title>Node9&#45;&gt;Node7</title>
<path fill="none" stroke="midnightblue" d="M361.24,-18.29C350.93,-18 340.43,-17.71 330.29,-17.43"/>
<polygon fill="midnightblue" stroke="midnightblue" points="361.38,-21.8 371.47,-18.57 361.57,-14.8 361.38,-21.8"/>
</g>
<!-- Node9&#45;&gt;Node8 -->
<g id="edge11" class="edge">
<title>Node9&#45;&gt;Node8</title>
<path fill="none" stroke="midnightblue" d="M369.27,-37.99C353.67,-41.79 337.31,-45.78 322.14,-49.47"/>
<polygon fill="midnightblue" stroke="midnightblue" points="370.5,-41.29 379.39,-35.52 368.84,-34.49 370.5,-41.29"/>
</g>
</g>
</svg>
