<?xml version="1.0" encoding="UTF-8" standalone="no"?>
<!DOCTYPE svg PUBLIC "-//W3C//DTD SVG 1.1//EN"
 "http://www.w3.org/Graphics/SVG/1.1/DTD/svg11.dtd">
<!-- Generated by graphviz version 2.43.0 (0)
 -->
<!-- Title: MainNamespace::MeshReader Pages: 1 -->
<!--zoomable 433 -->
<svg id="main" version="1.1" xmlns="http://www.w3.org/2000/svg" xmlns:xlink="http://www.w3.org/1999/xlink" xml:space="preserve" onload="init(evt)">
<style type="text/css"><![CDATA[
.edge:hover path { stroke: red; }
.edge:hover polygon { stroke: red; fill: red; }
]]></style>
<script type="text/javascript"><![CDATA[
var edges = document.getElementsByTagName('g');
if (edges && edges.length) {
  for (var i=0;i<edges.length;i++) {
    if (edges[i].id.substr(0,4)=='edge') {
      edges[i].setAttribute('class','edge');
    }
  }
}
]]></script>
        <defs>
                <circle id="rim" cx="0" cy="0" r="7"/>
                <circle id="rim2" cx="0" cy="0" r="3.5"/>
                <g id="zoomPlus">
                        <use xlink:href="#rim" fill="#404040">
                                <set attributeName="fill" to="#808080" begin="zoomplus.mouseover" end="zoomplus.mouseout"/>
                        </use>
                        <path d="M-4,0h8M0,-4v8" fill="none" stroke="white" stroke-width="1.5" pointer-events="none"/>
                </g>
                <g id="zoomMin">
                        <use xlink:href="#rim" fill="#404040">
                                <set attributeName="fill" to="#808080" begin="zoomminus.mouseover" end="zoomminus.mouseout"/>
                        </use>
                        <path d="M-4,0h8" fill="none" stroke="white" stroke-width="1.5" pointer-events="none"/>
                </g>
                <g id="dirArrow">
                        <path fill="none" stroke="white" stroke-width="1.5" d="M0,-3.0v7 M-2.5,-0.5L0,-3.0L2.5,-0.5"/>
                </g>
               <g id="resetDef">
                       <use xlink:href="#rim2" fill="#404040">
                               <set attributeName="fill" to="#808080" begin="reset.mouseover" end="reset.mouseout"/>
                       </use>
               </g>
        </defs>

<script type="text/javascript">
var viewWidth = 1121;
var viewHeight = 433;
var sectionId = 'dynsection-0';
</script>
<script xlink:href="svgpan.js"/>
<svg id="graph" class="graph">
<g id="viewport">
<title>MainNamespace::MeshReader</title>
<polygon fill="white" stroke="transparent" points="-4,4 -4,-429.44 1117,-429.44 1117,4 -4,4"/>
<!-- Node1 -->
<g id="node1" class="node">
<title>Node1</title>
<g id="a_node1"><a xlink:title=" ">
<polygon fill="#bfbfbf" stroke="black" points="948,-190.44 948,-209.44 1113,-209.44 1113,-190.44 948,-190.44"/>
<text text-anchor="middle" x="1030.5" y="-197.44" font-family="Helvetica,sans-Serif" font-size="10.00">MainNamespace::MeshReader</text>
</a>
</g>
</g>
<!-- Node2 -->
<g id="node2" class="node">
<title>Node2</title>
<g id="a_node2"><a xlink:title=" ">
<polygon fill="white" stroke="black" points="748,-375.44 748,-394.44 813,-394.44 813,-375.44 748,-375.44"/>
<text text-anchor="middle" x="780.5" y="-382.44" font-family="Helvetica,sans-Serif" font-size="10.00">std::string</text>
</a>
</g>
</g>
<!-- Node2&#45;&gt;Node1 -->
<g id="edge1" class="edge">
<title>Node2&#45;&gt;Node1</title>
<path fill="none" stroke="#9a32cd" stroke-dasharray="5,2" d="M810.16,-370.86C841.08,-355.08 891.1,-327.75 930,-297.94 967.14,-269.47 1004.83,-228.23 1021.14,-209.65"/>
<polygon fill="#9a32cd" stroke="#9a32cd" points="808.56,-367.75 801.22,-375.38 811.72,-374 808.56,-367.75"/>
<text text-anchor="middle" x="897" y="-352.94" font-family="Helvetica,sans-Serif" font-size="10.00"> fileName_</text>
<text text-anchor="middle" x="897" y="-341.94" font-family="Helvetica,sans-Serif" font-size="10.00">modelName_</text>
</g>
<!-- Node3 -->
<g id="node3" class="node">
<title>Node3</title>
<g id="a_node3"><a xlink:title=" ">
<polygon fill="white" stroke="black" points="404.5,-394.94 404.5,-424.94 508.5,-424.94 508.5,-394.94 404.5,-394.94"/>
<text text-anchor="start" x="412.5" y="-412.94" font-family="Helvetica,sans-Serif" font-size="10.00">std::basic_string&lt;</text>
<text text-anchor="middle" x="456.5" y="-401.94" font-family="Helvetica,sans-Serif" font-size="10.00"> Char &gt;</text>
</a>
</g>
</g>
<!-- Node3&#45;&gt;Node2 -->
<g id="edge2" class="edge">
<title>Node3&#45;&gt;Node2</title>
<path fill="none" stroke="midnightblue" d="M518.7,-405.19C586.93,-399.89 694.65,-391.53 747.75,-387.4"/>
<polygon fill="midnightblue" stroke="midnightblue" points="518.22,-401.71 508.52,-405.98 518.76,-408.69 518.22,-401.71"/>
</g>
<!-- Node4 -->
<g id="node4" class="node">
<title>Node4</title>
<g id="a_node4"><a xlink:href="struct_main_namespace_1_1_mesh.html" target="_top" xlink:title=" ">
<polygon fill="white" stroke="black" points="715,-309.44 715,-328.44 846,-328.44 846,-309.44 715,-309.44"/>
<text text-anchor="middle" x="780.5" y="-316.44" font-family="Helvetica,sans-Serif" font-size="10.00">MainNamespace::Mesh</text>
</a>
</g>
</g>
<!-- Node4&#45;&gt;Node1 -->
<g id="edge3" class="edge">
<title>Node4&#45;&gt;Node1</title>
<path fill="none" stroke="#9a32cd" stroke-dasharray="5,2" d="M814.19,-305.57C844.52,-292.94 890.76,-273.13 930,-253.94 959.66,-239.43 993.24,-220.71 1012.83,-209.55"/>
<polygon fill="#9a32cd" stroke="#9a32cd" points="812.83,-302.34 804.93,-309.4 815.51,-308.81 812.83,-302.34"/>
<text text-anchor="middle" x="897" y="-285.94" font-family="Helvetica,sans-Serif" font-size="10.00"> mesh_</text>
</g>
<!-- Node5 -->
<g id="node5" class="node">
<title>Node5</title>
<g id="a_node5"><a xlink:title=" ">
<polygon fill="white" stroke="black" points="420,-356.44 420,-375.44 493,-375.44 493,-356.44 420,-356.44"/>
<text text-anchor="middle" x="456.5" y="-363.44" font-family="Helvetica,sans-Serif" font-size="10.00">surface3d *</text>
</a>
</g>
</g>
<!-- Node5&#45;&gt;Node4 -->
<g id="edge4" class="edge">
<title>Node5&#45;&gt;Node4</title>
<path fill="none" stroke="#9a32cd" stroke-dasharray="5,2" d="M503.15,-362.51C551.52,-358.47 630.01,-350.78 697,-338.94 712.67,-336.17 729.81,-332.17 744.38,-328.48"/>
<polygon fill="#9a32cd" stroke="#9a32cd" points="502.69,-359.03 493,-363.34 503.26,-366.01 502.69,-359.03"/>
<text text-anchor="middle" x="631.5" y="-358.94" font-family="Helvetica,sans-Serif" font-size="10.00"> mesh_</text>
</g>
<!-- Node6 -->
<g id="node6" class="node">
<title>Node6</title>
<g id="a_node6"><a xlink:title=" ">
<polygon fill="white" stroke="black" points="365,-318.44 365,-337.44 548,-337.44 548,-318.44 365,-318.44"/>
<text text-anchor="middle" x="456.5" y="-325.44" font-family="Helvetica,sans-Serif" font-size="10.00">std::vector&lt; MembershipVector &gt;</text>
</a>
</g>
</g>
<!-- Node6&#45;&gt;Node4 -->
<g id="edge5" class="edge">
<title>Node6&#45;&gt;Node4</title>
<path fill="none" stroke="#9a32cd" stroke-dasharray="5,2" d="M558.15,-325.12C609.32,-323.69 670,-322 714.87,-320.74"/>
<polygon fill="#9a32cd" stroke="#9a32cd" points="557.95,-321.63 548.05,-325.41 558.15,-328.63 557.95,-321.63"/>
<text text-anchor="middle" x="631.5" y="-326.94" font-family="Helvetica,sans-Serif" font-size="10.00"> membership_</text>
</g>
<!-- Node7 -->
<g id="node7" class="node">
<title>Node7</title>
<g id="a_node7"><a xlink:title=" ">
<polygon fill="white" stroke="black" points="114,-299.44 114,-318.44 211,-318.44 211,-299.44 114,-299.44"/>
<text text-anchor="middle" x="162.5" y="-306.44" font-family="Helvetica,sans-Serif" font-size="10.00">std::vector&lt; T &gt;</text>
</a>
</g>
</g>
<!-- Node7&#45;&gt;Node6 -->
<g id="edge6" class="edge">
<title>Node7&#45;&gt;Node6</title>
<path fill="none" stroke="#9a32cd" stroke-dasharray="5,2" d="M192.3,-322.53C203.5,-327.12 216.59,-331.65 229,-333.94 279.97,-343.33 338.47,-341.47 383.24,-337.45"/>
<polygon fill="#9a32cd" stroke="#9a32cd" points="193.59,-319.28 183.02,-318.54 190.83,-325.71 193.59,-319.28"/>
<text text-anchor="middle" x="288" y="-342.94" font-family="Helvetica,sans-Serif" font-size="10.00"> elements</text>
</g>
<!-- Node7&#45;&gt;Node6 -->
<g id="edge8" class="edge">
<title>Node7&#45;&gt;Node6</title>
<path fill="none" stroke="orange" stroke-dasharray="5,2" d="M221.15,-312.69C262.13,-315.35 318,-318.99 364.9,-322.04"/>
<polygon fill="orange" stroke="orange" points="221.27,-309.19 211.06,-312.03 220.82,-316.17 221.27,-309.19"/>
<text text-anchor="middle" x="288" y="-322.94" font-family="Helvetica,sans-Serif" font-size="10.00"> &lt; MembershipVector &gt;</text>
</g>
<!-- Node10 -->
<g id="node10" class="node">
<title>Node10</title>
<g id="a_node10"><a xlink:title=" ">
<polygon fill="white" stroke="black" points="721,-215.44 721,-234.44 840,-234.44 840,-215.44 721,-215.44"/>
<text text-anchor="middle" x="780.5" y="-222.44" font-family="Helvetica,sans-Serif" font-size="10.00">std::vector&lt; size_t &gt;</text>
</a>
</g>
</g>
<!-- Node7&#45;&gt;Node10 -->
<g id="edge12" class="edge">
<title>Node7&#45;&gt;Node10</title>
<path fill="none" stroke="orange" stroke-dasharray="5,2" d="M221.49,-305.65C358.54,-297.84 691.39,-278.74 697,-276.94 725.21,-267.87 753.4,-246.9 768.42,-234.54"/>
<polygon fill="orange" stroke="orange" points="220.98,-302.17 211.19,-306.23 221.37,-309.16 220.98,-302.17"/>
<text text-anchor="middle" x="456.5" y="-299.94" font-family="Helvetica,sans-Serif" font-size="10.00"> &lt; size_t &gt;</text>
</g>
<!-- Node8 -->
<g id="node8" class="node">
<title>Node8</title>
<g id="a_node8"><a xlink:title=" ">
<polygon fill="white" stroke="black" points="0,-263.44 0,-282.44 29,-282.44 29,-263.44 0,-263.44"/>
<text text-anchor="middle" x="14.5" y="-270.44" font-family="Helvetica,sans-Serif" font-size="10.00">T</text>
</a>
</g>
</g>
<!-- Node8&#45;&gt;Node7 -->
<g id="edge7" class="edge">
<title>Node8&#45;&gt;Node7</title>
<path fill="none" stroke="#9a32cd" stroke-dasharray="5,2" d="M39,-278.73C61.62,-284.31 96.23,-292.84 122.89,-299.42"/>
<polygon fill="#9a32cd" stroke="#9a32cd" points="39.78,-275.32 29.24,-276.32 38.11,-282.12 39.78,-275.32"/>
<text text-anchor="middle" x="71.5" y="-294.94" font-family="Helvetica,sans-Serif" font-size="10.00"> elements</text>
</g>
<!-- Node13 -->
<g id="node13" class="node">
<title>Node13</title>
<g id="a_node13"><a xlink:title=" ">
<polygon fill="white" stroke="black" points="410.5,-125.44 410.5,-144.44 502.5,-144.44 502.5,-125.44 410.5,-125.44"/>
<text text-anchor="middle" x="456.5" y="-132.44" font-family="Helvetica,sans-Serif" font-size="10.00">std::array&lt; T &gt;</text>
</a>
</g>
</g>
<!-- Node8&#45;&gt;Node13 -->
<g id="edge16" class="edge">
<title>Node8&#45;&gt;Node13</title>
<path fill="none" stroke="#9a32cd" stroke-dasharray="5,2" d="M38.91,-265.59C112.96,-242.37 342.02,-170.53 425.05,-144.49"/>
<polygon fill="#9a32cd" stroke="#9a32cd" points="37.65,-262.32 29.15,-268.66 39.74,-269 37.65,-262.32"/>
<text text-anchor="middle" x="162.5" y="-244.94" font-family="Helvetica,sans-Serif" font-size="10.00"> elements</text>
</g>
<!-- Node9 -->
<g id="node9" class="node">
<title>Node9</title>
<g id="a_node9"><a xlink:title=" ">
<polygon fill="white" stroke="black" points="434,-210.44 434,-229.44 479,-229.44 479,-210.44 434,-210.44"/>
<text text-anchor="middle" x="456.5" y="-217.44" font-family="Helvetica,sans-Serif" font-size="10.00">size_t</text>
</a>
</g>
</g>
<!-- Node9&#45;&gt;Node4 -->
<g id="edge9" class="edge">
<title>Node9&#45;&gt;Node4</title>
<path fill="none" stroke="#9a32cd" stroke-dasharray="5,2" d="M488.69,-229.53C550.26,-248.46 686.79,-290.43 748.34,-309.36"/>
<polygon fill="#9a32cd" stroke="#9a32cd" points="489.71,-226.18 479.13,-226.59 487.66,-232.87 489.71,-226.18"/>
<text text-anchor="middle" x="631.5" y="-305.94" font-family="Helvetica,sans-Serif" font-size="10.00"> triangleDofs_</text>
<text text-anchor="middle" x="631.5" y="-294.94" font-family="Helvetica,sans-Serif" font-size="10.00">vertexDofs_</text>
</g>
<!-- Node9&#45;&gt;Node10 -->
<g id="edge11" class="edge">
<title>Node9&#45;&gt;Node10</title>
<path fill="none" stroke="#9a32cd" stroke-dasharray="5,2" d="M489.52,-219.62C535.47,-219.27 622.73,-218.98 697,-220.94 704.74,-221.14 712.89,-221.44 720.92,-221.78"/>
<polygon fill="#9a32cd" stroke="#9a32cd" points="489.27,-216.12 479.3,-219.71 489.33,-223.12 489.27,-216.12"/>
<text text-anchor="middle" x="631.5" y="-223.94" font-family="Helvetica,sans-Serif" font-size="10.00"> elements</text>
</g>
<!-- Node16 -->
<g id="node16" class="node">
<title>Node16</title>
<g id="a_node16"><a xlink:title=" ">
<polygon fill="white" stroke="black" points="727.5,-165.94 727.5,-195.94 833.5,-195.94 833.5,-165.94 727.5,-165.94"/>
<text text-anchor="start" x="735.5" y="-183.94" font-family="Helvetica,sans-Serif" font-size="10.00">std::array&lt; size_t,</text>
<text text-anchor="middle" x="780.5" y="-172.94" font-family="Helvetica,sans-Serif" font-size="10.00"> size&lt; View &gt;()&gt;</text>
</a>
</g>
</g>
<!-- Node9&#45;&gt;Node16 -->
<g id="edge21" class="edge">
<title>Node9&#45;&gt;Node16</title>
<path fill="none" stroke="#9a32cd" stroke-dasharray="5,2" d="M489.04,-215.36C510.68,-212.27 540.06,-208.19 566,-204.94 620.96,-198.05 684,-191.08 727.25,-186.44"/>
<polygon fill="#9a32cd" stroke="#9a32cd" points="488.5,-211.9 479.09,-216.79 489.49,-218.83 488.5,-211.9"/>
<text text-anchor="middle" x="631.5" y="-207.94" font-family="Helvetica,sans-Serif" font-size="10.00"> elements</text>
</g>
<!-- Node10&#45;&gt;Node1 -->
<g id="edge10" class="edge">
<title>Node10&#45;&gt;Node1</title>
<path fill="none" stroke="#9a32cd" stroke-dasharray="5,2" d="M850.29,-218C880.48,-214.96 916.15,-211.36 947.69,-208.18"/>
<polygon fill="#9a32cd" stroke="#9a32cd" points="849.87,-214.53 840.27,-219.01 850.57,-221.49 849.87,-214.53"/>
<text text-anchor="middle" x="897" y="-241.94" font-family="Helvetica,sans-Serif" font-size="10.00"> elementTag_</text>
<text text-anchor="middle" x="897" y="-230.94" font-family="Helvetica,sans-Serif" font-size="10.00">nodeTag_</text>
<text text-anchor="middle" x="897" y="-219.94" font-family="Helvetica,sans-Serif" font-size="10.00">reordering_</text>
</g>
<!-- Node11 -->
<g id="node11" class="node">
<title>Node11</title>
<g id="a_node11"><a xlink:title=" ">
<polygon fill="white" stroke="black" points="727,-112.94 727,-142.94 834,-142.94 834,-112.94 727,-112.94"/>
<text text-anchor="start" x="735" y="-130.94" font-family="Helvetica,sans-Serif" font-size="10.00">std::array&lt; int, 2</text>
<text text-anchor="middle" x="780.5" y="-119.94" font-family="Helvetica,sans-Serif" font-size="10.00"> *size&lt; View &gt;()&gt;</text>
</a>
</g>
</g>
<!-- Node11&#45;&gt;Node1 -->
<g id="edge13" class="edge">
<title>Node11&#45;&gt;Node1</title>
<path fill="none" stroke="#9a32cd" stroke-dasharray="5,2" d="M844.06,-145.37C870.59,-152.84 901.84,-161.71 930,-169.94 952.86,-176.62 978.6,-184.38 998.17,-190.34"/>
<polygon fill="#9a32cd" stroke="#9a32cd" points="844.71,-141.92 834.14,-142.59 842.82,-148.66 844.71,-141.92"/>
<text text-anchor="middle" x="897" y="-172.94" font-family="Helvetica,sans-Serif" font-size="10.00"> viewTags_</text>
</g>
<!-- Node12 -->
<g id="node12" class="node">
<title>Node12</title>
<g id="a_node12"><a xlink:title=" ">
<polygon fill="white" stroke="black" points="442,-40.44 442,-59.44 471,-59.44 471,-40.44 442,-40.44"/>
<text text-anchor="middle" x="456.5" y="-47.44" font-family="Helvetica,sans-Serif" font-size="10.00">int</text>
</a>
</g>
</g>
<!-- Node12&#45;&gt;Node11 -->
<g id="edge14" class="edge">
<title>Node12&#45;&gt;Node11</title>
<path fill="none" stroke="#9a32cd" stroke-dasharray="5,2" d="M480.94,-45.11C526.66,-37.04 629.19,-25.77 697,-69.94 711,-79.06 702.45,-91.91 715,-102.94 719.33,-106.74 724.31,-110 729.53,-112.78"/>
<polygon fill="#9a32cd" stroke="#9a32cd" points="480.27,-41.67 471.09,-46.95 481.56,-48.55 480.27,-41.67"/>
<text text-anchor="middle" x="631.5" y="-72.94" font-family="Helvetica,sans-Serif" font-size="10.00"> elements</text>
</g>
<!-- Node13&#45;&gt;Node11 -->
<g id="edge15" class="edge">
<title>Node13&#45;&gt;Node11</title>
<path fill="none" stroke="orange" stroke-dasharray="5,2" d="M513.03,-125.15C529.98,-122.6 548.7,-120.21 566,-118.94 624.07,-114.68 638.86,-115.78 697,-118.94 706.64,-119.46 716.88,-120.33 726.76,-121.32"/>
<polygon fill="orange" stroke="orange" points="512.08,-121.76 502.74,-126.76 513.16,-128.67 512.08,-121.76"/>
<text text-anchor="middle" x="631.5" y="-121.94" font-family="Helvetica,sans-Serif" font-size="10.00"> &lt; int, 2 *size&lt; View &gt;()&gt;</text>
</g>
<!-- Node14 -->
<g id="node14" class="node">
<title>Node14</title>
<g id="a_node14"><a xlink:title=" ">
<polygon fill="white" stroke="black" points="720,-63.94 720,-93.94 841,-93.94 841,-63.94 720,-63.94"/>
<text text-anchor="start" x="728" y="-81.94" font-family="Helvetica,sans-Serif" font-size="10.00">std::array&lt; bool, size</text>
<text text-anchor="middle" x="780.5" y="-70.94" font-family="Helvetica,sans-Serif" font-size="10.00">&lt; View &gt;()&gt;</text>
</a>
</g>
</g>
<!-- Node13&#45;&gt;Node14 -->
<g id="edge19" class="edge">
<title>Node13&#45;&gt;Node14</title>
<path fill="none" stroke="orange" stroke-dasharray="5,2" d="M493.63,-122.08C514.53,-115.12 541.46,-106.94 566,-101.94 617.32,-91.47 676.62,-85.56 719.68,-82.36"/>
<polygon fill="orange" stroke="orange" points="492.24,-118.86 483.89,-125.38 494.49,-125.49 492.24,-118.86"/>
<text text-anchor="middle" x="631.5" y="-104.94" font-family="Helvetica,sans-Serif" font-size="10.00"> &lt; bool, size&lt; View &gt;()&gt;</text>
</g>
<!-- Node13&#45;&gt;Node16 -->
<g id="edge22" class="edge">
<title>Node13&#45;&gt;Node16</title>
<path fill="none" stroke="orange" stroke-dasharray="5,2" d="M512.69,-142.82C572.91,-151.42 668.57,-165.09 727.5,-173.51"/>
<polygon fill="orange" stroke="orange" points="513.01,-139.33 502.61,-141.38 512.02,-146.26 513.01,-139.33"/>
<text text-anchor="middle" x="631.5" y="-171.94" font-family="Helvetica,sans-Serif" font-size="10.00"> &lt; size_t, size&lt; View &gt;()&gt;</text>
</g>
<!-- Node14&#45;&gt;Node1 -->
<g id="edge17" class="edge">
<title>Node14&#45;&gt;Node1</title>
<path fill="none" stroke="#9a32cd" stroke-dasharray="5,2" d="M832.12,-97.62C836.82,-99.4 841.5,-101.19 846,-102.94 883.54,-117.52 894.17,-118.53 930,-136.94 962.19,-153.47 997.43,-177.26 1016.12,-190.37"/>
<polygon fill="#9a32cd" stroke="#9a32cd" points="833.1,-94.25 822.51,-94 830.64,-100.8 833.1,-94.25"/>
<text text-anchor="middle" x="897" y="-139.94" font-family="Helvetica,sans-Serif" font-size="10.00"> enabled_</text>
</g>
<!-- Node15 -->
<g id="node15" class="node">
<title>Node15</title>
<g id="a_node15"><a xlink:title=" ">
<polygon fill="white" stroke="black" points="437.5,-2.44 437.5,-21.44 475.5,-21.44 475.5,-2.44 437.5,-2.44"/>
<text text-anchor="middle" x="456.5" y="-9.44" font-family="Helvetica,sans-Serif" font-size="10.00">bool</text>
</a>
</g>
</g>
<!-- Node15&#45;&gt;Node14 -->
<g id="edge18" class="edge">
<title>Node15&#45;&gt;Node14</title>
<path fill="none" stroke="#9a32cd" stroke-dasharray="5,2" d="M485.65,-7.1C531.43,-0.4 624.22,8.21 697,-16.94 724.43,-26.42 750.18,-48.73 765.4,-63.83"/>
<polygon fill="#9a32cd" stroke="#9a32cd" points="484.93,-3.67 475.58,-8.65 486,-10.58 484.93,-3.67"/>
<text text-anchor="middle" x="631.5" y="-19.94" font-family="Helvetica,sans-Serif" font-size="10.00"> elements</text>
</g>
<!-- Node16&#45;&gt;Node1 -->
<g id="edge20" class="edge">
<title>Node16&#45;&gt;Node1</title>
<path fill="none" stroke="#9a32cd" stroke-dasharray="5,2" d="M844.08,-183.53C870.6,-184.83 901.83,-186.62 930,-188.94 935.8,-189.41 941.79,-189.95 947.82,-190.53"/>
<polygon fill="#9a32cd" stroke="#9a32cd" points="843.94,-180.01 833.78,-183.03 843.6,-187.01 843.94,-180.01"/>
<text text-anchor="middle" x="897" y="-191.94" font-family="Helvetica,sans-Serif" font-size="10.00"> step_</text>
</g>
</g>
</svg>
        <g id="navigator" transform="translate(0 0)" fill="#404254">
                <rect fill="#f2f5e9" fill-opacity="0.5" stroke="#606060" stroke-width=".5" x="0" y="0" width="60" height="60"/>
                <use id="zoomplus" xlink:href="#zoomPlus" x="17" y="9" onmousedown="handleZoom(evt,'in')"/>
                <use id="zoomminus" xlink:href="#zoomMin" x="42" y="9" onmousedown="handleZoom(evt,'out')"/>
                <use id="reset" xlink:href="#resetDef" x="30" y="36" onmousedown="handleReset()"/>
                <g id="arrowUp" xlink:href="#dirArrow" transform="translate(30 24)" onmousedown="handlePan(0,-1)">
                  <use xlink:href="#rim" fill="#404040">
                        <set attributeName="fill" to="#808080" begin="arrowUp.mouseover" end="arrowUp.mouseout"/>
                  </use>
                  <path fill="none" stroke="white" stroke-width="1.5" d="M0,-3.0v7 M-2.5,-0.5L0,-3.0L2.5,-0.5"/>
                </g>
                <g id="arrowRight" xlink:href="#dirArrow" transform="rotate(90) translate(36 -43)" onmousedown="handlePan(1,0)">
                  <use xlink:href="#rim" fill="#404040">
                        <set attributeName="fill" to="#808080" begin="arrowRight.mouseover" end="arrowRight.mouseout"/>
                  </use>
                  <path fill="none" stroke="white" stroke-width="1.5" d="M0,-3.0v7 M-2.5,-0.5L0,-3.0L2.5,-0.5"/>
                </g>
                <g id="arrowDown" xlink:href="#dirArrow" transform="rotate(180) translate(-30 -48)" onmousedown="handlePan(0,1)">
                  <use xlink:href="#rim" fill="#404040">
                        <set attributeName="fill" to="#808080" begin="arrowDown.mouseover" end="arrowDown.mouseout"/>
                  </use>
                  <path fill="none" stroke="white" stroke-width="1.5" d="M0,-3.0v7 M-2.5,-0.5L0,-3.0L2.5,-0.5"/>
                </g>
                <g id="arrowLeft" xlink:href="#dirArrow" transform="rotate(270) translate(-36 17)" onmousedown="handlePan(-1,0)">
                  <use xlink:href="#rim" fill="#404040">
                        <set attributeName="fill" to="#808080" begin="arrowLeft.mouseover" end="arrowLeft.mouseout"/>
                  </use>
                  <path fill="none" stroke="white" stroke-width="1.5" d="M0,-3.0v7 M-2.5,-0.5L0,-3.0L2.5,-0.5"/>
                </g>
        </g>
        <svg viewBox="0 0 15 15" width="100%" height="30px" preserveAspectRatio="xMaxYMin meet">
         <g id="arrow_out" transform="scale(0.3 0.3)">
          <a xlink:href="class_main_namespace_1_1_mesh_reader__coll__graph_org.svg" target="_base">
           <rect id="button" ry="5" rx="5" y="6" x="6" height="38" width="38"
                fill="#f2f5e9" fill-opacity="0.5" stroke="#606060" stroke-width="1.0"/>
           <path id="arrow"
             d="M 11.500037,31.436501 C 11.940474,20.09759 22.043105,11.32322 32.158766,21.979434 L 37.068811,17.246167 C 37.068811,17.246167 37.088388,32 37.088388,32 L 22.160133,31.978069 C 22.160133,31.978069 26.997745,27.140456 26.997745,27.140456 C 18.528582,18.264221 13.291696,25.230495 11.500037,31.436501 z"
             style="fill:#404040;"/>
          </a>
         </g>
        </svg>
</svg>
