<?xml version="1.0" encoding="UTF-8" standalone="no"?>
<!DOCTYPE svg PUBLIC "-//W3C//DTD SVG 1.1//EN"
 "http://www.w3.org/Graphics/SVG/1.1/DTD/svg11.dtd">
<!-- Generated by graphviz version 2.43.0 (0)
 -->
<!-- Title: lyra::detail::parse_state::type Pages: 1 -->
<svg width="248pt" height="66pt"
 viewBox="0.00 0.00 248.00 66.00" xmlns="http://www.w3.org/2000/svg" xmlns:xlink="http://www.w3.org/1999/xlink">
<g id="graph0" class="graph" transform="scale(1 1) rotate(0) translate(4 62)">
<title>lyra::detail::parse_state::type</title>
<polygon fill="white" stroke="transparent" points="-4,4 -4,-62 244,-62 244,4 -4,4"/>
<!-- Node1 -->
<g id="node1" class="node">
<title>Node1</title>
<g id="a_node1"><a xlink:title=" ">
<polygon fill="#bfbfbf" stroke="black" points="138,-14 138,-44 240,-44 240,-14 138,-14"/>
<text text-anchor="start" x="146" y="-32" font-family="Helvetica,sans-Serif" font-size="10.00">lyra::detail::parse</text>
<text text-anchor="middle" x="189" y="-21" font-family="Helvetica,sans-Serif" font-size="10.00">_state::type</text>
</a>
</g>
</g>
<!-- Node2 -->
<g id="node2" class="node">
<title>Node2</title>
<g id="a_node2"><a xlink:href="classlyra_1_1cli.html#a49a8af627c74dfce2c2d594d4161116f" target="_top" xlink:title=" ">
<polygon fill="white" stroke="black" points="8,-38.5 8,-57.5 94,-57.5 94,-38.5 8,-38.5"/>
<text text-anchor="middle" x="51" y="-45.5" font-family="Helvetica,sans-Serif" font-size="10.00">lyra::cli::parse</text>
</a>
</g>
</g>
<!-- Node1&#45;&gt;Node2 -->
<g id="edge1" class="edge">
<title>Node1&#45;&gt;Node2</title>
<path fill="none" stroke="midnightblue" d="M127.83,-37.41C116.42,-39 104.72,-40.63 94.03,-42.13"/>
<polygon fill="midnightblue" stroke="midnightblue" points="128.33,-40.87 137.75,-36.02 127.36,-33.94 128.33,-40.87"/>
</g>
<!-- Node3 -->
<g id="node3" class="node">
<title>Node3</title>
<g id="a_node3"><a xlink:href="classlyra_1_1group.html#a8b373ee89b9aa7d62c3a2045f4dc4a3c" target="_top" xlink:title=" ">
<polygon fill="white" stroke="black" points="0,-0.5 0,-19.5 102,-19.5 102,-0.5 0,-0.5"/>
<text text-anchor="middle" x="51" y="-7.5" font-family="Helvetica,sans-Serif" font-size="10.00">lyra::group::parse</text>
</a>
</g>
</g>
<!-- Node1&#45;&gt;Node3 -->
<g id="edge2" class="edge">
<title>Node1&#45;&gt;Node3</title>
<path fill="none" stroke="midnightblue" d="M127.77,-20.59C119.18,-19.39 110.42,-18.16 102.05,-16.99"/>
<polygon fill="midnightblue" stroke="midnightblue" points="127.36,-24.06 137.75,-21.98 128.33,-17.13 127.36,-24.06"/>
</g>
</g>
</svg>
