<?xml version="1.0" encoding="UTF-8" standalone="no"?>
<!DOCTYPE svg PUBLIC "-//W3C//DTD SVG 1.1//EN"
 "http://www.w3.org/Graphics/SVG/1.1/DTD/svg11.dtd">
<!-- Generated by graphviz version 2.43.0 (0)
 -->
<!-- Title: lyra::arguments::parse_any Pages: 1 -->
<svg width="347pt" height="236pt"
 viewBox="0.00 0.00 347.00 235.50" xmlns="http://www.w3.org/2000/svg" xmlns:xlink="http://www.w3.org/1999/xlink">
<g id="graph0" class="graph" transform="scale(1 1) rotate(0) translate(4 231.5)">
<title>lyra::arguments::parse_any</title>
<polygon fill="white" stroke="transparent" points="-4,4 -4,-231.5 343,-231.5 343,4 -4,4"/>
<!-- Node1 -->
<g id="node1" class="node">
<title>Node1</title>
<g id="a_node1"><a xlink:title=" ">
<polygon fill="#bfbfbf" stroke="black" points="0,-109.5 0,-128.5 150,-128.5 150,-109.5 0,-109.5"/>
<text text-anchor="middle" x="75" y="-116.5" font-family="Helvetica,sans-Serif" font-size="10.00">lyra::arguments::parse_any</text>
</a>
</g>
</g>
<!-- Node2 -->
<g id="node2" class="node">
<title>Node2</title>
<g id="a_node2"><a xlink:href="classlyra_1_1detail_1_1token__iterator.html#ac3007dcca2221df17bcfba6815a60aff" target="_top" xlink:title=" ">
<polygon fill="white" stroke="black" points="207,-197 207,-227 318,-227 318,-197 207,-197"/>
<text text-anchor="start" x="215" y="-215" font-family="Helvetica,sans-Serif" font-size="10.00">lyra::detail::token</text>
<text text-anchor="middle" x="262.5" y="-204" font-family="Helvetica,sans-Serif" font-size="10.00">_iterator::argument</text>
</a>
</g>
</g>
<!-- Node1&#45;&gt;Node2 -->
<g id="edge1" class="edge">
<title>Node1&#45;&gt;Node2</title>
<path fill="none" stroke="midnightblue" d="M89.31,-128.66C109.44,-142.94 149.18,-169.81 186,-187 190.73,-189.21 195.7,-191.31 200.75,-193.28"/>
<polygon fill="midnightblue" stroke="midnightblue" points="199.91,-196.71 210.5,-196.93 202.36,-190.15 199.91,-196.71"/>
</g>
<!-- Node3 -->
<g id="node3" class="node">
<title>Node3</title>
<g id="a_node3"><a xlink:href="namespace_main_namespace.html#ac3a415fa8d1b6b56dfe215f13c7f67b1" target="_top" xlink:title=" ">
<polygon fill="white" stroke="black" points="197,-158.5 197,-177.5 328,-177.5 328,-158.5 197,-158.5"/>
<text text-anchor="middle" x="262.5" y="-165.5" font-family="Helvetica,sans-Serif" font-size="10.00">MainNamespace::count</text>
</a>
</g>
</g>
<!-- Node1&#45;&gt;Node3 -->
<g id="edge2" class="edge">
<title>Node1&#45;&gt;Node3</title>
<path fill="none" stroke="midnightblue" d="M110.63,-128.63C132.27,-134.6 160.73,-142.37 186,-149 194.74,-151.29 204.06,-153.68 213.07,-155.96"/>
<polygon fill="midnightblue" stroke="midnightblue" points="212.5,-159.43 223.05,-158.48 214.21,-152.64 212.5,-159.43"/>
</g>
<!-- Node4 -->
<g id="node4" class="node">
<title>Node4</title>
<g id="a_node4"><a xlink:href="classlyra_1_1detail_1_1basic__result.html#ae878693d416cc48943171ab4187f5719" target="_top" xlink:title=" ">
<polygon fill="white" stroke="black" points="201.5,-98.5 201.5,-139.5 323.5,-139.5 323.5,-98.5 201.5,-98.5"/>
<text text-anchor="start" x="209.5" y="-127.5" font-family="Helvetica,sans-Serif" font-size="10.00">lyra::detail::basic</text>
<text text-anchor="start" x="209.5" y="-116.5" font-family="Helvetica,sans-Serif" font-size="10.00">_result&lt; detail::parse</text>
<text text-anchor="middle" x="262.5" y="-105.5" font-family="Helvetica,sans-Serif" font-size="10.00">_state &gt;::error</text>
</a>
</g>
</g>
<!-- Node1&#45;&gt;Node4 -->
<g id="edge3" class="edge">
<title>Node1&#45;&gt;Node4</title>
<path fill="none" stroke="midnightblue" d="M150.11,-119C163.7,-119 177.85,-119 191.32,-119"/>
<polygon fill="midnightblue" stroke="midnightblue" points="191.47,-122.5 201.47,-119 191.47,-115.5 191.47,-122.5"/>
</g>
<!-- Node5 -->
<g id="node5" class="node">
<title>Node5</title>
<g id="a_node5"><a xlink:href="classlyra_1_1parser.html#a59a2a42cea85955a811279a463777b9d" target="_top" xlink:title=" ">
<polygon fill="white" stroke="black" points="186,-60.5 186,-79.5 339,-79.5 339,-60.5 186,-60.5"/>
<text text-anchor="middle" x="262.5" y="-67.5" font-family="Helvetica,sans-Serif" font-size="10.00">lyra::parser::get_usage_text</text>
</a>
</g>
</g>
<!-- Node1&#45;&gt;Node5 -->
<g id="edge4" class="edge">
<title>Node1&#45;&gt;Node5</title>
<path fill="none" stroke="midnightblue" d="M110.63,-109.37C132.27,-103.4 160.73,-95.63 186,-89 194.74,-86.71 204.06,-84.32 213.07,-82.04"/>
<polygon fill="midnightblue" stroke="midnightblue" points="214.21,-85.36 223.05,-79.52 212.5,-78.57 214.21,-85.36"/>
</g>
<!-- Node6 -->
<g id="node6" class="node">
<title>Node6</title>
<g id="a_node6"><a xlink:href="classlyra_1_1detail_1_1basic__result.html#aee577409a431e215136ffc0764e5432b" target="_top" xlink:title=" ">
<polygon fill="white" stroke="black" points="201.5,-0.5 201.5,-41.5 323.5,-41.5 323.5,-0.5 201.5,-0.5"/>
<text text-anchor="start" x="209.5" y="-29.5" font-family="Helvetica,sans-Serif" font-size="10.00">lyra::detail::basic</text>
<text text-anchor="start" x="209.5" y="-18.5" font-family="Helvetica,sans-Serif" font-size="10.00">_result&lt; detail::parse</text>
<text text-anchor="middle" x="262.5" y="-7.5" font-family="Helvetica,sans-Serif" font-size="10.00">_state &gt;::ok</text>
</a>
</g>
</g>
<!-- Node1&#45;&gt;Node6 -->
<g id="edge5" class="edge">
<title>Node1&#45;&gt;Node6</title>
<path fill="none" stroke="midnightblue" d="M89.78,-109.38C110.18,-95.4 149.9,-69.16 186,-51 189.69,-49.15 193.51,-47.32 197.41,-45.55"/>
<polygon fill="midnightblue" stroke="midnightblue" points="198.83,-48.75 206.56,-41.51 196,-42.35 198.83,-48.75"/>
</g>
</g>
</svg>
