<?xml version="1.0" encoding="UTF-8" standalone="no"?>
<!DOCTYPE svg PUBLIC "-//W3C//DTD SVG 1.1//EN"
 "http://www.w3.org/Graphics/SVG/1.1/DTD/svg11.dtd">
<!-- Generated by graphviz version 2.43.0 (0)
 -->
<!-- Title: lyra::detail::result_value_base&lt; T &gt; Pages: 1 -->
<svg width="970pt" height="100pt"
 viewBox="0.00 0.00 970.00 99.50" xmlns="http://www.w3.org/2000/svg" xmlns:xlink="http://www.w3.org/1999/xlink">
<g id="graph0" class="graph" transform="scale(1 1) rotate(0) translate(4 95.5)">
<title>lyra::detail::result_value_base&lt; T &gt;</title>
<polygon fill="white" stroke="transparent" points="-4,4 -4,-95.5 966,-95.5 966,4 -4,4"/>
<!-- Node1 -->
<g id="node1" class="node">
<title>Node1</title>
<g id="a_node1"><a xlink:title=" ">
<polygon fill="#bfbfbf" stroke="black" points="168,-61 168,-91 274,-91 274,-61 168,-61"/>
<text text-anchor="start" x="176" y="-79" font-family="Helvetica,sans-Serif" font-size="10.00">lyra::detail::result</text>
<text text-anchor="middle" x="221" y="-68" font-family="Helvetica,sans-Serif" font-size="10.00">_value_base&lt; T &gt;</text>
</a>
</g>
</g>
<!-- Node3 -->
<g id="node3" class="node">
<title>Node3</title>
<g id="a_node3"><a xlink:href="classlyra_1_1detail_1_1basic__result.html" target="_top" xlink:title=" ">
<polygon fill="white" stroke="black" points="437.5,-61 437.5,-91 538.5,-91 538.5,-61 437.5,-61"/>
<text text-anchor="start" x="445.5" y="-79" font-family="Helvetica,sans-Serif" font-size="10.00">lyra::detail::basic</text>
<text text-anchor="middle" x="488" y="-68" font-family="Helvetica,sans-Serif" font-size="10.00">_result&lt; T &gt;</text>
</a>
</g>
</g>
<!-- Node1&#45;&gt;Node3 -->
<g id="edge3" class="edge">
<title>Node1&#45;&gt;Node3</title>
<path fill="none" stroke="midnightblue" d="M284.04,-70.18C330.75,-68.81 393.93,-68.95 437.32,-70.59"/>
<polygon fill="midnightblue" stroke="midnightblue" points="283.92,-66.68 274.04,-70.51 284.15,-73.68 283.92,-66.68"/>
</g>
<!-- Node1&#45;&gt;Node3 -->
<g id="edge7" class="edge">
<title>Node1&#45;&gt;Node3</title>
<path fill="none" stroke="midnightblue" d="M284.04,-81.82C330.75,-83.19 393.93,-83.05 437.32,-81.41"/>
<polygon fill="midnightblue" stroke="midnightblue" points="284.15,-78.32 274.04,-81.49 283.92,-85.32 284.15,-78.32"/>
</g>
<!-- Node6 -->
<g id="node6" class="node">
<title>Node6</title>
<g id="a_node6"><a xlink:href="classlyra_1_1detail_1_1result__value__base.html" target="_top" xlink:title=" ">
<polygon fill="white" stroke="black" points="427,-0.5 427,-41.5 549,-41.5 549,-0.5 427,-0.5"/>
<text text-anchor="start" x="435" y="-29.5" font-family="Helvetica,sans-Serif" font-size="10.00">lyra::detail::result</text>
<text text-anchor="start" x="435" y="-18.5" font-family="Helvetica,sans-Serif" font-size="10.00">_value_base&lt; detail::</text>
<text text-anchor="middle" x="488" y="-7.5" font-family="Helvetica,sans-Serif" font-size="10.00">parse_state &gt;</text>
</a>
</g>
</g>
<!-- Node1&#45;&gt;Node6 -->
<g id="edge8" class="edge">
<title>Node1&#45;&gt;Node6</title>
<path fill="none" stroke="orange" stroke-dasharray="5,2" d="M284.37,-62.61C286.95,-62.06 289.5,-61.52 292,-61 337.15,-51.53 388.24,-41.06 426.8,-33.21"/>
<polygon fill="orange" stroke="orange" points="283.41,-59.23 274.36,-64.73 284.86,-66.08 283.41,-59.23"/>
<text text-anchor="middle" x="350.5" y="-64" font-family="Helvetica,sans-Serif" font-size="10.00"> &lt; detail::parse_state &gt;</text>
</g>
<!-- Node2 -->
<g id="node2" class="node">
<title>Node2</title>
<g id="a_node2"><a xlink:href="classlyra_1_1detail_1_1result__base.html" target="_top" xlink:title=" ">
<polygon fill="white" stroke="black" points="0,-66.5 0,-85.5 131,-85.5 131,-66.5 0,-66.5"/>
<text text-anchor="middle" x="65.5" y="-73.5" font-family="Helvetica,sans-Serif" font-size="10.00">lyra::detail::result_base</text>
</a>
</g>
</g>
<!-- Node2&#45;&gt;Node1 -->
<g id="edge1" class="edge">
<title>Node2&#45;&gt;Node1</title>
<path fill="none" stroke="midnightblue" d="M141.3,-69.25C150.33,-69.23 159.39,-69.34 167.99,-69.57"/>
<polygon fill="midnightblue" stroke="midnightblue" points="141.13,-65.75 131.15,-69.33 141.18,-72.75 141.13,-65.75"/>
</g>
<!-- Node2&#45;&gt;Node1 -->
<g id="edge2" class="edge">
<title>Node2&#45;&gt;Node1</title>
<path fill="none" stroke="midnightblue" d="M141.3,-82.75C150.33,-82.77 159.39,-82.66 167.99,-82.43"/>
<polygon fill="midnightblue" stroke="midnightblue" points="141.18,-79.25 131.15,-82.67 141.13,-86.25 141.18,-79.25"/>
</g>
<!-- Node4 -->
<g id="node4" class="node">
<title>Node4</title>
<g id="a_node4"><a xlink:href="classlyra_1_1detail_1_1basic__result.html" target="_top" xlink:title=" ">
<polygon fill="white" stroke="black" points="702,-0.5 702,-41.5 824,-41.5 824,-0.5 702,-0.5"/>
<text text-anchor="start" x="710" y="-29.5" font-family="Helvetica,sans-Serif" font-size="10.00">lyra::detail::basic</text>
<text text-anchor="start" x="710" y="-18.5" font-family="Helvetica,sans-Serif" font-size="10.00">_result&lt; detail::parse</text>
<text text-anchor="middle" x="763" y="-7.5" font-family="Helvetica,sans-Serif" font-size="10.00">_state &gt;</text>
</a>
</g>
</g>
<!-- Node3&#45;&gt;Node4 -->
<g id="edge4" class="edge">
<title>Node3&#45;&gt;Node4</title>
<path fill="none" stroke="orange" stroke-dasharray="5,2" d="M548.7,-68.16C587.49,-62.59 639.02,-54.28 684,-44 689.78,-42.68 695.76,-41.17 701.73,-39.58"/>
<polygon fill="orange" stroke="orange" points="548.03,-64.72 538.62,-69.59 549.01,-71.65 548.03,-64.72"/>
<text text-anchor="middle" x="625.5" y="-69" font-family="Helvetica,sans-Serif" font-size="10.00"> &lt; detail::parse_state &gt;</text>
</g>
<!-- Node5 -->
<g id="node5" class="node">
<title>Node5</title>
<g id="a_node5"><a xlink:href="classlyra_1_1parse__result.html" target="_top" xlink:title=" ">
<polygon fill="white" stroke="black" points="861,-11.5 861,-30.5 962,-30.5 962,-11.5 861,-11.5"/>
<text text-anchor="middle" x="911.5" y="-18.5" font-family="Helvetica,sans-Serif" font-size="10.00">lyra::parse_result</text>
</a>
</g>
</g>
<!-- Node4&#45;&gt;Node5 -->
<g id="edge5" class="edge">
<title>Node4&#45;&gt;Node5</title>
<path fill="none" stroke="midnightblue" d="M834.08,-14.26C843.04,-14.22 852.07,-14.33 860.63,-14.57"/>
<polygon fill="midnightblue" stroke="midnightblue" points="833.98,-10.76 824.01,-14.35 834.04,-17.76 833.98,-10.76"/>
</g>
<!-- Node4&#45;&gt;Node5 -->
<g id="edge6" class="edge">
<title>Node4&#45;&gt;Node5</title>
<path fill="none" stroke="midnightblue" d="M834.08,-27.74C843.04,-27.78 852.07,-27.67 860.63,-27.43"/>
<polygon fill="midnightblue" stroke="midnightblue" points="834.04,-24.24 824.01,-27.65 833.98,-31.24 834.04,-24.24"/>
</g>
<!-- Node6&#45;&gt;Node4 -->
<g id="edge9" class="edge">
<title>Node6&#45;&gt;Node4</title>
<path fill="none" stroke="midnightblue" d="M559.33,-15.01C603.49,-13.91 659.84,-14 701.9,-15.3"/>
<polygon fill="midnightblue" stroke="midnightblue" points="559.15,-11.51 549.25,-15.29 559.34,-18.51 559.15,-11.51"/>
</g>
<!-- Node6&#45;&gt;Node4 -->
<g id="edge10" class="edge">
<title>Node6&#45;&gt;Node4</title>
<path fill="none" stroke="midnightblue" d="M559.33,-26.99C603.49,-28.09 659.84,-28 701.9,-26.7"/>
<polygon fill="midnightblue" stroke="midnightblue" points="559.34,-23.49 549.25,-26.71 559.15,-30.49 559.34,-23.49"/>
</g>
</g>
</svg>
