<?xml version="1.0" encoding="UTF-8" standalone="no"?>
<!DOCTYPE svg PUBLIC "-//W3C//DTD SVG 1.1//EN"
 "http://www.w3.org/Graphics/SVG/1.1/DTD/svg11.dtd">
<!-- Generated by graphviz version 2.43.0 (0)
 -->
<!-- Title: lyra::detail::token_iterator::has_long_option_prefix Pages: 1 -->
<svg width="483pt" height="138pt"
 viewBox="0.00 0.00 483.00 137.50" xmlns="http://www.w3.org/2000/svg" xmlns:xlink="http://www.w3.org/1999/xlink">
<g id="graph0" class="graph" transform="scale(1 1) rotate(0) translate(4 133.5)">
<title>lyra::detail::token_iterator::has_long_option_prefix</title>
<polygon fill="white" stroke="transparent" points="-4,4 -4,-133.5 479,-133.5 479,4 -4,4"/>
<!-- Node1 -->
<g id="node1" class="node">
<title>Node1</title>
<g id="a_node1"><a xlink:title=" ">
<polygon fill="#bfbfbf" stroke="black" points="368,-39 368,-80 475,-80 475,-39 368,-39"/>
<text text-anchor="start" x="376" y="-68" font-family="Helvetica,sans-Serif" font-size="10.00">lyra::detail::token</text>
<text text-anchor="start" x="376" y="-57" font-family="Helvetica,sans-Serif" font-size="10.00">_iterator::has_long</text>
<text text-anchor="middle" x="421.5" y="-46" font-family="Helvetica,sans-Serif" font-size="10.00">_option_prefix</text>
</a>
</g>
</g>
<!-- Node2 -->
<g id="node2" class="node">
<title>Node2</title>
<g id="a_node2"><a xlink:href="classlyra_1_1detail_1_1token__iterator.html#a11350435cee36ca42019fc81662c018f" target="_top" xlink:title=" ">
<polygon fill="white" stroke="black" points="215,-88 215,-129 332,-129 332,-88 215,-88"/>
<text text-anchor="start" x="223" y="-117" font-family="Helvetica,sans-Serif" font-size="10.00">lyra::detail::token</text>
<text text-anchor="start" x="223" y="-106" font-family="Helvetica,sans-Serif" font-size="10.00">_iterator::has_option</text>
<text text-anchor="middle" x="273.5" y="-95" font-family="Helvetica,sans-Serif" font-size="10.00">_prefix</text>
</a>
</g>
</g>
<!-- Node1&#45;&gt;Node2 -->
<g id="edge1" class="edge">
<title>Node1&#45;&gt;Node2</title>
<path fill="none" stroke="midnightblue" d="M358.14,-80.43C349.49,-83.33 340.63,-86.31 332.07,-89.18"/>
<polygon fill="midnightblue" stroke="midnightblue" points="359.42,-83.69 367.79,-77.19 357.2,-77.05 359.42,-83.69"/>
</g>
<!-- Node3 -->
<g id="node3" class="node">
<title>Node3</title>
<g id="a_node3"><a xlink:href="classlyra_1_1detail_1_1token__iterator.html#aefbced0b2cbf66ad7967b6a2891166d0" target="_top" xlink:title=" ">
<polygon fill="white" stroke="black" points="77,-68.5 77,-98.5 179,-98.5 179,-68.5 77,-68.5"/>
<text text-anchor="start" x="85" y="-86.5" font-family="Helvetica,sans-Serif" font-size="10.00">lyra::detail::token</text>
<text text-anchor="middle" x="128" y="-75.5" font-family="Helvetica,sans-Serif" font-size="10.00">_iterator::value</text>
</a>
</g>
</g>
<!-- Node1&#45;&gt;Node3 -->
<g id="edge6" class="edge">
<title>Node1&#45;&gt;Node3</title>
<path fill="none" stroke="midnightblue" d="M357.69,-64.67C304.39,-69.06 228.89,-75.28 179.45,-79.35"/>
<polygon fill="midnightblue" stroke="midnightblue" points="358.03,-68.16 367.71,-63.85 357.46,-61.18 358.03,-68.16"/>
</g>
<!-- Node4 -->
<g id="node4" class="node">
<title>Node4</title>
<g id="a_node4"><a xlink:href="classlyra_1_1detail_1_1token__iterator.html#a7e4904a6b3beafa1280358cdd6002353" target="_top" xlink:title=" ">
<polygon fill="white" stroke="black" points="222.5,-0.5 222.5,-30.5 324.5,-30.5 324.5,-0.5 222.5,-0.5"/>
<text text-anchor="start" x="230.5" y="-18.5" font-family="Helvetica,sans-Serif" font-size="10.00">lyra::detail::token</text>
<text text-anchor="middle" x="273.5" y="-7.5" font-family="Helvetica,sans-Serif" font-size="10.00">_iterator::option</text>
</a>
</g>
</g>
<!-- Node1&#45;&gt;Node4 -->
<g id="edge3" class="edge">
<title>Node1&#45;&gt;Node4</title>
<path fill="none" stroke="midnightblue" d="M358.1,-40.69C346.95,-37.33 335.45,-33.87 324.69,-30.63"/>
<polygon fill="midnightblue" stroke="midnightblue" points="357.21,-44.08 367.79,-43.61 359.23,-37.38 357.21,-44.08"/>
</g>
<!-- Node2&#45;&gt;Node3 -->
<g id="edge2" class="edge">
<title>Node2&#45;&gt;Node3</title>
<path fill="none" stroke="midnightblue" d="M204.86,-96.72C196.2,-95.21 187.46,-93.69 179.15,-92.24"/>
<polygon fill="midnightblue" stroke="midnightblue" points="204.51,-100.21 214.96,-98.48 205.71,-93.31 204.51,-100.21"/>
</g>
<!-- Node5 -->
<g id="node5" class="node">
<title>Node5</title>
<g id="a_node5"><a xlink:href="classlyra_1_1opt.html#a320fdddd60a89469dca1ba3c07e7bf20" target="_top" xlink:title=" ">
<polygon fill="white" stroke="black" points="83,-6 83,-25 173,-25 173,-6 83,-6"/>
<text text-anchor="middle" x="128" y="-13" font-family="Helvetica,sans-Serif" font-size="10.00">lyra::opt::parse</text>
</a>
</g>
</g>
<!-- Node4&#45;&gt;Node5 -->
<g id="edge4" class="edge">
<title>Node4&#45;&gt;Node5</title>
<path fill="none" stroke="midnightblue" d="M212.01,-15.5C198.98,-15.5 185.45,-15.5 173.18,-15.5"/>
<polygon fill="midnightblue" stroke="midnightblue" points="212.31,-19 222.31,-15.5 212.31,-12 212.31,-19"/>
</g>
<!-- Node6 -->
<g id="node6" class="node">
<title>Node6</title>
<g id="a_node6"><a xlink:href="single__parser__run__test_8cpp.html#ae66f6b31b5ad750f1fe042a706a4e3d4" target="_top" xlink:title=" ">
<polygon fill="white" stroke="black" points="0,-6 0,-25 41,-25 41,-6 0,-6"/>
<text text-anchor="middle" x="20.5" y="-13" font-family="Helvetica,sans-Serif" font-size="10.00">main</text>
</a>
</g>
</g>
<!-- Node5&#45;&gt;Node6 -->
<g id="edge5" class="edge">
<title>Node5&#45;&gt;Node6</title>
<path fill="none" stroke="midnightblue" d="M72.54,-15.5C61.25,-15.5 50.08,-15.5 41.07,-15.5"/>
<polygon fill="midnightblue" stroke="midnightblue" points="72.87,-19 82.87,-15.5 72.87,-12 72.87,-19"/>
</g>
</g>
</svg>
