<?xml version="1.0" encoding="UTF-8" standalone="no"?>
<!DOCTYPE svg PUBLIC "-//W3C//DTD SVG 1.1//EN"
 "http://www.w3.org/Graphics/SVG/1.1/DTD/svg11.dtd">
<!-- Generated by graphviz version 2.43.0 (0)
 -->
<!-- Title: lyra::literal::parse Pages: 1 -->
<!--zoomable 242 -->
<svg id="main" version="1.1" xmlns="http://www.w3.org/2000/svg" xmlns:xlink="http://www.w3.org/1999/xlink" xml:space="preserve" onload="init(evt)">
<style type="text/css"><![CDATA[
.edge:hover path { stroke: red; }
.edge:hover polygon { stroke: red; fill: red; }
]]></style>
<script type="text/javascript"><![CDATA[
var edges = document.getElementsByTagName('g');
if (edges && edges.length) {
  for (var i=0;i<edges.length;i++) {
    if (edges[i].id.substr(0,4)=='edge') {
      edges[i].setAttribute('class','edge');
    }
  }
}
]]></script>
        <defs>
                <circle id="rim" cx="0" cy="0" r="7"/>
                <circle id="rim2" cx="0" cy="0" r="3.5"/>
                <g id="zoomPlus">
                        <use xlink:href="#rim" fill="#404040">
                                <set attributeName="fill" to="#808080" begin="zoomplus.mouseover" end="zoomplus.mouseout"/>
                        </use>
                        <path d="M-4,0h8M0,-4v8" fill="none" stroke="white" stroke-width="1.5" pointer-events="none"/>
                </g>
                <g id="zoomMin">
                        <use xlink:href="#rim" fill="#404040">
                                <set attributeName="fill" to="#808080" begin="zoomminus.mouseover" end="zoomminus.mouseout"/>
                        </use>
                        <path d="M-4,0h8" fill="none" stroke="white" stroke-width="1.5" pointer-events="none"/>
                </g>
                <g id="dirArrow">
                        <path fill="none" stroke="white" stroke-width="1.5" d="M0,-3.0v7 M-2.5,-0.5L0,-3.0L2.5,-0.5"/>
                </g>
               <g id="resetDef">
                       <use xlink:href="#rim2" fill="#404040">
                               <set attributeName="fill" to="#808080" begin="reset.mouseover" end="reset.mouseout"/>
                       </use>
               </g>
        </defs>

<script type="text/javascript">
var viewWidth = 730;
var viewHeight = 242;
var sectionId = 'dynsection-4';
</script>
<script xlink:href="svgpan.js"/>
<svg id="graph" class="graph">
<g id="viewport">
<title>lyra::literal::parse</title>
<polygon fill="white" stroke="transparent" points="-4,4 -4,-237.5 726,-237.5 726,4 -4,4"/>
<!-- Node1 -->
<g id="node1" class="node">
<title>Node1</title>
<g id="a_node1"><a xlink:title=" ">
<polygon fill="#bfbfbf" stroke="black" points="0,-104.5 0,-123.5 103,-123.5 103,-104.5 0,-104.5"/>
<text text-anchor="middle" x="51.5" y="-111.5" font-family="Helvetica,sans-Serif" font-size="10.00">lyra::literal::parse</text>
</a>
</g>
</g>
<!-- Node2 -->
<g id="node2" class="node">
<title>Node2</title>
<g id="a_node2"><a xlink:href="classlyra_1_1detail_1_1token__iterator.html#ac3007dcca2221df17bcfba6815a60aff" target="_top" xlink:title=" ">
<polygon fill="white" stroke="black" points="144.5,-203 144.5,-233 255.5,-233 255.5,-203 144.5,-203"/>
<text text-anchor="start" x="152.5" y="-221" font-family="Helvetica,sans-Serif" font-size="10.00">lyra::detail::token</text>
<text text-anchor="middle" x="200" y="-210" font-family="Helvetica,sans-Serif" font-size="10.00">_iterator::argument</text>
</a>
</g>
</g>
<!-- Node1&#45;&gt;Node2 -->
<g id="edge1" class="edge">
<title>Node1&#45;&gt;Node2</title>
<path fill="none" stroke="midnightblue" d="M60.69,-123.59C75.08,-139.94 106.49,-173.46 139,-194 141.45,-195.54 144.01,-197.02 146.64,-198.43"/>
<polygon fill="midnightblue" stroke="midnightblue" points="145.25,-201.65 155.77,-202.94 148.35,-195.37 145.25,-201.65"/>
</g>
<!-- Node3 -->
<g id="node3" class="node">
<title>Node3</title>
<g id="a_node3"><a xlink:href="classlyra_1_1detail_1_1basic__result.html#ae878693d416cc48943171ab4187f5719" target="_top" xlink:title=" ">
<polygon fill="white" stroke="black" points="149.5,-154 149.5,-184 250.5,-184 250.5,-154 149.5,-154"/>
<text text-anchor="start" x="157.5" y="-172" font-family="Helvetica,sans-Serif" font-size="10.00">lyra::detail::basic</text>
<text text-anchor="middle" x="200" y="-161" font-family="Helvetica,sans-Serif" font-size="10.00">_result::error</text>
</a>
</g>
</g>
<!-- Node1&#45;&gt;Node3 -->
<g id="edge2" class="edge">
<title>Node1&#45;&gt;Node3</title>
<path fill="none" stroke="midnightblue" d="M78.02,-123.58C97.62,-130.94 125.29,-141.33 149.22,-150.31"/>
<polygon fill="midnightblue" stroke="midnightblue" points="148.28,-153.7 158.87,-153.93 150.74,-147.14 148.28,-153.7"/>
</g>
<!-- Node7 -->
<g id="node7" class="node">
<title>Node7</title>
<g id="a_node7"><a xlink:href="classlyra_1_1detail_1_1basic__result.html#aee577409a431e215136ffc0764e5432b" target="_top" xlink:title=" ">
<polygon fill="white" stroke="black" points="139,-93.5 139,-134.5 261,-134.5 261,-93.5 139,-93.5"/>
<text text-anchor="start" x="147" y="-122.5" font-family="Helvetica,sans-Serif" font-size="10.00">lyra::detail::basic</text>
<text text-anchor="start" x="147" y="-111.5" font-family="Helvetica,sans-Serif" font-size="10.00">_result&lt; detail::parse</text>
<text text-anchor="middle" x="200" y="-100.5" font-family="Helvetica,sans-Serif" font-size="10.00">_state &gt;::ok</text>
</a>
</g>
</g>
<!-- Node1&#45;&gt;Node7 -->
<g id="edge6" class="edge">
<title>Node1&#45;&gt;Node7</title>
<path fill="none" stroke="midnightblue" d="M103.33,-114C111.58,-114 120.26,-114 128.88,-114"/>
<polygon fill="midnightblue" stroke="midnightblue" points="128.94,-117.5 138.94,-114 128.94,-110.5 128.94,-117.5"/>
</g>
<!-- Node8 -->
<g id="node8" class="node">
<title>Node8</title>
<g id="a_node8"><a xlink:href="classlyra_1_1detail_1_1token__iterator.html#a017af8979ef14eac5c1fd010b1391035" target="_top" xlink:title=" ">
<polygon fill="white" stroke="black" points="149,-6 149,-36 251,-36 251,-6 149,-6"/>
<text text-anchor="start" x="157" y="-24" font-family="Helvetica,sans-Serif" font-size="10.00">lyra::detail::token</text>
<text text-anchor="middle" x="200" y="-13" font-family="Helvetica,sans-Serif" font-size="10.00">_iterator::pop</text>
</a>
</g>
</g>
<!-- Node1&#45;&gt;Node8 -->
<g id="edge7" class="edge">
<title>Node1&#45;&gt;Node8</title>
<path fill="none" stroke="midnightblue" d="M62.74,-104.41C78.29,-90.24 109.18,-63.49 139,-46 142.35,-44.03 145.89,-42.14 149.5,-40.34"/>
<polygon fill="midnightblue" stroke="midnightblue" points="151.02,-43.5 158.57,-36.07 148.03,-37.17 151.02,-43.5"/>
</g>
<!-- Node12 -->
<g id="node12" class="node">
<title>Node12</title>
<g id="a_node12"><a xlink:href="classlyra_1_1parser.html#ab9d9c5b96021198e37bb80f2df888f71" target="_top" xlink:title=" ">
<polygon fill="white" stroke="black" points="141,-55.5 141,-74.5 259,-74.5 259,-55.5 141,-55.5"/>
<text text-anchor="middle" x="200" y="-62.5" font-family="Helvetica,sans-Serif" font-size="10.00">lyra::parser::validate</text>
</a>
</g>
</g>
<!-- Node1&#45;&gt;Node12 -->
<g id="edge11" class="edge">
<title>Node1&#45;&gt;Node12</title>
<path fill="none" stroke="midnightblue" d="M79.32,-104.49C96.37,-98.49 118.93,-90.66 139,-84 145.41,-81.87 152.22,-79.67 158.87,-77.54"/>
<polygon fill="midnightblue" stroke="midnightblue" points="159.95,-80.87 168.42,-74.51 157.83,-74.2 159.95,-80.87"/>
</g>
<!-- Node4 -->
<g id="node4" class="node">
<title>Node4</title>
<g id="a_node4"><a xlink:href="classlyra_1_1detail_1_1basic__result.html#a2a6448a9babcc3d583edff8f13e076b9" target="_top" xlink:title=" ">
<polygon fill="white" stroke="black" points="446,-89 446,-119 560,-119 560,-89 446,-89"/>
<text text-anchor="start" x="454" y="-107" font-family="Helvetica,sans-Serif" font-size="10.00">lyra::detail::basic</text>
<text text-anchor="middle" x="503" y="-96" font-family="Helvetica,sans-Serif" font-size="10.00">_result::basic_result</text>
</a>
</g>
</g>
<!-- Node3&#45;&gt;Node4 -->
<g id="edge3" class="edge">
<title>Node3&#45;&gt;Node4</title>
<path fill="none" stroke="midnightblue" d="M250.82,-158.06C265.67,-154.81 281.99,-151.25 297,-148 343.41,-137.94 395.75,-126.71 435.92,-118.11"/>
<polygon fill="midnightblue" stroke="midnightblue" points="436.82,-121.5 445.87,-115.99 435.36,-114.66 436.82,-121.5"/>
</g>
<!-- Node5 -->
<g id="node5" class="node">
<title>Node5</title>
<g id="a_node5"><a xlink:href="classlyra_1_1detail_1_1result__base.html#af2039c056e3c27fd5efa1542bd7167be" target="_top" xlink:title=" ">
<polygon fill="white" stroke="black" points="301,-196 301,-226 404,-226 404,-196 301,-196"/>
<text text-anchor="start" x="309" y="-214" font-family="Helvetica,sans-Serif" font-size="10.00">lyra::detail::result</text>
<text text-anchor="middle" x="352.5" y="-203" font-family="Helvetica,sans-Serif" font-size="10.00">_base::message</text>
</a>
</g>
</g>
<!-- Node3&#45;&gt;Node5 -->
<g id="edge4" class="edge">
<title>Node3&#45;&gt;Node5</title>
<path fill="none" stroke="midnightblue" d="M250.7,-182.87C263.65,-186.48 277.75,-190.42 291.18,-194.17"/>
<polygon fill="midnightblue" stroke="midnightblue" points="290.25,-197.54 300.83,-196.86 292.14,-190.8 290.25,-197.54"/>
</g>
<!-- Node6 -->
<g id="node6" class="node">
<title>Node6</title>
<g id="a_node6"><a xlink:href="namespacelyra.html#a2138b812a6ac30b6abcab35c05664a64" target="_top" xlink:title=" ">
<polygon fill="white" stroke="black" points="324.5,-157.5 324.5,-176.5 380.5,-176.5 380.5,-157.5 324.5,-157.5"/>
<text text-anchor="middle" x="352.5" y="-164.5" font-family="Helvetica,sans-Serif" font-size="10.00">lyra::val</text>
</a>
</g>
</g>
<!-- Node3&#45;&gt;Node6 -->
<g id="edge5" class="edge">
<title>Node3&#45;&gt;Node6</title>
<path fill="none" stroke="midnightblue" d="M250.7,-168.34C271.36,-168.07 294.94,-167.75 314.09,-167.5"/>
<polygon fill="midnightblue" stroke="midnightblue" points="314.28,-171 324.23,-167.36 314.18,-164 314.28,-171"/>
</g>
<!-- Node9 -->
<g id="node9" class="node">
<title>Node9</title>
<g id="a_node9"><a xlink:href="classlyra_1_1detail_1_1token__iterator.html#a368b12d3ecc2c462c24e1d8723ce5f4f" target="_top" xlink:title=" ">
<polygon fill="white" stroke="black" points="297,-0.5 297,-41.5 408,-41.5 408,-0.5 297,-0.5"/>
<text text-anchor="start" x="305" y="-29.5" font-family="Helvetica,sans-Serif" font-size="10.00">lyra::detail::token</text>
<text text-anchor="start" x="305" y="-18.5" font-family="Helvetica,sans-Serif" font-size="10.00">_iterator::has_short</text>
<text text-anchor="middle" x="352.5" y="-7.5" font-family="Helvetica,sans-Serif" font-size="10.00">_option_prefix</text>
</a>
</g>
</g>
<!-- Node8&#45;&gt;Node9 -->
<g id="edge8" class="edge">
<title>Node8&#45;&gt;Node9</title>
<path fill="none" stroke="midnightblue" d="M251.11,-21C262.49,-21 274.73,-21 286.62,-21"/>
<polygon fill="midnightblue" stroke="midnightblue" points="286.95,-24.5 296.95,-21 286.95,-17.5 286.95,-24.5"/>
</g>
<!-- Node10 -->
<g id="node10" class="node">
<title>Node10</title>
<g id="a_node10"><a xlink:href="classlyra_1_1detail_1_1token__iterator.html#a3f0301c7bb2bfe10f71739a26f9af219" target="_top" xlink:title=" ">
<polygon fill="white" stroke="black" points="444,-6 444,-36 562,-36 562,-6 444,-6"/>
<text text-anchor="start" x="452" y="-24" font-family="Helvetica,sans-Serif" font-size="10.00">lyra::detail::token</text>
<text text-anchor="middle" x="503" y="-13" font-family="Helvetica,sans-Serif" font-size="10.00">_iterator::is_prefixed</text>
</a>
</g>
</g>
<!-- Node9&#45;&gt;Node10 -->
<g id="edge9" class="edge">
<title>Node9&#45;&gt;Node10</title>
<path fill="none" stroke="midnightblue" d="M408.37,-21C416.6,-21 425.16,-21 433.62,-21"/>
<polygon fill="midnightblue" stroke="midnightblue" points="433.86,-24.5 443.86,-21 433.86,-17.5 433.86,-24.5"/>
</g>
<!-- Node11 -->
<g id="node11" class="node">
<title>Node11</title>
<g id="a_node11"><a xlink:href="namespace_main_namespace.html#a8104aa37d7d31758ac725060a96f07d9" target="_top" xlink:title=" ">
<polygon fill="white" stroke="black" points="598,-11.5 598,-30.5 722,-30.5 722,-11.5 598,-11.5"/>
<text text-anchor="middle" x="660" y="-18.5" font-family="Helvetica,sans-Serif" font-size="10.00">MainNamespace::size</text>
</a>
</g>
</g>
<!-- Node10&#45;&gt;Node11 -->
<g id="edge10" class="edge">
<title>Node10&#45;&gt;Node11</title>
<path fill="none" stroke="midnightblue" d="M562.16,-21C570.55,-21 579.27,-21 587.89,-21"/>
<polygon fill="midnightblue" stroke="midnightblue" points="587.93,-24.5 597.93,-21 587.93,-17.5 587.93,-24.5"/>
</g>
<!-- Node13 -->
<g id="node13" class="node">
<title>Node13</title>
<g id="a_node13"><a xlink:href="classlyra_1_1detail_1_1basic__result_3_01void_01_4.html#a3a596bcb3b08ecd14c8580a10f33a051" target="_top" xlink:title=" ">
<polygon fill="white" stroke="black" points="297,-66 297,-96 408,-96 408,-66 297,-66"/>
<text text-anchor="start" x="305" y="-84" font-family="Helvetica,sans-Serif" font-size="10.00">lyra::detail::basic</text>
<text text-anchor="middle" x="352.5" y="-73" font-family="Helvetica,sans-Serif" font-size="10.00">_result&lt; void &gt;::ok</text>
</a>
</g>
</g>
<!-- Node12&#45;&gt;Node13 -->
<g id="edge12" class="edge">
<title>Node12&#45;&gt;Node13</title>
<path fill="none" stroke="midnightblue" d="M259.19,-71.19C268.2,-72.14 277.56,-73.14 286.71,-74.11"/>
<polygon fill="midnightblue" stroke="midnightblue" points="286.61,-77.62 296.92,-75.2 287.35,-70.66 286.61,-77.62"/>
</g>
<!-- Node13&#45;&gt;Node4 -->
<g id="edge13" class="edge">
<title>Node13&#45;&gt;Node4</title>
<path fill="none" stroke="midnightblue" d="M408.37,-89.5C417.35,-90.89 426.74,-92.34 435.96,-93.77"/>
<polygon fill="midnightblue" stroke="midnightblue" points="435.44,-97.23 445.86,-95.31 436.52,-90.32 435.44,-97.23"/>
</g>
</g>
</svg>
        <g id="navigator" transform="translate(0 0)" fill="#404254">
                <rect fill="#f2f5e9" fill-opacity="0.5" stroke="#606060" stroke-width=".5" x="0" y="0" width="60" height="60"/>
                <use id="zoomplus" xlink:href="#zoomPlus" x="17" y="9" onmousedown="handleZoom(evt,'in')"/>
                <use id="zoomminus" xlink:href="#zoomMin" x="42" y="9" onmousedown="handleZoom(evt,'out')"/>
                <use id="reset" xlink:href="#resetDef" x="30" y="36" onmousedown="handleReset()"/>
                <g id="arrowUp" xlink:href="#dirArrow" transform="translate(30 24)" onmousedown="handlePan(0,-1)">
                  <use xlink:href="#rim" fill="#404040">
                        <set attributeName="fill" to="#808080" begin="arrowUp.mouseover" end="arrowUp.mouseout"/>
                  </use>
                  <path fill="none" stroke="white" stroke-width="1.5" d="M0,-3.0v7 M-2.5,-0.5L0,-3.0L2.5,-0.5"/>
                </g>
                <g id="arrowRight" xlink:href="#dirArrow" transform="rotate(90) translate(36 -43)" onmousedown="handlePan(1,0)">
                  <use xlink:href="#rim" fill="#404040">
                        <set attributeName="fill" to="#808080" begin="arrowRight.mouseover" end="arrowRight.mouseout"/>
                  </use>
                  <path fill="none" stroke="white" stroke-width="1.5" d="M0,-3.0v7 M-2.5,-0.5L0,-3.0L2.5,-0.5"/>
                </g>
                <g id="arrowDown" xlink:href="#dirArrow" transform="rotate(180) translate(-30 -48)" onmousedown="handlePan(0,1)">
                  <use xlink:href="#rim" fill="#404040">
                        <set attributeName="fill" to="#808080" begin="arrowDown.mouseover" end="arrowDown.mouseout"/>
                  </use>
                  <path fill="none" stroke="white" stroke-width="1.5" d="M0,-3.0v7 M-2.5,-0.5L0,-3.0L2.5,-0.5"/>
                </g>
                <g id="arrowLeft" xlink:href="#dirArrow" transform="rotate(270) translate(-36 17)" onmousedown="handlePan(-1,0)">
                  <use xlink:href="#rim" fill="#404040">
                        <set attributeName="fill" to="#808080" begin="arrowLeft.mouseover" end="arrowLeft.mouseout"/>
                  </use>
                  <path fill="none" stroke="white" stroke-width="1.5" d="M0,-3.0v7 M-2.5,-0.5L0,-3.0L2.5,-0.5"/>
                </g>
        </g>
        <svg viewBox="0 0 15 15" width="100%" height="30px" preserveAspectRatio="xMaxYMin meet">
         <g id="arrow_out" transform="scale(0.3 0.3)">
          <a xlink:href="classlyra_1_1literal_a0b616706829da82299d42c4a188d6408_cgraph_org.svg" target="_base">
           <rect id="button" ry="5" rx="5" y="6" x="6" height="38" width="38"
                fill="#f2f5e9" fill-opacity="0.5" stroke="#606060" stroke-width="1.0"/>
           <path id="arrow"
             d="M 11.500037,31.436501 C 11.940474,20.09759 22.043105,11.32322 32.158766,21.979434 L 37.068811,17.246167 C 37.068811,17.246167 37.088388,32 37.088388,32 L 22.160133,31.978069 C 22.160133,31.978069 26.997745,27.140456 26.997745,27.140456 C 18.528582,18.264221 13.291696,25.230495 11.500037,31.436501 z"
             style="fill:#404040;"/>
          </a>
         </g>
        </svg>
</svg>
