<?xml version="1.0" encoding="UTF-8" standalone="no"?>
<!DOCTYPE svg PUBLIC "-//W3C//DTD SVG 1.1//EN"
 "http://www.w3.org/Graphics/SVG/1.1/DTD/svg11.dtd">
<!-- Generated by graphviz version 2.43.0 (0)
 -->
<!-- Title: lyra::command::operator|= Pages: 1 -->
<svg width="307pt" height="57pt"
 viewBox="0.00 0.00 307.00 57.00" xmlns="http://www.w3.org/2000/svg" xmlns:xlink="http://www.w3.org/1999/xlink">
<g id="graph0" class="graph" transform="scale(1 1) rotate(0) translate(4 53)">
<title>lyra::command::operator|=</title>
<polygon fill="white" stroke="transparent" points="-4,4 -4,-53 303,-53 303,4 -4,4"/>
<!-- Node1 -->
<g id="node1" class="node">
<title>Node1</title>
<g id="a_node1"><a xlink:title=" ">
<polygon fill="#bfbfbf" stroke="black" points="0,-6 0,-25 149,-25 149,-6 0,-6"/>
<text text-anchor="middle" x="74.5" y="-13" font-family="Helvetica,sans-Serif" font-size="10.00">lyra::command::operator|=</text>
</a>
</g>
</g>
<!-- Node2 -->
<g id="node2" class="node">
<title>Node2</title>
<g id="a_node2"><a xlink:href="classlyra_1_1command.html#ac0ece846209516bf3c27f41f3f9b802f" target="_top" xlink:title=" ">
<polygon fill="white" stroke="black" points="185,-0.5 185,-30.5 299,-30.5 299,-0.5 185,-0.5"/>
<text text-anchor="start" x="193" y="-18.5" font-family="Helvetica,sans-Serif" font-size="10.00">lyra::command::add</text>
<text text-anchor="middle" x="242" y="-7.5" font-family="Helvetica,sans-Serif" font-size="10.00">_argument</text>
</a>
</g>
</g>
<!-- Node1&#45;&gt;Node2 -->
<g id="edge1" class="edge">
<title>Node1&#45;&gt;Node2</title>
<path fill="none" stroke="midnightblue" d="M149.05,-15.5C157.52,-15.5 166.12,-15.5 174.49,-15.5"/>
<polygon fill="midnightblue" stroke="midnightblue" points="174.56,-19 184.56,-15.5 174.56,-12 174.56,-19"/>
</g>
<!-- Node2&#45;&gt;Node2 -->
<g id="edge2" class="edge">
<title>Node2&#45;&gt;Node2</title>
<path fill="none" stroke="midnightblue" d="M213.07,-30.66C206.1,-40.06 215.74,-49 242,-49 258,-49 267.84,-45.68 271.5,-40.96"/>
<polygon fill="midnightblue" stroke="midnightblue" points="274.97,-40.45 270.93,-30.66 267.98,-40.84 274.97,-40.45"/>
</g>
</g>
</svg>
