<?xml version="1.0" encoding="UTF-8" standalone="no"?>
<!DOCTYPE svg PUBLIC "-//W3C//DTD SVG 1.1//EN"
 "http://www.w3.org/Graphics/SVG/1.1/DTD/svg11.dtd">
<!-- Generated by graphviz version 2.43.0 (0)
 -->
<!-- Title: MainNamespace::PointerArray&lt; BaseValues, length, ActualValue &gt; Pages: 1 -->
<svg width="356pt" height="174pt"
 viewBox="0.00 0.00 356.00 174.00" xmlns="http://www.w3.org/2000/svg" xmlns:xlink="http://www.w3.org/1999/xlink">
<g id="graph0" class="graph" transform="scale(1 1) rotate(0) translate(4 170)">
<title>MainNamespace::PointerArray&lt; BaseValues, length, ActualValue &gt;</title>
<polygon fill="white" stroke="transparent" points="-4,4 -4,-170 352,-170 352,4 -4,4"/>
<!-- Node1 -->
<g id="node1" class="node">
<title>Node1</title>
<g id="a_node1"><a xlink:title=" ">
<polygon fill="#bfbfbf" stroke="black" points="75,-78.5 75,-108.5 272,-108.5 272,-78.5 75,-78.5"/>
<text text-anchor="start" x="83" y="-96.5" font-family="Helvetica,sans-Serif" font-size="10.00">MainNamespace::PointerArray</text>
<text text-anchor="middle" x="173.5" y="-85.5" font-family="Helvetica,sans-Serif" font-size="10.00">&lt; BaseValues, length, ActualValue &gt;</text>
</a>
</g>
</g>
<!-- Node3 -->
<g id="node3" class="node">
<title>Node3</title>
<g id="a_node3"><a xlink:href="class_main_namespace_1_1_pointer_array.html" target="_top" xlink:title=" ">
<polygon fill="white" stroke="black" points="0,-0.5 0,-30.5 165,-30.5 165,-0.5 0,-0.5"/>
<text text-anchor="start" x="8" y="-18.5" font-family="Helvetica,sans-Serif" font-size="10.00">MainNamespace::PointerArray</text>
<text text-anchor="middle" x="82.5" y="-7.5" font-family="Helvetica,sans-Serif" font-size="10.00">&lt; cluster &gt;</text>
</a>
</g>
</g>
<!-- Node1&#45;&gt;Node3 -->
<g id="edge2" class="edge">
<title>Node1&#45;&gt;Node3</title>
<path fill="none" stroke="orange" stroke-dasharray="5,2" d="M148.66,-71.75C133.07,-58.73 113.37,-42.28 99.54,-30.73"/>
<polygon fill="orange" stroke="orange" points="146.46,-74.48 156.38,-78.2 150.95,-69.11 146.46,-74.48"/>
<text text-anchor="middle" x="163" y="-52" font-family="Helvetica,sans-Serif" font-size="10.00"> &lt; cluster &gt;</text>
</g>
<!-- Node4 -->
<g id="node4" class="node">
<title>Node4</title>
<g id="a_node4"><a xlink:href="class_main_namespace_1_1_pointer_array.html" target="_top" xlink:title=" ">
<polygon fill="white" stroke="black" points="183,-0.5 183,-30.5 348,-30.5 348,-0.5 183,-0.5"/>
<text text-anchor="start" x="191" y="-18.5" font-family="Helvetica,sans-Serif" font-size="10.00">MainNamespace::PointerArray</text>
<text text-anchor="middle" x="265.5" y="-7.5" font-family="Helvetica,sans-Serif" font-size="10.00">&lt; dcluster &gt;</text>
</a>
</g>
</g>
<!-- Node1&#45;&gt;Node4 -->
<g id="edge3" class="edge">
<title>Node1&#45;&gt;Node4</title>
<path fill="none" stroke="orange" stroke-dasharray="5,2" d="M198.61,-71.75C214.38,-58.73 234.29,-42.28 248.27,-30.73"/>
<polygon fill="orange" stroke="orange" points="196.29,-69.14 190.8,-78.2 200.74,-74.53 196.29,-69.14"/>
<text text-anchor="middle" x="257" y="-52" font-family="Helvetica,sans-Serif" font-size="10.00"> &lt; dcluster &gt;</text>
</g>
<!-- Node2 -->
<g id="node2" class="node">
<title>Node2</title>
<g id="a_node2"><a xlink:title=" ">
<polygon fill="white" stroke="black" points="127.5,-146.5 127.5,-165.5 219.5,-165.5 219.5,-146.5 127.5,-146.5"/>
<text text-anchor="middle" x="173.5" y="-153.5" font-family="Helvetica,sans-Serif" font-size="10.00">std::array&lt; T &gt;</text>
</a>
</g>
</g>
<!-- Node2&#45;&gt;Node1 -->
<g id="edge1" class="edge">
<title>Node2&#45;&gt;Node1</title>
<path fill="none" stroke="midnightblue" d="M173.5,-136.22C173.5,-127.36 173.5,-116.96 173.5,-108.76"/>
<polygon fill="midnightblue" stroke="midnightblue" points="170,-136.33 173.5,-146.33 177,-136.33 170,-136.33"/>
</g>
</g>
</svg>
