<?xml version="1.0" encoding="UTF-8" standalone="no"?>
<!DOCTYPE svg PUBLIC "-//W3C//DTD SVG 1.1//EN"
 "http://www.w3.org/Graphics/SVG/1.1/DTD/svg11.dtd">
<!-- Generated by graphviz version 2.43.0 (0)
 -->
<!-- Title: lyra::cli::parse Pages: 1 -->
<svg width="231pt" height="52pt"
 viewBox="0.00 0.00 231.00 51.50" xmlns="http://www.w3.org/2000/svg" xmlns:xlink="http://www.w3.org/1999/xlink">
<g id="graph0" class="graph" transform="scale(1 1) rotate(0) translate(4 47.5)">
<title>lyra::cli::parse</title>
<polygon fill="white" stroke="transparent" points="-4,4 -4,-47.5 227,-47.5 227,4 -4,4"/>
<!-- Node1 -->
<g id="node1" class="node">
<title>Node1</title>
<g id="a_node1"><a xlink:title=" ">
<polygon fill="#bfbfbf" stroke="black" points="0,-6 0,-25 86,-25 86,-6 0,-6"/>
<text text-anchor="middle" x="43" y="-13" font-family="Helvetica,sans-Serif" font-size="10.00">lyra::cli::parse</text>
</a>
</g>
</g>
<!-- Node1&#45;&gt;Node1 -->
<g id="edge1" class="edge">
<title>Node1&#45;&gt;Node1</title>
<path fill="none" stroke="midnightblue" d="M23.27,-25.26C13.67,-34.07 20.25,-43.5 43,-43.5 57.57,-43.5 65.51,-39.63 66.81,-34.53"/>
<polygon fill="midnightblue" stroke="midnightblue" points="69.96,-33 62.73,-25.26 63.55,-35.82 69.96,-33"/>
</g>
<!-- Node2 -->
<g id="node2" class="node">
<title>Node2</title>
<g id="a_node2"><a xlink:href="structlyra_1_1option__style.html#ad733f4434bb558b70262f04ae4b69e1d" target="_top" xlink:title=" ">
<polygon fill="white" stroke="black" points="122,-0.5 122,-30.5 223,-30.5 223,-0.5 122,-0.5"/>
<text text-anchor="start" x="130" y="-18.5" font-family="Helvetica,sans-Serif" font-size="10.00">lyra::option_style</text>
<text text-anchor="middle" x="172.5" y="-7.5" font-family="Helvetica,sans-Serif" font-size="10.00">::posix</text>
</a>
</g>
</g>
<!-- Node1&#45;&gt;Node2 -->
<g id="edge2" class="edge">
<title>Node1&#45;&gt;Node2</title>
<path fill="none" stroke="midnightblue" d="M86.1,-15.5C94.34,-15.5 103.12,-15.5 111.81,-15.5"/>
<polygon fill="midnightblue" stroke="midnightblue" points="111.92,-19 121.92,-15.5 111.92,-12 111.92,-19"/>
</g>
</g>
</svg>
