<?xml version="1.0" encoding="UTF-8" standalone="no"?>
<!DOCTYPE svg PUBLIC "-//W3C//DTD SVG 1.1//EN"
 "http://www.w3.org/Graphics/SVG/1.1/DTD/svg11.dtd">
<!-- Generated by graphviz version 2.43.0 (0)
 -->
<!-- Title: lyra::cli::parse Pages: 1 -->
<svg width="413pt" height="145pt"
 viewBox="0.00 0.00 413.00 145.00" xmlns="http://www.w3.org/2000/svg" xmlns:xlink="http://www.w3.org/1999/xlink">
<g id="graph0" class="graph" transform="scale(1 1) rotate(0) translate(4 141)">
<title>lyra::cli::parse</title>
<polygon fill="white" stroke="transparent" points="-4,4 -4,-141 409,-141 409,4 -4,4"/>
<!-- Node1 -->
<g id="node1" class="node">
<title>Node1</title>
<g id="a_node1"><a xlink:title=" ">
<polygon fill="#bfbfbf" stroke="black" points="0,-50 0,-69 86,-69 86,-50 0,-50"/>
<text text-anchor="middle" x="43" y="-57" font-family="Helvetica,sans-Serif" font-size="10.00">lyra::cli::parse</text>
</a>
</g>
</g>
<!-- Node2 -->
<g id="node2" class="node">
<title>Node2</title>
<g id="a_node2"><a xlink:href="structlyra_1_1parser__customization.html#af09136b985e94beb2800341db4e661c1" target="_top" xlink:title=" ">
<polygon fill="white" stroke="black" points="122,-106.5 122,-136.5 268,-136.5 268,-106.5 122,-106.5"/>
<text text-anchor="start" x="130" y="-124.5" font-family="Helvetica,sans-Serif" font-size="10.00">lyra::parser_customization</text>
<text text-anchor="middle" x="195" y="-113.5" font-family="Helvetica,sans-Serif" font-size="10.00">::option_prefix</text>
</a>
</g>
</g>
<!-- Node1&#45;&gt;Node2 -->
<g id="edge1" class="edge">
<title>Node1&#45;&gt;Node2</title>
<path fill="none" stroke="midnightblue" d="M62.66,-69.05C78.3,-76.89 101.33,-88.04 122,-96.5 127.33,-98.68 132.94,-100.85 138.57,-102.94"/>
<polygon fill="midnightblue" stroke="midnightblue" points="137.42,-106.24 148.01,-106.37 139.81,-99.67 137.42,-106.24"/>
</g>
<!-- Node3 -->
<g id="node3" class="node">
<title>Node3</title>
<g id="a_node3"><a xlink:href="classlyra_1_1cli.html#a6d3e91c66ed03273471089eebcdeacae" target="_top" xlink:title=" ">
<polygon fill="white" stroke="black" points="152,-50 152,-69 238,-69 238,-50 152,-50"/>
<text text-anchor="middle" x="195" y="-57" font-family="Helvetica,sans-Serif" font-size="10.00">lyra::cli::parse</text>
</a>
</g>
</g>
<!-- Node1&#45;&gt;Node3 -->
<g id="edge2" class="edge">
<title>Node1&#45;&gt;Node3</title>
<path fill="none" stroke="midnightblue" d="M86.18,-59.5C103.43,-59.5 123.56,-59.5 141.73,-59.5"/>
<polygon fill="midnightblue" stroke="midnightblue" points="141.87,-63 151.87,-59.5 141.87,-56 141.87,-63"/>
</g>
<!-- Node5 -->
<g id="node5" class="node">
<title>Node5</title>
<g id="a_node5"><a xlink:href="structlyra_1_1parser__customization.html#a05c2c774cb7aec6b9637282ae3883947" target="_top" xlink:title=" ">
<polygon fill="white" stroke="black" points="122,-0.5 122,-30.5 268,-30.5 268,-0.5 122,-0.5"/>
<text text-anchor="start" x="130" y="-18.5" font-family="Helvetica,sans-Serif" font-size="10.00">lyra::parser_customization</text>
<text text-anchor="middle" x="195" y="-7.5" font-family="Helvetica,sans-Serif" font-size="10.00">::token_delimiters</text>
</a>
</g>
</g>
<!-- Node1&#45;&gt;Node5 -->
<g id="edge5" class="edge">
<title>Node1&#45;&gt;Node5</title>
<path fill="none" stroke="midnightblue" d="M76.55,-49.95C93.06,-45.11 113.66,-39.07 132.98,-33.4"/>
<polygon fill="midnightblue" stroke="midnightblue" points="134.03,-36.74 142.64,-30.57 132.06,-30.02 134.03,-36.74"/>
</g>
<!-- Node3&#45;&gt;Node3 -->
<g id="edge3" class="edge">
<title>Node3&#45;&gt;Node3</title>
<path fill="none" stroke="midnightblue" d="M171.57,-69.26C160.18,-78.07 167.98,-87.5 195,-87.5 212.73,-87.5 222.19,-83.44 223.37,-78.15"/>
<polygon fill="midnightblue" stroke="midnightblue" points="226.34,-76.3 218.43,-69.26 220.23,-79.7 226.34,-76.3"/>
</g>
<!-- Node4 -->
<g id="node4" class="node">
<title>Node4</title>
<g id="a_node4"><a xlink:href="structlyra_1_1option__style.html#ad733f4434bb558b70262f04ae4b69e1d" target="_top" xlink:title=" ">
<polygon fill="white" stroke="black" points="304,-44.5 304,-74.5 405,-74.5 405,-44.5 304,-44.5"/>
<text text-anchor="start" x="312" y="-62.5" font-family="Helvetica,sans-Serif" font-size="10.00">lyra::option_style</text>
<text text-anchor="middle" x="354.5" y="-51.5" font-family="Helvetica,sans-Serif" font-size="10.00">::posix</text>
</a>
</g>
</g>
<!-- Node3&#45;&gt;Node4 -->
<g id="edge4" class="edge">
<title>Node3&#45;&gt;Node4</title>
<path fill="none" stroke="midnightblue" d="M238.21,-59.5C255.28,-59.5 275.29,-59.5 293.8,-59.5"/>
<polygon fill="midnightblue" stroke="midnightblue" points="293.91,-63 303.91,-59.5 293.91,-56 293.91,-63"/>
</g>
</g>
</svg>
