<?xml version="1.0" encoding="UTF-8" standalone="no"?>
<!DOCTYPE svg PUBLIC "-//W3C//DTD SVG 1.1//EN"
 "http://www.w3.org/Graphics/SVG/1.1/DTD/svg11.dtd">
<!-- Generated by graphviz version 2.43.0 (0)
 -->
<!-- Title: lyra::command::help Pages: 1 -->
<svg width="306pt" height="46pt"
 viewBox="0.00 0.00 306.00 46.00" xmlns="http://www.w3.org/2000/svg" xmlns:xlink="http://www.w3.org/1999/xlink">
<g id="graph0" class="graph" transform="scale(1 1) rotate(0) translate(4 42)">
<title>lyra::command::help</title>
<polygon fill="white" stroke="transparent" points="-4,4 -4,-42 302,-42 302,4 -4,4"/>
<!-- Node1 -->
<g id="node1" class="node">
<title>Node1</title>
<g id="a_node1"><a xlink:title=" ">
<polygon fill="#bfbfbf" stroke="black" points="181,-0.5 181,-19.5 298,-19.5 298,-0.5 181,-0.5"/>
<text text-anchor="middle" x="239.5" y="-7.5" font-family="Helvetica,sans-Serif" font-size="10.00">lyra::command::help</text>
</a>
</g>
</g>
<!-- Node1&#45;&gt;Node1 -->
<g id="edge1" class="edge">
<title>Node1&#45;&gt;Node1</title>
<path fill="none" stroke="midnightblue" d="M270.56,-28.27C269.68,-33.74 259.32,-38 239.5,-38 210,-38 201.47,-28.57 213.91,-19.76"/>
<polygon fill="midnightblue" stroke="midnightblue" points="273.44,-26.27 265.09,-19.76 267.55,-30.06 273.44,-26.27"/>
</g>
<!-- Node2 -->
<g id="node2" class="node">
<title>Node2</title>
<g id="a_node2"><a xlink:href="classlyra_1_1command.html#a0b65d2c72ae8a84d46a16a75397c72c6" target="_top" xlink:title=" ">
<polygon fill="white" stroke="black" points="0,-0.5 0,-19.5 145,-19.5 145,-0.5 0,-0.5"/>
<text text-anchor="middle" x="72.5" y="-7.5" font-family="Helvetica,sans-Serif" font-size="10.00">lyra::command::operator()</text>
</a>
</g>
</g>
<!-- Node1&#45;&gt;Node2 -->
<g id="edge2" class="edge">
<title>Node1&#45;&gt;Node2</title>
<path fill="none" stroke="midnightblue" d="M170.64,-10C162.22,-10 153.59,-10 145.11,-10"/>
<polygon fill="midnightblue" stroke="midnightblue" points="170.79,-13.5 180.79,-10 170.79,-6.5 170.79,-13.5"/>
</g>
</g>
</svg>
