<?xml version="1.0" encoding="UTF-8" standalone="no"?>
<!DOCTYPE svg PUBLIC "-//W3C//DTD SVG 1.1//EN"
 "http://www.w3.org/Graphics/SVG/1.1/DTD/svg11.dtd">
<!-- Generated by graphviz version 2.43.0 (0)
 -->
<!-- Title: lyra::cli::parse Pages: 1 -->
<svg width="349pt" height="192pt"
 viewBox="0.00 0.00 349.00 191.50" xmlns="http://www.w3.org/2000/svg" xmlns:xlink="http://www.w3.org/1999/xlink">
<g id="graph0" class="graph" transform="scale(1 1) rotate(0) translate(4 187.5)">
<title>lyra::cli::parse</title>
<polygon fill="white" stroke="transparent" points="-4,4 -4,-187.5 345,-187.5 345,4 -4,4"/>
<!-- Node1 -->
<g id="node1" class="node">
<title>Node1</title>
<g id="a_node1"><a xlink:title=" ">
<polygon fill="#bfbfbf" stroke="black" points="255,-76.5 255,-95.5 341,-95.5 341,-76.5 255,-76.5"/>
<text text-anchor="middle" x="298" y="-83.5" font-family="Helvetica,sans-Serif" font-size="10.00">lyra::cli::parse</text>
</a>
</g>
</g>
<!-- Node1&#45;&gt;Node1 -->
<g id="edge4" class="edge">
<title>Node1&#45;&gt;Node1</title>
<path fill="none" stroke="midnightblue" d="M326,-104.65C324.83,-109.94 315.5,-114 298,-114 271.34,-114 263.63,-104.57 274.88,-95.76"/>
<polygon fill="midnightblue" stroke="midnightblue" points="329,-102.84 321.12,-95.76 322.86,-106.21 329,-102.84"/>
</g>
<!-- Node2 -->
<g id="node2" class="node">
<title>Node2</title>
<g id="a_node2"><a xlink:href="struct_main_namespace_1_1_options.html#a4db6a2fafb09fb140ca8dd77786dce3c" target="_top" xlink:title=" ">
<polygon fill="white" stroke="black" points="77,-153 77,-183 219,-183 219,-153 77,-153"/>
<text text-anchor="start" x="85" y="-171" font-family="Helvetica,sans-Serif" font-size="10.00">MainNamespace::Options</text>
<text text-anchor="middle" x="148" y="-160" font-family="Helvetica,sans-Serif" font-size="10.00">::Options</text>
</a>
</g>
</g>
<!-- Node1&#45;&gt;Node2 -->
<g id="edge1" class="edge">
<title>Node1&#45;&gt;Node2</title>
<path fill="none" stroke="midnightblue" d="M277.99,-102.32C262.8,-114.74 240.56,-131.58 219,-143 212.04,-146.68 204.43,-150.03 196.86,-152.99"/>
<polygon fill="midnightblue" stroke="midnightblue" points="280.62,-104.69 286.06,-95.59 276.13,-99.31 280.62,-104.69"/>
</g>
<!-- Node3 -->
<g id="node3" class="node">
<title>Node3</title>
<g id="a_node3"><a xlink:href="doc__commands_8cpp.html#a217dbf8b442f20279ea00b898af96f52" target="_top" xlink:title=" ">
<polygon fill="white" stroke="black" points="127.5,-114.5 127.5,-133.5 168.5,-133.5 168.5,-114.5 127.5,-114.5"/>
<text text-anchor="middle" x="148" y="-121.5" font-family="Helvetica,sans-Serif" font-size="10.00">main</text>
</a>
</g>
</g>
<!-- Node1&#45;&gt;Node3 -->
<g id="edge2" class="edge">
<title>Node1&#45;&gt;Node3</title>
<path fill="none" stroke="midnightblue" d="M249.83,-98.11C222.38,-105.16 189.23,-113.67 168.62,-118.96"/>
<polygon fill="midnightblue" stroke="midnightblue" points="250.84,-101.47 259.65,-95.59 249.1,-94.69 250.84,-101.47"/>
</g>
<!-- Node4 -->
<g id="node4" class="node">
<title>Node4</title>
<g id="a_node4"><a xlink:href="classlyra_1_1main.html#a84834f37ab0c88f4f48036b8b20edab9" target="_top" xlink:title=" ">
<polygon fill="white" stroke="black" points="87.5,-76.5 87.5,-95.5 208.5,-95.5 208.5,-76.5 87.5,-76.5"/>
<text text-anchor="middle" x="148" y="-83.5" font-family="Helvetica,sans-Serif" font-size="10.00">lyra::main::operator()</text>
</a>
</g>
</g>
<!-- Node1&#45;&gt;Node4 -->
<g id="edge3" class="edge">
<title>Node1&#45;&gt;Node4</title>
<path fill="none" stroke="midnightblue" d="M244.89,-86C233.13,-86 220.56,-86 208.52,-86"/>
<polygon fill="midnightblue" stroke="midnightblue" points="244.99,-89.5 254.99,-86 244.98,-82.5 244.99,-89.5"/>
</g>
<!-- Node5 -->
<g id="node5" class="node">
<title>Node5</title>
<g id="a_node5"><a xlink:href="option__styles__run__test_8cpp.html#ab4d2ccb95df97b3b8f84b1cffb6d4c79" target="_top" xlink:title=" ">
<polygon fill="white" stroke="black" points="115.5,-38.5 115.5,-57.5 180.5,-57.5 180.5,-38.5 115.5,-38.5"/>
<text text-anchor="middle" x="148" y="-45.5" font-family="Helvetica,sans-Serif" font-size="10.00">test_style</text>
</a>
</g>
</g>
<!-- Node1&#45;&gt;Node5 -->
<g id="edge5" class="edge">
<title>Node1&#45;&gt;Node5</title>
<path fill="none" stroke="midnightblue" d="M249.93,-73.91C227.38,-68.12 200.97,-61.34 180.82,-56.17"/>
<polygon fill="midnightblue" stroke="midnightblue" points="249.1,-77.31 259.65,-76.41 250.84,-70.53 249.1,-77.31"/>
</g>
<!-- Node7 -->
<g id="node7" class="node">
<title>Node7</title>
<g id="a_node7"><a xlink:href="values__run__test_8cpp.html#a62c5a6cdfec8c364869ca33c65c3d4e6" target="_top" xlink:title=" ">
<polygon fill="white" stroke="black" points="120,-0.5 120,-19.5 176,-19.5 176,-0.5 120,-0.5"/>
<text text-anchor="middle" x="148" y="-7.5" font-family="Helvetica,sans-Serif" font-size="10.00">test_val</text>
</a>
</g>
</g>
<!-- Node1&#45;&gt;Node7 -->
<g id="edge7" class="edge">
<title>Node1&#45;&gt;Node7</title>
<path fill="none" stroke="midnightblue" d="M278.23,-69.21C263.17,-56.53 240.99,-39.57 219,-29 205.49,-22.51 189.42,-17.95 176.08,-14.92"/>
<polygon fill="midnightblue" stroke="midnightblue" points="276.36,-72.21 286.21,-76.09 280.93,-66.91 276.36,-72.21"/>
</g>
<!-- Node6 -->
<g id="node6" class="node">
<title>Node6</title>
<g id="a_node6"><a xlink:href="option__styles__run__test_8cpp.html#ae66f6b31b5ad750f1fe042a706a4e3d4" target="_top" xlink:title=" ">
<polygon fill="white" stroke="black" points="0,-38.5 0,-57.5 41,-57.5 41,-38.5 0,-38.5"/>
<text text-anchor="middle" x="20.5" y="-45.5" font-family="Helvetica,sans-Serif" font-size="10.00">main</text>
</a>
</g>
</g>
<!-- Node5&#45;&gt;Node6 -->
<g id="edge6" class="edge">
<title>Node5&#45;&gt;Node6</title>
<path fill="none" stroke="midnightblue" d="M105.06,-48C83.43,-48 58.07,-48 41.01,-48"/>
<polygon fill="midnightblue" stroke="midnightblue" points="105.33,-51.5 115.33,-48 105.33,-44.5 105.33,-51.5"/>
</g>
<!-- Node8 -->
<g id="node8" class="node">
<title>Node8</title>
<g id="a_node8"><a xlink:href="values__run__test_8cpp.html#ae66f6b31b5ad750f1fe042a706a4e3d4" target="_top" xlink:title=" ">
<polygon fill="white" stroke="black" points="0,-0.5 0,-19.5 41,-19.5 41,-0.5 0,-0.5"/>
<text text-anchor="middle" x="20.5" y="-7.5" font-family="Helvetica,sans-Serif" font-size="10.00">main</text>
</a>
</g>
</g>
<!-- Node7&#45;&gt;Node8 -->
<g id="edge8" class="edge">
<title>Node7&#45;&gt;Node8</title>
<path fill="none" stroke="midnightblue" d="M109.56,-10C87.15,-10 59.55,-10 41.29,-10"/>
<polygon fill="midnightblue" stroke="midnightblue" points="109.77,-13.5 119.77,-10 109.77,-6.5 109.77,-13.5"/>
</g>
</g>
</svg>
