<?xml version="1.0" encoding="UTF-8" standalone="no"?>
<!DOCTYPE svg PUBLIC "-//W3C//DTD SVG 1.1//EN"
 "http://www.w3.org/Graphics/SVG/1.1/DTD/svg11.dtd">
<!-- Generated by graphviz version 2.43.0 (0)
 -->
<!-- Title: MainNamespace::PointerArray::clear Pages: 1 -->
<svg width="562pt" height="39pt"
 viewBox="0.00 0.00 562.00 39.00" xmlns="http://www.w3.org/2000/svg" xmlns:xlink="http://www.w3.org/1999/xlink">
<g id="graph0" class="graph" transform="scale(1 1) rotate(0) translate(4 35)">
<title>MainNamespace::PointerArray::clear</title>
<polygon fill="white" stroke="transparent" points="-4,4 -4,-35 558,-35 558,4 -4,4"/>
<!-- Node1 -->
<g id="node1" class="node">
<title>Node1</title>
<g id="a_node1"><a xlink:title=" ">
<polygon fill="#bfbfbf" stroke="black" points="0,-0.5 0,-30.5 165,-30.5 165,-0.5 0,-0.5"/>
<text text-anchor="start" x="8" y="-18.5" font-family="Helvetica,sans-Serif" font-size="10.00">MainNamespace::PointerArray</text>
<text text-anchor="middle" x="82.5" y="-7.5" font-family="Helvetica,sans-Serif" font-size="10.00">::clear</text>
</a>
</g>
</g>
<!-- Node2 -->
<g id="node2" class="node">
<title>Node2</title>
<g id="a_node2"><a xlink:href="namespace_main_namespace.html#a066656219cf67ef84d18b17a7daae845" target="_top" xlink:title=" ">
<polygon fill="white" stroke="black" points="201,-6 201,-25 360,-25 360,-6 201,-6"/>
<text text-anchor="middle" x="280.5" y="-13" font-family="Helvetica,sans-Serif" font-size="10.00">MainNamespace::maybeFree</text>
</a>
</g>
</g>
<!-- Node1&#45;&gt;Node2 -->
<g id="edge1" class="edge">
<title>Node1&#45;&gt;Node2</title>
<path fill="none" stroke="midnightblue" d="M165.2,-15.5C173.57,-15.5 182.09,-15.5 190.53,-15.5"/>
<polygon fill="midnightblue" stroke="midnightblue" points="190.76,-19 200.76,-15.5 190.76,-12 190.76,-19"/>
</g>
<!-- Node3 -->
<g id="node3" class="node">
<title>Node3</title>
<g id="a_node3"><a xlink:href="namespace_main_namespace_1_1_c_functions.html#a4c174a200de18d1f8aa4f313eef7513a" target="_top" xlink:title=" ">
<polygon fill="white" stroke="black" points="396,-0.5 396,-30.5 554,-30.5 554,-0.5 396,-0.5"/>
<text text-anchor="start" x="404" y="-18.5" font-family="Helvetica,sans-Serif" font-size="10.00">MainNamespace::CFunctions</text>
<text text-anchor="middle" x="475" y="-7.5" font-family="Helvetica,sans-Serif" font-size="10.00">::freeCPointer</text>
</a>
</g>
</g>
<!-- Node2&#45;&gt;Node3 -->
<g id="edge2" class="edge">
<title>Node2&#45;&gt;Node3</title>
<path fill="none" stroke="midnightblue" d="M360.07,-15.5C368.59,-15.5 377.3,-15.5 385.92,-15.5"/>
<polygon fill="midnightblue" stroke="midnightblue" points="385.99,-19 395.99,-15.5 385.99,-12 385.99,-19"/>
</g>
</g>
</svg>
