<?xml version="1.0" encoding="UTF-8" standalone="no"?>
<!DOCTYPE svg PUBLIC "-//W3C//DTD SVG 1.1//EN"
 "http://www.w3.org/Graphics/SVG/1.1/DTD/svg11.dtd">
<!-- Generated by graphviz version 2.43.0 (0)
 -->
<!-- Title: lyra::detail::token_iterator::has_option_prefix Pages: 1 -->
<svg width="586pt" height="110pt"
 viewBox="0.00 0.00 586.00 110.00" xmlns="http://www.w3.org/2000/svg" xmlns:xlink="http://www.w3.org/1999/xlink">
<g id="graph0" class="graph" transform="scale(1 1) rotate(0) translate(4 106)">
<title>lyra::detail::token_iterator::has_option_prefix</title>
<polygon fill="white" stroke="transparent" points="-4,4 -4,-106 582,-106 582,4 -4,4"/>
<!-- Node1 -->
<g id="node1" class="node">
<title>Node1</title>
<g id="a_node1"><a xlink:title=" ">
<polygon fill="#bfbfbf" stroke="black" points="0,-30.5 0,-71.5 117,-71.5 117,-30.5 0,-30.5"/>
<text text-anchor="start" x="8" y="-59.5" font-family="Helvetica,sans-Serif" font-size="10.00">lyra::detail::token</text>
<text text-anchor="start" x="8" y="-48.5" font-family="Helvetica,sans-Serif" font-size="10.00">_iterator::has_option</text>
<text text-anchor="middle" x="58.5" y="-37.5" font-family="Helvetica,sans-Serif" font-size="10.00">_prefix</text>
</a>
</g>
</g>
<!-- Node2 -->
<g id="node2" class="node">
<title>Node2</title>
<g id="a_node2"><a xlink:href="classlyra_1_1detail_1_1token__iterator.html#a8006318eb718713b45bd0c7064d3e87f" target="_top" xlink:title=" ">
<polygon fill="white" stroke="black" points="155,-60.5 155,-101.5 262,-101.5 262,-60.5 155,-60.5"/>
<text text-anchor="start" x="163" y="-89.5" font-family="Helvetica,sans-Serif" font-size="10.00">lyra::detail::token</text>
<text text-anchor="start" x="163" y="-78.5" font-family="Helvetica,sans-Serif" font-size="10.00">_iterator::has_long</text>
<text text-anchor="middle" x="208.5" y="-67.5" font-family="Helvetica,sans-Serif" font-size="10.00">_option_prefix</text>
</a>
</g>
</g>
<!-- Node1&#45;&gt;Node2 -->
<g id="edge1" class="edge">
<title>Node1&#45;&gt;Node2</title>
<path fill="none" stroke="midnightblue" d="M117.14,-62.68C126.2,-64.52 135.61,-66.43 144.78,-68.29"/>
<polygon fill="midnightblue" stroke="midnightblue" points="144.11,-71.72 154.6,-70.28 145.5,-64.86 144.11,-71.72"/>
</g>
<!-- Node5 -->
<g id="node5" class="node">
<title>Node5</title>
<g id="a_node5"><a xlink:href="classlyra_1_1detail_1_1token__iterator.html#a368b12d3ecc2c462c24e1d8723ce5f4f" target="_top" xlink:title=" ">
<polygon fill="white" stroke="black" points="153,-0.5 153,-41.5 264,-41.5 264,-0.5 153,-0.5"/>
<text text-anchor="start" x="161" y="-29.5" font-family="Helvetica,sans-Serif" font-size="10.00">lyra::detail::token</text>
<text text-anchor="start" x="161" y="-18.5" font-family="Helvetica,sans-Serif" font-size="10.00">_iterator::has_short</text>
<text text-anchor="middle" x="208.5" y="-7.5" font-family="Helvetica,sans-Serif" font-size="10.00">_option_prefix</text>
</a>
</g>
</g>
<!-- Node1&#45;&gt;Node5 -->
<g id="edge4" class="edge">
<title>Node1&#45;&gt;Node5</title>
<path fill="none" stroke="midnightblue" d="M117.14,-39.32C125.54,-37.61 134.24,-35.85 142.77,-34.12"/>
<polygon fill="midnightblue" stroke="midnightblue" points="143.57,-37.53 152.68,-32.11 142.18,-30.67 143.57,-37.53"/>
</g>
<!-- Node3 -->
<g id="node3" class="node">
<title>Node3</title>
<g id="a_node3"><a xlink:href="classlyra_1_1detail_1_1token__iterator.html#a3f0301c7bb2bfe10f71739a26f9af219" target="_top" xlink:title=" ">
<polygon fill="white" stroke="black" points="300,-36 300,-66 418,-66 418,-36 300,-36"/>
<text text-anchor="start" x="308" y="-54" font-family="Helvetica,sans-Serif" font-size="10.00">lyra::detail::token</text>
<text text-anchor="middle" x="359" y="-43" font-family="Helvetica,sans-Serif" font-size="10.00">_iterator::is_prefixed</text>
</a>
</g>
</g>
<!-- Node2&#45;&gt;Node3 -->
<g id="edge2" class="edge">
<title>Node2&#45;&gt;Node3</title>
<path fill="none" stroke="midnightblue" d="M262.27,-70.34C271.21,-68.53 280.6,-66.64 289.87,-64.76"/>
<polygon fill="midnightblue" stroke="midnightblue" points="290.74,-68.16 299.84,-62.75 289.35,-61.3 290.74,-68.16"/>
</g>
<!-- Node4 -->
<g id="node4" class="node">
<title>Node4</title>
<g id="a_node4"><a xlink:href="namespace_main_namespace.html#a8104aa37d7d31758ac725060a96f07d9" target="_top" xlink:title=" ">
<polygon fill="white" stroke="black" points="454,-41.5 454,-60.5 578,-60.5 578,-41.5 454,-41.5"/>
<text text-anchor="middle" x="516" y="-48.5" font-family="Helvetica,sans-Serif" font-size="10.00">MainNamespace::size</text>
</a>
</g>
</g>
<!-- Node3&#45;&gt;Node4 -->
<g id="edge3" class="edge">
<title>Node3&#45;&gt;Node4</title>
<path fill="none" stroke="midnightblue" d="M418.16,-51C426.55,-51 435.27,-51 443.89,-51"/>
<polygon fill="midnightblue" stroke="midnightblue" points="443.93,-54.5 453.93,-51 443.93,-47.5 443.93,-54.5"/>
</g>
<!-- Node5&#45;&gt;Node3 -->
<g id="edge5" class="edge">
<title>Node5&#45;&gt;Node3</title>
<path fill="none" stroke="midnightblue" d="M264.37,-32.09C272.69,-33.77 281.35,-35.52 289.9,-37.24"/>
<polygon fill="midnightblue" stroke="midnightblue" points="289.37,-40.71 299.86,-39.26 290.76,-33.84 289.37,-40.71"/>
</g>
</g>
</svg>
