<?xml version="1.0" encoding="UTF-8" standalone="no"?>
<!DOCTYPE svg PUBLIC "-//W3C//DTD SVG 1.1//EN"
 "http://www.w3.org/Graphics/SVG/1.1/DTD/svg11.dtd">
<!-- Generated by graphviz version 2.43.0 (0)
 -->
<!-- Title: MainNamespace::Surface::MultiSurface::error Pages: 1 -->
<!--zoomable 253 -->
<svg id="main" version="1.1" xmlns="http://www.w3.org/2000/svg" xmlns:xlink="http://www.w3.org/1999/xlink" xml:space="preserve" onload="init(evt)">
<style type="text/css"><![CDATA[
.edge:hover path { stroke: red; }
.edge:hover polygon { stroke: red; fill: red; }
]]></style>
<script type="text/javascript"><![CDATA[
var edges = document.getElementsByTagName('g');
if (edges && edges.length) {
  for (var i=0;i<edges.length;i++) {
    if (edges[i].id.substr(0,4)=='edge') {
      edges[i].setAttribute('class','edge');
    }
  }
}
]]></script>
        <defs>
                <circle id="rim" cx="0" cy="0" r="7"/>
                <circle id="rim2" cx="0" cy="0" r="3.5"/>
                <g id="zoomPlus">
                        <use xlink:href="#rim" fill="#404040">
                                <set attributeName="fill" to="#808080" begin="zoomplus.mouseover" end="zoomplus.mouseout"/>
                        </use>
                        <path d="M-4,0h8M0,-4v8" fill="none" stroke="white" stroke-width="1.5" pointer-events="none"/>
                </g>
                <g id="zoomMin">
                        <use xlink:href="#rim" fill="#404040">
                                <set attributeName="fill" to="#808080" begin="zoomminus.mouseover" end="zoomminus.mouseout"/>
                        </use>
                        <path d="M-4,0h8" fill="none" stroke="white" stroke-width="1.5" pointer-events="none"/>
                </g>
                <g id="dirArrow">
                        <path fill="none" stroke="white" stroke-width="1.5" d="M0,-3.0v7 M-2.5,-0.5L0,-3.0L2.5,-0.5"/>
                </g>
               <g id="resetDef">
                       <use xlink:href="#rim2" fill="#404040">
                               <set attributeName="fill" to="#808080" begin="reset.mouseover" end="reset.mouseout"/>
                       </use>
               </g>
        </defs>

<script type="text/javascript">
var viewWidth = 732;
var viewHeight = 253;
var sectionId = 'dynsection-6';
</script>
<script xlink:href="svgpan.js"/>
<svg id="graph" class="graph">
<g id="viewport">
<title>MainNamespace::Surface::MultiSurface::error</title>
<polygon fill="white" stroke="transparent" points="-4,4 -4,-248.5 728,-248.5 728,4 -4,4"/>
<!-- Node1 -->
<g id="node1" class="node">
<title>Node1</title>
<g id="a_node1"><a xlink:title="Compute the error in several ways.">
<polygon fill="#bfbfbf" stroke="black" points="0,-134.5 0,-164.5 141,-164.5 141,-134.5 0,-134.5"/>
<text text-anchor="start" x="8" y="-152.5" font-family="Helvetica,sans-Serif" font-size="10.00">MainNamespace::Surface</text>
<text text-anchor="middle" x="70.5" y="-141.5" font-family="Helvetica,sans-Serif" font-size="10.00">::MultiSurface::error</text>
</a>
</g>
</g>
<!-- Node2 -->
<g id="node2" class="node">
<title>Node2</title>
<g id="a_node2"><a xlink:href="namespace_main_namespace_1_1_logger.html#afbb4cc2d8b498e71fcb228f0da8309a1" target="_top" xlink:title=" ">
<polygon fill="white" stroke="black" points="385.5,-137 385.5,-156 543.5,-156 543.5,-137 385.5,-137"/>
<text text-anchor="middle" x="464.5" y="-144" font-family="Helvetica,sans-Serif" font-size="10.00">MainNamespace::Logger::log</text>
</a>
</g>
</g>
<!-- Node1&#45;&gt;Node2 -->
<g id="edge1" class="edge">
<title>Node1&#45;&gt;Node2</title>
<path fill="none" stroke="midnightblue" d="M141.13,-148.97C206.45,-148.47 304.42,-147.72 375.2,-147.18"/>
<polygon fill="midnightblue" stroke="midnightblue" points="375.47,-150.67 385.44,-147.1 375.41,-143.67 375.47,-150.67"/>
</g>
<!-- Node4 -->
<g id="node4" class="node">
<title>Node4</title>
<g id="a_node4"><a xlink:href="namespace_main_namespace.html#a78e94b3a3cdc51d20e1c665b3c4dd432" target="_top" xlink:title=" ">
<polygon fill="white" stroke="black" points="184,-181 184,-200 335,-200 335,-181 184,-181"/>
<text text-anchor="middle" x="259.5" y="-188" font-family="Helvetica,sans-Serif" font-size="10.00">MainNamespace::reference</text>
</a>
</g>
</g>
<!-- Node1&#45;&gt;Node4 -->
<g id="edge3" class="edge">
<title>Node1&#45;&gt;Node4</title>
<path fill="none" stroke="midnightblue" d="M140.07,-164.53C161.47,-169.23 184.75,-174.33 204.96,-178.76"/>
<polygon fill="midnightblue" stroke="midnightblue" points="204.4,-182.22 214.92,-180.95 205.9,-175.39 204.4,-182.22"/>
</g>
<!-- Node7 -->
<g id="node7" class="node">
<title>Node7</title>
<g id="a_node7"><a xlink:href="class_main_namespace_1_1_mesh_reader.html#a6b3bbaa0caf0b1e01681dc79a1ac72ea" target="_top" xlink:title="Save the Cauchy data associated to the mesh, with the given name.">
<polygon fill="white" stroke="black" points="177,-90.5 177,-120.5 342,-120.5 342,-90.5 177,-90.5"/>
<text text-anchor="start" x="185" y="-108.5" font-family="Helvetica,sans-Serif" font-size="10.00">MainNamespace::MeshReader</text>
<text text-anchor="middle" x="259.5" y="-97.5" font-family="Helvetica,sans-Serif" font-size="10.00">::saveView</text>
</a>
</g>
</g>
<!-- Node1&#45;&gt;Node7 -->
<g id="edge6" class="edge">
<title>Node1&#45;&gt;Node7</title>
<path fill="none" stroke="midnightblue" d="M135.33,-134.48C151.19,-130.75 168.32,-126.72 184.62,-122.88"/>
<polygon fill="midnightblue" stroke="midnightblue" points="185.71,-126.22 194.64,-120.53 184.1,-119.41 185.71,-126.22"/>
</g>
<!-- Node3 -->
<g id="node3" class="node">
<title>Node3</title>
<g id="a_node3"><a xlink:href="namespace_main_namespace_1_1_logger.html#af052b0198f333fca77f0837a511ec7f7" target="_top" xlink:title=" ">
<polygon fill="white" stroke="black" points="587,-131.5 587,-161.5 724,-161.5 724,-131.5 587,-131.5"/>
<text text-anchor="start" x="595" y="-149.5" font-family="Helvetica,sans-Serif" font-size="10.00">MainNamespace::Logger</text>
<text text-anchor="middle" x="655.5" y="-138.5" font-family="Helvetica,sans-Serif" font-size="10.00">::forwardLog</text>
</a>
</g>
</g>
<!-- Node2&#45;&gt;Node3 -->
<g id="edge2" class="edge">
<title>Node2&#45;&gt;Node3</title>
<path fill="none" stroke="midnightblue" d="M543.74,-146.5C554.59,-146.5 565.73,-146.5 576.58,-146.5"/>
<polygon fill="midnightblue" stroke="midnightblue" points="576.87,-150 586.87,-146.5 576.87,-143 576.87,-150"/>
</g>
<!-- Node5 -->
<g id="node5" class="node">
<title>Node5</title>
<g id="a_node5"><a xlink:href="namespace_main_namespace.html#a6fd76e14adc7d23a9822334cb389b369" target="_top" xlink:title=" ">
<polygon fill="white" stroke="black" points="378.5,-225 378.5,-244 550.5,-244 550.5,-225 378.5,-225"/>
<text text-anchor="middle" x="464.5" y="-232" font-family="Helvetica,sans-Serif" font-size="10.00">MainNamespace::globalOptions</text>
</a>
</g>
</g>
<!-- Node4&#45;&gt;Node5 -->
<g id="edge4" class="edge">
<title>Node4&#45;&gt;Node5</title>
<path fill="none" stroke="midnightblue" d="M304.55,-200.05C335.41,-206.74 376.83,-215.71 409.65,-222.83"/>
<polygon fill="midnightblue" stroke="midnightblue" points="409.02,-226.27 419.54,-224.97 410.51,-219.43 409.02,-226.27"/>
</g>
<!-- Node6 -->
<g id="node6" class="node">
<title>Node6</title>
<g id="a_node6"><a xlink:href="struct_main_namespace_1_1_options.html#a7265db95ee1db24aa677c747ec2ec49b" target="_top" xlink:title=" ">
<polygon fill="white" stroke="black" points="393.5,-175.5 393.5,-205.5 535.5,-205.5 535.5,-175.5 393.5,-175.5"/>
<text text-anchor="start" x="401.5" y="-193.5" font-family="Helvetica,sans-Serif" font-size="10.00">MainNamespace::Options</text>
<text text-anchor="middle" x="464.5" y="-182.5" font-family="Helvetica,sans-Serif" font-size="10.00">::reference</text>
</a>
</g>
</g>
<!-- Node4&#45;&gt;Node6 -->
<g id="edge5" class="edge">
<title>Node4&#45;&gt;Node6</title>
<path fill="none" stroke="midnightblue" d="M335.22,-190.5C350.8,-190.5 367.29,-190.5 383.07,-190.5"/>
<polygon fill="midnightblue" stroke="midnightblue" points="383.31,-194 393.31,-190.5 383.31,-187 383.31,-194"/>
</g>
<!-- Node7&#45;&gt;Node2 -->
<g id="edge8" class="edge">
<title>Node7&#45;&gt;Node2</title>
<path fill="none" stroke="midnightblue" d="M334.94,-120.53C358.49,-125.29 384.14,-130.47 406.28,-134.94"/>
<polygon fill="midnightblue" stroke="midnightblue" points="405.7,-138.4 416.19,-136.95 407.08,-131.53 405.7,-138.4"/>
</g>
<!-- Node8 -->
<g id="node8" class="node">
<title>Node8</title>
<g id="a_node8"><a xlink:href="namespace_main_namespace.html#af2bdf8b63f748b11f1bb616b59890873" target="_top" xlink:title=" ">
<polygon fill="white" stroke="black" points="378,-99 378,-118 551,-118 551,-99 378,-99"/>
<text text-anchor="middle" x="464.5" y="-106" font-family="Helvetica,sans-Serif" font-size="10.00">MainNamespace::getUnderlying</text>
</a>
</g>
</g>
<!-- Node7&#45;&gt;Node8 -->
<g id="edge7" class="edge">
<title>Node7&#45;&gt;Node8</title>
<path fill="none" stroke="midnightblue" d="M342.19,-106.71C350.66,-106.83 359.33,-106.96 367.94,-107.09"/>
<polygon fill="midnightblue" stroke="midnightblue" points="367.95,-110.59 378,-107.24 368.05,-103.59 367.95,-110.59"/>
</g>
<!-- Node9 -->
<g id="node9" class="node">
<title>Node9</title>
<g id="a_node9"><a xlink:href="struct_main_namespace_1_1_mesh.html#a9e3b353180a3b67dc149e8703c164bc3" target="_top" xlink:title="Getter.">
<polygon fill="white" stroke="black" points="399,-49.5 399,-79.5 530,-79.5 530,-49.5 399,-49.5"/>
<text text-anchor="start" x="407" y="-67.5" font-family="Helvetica,sans-Serif" font-size="10.00">MainNamespace::Mesh</text>
<text text-anchor="middle" x="464.5" y="-56.5" font-family="Helvetica,sans-Serif" font-size="10.00">::triangles</text>
</a>
</g>
</g>
<!-- Node7&#45;&gt;Node9 -->
<g id="edge9" class="edge">
<title>Node7&#45;&gt;Node9</title>
<path fill="none" stroke="midnightblue" d="M334.94,-90.47C352.44,-86.93 371.09,-83.16 388.61,-79.62"/>
<polygon fill="midnightblue" stroke="midnightblue" points="389.67,-82.98 398.78,-77.57 388.28,-76.12 389.67,-82.98"/>
</g>
<!-- Node10 -->
<g id="node10" class="node">
<title>Node10</title>
<g id="a_node10"><a xlink:href="struct_main_namespace_1_1_mesh.html#ab0133714e18c8aaee3deb84910cef54c" target="_top" xlink:title="Getter.">
<polygon fill="white" stroke="black" points="399,-0.5 399,-30.5 530,-30.5 530,-0.5 399,-0.5"/>
<text text-anchor="start" x="407" y="-18.5" font-family="Helvetica,sans-Serif" font-size="10.00">MainNamespace::Mesh</text>
<text text-anchor="middle" x="464.5" y="-7.5" font-family="Helvetica,sans-Serif" font-size="10.00">::vertices</text>
</a>
</g>
</g>
<!-- Node7&#45;&gt;Node10 -->
<g id="edge10" class="edge">
<title>Node7&#45;&gt;Node10</title>
<path fill="none" stroke="midnightblue" d="M283.52,-90.39C306.63,-75.75 343.63,-53.74 378,-39.5 382.99,-37.43 388.21,-35.49 393.5,-33.66"/>
<polygon fill="midnightblue" stroke="midnightblue" points="394.68,-36.96 403.09,-30.51 392.5,-30.31 394.68,-36.96"/>
</g>
</g>
</svg>
        <g id="navigator" transform="translate(0 0)" fill="#404254">
                <rect fill="#f2f5e9" fill-opacity="0.5" stroke="#606060" stroke-width=".5" x="0" y="0" width="60" height="60"/>
                <use id="zoomplus" xlink:href="#zoomPlus" x="17" y="9" onmousedown="handleZoom(evt,'in')"/>
                <use id="zoomminus" xlink:href="#zoomMin" x="42" y="9" onmousedown="handleZoom(evt,'out')"/>
                <use id="reset" xlink:href="#resetDef" x="30" y="36" onmousedown="handleReset()"/>
                <g id="arrowUp" xlink:href="#dirArrow" transform="translate(30 24)" onmousedown="handlePan(0,-1)">
                  <use xlink:href="#rim" fill="#404040">
                        <set attributeName="fill" to="#808080" begin="arrowUp.mouseover" end="arrowUp.mouseout"/>
                  </use>
                  <path fill="none" stroke="white" stroke-width="1.5" d="M0,-3.0v7 M-2.5,-0.5L0,-3.0L2.5,-0.5"/>
                </g>
                <g id="arrowRight" xlink:href="#dirArrow" transform="rotate(90) translate(36 -43)" onmousedown="handlePan(1,0)">
                  <use xlink:href="#rim" fill="#404040">
                        <set attributeName="fill" to="#808080" begin="arrowRight.mouseover" end="arrowRight.mouseout"/>
                  </use>
                  <path fill="none" stroke="white" stroke-width="1.5" d="M0,-3.0v7 M-2.5,-0.5L0,-3.0L2.5,-0.5"/>
                </g>
                <g id="arrowDown" xlink:href="#dirArrow" transform="rotate(180) translate(-30 -48)" onmousedown="handlePan(0,1)">
                  <use xlink:href="#rim" fill="#404040">
                        <set attributeName="fill" to="#808080" begin="arrowDown.mouseover" end="arrowDown.mouseout"/>
                  </use>
                  <path fill="none" stroke="white" stroke-width="1.5" d="M0,-3.0v7 M-2.5,-0.5L0,-3.0L2.5,-0.5"/>
                </g>
                <g id="arrowLeft" xlink:href="#dirArrow" transform="rotate(270) translate(-36 17)" onmousedown="handlePan(-1,0)">
                  <use xlink:href="#rim" fill="#404040">
                        <set attributeName="fill" to="#808080" begin="arrowLeft.mouseover" end="arrowLeft.mouseout"/>
                  </use>
                  <path fill="none" stroke="white" stroke-width="1.5" d="M0,-3.0v7 M-2.5,-0.5L0,-3.0L2.5,-0.5"/>
                </g>
        </g>
        <svg viewBox="0 0 15 15" width="100%" height="30px" preserveAspectRatio="xMaxYMin meet">
         <g id="arrow_out" transform="scale(0.3 0.3)">
          <a xlink:href="class_main_namespace_1_1_surface_1_1_multi_surface_a5e65e47cb2b222bd9a5e7cc40e1c23e1_cgraph_org.svg" target="_base">
           <rect id="button" ry="5" rx="5" y="6" x="6" height="38" width="38"
                fill="#f2f5e9" fill-opacity="0.5" stroke="#606060" stroke-width="1.0"/>
           <path id="arrow"
             d="M 11.500037,31.436501 C 11.940474,20.09759 22.043105,11.32322 32.158766,21.979434 L 37.068811,17.246167 C 37.068811,17.246167 37.088388,32 37.088388,32 L 22.160133,31.978069 C 22.160133,31.978069 26.997745,27.140456 26.997745,27.140456 C 18.528582,18.264221 13.291696,25.230495 11.500037,31.436501 z"
             style="fill:#404040;"/>
          </a>
         </g>
        </svg>
</svg>
