<?xml version="1.0" encoding="UTF-8" standalone="no"?>
<!DOCTYPE svg PUBLIC "-//W3C//DTD SVG 1.1//EN"
 "http://www.w3.org/Graphics/SVG/1.1/DTD/svg11.dtd">
<!-- Generated by graphviz version 2.43.0 (0)
 -->
<!-- Title: MainNamespace::DH2MatrixWrapper Pages: 1 -->
<!--zoomable 306 -->
<svg id="main" version="1.1" xmlns="http://www.w3.org/2000/svg" xmlns:xlink="http://www.w3.org/1999/xlink" xml:space="preserve" onload="init(evt)">
<style type="text/css"><![CDATA[
.edge:hover path { stroke: red; }
.edge:hover polygon { stroke: red; fill: red; }
]]></style>
<script type="text/javascript"><![CDATA[
var edges = document.getElementsByTagName('g');
if (edges && edges.length) {
  for (var i=0;i<edges.length;i++) {
    if (edges[i].id.substr(0,4)=='edge') {
      edges[i].setAttribute('class','edge');
    }
  }
}
]]></script>
        <defs>
                <circle id="rim" cx="0" cy="0" r="7"/>
                <circle id="rim2" cx="0" cy="0" r="3.5"/>
                <g id="zoomPlus">
                        <use xlink:href="#rim" fill="#404040">
                                <set attributeName="fill" to="#808080" begin="zoomplus.mouseover" end="zoomplus.mouseout"/>
                        </use>
                        <path d="M-4,0h8M0,-4v8" fill="none" stroke="white" stroke-width="1.5" pointer-events="none"/>
                </g>
                <g id="zoomMin">
                        <use xlink:href="#rim" fill="#404040">
                                <set attributeName="fill" to="#808080" begin="zoomminus.mouseover" end="zoomminus.mouseout"/>
                        </use>
                        <path d="M-4,0h8" fill="none" stroke="white" stroke-width="1.5" pointer-events="none"/>
                </g>
                <g id="dirArrow">
                        <path fill="none" stroke="white" stroke-width="1.5" d="M0,-3.0v7 M-2.5,-0.5L0,-3.0L2.5,-0.5"/>
                </g>
               <g id="resetDef">
                       <use xlink:href="#rim2" fill="#404040">
                               <set attributeName="fill" to="#808080" begin="reset.mouseover" end="reset.mouseout"/>
                       </use>
               </g>
        </defs>

<script type="text/javascript">
var viewWidth = 1272;
var viewHeight = 306;
var sectionId = 'dynsection-0';
</script>
<script xlink:href="svgpan.js"/>
<svg id="graph" class="graph">
<g id="viewport">
<title>MainNamespace::DH2MatrixWrapper</title>
<polygon fill="white" stroke="transparent" points="-4,4 -4,-302 1268,-302 1268,4 -4,4"/>
<!-- Node1 -->
<g id="node1" class="node">
<title>Node1</title>
<g id="a_node1"><a xlink:title=" ">
<polygon fill="#bfbfbf" stroke="black" points="1107,-150 1107,-180 1264,-180 1264,-150 1107,-150"/>
<text text-anchor="start" x="1115" y="-168" font-family="Helvetica,sans-Serif" font-size="10.00">MainNamespace::DH2Matrix</text>
<text text-anchor="middle" x="1185.5" y="-157" font-family="Helvetica,sans-Serif" font-size="10.00">Wrapper</text>
</a>
</g>
</g>
<!-- Node2 -->
<g id="node2" class="node">
<title>Node2</title>
<g id="a_node2"><a xlink:href="class_main_namespace_1_1_dumb_pointer.html" target="_top" xlink:title=" ">
<polygon fill="white" stroke="black" points="430,-239 430,-269 598,-269 598,-239 430,-239"/>
<text text-anchor="start" x="438" y="-257" font-family="Helvetica,sans-Serif" font-size="10.00">MainNamespace::DumbPointer</text>
<text text-anchor="middle" x="514" y="-246" font-family="Helvetica,sans-Serif" font-size="10.00">&lt; dh2matrix &gt;</text>
</a>
</g>
</g>
<!-- Node2&#45;&gt;Node1 -->
<g id="edge1" class="edge">
<title>Node2&#45;&gt;Node1</title>
<path fill="none" stroke="#9a32cd" stroke-dasharray="5,2" d="M608.3,-247.28C722.33,-238.19 920.89,-219.5 1089,-189 1102.37,-186.57 1116.65,-183.34 1129.98,-180.03"/>
<polygon fill="#9a32cd" stroke="#9a32cd" points="607.9,-243.8 598.2,-248.08 608.45,-250.78 607.9,-243.8"/>
<text text-anchor="middle" x="885.5" y="-232" font-family="Helvetica,sans-Serif" font-size="10.00"> matrix_</text>
</g>
<!-- Node3 -->
<g id="node3" class="node">
<title>Node3</title>
<g id="a_node3"><a xlink:href="classdh2matrix_01_5.html" target="_top" xlink:title=" ">
<polygon fill="white" stroke="black" points="185.5,-278.5 185.5,-297.5 260.5,-297.5 260.5,-278.5 185.5,-278.5"/>
<text text-anchor="middle" x="223" y="-285.5" font-family="Helvetica,sans-Serif" font-size="10.00">dh2matrix *</text>
</a>
</g>
</g>
<!-- Node3&#45;&gt;Node2 -->
<g id="edge2" class="edge">
<title>Node3&#45;&gt;Node2</title>
<path fill="none" stroke="#9a32cd" stroke-dasharray="5,2" d="M271.01,-282.52C309.04,-278.09 363.97,-271.66 412,-266 417.79,-265.32 423.76,-264.61 429.78,-263.9"/>
<polygon fill="#9a32cd" stroke="#9a32cd" points="270.27,-279.08 260.75,-283.72 271.08,-286.04 270.27,-279.08"/>
<text text-anchor="middle" x="368.5" y="-278" font-family="Helvetica,sans-Serif" font-size="10.00"> data_</text>
</g>
<!-- Node4 -->
<g id="node4" class="node">
<title>Node4</title>
<g id="a_node4"><a xlink:href="class_main_namespace_1_1_dumb_pointer.html" target="_top" xlink:title=" ">
<polygon fill="white" stroke="black" points="139,-149 139,-179 307,-179 307,-149 139,-149"/>
<text text-anchor="start" x="147" y="-167" font-family="Helvetica,sans-Serif" font-size="10.00">MainNamespace::DumbPointer</text>
<text text-anchor="middle" x="223" y="-156" font-family="Helvetica,sans-Serif" font-size="10.00">&lt; BaseData &gt;</text>
</a>
</g>
</g>
<!-- Node4&#45;&gt;Node2 -->
<g id="edge3" class="edge">
<title>Node4&#45;&gt;Node2</title>
<path fill="none" stroke="orange" stroke-dasharray="5,2" d="M277.8,-183.36C288.02,-188.28 298.24,-194.16 307,-201 317.23,-208.99 313.82,-217.41 325,-224 356.32,-242.46 395.44,-250.59 429.87,-253.87"/>
<polygon fill="orange" stroke="orange" points="279.01,-180.06 268.46,-179.1 276.11,-186.43 279.01,-180.06"/>
<text text-anchor="middle" x="368.5" y="-254" font-family="Helvetica,sans-Serif" font-size="10.00"> &lt; dh2matrix &gt;</text>
</g>
<!-- Node6 -->
<g id="node6" class="node">
<title>Node6</title>
<g id="a_node6"><a xlink:href="class_main_namespace_1_1_dumb_pointer.html" target="_top" xlink:title=" ">
<polygon fill="white" stroke="black" points="430,-176 430,-206 598,-206 598,-176 430,-176"/>
<text text-anchor="start" x="438" y="-194" font-family="Helvetica,sans-Serif" font-size="10.00">MainNamespace::DumbPointer</text>
<text text-anchor="middle" x="514" y="-183" font-family="Helvetica,sans-Serif" font-size="10.00">&lt; helmholtz3d &gt;</text>
</a>
</g>
</g>
<!-- Node4&#45;&gt;Node6 -->
<g id="edge7" class="edge">
<title>Node4&#45;&gt;Node6</title>
<path fill="none" stroke="orange" stroke-dasharray="5,2" d="M317.28,-172.72C353.52,-176.1 394.68,-179.95 429.88,-183.23"/>
<polygon fill="orange" stroke="orange" points="317.49,-169.22 307.2,-171.77 316.83,-176.19 317.49,-169.22"/>
<text text-anchor="middle" x="368.5" y="-184" font-family="Helvetica,sans-Serif" font-size="10.00"> &lt; helmholtz3d &gt;</text>
</g>
<!-- Node8 -->
<g id="node8" class="node">
<title>Node8</title>
<g id="a_node8"><a xlink:href="class_main_namespace_1_1_dumb_pointer.html" target="_top" xlink:title=" ">
<polygon fill="white" stroke="black" points="430,-127 430,-157 598,-157 598,-127 430,-127"/>
<text text-anchor="start" x="438" y="-145" font-family="Helvetica,sans-Serif" font-size="10.00">MainNamespace::DumbPointer</text>
<text text-anchor="middle" x="514" y="-134" font-family="Helvetica,sans-Serif" font-size="10.00">&lt; dblock &gt;</text>
</a>
</g>
</g>
<!-- Node4&#45;&gt;Node8 -->
<g id="edge10" class="edge">
<title>Node4&#45;&gt;Node8</title>
<path fill="none" stroke="orange" stroke-dasharray="5,2" d="M317.29,-153.67C319.89,-153.44 322.46,-153.21 325,-153 359.21,-150.14 396.98,-147.77 429.64,-145.98"/>
<polygon fill="orange" stroke="orange" points="316.83,-150.2 307.19,-154.61 317.47,-157.17 316.83,-150.2"/>
<text text-anchor="middle" x="368.5" y="-156" font-family="Helvetica,sans-Serif" font-size="10.00"> &lt; dblock &gt;</text>
</g>
<!-- Node11 -->
<g id="node11" class="node">
<title>Node11</title>
<g id="a_node11"><a xlink:href="class_main_namespace_1_1_dumb_pointer.html" target="_top" xlink:title=" ">
<polygon fill="white" stroke="black" points="430,-68 430,-98 598,-98 598,-68 430,-68"/>
<text text-anchor="start" x="438" y="-86" font-family="Helvetica,sans-Serif" font-size="10.00">MainNamespace::DumbPointer</text>
<text text-anchor="middle" x="514" y="-75" font-family="Helvetica,sans-Serif" font-size="10.00">&lt; dcluster &gt;</text>
</a>
</g>
</g>
<!-- Node4&#45;&gt;Node11 -->
<g id="edge14" class="edge">
<title>Node4&#45;&gt;Node11</title>
<path fill="none" stroke="orange" stroke-dasharray="5,2" d="M279.79,-145.76C294.45,-141.12 310.28,-136.25 325,-132 367.13,-119.84 414.95,-107.4 451.82,-98.09"/>
<polygon fill="orange" stroke="orange" points="278.32,-142.55 269.85,-148.92 280.44,-149.22 278.32,-142.55"/>
<text text-anchor="middle" x="368.5" y="-135" font-family="Helvetica,sans-Serif" font-size="10.00"> &lt; dcluster &gt;</text>
</g>
<!-- Node5 -->
<g id="node5" class="node">
<title>Node5</title>
<g id="a_node5"><a xlink:title=" ">
<polygon fill="white" stroke="black" points="0,-154.5 0,-173.5 72,-173.5 72,-154.5 0,-154.5"/>
<text text-anchor="middle" x="36" y="-161.5" font-family="Helvetica,sans-Serif" font-size="10.00">BaseData *</text>
</a>
</g>
</g>
<!-- Node5&#45;&gt;Node4 -->
<g id="edge4" class="edge">
<title>Node5&#45;&gt;Node4</title>
<path fill="none" stroke="#9a32cd" stroke-dasharray="5,2" d="M82.46,-164C99.53,-164 119.52,-164 138.94,-164"/>
<polygon fill="#9a32cd" stroke="#9a32cd" points="82.23,-160.5 72.23,-164 82.23,-167.5 82.23,-160.5"/>
<text text-anchor="middle" x="105.5" y="-167" font-family="Helvetica,sans-Serif" font-size="10.00"> data_</text>
</g>
<!-- Node6&#45;&gt;Node1 -->
<g id="edge5" class="edge">
<title>Node6&#45;&gt;Node1</title>
<path fill="none" stroke="#9a32cd" stroke-dasharray="5,2" d="M608.29,-189.57C721.92,-187.48 919.67,-182.74 1089,-173 1094.81,-172.67 1100.82,-172.27 1106.87,-171.84"/>
<polygon fill="#9a32cd" stroke="#9a32cd" points="608.17,-186.07 598.24,-189.75 608.3,-193.07 608.17,-186.07"/>
<text text-anchor="middle" x="885.5" y="-187" font-family="Helvetica,sans-Serif" font-size="10.00"> bemDescription_</text>
</g>
<!-- Node7 -->
<g id="node7" class="node">
<title>Node7</title>
<g id="a_node7"><a xlink:href="classhelmholtz3d_01_5.html" target="_top" xlink:title=" ">
<polygon fill="white" stroke="black" points="180,-210.5 180,-229.5 266,-229.5 266,-210.5 180,-210.5"/>
<text text-anchor="middle" x="223" y="-217.5" font-family="Helvetica,sans-Serif" font-size="10.00">helmholtz3d *</text>
</a>
</g>
</g>
<!-- Node7&#45;&gt;Node6 -->
<g id="edge6" class="edge">
<title>Node7&#45;&gt;Node6</title>
<path fill="none" stroke="#9a32cd" stroke-dasharray="5,2" d="M276.2,-214.76C318.95,-210.47 380.22,-204.32 429.73,-199.36"/>
<polygon fill="#9a32cd" stroke="#9a32cd" points="275.62,-211.3 266.02,-215.78 276.32,-218.27 275.62,-211.3"/>
<text text-anchor="middle" x="368.5" y="-212" font-family="Helvetica,sans-Serif" font-size="10.00"> data_</text>
</g>
<!-- Node8&#45;&gt;Node1 -->
<g id="edge8" class="edge">
<title>Node8&#45;&gt;Node1</title>
<path fill="none" stroke="#9a32cd" stroke-dasharray="5,2" d="M608.35,-144.95C700.52,-147.88 845.49,-152.58 971,-157 1016.04,-158.58 1066.42,-160.47 1106.92,-162.01"/>
<polygon fill="#9a32cd" stroke="#9a32cd" points="608.32,-141.44 598.21,-144.62 608.1,-148.44 608.32,-141.44"/>
<text text-anchor="middle" x="885.5" y="-160" font-family="Helvetica,sans-Serif" font-size="10.00"> directionalBlock_</text>
</g>
<!-- Node9 -->
<g id="node9" class="node">
<title>Node9</title>
<g id="a_node9"><a xlink:href="classdblock_01_5.html" target="_top" xlink:title=" ">
<polygon fill="white" stroke="black" points="194.5,-76.5 194.5,-95.5 251.5,-95.5 251.5,-76.5 194.5,-76.5"/>
<text text-anchor="middle" x="223" y="-83.5" font-family="Helvetica,sans-Serif" font-size="10.00">dblock *</text>
</a>
</g>
</g>
<!-- Node9&#45;&gt;Node8 -->
<g id="edge9" class="edge">
<title>Node9&#45;&gt;Node8</title>
<path fill="none" stroke="#9a32cd" stroke-dasharray="5,2" d="M261.85,-76.4C301.44,-68.43 364.33,-61.77 412,-85 423.67,-90.69 419.65,-100.17 430,-108 440.18,-115.7 452.36,-121.96 464.2,-126.91"/>
<polygon fill="#9a32cd" stroke="#9a32cd" points="260.87,-73.03 251.82,-78.54 262.33,-79.87 260.87,-73.03"/>
<text text-anchor="middle" x="368.5" y="-88" font-family="Helvetica,sans-Serif" font-size="10.00"> data_</text>
</g>
<!-- Node10 -->
<g id="node10" class="node">
<title>Node10</title>
<g id="a_node10"><a xlink:title=" ">
<polygon fill="white" stroke="black" points="800,-68 800,-98 971,-98 971,-68 800,-68"/>
<text text-anchor="start" x="808" y="-86" font-family="Helvetica,sans-Serif" font-size="10.00">std::array&lt; MainNamespace</text>
<text text-anchor="middle" x="885.5" y="-75" font-family="Helvetica,sans-Serif" font-size="10.00">::DumbPointer&lt; dcluster &gt;, 2 &gt;</text>
</a>
</g>
</g>
<!-- Node10&#45;&gt;Node1 -->
<g id="edge11" class="edge">
<title>Node10&#45;&gt;Node1</title>
<path fill="none" stroke="#9a32cd" stroke-dasharray="5,2" d="M981.18,-92.92C1015.67,-98.08 1054.61,-105.76 1089,-117 1114.04,-125.19 1140.69,-139.06 1159.45,-149.79"/>
<polygon fill="#9a32cd" stroke="#9a32cd" points="981.51,-89.43 971.11,-91.46 980.5,-96.36 981.51,-89.43"/>
<text text-anchor="middle" x="1039" y="-120" font-family="Helvetica,sans-Serif" font-size="10.00"> directionalClusters_</text>
</g>
<!-- Node11&#45;&gt;Node10 -->
<g id="edge12" class="edge">
<title>Node11&#45;&gt;Node10</title>
<path fill="none" stroke="#9a32cd" stroke-dasharray="5,2" d="M608.43,-83C667.3,-83 742.7,-83 799.82,-83"/>
<polygon fill="#9a32cd" stroke="#9a32cd" points="608.38,-79.5 598.38,-83 608.38,-86.5 608.38,-79.5"/>
<text text-anchor="middle" x="699" y="-86" font-family="Helvetica,sans-Serif" font-size="10.00"> elements</text>
</g>
<!-- Node12 -->
<g id="node12" class="node">
<title>Node12</title>
<g id="a_node12"><a xlink:href="classdcluster_01_5.html" target="_top" xlink:title=" ">
<polygon fill="white" stroke="black" points="191,-38.5 191,-57.5 255,-57.5 255,-38.5 191,-38.5"/>
<text text-anchor="middle" x="223" y="-45.5" font-family="Helvetica,sans-Serif" font-size="10.00">dcluster *</text>
</a>
</g>
</g>
<!-- Node12&#45;&gt;Node11 -->
<g id="edge13" class="edge">
<title>Node12&#45;&gt;Node11</title>
<path fill="none" stroke="#9a32cd" stroke-dasharray="5,2" d="M265.43,-45.23C303.73,-43.48 362.08,-42.87 412,-51 433.06,-54.43 455.77,-61.32 474.31,-67.83"/>
<polygon fill="#9a32cd" stroke="#9a32cd" points="264.99,-41.75 255.18,-45.75 265.35,-48.74 264.99,-41.75"/>
<text text-anchor="middle" x="368.5" y="-54" font-family="Helvetica,sans-Serif" font-size="10.00"> data_</text>
</g>
<!-- Node13 -->
<g id="node13" class="node">
<title>Node13</title>
<g id="a_node13"><a xlink:title=" ">
<polygon fill="white" stroke="black" points="468,-11.5 468,-30.5 560,-30.5 560,-11.5 468,-11.5"/>
<text text-anchor="middle" x="514" y="-18.5" font-family="Helvetica,sans-Serif" font-size="10.00">std::array&lt; T &gt;</text>
</a>
</g>
</g>
<!-- Node13&#45;&gt;Node10 -->
<g id="edge15" class="edge">
<title>Node13&#45;&gt;Node10</title>
<path fill="none" stroke="orange" stroke-dasharray="5,2" d="M570.22,-26.58C624.42,-32.49 709.31,-42.93 782,-57 797.68,-60.04 814.54,-64.01 829.97,-67.94"/>
<polygon fill="orange" stroke="orange" points="570.45,-23.08 560.14,-25.49 569.7,-30.04 570.45,-23.08"/>
<text text-anchor="start" x="616" y="-71" font-family="Helvetica,sans-Serif" font-size="10.00"> &lt; MainNamespace::DumbPointer</text>
<text text-anchor="middle" x="699" y="-60" font-family="Helvetica,sans-Serif" font-size="10.00">&lt; dcluster &gt;, 2 &gt;</text>
</g>
<!-- Node14 -->
<g id="node14" class="node">
<title>Node14</title>
<g id="a_node14"><a xlink:title=" ">
<polygon fill="white" stroke="black" points="208.5,-0.5 208.5,-19.5 237.5,-19.5 237.5,-0.5 208.5,-0.5"/>
<text text-anchor="middle" x="223" y="-7.5" font-family="Helvetica,sans-Serif" font-size="10.00">T</text>
</a>
</g>
</g>
<!-- Node14&#45;&gt;Node13 -->
<g id="edge16" class="edge">
<title>Node14&#45;&gt;Node13</title>
<path fill="none" stroke="#9a32cd" stroke-dasharray="5,2" d="M248.07,-10.39C283.83,-11.02 353.13,-12.47 412,-15 430.25,-15.78 450.34,-16.92 467.77,-18"/>
<polygon fill="#9a32cd" stroke="#9a32cd" points="247.75,-6.88 237.69,-10.21 247.63,-13.88 247.75,-6.88"/>
<text text-anchor="middle" x="368.5" y="-18" font-family="Helvetica,sans-Serif" font-size="10.00"> elements</text>
</g>
</g>
</svg>
        <g id="navigator" transform="translate(0 0)" fill="#404254">
                <rect fill="#f2f5e9" fill-opacity="0.5" stroke="#606060" stroke-width=".5" x="0" y="0" width="60" height="60"/>
                <use id="zoomplus" xlink:href="#zoomPlus" x="17" y="9" onmousedown="handleZoom(evt,'in')"/>
                <use id="zoomminus" xlink:href="#zoomMin" x="42" y="9" onmousedown="handleZoom(evt,'out')"/>
                <use id="reset" xlink:href="#resetDef" x="30" y="36" onmousedown="handleReset()"/>
                <g id="arrowUp" xlink:href="#dirArrow" transform="translate(30 24)" onmousedown="handlePan(0,-1)">
                  <use xlink:href="#rim" fill="#404040">
                        <set attributeName="fill" to="#808080" begin="arrowUp.mouseover" end="arrowUp.mouseout"/>
                  </use>
                  <path fill="none" stroke="white" stroke-width="1.5" d="M0,-3.0v7 M-2.5,-0.5L0,-3.0L2.5,-0.5"/>
                </g>
                <g id="arrowRight" xlink:href="#dirArrow" transform="rotate(90) translate(36 -43)" onmousedown="handlePan(1,0)">
                  <use xlink:href="#rim" fill="#404040">
                        <set attributeName="fill" to="#808080" begin="arrowRight.mouseover" end="arrowRight.mouseout"/>
                  </use>
                  <path fill="none" stroke="white" stroke-width="1.5" d="M0,-3.0v7 M-2.5,-0.5L0,-3.0L2.5,-0.5"/>
                </g>
                <g id="arrowDown" xlink:href="#dirArrow" transform="rotate(180) translate(-30 -48)" onmousedown="handlePan(0,1)">
                  <use xlink:href="#rim" fill="#404040">
                        <set attributeName="fill" to="#808080" begin="arrowDown.mouseover" end="arrowDown.mouseout"/>
                  </use>
                  <path fill="none" stroke="white" stroke-width="1.5" d="M0,-3.0v7 M-2.5,-0.5L0,-3.0L2.5,-0.5"/>
                </g>
                <g id="arrowLeft" xlink:href="#dirArrow" transform="rotate(270) translate(-36 17)" onmousedown="handlePan(-1,0)">
                  <use xlink:href="#rim" fill="#404040">
                        <set attributeName="fill" to="#808080" begin="arrowLeft.mouseover" end="arrowLeft.mouseout"/>
                  </use>
                  <path fill="none" stroke="white" stroke-width="1.5" d="M0,-3.0v7 M-2.5,-0.5L0,-3.0L2.5,-0.5"/>
                </g>
        </g>
        <svg viewBox="0 0 15 15" width="100%" height="30px" preserveAspectRatio="xMaxYMin meet">
         <g id="arrow_out" transform="scale(0.3 0.3)">
          <a xlink:href="class_main_namespace_1_1_d_h2_matrix_wrapper__coll__graph_org.svg" target="_base">
           <rect id="button" ry="5" rx="5" y="6" x="6" height="38" width="38"
                fill="#f2f5e9" fill-opacity="0.5" stroke="#606060" stroke-width="1.0"/>
           <path id="arrow"
             d="M 11.500037,31.436501 C 11.940474,20.09759 22.043105,11.32322 32.158766,21.979434 L 37.068811,17.246167 C 37.068811,17.246167 37.088388,32 37.088388,32 L 22.160133,31.978069 C 22.160133,31.978069 26.997745,27.140456 26.997745,27.140456 C 18.528582,18.264221 13.291696,25.230495 11.500037,31.436501 z"
             style="fill:#404040;"/>
          </a>
         </g>
        </svg>
</svg>
