<?xml version="1.0" encoding="UTF-8" standalone="no"?>
<!DOCTYPE svg PUBLIC "-//W3C//DTD SVG 1.1//EN"
 "http://www.w3.org/Graphics/SVG/1.1/DTD/svg11.dtd">
<!-- Generated by graphviz version 2.43.0 (0)
 -->
<!-- Title: lyra::arg::parse Pages: 1 -->
<svg width="748pt" height="239pt"
 viewBox="0.00 0.00 748.00 239.00" xmlns="http://www.w3.org/2000/svg" xmlns:xlink="http://www.w3.org/1999/xlink">
<g id="graph0" class="graph" transform="scale(1 1) rotate(0) translate(4 235)">
<title>lyra::arg::parse</title>
<polygon fill="white" stroke="transparent" points="-4,4 -4,-235 744,-235 744,4 -4,4"/>
<!-- Node1 -->
<g id="node1" class="node">
<title>Node1</title>
<g id="a_node1"><a xlink:title=" ">
<polygon fill="#bfbfbf" stroke="black" points="0,-113 0,-132 90,-132 90,-113 0,-113"/>
<text text-anchor="middle" x="45" y="-120" font-family="Helvetica,sans-Serif" font-size="10.00">lyra::arg::parse</text>
</a>
</g>
</g>
<!-- Node2 -->
<g id="node2" class="node">
<title>Node2</title>
<g id="a_node2"><a xlink:href="classlyra_1_1detail_1_1token__iterator.html#ac3007dcca2221df17bcfba6815a60aff" target="_top" xlink:title=" ">
<polygon fill="white" stroke="black" points="147,-200.5 147,-230.5 258,-230.5 258,-200.5 147,-200.5"/>
<text text-anchor="start" x="155" y="-218.5" font-family="Helvetica,sans-Serif" font-size="10.00">lyra::detail::token</text>
<text text-anchor="middle" x="202.5" y="-207.5" font-family="Helvetica,sans-Serif" font-size="10.00">_iterator::argument</text>
</a>
</g>
</g>
<!-- Node1&#45;&gt;Node2 -->
<g id="edge1" class="edge">
<title>Node1&#45;&gt;Node2</title>
<path fill="none" stroke="midnightblue" d="M54.94,-132.19C68.85,-146.73 97.08,-174.24 126,-190.5 129.72,-192.59 133.65,-194.55 137.68,-196.36"/>
<polygon fill="midnightblue" stroke="midnightblue" points="136.62,-199.71 147.2,-200.35 139.33,-193.26 136.62,-199.71"/>
</g>
<!-- Node3 -->
<g id="node3" class="node">
<title>Node3</title>
<g id="a_node3"><a xlink:href="classlyra_1_1parser.html#a59a2a42cea85955a811279a463777b9d" target="_top" xlink:title=" ">
<polygon fill="white" stroke="black" points="126,-162 126,-181 279,-181 279,-162 126,-162"/>
<text text-anchor="middle" x="202.5" y="-169" font-family="Helvetica,sans-Serif" font-size="10.00">lyra::parser::get_usage_text</text>
</a>
</g>
</g>
<!-- Node1&#45;&gt;Node3 -->
<g id="edge2" class="edge">
<title>Node1&#45;&gt;Node3</title>
<path fill="none" stroke="midnightblue" d="M69.56,-132.13C85.37,-138.4 106.74,-146.49 126,-152.5 133.8,-154.93 142.12,-157.28 150.29,-159.44"/>
<polygon fill="midnightblue" stroke="midnightblue" points="149.57,-162.87 160.12,-161.98 151.31,-156.09 149.57,-162.87"/>
</g>
<!-- Node4 -->
<g id="node4" class="node">
<title>Node4</title>
<g id="a_node4"><a xlink:href="classlyra_1_1detail_1_1basic__result.html#aee577409a431e215136ffc0764e5432b" target="_top" xlink:title=" ">
<polygon fill="white" stroke="black" points="141.5,-102 141.5,-143 263.5,-143 263.5,-102 141.5,-102"/>
<text text-anchor="start" x="149.5" y="-131" font-family="Helvetica,sans-Serif" font-size="10.00">lyra::detail::basic</text>
<text text-anchor="start" x="149.5" y="-120" font-family="Helvetica,sans-Serif" font-size="10.00">_result&lt; detail::parse</text>
<text text-anchor="middle" x="202.5" y="-109" font-family="Helvetica,sans-Serif" font-size="10.00">_state &gt;::ok</text>
</a>
</g>
</g>
<!-- Node1&#45;&gt;Node4 -->
<g id="edge3" class="edge">
<title>Node1&#45;&gt;Node4</title>
<path fill="none" stroke="midnightblue" d="M90.14,-122.5C102.93,-122.5 117.22,-122.5 131.19,-122.5"/>
<polygon fill="midnightblue" stroke="midnightblue" points="131.28,-126 141.28,-122.5 131.28,-119 131.28,-126"/>
</g>
<!-- Node5 -->
<g id="node5" class="node">
<title>Node5</title>
<g id="a_node5"><a xlink:href="classlyra_1_1detail_1_1token__iterator.html#a017af8979ef14eac5c1fd010b1391035" target="_top" xlink:title=" ">
<polygon fill="white" stroke="black" points="151.5,-52.5 151.5,-82.5 253.5,-82.5 253.5,-52.5 151.5,-52.5"/>
<text text-anchor="start" x="159.5" y="-70.5" font-family="Helvetica,sans-Serif" font-size="10.00">lyra::detail::token</text>
<text text-anchor="middle" x="202.5" y="-59.5" font-family="Helvetica,sans-Serif" font-size="10.00">_iterator::pop</text>
</a>
</g>
</g>
<!-- Node1&#45;&gt;Node5 -->
<g id="edge4" class="edge">
<title>Node1&#45;&gt;Node5</title>
<path fill="none" stroke="midnightblue" d="M70.77,-112.93C86.53,-106.91 107.4,-99.07 126,-92.5 132.3,-90.28 138.91,-88 145.5,-85.77"/>
<polygon fill="midnightblue" stroke="midnightblue" points="146.72,-89.05 155.09,-82.55 144.49,-82.42 146.72,-89.05"/>
</g>
<!-- Node9 -->
<g id="node9" class="node">
<title>Node9</title>
<g id="a_node9"><a xlink:href="classlyra_1_1parser.html#ab9d9c5b96021198e37bb80f2df888f71" target="_top" xlink:title=" ">
<polygon fill="white" stroke="black" points="143.5,-11 143.5,-30 261.5,-30 261.5,-11 143.5,-11"/>
<text text-anchor="middle" x="202.5" y="-18" font-family="Helvetica,sans-Serif" font-size="10.00">lyra::parser::validate</text>
</a>
</g>
</g>
<!-- Node1&#45;&gt;Node9 -->
<g id="edge8" class="edge">
<title>Node1&#45;&gt;Node9</title>
<path fill="none" stroke="midnightblue" d="M53.01,-112.81C65.67,-96 94.05,-61.41 126,-42.5 131.92,-39 138.44,-36.02 145.08,-33.5"/>
<polygon fill="midnightblue" stroke="midnightblue" points="146.55,-36.69 154.86,-30.12 144.26,-30.08 146.55,-36.69"/>
</g>
<!-- Node6 -->
<g id="node6" class="node">
<title>Node6</title>
<g id="a_node6"><a xlink:href="classlyra_1_1detail_1_1token__iterator.html#a368b12d3ecc2c462c24e1d8723ce5f4f" target="_top" xlink:title=" ">
<polygon fill="white" stroke="black" points="315,-50 315,-91 426,-91 426,-50 315,-50"/>
<text text-anchor="start" x="323" y="-79" font-family="Helvetica,sans-Serif" font-size="10.00">lyra::detail::token</text>
<text text-anchor="start" x="323" y="-68" font-family="Helvetica,sans-Serif" font-size="10.00">_iterator::has_short</text>
<text text-anchor="middle" x="370.5" y="-57" font-family="Helvetica,sans-Serif" font-size="10.00">_option_prefix</text>
</a>
</g>
</g>
<!-- Node5&#45;&gt;Node6 -->
<g id="edge5" class="edge">
<title>Node5&#45;&gt;Node6</title>
<path fill="none" stroke="midnightblue" d="M253.76,-68.41C269.72,-68.7 287.61,-69.02 304.46,-69.32"/>
<polygon fill="midnightblue" stroke="midnightblue" points="304.73,-72.83 314.79,-69.51 304.85,-65.83 304.73,-72.83"/>
</g>
<!-- Node7 -->
<g id="node7" class="node">
<title>Node7</title>
<g id="a_node7"><a xlink:href="classlyra_1_1detail_1_1token__iterator.html#a3f0301c7bb2bfe10f71739a26f9af219" target="_top" xlink:title=" ">
<polygon fill="white" stroke="black" points="462,-55.5 462,-85.5 580,-85.5 580,-55.5 462,-55.5"/>
<text text-anchor="start" x="470" y="-73.5" font-family="Helvetica,sans-Serif" font-size="10.00">lyra::detail::token</text>
<text text-anchor="middle" x="521" y="-62.5" font-family="Helvetica,sans-Serif" font-size="10.00">_iterator::is_prefixed</text>
</a>
</g>
</g>
<!-- Node6&#45;&gt;Node7 -->
<g id="edge6" class="edge">
<title>Node6&#45;&gt;Node7</title>
<path fill="none" stroke="midnightblue" d="M426.37,-70.5C434.6,-70.5 443.16,-70.5 451.62,-70.5"/>
<polygon fill="midnightblue" stroke="midnightblue" points="451.86,-74 461.86,-70.5 451.86,-67 451.86,-74"/>
</g>
<!-- Node8 -->
<g id="node8" class="node">
<title>Node8</title>
<g id="a_node8"><a xlink:href="namespace_main_namespace.html#a8104aa37d7d31758ac725060a96f07d9" target="_top" xlink:title=" ">
<polygon fill="white" stroke="black" points="616,-61 616,-80 740,-80 740,-61 616,-61"/>
<text text-anchor="middle" x="678" y="-68" font-family="Helvetica,sans-Serif" font-size="10.00">MainNamespace::size</text>
</a>
</g>
</g>
<!-- Node7&#45;&gt;Node8 -->
<g id="edge7" class="edge">
<title>Node7&#45;&gt;Node8</title>
<path fill="none" stroke="midnightblue" d="M580.16,-70.5C588.55,-70.5 597.27,-70.5 605.89,-70.5"/>
<polygon fill="midnightblue" stroke="midnightblue" points="605.93,-74 615.93,-70.5 605.93,-67 605.93,-74"/>
</g>
<!-- Node10 -->
<g id="node10" class="node">
<title>Node10</title>
<g id="a_node10"><a xlink:href="classlyra_1_1detail_1_1basic__result_3_01void_01_4.html#a3a596bcb3b08ecd14c8580a10f33a051" target="_top" xlink:title=" ">
<polygon fill="white" stroke="black" points="315,-0.5 315,-30.5 426,-30.5 426,-0.5 315,-0.5"/>
<text text-anchor="start" x="323" y="-18.5" font-family="Helvetica,sans-Serif" font-size="10.00">lyra::detail::basic</text>
<text text-anchor="middle" x="370.5" y="-7.5" font-family="Helvetica,sans-Serif" font-size="10.00">_result&lt; void &gt;::ok</text>
</a>
</g>
</g>
<!-- Node9&#45;&gt;Node10 -->
<g id="edge9" class="edge">
<title>Node9&#45;&gt;Node10</title>
<path fill="none" stroke="midnightblue" d="M261.56,-18.75C275.48,-18.33 290.43,-17.88 304.63,-17.45"/>
<polygon fill="midnightblue" stroke="midnightblue" points="304.93,-20.95 314.82,-17.15 304.72,-13.95 304.93,-20.95"/>
</g>
<!-- Node11 -->
<g id="node11" class="node">
<title>Node11</title>
<g id="a_node11"><a xlink:href="classlyra_1_1detail_1_1basic__result.html#a2a6448a9babcc3d583edff8f13e076b9" target="_top" xlink:title=" ">
<polygon fill="white" stroke="black" points="464,-0.5 464,-30.5 578,-30.5 578,-0.5 464,-0.5"/>
<text text-anchor="start" x="472" y="-18.5" font-family="Helvetica,sans-Serif" font-size="10.00">lyra::detail::basic</text>
<text text-anchor="middle" x="521" y="-7.5" font-family="Helvetica,sans-Serif" font-size="10.00">_result::basic_result</text>
</a>
</g>
</g>
<!-- Node10&#45;&gt;Node11 -->
<g id="edge10" class="edge">
<title>Node10&#45;&gt;Node11</title>
<path fill="none" stroke="midnightblue" d="M426.37,-15.5C435.26,-15.5 444.54,-15.5 453.66,-15.5"/>
<polygon fill="midnightblue" stroke="midnightblue" points="453.86,-19 463.86,-15.5 453.86,-12 453.86,-19"/>
</g>
</g>
</svg>
