<?xml version="1.0" encoding="UTF-8" standalone="no"?>
<!DOCTYPE svg PUBLIC "-//W3C//DTD SVG 1.1//EN"
 "http://www.w3.org/Graphics/SVG/1.1/DTD/svg11.dtd">
<!-- Generated by graphviz version 2.43.0 (0)
 -->
<!-- Title: lyra::detail::basic_result::ok Pages: 1 -->
<svg width="477pt" height="296pt"
 viewBox="0.00 0.00 477.00 296.00" xmlns="http://www.w3.org/2000/svg" xmlns:xlink="http://www.w3.org/1999/xlink">
<g id="graph0" class="graph" transform="scale(1 1) rotate(0) translate(4 292)">
<title>lyra::detail::basic_result::ok</title>
<polygon fill="white" stroke="transparent" points="-4,4 -4,-292 473,-292 473,4 -4,4"/>
<!-- Node1 -->
<g id="node1" class="node">
<title>Node1</title>
<g id="a_node1"><a xlink:title=" ">
<polygon fill="#bfbfbf" stroke="black" points="368,-143 368,-173 469,-173 469,-143 368,-143"/>
<text text-anchor="start" x="376" y="-161" font-family="Helvetica,sans-Serif" font-size="10.00">lyra::detail::basic</text>
<text text-anchor="middle" x="418.5" y="-150" font-family="Helvetica,sans-Serif" font-size="10.00">_result::ok</text>
</a>
</g>
</g>
<!-- Node2 -->
<g id="node2" class="node">
<title>Node2</title>
<g id="a_node2"><a xlink:href="classlyra_1_1help.html#aca3991e43790c54d960eacaf2df1c15b" target="_top" xlink:title=" ">
<polygon fill="white" stroke="black" points="212.5,-268.5 212.5,-287.5 301.5,-287.5 301.5,-268.5 212.5,-268.5"/>
<text text-anchor="middle" x="257" y="-275.5" font-family="Helvetica,sans-Serif" font-size="10.00">lyra::help::help</text>
</a>
</g>
</g>
<!-- Node1&#45;&gt;Node2 -->
<g id="edge1" class="edge">
<title>Node1&#45;&gt;Node2</title>
<path fill="none" stroke="midnightblue" d="M402.03,-181.6C386.67,-203.3 361.24,-234.91 332,-254 322.5,-260.2 311.27,-264.92 300.46,-268.46"/>
<polygon fill="midnightblue" stroke="midnightblue" points="404.99,-183.48 407.79,-173.26 399.23,-179.5 404.99,-183.48"/>
</g>
<!-- Node3 -->
<g id="node3" class="node">
<title>Node3</title>
<g id="a_node3"><a xlink:href="structlyra_1_1detail_1_1choices__set.html#a2a78ba4d2bf13c9be72cdb9f075ac58b" target="_top" xlink:title=" ">
<polygon fill="white" stroke="black" points="15,-236 15,-266 131,-266 131,-236 15,-236"/>
<text text-anchor="start" x="23" y="-254" font-family="Helvetica,sans-Serif" font-size="10.00">lyra::detail::choices</text>
<text text-anchor="middle" x="73" y="-243" font-family="Helvetica,sans-Serif" font-size="10.00">_set::contains_value</text>
</a>
</g>
</g>
<!-- Node1&#45;&gt;Node3 -->
<g id="edge2" class="edge">
<title>Node1&#45;&gt;Node3</title>
<path fill="none" stroke="midnightblue" d="M385.39,-178.38C369.8,-187.45 350.48,-197.53 332,-204 265.18,-227.4 184.35,-239.72 131.17,-245.78"/>
<polygon fill="midnightblue" stroke="midnightblue" points="387.3,-181.31 394.1,-173.19 383.72,-175.3 387.3,-181.31"/>
</g>
<!-- Node4 -->
<g id="node4" class="node">
<title>Node4</title>
<g id="a_node4"><a xlink:href="structlyra_1_1detail_1_1choices__check.html#abeea1614739aaa2644cb229fef0e9df0" target="_top" xlink:title=" ">
<polygon fill="white" stroke="black" points="8,-187 8,-217 138,-217 138,-187 8,-187"/>
<text text-anchor="start" x="16" y="-205" font-family="Helvetica,sans-Serif" font-size="10.00">lyra::detail::choices</text>
<text text-anchor="middle" x="73" y="-194" font-family="Helvetica,sans-Serif" font-size="10.00">_check::contains_value</text>
</a>
</g>
</g>
<!-- Node1&#45;&gt;Node4 -->
<g id="edge3" class="edge">
<title>Node1&#45;&gt;Node4</title>
<path fill="none" stroke="midnightblue" d="M363.03,-175.78C352.81,-178.59 342.15,-181.16 332,-183 266.59,-194.83 190.58,-199.34 138.09,-201.03"/>
<polygon fill="midnightblue" stroke="midnightblue" points="364.01,-179.14 372.67,-173.04 362.09,-172.41 364.01,-179.14"/>
</g>
<!-- Node5 -->
<g id="node5" class="node">
<title>Node5</title>
<g id="a_node5"><a xlink:href="structlyra_1_1detail_1_1_lambda_invoker_3_01void_01_4.html#ae8dd900c28d4d501f2db0dca463550ee" target="_top" xlink:title=" ">
<polygon fill="white" stroke="black" points="182,-94 182,-124 332,-124 332,-94 182,-94"/>
<text text-anchor="start" x="190" y="-112" font-family="Helvetica,sans-Serif" font-size="10.00">lyra::detail::LambdaInvoker</text>
<text text-anchor="middle" x="257" y="-101" font-family="Helvetica,sans-Serif" font-size="10.00">&lt; void &gt;::invoke</text>
</a>
</g>
</g>
<!-- Node1&#45;&gt;Node5 -->
<g id="edge4" class="edge">
<title>Node1&#45;&gt;Node5</title>
<path fill="none" stroke="midnightblue" d="M358.54,-139.89C341.58,-134.68 323.28,-129.05 306.99,-124.05"/>
<polygon fill="midnightblue" stroke="midnightblue" points="357.76,-143.31 368.34,-142.9 359.81,-136.62 357.76,-143.31"/>
</g>
<!-- Node6 -->
<g id="node6" class="node">
<title>Node6</title>
<g id="a_node6"><a xlink:href="namespacelyra_1_1detail.html#a22e3bf1a412cd8fde673729391090abf" target="_top" xlink:title=" ">
<polygon fill="white" stroke="black" points="206,-143 206,-173 308,-173 308,-143 206,-143"/>
<text text-anchor="start" x="214" y="-161" font-family="Helvetica,sans-Serif" font-size="10.00">lyra::detail::parse</text>
<text text-anchor="middle" x="257" y="-150" font-family="Helvetica,sans-Serif" font-size="10.00">_string</text>
</a>
</g>
</g>
<!-- Node1&#45;&gt;Node6 -->
<g id="edge5" class="edge">
<title>Node1&#45;&gt;Node6</title>
<path fill="none" stroke="midnightblue" d="M357.89,-158C341.5,-158 323.9,-158 308.11,-158"/>
<polygon fill="midnightblue" stroke="midnightblue" points="357.91,-161.5 367.91,-158 357.91,-154.5 357.91,-161.5"/>
</g>
<!-- Node10 -->
<g id="node10" class="node">
<title>Node10</title>
<g id="a_node10"><a xlink:href="classlyra_1_1exe__name.html#a0a8528cf259a3cd6f6d5ea0ba9f868c5" target="_top" xlink:title=" ">
<polygon fill="white" stroke="black" points="200.5,-55.5 200.5,-74.5 313.5,-74.5 313.5,-55.5 200.5,-55.5"/>
<text text-anchor="middle" x="257" y="-62.5" font-family="Helvetica,sans-Serif" font-size="10.00">lyra::exe_name::set</text>
</a>
</g>
</g>
<!-- Node1&#45;&gt;Node10 -->
<g id="edge11" class="edge">
<title>Node1&#45;&gt;Node10</title>
<path fill="none" stroke="midnightblue" d="M396.94,-135.26C380.8,-118.74 356.96,-97.07 332,-84 324.6,-80.12 316.36,-77 308.14,-74.5"/>
<polygon fill="midnightblue" stroke="midnightblue" points="394.78,-138.07 404.21,-142.9 399.85,-133.25 394.78,-138.07"/>
</g>
<!-- Node12 -->
<g id="node12" class="node">
<title>Node12</title>
<g id="a_node12"><a xlink:href="structlyra_1_1detail_1_1_bound_flag_ref.html#ad32443f5173fb9e5e34c43741dae9db2" target="_top" xlink:title=" ">
<polygon fill="white" stroke="black" points="185.5,-6 185.5,-36 328.5,-36 328.5,-6 185.5,-6"/>
<text text-anchor="start" x="193.5" y="-24" font-family="Helvetica,sans-Serif" font-size="10.00">lyra::detail::BoundFlagRef</text>
<text text-anchor="middle" x="257" y="-13" font-family="Helvetica,sans-Serif" font-size="10.00">::setFlag</text>
</a>
</g>
</g>
<!-- Node1&#45;&gt;Node12 -->
<g id="edge13" class="edge">
<title>Node1&#45;&gt;Node12</title>
<path fill="none" stroke="midnightblue" d="M404.72,-133.67C390.25,-108.37 364.43,-69.26 332,-46 326.6,-42.13 320.56,-38.82 314.31,-36.01"/>
<polygon fill="midnightblue" stroke="midnightblue" points="401.78,-135.59 409.69,-142.63 407.9,-132.19 401.78,-135.59"/>
</g>
<!-- Node6&#45;&gt;Node3 -->
<g id="edge6" class="edge">
<title>Node6&#45;&gt;Node3</title>
<path fill="none" stroke="midnightblue" d="M226.98,-178.89C205.41,-193.74 174.85,-213.38 146,-227 139.09,-230.26 131.61,-233.28 124.18,-235.99"/>
<polygon fill="midnightblue" stroke="midnightblue" points="229.15,-181.64 235.36,-173.05 225.15,-175.9 229.15,-181.64"/>
</g>
<!-- Node6&#45;&gt;Node4 -->
<g id="edge7" class="edge">
<title>Node6&#45;&gt;Node4</title>
<path fill="none" stroke="midnightblue" d="M195.95,-172.52C176.73,-177.16 155.42,-182.32 136.06,-187"/>
<polygon fill="midnightblue" stroke="midnightblue" points="196.89,-175.89 205.79,-170.14 195.24,-169.09 196.89,-175.89"/>
</g>
<!-- Node7 -->
<g id="node7" class="node">
<title>Node7</title>
<g id="a_node7"><a xlink:href="namespacelyra_1_1detail.html#acbf6c3970044a4db411f87f1130fac59" target="_top" xlink:title=" ">
<polygon fill="white" stroke="black" points="0,-148.5 0,-167.5 146,-167.5 146,-148.5 0,-148.5"/>
<text text-anchor="middle" x="73" y="-155.5" font-family="Helvetica,sans-Serif" font-size="10.00">lyra::detail::invokeLambda</text>
</a>
</g>
</g>
<!-- Node6&#45;&gt;Node7 -->
<g id="edge8" class="edge">
<title>Node6&#45;&gt;Node7</title>
<path fill="none" stroke="midnightblue" d="M195.61,-158C179.79,-158 162.56,-158 146.19,-158"/>
<polygon fill="midnightblue" stroke="midnightblue" points="195.79,-161.5 205.79,-158 195.79,-154.5 195.79,-161.5"/>
</g>
<!-- Node8 -->
<g id="node8" class="node">
<title>Node8</title>
<g id="a_node8"><a xlink:href="structlyra_1_1detail_1_1_bound_value_ref.html#a665e8a2d390fcd308d59ddbe045bf1e3" target="_top" xlink:title=" ">
<polygon fill="white" stroke="black" points="6,-99 6,-129 140,-129 140,-99 6,-99"/>
<text text-anchor="start" x="14" y="-117" font-family="Helvetica,sans-Serif" font-size="10.00">lyra::detail::BoundValue</text>
<text text-anchor="middle" x="73" y="-106" font-family="Helvetica,sans-Serif" font-size="10.00">Ref::setValue</text>
</a>
</g>
</g>
<!-- Node6&#45;&gt;Node8 -->
<g id="edge9" class="edge">
<title>Node6&#45;&gt;Node8</title>
<path fill="none" stroke="midnightblue" d="M195.95,-143.48C176.73,-138.84 155.42,-133.68 136.06,-129"/>
<polygon fill="midnightblue" stroke="midnightblue" points="195.24,-146.91 205.79,-145.86 196.89,-140.11 195.24,-146.91"/>
</g>
<!-- Node9 -->
<g id="node9" class="node">
<title>Node9</title>
<g id="a_node9"><a xlink:href="structlyra_1_1detail_1_1_bound_value_ref_3_01std_1_1vector_3_01_t_01_4_01_4.html#aa413c07d21268101cca49ef250bf5c07" target="_top" xlink:title=" ">
<polygon fill="white" stroke="black" points="6,-38.5 6,-79.5 140,-79.5 140,-38.5 6,-38.5"/>
<text text-anchor="start" x="14" y="-67.5" font-family="Helvetica,sans-Serif" font-size="10.00">lyra::detail::BoundValue</text>
<text text-anchor="start" x="14" y="-56.5" font-family="Helvetica,sans-Serif" font-size="10.00">Ref&lt; std::vector&lt; T &gt;</text>
<text text-anchor="middle" x="73" y="-45.5" font-family="Helvetica,sans-Serif" font-size="10.00"> &gt;::setValue</text>
</a>
</g>
</g>
<!-- Node6&#45;&gt;Node9 -->
<g id="edge10" class="edge">
<title>Node6&#45;&gt;Node9</title>
<path fill="none" stroke="midnightblue" d="M196.62,-141.35C191.49,-138.91 186.53,-136.14 182,-133 161.22,-118.62 166.27,-104.09 146,-89 141.33,-85.52 136.2,-82.37 130.89,-79.52"/>
<polygon fill="midnightblue" stroke="midnightblue" points="195.42,-144.64 205.99,-145.39 198.2,-138.22 195.42,-144.64"/>
</g>
<!-- Node11 -->
<g id="node11" class="node">
<title>Node11</title>
<g id="a_node11"><a xlink:href="classlyra_1_1cli.html#a49a8af627c74dfce2c2d594d4161116f" target="_top" xlink:title=" ">
<polygon fill="white" stroke="black" points="30,-0.5 30,-19.5 116,-19.5 116,-0.5 30,-0.5"/>
<text text-anchor="middle" x="73" y="-7.5" font-family="Helvetica,sans-Serif" font-size="10.00">lyra::cli::parse</text>
</a>
</g>
</g>
<!-- Node10&#45;&gt;Node11 -->
<g id="edge12" class="edge">
<title>Node10&#45;&gt;Node11</title>
<path fill="none" stroke="midnightblue" d="M206.26,-52.69C198.09,-50.34 189.76,-47.75 182,-45 165.5,-39.14 162.52,-34.81 146,-29 136,-25.48 125.02,-22.27 114.71,-19.53"/>
<polygon fill="midnightblue" stroke="midnightblue" points="205.52,-56.12 216.1,-55.42 207.4,-49.37 205.52,-56.12"/>
</g>
</g>
</svg>
