<?xml version="1.0" encoding="UTF-8" standalone="no"?>
<!DOCTYPE svg PUBLIC "-//W3C//DTD SVG 1.1//EN"
 "http://www.w3.org/Graphics/SVG/1.1/DTD/svg11.dtd">
<!-- Generated by graphviz version 2.43.0 (0)
 -->
<!-- Title: lyra::opt Pages: 1 -->
<svg width="369pt" height="366pt"
 viewBox="0.00 0.00 369.00 366.00" xmlns="http://www.w3.org/2000/svg" xmlns:xlink="http://www.w3.org/1999/xlink">
<g id="graph0" class="graph" transform="scale(1 1) rotate(0) translate(4 362)">
<title>lyra::opt</title>
<polygon fill="white" stroke="transparent" points="-4,4 -4,-362 365,-362 365,4 -4,4"/>
<!-- Node1 -->
<g id="node1" class="node">
<title>Node1</title>
<g id="a_node1"><a xlink:title=" ">
<polygon fill="#bfbfbf" stroke="black" points="40,-57.5 40,-76.5 97,-76.5 97,-57.5 40,-57.5"/>
<text text-anchor="middle" x="68.5" y="-64.5" font-family="Helvetica,sans-Serif" font-size="10.00">lyra::opt</text>
</a>
</g>
</g>
<!-- Node8 -->
<g id="node8" class="node">
<title>Node8</title>
<g id="a_node8"><a xlink:href="classlyra_1_1help.html" target="_top" xlink:title=" ">
<polygon fill="white" stroke="black" points="37.5,-0.5 37.5,-19.5 99.5,-19.5 99.5,-0.5 37.5,-0.5"/>
<text text-anchor="middle" x="68.5" y="-7.5" font-family="Helvetica,sans-Serif" font-size="10.00">lyra::help</text>
</a>
</g>
</g>
<!-- Node1&#45;&gt;Node8 -->
<g id="edge15" class="edge">
<title>Node1&#45;&gt;Node8</title>
<path fill="none" stroke="midnightblue" d="M62.08,-47.42C61.37,-38.05 61.81,-27.14 63.41,-19.71"/>
<polygon fill="midnightblue" stroke="midnightblue" points="58.62,-47.97 63.44,-57.41 65.55,-47.03 58.62,-47.97"/>
</g>
<!-- Node1&#45;&gt;Node8 -->
<g id="edge16" class="edge">
<title>Node1&#45;&gt;Node8</title>
<path fill="none" stroke="midnightblue" d="M74.92,-47.42C75.63,-38.05 75.19,-27.14 73.59,-19.71"/>
<polygon fill="midnightblue" stroke="midnightblue" points="71.45,-47.03 73.56,-57.41 78.38,-47.97 71.45,-47.03"/>
</g>
<!-- Node2 -->
<g id="node2" class="node">
<title>Node2</title>
<g id="a_node2"><a xlink:href="classlyra_1_1bound__parser.html" target="_top" xlink:title=" ">
<polygon fill="white" stroke="black" points="15,-114.5 15,-144.5 122,-144.5 122,-114.5 15,-114.5"/>
<text text-anchor="start" x="23" y="-132.5" font-family="Helvetica,sans-Serif" font-size="10.00">lyra::bound_parser</text>
<text text-anchor="middle" x="68.5" y="-121.5" font-family="Helvetica,sans-Serif" font-size="10.00">&lt; opt &gt;</text>
</a>
</g>
</g>
<!-- Node2&#45;&gt;Node1 -->
<g id="edge1" class="edge">
<title>Node2&#45;&gt;Node1</title>
<path fill="none" stroke="midnightblue" d="M61.87,-104.35C61.47,-94.51 62.05,-83.78 63.63,-76.54"/>
<polygon fill="midnightblue" stroke="midnightblue" points="58.4,-104.79 62.7,-114.47 65.37,-104.22 58.4,-104.79"/>
</g>
<!-- Node2&#45;&gt;Node1 -->
<g id="edge14" class="edge">
<title>Node2&#45;&gt;Node1</title>
<path fill="none" stroke="midnightblue" d="M75.13,-104.35C75.53,-94.51 74.95,-83.78 73.37,-76.54"/>
<polygon fill="midnightblue" stroke="midnightblue" points="71.63,-104.22 74.3,-114.47 78.6,-104.79 71.63,-104.22"/>
</g>
<!-- Node3 -->
<g id="node3" class="node">
<title>Node3</title>
<g id="a_node3"><a xlink:href="classlyra_1_1composable__parser.html" target="_top" xlink:title=" ">
<polygon fill="white" stroke="black" points="0,-192.5 0,-222.5 137,-222.5 137,-192.5 0,-192.5"/>
<text text-anchor="start" x="8" y="-210.5" font-family="Helvetica,sans-Serif" font-size="10.00">lyra::composable_parser</text>
<text text-anchor="middle" x="68.5" y="-199.5" font-family="Helvetica,sans-Serif" font-size="10.00">&lt; opt &gt;</text>
</a>
</g>
</g>
<!-- Node3&#45;&gt;Node2 -->
<g id="edge2" class="edge">
<title>Node3&#45;&gt;Node2</title>
<path fill="none" stroke="midnightblue" d="M62.15,-182.09C61.39,-169.76 61.71,-155.22 63.1,-144.73"/>
<polygon fill="midnightblue" stroke="midnightblue" points="58.68,-182.57 63.09,-192.2 65.65,-181.92 58.68,-182.57"/>
</g>
<!-- Node3&#45;&gt;Node2 -->
<g id="edge8" class="edge">
<title>Node3&#45;&gt;Node2</title>
<path fill="none" stroke="midnightblue" d="M74.85,-182.09C75.61,-169.76 75.29,-155.22 73.9,-144.73"/>
<polygon fill="midnightblue" stroke="midnightblue" points="71.35,-181.92 73.91,-192.2 78.32,-182.57 71.35,-181.92"/>
</g>
<!-- Node4 -->
<g id="node4" class="node">
<title>Node4</title>
<g id="a_node4"><a xlink:href="classlyra_1_1parser.html" target="_top" xlink:title=" ">
<polygon fill="white" stroke="black" points="101.5,-338.5 101.5,-357.5 173.5,-357.5 173.5,-338.5 101.5,-338.5"/>
<text text-anchor="middle" x="137.5" y="-345.5" font-family="Helvetica,sans-Serif" font-size="10.00">lyra::parser</text>
</a>
</g>
</g>
<!-- Node4&#45;&gt;Node3 -->
<g id="edge3" class="edge">
<title>Node4&#45;&gt;Node3</title>
<path fill="none" stroke="midnightblue" d="M91.99,-334.55C75.74,-327.33 59.36,-316.52 50.5,-301 36.42,-276.34 45.95,-241.87 56.21,-222.73"/>
<polygon fill="midnightblue" stroke="midnightblue" points="90.91,-337.88 101.49,-338.39 93.54,-331.4 90.91,-337.88"/>
</g>
<!-- Node4&#45;&gt;Node3 -->
<g id="edge4" class="edge">
<title>Node4&#45;&gt;Node3</title>
<path fill="none" stroke="midnightblue" d="M107.59,-334.14C93.13,-326.92 77.2,-316.23 68.5,-301 54.42,-276.34 63.95,-241.87 68.36,-222.73"/>
<polygon fill="midnightblue" stroke="midnightblue" points="106.25,-337.37 116.79,-338.39 109.18,-331.02 106.25,-337.37"/>
</g>
<!-- Node5 -->
<g id="node5" class="node">
<title>Node5</title>
<g id="a_node5"><a xlink:href="classlyra_1_1composable__parser.html" target="_top" xlink:title=" ">
<polygon fill="white" stroke="black" points="69,-270.5 69,-300.5 206,-300.5 206,-270.5 69,-270.5"/>
<text text-anchor="start" x="77" y="-288.5" font-family="Helvetica,sans-Serif" font-size="10.00">lyra::composable_parser</text>
<text text-anchor="middle" x="137.5" y="-277.5" font-family="Helvetica,sans-Serif" font-size="10.00">&lt; Derived &gt;</text>
</a>
</g>
</g>
<!-- Node4&#45;&gt;Node5 -->
<g id="edge6" class="edge">
<title>Node4&#45;&gt;Node5</title>
<path fill="none" stroke="midnightblue" d="M131.2,-328.22C130.47,-319.36 130.63,-308.96 131.67,-300.76"/>
<polygon fill="midnightblue" stroke="midnightblue" points="127.76,-328.91 132.6,-338.33 134.7,-327.95 127.76,-328.91"/>
</g>
<!-- Node4&#45;&gt;Node5 -->
<g id="edge7" class="edge">
<title>Node4&#45;&gt;Node5</title>
<path fill="none" stroke="midnightblue" d="M143.8,-328.22C144.53,-319.36 144.37,-308.96 143.33,-300.76"/>
<polygon fill="midnightblue" stroke="midnightblue" points="140.3,-327.95 142.4,-338.33 147.24,-328.91 140.3,-327.95"/>
</g>
<!-- Node7 -->
<g id="node7" class="node">
<title>Node7</title>
<g id="a_node7"><a xlink:href="classlyra_1_1composable__parser.html" target="_top" xlink:title=" ">
<polygon fill="white" stroke="black" points="224,-270.5 224,-300.5 361,-300.5 361,-270.5 224,-270.5"/>
<text text-anchor="start" x="232" y="-288.5" font-family="Helvetica,sans-Serif" font-size="10.00">lyra::composable_parser</text>
<text text-anchor="middle" x="292.5" y="-277.5" font-family="Helvetica,sans-Serif" font-size="10.00">&lt; Derived &gt;</text>
</a>
</g>
</g>
<!-- Node4&#45;&gt;Node7 -->
<g id="edge11" class="edge">
<title>Node4&#45;&gt;Node7</title>
<path fill="none" stroke="midnightblue" d="M163.96,-334.49C187.78,-324.62 222.99,-310.85 250.6,-300.59"/>
<polygon fill="midnightblue" stroke="midnightblue" points="162.37,-331.36 154.51,-338.46 165.08,-337.82 162.37,-331.36"/>
</g>
<!-- Node4&#45;&gt;Node7 -->
<g id="edge12" class="edge">
<title>Node4&#45;&gt;Node7</title>
<path fill="none" stroke="midnightblue" d="M173.72,-335.01C200.64,-325.11 236.81,-311.03 262.21,-300.59"/>
<polygon fill="midnightblue" stroke="midnightblue" points="172.45,-331.75 164.25,-338.46 174.85,-338.33 172.45,-331.75"/>
</g>
<!-- Node5&#45;&gt;Node3 -->
<g id="edge5" class="edge">
<title>Node5&#45;&gt;Node3</title>
<path fill="none" stroke="orange" stroke-dasharray="5,2" d="M117.68,-262.67C106.02,-249.83 91.62,-233.97 81.42,-222.73"/>
<polygon fill="orange" stroke="orange" points="115.21,-265.15 124.52,-270.2 120.39,-260.45 115.21,-265.15"/>
<text text-anchor="middle" x="128.5" y="-244" font-family="Helvetica,sans-Serif" font-size="10.00"> &lt; opt &gt;</text>
</g>
<!-- Node6 -->
<g id="node6" class="node">
<title>Node6</title>
<g id="a_node6"><a xlink:href="classlyra_1_1bound__parser.html" target="_top" xlink:title=" ">
<polygon fill="white" stroke="black" points="239,-192.5 239,-222.5 346,-222.5 346,-192.5 239,-192.5"/>
<text text-anchor="start" x="247" y="-210.5" font-family="Helvetica,sans-Serif" font-size="10.00">lyra::bound_parser</text>
<text text-anchor="middle" x="292.5" y="-199.5" font-family="Helvetica,sans-Serif" font-size="10.00">&lt; Derived &gt;</text>
</a>
</g>
</g>
<!-- Node6&#45;&gt;Node2 -->
<g id="edge9" class="edge">
<title>Node6&#45;&gt;Node2</title>
<path fill="none" stroke="orange" stroke-dasharray="5,2" d="M241.63,-189.24C201.82,-175.73 147.16,-157.19 109.98,-144.57"/>
<polygon fill="orange" stroke="orange" points="240.56,-192.57 251.15,-192.47 242.81,-185.94 240.56,-192.57"/>
<text text-anchor="middle" x="214.5" y="-166" font-family="Helvetica,sans-Serif" font-size="10.00"> &lt; opt &gt;</text>
</g>
<!-- Node7&#45;&gt;Node6 -->
<g id="edge10" class="edge">
<title>Node7&#45;&gt;Node6</title>
<path fill="none" stroke="midnightblue" d="M286.15,-260.09C285.39,-247.76 285.71,-233.22 287.1,-222.73"/>
<polygon fill="midnightblue" stroke="midnightblue" points="282.68,-260.57 287.09,-270.2 289.65,-259.92 282.68,-260.57"/>
</g>
<!-- Node7&#45;&gt;Node6 -->
<g id="edge13" class="edge">
<title>Node7&#45;&gt;Node6</title>
<path fill="none" stroke="midnightblue" d="M298.85,-260.09C299.61,-247.76 299.29,-233.22 297.9,-222.73"/>
<polygon fill="midnightblue" stroke="midnightblue" points="295.35,-259.92 297.91,-270.2 302.32,-260.57 295.35,-259.92"/>
</g>
</g>
</svg>
