<?xml version="1.0" encoding="UTF-8" standalone="no"?>
<!DOCTYPE svg PUBLIC "-//W3C//DTD SVG 1.1//EN"
 "http://www.w3.org/Graphics/SVG/1.1/DTD/svg11.dtd">
<!-- Generated by graphviz version 2.43.0 (0)
 -->
<!-- Title: lyra::cli::cli Pages: 1 -->
<svg width="217pt" height="66pt"
 viewBox="0.00 0.00 217.00 66.00" xmlns="http://www.w3.org/2000/svg" xmlns:xlink="http://www.w3.org/1999/xlink">
<g id="graph0" class="graph" transform="scale(1 1) rotate(0) translate(4 62)">
<title>lyra::cli::cli</title>
<polygon fill="white" stroke="transparent" points="-4,4 -4,-62 213,-62 213,4 -4,4"/>
<!-- Node1 -->
<g id="node1" class="node">
<title>Node1</title>
<g id="a_node1"><a xlink:title=" ">
<polygon fill="#bfbfbf" stroke="black" points="139,-19.5 139,-38.5 209,-38.5 209,-19.5 139,-19.5"/>
<text text-anchor="middle" x="174" y="-26.5" font-family="Helvetica,sans-Serif" font-size="10.00">lyra::cli::cli</text>
</a>
</g>
</g>
<!-- Node2 -->
<g id="node2" class="node">
<title>Node2</title>
<g id="a_node2"><a xlink:href="classlyra_1_1cli.html#ae57a41671d3e6246cb12adbe932243d3" target="_top" xlink:title=" ">
<polygon fill="white" stroke="black" points="9,-38.5 9,-57.5 94,-57.5 94,-38.5 9,-38.5"/>
<text text-anchor="middle" x="51.5" y="-45.5" font-family="Helvetica,sans-Serif" font-size="10.00">lyra::cli::clone</text>
</a>
</g>
</g>
<!-- Node1&#45;&gt;Node2 -->
<g id="edge1" class="edge">
<title>Node1&#45;&gt;Node2</title>
<path fill="none" stroke="midnightblue" d="M128.68,-35.99C117.37,-37.77 105.25,-39.68 94.07,-41.44"/>
<polygon fill="midnightblue" stroke="midnightblue" points="129.46,-39.41 138.79,-34.39 128.37,-32.49 129.46,-39.41"/>
</g>
<!-- Node3 -->
<g id="node3" class="node">
<title>Node3</title>
<g id="a_node3"><a xlink:href="classlyra_1_1cli.html#aaa8b3b1019777646b03e2ba537eb25cf" target="_top" xlink:title=" ">
<polygon fill="white" stroke="black" points="0,-0.5 0,-19.5 103,-19.5 103,-0.5 0,-0.5"/>
<text text-anchor="middle" x="51.5" y="-7.5" font-family="Helvetica,sans-Serif" font-size="10.00">lyra::cli::operator|</text>
</a>
</g>
</g>
<!-- Node1&#45;&gt;Node3 -->
<g id="edge2" class="edge">
<title>Node1&#45;&gt;Node3</title>
<path fill="none" stroke="midnightblue" d="M128.67,-22.01C120.46,-20.72 111.83,-19.36 103.44,-18.03"/>
<polygon fill="midnightblue" stroke="midnightblue" points="128.37,-25.51 138.79,-23.61 129.46,-18.59 128.37,-25.51"/>
</g>
</g>
</svg>
