<?xml version="1.0" encoding="UTF-8" standalone="no"?>
<!DOCTYPE svg PUBLIC "-//W3C//DTD SVG 1.1//EN"
 "http://www.w3.org/Graphics/SVG/1.1/DTD/svg11.dtd">
<!-- Generated by graphviz version 2.43.0 (0)
 -->
<!-- Title: MainNamespace::MeshReader::parseMesh Pages: 1 -->
<svg width="983pt" height="416pt"
 viewBox="0.00 0.00 983.00 415.73" xmlns="http://www.w3.org/2000/svg" xmlns:xlink="http://www.w3.org/1999/xlink">
<g id="graph0" class="graph" transform="scale(1 1) rotate(0) translate(4 411.73)">
<title>MainNamespace::MeshReader::parseMesh</title>
<polygon fill="white" stroke="transparent" points="-4,4 -4,-411.73 979,-411.73 979,4 -4,4"/>
<!-- Node1 -->
<g id="node1" class="node">
<title>Node1</title>
<g id="a_node1"><a xlink:title="Parse a gmsh mesh file into a surface3d structure. The mesh_ object is filled in the appropriate way.">
<polygon fill="#bfbfbf" stroke="black" points="0,-210.5 0,-240.5 165,-240.5 165,-210.5 0,-210.5"/>
<text text-anchor="start" x="8" y="-228.5" font-family="Helvetica,sans-Serif" font-size="10.00">MainNamespace::MeshReader</text>
<text text-anchor="middle" x="82.5" y="-217.5" font-family="Helvetica,sans-Serif" font-size="10.00">::parseMesh</text>
</a>
</g>
</g>
<!-- Node2 -->
<g id="node2" class="node">
<title>Node2</title>
<g id="a_node2"><a xlink:href="namespace_main_namespace.html#a8fc1ba5863e4a27ba20d60aaecafe847" target="_top" xlink:title=" ">
<polygon fill="white" stroke="black" points="425,-307 425,-326 590,-326 590,-307 425,-307"/>
<text text-anchor="middle" x="507.5" y="-314" font-family="Helvetica,sans-Serif" font-size="10.00">MainNamespace::buildSurface</text>
</a>
</g>
</g>
<!-- Node1&#45;&gt;Node2 -->
<g id="edge1" class="edge">
<title>Node1&#45;&gt;Node2</title>
<path fill="none" stroke="midnightblue" d="M103.45,-240.56C125.86,-256.57 163.96,-281.11 201,-292.5 270.61,-313.9 353.12,-319.28 414.83,-319.65"/>
<polygon fill="midnightblue" stroke="midnightblue" points="414.93,-323.15 424.94,-319.67 414.95,-316.15 414.93,-323.15"/>
</g>
<!-- Node3 -->
<g id="node3" class="node">
<title>Node3</title>
<g id="a_node3"><a xlink:href="namespace_main_namespace_1_1_logger.html#afbb4cc2d8b498e71fcb228f0da8309a1" target="_top" xlink:title=" ">
<polygon fill="white" stroke="black" points="644,-269 644,-288 802,-288 802,-269 644,-269"/>
<text text-anchor="middle" x="723" y="-276" font-family="Helvetica,sans-Serif" font-size="10.00">MainNamespace::Logger::log</text>
</a>
</g>
</g>
<!-- Node1&#45;&gt;Node3 -->
<g id="edge7" class="edge">
<title>Node1&#45;&gt;Node3</title>
<path fill="none" stroke="midnightblue" d="M165.17,-235.1C230.52,-242.53 324.55,-252.68 407,-259.5 483.42,-265.82 570.43,-270.91 633.61,-274.22"/>
<polygon fill="midnightblue" stroke="midnightblue" points="633.77,-277.73 643.94,-274.76 634.13,-270.74 633.77,-277.73"/>
</g>
<!-- Node5 -->
<g id="node5" class="node">
<title>Node5</title>
<g id="a_node5"><a xlink:href="namespace_main_namespace.html#abbbf8199881e62d39394f4814789a8fd" target="_top" xlink:title=" ">
<polygon fill="white" stroke="black" points="424.5,-213 424.5,-232 590.5,-232 590.5,-213 424.5,-213"/>
<text text-anchor="middle" x="507.5" y="-220" font-family="Helvetica,sans-Serif" font-size="10.00">MainNamespace::getElements</text>
</a>
</g>
</g>
<!-- Node1&#45;&gt;Node5 -->
<g id="edge4" class="edge">
<title>Node1&#45;&gt;Node5</title>
<path fill="none" stroke="midnightblue" d="M165.06,-224.92C236.37,-224.42 339.85,-223.68 414.18,-223.15"/>
<polygon fill="midnightblue" stroke="midnightblue" points="414.5,-226.65 424.47,-223.08 414.45,-219.65 414.5,-226.65"/>
</g>
<!-- Node6 -->
<g id="node6" class="node">
<title>Node6</title>
<g id="a_node6"><a xlink:href="namespace_main_namespace.html#ad7a4c5eb8035073775288c956070c5f3" target="_top" xlink:title=" ">
<polygon fill="white" stroke="black" points="205,-166.5 205,-196.5 367,-196.5 367,-166.5 205,-166.5"/>
<text text-anchor="start" x="213" y="-184.5" font-family="Helvetica,sans-Serif" font-size="10.00">MainNamespace::parseNodes</text>
<text text-anchor="middle" x="286" y="-173.5" font-family="Helvetica,sans-Serif" font-size="10.00">Physical</text>
</a>
</g>
</g>
<!-- Node1&#45;&gt;Node6 -->
<g id="edge8" class="edge">
<title>Node1&#45;&gt;Node6</title>
<path fill="none" stroke="midnightblue" d="M152.28,-210.48C169.69,-206.68 188.53,-202.57 206.38,-198.67"/>
<polygon fill="midnightblue" stroke="midnightblue" points="207.16,-202.08 216.19,-196.53 205.67,-195.24 207.16,-202.08"/>
</g>
<!-- Node8 -->
<g id="node8" class="node">
<title>Node8</title>
<g id="a_node8"><a xlink:href="namespace_main_namespace.html#a8104aa37d7d31758ac725060a96f07d9" target="_top" xlink:title=" ">
<polygon fill="white" stroke="black" points="661,-118 661,-137 785,-137 785,-118 661,-118"/>
<text text-anchor="middle" x="723" y="-125" font-family="Helvetica,sans-Serif" font-size="10.00">MainNamespace::size</text>
</a>
</g>
</g>
<!-- Node1&#45;&gt;Node8 -->
<g id="edge15" class="edge">
<title>Node1&#45;&gt;Node8</title>
<path fill="none" stroke="midnightblue" d="M103.97,-210.38C126.54,-194.53 164.49,-170.19 201,-157.5 354.27,-104.21 548.08,-110.8 650.7,-119.57"/>
<polygon fill="midnightblue" stroke="midnightblue" points="650.67,-123.08 660.94,-120.48 651.29,-116.11 650.67,-123.08"/>
</g>
<!-- Node9 -->
<g id="node9" class="node">
<title>Node9</title>
<g id="a_node9"><a xlink:href="namespace_main_namespace.html#a9c92d3b0aaa6902a4344c09e7f37f8c7" target="_top" xlink:title=" ">
<polygon fill="white" stroke="black" points="415,-383 415,-402 600,-402 600,-383 415,-383"/>
<text text-anchor="middle" x="507.5" y="-390" font-family="Helvetica,sans-Serif" font-size="10.00">MainNamespace::reorderElements</text>
</a>
</g>
</g>
<!-- Node1&#45;&gt;Node9 -->
<g id="edge13" class="edge">
<title>Node1&#45;&gt;Node9</title>
<path fill="none" stroke="midnightblue" d="M90.22,-240.7C105.01,-272.08 143.7,-343.6 201,-373.5 275.91,-412.59 375.61,-410.45 440.41,-403.22"/>
<polygon fill="midnightblue" stroke="midnightblue" points="440.99,-406.68 450.5,-402.02 440.16,-399.73 440.99,-406.68"/>
</g>
<!-- Node10 -->
<g id="node10" class="node">
<title>Node10</title>
<g id="a_node10"><a xlink:href="namespace_main_namespace.html#a09e58672af691ec8ebddbda7094dd11f" target="_top" xlink:title=" ">
<polygon fill="white" stroke="black" points="201,-345 201,-364 371,-364 371,-345 201,-345"/>
<text text-anchor="middle" x="286" y="-352" font-family="Helvetica,sans-Serif" font-size="10.00">MainNamespace::splitTriangles</text>
</a>
</g>
</g>
<!-- Node1&#45;&gt;Node10 -->
<g id="edge16" class="edge">
<title>Node1&#45;&gt;Node10</title>
<path fill="none" stroke="midnightblue" d="M96.35,-240.72C116.4,-263.53 157.4,-306.46 201,-330.5 209.28,-335.06 218.51,-338.83 227.73,-341.91"/>
<polygon fill="midnightblue" stroke="midnightblue" points="226.72,-345.26 237.31,-344.89 228.79,-338.58 226.72,-345.26"/>
</g>
<!-- Node11 -->
<g id="node11" class="node">
<title>Node11</title>
<g id="a_node11"><a xlink:href="struct_main_namespace_1_1_mesh.html#a9e3b353180a3b67dc149e8703c164bc3" target="_top" xlink:title="Getter.">
<polygon fill="white" stroke="black" points="220.5,-49.5 220.5,-79.5 351.5,-79.5 351.5,-49.5 220.5,-49.5"/>
<text text-anchor="start" x="228.5" y="-67.5" font-family="Helvetica,sans-Serif" font-size="10.00">MainNamespace::Mesh</text>
<text text-anchor="middle" x="286" y="-56.5" font-family="Helvetica,sans-Serif" font-size="10.00">::triangles</text>
</a>
</g>
</g>
<!-- Node1&#45;&gt;Node11 -->
<g id="edge18" class="edge">
<title>Node1&#45;&gt;Node11</title>
<path fill="none" stroke="midnightblue" d="M93.29,-210.32C111.43,-183.35 152.81,-126.86 201,-94.5 207.1,-90.4 213.82,-86.8 220.73,-83.64"/>
<polygon fill="midnightblue" stroke="midnightblue" points="222.38,-86.74 230.22,-79.6 219.64,-80.29 222.38,-86.74"/>
</g>
<!-- Node12 -->
<g id="node12" class="node">
<title>Node12</title>
<g id="a_node12"><a xlink:href="struct_main_namespace_1_1_mesh.html#ab0133714e18c8aaee3deb84910cef54c" target="_top" xlink:title="Getter.">
<polygon fill="white" stroke="black" points="220.5,-0.5 220.5,-30.5 351.5,-30.5 351.5,-0.5 220.5,-0.5"/>
<text text-anchor="start" x="228.5" y="-18.5" font-family="Helvetica,sans-Serif" font-size="10.00">MainNamespace::Mesh</text>
<text text-anchor="middle" x="286" y="-7.5" font-family="Helvetica,sans-Serif" font-size="10.00">::vertices</text>
</a>
</g>
</g>
<!-- Node1&#45;&gt;Node12 -->
<g id="edge19" class="edge">
<title>Node1&#45;&gt;Node12</title>
<path fill="none" stroke="midnightblue" d="M88.74,-210.34C101.79,-174.82 139.25,-85.75 201,-39.5 204.19,-37.11 207.6,-34.96 211.17,-33.03"/>
<polygon fill="midnightblue" stroke="midnightblue" points="212.8,-36.13 220.29,-28.64 209.76,-29.82 212.8,-36.13"/>
</g>
<!-- Node2&#45;&gt;Node3 -->
<g id="edge2" class="edge">
<title>Node2&#45;&gt;Node3</title>
<path fill="none" stroke="midnightblue" d="M562.1,-306.96C591.29,-301.77 627.59,-295.3 658.22,-289.85"/>
<polygon fill="midnightblue" stroke="midnightblue" points="659.15,-293.24 668.38,-288.04 657.92,-286.35 659.15,-293.24"/>
</g>
<!-- Node4 -->
<g id="node4" class="node">
<title>Node4</title>
<g id="a_node4"><a xlink:href="namespace_main_namespace_1_1_logger.html#af052b0198f333fca77f0837a511ec7f7" target="_top" xlink:title=" ">
<polygon fill="white" stroke="black" points="838,-263.5 838,-293.5 975,-293.5 975,-263.5 838,-263.5"/>
<text text-anchor="start" x="846" y="-281.5" font-family="Helvetica,sans-Serif" font-size="10.00">MainNamespace::Logger</text>
<text text-anchor="middle" x="906.5" y="-270.5" font-family="Helvetica,sans-Serif" font-size="10.00">::forwardLog</text>
</a>
</g>
</g>
<!-- Node3&#45;&gt;Node4 -->
<g id="edge3" class="edge">
<title>Node3&#45;&gt;Node4</title>
<path fill="none" stroke="midnightblue" d="M802.03,-278.5C810.5,-278.5 819.12,-278.5 827.59,-278.5"/>
<polygon fill="midnightblue" stroke="midnightblue" points="827.82,-282 837.82,-278.5 827.82,-275 827.82,-282"/>
</g>
<!-- Node5&#45;&gt;Node3 -->
<g id="edge6" class="edge">
<title>Node5&#45;&gt;Node3</title>
<path fill="none" stroke="midnightblue" d="M545.2,-232.13C581.4,-241.62 636.82,-256.16 675.95,-266.42"/>
<polygon fill="midnightblue" stroke="midnightblue" points="675.22,-269.85 685.78,-269 676.99,-263.08 675.22,-269.85"/>
</g>
<!-- Node5&#45;&gt;Node5 -->
<g id="edge5" class="edge">
<title>Node5&#45;&gt;Node5</title>
<path fill="none" stroke="midnightblue" d="M474.78,-232.11C458.35,-240.96 469.26,-250.5 507.5,-250.5 535.59,-250.5 548.93,-245.36 547.52,-239.12"/>
<polygon fill="midnightblue" stroke="midnightblue" points="549.86,-236.51 540.22,-232.11 545.01,-241.56 549.86,-236.51"/>
</g>
<!-- Node6&#45;&gt;Node3 -->
<g id="edge9" class="edge">
<title>Node6&#45;&gt;Node3</title>
<path fill="none" stroke="midnightblue" d="M367.02,-175.88C433.33,-173.82 529.13,-176.91 608,-203.5 645.66,-216.19 682.91,-244.45 704.12,-262.43"/>
<polygon fill="midnightblue" stroke="midnightblue" points="701.83,-265.08 711.68,-268.98 706.42,-259.79 701.83,-265.08"/>
</g>
<!-- Node7 -->
<g id="node7" class="node">
<title>Node7</title>
<g id="a_node7"><a xlink:href="namespace_main_namespace.html#a5ff9eb55a67d7471d1293fd26d21e347" target="_top" xlink:title=" ">
<polygon fill="white" stroke="black" points="407,-137 407,-156 608,-156 608,-137 407,-137"/>
<text text-anchor="middle" x="507.5" y="-144" font-family="Helvetica,sans-Serif" font-size="10.00">MainNamespace::parsePhysicalName</text>
</a>
</g>
</g>
<!-- Node6&#45;&gt;Node7 -->
<g id="edge10" class="edge">
<title>Node6&#45;&gt;Node7</title>
<path fill="none" stroke="midnightblue" d="M367.18,-168.72C390.01,-165.07 414.69,-161.14 436.84,-157.61"/>
<polygon fill="midnightblue" stroke="midnightblue" points="437.5,-161.05 446.83,-156.02 436.4,-154.13 437.5,-161.05"/>
</g>
<!-- Node7&#45;&gt;Node3 -->
<g id="edge11" class="edge">
<title>Node7&#45;&gt;Node3</title>
<path fill="none" stroke="midnightblue" d="M570.08,-156.06C583.08,-159.51 596.37,-164.18 608,-170.5 650.67,-193.68 689.16,-236.89 708.62,-261.03"/>
<polygon fill="midnightblue" stroke="midnightblue" points="705.96,-263.31 714.9,-268.99 711.45,-258.97 705.96,-263.31"/>
</g>
<!-- Node7&#45;&gt;Node8 -->
<g id="edge12" class="edge">
<title>Node7&#45;&gt;Node8</title>
<path fill="none" stroke="midnightblue" d="M608.06,-137.64C622.44,-136.36 637,-135.06 650.68,-133.85"/>
<polygon fill="midnightblue" stroke="midnightblue" points="651.3,-137.31 660.95,-132.93 650.68,-130.33 651.3,-137.31"/>
</g>
<!-- Node9&#45;&gt;Node3 -->
<g id="edge14" class="edge">
<title>Node9&#45;&gt;Node3</title>
<path fill="none" stroke="midnightblue" d="M566.53,-382.94C580.52,-379.45 595.13,-374.75 608,-368.5 646.84,-349.62 684.73,-315.72 705.57,-295.35"/>
<polygon fill="midnightblue" stroke="midnightblue" points="708.31,-297.55 712.92,-288.02 703.37,-292.6 708.31,-297.55"/>
</g>
<!-- Node10&#45;&gt;Node3 -->
<g id="edge17" class="edge">
<title>Node10&#45;&gt;Node3</title>
<path fill="none" stroke="midnightblue" d="M371.27,-358.67C436.89,-359.75 529.67,-356.45 608,-335.5 641.48,-326.54 676.67,-307.21 698.94,-293.55"/>
<polygon fill="midnightblue" stroke="midnightblue" points="701.03,-296.37 707.65,-288.09 697.32,-290.44 701.03,-296.37"/>
</g>
</g>
</svg>
