<?xml version="1.0" encoding="UTF-8" standalone="no"?>
<!DOCTYPE svg PUBLIC "-//W3C//DTD SVG 1.1//EN"
 "http://www.w3.org/Graphics/SVG/1.1/DTD/svg11.dtd">
<!-- Generated by graphviz version 2.43.0 (0)
 -->
<!-- Title: lyra::detail::basic_result&lt; void &gt; Pages: 1 -->
<svg width="182pt" height="299pt"
 viewBox="0.00 0.00 181.50 299.00" xmlns="http://www.w3.org/2000/svg" xmlns:xlink="http://www.w3.org/1999/xlink">
<g id="graph0" class="graph" transform="scale(1 1) rotate(0) translate(4 295)">
<title>lyra::detail::basic_result&lt; void &gt;</title>
<polygon fill="white" stroke="transparent" points="-4,4 -4,-295 177.5,-295 177.5,4 -4,4"/>
<!-- Node1 -->
<g id="node1" class="node">
<title>Node1</title>
<g id="a_node1"><a xlink:title=" ">
<polygon fill="#bfbfbf" stroke="black" points="19,-0.5 19,-30.5 120,-30.5 120,-0.5 19,-0.5"/>
<text text-anchor="start" x="27" y="-18.5" font-family="Helvetica,sans-Serif" font-size="10.00">lyra::detail::basic</text>
<text text-anchor="middle" x="69.5" y="-7.5" font-family="Helvetica,sans-Serif" font-size="10.00">_result&lt; void &gt;</text>
</a>
</g>
</g>
<!-- Node2 -->
<g id="node2" class="node">
<title>Node2</title>
<g id="a_node2"><a xlink:href="classlyra_1_1detail_1_1result__value__base_3_01void_01_4.html" target="_top" xlink:title=" ">
<polygon fill="white" stroke="black" points="9,-68.5 9,-98.5 130,-98.5 130,-68.5 9,-68.5"/>
<text text-anchor="start" x="17" y="-86.5" font-family="Helvetica,sans-Serif" font-size="10.00">lyra::detail::result</text>
<text text-anchor="middle" x="69.5" y="-75.5" font-family="Helvetica,sans-Serif" font-size="10.00">_value_base&lt; void &gt;</text>
</a>
</g>
</g>
<!-- Node2&#45;&gt;Node1 -->
<g id="edge1" class="edge">
<title>Node2&#45;&gt;Node1</title>
<path fill="none" stroke="midnightblue" d="M62.95,-58.03C62.51,-48.86 62.8,-38.74 63.83,-30.79"/>
<polygon fill="midnightblue" stroke="midnightblue" points="59.48,-58.51 63.82,-68.18 66.46,-57.92 59.48,-58.51"/>
</g>
<!-- Node2&#45;&gt;Node1 -->
<g id="edge7" class="edge">
<title>Node2&#45;&gt;Node1</title>
<path fill="none" stroke="midnightblue" d="M76.05,-58.03C76.49,-48.86 76.2,-38.74 75.17,-30.79"/>
<polygon fill="midnightblue" stroke="midnightblue" points="72.54,-57.92 75.18,-68.18 79.52,-58.51 72.54,-57.92"/>
</g>
<!-- Node3 -->
<g id="node3" class="node">
<title>Node3</title>
<g id="a_node3"><a xlink:href="classlyra_1_1detail_1_1result__base.html" target="_top" xlink:title=" ">
<polygon fill="white" stroke="black" points="4,-136.5 4,-155.5 135,-155.5 135,-136.5 4,-136.5"/>
<text text-anchor="middle" x="69.5" y="-143.5" font-family="Helvetica,sans-Serif" font-size="10.00">lyra::detail::result_base</text>
</a>
</g>
</g>
<!-- Node3&#45;&gt;Node2 -->
<g id="edge2" class="edge">
<title>Node3&#45;&gt;Node2</title>
<path fill="none" stroke="midnightblue" d="M63.2,-126.22C62.47,-117.36 62.63,-106.96 63.67,-98.76"/>
<polygon fill="midnightblue" stroke="midnightblue" points="59.76,-126.91 64.6,-136.33 66.7,-125.95 59.76,-126.91"/>
</g>
<!-- Node3&#45;&gt;Node2 -->
<g id="edge6" class="edge">
<title>Node3&#45;&gt;Node2</title>
<path fill="none" stroke="midnightblue" d="M75.8,-126.22C76.53,-117.36 76.37,-106.96 75.33,-98.76"/>
<polygon fill="midnightblue" stroke="midnightblue" points="72.3,-125.95 74.4,-136.33 79.24,-126.91 72.3,-125.95"/>
</g>
<!-- Node4 -->
<g id="node4" class="node">
<title>Node4</title>
<g id="a_node4"><a xlink:title=" ">
<polygon fill="white" stroke="black" points="0,-203.5 0,-222.5 71,-222.5 71,-203.5 0,-203.5"/>
<text text-anchor="middle" x="35.5" y="-210.5" font-family="Helvetica,sans-Serif" font-size="10.00">result_kind</text>
</a>
</g>
</g>
<!-- Node4&#45;&gt;Node3 -->
<g id="edge3" class="edge">
<title>Node4&#45;&gt;Node3</title>
<path fill="none" stroke="#9a32cd" stroke-dasharray="5,2" d="M42.86,-194.17C45.68,-187.72 49.05,-180.44 52.5,-174 55.84,-167.75 60.09,-161 63.51,-155.81"/>
<polygon fill="#9a32cd" stroke="#9a32cd" points="39.63,-192.81 38.95,-203.38 46.07,-195.55 39.63,-192.81"/>
<text text-anchor="middle" x="67.5" y="-177" font-family="Helvetica,sans-Serif" font-size="10.00"> kind_</text>
</g>
<!-- Node5 -->
<g id="node5" class="node">
<title>Node5</title>
<g id="a_node5"><a xlink:title=" ">
<polygon fill="white" stroke="black" points="89,-203.5 89,-222.5 154,-222.5 154,-203.5 89,-203.5"/>
<text text-anchor="middle" x="121.5" y="-210.5" font-family="Helvetica,sans-Serif" font-size="10.00">std::string</text>
</a>
</g>
</g>
<!-- Node5&#45;&gt;Node3 -->
<g id="edge4" class="edge">
<title>Node5&#45;&gt;Node3</title>
<path fill="none" stroke="#9a32cd" stroke-dasharray="5,2" d="M108.12,-195.27C97.98,-182.6 84.46,-165.7 76.4,-155.63"/>
<polygon fill="#9a32cd" stroke="#9a32cd" points="105.51,-197.61 114.49,-203.23 110.97,-193.24 105.51,-197.61"/>
<text text-anchor="middle" x="125" y="-177" font-family="Helvetica,sans-Serif" font-size="10.00"> message_</text>
</g>
<!-- Node6 -->
<g id="node6" class="node">
<title>Node6</title>
<g id="a_node6"><a xlink:title=" ">
<polygon fill="white" stroke="black" points="69.5,-260.5 69.5,-290.5 173.5,-290.5 173.5,-260.5 69.5,-260.5"/>
<text text-anchor="start" x="77.5" y="-278.5" font-family="Helvetica,sans-Serif" font-size="10.00">std::basic_string&lt;</text>
<text text-anchor="middle" x="121.5" y="-267.5" font-family="Helvetica,sans-Serif" font-size="10.00"> Char &gt;</text>
</a>
</g>
</g>
<!-- Node6&#45;&gt;Node5 -->
<g id="edge5" class="edge">
<title>Node6&#45;&gt;Node5</title>
<path fill="none" stroke="midnightblue" d="M121.5,-250.35C121.5,-240.51 121.5,-229.78 121.5,-222.54"/>
<polygon fill="midnightblue" stroke="midnightblue" points="118,-250.47 121.5,-260.47 125,-250.47 118,-250.47"/>
</g>
</g>
</svg>
