<?xml version="1.0" encoding="UTF-8" standalone="no"?>
<!DOCTYPE svg PUBLIC "-//W3C//DTD SVG 1.1//EN"
 "http://www.w3.org/Graphics/SVG/1.1/DTD/svg11.dtd">
<!-- Generated by graphviz version 2.43.0 (0)
 -->
<!-- Title: lyra::cli::add_argument Pages: 1 -->
<svg width="477pt" height="142pt"
 viewBox="0.00 0.00 477.00 142.00" xmlns="http://www.w3.org/2000/svg" xmlns:xlink="http://www.w3.org/1999/xlink">
<g id="graph0" class="graph" transform="scale(1 1) rotate(0) translate(4 138)">
<title>lyra::cli::add_argument</title>
<polygon fill="white" stroke="transparent" points="-4,4 -4,-138 473,-138 473,4 -4,4"/>
<!-- Node1 -->
<g id="node1" class="node">
<title>Node1</title>
<g id="a_node1"><a xlink:title=" ">
<polygon fill="#bfbfbf" stroke="black" points="340,-57.5 340,-76.5 469,-76.5 469,-57.5 340,-57.5"/>
<text text-anchor="middle" x="404.5" y="-64.5" font-family="Helvetica,sans-Serif" font-size="10.00">lyra::cli::add_argument</text>
</a>
</g>
</g>
<!-- Node2 -->
<g id="node2" class="node">
<title>Node2</title>
<g id="a_node2"><a xlink:href="classlyra_1_1main.html#a3efae31bd525dd35d38d88b5d5429b98" target="_top" xlink:title=" ">
<polygon fill="white" stroke="black" points="161,-114.5 161,-133.5 304,-133.5 304,-114.5 161,-114.5"/>
<text text-anchor="middle" x="232.5" y="-121.5" font-family="Helvetica,sans-Serif" font-size="10.00">lyra::main::add_argument</text>
</a>
</g>
</g>
<!-- Node1&#45;&gt;Node2 -->
<g id="edge1" class="edge">
<title>Node1&#45;&gt;Node2</title>
<path fill="none" stroke="midnightblue" d="M370.9,-80.41C351.61,-88.1 326.61,-97.66 304,-105 293.63,-108.37 282.27,-111.62 271.76,-114.45"/>
<polygon fill="midnightblue" stroke="midnightblue" points="372.45,-83.56 380.42,-76.58 369.83,-77.07 372.45,-83.56"/>
</g>
<!-- Node4 -->
<g id="node4" class="node">
<title>Node4</title>
<g id="a_node4"><a xlink:href="doc__commands_8cpp.html#a217dbf8b442f20279ea00b898af96f52" target="_top" xlink:title=" ">
<polygon fill="white" stroke="black" points="212,-76.5 212,-95.5 253,-95.5 253,-76.5 212,-76.5"/>
<text text-anchor="middle" x="232.5" y="-83.5" font-family="Helvetica,sans-Serif" font-size="10.00">main</text>
</a>
</g>
</g>
<!-- Node1&#45;&gt;Node4 -->
<g id="edge3" class="edge">
<title>Node1&#45;&gt;Node4</title>
<path fill="none" stroke="midnightblue" d="M329.52,-75.27C301.58,-78.39 272.03,-81.69 253.21,-83.8"/>
<polygon fill="midnightblue" stroke="midnightblue" points="330.17,-78.72 339.71,-74.13 329.39,-71.76 330.17,-78.72"/>
</g>
<!-- Node5 -->
<g id="node5" class="node">
<title>Node5</title>
<g id="a_node5"><a xlink:href="classlyra_1_1main.html#ae004c46565600955d5585e7cf5c6a0c3" target="_top" xlink:title=" ">
<polygon fill="white" stroke="black" points="172,-38.5 172,-57.5 293,-57.5 293,-38.5 172,-38.5"/>
<text text-anchor="middle" x="232.5" y="-45.5" font-family="Helvetica,sans-Serif" font-size="10.00">lyra::main::operator()</text>
</a>
</g>
</g>
<!-- Node1&#45;&gt;Node5 -->
<g id="edge4" class="edge">
<title>Node1&#45;&gt;Node5</title>
<path fill="none" stroke="midnightblue" d="M329.58,-58.74C317.4,-57.38 304.92,-55.98 293.15,-54.67"/>
<polygon fill="midnightblue" stroke="midnightblue" points="329.39,-62.24 339.71,-59.87 330.17,-55.28 329.39,-62.24"/>
</g>
<!-- Node6 -->
<g id="node6" class="node">
<title>Node6</title>
<g id="a_node6"><a xlink:href="classlyra_1_1cli.html#a954326efc7d1860591bfe7d6b0541f43" target="_top" xlink:title=" ">
<polygon fill="white" stroke="black" points="177,-0.5 177,-19.5 288,-19.5 288,-0.5 177,-0.5"/>
<text text-anchor="middle" x="232.5" y="-7.5" font-family="Helvetica,sans-Serif" font-size="10.00">lyra::cli::operator|=</text>
</a>
</g>
</g>
<!-- Node1&#45;&gt;Node6 -->
<g id="edge5" class="edge">
<title>Node1&#45;&gt;Node6</title>
<path fill="none" stroke="midnightblue" d="M370.9,-53.59C351.61,-45.9 326.61,-36.34 304,-29 293.63,-25.63 282.27,-22.38 271.76,-19.55"/>
<polygon fill="midnightblue" stroke="midnightblue" points="369.83,-56.93 380.42,-57.42 372.45,-50.44 369.83,-56.93"/>
</g>
<!-- Node3 -->
<g id="node3" class="node">
<title>Node3</title>
<g id="a_node3"><a xlink:href="classlyra_1_1main.html#ad086123f0ca6e2effabc14a342ad4e9f" target="_top" xlink:title=" ">
<polygon fill="white" stroke="black" points="14,-114.5 14,-133.5 111,-133.5 111,-114.5 14,-114.5"/>
<text text-anchor="middle" x="62.5" y="-121.5" font-family="Helvetica,sans-Serif" font-size="10.00">lyra::main::main</text>
</a>
</g>
</g>
<!-- Node2&#45;&gt;Node3 -->
<g id="edge2" class="edge">
<title>Node2&#45;&gt;Node3</title>
<path fill="none" stroke="midnightblue" d="M150.51,-124C137.08,-124 123.54,-124 111.28,-124"/>
<polygon fill="midnightblue" stroke="midnightblue" points="150.74,-127.5 160.74,-124 150.74,-120.5 150.74,-127.5"/>
</g>
<!-- Node7 -->
<g id="node7" class="node">
<title>Node7</title>
<g id="a_node7"><a xlink:href="classlyra_1_1main.html#a32b6a578411eb8ae3a0dd0a4e5963a3e" target="_top" xlink:title=" ">
<polygon fill="white" stroke="black" points="0,-0.5 0,-19.5 125,-19.5 125,-0.5 0,-0.5"/>
<text text-anchor="middle" x="62.5" y="-7.5" font-family="Helvetica,sans-Serif" font-size="10.00">lyra::main::operator|=</text>
</a>
</g>
</g>
<!-- Node6&#45;&gt;Node7 -->
<g id="edge6" class="edge">
<title>Node6&#45;&gt;Node7</title>
<path fill="none" stroke="midnightblue" d="M166.66,-10C152.99,-10 138.6,-10 125.05,-10"/>
<polygon fill="midnightblue" stroke="midnightblue" points="166.96,-13.5 176.96,-10 166.96,-6.5 166.96,-13.5"/>
</g>
</g>
</svg>
