<?xml version="1.0" encoding="UTF-8" standalone="no"?>
<!DOCTYPE svg PUBLIC "-//W3C//DTD SVG 1.1//EN"
 "http://www.w3.org/Graphics/SVG/1.1/DTD/svg11.dtd">
<!-- Generated by graphviz version 2.43.0 (0)
 -->
<!-- Title: lyra::arguments::parse Pages: 1 -->
<svg width="510pt" height="236pt"
 viewBox="0.00 0.00 510.00 236.00" xmlns="http://www.w3.org/2000/svg" xmlns:xlink="http://www.w3.org/1999/xlink">
<g id="graph0" class="graph" transform="scale(1 1) rotate(0) translate(4 232)">
<title>lyra::arguments::parse</title>
<polygon fill="white" stroke="transparent" points="-4,4 -4,-232 506,-232 506,4 -4,4"/>
<!-- Node1 -->
<g id="node1" class="node">
<title>Node1</title>
<g id="a_node1"><a xlink:title=" ">
<polygon fill="#bfbfbf" stroke="black" points="0,-126.5 0,-145.5 127,-145.5 127,-126.5 0,-126.5"/>
<text text-anchor="middle" x="63.5" y="-133.5" font-family="Helvetica,sans-Serif" font-size="10.00">lyra::arguments::parse</text>
</a>
</g>
</g>
<!-- Node2 -->
<g id="node2" class="node">
<title>Node2</title>
<g id="a_node2"><a xlink:href="classlyra_1_1detail_1_1basic__result.html#ae878693d416cc48943171ab4187f5719" target="_top" xlink:title=" ">
<polygon fill="white" stroke="black" points="364.5,-186.5 364.5,-227.5 486.5,-227.5 486.5,-186.5 364.5,-186.5"/>
<text text-anchor="start" x="372.5" y="-215.5" font-family="Helvetica,sans-Serif" font-size="10.00">lyra::detail::basic</text>
<text text-anchor="start" x="372.5" y="-204.5" font-family="Helvetica,sans-Serif" font-size="10.00">_result&lt; detail::parse</text>
<text text-anchor="middle" x="425.5" y="-193.5" font-family="Helvetica,sans-Serif" font-size="10.00">_state &gt;::error</text>
</a>
</g>
</g>
<!-- Node1&#45;&gt;Node2 -->
<g id="edge1" class="edge">
<title>Node1&#45;&gt;Node2</title>
<path fill="none" stroke="midnightblue" d="M99.45,-145.55C118.21,-150.5 141.78,-156.45 163,-161 227.47,-174.83 301.53,-187.57 354.34,-196.11"/>
<polygon fill="midnightblue" stroke="midnightblue" points="353.84,-199.58 364.27,-197.71 354.96,-192.67 353.84,-199.58"/>
</g>
<!-- Node3 -->
<g id="node3" class="node">
<title>Node3</title>
<g id="a_node3"><a xlink:href="classlyra_1_1arguments.html#a4509f3d7139b3cd823dcad3c75ae221b" target="_top" xlink:title=" ">
<polygon fill="white" stroke="black" points="163,-82.5 163,-101.5 313,-101.5 313,-82.5 163,-82.5"/>
<text text-anchor="middle" x="238" y="-89.5" font-family="Helvetica,sans-Serif" font-size="10.00">lyra::arguments::parse_any</text>
</a>
</g>
</g>
<!-- Node1&#45;&gt;Node3 -->
<g id="edge2" class="edge">
<title>Node1&#45;&gt;Node3</title>
<path fill="none" stroke="midnightblue" d="M101.93,-126.45C127.7,-119.88 162.14,-111.1 189.79,-104.04"/>
<polygon fill="midnightblue" stroke="midnightblue" points="190.82,-107.39 199.64,-101.53 189.09,-100.61 190.82,-107.39"/>
</g>
<!-- Node8 -->
<g id="node8" class="node">
<title>Node8</title>
<g id="a_node8"><a xlink:href="classlyra_1_1arguments.html#a125da5640a06de6f9268328a252e20d2" target="_top" xlink:title=" ">
<polygon fill="white" stroke="black" points="174.5,-121 174.5,-151 301.5,-151 301.5,-121 174.5,-121"/>
<text text-anchor="start" x="182.5" y="-139" font-family="Helvetica,sans-Serif" font-size="10.00">lyra::arguments::parse</text>
<text text-anchor="middle" x="238" y="-128" font-family="Helvetica,sans-Serif" font-size="10.00">_sequence</text>
</a>
</g>
</g>
<!-- Node1&#45;&gt;Node8 -->
<g id="edge8" class="edge">
<title>Node1&#45;&gt;Node8</title>
<path fill="none" stroke="midnightblue" d="M127.26,-136C139.23,-136 151.85,-136 164.1,-136"/>
<polygon fill="midnightblue" stroke="midnightblue" points="164.28,-139.5 174.28,-136 164.28,-132.5 164.28,-139.5"/>
</g>
<!-- Node3&#45;&gt;Node2 -->
<g id="edge5" class="edge">
<title>Node3&#45;&gt;Node2</title>
<path fill="none" stroke="midnightblue" d="M294.32,-101.58C301.02,-104.24 307.45,-107.65 313,-112 339,-132.36 324.21,-155.18 349,-177 350.99,-178.75 353.1,-180.41 355.29,-181.98"/>
<polygon fill="midnightblue" stroke="midnightblue" points="353.81,-185.18 364.13,-187.58 357.56,-179.27 353.81,-185.18"/>
</g>
<!-- Node4 -->
<g id="node4" class="node">
<title>Node4</title>
<g id="a_node4"><a xlink:href="classlyra_1_1detail_1_1token__iterator.html#ac3007dcca2221df17bcfba6815a60aff" target="_top" xlink:title=" ">
<polygon fill="white" stroke="black" points="370,-77 370,-107 481,-107 481,-77 370,-77"/>
<text text-anchor="start" x="378" y="-95" font-family="Helvetica,sans-Serif" font-size="10.00">lyra::detail::token</text>
<text text-anchor="middle" x="425.5" y="-84" font-family="Helvetica,sans-Serif" font-size="10.00">_iterator::argument</text>
</a>
</g>
</g>
<!-- Node3&#45;&gt;Node4 -->
<g id="edge3" class="edge">
<title>Node3&#45;&gt;Node4</title>
<path fill="none" stroke="midnightblue" d="M313.11,-92C328.53,-92 344.66,-92 359.71,-92"/>
<polygon fill="midnightblue" stroke="midnightblue" points="359.93,-95.5 369.93,-92 359.93,-88.5 359.93,-95.5"/>
</g>
<!-- Node5 -->
<g id="node5" class="node">
<title>Node5</title>
<g id="a_node5"><a xlink:href="namespace_main_namespace.html#ac3a415fa8d1b6b56dfe215f13c7f67b1" target="_top" xlink:title=" ">
<polygon fill="white" stroke="black" points="360,-38.5 360,-57.5 491,-57.5 491,-38.5 360,-38.5"/>
<text text-anchor="middle" x="425.5" y="-45.5" font-family="Helvetica,sans-Serif" font-size="10.00">MainNamespace::count</text>
</a>
</g>
</g>
<!-- Node3&#45;&gt;Node5 -->
<g id="edge4" class="edge">
<title>Node3&#45;&gt;Node5</title>
<path fill="none" stroke="midnightblue" d="M279.25,-82.45C307.21,-75.82 344.65,-66.94 374.51,-59.86"/>
<polygon fill="midnightblue" stroke="midnightblue" points="375.41,-63.24 384.33,-57.53 373.79,-56.43 375.41,-63.24"/>
</g>
<!-- Node6 -->
<g id="node6" class="node">
<title>Node6</title>
<g id="a_node6"><a xlink:href="classlyra_1_1parser.html#a59a2a42cea85955a811279a463777b9d" target="_top" xlink:title=" ">
<polygon fill="white" stroke="black" points="349,-0.5 349,-19.5 502,-19.5 502,-0.5 349,-0.5"/>
<text text-anchor="middle" x="425.5" y="-7.5" font-family="Helvetica,sans-Serif" font-size="10.00">lyra::parser::get_usage_text</text>
</a>
</g>
</g>
<!-- Node3&#45;&gt;Node6 -->
<g id="edge6" class="edge">
<title>Node3&#45;&gt;Node6</title>
<path fill="none" stroke="midnightblue" d="M252.95,-82.33C273.24,-68.66 312.47,-43.73 349,-29 355.15,-26.52 361.71,-24.29 368.31,-22.31"/>
<polygon fill="midnightblue" stroke="midnightblue" points="369.27,-25.68 377.94,-19.59 367.37,-18.94 369.27,-25.68"/>
</g>
<!-- Node7 -->
<g id="node7" class="node">
<title>Node7</title>
<g id="a_node7"><a xlink:href="classlyra_1_1detail_1_1basic__result.html#aee577409a431e215136ffc0764e5432b" target="_top" xlink:title=" ">
<polygon fill="white" stroke="black" points="364.5,-126.5 364.5,-167.5 486.5,-167.5 486.5,-126.5 364.5,-126.5"/>
<text text-anchor="start" x="372.5" y="-155.5" font-family="Helvetica,sans-Serif" font-size="10.00">lyra::detail::basic</text>
<text text-anchor="start" x="372.5" y="-144.5" font-family="Helvetica,sans-Serif" font-size="10.00">_result&lt; detail::parse</text>
<text text-anchor="middle" x="425.5" y="-133.5" font-family="Helvetica,sans-Serif" font-size="10.00">_state &gt;::ok</text>
</a>
</g>
</g>
<!-- Node3&#45;&gt;Node7 -->
<g id="edge7" class="edge">
<title>Node3&#45;&gt;Node7</title>
<path fill="none" stroke="midnightblue" d="M275.59,-101.58C287.54,-104.79 300.86,-108.46 313,-112 326.48,-115.93 340.82,-120.3 354.57,-124.58"/>
<polygon fill="midnightblue" stroke="midnightblue" points="353.86,-128.02 364.45,-127.67 355.95,-121.34 353.86,-128.02"/>
</g>
<!-- Node8&#45;&gt;Node2 -->
<g id="edge11" class="edge">
<title>Node8&#45;&gt;Node2</title>
<path fill="none" stroke="midnightblue" d="M278.34,-151.06C302.41,-160.27 333.76,-172.27 361.25,-182.79"/>
<polygon fill="midnightblue" stroke="midnightblue" points="360.2,-186.14 370.79,-186.44 362.7,-179.6 360.2,-186.14"/>
</g>
<!-- Node8&#45;&gt;Node4 -->
<g id="edge9" class="edge">
<title>Node8&#45;&gt;Node4</title>
<path fill="none" stroke="midnightblue" d="M301.54,-121.16C320.44,-116.68 341.22,-111.75 360.23,-107.24"/>
<polygon fill="midnightblue" stroke="midnightblue" points="361.07,-110.64 369.99,-104.93 359.45,-103.83 361.07,-110.64"/>
</g>
<!-- Node8&#45;&gt;Node5 -->
<g id="edge10" class="edge">
<title>Node8&#45;&gt;Node5</title>
<path fill="none" stroke="midnightblue" d="M294.8,-120.98C301.2,-118.16 307.42,-114.86 313,-111 333.78,-96.62 327.67,-80.55 349,-67 352.37,-64.86 355.97,-62.96 359.69,-61.28"/>
<polygon fill="midnightblue" stroke="midnightblue" points="361.17,-64.46 369.17,-57.51 358.58,-57.95 361.17,-64.46"/>
</g>
<!-- Node8&#45;&gt;Node6 -->
<g id="edge12" class="edge">
<title>Node8&#45;&gt;Node6</title>
<path fill="none" stroke="midnightblue" d="M298.87,-120.86C303.99,-118.1 308.8,-114.85 313,-111 342.35,-84.12 318.6,-54.7 349,-29 350.99,-27.32 353.1,-25.79 355.31,-24.38"/>
<polygon fill="midnightblue" stroke="midnightblue" points="357.09,-27.4 364.27,-19.61 353.8,-21.23 357.09,-27.4"/>
</g>
<!-- Node8&#45;&gt;Node7 -->
<g id="edge13" class="edge">
<title>Node8&#45;&gt;Node7</title>
<path fill="none" stroke="midnightblue" d="M301.54,-139.71C318.51,-140.72 337,-141.81 354.36,-142.84"/>
<polygon fill="midnightblue" stroke="midnightblue" points="354.24,-146.34 364.43,-143.44 354.65,-139.35 354.24,-146.34"/>
</g>
</g>
</svg>
