<?xml version="1.0" encoding="UTF-8" standalone="no"?>
<!DOCTYPE svg PUBLIC "-//W3C//DTD SVG 1.1//EN"
 "http://www.w3.org/Graphics/SVG/1.1/DTD/svg11.dtd">
<!-- Generated by graphviz version 2.43.0 (0)
 -->
<!-- Title: MainNamespace::DumbPointer&lt; BaseData &gt; Pages: 1 -->
<svg width="467pt" height="235pt"
 viewBox="0.00 0.00 467.00 235.00" xmlns="http://www.w3.org/2000/svg" xmlns:xlink="http://www.w3.org/1999/xlink">
<g id="graph0" class="graph" transform="scale(1 1) rotate(0) translate(4 231)">
<title>MainNamespace::DumbPointer&lt; BaseData &gt;</title>
<polygon fill="white" stroke="transparent" points="-4,4 -4,-231 463,-231 463,4 -4,4"/>
<!-- Node1 -->
<g id="node1" class="node">
<title>Node1</title>
<g id="a_node1"><a xlink:title=" ">
<polygon fill="#bfbfbf" stroke="black" points="0,-98.5 0,-128.5 168,-128.5 168,-98.5 0,-98.5"/>
<text text-anchor="start" x="8" y="-116.5" font-family="Helvetica,sans-Serif" font-size="10.00">MainNamespace::DumbPointer</text>
<text text-anchor="middle" x="84" y="-105.5" font-family="Helvetica,sans-Serif" font-size="10.00">&lt; BaseData &gt;</text>
</a>
</g>
</g>
<!-- Node2 -->
<g id="node2" class="node">
<title>Node2</title>
<g id="a_node2"><a xlink:href="class_main_namespace_1_1_dumb_pointer.html" target="_top" xlink:title=" ">
<polygon fill="white" stroke="black" points="291,-196.5 291,-226.5 459,-226.5 459,-196.5 291,-196.5"/>
<text text-anchor="start" x="299" y="-214.5" font-family="Helvetica,sans-Serif" font-size="10.00">MainNamespace::DumbPointer</text>
<text text-anchor="middle" x="375" y="-203.5" font-family="Helvetica,sans-Serif" font-size="10.00">&lt; dh2matrix &gt;</text>
</a>
</g>
</g>
<!-- Node1&#45;&gt;Node2 -->
<g id="edge1" class="edge">
<title>Node1&#45;&gt;Node2</title>
<path fill="none" stroke="orange" stroke-dasharray="5,2" d="M124.23,-133.11C142.69,-141.89 165.18,-151.93 186,-159.5 226.58,-174.25 273.37,-187.21 310.12,-196.5"/>
<polygon fill="orange" stroke="orange" points="125.51,-129.84 114.98,-128.66 122.47,-136.15 125.51,-129.84"/>
<text text-anchor="middle" x="229.5" y="-189.5" font-family="Helvetica,sans-Serif" font-size="10.00"> &lt; dh2matrix &gt;</text>
</g>
<!-- Node3 -->
<g id="node3" class="node">
<title>Node3</title>
<g id="a_node3"><a xlink:href="class_main_namespace_1_1_dumb_pointer.html" target="_top" xlink:title=" ">
<polygon fill="white" stroke="black" points="291,-147.5 291,-177.5 459,-177.5 459,-147.5 291,-147.5"/>
<text text-anchor="start" x="299" y="-165.5" font-family="Helvetica,sans-Serif" font-size="10.00">MainNamespace::DumbPointer</text>
<text text-anchor="middle" x="375" y="-154.5" font-family="Helvetica,sans-Serif" font-size="10.00">&lt; helmholtz3d &gt;</text>
</a>
</g>
</g>
<!-- Node1&#45;&gt;Node3 -->
<g id="edge2" class="edge">
<title>Node1&#45;&gt;Node3</title>
<path fill="none" stroke="orange" stroke-dasharray="5,2" d="M178.28,-129.32C214.52,-135.46 255.68,-142.44 290.88,-148.41"/>
<polygon fill="orange" stroke="orange" points="178.65,-125.83 168.2,-127.61 177.48,-132.73 178.65,-125.83"/>
<text text-anchor="middle" x="229.5" y="-147.5" font-family="Helvetica,sans-Serif" font-size="10.00"> &lt; helmholtz3d &gt;</text>
</g>
<!-- Node4 -->
<g id="node4" class="node">
<title>Node4</title>
<g id="a_node4"><a xlink:href="class_main_namespace_1_1_dumb_pointer.html" target="_top" xlink:title=" ">
<polygon fill="white" stroke="black" points="291,-98.5 291,-128.5 459,-128.5 459,-98.5 291,-98.5"/>
<text text-anchor="start" x="299" y="-116.5" font-family="Helvetica,sans-Serif" font-size="10.00">MainNamespace::DumbPointer</text>
<text text-anchor="middle" x="375" y="-105.5" font-family="Helvetica,sans-Serif" font-size="10.00">&lt; dblock &gt;</text>
</a>
</g>
</g>
<!-- Node1&#45;&gt;Node4 -->
<g id="edge3" class="edge">
<title>Node1&#45;&gt;Node4</title>
<path fill="none" stroke="orange" stroke-dasharray="5,2" d="M178.28,-113.5C214.52,-113.5 255.68,-113.5 290.88,-113.5"/>
<polygon fill="orange" stroke="orange" points="178.2,-110 168.2,-113.5 178.2,-117 178.2,-110"/>
<text text-anchor="middle" x="229.5" y="-116.5" font-family="Helvetica,sans-Serif" font-size="10.00"> &lt; dblock &gt;</text>
</g>
<!-- Node5 -->
<g id="node5" class="node">
<title>Node5</title>
<g id="a_node5"><a xlink:href="class_main_namespace_1_1_dumb_pointer.html" target="_top" xlink:title=" ">
<polygon fill="white" stroke="black" points="291,-49.5 291,-79.5 459,-79.5 459,-49.5 291,-49.5"/>
<text text-anchor="start" x="299" y="-67.5" font-family="Helvetica,sans-Serif" font-size="10.00">MainNamespace::DumbPointer</text>
<text text-anchor="middle" x="375" y="-56.5" font-family="Helvetica,sans-Serif" font-size="10.00">&lt; dcluster &gt;</text>
</a>
</g>
</g>
<!-- Node1&#45;&gt;Node5 -->
<g id="edge4" class="edge">
<title>Node1&#45;&gt;Node5</title>
<path fill="none" stroke="orange" stroke-dasharray="5,2" d="M178.28,-97.68C214.52,-91.54 255.68,-84.56 290.88,-78.59"/>
<polygon fill="orange" stroke="orange" points="177.48,-94.27 168.2,-99.39 178.65,-101.17 177.48,-94.27"/>
<text text-anchor="middle" x="229.5" y="-98.5" font-family="Helvetica,sans-Serif" font-size="10.00"> &lt; dcluster &gt;</text>
</g>
<!-- Node6 -->
<g id="node6" class="node">
<title>Node6</title>
<g id="a_node6"><a xlink:href="class_main_namespace_1_1_dumb_pointer.html" target="_top" xlink:title=" ">
<polygon fill="white" stroke="black" points="291,-0.5 291,-30.5 459,-30.5 459,-0.5 291,-0.5"/>
<text text-anchor="start" x="299" y="-18.5" font-family="Helvetica,sans-Serif" font-size="10.00">MainNamespace::DumbPointer</text>
<text text-anchor="middle" x="375" y="-7.5" font-family="Helvetica,sans-Serif" font-size="10.00">&lt; avector &gt;</text>
</a>
</g>
</g>
<!-- Node1&#45;&gt;Node6 -->
<g id="edge5" class="edge">
<title>Node1&#45;&gt;Node6</title>
<path fill="none" stroke="orange" stroke-dasharray="5,2" d="M123.1,-93.89C141.74,-84.78 164.71,-74.28 186,-66.5 225.71,-52 271.46,-39.5 307.89,-30.5"/>
<polygon fill="orange" stroke="orange" points="121.46,-90.8 114.05,-98.37 124.56,-97.07 121.46,-90.8"/>
<text text-anchor="middle" x="229.5" y="-69.5" font-family="Helvetica,sans-Serif" font-size="10.00"> &lt; avector &gt;</text>
</g>
</g>
</svg>
