<?xml version="1.0" encoding="UTF-8" standalone="no"?>
<!DOCTYPE svg PUBLIC "-//W3C//DTD SVG 1.1//EN"
 "http://www.w3.org/Graphics/SVG/1.1/DTD/svg11.dtd">
<!-- Generated by graphviz version 2.43.0 (0)
 -->
<!-- Title: MainNamespace::Logger::StdStreamDevice Pages: 1 -->
<svg width="429pt" height="184pt"
 viewBox="0.00 0.00 428.50 184.00" xmlns="http://www.w3.org/2000/svg" xmlns:xlink="http://www.w3.org/1999/xlink">
<g id="graph0" class="graph" transform="scale(1 1) rotate(0) translate(4 180)">
<title>MainNamespace::Logger::StdStreamDevice</title>
<polygon fill="white" stroke="transparent" points="-4,4 -4,-180 424.5,-180 424.5,4 -4,4"/>
<!-- Node1 -->
<g id="node1" class="node">
<title>Node1</title>
<g id="a_node1"><a xlink:title="Logger for a standard stream. Log to a given FILE pointer, writing log messages immediately....">
<polygon fill="#bfbfbf" stroke="black" points="176,-0.5 176,-30.5 313,-30.5 313,-0.5 176,-0.5"/>
<text text-anchor="start" x="184" y="-18.5" font-family="Helvetica,sans-Serif" font-size="10.00">MainNamespace::Logger</text>
<text text-anchor="middle" x="244.5" y="-7.5" font-family="Helvetica,sans-Serif" font-size="10.00">::StdStreamDevice</text>
</a>
</g>
</g>
<!-- Node2 -->
<g id="node2" class="node">
<title>Node2</title>
<g id="a_node2"><a xlink:href="class_main_namespace_1_1_logger_1_1_output_device.html" target="_top" xlink:title=" ">
<polygon fill="white" stroke="black" points="0,-78.5 0,-108.5 137,-108.5 137,-78.5 0,-78.5"/>
<text text-anchor="start" x="8" y="-96.5" font-family="Helvetica,sans-Serif" font-size="10.00">MainNamespace::Logger</text>
<text text-anchor="middle" x="68.5" y="-85.5" font-family="Helvetica,sans-Serif" font-size="10.00">::OutputDevice</text>
</a>
</g>
</g>
<!-- Node2&#45;&gt;Node1 -->
<g id="edge1" class="edge">
<title>Node2&#45;&gt;Node1</title>
<path fill="none" stroke="midnightblue" d="M110.48,-74.37C141.59,-60.94 183.39,-42.89 211.98,-30.54"/>
<polygon fill="midnightblue" stroke="midnightblue" points="108.98,-71.21 101.19,-78.38 111.76,-77.63 108.98,-71.21"/>
</g>
<!-- Node3 -->
<g id="node3" class="node">
<title>Node3</title>
<g id="a_node3"><a xlink:title=" ">
<polygon fill="white" stroke="black" points="47,-156.5 47,-175.5 90,-175.5 90,-156.5 47,-156.5"/>
<text text-anchor="middle" x="68.5" y="-163.5" font-family="Helvetica,sans-Serif" font-size="10.00">Level</text>
</a>
</g>
</g>
<!-- Node3&#45;&gt;Node2 -->
<g id="edge2" class="edge">
<title>Node3&#45;&gt;Node2</title>
<path fill="none" stroke="#9a32cd" stroke-dasharray="5,2" d="M68.5,-146.24C68.5,-134.41 68.5,-119.38 68.5,-108.58"/>
<polygon fill="#9a32cd" stroke="#9a32cd" points="65,-146.36 68.5,-156.36 72,-146.36 65,-146.36"/>
<text text-anchor="middle" x="93.5" y="-130" font-family="Helvetica,sans-Serif" font-size="10.00"> logLevel_</text>
</g>
<!-- Node4 -->
<g id="node4" class="node">
<title>Node4</title>
<g id="a_node4"><a xlink:title=" ">
<polygon fill="white" stroke="black" points="155.5,-84 155.5,-103 193.5,-103 193.5,-84 155.5,-84"/>
<text text-anchor="middle" x="174.5" y="-91" font-family="Helvetica,sans-Serif" font-size="10.00">bool</text>
</a>
</g>
</g>
<!-- Node4&#45;&gt;Node1 -->
<g id="edge3" class="edge">
<title>Node4&#45;&gt;Node1</title>
<path fill="none" stroke="#9a32cd" stroke-dasharray="5,2" d="M179.81,-74.07C182.86,-65.76 187.32,-56.22 193.5,-49 199.71,-41.74 207.95,-35.53 215.99,-30.55"/>
<polygon fill="#9a32cd" stroke="#9a32cd" points="176.46,-73.07 176.69,-83.66 183.11,-75.23 176.46,-73.07"/>
<text text-anchor="middle" x="217" y="-52" font-family="Helvetica,sans-Serif" font-size="10.00"> newline_</text>
</g>
<!-- Node5 -->
<g id="node5" class="node">
<title>Node5</title>
<g id="a_node5"><a xlink:title=" ">
<polygon fill="white" stroke="black" points="222,-84 222,-103 267,-103 267,-84 222,-84"/>
<text text-anchor="middle" x="244.5" y="-91" font-family="Helvetica,sans-Serif" font-size="10.00">FILE *</text>
</a>
</g>
</g>
<!-- Node5&#45;&gt;Node1 -->
<g id="edge4" class="edge">
<title>Node5&#45;&gt;Node1</title>
<path fill="none" stroke="#9a32cd" stroke-dasharray="5,2" d="M244.5,-73.78C244.5,-60.4 244.5,-42.69 244.5,-30.52"/>
<polygon fill="#9a32cd" stroke="#9a32cd" points="241,-73.78 244.5,-83.78 248,-73.78 241,-73.78"/>
<text text-anchor="middle" x="266" y="-52" font-family="Helvetica,sans-Serif" font-size="10.00"> stream_</text>
</g>
<!-- Node6 -->
<g id="node6" class="node">
<title>Node6</title>
<g id="a_node6"><a xlink:title=" ">
<polygon fill="white" stroke="black" points="288,-84 288,-103 333,-103 333,-84 288,-84"/>
<text text-anchor="middle" x="310.5" y="-91" font-family="Helvetica,sans-Serif" font-size="10.00">size_t</text>
</a>
</g>
</g>
<!-- Node6&#45;&gt;Node1 -->
<g id="edge5" class="edge">
<title>Node6&#45;&gt;Node1</title>
<path fill="none" stroke="#9a32cd" stroke-dasharray="5,2" d="M303.58,-74.28C299.89,-66.02 294.8,-56.46 288.5,-49 282.62,-42.04 274.96,-35.72 267.68,-30.56"/>
<polygon fill="#9a32cd" stroke="#9a32cd" points="300.45,-75.88 307.49,-83.79 306.92,-73.21 300.45,-75.88"/>
<text text-anchor="middle" x="327.5" y="-52" font-family="Helvetica,sans-Serif" font-size="10.00"> indentation_</text>
</g>
<!-- Node7 -->
<g id="node7" class="node">
<title>Node7</title>
<g id="a_node7"><a xlink:title=" ">
<polygon fill="white" stroke="black" points="374.5,-84 374.5,-103 420.5,-103 420.5,-84 374.5,-84"/>
<text text-anchor="middle" x="397.5" y="-91" font-family="Helvetica,sans-Serif" font-size="10.00">char *</text>
</a>
</g>
</g>
<!-- Node7&#45;&gt;Node1 -->
<g id="edge6" class="edge">
<title>Node7&#45;&gt;Node1</title>
<path fill="none" stroke="#9a32cd" stroke-dasharray="5,2" d="M387.69,-75.13C381.77,-66.11 373.45,-55.62 363.5,-49 348.52,-39.04 330.56,-32.11 313.19,-27.31"/>
<polygon fill="#9a32cd" stroke="#9a32cd" points="384.77,-77.06 392.96,-83.78 390.75,-73.41 384.77,-77.06"/>
<text text-anchor="middle" x="396" y="-52" font-family="Helvetica,sans-Serif" font-size="10.00"> blanks_</text>
</g>
</g>
</svg>
