<?xml version="1.0" encoding="UTF-8" standalone="no"?>
<!DOCTYPE svg PUBLIC "-//W3C//DTD SVG 1.1//EN"
 "http://www.w3.org/Graphics/SVG/1.1/DTD/svg11.dtd">
<!-- Generated by graphviz version 2.43.0 (0)
 -->
<!-- Title: lyra::detail::token_iterator::pop Pages: 1 -->
<!--zoomable 110 -->
<svg id="main" version="1.1" xmlns="http://www.w3.org/2000/svg" xmlns:xlink="http://www.w3.org/1999/xlink" xml:space="preserve" onload="init(evt)">
<style type="text/css"><![CDATA[
.edge:hover path { stroke: red; }
.edge:hover polygon { stroke: red; fill: red; }
]]></style>
<script type="text/javascript"><![CDATA[
var edges = document.getElementsByTagName('g');
if (edges && edges.length) {
  for (var i=0;i<edges.length;i++) {
    if (edges[i].id.substr(0,4)=='edge') {
      edges[i].setAttribute('class','edge');
    }
  }
}
]]></script>
        <defs>
                <circle id="rim" cx="0" cy="0" r="7"/>
                <circle id="rim2" cx="0" cy="0" r="3.5"/>
                <g id="zoomPlus">
                        <use xlink:href="#rim" fill="#404040">
                                <set attributeName="fill" to="#808080" begin="zoomplus.mouseover" end="zoomplus.mouseout"/>
                        </use>
                        <path d="M-4,0h8M0,-4v8" fill="none" stroke="white" stroke-width="1.5" pointer-events="none"/>
                </g>
                <g id="zoomMin">
                        <use xlink:href="#rim" fill="#404040">
                                <set attributeName="fill" to="#808080" begin="zoomminus.mouseover" end="zoomminus.mouseout"/>
                        </use>
                        <path d="M-4,0h8" fill="none" stroke="white" stroke-width="1.5" pointer-events="none"/>
                </g>
                <g id="dirArrow">
                        <path fill="none" stroke="white" stroke-width="1.5" d="M0,-3.0v7 M-2.5,-0.5L0,-3.0L2.5,-0.5"/>
                </g>
               <g id="resetDef">
                       <use xlink:href="#rim2" fill="#404040">
                               <set attributeName="fill" to="#808080" begin="reset.mouseover" end="reset.mouseout"/>
                       </use>
               </g>
        </defs>

<script type="text/javascript">
var viewWidth = 573;
var viewHeight = 110;
var sectionId = 'dynsection-23';
</script>
<script xlink:href="svgpan.js"/>
<svg id="graph" class="graph">
<g id="viewport">
<title>lyra::detail::token_iterator::pop</title>
<polygon fill="white" stroke="transparent" points="-4,4 -4,-106 569,-106 569,4 -4,4"/>
<!-- Node1 -->
<g id="node1" class="node">
<title>Node1</title>
<g id="a_node1"><a xlink:title=" ">
<polygon fill="#bfbfbf" stroke="black" points="0,-36 0,-66 102,-66 102,-36 0,-36"/>
<text text-anchor="start" x="8" y="-54" font-family="Helvetica,sans-Serif" font-size="10.00">lyra::detail::token</text>
<text text-anchor="middle" x="51" y="-43" font-family="Helvetica,sans-Serif" font-size="10.00">_iterator::pop</text>
</a>
</g>
</g>
<!-- Node2 -->
<g id="node2" class="node">
<title>Node2</title>
<g id="a_node2"><a xlink:href="classlyra_1_1detail_1_1token__iterator.html#a368b12d3ecc2c462c24e1d8723ce5f4f" target="_top" xlink:title=" ">
<polygon fill="white" stroke="black" points="139,-60.5 139,-101.5 250,-101.5 250,-60.5 139,-60.5"/>
<text text-anchor="start" x="147" y="-89.5" font-family="Helvetica,sans-Serif" font-size="10.00">lyra::detail::token</text>
<text text-anchor="start" x="147" y="-78.5" font-family="Helvetica,sans-Serif" font-size="10.00">_iterator::has_short</text>
<text text-anchor="middle" x="194.5" y="-67.5" font-family="Helvetica,sans-Serif" font-size="10.00">_option_prefix</text>
</a>
</g>
</g>
<!-- Node1&#45;&gt;Node2 -->
<g id="edge1" class="edge">
<title>Node1&#45;&gt;Node2</title>
<path fill="none" stroke="midnightblue" d="M102.29,-61.66C110.83,-63.47 119.81,-65.38 128.66,-67.25"/>
<polygon fill="midnightblue" stroke="midnightblue" points="128.06,-70.7 138.57,-69.35 129.51,-63.86 128.06,-70.7"/>
</g>
<!-- Node5 -->
<g id="node5" class="node">
<title>Node5</title>
<g id="a_node5"><a xlink:href="classlyra_1_1detail_1_1token__iterator.html#adc46ba6c523a1633f29e0b4d5d46b591" target="_top" xlink:title=" ">
<polygon fill="white" stroke="black" points="138,-0.5 138,-41.5 251,-41.5 251,-0.5 138,-0.5"/>
<text text-anchor="start" x="146" y="-29.5" font-family="Helvetica,sans-Serif" font-size="10.00">lyra::detail::token</text>
<text text-anchor="start" x="146" y="-18.5" font-family="Helvetica,sans-Serif" font-size="10.00">_iterator::has_value</text>
<text text-anchor="middle" x="194.5" y="-7.5" font-family="Helvetica,sans-Serif" font-size="10.00">_delimiter</text>
</a>
</g>
</g>
<!-- Node1&#45;&gt;Node5 -->
<g id="edge4" class="edge">
<title>Node1&#45;&gt;Node5</title>
<path fill="none" stroke="midnightblue" d="M102.29,-40.34C110.51,-38.6 119.13,-36.77 127.66,-34.96"/>
<polygon fill="midnightblue" stroke="midnightblue" points="128.54,-38.35 137.6,-32.85 127.09,-31.5 128.54,-38.35"/>
</g>
<!-- Node3 -->
<g id="node3" class="node">
<title>Node3</title>
<g id="a_node3"><a xlink:href="classlyra_1_1detail_1_1token__iterator.html#a3f0301c7bb2bfe10f71739a26f9af219" target="_top" xlink:title=" ">
<polygon fill="white" stroke="black" points="287,-66 287,-96 405,-96 405,-66 287,-66"/>
<text text-anchor="start" x="295" y="-84" font-family="Helvetica,sans-Serif" font-size="10.00">lyra::detail::token</text>
<text text-anchor="middle" x="346" y="-73" font-family="Helvetica,sans-Serif" font-size="10.00">_iterator::is_prefixed</text>
</a>
</g>
</g>
<!-- Node2&#45;&gt;Node3 -->
<g id="edge2" class="edge">
<title>Node2&#45;&gt;Node3</title>
<path fill="none" stroke="midnightblue" d="M250.32,-81C258.88,-81 267.83,-81 276.65,-81"/>
<polygon fill="midnightblue" stroke="midnightblue" points="276.92,-84.5 286.92,-81 276.92,-77.5 276.92,-84.5"/>
</g>
<!-- Node4 -->
<g id="node4" class="node">
<title>Node4</title>
<g id="a_node4"><a xlink:href="namespace_main_namespace.html#a8104aa37d7d31758ac725060a96f07d9" target="_top" xlink:title=" ">
<polygon fill="white" stroke="black" points="441,-71.5 441,-90.5 565,-90.5 565,-71.5 441,-71.5"/>
<text text-anchor="middle" x="503" y="-78.5" font-family="Helvetica,sans-Serif" font-size="10.00">MainNamespace::size</text>
</a>
</g>
</g>
<!-- Node3&#45;&gt;Node4 -->
<g id="edge3" class="edge">
<title>Node3&#45;&gt;Node4</title>
<path fill="none" stroke="midnightblue" d="M405.16,-81C413.55,-81 422.27,-81 430.89,-81"/>
<polygon fill="midnightblue" stroke="midnightblue" points="430.93,-84.5 440.93,-81 430.93,-77.5 430.93,-84.5"/>
</g>
</g>
</svg>
        <g id="navigator" transform="translate(0 0)" fill="#404254">
                <rect fill="#f2f5e9" fill-opacity="0.5" stroke="#606060" stroke-width=".5" x="0" y="0" width="60" height="60"/>
                <use id="zoomplus" xlink:href="#zoomPlus" x="17" y="9" onmousedown="handleZoom(evt,'in')"/>
                <use id="zoomminus" xlink:href="#zoomMin" x="42" y="9" onmousedown="handleZoom(evt,'out')"/>
                <use id="reset" xlink:href="#resetDef" x="30" y="36" onmousedown="handleReset()"/>
                <g id="arrowUp" xlink:href="#dirArrow" transform="translate(30 24)" onmousedown="handlePan(0,-1)">
                  <use xlink:href="#rim" fill="#404040">
                        <set attributeName="fill" to="#808080" begin="arrowUp.mouseover" end="arrowUp.mouseout"/>
                  </use>
                  <path fill="none" stroke="white" stroke-width="1.5" d="M0,-3.0v7 M-2.5,-0.5L0,-3.0L2.5,-0.5"/>
                </g>
                <g id="arrowRight" xlink:href="#dirArrow" transform="rotate(90) translate(36 -43)" onmousedown="handlePan(1,0)">
                  <use xlink:href="#rim" fill="#404040">
                        <set attributeName="fill" to="#808080" begin="arrowRight.mouseover" end="arrowRight.mouseout"/>
                  </use>
                  <path fill="none" stroke="white" stroke-width="1.5" d="M0,-3.0v7 M-2.5,-0.5L0,-3.0L2.5,-0.5"/>
                </g>
                <g id="arrowDown" xlink:href="#dirArrow" transform="rotate(180) translate(-30 -48)" onmousedown="handlePan(0,1)">
                  <use xlink:href="#rim" fill="#404040">
                        <set attributeName="fill" to="#808080" begin="arrowDown.mouseover" end="arrowDown.mouseout"/>
                  </use>
                  <path fill="none" stroke="white" stroke-width="1.5" d="M0,-3.0v7 M-2.5,-0.5L0,-3.0L2.5,-0.5"/>
                </g>
                <g id="arrowLeft" xlink:href="#dirArrow" transform="rotate(270) translate(-36 17)" onmousedown="handlePan(-1,0)">
                  <use xlink:href="#rim" fill="#404040">
                        <set attributeName="fill" to="#808080" begin="arrowLeft.mouseover" end="arrowLeft.mouseout"/>
                  </use>
                  <path fill="none" stroke="white" stroke-width="1.5" d="M0,-3.0v7 M-2.5,-0.5L0,-3.0L2.5,-0.5"/>
                </g>
        </g>
        <svg viewBox="0 0 15 15" width="100%" height="30px" preserveAspectRatio="xMaxYMin meet">
         <g id="arrow_out" transform="scale(0.3 0.3)">
          <a xlink:href="classlyra_1_1detail_1_1token__iterator_a149c83b2738fb4aa6bffd8cec56fbcce_cgraph_org.svg" target="_base">
           <rect id="button" ry="5" rx="5" y="6" x="6" height="38" width="38"
                fill="#f2f5e9" fill-opacity="0.5" stroke="#606060" stroke-width="1.0"/>
           <path id="arrow"
             d="M 11.500037,31.436501 C 11.940474,20.09759 22.043105,11.32322 32.158766,21.979434 L 37.068811,17.246167 C 37.068811,17.246167 37.088388,32 37.088388,32 L 22.160133,31.978069 C 22.160133,31.978069 26.997745,27.140456 26.997745,27.140456 C 18.528582,18.264221 13.291696,25.230495 11.500037,31.436501 z"
             style="fill:#404040;"/>
          </a>
         </g>
        </svg>
</svg>
