<?xml version="1.0" encoding="UTF-8" standalone="no"?>
<!DOCTYPE svg PUBLIC "-//W3C//DTD SVG 1.1//EN"
 "http://www.w3.org/Graphics/SVG/1.1/DTD/svg11.dtd">
<!-- Generated by graphviz version 2.43.0 (0)
 -->
<!-- Title: MainNamespace::Surface::SingleSurface::properties Pages: 1 -->
<svg width="520pt" height="83pt"
 viewBox="0.00 0.00 520.00 83.00" xmlns="http://www.w3.org/2000/svg" xmlns:xlink="http://www.w3.org/1999/xlink">
<g id="graph0" class="graph" transform="scale(1 1) rotate(0) translate(4 79)">
<title>MainNamespace::Surface::SingleSurface::properties</title>
<polygon fill="white" stroke="transparent" points="-4,4 -4,-79 516,-79 516,4 -4,4"/>
<!-- Node1 -->
<g id="node1" class="node">
<title>Node1</title>
<g id="a_node1"><a xlink:title="Apply the Calderón operator to the &quot;solution&quot; part of source.">
<polygon fill="#bfbfbf" stroke="black" points="0,-22.5 0,-52.5 145,-52.5 145,-22.5 0,-22.5"/>
<text text-anchor="start" x="8" y="-40.5" font-family="Helvetica,sans-Serif" font-size="10.00">MainNamespace::Surface</text>
<text text-anchor="middle" x="72.5" y="-29.5" font-family="Helvetica,sans-Serif" font-size="10.00">::SingleSurface::properties</text>
</a>
</g>
</g>
<!-- Node2 -->
<g id="node2" class="node">
<title>Node2</title>
<g id="a_node2"><a xlink:href="class_main_namespace_1_1_surface_1_1_single_surface.html#ab51f55fa95a3e81416dd88ba743efa57" target="_top" xlink:title="Getter.">
<polygon fill="white" stroke="black" points="188.5,-44.5 188.5,-74.5 331.5,-74.5 331.5,-44.5 188.5,-44.5"/>
<text text-anchor="start" x="196.5" y="-62.5" font-family="Helvetica,sans-Serif" font-size="10.00">MainNamespace::Surface</text>
<text text-anchor="middle" x="260" y="-51.5" font-family="Helvetica,sans-Serif" font-size="10.00">::SingleSurface::geometry</text>
</a>
</g>
</g>
<!-- Node1&#45;&gt;Node2 -->
<g id="edge1" class="edge">
<title>Node1&#45;&gt;Node2</title>
<path fill="none" stroke="midnightblue" d="M145.22,-46.01C156.07,-47.29 167.32,-48.63 178.35,-49.93"/>
<polygon fill="midnightblue" stroke="midnightblue" points="178.05,-53.42 188.39,-51.13 178.87,-46.47 178.05,-53.42"/>
</g>
<!-- Node3 -->
<g id="node3" class="node">
<title>Node3</title>
<g id="a_node3"><a xlink:href="namespace_main_namespace_1_1_logger.html#afbb4cc2d8b498e71fcb228f0da8309a1" target="_top" xlink:title=" ">
<polygon fill="white" stroke="black" points="181,-6 181,-25 339,-25 339,-6 181,-6"/>
<text text-anchor="middle" x="260" y="-13" font-family="Helvetica,sans-Serif" font-size="10.00">MainNamespace::Logger::log</text>
</a>
</g>
</g>
<!-- Node1&#45;&gt;Node3 -->
<g id="edge2" class="edge">
<title>Node1&#45;&gt;Node3</title>
<path fill="none" stroke="midnightblue" d="M145.22,-28.99C153.57,-28 162.17,-26.98 170.71,-25.97"/>
<polygon fill="midnightblue" stroke="midnightblue" points="171.18,-29.44 180.7,-24.79 170.36,-22.49 171.18,-29.44"/>
</g>
<!-- Node4 -->
<g id="node4" class="node">
<title>Node4</title>
<g id="a_node4"><a xlink:href="namespace_main_namespace_1_1_logger.html#af052b0198f333fca77f0837a511ec7f7" target="_top" xlink:title=" ">
<polygon fill="white" stroke="black" points="375,-0.5 375,-30.5 512,-30.5 512,-0.5 375,-0.5"/>
<text text-anchor="start" x="383" y="-18.5" font-family="Helvetica,sans-Serif" font-size="10.00">MainNamespace::Logger</text>
<text text-anchor="middle" x="443.5" y="-7.5" font-family="Helvetica,sans-Serif" font-size="10.00">::forwardLog</text>
</a>
</g>
</g>
<!-- Node3&#45;&gt;Node4 -->
<g id="edge3" class="edge">
<title>Node3&#45;&gt;Node4</title>
<path fill="none" stroke="midnightblue" d="M339.03,-15.5C347.5,-15.5 356.12,-15.5 364.59,-15.5"/>
<polygon fill="midnightblue" stroke="midnightblue" points="364.82,-19 374.82,-15.5 364.82,-12 364.82,-19"/>
</g>
</g>
</svg>
