<?xml version="1.0" encoding="UTF-8" standalone="no"?>
<!DOCTYPE svg PUBLIC "-//W3C//DTD SVG 1.1//EN"
 "http://www.w3.org/Graphics/SVG/1.1/DTD/svg11.dtd">
<!-- Generated by graphviz version 2.43.0 (0)
 -->
<!-- Title: MainNamespace::Surface::SingleSurface::stabilizer Pages: 1 -->
<svg width="984pt" height="250pt"
 viewBox="0.00 0.00 984.00 250.00" xmlns="http://www.w3.org/2000/svg" xmlns:xlink="http://www.w3.org/1999/xlink">
<g id="graph0" class="graph" transform="scale(1 1) rotate(0) translate(4 246)">
<title>MainNamespace::Surface::SingleSurface::stabilizer</title>
<polygon fill="white" stroke="transparent" points="-4,4 -4,-246 980,-246 980,4 -4,4"/>
<!-- Node1 -->
<g id="node1" class="node">
<title>Node1</title>
<g id="a_node1"><a xlink:title="Getter.">
<polygon fill="#bfbfbf" stroke="black" points="835,-93.5 835,-123.5 976,-123.5 976,-93.5 835,-93.5"/>
<text text-anchor="start" x="843" y="-111.5" font-family="Helvetica,sans-Serif" font-size="10.00">MainNamespace::Surface</text>
<text text-anchor="middle" x="905.5" y="-100.5" font-family="Helvetica,sans-Serif" font-size="10.00">::SingleSurface::stabilizer</text>
</a>
</g>
</g>
<!-- Node2 -->
<g id="node2" class="node">
<title>Node2</title>
<g id="a_node2"><a xlink:href="class_main_namespace_1_1_surface_1_1_single_surface.html#a18885e3f98157c025137d7668fe65301" target="_top" xlink:title="Apply the (scaled) Calderón operator (previously constructed) to the source vector,...">
<polygon fill="white" stroke="black" points="652.5,-140.5 652.5,-170.5 793.5,-170.5 793.5,-140.5 652.5,-140.5"/>
<text text-anchor="start" x="660.5" y="-158.5" font-family="Helvetica,sans-Serif" font-size="10.00">MainNamespace::Surface</text>
<text text-anchor="middle" x="723" y="-147.5" font-family="Helvetica,sans-Serif" font-size="10.00">::SingleSurface::apply</text>
</a>
</g>
</g>
<!-- Node1&#45;&gt;Node2 -->
<g id="edge1" class="edge">
<title>Node1&#45;&gt;Node2</title>
<path fill="none" stroke="midnightblue" d="M837.2,-126.02C818.95,-130.78 799.35,-135.88 781.68,-140.48"/>
<polygon fill="midnightblue" stroke="midnightblue" points="838.1,-129.41 846.89,-123.5 836.33,-122.63 838.1,-129.41"/>
</g>
<!-- Node4 -->
<g id="node4" class="node">
<title>Node4</title>
<g id="a_node4"><a xlink:href="class_main_namespace_1_1_surface_1_1_single_surface.html#acd075e5e7ea6304b2e99e6e8aeed29db" target="_top" xlink:title="Compute the energy error norm.">
<polygon fill="white" stroke="black" points="189,-211.5 189,-241.5 405,-241.5 405,-211.5 189,-211.5"/>
<text text-anchor="start" x="197" y="-229.5" font-family="Helvetica,sans-Serif" font-size="10.00">MainNamespace::Surface</text>
<text text-anchor="middle" x="297" y="-218.5" font-family="Helvetica,sans-Serif" font-size="10.00">::SingleSurface::computeDifferenceNorm</text>
</a>
</g>
</g>
<!-- Node1&#45;&gt;Node4 -->
<g id="edge8" class="edge">
<title>Node1&#45;&gt;Node4</title>
<path fill="none" stroke="midnightblue" d="M878.71,-129.85C858.23,-145.85 828.27,-167.18 799,-180.5 672.78,-237.91 510.45,-241.81 405.33,-236.49"/>
<polygon fill="midnightblue" stroke="midnightblue" points="880.96,-132.54 886.61,-123.58 876.6,-127.06 880.96,-132.54"/>
</g>
<!-- Node9 -->
<g id="node9" class="node">
<title>Node9</title>
<g id="a_node9"><a xlink:href="class_main_namespace_1_1_surface_1_1_single_surface.html#a3321422c36eccd213cfc48823a9f54d7" target="_top" xlink:title="Project the offset on the current mesh, then use it to compute the right&#45;hand side.">
<polygon fill="white" stroke="black" points="443.5,-91.5 443.5,-121.5 608.5,-121.5 608.5,-91.5 443.5,-91.5"/>
<text text-anchor="start" x="451.5" y="-109.5" font-family="Helvetica,sans-Serif" font-size="10.00">MainNamespace::Surface</text>
<text text-anchor="middle" x="526" y="-98.5" font-family="Helvetica,sans-Serif" font-size="10.00">::SingleSurface::makeMultiRhs</text>
</a>
</g>
</g>
<!-- Node1&#45;&gt;Node9 -->
<g id="edge9" class="edge">
<title>Node1&#45;&gt;Node9</title>
<path fill="none" stroke="midnightblue" d="M824.46,-108.08C761,-107.74 672.65,-107.27 608.75,-106.93"/>
<polygon fill="midnightblue" stroke="midnightblue" points="824.8,-111.58 834.82,-108.13 824.84,-104.58 824.8,-111.58"/>
</g>
<!-- Node10 -->
<g id="node10" class="node">
<title>Node10</title>
<g id="a_node10"><a xlink:href="class_main_namespace_1_1_surface_1_1_single_surface.html#a48d60279cef854fc417ed395bc25ca15" target="_top" xlink:title="Project the offset on the current mesh.">
<polygon fill="white" stroke="black" points="647,-49.5 647,-79.5 799,-79.5 799,-49.5 647,-49.5"/>
<text text-anchor="start" x="655" y="-67.5" font-family="Helvetica,sans-Serif" font-size="10.00">MainNamespace::Surface</text>
<text text-anchor="middle" x="723" y="-56.5" font-family="Helvetica,sans-Serif" font-size="10.00">::SingleSurface::makeOffset</text>
</a>
</g>
</g>
<!-- Node1&#45;&gt;Node10 -->
<g id="edge11" class="edge">
<title>Node1&#45;&gt;Node10</title>
<path fill="none" stroke="midnightblue" d="M832.77,-91.01C817.17,-87.21 800.81,-83.22 785.64,-79.53"/>
<polygon fill="midnightblue" stroke="midnightblue" points="832.34,-94.51 842.89,-93.48 834,-87.71 832.34,-94.51"/>
</g>
<!-- Node11 -->
<g id="node11" class="node">
<title>Node11</title>
<g id="a_node11"><a xlink:href="class_main_namespace_1_1_surface_1_1_single_surface.html#a0182fa806e4fae2e2488e388249db4c1" target="_top" xlink:title="Setter for waveNumber_ and stabilizer_.">
<polygon fill="white" stroke="black" points="652.5,-0.5 652.5,-30.5 793.5,-30.5 793.5,-0.5 652.5,-0.5"/>
<text text-anchor="start" x="660.5" y="-18.5" font-family="Helvetica,sans-Serif" font-size="10.00">MainNamespace::Surface</text>
<text text-anchor="middle" x="723" y="-7.5" font-family="Helvetica,sans-Serif" font-size="10.00">::SingleSurface::stabilizer</text>
</a>
</g>
</g>
<!-- Node1&#45;&gt;Node11 -->
<g id="edge13" class="edge">
<title>Node1&#45;&gt;Node11</title>
<path fill="none" stroke="midnightblue" d="M876.57,-87.23C855.98,-72.32 826.84,-52.76 799,-39.5 792.09,-36.21 784.61,-33.21 777.15,-30.53"/>
<polygon fill="midnightblue" stroke="midnightblue" points="874.71,-90.21 884.84,-93.31 878.85,-84.56 874.71,-90.21"/>
</g>
<!-- Node3 -->
<g id="node3" class="node">
<title>Node3</title>
<g id="a_node3"><a xlink:href="namespace_main_namespace_1_1_surface.html#a3d4fd69e80b2e323edeed0442aff254a" target="_top" xlink:title=" ">
<polygon fill="white" stroke="black" points="455.5,-189.5 455.5,-219.5 596.5,-219.5 596.5,-189.5 455.5,-189.5"/>
<text text-anchor="start" x="463.5" y="-207.5" font-family="Helvetica,sans-Serif" font-size="10.00">MainNamespace::Surface</text>
<text text-anchor="middle" x="526" y="-196.5" font-family="Helvetica,sans-Serif" font-size="10.00">::energyNorm</text>
</a>
</g>
</g>
<!-- Node2&#45;&gt;Node3 -->
<g id="edge2" class="edge">
<title>Node2&#45;&gt;Node3</title>
<path fill="none" stroke="midnightblue" d="M652.45,-172.98C630.96,-178.38 607.49,-184.28 586.72,-189.49"/>
<polygon fill="midnightblue" stroke="midnightblue" points="653.32,-176.37 662.17,-170.53 651.62,-169.58 653.32,-176.37"/>
</g>
<!-- Node5 -->
<g id="node5" class="node">
<title>Node5</title>
<g id="a_node5"><a xlink:href="class_main_namespace_1_1_surface_1_1_single_surface.html#aae06e89e8298b8e0708f7e6096328f84" target="_top" xlink:title="Project the offset on the current mesh, then use it to compute the right&#45;hand side.">
<polygon fill="white" stroke="black" points="441,-140.5 441,-170.5 611,-170.5 611,-140.5 441,-140.5"/>
<text text-anchor="start" x="449" y="-158.5" font-family="Helvetica,sans-Serif" font-size="10.00">MainNamespace::Surface</text>
<text text-anchor="middle" x="526" y="-147.5" font-family="Helvetica,sans-Serif" font-size="10.00">::SingleSurface::makeSingleRhs</text>
</a>
</g>
</g>
<!-- Node2&#45;&gt;Node5 -->
<g id="edge4" class="edge">
<title>Node2&#45;&gt;Node5</title>
<path fill="none" stroke="midnightblue" d="M642.29,-155.5C632.05,-155.5 621.54,-155.5 611.23,-155.5"/>
<polygon fill="midnightblue" stroke="midnightblue" points="642.43,-159 652.43,-155.5 642.43,-152 642.43,-159"/>
</g>
<!-- Node3&#45;&gt;Node4 -->
<g id="edge3" class="edge">
<title>Node3&#45;&gt;Node4</title>
<path fill="none" stroke="midnightblue" d="M445.12,-212.24C432.18,-213.5 418.59,-214.81 405.13,-216.12"/>
<polygon fill="midnightblue" stroke="midnightblue" points="445.73,-215.7 455.35,-211.25 445.06,-208.73 445.73,-215.7"/>
</g>
<!-- Node6 -->
<g id="node6" class="node">
<title>Node6</title>
<g id="a_node6"><a xlink:href="class_main_namespace_1_1_surface_1_1_multi_surface.html#a8839f7e49575079e39fbb95a692772a5" target="_top" xlink:title="Compute the right&#45;hand side, the operators, then solve the linear system.">
<polygon fill="white" stroke="black" points="226.5,-91.5 226.5,-121.5 367.5,-121.5 367.5,-91.5 226.5,-91.5"/>
<text text-anchor="start" x="234.5" y="-109.5" font-family="Helvetica,sans-Serif" font-size="10.00">MainNamespace::Surface</text>
<text text-anchor="middle" x="297" y="-98.5" font-family="Helvetica,sans-Serif" font-size="10.00">::MultiSurface::solve</text>
</a>
</g>
</g>
<!-- Node5&#45;&gt;Node6 -->
<g id="edge5" class="edge">
<title>Node5&#45;&gt;Node6</title>
<path fill="none" stroke="midnightblue" d="M445.39,-138.31C420,-132.84 392.13,-126.82 367.52,-121.51"/>
<polygon fill="midnightblue" stroke="midnightblue" points="444.84,-141.78 455.35,-140.47 446.31,-134.93 444.84,-141.78"/>
</g>
<!-- Node7 -->
<g id="node7" class="node">
<title>Node7</title>
<g id="a_node7"><a xlink:href="main_8cpp.html#a5d68713f22d1b3e2495b15d107ea7d21" target="_top" xlink:title=" ">
<polygon fill="white" stroke="black" points="77,-97 77,-116 153,-116 153,-97 77,-97"/>
<text text-anchor="middle" x="115" y="-104" font-family="Helvetica,sans-Serif" font-size="10.00">testProblem</text>
</a>
</g>
</g>
<!-- Node6&#45;&gt;Node7 -->
<g id="edge6" class="edge">
<title>Node6&#45;&gt;Node7</title>
<path fill="none" stroke="midnightblue" d="M216.38,-106.5C194.38,-106.5 171.54,-106.5 153.21,-106.5"/>
<polygon fill="midnightblue" stroke="midnightblue" points="216.41,-110 226.41,-106.5 216.41,-103 216.41,-110"/>
</g>
<!-- Node8 -->
<g id="node8" class="node">
<title>Node8</title>
<g id="a_node8"><a xlink:href="main_8cpp.html#a3c04138a5bfe5d72780bb7e82a18e627" target="_top" xlink:title=" ">
<polygon fill="white" stroke="black" points="0,-97 0,-116 41,-116 41,-97 0,-97"/>
<text text-anchor="middle" x="20.5" y="-104" font-family="Helvetica,sans-Serif" font-size="10.00">main</text>
</a>
</g>
</g>
<!-- Node7&#45;&gt;Node8 -->
<g id="edge7" class="edge">
<title>Node7&#45;&gt;Node8</title>
<path fill="none" stroke="midnightblue" d="M66.72,-106.5C57.65,-106.5 48.64,-106.5 41.07,-106.5"/>
<polygon fill="midnightblue" stroke="midnightblue" points="66.91,-110 76.91,-106.5 66.91,-103 66.91,-110"/>
</g>
<!-- Node9&#45;&gt;Node6 -->
<g id="edge10" class="edge">
<title>Node9&#45;&gt;Node6</title>
<path fill="none" stroke="midnightblue" d="M433.09,-106.5C411.26,-106.5 388.32,-106.5 367.67,-106.5"/>
<polygon fill="midnightblue" stroke="midnightblue" points="433.37,-110 443.37,-106.5 433.37,-103 433.37,-110"/>
</g>
<!-- Node10&#45;&gt;Node6 -->
<g id="edge12" class="edge">
<title>Node10&#45;&gt;Node6</title>
<path fill="none" stroke="midnightblue" d="M636.76,-67.16C580.93,-69.52 506.46,-73.82 441,-81.5 416.97,-84.32 390.85,-88.54 367.59,-92.71"/>
<polygon fill="midnightblue" stroke="midnightblue" points="637.11,-70.65 646.96,-66.74 636.82,-63.65 637.11,-70.65"/>
</g>
</g>
</svg>
