<?xml version="1.0" encoding="UTF-8" standalone="no"?>
<!DOCTYPE svg PUBLIC "-//W3C//DTD SVG 1.1//EN"
 "http://www.w3.org/Graphics/SVG/1.1/DTD/svg11.dtd">
<!-- Generated by graphviz version 2.43.0 (0)
 -->
<!-- Title: MainNamespace::PointerArray&lt; BaseValues, length, ActualValue &gt; Pages: 1 -->
<svg width="205pt" height="163pt"
 viewBox="0.00 0.00 205.00 163.00" xmlns="http://www.w3.org/2000/svg" xmlns:xlink="http://www.w3.org/1999/xlink">
<g id="graph0" class="graph" transform="scale(1 1) rotate(0) translate(4 159)">
<title>MainNamespace::PointerArray&lt; BaseValues, length, ActualValue &gt;</title>
<polygon fill="white" stroke="transparent" points="-4,4 -4,-159 201,-159 201,4 -4,4"/>
<!-- Node1 -->
<g id="node1" class="node">
<title>Node1</title>
<g id="a_node1"><a xlink:title=" ">
<polygon fill="#bfbfbf" stroke="black" points="0,-0.5 0,-30.5 197,-30.5 197,-0.5 0,-0.5"/>
<text text-anchor="start" x="8" y="-18.5" font-family="Helvetica,sans-Serif" font-size="10.00">MainNamespace::PointerArray</text>
<text text-anchor="middle" x="98.5" y="-7.5" font-family="Helvetica,sans-Serif" font-size="10.00">&lt; BaseValues, length, ActualValue &gt;</text>
</a>
</g>
</g>
<!-- Node2 -->
<g id="node2" class="node">
<title>Node2</title>
<g id="a_node2"><a xlink:title=" ">
<polygon fill="white" stroke="black" points="52.5,-68.5 52.5,-87.5 144.5,-87.5 144.5,-68.5 52.5,-68.5"/>
<text text-anchor="middle" x="98.5" y="-75.5" font-family="Helvetica,sans-Serif" font-size="10.00">std::array&lt; T &gt;</text>
</a>
</g>
</g>
<!-- Node2&#45;&gt;Node1 -->
<g id="edge1" class="edge">
<title>Node2&#45;&gt;Node1</title>
<path fill="none" stroke="midnightblue" d="M98.5,-58.22C98.5,-49.36 98.5,-38.96 98.5,-30.76"/>
<polygon fill="midnightblue" stroke="midnightblue" points="95,-58.33 98.5,-68.33 102,-58.33 95,-58.33"/>
</g>
<!-- Node3 -->
<g id="node3" class="node">
<title>Node3</title>
<g id="a_node3"><a xlink:title=" ">
<polygon fill="white" stroke="black" points="84,-135.5 84,-154.5 113,-154.5 113,-135.5 84,-135.5"/>
<text text-anchor="middle" x="98.5" y="-142.5" font-family="Helvetica,sans-Serif" font-size="10.00">T</text>
</a>
</g>
</g>
<!-- Node3&#45;&gt;Node2 -->
<g id="edge2" class="edge">
<title>Node3&#45;&gt;Node2</title>
<path fill="none" stroke="#9a32cd" stroke-dasharray="5,2" d="M98.5,-125.04C98.5,-112.67 98.5,-97.12 98.5,-87.63"/>
<polygon fill="#9a32cd" stroke="#9a32cd" points="95,-125.23 98.5,-135.23 102,-125.23 95,-125.23"/>
<text text-anchor="middle" x="123" y="-109" font-family="Helvetica,sans-Serif" font-size="10.00"> elements</text>
</g>
</g>
</svg>
