<?xml version="1.0" encoding="UTF-8" standalone="no"?>
<!DOCTYPE svg PUBLIC "-//W3C//DTD SVG 1.1//EN"
 "http://www.w3.org/Graphics/SVG/1.1/DTD/svg11.dtd">
<!-- Generated by graphviz version 2.43.0 (0)
 -->
<!-- Title: lyra::help Pages: 1 -->
<svg width="1305pt" height="423pt"
 viewBox="0.00 0.00 1305.00 423.14" xmlns="http://www.w3.org/2000/svg" xmlns:xlink="http://www.w3.org/1999/xlink">
<g id="graph0" class="graph" transform="scale(1 1) rotate(0) translate(4 419.14)">
<title>lyra::help</title>
<polygon fill="white" stroke="transparent" points="-4,4 -4,-419.14 1301,-419.14 1301,4 -4,4"/>
<!-- Node1 -->
<g id="node1" class="node">
<title>Node1</title>
<g id="a_node1"><a xlink:title=" ">
<polygon fill="#bfbfbf" stroke="black" points="1235,-63 1235,-82 1297,-82 1297,-63 1235,-63"/>
<text text-anchor="middle" x="1266" y="-70" font-family="Helvetica,sans-Serif" font-size="10.00">lyra::help</text>
</a>
</g>
</g>
<!-- Node2 -->
<g id="node2" class="node">
<title>Node2</title>
<g id="a_node2"><a xlink:href="classlyra_1_1opt.html" target="_top" xlink:title=" ">
<polygon fill="white" stroke="black" points="1141,-63 1141,-82 1198,-82 1198,-63 1141,-63"/>
<text text-anchor="middle" x="1169.5" y="-70" font-family="Helvetica,sans-Serif" font-size="10.00">lyra::opt</text>
</a>
</g>
</g>
<!-- Node2&#45;&gt;Node1 -->
<g id="edge1" class="edge">
<title>Node2&#45;&gt;Node1</title>
<path fill="none" stroke="midnightblue" d="M1208.21,-65.87C1217.08,-65.64 1226.41,-65.74 1234.9,-66.16"/>
<polygon fill="midnightblue" stroke="midnightblue" points="1207.93,-62.38 1198.09,-66.3 1208.23,-69.38 1207.93,-62.38"/>
</g>
<!-- Node2&#45;&gt;Node1 -->
<g id="edge37" class="edge">
<title>Node2&#45;&gt;Node1</title>
<path fill="none" stroke="midnightblue" d="M1208.21,-79.13C1217.08,-79.36 1226.41,-79.26 1234.9,-78.84"/>
<polygon fill="midnightblue" stroke="midnightblue" points="1208.23,-75.62 1198.09,-78.7 1207.93,-82.62 1208.23,-75.62"/>
</g>
<!-- Node3 -->
<g id="node3" class="node">
<title>Node3</title>
<g id="a_node3"><a xlink:href="classlyra_1_1bound__parser.html" target="_top" xlink:title=" ">
<polygon fill="white" stroke="black" points="997,-182.5 997,-212.5 1104,-212.5 1104,-182.5 997,-182.5"/>
<text text-anchor="start" x="1005" y="-200.5" font-family="Helvetica,sans-Serif" font-size="10.00">lyra::bound_parser</text>
<text text-anchor="middle" x="1050.5" y="-189.5" font-family="Helvetica,sans-Serif" font-size="10.00">&lt; opt &gt;</text>
</a>
</g>
</g>
<!-- Node3&#45;&gt;Node2 -->
<g id="edge2" class="edge">
<title>Node3&#45;&gt;Node2</title>
<path fill="none" stroke="midnightblue" d="M1068.53,-174.37C1092,-146.74 1133.78,-102.25 1155.13,-82.3"/>
<polygon fill="midnightblue" stroke="midnightblue" points="1065.59,-172.44 1061.88,-182.36 1070.97,-176.91 1065.59,-172.44"/>
</g>
<!-- Node3&#45;&gt;Node2 -->
<g id="edge32" class="edge">
<title>Node3&#45;&gt;Node2</title>
<path fill="none" stroke="midnightblue" d="M1077.97,-174.98C1105.67,-147.3 1147.22,-102.05 1162.55,-82.05"/>
<polygon fill="midnightblue" stroke="midnightblue" points="1075.22,-172.77 1070.56,-182.28 1080.14,-177.75 1075.22,-172.77"/>
</g>
<!-- Node4 -->
<g id="node4" class="node">
<title>Node4</title>
<g id="a_node4"><a xlink:href="classlyra_1_1composable__parser.html" target="_top" xlink:title=" ">
<polygon fill="white" stroke="black" points="780.5,-381.5 780.5,-411.5 917.5,-411.5 917.5,-381.5 780.5,-381.5"/>
<text text-anchor="start" x="788.5" y="-399.5" font-family="Helvetica,sans-Serif" font-size="10.00">lyra::composable_parser</text>
<text text-anchor="middle" x="849" y="-388.5" font-family="Helvetica,sans-Serif" font-size="10.00">&lt; opt &gt;</text>
</a>
</g>
</g>
<!-- Node4&#45;&gt;Node3 -->
<g id="edge3" class="edge">
<title>Node4&#45;&gt;Node3</title>
<path fill="none" stroke="midnightblue" d="M927.68,-381.3C946.1,-376.35 964.57,-368.77 979,-356.5 1024.54,-317.77 1041.27,-244.66 1046.9,-212.66"/>
<polygon fill="midnightblue" stroke="midnightblue" points="926.66,-377.94 917.78,-383.72 928.32,-384.74 926.66,-377.94"/>
</g>
<!-- Node4&#45;&gt;Node3 -->
<g id="edge9" class="edge">
<title>Node4&#45;&gt;Node3</title>
<path fill="none" stroke="midnightblue" d="M927.68,-398.7C946.1,-394.35 964.57,-386.77 979,-374.5 1029.12,-331.88 1044.34,-247.61 1048.28,-212.68"/>
<polygon fill="midnightblue" stroke="midnightblue" points="926.86,-395.29 917.78,-400.74 928.28,-402.15 926.86,-395.29"/>
</g>
<!-- Node5 -->
<g id="node5" class="node">
<title>Node5</title>
<g id="a_node5"><a xlink:href="classlyra_1_1parser.html" target="_top" xlink:title=" ">
<polygon fill="white" stroke="black" points="259,-360 259,-379 331,-379 331,-360 259,-360"/>
<text text-anchor="middle" x="295" y="-367" font-family="Helvetica,sans-Serif" font-size="10.00">lyra::parser</text>
</a>
</g>
</g>
<!-- Node5&#45;&gt;Node4 -->
<g id="edge4" class="edge">
<title>Node5&#45;&gt;Node4</title>
<path fill="none" stroke="midnightblue" d="M341.08,-374.96C354.44,-378.16 369.19,-381.54 383,-383.5 523.08,-403.34 689.29,-397.89 780.2,-395.37"/>
<polygon fill="midnightblue" stroke="midnightblue" points="341.71,-371.51 331.17,-372.57 340.07,-378.31 341.71,-371.51"/>
</g>
<!-- Node5&#45;&gt;Node4 -->
<g id="edge5" class="edge">
<title>Node5&#45;&gt;Node4</title>
<path fill="none" stroke="midnightblue" d="M316.01,-383.37C333.47,-390.75 359.6,-398.19 383,-401.5 523.08,-421.34 689.29,-415.89 780.2,-407.59"/>
<polygon fill="midnightblue" stroke="midnightblue" points="317.36,-380.14 306.82,-379.06 314.39,-386.48 317.36,-380.14"/>
</g>
<!-- Node6 -->
<g id="node6" class="node">
<title>Node6</title>
<g id="a_node6"><a xlink:href="classlyra_1_1composable__parser.html" target="_top" xlink:title=" ">
<polygon fill="white" stroke="black" points="533,-354.5 533,-384.5 670,-384.5 670,-354.5 533,-354.5"/>
<text text-anchor="start" x="541" y="-372.5" font-family="Helvetica,sans-Serif" font-size="10.00">lyra::composable_parser</text>
<text text-anchor="middle" x="601.5" y="-361.5" font-family="Helvetica,sans-Serif" font-size="10.00">&lt; Derived &gt;</text>
</a>
</g>
</g>
<!-- Node5&#45;&gt;Node6 -->
<g id="edge7" class="edge">
<title>Node5&#45;&gt;Node6</title>
<path fill="none" stroke="midnightblue" d="M341.22,-364.53C391.89,-362.44 474.54,-362.19 532.89,-363.78"/>
<polygon fill="midnightblue" stroke="midnightblue" points="341.06,-361.04 331.23,-364.99 341.38,-368.03 341.06,-361.04"/>
</g>
<!-- Node5&#45;&gt;Node6 -->
<g id="edge8" class="edge">
<title>Node5&#45;&gt;Node6</title>
<path fill="none" stroke="midnightblue" d="M341.22,-374.47C391.89,-376.56 474.54,-376.81 532.89,-375.22"/>
<polygon fill="midnightblue" stroke="midnightblue" points="341.38,-370.97 331.23,-374.01 341.06,-377.96 341.38,-370.97"/>
</g>
<!-- Node19 -->
<g id="node19" class="node">
<title>Node19</title>
<g id="a_node19"><a xlink:href="classlyra_1_1composable__parser.html" target="_top" xlink:title=" ">
<polygon fill="white" stroke="black" points="533,-305.5 533,-335.5 670,-335.5 670,-305.5 533,-305.5"/>
<text text-anchor="start" x="541" y="-323.5" font-family="Helvetica,sans-Serif" font-size="10.00">lyra::composable_parser</text>
<text text-anchor="middle" x="601.5" y="-312.5" font-family="Helvetica,sans-Serif" font-size="10.00">&lt; Derived &gt;</text>
</a>
</g>
</g>
<!-- Node5&#45;&gt;Node19 -->
<g id="edge25" class="edge">
<title>Node5&#45;&gt;Node19</title>
<path fill="none" stroke="midnightblue" d="M338.2,-357.87C388.55,-347.56 473.41,-333.61 532.94,-325.65"/>
<polygon fill="midnightblue" stroke="midnightblue" points="337.37,-354.47 328.3,-359.95 338.8,-361.32 337.37,-354.47"/>
</g>
<!-- Node5&#45;&gt;Node19 -->
<g id="edge26" class="edge">
<title>Node5&#45;&gt;Node19</title>
<path fill="none" stroke="midnightblue" d="M341.36,-367.17C394.45,-360.82 482.54,-346.81 541.06,-335.55"/>
<polygon fill="midnightblue" stroke="midnightblue" points="340.76,-363.72 331.23,-368.34 341.56,-370.67 340.76,-363.72"/>
</g>
<!-- Node6&#45;&gt;Node4 -->
<g id="edge6" class="edge">
<title>Node6&#45;&gt;Node4</title>
<path fill="none" stroke="orange" stroke-dasharray="5,2" d="M680.49,-378.08C712.63,-381.61 749.52,-385.67 780.49,-389.07"/>
<polygon fill="orange" stroke="orange" points="680.56,-374.56 670.23,-376.95 679.79,-381.52 680.56,-374.56"/>
<text text-anchor="middle" x="724.5" y="-388.5" font-family="Helvetica,sans-Serif" font-size="10.00"> &lt; opt &gt;</text>
</g>
<!-- Node7 -->
<g id="node7" class="node">
<title>Node7</title>
<g id="a_node7"><a xlink:title=" ">
<polygon fill="white" stroke="black" points="542,-256.5 542,-286.5 661,-286.5 661,-256.5 542,-256.5"/>
<text text-anchor="start" x="550" y="-274.5" font-family="Helvetica,sans-Serif" font-size="10.00">std::shared_ptr&lt; lyra</text>
<text text-anchor="middle" x="601.5" y="-263.5" font-family="Helvetica,sans-Serif" font-size="10.00">::detail::BoundRef &gt;</text>
</a>
</g>
</g>
<!-- Node7&#45;&gt;Node3 -->
<g id="edge10" class="edge">
<title>Node7&#45;&gt;Node3</title>
<path fill="none" stroke="#9a32cd" stroke-dasharray="5,2" d="M671.1,-272.91C748.14,-272.44 875.88,-265.46 979,-229.5 992.58,-224.76 1007.12,-218.4 1019.45,-212.59"/>
<polygon fill="#9a32cd" stroke="#9a32cd" points="671.02,-269.41 661.03,-272.93 671.04,-276.41 671.02,-269.41"/>
<text text-anchor="middle" x="849" y="-270.5" font-family="Helvetica,sans-Serif" font-size="10.00"> m_ref</text>
</g>
<!-- Node18 -->
<g id="node18" class="node">
<title>Node18</title>
<g id="a_node18"><a xlink:href="classlyra_1_1bound__parser.html" target="_top" xlink:title=" ">
<polygon fill="white" stroke="black" points="795.5,-182.5 795.5,-212.5 902.5,-212.5 902.5,-182.5 795.5,-182.5"/>
<text text-anchor="start" x="803.5" y="-200.5" font-family="Helvetica,sans-Serif" font-size="10.00">lyra::bound_parser</text>
<text text-anchor="middle" x="849" y="-189.5" font-family="Helvetica,sans-Serif" font-size="10.00">&lt; Derived &gt;</text>
</a>
</g>
</g>
<!-- Node7&#45;&gt;Node18 -->
<g id="edge28" class="edge">
<title>Node7&#45;&gt;Node18</title>
<path fill="none" stroke="#9a32cd" stroke-dasharray="5,2" d="M663.67,-253.56C693.12,-244.87 728.92,-234.23 761,-224.5 773.56,-220.69 787.12,-216.51 799.71,-212.6"/>
<polygon fill="#9a32cd" stroke="#9a32cd" points="662.55,-250.24 653.94,-256.42 664.53,-256.95 662.55,-250.24"/>
<text text-anchor="middle" x="724.5" y="-247.5" font-family="Helvetica,sans-Serif" font-size="10.00"> m_ref</text>
</g>
<!-- Node8 -->
<g id="node8" class="node">
<title>Node8</title>
<g id="a_node8"><a xlink:href="structlyra_1_1detail_1_1_bound_ref.html" target="_top" xlink:title=" ">
<polygon fill="white" stroke="black" points="234,-282 234,-301 356,-301 356,-282 234,-282"/>
<text text-anchor="middle" x="295" y="-289" font-family="Helvetica,sans-Serif" font-size="10.00">lyra::detail::BoundRef</text>
</a>
</g>
</g>
<!-- Node8&#45;&gt;Node7 -->
<g id="edge11" class="edge">
<title>Node8&#45;&gt;Node7</title>
<path fill="none" stroke="#9a32cd" stroke-dasharray="5,2" d="M366.19,-286.89C419.38,-283.4 491.61,-278.65 541.76,-275.36"/>
<polygon fill="#9a32cd" stroke="#9a32cd" points="365.91,-283.4 356.16,-287.55 366.37,-290.39 365.91,-283.4"/>
<text text-anchor="middle" x="449" y="-288.5" font-family="Helvetica,sans-Serif" font-size="10.00"> ptr</text>
</g>
<!-- Node9 -->
<g id="node9" class="node">
<title>Node9</title>
<g id="a_node9"><a xlink:href="structlyra_1_1detail_1_1_non_copyable.html" target="_top" xlink:title=" ">
<polygon fill="white" stroke="black" points="0,-282 0,-301 140,-301 140,-282 0,-282"/>
<text text-anchor="middle" x="70" y="-289" font-family="Helvetica,sans-Serif" font-size="10.00">lyra::detail::NonCopyable</text>
</a>
</g>
</g>
<!-- Node9&#45;&gt;Node8 -->
<g id="edge12" class="edge">
<title>Node9&#45;&gt;Node8</title>
<path fill="none" stroke="midnightblue" d="M150.05,-285.01C177.66,-284.56 208.16,-284.7 233.96,-285.43"/>
<polygon fill="midnightblue" stroke="midnightblue" points="149.96,-281.51 140.03,-285.21 150.1,-288.51 149.96,-281.51"/>
</g>
<!-- Node9&#45;&gt;Node8 -->
<g id="edge13" class="edge">
<title>Node9&#45;&gt;Node8</title>
<path fill="none" stroke="midnightblue" d="M150.05,-297.99C177.66,-298.44 208.16,-298.3 233.96,-297.57"/>
<polygon fill="midnightblue" stroke="midnightblue" points="150.1,-294.49 140.03,-297.79 149.96,-301.49 150.1,-294.49"/>
</g>
<!-- Node10 -->
<g id="node10" class="node">
<title>Node10</title>
<g id="a_node10"><a xlink:title=" ">
<polygon fill="white" stroke="black" points="236,-205 236,-224 354,-224 354,-205 236,-205"/>
<text text-anchor="middle" x="295" y="-212" font-family="Helvetica,sans-Serif" font-size="10.00">std::shared_ptr&lt; T &gt;</text>
</a>
</g>
</g>
<!-- Node10&#45;&gt;Node7 -->
<g id="edge14" class="edge">
<title>Node10&#45;&gt;Node7</title>
<path fill="none" stroke="orange" stroke-dasharray="5,2" d="M343.17,-226.55C356.05,-229.66 370.02,-232.86 383,-235.5 436.45,-246.36 497.79,-256.28 541.67,-262.95"/>
<polygon fill="orange" stroke="orange" points="343.67,-223.07 333.12,-224.09 342.01,-229.87 343.67,-223.07"/>
<text text-anchor="middle" x="449" y="-260.5" font-family="Helvetica,sans-Serif" font-size="10.00"> &lt; lyra::detail::BoundRef &gt;</text>
</g>
<!-- Node16 -->
<g id="node16" class="node">
<title>Node16</title>
<g id="a_node16"><a xlink:title=" ">
<polygon fill="white" stroke="black" points="535,-202.5 535,-232.5 668,-232.5 668,-202.5 535,-202.5"/>
<text text-anchor="start" x="543" y="-220.5" font-family="Helvetica,sans-Serif" font-size="10.00">std::shared_ptr&lt; lyra</text>
<text text-anchor="middle" x="601.5" y="-209.5" font-family="Helvetica,sans-Serif" font-size="10.00">::detail::choices_base &gt;</text>
</a>
</g>
</g>
<!-- Node10&#45;&gt;Node16 -->
<g id="edge22" class="edge">
<title>Node10&#45;&gt;Node16</title>
<path fill="none" stroke="orange" stroke-dasharray="5,2" d="M364.22,-213.21C407.44,-212.63 464.5,-212.32 515,-213.5 521.39,-213.65 528.04,-213.86 534.69,-214.11"/>
<polygon fill="orange" stroke="orange" points="364.06,-209.71 354.11,-213.35 364.15,-216.71 364.06,-209.71"/>
<text text-anchor="start" x="394" y="-227.5" font-family="Helvetica,sans-Serif" font-size="10.00"> &lt; lyra::detail::choices</text>
<text text-anchor="middle" x="449" y="-216.5" font-family="Helvetica,sans-Serif" font-size="10.00">_base &gt;</text>
</g>
<!-- Node11 -->
<g id="node11" class="node">
<title>Node11</title>
<g id="a_node11"><a xlink:title=" ">
<polygon fill="white" stroke="black" points="55.5,-95 55.5,-114 84.5,-114 84.5,-95 55.5,-95"/>
<text text-anchor="middle" x="70" y="-102" font-family="Helvetica,sans-Serif" font-size="10.00">T</text>
</a>
</g>
</g>
<!-- Node11&#45;&gt;Node10 -->
<g id="edge15" class="edge">
<title>Node11&#45;&gt;Node10</title>
<path fill="none" stroke="#9a32cd" stroke-dasharray="5,2" d="M92.89,-119.98C121.89,-139.88 175.21,-174.38 225,-195.5 233.69,-199.19 243.31,-202.36 252.53,-205"/>
<polygon fill="#9a32cd" stroke="#9a32cd" points="94.58,-116.89 84.36,-114.07 90.59,-122.64 94.58,-116.89"/>
<text text-anchor="middle" x="182.5" y="-187.5" font-family="Helvetica,sans-Serif" font-size="10.00"> ptr</text>
</g>
<!-- Node21 -->
<g id="node21" class="node">
<title>Node21</title>
<g id="a_node21"><a xlink:title=" ">
<polygon fill="white" stroke="black" points="400.5,-65 400.5,-84 497.5,-84 497.5,-65 400.5,-65"/>
<text text-anchor="middle" x="449" y="-72" font-family="Helvetica,sans-Serif" font-size="10.00">std::vector&lt; T &gt;</text>
</a>
</g>
</g>
<!-- Node11&#45;&gt;Node21 -->
<g id="edge36" class="edge">
<title>Node11&#45;&gt;Node21</title>
<path fill="none" stroke="#9a32cd" stroke-dasharray="5,2" d="M95.09,-102.58C156.4,-97.7 319.23,-84.75 400.49,-78.28"/>
<polygon fill="#9a32cd" stroke="#9a32cd" points="94.56,-99.11 84.86,-103.4 95.11,-106.09 94.56,-99.11"/>
<text text-anchor="middle" x="182.5" y="-100.5" font-family="Helvetica,sans-Serif" font-size="10.00"> elements</text>
</g>
<!-- Node12 -->
<g id="node12" class="node">
<title>Node12</title>
<g id="a_node12"><a xlink:title=" ">
<polygon fill="white" stroke="black" points="569,-6 569,-25 634,-25 634,-6 569,-6"/>
<text text-anchor="middle" x="601.5" y="-13" font-family="Helvetica,sans-Serif" font-size="10.00">std::string</text>
</a>
</g>
</g>
<!-- Node12&#45;&gt;Node1 -->
<g id="edge38" class="edge">
<title>Node12&#45;&gt;Node1</title>
<path fill="none" stroke="#9a32cd" stroke-dasharray="5,2" d="M644.43,-11.93C693.28,-8.08 776.43,-2.5 848,-2.5 848,-2.5 848,-2.5 1170.5,-2.5 1210.52,-2.5 1244.65,-43.53 1258.45,-62.77"/>
<polygon fill="#9a32cd" stroke="#9a32cd" points="643.94,-8.45 634.25,-12.74 644.5,-15.43 643.94,-8.45"/>
<text text-anchor="middle" x="1050.5" y="-5.5" font-family="Helvetica,sans-Serif" font-size="10.00"> description_text</text>
</g>
<!-- Node12&#45;&gt;Node3 -->
<g id="edge16" class="edge">
<title>Node12&#45;&gt;Node3</title>
<path fill="none" stroke="#9a32cd" stroke-dasharray="5,2" d="M636.31,-28.77C651.91,-34.62 670.75,-41.34 688,-46.5 789.11,-76.76 823.25,-57.12 919,-101.5 964.68,-122.67 1010.28,-161.17 1033.58,-182.42"/>
<polygon fill="#9a32cd" stroke="#9a32cd" points="637.17,-25.35 626.58,-25.06 634.68,-31.89 637.17,-25.35"/>
<text text-anchor="middle" x="849" y="-115.5" font-family="Helvetica,sans-Serif" font-size="10.00"> m_description</text>
<text text-anchor="middle" x="849" y="-104.5" font-family="Helvetica,sans-Serif" font-size="10.00">m_hint</text>
</g>
<!-- Node12&#45;&gt;Node18 -->
<g id="edge29" class="edge">
<title>Node12&#45;&gt;Node18</title>
<path fill="none" stroke="#9a32cd" stroke-dasharray="5,2" d="M643.77,-23.36C653.43,-26.91 662.95,-32.05 670,-39.5 689.43,-60.03 670.38,-78.4 688,-100.5 711.2,-129.6 731.34,-119.02 761,-141.5 770.02,-148.33 769.96,-152.7 779,-159.5 790.48,-168.13 804.15,-176.07 816.28,-182.44"/>
<polygon fill="#9a32cd" stroke="#9a32cd" points="644.73,-20 634.14,-20.32 642.62,-26.67 644.73,-20"/>
<text text-anchor="middle" x="724.5" y="-155.5" font-family="Helvetica,sans-Serif" font-size="10.00"> m_description</text>
<text text-anchor="middle" x="724.5" y="-144.5" font-family="Helvetica,sans-Serif" font-size="10.00">m_hint</text>
</g>
<!-- Node20 -->
<g id="node20" class="node">
<title>Node20</title>
<g id="a_node20"><a xlink:title=" ">
<polygon fill="white" stroke="black" points="779,-31 779,-50 919,-50 919,-31 779,-31"/>
<text text-anchor="middle" x="849" y="-38" font-family="Helvetica,sans-Serif" font-size="10.00">std::vector&lt; std::string &gt;</text>
</a>
</g>
</g>
<!-- Node12&#45;&gt;Node20 -->
<g id="edge34" class="edge">
<title>Node12&#45;&gt;Node20</title>
<path fill="none" stroke="#9a32cd" stroke-dasharray="5,2" d="M644.47,-19.77C681.31,-23.53 735.63,-29.06 778.89,-33.46"/>
<polygon fill="#9a32cd" stroke="#9a32cd" points="644.4,-16.25 634.09,-18.72 643.69,-23.21 644.4,-16.25"/>
<text text-anchor="middle" x="724.5" y="-34.5" font-family="Helvetica,sans-Serif" font-size="10.00"> elements</text>
</g>
<!-- Node13 -->
<g id="node13" class="node">
<title>Node13</title>
<g id="a_node13"><a xlink:title=" ">
<polygon fill="white" stroke="black" points="243,-0.5 243,-30.5 347,-30.5 347,-0.5 243,-0.5"/>
<text text-anchor="start" x="251" y="-18.5" font-family="Helvetica,sans-Serif" font-size="10.00">std::basic_string&lt;</text>
<text text-anchor="middle" x="295" y="-7.5" font-family="Helvetica,sans-Serif" font-size="10.00"> Char &gt;</text>
</a>
</g>
</g>
<!-- Node13&#45;&gt;Node12 -->
<g id="edge17" class="edge">
<title>Node13&#45;&gt;Node12</title>
<path fill="none" stroke="midnightblue" d="M357.65,-15.5C421.51,-15.5 518.79,-15.5 568.63,-15.5"/>
<polygon fill="midnightblue" stroke="midnightblue" points="357.31,-12 347.31,-15.5 357.31,-19 357.31,-12"/>
</g>
<!-- Node14 -->
<g id="node14" class="node">
<title>Node14</title>
<g id="a_node14"><a xlink:href="structlyra_1_1detail_1_1parser__cardinality.html" target="_top" xlink:title=" ">
<polygon fill="white" stroke="black" points="548.5,-106.5 548.5,-136.5 654.5,-136.5 654.5,-106.5 548.5,-106.5"/>
<text text-anchor="start" x="556.5" y="-124.5" font-family="Helvetica,sans-Serif" font-size="10.00">lyra::detail::parser</text>
<text text-anchor="middle" x="601.5" y="-113.5" font-family="Helvetica,sans-Serif" font-size="10.00">_cardinality</text>
</a>
</g>
</g>
<!-- Node14&#45;&gt;Node3 -->
<g id="edge18" class="edge">
<title>Node14&#45;&gt;Node3</title>
<path fill="none" stroke="#9a32cd" stroke-dasharray="5,2" d="M664.91,-120.14C694.19,-120.25 729.49,-121.46 761,-125.5 832.54,-134.68 849.05,-144.93 919,-162.5 944.71,-168.96 973.15,-176.53 996.9,-182.98"/>
<polygon fill="#9a32cd" stroke="#9a32cd" points="664.82,-116.64 654.82,-120.14 664.82,-123.64 664.82,-116.64"/>
<text text-anchor="middle" x="849" y="-165.5" font-family="Helvetica,sans-Serif" font-size="10.00"> m_cardinality</text>
</g>
<!-- Node14&#45;&gt;Node18 -->
<g id="edge30" class="edge">
<title>Node14&#45;&gt;Node18</title>
<path fill="none" stroke="#9a32cd" stroke-dasharray="5,2" d="M634.62,-141.84C650.21,-150.9 669.53,-160.98 688,-167.5 722.78,-179.78 763.68,-187.34 795.42,-191.79"/>
<polygon fill="#9a32cd" stroke="#9a32cd" points="636.29,-138.76 625.91,-136.65 632.71,-144.77 636.29,-138.76"/>
<text text-anchor="middle" x="724.5" y="-187.5" font-family="Helvetica,sans-Serif" font-size="10.00"> m_cardinality</text>
</g>
<!-- Node15 -->
<g id="node15" class="node">
<title>Node15</title>
<g id="a_node15"><a xlink:title=" ">
<polygon fill="white" stroke="black" points="272.5,-112 272.5,-131 317.5,-131 317.5,-112 272.5,-112"/>
<text text-anchor="middle" x="295" y="-119" font-family="Helvetica,sans-Serif" font-size="10.00">size_t</text>
</a>
</g>
</g>
<!-- Node15&#45;&gt;Node14 -->
<g id="edge19" class="edge">
<title>Node15&#45;&gt;Node14</title>
<path fill="none" stroke="#9a32cd" stroke-dasharray="5,2" d="M327.96,-121.5C380.4,-121.5 485.17,-121.5 548.44,-121.5"/>
<polygon fill="#9a32cd" stroke="#9a32cd" points="327.9,-118 317.9,-121.5 327.9,-125 327.9,-118"/>
<text text-anchor="middle" x="449" y="-135.5" font-family="Helvetica,sans-Serif" font-size="10.00"> maximum</text>
<text text-anchor="middle" x="449" y="-124.5" font-family="Helvetica,sans-Serif" font-size="10.00">minimum</text>
</g>
<!-- Node16&#45;&gt;Node3 -->
<g id="edge20" class="edge">
<title>Node16&#45;&gt;Node3</title>
<path fill="none" stroke="#9a32cd" stroke-dasharray="5,2" d="M678.55,-224.05C681.74,-224.22 684.9,-224.37 688,-224.5 817.34,-229.79 851.82,-236.62 979,-212.5 984.78,-211.4 990.81,-210.21 996.81,-208.98"/>
<polygon fill="#9a32cd" stroke="#9a32cd" points="678.48,-220.54 668.28,-223.43 678.06,-227.52 678.48,-220.54"/>
<text text-anchor="middle" x="849" y="-232.5" font-family="Helvetica,sans-Serif" font-size="10.00"> value_choices</text>
</g>
<!-- Node16&#45;&gt;Node18 -->
<g id="edge31" class="edge">
<title>Node16&#45;&gt;Node18</title>
<path fill="none" stroke="#9a32cd" stroke-dasharray="5,2" d="M678.27,-211.33C716.18,-208.24 761.12,-204.58 795.24,-201.8"/>
<polygon fill="#9a32cd" stroke="#9a32cd" points="677.97,-207.84 668.29,-212.14 678.54,-214.82 677.97,-207.84"/>
<text text-anchor="middle" x="724.5" y="-212.5" font-family="Helvetica,sans-Serif" font-size="10.00"> value_choices</text>
</g>
<!-- Node17 -->
<g id="node17" class="node">
<title>Node17</title>
<g id="a_node17"><a xlink:href="structlyra_1_1detail_1_1choices__base.html" target="_top" xlink:title=" ">
<polygon fill="white" stroke="black" points="225,-167 225,-186 365,-186 365,-167 225,-167"/>
<text text-anchor="middle" x="295" y="-174" font-family="Helvetica,sans-Serif" font-size="10.00">lyra::detail::choices_base</text>
</a>
</g>
</g>
<!-- Node17&#45;&gt;Node16 -->
<g id="edge21" class="edge">
<title>Node17&#45;&gt;Node16</title>
<path fill="none" stroke="#9a32cd" stroke-dasharray="5,2" d="M375.45,-181.54C417.17,-184.83 469.04,-189.96 515,-197.5 523.42,-198.88 532.25,-200.62 540.91,-202.48"/>
<polygon fill="#9a32cd" stroke="#9a32cd" points="375.59,-178.04 365.35,-180.76 375.05,-185.02 375.59,-178.04"/>
<text text-anchor="middle" x="449" y="-200.5" font-family="Helvetica,sans-Serif" font-size="10.00"> ptr</text>
</g>
<!-- Node18&#45;&gt;Node3 -->
<g id="edge23" class="edge">
<title>Node18&#45;&gt;Node3</title>
<path fill="none" stroke="orange" stroke-dasharray="5,2" d="M912.81,-197.5C939.84,-197.5 971.09,-197.5 996.87,-197.5"/>
<polygon fill="orange" stroke="orange" points="912.68,-194 902.68,-197.5 912.68,-201 912.68,-194"/>
<text text-anchor="middle" x="958" y="-200.5" font-family="Helvetica,sans-Serif" font-size="10.00"> &lt; opt &gt;</text>
</g>
<!-- Node19&#45;&gt;Node18 -->
<g id="edge24" class="edge">
<title>Node19&#45;&gt;Node18</title>
<path fill="none" stroke="midnightblue" d="M633.14,-301.52C644.73,-296.85 658.01,-292.07 670,-287.5 710.8,-271.96 728.24,-279.36 761,-250.5 773.24,-239.71 766.89,-229.43 779,-218.5 783.85,-214.12 789.43,-210.31 795.29,-207.08"/>
<polygon fill="midnightblue" stroke="midnightblue" points="631.74,-298.31 623.87,-305.41 634.44,-304.77 631.74,-298.31"/>
</g>
<!-- Node19&#45;&gt;Node18 -->
<g id="edge27" class="edge">
<title>Node19&#45;&gt;Node18</title>
<path fill="none" stroke="midnightblue" d="M679.99,-301.98C713.9,-290.96 731.05,-294.89 761,-268.5 773.24,-257.71 766.89,-247.43 779,-236.5 791.02,-225.65 807.59,-218.27 821.47,-212.52"/>
<polygon fill="midnightblue" stroke="midnightblue" points="678.75,-298.7 670.48,-305.32 681.07,-305.31 678.75,-298.7"/>
</g>
<!-- Node20&#45;&gt;Node2 -->
<g id="edge33" class="edge">
<title>Node20&#45;&gt;Node2</title>
<path fill="none" stroke="#9a32cd" stroke-dasharray="5,2" d="M929.08,-48.44C998.02,-55.37 1094.08,-65.02 1140.79,-69.72"/>
<polygon fill="#9a32cd" stroke="#9a32cd" points="929.41,-44.96 919.11,-47.44 928.71,-51.93 929.41,-44.96"/>
<text text-anchor="middle" x="1050.5" y="-69.5" font-family="Helvetica,sans-Serif" font-size="10.00"> opt_names</text>
</g>
<!-- Node21&#45;&gt;Node20 -->
<g id="edge35" class="edge">
<title>Node21&#45;&gt;Node20</title>
<path fill="none" stroke="orange" stroke-dasharray="5,2" d="M507.84,-69.56C579.72,-63.42 702.26,-52.95 778.98,-46.4"/>
<polygon fill="orange" stroke="orange" points="507.28,-66.09 497.61,-70.43 507.87,-73.07 507.28,-66.09"/>
<text text-anchor="middle" x="601.5" y="-70.5" font-family="Helvetica,sans-Serif" font-size="10.00"> &lt; std::string &gt;</text>
</g>
</g>
</svg>
