<?xml version="1.0" encoding="UTF-8" standalone="no"?>
<!DOCTYPE svg PUBLIC "-//W3C//DTD SVG 1.1//EN"
 "http://www.w3.org/Graphics/SVG/1.1/DTD/svg11.dtd">
<!-- Generated by graphviz version 2.43.0 (0)
 -->
<!-- Title: MainNamespace::Surface::MultiSurface::properties Pages: 1 -->
<!--zoomable 149 -->
<svg id="main" version="1.1" xmlns="http://www.w3.org/2000/svg" xmlns:xlink="http://www.w3.org/1999/xlink" xml:space="preserve" onload="init(evt)">
<style type="text/css"><![CDATA[
.edge:hover path { stroke: red; }
.edge:hover polygon { stroke: red; fill: red; }
]]></style>
<script type="text/javascript"><![CDATA[
var edges = document.getElementsByTagName('g');
if (edges && edges.length) {
  for (var i=0;i<edges.length;i++) {
    if (edges[i].id.substr(0,4)=='edge') {
      edges[i].setAttribute('class','edge');
    }
  }
}
]]></script>
        <defs>
                <circle id="rim" cx="0" cy="0" r="7"/>
                <circle id="rim2" cx="0" cy="0" r="3.5"/>
                <g id="zoomPlus">
                        <use xlink:href="#rim" fill="#404040">
                                <set attributeName="fill" to="#808080" begin="zoomplus.mouseover" end="zoomplus.mouseout"/>
                        </use>
                        <path d="M-4,0h8M0,-4v8" fill="none" stroke="white" stroke-width="1.5" pointer-events="none"/>
                </g>
                <g id="zoomMin">
                        <use xlink:href="#rim" fill="#404040">
                                <set attributeName="fill" to="#808080" begin="zoomminus.mouseover" end="zoomminus.mouseout"/>
                        </use>
                        <path d="M-4,0h8" fill="none" stroke="white" stroke-width="1.5" pointer-events="none"/>
                </g>
                <g id="dirArrow">
                        <path fill="none" stroke="white" stroke-width="1.5" d="M0,-3.0v7 M-2.5,-0.5L0,-3.0L2.5,-0.5"/>
                </g>
               <g id="resetDef">
                       <use xlink:href="#rim2" fill="#404040">
                               <set attributeName="fill" to="#808080" begin="reset.mouseover" end="reset.mouseout"/>
                       </use>
               </g>
        </defs>

<script type="text/javascript">
var viewWidth = 898;
var viewHeight = 149;
var sectionId = 'dynsection-20';
</script>
<script xlink:href="svgpan.js"/>
<svg id="graph" class="graph">
<g id="viewport">
<title>MainNamespace::Surface::MultiSurface::properties</title>
<polygon fill="white" stroke="transparent" points="-4,4 -4,-145.2 894,-145.2 894,4 -4,4"/>
<!-- Node1 -->
<g id="node1" class="node">
<title>Node1</title>
<g id="a_node1"><a xlink:title="Print surface properties.">
<polygon fill="#bfbfbf" stroke="black" points="0,-68.5 0,-98.5 141,-98.5 141,-68.5 0,-68.5"/>
<text text-anchor="start" x="8" y="-86.5" font-family="Helvetica,sans-Serif" font-size="10.00">MainNamespace::Surface</text>
<text text-anchor="middle" x="70.5" y="-75.5" font-family="Helvetica,sans-Serif" font-size="10.00">::MultiSurface::properties</text>
</a>
</g>
</g>
<!-- Node2 -->
<g id="node2" class="node">
<title>Node2</title>
<g id="a_node2"><a xlink:href="class_main_namespace_1_1_surface_1_1_multi_surface.html#ab64975d85c8c58576590072b66fd7c9f" target="_top" xlink:title=" ">
<polygon fill="white" stroke="black" points="371,-93.5 371,-123.5 512,-123.5 512,-93.5 371,-93.5"/>
<text text-anchor="start" x="379" y="-111.5" font-family="Helvetica,sans-Serif" font-size="10.00">MainNamespace::Surface</text>
<text text-anchor="middle" x="441.5" y="-100.5" font-family="Helvetica,sans-Serif" font-size="10.00">::MultiSurface::geometry</text>
</a>
</g>
</g>
<!-- Node1&#45;&gt;Node2 -->
<g id="edge1" class="edge">
<title>Node1&#45;&gt;Node2</title>
<path fill="none" stroke="midnightblue" d="M95.53,-98.69C116.22,-110.81 147.34,-126.83 177,-133.5 243.86,-148.54 322.25,-137.57 376.04,-125.79"/>
<polygon fill="midnightblue" stroke="midnightblue" points="377.14,-129.13 386.12,-123.51 375.6,-122.31 377.14,-129.13"/>
</g>
<!-- Node5 -->
<g id="node5" class="node">
<title>Node5</title>
<g id="a_node5"><a xlink:href="namespace_main_namespace_1_1_logger.html#afbb4cc2d8b498e71fcb228f0da8309a1" target="_top" xlink:title=" ">
<polygon fill="white" stroke="black" points="177,-6 177,-25 335,-25 335,-6 177,-6"/>
<text text-anchor="middle" x="256" y="-13" font-family="Helvetica,sans-Serif" font-size="10.00">MainNamespace::Logger::log</text>
</a>
</g>
</g>
<!-- Node1&#45;&gt;Node5 -->
<g id="edge4" class="edge">
<title>Node1&#45;&gt;Node5</title>
<path fill="none" stroke="midnightblue" d="M99.97,-68.42C120.85,-57.82 150.13,-43.91 177,-34.5 184.13,-32 191.75,-29.71 199.31,-27.65"/>
<polygon fill="midnightblue" stroke="midnightblue" points="200.4,-30.98 209.19,-25.07 198.63,-24.21 200.4,-30.98"/>
</g>
<!-- Node7 -->
<g id="node7" class="node">
<title>Node7</title>
<g id="a_node7"><a xlink:href="class_main_namespace_1_1_surface_1_1_multi_surface.html#a4057eaa562637a1f3a39b693718d7bb3" target="_top" xlink:title="Getter.">
<polygon fill="white" stroke="black" points="185.5,-93.5 185.5,-123.5 326.5,-123.5 326.5,-93.5 185.5,-93.5"/>
<text text-anchor="start" x="193.5" y="-111.5" font-family="Helvetica,sans-Serif" font-size="10.00">MainNamespace::Surface</text>
<text text-anchor="middle" x="256" y="-100.5" font-family="Helvetica,sans-Serif" font-size="10.00">::MultiSurface::triangles</text>
</a>
</g>
</g>
<!-- Node1&#45;&gt;Node7 -->
<g id="edge6" class="edge">
<title>Node1&#45;&gt;Node7</title>
<path fill="none" stroke="midnightblue" d="M141.14,-92.99C152.35,-94.51 164.03,-96.11 175.46,-97.66"/>
<polygon fill="midnightblue" stroke="midnightblue" points="175.03,-101.14 185.41,-99.02 175.98,-94.2 175.03,-101.14"/>
</g>
<!-- Node8 -->
<g id="node8" class="node">
<title>Node8</title>
<g id="a_node8"><a xlink:href="class_main_namespace_1_1_surface_1_1_multi_surface.html#ad03ff836a2ae7f060ef1aeaa3f2afb64" target="_top" xlink:title="Getter.">
<polygon fill="white" stroke="black" points="185.5,-44.5 185.5,-74.5 326.5,-74.5 326.5,-44.5 185.5,-44.5"/>
<text text-anchor="start" x="193.5" y="-62.5" font-family="Helvetica,sans-Serif" font-size="10.00">MainNamespace::Surface</text>
<text text-anchor="middle" x="256" y="-51.5" font-family="Helvetica,sans-Serif" font-size="10.00">::MultiSurface::vertices</text>
</a>
</g>
</g>
<!-- Node1&#45;&gt;Node8 -->
<g id="edge8" class="edge">
<title>Node1&#45;&gt;Node8</title>
<path fill="none" stroke="midnightblue" d="M141.14,-74.39C152.35,-72.93 164.03,-71.4 175.46,-69.9"/>
<polygon fill="midnightblue" stroke="midnightblue" points="175.95,-73.37 185.41,-68.6 175.04,-66.43 175.95,-73.37"/>
</g>
<!-- Node3 -->
<g id="node3" class="node">
<title>Node3</title>
<g id="a_node3"><a xlink:href="class_main_namespace_1_1_surface_1_1_multi_surface.html#ab879b2422c1c86a5d5beea4cb8a17210" target="_top" xlink:title=" ">
<polygon fill="white" stroke="black" points="548,-93.5 548,-123.5 689,-123.5 689,-93.5 548,-93.5"/>
<text text-anchor="start" x="556" y="-111.5" font-family="Helvetica,sans-Serif" font-size="10.00">MainNamespace::Surface</text>
<text text-anchor="middle" x="618.5" y="-100.5" font-family="Helvetica,sans-Serif" font-size="10.00">::MultiSurface::mesh</text>
</a>
</g>
</g>
<!-- Node2&#45;&gt;Node3 -->
<g id="edge2" class="edge">
<title>Node2&#45;&gt;Node3</title>
<path fill="none" stroke="midnightblue" d="M512.17,-108.5C520.5,-108.5 529.06,-108.5 537.53,-108.5"/>
<polygon fill="midnightblue" stroke="midnightblue" points="537.79,-112 547.79,-108.5 537.79,-105 537.79,-112"/>
</g>
<!-- Node4 -->
<g id="node4" class="node">
<title>Node4</title>
<g id="a_node4"><a xlink:href="class_main_namespace_1_1_mesh_reader.html#a8311a1d62c5eced1bf7162a0f1f00687" target="_top" xlink:title=" ">
<polygon fill="white" stroke="black" points="725,-93.5 725,-123.5 890,-123.5 890,-93.5 725,-93.5"/>
<text text-anchor="start" x="733" y="-111.5" font-family="Helvetica,sans-Serif" font-size="10.00">MainNamespace::MeshReader</text>
<text text-anchor="middle" x="807.5" y="-100.5" font-family="Helvetica,sans-Serif" font-size="10.00">::mesh</text>
</a>
</g>
</g>
<!-- Node3&#45;&gt;Node4 -->
<g id="edge3" class="edge">
<title>Node3&#45;&gt;Node4</title>
<path fill="none" stroke="midnightblue" d="M689.13,-108.5C697.49,-108.5 706.12,-108.5 714.74,-108.5"/>
<polygon fill="midnightblue" stroke="midnightblue" points="714.82,-112 724.82,-108.5 714.82,-105 714.82,-112"/>
</g>
<!-- Node6 -->
<g id="node6" class="node">
<title>Node6</title>
<g id="a_node6"><a xlink:href="namespace_main_namespace_1_1_logger.html#af052b0198f333fca77f0837a511ec7f7" target="_top" xlink:title=" ">
<polygon fill="white" stroke="black" points="373,-0.5 373,-30.5 510,-30.5 510,-0.5 373,-0.5"/>
<text text-anchor="start" x="381" y="-18.5" font-family="Helvetica,sans-Serif" font-size="10.00">MainNamespace::Logger</text>
<text text-anchor="middle" x="441.5" y="-7.5" font-family="Helvetica,sans-Serif" font-size="10.00">::forwardLog</text>
</a>
</g>
</g>
<!-- Node5&#45;&gt;Node6 -->
<g id="edge5" class="edge">
<title>Node5&#45;&gt;Node6</title>
<path fill="none" stroke="midnightblue" d="M335.09,-15.5C344.23,-15.5 353.56,-15.5 362.7,-15.5"/>
<polygon fill="midnightblue" stroke="midnightblue" points="362.91,-19 372.91,-15.5 362.91,-12 362.91,-19"/>
</g>
<!-- Node7&#45;&gt;Node2 -->
<g id="edge7" class="edge">
<title>Node7&#45;&gt;Node2</title>
<path fill="none" stroke="midnightblue" d="M326.64,-108.5C337.74,-108.5 349.3,-108.5 360.61,-108.5"/>
<polygon fill="midnightblue" stroke="midnightblue" points="360.91,-112 370.91,-108.5 360.91,-105 360.91,-112"/>
</g>
<!-- Node8&#45;&gt;Node2 -->
<g id="edge9" class="edge">
<title>Node8&#45;&gt;Node2</title>
<path fill="none" stroke="midnightblue" d="M313.3,-74.53C332.68,-79.71 354.55,-85.55 374.61,-90.91"/>
<polygon fill="midnightblue" stroke="midnightblue" points="373.74,-94.3 384.3,-93.49 375.54,-87.53 373.74,-94.3"/>
</g>
</g>
</svg>
        <g id="navigator" transform="translate(0 0)" fill="#404254">
                <rect fill="#f2f5e9" fill-opacity="0.5" stroke="#606060" stroke-width=".5" x="0" y="0" width="60" height="60"/>
                <use id="zoomplus" xlink:href="#zoomPlus" x="17" y="9" onmousedown="handleZoom(evt,'in')"/>
                <use id="zoomminus" xlink:href="#zoomMin" x="42" y="9" onmousedown="handleZoom(evt,'out')"/>
                <use id="reset" xlink:href="#resetDef" x="30" y="36" onmousedown="handleReset()"/>
                <g id="arrowUp" xlink:href="#dirArrow" transform="translate(30 24)" onmousedown="handlePan(0,-1)">
                  <use xlink:href="#rim" fill="#404040">
                        <set attributeName="fill" to="#808080" begin="arrowUp.mouseover" end="arrowUp.mouseout"/>
                  </use>
                  <path fill="none" stroke="white" stroke-width="1.5" d="M0,-3.0v7 M-2.5,-0.5L0,-3.0L2.5,-0.5"/>
                </g>
                <g id="arrowRight" xlink:href="#dirArrow" transform="rotate(90) translate(36 -43)" onmousedown="handlePan(1,0)">
                  <use xlink:href="#rim" fill="#404040">
                        <set attributeName="fill" to="#808080" begin="arrowRight.mouseover" end="arrowRight.mouseout"/>
                  </use>
                  <path fill="none" stroke="white" stroke-width="1.5" d="M0,-3.0v7 M-2.5,-0.5L0,-3.0L2.5,-0.5"/>
                </g>
                <g id="arrowDown" xlink:href="#dirArrow" transform="rotate(180) translate(-30 -48)" onmousedown="handlePan(0,1)">
                  <use xlink:href="#rim" fill="#404040">
                        <set attributeName="fill" to="#808080" begin="arrowDown.mouseover" end="arrowDown.mouseout"/>
                  </use>
                  <path fill="none" stroke="white" stroke-width="1.5" d="M0,-3.0v7 M-2.5,-0.5L0,-3.0L2.5,-0.5"/>
                </g>
                <g id="arrowLeft" xlink:href="#dirArrow" transform="rotate(270) translate(-36 17)" onmousedown="handlePan(-1,0)">
                  <use xlink:href="#rim" fill="#404040">
                        <set attributeName="fill" to="#808080" begin="arrowLeft.mouseover" end="arrowLeft.mouseout"/>
                  </use>
                  <path fill="none" stroke="white" stroke-width="1.5" d="M0,-3.0v7 M-2.5,-0.5L0,-3.0L2.5,-0.5"/>
                </g>
        </g>
        <svg viewBox="0 0 15 15" width="100%" height="30px" preserveAspectRatio="xMaxYMin meet">
         <g id="arrow_out" transform="scale(0.3 0.3)">
          <a xlink:href="class_main_namespace_1_1_surface_1_1_multi_surface_a0e9e2ea8cfd79249b03f920f1aca732c_cgraph_org.svg" target="_base">
           <rect id="button" ry="5" rx="5" y="6" x="6" height="38" width="38"
                fill="#f2f5e9" fill-opacity="0.5" stroke="#606060" stroke-width="1.0"/>
           <path id="arrow"
             d="M 11.500037,31.436501 C 11.940474,20.09759 22.043105,11.32322 32.158766,21.979434 L 37.068811,17.246167 C 37.068811,17.246167 37.088388,32 37.088388,32 L 22.160133,31.978069 C 22.160133,31.978069 26.997745,27.140456 26.997745,27.140456 C 18.528582,18.264221 13.291696,25.230495 11.500037,31.436501 z"
             style="fill:#404040;"/>
          </a>
         </g>
        </svg>
</svg>
