<?xml version="1.0" encoding="UTF-8" standalone="no"?>
<!DOCTYPE svg PUBLIC "-//W3C//DTD SVG 1.1//EN"
 "http://www.w3.org/Graphics/SVG/1.1/DTD/svg11.dtd">
<!-- Generated by graphviz version 2.43.0 (0)
 -->
<!-- Title: lyra::ostream_printer Pages: 1 -->
<svg width="226pt" height="277pt"
 viewBox="0.00 0.00 225.50 277.00" xmlns="http://www.w3.org/2000/svg" xmlns:xlink="http://www.w3.org/1999/xlink">
<g id="graph0" class="graph" transform="scale(1 1) rotate(0) translate(4 273)">
<title>lyra::ostream_printer</title>
<polygon fill="white" stroke="transparent" points="-4,4 -4,-273 221.5,-273 221.5,4 -4,4"/>
<!-- Node1 -->
<g id="node1" class="node">
<title>Node1</title>
<g id="a_node1"><a xlink:title=" ">
<polygon fill="#bfbfbf" stroke="black" points="0,-0.5 0,-19.5 119,-19.5 119,-0.5 0,-0.5"/>
<text text-anchor="middle" x="59.5" y="-7.5" font-family="Helvetica,sans-Serif" font-size="10.00">lyra::ostream_printer</text>
</a>
</g>
</g>
<!-- Node2 -->
<g id="node2" class="node">
<title>Node2</title>
<g id="a_node2"><a xlink:href="classlyra_1_1printer.html" target="_top" xlink:title=" ">
<polygon fill="white" stroke="black" points="22.5,-67.5 22.5,-86.5 96.5,-86.5 96.5,-67.5 22.5,-67.5"/>
<text text-anchor="middle" x="59.5" y="-74.5" font-family="Helvetica,sans-Serif" font-size="10.00">lyra::printer</text>
</a>
</g>
</g>
<!-- Node2&#45;&gt;Node1 -->
<g id="edge1" class="edge">
<title>Node2&#45;&gt;Node1</title>
<path fill="none" stroke="midnightblue" d="M53.3,-57.04C52.24,-44.67 52.72,-29.12 54.74,-19.63"/>
<polygon fill="midnightblue" stroke="midnightblue" points="49.87,-57.81 54.71,-67.23 56.81,-56.85 49.87,-57.81"/>
</g>
<!-- Node2&#45;&gt;Node1 -->
<g id="edge2" class="edge">
<title>Node2&#45;&gt;Node1</title>
<path fill="none" stroke="midnightblue" d="M65.7,-57.04C66.76,-44.67 66.28,-29.12 64.26,-19.63"/>
<polygon fill="midnightblue" stroke="midnightblue" points="62.19,-56.85 64.29,-67.23 69.13,-57.81 62.19,-56.85"/>
</g>
<!-- Node3 -->
<g id="node3" class="node">
<title>Node3</title>
<g id="a_node3"><a xlink:title=" ">
<polygon fill="white" stroke="black" points="114.5,-67.5 114.5,-86.5 192.5,-86.5 192.5,-67.5 114.5,-67.5"/>
<text text-anchor="middle" x="153.5" y="-74.5" font-family="Helvetica,sans-Serif" font-size="10.00">std::ostream</text>
</a>
</g>
</g>
<!-- Node3&#45;&gt;Node1 -->
<g id="edge3" class="edge">
<title>Node3&#45;&gt;Node1</title>
<path fill="none" stroke="#9a32cd" stroke-dasharray="5,2" d="M132.41,-61.42C113.83,-48.57 87.38,-30.28 71.98,-19.63"/>
<polygon fill="#9a32cd" stroke="#9a32cd" points="130.61,-64.43 140.82,-67.23 134.59,-58.67 130.61,-64.43"/>
<text text-anchor="middle" x="119" y="-41" font-family="Helvetica,sans-Serif" font-size="10.00"> os</text>
</g>
<!-- Node4 -->
<g id="node4" class="node">
<title>Node4</title>
<g id="a_node4"><a xlink:title=" ">
<polygon fill="white" stroke="black" points="99,-124.5 99,-154.5 208,-154.5 208,-124.5 99,-124.5"/>
<text text-anchor="start" x="107" y="-142.5" font-family="Helvetica,sans-Serif" font-size="10.00">std::basic_ostream</text>
<text text-anchor="middle" x="153.5" y="-131.5" font-family="Helvetica,sans-Serif" font-size="10.00">&lt; Char &gt;</text>
</a>
</g>
</g>
<!-- Node4&#45;&gt;Node3 -->
<g id="edge4" class="edge">
<title>Node4&#45;&gt;Node3</title>
<path fill="none" stroke="midnightblue" d="M153.5,-114.35C153.5,-104.51 153.5,-93.78 153.5,-86.54"/>
<polygon fill="midnightblue" stroke="midnightblue" points="150,-114.47 153.5,-124.47 157,-114.47 150,-114.47"/>
</g>
<!-- Node5 -->
<g id="node5" class="node">
<title>Node5</title>
<g id="a_node5"><a xlink:title=" ">
<polygon fill="white" stroke="black" points="89.5,-192.5 89.5,-211.5 217.5,-211.5 217.5,-192.5 89.5,-192.5"/>
<text text-anchor="middle" x="153.5" y="-199.5" font-family="Helvetica,sans-Serif" font-size="10.00">std::basic_ios&lt; Char &gt;</text>
</a>
</g>
</g>
<!-- Node5&#45;&gt;Node4 -->
<g id="edge5" class="edge">
<title>Node5&#45;&gt;Node4</title>
<path fill="none" stroke="midnightblue" d="M153.5,-182.22C153.5,-173.36 153.5,-162.96 153.5,-154.76"/>
<polygon fill="midnightblue" stroke="midnightblue" points="150,-182.33 153.5,-192.33 157,-182.33 150,-182.33"/>
</g>
<!-- Node6 -->
<g id="node6" class="node">
<title>Node6</title>
<g id="a_node6"><a xlink:title=" ">
<polygon fill="white" stroke="black" points="113.5,-249.5 113.5,-268.5 193.5,-268.5 193.5,-249.5 113.5,-249.5"/>
<text text-anchor="middle" x="153.5" y="-256.5" font-family="Helvetica,sans-Serif" font-size="10.00">std::ios_base</text>
</a>
</g>
</g>
<!-- Node6&#45;&gt;Node5 -->
<g id="edge6" class="edge">
<title>Node6&#45;&gt;Node5</title>
<path fill="none" stroke="midnightblue" d="M153.5,-239.12C153.5,-229.82 153.5,-219.06 153.5,-211.71"/>
<polygon fill="midnightblue" stroke="midnightblue" points="150,-239.41 153.5,-249.41 157,-239.41 150,-239.41"/>
</g>
</g>
</svg>
