<?xml version="1.0" encoding="UTF-8" standalone="no"?>
<!DOCTYPE svg PUBLIC "-//W3C//DTD SVG 1.1//EN"
 "http://www.w3.org/Graphics/SVG/1.1/DTD/svg11.dtd">
<!-- Generated by graphviz version 2.43.0 (0)
 -->
<!-- Title: lyra::arg Pages: 1 -->
<!--zoomable 417 -->
<svg id="main" version="1.1" xmlns="http://www.w3.org/2000/svg" xmlns:xlink="http://www.w3.org/1999/xlink" xml:space="preserve" onload="init(evt)">
<style type="text/css"><![CDATA[
.edge:hover path { stroke: red; }
.edge:hover polygon { stroke: red; fill: red; }
]]></style>
<script type="text/javascript"><![CDATA[
var edges = document.getElementsByTagName('g');
if (edges && edges.length) {
  for (var i=0;i<edges.length;i++) {
    if (edges[i].id.substr(0,4)=='edge') {
      edges[i].setAttribute('class','edge');
    }
  }
}
]]></script>
        <defs>
                <circle id="rim" cx="0" cy="0" r="7"/>
                <circle id="rim2" cx="0" cy="0" r="3.5"/>
                <g id="zoomPlus">
                        <use xlink:href="#rim" fill="#404040">
                                <set attributeName="fill" to="#808080" begin="zoomplus.mouseover" end="zoomplus.mouseout"/>
                        </use>
                        <path d="M-4,0h8M0,-4v8" fill="none" stroke="white" stroke-width="1.5" pointer-events="none"/>
                </g>
                <g id="zoomMin">
                        <use xlink:href="#rim" fill="#404040">
                                <set attributeName="fill" to="#808080" begin="zoomminus.mouseover" end="zoomminus.mouseout"/>
                        </use>
                        <path d="M-4,0h8" fill="none" stroke="white" stroke-width="1.5" pointer-events="none"/>
                </g>
                <g id="dirArrow">
                        <path fill="none" stroke="white" stroke-width="1.5" d="M0,-3.0v7 M-2.5,-0.5L0,-3.0L2.5,-0.5"/>
                </g>
               <g id="resetDef">
                       <use xlink:href="#rim2" fill="#404040">
                               <set attributeName="fill" to="#808080" begin="reset.mouseover" end="reset.mouseout"/>
                       </use>
               </g>
        </defs>

<script type="text/javascript">
var viewWidth = 1171;
var viewHeight = 417;
var sectionId = 'dynsection-1';
</script>
<script xlink:href="svgpan.js"/>
<svg id="graph" class="graph">
<g id="viewport">
<title>lyra::arg</title>
<polygon fill="white" stroke="transparent" points="-4,4 -4,-412.5 1167,-412.5 1167,4 -4,4"/>
<!-- Node1 -->
<g id="node1" class="node">
<title>Node1</title>
<g id="a_node1"><a xlink:title=" ">
<polygon fill="#bfbfbf" stroke="black" points="1106,-198.5 1106,-217.5 1163,-217.5 1163,-198.5 1106,-198.5"/>
<text text-anchor="middle" x="1134.5" y="-205.5" font-family="Helvetica,sans-Serif" font-size="10.00">lyra::arg</text>
</a>
</g>
</g>
<!-- Node2 -->
<g id="node2" class="node">
<title>Node2</title>
<g id="a_node2"><a xlink:href="classlyra_1_1bound__parser.html" target="_top" xlink:title=" ">
<polygon fill="white" stroke="black" points="962,-193 962,-223 1069,-223 1069,-193 962,-193"/>
<text text-anchor="start" x="970" y="-211" font-family="Helvetica,sans-Serif" font-size="10.00">lyra::bound_parser</text>
<text text-anchor="middle" x="1015.5" y="-200" font-family="Helvetica,sans-Serif" font-size="10.00">&lt; arg &gt;</text>
</a>
</g>
</g>
<!-- Node2&#45;&gt;Node1 -->
<g id="edge1" class="edge">
<title>Node2&#45;&gt;Node1</title>
<path fill="none" stroke="midnightblue" d="M1079.27,-201.27C1088.55,-201.34 1097.69,-201.63 1105.74,-202.16"/>
<polygon fill="midnightblue" stroke="midnightblue" points="1079.18,-197.77 1069.18,-201.28 1079.19,-204.77 1079.18,-197.77"/>
</g>
<!-- Node2&#45;&gt;Node1 -->
<g id="edge31" class="edge">
<title>Node2&#45;&gt;Node1</title>
<path fill="none" stroke="midnightblue" d="M1079.27,-214.73C1088.55,-214.66 1097.69,-214.37 1105.74,-213.84"/>
<polygon fill="midnightblue" stroke="midnightblue" points="1079.19,-211.23 1069.18,-214.72 1079.18,-218.23 1079.19,-211.23"/>
</g>
<!-- Node3 -->
<g id="node3" class="node">
<title>Node3</title>
<g id="a_node3"><a xlink:href="classlyra_1_1composable__parser.html" target="_top" xlink:title=" ">
<polygon fill="white" stroke="black" points="747,-325 747,-355 884,-355 884,-325 747,-325"/>
<text text-anchor="start" x="755" y="-343" font-family="Helvetica,sans-Serif" font-size="10.00">lyra::composable_parser</text>
<text text-anchor="middle" x="815.5" y="-332" font-family="Helvetica,sans-Serif" font-size="10.00">&lt; arg &gt;</text>
</a>
</g>
</g>
<!-- Node3&#45;&gt;Node2 -->
<g id="edge2" class="edge">
<title>Node3&#45;&gt;Node2</title>
<path fill="none" stroke="midnightblue" d="M846.7,-320.14C873.41,-306.27 912.86,-287 944,-265 961.8,-252.42 979.7,-235.6 993.01,-223.27"/>
<polygon fill="midnightblue" stroke="midnightblue" points="845.04,-317.06 837.82,-324.82 848.3,-323.26 845.04,-317.06"/>
</g>
<!-- Node3&#45;&gt;Node2 -->
<g id="edge8" class="edge">
<title>Node3&#45;&gt;Node2</title>
<path fill="none" stroke="midnightblue" d="M878.61,-320.62C900.07,-310.41 923.78,-297.28 944,-283 968.65,-265.59 993.49,-240.03 1006.07,-223.26"/>
<polygon fill="midnightblue" stroke="midnightblue" points="876.85,-317.57 869.25,-324.95 879.79,-323.92 876.85,-317.57"/>
</g>
<!-- Node4 -->
<g id="node4" class="node">
<title>Node4</title>
<g id="a_node4"><a xlink:href="classlyra_1_1parser.html" target="_top" xlink:title=" ">
<polygon fill="white" stroke="black" points="227,-330.5 227,-349.5 299,-349.5 299,-330.5 227,-330.5"/>
<text text-anchor="middle" x="263" y="-337.5" font-family="Helvetica,sans-Serif" font-size="10.00">lyra::parser</text>
</a>
</g>
</g>
<!-- Node4&#45;&gt;Node3 -->
<g id="edge3" class="edge">
<title>Node4&#45;&gt;Node3</title>
<path fill="none" stroke="midnightblue" d="M309.31,-336.08C406.03,-332.55 633.1,-332.32 746.94,-335.38"/>
<polygon fill="midnightblue" stroke="midnightblue" points="309.13,-332.58 299.27,-336.48 309.4,-339.58 309.13,-332.58"/>
</g>
<!-- Node4&#45;&gt;Node3 -->
<g id="edge4" class="edge">
<title>Node4&#45;&gt;Node3</title>
<path fill="none" stroke="midnightblue" d="M309.31,-343.92C406.03,-347.45 633.1,-347.68 746.94,-344.62"/>
<polygon fill="midnightblue" stroke="midnightblue" points="309.4,-340.42 299.27,-343.52 309.13,-347.42 309.4,-340.42"/>
</g>
<!-- Node5 -->
<g id="node5" class="node">
<title>Node5</title>
<g id="a_node5"><a xlink:href="classlyra_1_1composable__parser.html" target="_top" xlink:title=" ">
<polygon fill="white" stroke="black" points="501,-378 501,-408 638,-408 638,-378 501,-378"/>
<text text-anchor="start" x="509" y="-396" font-family="Helvetica,sans-Serif" font-size="10.00">lyra::composable_parser</text>
<text text-anchor="middle" x="569.5" y="-385" font-family="Helvetica,sans-Serif" font-size="10.00">&lt; Derived &gt;</text>
</a>
</g>
</g>
<!-- Node4&#45;&gt;Node5 -->
<g id="edge6" class="edge">
<title>Node4&#45;&gt;Node5</title>
<path fill="none" stroke="midnightblue" d="M309.25,-344.46C322.61,-347.64 337.33,-351.26 351,-354 400.71,-363.96 457.47,-371.67 500.54,-378.04"/>
<polygon fill="midnightblue" stroke="midnightblue" points="309.86,-341.01 299.33,-342.14 308.27,-347.82 309.86,-341.01"/>
</g>
<!-- Node4&#45;&gt;Node5 -->
<g id="edge7" class="edge">
<title>Node4&#45;&gt;Node5</title>
<path fill="none" stroke="midnightblue" d="M285,-353.55C302.52,-360.4 328.21,-367.43 351,-372 400.71,-381.96 457.47,-389.67 500.54,-393.51"/>
<polygon fill="midnightblue" stroke="midnightblue" points="286.28,-350.29 275.71,-349.56 283.52,-356.72 286.28,-350.29"/>
</g>
<!-- Node18 -->
<g id="node18" class="node">
<title>Node18</title>
<g id="a_node18"><a xlink:href="classlyra_1_1composable__parser.html" target="_top" xlink:title=" ">
<polygon fill="white" stroke="black" points="501,-272 501,-302 638,-302 638,-272 501,-272"/>
<text text-anchor="start" x="509" y="-290" font-family="Helvetica,sans-Serif" font-size="10.00">lyra::composable_parser</text>
<text text-anchor="middle" x="569.5" y="-279" font-family="Helvetica,sans-Serif" font-size="10.00">&lt; Derived &gt;</text>
</a>
</g>
</g>
<!-- Node4&#45;&gt;Node18 -->
<g id="edge24" class="edge">
<title>Node4&#45;&gt;Node18</title>
<path fill="none" stroke="midnightblue" d="M285,-326.45C302.52,-319.6 328.21,-312.57 351,-308 400.71,-298.04 457.47,-290.33 500.54,-286.49"/>
<polygon fill="midnightblue" stroke="midnightblue" points="283.52,-323.28 275.71,-330.44 286.28,-329.71 283.52,-323.28"/>
</g>
<!-- Node4&#45;&gt;Node18 -->
<g id="edge25" class="edge">
<title>Node4&#45;&gt;Node18</title>
<path fill="none" stroke="midnightblue" d="M309.25,-335.54C322.61,-332.36 337.33,-328.74 351,-326 400.71,-316.04 457.47,-308.33 500.54,-301.96"/>
<polygon fill="midnightblue" stroke="midnightblue" points="308.27,-332.18 299.33,-337.86 309.86,-338.99 308.27,-332.18"/>
</g>
<!-- Node5&#45;&gt;Node3 -->
<g id="edge5" class="edge">
<title>Node5&#45;&gt;Node3</title>
<path fill="none" stroke="orange" stroke-dasharray="5,2" d="M648.31,-379.49C674.08,-374.69 702.85,-368.98 729,-363 739.34,-360.63 750.32,-357.87 760.84,-355.1"/>
<polygon fill="orange" stroke="orange" points="647.42,-376.09 638.22,-381.35 648.69,-382.98 647.42,-376.09"/>
<text text-anchor="middle" x="692.5" y="-380" font-family="Helvetica,sans-Serif" font-size="10.00"> &lt; arg &gt;</text>
</g>
<!-- Node6 -->
<g id="node6" class="node">
<title>Node6</title>
<g id="a_node6"><a xlink:title=" ">
<polygon fill="white" stroke="black" points="510,-12 510,-42 629,-42 629,-12 510,-12"/>
<text text-anchor="start" x="518" y="-30" font-family="Helvetica,sans-Serif" font-size="10.00">std::shared_ptr&lt; lyra</text>
<text text-anchor="middle" x="569.5" y="-19" font-family="Helvetica,sans-Serif" font-size="10.00">::detail::BoundRef &gt;</text>
</a>
</g>
</g>
<!-- Node6&#45;&gt;Node2 -->
<g id="edge9" class="edge">
<title>Node6&#45;&gt;Node2</title>
<path fill="none" stroke="#9a32cd" stroke-dasharray="5,2" d="M639.56,-21.66C705.9,-19.54 807.13,-24.37 884,-64 942.78,-94.3 988.05,-162.61 1006.04,-192.97"/>
<polygon fill="#9a32cd" stroke="#9a32cd" points="639.08,-18.18 629.22,-22.06 639.34,-25.17 639.08,-18.18"/>
<text text-anchor="middle" x="815.5" y="-67" font-family="Helvetica,sans-Serif" font-size="10.00"> m_ref</text>
</g>
<!-- Node17 -->
<g id="node17" class="node">
<title>Node17</title>
<g id="a_node17"><a xlink:href="classlyra_1_1bound__parser.html" target="_top" xlink:title=" ">
<polygon fill="white" stroke="black" points="762,-193 762,-223 869,-223 869,-193 762,-193"/>
<text text-anchor="start" x="770" y="-211" font-family="Helvetica,sans-Serif" font-size="10.00">lyra::bound_parser</text>
<text text-anchor="middle" x="815.5" y="-200" font-family="Helvetica,sans-Serif" font-size="10.00">&lt; Derived &gt;</text>
</a>
</g>
</g>
<!-- Node6&#45;&gt;Node17 -->
<g id="edge27" class="edge">
<title>Node6&#45;&gt;Node17</title>
<path fill="none" stroke="#9a32cd" stroke-dasharray="5,2" d="M618.16,-46.25C653.29,-62.66 699.86,-89.43 729,-126 744.24,-145.13 730.46,-159.99 747,-178 752.55,-184.04 759.55,-188.94 766.92,-192.89"/>
<polygon fill="#9a32cd" stroke="#9a32cd" points="619.59,-43.05 609.04,-42.09 616.69,-49.42 619.59,-43.05"/>
<text text-anchor="middle" x="692.5" y="-129" font-family="Helvetica,sans-Serif" font-size="10.00"> m_ref</text>
</g>
<!-- Node7 -->
<g id="node7" class="node">
<title>Node7</title>
<g id="a_node7"><a xlink:href="structlyra_1_1detail_1_1_bound_ref.html" target="_top" xlink:title=" ">
<polygon fill="white" stroke="black" points="202,-0.5 202,-19.5 324,-19.5 324,-0.5 202,-0.5"/>
<text text-anchor="middle" x="263" y="-7.5" font-family="Helvetica,sans-Serif" font-size="10.00">lyra::detail::BoundRef</text>
</a>
</g>
</g>
<!-- Node7&#45;&gt;Node6 -->
<g id="edge10" class="edge">
<title>Node7&#45;&gt;Node6</title>
<path fill="none" stroke="#9a32cd" stroke-dasharray="5,2" d="M334.19,-7.11C377.23,-6.13 433.42,-6.29 483,-11 491.72,-11.83 500.88,-13.1 509.83,-14.58"/>
<polygon fill="#9a32cd" stroke="#9a32cd" points="334.01,-3.61 324.1,-7.37 334.18,-10.61 334.01,-3.61"/>
<text text-anchor="middle" x="417" y="-14" font-family="Helvetica,sans-Serif" font-size="10.00"> ptr</text>
</g>
<!-- Node8 -->
<g id="node8" class="node">
<title>Node8</title>
<g id="a_node8"><a xlink:href="structlyra_1_1detail_1_1_non_copyable.html" target="_top" xlink:title=" ">
<polygon fill="white" stroke="black" points="0,-0.5 0,-19.5 140,-19.5 140,-0.5 0,-0.5"/>
<text text-anchor="middle" x="70" y="-7.5" font-family="Helvetica,sans-Serif" font-size="10.00">lyra::detail::NonCopyable</text>
</a>
</g>
</g>
<!-- Node8&#45;&gt;Node7 -->
<g id="edge11" class="edge">
<title>Node8&#45;&gt;Node7</title>
<path fill="none" stroke="midnightblue" d="M150.28,-3.34C167.52,-3.15 185.49,-3.26 201.85,-3.68"/>
<polygon fill="midnightblue" stroke="midnightblue" points="150.17,0.16 140.23,-3.48 150.27,-6.84 150.17,0.16"/>
</g>
<!-- Node8&#45;&gt;Node7 -->
<g id="edge12" class="edge">
<title>Node8&#45;&gt;Node7</title>
<path fill="none" stroke="midnightblue" d="M150.28,-16.66C167.52,-16.85 185.49,-16.74 201.85,-16.32"/>
<polygon fill="midnightblue" stroke="midnightblue" points="150.27,-13.16 140.23,-16.52 150.17,-20.16 150.27,-13.16"/>
</g>
<!-- Node9 -->
<g id="node9" class="node">
<title>Node9</title>
<g id="a_node9"><a xlink:title=" ">
<polygon fill="white" stroke="black" points="204,-55.5 204,-74.5 322,-74.5 322,-55.5 204,-55.5"/>
<text text-anchor="middle" x="263" y="-62.5" font-family="Helvetica,sans-Serif" font-size="10.00">std::shared_ptr&lt; T &gt;</text>
</a>
</g>
</g>
<!-- Node9&#45;&gt;Node6 -->
<g id="edge13" class="edge">
<title>Node9&#45;&gt;Node6</title>
<path fill="none" stroke="orange" stroke-dasharray="5,2" d="M309.97,-53.14C323.15,-50.09 337.58,-47.09 351,-45 404.35,-36.7 465.7,-32.07 509.61,-29.58"/>
<polygon fill="orange" stroke="orange" points="309.1,-49.75 300.18,-55.46 310.72,-56.56 309.1,-49.75"/>
<text text-anchor="middle" x="417" y="-48" font-family="Helvetica,sans-Serif" font-size="10.00"> &lt; lyra::detail::BoundRef &gt;</text>
</g>
<!-- Node15 -->
<g id="node15" class="node">
<title>Node15</title>
<g id="a_node15"><a xlink:title=" ">
<polygon fill="white" stroke="black" points="503,-101 503,-131 636,-131 636,-101 503,-101"/>
<text text-anchor="start" x="511" y="-119" font-family="Helvetica,sans-Serif" font-size="10.00">std::shared_ptr&lt; lyra</text>
<text text-anchor="middle" x="569.5" y="-108" font-family="Helvetica,sans-Serif" font-size="10.00">::detail::choices_base &gt;</text>
</a>
</g>
</g>
<!-- Node9&#45;&gt;Node15 -->
<g id="edge21" class="edge">
<title>Node9&#45;&gt;Node15</title>
<path fill="none" stroke="orange" stroke-dasharray="5,2" d="M332.6,-71.36C375.96,-75.97 433.04,-83.13 483,-93 494.16,-95.2 506.01,-98.06 517.22,-101"/>
<polygon fill="orange" stroke="orange" points="332.75,-67.85 322.44,-70.3 332.03,-74.82 332.75,-67.85"/>
<text text-anchor="start" x="362" y="-107" font-family="Helvetica,sans-Serif" font-size="10.00"> &lt; lyra::detail::choices</text>
<text text-anchor="middle" x="417" y="-96" font-family="Helvetica,sans-Serif" font-size="10.00">_base &gt;</text>
</g>
<!-- Node10 -->
<g id="node10" class="node">
<title>Node10</title>
<g id="a_node10"><a xlink:title=" ">
<polygon fill="white" stroke="black" points="55.5,-55.5 55.5,-74.5 84.5,-74.5 84.5,-55.5 55.5,-55.5"/>
<text text-anchor="middle" x="70" y="-62.5" font-family="Helvetica,sans-Serif" font-size="10.00">T</text>
</a>
</g>
</g>
<!-- Node10&#45;&gt;Node9 -->
<g id="edge14" class="edge">
<title>Node10&#45;&gt;Node9</title>
<path fill="none" stroke="#9a32cd" stroke-dasharray="5,2" d="M94.82,-65C121.89,-65 167.05,-65 203.61,-65"/>
<polygon fill="#9a32cd" stroke="#9a32cd" points="94.74,-61.5 84.74,-65 94.74,-68.5 94.74,-61.5"/>
<text text-anchor="middle" x="166.5" y="-68" font-family="Helvetica,sans-Serif" font-size="10.00"> ptr</text>
</g>
<!-- Node11 -->
<g id="node11" class="node">
<title>Node11</title>
<g id="a_node11"><a xlink:title=" ">
<polygon fill="white" stroke="black" points="537,-173.5 537,-192.5 602,-192.5 602,-173.5 537,-173.5"/>
<text text-anchor="middle" x="569.5" y="-180.5" font-family="Helvetica,sans-Serif" font-size="10.00">std::string</text>
</a>
</g>
</g>
<!-- Node11&#45;&gt;Node2 -->
<g id="edge15" class="edge">
<title>Node11&#45;&gt;Node2</title>
<path fill="none" stroke="#9a32cd" stroke-dasharray="5,2" d="M612.27,-173.7C672.68,-161.68 787.72,-144.19 884,-161 918.75,-167.07 956.47,-181.58 982.37,-192.89"/>
<polygon fill="#9a32cd" stroke="#9a32cd" points="611.45,-170.29 602.35,-175.72 612.85,-177.15 611.45,-170.29"/>
<text text-anchor="middle" x="815.5" y="-175" font-family="Helvetica,sans-Serif" font-size="10.00"> m_description</text>
<text text-anchor="middle" x="815.5" y="-164" font-family="Helvetica,sans-Serif" font-size="10.00">m_hint</text>
</g>
<!-- Node11&#45;&gt;Node17 -->
<g id="edge28" class="edge">
<title>Node11&#45;&gt;Node17</title>
<path fill="none" stroke="#9a32cd" stroke-dasharray="5,2" d="M612.56,-182.07C644.61,-181.9 689.76,-182.84 729,-188 739.73,-189.41 751.09,-191.58 761.89,-193.97"/>
<polygon fill="#9a32cd" stroke="#9a32cd" points="612.19,-178.57 602.23,-182.16 612.26,-185.57 612.19,-178.57"/>
<text text-anchor="middle" x="692.5" y="-202" font-family="Helvetica,sans-Serif" font-size="10.00"> m_description</text>
<text text-anchor="middle" x="692.5" y="-191" font-family="Helvetica,sans-Serif" font-size="10.00">m_hint</text>
</g>
<!-- Node12 -->
<g id="node12" class="node">
<title>Node12</title>
<g id="a_node12"><a xlink:title=" ">
<polygon fill="white" stroke="black" points="211,-168 211,-198 315,-198 315,-168 211,-168"/>
<text text-anchor="start" x="219" y="-186" font-family="Helvetica,sans-Serif" font-size="10.00">std::basic_string&lt;</text>
<text text-anchor="middle" x="263" y="-175" font-family="Helvetica,sans-Serif" font-size="10.00"> Char &gt;</text>
</a>
</g>
</g>
<!-- Node12&#45;&gt;Node11 -->
<g id="edge16" class="edge">
<title>Node12&#45;&gt;Node11</title>
<path fill="none" stroke="midnightblue" d="M325.65,-183C389.51,-183 486.79,-183 536.63,-183"/>
<polygon fill="midnightblue" stroke="midnightblue" points="325.31,-179.5 315.31,-183 325.31,-186.5 325.31,-179.5"/>
</g>
<!-- Node13 -->
<g id="node13" class="node">
<title>Node13</title>
<g id="a_node13"><a xlink:href="structlyra_1_1detail_1_1parser__cardinality.html" target="_top" xlink:title=" ">
<polygon fill="white" stroke="black" points="516.5,-223 516.5,-253 622.5,-253 622.5,-223 516.5,-223"/>
<text text-anchor="start" x="524.5" y="-241" font-family="Helvetica,sans-Serif" font-size="10.00">lyra::detail::parser</text>
<text text-anchor="middle" x="569.5" y="-230" font-family="Helvetica,sans-Serif" font-size="10.00">_cardinality</text>
</a>
</g>
</g>
<!-- Node13&#45;&gt;Node2 -->
<g id="edge17" class="edge">
<title>Node13&#45;&gt;Node2</title>
<path fill="none" stroke="#9a32cd" stroke-dasharray="5,2" d="M633.03,-241.26C640.76,-241.57 648.56,-241.83 656,-242 784.24,-245 817.97,-246.9 944,-223 949.78,-221.9 955.81,-220.71 961.81,-219.48"/>
<polygon fill="#9a32cd" stroke="#9a32cd" points="633.08,-237.76 622.94,-240.84 632.78,-244.76 633.08,-237.76"/>
<text text-anchor="middle" x="815.5" y="-246" font-family="Helvetica,sans-Serif" font-size="10.00"> m_cardinality</text>
</g>
<!-- Node13&#45;&gt;Node17 -->
<g id="edge29" class="edge">
<title>Node13&#45;&gt;Node17</title>
<path fill="none" stroke="#9a32cd" stroke-dasharray="5,2" d="M632.69,-230.35C672.57,-225.45 723.79,-219.15 761.69,-214.49"/>
<polygon fill="#9a32cd" stroke="#9a32cd" points="632.04,-226.91 622.54,-231.6 632.9,-233.85 632.04,-226.91"/>
<text text-anchor="middle" x="692.5" y="-230" font-family="Helvetica,sans-Serif" font-size="10.00"> m_cardinality</text>
</g>
<!-- Node14 -->
<g id="node14" class="node">
<title>Node14</title>
<g id="a_node14"><a xlink:title=" ">
<polygon fill="white" stroke="black" points="240.5,-228.5 240.5,-247.5 285.5,-247.5 285.5,-228.5 240.5,-228.5"/>
<text text-anchor="middle" x="263" y="-235.5" font-family="Helvetica,sans-Serif" font-size="10.00">size_t</text>
</a>
</g>
</g>
<!-- Node14&#45;&gt;Node13 -->
<g id="edge18" class="edge">
<title>Node14&#45;&gt;Node13</title>
<path fill="none" stroke="#9a32cd" stroke-dasharray="5,2" d="M295.96,-238C348.4,-238 453.17,-238 516.44,-238"/>
<polygon fill="#9a32cd" stroke="#9a32cd" points="295.9,-234.5 285.9,-238 295.9,-241.5 295.9,-234.5"/>
<text text-anchor="middle" x="417" y="-252" font-family="Helvetica,sans-Serif" font-size="10.00"> maximum</text>
<text text-anchor="middle" x="417" y="-241" font-family="Helvetica,sans-Serif" font-size="10.00">minimum</text>
</g>
<!-- Node15&#45;&gt;Node2 -->
<g id="edge19" class="edge">
<title>Node15&#45;&gt;Node2</title>
<path fill="none" stroke="#9a32cd" stroke-dasharray="5,2" d="M603.57,-95.87C618.93,-87.66 637.79,-79.14 656,-75 687.64,-67.81 697.14,-68.86 729,-75 830.06,-94.46 852.92,-113.09 944,-161 961.71,-170.31 980.5,-183 994.22,-192.84"/>
<polygon fill="#9a32cd" stroke="#9a32cd" points="601.54,-92.99 594.49,-100.9 604.94,-99.11 601.54,-92.99"/>
<text text-anchor="middle" x="815.5" y="-132" font-family="Helvetica,sans-Serif" font-size="10.00"> value_choices</text>
</g>
<!-- Node15&#45;&gt;Node17 -->
<g id="edge30" class="edge">
<title>Node15&#45;&gt;Node17</title>
<path fill="none" stroke="#9a32cd" stroke-dasharray="5,2" d="M634.7,-134.02C663.95,-143 698.72,-154.77 729,-168 737.39,-171.67 738.81,-173.92 747,-178 757.21,-183.09 768.48,-188.27 778.84,-192.86"/>
<polygon fill="#9a32cd" stroke="#9a32cd" points="635.59,-130.63 625.01,-131.08 633.56,-137.33 635.59,-130.63"/>
<text text-anchor="middle" x="692.5" y="-171" font-family="Helvetica,sans-Serif" font-size="10.00"> value_choices</text>
</g>
<!-- Node16 -->
<g id="node16" class="node">
<title>Node16</title>
<g id="a_node16"><a xlink:href="structlyra_1_1detail_1_1choices__base.html" target="_top" xlink:title=" ">
<polygon fill="white" stroke="black" points="193,-113.5 193,-132.5 333,-132.5 333,-113.5 193,-113.5"/>
<text text-anchor="middle" x="263" y="-120.5" font-family="Helvetica,sans-Serif" font-size="10.00">lyra::detail::choices_base</text>
</a>
</g>
</g>
<!-- Node16&#45;&gt;Node15 -->
<g id="edge20" class="edge">
<title>Node16&#45;&gt;Node15</title>
<path fill="none" stroke="#9a32cd" stroke-dasharray="5,2" d="M343.15,-121.18C392.77,-120.04 455.97,-118.59 502.81,-117.51"/>
<polygon fill="#9a32cd" stroke="#9a32cd" points="343.01,-117.68 333.1,-121.41 343.17,-124.68 343.01,-117.68"/>
<text text-anchor="middle" x="417" y="-124" font-family="Helvetica,sans-Serif" font-size="10.00"> ptr</text>
</g>
<!-- Node17&#45;&gt;Node2 -->
<g id="edge22" class="edge">
<title>Node17&#45;&gt;Node2</title>
<path fill="none" stroke="orange" stroke-dasharray="5,2" d="M879.36,-208C905.88,-208 936.39,-208 961.71,-208"/>
<polygon fill="orange" stroke="orange" points="879.04,-204.5 869.04,-208 879.04,-211.5 879.04,-204.5"/>
<text text-anchor="middle" x="923" y="-211" font-family="Helvetica,sans-Serif" font-size="10.00"> &lt; arg &gt;</text>
</g>
<!-- Node18&#45;&gt;Node17 -->
<g id="edge23" class="edge">
<title>Node18&#45;&gt;Node17</title>
<path fill="none" stroke="midnightblue" d="M612.51,-268.93C644.66,-258.85 689.97,-246.26 729,-233 739.74,-229.35 751.1,-225.11 761.91,-221.08"/>
<polygon fill="midnightblue" stroke="midnightblue" points="611.44,-265.6 602.97,-271.97 613.57,-272.27 611.44,-265.6"/>
</g>
<!-- Node18&#45;&gt;Node17 -->
<g id="edge26" class="edge">
<title>Node18&#45;&gt;Node17</title>
<path fill="none" stroke="midnightblue" d="M647.85,-275.25C673.82,-268.49 702.82,-259.9 729,-251 752.29,-243.09 778.5,-232.39 795.69,-223.16"/>
<polygon fill="midnightblue" stroke="midnightblue" points="646.89,-271.89 638.06,-277.76 648.62,-278.67 646.89,-271.89"/>
</g>
</g>
</svg>
        <g id="navigator" transform="translate(0 0)" fill="#404254">
                <rect fill="#f2f5e9" fill-opacity="0.5" stroke="#606060" stroke-width=".5" x="0" y="0" width="60" height="60"/>
                <use id="zoomplus" xlink:href="#zoomPlus" x="17" y="9" onmousedown="handleZoom(evt,'in')"/>
                <use id="zoomminus" xlink:href="#zoomMin" x="42" y="9" onmousedown="handleZoom(evt,'out')"/>
                <use id="reset" xlink:href="#resetDef" x="30" y="36" onmousedown="handleReset()"/>
                <g id="arrowUp" xlink:href="#dirArrow" transform="translate(30 24)" onmousedown="handlePan(0,-1)">
                  <use xlink:href="#rim" fill="#404040">
                        <set attributeName="fill" to="#808080" begin="arrowUp.mouseover" end="arrowUp.mouseout"/>
                  </use>
                  <path fill="none" stroke="white" stroke-width="1.5" d="M0,-3.0v7 M-2.5,-0.5L0,-3.0L2.5,-0.5"/>
                </g>
                <g id="arrowRight" xlink:href="#dirArrow" transform="rotate(90) translate(36 -43)" onmousedown="handlePan(1,0)">
                  <use xlink:href="#rim" fill="#404040">
                        <set attributeName="fill" to="#808080" begin="arrowRight.mouseover" end="arrowRight.mouseout"/>
                  </use>
                  <path fill="none" stroke="white" stroke-width="1.5" d="M0,-3.0v7 M-2.5,-0.5L0,-3.0L2.5,-0.5"/>
                </g>
                <g id="arrowDown" xlink:href="#dirArrow" transform="rotate(180) translate(-30 -48)" onmousedown="handlePan(0,1)">
                  <use xlink:href="#rim" fill="#404040">
                        <set attributeName="fill" to="#808080" begin="arrowDown.mouseover" end="arrowDown.mouseout"/>
                  </use>
                  <path fill="none" stroke="white" stroke-width="1.5" d="M0,-3.0v7 M-2.5,-0.5L0,-3.0L2.5,-0.5"/>
                </g>
                <g id="arrowLeft" xlink:href="#dirArrow" transform="rotate(270) translate(-36 17)" onmousedown="handlePan(-1,0)">
                  <use xlink:href="#rim" fill="#404040">
                        <set attributeName="fill" to="#808080" begin="arrowLeft.mouseover" end="arrowLeft.mouseout"/>
                  </use>
                  <path fill="none" stroke="white" stroke-width="1.5" d="M0,-3.0v7 M-2.5,-0.5L0,-3.0L2.5,-0.5"/>
                </g>
        </g>
        <svg viewBox="0 0 15 15" width="100%" height="30px" preserveAspectRatio="xMaxYMin meet">
         <g id="arrow_out" transform="scale(0.3 0.3)">
          <a xlink:href="classlyra_1_1arg__coll__graph_org.svg" target="_base">
           <rect id="button" ry="5" rx="5" y="6" x="6" height="38" width="38"
                fill="#f2f5e9" fill-opacity="0.5" stroke="#606060" stroke-width="1.0"/>
           <path id="arrow"
             d="M 11.500037,31.436501 C 11.940474,20.09759 22.043105,11.32322 32.158766,21.979434 L 37.068811,17.246167 C 37.068811,17.246167 37.088388,32 37.088388,32 L 22.160133,31.978069 C 22.160133,31.978069 26.997745,27.140456 26.997745,27.140456 C 18.528582,18.264221 13.291696,25.230495 11.500037,31.436501 z"
             style="fill:#404040;"/>
          </a>
         </g>
        </svg>
</svg>
