<?xml version="1.0" encoding="UTF-8" standalone="no"?>
<!DOCTYPE svg PUBLIC "-//W3C//DTD SVG 1.1//EN"
 "http://www.w3.org/Graphics/SVG/1.1/DTD/svg11.dtd">
<!-- Generated by graphviz version 2.43.0 (0)
 -->
<!-- Title: MainNamespace::Clocks Pages: 1 -->
<svg width="447pt" height="251pt"
 viewBox="0.00 0.00 447.00 251.00" xmlns="http://www.w3.org/2000/svg" xmlns:xlink="http://www.w3.org/1999/xlink">
<g id="graph0" class="graph" transform="scale(1 1) rotate(0) translate(4 247)">
<title>MainNamespace::Clocks</title>
<polygon fill="white" stroke="transparent" points="-4,4 -4,-247 443,-247 443,4 -4,4"/>
<!-- Node1 -->
<g id="node1" class="node">
<title>Node1</title>
<g id="a_node1"><a xlink:title=" ">
<polygon fill="#bfbfbf" stroke="black" points="190.5,-0.5 190.5,-19.5 327.5,-19.5 327.5,-0.5 190.5,-0.5"/>
<text text-anchor="middle" x="259" y="-7.5" font-family="Helvetica,sans-Serif" font-size="10.00">MainNamespace::Clocks</text>
</a>
</g>
</g>
<!-- Node2 -->
<g id="node2" class="node">
<title>Node2</title>
<g id="a_node2"><a xlink:title=" ">
<polygon fill="white" stroke="black" points="125,-67.5 125,-97.5 271,-97.5 271,-67.5 125,-67.5"/>
<text text-anchor="start" x="133" y="-85.5" font-family="Helvetica,sans-Serif" font-size="10.00">std::list&lt; MainNamespace</text>
<text text-anchor="middle" x="198" y="-74.5" font-family="Helvetica,sans-Serif" font-size="10.00">::BaseTimer * &gt;</text>
</a>
</g>
</g>
<!-- Node2&#45;&gt;Node1 -->
<g id="edge1" class="edge">
<title>Node2&#45;&gt;Node1</title>
<path fill="none" stroke="#9a32cd" stroke-dasharray="5,2" d="M217.14,-59.38C228.69,-46.04 242.77,-29.76 251.31,-19.89"/>
<polygon fill="#9a32cd" stroke="#9a32cd" points="214.24,-57.38 210.34,-67.23 219.53,-61.96 214.24,-57.38"/>
<text text-anchor="middle" x="254" y="-41" font-family="Helvetica,sans-Serif" font-size="10.00"> timers_</text>
</g>
<!-- Node3 -->
<g id="node3" class="node">
<title>Node3</title>
<g id="a_node3"><a xlink:href="class_main_namespace_1_1_base_timer.html" target="_top" xlink:title=" ">
<polygon fill="white" stroke="black" points="0,-151 0,-170 156,-170 156,-151 0,-151"/>
<text text-anchor="middle" x="78" y="-158" font-family="Helvetica,sans-Serif" font-size="10.00">MainNamespace::BaseTimer</text>
</a>
</g>
</g>
<!-- Node3&#45;&gt;Node2 -->
<g id="edge2" class="edge">
<title>Node3&#45;&gt;Node2</title>
<path fill="none" stroke="#9a32cd" stroke-dasharray="5,2" d="M100.01,-145C113.04,-136.48 129.9,-125.53 145,-116 154.68,-109.89 165.43,-103.27 174.7,-97.61"/>
<polygon fill="#9a32cd" stroke="#9a32cd" points="97.72,-142.32 91.28,-150.73 101.56,-148.17 97.72,-142.32"/>
<text text-anchor="middle" x="169.5" y="-119" font-family="Helvetica,sans-Serif" font-size="10.00"> elements</text>
</g>
<!-- Node4 -->
<g id="node4" class="node">
<title>Node4</title>
<g id="a_node4"><a xlink:title=" ">
<polygon fill="white" stroke="black" points="52.5,-223.5 52.5,-242.5 103.5,-242.5 103.5,-223.5 52.5,-223.5"/>
<text text-anchor="middle" x="78" y="-230.5" font-family="Helvetica,sans-Serif" font-size="10.00">clock_t</text>
</a>
</g>
</g>
<!-- Node4&#45;&gt;Node3 -->
<g id="edge3" class="edge">
<title>Node4&#45;&gt;Node3</title>
<path fill="none" stroke="#9a32cd" stroke-dasharray="5,2" d="M78,-212.94C78,-199.03 78,-180.82 78,-170.22"/>
<polygon fill="#9a32cd" stroke="#9a32cd" points="74.5,-213.36 78,-223.36 81.5,-213.36 74.5,-213.36"/>
<text text-anchor="middle" x="93.5" y="-197" font-family="Helvetica,sans-Serif" font-size="10.00"> total_</text>
</g>
<!-- Node5 -->
<g id="node5" class="node">
<title>Node5</title>
<g id="a_node5"><a xlink:title=" ">
<polygon fill="white" stroke="black" points="174.5,-151 174.5,-170 255.5,-170 255.5,-151 174.5,-151"/>
<text text-anchor="middle" x="215" y="-158" font-family="Helvetica,sans-Serif" font-size="10.00">std::list&lt; T &gt;</text>
</a>
</g>
</g>
<!-- Node5&#45;&gt;Node2 -->
<g id="edge4" class="edge">
<title>Node5&#45;&gt;Node2</title>
<path fill="none" stroke="orange" stroke-dasharray="5,2" d="M204.49,-141.63C202.26,-137.01 200.21,-131.94 199,-127 196.66,-117.46 196.44,-106.39 196.79,-97.81"/>
<polygon fill="orange" stroke="orange" points="201.6,-143.64 209.41,-150.8 207.76,-140.33 201.6,-143.64"/>
<text text-anchor="middle" x="286" y="-119" font-family="Helvetica,sans-Serif" font-size="10.00"> &lt; MainNamespace::BaseTimer * &gt;</text>
</g>
<!-- Node6 -->
<g id="node6" class="node">
<title>Node6</title>
<g id="a_node6"><a xlink:title=" ">
<polygon fill="white" stroke="black" points="200.5,-223.5 200.5,-242.5 229.5,-242.5 229.5,-223.5 200.5,-223.5"/>
<text text-anchor="middle" x="215" y="-230.5" font-family="Helvetica,sans-Serif" font-size="10.00">T</text>
</a>
</g>
</g>
<!-- Node6&#45;&gt;Node5 -->
<g id="edge5" class="edge">
<title>Node6&#45;&gt;Node5</title>
<path fill="none" stroke="#9a32cd" stroke-dasharray="5,2" d="M215,-212.94C215,-199.03 215,-180.82 215,-170.22"/>
<polygon fill="#9a32cd" stroke="#9a32cd" points="211.5,-213.36 215,-223.36 218.5,-213.36 211.5,-213.36"/>
<text text-anchor="middle" x="239.5" y="-197" font-family="Helvetica,sans-Serif" font-size="10.00"> elements</text>
</g>
<!-- Node7 -->
<g id="node7" class="node">
<title>Node7</title>
<g id="a_node7"><a xlink:title=" ">
<polygon fill="white" stroke="black" points="321.5,-73 321.5,-92 386.5,-92 386.5,-73 321.5,-73"/>
<text text-anchor="middle" x="354" y="-80" font-family="Helvetica,sans-Serif" font-size="10.00">std::string</text>
</a>
</g>
</g>
<!-- Node7&#45;&gt;Node1 -->
<g id="edge6" class="edge">
<title>Node7&#45;&gt;Node1</title>
<path fill="none" stroke="#9a32cd" stroke-dasharray="5,2" d="M334.27,-66.86C315.1,-52.63 286.61,-31.49 270.74,-19.72"/>
<polygon fill="#9a32cd" stroke="#9a32cd" points="332.24,-69.71 342.35,-72.86 336.41,-64.09 332.24,-69.71"/>
<text text-anchor="middle" x="330" y="-41" font-family="Helvetica,sans-Serif" font-size="10.00"> format_</text>
</g>
<!-- Node8 -->
<g id="node8" class="node">
<title>Node8</title>
<g id="a_node8"><a xlink:title=" ">
<polygon fill="white" stroke="black" points="335,-145.5 335,-175.5 439,-175.5 439,-145.5 335,-145.5"/>
<text text-anchor="start" x="343" y="-163.5" font-family="Helvetica,sans-Serif" font-size="10.00">std::basic_string&lt;</text>
<text text-anchor="middle" x="387" y="-152.5" font-family="Helvetica,sans-Serif" font-size="10.00"> Char &gt;</text>
</a>
</g>
</g>
<!-- Node8&#45;&gt;Node7 -->
<g id="edge7" class="edge">
<title>Node8&#45;&gt;Node7</title>
<path fill="none" stroke="midnightblue" d="M380.41,-135.81C378.31,-129.28 375.8,-122.27 373,-116 369.21,-107.53 363.78,-98.45 359.7,-92.05"/>
<polygon fill="midnightblue" stroke="midnightblue" points="377.09,-136.94 383.33,-145.5 383.79,-134.91 377.09,-136.94"/>
</g>
</g>
</svg>
