<?xml version="1.0" encoding="UTF-8" standalone="no"?>
<!DOCTYPE svg PUBLIC "-//W3C//DTD SVG 1.1//EN"
 "http://www.w3.org/Graphics/SVG/1.1/DTD/svg11.dtd">
<!-- Generated by graphviz version 2.43.0 (0)
 -->
<!-- Title: lyra::opt::is_match Pages: 1 -->
<svg width="598pt" height="72pt"
 viewBox="0.00 0.00 598.00 71.50" xmlns="http://www.w3.org/2000/svg" xmlns:xlink="http://www.w3.org/1999/xlink">
<g id="graph0" class="graph" transform="scale(1 1) rotate(0) translate(4 67.5)">
<title>lyra::opt::is_match</title>
<polygon fill="white" stroke="transparent" points="-4,4 -4,-67.5 594,-67.5 594,4 -4,4"/>
<!-- Node1 -->
<g id="node1" class="node">
<title>Node1</title>
<g id="a_node1"><a xlink:title=" ">
<polygon fill="#bfbfbf" stroke="black" points="0,-25 0,-44 107,-44 107,-25 0,-25"/>
<text text-anchor="middle" x="53.5" y="-32" font-family="Helvetica,sans-Serif" font-size="10.00">lyra::opt::is_match</text>
</a>
</g>
</g>
<!-- Node2 -->
<g id="node2" class="node">
<title>Node2</title>
<g id="a_node2"><a xlink:href="classlyra_1_1opt.html#a462257fd2b66731a3b8513136dc34e0c" target="_top" xlink:title=" ">
<polygon fill="white" stroke="black" points="164,-44 164,-63 255,-63 255,-44 164,-44"/>
<text text-anchor="middle" x="209.5" y="-51" font-family="Helvetica,sans-Serif" font-size="10.00">lyra::opt::name</text>
</a>
</g>
</g>
<!-- Node1&#45;&gt;Node2 -->
<g id="edge1" class="edge">
<title>Node1&#45;&gt;Node2</title>
<path fill="none" stroke="midnightblue" d="M107.07,-40.99C122.08,-42.84 138.47,-44.86 153.61,-46.73"/>
<polygon fill="midnightblue" stroke="midnightblue" points="153.51,-50.24 163.86,-47.99 154.37,-43.29 153.51,-50.24"/>
</g>
<!-- Node3 -->
<g id="node3" class="node">
<title>Node3</title>
<g id="a_node3"><a xlink:href="classlyra_1_1opt.html#a7fca6b73465a8e266ced413fbed375aa" target="_top" xlink:title=" ">
<polygon fill="white" stroke="black" points="143,-6 143,-25 276,-25 276,-6 143,-6"/>
<text text-anchor="middle" x="209.5" y="-13" font-family="Helvetica,sans-Serif" font-size="10.00">lyra::opt::normalise_opt</text>
</a>
</g>
</g>
<!-- Node1&#45;&gt;Node3 -->
<g id="edge2" class="edge">
<title>Node1&#45;&gt;Node3</title>
<path fill="none" stroke="midnightblue" d="M107.07,-28.01C115.33,-26.99 124.02,-25.92 132.69,-24.85"/>
<polygon fill="midnightblue" stroke="midnightblue" points="133.33,-28.3 142.82,-23.6 132.47,-21.35 133.33,-28.3"/>
</g>
<!-- Node4 -->
<g id="node4" class="node">
<title>Node4</title>
<g id="a_node4"><a xlink:href="classlyra_1_1detail_1_1token__iterator.html#a3f0301c7bb2bfe10f71739a26f9af219" target="_top" xlink:title=" ">
<polygon fill="white" stroke="black" points="312,-0.5 312,-30.5 430,-30.5 430,-0.5 312,-0.5"/>
<text text-anchor="start" x="320" y="-18.5" font-family="Helvetica,sans-Serif" font-size="10.00">lyra::detail::token</text>
<text text-anchor="middle" x="371" y="-7.5" font-family="Helvetica,sans-Serif" font-size="10.00">_iterator::is_prefixed</text>
</a>
</g>
</g>
<!-- Node3&#45;&gt;Node4 -->
<g id="edge3" class="edge">
<title>Node3&#45;&gt;Node4</title>
<path fill="none" stroke="midnightblue" d="M276.3,-15.5C284.65,-15.5 293.22,-15.5 301.62,-15.5"/>
<polygon fill="midnightblue" stroke="midnightblue" points="301.75,-19 311.75,-15.5 301.75,-12 301.75,-19"/>
</g>
<!-- Node5 -->
<g id="node5" class="node">
<title>Node5</title>
<g id="a_node5"><a xlink:href="namespace_main_namespace.html#a8104aa37d7d31758ac725060a96f07d9" target="_top" xlink:title=" ">
<polygon fill="white" stroke="black" points="466,-6 466,-25 590,-25 590,-6 466,-6"/>
<text text-anchor="middle" x="528" y="-13" font-family="Helvetica,sans-Serif" font-size="10.00">MainNamespace::size</text>
</a>
</g>
</g>
<!-- Node4&#45;&gt;Node5 -->
<g id="edge4" class="edge">
<title>Node4&#45;&gt;Node5</title>
<path fill="none" stroke="midnightblue" d="M430.16,-15.5C438.55,-15.5 447.27,-15.5 455.89,-15.5"/>
<polygon fill="midnightblue" stroke="midnightblue" points="455.93,-19 465.93,-15.5 455.93,-12 455.93,-19"/>
</g>
</g>
</svg>
