<?xml version="1.0" encoding="UTF-8" standalone="no"?>
<!DOCTYPE svg PUBLIC "-//W3C//DTD SVG 1.1//EN"
 "http://www.w3.org/Graphics/SVG/1.1/DTD/svg11.dtd">
<!-- Generated by graphviz version 2.43.0 (0)
 -->
<!-- Title: Lyra/include/lyra/cli.hpp Pages: 1 -->
<svg width="322pt" height="151pt"
 viewBox="0.00 0.00 321.50 151.00" xmlns="http://www.w3.org/2000/svg" xmlns:xlink="http://www.w3.org/1999/xlink">
<g id="graph0" class="graph" transform="scale(1 1) rotate(0) translate(4 147)">
<title>Lyra/include/lyra/cli.hpp</title>
<polygon fill="white" stroke="transparent" points="-4,4 -4,-147 317.5,-147 317.5,4 -4,4"/>
<!-- Node1 -->
<g id="node1" class="node">
<title>Node1</title>
<g id="a_node1"><a xlink:title=" ">
<polygon fill="#bfbfbf" stroke="black" points="73.5,-123.5 73.5,-142.5 205.5,-142.5 205.5,-123.5 73.5,-123.5"/>
<text text-anchor="middle" x="139.5" y="-130.5" font-family="Helvetica,sans-Serif" font-size="10.00">Lyra/include/lyra/cli.hpp</text>
</a>
</g>
</g>
<!-- Node2 -->
<g id="node2" class="node">
<title>Node2</title>
<g id="a_node2"><a xlink:href="cli__parser_8hpp.html" target="_top" xlink:title=" ">
<polygon fill="white" stroke="black" points="0,-56.5 0,-86.5 111,-86.5 111,-56.5 0,-56.5"/>
<text text-anchor="start" x="8" y="-74.5" font-family="Helvetica,sans-Serif" font-size="10.00">Lyra/include/lyra/cli</text>
<text text-anchor="middle" x="55.5" y="-63.5" font-family="Helvetica,sans-Serif" font-size="10.00">_parser.hpp</text>
</a>
</g>
</g>
<!-- Node1&#45;&gt;Node2 -->
<g id="edge1" class="edge">
<title>Node1&#45;&gt;Node2</title>
<path fill="none" stroke="midnightblue" d="M118.98,-117.47C105.68,-108.05 88.45,-95.84 75.3,-86.52"/>
<polygon fill="midnightblue" stroke="midnightblue" points="117.28,-120.55 127.46,-123.48 121.33,-114.84 117.28,-120.55"/>
</g>
<!-- Node3 -->
<g id="node3" class="node">
<title>Node3</title>
<g id="a_node3"><a xlink:href="include_2lyra_2lyra_8hpp.html" target="_top" xlink:title=" ">
<polygon fill="white" stroke="black" points="69.5,-0.5 69.5,-19.5 209.5,-19.5 209.5,-0.5 69.5,-0.5"/>
<text text-anchor="middle" x="139.5" y="-7.5" font-family="Helvetica,sans-Serif" font-size="10.00">Lyra/include/lyra/lyra.hpp</text>
</a>
</g>
</g>
<!-- Node1&#45;&gt;Node3 -->
<g id="edge3" class="edge">
<title>Node1&#45;&gt;Node3</title>
<path fill="none" stroke="midnightblue" d="M139.5,-112.99C139.5,-86.35 139.5,-39 139.5,-19.62"/>
<polygon fill="midnightblue" stroke="midnightblue" points="136,-113.3 139.5,-123.3 143,-113.3 136,-113.3"/>
</g>
<!-- Node4 -->
<g id="node4" class="node">
<title>Node4</title>
<g id="a_node4"><a xlink:href="main_8hpp.html" target="_top" xlink:title=" ">
<polygon fill="white" stroke="black" points="167.5,-62 167.5,-81 313.5,-81 313.5,-62 167.5,-62"/>
<text text-anchor="middle" x="240.5" y="-69" font-family="Helvetica,sans-Serif" font-size="10.00">Lyra/include/lyra/main.hpp</text>
</a>
</g>
</g>
<!-- Node1&#45;&gt;Node4 -->
<g id="edge4" class="edge">
<title>Node1&#45;&gt;Node4</title>
<path fill="none" stroke="midnightblue" d="M162.85,-118.24C182.36,-106.75 209.57,-90.72 226.06,-81.01"/>
<polygon fill="midnightblue" stroke="midnightblue" points="160.81,-115.38 153.97,-123.48 164.36,-121.41 160.81,-115.38"/>
</g>
<!-- Node2&#45;&gt;Node3 -->
<g id="edge2" class="edge">
<title>Node2&#45;&gt;Node3</title>
<path fill="none" stroke="midnightblue" d="M83.76,-50.48C98.56,-40 115.91,-27.71 127.28,-19.66"/>
<polygon fill="midnightblue" stroke="midnightblue" points="81.54,-47.76 75.41,-56.4 85.59,-53.48 81.54,-47.76"/>
</g>
<!-- Node4&#45;&gt;Node3 -->
<g id="edge5" class="edge">
<title>Node4&#45;&gt;Node3</title>
<path fill="none" stroke="midnightblue" d="M217.15,-56.74C197.64,-45.25 170.43,-29.22 153.94,-19.51"/>
<polygon fill="midnightblue" stroke="midnightblue" points="215.64,-59.91 226.03,-61.98 219.19,-53.88 215.64,-59.91"/>
</g>
</g>
</svg>
