<?xml version="1.0" encoding="UTF-8" standalone="no"?>
<!DOCTYPE svg PUBLIC "-//W3C//DTD SVG 1.1//EN"
 "http://www.w3.org/Graphics/SVG/1.1/DTD/svg11.dtd">
<!-- Generated by graphviz version 2.43.0 (0)
 -->
<!-- Title: main Pages: 1 -->
<svg width="207pt" height="253pt"
 viewBox="0.00 0.00 207.00 252.50" xmlns="http://www.w3.org/2000/svg" xmlns:xlink="http://www.w3.org/1999/xlink">
<g id="graph0" class="graph" transform="scale(1 1) rotate(0) translate(4 248.5)">
<title>main</title>
<polygon fill="white" stroke="transparent" points="-4,4 -4,-248.5 203,-248.5 203,4 -4,4"/>
<!-- Node1 -->
<g id="node1" class="node">
<title>Node1</title>
<g id="a_node1"><a xlink:title=" ">
<polygon fill="#bfbfbf" stroke="black" points="0,-106.5 0,-125.5 41,-125.5 41,-106.5 0,-106.5"/>
<text text-anchor="middle" x="20.5" y="-113.5" font-family="Helvetica,sans-Serif" font-size="10.00">main</text>
</a>
</g>
</g>
<!-- Node2 -->
<g id="node2" class="node">
<title>Node2</title>
<g id="a_node2"><a xlink:href="classlyra_1_1bound__parser.html#adb8c4b8f146b8eb35b926901aa4dfb56" target="_top" xlink:title=" ">
<polygon fill="white" stroke="black" points="84.5,-214 84.5,-244 191.5,-244 191.5,-214 84.5,-214"/>
<text text-anchor="start" x="92.5" y="-232" font-family="Helvetica,sans-Serif" font-size="10.00">lyra::bound_parser</text>
<text text-anchor="middle" x="138" y="-221" font-family="Helvetica,sans-Serif" font-size="10.00">::choices</text>
</a>
</g>
</g>
<!-- Node1&#45;&gt;Node2 -->
<g id="edge1" class="edge">
<title>Node1&#45;&gt;Node2</title>
<path fill="none" stroke="midnightblue" d="M25.2,-125.55C32.54,-143.31 50.51,-181.62 77,-204 78.96,-205.66 81.05,-207.22 83.22,-208.68"/>
<polygon fill="midnightblue" stroke="midnightblue" points="81.58,-211.78 91.96,-213.89 85.16,-205.76 81.58,-211.78"/>
</g>
<!-- Node3 -->
<g id="node3" class="node">
<title>Node3</title>
<g id="a_node3"><a xlink:href="classlyra_1_1help.html#a5dbf161a6181fba022a6d92232ea00db" target="_top" xlink:title=" ">
<polygon fill="white" stroke="black" points="77,-175.5 77,-194.5 199,-194.5 199,-175.5 77,-175.5"/>
<text text-anchor="middle" x="138" y="-182.5" font-family="Helvetica,sans-Serif" font-size="10.00">lyra::help::description</text>
</a>
</g>
</g>
<!-- Node1&#45;&gt;Node3 -->
<g id="edge2" class="edge">
<title>Node1&#45;&gt;Node3</title>
<path fill="none" stroke="midnightblue" d="M29.96,-125.83C40.1,-137.02 58.09,-155.17 77,-166 80.68,-168.11 84.62,-170.01 88.67,-171.73"/>
<polygon fill="midnightblue" stroke="midnightblue" points="87.61,-175.07 98.2,-175.39 90.12,-168.54 87.61,-175.07"/>
</g>
<!-- Node4 -->
<g id="node4" class="node">
<title>Node4</title>
<g id="a_node4"><a xlink:href="classlyra_1_1bound__parser.html#a4faa9829c3521b3f3378cb02589e1951" target="_top" xlink:title=" ">
<polygon fill="white" stroke="black" points="84.5,-126 84.5,-156 191.5,-156 191.5,-126 84.5,-126"/>
<text text-anchor="start" x="92.5" y="-144" font-family="Helvetica,sans-Serif" font-size="10.00">lyra::bound_parser</text>
<text text-anchor="middle" x="138" y="-133" font-family="Helvetica,sans-Serif" font-size="10.00">::help</text>
</a>
</g>
</g>
<!-- Node1&#45;&gt;Node4 -->
<g id="edge3" class="edge">
<title>Node1&#45;&gt;Node4</title>
<path fill="none" stroke="midnightblue" d="M41.09,-120.24C50.54,-122.29 62.45,-124.86 74.64,-127.5"/>
<polygon fill="midnightblue" stroke="midnightblue" points="73.91,-130.93 84.43,-129.62 75.39,-124.08 73.91,-130.93"/>
</g>
<!-- Node5 -->
<g id="node5" class="node">
<title>Node5</title>
<g id="a_node5"><a xlink:href="classlyra_1_1detail_1_1result__base.html#af2039c056e3c27fd5efa1542bd7167be" target="_top" xlink:title=" ">
<polygon fill="white" stroke="black" points="86.5,-77 86.5,-107 189.5,-107 189.5,-77 86.5,-77"/>
<text text-anchor="start" x="94.5" y="-95" font-family="Helvetica,sans-Serif" font-size="10.00">lyra::detail::result</text>
<text text-anchor="middle" x="138" y="-84" font-family="Helvetica,sans-Serif" font-size="10.00">_base::message</text>
</a>
</g>
</g>
<!-- Node1&#45;&gt;Node5 -->
<g id="edge4" class="edge">
<title>Node1&#45;&gt;Node5</title>
<path fill="none" stroke="midnightblue" d="M41.09,-111.93C51.04,-109.86 63.73,-107.23 76.59,-104.55"/>
<polygon fill="midnightblue" stroke="midnightblue" points="77.34,-107.97 86.42,-102.51 75.91,-101.12 77.34,-107.97"/>
</g>
<!-- Node6 -->
<g id="node6" class="node">
<title>Node6</title>
<g id="a_node6"><a xlink:href="classlyra_1_1opt.html#a462257fd2b66731a3b8513136dc34e0c" target="_top" xlink:title=" ">
<polygon fill="white" stroke="black" points="92.5,-38.5 92.5,-57.5 183.5,-57.5 183.5,-38.5 92.5,-38.5"/>
<text text-anchor="middle" x="138" y="-45.5" font-family="Helvetica,sans-Serif" font-size="10.00">lyra::opt::name</text>
</a>
</g>
</g>
<!-- Node1&#45;&gt;Node6 -->
<g id="edge5" class="edge">
<title>Node1&#45;&gt;Node6</title>
<path fill="none" stroke="midnightblue" d="M30.44,-106.25C40.74,-95.54 58.62,-78.46 77,-68 81.48,-65.45 86.33,-63.17 91.27,-61.13"/>
<polygon fill="midnightblue" stroke="midnightblue" points="92.68,-64.34 100.8,-57.53 90.21,-57.79 92.68,-64.34"/>
</g>
<!-- Node7 -->
<g id="node7" class="node">
<title>Node7</title>
<g id="a_node7"><a xlink:href="classlyra_1_1parser.html#aef20ceb65c81a796abbfdde51225e8d8" target="_top" xlink:title=" ">
<polygon fill="white" stroke="black" points="85.5,-0.5 85.5,-19.5 190.5,-19.5 190.5,-0.5 85.5,-0.5"/>
<text text-anchor="middle" x="138" y="-7.5" font-family="Helvetica,sans-Serif" font-size="10.00">lyra::parser::parse</text>
</a>
</g>
</g>
<!-- Node1&#45;&gt;Node7 -->
<g id="edge6" class="edge">
<title>Node1&#45;&gt;Node7</title>
<path fill="none" stroke="midnightblue" d="M25.06,-106.33C32.14,-88.41 49.72,-49.95 77,-29 79.43,-27.13 82.06,-25.44 84.8,-23.92"/>
<polygon fill="midnightblue" stroke="midnightblue" points="86.35,-27.06 93.86,-19.59 83.33,-20.74 86.35,-27.06"/>
</g>
</g>
</svg>
