<?xml version="1.0" encoding="UTF-8" standalone="no"?>
<!DOCTYPE svg PUBLIC "-//W3C//DTD SVG 1.1//EN"
 "http://www.w3.org/Graphics/SVG/1.1/DTD/svg11.dtd">
<!-- Generated by graphviz version 2.43.0 (0)
 -->
<!-- Title: Lyra/include/lyra/command.hpp Pages: 1 -->
<svg width="1593pt" height="666pt"
 viewBox="0.00 0.00 1592.50 666.00" xmlns="http://www.w3.org/2000/svg" xmlns:xlink="http://www.w3.org/1999/xlink">
<g id="graph0" class="graph" transform="scale(1 1) rotate(0) translate(4 662)">
<title>Lyra/include/lyra/command.hpp</title>
<polygon fill="white" stroke="transparent" points="-4,4 -4,-662 1588.5,-662 1588.5,4 -4,4"/>
<!-- Node1 -->
<g id="node1" class="node">
<title>Node1</title>
<g id="a_node1"><a xlink:title=" ">
<polygon fill="#bfbfbf" stroke="black" points="268,-638.5 268,-657.5 438,-657.5 438,-638.5 268,-638.5"/>
<text text-anchor="middle" x="353" y="-645.5" font-family="Helvetica,sans-Serif" font-size="10.00">Lyra/include/lyra/command.hpp</text>
</a>
</g>
</g>
<!-- Node2 -->
<g id="node2" class="node">
<title>Node2</title>
<g id="a_node2"><a xlink:href="group_8hpp.html" target="_top" xlink:title=" ">
<polygon fill="white" stroke="black" points="443.5,-582.5 443.5,-601.5 530.5,-601.5 530.5,-582.5 443.5,-582.5"/>
<text text-anchor="middle" x="487" y="-589.5" font-family="Helvetica,sans-Serif" font-size="10.00">lyra/group.hpp</text>
</a>
</g>
</g>
<!-- Node1&#45;&gt;Node2 -->
<g id="edge1" class="edge">
<title>Node1&#45;&gt;Node2</title>
<path fill="none" stroke="midnightblue" d="M374.23,-638.44C396.38,-629.52 431.32,-615.44 456.44,-605.32"/>
<polygon fill="midnightblue" stroke="midnightblue" points="457.9,-608.5 465.87,-601.52 455.28,-602.01 457.9,-608.5"/>
</g>
<!-- Node5 -->
<g id="node5" class="node">
<title>Node5</title>
<g id="a_node5"><a xlink:title=" ">
<polygon fill="white" stroke="#bfbfbf" points="325,-0.5 325,-19.5 369,-19.5 369,-0.5 325,-0.5"/>
<text text-anchor="middle" x="347" y="-7.5" font-family="Helvetica,sans-Serif" font-size="10.00">string</text>
</a>
</g>
</g>
<!-- Node1&#45;&gt;Node5 -->
<g id="edge78" class="edge">
<title>Node1&#45;&gt;Node5</title>
<path fill="none" stroke="midnightblue" d="M274.66,-638.5C170.66,-624.99 0,-594.13 0,-537 0,-537 0,-537 0,-126.5 0,-85.93 22.76,-76.1 58,-56 101.35,-31.27 248.5,-17.99 314.5,-13.15"/>
<polygon fill="midnightblue" stroke="midnightblue" points="315.01,-16.62 324.74,-12.42 314.52,-9.64 315.01,-16.62"/>
</g>
<!-- Node29 -->
<g id="node29" class="node">
<title>Node29</title>
<g id="a_node29"><a xlink:title=" ">
<polygon fill="white" stroke="#bfbfbf" points="1519.5,-470.5 1519.5,-489.5 1584.5,-489.5 1584.5,-470.5 1519.5,-470.5"/>
<text text-anchor="middle" x="1552" y="-477.5" font-family="Helvetica,sans-Serif" font-size="10.00">functional</text>
</a>
</g>
</g>
<!-- Node1&#45;&gt;Node29 -->
<g id="edge77" class="edge">
<title>Node1&#45;&gt;Node29</title>
<path fill="none" stroke="midnightblue" d="M424.34,-638.49C562.84,-621.84 877.75,-583.29 1142,-546 1303.64,-523.19 1344.14,-517.8 1505,-490 1506.46,-489.75 1507.94,-489.49 1509.44,-489.22"/>
<polygon fill="midnightblue" stroke="midnightblue" points="1510.2,-492.64 1519.41,-487.4 1508.95,-485.75 1510.2,-492.64"/>
</g>
<!-- Node30 -->
<g id="node30" class="node">
<title>Node30</title>
<g id="a_node30"><a xlink:href="literal_8hpp.html" target="_top" xlink:title=" ">
<polygon fill="white" stroke="black" points="28,-470.5 28,-489.5 116,-489.5 116,-470.5 28,-470.5"/>
<text text-anchor="middle" x="72" y="-477.5" font-family="Helvetica,sans-Serif" font-size="10.00">lyra/literal.hpp</text>
</a>
</g>
</g>
<!-- Node1&#45;&gt;Node30 -->
<g id="edge74" class="edge">
<title>Node1&#45;&gt;Node30</title>
<path fill="none" stroke="midnightblue" d="M338.29,-638.31C292.39,-611.19 151.53,-527.98 95.42,-494.83"/>
<polygon fill="midnightblue" stroke="midnightblue" points="96.96,-491.68 86.57,-489.61 93.4,-497.7 96.96,-491.68"/>
</g>
<!-- Node3 -->
<g id="node3" class="node">
<title>Node3</title>
<g id="a_node3"><a xlink:href="arguments_8hpp.html" target="_top" xlink:title=" ">
<polygon fill="white" stroke="black" points="551,-526.5 551,-545.5 663,-545.5 663,-526.5 551,-526.5"/>
<text text-anchor="middle" x="607" y="-533.5" font-family="Helvetica,sans-Serif" font-size="10.00">lyra/arguments.hpp</text>
</a>
</g>
</g>
<!-- Node2&#45;&gt;Node3 -->
<g id="edge2" class="edge">
<title>Node2&#45;&gt;Node3</title>
<path fill="none" stroke="midnightblue" d="M506.01,-582.44C525.59,-573.64 556.31,-559.81 578.73,-549.72"/>
<polygon fill="midnightblue" stroke="midnightblue" points="580.39,-552.81 588.07,-545.52 577.52,-546.43 580.39,-552.81"/>
</g>
<!-- Node4 -->
<g id="node4" class="node">
<title>Node4</title>
<g id="a_node4"><a xlink:href="print_8hpp.html" target="_top" xlink:title=" ">
<polygon fill="white" stroke="black" points="134.5,-470.5 134.5,-489.5 247.5,-489.5 247.5,-470.5 134.5,-470.5"/>
<text text-anchor="middle" x="191" y="-477.5" font-family="Helvetica,sans-Serif" font-size="10.00">lyra/detail/print.hpp</text>
</a>
</g>
</g>
<!-- Node2&#45;&gt;Node4 -->
<g id="edge72" class="edge">
<title>Node2&#45;&gt;Node4</title>
<path fill="none" stroke="midnightblue" d="M463.77,-582.37C411.36,-562.89 283.78,-515.48 223.53,-493.09"/>
<polygon fill="midnightblue" stroke="midnightblue" points="224.71,-489.79 214.12,-489.59 222.27,-496.36 224.71,-489.79"/>
</g>
<!-- Node2&#45;&gt;Node29 -->
<g id="edge73" class="edge">
<title>Node2&#45;&gt;Node29</title>
<path fill="none" stroke="midnightblue" d="M530.83,-588.07C672.35,-578.32 1129.74,-544.43 1505,-490 1506.46,-489.79 1507.95,-489.56 1509.45,-489.32"/>
<polygon fill="midnightblue" stroke="midnightblue" points="1510.17,-492.75 1519.45,-487.63 1509,-485.85 1510.17,-492.75"/>
</g>
<!-- Node3&#45;&gt;Node4 -->
<g id="edge3" class="edge">
<title>Node3&#45;&gt;Node4</title>
<path fill="none" stroke="midnightblue" d="M550.9,-527.72C474.76,-517.83 338.91,-500.2 257.66,-489.65"/>
<polygon fill="midnightblue" stroke="midnightblue" points="257.91,-486.16 247.54,-488.34 257.01,-493.1 257.91,-486.16"/>
</g>
<!-- Node6 -->
<g id="node6" class="node">
<title>Node6</title>
<g id="a_node6"><a xlink:href="trait__utils_8hpp.html" target="_top" xlink:title=" ">
<polygon fill="white" stroke="black" points="1384.5,-56.5 1384.5,-75.5 1521.5,-75.5 1521.5,-56.5 1384.5,-56.5"/>
<text text-anchor="middle" x="1453" y="-63.5" font-family="Helvetica,sans-Serif" font-size="10.00">lyra/detail/trait_utils.hpp</text>
</a>
</g>
</g>
<!-- Node3&#45;&gt;Node6 -->
<g id="edge5" class="edge">
<title>Node3&#45;&gt;Node6</title>
<path fill="none" stroke="midnightblue" d="M663.31,-533.94C858.02,-529.53 1491,-508.76 1491,-425 1491,-425 1491,-425 1491,-188 1491,-149.81 1473.56,-107.83 1462.31,-84.72"/>
<polygon fill="midnightblue" stroke="midnightblue" points="1465.29,-82.86 1457.66,-75.52 1459.04,-86.02 1465.29,-82.86"/>
</g>
<!-- Node7 -->
<g id="node7" class="node">
<title>Node7</title>
<g id="a_node7"><a xlink:title=" ">
<polygon fill="white" stroke="#bfbfbf" points="1302.5,-0.5 1302.5,-19.5 1371.5,-19.5 1371.5,-0.5 1302.5,-0.5"/>
<text text-anchor="middle" x="1337" y="-7.5" font-family="Helvetica,sans-Serif" font-size="10.00">type_traits</text>
</a>
</g>
</g>
<!-- Node3&#45;&gt;Node7 -->
<g id="edge71" class="edge">
<title>Node3&#45;&gt;Node7</title>
<path fill="none" stroke="midnightblue" d="M663.09,-531.17C831.19,-518.69 1326.91,-474.33 1452,-378 1568.75,-288.09 1622.67,-171.37 1531,-56 1512.74,-33.02 1433.35,-20.73 1381.96,-15.05"/>
<polygon fill="midnightblue" stroke="midnightblue" points="1382.08,-11.55 1371.77,-13.97 1381.34,-18.51 1382.08,-11.55"/>
</g>
<!-- Node9 -->
<g id="node9" class="node">
<title>Node9</title>
<g id="a_node9"><a xlink:href="exe__name_8hpp.html" target="_top" xlink:title=" ">
<polygon fill="white" stroke="black" points="511,-470.5 511,-489.5 621,-489.5 621,-470.5 511,-470.5"/>
<text text-anchor="middle" x="566" y="-477.5" font-family="Helvetica,sans-Serif" font-size="10.00">lyra/exe_name.hpp</text>
</a>
</g>
</g>
<!-- Node3&#45;&gt;Node9 -->
<g id="edge8" class="edge">
<title>Node3&#45;&gt;Node9</title>
<path fill="none" stroke="midnightblue" d="M600.23,-526.08C594.44,-518.46 585.94,-507.26 578.86,-497.94"/>
<polygon fill="midnightblue" stroke="midnightblue" points="581.48,-495.6 572.64,-489.75 575.9,-499.83 581.48,-495.6"/>
</g>
<!-- Node22 -->
<g id="node22" class="node">
<title>Node22</title>
<g id="a_node22"><a xlink:href="parser_8hpp.html" target="_top" xlink:title=" ">
<polygon fill="white" stroke="black" points="604,-414.5 604,-433.5 694,-433.5 694,-414.5 604,-414.5"/>
<text text-anchor="middle" x="649" y="-421.5" font-family="Helvetica,sans-Serif" font-size="10.00">lyra/parser.hpp</text>
</a>
</g>
</g>
<!-- Node3&#45;&gt;Node22 -->
<g id="edge68" class="edge">
<title>Node3&#45;&gt;Node22</title>
<path fill="none" stroke="midnightblue" d="M612.09,-526.26C617.13,-517.36 624.81,-503.04 630,-490 636.11,-474.64 641.24,-456.54 644.62,-443.35"/>
<polygon fill="midnightblue" stroke="midnightblue" points="648.03,-444.13 647.04,-433.59 641.24,-442.45 648.03,-444.13"/>
</g>
<!-- Node26 -->
<g id="node26" class="node">
<title>Node26</title>
<g id="a_node26"><a xlink:href="printer_8hpp.html" target="_top" xlink:title=" ">
<polygon fill="white" stroke="black" points="189,-358.5 189,-377.5 281,-377.5 281,-358.5 189,-358.5"/>
<text text-anchor="middle" x="235" y="-365.5" font-family="Helvetica,sans-Serif" font-size="10.00">lyra/printer.hpp</text>
</a>
</g>
</g>
<!-- Node3&#45;&gt;Node26 -->
<g id="edge69" class="edge">
<title>Node3&#45;&gt;Node26</title>
<path fill="none" stroke="midnightblue" d="M554.34,-526.45C489.32,-514.07 377.25,-486.63 295,-434 275.29,-421.39 257.79,-400.76 246.85,-386.13"/>
<polygon fill="midnightblue" stroke="midnightblue" points="249.61,-383.98 240.92,-377.92 243.93,-388.08 249.61,-383.98"/>
</g>
<!-- Node3&#45;&gt;Node29 -->
<g id="edge70" class="edge">
<title>Node3&#45;&gt;Node29</title>
<path fill="none" stroke="midnightblue" d="M663.18,-534.89C804.91,-534.04 1188.25,-528.08 1505,-490 1506.47,-489.82 1507.96,-489.63 1509.47,-489.42"/>
<polygon fill="midnightblue" stroke="midnightblue" points="1510.14,-492.85 1519.48,-487.84 1509.05,-485.94 1510.14,-492.85"/>
</g>
<!-- Node4&#45;&gt;Node5 -->
<g id="edge4" class="edge">
<title>Node4&#45;&gt;Node5</title>
<path fill="none" stroke="midnightblue" d="M170.17,-470.47C137.03,-455.36 76,-420.53 76,-369 76,-369 76,-369 76,-126.5 76,-23.86 242.56,-11.16 314.52,-10.47"/>
<polygon fill="midnightblue" stroke="midnightblue" points="314.83,-13.97 324.82,-10.45 314.82,-6.97 314.83,-13.97"/>
</g>
<!-- Node6&#45;&gt;Node7 -->
<g id="edge6" class="edge">
<title>Node6&#45;&gt;Node7</title>
<path fill="none" stroke="midnightblue" d="M1434.62,-56.44C1415.78,-47.68 1386.27,-33.94 1364.62,-23.86"/>
<polygon fill="midnightblue" stroke="midnightblue" points="1365.84,-20.56 1355.29,-19.52 1362.88,-26.91 1365.84,-20.56"/>
</g>
<!-- Node8 -->
<g id="node8" class="node">
<title>Node8</title>
<g id="a_node8"><a xlink:title=" ">
<polygon fill="white" stroke="#bfbfbf" points="1430.5,-0.5 1430.5,-19.5 1475.5,-19.5 1475.5,-0.5 1430.5,-0.5"/>
<text text-anchor="middle" x="1453" y="-7.5" font-family="Helvetica,sans-Serif" font-size="10.00">utility</text>
</a>
</g>
</g>
<!-- Node6&#45;&gt;Node8 -->
<g id="edge7" class="edge">
<title>Node6&#45;&gt;Node8</title>
<path fill="none" stroke="midnightblue" d="M1453,-56.08C1453,-49.01 1453,-38.86 1453,-29.99"/>
<polygon fill="midnightblue" stroke="midnightblue" points="1456.5,-29.75 1453,-19.75 1449.5,-29.75 1456.5,-29.75"/>
</g>
<!-- Node10 -->
<g id="node10" class="node">
<title>Node10</title>
<g id="a_node10"><a xlink:href="bound_8hpp.html" target="_top" xlink:title=" ">
<polygon fill="white" stroke="black" points="649,-302.5 649,-321.5 769,-321.5 769,-302.5 649,-302.5"/>
<text text-anchor="middle" x="709" y="-309.5" font-family="Helvetica,sans-Serif" font-size="10.00">lyra/detail/bound.hpp</text>
</a>
</g>
</g>
<!-- Node9&#45;&gt;Node10 -->
<g id="edge9" class="edge">
<title>Node9&#45;&gt;Node10</title>
<path fill="none" stroke="midnightblue" d="M568.54,-470.4C572.66,-457.34 581.72,-432.15 595,-414 621.43,-377.9 662.73,-345.39 687.69,-327.5"/>
<polygon fill="midnightblue" stroke="midnightblue" points="689.93,-330.21 696.09,-321.59 685.9,-324.49 689.93,-330.21"/>
</g>
<!-- Node15 -->
<g id="node15" class="node">
<title>Node15</title>
<g id="a_node15"><a xlink:href="parser__result_8hpp.html" target="_top" xlink:title=" ">
<polygon fill="white" stroke="black" points="637.5,-118 637.5,-137 760.5,-137 760.5,-118 637.5,-118"/>
<text text-anchor="middle" x="699" y="-125" font-family="Helvetica,sans-Serif" font-size="10.00">lyra/parser_result.hpp</text>
</a>
</g>
</g>
<!-- Node9&#45;&gt;Node15 -->
<g id="edge67" class="edge">
<title>Node9&#45;&gt;Node15</title>
<path fill="none" stroke="midnightblue" d="M563.01,-470.45C550.09,-431.82 502.85,-271.51 574,-179 584.77,-165 626.27,-149.96 658.53,-139.97"/>
<polygon fill="midnightblue" stroke="midnightblue" points="659.65,-143.29 668.2,-137.04 657.62,-136.59 659.65,-143.29"/>
</g>
<!-- Node19 -->
<g id="node19" class="node">
<title>Node19</title>
<g id="a_node19"><a xlink:href="tokens_8hpp.html" target="_top" xlink:title=" ">
<polygon fill="white" stroke="black" points="244,-179.5 244,-198.5 366,-198.5 366,-179.5 244,-179.5"/>
<text text-anchor="middle" x="305" y="-186.5" font-family="Helvetica,sans-Serif" font-size="10.00">lyra/detail/tokens.hpp</text>
</a>
</g>
</g>
<!-- Node9&#45;&gt;Node19 -->
<g id="edge31" class="edge">
<title>Node9&#45;&gt;Node19</title>
<path fill="none" stroke="midnightblue" d="M510.88,-474.56C450.66,-468.67 359.26,-456.3 333,-434 309.52,-414.07 309,-399.8 309,-369 309,-369 309,-369 309,-311 309,-274.69 307.18,-232.29 305.99,-208.55"/>
<polygon fill="midnightblue" stroke="midnightblue" points="309.49,-208.31 305.47,-198.51 302.5,-208.67 309.49,-208.31"/>
</g>
<!-- Node9&#45;&gt;Node22 -->
<g id="edge36" class="edge">
<title>Node9&#45;&gt;Node22</title>
<path fill="none" stroke="midnightblue" d="M579.34,-470.32C592.16,-461.98 611.78,-449.21 626.94,-439.35"/>
<polygon fill="midnightblue" stroke="midnightblue" points="629.22,-442.04 635.7,-433.65 625.41,-436.17 629.22,-442.04"/>
</g>
<!-- Node10&#45;&gt;Node5 -->
<g id="edge30" class="edge">
<title>Node10&#45;&gt;Node5</title>
<path fill="none" stroke="midnightblue" d="M653.27,-302.49C588.53,-290.02 481.82,-261.14 413,-199 362.74,-153.62 350.75,-67.72 347.9,-29.8"/>
<polygon fill="midnightblue" stroke="midnightblue" points="351.38,-29.43 347.27,-19.67 344.39,-29.86 351.38,-29.43"/>
</g>
<!-- Node11 -->
<g id="node11" class="node">
<title>Node11</title>
<g id="a_node11"><a xlink:href="from__string_8hpp.html" target="_top" xlink:title=" ">
<polygon fill="white" stroke="black" points="969,-118 969,-137 1115,-137 1115,-118 969,-118"/>
<text text-anchor="middle" x="1042" y="-125" font-family="Helvetica,sans-Serif" font-size="10.00">lyra/detail/from_string.hpp</text>
</a>
</g>
</g>
<!-- Node10&#45;&gt;Node11 -->
<g id="edge10" class="edge">
<title>Node10&#45;&gt;Node11</title>
<path fill="none" stroke="midnightblue" d="M769.03,-302.62C809.11,-295.76 862.45,-284.17 907,-266 959.65,-244.52 979.96,-242.98 1016,-199 1028.38,-183.9 1035.17,-162.36 1038.67,-147.07"/>
<polygon fill="midnightblue" stroke="midnightblue" points="1042.11,-147.72 1040.68,-137.22 1035.25,-146.32 1042.11,-147.72"/>
</g>
<!-- Node13 -->
<g id="node13" class="node">
<title>Node13</title>
<g id="a_node13"><a xlink:href="invoke__lambda_8hpp.html" target="_top" xlink:title=" ">
<polygon fill="white" stroke="black" points="691.5,-235.5 691.5,-265.5 792.5,-265.5 792.5,-235.5 691.5,-235.5"/>
<text text-anchor="start" x="699.5" y="-253.5" font-family="Helvetica,sans-Serif" font-size="10.00">lyra/detail/invoke</text>
<text text-anchor="middle" x="742" y="-242.5" font-family="Helvetica,sans-Serif" font-size="10.00">_lambda.hpp</text>
</a>
</g>
</g>
<!-- Node10&#45;&gt;Node13 -->
<g id="edge15" class="edge">
<title>Node10&#45;&gt;Node13</title>
<path fill="none" stroke="midnightblue" d="M713.73,-302.48C717.78,-295.17 723.81,-284.3 729.26,-274.47"/>
<polygon fill="midnightblue" stroke="midnightblue" points="732.43,-275.97 734.22,-265.52 726.31,-272.57 732.43,-275.97"/>
</g>
<!-- Node14 -->
<g id="node14" class="node">
<title>Node14</title>
<g id="a_node14"><a xlink:href="parse_8hpp.html" target="_top" xlink:title=" ">
<polygon fill="white" stroke="black" points="596.5,-179.5 596.5,-198.5 713.5,-198.5 713.5,-179.5 596.5,-179.5"/>
<text text-anchor="middle" x="655" y="-186.5" font-family="Helvetica,sans-Serif" font-size="10.00">lyra/detail/parse.hpp</text>
</a>
</g>
</g>
<!-- Node10&#45;&gt;Node14 -->
<g id="edge28" class="edge">
<title>Node10&#45;&gt;Node14</title>
<path fill="none" stroke="midnightblue" d="M703.08,-302.32C697.21,-293.47 688.22,-279.18 682,-266 673.06,-247.05 665.34,-224.28 660.48,-208.63"/>
<polygon fill="midnightblue" stroke="midnightblue" points="663.7,-207.22 657.46,-198.66 657,-209.24 663.7,-207.22"/>
</g>
<!-- Node18 -->
<g id="node18" class="node">
<title>Node18</title>
<g id="a_node18"><a xlink:href="unary__lambda__traits_8hpp.html" target="_top" xlink:title=" ">
<polygon fill="white" stroke="black" points="1171.5,-112.5 1171.5,-142.5 1310.5,-142.5 1310.5,-112.5 1171.5,-112.5"/>
<text text-anchor="start" x="1179.5" y="-130.5" font-family="Helvetica,sans-Serif" font-size="10.00">lyra/detail/unary_lambda</text>
<text text-anchor="middle" x="1241" y="-119.5" font-family="Helvetica,sans-Serif" font-size="10.00">_traits.hpp</text>
</a>
</g>
</g>
<!-- Node10&#45;&gt;Node18 -->
<g id="edge29" class="edge">
<title>Node10&#45;&gt;Node18</title>
<path fill="none" stroke="midnightblue" d="M769.25,-304.71C820.18,-298.3 894.6,-286.35 957,-266 1052.81,-234.76 1157.57,-177.42 1208.95,-147.62"/>
<polygon fill="midnightblue" stroke="midnightblue" points="1210.74,-150.62 1217.61,-142.56 1207.21,-144.58 1210.74,-150.62"/>
</g>
<!-- Node11&#45;&gt;Node5 -->
<g id="edge13" class="edge">
<title>Node11&#45;&gt;Node5</title>
<path fill="none" stroke="midnightblue" d="M1029.39,-117.89C1005.92,-102.37 953.43,-70.03 904,-56 804.28,-27.71 482.94,-15.29 379.45,-11.96"/>
<polygon fill="midnightblue" stroke="midnightblue" points="379.4,-8.46 369.3,-11.64 379.18,-15.46 379.4,-8.46"/>
</g>
<!-- Node11&#45;&gt;Node6 -->
<g id="edge11" class="edge">
<title>Node11&#45;&gt;Node6</title>
<path fill="none" stroke="midnightblue" d="M1100.89,-117.98C1175.81,-107.13 1305,-88.43 1384.33,-76.94"/>
<polygon fill="midnightblue" stroke="midnightblue" points="1384.83,-80.41 1394.22,-75.51 1383.82,-73.48 1384.83,-80.41"/>
</g>
<!-- Node11&#45;&gt;Node7 -->
<g id="edge14" class="edge">
<title>Node11&#45;&gt;Node7</title>
<path fill="none" stroke="midnightblue" d="M1064.17,-117.82C1116.09,-97.49 1245.65,-46.76 1305.63,-23.28"/>
<polygon fill="midnightblue" stroke="midnightblue" points="1306.94,-26.53 1314.97,-19.62 1304.38,-20.01 1306.94,-26.53"/>
</g>
<!-- Node12 -->
<g id="node12" class="node">
<title>Node12</title>
<g id="a_node12"><a xlink:title=" ">
<polygon fill="white" stroke="#bfbfbf" points="1014,-56.5 1014,-75.5 1070,-75.5 1070,-56.5 1014,-56.5"/>
<text text-anchor="middle" x="1042" y="-63.5" font-family="Helvetica,sans-Serif" font-size="10.00">sstream</text>
</a>
</g>
</g>
<!-- Node11&#45;&gt;Node12 -->
<g id="edge12" class="edge">
<title>Node11&#45;&gt;Node12</title>
<path fill="none" stroke="midnightblue" d="M1042,-117.98C1042,-109.58 1042,-96.48 1042,-85.66"/>
<polygon fill="midnightblue" stroke="midnightblue" points="1045.5,-85.51 1042,-75.51 1038.5,-85.51 1045.5,-85.51"/>
</g>
<!-- Node13&#45;&gt;Node14 -->
<g id="edge16" class="edge">
<title>Node13&#45;&gt;Node14</title>
<path fill="none" stroke="midnightblue" d="M721.38,-235.4C707.7,-226.04 689.79,-213.79 676.02,-204.38"/>
<polygon fill="midnightblue" stroke="midnightblue" points="677.89,-201.41 667.66,-198.66 673.94,-207.19 677.89,-201.41"/>
</g>
<!-- Node13&#45;&gt;Node15 -->
<g id="edge27" class="edge">
<title>Node13&#45;&gt;Node15</title>
<path fill="none" stroke="midnightblue" d="M738.63,-235.25C735.07,-220.87 729.02,-198.11 722,-179 717.95,-167.98 712.54,-156 707.99,-146.48"/>
<polygon fill="midnightblue" stroke="midnightblue" points="711.02,-144.72 703.49,-137.27 704.73,-147.79 711.02,-144.72"/>
</g>
<!-- Node16 -->
<g id="node16" class="node">
<title>Node16</title>
<g id="a_node16"><a xlink:href="result_8hpp.html" target="_top" xlink:title=" ">
<polygon fill="white" stroke="black" points="777,-56.5 777,-75.5 895,-75.5 895,-56.5 777,-56.5"/>
<text text-anchor="middle" x="836" y="-63.5" font-family="Helvetica,sans-Serif" font-size="10.00">lyra/detail/result.hpp</text>
</a>
</g>
</g>
<!-- Node13&#45;&gt;Node16 -->
<g id="edge24" class="edge">
<title>Node13&#45;&gt;Node16</title>
<path fill="none" stroke="midnightblue" d="M749.22,-235.48C766.12,-202.68 808.21,-120.95 826.86,-84.74"/>
<polygon fill="midnightblue" stroke="midnightblue" points="829.99,-86.31 831.46,-75.82 823.77,-83.11 829.99,-86.31"/>
</g>
<!-- Node13&#45;&gt;Node18 -->
<g id="edge25" class="edge">
<title>Node13&#45;&gt;Node18</title>
<path fill="none" stroke="midnightblue" d="M792.59,-237.23C882.87,-215.34 1071.75,-169.54 1173.17,-144.95"/>
<polygon fill="midnightblue" stroke="midnightblue" points="1174.11,-148.32 1183.01,-142.56 1172.46,-141.52 1174.11,-148.32"/>
</g>
<!-- Node14&#45;&gt;Node5 -->
<g id="edge23" class="edge">
<title>Node14&#45;&gt;Node5</title>
<path fill="none" stroke="midnightblue" d="M619.14,-179.47C592.53,-172.19 555.98,-160.16 527,-143 477.17,-113.5 477.33,-89.36 430,-56 412.64,-43.76 391.59,-32.39 375.03,-24.13"/>
<polygon fill="midnightblue" stroke="midnightblue" points="376.39,-20.9 365.87,-19.65 373.31,-27.19 376.39,-20.9"/>
</g>
<!-- Node14&#45;&gt;Node11 -->
<g id="edge17" class="edge">
<title>Node14&#45;&gt;Node11</title>
<path fill="none" stroke="midnightblue" d="M710.45,-179.48C780.71,-168.67 901.65,-150.08 976.42,-138.58"/>
<polygon fill="midnightblue" stroke="midnightblue" points="977.3,-141.99 986.66,-137.01 976.24,-135.07 977.3,-141.99"/>
</g>
<!-- Node14&#45;&gt;Node15 -->
<g id="edge18" class="edge">
<title>Node14&#45;&gt;Node15</title>
<path fill="none" stroke="midnightblue" d="M661.3,-179.48C667.9,-170.55 678.44,-156.31 686.69,-145.14"/>
<polygon fill="midnightblue" stroke="midnightblue" points="689.58,-147.13 692.71,-137.01 683.95,-142.97 689.58,-147.13"/>
</g>
<!-- Node15&#45;&gt;Node5 -->
<g id="edge22" class="edge">
<title>Node15&#45;&gt;Node5</title>
<path fill="none" stroke="midnightblue" d="M679.91,-117.96C647.78,-103.81 580.65,-75.13 522,-56 472.95,-40 414.68,-25.98 379.3,-18"/>
<polygon fill="midnightblue" stroke="midnightblue" points="379.61,-14.49 369.08,-15.73 378.08,-21.32 379.61,-14.49"/>
</g>
<!-- Node15&#45;&gt;Node16 -->
<g id="edge19" class="edge">
<title>Node15&#45;&gt;Node16</title>
<path fill="none" stroke="midnightblue" d="M718.63,-117.98C741.82,-107.9 780.62,-91.05 807.21,-79.5"/>
<polygon fill="midnightblue" stroke="midnightblue" points="808.63,-82.7 816.41,-75.51 805.84,-76.28 808.63,-82.7"/>
</g>
<!-- Node16&#45;&gt;Node5 -->
<g id="edge21" class="edge">
<title>Node16&#45;&gt;Node5</title>
<path fill="none" stroke="midnightblue" d="M776.65,-57.61C772.03,-57.06 767.44,-56.51 763,-56 620.18,-39.47 449.56,-21.6 379.48,-14.35"/>
<polygon fill="midnightblue" stroke="midnightblue" points="379.42,-10.82 369.11,-13.27 378.7,-17.78 379.42,-10.82"/>
</g>
<!-- Node17 -->
<g id="node17" class="node">
<title>Node17</title>
<g id="a_node17"><a xlink:title=" ">
<polygon fill="white" stroke="#bfbfbf" points="1015,-0.5 1015,-19.5 1073,-19.5 1073,-0.5 1015,-0.5"/>
<text text-anchor="middle" x="1044" y="-7.5" font-family="Helvetica,sans-Serif" font-size="10.00">memory</text>
</a>
</g>
</g>
<!-- Node16&#45;&gt;Node17 -->
<g id="edge20" class="edge">
<title>Node16&#45;&gt;Node17</title>
<path fill="none" stroke="midnightblue" d="M868.96,-56.44C905.95,-46.84 965.9,-31.28 1005.14,-21.09"/>
<polygon fill="midnightblue" stroke="midnightblue" points="1006.09,-24.46 1014.89,-18.56 1004.33,-17.68 1006.09,-24.46"/>
</g>
<!-- Node18&#45;&gt;Node7 -->
<g id="edge26" class="edge">
<title>Node18&#45;&gt;Node7</title>
<path fill="none" stroke="midnightblue" d="M1257.7,-112.35C1268.64,-102.68 1282.9,-89.25 1294,-76 1306.58,-60.97 1318.69,-42.14 1326.83,-28.62"/>
<polygon fill="midnightblue" stroke="midnightblue" points="1329.95,-30.24 1332.01,-19.85 1323.92,-26.68 1329.95,-30.24"/>
</g>
<!-- Node19&#45;&gt;Node5 -->
<g id="edge34" class="edge">
<title>Node19&#45;&gt;Node5</title>
<path fill="none" stroke="midnightblue" d="M307.03,-179.46C313.47,-152.31 333.59,-67.51 342.58,-29.62"/>
<polygon fill="midnightblue" stroke="midnightblue" points="345.99,-30.41 344.9,-19.87 339.18,-28.79 345.99,-30.41"/>
</g>
<!-- Node20 -->
<g id="node20" class="node">
<title>Node20</title>
<g id="a_node20"><a xlink:href="option__style_8hpp.html" target="_top" xlink:title=" ">
<polygon fill="white" stroke="black" points="180.5,-118 180.5,-137 299.5,-137 299.5,-118 180.5,-118"/>
<text text-anchor="middle" x="240" y="-125" font-family="Helvetica,sans-Serif" font-size="10.00">lyra/option_style.hpp</text>
</a>
</g>
</g>
<!-- Node19&#45;&gt;Node20 -->
<g id="edge32" class="edge">
<title>Node19&#45;&gt;Node20</title>
<path fill="none" stroke="midnightblue" d="M295.69,-179.48C285.55,-170.2 269.14,-155.17 256.75,-143.83"/>
<polygon fill="midnightblue" stroke="midnightblue" points="259.04,-141.18 249.3,-137.01 254.31,-146.34 259.04,-141.18"/>
</g>
<!-- Node21 -->
<g id="node21" class="node">
<title>Node21</title>
<g id="a_node21"><a xlink:title=" ">
<polygon fill="white" stroke="#bfbfbf" points="394.5,-118 394.5,-137 441.5,-137 441.5,-118 394.5,-118"/>
<text text-anchor="middle" x="418" y="-125" font-family="Helvetica,sans-Serif" font-size="10.00">vector</text>
</a>
</g>
</g>
<!-- Node19&#45;&gt;Node21 -->
<g id="edge35" class="edge">
<title>Node19&#45;&gt;Node21</title>
<path fill="none" stroke="midnightblue" d="M321.19,-179.48C339.9,-169.62 370.92,-153.29 392.8,-141.77"/>
<polygon fill="midnightblue" stroke="midnightblue" points="394.62,-144.77 401.84,-137.01 391.36,-138.57 394.62,-144.77"/>
</g>
<!-- Node20&#45;&gt;Node5 -->
<g id="edge33" class="edge">
<title>Node20&#45;&gt;Node5</title>
<path fill="none" stroke="midnightblue" d="M248.04,-117.82C265.86,-98.59 308.89,-52.14 331.89,-27.31"/>
<polygon fill="midnightblue" stroke="midnightblue" points="334.64,-29.5 338.86,-19.78 329.5,-24.74 334.64,-29.5"/>
</g>
<!-- Node22&#45;&gt;Node5 -->
<g id="edge65" class="edge">
<title>Node22&#45;&gt;Node5</title>
<path fill="none" stroke="midnightblue" d="M603.69,-415C498.7,-393.57 242.32,-323.71 171,-143 144.02,-74.63 257.06,-34.46 314.85,-18.73"/>
<polygon fill="midnightblue" stroke="midnightblue" points="315.84,-22.08 324.62,-16.16 314.06,-15.31 315.84,-22.08"/>
</g>
<!-- Node22&#45;&gt;Node6 -->
<g id="edge54" class="edge">
<title>Node22&#45;&gt;Node6</title>
<path fill="none" stroke="midnightblue" d="M694.22,-423.24C851.73,-423.67 1369.93,-421.74 1429,-378 1453.75,-359.67 1453,-343.8 1453,-313 1453,-313 1453,-313 1453,-188 1453,-151.71 1453,-109.31 1453,-85.56"/>
<polygon fill="midnightblue" stroke="midnightblue" points="1456.5,-85.51 1453,-75.51 1449.5,-85.51 1456.5,-85.51"/>
</g>
<!-- Node22&#45;&gt;Node7 -->
<g id="edge66" class="edge">
<title>Node22&#45;&gt;Node7</title>
<path fill="none" stroke="midnightblue" d="M694.25,-421.5C816.26,-417.17 1150,-403.29 1257,-378 1330.9,-360.54 1415,-388.93 1415,-313 1415,-313 1415,-313 1415,-188 1415,-154.55 1367.77,-65.99 1346.82,-28.33"/>
<polygon fill="midnightblue" stroke="midnightblue" points="1349.82,-26.54 1341.88,-19.54 1343.72,-29.97 1349.82,-26.54"/>
</g>
<!-- Node22&#45;&gt;Node10 -->
<g id="edge41" class="edge">
<title>Node22&#45;&gt;Node10</title>
<path fill="none" stroke="midnightblue" d="M650.68,-414.13C653.39,-401.18 659.52,-376.6 670,-358 675.94,-347.46 684.6,-337.16 692.25,-329.07"/>
<polygon fill="midnightblue" stroke="midnightblue" points="694.89,-331.38 699.42,-321.8 689.91,-326.46 694.89,-331.38"/>
</g>
<!-- Node22&#45;&gt;Node11 -->
<g id="edge51" class="edge">
<title>Node22&#45;&gt;Node11</title>
<path fill="none" stroke="midnightblue" d="M694.02,-421.85C785.91,-418.88 991.63,-408.89 1054,-378 1089.78,-360.28 1116,-352.92 1116,-313 1116,-313 1116,-313 1116,-249.5 1116,-206.3 1081.24,-165.48 1059.37,-144.07"/>
<polygon fill="midnightblue" stroke="midnightblue" points="1061.65,-141.41 1051.98,-137.09 1056.85,-146.5 1061.65,-141.41"/>
</g>
<!-- Node22&#45;&gt;Node15 -->
<g id="edge56" class="edge">
<title>Node22&#45;&gt;Node15</title>
<path fill="none" stroke="midnightblue" d="M642.23,-414.22C617.36,-380.81 535.06,-259.4 587,-179 599.55,-159.58 621.55,-147.55 642.75,-140.14"/>
<polygon fill="midnightblue" stroke="midnightblue" points="643.94,-143.43 652.4,-137.04 641.81,-136.76 643.94,-143.43"/>
</g>
<!-- Node22&#45;&gt;Node16 -->
<g id="edge52" class="edge">
<title>Node22&#45;&gt;Node16</title>
<path fill="none" stroke="midnightblue" d="M694.23,-419.86C797.16,-411.47 1040,-384.13 1040,-313 1040,-313 1040,-313 1040,-249.5 1040,-201.31 911.95,-114.92 858.75,-81.11"/>
<polygon fill="midnightblue" stroke="midnightblue" points="860.35,-77.98 850.02,-75.61 856.62,-83.91 860.35,-77.98"/>
</g>
<!-- Node22&#45;&gt;Node17 -->
<g id="edge64" class="edge">
<title>Node22&#45;&gt;Node17</title>
<path fill="none" stroke="midnightblue" d="M694.26,-420.96C853.31,-413.2 1377,-382.38 1377,-313 1377,-313 1377,-313 1377,-188 1377,-56.35 1171.56,-22.31 1083.41,-13.77"/>
<polygon fill="midnightblue" stroke="midnightblue" points="1083.54,-10.26 1073.26,-12.85 1082.9,-17.24 1083.54,-10.26"/>
</g>
<!-- Node22&#45;&gt;Node19 -->
<g id="edge53" class="edge">
<title>Node22&#45;&gt;Node19</title>
<path fill="none" stroke="midnightblue" d="M635.5,-414.49C621.35,-405.53 598.5,-390.95 579,-378 483.47,-314.54 371.07,-236.27 325.61,-204.46"/>
<polygon fill="midnightblue" stroke="midnightblue" points="327.4,-201.43 317.2,-198.56 323.38,-207.17 327.4,-201.43"/>
</g>
<!-- Node22&#45;&gt;Node20 -->
<g id="edge55" class="edge">
<title>Node22&#45;&gt;Node20</title>
<path fill="none" stroke="midnightblue" d="M627.38,-414.37C606.31,-405.77 573.53,-391.88 546,-378 528.2,-369.02 244.98,-216.26 235,-199 225.91,-183.27 229,-162.15 233.23,-147.14"/>
<polygon fill="midnightblue" stroke="midnightblue" points="236.62,-148.05 236.35,-137.45 229.96,-145.9 236.62,-148.05"/>
</g>
<!-- Node23 -->
<g id="node23" class="node">
<title>Node23</title>
<g id="a_node23"><a xlink:href="args_8hpp.html" target="_top" xlink:title=" ">
<polygon fill="white" stroke="black" points="422,-179.5 422,-198.5 502,-198.5 502,-179.5 422,-179.5"/>
<text text-anchor="middle" x="462" y="-186.5" font-family="Helvetica,sans-Serif" font-size="10.00">lyra/args.hpp</text>
</a>
</g>
</g>
<!-- Node22&#45;&gt;Node23 -->
<g id="edge37" class="edge">
<title>Node22&#45;&gt;Node23</title>
<path fill="none" stroke="midnightblue" d="M638.06,-414.29C627.51,-405.63 611.36,-391.7 599,-378 546.56,-319.86 494.98,-241.96 473.03,-207.57"/>
<polygon fill="midnightblue" stroke="midnightblue" points="475.73,-205.3 467.42,-198.72 469.82,-209.04 475.73,-205.3"/>
</g>
<!-- Node25 -->
<g id="node25" class="node">
<title>Node25</title>
<g id="a_node25"><a xlink:href="choices_8hpp.html" target="_top" xlink:title=" ">
<polygon fill="white" stroke="black" points="808.5,-179.5 808.5,-198.5 935.5,-198.5 935.5,-179.5 808.5,-179.5"/>
<text text-anchor="middle" x="872" y="-186.5" font-family="Helvetica,sans-Serif" font-size="10.00">lyra/detail/choices.hpp</text>
</a>
</g>
</g>
<!-- Node22&#45;&gt;Node25 -->
<g id="edge42" class="edge">
<title>Node22&#45;&gt;Node25</title>
<path fill="none" stroke="midnightblue" d="M687.44,-414.5C711.04,-407.74 740.71,-396.31 762,-378 818.11,-329.75 852.71,-245.42 865.9,-208.36"/>
<polygon fill="midnightblue" stroke="midnightblue" points="869.23,-209.44 869.18,-198.84 862.61,-207.16 869.23,-209.44"/>
</g>
<!-- Node22&#45;&gt;Node26 -->
<g id="edge57" class="edge">
<title>Node22&#45;&gt;Node26</title>
<path fill="none" stroke="midnightblue" d="M603.91,-417.12C527.86,-407.2 374.31,-387.17 291.31,-376.34"/>
<polygon fill="midnightblue" stroke="midnightblue" points="291.67,-372.86 281.3,-375.04 290.76,-379.8 291.67,-372.86"/>
</g>
<!-- Node28 -->
<g id="node28" class="node">
<title>Node28</title>
<g id="a_node28"><a xlink:href="val_8hpp.html" target="_top" xlink:title=" ">
<polygon fill="white" stroke="black" points="679,-358.5 679,-377.5 753,-377.5 753,-358.5 679,-358.5"/>
<text text-anchor="middle" x="716" y="-365.5" font-family="Helvetica,sans-Serif" font-size="10.00">lyra/val.hpp</text>
</a>
</g>
</g>
<!-- Node22&#45;&gt;Node28 -->
<g id="edge61" class="edge">
<title>Node22&#45;&gt;Node28</title>
<path fill="none" stroke="midnightblue" d="M659.76,-414.32C669.77,-406.26 684.89,-394.08 696.93,-384.37"/>
<polygon fill="midnightblue" stroke="midnightblue" points="699.45,-386.83 705.04,-377.83 695.06,-381.38 699.45,-386.83"/>
</g>
<!-- Node23&#45;&gt;Node5 -->
<g id="edge39" class="edge">
<title>Node23&#45;&gt;Node5</title>
<path fill="none" stroke="midnightblue" d="M462.35,-179.49C462.58,-164.85 461.51,-134.32 450,-112 430.79,-74.73 392.65,-43 368.55,-25.52"/>
<polygon fill="midnightblue" stroke="midnightblue" points="370.56,-22.65 360.38,-19.73 366.52,-28.36 370.56,-22.65"/>
</g>
<!-- Node23&#45;&gt;Node21 -->
<g id="edge40" class="edge">
<title>Node23&#45;&gt;Node21</title>
<path fill="none" stroke="midnightblue" d="M455.7,-179.48C449.1,-170.55 438.56,-156.31 430.31,-145.14"/>
<polygon fill="midnightblue" stroke="midnightblue" points="433.05,-142.97 424.29,-137.01 427.42,-147.13 433.05,-142.97"/>
</g>
<!-- Node24 -->
<g id="node24" class="node">
<title>Node24</title>
<g id="a_node24"><a xlink:title=" ">
<polygon fill="white" stroke="#bfbfbf" points="536.5,-118 536.5,-137 619.5,-137 619.5,-118 536.5,-118"/>
<text text-anchor="middle" x="578" y="-125" font-family="Helvetica,sans-Serif" font-size="10.00">initializer_list</text>
</a>
</g>
</g>
<!-- Node23&#45;&gt;Node24 -->
<g id="edge38" class="edge">
<title>Node23&#45;&gt;Node24</title>
<path fill="none" stroke="midnightblue" d="M478.62,-179.48C497.92,-169.58 529.96,-153.14 552.43,-141.62"/>
<polygon fill="midnightblue" stroke="midnightblue" points="554.11,-144.69 561.41,-137.01 550.92,-138.46 554.11,-144.69"/>
</g>
<!-- Node25&#45;&gt;Node5 -->
<g id="edge48" class="edge">
<title>Node25&#45;&gt;Node5</title>
<path fill="none" stroke="midnightblue" d="M862.84,-179.37C845.73,-163.7 807.2,-130.51 769,-112 633.58,-46.39 452.57,-21.68 379.56,-13.98"/>
<polygon fill="midnightblue" stroke="midnightblue" points="379.49,-10.46 369.19,-12.93 378.78,-17.42 379.49,-10.46"/>
</g>
<!-- Node25&#45;&gt;Node7 -->
<g id="edge49" class="edge">
<title>Node25&#45;&gt;Node7</title>
<path fill="none" stroke="midnightblue" d="M935.71,-180.25C998.99,-171.9 1091.19,-157.82 1124,-143 1144.18,-133.89 1144.71,-124.48 1163,-112 1213.64,-77.45 1276.62,-42.8 1311.23,-24.43"/>
<polygon fill="midnightblue" stroke="midnightblue" points="1312.99,-27.46 1320.2,-19.69 1309.72,-21.27 1312.99,-27.46"/>
</g>
<!-- Node25&#45;&gt;Node11 -->
<g id="edge43" class="edge">
<title>Node25&#45;&gt;Node11</title>
<path fill="none" stroke="midnightblue" d="M896.36,-179.48C925.64,-169.22 974.97,-151.96 1008,-140.4"/>
<polygon fill="midnightblue" stroke="midnightblue" points="1009.41,-143.62 1017.69,-137.01 1007.09,-137.01 1009.41,-143.62"/>
</g>
<!-- Node25&#45;&gt;Node15 -->
<g id="edge46" class="edge">
<title>Node25&#45;&gt;Node15</title>
<path fill="none" stroke="midnightblue" d="M847.21,-179.48C817.41,-169.22 767.21,-151.96 733.6,-140.4"/>
<polygon fill="midnightblue" stroke="midnightblue" points="734.34,-136.95 723.74,-137.01 732.06,-143.57 734.34,-136.95"/>
</g>
<!-- Node25&#45;&gt;Node16 -->
<g id="edge44" class="edge">
<title>Node25&#45;&gt;Node16</title>
<path fill="none" stroke="midnightblue" d="M869.41,-179.3C863.6,-159.76 849.41,-112.06 841.52,-85.55"/>
<polygon fill="midnightblue" stroke="midnightblue" points="844.77,-84.21 838.57,-75.62 838.06,-86.21 844.77,-84.21"/>
</g>
<!-- Node25&#45;&gt;Node18 -->
<g id="edge45" class="edge">
<title>Node25&#45;&gt;Node18</title>
<path fill="none" stroke="midnightblue" d="M927.47,-179.48C984.93,-170.6 1077.31,-156.17 1157,-143 1158.46,-142.76 1159.93,-142.51 1161.42,-142.27"/>
<polygon fill="midnightblue" stroke="midnightblue" points="1162.06,-145.71 1171.34,-140.6 1160.9,-138.81 1162.06,-145.71"/>
</g>
<!-- Node25&#45;&gt;Node21 -->
<g id="edge50" class="edge">
<title>Node25&#45;&gt;Node21</title>
<path fill="none" stroke="midnightblue" d="M808.41,-179.75C739.18,-170.77 625.21,-155.94 527,-143 501.79,-139.68 473.3,-135.89 451.78,-133.02"/>
<polygon fill="midnightblue" stroke="midnightblue" points="452.19,-129.54 441.81,-131.69 451.26,-136.48 452.19,-129.54"/>
</g>
<!-- Node25&#45;&gt;Node24 -->
<g id="edge47" class="edge">
<title>Node25&#45;&gt;Node24</title>
<path fill="none" stroke="midnightblue" d="M816.92,-179.46C767.25,-171.37 692.34,-158.22 628,-143 623.89,-142.03 619.62,-140.93 615.38,-139.78"/>
<polygon fill="midnightblue" stroke="midnightblue" points="616.21,-136.38 605.64,-137.05 614.32,-143.12 616.21,-136.38"/>
</g>
<!-- Node26&#45;&gt;Node5 -->
<g id="edge60" class="edge">
<title>Node26&#45;&gt;Node5</title>
<path fill="none" stroke="midnightblue" d="M213.92,-358.44C179.26,-342.79 114,-306.1 114,-251.5 114,-251.5 114,-251.5 114,-126.5 114,-93.4 113.28,-78.01 138,-56 163.87,-32.97 263.11,-19.6 314.99,-14.05"/>
<polygon fill="midnightblue" stroke="midnightblue" points="315.41,-17.52 324.99,-13.01 314.69,-10.56 315.41,-17.52"/>
</g>
<!-- Node26&#45;&gt;Node17 -->
<g id="edge58" class="edge">
<title>Node26&#45;&gt;Node17</title>
<path fill="none" stroke="midnightblue" d="M281.11,-359.48C407.15,-338.84 751.41,-281.74 801,-266 867.9,-244.76 901.12,-254.56 944,-199 968.02,-167.88 943.63,-147.75 960,-112 975.87,-77.34 1006.82,-44.89 1026.39,-26.54"/>
<polygon fill="midnightblue" stroke="midnightblue" points="1029,-28.9 1034.01,-19.57 1024.27,-23.74 1029,-28.9"/>
</g>
<!-- Node27 -->
<g id="node27" class="node">
<title>Node27</title>
<g id="a_node27"><a xlink:title=" ">
<polygon fill="white" stroke="#bfbfbf" points="206.5,-302.5 206.5,-321.5 263.5,-321.5 263.5,-302.5 206.5,-302.5"/>
<text text-anchor="middle" x="235" y="-309.5" font-family="Helvetica,sans-Serif" font-size="10.00">ostream</text>
</a>
</g>
</g>
<!-- Node26&#45;&gt;Node27 -->
<g id="edge59" class="edge">
<title>Node26&#45;&gt;Node27</title>
<path fill="none" stroke="midnightblue" d="M235,-358.08C235,-351.01 235,-340.86 235,-331.99"/>
<polygon fill="midnightblue" stroke="midnightblue" points="238.5,-331.75 235,-321.75 231.5,-331.75 238.5,-331.75"/>
</g>
<!-- Node28&#45;&gt;Node10 -->
<g id="edge62" class="edge">
<title>Node28&#45;&gt;Node10</title>
<path fill="none" stroke="midnightblue" d="M714.84,-358.08C713.92,-350.93 712.58,-340.64 711.42,-331.69"/>
<polygon fill="midnightblue" stroke="midnightblue" points="714.89,-331.22 710.13,-321.75 707.95,-332.12 714.89,-331.22"/>
</g>
<!-- Node28&#45;&gt;Node17 -->
<g id="edge63" class="edge">
<title>Node28&#45;&gt;Node17</title>
<path fill="none" stroke="midnightblue" d="M753.16,-366.78C863.15,-363.86 1187.65,-338.37 1320,-143 1327.73,-131.59 1328.34,-122.97 1320,-112 1283.7,-64.28 1246.43,-96.25 1190,-76 1147.06,-60.59 1099.06,-38.17 1070.2,-24.09"/>
<polygon fill="midnightblue" stroke="midnightblue" points="1071.71,-20.93 1061.19,-19.66 1068.62,-27.21 1071.71,-20.93"/>
</g>
<!-- Node30&#45;&gt;Node5 -->
<g id="edge76" class="edge">
<title>Node30&#45;&gt;Node5</title>
<path fill="none" stroke="midnightblue" d="M67.41,-470.44C58.13,-452.29 38,-408.38 38,-369 38,-369 38,-369 38,-126.5 38,-87.3 57.58,-76.49 91,-56 128.11,-33.25 254.67,-19.23 314.79,-13.71"/>
<polygon fill="midnightblue" stroke="midnightblue" points="315.22,-17.18 324.86,-12.8 314.59,-10.21 315.22,-17.18"/>
</g>
<!-- Node30&#45;&gt;Node22 -->
<g id="edge75" class="edge">
<title>Node30&#45;&gt;Node22</title>
<path fill="none" stroke="midnightblue" d="M116.21,-471.21C119.18,-470.78 122.13,-470.37 125,-470 295.19,-448.28 497.85,-434.2 593.62,-428.25"/>
<polygon fill="midnightblue" stroke="midnightblue" points="593.89,-431.74 603.66,-427.63 593.46,-424.75 593.89,-431.74"/>
</g>
</g>
</svg>
