<?xml version="1.0" encoding="UTF-8" standalone="no"?>
<!DOCTYPE svg PUBLIC "-//W3C//DTD SVG 1.1//EN"
 "http://www.w3.org/Graphics/SVG/1.1/DTD/svg11.dtd">
<!-- Generated by graphviz version 2.43.0 (0)
 -->
<!-- Title: utils/data.h Pages: 1 -->
<svg width="462pt" height="84pt"
 viewBox="0.00 0.00 462.00 84.00" xmlns="http://www.w3.org/2000/svg" xmlns:xlink="http://www.w3.org/1999/xlink">
<g id="graph0" class="graph" transform="scale(1 1) rotate(0) translate(4 80)">
<title>utils/data.h</title>
<polygon fill="white" stroke="transparent" points="-4,4 -4,-80 458,-80 458,4 -4,4"/>
<!-- Node1 -->
<g id="node1" class="node">
<title>Node1</title>
<g id="a_node1"><a xlink:title=" ">
<polygon fill="#bfbfbf" stroke="black" points="201,-56.5 201,-75.5 272,-75.5 272,-56.5 201,-56.5"/>
<text text-anchor="middle" x="236.5" y="-63.5" font-family="Helvetica,sans-Serif" font-size="10.00">utils/data.h</text>
</a>
</g>
</g>
<!-- Node2 -->
<g id="node2" class="node">
<title>Node2</title>
<g id="a_node2"><a xlink:href="main_8cpp.html" target="_top" xlink:title=" ">
<polygon fill="white" stroke="black" points="0,-0.5 0,-19.5 89,-19.5 89,-0.5 0,-0.5"/>
<text text-anchor="middle" x="44.5" y="-7.5" font-family="Helvetica,sans-Serif" font-size="10.00">main/main.cpp</text>
</a>
</g>
</g>
<!-- Node1&#45;&gt;Node2 -->
<g id="edge1" class="edge">
<title>Node1&#45;&gt;Node2</title>
<path fill="none" stroke="midnightblue" d="M196.32,-53.7C160.08,-43.51 107.59,-28.74 74.78,-19.52"/>
<polygon fill="midnightblue" stroke="midnightblue" points="195.5,-57.11 206.08,-56.44 197.4,-50.37 195.5,-57.11"/>
</g>
<!-- Node3 -->
<g id="node3" class="node">
<title>Node3</title>
<g id="a_node3"><a xlink:href="multisurface_8cpp.html" target="_top" xlink:title=" ">
<polygon fill="white" stroke="black" points="107.5,-0.5 107.5,-19.5 233.5,-19.5 233.5,-0.5 107.5,-0.5"/>
<text text-anchor="middle" x="170.5" y="-7.5" font-family="Helvetica,sans-Serif" font-size="10.00">main/multisurface.cpp</text>
</a>
</g>
</g>
<!-- Node1&#45;&gt;Node3 -->
<g id="edge2" class="edge">
<title>Node1&#45;&gt;Node3</title>
<path fill="none" stroke="midnightblue" d="M217.95,-49.82C206.12,-40.15 191.21,-27.95 181.3,-19.83"/>
<polygon fill="midnightblue" stroke="midnightblue" points="215.94,-52.7 225.9,-56.32 220.37,-47.28 215.94,-52.7"/>
</g>
<!-- Node4 -->
<g id="node4" class="node">
<title>Node4</title>
<g id="a_node4"><a xlink:href="options_8cpp.html" target="_top" xlink:title=" ">
<polygon fill="white" stroke="black" points="252,-0.5 252,-19.5 353,-19.5 353,-0.5 252,-0.5"/>
<text text-anchor="middle" x="302.5" y="-7.5" font-family="Helvetica,sans-Serif" font-size="10.00">main/options.cpp</text>
</a>
</g>
</g>
<!-- Node1&#45;&gt;Node4 -->
<g id="edge3" class="edge">
<title>Node1&#45;&gt;Node4</title>
<path fill="none" stroke="midnightblue" d="M255.05,-49.82C266.88,-40.15 281.79,-27.95 291.7,-19.83"/>
<polygon fill="midnightblue" stroke="midnightblue" points="252.63,-47.28 247.1,-56.32 257.06,-52.7 252.63,-47.28"/>
</g>
<!-- Node5 -->
<g id="node5" class="node">
<title>Node5</title>
<g id="a_node5"><a xlink:href="data_8cpp.html" target="_top" xlink:title=" ">
<polygon fill="white" stroke="black" points="371,-0.5 371,-19.5 454,-19.5 454,-0.5 371,-0.5"/>
<text text-anchor="middle" x="412.5" y="-7.5" font-family="Helvetica,sans-Serif" font-size="10.00">utils/data.cpp</text>
</a>
</g>
</g>
<!-- Node1&#45;&gt;Node5 -->
<g id="edge4" class="edge">
<title>Node1&#45;&gt;Node5</title>
<path fill="none" stroke="midnightblue" d="M274.19,-53.44C307.37,-43.26 354.93,-28.66 384.74,-19.52"/>
<polygon fill="midnightblue" stroke="midnightblue" points="272.92,-50.16 264.39,-56.44 274.97,-56.86 272.92,-50.16"/>
</g>
</g>
</svg>
