<?xml version="1.0" encoding="UTF-8" standalone="no"?>
<!DOCTYPE svg PUBLIC "-//W3C//DTD SVG 1.1//EN"
 "http://www.w3.org/Graphics/SVG/1.1/DTD/svg11.dtd">
<!-- Generated by graphviz version 2.43.0 (0)
 -->
<!-- Title: main/dh2operator.cpp Pages: 1 -->
<!--zoomable 252 -->
<svg id="main" version="1.1" xmlns="http://www.w3.org/2000/svg" xmlns:xlink="http://www.w3.org/1999/xlink" xml:space="preserve" onload="init(evt)">
<style type="text/css"><![CDATA[
.edge:hover path { stroke: red; }
.edge:hover polygon { stroke: red; fill: red; }
]]></style>
<script type="text/javascript"><![CDATA[
var edges = document.getElementsByTagName('g');
if (edges && edges.length) {
  for (var i=0;i<edges.length;i++) {
    if (edges[i].id.substr(0,4)=='edge') {
      edges[i].setAttribute('class','edge');
    }
  }
}
]]></script>
        <defs>
                <circle id="rim" cx="0" cy="0" r="7"/>
                <circle id="rim2" cx="0" cy="0" r="3.5"/>
                <g id="zoomPlus">
                        <use xlink:href="#rim" fill="#404040">
                                <set attributeName="fill" to="#808080" begin="zoomplus.mouseover" end="zoomplus.mouseout"/>
                        </use>
                        <path d="M-4,0h8M0,-4v8" fill="none" stroke="white" stroke-width="1.5" pointer-events="none"/>
                </g>
                <g id="zoomMin">
                        <use xlink:href="#rim" fill="#404040">
                                <set attributeName="fill" to="#808080" begin="zoomminus.mouseover" end="zoomminus.mouseout"/>
                        </use>
                        <path d="M-4,0h8" fill="none" stroke="white" stroke-width="1.5" pointer-events="none"/>
                </g>
                <g id="dirArrow">
                        <path fill="none" stroke="white" stroke-width="1.5" d="M0,-3.0v7 M-2.5,-0.5L0,-3.0L2.5,-0.5"/>
                </g>
               <g id="resetDef">
                       <use xlink:href="#rim2" fill="#404040">
                               <set attributeName="fill" to="#808080" begin="reset.mouseover" end="reset.mouseout"/>
                       </use>
               </g>
        </defs>

<script type="text/javascript">
var viewWidth = 1134;
var viewHeight = 252;
var sectionId = 'dynsection-0';
</script>
<script xlink:href="svgpan.js"/>
<svg id="graph" class="graph">
<g id="viewport">
<title>main/dh2operator.cpp</title>
<polygon fill="white" stroke="transparent" points="-4,4 -4,-248 1129.5,-248 1129.5,4 -4,4"/>
<!-- Node1 -->
<g id="node1" class="node">
<title>Node1</title>
<g id="a_node1"><a xlink:title=" ">
<polygon fill="#bfbfbf" stroke="black" points="451.5,-224.5 451.5,-243.5 575.5,-243.5 575.5,-224.5 451.5,-224.5"/>
<text text-anchor="middle" x="513.5" y="-231.5" font-family="Helvetica,sans-Serif" font-size="10.00">main/dh2operator.cpp</text>
</a>
</g>
</g>
<!-- Node2 -->
<g id="node2" class="node">
<title>Node2</title>
<g id="a_node2"><a xlink:href="dh2operator_8h.html" target="_top" xlink:title=" ">
<polygon fill="white" stroke="black" points="165,-168.5 165,-187.5 250,-187.5 250,-168.5 165,-168.5"/>
<text text-anchor="middle" x="207.5" y="-175.5" font-family="Helvetica,sans-Serif" font-size="10.00">dh2operator.h</text>
</a>
</g>
</g>
<!-- Node1&#45;&gt;Node2 -->
<g id="edge1" class="edge">
<title>Node1&#45;&gt;Node2</title>
<path fill="none" stroke="midnightblue" d="M465.01,-224.44C409.21,-214.6 317.88,-198.48 260.32,-188.32"/>
<polygon fill="midnightblue" stroke="midnightblue" points="260.78,-184.85 250.33,-186.56 259.57,-191.74 260.78,-184.85"/>
</g>
<!-- Node4 -->
<g id="node4" class="node">
<title>Node4</title>
<g id="a_node4"><a xlink:href="cutils_8h.html" target="_top" xlink:title=" ">
<polygon fill="white" stroke="black" points="246.5,-112.5 246.5,-131.5 322.5,-131.5 322.5,-112.5 246.5,-112.5"/>
<text text-anchor="middle" x="284.5" y="-119.5" font-family="Helvetica,sans-Serif" font-size="10.00">utils/cutils.h</text>
</a>
</g>
</g>
<!-- Node1&#45;&gt;Node4 -->
<g id="edge21" class="edge">
<title>Node1&#45;&gt;Node4</title>
<path fill="none" stroke="midnightblue" d="M493.62,-224.5C473.16,-215.66 440.4,-201.29 412.5,-188 376.59,-170.89 335.7,-149.85 310,-136.43"/>
<polygon fill="midnightblue" stroke="midnightblue" points="311.42,-133.22 300.94,-131.68 308.17,-139.42 311.42,-133.22"/>
</g>
<!-- Node8 -->
<g id="node8" class="node">
<title>Node8</title>
<g id="a_node8"><a xlink:href="compress_8h.html" target="_top" xlink:title=" ">
<polygon fill="white" stroke="black" points="268,-168.5 268,-187.5 341,-187.5 341,-168.5 268,-168.5"/>
<text text-anchor="middle" x="304.5" y="-175.5" font-family="Helvetica,sans-Serif" font-size="10.00">compress.h</text>
</a>
</g>
</g>
<!-- Node1&#45;&gt;Node8 -->
<g id="edge7" class="edge">
<title>Node1&#45;&gt;Node8</title>
<path fill="none" stroke="midnightblue" d="M480.38,-224.44C444.38,-215.14 386.73,-200.25 347.31,-190.06"/>
<polygon fill="midnightblue" stroke="midnightblue" points="348.02,-186.63 337.46,-187.52 346.27,-193.41 348.02,-186.63"/>
</g>
<!-- Node9 -->
<g id="node9" class="node">
<title>Node9</title>
<g id="a_node9"><a xlink:title=" ">
<polygon fill="white" stroke="#bfbfbf" points="515.5,-168.5 515.5,-187.5 607.5,-187.5 607.5,-168.5 515.5,-168.5"/>
<text text-anchor="middle" x="561.5" y="-175.5" font-family="Helvetica,sans-Serif" font-size="10.00">h2lib/dcluster.h</text>
</a>
</g>
</g>
<!-- Node1&#45;&gt;Node9 -->
<g id="edge10" class="edge">
<title>Node1&#45;&gt;Node9</title>
<path fill="none" stroke="midnightblue" d="M521.43,-224.08C528.35,-216.3 538.57,-204.8 546.95,-195.37"/>
<polygon fill="midnightblue" stroke="midnightblue" points="549.69,-197.55 553.72,-187.75 544.46,-192.9 549.69,-197.55"/>
</g>
<!-- Node10 -->
<g id="node10" class="node">
<title>Node10</title>
<g id="a_node10"><a xlink:title=" ">
<polygon fill="white" stroke="#bfbfbf" points="626,-168.5 626,-187.5 759,-187.5 759,-168.5 626,-168.5"/>
<text text-anchor="middle" x="692.5" y="-175.5" font-family="Helvetica,sans-Serif" font-size="10.00">h2lib/dh2compression.h</text>
</a>
</g>
</g>
<!-- Node1&#45;&gt;Node10 -->
<g id="edge11" class="edge">
<title>Node1&#45;&gt;Node10</title>
<path fill="none" stroke="midnightblue" d="M541.86,-224.44C572.24,-215.28 620.61,-200.69 654.32,-190.52"/>
<polygon fill="midnightblue" stroke="midnightblue" points="655.71,-193.76 664.27,-187.52 653.68,-187.05 655.71,-193.76"/>
</g>
<!-- Node11 -->
<g id="node11" class="node">
<title>Node11</title>
<g id="a_node11"><a xlink:title=" ">
<polygon fill="white" stroke="#bfbfbf" points="777,-168.5 777,-187.5 874,-187.5 874,-168.5 777,-168.5"/>
<text text-anchor="middle" x="825.5" y="-175.5" font-family="Helvetica,sans-Serif" font-size="10.00">h2lib/h2matrix.h</text>
</a>
</g>
</g>
<!-- Node1&#45;&gt;Node11 -->
<g id="edge12" class="edge">
<title>Node1&#45;&gt;Node11</title>
<path fill="none" stroke="midnightblue" d="M562.94,-224.44C618.33,-214.86 708.05,-199.33 766.91,-189.14"/>
<polygon fill="midnightblue" stroke="midnightblue" points="767.55,-192.58 776.81,-187.43 766.36,-185.68 767.55,-192.58"/>
</g>
<!-- Node12 -->
<g id="node12" class="node">
<title>Node12</title>
<g id="a_node12"><a xlink:title=" ">
<polygon fill="white" stroke="#bfbfbf" points="892,-168.5 892,-187.5 1005,-187.5 1005,-168.5 892,-168.5"/>
<text text-anchor="middle" x="948.5" y="-175.5" font-family="Helvetica,sans-Serif" font-size="10.00">h2lib/helmholtz3d.h</text>
</a>
</g>
</g>
<!-- Node1&#45;&gt;Node12 -->
<g id="edge13" class="edge">
<title>Node1&#45;&gt;Node12</title>
<path fill="none" stroke="midnightblue" d="M575.73,-225.75C647.14,-217.36 768.03,-202.94 881.53,-188.24"/>
<polygon fill="midnightblue" stroke="midnightblue" points="882.32,-191.67 891.79,-186.91 881.42,-184.73 882.32,-191.67"/>
</g>
<!-- Node13 -->
<g id="node13" class="node">
<title>Node13</title>
<g id="a_node13"><a xlink:title=" ">
<polygon fill="white" stroke="#bfbfbf" points="1023.5,-168.5 1023.5,-187.5 1125.5,-187.5 1125.5,-168.5 1023.5,-168.5"/>
<text text-anchor="middle" x="1074.5" y="-175.5" font-family="Helvetica,sans-Serif" font-size="10.00">h2lib/truncation.h</text>
</a>
</g>
</g>
<!-- Node1&#45;&gt;Node13 -->
<g id="edge14" class="edge">
<title>Node1&#45;&gt;Node13</title>
<path fill="none" stroke="midnightblue" d="M575.72,-228.6C668.61,-221.78 849.3,-207.48 1013.19,-188.09"/>
<polygon fill="midnightblue" stroke="midnightblue" points="1013.95,-191.53 1023.46,-186.87 1013.12,-184.57 1013.95,-191.53"/>
</g>
<!-- Node14 -->
<g id="node14" class="node">
<title>Node14</title>
<g id="a_node14"><a xlink:href="logger_8h.html" target="_top" xlink:title=" ">
<polygon fill="white" stroke="black" points="362.5,-112.5 362.5,-131.5 452.5,-131.5 452.5,-112.5 362.5,-112.5"/>
<text text-anchor="middle" x="407.5" y="-119.5" font-family="Helvetica,sans-Serif" font-size="10.00">logger/logger.h</text>
</a>
</g>
</g>
<!-- Node1&#45;&gt;Node14 -->
<g id="edge15" class="edge">
<title>Node1&#45;&gt;Node14</title>
<path fill="none" stroke="midnightblue" d="M483.76,-224.37C464.84,-217.44 441.2,-205.85 426.5,-188 415.65,-174.82 410.99,-155.69 409,-141.59"/>
<polygon fill="midnightblue" stroke="midnightblue" points="412.47,-141.13 407.9,-131.57 405.51,-141.89 412.47,-141.13"/>
</g>
<!-- Node18 -->
<g id="node18" class="node">
<title>Node18</title>
<g id="a_node18"><a xlink:href="options_8h.html" target="_top" xlink:title=" ">
<polygon fill="white" stroke="black" points="435.5,-168.5 435.5,-187.5 497.5,-187.5 497.5,-168.5 435.5,-168.5"/>
<text text-anchor="middle" x="466.5" y="-175.5" font-family="Helvetica,sans-Serif" font-size="10.00">options.h</text>
</a>
</g>
</g>
<!-- Node1&#45;&gt;Node18 -->
<g id="edge22" class="edge">
<title>Node1&#45;&gt;Node18</title>
<path fill="none" stroke="midnightblue" d="M505.74,-224.08C498.96,-216.3 488.96,-204.8 480.74,-195.37"/>
<polygon fill="midnightblue" stroke="midnightblue" points="483.32,-193 474.12,-187.75 478.04,-197.59 483.32,-193"/>
</g>
<!-- Node3 -->
<g id="node3" class="node">
<title>Node3</title>
<g id="a_node3"><a xlink:title=" ">
<polygon fill="white" stroke="#bfbfbf" points="186.5,-112.5 186.5,-131.5 228.5,-131.5 228.5,-112.5 186.5,-112.5"/>
<text text-anchor="middle" x="207.5" y="-119.5" font-family="Helvetica,sans-Serif" font-size="10.00">array</text>
</a>
</g>
</g>
<!-- Node2&#45;&gt;Node3 -->
<g id="edge2" class="edge">
<title>Node2&#45;&gt;Node3</title>
<path fill="none" stroke="midnightblue" d="M207.5,-168.08C207.5,-161.01 207.5,-150.86 207.5,-141.99"/>
<polygon fill="midnightblue" stroke="midnightblue" points="211,-141.75 207.5,-131.75 204,-141.75 211,-141.75"/>
</g>
<!-- Node2&#45;&gt;Node4 -->
<g id="edge3" class="edge">
<title>Node2&#45;&gt;Node4</title>
<path fill="none" stroke="midnightblue" d="M219.87,-168.32C231.66,-160.06 249.63,-147.45 263.64,-137.63"/>
<polygon fill="midnightblue" stroke="midnightblue" points="265.98,-140.26 272.16,-131.65 261.96,-134.53 265.98,-140.26"/>
</g>
<!-- Node5 -->
<g id="node5" class="node">
<title>Node5</title>
<g id="a_node5"><a xlink:title=" ">
<polygon fill="white" stroke="#bfbfbf" points="231,-0.5 231,-19.5 300,-19.5 300,-0.5 231,-0.5"/>
<text text-anchor="middle" x="265.5" y="-7.5" font-family="Helvetica,sans-Serif" font-size="10.00">type_traits</text>
</a>
</g>
</g>
<!-- Node4&#45;&gt;Node5 -->
<g id="edge4" class="edge">
<title>Node4&#45;&gt;Node5</title>
<path fill="none" stroke="midnightblue" d="M275.48,-112.34C267.43,-103.93 256.2,-90.36 251.5,-76 246.4,-60.42 251.27,-42.12 256.61,-28.91"/>
<polygon fill="midnightblue" stroke="midnightblue" points="259.91,-30.12 260.82,-19.56 253.53,-27.25 259.91,-30.12"/>
</g>
<!-- Node6 -->
<g id="node6" class="node">
<title>Node6</title>
<g id="a_node6"><a xlink:title=" ">
<polygon fill="white" stroke="#bfbfbf" points="121.5,-56.5 121.5,-75.5 199.5,-75.5 199.5,-56.5 121.5,-56.5"/>
<text text-anchor="middle" x="160.5" y="-63.5" font-family="Helvetica,sans-Serif" font-size="10.00">h2lib/basic.h</text>
</a>
</g>
</g>
<!-- Node4&#45;&gt;Node6 -->
<g id="edge5" class="edge">
<title>Node4&#45;&gt;Node6</title>
<path fill="none" stroke="midnightblue" d="M264.85,-112.44C244.54,-103.6 212.6,-89.69 189.4,-79.59"/>
<polygon fill="midnightblue" stroke="midnightblue" points="190.62,-76.3 180.06,-75.52 187.83,-82.72 190.62,-76.3"/>
</g>
<!-- Node7 -->
<g id="node7" class="node">
<title>Node7</title>
<g id="a_node7"><a xlink:title=" ">
<polygon fill="white" stroke="#bfbfbf" points="0,-56.5 0,-75.5 103,-75.5 103,-56.5 0,-56.5"/>
<text text-anchor="middle" x="51.5" y="-63.5" font-family="Helvetica,sans-Serif" font-size="10.00">h2lib/dh2matrix.h</text>
</a>
</g>
</g>
<!-- Node4&#45;&gt;Node7 -->
<g id="edge6" class="edge">
<title>Node4&#45;&gt;Node7</title>
<path fill="none" stroke="midnightblue" d="M247.58,-112.44C207.1,-103.06 142.08,-87.99 98.12,-77.8"/>
<polygon fill="midnightblue" stroke="midnightblue" points="98.78,-74.36 88.25,-75.52 97.2,-81.18 98.78,-74.36"/>
</g>
<!-- Node8&#45;&gt;Node3 -->
<g id="edge8" class="edge">
<title>Node8&#45;&gt;Node3</title>
<path fill="none" stroke="midnightblue" d="M288.92,-168.32C273.5,-159.74 249.69,-146.49 231.79,-136.52"/>
<polygon fill="midnightblue" stroke="midnightblue" points="233.49,-133.46 223.05,-131.65 230.08,-139.58 233.49,-133.46"/>
</g>
<!-- Node8&#45;&gt;Node4 -->
<g id="edge9" class="edge">
<title>Node8&#45;&gt;Node4</title>
<path fill="none" stroke="midnightblue" d="M301.2,-168.08C298.52,-160.85 294.65,-150.41 291.31,-141.4"/>
<polygon fill="midnightblue" stroke="midnightblue" points="294.5,-139.91 287.74,-131.75 287.93,-142.34 294.5,-139.91"/>
</g>
<!-- Node14&#45;&gt;Node5 -->
<g id="edge16" class="edge">
<title>Node14&#45;&gt;Node5</title>
<path fill="none" stroke="midnightblue" d="M362.42,-114.78C336.34,-108.94 304.77,-97.67 284.5,-76 272.84,-63.54 268.29,-44.3 266.54,-29.99"/>
<polygon fill="midnightblue" stroke="midnightblue" points="270.01,-29.44 265.66,-19.78 263.03,-30.05 270.01,-29.44"/>
</g>
<!-- Node15 -->
<g id="node15" class="node">
<title>Node15</title>
<g id="a_node15"><a xlink:title=" ">
<polygon fill="white" stroke="#bfbfbf" points="389.5,-56.5 389.5,-75.5 447.5,-75.5 447.5,-56.5 389.5,-56.5"/>
<text text-anchor="middle" x="418.5" y="-63.5" font-family="Helvetica,sans-Serif" font-size="10.00">memory</text>
</a>
</g>
</g>
<!-- Node14&#45;&gt;Node15 -->
<g id="edge17" class="edge">
<title>Node14&#45;&gt;Node15</title>
<path fill="none" stroke="midnightblue" d="M409.32,-112.08C410.77,-104.93 412.87,-94.64 414.69,-85.69"/>
<polygon fill="midnightblue" stroke="midnightblue" points="418.15,-86.25 416.72,-75.75 411.29,-84.85 418.15,-86.25"/>
</g>
<!-- Node16 -->
<g id="node16" class="node">
<title>Node16</title>
<g id="a_node16"><a xlink:href="enum_8h.html" target="_top" xlink:title=" ">
<polygon fill="white" stroke="black" points="294,-56.5 294,-75.5 371,-75.5 371,-56.5 294,-56.5"/>
<text text-anchor="middle" x="332.5" y="-63.5" font-family="Helvetica,sans-Serif" font-size="10.00">utils/enum.h</text>
</a>
</g>
</g>
<!-- Node14&#45;&gt;Node16 -->
<g id="edge18" class="edge">
<title>Node14&#45;&gt;Node16</title>
<path fill="none" stroke="midnightblue" d="M395.45,-112.32C384.04,-104.11 366.67,-91.6 353.07,-81.81"/>
<polygon fill="midnightblue" stroke="midnightblue" points="354.93,-78.84 344.77,-75.83 350.84,-84.52 354.93,-78.84"/>
</g>
<!-- Node17 -->
<g id="node17" class="node">
<title>Node17</title>
<g id="a_node17"><a xlink:title=" ">
<polygon fill="white" stroke="#bfbfbf" points="465.5,-56.5 465.5,-75.5 545.5,-75.5 545.5,-56.5 465.5,-56.5"/>
<text text-anchor="middle" x="505.5" y="-63.5" font-family="Helvetica,sans-Serif" font-size="10.00">logger.levels</text>
</a>
</g>
</g>
<!-- Node14&#45;&gt;Node17 -->
<g id="edge20" class="edge">
<title>Node14&#45;&gt;Node17</title>
<path fill="none" stroke="midnightblue" d="M423.25,-112.32C438.82,-103.74 462.88,-90.49 480.96,-80.52"/>
<polygon fill="midnightblue" stroke="midnightblue" points="482.72,-83.55 489.79,-75.65 479.35,-77.42 482.72,-83.55"/>
</g>
<!-- Node16&#45;&gt;Node5 -->
<g id="edge19" class="edge">
<title>Node16&#45;&gt;Node5</title>
<path fill="none" stroke="midnightblue" d="M321.74,-56.32C311.73,-48.26 296.61,-36.08 284.57,-26.37"/>
<polygon fill="midnightblue" stroke="midnightblue" points="286.44,-23.38 276.46,-19.83 282.05,-28.83 286.44,-23.38"/>
</g>
<!-- Node18&#45;&gt;Node4 -->
<g id="edge27" class="edge">
<title>Node18&#45;&gt;Node4</title>
<path fill="none" stroke="midnightblue" d="M437.66,-168.44C406.64,-159.24 357.17,-144.56 322.88,-134.39"/>
<polygon fill="midnightblue" stroke="midnightblue" points="323.79,-131.01 313.2,-131.52 321.79,-137.72 323.79,-131.01"/>
</g>
<!-- Node18&#45;&gt;Node14 -->
<g id="edge26" class="edge">
<title>Node18&#45;&gt;Node14</title>
<path fill="none" stroke="midnightblue" d="M457.02,-168.32C448.3,-160.34 435.16,-148.31 424.6,-138.65"/>
<polygon fill="midnightblue" stroke="midnightblue" points="426.89,-136 417.15,-131.83 422.17,-141.17 426.89,-136"/>
</g>
<!-- Node19 -->
<g id="node19" class="node">
<title>Node19</title>
<g id="a_node19"><a xlink:title=" ">
<polygon fill="white" stroke="#bfbfbf" points="761.5,-56.5 761.5,-75.5 805.5,-75.5 805.5,-56.5 761.5,-56.5"/>
<text text-anchor="middle" x="783.5" y="-63.5" font-family="Helvetica,sans-Serif" font-size="10.00">string</text>
</a>
</g>
</g>
<!-- Node18&#45;&gt;Node19 -->
<g id="edge23" class="edge">
<title>Node18&#45;&gt;Node19</title>
<path fill="none" stroke="midnightblue" d="M497.89,-169.66C500.79,-169.07 503.7,-168.5 506.5,-168 565.65,-157.39 731.92,-174.4 774.5,-132 786.46,-120.08 787.59,-100.18 786.42,-85.53"/>
<polygon fill="midnightblue" stroke="midnightblue" points="789.89,-85.08 785.22,-75.57 782.94,-85.92 789.89,-85.08"/>
</g>
<!-- Node20 -->
<g id="node20" class="node">
<title>Node20</title>
<g id="a_node20"><a xlink:title=" ">
<polygon fill="white" stroke="#bfbfbf" points="546,-112.5 546,-131.5 655,-131.5 655,-112.5 546,-112.5"/>
<text text-anchor="middle" x="600.5" y="-119.5" font-family="Helvetica,sans-Serif" font-size="10.00">h2lib/parameters.h</text>
</a>
</g>
</g>
<!-- Node18&#45;&gt;Node20 -->
<g id="edge24" class="edge">
<title>Node18&#45;&gt;Node20</title>
<path fill="none" stroke="midnightblue" d="M487.73,-168.44C509.88,-159.52 544.82,-145.44 569.94,-135.32"/>
<polygon fill="midnightblue" stroke="midnightblue" points="571.4,-138.5 579.37,-131.52 568.78,-132.01 571.4,-138.5"/>
</g>
<!-- Node21 -->
<g id="node21" class="node">
<title>Node21</title>
<g id="a_node21"><a xlink:title=" ">
<polygon fill="white" stroke="#bfbfbf" points="673.5,-112.5 673.5,-131.5 765.5,-131.5 765.5,-112.5 673.5,-112.5"/>
<text text-anchor="middle" x="719.5" y="-119.5" font-family="Helvetica,sans-Serif" font-size="10.00">h2lib/reporter.h</text>
</a>
</g>
</g>
<!-- Node18&#45;&gt;Node21 -->
<g id="edge25" class="edge">
<title>Node18&#45;&gt;Node21</title>
<path fill="none" stroke="midnightblue" d="M497.93,-169.89C500.83,-169.24 503.72,-168.61 506.5,-168 561.71,-155.96 625.09,-142.63 668.26,-133.63"/>
<polygon fill="midnightblue" stroke="midnightblue" points="669.16,-137.02 678.23,-131.55 667.73,-130.16 669.16,-137.02"/>
</g>
<!-- Node22 -->
<g id="node22" class="node">
<title>Node22</title>
<g id="a_node22"><a xlink:href="timing_8h.html" target="_top" xlink:title=" ">
<polygon fill="white" stroke="black" points="471,-112.5 471,-131.5 528,-131.5 528,-112.5 471,-112.5"/>
<text text-anchor="middle" x="499.5" y="-119.5" font-family="Helvetica,sans-Serif" font-size="10.00">timing.h</text>
</a>
</g>
</g>
<!-- Node18&#45;&gt;Node22 -->
<g id="edge28" class="edge">
<title>Node18&#45;&gt;Node22</title>
<path fill="none" stroke="midnightblue" d="M471.95,-168.08C476.51,-160.61 483.17,-149.72 488.79,-140.52"/>
<polygon fill="midnightblue" stroke="midnightblue" points="491.92,-142.11 494.15,-131.75 485.95,-138.46 491.92,-142.11"/>
</g>
<!-- Node22&#45;&gt;Node19 -->
<g id="edge32" class="edge">
<title>Node22&#45;&gt;Node19</title>
<path fill="none" stroke="midnightblue" d="M528.1,-114.06C531.27,-113.34 534.45,-112.64 537.5,-112 578,-103.51 694.6,-82.71 751.5,-72.64"/>
<polygon fill="midnightblue" stroke="midnightblue" points="752.16,-76.08 761.4,-70.89 750.94,-69.19 752.16,-76.08"/>
</g>
<!-- Node23 -->
<g id="node23" class="node">
<title>Node23</title>
<g id="a_node23"><a xlink:title=" ">
<polygon fill="white" stroke="#bfbfbf" points="614,-56.5 614,-75.5 661,-75.5 661,-56.5 614,-56.5"/>
<text text-anchor="middle" x="637.5" y="-63.5" font-family="Helvetica,sans-Serif" font-size="10.00">cmath</text>
</a>
</g>
</g>
<!-- Node22&#45;&gt;Node23 -->
<g id="edge29" class="edge">
<title>Node22&#45;&gt;Node23</title>
<path fill="none" stroke="midnightblue" d="M521.37,-112.44C544.28,-103.48 580.48,-89.31 606.37,-79.18"/>
<polygon fill="midnightblue" stroke="midnightblue" points="607.7,-82.42 615.74,-75.52 605.15,-75.9 607.7,-82.42"/>
</g>
<!-- Node24 -->
<g id="node24" class="node">
<title>Node24</title>
<g id="a_node24"><a xlink:title=" ">
<polygon fill="white" stroke="#bfbfbf" points="679.5,-56.5 679.5,-75.5 723.5,-75.5 723.5,-56.5 679.5,-56.5"/>
<text text-anchor="middle" x="701.5" y="-63.5" font-family="Helvetica,sans-Serif" font-size="10.00">ctime</text>
</a>
</g>
</g>
<!-- Node22&#45;&gt;Node24 -->
<g id="edge30" class="edge">
<title>Node22&#45;&gt;Node24</title>
<path fill="none" stroke="midnightblue" d="M528,-113.73C560.07,-105.51 613.95,-91.53 669.2,-76.31"/>
<polygon fill="midnightblue" stroke="midnightblue" points="670.46,-79.59 679.17,-73.56 668.6,-72.85 670.46,-79.59"/>
</g>
<!-- Node25 -->
<g id="node25" class="node">
<title>Node25</title>
<g id="a_node25"><a xlink:title=" ">
<polygon fill="white" stroke="#bfbfbf" points="563.5,-56.5 563.5,-75.5 595.5,-75.5 595.5,-56.5 563.5,-56.5"/>
<text text-anchor="middle" x="579.5" y="-63.5" font-family="Helvetica,sans-Serif" font-size="10.00">list</text>
</a>
</g>
</g>
<!-- Node22&#45;&gt;Node25 -->
<g id="edge31" class="edge">
<title>Node22&#45;&gt;Node25</title>
<path fill="none" stroke="midnightblue" d="M512.35,-112.32C524.72,-103.98 543.63,-91.21 558.24,-81.35"/>
<polygon fill="midnightblue" stroke="midnightblue" points="560.35,-84.15 566.68,-75.65 556.43,-78.35 560.35,-84.15"/>
</g>
</g>
</svg>
        <g id="navigator" transform="translate(0 0)" fill="#404254">
                <rect fill="#f2f5e9" fill-opacity="0.5" stroke="#606060" stroke-width=".5" x="0" y="0" width="60" height="60"/>
                <use id="zoomplus" xlink:href="#zoomPlus" x="17" y="9" onmousedown="handleZoom(evt,'in')"/>
                <use id="zoomminus" xlink:href="#zoomMin" x="42" y="9" onmousedown="handleZoom(evt,'out')"/>
                <use id="reset" xlink:href="#resetDef" x="30" y="36" onmousedown="handleReset()"/>
                <g id="arrowUp" xlink:href="#dirArrow" transform="translate(30 24)" onmousedown="handlePan(0,-1)">
                  <use xlink:href="#rim" fill="#404040">
                        <set attributeName="fill" to="#808080" begin="arrowUp.mouseover" end="arrowUp.mouseout"/>
                  </use>
                  <path fill="none" stroke="white" stroke-width="1.5" d="M0,-3.0v7 M-2.5,-0.5L0,-3.0L2.5,-0.5"/>
                </g>
                <g id="arrowRight" xlink:href="#dirArrow" transform="rotate(90) translate(36 -43)" onmousedown="handlePan(1,0)">
                  <use xlink:href="#rim" fill="#404040">
                        <set attributeName="fill" to="#808080" begin="arrowRight.mouseover" end="arrowRight.mouseout"/>
                  </use>
                  <path fill="none" stroke="white" stroke-width="1.5" d="M0,-3.0v7 M-2.5,-0.5L0,-3.0L2.5,-0.5"/>
                </g>
                <g id="arrowDown" xlink:href="#dirArrow" transform="rotate(180) translate(-30 -48)" onmousedown="handlePan(0,1)">
                  <use xlink:href="#rim" fill="#404040">
                        <set attributeName="fill" to="#808080" begin="arrowDown.mouseover" end="arrowDown.mouseout"/>
                  </use>
                  <path fill="none" stroke="white" stroke-width="1.5" d="M0,-3.0v7 M-2.5,-0.5L0,-3.0L2.5,-0.5"/>
                </g>
                <g id="arrowLeft" xlink:href="#dirArrow" transform="rotate(270) translate(-36 17)" onmousedown="handlePan(-1,0)">
                  <use xlink:href="#rim" fill="#404040">
                        <set attributeName="fill" to="#808080" begin="arrowLeft.mouseover" end="arrowLeft.mouseout"/>
                  </use>
                  <path fill="none" stroke="white" stroke-width="1.5" d="M0,-3.0v7 M-2.5,-0.5L0,-3.0L2.5,-0.5"/>
                </g>
        </g>
        <svg viewBox="0 0 15 15" width="100%" height="30px" preserveAspectRatio="xMaxYMin meet">
         <g id="arrow_out" transform="scale(0.3 0.3)">
          <a xlink:href="dh2operator_8cpp__incl_org.svg" target="_base">
           <rect id="button" ry="5" rx="5" y="6" x="6" height="38" width="38"
                fill="#f2f5e9" fill-opacity="0.5" stroke="#606060" stroke-width="1.0"/>
           <path id="arrow"
             d="M 11.500037,31.436501 C 11.940474,20.09759 22.043105,11.32322 32.158766,21.979434 L 37.068811,17.246167 C 37.068811,17.246167 37.088388,32 37.088388,32 L 22.160133,31.978069 C 22.160133,31.978069 26.997745,27.140456 26.997745,27.140456 C 18.528582,18.264221 13.291696,25.230495 11.500037,31.436501 z"
             style="fill:#404040;"/>
          </a>
         </g>
        </svg>
</svg>
