<?xml version="1.0" encoding="UTF-8" standalone="no"?>
<!DOCTYPE svg PUBLIC "-//W3C//DTD SVG 1.1//EN"
 "http://www.w3.org/Graphics/SVG/1.1/DTD/svg11.dtd">
<!-- Generated by graphviz version 2.43.0 (0)
 -->
<!-- Title: Lyra/include/lyra Pages: 1 -->
<svg width="110pt" height="183pt"
 viewBox="0.00 0.00 110.00 183.00" xmlns="http://www.w3.org/2000/svg" xmlns:xlink="http://www.w3.org/1999/xlink">
<g id="graph0" class="graph" transform="scale(1 1) rotate(0) translate(4 179)">
<title>Lyra/include/lyra</title>
<polygon fill="white" stroke="transparent" points="-4,4 -4,-179 106,-179 106,4 -4,4"/>
<g id="clust1" class="cluster">
<title>clusterdir_eabd99c7a0b0d21b0c160e67f662f576</title>
<g id="a_clust1"><a xlink:href="dir_eabd99c7a0b0d21b0c160e67f662f576.html" target="_top" xlink:title="include">
<polygon fill="#def7e1" stroke="#7f7f7f" stroke-dasharray="5,2" points="8,-8 8,-167 94,-167 94,-8 8,-8"/>
<text text-anchor="middle" x="51" y="-155" font-family="Helvetica,sans-Serif" font-size="10.00">include</text>
</a>
</g>
</g>
<g id="clust2" class="cluster">
<title>clusterdir_a755797409ec99181b199c936490f1ea</title>
<g id="a_clust2"><a xlink:href="dir_a755797409ec99181b199c936490f1ea.html" target="_top">
<polygon fill="#def7e1" stroke="#404040" stroke-width="2" points="16,-16 16,-140 86,-140 86,-16 16,-16"/>
</a>
</g>
</g>
<!-- dir_a755797409ec99181b199c936490f1ea -->
<g id="node1" class="node">
<title>dir_a755797409ec99181b199c936490f1ea</title>
<text text-anchor="middle" x="51" y="-111.5" font-family="Helvetica,sans-Serif" font-size="10.00">lyra</text>
</g>
<!-- dir_e3b63d6621e6fd69aa74eef63da2d9d3 -->
<g id="node2" class="node">
<title>dir_e3b63d6621e6fd69aa74eef63da2d9d3</title>
<g id="a_node2"><a xlink:href="dir_e3b63d6621e6fd69aa74eef63da2d9d3.html" target="_top" xlink:title="detail">
<polygon fill="#64db72" stroke="#404040" points="78,-60 24,-60 24,-24 78,-24 78,-60"/>
<text text-anchor="middle" x="51" y="-39.5" font-family="Helvetica,sans-Serif" font-size="10.00">detail</text>
</a>
</g>
</g>
<!-- dir_a755797409ec99181b199c936490f1ea&#45;&gt;dir_e3b63d6621e6fd69aa74eef63da2d9d3 -->
<g id="edge1" class="edge">
<title>dir_a755797409ec99181b199c936490f1ea&#45;&gt;dir_e3b63d6621e6fd69aa74eef63da2d9d3</title>
<path fill="none" stroke="black" d="M51,-95.7C51,-87.98 51,-78.71 51,-70.11"/>
<polygon fill="black" stroke="black" points="54.5,-70.1 51,-60.1 47.5,-70.1 54.5,-70.1"/>
<g id="a_edge1&#45;headlabel"><a xlink:href="dir_000008_000001.html" target="_top" xlink:title="19">
<text text-anchor="middle" x="57.34" y="-71.2" font-family="Helvetica,sans-Serif" font-size="10.00">19</text>
</a>
</g>
</g>
</g>
</svg>
