<?xml version="1.0" encoding="UTF-8" standalone="no"?>
<!DOCTYPE svg PUBLIC "-//W3C//DTD SVG 1.1//EN"
 "http://www.w3.org/Graphics/SVG/1.1/DTD/svg11.dtd">
<!-- Generated by graphviz version 2.43.0 (0)
 -->
<!-- Title: main Pages: 1 -->
<svg width="351pt" height="140pt"
 viewBox="0.00 0.00 351.00 139.50" xmlns="http://www.w3.org/2000/svg" xmlns:xlink="http://www.w3.org/1999/xlink">
<g id="graph0" class="graph" transform="scale(1 1) rotate(0) translate(4 135.5)">
<title>main</title>
<polygon fill="white" stroke="transparent" points="-4,4 -4,-135.5 347,-135.5 347,4 -4,4"/>
<!-- Node1 -->
<g id="node1" class="node">
<title>Node1</title>
<g id="a_node1"><a xlink:title=" ">
<polygon fill="#bfbfbf" stroke="black" points="0,-68 0,-87 41,-87 41,-68 0,-68"/>
<text text-anchor="middle" x="20.5" y="-75" font-family="Helvetica,sans-Serif" font-size="10.00">main</text>
</a>
</g>
</g>
<!-- Node2 -->
<g id="node2" class="node">
<title>Node2</title>
<g id="a_node2"><a xlink:href="classlyra_1_1cli.html#af08fe360cb60eb92c01e2df91bb3af7c" target="_top" xlink:title=" ">
<polygon fill="white" stroke="black" points="77,-112 77,-131 206,-131 206,-112 77,-112"/>
<text text-anchor="middle" x="141.5" y="-119" font-family="Helvetica,sans-Serif" font-size="10.00">lyra::cli::add_argument</text>
</a>
</g>
</g>
<!-- Node1&#45;&gt;Node2 -->
<g id="edge1" class="edge">
<title>Node1&#45;&gt;Node2</title>
<path fill="none" stroke="midnightblue" d="M41.01,-87.05C51.53,-92.01 64.82,-97.96 77,-102.5 83.01,-104.74 89.42,-106.91 95.77,-108.93"/>
<polygon fill="midnightblue" stroke="midnightblue" points="95.03,-112.37 105.62,-111.97 97.1,-105.68 95.03,-112.37"/>
</g>
<!-- Node3 -->
<g id="node3" class="node">
<title>Node3</title>
<g id="a_node3"><a xlink:href="classlyra_1_1detail_1_1result__base.html#af2039c056e3c27fd5efa1542bd7167be" target="_top" xlink:title=" ">
<polygon fill="white" stroke="black" points="90,-62.5 90,-92.5 193,-92.5 193,-62.5 90,-62.5"/>
<text text-anchor="start" x="98" y="-80.5" font-family="Helvetica,sans-Serif" font-size="10.00">lyra::detail::result</text>
<text text-anchor="middle" x="141.5" y="-69.5" font-family="Helvetica,sans-Serif" font-size="10.00">_base::message</text>
</a>
</g>
</g>
<!-- Node1&#45;&gt;Node3 -->
<g id="edge2" class="edge">
<title>Node1&#45;&gt;Node3</title>
<path fill="none" stroke="midnightblue" d="M41.15,-77.5C51.83,-77.5 65.67,-77.5 79.62,-77.5"/>
<polygon fill="midnightblue" stroke="midnightblue" points="79.75,-81 89.75,-77.5 79.75,-74 79.75,-81"/>
</g>
<!-- Node4 -->
<g id="node4" class="node">
<title>Node4</title>
<g id="a_node4"><a xlink:href="classlyra_1_1cli.html#a6d3e91c66ed03273471089eebcdeacae" target="_top" xlink:title=" ">
<polygon fill="white" stroke="black" points="98.5,-6 98.5,-25 184.5,-25 184.5,-6 98.5,-6"/>
<text text-anchor="middle" x="141.5" y="-13" font-family="Helvetica,sans-Serif" font-size="10.00">lyra::cli::parse</text>
</a>
</g>
</g>
<!-- Node1&#45;&gt;Node4 -->
<g id="edge3" class="edge">
<title>Node1&#45;&gt;Node4</title>
<path fill="none" stroke="midnightblue" d="M39.83,-67.95C59.34,-57.78 90.44,-41.58 112.91,-29.88"/>
<polygon fill="midnightblue" stroke="midnightblue" points="114.7,-32.89 121.95,-25.16 111.46,-26.68 114.7,-32.89"/>
</g>
<!-- Node4&#45;&gt;Node4 -->
<g id="edge4" class="edge">
<title>Node4&#45;&gt;Node4</title>
<path fill="none" stroke="midnightblue" d="M123,-25.26C114.01,-34.07 120.17,-43.5 141.5,-43.5 155.16,-43.5 162.6,-39.63 163.82,-34.53"/>
<polygon fill="midnightblue" stroke="midnightblue" points="167.05,-33.17 160,-25.26 160.57,-35.84 167.05,-33.17"/>
</g>
<!-- Node5 -->
<g id="node5" class="node">
<title>Node5</title>
<g id="a_node5"><a xlink:href="structlyra_1_1option__style.html#ad733f4434bb558b70262f04ae4b69e1d" target="_top" xlink:title=" ">
<polygon fill="white" stroke="black" points="242,-0.5 242,-30.5 343,-30.5 343,-0.5 242,-0.5"/>
<text text-anchor="start" x="250" y="-18.5" font-family="Helvetica,sans-Serif" font-size="10.00">lyra::option_style</text>
<text text-anchor="middle" x="292.5" y="-7.5" font-family="Helvetica,sans-Serif" font-size="10.00">::posix</text>
</a>
</g>
</g>
<!-- Node4&#45;&gt;Node5 -->
<g id="edge5" class="edge">
<title>Node4&#45;&gt;Node5</title>
<path fill="none" stroke="midnightblue" d="M184.8,-15.5C199.41,-15.5 216.06,-15.5 231.8,-15.5"/>
<polygon fill="midnightblue" stroke="midnightblue" points="231.98,-19 241.98,-15.5 231.98,-12 231.98,-19"/>
</g>
</g>
</svg>
