<?xml version="1.0" encoding="UTF-8" standalone="no"?>
<!DOCTYPE svg PUBLIC "-//W3C//DTD SVG 1.1//EN"
 "http://www.w3.org/Graphics/SVG/1.1/DTD/svg11.dtd">
<!-- Generated by graphviz version 2.43.0 (0)
 -->
<!-- Title: Lyra/include/lyra/exe_name.hpp Pages: 1 -->
<!--zoomable 509 -->
<svg id="main" version="1.1" xmlns="http://www.w3.org/2000/svg" xmlns:xlink="http://www.w3.org/1999/xlink" xml:space="preserve" onload="init(evt)">
<style type="text/css"><![CDATA[
.edge:hover path { stroke: red; }
.edge:hover polygon { stroke: red; fill: red; }
]]></style>
<script type="text/javascript"><![CDATA[
var edges = document.getElementsByTagName('g');
if (edges && edges.length) {
  for (var i=0;i<edges.length;i++) {
    if (edges[i].id.substr(0,4)=='edge') {
      edges[i].setAttribute('class','edge');
    }
  }
}
]]></script>
        <defs>
                <circle id="rim" cx="0" cy="0" r="7"/>
                <circle id="rim2" cx="0" cy="0" r="3.5"/>
                <g id="zoomPlus">
                        <use xlink:href="#rim" fill="#404040">
                                <set attributeName="fill" to="#808080" begin="zoomplus.mouseover" end="zoomplus.mouseout"/>
                        </use>
                        <path d="M-4,0h8M0,-4v8" fill="none" stroke="white" stroke-width="1.5" pointer-events="none"/>
                </g>
                <g id="zoomMin">
                        <use xlink:href="#rim" fill="#404040">
                                <set attributeName="fill" to="#808080" begin="zoomminus.mouseover" end="zoomminus.mouseout"/>
                        </use>
                        <path d="M-4,0h8" fill="none" stroke="white" stroke-width="1.5" pointer-events="none"/>
                </g>
                <g id="dirArrow">
                        <path fill="none" stroke="white" stroke-width="1.5" d="M0,-3.0v7 M-2.5,-0.5L0,-3.0L2.5,-0.5"/>
                </g>
               <g id="resetDef">
                       <use xlink:href="#rim2" fill="#404040">
                               <set attributeName="fill" to="#808080" begin="reset.mouseover" end="reset.mouseout"/>
                       </use>
               </g>
        </defs>

<script type="text/javascript">
var viewWidth = 1404;
var viewHeight = 509;
var sectionId = 'dynsection-0';
</script>
<script xlink:href="svgpan.js"/>
<svg id="graph" class="graph">
<g id="viewport">
<title>Lyra/include/lyra/exe_name.hpp</title>
<polygon fill="white" stroke="transparent" points="-4,4 -4,-505 1400.21,-505 1400.21,4 -4,4"/>
<!-- Node1 -->
<g id="node1" class="node">
<title>Node1</title>
<g id="a_node1"><a xlink:title=" ">
<polygon fill="#bfbfbf" stroke="black" points="712.02,-470.5 712.02,-500.5 830.02,-500.5 830.02,-470.5 712.02,-470.5"/>
<text text-anchor="start" x="720.02" y="-488.5" font-family="Helvetica,sans-Serif" font-size="10.00">Lyra/include/lyra/exe</text>
<text text-anchor="middle" x="771.02" y="-477.5" font-family="Helvetica,sans-Serif" font-size="10.00">_name.hpp</text>
</a>
</g>
</g>
<!-- Node2 -->
<g id="node2" class="node">
<title>Node2</title>
<g id="a_node2"><a xlink:href="bound_8hpp.html" target="_top" xlink:title=" ">
<polygon fill="white" stroke="black" points="321.02,-302.5 321.02,-321.5 441.02,-321.5 441.02,-302.5 321.02,-302.5"/>
<text text-anchor="middle" x="381.02" y="-309.5" font-family="Helvetica,sans-Serif" font-size="10.00">lyra/detail/bound.hpp</text>
</a>
</g>
</g>
<!-- Node1&#45;&gt;Node2 -->
<g id="edge1" class="edge">
<title>Node1&#45;&gt;Node2</title>
<path fill="none" stroke="midnightblue" d="M732.62,-470.49C706.36,-460.72 670.86,-447.13 640.02,-434 553.9,-397.34 454.11,-349.03 407.53,-326.13"/>
<polygon fill="midnightblue" stroke="midnightblue" points="408.93,-322.92 398.42,-321.64 405.84,-329.2 408.93,-322.92"/>
</g>
<!-- Node11 -->
<g id="node11" class="node">
<title>Node11</title>
<g id="a_node11"><a xlink:href="parser__result_8hpp.html" target="_top" xlink:title=" ">
<polygon fill="white" stroke="black" points="596.52,-118 596.52,-137 719.52,-137 719.52,-118 596.52,-118"/>
<text text-anchor="middle" x="658.02" y="-125" font-family="Helvetica,sans-Serif" font-size="10.00">lyra/parser_result.hpp</text>
</a>
</g>
</g>
<!-- Node1&#45;&gt;Node11 -->
<g id="edge61" class="edge">
<title>Node1&#45;&gt;Node11</title>
<path fill="none" stroke="midnightblue" d="M739.97,-470.42C705.31,-452.33 654.02,-417.38 654.02,-369 654.02,-369 654.02,-369 654.02,-249.5 654.02,-213.19 655.84,-170.79 657.03,-147.05"/>
<polygon fill="midnightblue" stroke="midnightblue" points="660.52,-147.17 657.55,-137.01 653.53,-146.81 660.52,-147.17"/>
</g>
<!-- Node15 -->
<g id="node15" class="node">
<title>Node15</title>
<g id="a_node15"><a xlink:href="tokens_8hpp.html" target="_top" xlink:title=" ">
<polygon fill="white" stroke="black" points="1166.02,-179.5 1166.02,-198.5 1288.02,-198.5 1288.02,-179.5 1166.02,-179.5"/>
<text text-anchor="middle" x="1227.02" y="-186.5" font-family="Helvetica,sans-Serif" font-size="10.00">lyra/detail/tokens.hpp</text>
</a>
</g>
</g>
<!-- Node1&#45;&gt;Node15 -->
<g id="edge25" class="edge">
<title>Node1&#45;&gt;Node15</title>
<path fill="none" stroke="midnightblue" d="M830.1,-481.56C954.5,-474.02 1236.79,-449.25 1295.02,-378 1338.53,-324.75 1273.97,-241.33 1242.55,-206.32"/>
<polygon fill="midnightblue" stroke="midnightblue" points="1245.05,-203.87 1235.71,-198.88 1239.9,-208.61 1245.05,-203.87"/>
</g>
<!-- Node18 -->
<g id="node18" class="node">
<title>Node18</title>
<g id="a_node18"><a xlink:href="parser_8hpp.html" target="_top" xlink:title=" ">
<polygon fill="white" stroke="black" points="843.02,-414.5 843.02,-433.5 933.02,-433.5 933.02,-414.5 843.02,-414.5"/>
<text text-anchor="middle" x="888.02" y="-421.5" font-family="Helvetica,sans-Serif" font-size="10.00">lyra/parser.hpp</text>
</a>
</g>
</g>
<!-- Node1&#45;&gt;Node18 -->
<g id="edge30" class="edge">
<title>Node1&#45;&gt;Node18</title>
<path fill="none" stroke="midnightblue" d="M798.75,-470.4C817.85,-460.68 843.08,-447.86 861.84,-438.31"/>
<polygon fill="midnightblue" stroke="midnightblue" points="863.67,-441.31 871,-433.66 860.49,-435.07 863.67,-441.31"/>
</g>
<!-- Node3 -->
<g id="node3" class="node">
<title>Node3</title>
<g id="a_node3"><a xlink:href="from__string_8hpp.html" target="_top" xlink:title=" ">
<polygon fill="white" stroke="black" points="198.02,-118 198.02,-137 344.02,-137 344.02,-118 198.02,-118"/>
<text text-anchor="middle" x="271.02" y="-125" font-family="Helvetica,sans-Serif" font-size="10.00">lyra/detail/from_string.hpp</text>
</a>
</g>
</g>
<!-- Node2&#45;&gt;Node3 -->
<g id="edge2" class="edge">
<title>Node2&#45;&gt;Node3</title>
<path fill="none" stroke="midnightblue" d="M375.71,-302.2C358.62,-273.83 304.74,-184.44 281.67,-146.17"/>
<polygon fill="midnightblue" stroke="midnightblue" points="284.43,-143.97 276.27,-137.21 278.44,-147.59 284.43,-143.97"/>
</g>
<!-- Node8 -->
<g id="node8" class="node">
<title>Node8</title>
<g id="a_node8"><a xlink:title=" ">
<polygon fill="white" stroke="#bfbfbf" points="851.02,-0.5 851.02,-19.5 895.02,-19.5 895.02,-0.5 851.02,-0.5"/>
<text text-anchor="middle" x="873.02" y="-7.5" font-family="Helvetica,sans-Serif" font-size="10.00">string</text>
</a>
</g>
</g>
<!-- Node2&#45;&gt;Node8 -->
<g id="edge24" class="edge">
<title>Node2&#45;&gt;Node8</title>
<path fill="none" stroke="midnightblue" d="M359.62,-302.47C300.36,-277.49 141.56,-200.68 189.02,-112 210.19,-72.44 230.59,-70.6 273.02,-56 379.48,-19.36 732.1,-12.52 840.82,-11.27"/>
<polygon fill="midnightblue" stroke="midnightblue" points="840.89,-14.77 850.85,-11.16 840.81,-7.77 840.89,-14.77"/>
</g>
<!-- Node9 -->
<g id="node9" class="node">
<title>Node9</title>
<g id="a_node9"><a xlink:href="invoke__lambda_8hpp.html" target="_top" xlink:title=" ">
<polygon fill="white" stroke="black" points="479.52,-235.5 479.52,-265.5 580.52,-265.5 580.52,-235.5 479.52,-235.5"/>
<text text-anchor="start" x="487.52" y="-253.5" font-family="Helvetica,sans-Serif" font-size="10.00">lyra/detail/invoke</text>
<text text-anchor="middle" x="530.02" y="-242.5" font-family="Helvetica,sans-Serif" font-size="10.00">_lambda.hpp</text>
</a>
</g>
</g>
<!-- Node2&#45;&gt;Node9 -->
<g id="edge9" class="edge">
<title>Node2&#45;&gt;Node9</title>
<path fill="none" stroke="midnightblue" d="M402.37,-302.48C423.96,-293.85 457.99,-280.26 485.48,-269.29"/>
<polygon fill="midnightblue" stroke="midnightblue" points="486.91,-272.48 494.9,-265.52 484.32,-265.98 486.91,-272.48"/>
</g>
<!-- Node10 -->
<g id="node10" class="node">
<title>Node10</title>
<g id="a_node10"><a xlink:href="parse_8hpp.html" target="_top" xlink:title=" ">
<polygon fill="white" stroke="black" points="384.52,-179.5 384.52,-198.5 501.52,-198.5 501.52,-179.5 384.52,-179.5"/>
<text text-anchor="middle" x="443.02" y="-186.5" font-family="Helvetica,sans-Serif" font-size="10.00">lyra/detail/parse.hpp</text>
</a>
</g>
</g>
<!-- Node2&#45;&gt;Node10 -->
<g id="edge22" class="edge">
<title>Node2&#45;&gt;Node10</title>
<path fill="none" stroke="midnightblue" d="M385.48,-302.3C395.58,-282.59 420.37,-234.21 433.88,-207.84"/>
<polygon fill="midnightblue" stroke="midnightblue" points="437.16,-209.12 438.6,-198.62 430.93,-205.93 437.16,-209.12"/>
</g>
<!-- Node14 -->
<g id="node14" class="node">
<title>Node14</title>
<g id="a_node14"><a xlink:href="unary__lambda__traits_8hpp.html" target="_top" xlink:title=" ">
<polygon fill="white" stroke="black" points="400.52,-112.5 400.52,-142.5 539.52,-142.5 539.52,-112.5 400.52,-112.5"/>
<text text-anchor="start" x="408.52" y="-130.5" font-family="Helvetica,sans-Serif" font-size="10.00">lyra/detail/unary_lambda</text>
<text text-anchor="middle" x="470.02" y="-119.5" font-family="Helvetica,sans-Serif" font-size="10.00">_traits.hpp</text>
</a>
</g>
</g>
<!-- Node2&#45;&gt;Node14 -->
<g id="edge23" class="edge">
<title>Node2&#45;&gt;Node14</title>
<path fill="none" stroke="midnightblue" d="M377.64,-302.5C369.4,-280.3 350.68,-219.51 375.02,-179 383.47,-164.95 397.29,-154.59 411.81,-147.05"/>
<polygon fill="midnightblue" stroke="midnightblue" points="413.38,-150.18 420.9,-142.72 410.37,-143.86 413.38,-150.18"/>
</g>
<!-- Node4 -->
<g id="node4" class="node">
<title>Node4</title>
<g id="a_node4"><a xlink:href="trait__utils_8hpp.html" target="_top" xlink:title=" ">
<polygon fill="white" stroke="black" points="29.52,-56.5 29.52,-75.5 166.52,-75.5 166.52,-56.5 29.52,-56.5"/>
<text text-anchor="middle" x="98.02" y="-63.5" font-family="Helvetica,sans-Serif" font-size="10.00">lyra/detail/trait_utils.hpp</text>
</a>
</g>
</g>
<!-- Node3&#45;&gt;Node4 -->
<g id="edge3" class="edge">
<title>Node3&#45;&gt;Node4</title>
<path fill="none" stroke="midnightblue" d="M246.23,-117.98C216.43,-107.72 166.23,-90.46 132.62,-78.9"/>
<polygon fill="midnightblue" stroke="midnightblue" points="133.36,-75.45 122.76,-75.51 131.08,-82.07 133.36,-75.45"/>
</g>
<!-- Node5 -->
<g id="node5" class="node">
<title>Node5</title>
<g id="a_node5"><a xlink:title=" ">
<polygon fill="white" stroke="#bfbfbf" points="160.52,-0.5 160.52,-19.5 229.52,-19.5 229.52,-0.5 160.52,-0.5"/>
<text text-anchor="middle" x="195.02" y="-7.5" font-family="Helvetica,sans-Serif" font-size="10.00">type_traits</text>
</a>
</g>
</g>
<!-- Node3&#45;&gt;Node5 -->
<g id="edge8" class="edge">
<title>Node3&#45;&gt;Node5</title>
<path fill="none" stroke="midnightblue" d="M265.31,-117.82C252.82,-98.84 222.89,-53.35 206.4,-28.29"/>
<polygon fill="midnightblue" stroke="midnightblue" points="209.22,-26.21 200.8,-19.78 203.37,-30.06 209.22,-26.21"/>
</g>
<!-- Node7 -->
<g id="node7" class="node">
<title>Node7</title>
<g id="a_node7"><a xlink:title=" ">
<polygon fill="white" stroke="#bfbfbf" points="299.02,-56.5 299.02,-75.5 355.02,-75.5 355.02,-56.5 299.02,-56.5"/>
<text text-anchor="middle" x="327.02" y="-63.5" font-family="Helvetica,sans-Serif" font-size="10.00">sstream</text>
</a>
</g>
</g>
<!-- Node3&#45;&gt;Node7 -->
<g id="edge6" class="edge">
<title>Node3&#45;&gt;Node7</title>
<path fill="none" stroke="midnightblue" d="M279.04,-117.98C287.61,-108.87 301.38,-94.24 311.98,-82.98"/>
<polygon fill="midnightblue" stroke="midnightblue" points="314.71,-85.19 319.01,-75.51 309.61,-80.39 314.71,-85.19"/>
</g>
<!-- Node3&#45;&gt;Node8 -->
<g id="edge7" class="edge">
<title>Node3&#45;&gt;Node8</title>
<path fill="none" stroke="midnightblue" d="M270.46,-117.92C269.99,-102.76 271.48,-71.37 290.02,-56 332.55,-20.73 724.36,-12.9 840.64,-11.35"/>
<polygon fill="midnightblue" stroke="midnightblue" points="840.75,-14.85 850.7,-11.22 840.66,-7.85 840.75,-14.85"/>
</g>
<!-- Node4&#45;&gt;Node5 -->
<g id="edge4" class="edge">
<title>Node4&#45;&gt;Node5</title>
<path fill="none" stroke="midnightblue" d="M113.6,-56.32C129.02,-47.74 152.83,-34.49 170.73,-24.52"/>
<polygon fill="midnightblue" stroke="midnightblue" points="172.44,-27.58 179.47,-19.65 169.03,-21.46 172.44,-27.58"/>
</g>
<!-- Node6 -->
<g id="node6" class="node">
<title>Node6</title>
<g id="a_node6"><a xlink:title=" ">
<polygon fill="white" stroke="#bfbfbf" points="75.52,-0.5 75.52,-19.5 120.52,-19.5 120.52,-0.5 75.52,-0.5"/>
<text text-anchor="middle" x="98.02" y="-7.5" font-family="Helvetica,sans-Serif" font-size="10.00">utility</text>
</a>
</g>
</g>
<!-- Node4&#45;&gt;Node6 -->
<g id="edge5" class="edge">
<title>Node4&#45;&gt;Node6</title>
<path fill="none" stroke="midnightblue" d="M98.02,-56.08C98.02,-49.01 98.02,-38.86 98.02,-29.99"/>
<polygon fill="midnightblue" stroke="midnightblue" points="101.52,-29.75 98.02,-19.75 94.52,-29.75 101.52,-29.75"/>
</g>
<!-- Node9&#45;&gt;Node10 -->
<g id="edge10" class="edge">
<title>Node9&#45;&gt;Node10</title>
<path fill="none" stroke="midnightblue" d="M509.4,-235.4C495.72,-226.04 477.81,-213.79 464.04,-204.38"/>
<polygon fill="midnightblue" stroke="midnightblue" points="465.91,-201.41 455.68,-198.66 461.96,-207.19 465.91,-201.41"/>
</g>
<!-- Node9&#45;&gt;Node11 -->
<g id="edge21" class="edge">
<title>Node9&#45;&gt;Node11</title>
<path fill="none" stroke="midnightblue" d="M544.95,-235.38C569.11,-212.54 616.59,-167.67 641.64,-143.98"/>
<polygon fill="midnightblue" stroke="midnightblue" points="644.07,-146.51 648.93,-137.09 639.26,-141.42 644.07,-146.51"/>
</g>
<!-- Node12 -->
<g id="node12" class="node">
<title>Node12</title>
<g id="a_node12"><a xlink:href="result_8hpp.html" target="_top" xlink:title=" ">
<polygon fill="white" stroke="black" points="727.02,-56.5 727.02,-75.5 845.02,-75.5 845.02,-56.5 727.02,-56.5"/>
<text text-anchor="middle" x="786.02" y="-63.5" font-family="Helvetica,sans-Serif" font-size="10.00">lyra/detail/result.hpp</text>
</a>
</g>
</g>
<!-- Node9&#45;&gt;Node12 -->
<g id="edge18" class="edge">
<title>Node9&#45;&gt;Node12</title>
<path fill="none" stroke="midnightblue" d="M531.62,-235.33C535.58,-207.25 548.48,-144.47 587.02,-112 606.6,-95.51 667.51,-83.29 716.83,-75.78"/>
<polygon fill="midnightblue" stroke="midnightblue" points="717.47,-79.23 726.85,-74.3 716.44,-72.3 717.47,-79.23"/>
</g>
<!-- Node9&#45;&gt;Node14 -->
<g id="edge19" class="edge">
<title>Node9&#45;&gt;Node14</title>
<path fill="none" stroke="midnightblue" d="M527.71,-235.39C524.93,-220.7 519.41,-197.35 510.02,-179 504.9,-168.99 497.63,-159.06 490.7,-150.69"/>
<polygon fill="midnightblue" stroke="midnightblue" points="493.15,-148.17 483.96,-142.89 487.85,-152.74 493.15,-148.17"/>
</g>
<!-- Node10&#45;&gt;Node3 -->
<g id="edge11" class="edge">
<title>Node10&#45;&gt;Node3</title>
<path fill="none" stroke="midnightblue" d="M418.38,-179.48C388.74,-169.22 338.83,-151.96 305.42,-140.4"/>
<polygon fill="midnightblue" stroke="midnightblue" points="306.21,-136.97 295.62,-137.01 303.92,-143.59 306.21,-136.97"/>
</g>
<!-- Node10&#45;&gt;Node8 -->
<g id="edge17" class="edge">
<title>Node10&#45;&gt;Node8</title>
<path fill="none" stroke="midnightblue" d="M427.24,-179.47C414.82,-171.77 398.41,-159.18 391.02,-143 385.29,-130.47 382.33,-122.69 391.02,-112 448.23,-41.55 742.02,-18.49 840.67,-12.67"/>
<polygon fill="midnightblue" stroke="midnightblue" points="841.13,-16.15 850.92,-12.08 840.74,-9.16 841.13,-16.15"/>
</g>
<!-- Node10&#45;&gt;Node11 -->
<g id="edge12" class="edge">
<title>Node10&#45;&gt;Node11</title>
<path fill="none" stroke="midnightblue" d="M473.82,-179.48C511.58,-169.03 575.68,-151.29 617.43,-139.73"/>
<polygon fill="midnightblue" stroke="midnightblue" points="618.57,-143.05 627.27,-137.01 616.7,-136.3 618.57,-143.05"/>
</g>
<!-- Node11&#45;&gt;Node8 -->
<g id="edge16" class="edge">
<title>Node11&#45;&gt;Node8</title>
<path fill="none" stroke="midnightblue" d="M663.1,-117.69C672.18,-102.74 692.65,-72.41 718.02,-56 756.02,-31.42 807.77,-19.94 840.8,-14.82"/>
<polygon fill="midnightblue" stroke="midnightblue" points="841.42,-18.27 850.82,-13.37 840.42,-11.34 841.42,-18.27"/>
</g>
<!-- Node11&#45;&gt;Node12 -->
<g id="edge13" class="edge">
<title>Node11&#45;&gt;Node12</title>
<path fill="none" stroke="midnightblue" d="M676.36,-117.98C697.84,-107.99 733.64,-91.35 758.47,-79.81"/>
<polygon fill="midnightblue" stroke="midnightblue" points="760.12,-82.9 767.71,-75.51 757.17,-76.55 760.12,-82.9"/>
</g>
<!-- Node12&#45;&gt;Node8 -->
<g id="edge15" class="edge">
<title>Node12&#45;&gt;Node8</title>
<path fill="none" stroke="midnightblue" d="M800,-56.32C813.57,-47.9 834.4,-34.97 850.34,-25.07"/>
<polygon fill="midnightblue" stroke="midnightblue" points="852.43,-27.9 859.08,-19.65 848.73,-21.95 852.43,-27.9"/>
</g>
<!-- Node13 -->
<g id="node13" class="node">
<title>Node13</title>
<g id="a_node13"><a xlink:title=" ">
<polygon fill="white" stroke="#bfbfbf" points="1114.02,-0.5 1114.02,-19.5 1172.02,-19.5 1172.02,-0.5 1114.02,-0.5"/>
<text text-anchor="middle" x="1143.02" y="-7.5" font-family="Helvetica,sans-Serif" font-size="10.00">memory</text>
</a>
</g>
</g>
<!-- Node12&#45;&gt;Node13 -->
<g id="edge14" class="edge">
<title>Node12&#45;&gt;Node13</title>
<path fill="none" stroke="midnightblue" d="M842.59,-56.44C915.59,-45.4 1040.73,-26.47 1103.98,-16.91"/>
<polygon fill="midnightblue" stroke="midnightblue" points="1104.58,-20.35 1113.95,-15.4 1103.54,-13.43 1104.58,-20.35"/>
</g>
<!-- Node14&#45;&gt;Node5 -->
<g id="edge20" class="edge">
<title>Node14&#45;&gt;Node5</title>
<path fill="none" stroke="midnightblue" d="M452.69,-112.36C432.52,-96.55 397.67,-71.17 364.02,-56 323.71,-37.83 274.58,-25.77 239.7,-18.75"/>
<polygon fill="midnightblue" stroke="midnightblue" points="240.29,-15.3 229.81,-16.81 238.95,-22.17 240.29,-15.3"/>
</g>
<!-- Node15&#45;&gt;Node8 -->
<g id="edge28" class="edge">
<title>Node15&#45;&gt;Node8</title>
<path fill="none" stroke="midnightblue" d="M1236.63,-179.35C1251.97,-164.5 1278.63,-133.68 1262.02,-112 1218.06,-54.64 990.56,-23.98 905.32,-14.36"/>
<polygon fill="midnightblue" stroke="midnightblue" points="905.51,-10.86 895.19,-13.25 904.74,-17.82 905.51,-10.86"/>
</g>
<!-- Node16 -->
<g id="node16" class="node">
<title>Node16</title>
<g id="a_node16"><a xlink:href="option__style_8hpp.html" target="_top" xlink:title=" ">
<polygon fill="white" stroke="black" points="1133.52,-118 1133.52,-137 1252.52,-137 1252.52,-118 1133.52,-118"/>
<text text-anchor="middle" x="1193.02" y="-125" font-family="Helvetica,sans-Serif" font-size="10.00">lyra/option_style.hpp</text>
</a>
</g>
</g>
<!-- Node15&#45;&gt;Node16 -->
<g id="edge26" class="edge">
<title>Node15&#45;&gt;Node16</title>
<path fill="none" stroke="midnightblue" d="M1222.15,-179.48C1217.15,-170.73 1209.23,-156.87 1202.91,-145.81"/>
<polygon fill="midnightblue" stroke="midnightblue" points="1205.88,-143.96 1197.88,-137.01 1199.8,-147.43 1205.88,-143.96"/>
</g>
<!-- Node17 -->
<g id="node17" class="node">
<title>Node17</title>
<g id="a_node17"><a xlink:title=" ">
<polygon fill="white" stroke="#bfbfbf" points="1068.52,-118 1068.52,-137 1115.52,-137 1115.52,-118 1068.52,-118"/>
<text text-anchor="middle" x="1092.02" y="-125" font-family="Helvetica,sans-Serif" font-size="10.00">vector</text>
</a>
</g>
</g>
<!-- Node15&#45;&gt;Node17 -->
<g id="edge29" class="edge">
<title>Node15&#45;&gt;Node17</title>
<path fill="none" stroke="midnightblue" d="M1207.68,-179.48C1184.92,-169.45 1146.93,-152.7 1120.73,-141.15"/>
<polygon fill="midnightblue" stroke="midnightblue" points="1121.89,-137.84 1111.33,-137.01 1119.07,-144.24 1121.89,-137.84"/>
</g>
<!-- Node16&#45;&gt;Node8 -->
<g id="edge27" class="edge">
<title>Node16&#45;&gt;Node8</title>
<path fill="none" stroke="midnightblue" d="M1173.03,-117.97C1140.43,-104.2 1073.67,-76.52 1016.02,-56 978.29,-42.57 934.26,-29.03 905.13,-20.36"/>
<polygon fill="midnightblue" stroke="midnightblue" points="906.06,-16.99 895.48,-17.51 904.08,-23.7 906.06,-16.99"/>
</g>
<!-- Node18&#45;&gt;Node2 -->
<g id="edge35" class="edge">
<title>Node18&#45;&gt;Node2</title>
<path fill="none" stroke="midnightblue" d="M848.66,-414.46C757.22,-394.62 530.63,-345.46 430.24,-323.68"/>
<polygon fill="midnightblue" stroke="midnightblue" points="430.87,-320.23 420.36,-321.53 429.39,-327.08 430.87,-320.23"/>
</g>
<!-- Node18&#45;&gt;Node3 -->
<g id="edge45" class="edge">
<title>Node18&#45;&gt;Node3</title>
<path fill="none" stroke="midnightblue" d="M842.82,-419.61C701.91,-408.43 280.02,-370.19 280.02,-313 280.02,-313 280.02,-313 280.02,-249.5 280.02,-213.29 275.96,-171.16 273.3,-147.38"/>
<polygon fill="midnightblue" stroke="midnightblue" points="276.75,-146.82 272.12,-137.29 269.8,-147.63 276.75,-146.82"/>
</g>
<!-- Node18&#45;&gt;Node4 -->
<g id="edge48" class="edge">
<title>Node18&#45;&gt;Node4</title>
<path fill="none" stroke="midnightblue" d="M842.84,-421.37C677.5,-414.8 115.02,-387 115.02,-313 115.02,-313 115.02,-313 115.02,-188 115.02,-151.54 107.36,-109.5 102.32,-85.8"/>
<polygon fill="midnightblue" stroke="midnightblue" points="105.68,-84.76 100.1,-75.75 98.84,-86.27 105.68,-84.76"/>
</g>
<!-- Node18&#45;&gt;Node5 -->
<g id="edge60" class="edge">
<title>Node18&#45;&gt;Node5</title>
<path fill="none" stroke="midnightblue" d="M842.81,-422.2C662.06,-418.42 1.02,-398.73 1.02,-313 1.02,-313 1.02,-313 1.02,-126.5 1.02,-94.05 -3.06,-78.81 20.02,-56 38.27,-37.96 104.68,-24.6 150.24,-17.3"/>
<polygon fill="midnightblue" stroke="midnightblue" points="150.84,-20.75 160.18,-15.75 149.76,-13.83 150.84,-20.75"/>
</g>
<!-- Node18&#45;&gt;Node8 -->
<g id="edge59" class="edge">
<title>Node18&#45;&gt;Node8</title>
<path fill="none" stroke="midnightblue" d="M899.56,-414.43C920.82,-397.57 964.02,-357.8 964.02,-313 964.02,-313 964.02,-313 964.02,-126.5 964.02,-82.23 922.27,-44.94 895.33,-25.49"/>
<polygon fill="midnightblue" stroke="midnightblue" points="897.05,-22.42 886.84,-19.59 893.05,-28.17 897.05,-22.42"/>
</g>
<!-- Node18&#45;&gt;Node11 -->
<g id="edge50" class="edge">
<title>Node18&#45;&gt;Node11</title>
<path fill="none" stroke="midnightblue" d="M881.14,-414.19C849.06,-373.12 714.03,-200.22 671.15,-145.31"/>
<polygon fill="midnightblue" stroke="midnightblue" points="673.79,-143.01 664.88,-137.28 668.27,-147.32 673.79,-143.01"/>
</g>
<!-- Node18&#45;&gt;Node12 -->
<g id="edge46" class="edge">
<title>Node18&#45;&gt;Node12</title>
<path fill="none" stroke="midnightblue" d="M933.19,-420.27C1003.63,-415.3 1135.65,-402.91 1175.02,-378 1262.69,-322.54 1321.75,-279.75 1297.02,-179 1289.01,-146.37 1289.9,-130.74 1262.02,-112 1229.06,-89.85 979.38,-75.67 855.41,-69.92"/>
<polygon fill="midnightblue" stroke="midnightblue" points="855.41,-66.42 845.27,-69.46 855.09,-73.41 855.41,-66.42"/>
</g>
<!-- Node18&#45;&gt;Node13 -->
<g id="edge58" class="edge">
<title>Node18&#45;&gt;Node13</title>
<path fill="none" stroke="midnightblue" d="M933.46,-422.75C1057.9,-420.84 1395.02,-407.01 1395.02,-313 1395.02,-313 1395.02,-313 1395.02,-126.5 1395.02,-94.05 1399.78,-78.1 1376.02,-56 1348.41,-30.33 1241.2,-18.36 1182.31,-13.63"/>
<polygon fill="midnightblue" stroke="midnightblue" points="1182.49,-10.13 1172.25,-12.85 1181.95,-17.11 1182.49,-10.13"/>
</g>
<!-- Node18&#45;&gt;Node15 -->
<g id="edge47" class="edge">
<title>Node18&#45;&gt;Node15</title>
<path fill="none" stroke="midnightblue" d="M933.2,-420.56C999.57,-416.13 1119.12,-404.6 1152.02,-378 1205.51,-334.75 1221.05,-247.72 1225.4,-209.15"/>
<polygon fill="midnightblue" stroke="midnightblue" points="1228.92,-209.14 1226.42,-198.84 1221.95,-208.45 1228.92,-209.14"/>
</g>
<!-- Node18&#45;&gt;Node16 -->
<g id="edge49" class="edge">
<title>Node18&#45;&gt;Node16</title>
<path fill="none" stroke="midnightblue" d="M933.29,-422.63C1005.34,-419.4 1138.02,-401.44 1138.02,-313 1138.02,-313 1138.02,-313 1138.02,-249.5 1138.02,-217.05 1143.16,-208.34 1157.02,-179 1162.79,-166.78 1171.56,-154.39 1179,-144.95"/>
<polygon fill="midnightblue" stroke="midnightblue" points="1181.72,-147.15 1185.34,-137.19 1176.3,-142.73 1181.72,-147.15"/>
</g>
<!-- Node19 -->
<g id="node19" class="node">
<title>Node19</title>
<g id="a_node19"><a xlink:href="args_8hpp.html" target="_top" xlink:title=" ">
<polygon fill="white" stroke="black" points="1030.02,-179.5 1030.02,-198.5 1110.02,-198.5 1110.02,-179.5 1030.02,-179.5"/>
<text text-anchor="middle" x="1070.02" y="-186.5" font-family="Helvetica,sans-Serif" font-size="10.00">lyra/args.hpp</text>
</a>
</g>
</g>
<!-- Node18&#45;&gt;Node19 -->
<g id="edge31" class="edge">
<title>Node18&#45;&gt;Node19</title>
<path fill="none" stroke="midnightblue" d="M916.1,-414.35C935.5,-407.2 960.8,-395.37 978.02,-378 1027.87,-327.72 1055.13,-245.07 1065.31,-208.45"/>
<polygon fill="midnightblue" stroke="midnightblue" points="1068.73,-209.22 1067.93,-198.65 1061.97,-207.41 1068.73,-209.22"/>
</g>
<!-- Node21 -->
<g id="node21" class="node">
<title>Node21</title>
<g id="a_node21"><a xlink:href="choices_8hpp.html" target="_top" xlink:title=" ">
<polygon fill="white" stroke="black" points="770.52,-179.5 770.52,-198.5 897.52,-198.5 897.52,-179.5 770.52,-179.5"/>
<text text-anchor="middle" x="834.02" y="-186.5" font-family="Helvetica,sans-Serif" font-size="10.00">lyra/detail/choices.hpp</text>
</a>
</g>
</g>
<!-- Node18&#45;&gt;Node21 -->
<g id="edge36" class="edge">
<title>Node18&#45;&gt;Node21</title>
<path fill="none" stroke="midnightblue" d="M886.03,-414.43C878.21,-380.68 849.42,-256.47 838.38,-208.8"/>
<polygon fill="midnightblue" stroke="midnightblue" points="841.75,-207.85 836.08,-198.9 834.93,-209.43 841.75,-207.85"/>
</g>
<!-- Node22 -->
<g id="node22" class="node">
<title>Node22</title>
<g id="a_node22"><a xlink:href="printer_8hpp.html" target="_top" xlink:title=" ">
<polygon fill="white" stroke="black" points="1275.02,-56.5 1275.02,-75.5 1367.02,-75.5 1367.02,-56.5 1275.02,-56.5"/>
<text text-anchor="middle" x="1321.02" y="-63.5" font-family="Helvetica,sans-Serif" font-size="10.00">lyra/printer.hpp</text>
</a>
</g>
</g>
<!-- Node18&#45;&gt;Node22 -->
<g id="edge51" class="edge">
<title>Node18&#45;&gt;Node22</title>
<path fill="none" stroke="midnightblue" d="M933.42,-421.95C1051.12,-418.01 1357.02,-399.46 1357.02,-313 1357.02,-313 1357.02,-313 1357.02,-188 1357.02,-149.99 1340.5,-107.94 1329.84,-84.78"/>
<polygon fill="midnightblue" stroke="midnightblue" points="1332.9,-83.06 1325.43,-75.54 1326.58,-86.08 1332.9,-83.06"/>
</g>
<!-- Node24 -->
<g id="node24" class="node">
<title>Node24</title>
<g id="a_node24"><a xlink:href="val_8hpp.html" target="_top" xlink:title=" ">
<polygon fill="white" stroke="black" points="720.02,-358.5 720.02,-377.5 794.02,-377.5 794.02,-358.5 720.02,-358.5"/>
<text text-anchor="middle" x="757.02" y="-365.5" font-family="Helvetica,sans-Serif" font-size="10.00">lyra/val.hpp</text>
</a>
</g>
</g>
<!-- Node18&#45;&gt;Node24 -->
<g id="edge55" class="edge">
<title>Node18&#45;&gt;Node24</title>
<path fill="none" stroke="midnightblue" d="M867.26,-414.44C845.7,-405.56 811.76,-391.56 787.23,-381.45"/>
<polygon fill="midnightblue" stroke="midnightblue" points="788.26,-378.09 777.68,-377.52 785.59,-384.56 788.26,-378.09"/>
</g>
<!-- Node19&#45;&gt;Node8 -->
<g id="edge33" class="edge">
<title>Node19&#45;&gt;Node8</title>
<path fill="none" stroke="midnightblue" d="M1066.13,-179.36C1055.33,-156.28 1022.85,-92.52 978.02,-56 956.55,-38.51 927.27,-26.72 905.08,-19.6"/>
<polygon fill="midnightblue" stroke="midnightblue" points="906.02,-16.23 895.44,-16.66 903.98,-22.93 906.02,-16.23"/>
</g>
<!-- Node19&#45;&gt;Node17 -->
<g id="edge34" class="edge">
<title>Node19&#45;&gt;Node17</title>
<path fill="none" stroke="midnightblue" d="M1073.17,-179.48C1076.34,-170.9 1081.32,-157.43 1085.37,-146.48"/>
<polygon fill="midnightblue" stroke="midnightblue" points="1088.69,-147.6 1088.87,-137.01 1082.12,-145.17 1088.69,-147.6"/>
</g>
<!-- Node20 -->
<g id="node20" class="node">
<title>Node20</title>
<g id="a_node20"><a xlink:title=" ">
<polygon fill="white" stroke="#bfbfbf" points="852.52,-118 852.52,-137 935.52,-137 935.52,-118 852.52,-118"/>
<text text-anchor="middle" x="894.02" y="-125" font-family="Helvetica,sans-Serif" font-size="10.00">initializer_list</text>
</a>
</g>
</g>
<!-- Node19&#45;&gt;Node20 -->
<g id="edge32" class="edge">
<title>Node19&#45;&gt;Node20</title>
<path fill="none" stroke="midnightblue" d="M1044.8,-179.48C1014.35,-169.18 962.97,-151.81 928.78,-140.25"/>
<polygon fill="midnightblue" stroke="midnightblue" points="929.78,-136.9 919.19,-137.01 927.54,-143.53 929.78,-136.9"/>
</g>
<!-- Node21&#45;&gt;Node3 -->
<g id="edge37" class="edge">
<title>Node21&#45;&gt;Node3</title>
<path fill="none" stroke="midnightblue" d="M770.16,-181.9C684.02,-173.58 525.86,-157.99 391.02,-143 377.59,-141.51 363.33,-139.85 349.5,-138.2"/>
<polygon fill="midnightblue" stroke="midnightblue" points="349.87,-134.72 339.53,-137.01 349.04,-141.67 349.87,-134.72"/>
</g>
<!-- Node21&#45;&gt;Node5 -->
<g id="edge43" class="edge">
<title>Node21&#45;&gt;Node5</title>
<path fill="none" stroke="midnightblue" d="M825.05,-179.33C807.92,-163.3 768.7,-129.09 729.02,-112 558.21,-38.43 333.86,-18.27 239.68,-12.89"/>
<polygon fill="midnightblue" stroke="midnightblue" points="239.82,-9.4 229.64,-12.35 239.44,-16.39 239.82,-9.4"/>
</g>
<!-- Node21&#45;&gt;Node8 -->
<g id="edge42" class="edge">
<title>Node21&#45;&gt;Node8</title>
<path fill="none" stroke="midnightblue" d="M834.72,-179.5C835.98,-165.37 838.98,-136.23 844.02,-112 844.87,-107.9 859.42,-57.72 867.58,-29.67"/>
<polygon fill="midnightblue" stroke="midnightblue" points="871.01,-30.41 870.45,-19.83 864.29,-28.45 871.01,-30.41"/>
</g>
<!-- Node21&#45;&gt;Node11 -->
<g id="edge40" class="edge">
<title>Node21&#45;&gt;Node11</title>
<path fill="none" stroke="midnightblue" d="M808.8,-179.48C778.35,-169.18 726.97,-151.81 692.78,-140.25"/>
<polygon fill="midnightblue" stroke="midnightblue" points="693.78,-136.9 683.19,-137.01 691.54,-143.53 693.78,-136.9"/>
</g>
<!-- Node21&#45;&gt;Node12 -->
<g id="edge38" class="edge">
<title>Node21&#45;&gt;Node12</title>
<path fill="none" stroke="midnightblue" d="M828.74,-179.27C823.51,-170.37 815.51,-156.06 810.02,-143 801.99,-123.91 795.15,-101.16 790.85,-85.56"/>
<polygon fill="midnightblue" stroke="midnightblue" points="794.15,-84.37 788.18,-75.62 787.39,-86.18 794.15,-84.37"/>
</g>
<!-- Node21&#45;&gt;Node14 -->
<g id="edge39" class="edge">
<title>Node21&#45;&gt;Node14</title>
<path fill="none" stroke="midnightblue" d="M781.87,-179.48C721.25,-169.57 620.55,-153.11 550.02,-141.58"/>
<polygon fill="midnightblue" stroke="midnightblue" points="550.28,-138.07 539.84,-139.91 549.15,-144.98 550.28,-138.07"/>
</g>
<!-- Node21&#45;&gt;Node17 -->
<g id="edge44" class="edge">
<title>Node21&#45;&gt;Node17</title>
<path fill="none" stroke="midnightblue" d="M870.98,-179.48C921.09,-167.92 1009.85,-147.45 1058.25,-136.29"/>
<polygon fill="midnightblue" stroke="midnightblue" points="1059.26,-139.65 1068.22,-133.99 1057.69,-132.83 1059.26,-139.65"/>
</g>
<!-- Node21&#45;&gt;Node20 -->
<g id="edge41" class="edge">
<title>Node21&#45;&gt;Node20</title>
<path fill="none" stroke="midnightblue" d="M842.62,-179.48C851.88,-170.28 866.84,-155.46 878.23,-144.16"/>
<polygon fill="midnightblue" stroke="midnightblue" points="880.8,-146.54 885.44,-137.01 875.87,-141.57 880.8,-146.54"/>
</g>
<!-- Node22&#45;&gt;Node8 -->
<g id="edge54" class="edge">
<title>Node22&#45;&gt;Node8</title>
<path fill="none" stroke="midnightblue" d="M1274.85,-57.92C1270.18,-57.25 1265.51,-56.6 1261.02,-56 1129.53,-38.52 972.45,-21.48 905.66,-14.41"/>
<polygon fill="midnightblue" stroke="midnightblue" points="905.67,-10.89 895.36,-13.33 904.94,-17.86 905.67,-10.89"/>
</g>
<!-- Node22&#45;&gt;Node13 -->
<g id="edge52" class="edge">
<title>Node22&#45;&gt;Node13</title>
<path fill="none" stroke="midnightblue" d="M1292.82,-56.44C1262.61,-47.28 1214.51,-32.69 1180.99,-22.52"/>
<polygon fill="midnightblue" stroke="midnightblue" points="1181.68,-19.07 1171.09,-19.52 1179.65,-25.77 1181.68,-19.07"/>
</g>
<!-- Node23 -->
<g id="node23" class="node">
<title>Node23</title>
<g id="a_node23"><a xlink:title=" ">
<polygon fill="white" stroke="#bfbfbf" points="1292.52,-0.5 1292.52,-19.5 1349.52,-19.5 1349.52,-0.5 1292.52,-0.5"/>
<text text-anchor="middle" x="1321.02" y="-7.5" font-family="Helvetica,sans-Serif" font-size="10.00">ostream</text>
</a>
</g>
</g>
<!-- Node22&#45;&gt;Node23 -->
<g id="edge53" class="edge">
<title>Node22&#45;&gt;Node23</title>
<path fill="none" stroke="midnightblue" d="M1321.02,-56.08C1321.02,-49.01 1321.02,-38.86 1321.02,-29.99"/>
<polygon fill="midnightblue" stroke="midnightblue" points="1324.52,-29.75 1321.02,-19.75 1317.52,-29.75 1324.52,-29.75"/>
</g>
<!-- Node24&#45;&gt;Node2 -->
<g id="edge56" class="edge">
<title>Node24&#45;&gt;Node2</title>
<path fill="none" stroke="midnightblue" d="M720,-360.3C715.3,-359.5 710.55,-358.71 706.02,-358 618.56,-344.23 517.49,-330.59 451.59,-322"/>
<polygon fill="midnightblue" stroke="midnightblue" points="451.68,-318.49 441.32,-320.67 450.78,-325.43 451.68,-318.49"/>
</g>
<!-- Node24&#45;&gt;Node13 -->
<g id="edge57" class="edge">
<title>Node24&#45;&gt;Node13</title>
<path fill="none" stroke="midnightblue" d="M766.56,-358.2C817.66,-311.07 1059.14,-88.36 1125.89,-26.8"/>
<polygon fill="midnightblue" stroke="midnightblue" points="1128.49,-29.16 1133.47,-19.81 1123.74,-24.02 1128.49,-29.16"/>
</g>
</g>
</svg>
        <g id="navigator" transform="translate(0 0)" fill="#404254">
                <rect fill="#f2f5e9" fill-opacity="0.5" stroke="#606060" stroke-width=".5" x="0" y="0" width="60" height="60"/>
                <use id="zoomplus" xlink:href="#zoomPlus" x="17" y="9" onmousedown="handleZoom(evt,'in')"/>
                <use id="zoomminus" xlink:href="#zoomMin" x="42" y="9" onmousedown="handleZoom(evt,'out')"/>
                <use id="reset" xlink:href="#resetDef" x="30" y="36" onmousedown="handleReset()"/>
                <g id="arrowUp" xlink:href="#dirArrow" transform="translate(30 24)" onmousedown="handlePan(0,-1)">
                  <use xlink:href="#rim" fill="#404040">
                        <set attributeName="fill" to="#808080" begin="arrowUp.mouseover" end="arrowUp.mouseout"/>
                  </use>
                  <path fill="none" stroke="white" stroke-width="1.5" d="M0,-3.0v7 M-2.5,-0.5L0,-3.0L2.5,-0.5"/>
                </g>
                <g id="arrowRight" xlink:href="#dirArrow" transform="rotate(90) translate(36 -43)" onmousedown="handlePan(1,0)">
                  <use xlink:href="#rim" fill="#404040">
                        <set attributeName="fill" to="#808080" begin="arrowRight.mouseover" end="arrowRight.mouseout"/>
                  </use>
                  <path fill="none" stroke="white" stroke-width="1.5" d="M0,-3.0v7 M-2.5,-0.5L0,-3.0L2.5,-0.5"/>
                </g>
                <g id="arrowDown" xlink:href="#dirArrow" transform="rotate(180) translate(-30 -48)" onmousedown="handlePan(0,1)">
                  <use xlink:href="#rim" fill="#404040">
                        <set attributeName="fill" to="#808080" begin="arrowDown.mouseover" end="arrowDown.mouseout"/>
                  </use>
                  <path fill="none" stroke="white" stroke-width="1.5" d="M0,-3.0v7 M-2.5,-0.5L0,-3.0L2.5,-0.5"/>
                </g>
                <g id="arrowLeft" xlink:href="#dirArrow" transform="rotate(270) translate(-36 17)" onmousedown="handlePan(-1,0)">
                  <use xlink:href="#rim" fill="#404040">
                        <set attributeName="fill" to="#808080" begin="arrowLeft.mouseover" end="arrowLeft.mouseout"/>
                  </use>
                  <path fill="none" stroke="white" stroke-width="1.5" d="M0,-3.0v7 M-2.5,-0.5L0,-3.0L2.5,-0.5"/>
                </g>
        </g>
        <svg viewBox="0 0 15 15" width="100%" height="30px" preserveAspectRatio="xMaxYMin meet">
         <g id="arrow_out" transform="scale(0.3 0.3)">
          <a xlink:href="exe__name_8hpp__incl_org.svg" target="_base">
           <rect id="button" ry="5" rx="5" y="6" x="6" height="38" width="38"
                fill="#f2f5e9" fill-opacity="0.5" stroke="#606060" stroke-width="1.0"/>
           <path id="arrow"
             d="M 11.500037,31.436501 C 11.940474,20.09759 22.043105,11.32322 32.158766,21.979434 L 37.068811,17.246167 C 37.068811,17.246167 37.088388,32 37.088388,32 L 22.160133,31.978069 C 22.160133,31.978069 26.997745,27.140456 26.997745,27.140456 C 18.528582,18.264221 13.291696,25.230495 11.500037,31.436501 z"
             style="fill:#404040;"/>
          </a>
         </g>
        </svg>
</svg>
