<?xml version="1.0" encoding="UTF-8" standalone="no"?>
<!DOCTYPE svg PUBLIC "-//W3C//DTD SVG 1.1//EN"
 "http://www.w3.org/Graphics/SVG/1.1/DTD/svg11.dtd">
<!-- Generated by graphviz version 2.43.0 (0)
 -->
<!-- Title: Lyra/include/lyra/detail/from_string.hpp Pages: 1 -->
<svg width="1058pt" height="710pt"
 viewBox="0.00 0.00 1058.00 710.00" xmlns="http://www.w3.org/2000/svg" xmlns:xlink="http://www.w3.org/1999/xlink">
<g id="graph0" class="graph" transform="scale(1 1) rotate(0) translate(4 706)">
<title>Lyra/include/lyra/detail/from_string.hpp</title>
<polygon fill="white" stroke="transparent" points="-4,4 -4,-706 1054,-706 1054,4 -4,4"/>
<!-- Node1 -->
<g id="node1" class="node">
<title>Node1</title>
<g id="a_node1"><a xlink:title=" ">
<polygon fill="#bfbfbf" stroke="black" points="341,-671.5 341,-701.5 469,-701.5 469,-671.5 341,-671.5"/>
<text text-anchor="start" x="349" y="-689.5" font-family="Helvetica,sans-Serif" font-size="10.00">Lyra/include/lyra/detail</text>
<text text-anchor="middle" x="405" y="-678.5" font-family="Helvetica,sans-Serif" font-size="10.00">/from_string.hpp</text>
</a>
</g>
</g>
<!-- Node2 -->
<g id="node2" class="node">
<title>Node2</title>
<g id="a_node2"><a xlink:href="cli_8hpp.html" target="_top" xlink:title=" ">
<polygon fill="white" stroke="black" points="69,-123.5 69,-142.5 201,-142.5 201,-123.5 69,-123.5"/>
<text text-anchor="middle" x="135" y="-130.5" font-family="Helvetica,sans-Serif" font-size="10.00">Lyra/include/lyra/cli.hpp</text>
</a>
</g>
</g>
<!-- Node1&#45;&gt;Node2 -->
<g id="edge1" class="edge">
<title>Node1&#45;&gt;Node2</title>
<path fill="none" stroke="midnightblue" d="M330.86,-676.74C213.97,-660.83 0,-622.3 0,-553.5 0,-553.5 0,-553.5 0,-244 0,-189.13 67.86,-156.77 107.35,-142.58"/>
<polygon fill="midnightblue" stroke="midnightblue" points="330.45,-680.21 340.83,-678.07 331.38,-673.27 330.45,-680.21"/>
</g>
<!-- Node6 -->
<g id="node6" class="node">
<title>Node6</title>
<g id="a_node6"><a xlink:href="bound_8hpp.html" target="_top" xlink:title=" ">
<polygon fill="white" stroke="black" points="478,-470.5 478,-500.5 606,-500.5 606,-470.5 478,-470.5"/>
<text text-anchor="start" x="486" y="-488.5" font-family="Helvetica,sans-Serif" font-size="10.00">Lyra/include/lyra/detail</text>
<text text-anchor="middle" x="542" y="-477.5" font-family="Helvetica,sans-Serif" font-size="10.00">/bound.hpp</text>
</a>
</g>
</g>
<!-- Node1&#45;&gt;Node6 -->
<g id="edge7" class="edge">
<title>Node1&#45;&gt;Node6</title>
<path fill="none" stroke="midnightblue" d="M420.59,-662.85C449.09,-621.46 508.78,-534.76 532.24,-500.68"/>
<polygon fill="midnightblue" stroke="midnightblue" points="417.64,-660.97 414.85,-671.19 423.41,-664.94 417.64,-660.97"/>
</g>
<!-- Node11 -->
<g id="node11" class="node">
<title>Node11</title>
<g id="a_node11"><a xlink:href="parser_8hpp.html" target="_top" xlink:title=" ">
<polygon fill="white" stroke="black" points="468,-358.5 468,-377.5 620,-377.5 620,-358.5 468,-358.5"/>
<text text-anchor="middle" x="544" y="-365.5" font-family="Helvetica,sans-Serif" font-size="10.00">Lyra/include/lyra/parser.hpp</text>
</a>
</g>
</g>
<!-- Node1&#45;&gt;Node11 -->
<g id="edge47" class="edge">
<title>Node1&#45;&gt;Node11</title>
<path fill="none" stroke="midnightblue" d="M378.26,-664.68C351.1,-640.97 313,-599.52 313,-553.5 313,-553.5 313,-553.5 313,-484.5 313,-413.88 400.44,-386.44 467.72,-375.77"/>
<polygon fill="midnightblue" stroke="midnightblue" points="376.04,-667.39 385.94,-671.17 380.56,-662.04 376.04,-667.39"/>
</g>
<!-- Node17 -->
<g id="node17" class="node">
<title>Node17</title>
<g id="a_node17"><a xlink:href="choices_8hpp.html" target="_top" xlink:title=" ">
<polygon fill="white" stroke="black" points="341,-537.5 341,-567.5 469,-567.5 469,-537.5 341,-537.5"/>
<text text-anchor="start" x="349" y="-555.5" font-family="Helvetica,sans-Serif" font-size="10.00">Lyra/include/lyra/detail</text>
<text text-anchor="middle" x="405" y="-544.5" font-family="Helvetica,sans-Serif" font-size="10.00">/choices.hpp</text>
</a>
</g>
</g>
<!-- Node1&#45;&gt;Node17 -->
<g id="edge41" class="edge">
<title>Node1&#45;&gt;Node17</title>
<path fill="none" stroke="midnightblue" d="M405,-661.02C405,-633.51 405,-589.79 405,-567.52"/>
<polygon fill="midnightblue" stroke="midnightblue" points="401.5,-661.37 405,-671.37 408.5,-661.37 401.5,-661.37"/>
</g>
<!-- Node18 -->
<g id="node18" class="node">
<title>Node18</title>
<g id="a_node18"><a xlink:href="parse_8hpp.html" target="_top" xlink:title=" ">
<polygon fill="white" stroke="black" points="525,-604.5 525,-634.5 653,-634.5 653,-604.5 525,-604.5"/>
<text text-anchor="start" x="533" y="-622.5" font-family="Helvetica,sans-Serif" font-size="10.00">Lyra/include/lyra/detail</text>
<text text-anchor="middle" x="589" y="-611.5" font-family="Helvetica,sans-Serif" font-size="10.00">/parse.hpp</text>
</a>
</g>
</g>
<!-- Node1&#45;&gt;Node18 -->
<g id="edge43" class="edge">
<title>Node1&#45;&gt;Node18</title>
<path fill="none" stroke="midnightblue" d="M454.67,-667.96C484.3,-657.48 521.44,-644.37 549.15,-634.58"/>
<polygon fill="midnightblue" stroke="midnightblue" points="453.19,-664.76 444.93,-671.4 455.52,-671.37 453.19,-664.76"/>
</g>
<!-- Node3 -->
<g id="node3" class="node">
<title>Node3</title>
<g id="a_node3"><a xlink:href="cli__parser_8hpp.html" target="_top" xlink:title=" ">
<polygon fill="white" stroke="black" points="66.5,-56.5 66.5,-86.5 177.5,-86.5 177.5,-56.5 66.5,-56.5"/>
<text text-anchor="start" x="74.5" y="-74.5" font-family="Helvetica,sans-Serif" font-size="10.00">Lyra/include/lyra/cli</text>
<text text-anchor="middle" x="122" y="-63.5" font-family="Helvetica,sans-Serif" font-size="10.00">_parser.hpp</text>
</a>
</g>
</g>
<!-- Node2&#45;&gt;Node3 -->
<g id="edge2" class="edge">
<title>Node2&#45;&gt;Node3</title>
<path fill="none" stroke="midnightblue" d="M130.96,-113.53C129.06,-104.81 126.83,-94.59 125.06,-86.52"/>
<polygon fill="midnightblue" stroke="midnightblue" points="127.58,-114.45 133.14,-123.48 134.42,-112.96 127.58,-114.45"/>
</g>
<!-- Node4 -->
<g id="node4" class="node">
<title>Node4</title>
<g id="a_node4"><a xlink:href="include_2lyra_2lyra_8hpp.html" target="_top" xlink:title=" ">
<polygon fill="white" stroke="black" points="436,-0.5 436,-19.5 576,-19.5 576,-0.5 436,-0.5"/>
<text text-anchor="middle" x="506" y="-7.5" font-family="Helvetica,sans-Serif" font-size="10.00">Lyra/include/lyra/lyra.hpp</text>
</a>
</g>
</g>
<!-- Node2&#45;&gt;Node4 -->
<g id="edge4" class="edge">
<title>Node2&#45;&gt;Node4</title>
<path fill="none" stroke="midnightblue" d="M152.22,-116.44C174.67,-96.48 213.06,-63.53 230,-56 295.88,-26.72 378.2,-16.27 435.72,-12.65"/>
<polygon fill="midnightblue" stroke="midnightblue" points="149.59,-114.09 144.48,-123.37 154.26,-119.31 149.59,-114.09"/>
</g>
<!-- Node5 -->
<g id="node5" class="node">
<title>Node5</title>
<g id="a_node5"><a xlink:href="main_8hpp.html" target="_top" xlink:title=" ">
<polygon fill="white" stroke="black" points="665,-62 665,-81 811,-81 811,-62 665,-62"/>
<text text-anchor="middle" x="738" y="-69" font-family="Helvetica,sans-Serif" font-size="10.00">Lyra/include/lyra/main.hpp</text>
</a>
</g>
</g>
<!-- Node2&#45;&gt;Node5 -->
<g id="edge5" class="edge">
<title>Node2&#45;&gt;Node5</title>
<path fill="none" stroke="midnightblue" d="M211.54,-124.45C328.37,-112.92 549.69,-91.08 664.6,-79.74"/>
<polygon fill="midnightblue" stroke="midnightblue" points="210.86,-121 201.26,-125.46 211.55,-127.96 210.86,-121"/>
</g>
<!-- Node3&#45;&gt;Node4 -->
<g id="edge3" class="edge">
<title>Node3&#45;&gt;Node4</title>
<path fill="none" stroke="midnightblue" d="M187.6,-56.78C189.08,-56.52 190.55,-56.25 192,-56 276.35,-41.23 374.08,-27.8 437.82,-19.53"/>
<polygon fill="midnightblue" stroke="midnightblue" points="186.91,-53.35 177.72,-58.63 188.2,-60.23 186.91,-53.35"/>
</g>
<!-- Node5&#45;&gt;Node4 -->
<g id="edge6" class="edge">
<title>Node5&#45;&gt;Node4</title>
<path fill="none" stroke="midnightblue" d="M694.99,-59.47C649.94,-47.91 580.15,-30.02 539.18,-19.51"/>
<polygon fill="midnightblue" stroke="midnightblue" points="694.2,-62.88 704.76,-61.98 695.94,-56.1 694.2,-62.88"/>
</g>
<!-- Node7 -->
<g id="node7" class="node">
<title>Node7</title>
<g id="a_node7"><a xlink:href="exe__name_8hpp.html" target="_top" xlink:title=" ">
<polygon fill="white" stroke="black" points="231,-291.5 231,-321.5 349,-321.5 349,-291.5 231,-291.5"/>
<text text-anchor="start" x="239" y="-309.5" font-family="Helvetica,sans-Serif" font-size="10.00">Lyra/include/lyra/exe</text>
<text text-anchor="middle" x="290" y="-298.5" font-family="Helvetica,sans-Serif" font-size="10.00">_name.hpp</text>
</a>
</g>
</g>
<!-- Node6&#45;&gt;Node7 -->
<g id="edge8" class="edge">
<title>Node6&#45;&gt;Node7</title>
<path fill="none" stroke="midnightblue" d="M513.44,-464.44C461.86,-428.21 354.42,-352.75 309.94,-321.51"/>
<polygon fill="midnightblue" stroke="midnightblue" points="511.61,-467.43 521.8,-470.31 515.63,-461.7 511.61,-467.43"/>
</g>
<!-- Node6&#45;&gt;Node11 -->
<g id="edge19" class="edge">
<title>Node6&#45;&gt;Node11</title>
<path fill="none" stroke="midnightblue" d="M542.42,-460.21C542.87,-434.41 543.55,-394.99 543.85,-377.67"/>
<polygon fill="midnightblue" stroke="midnightblue" points="538.92,-460.28 542.25,-470.34 545.92,-460.4 538.92,-460.28"/>
</g>
<!-- Node16 -->
<g id="node16" class="node">
<title>Node16</title>
<g id="a_node16"><a xlink:href="val_8hpp.html" target="_top" xlink:title=" ">
<polygon fill="white" stroke="black" points="708,-414.5 708,-433.5 844,-433.5 844,-414.5 708,-414.5"/>
<text text-anchor="middle" x="776" y="-421.5" font-family="Helvetica,sans-Serif" font-size="10.00">Lyra/include/lyra/val.hpp</text>
</a>
</g>
</g>
<!-- Node6&#45;&gt;Node16 -->
<g id="edge36" class="edge">
<title>Node6&#45;&gt;Node16</title>
<path fill="none" stroke="midnightblue" d="M606.92,-467.99C650.94,-456.8 707.31,-442.47 742.55,-433.51"/>
<polygon fill="midnightblue" stroke="midnightblue" points="605.99,-464.62 597.16,-470.47 607.71,-471.4 605.99,-464.62"/>
</g>
<!-- Node7&#45;&gt;Node2 -->
<g id="edge17" class="edge">
<title>Node7&#45;&gt;Node2</title>
<path fill="none" stroke="midnightblue" d="M240.42,-287.23C203.74,-270.61 156.99,-242.02 138,-199 129.79,-180.4 131.64,-155.82 133.46,-142.87"/>
<polygon fill="midnightblue" stroke="midnightblue" points="239.42,-290.61 249.98,-291.4 242.22,-284.2 239.42,-290.61"/>
</g>
<!-- Node7&#45;&gt;Node4 -->
<g id="edge18" class="edge">
<title>Node7&#45;&gt;Node4</title>
<path fill="none" stroke="midnightblue" d="M220.63,-302.55C146.03,-295.22 38,-270.67 38,-190 38,-190 38,-190 38,-132 38,-97.18 30.66,-78.77 57,-56 85,-31.79 316.39,-18.8 435.59,-13.66"/>
<polygon fill="midnightblue" stroke="midnightblue" points="220.64,-306.07 230.92,-303.48 221.27,-299.09 220.64,-306.07"/>
</g>
<!-- Node8 -->
<g id="node8" class="node">
<title>Node8</title>
<g id="a_node8"><a xlink:href="arguments_8hpp.html" target="_top" xlink:title=" ">
<polygon fill="white" stroke="black" points="203.5,-235.5 203.5,-254.5 376.5,-254.5 376.5,-235.5 203.5,-235.5"/>
<text text-anchor="middle" x="290" y="-242.5" font-family="Helvetica,sans-Serif" font-size="10.00">Lyra/include/lyra/arguments.hpp</text>
</a>
</g>
</g>
<!-- Node7&#45;&gt;Node8 -->
<g id="edge9" class="edge">
<title>Node7&#45;&gt;Node8</title>
<path fill="none" stroke="midnightblue" d="M290,-281.29C290,-271.86 290,-261.65 290,-254.66"/>
<polygon fill="midnightblue" stroke="midnightblue" points="286.5,-281.4 290,-291.4 293.5,-281.4 286.5,-281.4"/>
</g>
<!-- Node8&#45;&gt;Node2 -->
<g id="edge10" class="edge">
<title>Node8&#45;&gt;Node2</title>
<path fill="none" stroke="midnightblue" d="M212.87,-232.76C191.01,-226.14 168.88,-215.65 153,-199 138.13,-183.41 135.34,-156.65 134.94,-142.83"/>
<polygon fill="midnightblue" stroke="midnightblue" points="211.95,-236.14 222.53,-235.44 213.83,-229.39 211.95,-236.14"/>
</g>
<!-- Node8&#45;&gt;Node4 -->
<g id="edge16" class="edge">
<title>Node8&#45;&gt;Node4</title>
<path fill="none" stroke="midnightblue" d="M304.5,-227.4C310.55,-219.39 316.88,-209.3 320,-199 322.58,-190.49 322.32,-187.58 320,-179 315.17,-161.12 303.83,-160.88 299,-143 296.68,-134.42 294.45,-130.64 299,-123 335.19,-62.28 417,-32.48 466.24,-19.54"/>
<polygon fill="midnightblue" stroke="midnightblue" points="301.77,-225.2 298.21,-235.18 307.22,-229.6 301.77,-225.2"/>
</g>
<!-- Node9 -->
<g id="node9" class="node">
<title>Node9</title>
<g id="a_node9"><a xlink:href="group_8hpp.html" target="_top" xlink:title=" ">
<polygon fill="white" stroke="black" points="162.5,-179.5 162.5,-198.5 311.5,-198.5 311.5,-179.5 162.5,-179.5"/>
<text text-anchor="middle" x="237" y="-186.5" font-family="Helvetica,sans-Serif" font-size="10.00">Lyra/include/lyra/group.hpp</text>
</a>
</g>
</g>
<!-- Node8&#45;&gt;Node9 -->
<g id="edge11" class="edge">
<title>Node8&#45;&gt;Node9</title>
<path fill="none" stroke="midnightblue" d="M274.02,-227.72C264.68,-218.2 253.25,-206.56 245.59,-198.75"/>
<polygon fill="midnightblue" stroke="midnightblue" points="271.75,-230.4 281.25,-235.08 276.74,-225.49 271.75,-230.4"/>
</g>
<!-- Node9&#45;&gt;Node2 -->
<g id="edge12" class="edge">
<title>Node9&#45;&gt;Node2</title>
<path fill="none" stroke="midnightblue" d="M211.67,-174.59C192.81,-164.61 167.62,-151.27 151.35,-142.65"/>
<polygon fill="midnightblue" stroke="midnightblue" points="210.14,-177.74 220.61,-179.32 213.41,-171.55 210.14,-177.74"/>
</g>
<!-- Node9&#45;&gt;Node4 -->
<g id="edge15" class="edge">
<title>Node9&#45;&gt;Node4</title>
<path fill="none" stroke="midnightblue" d="M235.53,-169.1C234.42,-140.33 236.91,-85.76 268,-56 291.66,-33.36 374.62,-21.61 435.98,-15.88"/>
<polygon fill="midnightblue" stroke="midnightblue" points="232.05,-169.61 236.13,-179.39 239.04,-169.2 232.05,-169.61"/>
</g>
<!-- Node10 -->
<g id="node10" class="node">
<title>Node10</title>
<g id="a_node10"><a xlink:href="command_8hpp.html" target="_top" xlink:title=" ">
<polygon fill="white" stroke="black" points="308,-123.5 308,-142.5 478,-142.5 478,-123.5 308,-123.5"/>
<text text-anchor="middle" x="393" y="-130.5" font-family="Helvetica,sans-Serif" font-size="10.00">Lyra/include/lyra/command.hpp</text>
</a>
</g>
</g>
<!-- Node9&#45;&gt;Node10 -->
<g id="edge13" class="edge">
<title>Node9&#45;&gt;Node10</title>
<path fill="none" stroke="midnightblue" d="M271.17,-176.17C300.54,-166 342.2,-151.59 368.4,-142.52"/>
<polygon fill="midnightblue" stroke="midnightblue" points="270.02,-172.86 261.72,-179.44 272.31,-179.48 270.02,-172.86"/>
</g>
<!-- Node10&#45;&gt;Node4 -->
<g id="edge14" class="edge">
<title>Node10&#45;&gt;Node4</title>
<path fill="none" stroke="midnightblue" d="M408.15,-115.77C432.43,-89.78 479.21,-39.69 497.95,-19.62"/>
<polygon fill="midnightblue" stroke="midnightblue" points="405.39,-113.6 401.13,-123.3 410.51,-118.38 405.39,-113.6"/>
</g>
<!-- Node11&#45;&gt;Node4 -->
<g id="edge28" class="edge">
<title>Node11&#45;&gt;Node4</title>
<path fill="none" stroke="midnightblue" d="M544,-348.44C544,-324.69 544,-282.29 544,-246 544,-246 544,-246 544,-132 544,-87.96 520.81,-38.88 510.66,-19.52"/>
<polygon fill="midnightblue" stroke="midnightblue" points="540.5,-348.49 544,-358.49 547.5,-348.49 540.5,-348.49"/>
</g>
<!-- Node11&#45;&gt;Node5 -->
<g id="edge29" class="edge">
<title>Node11&#45;&gt;Node5</title>
<path fill="none" stroke="midnightblue" d="M560.67,-350.8C595.46,-316.04 676.1,-230.35 719,-143 729.28,-122.06 734.6,-94.8 736.78,-81.12"/>
<polygon fill="midnightblue" stroke="midnightblue" points="557.88,-348.63 553.23,-358.15 562.8,-353.61 557.88,-348.63"/>
</g>
<!-- Node11&#45;&gt;Node7 -->
<g id="edge24" class="edge">
<title>Node11&#45;&gt;Node7</title>
<path fill="none" stroke="midnightblue" d="M497.73,-356.16C456.08,-346.4 394.64,-332.01 349.37,-321.41"/>
<polygon fill="midnightblue" stroke="midnightblue" points="497.07,-359.6 507.61,-358.48 498.67,-352.79 497.07,-359.6"/>
</g>
<!-- Node11&#45;&gt;Node8 -->
<g id="edge23" class="edge">
<title>Node11&#45;&gt;Node8</title>
<path fill="none" stroke="midnightblue" d="M516.87,-354.07C464.82,-329.28 352.22,-275.64 308.18,-254.66"/>
<polygon fill="midnightblue" stroke="midnightblue" points="515.61,-357.35 526.14,-358.49 518.62,-351.03 515.61,-357.35"/>
</g>
<!-- Node12 -->
<g id="node12" class="node">
<title>Node12</title>
<g id="a_node12"><a xlink:href="arg_8hpp.html" target="_top" xlink:title=" ">
<polygon fill="white" stroke="black" points="572.5,-123.5 572.5,-142.5 709.5,-142.5 709.5,-123.5 572.5,-123.5"/>
<text text-anchor="middle" x="641" y="-130.5" font-family="Helvetica,sans-Serif" font-size="10.00">Lyra/include/lyra/arg.hpp</text>
</a>
</g>
</g>
<!-- Node11&#45;&gt;Node12 -->
<g id="edge20" class="edge">
<title>Node11&#45;&gt;Node12</title>
<path fill="none" stroke="midnightblue" d="M551.51,-348.95C571.06,-302 622.98,-177.29 637.3,-142.9"/>
<polygon fill="midnightblue" stroke="midnightblue" points="548.18,-347.85 547.57,-358.43 554.64,-350.54 548.18,-347.85"/>
</g>
<!-- Node13 -->
<g id="node13" class="node">
<title>Node13</title>
<g id="a_node13"><a xlink:href="literal_8hpp.html" target="_top" xlink:title=" ">
<polygon fill="white" stroke="black" points="367.5,-179.5 367.5,-198.5 516.5,-198.5 516.5,-179.5 367.5,-179.5"/>
<text text-anchor="middle" x="442" y="-186.5" font-family="Helvetica,sans-Serif" font-size="10.00">Lyra/include/lyra/literal.hpp</text>
</a>
</g>
</g>
<!-- Node11&#45;&gt;Node13 -->
<g id="edge25" class="edge">
<title>Node11&#45;&gt;Node13</title>
<path fill="none" stroke="midnightblue" d="M534.08,-349.79C512.76,-312.78 463.16,-226.72 447.11,-198.87"/>
<polygon fill="midnightblue" stroke="midnightblue" points="531.05,-351.55 539.08,-358.46 537.12,-348.05 531.05,-351.55"/>
</g>
<!-- Node14 -->
<g id="node14" class="node">
<title>Node14</title>
<g id="a_node14"><a xlink:href="opt_8hpp.html" target="_top" xlink:title=" ">
<polygon fill="white" stroke="black" points="804.5,-179.5 804.5,-198.5 941.5,-198.5 941.5,-179.5 804.5,-179.5"/>
<text text-anchor="middle" x="873" y="-186.5" font-family="Helvetica,sans-Serif" font-size="10.00">Lyra/include/lyra/opt.hpp</text>
</a>
</g>
</g>
<!-- Node11&#45;&gt;Node14 -->
<g id="edge30" class="edge">
<title>Node11&#45;&gt;Node14</title>
<path fill="none" stroke="midnightblue" d="M610.06,-356.46C642.59,-349.57 681.66,-338.67 714,-322 747.81,-304.58 834.66,-225.49 863.52,-198.81"/>
<polygon fill="midnightblue" stroke="midnightblue" points="609.29,-353.04 600.19,-358.47 610.69,-359.9 609.29,-353.04"/>
</g>
<!-- Node12&#45;&gt;Node4 -->
<g id="edge21" class="edge">
<title>Node12&#45;&gt;Node4</title>
<path fill="none" stroke="midnightblue" d="M624.08,-116.25C607.4,-100.78 581.11,-76.58 558,-56 543.55,-43.14 526.57,-28.54 516.04,-19.54"/>
<polygon fill="midnightblue" stroke="midnightblue" points="622.16,-119.24 631.86,-123.48 626.92,-114.11 622.16,-119.24"/>
</g>
<!-- Node12&#45;&gt;Node5 -->
<g id="edge22" class="edge">
<title>Node12&#45;&gt;Node5</title>
<path fill="none" stroke="midnightblue" d="M663.43,-118.24C682.16,-106.75 708.29,-90.72 724.13,-81.01"/>
<polygon fill="midnightblue" stroke="midnightblue" points="661.59,-115.26 654.9,-123.48 665.25,-121.23 661.59,-115.26"/>
</g>
<!-- Node13&#45;&gt;Node4 -->
<g id="edge27" class="edge">
<title>Node13&#45;&gt;Node4</title>
<path fill="none" stroke="midnightblue" d="M462.42,-172.7C471.42,-164.84 481.24,-154.5 487,-143 508.25,-100.56 507.65,-41.44 506.57,-19.58"/>
<polygon fill="midnightblue" stroke="midnightblue" points="460.03,-170.14 454.52,-179.19 464.47,-175.55 460.03,-170.14"/>
</g>
<!-- Node13&#45;&gt;Node10 -->
<g id="edge26" class="edge">
<title>Node13&#45;&gt;Node10</title>
<path fill="none" stroke="midnightblue" d="M426.97,-171.43C418.38,-161.97 407.96,-150.48 400.94,-142.75"/>
<polygon fill="midnightblue" stroke="midnightblue" points="424.6,-174.03 433.91,-179.08 429.78,-169.33 424.6,-174.03"/>
</g>
<!-- Node14&#45;&gt;Node4 -->
<g id="edge34" class="edge">
<title>Node14&#45;&gt;Node4</title>
<path fill="none" stroke="midnightblue" d="M936.5,-177.12C973.73,-167.63 1010.35,-150.89 993,-123 949.29,-52.74 700.34,-25 576.27,-15.43"/>
<polygon fill="midnightblue" stroke="midnightblue" points="935.46,-173.77 926.54,-179.5 937.08,-180.58 935.46,-173.77"/>
</g>
<!-- Node14&#45;&gt;Node5 -->
<g id="edge35" class="edge">
<title>Node14&#45;&gt;Node5</title>
<path fill="none" stroke="midnightblue" d="M855.21,-172.78C826.57,-148.28 771.15,-100.86 748.26,-81.28"/>
<polygon fill="midnightblue" stroke="midnightblue" points="852.98,-175.48 862.85,-179.32 857.53,-170.16 852.98,-175.48"/>
</g>
<!-- Node15 -->
<g id="node15" class="node">
<title>Node15</title>
<g id="a_node15"><a xlink:href="help_8hpp.html" target="_top" xlink:title=" ">
<polygon fill="white" stroke="black" points="842,-123.5 842,-142.5 984,-142.5 984,-123.5 842,-123.5"/>
<text text-anchor="middle" x="913" y="-130.5" font-family="Helvetica,sans-Serif" font-size="10.00">Lyra/include/lyra/help.hpp</text>
</a>
</g>
</g>
<!-- Node14&#45;&gt;Node15 -->
<g id="edge31" class="edge">
<title>Node14&#45;&gt;Node15</title>
<path fill="none" stroke="midnightblue" d="M885.7,-170.86C892.63,-161.5 900.91,-150.33 906.52,-142.75"/>
<polygon fill="midnightblue" stroke="midnightblue" points="882.75,-168.96 879.61,-179.08 888.37,-173.13 882.75,-168.96"/>
</g>
<!-- Node15&#45;&gt;Node4 -->
<g id="edge32" class="edge">
<title>Node15&#45;&gt;Node4</title>
<path fill="none" stroke="midnightblue" d="M898.5,-115.75C881.57,-97.91 851.79,-69.96 820,-56 741.34,-21.46 641.95,-12.31 576.3,-10.42"/>
<polygon fill="midnightblue" stroke="midnightblue" points="895.98,-118.18 905.34,-123.14 901.12,-113.42 895.98,-118.18"/>
</g>
<!-- Node15&#45;&gt;Node5 -->
<g id="edge33" class="edge">
<title>Node15&#45;&gt;Node5</title>
<path fill="none" stroke="midnightblue" d="M878.39,-120.23C844.37,-108.67 793.28,-91.3 763.03,-81.01"/>
<polygon fill="midnightblue" stroke="midnightblue" points="877.33,-123.57 887.93,-123.48 879.59,-116.94 877.33,-123.57"/>
</g>
<!-- Node16&#45;&gt;Node4 -->
<g id="edge37" class="edge">
<title>Node16&#45;&gt;Node4</title>
<path fill="none" stroke="midnightblue" d="M854.28,-421.95C935.26,-416.22 1050,-393.02 1050,-307.5 1050,-307.5 1050,-307.5 1050,-132 1050,-35.97 722.93,-16.11 576,-12.04"/>
<polygon fill="midnightblue" stroke="midnightblue" points="853.84,-418.47 844.08,-422.59 854.28,-425.46 853.84,-418.47"/>
</g>
<!-- Node16&#45;&gt;Node5 -->
<g id="edge38" class="edge">
<title>Node16&#45;&gt;Node5</title>
<path fill="none" stroke="midnightblue" d="M776,-404.29C776,-381.45 776,-341.64 776,-307.5 776,-307.5 776,-307.5 776,-188 776,-146.2 753.27,-99.97 742.97,-81.16"/>
<polygon fill="midnightblue" stroke="midnightblue" points="772.5,-404.31 776,-414.31 779.5,-404.31 772.5,-404.31"/>
</g>
<!-- Node16&#45;&gt;Node11 -->
<g id="edge40" class="edge">
<title>Node16&#45;&gt;Node11</title>
<path fill="none" stroke="midnightblue" d="M729.4,-412.15C685.56,-401.95 620.82,-386.88 580.59,-377.52"/>
<polygon fill="midnightblue" stroke="midnightblue" points="728.71,-415.59 739.24,-414.44 730.29,-408.77 728.71,-415.59"/>
</g>
<!-- Node16&#45;&gt;Node14 -->
<g id="edge39" class="edge">
<title>Node16&#45;&gt;Node14</title>
<path fill="none" stroke="midnightblue" d="M783.51,-404.95C803.06,-358 854.98,-233.29 869.3,-198.9"/>
<polygon fill="midnightblue" stroke="midnightblue" points="780.18,-403.85 779.57,-414.43 786.64,-406.54 780.18,-403.85"/>
</g>
<!-- Node17&#45;&gt;Node11 -->
<g id="edge42" class="edge">
<title>Node17&#45;&gt;Node11</title>
<path fill="none" stroke="midnightblue" d="M421.88,-529.34C452.61,-488.98 516.47,-405.14 537.28,-377.82"/>
<polygon fill="midnightblue" stroke="midnightblue" points="418.95,-527.41 415.68,-537.48 424.52,-531.65 418.95,-527.41"/>
</g>
<!-- Node18&#45;&gt;Node6 -->
<g id="edge44" class="edge">
<title>Node18&#45;&gt;Node6</title>
<path fill="none" stroke="midnightblue" d="M574.09,-595.94C569.01,-587.46 563.7,-577.56 560,-568 551.21,-545.3 546.21,-517.29 543.8,-500.72"/>
<polygon fill="midnightblue" stroke="midnightblue" points="571.15,-597.85 579.41,-604.5 577.1,-594.16 571.15,-597.85"/>
</g>
<!-- Node19 -->
<g id="node19" class="node">
<title>Node19</title>
<g id="a_node19"><a xlink:href="invoke__lambda_8hpp.html" target="_top" xlink:title=" ">
<polygon fill="white" stroke="black" points="569,-537.5 569,-567.5 697,-567.5 697,-537.5 569,-537.5"/>
<text text-anchor="start" x="577" y="-555.5" font-family="Helvetica,sans-Serif" font-size="10.00">Lyra/include/lyra/detail</text>
<text text-anchor="middle" x="633" y="-544.5" font-family="Helvetica,sans-Serif" font-size="10.00">/invoke_lambda.hpp</text>
</a>
</g>
</g>
<!-- Node18&#45;&gt;Node19 -->
<g id="edge45" class="edge">
<title>Node18&#45;&gt;Node19</title>
<path fill="none" stroke="midnightblue" d="M604.32,-595.87C610.69,-586.46 617.88,-575.83 623.47,-567.58"/>
<polygon fill="midnightblue" stroke="midnightblue" points="601.25,-594.15 598.55,-604.4 607.05,-598.08 601.25,-594.15"/>
</g>
<!-- Node19&#45;&gt;Node6 -->
<g id="edge46" class="edge">
<title>Node19&#45;&gt;Node6</title>
<path fill="none" stroke="midnightblue" d="M604.93,-531.45C590.93,-521.45 574.34,-509.6 561.71,-500.58"/>
<polygon fill="midnightblue" stroke="midnightblue" points="603.08,-534.43 613.25,-537.4 607.15,-528.74 603.08,-534.43"/>
</g>
</g>
</svg>
