<?xml version="1.0" encoding="UTF-8" standalone="no"?>
<!DOCTYPE svg PUBLIC "-//W3C//DTD SVG 1.1//EN"
 "http://www.w3.org/Graphics/SVG/1.1/DTD/svg11.dtd">
<!-- Generated by graphviz version 2.43.0 (0)
 -->
<!-- Title: main/functions.cpp Pages: 1 -->
<svg width="1206pt" height="364pt"
 viewBox="0.00 0.00 1206.18 364.00" xmlns="http://www.w3.org/2000/svg" xmlns:xlink="http://www.w3.org/1999/xlink">
<g id="graph0" class="graph" transform="scale(1 1) rotate(0) translate(4 360)">
<title>main/functions.cpp</title>
<polygon fill="white" stroke="transparent" points="-4,4 -4,-360 1202.18,-360 1202.18,4 -4,4"/>
<!-- Node1 -->
<g id="node1" class="node">
<title>Node1</title>
<g id="a_node1"><a xlink:title=" ">
<polygon fill="#bfbfbf" stroke="black" points="577.5,-336.5 577.5,-355.5 687.5,-355.5 687.5,-336.5 577.5,-336.5"/>
<text text-anchor="middle" x="632.5" y="-343.5" font-family="Helvetica,sans-Serif" font-size="10.00">main/functions.cpp</text>
</a>
</g>
</g>
<!-- Node2 -->
<g id="node2" class="node">
<title>Node2</title>
<g id="a_node2"><a xlink:href="functions_8h.html" target="_top" xlink:title=" ">
<polygon fill="white" stroke="black" points="273,-280.5 273,-299.5 344,-299.5 344,-280.5 273,-280.5"/>
<text text-anchor="middle" x="308.5" y="-287.5" font-family="Helvetica,sans-Serif" font-size="10.00">functions.h</text>
</a>
</g>
</g>
<!-- Node1&#45;&gt;Node2 -->
<g id="edge1" class="edge">
<title>Node1&#45;&gt;Node2</title>
<path fill="none" stroke="midnightblue" d="M581.16,-336.44C518.58,-326.01 413.8,-308.55 354,-298.58"/>
<polygon fill="midnightblue" stroke="midnightblue" points="354.52,-295.12 344.08,-296.93 353.37,-302.03 354.52,-295.12"/>
</g>
<!-- Node14 -->
<g id="node14" class="node">
<title>Node14</title>
<g id="a_node14"><a xlink:href="linearalgebra_8h.html" target="_top" xlink:title=" ">
<polygon fill="white" stroke="black" points="321.5,-168.5 321.5,-187.5 411.5,-187.5 411.5,-168.5 321.5,-168.5"/>
<text text-anchor="middle" x="366.5" y="-175.5" font-family="Helvetica,sans-Serif" font-size="10.00">linearalgebra.h</text>
</a>
</g>
</g>
<!-- Node1&#45;&gt;Node14 -->
<g id="edge35" class="edge">
<title>Node1&#45;&gt;Node14</title>
<path fill="none" stroke="midnightblue" d="M577.33,-342.44C537.55,-338.19 484.25,-327.33 445.5,-300 408.38,-273.82 384.25,-224.15 373.3,-197.31"/>
<polygon fill="midnightblue" stroke="midnightblue" points="376.43,-195.68 369.53,-187.64 369.9,-198.22 376.43,-195.68"/>
</g>
<!-- Node16 -->
<g id="node16" class="node">
<title>Node16</title>
<g id="a_node16"><a xlink:title=" ">
<polygon fill="white" stroke="#bfbfbf" points="424.5,-112.5 424.5,-131.5 480.5,-131.5 480.5,-112.5 424.5,-112.5"/>
<text text-anchor="middle" x="452.5" y="-119.5" font-family="Helvetica,sans-Serif" font-size="10.00">numeric</text>
</a>
</g>
</g>
<!-- Node1&#45;&gt;Node16 -->
<g id="edge30" class="edge">
<title>Node1&#45;&gt;Node16</title>
<path fill="none" stroke="midnightblue" d="M577.26,-343.02C544.08,-338.79 503.73,-327.73 479.5,-300 440.01,-254.8 444.73,-177.08 449.44,-141.62"/>
<polygon fill="midnightblue" stroke="midnightblue" points="452.91,-142.09 450.91,-131.68 445.98,-141.06 452.91,-142.09"/>
</g>
<!-- Node17 -->
<g id="node17" class="node">
<title>Node17</title>
<g id="a_node17"><a xlink:href="logger_8h.html" target="_top" xlink:title=" ">
<polygon fill="white" stroke="black" points="109.5,-112.5 109.5,-131.5 199.5,-131.5 199.5,-112.5 109.5,-112.5"/>
<text text-anchor="middle" x="154.5" y="-119.5" font-family="Helvetica,sans-Serif" font-size="10.00">logger/logger.h</text>
</a>
</g>
</g>
<!-- Node1&#45;&gt;Node17 -->
<g id="edge36" class="edge">
<title>Node1&#45;&gt;Node17</title>
<path fill="none" stroke="midnightblue" d="M577.4,-343.46C454.95,-338.67 166.87,-319.46 114.5,-244 91.69,-211.14 121.05,-164.34 140.27,-139.68"/>
<polygon fill="midnightblue" stroke="midnightblue" points="143.19,-141.64 146.77,-131.67 137.75,-137.23 143.19,-141.64"/>
</g>
<!-- Node21 -->
<g id="node21" class="node">
<title>Node21</title>
<g id="a_node21"><a xlink:title=" ">
<polygon fill="white" stroke="#bfbfbf" points="488,-280.5 488,-299.5 541,-299.5 541,-280.5 488,-280.5"/>
<text text-anchor="middle" x="514.5" y="-287.5" font-family="Helvetica,sans-Serif" font-size="10.00">cstddef</text>
</a>
</g>
</g>
<!-- Node1&#45;&gt;Node21 -->
<g id="edge27" class="edge">
<title>Node1&#45;&gt;Node21</title>
<path fill="none" stroke="midnightblue" d="M613.8,-336.44C594.56,-327.64 564.35,-313.81 542.3,-303.72"/>
<polygon fill="midnightblue" stroke="midnightblue" points="543.66,-300.5 533.11,-299.52 540.75,-306.86 543.66,-300.5"/>
</g>
<!-- Node22 -->
<g id="node22" class="node">
<title>Node22</title>
<g id="a_node22"><a xlink:title=" ">
<polygon fill="white" stroke="#bfbfbf" points="559,-280.5 559,-299.5 624,-299.5 624,-280.5 559,-280.5"/>
<text text-anchor="middle" x="591.5" y="-287.5" font-family="Helvetica,sans-Serif" font-size="10.00">execution</text>
</a>
</g>
</g>
<!-- Node1&#45;&gt;Node22 -->
<g id="edge28" class="edge">
<title>Node1&#45;&gt;Node22</title>
<path fill="none" stroke="midnightblue" d="M625.73,-336.08C619.94,-328.46 611.44,-317.26 604.36,-307.94"/>
<polygon fill="midnightblue" stroke="midnightblue" points="606.98,-305.6 598.14,-299.75 601.4,-309.83 606.98,-305.6"/>
</g>
<!-- Node23 -->
<g id="node23" class="node">
<title>Node23</title>
<g id="a_node23"><a xlink:title=" ">
<polygon fill="white" stroke="#bfbfbf" points="642,-280.5 642,-299.5 707,-299.5 707,-280.5 642,-280.5"/>
<text text-anchor="middle" x="674.5" y="-287.5" font-family="Helvetica,sans-Serif" font-size="10.00">functional</text>
</a>
</g>
</g>
<!-- Node1&#45;&gt;Node23 -->
<g id="edge29" class="edge">
<title>Node1&#45;&gt;Node23</title>
<path fill="none" stroke="midnightblue" d="M639.44,-336.08C645.43,-328.38 654.25,-317.03 661.55,-307.65"/>
<polygon fill="midnightblue" stroke="midnightblue" points="664.32,-309.79 667.69,-299.75 658.79,-305.5 664.32,-309.79"/>
</g>
<!-- Node24 -->
<g id="node24" class="node">
<title>Node24</title>
<g id="a_node24"><a xlink:title=" ">
<polygon fill="white" stroke="#bfbfbf" points="725,-280.5 725,-299.5 814,-299.5 814,-280.5 725,-280.5"/>
<text text-anchor="middle" x="769.5" y="-287.5" font-family="Helvetica,sans-Serif" font-size="10.00">h2lib/avector.h</text>
</a>
</g>
</g>
<!-- Node1&#45;&gt;Node24 -->
<g id="edge31" class="edge">
<title>Node1&#45;&gt;Node24</title>
<path fill="none" stroke="midnightblue" d="M654.21,-336.44C676.85,-327.52 712.57,-313.44 738.25,-303.32"/>
<polygon fill="midnightblue" stroke="midnightblue" points="739.87,-306.44 747.89,-299.52 737.31,-299.93 739.87,-306.44"/>
</g>
<!-- Node25 -->
<g id="node25" class="node">
<title>Node25</title>
<g id="a_node25"><a xlink:title=" ">
<polygon fill="white" stroke="#bfbfbf" points="832,-280.5 832,-299.5 945,-299.5 945,-280.5 832,-280.5"/>
<text text-anchor="middle" x="888.5" y="-287.5" font-family="Helvetica,sans-Serif" font-size="10.00">h2lib/helmholtz3d.h</text>
</a>
</g>
</g>
<!-- Node1&#45;&gt;Node25 -->
<g id="edge32" class="edge">
<title>Node1&#45;&gt;Node25</title>
<path fill="none" stroke="midnightblue" d="M673.06,-336.44C717.82,-327 789.88,-311.8 838.2,-301.61"/>
<polygon fill="midnightblue" stroke="midnightblue" points="839.06,-305.01 848.13,-299.52 837.62,-298.16 839.06,-305.01"/>
</g>
<!-- Node26 -->
<g id="node26" class="node">
<title>Node26</title>
<g id="a_node26"><a xlink:title=" ">
<polygon fill="white" stroke="#bfbfbf" points="963,-280.5 963,-299.5 1046,-299.5 1046,-280.5 963,-280.5"/>
<text text-anchor="middle" x="1004.5" y="-287.5" font-family="Helvetica,sans-Serif" font-size="10.00">h2lib/krylov.h</text>
</a>
</g>
</g>
<!-- Node1&#45;&gt;Node26 -->
<g id="edge33" class="edge">
<title>Node1&#45;&gt;Node26</title>
<path fill="none" stroke="midnightblue" d="M687.58,-337.97C749.64,-329.9 853.79,-315.91 952.62,-300.25"/>
<polygon fill="midnightblue" stroke="midnightblue" points="953.45,-303.67 962.78,-298.64 952.35,-296.75 953.45,-303.67"/>
</g>
<!-- Node27 -->
<g id="node27" class="node">
<title>Node27</title>
<g id="a_node27"><a xlink:title=" ">
<polygon fill="white" stroke="#bfbfbf" points="1064,-280.5 1064,-299.5 1181,-299.5 1181,-280.5 1064,-280.5"/>
<text text-anchor="middle" x="1122.5" y="-287.5" font-family="Helvetica,sans-Serif" font-size="10.00">h2lib/sparsematrix.h</text>
</a>
</g>
</g>
<!-- Node1&#45;&gt;Node27 -->
<g id="edge34" class="edge">
<title>Node1&#45;&gt;Node27</title>
<path fill="none" stroke="midnightblue" d="M687.65,-339.62C766.47,-331.83 916.17,-316.63 1053.41,-300.23"/>
<polygon fill="midnightblue" stroke="midnightblue" points="1054.17,-303.66 1063.69,-298.99 1053.34,-296.71 1054.17,-303.66"/>
</g>
<!-- Node28 -->
<g id="node28" class="node">
<title>Node28</title>
<g id="a_node28"><a xlink:href="options_8h.html" target="_top" xlink:title=" ">
<polygon fill="white" stroke="black" points="654.5,-168.5 654.5,-187.5 716.5,-187.5 716.5,-168.5 654.5,-168.5"/>
<text text-anchor="middle" x="685.5" y="-175.5" font-family="Helvetica,sans-Serif" font-size="10.00">options.h</text>
</a>
</g>
</g>
<!-- Node1&#45;&gt;Node28 -->
<g id="edge37" class="edge">
<title>Node1&#45;&gt;Node28</title>
<path fill="none" stroke="midnightblue" d="M687.56,-344.7C821.69,-343.39 1156.85,-336.48 1190.5,-300 1255.97,-229.03 858.33,-192.11 726.73,-181.95"/>
<polygon fill="midnightblue" stroke="midnightblue" points="726.88,-178.45 716.64,-181.18 726.35,-185.43 726.88,-178.45"/>
</g>
<!-- Node3 -->
<g id="node3" class="node">
<title>Node3</title>
<g id="a_node3"><a xlink:title=" ">
<polygon fill="white" stroke="#bfbfbf" points="225.5,-224.5 225.5,-243.5 317.5,-243.5 317.5,-224.5 225.5,-224.5"/>
<text text-anchor="middle" x="271.5" y="-231.5" font-family="Helvetica,sans-Serif" font-size="10.00">h2lib/settings.h</text>
</a>
</g>
</g>
<!-- Node2&#45;&gt;Node3 -->
<g id="edge2" class="edge">
<title>Node2&#45;&gt;Node3</title>
<path fill="none" stroke="midnightblue" d="M302.39,-280.08C297.22,-272.53 289.65,-261.49 283.31,-252.23"/>
<polygon fill="midnightblue" stroke="midnightblue" points="286.04,-250.02 277.5,-243.75 280.26,-253.98 286.04,-250.02"/>
</g>
<!-- Node4 -->
<g id="node4" class="node">
<title>Node4</title>
<g id="a_node4"><a xlink:href="cutils_8h.html" target="_top" xlink:title=" ">
<polygon fill="white" stroke="black" points="536.5,-112.5 536.5,-131.5 612.5,-131.5 612.5,-112.5 536.5,-112.5"/>
<text text-anchor="middle" x="574.5" y="-119.5" font-family="Helvetica,sans-Serif" font-size="10.00">utils/cutils.h</text>
</a>
</g>
</g>
<!-- Node2&#45;&gt;Node4 -->
<g id="edge3" class="edge">
<title>Node2&#45;&gt;Node4</title>
<path fill="none" stroke="midnightblue" d="M322.43,-280.31C365.79,-253.25 498.67,-170.32 552,-137.04"/>
<polygon fill="midnightblue" stroke="midnightblue" points="554.08,-139.87 560.71,-131.61 550.37,-133.93 554.08,-139.87"/>
</g>
<!-- Node8 -->
<g id="node8" class="node">
<title>Node8</title>
<g id="a_node8"><a xlink:href="meshreader_8h.html" target="_top" xlink:title=" ">
<polygon fill="white" stroke="black" points="123.5,-224.5 123.5,-243.5 207.5,-243.5 207.5,-224.5 123.5,-224.5"/>
<text text-anchor="middle" x="165.5" y="-231.5" font-family="Helvetica,sans-Serif" font-size="10.00">meshreader.h</text>
</a>
</g>
</g>
<!-- Node2&#45;&gt;Node8 -->
<g id="edge7" class="edge">
<title>Node2&#45;&gt;Node8</title>
<path fill="none" stroke="midnightblue" d="M285.84,-280.44C262.1,-271.48 224.59,-257.31 197.76,-247.18"/>
<polygon fill="midnightblue" stroke="midnightblue" points="198.64,-243.77 188.05,-243.52 196.17,-250.32 198.64,-243.77"/>
</g>
<!-- Node9 -->
<g id="node9" class="node">
<title>Node9</title>
<g id="a_node9"><a xlink:title=" ">
<polygon fill="white" stroke="#bfbfbf" points="49.5,-112.5 49.5,-131.5 91.5,-131.5 91.5,-112.5 49.5,-112.5"/>
<text text-anchor="middle" x="70.5" y="-119.5" font-family="Helvetica,sans-Serif" font-size="10.00">array</text>
</a>
</g>
</g>
<!-- Node2&#45;&gt;Node9 -->
<g id="edge25" class="edge">
<title>Node2&#45;&gt;Node9</title>
<path fill="none" stroke="midnightblue" d="M272.69,-284.8C223.28,-278.34 137.66,-264.52 114.5,-244 84.48,-217.4 74.92,-168.64 71.9,-141.85"/>
<polygon fill="midnightblue" stroke="midnightblue" points="75.35,-141.18 70.94,-131.55 68.38,-141.83 75.35,-141.18"/>
</g>
<!-- Node11 -->
<g id="node11" class="node">
<title>Node11</title>
<g id="a_node11"><a xlink:title=" ">
<polygon fill="white" stroke="#bfbfbf" points="256,-168.5 256,-187.5 303,-187.5 303,-168.5 256,-168.5"/>
<text text-anchor="middle" x="279.5" y="-175.5" font-family="Helvetica,sans-Serif" font-size="10.00">vector</text>
</a>
</g>
</g>
<!-- Node2&#45;&gt;Node11 -->
<g id="edge26" class="edge">
<title>Node2&#45;&gt;Node11</title>
<path fill="none" stroke="midnightblue" d="M314.51,-280.34C322.52,-267.64 334.78,-243.38 326.5,-224 321.35,-211.95 311.22,-201.58 301.67,-193.84"/>
<polygon fill="midnightblue" stroke="midnightblue" points="303.67,-190.96 293.58,-187.74 299.46,-196.55 303.67,-190.96"/>
</g>
<!-- Node5 -->
<g id="node5" class="node">
<title>Node5</title>
<g id="a_node5"><a xlink:title=" ">
<polygon fill="white" stroke="#bfbfbf" points="245,-0.5 245,-19.5 314,-19.5 314,-0.5 245,-0.5"/>
<text text-anchor="middle" x="279.5" y="-7.5" font-family="Helvetica,sans-Serif" font-size="10.00">type_traits</text>
</a>
</g>
</g>
<!-- Node4&#45;&gt;Node5 -->
<g id="edge4" class="edge">
<title>Node4&#45;&gt;Node5</title>
<path fill="none" stroke="midnightblue" d="M553.51,-112.4C522.27,-99.68 461.62,-75.28 409.5,-56 377.72,-44.25 341.24,-31.7 315.02,-22.85"/>
<polygon fill="midnightblue" stroke="midnightblue" points="316.11,-19.52 305.51,-19.65 313.87,-26.15 316.11,-19.52"/>
</g>
<!-- Node6 -->
<g id="node6" class="node">
<title>Node6</title>
<g id="a_node6"><a xlink:title=" ">
<polygon fill="white" stroke="#bfbfbf" points="607.5,-56.5 607.5,-75.5 685.5,-75.5 685.5,-56.5 607.5,-56.5"/>
<text text-anchor="middle" x="646.5" y="-63.5" font-family="Helvetica,sans-Serif" font-size="10.00">h2lib/basic.h</text>
</a>
</g>
</g>
<!-- Node4&#45;&gt;Node6 -->
<g id="edge5" class="edge">
<title>Node4&#45;&gt;Node6</title>
<path fill="none" stroke="midnightblue" d="M586.07,-112.32C596.92,-104.18 613.38,-91.84 626.38,-82.09"/>
<polygon fill="midnightblue" stroke="midnightblue" points="628.82,-84.63 634.72,-75.83 624.62,-79.03 628.82,-84.63"/>
</g>
<!-- Node7 -->
<g id="node7" class="node">
<title>Node7</title>
<g id="a_node7"><a xlink:title=" ">
<polygon fill="white" stroke="#bfbfbf" points="486,-56.5 486,-75.5 589,-75.5 589,-56.5 486,-56.5"/>
<text text-anchor="middle" x="537.5" y="-63.5" font-family="Helvetica,sans-Serif" font-size="10.00">h2lib/dh2matrix.h</text>
</a>
</g>
</g>
<!-- Node4&#45;&gt;Node7 -->
<g id="edge6" class="edge">
<title>Node4&#45;&gt;Node7</title>
<path fill="none" stroke="midnightblue" d="M568.39,-112.08C563.22,-104.53 555.65,-93.49 549.31,-84.23"/>
<polygon fill="midnightblue" stroke="midnightblue" points="552.04,-82.02 543.5,-75.75 546.26,-85.98 552.04,-82.02"/>
</g>
<!-- Node8&#45;&gt;Node9 -->
<g id="edge8" class="edge">
<title>Node8&#45;&gt;Node9</title>
<path fill="none" stroke="midnightblue" d="M158.05,-224.37C142.23,-206.05 105.09,-163.05 84.63,-139.36"/>
<polygon fill="midnightblue" stroke="midnightblue" points="87.1,-136.87 77.92,-131.59 81.81,-141.45 87.1,-136.87"/>
</g>
<!-- Node10 -->
<g id="node10" class="node">
<title>Node10</title>
<g id="a_node10"><a xlink:title=" ">
<polygon fill="white" stroke="#bfbfbf" points="161.5,-168.5 161.5,-187.5 199.5,-187.5 199.5,-168.5 161.5,-168.5"/>
<text text-anchor="middle" x="180.5" y="-175.5" font-family="Helvetica,sans-Serif" font-size="10.00">map</text>
</a>
</g>
</g>
<!-- Node8&#45;&gt;Node10 -->
<g id="edge9" class="edge">
<title>Node8&#45;&gt;Node10</title>
<path fill="none" stroke="midnightblue" d="M167.98,-224.08C169.99,-216.85 172.89,-206.41 175.39,-197.4"/>
<polygon fill="midnightblue" stroke="midnightblue" points="178.76,-198.32 178.07,-187.75 172.02,-196.45 178.76,-198.32"/>
</g>
<!-- Node8&#45;&gt;Node11 -->
<g id="edge10" class="edge">
<title>Node8&#45;&gt;Node11</title>
<path fill="none" stroke="midnightblue" d="M183.56,-224.44C202.07,-215.68 231.08,-201.94 252.36,-191.86"/>
<polygon fill="midnightblue" stroke="midnightblue" points="253.98,-194.96 261.52,-187.52 250.99,-188.63 253.98,-194.96"/>
</g>
<!-- Node12 -->
<g id="node12" class="node">
<title>Node12</title>
<g id="a_node12"><a xlink:title=" ">
<polygon fill="white" stroke="#bfbfbf" points="356.5,-56.5 356.5,-75.5 400.5,-75.5 400.5,-56.5 356.5,-56.5"/>
<text text-anchor="middle" x="378.5" y="-63.5" font-family="Helvetica,sans-Serif" font-size="10.00">string</text>
</a>
</g>
</g>
<!-- Node8&#45;&gt;Node12 -->
<g id="edge11" class="edge">
<title>Node8&#45;&gt;Node12</title>
<path fill="none" stroke="midnightblue" d="M175.23,-224.38C184.54,-215.79 198.6,-201.91 208.5,-188 230.51,-157.07 218.8,-136.86 247.5,-112 275.51,-87.74 317.26,-76.38 346.06,-71.18"/>
<polygon fill="midnightblue" stroke="midnightblue" points="346.74,-74.62 356.03,-69.53 345.6,-67.71 346.74,-74.62"/>
</g>
<!-- Node13 -->
<g id="node13" class="node">
<title>Node13</title>
<g id="a_node13"><a xlink:href="enum_8h.html" target="_top" xlink:title=" ">
<polygon fill="white" stroke="black" points="0,-56.5 0,-75.5 77,-75.5 77,-56.5 0,-56.5"/>
<text text-anchor="middle" x="38.5" y="-63.5" font-family="Helvetica,sans-Serif" font-size="10.00">utils/enum.h</text>
</a>
</g>
</g>
<!-- Node8&#45;&gt;Node13 -->
<g id="edge12" class="edge">
<title>Node8&#45;&gt;Node13</title>
<path fill="none" stroke="midnightblue" d="M146.17,-224.29C116.91,-209.89 62.49,-178.08 40.5,-132 33.59,-117.51 33.74,-99.07 35.24,-85.53"/>
<polygon fill="midnightblue" stroke="midnightblue" points="38.72,-85.9 36.69,-75.51 31.79,-84.9 38.72,-85.9"/>
</g>
<!-- Node8&#45;&gt;Node14 -->
<g id="edge14" class="edge">
<title>Node8&#45;&gt;Node14</title>
<path fill="none" stroke="midnightblue" d="M197.35,-224.44C231.9,-215.16 287.18,-200.31 325.08,-190.13"/>
<polygon fill="midnightblue" stroke="midnightblue" points="326.05,-193.49 334.8,-187.52 324.23,-186.73 326.05,-193.49"/>
</g>
<!-- Node13&#45;&gt;Node5 -->
<g id="edge13" class="edge">
<title>Node13&#45;&gt;Node5</title>
<path fill="none" stroke="midnightblue" d="M76.69,-56.44C119.63,-46.82 189.28,-31.21 234.74,-21.03"/>
<polygon fill="midnightblue" stroke="midnightblue" points="235.63,-24.42 244.62,-18.82 234.1,-17.59 235.63,-24.42"/>
</g>
<!-- Node14&#45;&gt;Node9 -->
<g id="edge15" class="edge">
<title>Node14&#45;&gt;Node9</title>
<path fill="none" stroke="midnightblue" d="M321.3,-169.43C255.53,-158.4 137.98,-138.65 101.6,-131.74"/>
<polygon fill="midnightblue" stroke="midnightblue" points="102.22,-128.29 91.72,-129.72 100.81,-135.15 102.22,-128.29"/>
</g>
<!-- Node15 -->
<g id="node15" class="node">
<title>Node15</title>
<g id="a_node15"><a xlink:title=" ">
<polygon fill="white" stroke="#bfbfbf" points="256,-112.5 256,-131.5 315,-131.5 315,-112.5 256,-112.5"/>
<text text-anchor="middle" x="285.5" y="-119.5" font-family="Helvetica,sans-Serif" font-size="10.00">complex</text>
</a>
</g>
</g>
<!-- Node14&#45;&gt;Node15 -->
<g id="edge16" class="edge">
<title>Node14&#45;&gt;Node15</title>
<path fill="none" stroke="midnightblue" d="M353.49,-168.32C340.97,-159.98 321.82,-147.21 307.03,-137.35"/>
<polygon fill="midnightblue" stroke="midnightblue" points="308.74,-134.29 298.48,-131.65 304.86,-140.11 308.74,-134.29"/>
</g>
<!-- Node14&#45;&gt;Node16 -->
<g id="edge17" class="edge">
<title>Node14&#45;&gt;Node16</title>
<path fill="none" stroke="midnightblue" d="M380.32,-168.32C393.73,-159.9 414.32,-146.97 430.09,-137.07"/>
<polygon fill="midnightblue" stroke="midnightblue" points="432.11,-139.94 438.72,-131.65 428.39,-134.01 432.11,-139.94"/>
</g>
<!-- Node14&#45;&gt;Node17 -->
<g id="edge18" class="edge">
<title>Node14&#45;&gt;Node17</title>
<path fill="none" stroke="midnightblue" d="M332.91,-168.44C296.31,-159.12 237.66,-144.18 197.67,-134"/>
<polygon fill="midnightblue" stroke="midnightblue" points="198.49,-130.59 187.93,-131.52 196.76,-137.38 198.49,-130.59"/>
</g>
<!-- Node20 -->
<g id="node20" class="node">
<title>Node20</title>
<g id="a_node20"><a xlink:href="constants_8h.html" target="_top" xlink:title=" ">
<polygon fill="white" stroke="black" points="333,-112.5 333,-131.5 406,-131.5 406,-112.5 333,-112.5"/>
<text text-anchor="middle" x="369.5" y="-119.5" font-family="Helvetica,sans-Serif" font-size="10.00">constants.h</text>
</a>
</g>
</g>
<!-- Node14&#45;&gt;Node20 -->
<g id="edge23" class="edge">
<title>Node14&#45;&gt;Node20</title>
<path fill="none" stroke="midnightblue" d="M367,-168.08C367.39,-161.01 367.95,-150.86 368.45,-141.99"/>
<polygon fill="midnightblue" stroke="midnightblue" points="371.95,-141.93 369.01,-131.75 364.96,-141.54 371.95,-141.93"/>
</g>
<!-- Node17&#45;&gt;Node5 -->
<g id="edge19" class="edge">
<title>Node17&#45;&gt;Node5</title>
<path fill="none" stroke="midnightblue" d="M196.05,-112.46C218.03,-105.93 243.83,-94.75 260.5,-76 271.84,-63.24 276.43,-44.05 278.28,-29.82"/>
<polygon fill="midnightblue" stroke="midnightblue" points="281.78,-29.98 279.25,-19.7 274.81,-29.32 281.78,-29.98"/>
</g>
<!-- Node17&#45;&gt;Node13 -->
<g id="edge21" class="edge">
<title>Node17&#45;&gt;Node13</title>
<path fill="none" stroke="midnightblue" d="M136.12,-112.44C117.28,-103.68 87.77,-89.94 66.12,-79.86"/>
<polygon fill="midnightblue" stroke="midnightblue" points="67.34,-76.56 56.79,-75.52 64.38,-82.91 67.34,-76.56"/>
</g>
<!-- Node18 -->
<g id="node18" class="node">
<title>Node18</title>
<g id="a_node18"><a xlink:title=" ">
<polygon fill="white" stroke="#bfbfbf" points="193.5,-56.5 193.5,-75.5 251.5,-75.5 251.5,-56.5 193.5,-56.5"/>
<text text-anchor="middle" x="222.5" y="-63.5" font-family="Helvetica,sans-Serif" font-size="10.00">memory</text>
</a>
</g>
</g>
<!-- Node17&#45;&gt;Node18 -->
<g id="edge20" class="edge">
<title>Node17&#45;&gt;Node18</title>
<path fill="none" stroke="midnightblue" d="M165.43,-112.32C175.67,-104.18 191.22,-91.84 203.5,-82.09"/>
<polygon fill="midnightblue" stroke="midnightblue" points="205.72,-84.79 211.38,-75.83 201.37,-79.31 205.72,-84.79"/>
</g>
<!-- Node19 -->
<g id="node19" class="node">
<title>Node19</title>
<g id="a_node19"><a xlink:title=" ">
<polygon fill="white" stroke="#bfbfbf" points="95.5,-56.5 95.5,-75.5 175.5,-75.5 175.5,-56.5 95.5,-56.5"/>
<text text-anchor="middle" x="135.5" y="-63.5" font-family="Helvetica,sans-Serif" font-size="10.00">logger.levels</text>
</a>
</g>
</g>
<!-- Node17&#45;&gt;Node19 -->
<g id="edge22" class="edge">
<title>Node17&#45;&gt;Node19</title>
<path fill="none" stroke="midnightblue" d="M151.36,-112.08C148.82,-104.85 145.14,-94.41 141.97,-85.4"/>
<polygon fill="midnightblue" stroke="midnightblue" points="145.2,-84.02 138.58,-75.75 138.6,-86.35 145.2,-84.02"/>
</g>
<!-- Node20&#45;&gt;Node12 -->
<g id="edge24" class="edge">
<title>Node20&#45;&gt;Node12</title>
<path fill="none" stroke="midnightblue" d="M370.99,-112.08C372.18,-104.93 373.89,-94.64 375.38,-85.69"/>
<polygon fill="midnightblue" stroke="midnightblue" points="378.85,-86.19 377.04,-75.75 371.95,-85.04 378.85,-86.19"/>
</g>
<!-- Node28&#45;&gt;Node4 -->
<g id="edge42" class="edge">
<title>Node28&#45;&gt;Node4</title>
<path fill="none" stroke="midnightblue" d="M667.67,-168.32C649.78,-159.62 622.02,-146.12 601.45,-136.11"/>
<polygon fill="midnightblue" stroke="midnightblue" points="602.81,-132.88 592.29,-131.65 599.75,-139.18 602.81,-132.88"/>
</g>
<!-- Node28&#45;&gt;Node12 -->
<g id="edge38" class="edge">
<title>Node28&#45;&gt;Node12</title>
<path fill="none" stroke="midnightblue" d="M654.29,-170.13C621.95,-162.55 570.26,-149.13 527.5,-132 509.78,-124.9 506.81,-120.04 489.5,-112 463.21,-99.79 432.65,-87.54 410.26,-78.91"/>
<polygon fill="midnightblue" stroke="midnightblue" points="411.48,-75.63 400.89,-75.33 408.98,-82.17 411.48,-75.63"/>
</g>
<!-- Node28&#45;&gt;Node17 -->
<g id="edge41" class="edge">
<title>Node28&#45;&gt;Node17</title>
<path fill="none" stroke="midnightblue" d="M654.27,-173.82C567.17,-164.97 320.75,-139.91 209.82,-128.63"/>
<polygon fill="midnightblue" stroke="midnightblue" points="210.14,-125.14 199.84,-127.61 209.44,-132.1 210.14,-125.14"/>
</g>
<!-- Node29 -->
<g id="node29" class="node">
<title>Node29</title>
<g id="a_node29"><a xlink:title=" ">
<polygon fill="white" stroke="#bfbfbf" points="631,-112.5 631,-131.5 740,-131.5 740,-112.5 631,-112.5"/>
<text text-anchor="middle" x="685.5" y="-119.5" font-family="Helvetica,sans-Serif" font-size="10.00">h2lib/parameters.h</text>
</a>
</g>
</g>
<!-- Node28&#45;&gt;Node29 -->
<g id="edge39" class="edge">
<title>Node28&#45;&gt;Node29</title>
<path fill="none" stroke="midnightblue" d="M685.5,-168.08C685.5,-161.01 685.5,-150.86 685.5,-141.99"/>
<polygon fill="midnightblue" stroke="midnightblue" points="689,-141.75 685.5,-131.75 682,-141.75 689,-141.75"/>
</g>
<!-- Node30 -->
<g id="node30" class="node">
<title>Node30</title>
<g id="a_node30"><a xlink:title=" ">
<polygon fill="white" stroke="#bfbfbf" points="758.5,-112.5 758.5,-131.5 850.5,-131.5 850.5,-112.5 758.5,-112.5"/>
<text text-anchor="middle" x="804.5" y="-119.5" font-family="Helvetica,sans-Serif" font-size="10.00">h2lib/reporter.h</text>
</a>
</g>
</g>
<!-- Node28&#45;&gt;Node30 -->
<g id="edge40" class="edge">
<title>Node28&#45;&gt;Node30</title>
<path fill="none" stroke="midnightblue" d="M704.36,-168.44C723.77,-159.64 754.23,-145.81 776.46,-135.72"/>
<polygon fill="midnightblue" stroke="midnightblue" points="778.07,-138.84 785.73,-131.52 775.18,-132.46 778.07,-138.84"/>
</g>
<!-- Node31 -->
<g id="node31" class="node">
<title>Node31</title>
<g id="a_node31"><a xlink:href="timing_8h.html" target="_top" xlink:title=" ">
<polygon fill="white" stroke="black" points="869,-112.5 869,-131.5 926,-131.5 926,-112.5 869,-112.5"/>
<text text-anchor="middle" x="897.5" y="-119.5" font-family="Helvetica,sans-Serif" font-size="10.00">timing.h</text>
</a>
</g>
</g>
<!-- Node28&#45;&gt;Node31 -->
<g id="edge43" class="edge">
<title>Node28&#45;&gt;Node31</title>
<path fill="none" stroke="midnightblue" d="M716.78,-169.03C754.58,-159.4 818.17,-143.21 858.96,-132.82"/>
<polygon fill="midnightblue" stroke="midnightblue" points="859.99,-136.17 868.81,-130.31 858.26,-129.38 859.99,-136.17"/>
</g>
<!-- Node31&#45;&gt;Node12 -->
<g id="edge47" class="edge">
<title>Node31&#45;&gt;Node12</title>
<path fill="none" stroke="midnightblue" d="M868.95,-113.79C865.78,-113.12 862.58,-112.51 859.5,-112 848.39,-110.17 517.07,-79.71 410.9,-69.97"/>
<polygon fill="midnightblue" stroke="midnightblue" points="411.05,-66.47 400.78,-69.04 410.42,-73.44 411.05,-66.47"/>
</g>
<!-- Node32 -->
<g id="node32" class="node">
<title>Node32</title>
<g id="a_node32"><a xlink:title=" ">
<polygon fill="white" stroke="#bfbfbf" points="810,-56.5 810,-75.5 857,-75.5 857,-56.5 810,-56.5"/>
<text text-anchor="middle" x="833.5" y="-63.5" font-family="Helvetica,sans-Serif" font-size="10.00">cmath</text>
</a>
</g>
</g>
<!-- Node31&#45;&gt;Node32 -->
<g id="edge44" class="edge">
<title>Node31&#45;&gt;Node32</title>
<path fill="none" stroke="midnightblue" d="M887.22,-112.32C877.66,-104.26 863.22,-92.08 851.72,-82.37"/>
<polygon fill="midnightblue" stroke="midnightblue" points="853.87,-79.61 843.97,-75.83 849.36,-84.96 853.87,-79.61"/>
</g>
<!-- Node33 -->
<g id="node33" class="node">
<title>Node33</title>
<g id="a_node33"><a xlink:title=" ">
<polygon fill="white" stroke="#bfbfbf" points="875.5,-56.5 875.5,-75.5 919.5,-75.5 919.5,-56.5 875.5,-56.5"/>
<text text-anchor="middle" x="897.5" y="-63.5" font-family="Helvetica,sans-Serif" font-size="10.00">ctime</text>
</a>
</g>
</g>
<!-- Node31&#45;&gt;Node33 -->
<g id="edge45" class="edge">
<title>Node31&#45;&gt;Node33</title>
<path fill="none" stroke="midnightblue" d="M897.5,-112.08C897.5,-105.01 897.5,-94.86 897.5,-85.99"/>
<polygon fill="midnightblue" stroke="midnightblue" points="901,-85.75 897.5,-75.75 894,-85.75 901,-85.75"/>
</g>
<!-- Node34 -->
<g id="node34" class="node">
<title>Node34</title>
<g id="a_node34"><a xlink:title=" ">
<polygon fill="white" stroke="#bfbfbf" points="937.5,-56.5 937.5,-75.5 969.5,-75.5 969.5,-56.5 937.5,-56.5"/>
<text text-anchor="middle" x="953.5" y="-63.5" font-family="Helvetica,sans-Serif" font-size="10.00">list</text>
</a>
</g>
</g>
<!-- Node31&#45;&gt;Node34 -->
<g id="edge46" class="edge">
<title>Node31&#45;&gt;Node34</title>
<path fill="none" stroke="midnightblue" d="M906.5,-112.32C914.69,-104.42 927.01,-92.55 936.97,-82.94"/>
<polygon fill="midnightblue" stroke="midnightblue" points="939.57,-85.29 944.34,-75.83 934.71,-80.26 939.57,-85.29"/>
</g>
</g>
</svg>
