<?xml version="1.0" encoding="UTF-8" standalone="no"?>
<!DOCTYPE svg PUBLIC "-//W3C//DTD SVG 1.1//EN"
 "http://www.w3.org/Graphics/SVG/1.1/DTD/svg11.dtd">
<!-- Generated by graphviz version 2.43.0 (0)
 -->
<!-- Title: Lyra/include/lyra/group.hpp Pages: 1 -->
<svg width="1634pt" height="610pt"
 viewBox="0.00 0.00 1633.50 610.00" xmlns="http://www.w3.org/2000/svg" xmlns:xlink="http://www.w3.org/1999/xlink">
<g id="graph0" class="graph" transform="scale(1 1) rotate(0) translate(4 606)">
<title>Lyra/include/lyra/group.hpp</title>
<polygon fill="white" stroke="transparent" points="-4,4 -4,-606 1629.5,-606 1629.5,4 -4,4"/>
<!-- Node1 -->
<g id="node1" class="node">
<title>Node1</title>
<g id="a_node1"><a xlink:title=" ">
<polygon fill="#bfbfbf" stroke="black" points="1224.5,-582.5 1224.5,-601.5 1373.5,-601.5 1373.5,-582.5 1224.5,-582.5"/>
<text text-anchor="middle" x="1299" y="-589.5" font-family="Helvetica,sans-Serif" font-size="10.00">Lyra/include/lyra/group.hpp</text>
</a>
</g>
</g>
<!-- Node2 -->
<g id="node2" class="node">
<title>Node2</title>
<g id="a_node2"><a xlink:href="arguments_8hpp.html" target="_top" xlink:title=" ">
<polygon fill="white" stroke="black" points="1243,-526.5 1243,-545.5 1355,-545.5 1355,-526.5 1243,-526.5"/>
<text text-anchor="middle" x="1299" y="-533.5" font-family="Helvetica,sans-Serif" font-size="10.00">lyra/arguments.hpp</text>
</a>
</g>
</g>
<!-- Node1&#45;&gt;Node2 -->
<g id="edge1" class="edge">
<title>Node1&#45;&gt;Node2</title>
<path fill="none" stroke="midnightblue" d="M1299,-582.08C1299,-575.01 1299,-564.86 1299,-555.99"/>
<polygon fill="midnightblue" stroke="midnightblue" points="1302.5,-555.75 1299,-545.75 1295.5,-555.75 1302.5,-555.75"/>
</g>
<!-- Node3 -->
<g id="node3" class="node">
<title>Node3</title>
<g id="a_node3"><a xlink:href="print_8hpp.html" target="_top" xlink:title=" ">
<polygon fill="white" stroke="black" points="437.5,-470.5 437.5,-489.5 550.5,-489.5 550.5,-470.5 437.5,-470.5"/>
<text text-anchor="middle" x="494" y="-477.5" font-family="Helvetica,sans-Serif" font-size="10.00">lyra/detail/print.hpp</text>
</a>
</g>
</g>
<!-- Node1&#45;&gt;Node3 -->
<g id="edge71" class="edge">
<title>Node1&#45;&gt;Node3</title>
<path fill="none" stroke="midnightblue" d="M1236.5,-582.46C1087.81,-562.14 714.03,-511.07 560.95,-490.15"/>
<polygon fill="midnightblue" stroke="midnightblue" points="561.14,-486.64 550.76,-488.76 560.19,-493.58 561.14,-486.64"/>
</g>
<!-- Node28 -->
<g id="node28" class="node">
<title>Node28</title>
<g id="a_node28"><a xlink:title=" ">
<polygon fill="white" stroke="#bfbfbf" points="1560.5,-470.5 1560.5,-489.5 1625.5,-489.5 1625.5,-470.5 1560.5,-470.5"/>
<text text-anchor="middle" x="1593" y="-477.5" font-family="Helvetica,sans-Serif" font-size="10.00">functional</text>
</a>
</g>
</g>
<!-- Node1&#45;&gt;Node28 -->
<g id="edge72" class="edge">
<title>Node1&#45;&gt;Node28</title>
<path fill="none" stroke="midnightblue" d="M1322.07,-582.37C1374.02,-562.93 1500.32,-515.67 1560.32,-493.23"/>
<polygon fill="midnightblue" stroke="midnightblue" points="1561.9,-496.37 1570.04,-489.59 1559.45,-489.82 1561.9,-496.37"/>
</g>
<!-- Node2&#45;&gt;Node3 -->
<g id="edge2" class="edge">
<title>Node2&#45;&gt;Node3</title>
<path fill="none" stroke="midnightblue" d="M1242.8,-533.01C1120.71,-528.38 821.95,-515.38 560.9,-490.01"/>
<polygon fill="midnightblue" stroke="midnightblue" points="561.14,-486.52 550.85,-489.03 560.46,-493.49 561.14,-486.52"/>
</g>
<!-- Node5 -->
<g id="node5" class="node">
<title>Node5</title>
<g id="a_node5"><a xlink:href="trait__utils_8hpp.html" target="_top" xlink:title=" ">
<polygon fill="white" stroke="black" points="1366.5,-56.5 1366.5,-75.5 1503.5,-75.5 1503.5,-56.5 1366.5,-56.5"/>
<text text-anchor="middle" x="1435" y="-63.5" font-family="Helvetica,sans-Serif" font-size="10.00">lyra/detail/trait_utils.hpp</text>
</a>
</g>
</g>
<!-- Node2&#45;&gt;Node5 -->
<g id="edge4" class="edge">
<title>Node2&#45;&gt;Node5</title>
<path fill="none" stroke="midnightblue" d="M1355.02,-526.96C1411.37,-515.33 1490,-487.85 1490,-425 1490,-425 1490,-425 1490,-188 1490,-147.84 1464.58,-106.37 1448.31,-83.92"/>
<polygon fill="midnightblue" stroke="midnightblue" points="1451,-81.67 1442.19,-75.78 1445.4,-85.88 1451,-81.67"/>
</g>
<!-- Node6 -->
<g id="node6" class="node">
<title>Node6</title>
<g id="a_node6"><a xlink:title=" ">
<polygon fill="white" stroke="#bfbfbf" points="1249.5,-0.5 1249.5,-19.5 1318.5,-19.5 1318.5,-0.5 1249.5,-0.5"/>
<text text-anchor="middle" x="1284" y="-7.5" font-family="Helvetica,sans-Serif" font-size="10.00">type_traits</text>
</a>
</g>
</g>
<!-- Node2&#45;&gt;Node6 -->
<g id="edge70" class="edge">
<title>Node2&#45;&gt;Node6</title>
<path fill="none" stroke="midnightblue" d="M1355.11,-532.36C1424.05,-525.75 1532,-502.95 1532,-425 1532,-425 1532,-425 1532,-126.5 1532,-94.05 1536.73,-78.14 1513,-56 1486.87,-31.62 1388.01,-19.47 1329.07,-14.27"/>
<polygon fill="midnightblue" stroke="midnightblue" points="1329.16,-10.77 1318.9,-13.41 1328.57,-17.75 1329.16,-10.77"/>
</g>
<!-- Node8 -->
<g id="node8" class="node">
<title>Node8</title>
<g id="a_node8"><a xlink:href="exe__name_8hpp.html" target="_top" xlink:title=" ">
<polygon fill="white" stroke="black" points="569,-470.5 569,-489.5 679,-489.5 679,-470.5 569,-470.5"/>
<text text-anchor="middle" x="624" y="-477.5" font-family="Helvetica,sans-Serif" font-size="10.00">lyra/exe_name.hpp</text>
</a>
</g>
</g>
<!-- Node2&#45;&gt;Node8 -->
<g id="edge7" class="edge">
<title>Node2&#45;&gt;Node8</title>
<path fill="none" stroke="midnightblue" d="M1242.9,-530.51C1118.8,-520.58 821.56,-496.8 689.33,-486.23"/>
<polygon fill="midnightblue" stroke="midnightblue" points="689.59,-482.74 679.34,-485.43 689.03,-489.71 689.59,-482.74"/>
</g>
<!-- Node21 -->
<g id="node21" class="node">
<title>Node21</title>
<g id="a_node21"><a xlink:href="parser_8hpp.html" target="_top" xlink:title=" ">
<polygon fill="white" stroke="black" points="819,-414.5 819,-433.5 909,-433.5 909,-414.5 819,-414.5"/>
<text text-anchor="middle" x="864" y="-421.5" font-family="Helvetica,sans-Serif" font-size="10.00">lyra/parser.hpp</text>
</a>
</g>
</g>
<!-- Node2&#45;&gt;Node21 -->
<g id="edge67" class="edge">
<title>Node2&#45;&gt;Node21</title>
<path fill="none" stroke="midnightblue" d="M1265.23,-526.46C1187.17,-506.72 994.32,-457.96 907.55,-436.01"/>
<polygon fill="midnightblue" stroke="midnightblue" points="908.3,-432.59 897.75,-433.53 906.59,-439.38 908.3,-432.59"/>
</g>
<!-- Node25 -->
<g id="node25" class="node">
<title>Node25</title>
<g id="a_node25"><a xlink:href="printer_8hpp.html" target="_top" xlink:title=" ">
<polygon fill="white" stroke="black" points="1253,-358.5 1253,-377.5 1345,-377.5 1345,-358.5 1253,-358.5"/>
<text text-anchor="middle" x="1299" y="-365.5" font-family="Helvetica,sans-Serif" font-size="10.00">lyra/printer.hpp</text>
</a>
</g>
</g>
<!-- Node2&#45;&gt;Node25 -->
<g id="edge68" class="edge">
<title>Node2&#45;&gt;Node25</title>
<path fill="none" stroke="midnightblue" d="M1299,-526.08C1299,-499.95 1299,-423.21 1299,-387.58"/>
<polygon fill="midnightblue" stroke="midnightblue" points="1302.5,-387.57 1299,-377.57 1295.5,-387.57 1302.5,-387.57"/>
</g>
<!-- Node2&#45;&gt;Node28 -->
<g id="edge69" class="edge">
<title>Node2&#45;&gt;Node28</title>
<path fill="none" stroke="midnightblue" d="M1346.37,-526.5C1396.11,-517.54 1476.59,-502.97 1546,-490 1547.45,-489.73 1548.93,-489.45 1550.43,-489.17"/>
<polygon fill="midnightblue" stroke="midnightblue" points="1551.22,-492.58 1560.39,-487.28 1549.91,-485.7 1551.22,-492.58"/>
</g>
<!-- Node4 -->
<g id="node4" class="node">
<title>Node4</title>
<g id="a_node4"><a xlink:title=" ">
<polygon fill="white" stroke="#bfbfbf" points="557,-0.5 557,-19.5 601,-19.5 601,-0.5 557,-0.5"/>
<text text-anchor="middle" x="579" y="-7.5" font-family="Helvetica,sans-Serif" font-size="10.00">string</text>
</a>
</g>
</g>
<!-- Node3&#45;&gt;Node4 -->
<g id="edge3" class="edge">
<title>Node3&#45;&gt;Node4</title>
<path fill="none" stroke="midnightblue" d="M437.33,-478.23C307.57,-474.93 0,-457.74 0,-369 0,-369 0,-369 0,-126.5 0,-89.33 13.18,-75.22 45,-56 87.97,-30.05 438,-15.87 546.83,-12.06"/>
<polygon fill="midnightblue" stroke="midnightblue" points="547.01,-15.56 556.88,-11.71 546.77,-8.56 547.01,-15.56"/>
</g>
<!-- Node5&#45;&gt;Node6 -->
<g id="edge5" class="edge">
<title>Node5&#45;&gt;Node6</title>
<path fill="none" stroke="midnightblue" d="M1411.07,-56.44C1385.78,-47.4 1345.7,-33.06 1317.32,-22.92"/>
<polygon fill="midnightblue" stroke="midnightblue" points="1318.41,-19.59 1307.81,-19.52 1316.05,-26.18 1318.41,-19.59"/>
</g>
<!-- Node7 -->
<g id="node7" class="node">
<title>Node7</title>
<g id="a_node7"><a xlink:title=" ">
<polygon fill="white" stroke="#bfbfbf" points="1412.5,-0.5 1412.5,-19.5 1457.5,-19.5 1457.5,-0.5 1412.5,-0.5"/>
<text text-anchor="middle" x="1435" y="-7.5" font-family="Helvetica,sans-Serif" font-size="10.00">utility</text>
</a>
</g>
</g>
<!-- Node5&#45;&gt;Node7 -->
<g id="edge6" class="edge">
<title>Node5&#45;&gt;Node7</title>
<path fill="none" stroke="midnightblue" d="M1435,-56.08C1435,-49.01 1435,-38.86 1435,-29.99"/>
<polygon fill="midnightblue" stroke="midnightblue" points="1438.5,-29.75 1435,-19.75 1431.5,-29.75 1438.5,-29.75"/>
</g>
<!-- Node9 -->
<g id="node9" class="node">
<title>Node9</title>
<g id="a_node9"><a xlink:href="bound_8hpp.html" target="_top" xlink:title=" ">
<polygon fill="white" stroke="black" points="772,-302.5 772,-321.5 892,-321.5 892,-302.5 772,-302.5"/>
<text text-anchor="middle" x="832" y="-309.5" font-family="Helvetica,sans-Serif" font-size="10.00">lyra/detail/bound.hpp</text>
</a>
</g>
</g>
<!-- Node8&#45;&gt;Node9 -->
<g id="edge8" class="edge">
<title>Node8&#45;&gt;Node9</title>
<path fill="none" stroke="midnightblue" d="M634.89,-470.31C668.52,-443.47 770.99,-361.69 813.36,-327.88"/>
<polygon fill="midnightblue" stroke="midnightblue" points="815.58,-330.58 821.22,-321.61 811.22,-325.11 815.58,-330.58"/>
</g>
<!-- Node14 -->
<g id="node14" class="node">
<title>Node14</title>
<g id="a_node14"><a xlink:href="parser__result_8hpp.html" target="_top" xlink:title=" ">
<polygon fill="white" stroke="black" points="446.5,-118 446.5,-137 569.5,-137 569.5,-118 446.5,-118"/>
<text text-anchor="middle" x="508" y="-125" font-family="Helvetica,sans-Serif" font-size="10.00">lyra/parser_result.hpp</text>
</a>
</g>
</g>
<!-- Node8&#45;&gt;Node14 -->
<g id="edge66" class="edge">
<title>Node8&#45;&gt;Node14</title>
<path fill="none" stroke="midnightblue" d="M576.28,-470.44C473.01,-451.26 238,-403.8 238,-369 238,-369 238,-369 238,-311 238,-220.15 333.98,-250.25 409,-199 436.65,-180.11 468.06,-157.55 487.95,-143.13"/>
<polygon fill="midnightblue" stroke="midnightblue" points="490.19,-145.83 496.22,-137.12 486.07,-140.16 490.19,-145.83"/>
</g>
<!-- Node18 -->
<g id="node18" class="node">
<title>Node18</title>
<g id="a_node18"><a xlink:href="tokens_8hpp.html" target="_top" xlink:title=" ">
<polygon fill="white" stroke="black" points="104,-179.5 104,-198.5 226,-198.5 226,-179.5 104,-179.5"/>
<text text-anchor="middle" x="165" y="-186.5" font-family="Helvetica,sans-Serif" font-size="10.00">lyra/detail/tokens.hpp</text>
</a>
</g>
</g>
<!-- Node8&#45;&gt;Node18 -->
<g id="edge30" class="edge">
<title>Node8&#45;&gt;Node18</title>
<path fill="none" stroke="midnightblue" d="M568.7,-471.23C565.42,-470.8 562.17,-470.39 559,-470 484.69,-460.86 287.75,-473.27 224,-434 194.72,-415.96 182,-403.39 182,-369 182,-369 182,-369 182,-311 182,-274.54 174.34,-232.5 169.3,-208.8"/>
<polygon fill="midnightblue" stroke="midnightblue" points="172.66,-207.76 167.08,-198.75 165.82,-209.27 172.66,-207.76"/>
</g>
<!-- Node8&#45;&gt;Node21 -->
<g id="edge35" class="edge">
<title>Node8&#45;&gt;Node21</title>
<path fill="none" stroke="midnightblue" d="M662.03,-470.44C703.81,-461.04 770.98,-445.93 816.27,-435.74"/>
<polygon fill="midnightblue" stroke="midnightblue" points="817.16,-439.13 826.15,-433.52 815.62,-432.3 817.16,-439.13"/>
</g>
<!-- Node9&#45;&gt;Node4 -->
<g id="edge29" class="edge">
<title>Node9&#45;&gt;Node4</title>
<path fill="none" stroke="midnightblue" d="M815.72,-302.47C800.86,-294.25 778.73,-280.89 762,-266 678.55,-191.71 611.39,-72.85 587.95,-28.47"/>
<polygon fill="midnightblue" stroke="midnightblue" points="591.01,-26.76 583.28,-19.51 584.8,-29.99 591.01,-26.76"/>
</g>
<!-- Node10 -->
<g id="node10" class="node">
<title>Node10</title>
<g id="a_node10"><a xlink:href="from__string_8hpp.html" target="_top" xlink:title=" ">
<polygon fill="white" stroke="black" points="816,-118 816,-137 962,-137 962,-118 816,-118"/>
<text text-anchor="middle" x="889" y="-125" font-family="Helvetica,sans-Serif" font-size="10.00">lyra/detail/from_string.hpp</text>
</a>
</g>
</g>
<!-- Node9&#45;&gt;Node10 -->
<g id="edge9" class="edge">
<title>Node9&#45;&gt;Node10</title>
<path fill="none" stroke="midnightblue" d="M850.98,-302.4C864.89,-294.95 882.71,-282.74 891,-266 910.17,-227.26 901.23,-174.54 894.34,-146.99"/>
<polygon fill="midnightblue" stroke="midnightblue" points="897.67,-145.89 891.7,-137.14 890.91,-147.71 897.67,-145.89"/>
</g>
<!-- Node12 -->
<g id="node12" class="node">
<title>Node12</title>
<g id="a_node12"><a xlink:href="invoke__lambda_8hpp.html" target="_top" xlink:title=" ">
<polygon fill="white" stroke="black" points="781.5,-235.5 781.5,-265.5 882.5,-265.5 882.5,-235.5 781.5,-235.5"/>
<text text-anchor="start" x="789.5" y="-253.5" font-family="Helvetica,sans-Serif" font-size="10.00">lyra/detail/invoke</text>
<text text-anchor="middle" x="832" y="-242.5" font-family="Helvetica,sans-Serif" font-size="10.00">_lambda.hpp</text>
</a>
</g>
</g>
<!-- Node9&#45;&gt;Node12 -->
<g id="edge14" class="edge">
<title>Node9&#45;&gt;Node12</title>
<path fill="none" stroke="midnightblue" d="M832,-302.48C832,-295.47 832,-285.19 832,-275.7"/>
<polygon fill="midnightblue" stroke="midnightblue" points="835.5,-275.52 832,-265.52 828.5,-275.52 835.5,-275.52"/>
</g>
<!-- Node13 -->
<g id="node13" class="node">
<title>Node13</title>
<g id="a_node13"><a xlink:href="parse_8hpp.html" target="_top" xlink:title=" ">
<polygon fill="white" stroke="black" points="716.5,-179.5 716.5,-198.5 833.5,-198.5 833.5,-179.5 716.5,-179.5"/>
<text text-anchor="middle" x="775" y="-186.5" font-family="Helvetica,sans-Serif" font-size="10.00">lyra/detail/parse.hpp</text>
</a>
</g>
</g>
<!-- Node9&#45;&gt;Node13 -->
<g id="edge27" class="edge">
<title>Node9&#45;&gt;Node13</title>
<path fill="none" stroke="midnightblue" d="M812.7,-302.48C798.57,-295.08 780.44,-282.89 772,-266 762.98,-247.96 765.79,-224.39 769.53,-208.31"/>
<polygon fill="midnightblue" stroke="midnightblue" points="772.94,-209.1 772.13,-198.54 766.17,-207.3 772.94,-209.1"/>
</g>
<!-- Node17 -->
<g id="node17" class="node">
<title>Node17</title>
<g id="a_node17"><a xlink:href="unary__lambda__traits_8hpp.html" target="_top" xlink:title=" ">
<polygon fill="white" stroke="black" points="980.5,-112.5 980.5,-142.5 1119.5,-142.5 1119.5,-112.5 980.5,-112.5"/>
<text text-anchor="start" x="988.5" y="-130.5" font-family="Helvetica,sans-Serif" font-size="10.00">lyra/detail/unary_lambda</text>
<text text-anchor="middle" x="1050" y="-119.5" font-family="Helvetica,sans-Serif" font-size="10.00">_traits.hpp</text>
</a>
</g>
</g>
<!-- Node9&#45;&gt;Node17 -->
<g id="edge28" class="edge">
<title>Node9&#45;&gt;Node17</title>
<path fill="none" stroke="midnightblue" d="M849.83,-302.36C866.18,-294.07 890.71,-280.66 910,-266 957.4,-229.98 1005.32,-179.06 1030.97,-150.37"/>
<polygon fill="midnightblue" stroke="midnightblue" points="1033.88,-152.37 1037.89,-142.56 1028.64,-147.73 1033.88,-152.37"/>
</g>
<!-- Node10&#45;&gt;Node4 -->
<g id="edge12" class="edge">
<title>Node10&#45;&gt;Node4</title>
<path fill="none" stroke="midnightblue" d="M886.15,-117.9C880.64,-102.7 866.99,-71.24 844,-56 806.22,-30.95 673.18,-18.01 611.21,-13.22"/>
<polygon fill="midnightblue" stroke="midnightblue" points="611.44,-9.73 601.2,-12.47 610.91,-16.71 611.44,-9.73"/>
</g>
<!-- Node10&#45;&gt;Node5 -->
<g id="edge10" class="edge">
<title>Node10&#45;&gt;Node5</title>
<path fill="none" stroke="midnightblue" d="M933.59,-117.96C945.69,-115.82 958.82,-113.66 971,-112 1105.87,-93.56 1263.81,-79.93 1356.29,-72.74"/>
<polygon fill="midnightblue" stroke="midnightblue" points="1356.71,-76.22 1366.41,-71.96 1356.17,-69.24 1356.71,-76.22"/>
</g>
<!-- Node10&#45;&gt;Node6 -->
<g id="edge13" class="edge">
<title>Node10&#45;&gt;Node6</title>
<path fill="none" stroke="midnightblue" d="M918.37,-117.91C988.44,-97.42 1165.46,-45.66 1244.65,-22.51"/>
<polygon fill="midnightblue" stroke="midnightblue" points="1246.09,-25.73 1254.71,-19.56 1244.13,-19.01 1246.09,-25.73"/>
</g>
<!-- Node11 -->
<g id="node11" class="node">
<title>Node11</title>
<g id="a_node11"><a xlink:title=" ">
<polygon fill="white" stroke="#bfbfbf" points="929,-56.5 929,-75.5 985,-75.5 985,-56.5 929,-56.5"/>
<text text-anchor="middle" x="957" y="-63.5" font-family="Helvetica,sans-Serif" font-size="10.00">sstream</text>
</a>
</g>
</g>
<!-- Node10&#45;&gt;Node11 -->
<g id="edge11" class="edge">
<title>Node10&#45;&gt;Node11</title>
<path fill="none" stroke="midnightblue" d="M898.74,-117.98C909.35,-108.7 926.52,-93.67 939.48,-82.33"/>
<polygon fill="midnightblue" stroke="midnightblue" points="942.05,-84.73 947.28,-75.51 937.44,-79.46 942.05,-84.73"/>
</g>
<!-- Node12&#45;&gt;Node13 -->
<g id="edge15" class="edge">
<title>Node12&#45;&gt;Node13</title>
<path fill="none" stroke="midnightblue" d="M818.49,-235.4C810.04,-226.58 799.12,-215.18 790.34,-206.02"/>
<polygon fill="midnightblue" stroke="midnightblue" points="792.74,-203.46 783.29,-198.66 787.68,-208.3 792.74,-203.46"/>
</g>
<!-- Node12&#45;&gt;Node14 -->
<g id="edge26" class="edge">
<title>Node12&#45;&gt;Node14</title>
<path fill="none" stroke="midnightblue" d="M781.33,-247.97C703.38,-244.53 559.24,-233.56 523,-199 509.3,-185.94 506.55,-163.69 506.6,-147.68"/>
<polygon fill="midnightblue" stroke="midnightblue" points="510.11,-147.47 507.01,-137.34 503.12,-147.2 510.11,-147.47"/>
</g>
<!-- Node15 -->
<g id="node15" class="node">
<title>Node15</title>
<g id="a_node15"><a xlink:href="result_8hpp.html" target="_top" xlink:title=" ">
<polygon fill="white" stroke="black" points="717,-56.5 717,-75.5 835,-75.5 835,-56.5 717,-56.5"/>
<text text-anchor="middle" x="776" y="-63.5" font-family="Helvetica,sans-Serif" font-size="10.00">lyra/detail/result.hpp</text>
</a>
</g>
</g>
<!-- Node12&#45;&gt;Node15 -->
<g id="edge23" class="edge">
<title>Node12&#45;&gt;Node15</title>
<path fill="none" stroke="midnightblue" d="M838.1,-235.47C843.53,-220.86 849.53,-197.56 842,-179 833.61,-158.32 819.22,-161.67 807,-143 795.21,-124.98 786.54,-101.75 781.41,-85.74"/>
<polygon fill="midnightblue" stroke="midnightblue" points="784.69,-84.51 778.43,-75.96 778,-86.55 784.69,-84.51"/>
</g>
<!-- Node12&#45;&gt;Node17 -->
<g id="edge24" class="edge">
<title>Node12&#45;&gt;Node17</title>
<path fill="none" stroke="midnightblue" d="M857.43,-235.38C896.65,-213.62 971.94,-171.83 1015.86,-147.45"/>
<polygon fill="midnightblue" stroke="midnightblue" points="1017.68,-150.44 1024.73,-142.53 1014.29,-144.32 1017.68,-150.44"/>
</g>
<!-- Node13&#45;&gt;Node4 -->
<g id="edge22" class="edge">
<title>Node13&#45;&gt;Node4</title>
<path fill="none" stroke="midnightblue" d="M769.52,-179.28C754.91,-156.55 712.82,-94.6 665,-56 648.56,-42.73 627.59,-31.66 610.48,-23.82"/>
<polygon fill="midnightblue" stroke="midnightblue" points="611.47,-20.44 600.91,-19.59 608.64,-26.84 611.47,-20.44"/>
</g>
<!-- Node13&#45;&gt;Node10 -->
<g id="edge16" class="edge">
<title>Node13&#45;&gt;Node10</title>
<path fill="none" stroke="midnightblue" d="M791.33,-179.48C810.21,-169.62 841.51,-153.29 863.58,-141.77"/>
<polygon fill="midnightblue" stroke="midnightblue" points="865.45,-144.74 872.7,-137.01 862.21,-138.53 865.45,-144.74"/>
</g>
<!-- Node13&#45;&gt;Node14 -->
<g id="edge17" class="edge">
<title>Node13&#45;&gt;Node14</title>
<path fill="none" stroke="midnightblue" d="M736.75,-179.48C689.16,-168.87 607.89,-150.76 556.12,-139.22"/>
<polygon fill="midnightblue" stroke="midnightblue" points="556.71,-135.77 546.18,-137.01 555.18,-142.6 556.71,-135.77"/>
</g>
<!-- Node14&#45;&gt;Node4 -->
<g id="edge21" class="edge">
<title>Node14&#45;&gt;Node4</title>
<path fill="none" stroke="midnightblue" d="M513.34,-117.82C524.95,-98.92 552.72,-53.75 568.17,-28.62"/>
<polygon fill="midnightblue" stroke="midnightblue" points="571.35,-30.13 573.6,-19.78 565.38,-26.47 571.35,-30.13"/>
</g>
<!-- Node14&#45;&gt;Node15 -->
<g id="edge18" class="edge">
<title>Node14&#45;&gt;Node15</title>
<path fill="none" stroke="midnightblue" d="M546.4,-117.98C594.16,-107.37 675.74,-89.26 727.7,-77.72"/>
<polygon fill="midnightblue" stroke="midnightblue" points="728.67,-81.09 737.67,-75.51 727.15,-74.26 728.67,-81.09"/>
</g>
<!-- Node15&#45;&gt;Node4 -->
<g id="edge20" class="edge">
<title>Node15&#45;&gt;Node4</title>
<path fill="none" stroke="midnightblue" d="M744.78,-56.44C708.19,-46.41 647.86,-29.88 610.95,-19.76"/>
<polygon fill="midnightblue" stroke="midnightblue" points="611.77,-16.35 601.2,-17.09 609.92,-23.11 611.77,-16.35"/>
</g>
<!-- Node16 -->
<g id="node16" class="node">
<title>Node16</title>
<g id="a_node16"><a xlink:title=" ">
<polygon fill="white" stroke="#bfbfbf" points="1146,-0.5 1146,-19.5 1204,-19.5 1204,-0.5 1146,-0.5"/>
<text text-anchor="middle" x="1175" y="-7.5" font-family="Helvetica,sans-Serif" font-size="10.00">memory</text>
</a>
</g>
</g>
<!-- Node15&#45;&gt;Node16 -->
<g id="edge19" class="edge">
<title>Node15&#45;&gt;Node16</title>
<path fill="none" stroke="midnightblue" d="M835.3,-56.97C917.9,-45.8 1065.32,-25.84 1135.62,-16.33"/>
<polygon fill="midnightblue" stroke="midnightblue" points="1136.37,-19.76 1145.81,-14.95 1135.43,-12.82 1136.37,-19.76"/>
</g>
<!-- Node17&#45;&gt;Node6 -->
<g id="edge25" class="edge">
<title>Node17&#45;&gt;Node6</title>
<path fill="none" stroke="midnightblue" d="M1105.98,-112.48C1135,-104.04 1170.45,-91.83 1200,-76 1225.47,-62.36 1251.23,-41.07 1267.38,-26.6"/>
<polygon fill="midnightblue" stroke="midnightblue" points="1269.88,-29.06 1274.9,-19.73 1265.16,-23.89 1269.88,-29.06"/>
</g>
<!-- Node18&#45;&gt;Node4 -->
<g id="edge33" class="edge">
<title>Node18&#45;&gt;Node4</title>
<path fill="none" stroke="midnightblue" d="M117.67,-179.42C96.9,-173.05 74.45,-162.02 62,-143 40.83,-110.65 35.87,-84.5 62,-56 94.78,-20.24 438.27,-12.8 546.52,-11.34"/>
<polygon fill="midnightblue" stroke="midnightblue" points="546.86,-14.83 556.82,-11.21 546.77,-7.84 546.86,-14.83"/>
</g>
<!-- Node19 -->
<g id="node19" class="node">
<title>Node19</title>
<g id="a_node19"><a xlink:href="option__style_8hpp.html" target="_top" xlink:title=" ">
<polygon fill="white" stroke="black" points="104.5,-118 104.5,-137 223.5,-137 223.5,-118 104.5,-118"/>
<text text-anchor="middle" x="164" y="-125" font-family="Helvetica,sans-Serif" font-size="10.00">lyra/option_style.hpp</text>
</a>
</g>
</g>
<!-- Node18&#45;&gt;Node19 -->
<g id="edge31" class="edge">
<title>Node18&#45;&gt;Node19</title>
<path fill="none" stroke="midnightblue" d="M164.86,-179.48C164.72,-171.08 164.5,-157.98 164.31,-147.16"/>
<polygon fill="midnightblue" stroke="midnightblue" points="167.81,-146.95 164.14,-137.01 160.81,-147.07 167.81,-146.95"/>
</g>
<!-- Node20 -->
<g id="node20" class="node">
<title>Node20</title>
<g id="a_node20"><a xlink:title=" ">
<polygon fill="white" stroke="#bfbfbf" points="280.5,-118 280.5,-137 327.5,-137 327.5,-118 280.5,-118"/>
<text text-anchor="middle" x="304" y="-125" font-family="Helvetica,sans-Serif" font-size="10.00">vector</text>
</a>
</g>
</g>
<!-- Node18&#45;&gt;Node20 -->
<g id="edge34" class="edge">
<title>Node18&#45;&gt;Node20</title>
<path fill="none" stroke="midnightblue" d="M184.92,-179.48C208.45,-169.4 247.81,-152.55 274.79,-141"/>
<polygon fill="midnightblue" stroke="midnightblue" points="276.31,-144.16 284.12,-137.01 273.55,-137.73 276.31,-144.16"/>
</g>
<!-- Node19&#45;&gt;Node4 -->
<g id="edge32" class="edge">
<title>Node19&#45;&gt;Node4</title>
<path fill="none" stroke="midnightblue" d="M170.16,-117.76C181.56,-102.34 207.59,-70.55 238,-56 292.3,-30.03 472.53,-17.06 546.69,-12.71"/>
<polygon fill="midnightblue" stroke="midnightblue" points="547.05,-16.2 556.83,-12.14 546.65,-9.21 547.05,-16.2"/>
</g>
<!-- Node21&#45;&gt;Node4 -->
<g id="edge64" class="edge">
<title>Node21&#45;&gt;Node4</title>
<path fill="none" stroke="midnightblue" d="M818.9,-422.94C716.92,-422.12 471.86,-416.11 400,-378 298.5,-324.17 332.03,-240.53 235,-179 180.74,-144.6 134.37,-193.77 95,-143 39.03,-70.82 142.58,-75.37 207,-56 328.57,-19.45 480.95,-12.48 546.53,-11.22"/>
<polygon fill="midnightblue" stroke="midnightblue" points="546.71,-14.72 556.66,-11.06 546.6,-7.72 546.71,-14.72"/>
</g>
<!-- Node21&#45;&gt;Node5 -->
<g id="edge53" class="edge">
<title>Node21&#45;&gt;Node5</title>
<path fill="none" stroke="midnightblue" d="M909.01,-422.16C1035.39,-419.42 1386.99,-409.07 1428,-378 1452.55,-359.4 1452,-343.8 1452,-313 1452,-313 1452,-313 1452,-188 1452,-151.54 1444.34,-109.5 1439.3,-85.8"/>
<polygon fill="midnightblue" stroke="midnightblue" points="1442.66,-84.76 1437.08,-75.75 1435.82,-86.27 1442.66,-84.76"/>
</g>
<!-- Node21&#45;&gt;Node6 -->
<g id="edge65" class="edge">
<title>Node21&#45;&gt;Node6</title>
<path fill="none" stroke="midnightblue" d="M909,-423.51C1015.3,-423.98 1278.64,-420.67 1354,-378 1477.21,-308.24 1339.4,-90.6 1296.13,-28"/>
<polygon fill="midnightblue" stroke="midnightblue" points="1298.86,-25.81 1290.26,-19.63 1293.13,-29.82 1298.86,-25.81"/>
</g>
<!-- Node21&#45;&gt;Node9 -->
<g id="edge40" class="edge">
<title>Node21&#45;&gt;Node9</title>
<path fill="none" stroke="midnightblue" d="M861.49,-414.37C856.3,-396.54 844.3,-355.3 837.32,-331.27"/>
<polygon fill="midnightblue" stroke="midnightblue" points="840.65,-330.22 834.5,-321.59 833.93,-332.17 840.65,-330.22"/>
</g>
<!-- Node21&#45;&gt;Node10 -->
<g id="edge50" class="edge">
<title>Node21&#45;&gt;Node10</title>
<path fill="none" stroke="midnightblue" d="M886.89,-414.41C904.14,-406.97 927.42,-394.76 943,-378 964.79,-354.56 974,-345.01 974,-313 974,-313 974,-313 974,-249.5 974,-204.29 933.78,-164.03 908.67,-143.29"/>
<polygon fill="midnightblue" stroke="midnightblue" points="910.82,-140.53 900.82,-137.03 906.46,-146 910.82,-140.53"/>
</g>
<!-- Node21&#45;&gt;Node14 -->
<g id="edge55" class="edge">
<title>Node21&#45;&gt;Node14</title>
<path fill="none" stroke="midnightblue" d="M818.73,-420.08C714.42,-412.1 466,-385.49 466,-313 466,-313 466,-313 466,-249.5 466,-210.95 485.26,-169.13 497.69,-146.14"/>
<polygon fill="midnightblue" stroke="midnightblue" points="500.84,-147.68 502.68,-137.24 494.74,-144.25 500.84,-147.68"/>
</g>
<!-- Node21&#45;&gt;Node15 -->
<g id="edge51" class="edge">
<title>Node21&#45;&gt;Node15</title>
<path fill="none" stroke="midnightblue" d="M909,-415.21C989.08,-400.06 1148,-363.63 1148,-313 1148,-313 1148,-313 1148,-188 1148,-153.07 1154.25,-135.04 1128,-112 1107.18,-93.72 941.82,-78.91 845.33,-71.72"/>
<polygon fill="midnightblue" stroke="midnightblue" points="845.58,-68.23 835.35,-70.99 845.07,-75.21 845.58,-68.23"/>
</g>
<!-- Node21&#45;&gt;Node16 -->
<g id="edge63" class="edge">
<title>Node21&#45;&gt;Node16</title>
<path fill="none" stroke="midnightblue" d="M909.23,-418.78C1005.92,-408.5 1224,-378.11 1224,-313 1224,-313 1224,-313 1224,-188 1224,-127.84 1197.38,-60.22 1183.39,-28.81"/>
<polygon fill="midnightblue" stroke="midnightblue" points="1186.52,-27.24 1179.18,-19.61 1180.15,-30.15 1186.52,-27.24"/>
</g>
<!-- Node21&#45;&gt;Node18 -->
<g id="edge52" class="edge">
<title>Node21&#45;&gt;Node18</title>
<path fill="none" stroke="midnightblue" d="M818.92,-421.57C693.16,-417.29 344.75,-403.26 300,-378 295.46,-375.44 209.43,-253.29 177.12,-207.28"/>
<polygon fill="midnightblue" stroke="midnightblue" points="179.86,-205.1 171.25,-198.92 174.13,-209.12 179.86,-205.1"/>
</g>
<!-- Node21&#45;&gt;Node19 -->
<g id="edge54" class="edge">
<title>Node21&#45;&gt;Node19</title>
<path fill="none" stroke="midnightblue" d="M818.84,-422.91C721.62,-421.98 496.07,-415.7 431,-378 363.23,-338.74 379.77,-293.78 328,-235 303.89,-207.63 298.08,-199.64 268,-179 245.33,-163.44 217.13,-150.07 195.82,-141"/>
<polygon fill="midnightblue" stroke="midnightblue" points="197.14,-137.76 186.56,-137.15 194.45,-144.22 197.14,-137.76"/>
</g>
<!-- Node22 -->
<g id="node22" class="node">
<title>Node22</title>
<g id="a_node22"><a xlink:href="args_8hpp.html" target="_top" xlink:title=" ">
<polygon fill="white" stroke="black" points="320,-179.5 320,-198.5 400,-198.5 400,-179.5 320,-179.5"/>
<text text-anchor="middle" x="360" y="-186.5" font-family="Helvetica,sans-Serif" font-size="10.00">lyra/args.hpp</text>
</a>
</g>
</g>
<!-- Node21&#45;&gt;Node22 -->
<g id="edge36" class="edge">
<title>Node21&#45;&gt;Node22</title>
<path fill="none" stroke="midnightblue" d="M818.76,-423.42C724.33,-423.46 510.22,-418.89 452,-378 421.84,-356.82 381.73,-251.2 366.36,-208.23"/>
<polygon fill="midnightblue" stroke="midnightblue" points="369.64,-207.01 363.01,-198.74 363.04,-209.34 369.64,-207.01"/>
</g>
<!-- Node24 -->
<g id="node24" class="node">
<title>Node24</title>
<g id="a_node24"><a xlink:href="choices_8hpp.html" target="_top" xlink:title=" ">
<polygon fill="white" stroke="black" points="532.5,-179.5 532.5,-198.5 659.5,-198.5 659.5,-179.5 532.5,-179.5"/>
<text text-anchor="middle" x="596" y="-186.5" font-family="Helvetica,sans-Serif" font-size="10.00">lyra/detail/choices.hpp</text>
</a>
</g>
</g>
<!-- Node21&#45;&gt;Node24 -->
<g id="edge41" class="edge">
<title>Node21&#45;&gt;Node24</title>
<path fill="none" stroke="midnightblue" d="M853.03,-414.45C823.46,-391.3 739.92,-325.17 674,-266 651.71,-246 627.15,-221.65 611.65,-206"/>
<polygon fill="midnightblue" stroke="midnightblue" points="613.95,-203.34 604.44,-198.67 608.96,-208.25 613.95,-203.34"/>
</g>
<!-- Node21&#45;&gt;Node25 -->
<g id="edge56" class="edge">
<title>Node21&#45;&gt;Node25</title>
<path fill="none" stroke="midnightblue" d="M909.24,-417.95C979.62,-410.01 1119.54,-393.86 1238,-378 1239.49,-377.8 1241,-377.6 1242.53,-377.39"/>
<polygon fill="midnightblue" stroke="midnightblue" points="1243.3,-380.81 1252.72,-375.96 1242.33,-373.88 1243.3,-380.81"/>
</g>
<!-- Node27 -->
<g id="node27" class="node">
<title>Node27</title>
<g id="a_node27"><a xlink:href="val_8hpp.html" target="_top" xlink:title=" ">
<polygon fill="white" stroke="black" points="860,-358.5 860,-377.5 934,-377.5 934,-358.5 860,-358.5"/>
<text text-anchor="middle" x="897" y="-365.5" font-family="Helvetica,sans-Serif" font-size="10.00">lyra/val.hpp</text>
</a>
</g>
</g>
<!-- Node21&#45;&gt;Node27 -->
<g id="edge60" class="edge">
<title>Node21&#45;&gt;Node27</title>
<path fill="none" stroke="midnightblue" d="M869.45,-414.08C874.01,-406.61 880.67,-395.72 886.29,-386.52"/>
<polygon fill="midnightblue" stroke="midnightblue" points="889.42,-388.11 891.65,-377.75 883.45,-384.46 889.42,-388.11"/>
</g>
<!-- Node22&#45;&gt;Node4 -->
<g id="edge38" class="edge">
<title>Node22&#45;&gt;Node4</title>
<path fill="none" stroke="midnightblue" d="M323.3,-179.35C304.17,-172.77 282.43,-161.58 271,-143 263.78,-131.26 262.92,-123.16 271,-112 335.74,-22.64 482,-10.92 546.92,-10.32"/>
<polygon fill="midnightblue" stroke="midnightblue" points="546.98,-13.82 556.98,-10.32 546.98,-6.82 546.98,-13.82"/>
</g>
<!-- Node22&#45;&gt;Node20 -->
<g id="edge39" class="edge">
<title>Node22&#45;&gt;Node20</title>
<path fill="none" stroke="midnightblue" d="M351.98,-179.48C343.41,-170.37 329.64,-155.74 319.04,-144.48"/>
<polygon fill="midnightblue" stroke="midnightblue" points="321.41,-141.89 312.01,-137.01 316.31,-146.69 321.41,-141.89"/>
</g>
<!-- Node23 -->
<g id="node23" class="node">
<title>Node23</title>
<g id="a_node23"><a xlink:title=" ">
<polygon fill="white" stroke="#bfbfbf" points="345.5,-118 345.5,-137 428.5,-137 428.5,-118 345.5,-118"/>
<text text-anchor="middle" x="387" y="-125" font-family="Helvetica,sans-Serif" font-size="10.00">initializer_list</text>
</a>
</g>
</g>
<!-- Node22&#45;&gt;Node23 -->
<g id="edge37" class="edge">
<title>Node22&#45;&gt;Node23</title>
<path fill="none" stroke="midnightblue" d="M363.87,-179.48C367.8,-170.82 374,-157.15 378.99,-146.15"/>
<polygon fill="midnightblue" stroke="midnightblue" points="382.19,-147.56 383.14,-137.01 375.82,-144.67 382.19,-147.56"/>
</g>
<!-- Node24&#45;&gt;Node4 -->
<g id="edge47" class="edge">
<title>Node24&#45;&gt;Node4</title>
<path fill="none" stroke="midnightblue" d="M595.18,-179.46C592.58,-152.43 584.5,-68.24 580.84,-30.11"/>
<polygon fill="midnightblue" stroke="midnightblue" points="584.29,-29.49 579.85,-19.87 577.32,-30.16 584.29,-29.49"/>
</g>
<!-- Node24&#45;&gt;Node6 -->
<g id="edge48" class="edge">
<title>Node24&#45;&gt;Node6</title>
<path fill="none" stroke="midnightblue" d="M616.3,-179.36C682.31,-151.33 888.48,-64.2 920,-56 1046.97,-22.96 1082.81,-36.25 1213,-20 1221.51,-18.94 1230.59,-17.79 1239.31,-16.69"/>
<polygon fill="midnightblue" stroke="midnightblue" points="1239.85,-20.15 1249.34,-15.42 1238.97,-13.21 1239.85,-20.15"/>
</g>
<!-- Node24&#45;&gt;Node10 -->
<g id="edge42" class="edge">
<title>Node24&#45;&gt;Node10</title>
<path fill="none" stroke="midnightblue" d="M637.98,-179.48C690.52,-168.8 780.5,-150.53 837.25,-139.01"/>
<polygon fill="midnightblue" stroke="midnightblue" points="837.99,-142.43 847.1,-137.01 836.6,-135.57 837.99,-142.43"/>
</g>
<!-- Node24&#45;&gt;Node14 -->
<g id="edge45" class="edge">
<title>Node24&#45;&gt;Node14</title>
<path fill="none" stroke="midnightblue" d="M583.39,-179.48C569.28,-169.93 546.17,-154.31 529.25,-142.87"/>
<polygon fill="midnightblue" stroke="midnightblue" points="530.83,-139.71 520.58,-137.01 526.91,-145.51 530.83,-139.71"/>
</g>
<!-- Node24&#45;&gt;Node15 -->
<g id="edge43" class="edge">
<title>Node24&#45;&gt;Node15</title>
<path fill="none" stroke="midnightblue" d="M608.66,-179.49C639.05,-159.06 716.44,-107.04 754.37,-81.54"/>
<polygon fill="midnightblue" stroke="midnightblue" points="756.77,-84.14 763.12,-75.66 752.86,-78.34 756.77,-84.14"/>
</g>
<!-- Node24&#45;&gt;Node17 -->
<g id="edge44" class="edge">
<title>Node24&#45;&gt;Node17</title>
<path fill="none" stroke="midnightblue" d="M659.53,-181.59C732.13,-174 854.73,-160.34 970.18,-143.06"/>
<polygon fill="midnightblue" stroke="midnightblue" points="970.89,-146.5 980.25,-141.54 969.84,-139.58 970.89,-146.5"/>
</g>
<!-- Node24&#45;&gt;Node20 -->
<g id="edge49" class="edge">
<title>Node24&#45;&gt;Node20</title>
<path fill="none" stroke="midnightblue" d="M532.43,-181.57C479.13,-175.1 401.46,-163.14 336,-143 334.12,-142.42 332.21,-141.76 330.3,-141.04"/>
<polygon fill="midnightblue" stroke="midnightblue" points="331.54,-137.77 320.96,-137.15 328.84,-144.23 331.54,-137.77"/>
</g>
<!-- Node24&#45;&gt;Node23 -->
<g id="edge46" class="edge">
<title>Node24&#45;&gt;Node23</title>
<path fill="none" stroke="midnightblue" d="M565.5,-179.43C533.48,-170.42 481.68,-155.8 437,-143 433.45,-141.98 429.75,-140.92 426.05,-139.85"/>
<polygon fill="midnightblue" stroke="midnightblue" points="426.92,-136.46 416.34,-137.04 424.97,-143.18 426.92,-136.46"/>
</g>
<!-- Node25&#45;&gt;Node4 -->
<g id="edge59" class="edge">
<title>Node25&#45;&gt;Node4</title>
<path fill="none" stroke="midnightblue" d="M1294.16,-358.32C1284.13,-339.48 1262,-293.19 1262,-251.5 1262,-251.5 1262,-251.5 1262,-188 1262,-51.89 747.3,-18.71 611.52,-12.32"/>
<polygon fill="midnightblue" stroke="midnightblue" points="611.48,-8.82 601.34,-11.86 611.17,-15.81 611.48,-8.82"/>
</g>
<!-- Node25&#45;&gt;Node16 -->
<g id="edge57" class="edge">
<title>Node25&#45;&gt;Node16</title>
<path fill="none" stroke="midnightblue" d="M1299.13,-358.31C1299.4,-339.06 1300,-291.41 1300,-251.5 1300,-251.5 1300,-251.5 1300,-126.5 1300,-93.4 1298.32,-80.45 1276,-56 1259.69,-38.13 1234.96,-26.95 1214.05,-20.2"/>
<polygon fill="midnightblue" stroke="midnightblue" points="1215.04,-16.84 1204.45,-17.32 1213.02,-23.55 1215.04,-16.84"/>
</g>
<!-- Node26 -->
<g id="node26" class="node">
<title>Node26</title>
<g id="a_node26"><a xlink:title=" ">
<polygon fill="white" stroke="#bfbfbf" points="1328.5,-302.5 1328.5,-321.5 1385.5,-321.5 1385.5,-302.5 1328.5,-302.5"/>
<text text-anchor="middle" x="1357" y="-309.5" font-family="Helvetica,sans-Serif" font-size="10.00">ostream</text>
</a>
</g>
</g>
<!-- Node25&#45;&gt;Node26 -->
<g id="edge58" class="edge">
<title>Node25&#45;&gt;Node26</title>
<path fill="none" stroke="midnightblue" d="M1308.32,-358.32C1316.89,-350.34 1329.81,-338.31 1340.19,-328.65"/>
<polygon fill="midnightblue" stroke="midnightblue" points="1342.58,-331.21 1347.51,-321.83 1337.81,-326.09 1342.58,-331.21"/>
</g>
<!-- Node27&#45;&gt;Node9 -->
<g id="edge61" class="edge">
<title>Node27&#45;&gt;Node9</title>
<path fill="none" stroke="midnightblue" d="M886.56,-358.32C876.85,-350.26 862.18,-338.08 850.5,-328.37"/>
<polygon fill="midnightblue" stroke="midnightblue" points="852.56,-325.53 842.63,-321.83 848.09,-330.92 852.56,-325.53"/>
</g>
<!-- Node27&#45;&gt;Node16 -->
<g id="edge62" class="edge">
<title>Node27&#45;&gt;Node16</title>
<path fill="none" stroke="midnightblue" d="M912.88,-358.36C958.65,-332.52 1091.45,-250.92 1152,-143 1172.32,-106.77 1175.49,-56.86 1175.54,-29.98"/>
<polygon fill="midnightblue" stroke="midnightblue" points="1179.03,-29.63 1175.4,-19.68 1172.03,-29.72 1179.03,-29.63"/>
</g>
</g>
</svg>
