<?xml version="1.0" encoding="UTF-8" standalone="no"?>
<!DOCTYPE svg PUBLIC "-//W3C//DTD SVG 1.1//EN"
 "http://www.w3.org/Graphics/SVG/1.1/DTD/svg11.dtd">
<!-- Generated by graphviz version 2.43.0 (0)
 -->
<!-- Title: Graphical Class Hierarchy Pages: 1 -->
<svg width="925pt" height="203pt"
 viewBox="0.00 0.00 925.00 202.50" xmlns="http://www.w3.org/2000/svg" xmlns:xlink="http://www.w3.org/1999/xlink">
<g id="graph0" class="graph" transform="scale(1 1) rotate(0) translate(4 198.5)">
<title>Graphical Class Hierarchy</title>
<polygon fill="white" stroke="transparent" points="-4,4 -4,-198.5 921,-198.5 921,4 -4,4"/>
<!-- Node0 -->
<g id="node1" class="node">
<title>Node0</title>
<g id="a_node1"><a xlink:href="structlyra_1_1detail_1_1_non_copyable.html" target="_top" xlink:title=" ">
<polygon fill="white" stroke="black" points="0,-96 0,-115 140,-115 140,-96 0,-96"/>
<text text-anchor="middle" x="70" y="-103" font-family="Helvetica,sans-Serif" font-size="10.00">lyra::detail::NonCopyable</text>
</a>
</g>
</g>
<!-- Node1 -->
<g id="node2" class="node">
<title>Node1</title>
<g id="a_node2"><a xlink:href="structlyra_1_1detail_1_1_bound_ref.html" target="_top" xlink:title=" ">
<polygon fill="white" stroke="black" points="176,-96 176,-115 298,-115 298,-96 176,-96"/>
<text text-anchor="middle" x="237" y="-103" font-family="Helvetica,sans-Serif" font-size="10.00">lyra::detail::BoundRef</text>
</a>
</g>
</g>
<!-- Node0&#45;&gt;Node1 -->
<g id="edge1" class="edge">
<title>Node0&#45;&gt;Node1</title>
<path fill="none" stroke="midnightblue" d="M150.15,-105.5C158.81,-105.5 167.53,-105.5 175.91,-105.5"/>
<polygon fill="midnightblue" stroke="midnightblue" points="150.02,-102 140.02,-105.5 150.02,-109 150.02,-102"/>
</g>
<!-- Node2 -->
<g id="node3" class="node">
<title>Node2</title>
<g id="a_node3"><a xlink:href="structlyra_1_1detail_1_1_bound_flag_ref_base.html" target="_top" xlink:title=" ">
<polygon fill="white" stroke="black" points="334,-137 334,-156 501,-156 501,-137 334,-137"/>
<text text-anchor="middle" x="417.5" y="-144" font-family="Helvetica,sans-Serif" font-size="10.00">lyra::detail::BoundFlagRefBase</text>
</a>
</g>
</g>
<!-- Node1&#45;&gt;Node2 -->
<g id="edge2" class="edge">
<title>Node1&#45;&gt;Node2</title>
<path fill="none" stroke="midnightblue" d="M289.5,-117.33C316.65,-123.57 349.52,-131.12 375.02,-136.97"/>
<polygon fill="midnightblue" stroke="midnightblue" points="289.93,-113.84 279.4,-115.01 288.36,-120.66 289.93,-113.84"/>
</g>
<!-- Node5 -->
<g id="node6" class="node">
<title>Node5</title>
<g id="a_node6"><a xlink:href="structlyra_1_1detail_1_1_bound_value_ref_base.html" target="_top" xlink:title=" ">
<polygon fill="white" stroke="black" points="350.5,-68.5 350.5,-98.5 484.5,-98.5 484.5,-68.5 350.5,-68.5"/>
<text text-anchor="start" x="358.5" y="-86.5" font-family="Helvetica,sans-Serif" font-size="10.00">lyra::detail::BoundValue</text>
<text text-anchor="middle" x="417.5" y="-75.5" font-family="Helvetica,sans-Serif" font-size="10.00">RefBase</text>
</a>
</g>
</g>
<!-- Node1&#45;&gt;Node5 -->
<g id="edge5" class="edge">
<title>Node1&#45;&gt;Node5</title>
<path fill="none" stroke="midnightblue" d="M308.36,-96.83C322.18,-95.12 336.63,-93.34 350.31,-91.66"/>
<polygon fill="midnightblue" stroke="midnightblue" points="307.93,-93.35 298.43,-98.05 308.79,-100.3 307.93,-93.35"/>
</g>
<!-- Node3 -->
<g id="node4" class="node">
<title>Node3</title>
<g id="a_node4"><a xlink:href="structlyra_1_1detail_1_1_bound_flag_lambda.html" target="_top" xlink:title=" ">
<polygon fill="white" stroke="black" points="537,-175 537,-194 731,-194 731,-175 537,-175"/>
<text text-anchor="middle" x="634" y="-182" font-family="Helvetica,sans-Serif" font-size="10.00">lyra::detail::BoundFlagLambda&lt; L &gt;</text>
</a>
</g>
</g>
<!-- Node2&#45;&gt;Node3 -->
<g id="edge3" class="edge">
<title>Node2&#45;&gt;Node3</title>
<path fill="none" stroke="midnightblue" d="M482.55,-157.85C513.33,-163.3 549.8,-169.76 579.13,-174.96"/>
<polygon fill="midnightblue" stroke="midnightblue" points="482.81,-154.34 472.35,-156.04 481.59,-161.23 482.81,-154.34"/>
</g>
<!-- Node4 -->
<g id="node5" class="node">
<title>Node4</title>
<g id="a_node5"><a xlink:href="structlyra_1_1detail_1_1_bound_flag_ref.html" target="_top" xlink:title=" ">
<polygon fill="white" stroke="black" points="562.5,-137 562.5,-156 705.5,-156 705.5,-137 562.5,-137"/>
<text text-anchor="middle" x="634" y="-144" font-family="Helvetica,sans-Serif" font-size="10.00">lyra::detail::BoundFlagRef</text>
</a>
</g>
</g>
<!-- Node2&#45;&gt;Node4 -->
<g id="edge4" class="edge">
<title>Node2&#45;&gt;Node4</title>
<path fill="none" stroke="midnightblue" d="M511.14,-146.5C528.28,-146.5 545.93,-146.5 562.28,-146.5"/>
<polygon fill="midnightblue" stroke="midnightblue" points="511.12,-143 501.12,-146.5 511.12,-150 511.12,-143"/>
</g>
<!-- Node6 -->
<g id="node7" class="node">
<title>Node6</title>
<g id="a_node7"><a xlink:href="structlyra_1_1detail_1_1_bound_lambda.html" target="_top" xlink:title=" ">
<polygon fill="white" stroke="black" points="547.5,-99 547.5,-118 720.5,-118 720.5,-99 547.5,-99"/>
<text text-anchor="middle" x="634" y="-106" font-family="Helvetica,sans-Serif" font-size="10.00">lyra::detail::BoundLambda&lt; L &gt;</text>
</a>
</g>
</g>
<!-- Node5&#45;&gt;Node6 -->
<g id="edge6" class="edge">
<title>Node5&#45;&gt;Node6</title>
<path fill="none" stroke="midnightblue" d="M494.64,-92.37C512.98,-94.51 532.64,-96.8 551.22,-98.97"/>
<polygon fill="midnightblue" stroke="midnightblue" points="494.95,-88.89 484.61,-91.2 494.13,-95.84 494.95,-88.89"/>
</g>
<!-- Node7 -->
<g id="node8" class="node">
<title>Node7</title>
<g id="a_node8"><a xlink:href="structlyra_1_1detail_1_1_bound_value_ref.html" target="_top" xlink:title=" ">
<polygon fill="white" stroke="black" points="567,-49.5 567,-79.5 701,-79.5 701,-49.5 567,-49.5"/>
<text text-anchor="start" x="575" y="-67.5" font-family="Helvetica,sans-Serif" font-size="10.00">lyra::detail::BoundValue</text>
<text text-anchor="middle" x="634" y="-56.5" font-family="Helvetica,sans-Serif" font-size="10.00">Ref&lt; T &gt;</text>
</a>
</g>
</g>
<!-- Node5&#45;&gt;Node7 -->
<g id="edge7" class="edge">
<title>Node5&#45;&gt;Node7</title>
<path fill="none" stroke="midnightblue" d="M494.87,-76.73C518.36,-74.65 544,-72.38 566.74,-70.37"/>
<polygon fill="midnightblue" stroke="midnightblue" points="494.26,-73.28 484.61,-77.64 494.88,-80.25 494.26,-73.28"/>
</g>
<!-- Node9 -->
<g id="node10" class="node">
<title>Node9</title>
<g id="a_node10"><a xlink:href="structlyra_1_1detail_1_1_bound_value_ref_3_01std_1_1vector_3_01_t_01_4_01_4.html" target="_top" xlink:title=" ">
<polygon fill="white" stroke="black" points="566,-0.5 566,-30.5 702,-30.5 702,-0.5 566,-0.5"/>
<text text-anchor="start" x="574" y="-18.5" font-family="Helvetica,sans-Serif" font-size="10.00">lyra::detail::BoundValue</text>
<text text-anchor="middle" x="634" y="-7.5" font-family="Helvetica,sans-Serif" font-size="10.00">Ref&lt; std::vector&lt; T &gt; &gt;</text>
</a>
</g>
</g>
<!-- Node5&#45;&gt;Node9 -->
<g id="edge9" class="edge">
<title>Node5&#45;&gt;Node9</title>
<path fill="none" stroke="midnightblue" d="M466.66,-64.87C488.05,-56.9 513.62,-47.77 537,-40.5 548.18,-37.02 560.2,-33.63 571.82,-30.52"/>
<polygon fill="midnightblue" stroke="midnightblue" points="465.28,-61.65 457.15,-68.44 467.74,-68.2 465.28,-61.65"/>
</g>
<!-- Node8 -->
<g id="node9" class="node">
<title>Node8</title>
<g id="a_node9"><a xlink:href="structlyra_1_1detail_1_1_bound_val.html" target="_top" xlink:title=" ">
<polygon fill="white" stroke="black" points="767,-55 767,-74 917,-74 917,-55 767,-55"/>
<text text-anchor="middle" x="842" y="-62" font-family="Helvetica,sans-Serif" font-size="10.00">lyra::detail::BoundVal&lt; T &gt;</text>
</a>
</g>
</g>
<!-- Node7&#45;&gt;Node8 -->
<g id="edge8" class="edge">
<title>Node7&#45;&gt;Node8</title>
<path fill="none" stroke="midnightblue" d="M711.26,-64.5C729.39,-64.5 748.72,-64.5 766.76,-64.5"/>
<polygon fill="midnightblue" stroke="midnightblue" points="711.03,-61 701.03,-64.5 711.03,-68 711.03,-61"/>
</g>
</g>
</svg>
