<?xml version="1.0" encoding="UTF-8" standalone="no"?>
<!DOCTYPE svg PUBLIC "-//W3C//DTD SVG 1.1//EN"
 "http://www.w3.org/Graphics/SVG/1.1/DTD/svg11.dtd">
<!-- Generated by graphviz version 2.43.0 (0)
 -->
<!-- Title: Lyra/include/lyra/detail/invoke_lambda.hpp Pages: 1 -->
<svg width="1011pt" height="576pt"
 viewBox="0.00 0.00 1011.00 576.00" xmlns="http://www.w3.org/2000/svg" xmlns:xlink="http://www.w3.org/1999/xlink">
<g id="graph0" class="graph" transform="scale(1 1) rotate(0) translate(4 572)">
<title>Lyra/include/lyra/detail/invoke_lambda.hpp</title>
<polygon fill="white" stroke="transparent" points="-4,4 -4,-572 1007,-572 1007,4 -4,4"/>
<!-- Node1 -->
<g id="node1" class="node">
<title>Node1</title>
<g id="a_node1"><a xlink:title=" ">
<polygon fill="#bfbfbf" stroke="black" points="458,-537.5 458,-567.5 586,-567.5 586,-537.5 458,-537.5"/>
<text text-anchor="start" x="466" y="-555.5" font-family="Helvetica,sans-Serif" font-size="10.00">Lyra/include/lyra/detail</text>
<text text-anchor="middle" x="522" y="-544.5" font-family="Helvetica,sans-Serif" font-size="10.00">/invoke_lambda.hpp</text>
</a>
</g>
</g>
<!-- Node2 -->
<g id="node2" class="node">
<title>Node2</title>
<g id="a_node2"><a xlink:href="bound_8hpp.html" target="_top" xlink:title=" ">
<polygon fill="white" stroke="black" points="458,-470.5 458,-500.5 586,-500.5 586,-470.5 458,-470.5"/>
<text text-anchor="start" x="466" y="-488.5" font-family="Helvetica,sans-Serif" font-size="10.00">Lyra/include/lyra/detail</text>
<text text-anchor="middle" x="522" y="-477.5" font-family="Helvetica,sans-Serif" font-size="10.00">/bound.hpp</text>
</a>
</g>
</g>
<!-- Node1&#45;&gt;Node2 -->
<g id="edge1" class="edge">
<title>Node1&#45;&gt;Node2</title>
<path fill="none" stroke="midnightblue" d="M522,-527.11C522,-518.15 522,-508.32 522,-500.58"/>
<polygon fill="midnightblue" stroke="midnightblue" points="518.5,-527.4 522,-537.4 525.5,-527.4 518.5,-527.4"/>
</g>
<!-- Node3 -->
<g id="node3" class="node">
<title>Node3</title>
<g id="a_node3"><a xlink:href="exe__name_8hpp.html" target="_top" xlink:title=" ">
<polygon fill="white" stroke="black" points="0,-291.5 0,-321.5 118,-321.5 118,-291.5 0,-291.5"/>
<text text-anchor="start" x="8" y="-309.5" font-family="Helvetica,sans-Serif" font-size="10.00">Lyra/include/lyra/exe</text>
<text text-anchor="middle" x="59" y="-298.5" font-family="Helvetica,sans-Serif" font-size="10.00">_name.hpp</text>
</a>
</g>
</g>
<!-- Node2&#45;&gt;Node3 -->
<g id="edge2" class="edge">
<title>Node2&#45;&gt;Node3</title>
<path fill="none" stroke="midnightblue" d="M475.68,-466.79C383.61,-431.59 179.3,-353.49 95.72,-321.54"/>
<polygon fill="midnightblue" stroke="midnightblue" points="474.69,-470.16 485.28,-470.46 477.19,-463.62 474.69,-470.16"/>
</g>
<!-- Node11 -->
<g id="node11" class="node">
<title>Node11</title>
<g id="a_node11"><a xlink:href="parser_8hpp.html" target="_top" xlink:title=" ">
<polygon fill="white" stroke="black" points="446,-358.5 446,-377.5 598,-377.5 598,-358.5 446,-358.5"/>
<text text-anchor="middle" x="522" y="-365.5" font-family="Helvetica,sans-Serif" font-size="10.00">Lyra/include/lyra/parser.hpp</text>
</a>
</g>
</g>
<!-- Node2&#45;&gt;Node11 -->
<g id="edge18" class="edge">
<title>Node2&#45;&gt;Node11</title>
<path fill="none" stroke="midnightblue" d="M522,-460.21C522,-434.41 522,-394.99 522,-377.67"/>
<polygon fill="midnightblue" stroke="midnightblue" points="518.5,-460.34 522,-470.34 525.5,-460.34 518.5,-460.34"/>
</g>
<!-- Node16 -->
<g id="node16" class="node">
<title>Node16</title>
<g id="a_node16"><a xlink:href="val_8hpp.html" target="_top" xlink:title=" ">
<polygon fill="white" stroke="black" points="661,-414.5 661,-433.5 797,-433.5 797,-414.5 661,-414.5"/>
<text text-anchor="middle" x="729" y="-421.5" font-family="Helvetica,sans-Serif" font-size="10.00">Lyra/include/lyra/val.hpp</text>
</a>
</g>
</g>
<!-- Node2&#45;&gt;Node16 -->
<g id="edge35" class="edge">
<title>Node2&#45;&gt;Node16</title>
<path fill="none" stroke="midnightblue" d="M580.41,-467.71C619.2,-456.56 668.5,-442.39 699.41,-433.51"/>
<polygon fill="midnightblue" stroke="midnightblue" points="579.44,-464.35 570.79,-470.47 581.37,-471.08 579.44,-464.35"/>
</g>
<!-- Node4 -->
<g id="node4" class="node">
<title>Node4</title>
<g id="a_node4"><a xlink:href="arguments_8hpp.html" target="_top" xlink:title=" ">
<polygon fill="white" stroke="black" points="149.5,-235.5 149.5,-254.5 322.5,-254.5 322.5,-235.5 149.5,-235.5"/>
<text text-anchor="middle" x="236" y="-242.5" font-family="Helvetica,sans-Serif" font-size="10.00">Lyra/include/lyra/arguments.hpp</text>
</a>
</g>
</g>
<!-- Node3&#45;&gt;Node4 -->
<g id="edge3" class="edge">
<title>Node3&#45;&gt;Node4</title>
<path fill="none" stroke="midnightblue" d="M110.83,-288.08C143.62,-277.05 184.56,-263.29 210.5,-254.57"/>
<polygon fill="midnightblue" stroke="midnightblue" points="109.31,-284.9 100.95,-291.4 111.54,-291.53 109.31,-284.9"/>
</g>
<!-- Node5 -->
<g id="node5" class="node">
<title>Node5</title>
<g id="a_node5"><a xlink:href="cli_8hpp.html" target="_top" xlink:title=" ">
<polygon fill="white" stroke="black" points="111,-123.5 111,-142.5 243,-142.5 243,-123.5 111,-123.5"/>
<text text-anchor="middle" x="177" y="-130.5" font-family="Helvetica,sans-Serif" font-size="10.00">Lyra/include/lyra/cli.hpp</text>
</a>
</g>
</g>
<!-- Node3&#45;&gt;Node5 -->
<g id="edge16" class="edge">
<title>Node3&#45;&gt;Node5</title>
<path fill="none" stroke="midnightblue" d="M74.47,-283.02C100.88,-244.63 153.51,-168.14 171.11,-142.56"/>
<polygon fill="midnightblue" stroke="midnightblue" points="71.44,-281.24 68.66,-291.47 77.21,-285.21 71.44,-281.24"/>
</g>
<!-- Node7 -->
<g id="node7" class="node">
<title>Node7</title>
<g id="a_node7"><a xlink:href="include_2lyra_2lyra_8hpp.html" target="_top" xlink:title=" ">
<polygon fill="white" stroke="black" points="314,-0.5 314,-19.5 454,-19.5 454,-0.5 314,-0.5"/>
<text text-anchor="middle" x="384" y="-7.5" font-family="Helvetica,sans-Serif" font-size="10.00">Lyra/include/lyra/lyra.hpp</text>
</a>
</g>
</g>
<!-- Node3&#45;&gt;Node7 -->
<g id="edge17" class="edge">
<title>Node3&#45;&gt;Node7</title>
<path fill="none" stroke="midnightblue" d="M42.03,-283.04C26.86,-260.69 7,-224.79 7,-190 7,-190 7,-190 7,-132 7,-96.58 3.81,-78.71 31,-56 72.67,-21.2 223.5,-12.97 313.97,-11.23"/>
<polygon fill="midnightblue" stroke="midnightblue" points="39.35,-285.31 47.97,-291.47 45.07,-281.28 39.35,-285.31"/>
</g>
<!-- Node4&#45;&gt;Node5 -->
<g id="edge4" class="edge">
<title>Node4&#45;&gt;Node5</title>
<path fill="none" stroke="midnightblue" d="M216.8,-228.71C208,-220.74 198.18,-210.3 192,-199 181.89,-180.51 178.57,-155.46 177.5,-142.52"/>
<polygon fill="midnightblue" stroke="midnightblue" points="214.59,-231.43 224.46,-235.29 219.15,-226.12 214.59,-231.43"/>
</g>
<!-- Node4&#45;&gt;Node7 -->
<g id="edge15" class="edge">
<title>Node4&#45;&gt;Node7</title>
<path fill="none" stroke="midnightblue" d="M205.33,-231.08C172.88,-215.52 123.44,-186 102,-143 93.26,-125.46 75.18,-88.15 103,-56 129.8,-25.04 239.69,-15.31 313.84,-12.29"/>
<polygon fill="midnightblue" stroke="midnightblue" points="204.27,-234.44 214.81,-235.46 207.2,-228.08 204.27,-234.44"/>
</g>
<!-- Node9 -->
<g id="node9" class="node">
<title>Node9</title>
<g id="a_node9"><a xlink:href="group_8hpp.html" target="_top" xlink:title=" ">
<polygon fill="white" stroke="black" points="200.5,-179.5 200.5,-198.5 349.5,-198.5 349.5,-179.5 200.5,-179.5"/>
<text text-anchor="middle" x="275" y="-186.5" font-family="Helvetica,sans-Serif" font-size="10.00">Lyra/include/lyra/group.hpp</text>
</a>
</g>
</g>
<!-- Node4&#45;&gt;Node9 -->
<g id="edge10" class="edge">
<title>Node4&#45;&gt;Node9</title>
<path fill="none" stroke="midnightblue" d="M248.38,-226.86C255.14,-217.5 263.21,-206.33 268.68,-198.75"/>
<polygon fill="midnightblue" stroke="midnightblue" points="245.46,-224.93 242.44,-235.08 251.13,-229.03 245.46,-224.93"/>
</g>
<!-- Node6 -->
<g id="node6" class="node">
<title>Node6</title>
<g id="a_node6"><a xlink:href="cli__parser_8hpp.html" target="_top" xlink:title=" ">
<polygon fill="white" stroke="black" points="111.5,-56.5 111.5,-86.5 222.5,-86.5 222.5,-56.5 111.5,-56.5"/>
<text text-anchor="start" x="119.5" y="-74.5" font-family="Helvetica,sans-Serif" font-size="10.00">Lyra/include/lyra/cli</text>
<text text-anchor="middle" x="167" y="-63.5" font-family="Helvetica,sans-Serif" font-size="10.00">_parser.hpp</text>
</a>
</g>
</g>
<!-- Node5&#45;&gt;Node6 -->
<g id="edge5" class="edge">
<title>Node5&#45;&gt;Node6</title>
<path fill="none" stroke="midnightblue" d="M173.9,-113.53C172.43,-104.81 170.71,-94.59 169.36,-86.52"/>
<polygon fill="midnightblue" stroke="midnightblue" points="170.46,-114.19 175.57,-123.48 177.36,-113.03 170.46,-114.19"/>
</g>
<!-- Node5&#45;&gt;Node7 -->
<g id="edge7" class="edge">
<title>Node5&#45;&gt;Node7</title>
<path fill="none" stroke="midnightblue" d="M195.15,-116.98C218.69,-97.66 258.66,-65.48 275,-56 301.92,-40.39 335.3,-27.45 357.98,-19.52"/>
<polygon fill="midnightblue" stroke="midnightblue" points="192.79,-114.39 187.29,-123.45 197.24,-119.79 192.79,-114.39"/>
</g>
<!-- Node8 -->
<g id="node8" class="node">
<title>Node8</title>
<g id="a_node8"><a xlink:href="main_8hpp.html" target="_top" xlink:title=" ">
<polygon fill="white" stroke="black" points="665,-62 665,-81 811,-81 811,-62 665,-62"/>
<text text-anchor="middle" x="738" y="-69" font-family="Helvetica,sans-Serif" font-size="10.00">Lyra/include/lyra/main.hpp</text>
</a>
</g>
</g>
<!-- Node5&#45;&gt;Node8 -->
<g id="edge8" class="edge">
<title>Node5&#45;&gt;Node8</title>
<path fill="none" stroke="midnightblue" d="M253.19,-123.92C361.37,-112.45 558.14,-91.58 664.71,-80.27"/>
<polygon fill="midnightblue" stroke="midnightblue" points="252.58,-120.46 243,-125 253.32,-127.43 252.58,-120.46"/>
</g>
<!-- Node6&#45;&gt;Node7 -->
<g id="edge6" class="edge">
<title>Node6&#45;&gt;Node7</title>
<path fill="none" stroke="midnightblue" d="M227.98,-53.78C268.68,-42.62 320.51,-28.41 352.98,-19.51"/>
<polygon fill="midnightblue" stroke="midnightblue" points="226.87,-50.45 218.15,-56.47 228.72,-57.21 226.87,-50.45"/>
</g>
<!-- Node8&#45;&gt;Node7 -->
<g id="edge9" class="edge">
<title>Node8&#45;&gt;Node7</title>
<path fill="none" stroke="midnightblue" d="M677.07,-60.26C608.57,-48.75 498.59,-30.26 434.63,-19.51"/>
<polygon fill="midnightblue" stroke="midnightblue" points="676.84,-63.77 687.28,-61.98 678,-56.87 676.84,-63.77"/>
</g>
<!-- Node9&#45;&gt;Node5 -->
<g id="edge11" class="edge">
<title>Node9&#45;&gt;Node5</title>
<path fill="none" stroke="midnightblue" d="M250.41,-174.45C232.32,-164.48 208.27,-151.23 192.71,-142.65"/>
<polygon fill="midnightblue" stroke="midnightblue" points="248.81,-177.56 259.25,-179.32 252.19,-171.43 248.81,-177.56"/>
</g>
<!-- Node9&#45;&gt;Node7 -->
<g id="edge14" class="edge">
<title>Node9&#45;&gt;Node7</title>
<path fill="none" stroke="midnightblue" d="M276.97,-169.17C278.92,-155.75 282.73,-137.58 290,-123 312.09,-78.7 355.07,-36.9 374.29,-19.5"/>
<polygon fill="midnightblue" stroke="midnightblue" points="273.49,-168.79 275.72,-179.15 280.43,-169.66 273.49,-168.79"/>
</g>
<!-- Node10 -->
<g id="node10" class="node">
<title>Node10</title>
<g id="a_node10"><a xlink:href="command_8hpp.html" target="_top" xlink:title=" ">
<polygon fill="white" stroke="black" points="299,-123.5 299,-142.5 469,-142.5 469,-123.5 299,-123.5"/>
<text text-anchor="middle" x="384" y="-130.5" font-family="Helvetica,sans-Serif" font-size="10.00">Lyra/include/lyra/command.hpp</text>
</a>
</g>
</g>
<!-- Node9&#45;&gt;Node10 -->
<g id="edge12" class="edge">
<title>Node9&#45;&gt;Node10</title>
<path fill="none" stroke="midnightblue" d="M301.52,-174.86C321.73,-164.85 348.99,-151.35 366.53,-142.65"/>
<polygon fill="midnightblue" stroke="midnightblue" points="299.92,-171.75 292.51,-179.32 303.03,-178.02 299.92,-171.75"/>
</g>
<!-- Node10&#45;&gt;Node7 -->
<g id="edge13" class="edge">
<title>Node10&#45;&gt;Node7</title>
<path fill="none" stroke="midnightblue" d="M384,-112.99C384,-86.35 384,-39 384,-19.62"/>
<polygon fill="midnightblue" stroke="midnightblue" points="380.5,-113.3 384,-123.3 387.5,-113.3 380.5,-113.3"/>
</g>
<!-- Node11&#45;&gt;Node3 -->
<g id="edge23" class="edge">
<title>Node11&#45;&gt;Node3</title>
<path fill="none" stroke="midnightblue" d="M435.48,-359.05C356.27,-351.29 235.91,-338.29 132,-322 127.53,-321.3 122.92,-320.52 118.29,-319.7"/>
<polygon fill="midnightblue" stroke="midnightblue" points="435.6,-362.58 445.89,-360.06 436.28,-355.61 435.6,-362.58"/>
</g>
<!-- Node11&#45;&gt;Node4 -->
<g id="edge22" class="edge">
<title>Node11&#45;&gt;Node4</title>
<path fill="none" stroke="midnightblue" d="M492.54,-354.53C434.43,-329.95 306.37,-275.77 256.47,-254.66"/>
<polygon fill="midnightblue" stroke="midnightblue" points="491.32,-357.82 501.89,-358.49 494.04,-351.37 491.32,-357.82"/>
</g>
<!-- Node11&#45;&gt;Node7 -->
<g id="edge27" class="edge">
<title>Node11&#45;&gt;Node7</title>
<path fill="none" stroke="midnightblue" d="M435.61,-362.7C350.86,-354.1 222.77,-328.79 141,-255 100.39,-218.36 103.96,-195.88 90,-143 80.11,-105.55 59.73,-85.35 85,-56 113.94,-22.38 234.97,-13.54 313.9,-11.41"/>
<polygon fill="midnightblue" stroke="midnightblue" points="435.44,-366.2 445.73,-363.67 436.1,-359.23 435.44,-366.2"/>
</g>
<!-- Node11&#45;&gt;Node8 -->
<g id="edge28" class="edge">
<title>Node11&#45;&gt;Node8</title>
<path fill="none" stroke="midnightblue" d="M538.87,-351.14C568.54,-322.66 630.89,-260.1 673,-199 687.71,-177.65 722.03,-106.2 733.88,-81.22"/>
<polygon fill="midnightblue" stroke="midnightblue" points="536.24,-348.81 531.42,-358.24 541.07,-353.88 536.24,-348.81"/>
</g>
<!-- Node12 -->
<g id="node12" class="node">
<title>Node12</title>
<g id="a_node12"><a xlink:href="arg_8hpp.html" target="_top" xlink:title=" ">
<polygon fill="white" stroke="black" points="487.5,-123.5 487.5,-142.5 624.5,-142.5 624.5,-123.5 487.5,-123.5"/>
<text text-anchor="middle" x="556" y="-130.5" font-family="Helvetica,sans-Serif" font-size="10.00">Lyra/include/lyra/arg.hpp</text>
</a>
</g>
</g>
<!-- Node11&#45;&gt;Node12 -->
<g id="edge19" class="edge">
<title>Node11&#45;&gt;Node12</title>
<path fill="none" stroke="midnightblue" d="M514.74,-348.51C502.25,-313.64 480.39,-236.51 506,-179 513.13,-163 529.07,-150.3 541.05,-142.53"/>
<polygon fill="midnightblue" stroke="midnightblue" points="511.61,-350.13 518.39,-358.26 518.17,-347.67 511.61,-350.13"/>
</g>
<!-- Node13 -->
<g id="node13" class="node">
<title>Node13</title>
<g id="a_node13"><a xlink:href="literal_8hpp.html" target="_top" xlink:title=" ">
<polygon fill="white" stroke="black" points="514.5,-179.5 514.5,-198.5 663.5,-198.5 663.5,-179.5 514.5,-179.5"/>
<text text-anchor="middle" x="589" y="-186.5" font-family="Helvetica,sans-Serif" font-size="10.00">Lyra/include/lyra/literal.hpp</text>
</a>
</g>
</g>
<!-- Node11&#45;&gt;Node13 -->
<g id="edge24" class="edge">
<title>Node11&#45;&gt;Node13</title>
<path fill="none" stroke="midnightblue" d="M528.88,-348.84C543.08,-311.32 575.19,-226.48 585.64,-198.87"/>
<polygon fill="midnightblue" stroke="midnightblue" points="525.5,-347.87 525.23,-358.46 532.05,-350.35 525.5,-347.87"/>
</g>
<!-- Node14 -->
<g id="node14" class="node">
<title>Node14</title>
<g id="a_node14"><a xlink:href="opt_8hpp.html" target="_top" xlink:title=" ">
<polygon fill="white" stroke="black" points="757.5,-179.5 757.5,-198.5 894.5,-198.5 894.5,-179.5 757.5,-179.5"/>
<text text-anchor="middle" x="826" y="-186.5" font-family="Helvetica,sans-Serif" font-size="10.00">Lyra/include/lyra/opt.hpp</text>
</a>
</g>
</g>
<!-- Node11&#45;&gt;Node14 -->
<g id="edge29" class="edge">
<title>Node11&#45;&gt;Node14</title>
<path fill="none" stroke="midnightblue" d="M574.14,-356.09C602.66,-348.84 637.98,-337.74 667,-322 732.28,-286.6 795.95,-222.14 817.93,-198.77"/>
<polygon fill="midnightblue" stroke="midnightblue" points="573.23,-352.71 564.35,-358.49 574.9,-359.5 573.23,-352.71"/>
</g>
<!-- Node12&#45;&gt;Node7 -->
<g id="edge20" class="edge">
<title>Node12&#45;&gt;Node7</title>
<path fill="none" stroke="midnightblue" d="M535.6,-117.65C499.54,-92.28 425.58,-40.25 396.31,-19.66"/>
<polygon fill="midnightblue" stroke="midnightblue" points="533.71,-120.6 543.91,-123.49 537.74,-114.88 533.71,-120.6"/>
</g>
<!-- Node12&#45;&gt;Node8 -->
<g id="edge21" class="edge">
<title>Node12&#45;&gt;Node8</title>
<path fill="none" stroke="midnightblue" d="M592,-120.23C627.37,-108.67 680.5,-91.3 711.97,-81.01"/>
<polygon fill="midnightblue" stroke="midnightblue" points="590.49,-117.04 582.08,-123.48 592.67,-123.69 590.49,-117.04"/>
</g>
<!-- Node13&#45;&gt;Node7 -->
<g id="edge26" class="edge">
<title>Node13&#45;&gt;Node7</title>
<path fill="none" stroke="midnightblue" d="M610.72,-173.31C627.25,-160.25 645.37,-140.56 634,-123 592.69,-59.23 505.59,-31.44 445.93,-19.55"/>
<polygon fill="midnightblue" stroke="midnightblue" points="608.34,-170.72 602.39,-179.49 612.51,-176.35 608.34,-170.72"/>
</g>
<!-- Node13&#45;&gt;Node10 -->
<g id="edge25" class="edge">
<title>Node13&#45;&gt;Node10</title>
<path fill="none" stroke="midnightblue" d="M546.59,-176.83C507.89,-166.63 451.51,-151.78 416.33,-142.52"/>
<polygon fill="midnightblue" stroke="midnightblue" points="545.96,-180.28 556.52,-179.44 547.74,-173.51 545.96,-180.28"/>
</g>
<!-- Node14&#45;&gt;Node7 -->
<g id="edge33" class="edge">
<title>Node14&#45;&gt;Node7</title>
<path fill="none" stroke="midnightblue" d="M898.18,-176.31C916.78,-169.67 934.72,-159.27 946,-143 986.16,-85.05 947.66,-92.28 847,-56 776.63,-30.64 565.65,-18.42 454.42,-13.6"/>
<polygon fill="midnightblue" stroke="midnightblue" points="896.87,-173.06 888.42,-179.45 899.01,-179.72 896.87,-173.06"/>
</g>
<!-- Node14&#45;&gt;Node8 -->
<g id="edge34" class="edge">
<title>Node14&#45;&gt;Node8</title>
<path fill="none" stroke="midnightblue" d="M810.66,-171.77C802.98,-163.4 793.71,-152.89 786,-143 769.43,-121.75 752.16,-95.08 743.56,-81.44"/>
<polygon fill="midnightblue" stroke="midnightblue" points="808.31,-174.38 817.68,-179.33 813.44,-169.62 808.31,-174.38"/>
</g>
<!-- Node15 -->
<g id="node15" class="node">
<title>Node15</title>
<g id="a_node15"><a xlink:href="help_8hpp.html" target="_top" xlink:title=" ">
<polygon fill="white" stroke="black" points="795,-123.5 795,-142.5 937,-142.5 937,-123.5 795,-123.5"/>
<text text-anchor="middle" x="866" y="-130.5" font-family="Helvetica,sans-Serif" font-size="10.00">Lyra/include/lyra/help.hpp</text>
</a>
</g>
</g>
<!-- Node14&#45;&gt;Node15 -->
<g id="edge30" class="edge">
<title>Node14&#45;&gt;Node15</title>
<path fill="none" stroke="midnightblue" d="M838.7,-170.86C845.63,-161.5 853.91,-150.33 859.52,-142.75"/>
<polygon fill="midnightblue" stroke="midnightblue" points="835.75,-168.96 832.61,-179.08 841.37,-173.13 835.75,-168.96"/>
</g>
<!-- Node15&#45;&gt;Node7 -->
<g id="edge31" class="edge">
<title>Node15&#45;&gt;Node7</title>
<path fill="none" stroke="midnightblue" d="M860.21,-113.44C853.56,-95.51 840.81,-69.19 820,-56 760.86,-18.54 561.5,-11.68 454.03,-10.79"/>
<polygon fill="midnightblue" stroke="midnightblue" points="856.96,-114.76 863.5,-123.1 863.59,-112.5 856.96,-114.76"/>
</g>
<!-- Node15&#45;&gt;Node8 -->
<g id="edge32" class="edge">
<title>Node15&#45;&gt;Node8</title>
<path fill="none" stroke="midnightblue" d="M838.41,-119.17C813.57,-107.63 777.77,-90.99 756.31,-81.01"/>
<polygon fill="midnightblue" stroke="midnightblue" points="837.12,-122.43 847.66,-123.48 840.07,-116.09 837.12,-122.43"/>
</g>
<!-- Node16&#45;&gt;Node7 -->
<g id="edge36" class="edge">
<title>Node16&#45;&gt;Node7</title>
<path fill="none" stroke="midnightblue" d="M807.28,-421.95C888.26,-416.22 1003,-393.02 1003,-307.5 1003,-307.5 1003,-307.5 1003,-132 1003,-21.2 616.17,-9.96 454.1,-10.12"/>
<polygon fill="midnightblue" stroke="midnightblue" points="806.84,-418.47 797.08,-422.59 807.28,-425.46 806.84,-418.47"/>
</g>
<!-- Node16&#45;&gt;Node8 -->
<g id="edge37" class="edge">
<title>Node16&#45;&gt;Node8</title>
<path fill="none" stroke="midnightblue" d="M729,-404.29C729,-381.45 729,-341.64 729,-307.5 729,-307.5 729,-307.5 729,-188 729,-147.98 734.44,-100.38 736.86,-81.18"/>
<polygon fill="midnightblue" stroke="midnightblue" points="725.5,-404.31 729,-414.31 732.5,-404.31 725.5,-404.31"/>
</g>
<!-- Node16&#45;&gt;Node11 -->
<g id="edge39" class="edge">
<title>Node16&#45;&gt;Node11</title>
<path fill="none" stroke="midnightblue" d="M686.18,-411.83C647.09,-401.63 590.17,-386.78 554.65,-377.52"/>
<polygon fill="midnightblue" stroke="midnightblue" points="685.64,-415.31 696.2,-414.44 687.41,-408.53 685.64,-415.31"/>
</g>
<!-- Node16&#45;&gt;Node14 -->
<g id="edge38" class="edge">
<title>Node16&#45;&gt;Node14</title>
<path fill="none" stroke="midnightblue" d="M736.51,-404.95C756.06,-358 807.98,-233.29 822.3,-198.9"/>
<polygon fill="midnightblue" stroke="midnightblue" points="733.18,-403.85 732.57,-414.43 739.64,-406.54 733.18,-403.85"/>
</g>
</g>
</svg>
