<?xml version="1.0" encoding="UTF-8" standalone="no"?>
<!DOCTYPE svg PUBLIC "-//W3C//DTD SVG 1.1//EN"
 "http://www.w3.org/Graphics/SVG/1.1/DTD/svg11.dtd">
<!-- Generated by graphviz version 2.43.0 (0)
 -->
<!-- Title: Lyra/include/lyra/detail/invoke_lambda.hpp Pages: 1 -->
<svg width="533pt" height="274pt"
 viewBox="0.00 0.00 532.50 274.00" xmlns="http://www.w3.org/2000/svg" xmlns:xlink="http://www.w3.org/1999/xlink">
<g id="graph0" class="graph" transform="scale(1 1) rotate(0) translate(4 270)">
<title>Lyra/include/lyra/detail/invoke_lambda.hpp</title>
<polygon fill="white" stroke="transparent" points="-4,4 -4,-270 528.5,-270 528.5,4 -4,4"/>
<!-- Node1 -->
<g id="node1" class="node">
<title>Node1</title>
<g id="a_node1"><a xlink:title=" ">
<polygon fill="#bfbfbf" stroke="black" points="322.5,-235.5 322.5,-265.5 450.5,-265.5 450.5,-235.5 322.5,-235.5"/>
<text text-anchor="start" x="330.5" y="-253.5" font-family="Helvetica,sans-Serif" font-size="10.00">Lyra/include/lyra/detail</text>
<text text-anchor="middle" x="386.5" y="-242.5" font-family="Helvetica,sans-Serif" font-size="10.00">/invoke_lambda.hpp</text>
</a>
</g>
</g>
<!-- Node2 -->
<g id="node2" class="node">
<title>Node2</title>
<g id="a_node2"><a xlink:href="parse_8hpp.html" target="_top" xlink:title=" ">
<polygon fill="white" stroke="black" points="283,-174 283,-193 400,-193 400,-174 283,-174"/>
<text text-anchor="middle" x="341.5" y="-181" font-family="Helvetica,sans-Serif" font-size="10.00">lyra/detail/parse.hpp</text>
</a>
</g>
</g>
<!-- Node1&#45;&gt;Node2 -->
<g id="edge1" class="edge">
<title>Node1&#45;&gt;Node2</title>
<path fill="none" stroke="midnightblue" d="M376.74,-235.4C369.86,-225.46 360.61,-212.11 353.32,-201.57"/>
<polygon fill="midnightblue" stroke="midnightblue" points="356.09,-199.42 347.52,-193.19 350.33,-203.41 356.09,-199.42"/>
</g>
<!-- Node9 -->
<g id="node9" class="node">
<title>Node9</title>
<g id="a_node9"><a xlink:href="parser__result_8hpp.html" target="_top" xlink:title=" ">
<polygon fill="white" stroke="black" points="369,-112.5 369,-131.5 492,-131.5 492,-112.5 369,-112.5"/>
<text text-anchor="middle" x="430.5" y="-119.5" font-family="Helvetica,sans-Serif" font-size="10.00">lyra/parser_result.hpp</text>
</a>
</g>
</g>
<!-- Node1&#45;&gt;Node9 -->
<g id="edge18" class="edge">
<title>Node1&#45;&gt;Node9</title>
<path fill="none" stroke="midnightblue" d="M393.36,-235.12C397.98,-225.12 404.02,-211.41 408.5,-199 415.48,-179.66 421.82,-156.96 425.88,-141.43"/>
<polygon fill="midnightblue" stroke="midnightblue" points="429.32,-142.1 428.41,-131.55 422.54,-140.37 429.32,-142.1"/>
</g>
<!-- Node10 -->
<g id="node10" class="node">
<title>Node10</title>
<g id="a_node10"><a xlink:href="result_8hpp.html" target="_top" xlink:title=" ">
<polygon fill="white" stroke="black" points="406.5,-56.5 406.5,-75.5 524.5,-75.5 524.5,-56.5 406.5,-56.5"/>
<text text-anchor="middle" x="465.5" y="-63.5" font-family="Helvetica,sans-Serif" font-size="10.00">lyra/detail/result.hpp</text>
</a>
</g>
</g>
<!-- Node1&#45;&gt;Node10 -->
<g id="edge15" class="edge">
<title>Node1&#45;&gt;Node10</title>
<path fill="none" stroke="midnightblue" d="M408.56,-235.21C436.36,-215.74 482.74,-177.99 501.5,-132 508.68,-114.39 495.66,-95.51 483.32,-82.66"/>
<polygon fill="midnightblue" stroke="midnightblue" points="485.53,-79.93 475.91,-75.5 480.67,-84.97 485.53,-79.93"/>
</g>
<!-- Node12 -->
<g id="node12" class="node">
<title>Node12</title>
<g id="a_node12"><a xlink:href="unary__lambda__traits_8hpp.html" target="_top" xlink:title=" ">
<polygon fill="white" stroke="black" points="27,-168.5 27,-198.5 166,-198.5 166,-168.5 27,-168.5"/>
<text text-anchor="start" x="35" y="-186.5" font-family="Helvetica,sans-Serif" font-size="10.00">lyra/detail/unary_lambda</text>
<text text-anchor="middle" x="96.5" y="-175.5" font-family="Helvetica,sans-Serif" font-size="10.00">_traits.hpp</text>
</a>
</g>
</g>
<!-- Node1&#45;&gt;Node12 -->
<g id="edge16" class="edge">
<title>Node1&#45;&gt;Node12</title>
<path fill="none" stroke="midnightblue" d="M323.93,-235.48C278.54,-225.3 217.01,-211.51 169.39,-200.84"/>
<polygon fill="midnightblue" stroke="midnightblue" points="169.98,-197.38 159.46,-198.61 168.45,-204.21 169.98,-197.38"/>
</g>
<!-- Node3 -->
<g id="node3" class="node">
<title>Node3</title>
<g id="a_node3"><a xlink:href="from__string_8hpp.html" target="_top" xlink:title=" ">
<polygon fill="white" stroke="black" points="166.5,-112.5 166.5,-131.5 312.5,-131.5 312.5,-112.5 166.5,-112.5"/>
<text text-anchor="middle" x="239.5" y="-119.5" font-family="Helvetica,sans-Serif" font-size="10.00">lyra/detail/from_string.hpp</text>
</a>
</g>
</g>
<!-- Node2&#45;&gt;Node3 -->
<g id="edge2" class="edge">
<title>Node2&#45;&gt;Node3</title>
<path fill="none" stroke="midnightblue" d="M326.89,-173.98C310.15,-164.21 282.5,-148.08 262.78,-136.58"/>
<polygon fill="midnightblue" stroke="midnightblue" points="264.49,-133.52 254.09,-131.51 260.96,-139.57 264.49,-133.52"/>
</g>
<!-- Node8 -->
<g id="node8" class="node">
<title>Node8</title>
<g id="a_node8"><a xlink:title=" ">
<polygon fill="white" stroke="#bfbfbf" points="337.5,-0.5 337.5,-19.5 381.5,-19.5 381.5,-0.5 337.5,-0.5"/>
<text text-anchor="middle" x="359.5" y="-7.5" font-family="Helvetica,sans-Serif" font-size="10.00">string</text>
</a>
</g>
</g>
<!-- Node2&#45;&gt;Node8 -->
<g id="edge14" class="edge">
<title>Node2&#45;&gt;Node8</title>
<path fill="none" stroke="midnightblue" d="M342.42,-173.76C345.21,-147.15 353.65,-66.71 357.52,-29.84"/>
<polygon fill="midnightblue" stroke="midnightblue" points="361.04,-29.83 358.61,-19.52 354.08,-29.1 361.04,-29.83"/>
</g>
<!-- Node2&#45;&gt;Node9 -->
<g id="edge9" class="edge">
<title>Node2&#45;&gt;Node9</title>
<path fill="none" stroke="midnightblue" d="M354.25,-173.98C368.53,-164.43 391.9,-148.81 409.01,-137.37"/>
<polygon fill="midnightblue" stroke="midnightblue" points="411.4,-139.98 417.77,-131.51 407.51,-134.16 411.4,-139.98"/>
</g>
<!-- Node4 -->
<g id="node4" class="node">
<title>Node4</title>
<g id="a_node4"><a xlink:href="trait__utils_8hpp.html" target="_top" xlink:title=" ">
<polygon fill="white" stroke="black" points="63,-56.5 63,-75.5 200,-75.5 200,-56.5 63,-56.5"/>
<text text-anchor="middle" x="131.5" y="-63.5" font-family="Helvetica,sans-Serif" font-size="10.00">lyra/detail/trait_utils.hpp</text>
</a>
</g>
</g>
<!-- Node3&#45;&gt;Node4 -->
<g id="edge3" class="edge">
<title>Node3&#45;&gt;Node4</title>
<path fill="none" stroke="midnightblue" d="M222.15,-112.32C204.83,-103.66 177.98,-90.24 158,-80.25"/>
<polygon fill="midnightblue" stroke="midnightblue" points="159.32,-77 148.81,-75.65 156.19,-83.26 159.32,-77"/>
</g>
<!-- Node5 -->
<g id="node5" class="node">
<title>Node5</title>
<g id="a_node5"><a xlink:title=" ">
<polygon fill="white" stroke="#bfbfbf" points="0,-0.5 0,-19.5 69,-19.5 69,-0.5 0,-0.5"/>
<text text-anchor="middle" x="34.5" y="-7.5" font-family="Helvetica,sans-Serif" font-size="10.00">type_traits</text>
</a>
</g>
</g>
<!-- Node3&#45;&gt;Node5 -->
<g id="edge8" class="edge">
<title>Node3&#45;&gt;Node5</title>
<path fill="none" stroke="midnightblue" d="M175.71,-112.49C129.08,-105.02 71.05,-92.74 53.5,-76 41.02,-64.09 36.6,-44.47 35.11,-29.9"/>
<polygon fill="midnightblue" stroke="midnightblue" points="38.57,-29.29 34.44,-19.54 31.59,-29.74 38.57,-29.29"/>
</g>
<!-- Node7 -->
<g id="node7" class="node">
<title>Node7</title>
<g id="a_node7"><a xlink:title=" ">
<polygon fill="white" stroke="#bfbfbf" points="218.5,-56.5 218.5,-75.5 274.5,-75.5 274.5,-56.5 218.5,-56.5"/>
<text text-anchor="middle" x="246.5" y="-63.5" font-family="Helvetica,sans-Serif" font-size="10.00">sstream</text>
</a>
</g>
</g>
<!-- Node3&#45;&gt;Node7 -->
<g id="edge6" class="edge">
<title>Node3&#45;&gt;Node7</title>
<path fill="none" stroke="midnightblue" d="M240.66,-112.08C241.58,-104.93 242.92,-94.64 244.08,-85.69"/>
<polygon fill="midnightblue" stroke="midnightblue" points="247.55,-86.12 245.37,-75.75 240.61,-85.22 247.55,-86.12"/>
</g>
<!-- Node3&#45;&gt;Node8 -->
<g id="edge7" class="edge">
<title>Node3&#45;&gt;Node8</title>
<path fill="none" stroke="midnightblue" d="M248.92,-112.37C269.16,-93.81 317.05,-49.91 342.66,-26.44"/>
<polygon fill="midnightblue" stroke="midnightblue" points="345.12,-28.93 350.13,-19.59 340.39,-23.77 345.12,-28.93"/>
</g>
<!-- Node4&#45;&gt;Node5 -->
<g id="edge4" class="edge">
<title>Node4&#45;&gt;Node5</title>
<path fill="none" stroke="midnightblue" d="M115.92,-56.32C100.5,-47.74 76.69,-34.49 58.79,-24.52"/>
<polygon fill="midnightblue" stroke="midnightblue" points="60.49,-21.46 50.05,-19.65 57.08,-27.58 60.49,-21.46"/>
</g>
<!-- Node6 -->
<g id="node6" class="node">
<title>Node6</title>
<g id="a_node6"><a xlink:title=" ">
<polygon fill="white" stroke="#bfbfbf" points="109,-0.5 109,-19.5 154,-19.5 154,-0.5 109,-0.5"/>
<text text-anchor="middle" x="131.5" y="-7.5" font-family="Helvetica,sans-Serif" font-size="10.00">utility</text>
</a>
</g>
</g>
<!-- Node4&#45;&gt;Node6 -->
<g id="edge5" class="edge">
<title>Node4&#45;&gt;Node6</title>
<path fill="none" stroke="midnightblue" d="M131.5,-56.08C131.5,-49.01 131.5,-38.86 131.5,-29.99"/>
<polygon fill="midnightblue" stroke="midnightblue" points="135,-29.75 131.5,-19.75 128,-29.75 135,-29.75"/>
</g>
<!-- Node9&#45;&gt;Node8 -->
<g id="edge13" class="edge">
<title>Node9&#45;&gt;Node8</title>
<path fill="none" stroke="midnightblue" d="M423.65,-112.23C416.77,-103.3 406.01,-88.96 397.5,-76 387.21,-60.33 376.52,-41.81 369.11,-28.56"/>
<polygon fill="midnightblue" stroke="midnightblue" points="372.05,-26.64 364.14,-19.58 365.93,-30.03 372.05,-26.64"/>
</g>
<!-- Node9&#45;&gt;Node10 -->
<g id="edge10" class="edge">
<title>Node9&#45;&gt;Node10</title>
<path fill="none" stroke="midnightblue" d="M436.28,-112.08C441.17,-104.53 448.33,-93.49 454.33,-84.23"/>
<polygon fill="midnightblue" stroke="midnightblue" points="457.33,-86.05 459.83,-75.75 451.45,-82.24 457.33,-86.05"/>
</g>
<!-- Node10&#45;&gt;Node8 -->
<g id="edge12" class="edge">
<title>Node10&#45;&gt;Node8</title>
<path fill="none" stroke="midnightblue" d="M448.47,-56.32C431.47,-47.66 405.12,-34.24 385.51,-24.25"/>
<polygon fill="midnightblue" stroke="midnightblue" points="386.99,-21.08 376.49,-19.65 383.81,-27.31 386.99,-21.08"/>
</g>
<!-- Node11 -->
<g id="node11" class="node">
<title>Node11</title>
<g id="a_node11"><a xlink:title=" ">
<polygon fill="white" stroke="#bfbfbf" points="436.5,-0.5 436.5,-19.5 494.5,-19.5 494.5,-0.5 436.5,-0.5"/>
<text text-anchor="middle" x="465.5" y="-7.5" font-family="Helvetica,sans-Serif" font-size="10.00">memory</text>
</a>
</g>
</g>
<!-- Node10&#45;&gt;Node11 -->
<g id="edge11" class="edge">
<title>Node10&#45;&gt;Node11</title>
<path fill="none" stroke="midnightblue" d="M465.5,-56.08C465.5,-49.01 465.5,-38.86 465.5,-29.99"/>
<polygon fill="midnightblue" stroke="midnightblue" points="469,-29.75 465.5,-19.75 462,-29.75 469,-29.75"/>
</g>
<!-- Node12&#45;&gt;Node5 -->
<g id="edge17" class="edge">
<title>Node12&#45;&gt;Node5</title>
<path fill="none" stroke="midnightblue" d="M85.79,-168.29C71.72,-148.71 47.64,-111.79 37.5,-76 33.21,-60.87 32.7,-42.97 33.13,-29.79"/>
<polygon fill="midnightblue" stroke="midnightblue" points="36.63,-29.78 33.67,-19.61 29.64,-29.41 36.63,-29.78"/>
</g>
</g>
</svg>
