<?xml version="1.0" encoding="UTF-8" standalone="no"?>
<!DOCTYPE svg PUBLIC "-//W3C//DTD SVG 1.1//EN"
 "http://www.w3.org/Graphics/SVG/1.1/DTD/svg11.dtd">
<!-- Generated by graphviz version 2.43.0 (0)
 -->
<!-- Title: logger/logger.cpp Pages: 1 -->
<svg width="373pt" height="252pt"
 viewBox="0.00 0.00 373.14 252.00" xmlns="http://www.w3.org/2000/svg" xmlns:xlink="http://www.w3.org/1999/xlink">
<g id="graph0" class="graph" transform="scale(1 1) rotate(0) translate(4 248)">
<title>logger/logger.cpp</title>
<polygon fill="white" stroke="transparent" points="-4,4 -4,-248 369.14,-248 369.14,4 -4,4"/>
<!-- Node1 -->
<g id="node1" class="node">
<title>Node1</title>
<g id="a_node1"><a xlink:title=" ">
<polygon fill="#bfbfbf" stroke="black" points="117.64,-224.5 117.64,-243.5 218.64,-243.5 218.64,-224.5 117.64,-224.5"/>
<text text-anchor="middle" x="168.14" y="-231.5" font-family="Helvetica,sans-Serif" font-size="10.00">logger/logger.cpp</text>
</a>
</g>
</g>
<!-- Node2 -->
<g id="node2" class="node">
<title>Node2</title>
<g id="a_node2"><a xlink:title=" ">
<polygon fill="white" stroke="#bfbfbf" points="75.14,-112.5 75.14,-131.5 121.14,-131.5 121.14,-112.5 75.14,-112.5"/>
<text text-anchor="middle" x="98.14" y="-119.5" font-family="Helvetica,sans-Serif" font-size="10.00">cstdio</text>
</a>
</g>
</g>
<!-- Node1&#45;&gt;Node2 -->
<g id="edge1" class="edge">
<title>Node1&#45;&gt;Node2</title>
<path fill="none" stroke="midnightblue" d="M117.24,-225.76C74.68,-218.53 18.79,-205.93 5.14,-188 -14.84,-161.75 31.12,-142.03 65.3,-131.53"/>
<polygon fill="midnightblue" stroke="midnightblue" points="66.39,-134.86 75,-128.69 64.42,-128.14 66.39,-134.86"/>
</g>
<!-- Node3 -->
<g id="node3" class="node">
<title>Node3</title>
<g id="a_node3"><a xlink:title=" ">
<polygon fill="white" stroke="#bfbfbf" points="14.64,-168.5 14.64,-187.5 67.64,-187.5 67.64,-168.5 14.64,-168.5"/>
<text text-anchor="middle" x="41.14" y="-175.5" font-family="Helvetica,sans-Serif" font-size="10.00">cstdarg</text>
</a>
</g>
</g>
<!-- Node1&#45;&gt;Node3 -->
<g id="edge2" class="edge">
<title>Node1&#45;&gt;Node3</title>
<path fill="none" stroke="midnightblue" d="M148.02,-224.44C127.12,-215.56 94.21,-201.56 70.43,-191.45"/>
<polygon fill="midnightblue" stroke="midnightblue" points="71.74,-188.21 61.17,-187.52 69.01,-194.65 71.74,-188.21"/>
</g>
<!-- Node4 -->
<g id="node4" class="node">
<title>Node4</title>
<g id="a_node4"><a xlink:title=" ">
<polygon fill="white" stroke="#bfbfbf" points="86.14,-168.5 86.14,-187.5 118.14,-187.5 118.14,-168.5 86.14,-168.5"/>
<text text-anchor="middle" x="102.14" y="-175.5" font-family="Helvetica,sans-Serif" font-size="10.00">list</text>
</a>
</g>
</g>
<!-- Node1&#45;&gt;Node4 -->
<g id="edge3" class="edge">
<title>Node1&#45;&gt;Node4</title>
<path fill="none" stroke="midnightblue" d="M157.54,-224.32C147.69,-216.26 132.79,-204.08 120.93,-194.37"/>
<polygon fill="midnightblue" stroke="midnightblue" points="122.9,-191.46 112.94,-187.83 118.46,-196.88 122.9,-191.46"/>
</g>
<!-- Node5 -->
<g id="node5" class="node">
<title>Node5</title>
<g id="a_node5"><a xlink:title=" ">
<polygon fill="white" stroke="#bfbfbf" points="307.14,-56.5 307.14,-75.5 365.14,-75.5 365.14,-56.5 307.14,-56.5"/>
<text text-anchor="middle" x="336.14" y="-63.5" font-family="Helvetica,sans-Serif" font-size="10.00">memory</text>
</a>
</g>
</g>
<!-- Node1&#45;&gt;Node5 -->
<g id="edge4" class="edge">
<title>Node1&#45;&gt;Node5</title>
<path fill="none" stroke="midnightblue" d="M218.86,-225.54C244.4,-219.38 274.11,-208.21 294.14,-188 322.1,-159.8 331.49,-112.06 334.61,-85.77"/>
<polygon fill="midnightblue" stroke="midnightblue" points="338.11,-85.94 335.63,-75.64 331.15,-85.24 338.11,-85.94"/>
</g>
<!-- Node6 -->
<g id="node6" class="node">
<title>Node6</title>
<g id="a_node6"><a xlink:title=" ">
<polygon fill="white" stroke="#bfbfbf" points="218.14,-168.5 218.14,-187.5 270.14,-187.5 270.14,-168.5 218.14,-168.5"/>
<text text-anchor="middle" x="244.14" y="-175.5" font-family="Helvetica,sans-Serif" font-size="10.00">cassert</text>
</a>
</g>
</g>
<!-- Node1&#45;&gt;Node6 -->
<g id="edge5" class="edge">
<title>Node1&#45;&gt;Node6</title>
<path fill="none" stroke="midnightblue" d="M180.35,-224.32C191.92,-216.11 209.52,-203.6 223.3,-193.81"/>
<polygon fill="midnightblue" stroke="midnightblue" points="225.59,-196.48 231.71,-187.83 221.53,-190.77 225.59,-196.48"/>
</g>
<!-- Node7 -->
<g id="node7" class="node">
<title>Node7</title>
<g id="a_node7"><a xlink:href="devices_8h.html" target="_top" xlink:title=" ">
<polygon fill="white" stroke="black" points="136.64,-168.5 136.64,-187.5 199.64,-187.5 199.64,-168.5 136.64,-168.5"/>
<text text-anchor="middle" x="168.14" y="-175.5" font-family="Helvetica,sans-Serif" font-size="10.00">devices.h</text>
</a>
</g>
</g>
<!-- Node1&#45;&gt;Node7 -->
<g id="edge6" class="edge">
<title>Node1&#45;&gt;Node7</title>
<path fill="none" stroke="midnightblue" d="M168.14,-224.08C168.14,-217.01 168.14,-206.86 168.14,-197.99"/>
<polygon fill="midnightblue" stroke="midnightblue" points="171.64,-197.75 168.14,-187.75 164.64,-197.75 171.64,-197.75"/>
</g>
<!-- Node8 -->
<g id="node8" class="node">
<title>Node8</title>
<g id="a_node8"><a xlink:href="logger_8h.html" target="_top" xlink:title=" ">
<polygon fill="white" stroke="black" points="217.14,-112.5 217.14,-131.5 273.14,-131.5 273.14,-112.5 217.14,-112.5"/>
<text text-anchor="middle" x="245.14" y="-119.5" font-family="Helvetica,sans-Serif" font-size="10.00">logger.h</text>
</a>
</g>
</g>
<!-- Node1&#45;&gt;Node8 -->
<g id="edge14" class="edge">
<title>Node1&#45;&gt;Node8</title>
<path fill="none" stroke="midnightblue" d="M218.76,-225.45C241.2,-219.31 265.55,-208.18 279.14,-188 289.85,-172.11 276.22,-152.44 263.17,-138.93"/>
<polygon fill="midnightblue" stroke="midnightblue" points="265.37,-136.18 255.74,-131.76 260.51,-141.22 265.37,-136.18"/>
</g>
<!-- Node7&#45;&gt;Node2 -->
<g id="edge7" class="edge">
<title>Node7&#45;&gt;Node2</title>
<path fill="none" stroke="midnightblue" d="M156.9,-168.32C146.35,-160.18 130.34,-147.84 117.7,-138.09"/>
<polygon fill="midnightblue" stroke="midnightblue" points="119.65,-135.17 109.59,-131.83 115.37,-140.71 119.65,-135.17"/>
</g>
<!-- Node7&#45;&gt;Node8 -->
<g id="edge8" class="edge">
<title>Node7&#45;&gt;Node8</title>
<path fill="none" stroke="midnightblue" d="M180.51,-168.32C192.3,-160.06 210.28,-147.45 224.28,-137.63"/>
<polygon fill="midnightblue" stroke="midnightblue" points="226.62,-140.26 232.8,-131.65 222.61,-134.53 226.62,-140.26"/>
</g>
<!-- Node8&#45;&gt;Node5 -->
<g id="edge10" class="edge">
<title>Node8&#45;&gt;Node5</title>
<path fill="none" stroke="midnightblue" d="M259.76,-112.32C274.09,-103.82 296.16,-90.73 312.89,-80.8"/>
<polygon fill="midnightblue" stroke="midnightblue" points="314.75,-83.77 321.56,-75.65 311.17,-77.75 314.75,-83.77"/>
</g>
<!-- Node9 -->
<g id="node9" class="node">
<title>Node9</title>
<g id="a_node9"><a xlink:title=" ">
<polygon fill="white" stroke="#bfbfbf" points="161.64,-0.5 161.64,-19.5 230.64,-19.5 230.64,-0.5 161.64,-0.5"/>
<text text-anchor="middle" x="196.14" y="-7.5" font-family="Helvetica,sans-Serif" font-size="10.00">type_traits</text>
</a>
</g>
</g>
<!-- Node8&#45;&gt;Node9 -->
<g id="edge9" class="edge">
<title>Node8&#45;&gt;Node9</title>
<path fill="none" stroke="midnightblue" d="M250.86,-112.11C258.43,-99.12 269.75,-74.5 260.14,-56 252.99,-42.23 239.47,-31.78 226.7,-24.44"/>
<polygon fill="midnightblue" stroke="midnightblue" points="228.1,-21.23 217.63,-19.64 224.83,-27.41 228.1,-21.23"/>
</g>
<!-- Node10 -->
<g id="node10" class="node">
<title>Node10</title>
<g id="a_node10"><a xlink:href="enum_8h.html" target="_top" xlink:title=" ">
<polygon fill="white" stroke="black" points="75.64,-56.5 75.64,-75.5 152.64,-75.5 152.64,-56.5 75.64,-56.5"/>
<text text-anchor="middle" x="114.14" y="-63.5" font-family="Helvetica,sans-Serif" font-size="10.00">utils/enum.h</text>
</a>
</g>
</g>
<!-- Node8&#45;&gt;Node10 -->
<g id="edge11" class="edge">
<title>Node8&#45;&gt;Node10</title>
<path fill="none" stroke="midnightblue" d="M224.39,-112.44C202.83,-103.56 168.88,-89.56 144.35,-79.45"/>
<polygon fill="midnightblue" stroke="midnightblue" points="145.38,-76.09 134.8,-75.52 142.72,-82.56 145.38,-76.09"/>
</g>
<!-- Node11 -->
<g id="node11" class="node">
<title>Node11</title>
<g id="a_node11"><a xlink:title=" ">
<polygon fill="white" stroke="#bfbfbf" points="171.14,-56.5 171.14,-75.5 251.14,-75.5 251.14,-56.5 171.14,-56.5"/>
<text text-anchor="middle" x="211.14" y="-63.5" font-family="Helvetica,sans-Serif" font-size="10.00">logger.levels</text>
</a>
</g>
</g>
<!-- Node8&#45;&gt;Node11 -->
<g id="edge13" class="edge">
<title>Node8&#45;&gt;Node11</title>
<path fill="none" stroke="midnightblue" d="M239.53,-112.08C234.78,-104.53 227.83,-93.49 221.99,-84.23"/>
<polygon fill="midnightblue" stroke="midnightblue" points="224.94,-82.35 216.65,-75.75 219.02,-86.08 224.94,-82.35"/>
</g>
<!-- Node10&#45;&gt;Node9 -->
<g id="edge12" class="edge">
<title>Node10&#45;&gt;Node9</title>
<path fill="none" stroke="midnightblue" d="M127.32,-56.32C139.99,-47.98 159.38,-35.21 174.35,-25.35"/>
<polygon fill="midnightblue" stroke="midnightblue" points="176.57,-28.08 183,-19.65 172.72,-22.23 176.57,-28.08"/>
</g>
</g>
</svg>
