<?xml version="1.0" encoding="UTF-8" standalone="no"?>
<!DOCTYPE svg PUBLIC "-//W3C//DTD SVG 1.1//EN"
 "http://www.w3.org/Graphics/SVG/1.1/DTD/svg11.dtd">
<!-- Generated by graphviz version 2.43.0 (0)
 -->
<!-- Title: logger/logger.h Pages: 1 -->
<svg width="273pt" height="140pt"
 viewBox="0.00 0.00 272.60 140.00" xmlns="http://www.w3.org/2000/svg" xmlns:xlink="http://www.w3.org/1999/xlink">
<g id="graph0" class="graph" transform="scale(1 1) rotate(0) translate(4 136)">
<title>logger/logger.h</title>
<polygon fill="white" stroke="transparent" points="-4,4 -4,-136 268.6,-136 268.6,4 -4,4"/>
<!-- Node1 -->
<g id="node1" class="node">
<title>Node1</title>
<g id="a_node1"><a xlink:title=" ">
<polygon fill="#bfbfbf" stroke="black" points="39.6,-112.5 39.6,-131.5 129.6,-131.5 129.6,-112.5 39.6,-112.5"/>
<text text-anchor="middle" x="84.6" y="-119.5" font-family="Helvetica,sans-Serif" font-size="10.00">logger/logger.h</text>
</a>
</g>
</g>
<!-- Node2 -->
<g id="node2" class="node">
<title>Node2</title>
<g id="a_node2"><a xlink:title=" ">
<polygon fill="white" stroke="#bfbfbf" points="21.1,-0.5 21.1,-19.5 90.1,-19.5 90.1,-0.5 21.1,-0.5"/>
<text text-anchor="middle" x="55.6" y="-7.5" font-family="Helvetica,sans-Serif" font-size="10.00">type_traits</text>
</a>
</g>
</g>
<!-- Node1&#45;&gt;Node2 -->
<g id="edge1" class="edge">
<title>Node1&#45;&gt;Node2</title>
<path fill="none" stroke="midnightblue" d="M53.57,-112.44C35.56,-105.69 14.37,-94.3 3.6,-76 -7.54,-57.08 12.86,-37.72 31.29,-25.11"/>
<polygon fill="midnightblue" stroke="midnightblue" points="33.24,-28.01 39.76,-19.65 29.45,-22.12 33.24,-28.01"/>
</g>
<!-- Node3 -->
<g id="node3" class="node">
<title>Node3</title>
<g id="a_node3"><a xlink:title=" ">
<polygon fill="white" stroke="#bfbfbf" points="12.6,-56.5 12.6,-75.5 70.6,-75.5 70.6,-56.5 12.6,-56.5"/>
<text text-anchor="middle" x="41.6" y="-63.5" font-family="Helvetica,sans-Serif" font-size="10.00">memory</text>
</a>
</g>
</g>
<!-- Node1&#45;&gt;Node3 -->
<g id="edge2" class="edge">
<title>Node1&#45;&gt;Node3</title>
<path fill="none" stroke="midnightblue" d="M77.5,-112.08C71.36,-104.38 62.33,-93.03 54.86,-83.65"/>
<polygon fill="midnightblue" stroke="midnightblue" points="57.53,-81.39 48.57,-75.75 52.06,-85.75 57.53,-81.39"/>
</g>
<!-- Node4 -->
<g id="node4" class="node">
<title>Node4</title>
<g id="a_node4"><a xlink:href="enum_8h.html" target="_top" xlink:title=" ">
<polygon fill="white" stroke="black" points="89.1,-56.5 89.1,-75.5 166.1,-75.5 166.1,-56.5 89.1,-56.5"/>
<text text-anchor="middle" x="127.6" y="-63.5" font-family="Helvetica,sans-Serif" font-size="10.00">utils/enum.h</text>
</a>
</g>
</g>
<!-- Node1&#45;&gt;Node4 -->
<g id="edge3" class="edge">
<title>Node1&#45;&gt;Node4</title>
<path fill="none" stroke="midnightblue" d="M91.7,-112.08C97.83,-104.38 106.87,-93.03 114.34,-83.65"/>
<polygon fill="midnightblue" stroke="midnightblue" points="117.14,-85.75 120.63,-75.75 111.66,-81.39 117.14,-85.75"/>
</g>
<!-- Node5 -->
<g id="node5" class="node">
<title>Node5</title>
<g id="a_node5"><a xlink:title=" ">
<polygon fill="white" stroke="#bfbfbf" points="184.6,-56.5 184.6,-75.5 264.6,-75.5 264.6,-56.5 184.6,-56.5"/>
<text text-anchor="middle" x="224.6" y="-63.5" font-family="Helvetica,sans-Serif" font-size="10.00">logger.levels</text>
</a>
</g>
</g>
<!-- Node1&#45;&gt;Node5 -->
<g id="edge5" class="edge">
<title>Node1&#45;&gt;Node5</title>
<path fill="none" stroke="midnightblue" d="M106.78,-112.44C130.03,-103.48 166.75,-89.31 193.01,-79.18"/>
<polygon fill="midnightblue" stroke="midnightblue" points="194.45,-82.38 202.52,-75.52 191.93,-75.85 194.45,-82.38"/>
</g>
<!-- Node4&#45;&gt;Node2 -->
<g id="edge4" class="edge">
<title>Node4&#45;&gt;Node2</title>
<path fill="none" stroke="midnightblue" d="M116.03,-56.32C105.18,-48.18 88.72,-35.84 75.71,-26.09"/>
<polygon fill="midnightblue" stroke="midnightblue" points="77.48,-23.03 67.38,-19.83 73.28,-28.63 77.48,-23.03"/>
</g>
</g>
</svg>
