<?xml version="1.0" encoding="UTF-8" standalone="no"?>
<!DOCTYPE svg PUBLIC "-//W3C//DTD SVG 1.1//EN"
 "http://www.w3.org/Graphics/SVG/1.1/DTD/svg11.dtd">
<!-- Generated by graphviz version 2.43.0 (0)
 -->
<!-- Title: logger/logger.h Pages: 1 -->
<svg width="1847pt" height="364pt"
 viewBox="0.00 0.00 1846.50 364.00" xmlns="http://www.w3.org/2000/svg" xmlns:xlink="http://www.w3.org/1999/xlink">
<g id="graph0" class="graph" transform="scale(1 1) rotate(0) translate(4 360)">
<title>logger/logger.h</title>
<polygon fill="white" stroke="transparent" points="-4,4 -4,-360 1842.5,-360 1842.5,4 -4,4"/>
<!-- Node1 -->
<g id="node1" class="node">
<title>Node1</title>
<g id="a_node1"><a xlink:title=" ">
<polygon fill="#bfbfbf" stroke="black" points="745,-336.5 745,-355.5 835,-355.5 835,-336.5 745,-336.5"/>
<text text-anchor="middle" x="790" y="-343.5" font-family="Helvetica,sans-Serif" font-size="10.00">logger/logger.h</text>
</a>
</g>
</g>
<!-- Node2 -->
<g id="node2" class="node">
<title>Node2</title>
<g id="a_node2"><a xlink:href="devices_8h.html" target="_top" xlink:title=" ">
<polygon fill="white" stroke="black" points="92.5,-280.5 92.5,-299.5 189.5,-299.5 189.5,-280.5 92.5,-280.5"/>
<text text-anchor="middle" x="141" y="-287.5" font-family="Helvetica,sans-Serif" font-size="10.00">logger/devices.h</text>
</a>
</g>
</g>
<!-- Node1&#45;&gt;Node2 -->
<g id="edge1" class="edge">
<title>Node1&#45;&gt;Node2</title>
<path fill="none" stroke="midnightblue" d="M734.41,-341.94C630.19,-335.94 398.4,-321.33 204,-300 199.39,-299.49 194.59,-298.91 189.8,-298.29"/>
<polygon fill="midnightblue" stroke="midnightblue" points="734.51,-345.45 744.69,-342.53 734.91,-338.47 734.51,-345.45"/>
</g>
<!-- Node4 -->
<g id="node4" class="node">
<title>Node4</title>
<g id="a_node4"><a xlink:href="logger_8cpp.html" target="_top" xlink:title=" ">
<polygon fill="white" stroke="black" points="126.5,-224.5 126.5,-243.5 227.5,-243.5 227.5,-224.5 126.5,-224.5"/>
<text text-anchor="middle" x="177" y="-231.5" font-family="Helvetica,sans-Serif" font-size="10.00">logger/logger.cpp</text>
</a>
</g>
</g>
<!-- Node1&#45;&gt;Node4 -->
<g id="edge4" class="edge">
<title>Node1&#45;&gt;Node4</title>
<path fill="none" stroke="midnightblue" d="M734.66,-345.24C613.46,-345 328.48,-340.05 242,-300 214.77,-287.39 192.48,-258.25 182.56,-243.65"/>
<polygon fill="midnightblue" stroke="midnightblue" points="734.83,-348.74 744.83,-345.25 734.83,-341.74 734.83,-348.74"/>
</g>
<!-- Node5 -->
<g id="node5" class="node">
<title>Node5</title>
<g id="a_node5"><a xlink:href="compress_8cpp.html" target="_top" xlink:title=" ">
<polygon fill="white" stroke="black" points="610,-112.5 610,-131.5 722,-131.5 722,-112.5 610,-112.5"/>
<text text-anchor="middle" x="666" y="-119.5" font-family="Helvetica,sans-Serif" font-size="10.00">main/compress.cpp</text>
</a>
</g>
</g>
<!-- Node1&#45;&gt;Node5 -->
<g id="edge5" class="edge">
<title>Node1&#45;&gt;Node5</title>
<path fill="none" stroke="midnightblue" d="M734.71,-344.27C637.61,-339.63 438.48,-314.33 351,-188 345.94,-180.69 345.18,-174.72 351,-168 383.85,-130.13 528.46,-123.34 609.84,-122.59"/>
<polygon fill="midnightblue" stroke="midnightblue" points="734.77,-347.78 744.91,-344.7 735.06,-340.79 734.77,-347.78"/>
</g>
<!-- Node6 -->
<g id="node6" class="node">
<title>Node6</title>
<g id="a_node6"><a xlink:href="dh2operator_8cpp.html" target="_top" xlink:title=" ">
<polygon fill="white" stroke="black" points="360,-168.5 360,-187.5 484,-187.5 484,-168.5 360,-168.5"/>
<text text-anchor="middle" x="422" y="-175.5" font-family="Helvetica,sans-Serif" font-size="10.00">main/dh2operator.cpp</text>
</a>
</g>
</g>
<!-- Node1&#45;&gt;Node6 -->
<g id="edge6" class="edge">
<title>Node1&#45;&gt;Node6</title>
<path fill="none" stroke="midnightblue" d="M761.64,-332.21C689.73,-299.77 501.71,-214.96 441.12,-187.62"/>
<polygon fill="midnightblue" stroke="midnightblue" points="760.43,-335.5 770.99,-336.42 763.31,-329.12 760.43,-335.5"/>
</g>
<!-- Node7 -->
<g id="node7" class="node">
<title>Node7</title>
<g id="a_node7"><a xlink:href="functions_8cpp.html" target="_top" xlink:title=" ">
<polygon fill="white" stroke="black" points="1367,-112.5 1367,-131.5 1477,-131.5 1477,-112.5 1367,-112.5"/>
<text text-anchor="middle" x="1422" y="-119.5" font-family="Helvetica,sans-Serif" font-size="10.00">main/functions.cpp</text>
</a>
</g>
</g>
<!-- Node1&#45;&gt;Node7 -->
<g id="edge7" class="edge">
<title>Node1&#45;&gt;Node7</title>
<path fill="none" stroke="midnightblue" d="M845.21,-344.83C991.97,-343.85 1383.57,-337.71 1427,-300 1472.02,-260.9 1467.84,-225.2 1451,-168 1446.85,-153.91 1436.78,-140.07 1429.67,-131.54"/>
<polygon fill="midnightblue" stroke="midnightblue" points="845.05,-341.33 835.07,-344.89 845.1,-348.33 845.05,-341.33"/>
</g>
<!-- Node8 -->
<g id="node8" class="node">
<title>Node8</title>
<g id="a_node8"><a xlink:href="linearalgebra_8h.html" target="_top" xlink:title=" ">
<polygon fill="white" stroke="black" points="1300,-280.5 1300,-299.5 1418,-299.5 1418,-280.5 1300,-280.5"/>
<text text-anchor="middle" x="1359" y="-287.5" font-family="Helvetica,sans-Serif" font-size="10.00">main/linearalgebra.h</text>
</a>
</g>
</g>
<!-- Node1&#45;&gt;Node8 -->
<g id="edge8" class="edge">
<title>Node1&#45;&gt;Node8</title>
<path fill="none" stroke="midnightblue" d="M845.11,-339.77C952.5,-329.58 1188.95,-307.14 1299.65,-296.63"/>
<polygon fill="midnightblue" stroke="midnightblue" points="844.75,-336.29 835.12,-340.72 845.41,-343.26 844.75,-336.29"/>
</g>
<!-- Node11 -->
<g id="node11" class="node">
<title>Node11</title>
<g id="a_node11"><a xlink:href="main_8cpp.html" target="_top" xlink:title=" ">
<polygon fill="white" stroke="black" points="705.5,-0.5 705.5,-19.5 794.5,-19.5 794.5,-0.5 705.5,-0.5"/>
<text text-anchor="middle" x="750" y="-7.5" font-family="Helvetica,sans-Serif" font-size="10.00">main/main.cpp</text>
</a>
</g>
</g>
<!-- Node1&#45;&gt;Node11 -->
<g id="edge27" class="edge">
<title>Node1&#45;&gt;Node11</title>
<path fill="none" stroke="midnightblue" d="M734.46,-344.09C627.41,-341.62 396.74,-332.56 325,-300 286.63,-282.59 256,-277.13 256,-235 256,-235 256,-235 256,-121 256,-29.4 583.69,-14.04 705.29,-11.5"/>
<polygon fill="midnightblue" stroke="midnightblue" points="734.66,-347.6 744.73,-344.32 734.81,-340.6 734.66,-347.6"/>
</g>
<!-- Node12 -->
<g id="node12" class="node">
<title>Node12</title>
<g id="a_node12"><a xlink:href="multisurface_8h.html" target="_top" xlink:title=" ">
<polygon fill="white" stroke="black" points="1291.5,-56.5 1291.5,-75.5 1406.5,-75.5 1406.5,-56.5 1291.5,-56.5"/>
<text text-anchor="middle" x="1349" y="-63.5" font-family="Helvetica,sans-Serif" font-size="10.00">main/multisurface.h</text>
</a>
</g>
</g>
<!-- Node1&#45;&gt;Node12 -->
<g id="edge30" class="edge">
<title>Node1&#45;&gt;Node12</title>
<path fill="none" stroke="midnightblue" d="M734.56,-344.31C605.14,-341.2 294,-324.42 294,-235 294,-235 294,-235 294,-177 294,-74.89 852.37,-97.65 1206,-76 1234.06,-74.28 1265.21,-72.33 1291.25,-70.68"/>
<polygon fill="midnightblue" stroke="midnightblue" points="734.59,-347.81 744.67,-344.53 734.75,-340.81 734.59,-347.81"/>
</g>
<!-- Node13 -->
<g id="node13" class="node">
<title>Node13</title>
<g id="a_node13"><a xlink:href="multisurface_8cpp.html" target="_top" xlink:title=" ">
<polygon fill="white" stroke="black" points="1365,-0.5 1365,-19.5 1491,-19.5 1491,-0.5 1365,-0.5"/>
<text text-anchor="middle" x="1428" y="-7.5" font-family="Helvetica,sans-Serif" font-size="10.00">main/multisurface.cpp</text>
</a>
</g>
</g>
<!-- Node1&#45;&gt;Node13 -->
<g id="edge29" class="edge">
<title>Node1&#45;&gt;Node13</title>
<path fill="none" stroke="midnightblue" d="M845.29,-344.18C999.31,-341.53 1431.01,-331.44 1569,-300 1643.04,-283.13 1727,-310.93 1727,-235 1727,-235 1727,-235 1727,-121 1727,-69.42 1568.31,-34.61 1482.15,-19.52"/>
<polygon fill="midnightblue" stroke="midnightblue" points="845.06,-340.69 835.12,-344.36 845.17,-347.69 845.06,-340.69"/>
</g>
<!-- Node15 -->
<g id="node15" class="node">
<title>Node15</title>
<g id="a_node15"><a xlink:href="surface_8cpp.html" target="_top" xlink:title=" ">
<polygon fill="white" stroke="black" points="1095.5,-56.5 1095.5,-75.5 1196.5,-75.5 1196.5,-56.5 1095.5,-56.5"/>
<text text-anchor="middle" x="1146" y="-63.5" font-family="Helvetica,sans-Serif" font-size="10.00">main/surface.cpp</text>
</a>
</g>
</g>
<!-- Node1&#45;&gt;Node15 -->
<g id="edge51" class="edge">
<title>Node1&#45;&gt;Node15</title>
<path fill="none" stroke="midnightblue" d="M845.29,-340.58C931.43,-330.37 1095.31,-296.9 1168,-188 1192.06,-151.95 1164.13,-96.99 1151.53,-75.78"/>
<polygon fill="midnightblue" stroke="midnightblue" points="844.73,-337.12 835.18,-341.71 845.51,-344.08 844.73,-337.12"/>
</g>
<!-- Node16 -->
<g id="node16" class="node">
<title>Node16</title>
<g id="a_node16"><a xlink:href="meshreader_8cpp.html" target="_top" xlink:title=" ">
<polygon fill="white" stroke="black" points="934.5,-168.5 934.5,-187.5 1057.5,-187.5 1057.5,-168.5 934.5,-168.5"/>
<text text-anchor="middle" x="996" y="-175.5" font-family="Helvetica,sans-Serif" font-size="10.00">main/meshreader.cpp</text>
</a>
</g>
</g>
<!-- Node1&#45;&gt;Node16 -->
<g id="edge28" class="edge">
<title>Node1&#45;&gt;Node16</title>
<path fill="none" stroke="midnightblue" d="M808.6,-330.01C850.69,-296.1 952.16,-214.32 985.32,-187.61"/>
<polygon fill="midnightblue" stroke="midnightblue" points="806.38,-327.31 800.79,-336.31 810.77,-332.76 806.38,-327.31"/>
</g>
<!-- Node18 -->
<g id="node18" class="node">
<title>Node18</title>
<g id="a_node18"><a xlink:href="options_8cpp.html" target="_top" xlink:title=" ">
<polygon fill="white" stroke="black" points="502.5,-168.5 502.5,-187.5 603.5,-187.5 603.5,-168.5 502.5,-168.5"/>
<text text-anchor="middle" x="553" y="-175.5" font-family="Helvetica,sans-Serif" font-size="10.00">main/options.cpp</text>
</a>
</g>
</g>
<!-- Node1&#45;&gt;Node18 -->
<g id="edge31" class="edge">
<title>Node1&#45;&gt;Node18</title>
<path fill="none" stroke="midnightblue" d="M769.21,-330.44C721.15,-296.78 603.59,-214.44 565.29,-187.61"/>
<polygon fill="midnightblue" stroke="midnightblue" points="767.39,-333.44 777.59,-336.31 771.41,-327.71 767.39,-333.44"/>
</g>
<!-- Node19 -->
<g id="node19" class="node">
<title>Node19</title>
<g id="a_node19"><a xlink:href="options_8h.html" target="_top" xlink:title=" ">
<polygon fill="white" stroke="black" points="745.5,-224.5 745.5,-243.5 834.5,-243.5 834.5,-224.5 745.5,-224.5"/>
<text text-anchor="middle" x="790" y="-231.5" font-family="Helvetica,sans-Serif" font-size="10.00">main/options.h</text>
</a>
</g>
</g>
<!-- Node1&#45;&gt;Node19 -->
<g id="edge32" class="edge">
<title>Node1&#45;&gt;Node19</title>
<path fill="none" stroke="midnightblue" d="M790,-326.35C790,-302.25 790,-261.31 790,-243.59"/>
<polygon fill="midnightblue" stroke="midnightblue" points="786.5,-326.37 790,-336.37 793.5,-326.37 786.5,-326.37"/>
</g>
<!-- Node21 -->
<g id="node21" class="node">
<title>Node21</title>
<g id="a_node21"><a xlink:href="spaces_8h.html" target="_top" xlink:title=" ">
<polygon fill="white" stroke="black" points="1559.5,-168.5 1559.5,-187.5 1646.5,-187.5 1646.5,-168.5 1559.5,-168.5"/>
<text text-anchor="middle" x="1603" y="-175.5" font-family="Helvetica,sans-Serif" font-size="10.00">main/spaces.h</text>
</a>
</g>
</g>
<!-- Node1&#45;&gt;Node21 -->
<g id="edge47" class="edge">
<title>Node1&#45;&gt;Node21</title>
<path fill="none" stroke="midnightblue" d="M845.61,-344.9C1010.27,-344.17 1487.41,-338.7 1545,-300 1585.02,-273.1 1598.24,-210.59 1601.84,-187.65"/>
<polygon fill="midnightblue" stroke="midnightblue" points="845.21,-341.4 835.23,-344.94 845.24,-348.4 845.21,-341.4"/>
</g>
<!-- Node22 -->
<g id="node22" class="node">
<title>Node22</title>
<g id="a_node22"><a xlink:href="data_8cpp.html" target="_top" xlink:title=" ">
<polygon fill="white" stroke="black" points="1755.5,-280.5 1755.5,-299.5 1838.5,-299.5 1838.5,-280.5 1755.5,-280.5"/>
<text text-anchor="middle" x="1797" y="-287.5" font-family="Helvetica,sans-Serif" font-size="10.00">utils/data.cpp</text>
</a>
</g>
</g>
<!-- Node1&#45;&gt;Node22 -->
<g id="edge52" class="edge">
<title>Node1&#45;&gt;Node22</title>
<path fill="none" stroke="midnightblue" d="M845.27,-344.55C991.72,-342.88 1401.83,-335.17 1741,-300 1745.7,-299.51 1750.61,-298.89 1755.48,-298.2"/>
<polygon fill="midnightblue" stroke="midnightblue" points="845.14,-341.05 835.18,-344.66 845.22,-348.05 845.14,-341.05"/>
</g>
<!-- Node3 -->
<g id="node3" class="node">
<title>Node3</title>
<g id="a_node3"><a xlink:href="devices_8cpp.html" target="_top" xlink:title=" ">
<polygon fill="white" stroke="black" points="0,-224.5 0,-243.5 108,-243.5 108,-224.5 0,-224.5"/>
<text text-anchor="middle" x="54" y="-231.5" font-family="Helvetica,sans-Serif" font-size="10.00">logger/devices.cpp</text>
</a>
</g>
</g>
<!-- Node2&#45;&gt;Node3 -->
<g id="edge2" class="edge">
<title>Node2&#45;&gt;Node3</title>
<path fill="none" stroke="midnightblue" d="M118.28,-274.9C102.33,-265 81.5,-252.07 67.94,-243.65"/>
<polygon fill="midnightblue" stroke="midnightblue" points="116.68,-278.02 127.02,-280.32 120.37,-272.08 116.68,-278.02"/>
</g>
<!-- Node2&#45;&gt;Node4 -->
<g id="edge3" class="edge">
<title>Node2&#45;&gt;Node4</title>
<path fill="none" stroke="midnightblue" d="M152.62,-271.57C158.82,-262.27 166.17,-251.25 171.17,-243.75"/>
<polygon fill="midnightblue" stroke="midnightblue" points="149.58,-269.82 146.94,-280.08 155.4,-273.7 149.58,-269.82"/>
</g>
<!-- Node8&#45;&gt;Node7 -->
<g id="edge9" class="edge">
<title>Node8&#45;&gt;Node7</title>
<path fill="none" stroke="midnightblue" d="M1376.13,-273.56C1395,-255.29 1424.21,-222.91 1436,-188 1442.65,-168.31 1433.03,-144.18 1426.73,-131.58"/>
<polygon fill="midnightblue" stroke="midnightblue" points="1373.65,-271.09 1368.77,-280.49 1378.45,-276.19 1373.65,-271.09"/>
</g>
<!-- Node9 -->
<g id="node9" class="node">
<title>Node9</title>
<g id="a_node9"><a xlink:href="meshreader_8h.html" target="_top" xlink:title=" ">
<polygon fill="white" stroke="black" points="1215,-224.5 1215,-243.5 1327,-243.5 1327,-224.5 1215,-224.5"/>
<text text-anchor="middle" x="1271" y="-231.5" font-family="Helvetica,sans-Serif" font-size="10.00">main/meshreader.h</text>
</a>
</g>
</g>
<!-- Node8&#45;&gt;Node9 -->
<g id="edge10" class="edge">
<title>Node8&#45;&gt;Node9</title>
<path fill="none" stroke="midnightblue" d="M1336.02,-274.9C1319.89,-265 1298.82,-252.07 1285.1,-243.65"/>
<polygon fill="midnightblue" stroke="midnightblue" points="1334.51,-278.08 1344.86,-280.32 1338.17,-272.11 1334.51,-278.08"/>
</g>
<!-- Node8&#45;&gt;Node13 -->
<g id="edge26" class="edge">
<title>Node8&#45;&gt;Node13</title>
<path fill="none" stroke="midnightblue" d="M1428.28,-287.22C1498.68,-281.26 1604.47,-259.96 1656,-188 1693.31,-135.9 1652.45,-89.79 1598,-56 1565.83,-36.04 1524.94,-24.86 1491.33,-18.63"/>
<polygon fill="midnightblue" stroke="midnightblue" points="1427.87,-283.74 1418.17,-287.99 1428.4,-290.72 1427.87,-283.74"/>
</g>
<!-- Node10 -->
<g id="node10" class="node">
<title>Node10</title>
<g id="a_node10"><a xlink:href="functions_8h.html" target="_top" xlink:title=" ">
<polygon fill="white" stroke="black" points="1329,-168.5 1329,-187.5 1427,-187.5 1427,-168.5 1329,-168.5"/>
<text text-anchor="middle" x="1378" y="-175.5" font-family="Helvetica,sans-Serif" font-size="10.00">main/functions.h</text>
</a>
</g>
</g>
<!-- Node9&#45;&gt;Node10 -->
<g id="edge11" class="edge">
<title>Node9&#45;&gt;Node10</title>
<path fill="none" stroke="midnightblue" d="M1297.3,-219.73C1317.11,-209.73 1343.71,-196.31 1360.85,-187.65"/>
<polygon fill="midnightblue" stroke="midnightblue" points="1295.54,-216.69 1288.19,-224.32 1298.7,-222.94 1295.54,-216.69"/>
</g>
<!-- Node9&#45;&gt;Node12 -->
<g id="edge23" class="edge">
<title>Node9&#45;&gt;Node12</title>
<path fill="none" stroke="midnightblue" d="M1279.53,-214.86C1296.26,-179.25 1332.81,-101.45 1344.97,-75.57"/>
<polygon fill="midnightblue" stroke="midnightblue" points="1276.28,-213.54 1275.19,-224.08 1282.61,-216.51 1276.28,-213.54"/>
</g>
<!-- Node9&#45;&gt;Node13 -->
<g id="edge22" class="edge">
<title>Node9&#45;&gt;Node13</title>
<path fill="none" stroke="midnightblue" d="M1266.14,-214.65C1258.05,-179.64 1246.12,-102.66 1283,-56 1302.53,-31.29 1335.42,-19.84 1364.95,-14.66"/>
<polygon fill="midnightblue" stroke="midnightblue" points="1262.76,-215.58 1268.56,-224.45 1269.56,-213.9 1262.76,-215.58"/>
</g>
<!-- Node9&#45;&gt;Node15 -->
<g id="edge24" class="edge">
<title>Node9&#45;&gt;Node15</title>
<path fill="none" stroke="midnightblue" d="M1258.02,-215.76C1231.54,-180.59 1172.11,-101.68 1152.45,-75.57"/>
<polygon fill="midnightblue" stroke="midnightblue" points="1255.47,-218.19 1264.28,-224.08 1261.06,-213.98 1255.47,-218.19"/>
</g>
<!-- Node9&#45;&gt;Node16 -->
<g id="edge21" class="edge">
<title>Node9&#45;&gt;Node16</title>
<path fill="none" stroke="midnightblue" d="M1217.39,-222.47C1165.42,-212.27 1087.56,-196.98 1039.37,-187.52"/>
<polygon fill="midnightblue" stroke="midnightblue" points="1216.94,-225.95 1227.43,-224.44 1218.29,-219.08 1216.94,-225.95"/>
</g>
<!-- Node17 -->
<g id="node17" class="node">
<title>Node17</title>
<g id="a_node17"><a xlink:href="test_8cpp.html" target="_top" xlink:title=" ">
<polygon fill="white" stroke="black" points="1075.5,-168.5 1075.5,-187.5 1158.5,-187.5 1158.5,-168.5 1075.5,-168.5"/>
<text text-anchor="middle" x="1117" y="-175.5" font-family="Helvetica,sans-Serif" font-size="10.00">main/test.cpp</text>
</a>
</g>
</g>
<!-- Node9&#45;&gt;Node17 -->
<g id="edge25" class="edge">
<title>Node9&#45;&gt;Node17</title>
<path fill="none" stroke="midnightblue" d="M1236.89,-221.04C1207.91,-210.88 1167.04,-196.55 1141.29,-187.52"/>
<polygon fill="midnightblue" stroke="midnightblue" points="1236,-224.44 1246.6,-224.44 1238.32,-217.83 1236,-224.44"/>
</g>
<!-- Node10&#45;&gt;Node7 -->
<g id="edge12" class="edge">
<title>Node10&#45;&gt;Node7</title>
<path fill="none" stroke="midnightblue" d="M1391.73,-160.14C1399.4,-150.74 1408.63,-139.4 1414.87,-131.75"/>
<polygon fill="midnightblue" stroke="midnightblue" points="1388.87,-158.12 1385.27,-168.08 1394.3,-162.54 1388.87,-158.12"/>
</g>
<!-- Node10&#45;&gt;Node11 -->
<g id="edge13" class="edge">
<title>Node10&#45;&gt;Node11</title>
<path fill="none" stroke="midnightblue" d="M1361.84,-161.16C1333.21,-134.19 1270.48,-79.96 1206,-56 1131.34,-28.26 894.46,-16.38 794.84,-12.53"/>
<polygon fill="midnightblue" stroke="midnightblue" points="1359.65,-163.9 1369.29,-168.29 1364.49,-158.85 1359.65,-163.9"/>
</g>
<!-- Node10&#45;&gt;Node12 -->
<g id="edge14" class="edge">
<title>Node10&#45;&gt;Node12</title>
<path fill="none" stroke="midnightblue" d="M1368.68,-159.15C1364.82,-151.06 1360.64,-141.25 1358,-132 1352.37,-112.28 1350.21,-88.16 1349.42,-75.57"/>
<polygon fill="midnightblue" stroke="midnightblue" points="1365.66,-160.93 1373.26,-168.31 1371.92,-157.8 1365.66,-160.93"/>
</g>
<!-- Node14 -->
<g id="node14" class="node">
<title>Node14</title>
<g id="a_node14"><a xlink:href="surface_8h.html" target="_top" xlink:title=" ">
<polygon fill="white" stroke="black" points="1533.5,-112.5 1533.5,-131.5 1622.5,-131.5 1622.5,-112.5 1533.5,-112.5"/>
<text text-anchor="middle" x="1578" y="-119.5" font-family="Helvetica,sans-Serif" font-size="10.00">main/surface.h</text>
</a>
</g>
</g>
<!-- Node10&#45;&gt;Node14 -->
<g id="edge17" class="edge">
<title>Node10&#45;&gt;Node14</title>
<path fill="none" stroke="midnightblue" d="M1419.37,-165.83C1457.14,-155.63 1512.14,-140.78 1546.46,-131.52"/>
<polygon fill="midnightblue" stroke="midnightblue" points="1418.43,-162.46 1409.69,-168.44 1420.26,-169.22 1418.43,-162.46"/>
</g>
<!-- Node12&#45;&gt;Node11 -->
<g id="edge15" class="edge">
<title>Node12&#45;&gt;Node11</title>
<path fill="none" stroke="midnightblue" d="M1281.19,-58.89C1157.57,-47.74 898.71,-24.41 794.69,-15.03"/>
<polygon fill="midnightblue" stroke="midnightblue" points="1281.02,-62.39 1291.29,-59.8 1281.65,-55.41 1281.02,-62.39"/>
</g>
<!-- Node12&#45;&gt;Node13 -->
<g id="edge16" class="edge">
<title>Node12&#45;&gt;Node13</title>
<path fill="none" stroke="midnightblue" d="M1370.03,-50.62C1384.47,-40.76 1403.14,-27.99 1415.34,-19.65"/>
<polygon fill="midnightblue" stroke="midnightblue" points="1367.97,-47.79 1361.69,-56.32 1371.92,-53.57 1367.97,-47.79"/>
</g>
<!-- Node14&#45;&gt;Node12 -->
<g id="edge19" class="edge">
<title>Node14&#45;&gt;Node12</title>
<path fill="none" stroke="midnightblue" d="M1531.73,-110.09C1488.46,-99.89 1424.74,-84.86 1385.12,-75.52"/>
<polygon fill="midnightblue" stroke="midnightblue" points="1531.18,-113.55 1541.71,-112.44 1532.78,-106.74 1531.18,-113.55"/>
</g>
<!-- Node14&#45;&gt;Node13 -->
<g id="edge18" class="edge">
<title>Node14&#45;&gt;Node13</title>
<path fill="none" stroke="midnightblue" d="M1558.11,-106.42C1526.39,-83.15 1465.3,-38.35 1439.72,-19.59"/>
<polygon fill="midnightblue" stroke="midnightblue" points="1556.1,-109.28 1566.23,-112.37 1560.24,-103.63 1556.1,-109.28"/>
</g>
<!-- Node14&#45;&gt;Node15 -->
<g id="edge20" class="edge">
<title>Node14&#45;&gt;Node15</title>
<path fill="none" stroke="midnightblue" d="M1522.94,-112.54C1521.61,-112.36 1520.3,-112.18 1519,-112 1403.96,-96.29 1268.57,-80.67 1196.74,-72.61"/>
<polygon fill="midnightblue" stroke="midnightblue" points="1522.85,-116.07 1533.24,-114.02 1523.84,-109.14 1522.85,-116.07"/>
</g>
<!-- Node19&#45;&gt;Node5 -->
<g id="edge33" class="edge">
<title>Node19&#45;&gt;Node5</title>
<path fill="none" stroke="midnightblue" d="M743.26,-221.05C724.26,-214.13 703.42,-203.61 689,-188 674.05,-171.82 668.71,-145.32 666.89,-131.69"/>
<polygon fill="midnightblue" stroke="midnightblue" points="742.4,-224.45 752.99,-224.35 744.64,-217.82 742.4,-224.45"/>
</g>
<!-- Node19&#45;&gt;Node6 -->
<g id="edge34" class="edge">
<title>Node19&#45;&gt;Node6</title>
<path fill="none" stroke="midnightblue" d="M735.09,-224.94C666.59,-214.89 549.98,-197.78 480.05,-187.52"/>
<polygon fill="midnightblue" stroke="midnightblue" points="734.84,-228.44 745.24,-226.43 735.86,-221.52 734.84,-228.44"/>
</g>
<!-- Node19&#45;&gt;Node7 -->
<g id="edge35" class="edge">
<title>Node19&#45;&gt;Node7</title>
<path fill="none" stroke="midnightblue" d="M816.62,-219.98C854.56,-201.46 920.29,-169.57 926,-168 1007.81,-145.52 1255.68,-131.06 1366.92,-125.54"/>
<polygon fill="midnightblue" stroke="midnightblue" points="815.07,-216.84 807.62,-224.37 818.14,-223.13 815.07,-216.84"/>
</g>
<!-- Node19&#45;&gt;Node11 -->
<g id="edge36" class="edge">
<title>Node19&#45;&gt;Node11</title>
<path fill="none" stroke="midnightblue" d="M735.29,-221.96C688.98,-209.24 626.22,-183.14 601,-132 572.92,-75.07 669.14,-35.86 720.21,-19.53"/>
<polygon fill="midnightblue" stroke="midnightblue" points="734.64,-225.41 745.2,-224.55 736.41,-218.64 734.64,-225.41"/>
</g>
<!-- Node19&#45;&gt;Node13 -->
<g id="edge38" class="edge">
<title>Node19&#45;&gt;Node13</title>
<path fill="none" stroke="midnightblue" d="M801.31,-216.09C811.46,-201.89 827.43,-181.76 845,-168 889.13,-133.44 907.16,-135.61 958,-112 1014.69,-85.67 1026.77,-72.69 1087,-56 1181.66,-29.76 1295.47,-18.66 1364.73,-14.08"/>
<polygon fill="midnightblue" stroke="midnightblue" points="798.34,-214.23 795.52,-224.45 804.09,-218.22 798.34,-214.23"/>
</g>
<!-- Node19&#45;&gt;Node15 -->
<g id="edge40" class="edge">
<title>Node19&#45;&gt;Node15</title>
<path fill="none" stroke="midnightblue" d="M808.1,-218.15C826.04,-203.93 854.72,-182.56 882,-168 963.17,-124.68 1067.06,-90.63 1116.85,-75.52"/>
<polygon fill="midnightblue" stroke="midnightblue" points="805.81,-215.5 800.21,-224.49 810.19,-220.95 805.81,-215.5"/>
</g>
<!-- Node19&#45;&gt;Node16 -->
<g id="edge37" class="edge">
<title>Node19&#45;&gt;Node16</title>
<path fill="none" stroke="midnightblue" d="M832.62,-221.83C871.51,-211.63 928.16,-196.78 963.51,-187.52"/>
<polygon fill="midnightblue" stroke="midnightblue" points="831.43,-218.52 822.64,-224.44 833.2,-225.29 831.43,-218.52"/>
</g>
<!-- Node19&#45;&gt;Node17 -->
<g id="edge41" class="edge">
<title>Node19&#45;&gt;Node17</title>
<path fill="none" stroke="midnightblue" d="M844.7,-224.4C900.6,-215.54 989.92,-201.2 1067,-188 1069.7,-187.54 1072.47,-187.06 1075.27,-186.57"/>
<polygon fill="midnightblue" stroke="midnightblue" points="843.99,-220.96 834.66,-225.99 845.08,-227.88 843.99,-220.96"/>
</g>
<!-- Node19&#45;&gt;Node18 -->
<g id="edge39" class="edge">
<title>Node19&#45;&gt;Node18</title>
<path fill="none" stroke="midnightblue" d="M742.68,-222.22C697.89,-212.01 631.56,-196.9 590.38,-187.52"/>
<polygon fill="midnightblue" stroke="midnightblue" points="741.92,-225.63 752.45,-224.44 743.47,-218.81 741.92,-225.63"/>
</g>
<!-- Node20 -->
<g id="node20" class="node">
<title>Node20</title>
<g id="a_node20"><a xlink:href="functionals_8h.html" target="_top" xlink:title=" ">
<polygon fill="white" stroke="black" points="698,-168.5 698,-187.5 802,-187.5 802,-168.5 698,-168.5"/>
<text text-anchor="middle" x="750" y="-175.5" font-family="Helvetica,sans-Serif" font-size="10.00">utils/functionals.h</text>
</a>
</g>
</g>
<!-- Node19&#45;&gt;Node20 -->
<g id="edge42" class="edge">
<title>Node19&#45;&gt;Node20</title>
<path fill="none" stroke="midnightblue" d="M777.3,-215.86C770.37,-206.5 762.09,-195.33 756.48,-187.75"/>
<polygon fill="midnightblue" stroke="midnightblue" points="774.63,-218.13 783.39,-224.08 780.25,-213.96 774.63,-218.13"/>
</g>
<!-- Node20&#45;&gt;Node5 -->
<g id="edge43" class="edge">
<title>Node20&#45;&gt;Node5</title>
<path fill="none" stroke="midnightblue" d="M728.07,-162.9C712.66,-153 692.55,-140.07 679.46,-131.65"/>
<polygon fill="midnightblue" stroke="midnightblue" points="726.2,-165.86 736.5,-168.32 729.98,-159.97 726.2,-165.86"/>
</g>
<!-- Node20&#45;&gt;Node11 -->
<g id="edge44" class="edge">
<title>Node20&#45;&gt;Node11</title>
<path fill="none" stroke="midnightblue" d="M750,-157.93C750,-121.92 750,-45.23 750,-19.57"/>
<polygon fill="midnightblue" stroke="midnightblue" points="746.5,-158.08 750,-168.08 753.5,-158.08 746.5,-158.08"/>
</g>
<!-- Node20&#45;&gt;Node13 -->
<g id="edge45" class="edge">
<title>Node20&#45;&gt;Node13</title>
<path fill="none" stroke="midnightblue" d="M758.63,-159.32C773.18,-131.71 805.41,-79.15 850,-56 894.8,-32.74 1224.37,-18.3 1364.86,-13.14"/>
<polygon fill="midnightblue" stroke="midnightblue" points="755.5,-157.76 754.09,-168.26 761.74,-160.93 755.5,-157.76"/>
</g>
<!-- Node20&#45;&gt;Node15 -->
<g id="edge46" class="edge">
<title>Node20&#45;&gt;Node15</title>
<path fill="none" stroke="midnightblue" d="M773.8,-163.37C800.69,-148.56 846.17,-125.23 888,-112 958.01,-89.85 1042.37,-77.74 1095.11,-71.81"/>
<polygon fill="midnightblue" stroke="midnightblue" points="771.8,-160.48 764.78,-168.41 775.21,-166.59 771.8,-160.48"/>
</g>
<!-- Node21&#45;&gt;Node13 -->
<g id="edge48" class="edge">
<title>Node21&#45;&gt;Node13</title>
<path fill="none" stroke="midnightblue" d="M1619.04,-160.64C1630.28,-147.11 1641.71,-127.65 1632,-112 1597.92,-57.1 1524.16,-31.13 1475.31,-19.53"/>
<polygon fill="midnightblue" stroke="midnightblue" points="1616.32,-158.43 1612.25,-168.21 1621.53,-163.1 1616.32,-158.43"/>
</g>
<!-- Node21&#45;&gt;Node14 -->
<g id="edge50" class="edge">
<title>Node21&#45;&gt;Node14</title>
<path fill="none" stroke="midnightblue" d="M1594.66,-158.98C1590.42,-149.82 1585.45,-139.09 1582.05,-131.75"/>
<polygon fill="midnightblue" stroke="midnightblue" points="1591.49,-160.48 1598.87,-168.08 1597.85,-157.54 1591.49,-160.48"/>
</g>
<!-- Node21&#45;&gt;Node15 -->
<g id="edge49" class="edge">
<title>Node21&#45;&gt;Node15</title>
<path fill="none" stroke="midnightblue" d="M1579.09,-163.09C1547.79,-144.97 1495.75,-115.22 1486,-112 1433.43,-94.62 1277.76,-78.74 1196.57,-71.35"/>
<polygon fill="midnightblue" stroke="midnightblue" points="1577.66,-166.3 1588.07,-168.29 1581.17,-160.25 1577.66,-166.3"/>
</g>
</g>
</svg>
