<?xml version="1.0" encoding="UTF-8" standalone="no"?>
<!DOCTYPE svg PUBLIC "-//W3C//DTD SVG 1.1//EN"
 "http://www.w3.org/Graphics/SVG/1.1/DTD/svg11.dtd">
<!-- Generated by graphviz version 2.43.0 (0)
 -->
<!-- Title: main/meshreader.cpp Pages: 1 -->
<svg width="1482pt" height="308pt"
 viewBox="0.00 0.00 1481.97 308.00" xmlns="http://www.w3.org/2000/svg" xmlns:xlink="http://www.w3.org/1999/xlink">
<g id="graph0" class="graph" transform="scale(1 1) rotate(0) translate(4 304)">
<title>main/meshreader.cpp</title>
<polygon fill="white" stroke="transparent" points="-4,4 -4,-304 1477.97,-304 1477.97,4 -4,4"/>
<!-- Node1 -->
<g id="node1" class="node">
<title>Node1</title>
<g id="a_node1"><a xlink:title=" ">
<polygon fill="#bfbfbf" stroke="black" points="655.97,-280.5 655.97,-299.5 778.97,-299.5 778.97,-280.5 655.97,-280.5"/>
<text text-anchor="middle" x="717.47" y="-287.5" font-family="Helvetica,sans-Serif" font-size="10.00">main/meshreader.cpp</text>
</a>
</g>
</g>
<!-- Node2 -->
<g id="node2" class="node">
<title>Node2</title>
<g id="a_node2"><a xlink:href="meshreader_8h.html" target="_top" xlink:title=" ">
<polygon fill="white" stroke="black" points="300.47,-224.5 300.47,-243.5 384.47,-243.5 384.47,-224.5 300.47,-224.5"/>
<text text-anchor="middle" x="342.47" y="-231.5" font-family="Helvetica,sans-Serif" font-size="10.00">meshreader.h</text>
</a>
</g>
</g>
<!-- Node1&#45;&gt;Node2 -->
<g id="edge1" class="edge">
<title>Node1&#45;&gt;Node2</title>
<path fill="none" stroke="midnightblue" d="M657.06,-280.5C593.64,-271.54 491.02,-256.97 402.47,-244 399.96,-243.63 397.39,-243.26 394.8,-242.87"/>
<polygon fill="midnightblue" stroke="midnightblue" points="395.15,-239.39 384.75,-241.38 394.13,-246.31 395.15,-239.39"/>
</g>
<!-- Node3 -->
<g id="node3" class="node">
<title>Node3</title>
<g id="a_node3"><a xlink:title=" ">
<polygon fill="white" stroke="#bfbfbf" points="18.47,-112.5 18.47,-131.5 60.47,-131.5 60.47,-112.5 18.47,-112.5"/>
<text text-anchor="middle" x="39.47" y="-119.5" font-family="Helvetica,sans-Serif" font-size="10.00">array</text>
</a>
</g>
</g>
<!-- Node1&#45;&gt;Node3 -->
<g id="edge19" class="edge">
<title>Node1&#45;&gt;Node3</title>
<path fill="none" stroke="midnightblue" d="M655.78,-286.67C572.33,-282.57 419.2,-271.69 291.47,-244 214.55,-227.32 192.91,-225.05 123.47,-188 97.98,-174.4 72.22,-153.1 56.07,-138.62"/>
<polygon fill="midnightblue" stroke="midnightblue" points="58.3,-135.91 48.56,-131.74 53.58,-141.07 58.3,-135.91"/>
</g>
<!-- Node4 -->
<g id="node4" class="node">
<title>Node4</title>
<g id="a_node4"><a xlink:title=" ">
<polygon fill="white" stroke="#bfbfbf" points="370.47,-168.5 370.47,-187.5 408.47,-187.5 408.47,-168.5 370.47,-168.5"/>
<text text-anchor="middle" x="389.47" y="-175.5" font-family="Helvetica,sans-Serif" font-size="10.00">map</text>
</a>
</g>
</g>
<!-- Node1&#45;&gt;Node4 -->
<g id="edge26" class="edge">
<title>Node1&#45;&gt;Node4</title>
<path fill="none" stroke="midnightblue" d="M655.94,-287.01C603.15,-283.24 526.22,-272.76 465.47,-244 440.84,-232.34 417.85,-210.55 403.74,-195.43"/>
<polygon fill="midnightblue" stroke="midnightblue" points="406.16,-192.89 396.86,-187.82 400.97,-197.59 406.16,-192.89"/>
</g>
<!-- Node5 -->
<g id="node5" class="node">
<title>Node5</title>
<g id="a_node5"><a xlink:title=" ">
<polygon fill="white" stroke="#bfbfbf" points="426.97,-168.5 426.97,-187.5 473.97,-187.5 473.97,-168.5 426.97,-168.5"/>
<text text-anchor="middle" x="450.47" y="-175.5" font-family="Helvetica,sans-Serif" font-size="10.00">vector</text>
</a>
</g>
</g>
<!-- Node1&#45;&gt;Node5 -->
<g id="edge31" class="edge">
<title>Node1&#45;&gt;Node5</title>
<path fill="none" stroke="midnightblue" d="M655.88,-282.65C597.48,-275.62 514.85,-262.75 488.47,-244 472.52,-232.67 462.23,-212.37 456.43,-197.46"/>
<polygon fill="midnightblue" stroke="midnightblue" points="459.64,-196.02 452.99,-187.76 453.04,-198.36 459.64,-196.02"/>
</g>
<!-- Node6 -->
<g id="node6" class="node">
<title>Node6</title>
<g id="a_node6"><a xlink:title=" ">
<polygon fill="white" stroke="#bfbfbf" points="456.47,-56.5 456.47,-75.5 500.47,-75.5 500.47,-56.5 456.47,-56.5"/>
<text text-anchor="middle" x="478.47" y="-63.5" font-family="Helvetica,sans-Serif" font-size="10.00">string</text>
</a>
</g>
</g>
<!-- Node1&#45;&gt;Node6 -->
<g id="edge27" class="edge">
<title>Node1&#45;&gt;Node6</title>
<path fill="none" stroke="midnightblue" d="M692.68,-280.38C671.9,-272.56 641.95,-259.83 618.47,-244 561.88,-205.87 551.47,-188.67 513.47,-132 503.23,-116.73 493.47,-98.17 486.88,-84.79"/>
<polygon fill="midnightblue" stroke="midnightblue" points="489.99,-83.2 482.49,-75.72 483.69,-86.25 489.99,-83.2"/>
</g>
<!-- Node7 -->
<g id="node7" class="node">
<title>Node7</title>
<g id="a_node7"><a xlink:href="enum_8h.html" target="_top" xlink:title=" ">
<polygon fill="white" stroke="black" points="2.97,-56.5 2.97,-75.5 79.97,-75.5 79.97,-56.5 2.97,-56.5"/>
<text text-anchor="middle" x="41.47" y="-63.5" font-family="Helvetica,sans-Serif" font-size="10.00">utils/enum.h</text>
</a>
</g>
</g>
<!-- Node1&#45;&gt;Node7 -->
<g id="edge50" class="edge">
<title>Node1&#45;&gt;Node7</title>
<path fill="none" stroke="midnightblue" d="M655.64,-289.29C558.18,-288.48 363.46,-281.71 203.47,-244 103.93,-220.54 42.83,-225.96 2.47,-132 -5.18,-114.21 8.85,-95.4 22.16,-82.62"/>
<polygon fill="midnightblue" stroke="midnightblue" points="24.62,-85.11 29.74,-75.84 19.95,-79.89 24.62,-85.11"/>
</g>
<!-- Node12 -->
<g id="node12" class="node">
<title>Node12</title>
<g id="a_node12"><a xlink:href="logger_8h.html" target="_top" xlink:title=" ">
<polygon fill="white" stroke="black" points="230.47,-112.5 230.47,-131.5 320.47,-131.5 320.47,-112.5 230.47,-112.5"/>
<text text-anchor="middle" x="275.47" y="-119.5" font-family="Helvetica,sans-Serif" font-size="10.00">logger/logger.h</text>
</a>
</g>
</g>
<!-- Node1&#45;&gt;Node12 -->
<g id="edge34" class="edge">
<title>Node1&#45;&gt;Node12</title>
<path fill="none" stroke="midnightblue" d="M655.78,-286.98C615.5,-282.85 563.66,-271.91 526.47,-244 495.42,-220.71 514.72,-191 483.47,-168 471.19,-158.96 388.24,-142.87 330.88,-132.57"/>
<polygon fill="midnightblue" stroke="midnightblue" points="331.31,-129.1 320.85,-130.79 330.08,-135.99 331.31,-129.1"/>
</g>
<!-- Node16 -->
<g id="node16" class="node">
<title>Node16</title>
<g id="a_node16"><a xlink:title=" ">
<polygon fill="white" stroke="#bfbfbf" points="718.47,-224.5 718.47,-243.5 770.47,-243.5 770.47,-224.5 718.47,-224.5"/>
<text text-anchor="middle" x="744.47" y="-231.5" font-family="Helvetica,sans-Serif" font-size="10.00">cassert</text>
</a>
</g>
</g>
<!-- Node1&#45;&gt;Node16 -->
<g id="edge20" class="edge">
<title>Node1&#45;&gt;Node16</title>
<path fill="none" stroke="midnightblue" d="M721.93,-280.08C725.62,-272.69 730.99,-261.95 735.56,-252.81"/>
<polygon fill="midnightblue" stroke="midnightblue" points="738.75,-254.26 740.09,-243.75 732.49,-251.13 738.75,-254.26"/>
</g>
<!-- Node17 -->
<g id="node17" class="node">
<title>Node17</title>
<g id="a_node17"><a xlink:title=" ">
<polygon fill="white" stroke="#bfbfbf" points="788.97,-224.5 788.97,-243.5 837.97,-243.5 837.97,-224.5 788.97,-224.5"/>
<text text-anchor="middle" x="813.47" y="-231.5" font-family="Helvetica,sans-Serif" font-size="10.00">cctype</text>
</a>
</g>
</g>
<!-- Node1&#45;&gt;Node17 -->
<g id="edge21" class="edge">
<title>Node1&#45;&gt;Node17</title>
<path fill="none" stroke="midnightblue" d="M732.89,-280.32C748.01,-271.82 771.28,-258.73 788.94,-248.8"/>
<polygon fill="midnightblue" stroke="midnightblue" points="791.08,-251.61 798.08,-243.65 787.65,-245.51 791.08,-251.61"/>
</g>
<!-- Node18 -->
<g id="node18" class="node">
<title>Node18</title>
<g id="a_node18"><a xlink:title=" ">
<polygon fill="white" stroke="#bfbfbf" points="855.97,-224.5 855.97,-243.5 908.97,-243.5 908.97,-224.5 855.97,-224.5"/>
<text text-anchor="middle" x="882.47" y="-231.5" font-family="Helvetica,sans-Serif" font-size="10.00">cstddef</text>
</a>
</g>
</g>
<!-- Node1&#45;&gt;Node18 -->
<g id="edge22" class="edge">
<title>Node1&#45;&gt;Node18</title>
<path fill="none" stroke="midnightblue" d="M743.61,-280.44C771.49,-271.32 815.82,-256.81 846.87,-246.65"/>
<polygon fill="midnightblue" stroke="midnightblue" points="848.03,-249.95 856.44,-243.52 845.85,-243.3 848.03,-249.95"/>
</g>
<!-- Node19 -->
<g id="node19" class="node">
<title>Node19</title>
<g id="a_node19"><a xlink:title=" ">
<polygon fill="white" stroke="#bfbfbf" points="927.47,-224.5 927.47,-243.5 977.47,-243.5 977.47,-224.5 927.47,-224.5"/>
<text text-anchor="middle" x="952.47" y="-231.5" font-family="Helvetica,sans-Serif" font-size="10.00">cstring</text>
</a>
</g>
</g>
<!-- Node1&#45;&gt;Node19 -->
<g id="edge23" class="edge">
<title>Node1&#45;&gt;Node19</title>
<path fill="none" stroke="midnightblue" d="M757.62,-280.49C796.2,-272.2 856.38,-259 917.44,-244.18"/>
<polygon fill="midnightblue" stroke="midnightblue" points="918.36,-247.56 927.24,-241.79 916.7,-240.76 918.36,-247.56"/>
</g>
<!-- Node20 -->
<g id="node20" class="node">
<title>Node20</title>
<g id="a_node20"><a xlink:title=" ">
<polygon fill="white" stroke="#bfbfbf" points="995.97,-224.5 995.97,-243.5 1050.97,-243.5 1050.97,-224.5 995.97,-224.5"/>
<text text-anchor="middle" x="1023.47" y="-231.5" font-family="Helvetica,sans-Serif" font-size="10.00">fstream</text>
</a>
</g>
</g>
<!-- Node1&#45;&gt;Node20 -->
<g id="edge24" class="edge">
<title>Node1&#45;&gt;Node20</title>
<path fill="none" stroke="midnightblue" d="M775.94,-280.48C828.34,-272.55 907.52,-259.88 985.62,-244.05"/>
<polygon fill="midnightblue" stroke="midnightblue" points="986.54,-247.43 995.64,-242 985.14,-240.57 986.54,-247.43"/>
</g>
<!-- Node21 -->
<g id="node21" class="node">
<title>Node21</title>
<g id="a_node21"><a xlink:title=" ">
<polygon fill="white" stroke="#bfbfbf" points="829.47,-56.5 829.47,-75.5 861.47,-75.5 861.47,-56.5 829.47,-56.5"/>
<text text-anchor="middle" x="845.47" y="-63.5" font-family="Helvetica,sans-Serif" font-size="10.00">list</text>
</a>
</g>
</g>
<!-- Node1&#45;&gt;Node21 -->
<g id="edge25" class="edge">
<title>Node1&#45;&gt;Node21</title>
<path fill="none" stroke="midnightblue" d="M711.54,-280.37C703.63,-267.72 691.49,-243.51 699.47,-224 712.67,-191.71 725.25,-187.07 754.47,-168 792.28,-143.32 823.81,-169.16 849.47,-132 858.78,-118.51 856.26,-99.44 852.32,-85.45"/>
<polygon fill="midnightblue" stroke="midnightblue" points="855.64,-84.33 849.21,-75.91 848.98,-86.5 855.64,-84.33"/>
</g>
<!-- Node22 -->
<g id="node22" class="node">
<title>Node22</title>
<g id="a_node22"><a xlink:title=" ">
<polygon fill="white" stroke="#bfbfbf" points="1068.97,-224.5 1068.97,-243.5 1109.97,-243.5 1109.97,-224.5 1068.97,-224.5"/>
<text text-anchor="middle" x="1089.47" y="-231.5" font-family="Helvetica,sans-Serif" font-size="10.00">tuple</text>
</a>
</g>
</g>
<!-- Node1&#45;&gt;Node22 -->
<g id="edge28" class="edge">
<title>Node1&#45;&gt;Node22</title>
<path fill="none" stroke="midnightblue" d="M779.04,-284.11C845.96,-278.08 956.08,-266.08 1058.76,-244.08"/>
<polygon fill="midnightblue" stroke="midnightblue" points="1059.65,-247.47 1068.67,-241.92 1058.16,-240.63 1059.65,-247.47"/>
</g>
<!-- Node23 -->
<g id="node23" class="node">
<title>Node23</title>
<g id="a_node23"><a xlink:title=" ">
<polygon fill="white" stroke="#bfbfbf" points="1127.97,-224.5 1127.97,-243.5 1220.97,-243.5 1220.97,-224.5 1127.97,-224.5"/>
<text text-anchor="middle" x="1174.47" y="-231.5" font-family="Helvetica,sans-Serif" font-size="10.00">unordered_map</text>
</a>
</g>
</g>
<!-- Node1&#45;&gt;Node23 -->
<g id="edge29" class="edge">
<title>Node1&#45;&gt;Node23</title>
<path fill="none" stroke="midnightblue" d="M779.23,-283.07C856.16,-275.46 991.89,-261.32 1117.5,-244.22"/>
<polygon fill="midnightblue" stroke="midnightblue" points="1118.25,-247.65 1127.68,-242.82 1117.3,-240.71 1118.25,-247.65"/>
</g>
<!-- Node24 -->
<g id="node24" class="node">
<title>Node24</title>
<g id="a_node24"><a xlink:title=" ">
<polygon fill="white" stroke="#bfbfbf" points="1238.97,-224.5 1238.97,-243.5 1283.97,-243.5 1283.97,-224.5 1238.97,-224.5"/>
<text text-anchor="middle" x="1261.47" y="-231.5" font-family="Helvetica,sans-Serif" font-size="10.00">utility</text>
</a>
</g>
</g>
<!-- Node1&#45;&gt;Node24 -->
<g id="edge30" class="edge">
<title>Node1&#45;&gt;Node24</title>
<path fill="none" stroke="midnightblue" d="M779.19,-287.47C874.19,-284.25 1061.91,-274.53 1228.95,-243.95"/>
<polygon fill="midnightblue" stroke="midnightblue" points="1229.71,-247.37 1238.9,-242.1 1228.43,-240.49 1229.71,-247.37"/>
</g>
<!-- Node25 -->
<g id="node25" class="node">
<title>Node25</title>
<g id="a_node25"><a xlink:title=" ">
<polygon fill="white" stroke="#bfbfbf" points="1301.97,-224.5 1301.97,-243.5 1354.97,-243.5 1354.97,-224.5 1301.97,-224.5"/>
<text text-anchor="middle" x="1328.47" y="-231.5" font-family="Helvetica,sans-Serif" font-size="10.00">gmsh.h</text>
</a>
</g>
</g>
<!-- Node1&#45;&gt;Node25 -->
<g id="edge32" class="edge">
<title>Node1&#45;&gt;Node25</title>
<path fill="none" stroke="midnightblue" d="M779.27,-287.69C883.38,-284.71 1100.37,-275.19 1291.85,-244.01"/>
<polygon fill="midnightblue" stroke="midnightblue" points="1292.52,-247.45 1301.82,-242.36 1291.38,-240.54 1292.52,-247.45"/>
</g>
<!-- Node26 -->
<g id="node26" class="node">
<title>Node26</title>
<g id="a_node26"><a xlink:title=" ">
<polygon fill="white" stroke="#bfbfbf" points="1372.97,-224.5 1372.97,-243.5 1473.97,-243.5 1473.97,-224.5 1372.97,-224.5"/>
<text text-anchor="middle" x="1423.47" y="-231.5" font-family="Helvetica,sans-Serif" font-size="10.00">h2lib/surface3d.h</text>
</a>
</g>
</g>
<!-- Node1&#45;&gt;Node26 -->
<g id="edge33" class="edge">
<title>Node1&#45;&gt;Node26</title>
<path fill="none" stroke="midnightblue" d="M779.17,-286.39C892.68,-281.23 1142.45,-268.16 1362.53,-244.14"/>
<polygon fill="midnightblue" stroke="midnightblue" points="1363.1,-247.6 1372.65,-243.02 1362.33,-240.64 1363.1,-247.6"/>
</g>
<!-- Node27 -->
<g id="node27" class="node">
<title>Node27</title>
<g id="a_node27"><a xlink:href="cutils_8h.html" target="_top" xlink:title=" ">
<polygon fill="white" stroke="black" points="896.47,-112.5 896.47,-131.5 972.47,-131.5 972.47,-112.5 896.47,-112.5"/>
<text text-anchor="middle" x="934.47" y="-119.5" font-family="Helvetica,sans-Serif" font-size="10.00">utils/cutils.h</text>
</a>
</g>
</g>
<!-- Node1&#45;&gt;Node27 -->
<g id="edge35" class="edge">
<title>Node1&#45;&gt;Node27</title>
<path fill="none" stroke="midnightblue" d="M713.03,-280.2C707.01,-266.9 698.22,-241.37 709.47,-224 730.91,-190.87 838.13,-153.08 896.48,-134.52"/>
<polygon fill="midnightblue" stroke="midnightblue" points="897.61,-137.84 906.09,-131.5 895.5,-131.16 897.61,-137.84"/>
</g>
<!-- Node30 -->
<g id="node30" class="node">
<title>Node30</title>
<g id="a_node30"><a xlink:href="options_8h.html" target="_top" xlink:title=" ">
<polygon fill="white" stroke="black" points="568.47,-168.5 568.47,-187.5 630.47,-187.5 630.47,-168.5 568.47,-168.5"/>
<text text-anchor="middle" x="599.47" y="-175.5" font-family="Helvetica,sans-Serif" font-size="10.00">options.h</text>
</a>
</g>
</g>
<!-- Node1&#45;&gt;Node30 -->
<g id="edge39" class="edge">
<title>Node1&#45;&gt;Node30</title>
<path fill="none" stroke="midnightblue" d="M696.07,-280.45C678.97,-272.82 655.17,-260.33 638.47,-244 624.53,-230.38 613.67,-210.77 606.99,-196.66"/>
<polygon fill="midnightblue" stroke="midnightblue" points="610.17,-195.2 602.88,-187.52 603.79,-198.07 610.17,-195.2"/>
</g>
<!-- Node2&#45;&gt;Node3 -->
<g id="edge2" class="edge">
<title>Node2&#45;&gt;Node3</title>
<path fill="none" stroke="midnightblue" d="M300.63,-224.45C265.56,-216.71 214.46,-204.06 171.47,-188 132.25,-173.35 89.15,-150.82 63.21,-136.5"/>
<polygon fill="midnightblue" stroke="midnightblue" points="64.91,-133.44 54.47,-131.63 61.5,-139.56 64.91,-133.44"/>
</g>
<!-- Node2&#45;&gt;Node4 -->
<g id="edge3" class="edge">
<title>Node2&#45;&gt;Node4</title>
<path fill="none" stroke="midnightblue" d="M350.23,-224.08C357,-216.3 367.01,-204.8 375.22,-195.37"/>
<polygon fill="midnightblue" stroke="midnightblue" points="377.93,-197.59 381.85,-187.75 372.64,-193 377.93,-197.59"/>
</g>
<!-- Node2&#45;&gt;Node5 -->
<g id="edge4" class="edge">
<title>Node2&#45;&gt;Node5</title>
<path fill="none" stroke="midnightblue" d="M359.82,-224.32C377.14,-215.66 403.98,-202.24 423.97,-192.25"/>
<polygon fill="midnightblue" stroke="midnightblue" points="425.78,-195.26 433.16,-187.65 422.65,-189 425.78,-195.26"/>
</g>
<!-- Node2&#45;&gt;Node6 -->
<g id="edge5" class="edge">
<title>Node2&#45;&gt;Node6</title>
<path fill="none" stroke="midnightblue" d="M343.03,-224.09C344.3,-210.65 348.39,-184.94 361.47,-168 380.47,-143.38 397.59,-151.93 421.47,-132 438.67,-117.64 455.19,-97.92 465.98,-83.98"/>
<polygon fill="midnightblue" stroke="midnightblue" points="468.95,-85.85 472.19,-75.77 463.37,-81.63 468.95,-85.85"/>
</g>
<!-- Node2&#45;&gt;Node7 -->
<g id="edge6" class="edge">
<title>Node2&#45;&gt;Node7</title>
<path fill="none" stroke="midnightblue" d="M300.38,-227.09C217.97,-214.51 40.65,-182.06 9.47,-132 -0.45,-116.09 12.03,-96.67 24.19,-83.22"/>
<polygon fill="midnightblue" stroke="midnightblue" points="27.04,-85.31 31.52,-75.7 22.03,-80.42 27.04,-85.31"/>
</g>
<!-- Node9 -->
<g id="node9" class="node">
<title>Node9</title>
<g id="a_node9"><a xlink:href="linearalgebra_8h.html" target="_top" xlink:title=" ">
<polygon fill="white" stroke="black" points="180.47,-168.5 180.47,-187.5 270.47,-187.5 270.47,-168.5 180.47,-168.5"/>
<text text-anchor="middle" x="225.47" y="-175.5" font-family="Helvetica,sans-Serif" font-size="10.00">linearalgebra.h</text>
</a>
</g>
</g>
<!-- Node2&#45;&gt;Node9 -->
<g id="edge8" class="edge">
<title>Node2&#45;&gt;Node9</title>
<path fill="none" stroke="midnightblue" d="M323.93,-224.44C304.84,-215.64 274.89,-201.81 253.03,-191.72"/>
<polygon fill="midnightblue" stroke="midnightblue" points="254.47,-188.53 243.92,-187.52 251.53,-194.88 254.47,-188.53"/>
</g>
<!-- Node8 -->
<g id="node8" class="node">
<title>Node8</title>
<g id="a_node8"><a xlink:title=" ">
<polygon fill="white" stroke="#bfbfbf" points="297.97,-0.5 297.97,-19.5 366.97,-19.5 366.97,-0.5 297.97,-0.5"/>
<text text-anchor="middle" x="332.47" y="-7.5" font-family="Helvetica,sans-Serif" font-size="10.00">type_traits</text>
</a>
</g>
</g>
<!-- Node7&#45;&gt;Node8 -->
<g id="edge7" class="edge">
<title>Node7&#45;&gt;Node8</title>
<path fill="none" stroke="midnightblue" d="M80.11,-57.83C133.82,-47.86 230.81,-29.86 287.63,-19.32"/>
<polygon fill="midnightblue" stroke="midnightblue" points="288.56,-22.71 297.76,-17.44 287.29,-15.82 288.56,-22.71"/>
</g>
<!-- Node9&#45;&gt;Node3 -->
<g id="edge9" class="edge">
<title>Node9&#45;&gt;Node3</title>
<path fill="none" stroke="midnightblue" d="M195.53,-168.47C166.07,-160.05 119.55,-146.69 70.59,-132.31"/>
<polygon fill="midnightblue" stroke="midnightblue" points="71.35,-128.88 60.76,-129.42 69.37,-135.6 71.35,-128.88"/>
</g>
<!-- Node10 -->
<g id="node10" class="node">
<title>Node10</title>
<g id="a_node10"><a xlink:title=" ">
<polygon fill="white" stroke="#bfbfbf" points="152.97,-112.5 152.97,-131.5 211.97,-131.5 211.97,-112.5 152.97,-112.5"/>
<text text-anchor="middle" x="182.47" y="-119.5" font-family="Helvetica,sans-Serif" font-size="10.00">complex</text>
</a>
</g>
</g>
<!-- Node9&#45;&gt;Node10 -->
<g id="edge10" class="edge">
<title>Node9&#45;&gt;Node10</title>
<path fill="none" stroke="midnightblue" d="M218.37,-168.08C212.23,-160.38 203.2,-149.03 195.73,-139.65"/>
<polygon fill="midnightblue" stroke="midnightblue" points="198.4,-137.39 189.44,-131.75 192.93,-141.75 198.4,-137.39"/>
</g>
<!-- Node11 -->
<g id="node11" class="node">
<title>Node11</title>
<g id="a_node11"><a xlink:title=" ">
<polygon fill="white" stroke="#bfbfbf" points="78.47,-112.5 78.47,-131.5 134.47,-131.5 134.47,-112.5 78.47,-112.5"/>
<text text-anchor="middle" x="106.47" y="-119.5" font-family="Helvetica,sans-Serif" font-size="10.00">numeric</text>
</a>
</g>
</g>
<!-- Node9&#45;&gt;Node11 -->
<g id="edge11" class="edge">
<title>Node9&#45;&gt;Node11</title>
<path fill="none" stroke="midnightblue" d="M206.61,-168.44C187.2,-159.64 156.74,-145.81 134.5,-135.72"/>
<polygon fill="midnightblue" stroke="midnightblue" points="135.79,-132.46 125.23,-131.52 132.89,-138.84 135.79,-132.46"/>
</g>
<!-- Node9&#45;&gt;Node12 -->
<g id="edge12" class="edge">
<title>Node9&#45;&gt;Node12</title>
<path fill="none" stroke="midnightblue" d="M233.72,-168.08C240.93,-160.3 251.58,-148.8 260.31,-139.37"/>
<polygon fill="midnightblue" stroke="midnightblue" points="263.14,-141.47 267.36,-131.75 258,-136.71 263.14,-141.47"/>
</g>
<!-- Node15 -->
<g id="node15" class="node">
<title>Node15</title>
<g id="a_node15"><a xlink:href="constants_8h.html" target="_top" xlink:title=" ">
<polygon fill="white" stroke="black" points="338.97,-112.5 338.97,-131.5 411.97,-131.5 411.97,-112.5 338.97,-112.5"/>
<text text-anchor="middle" x="375.47" y="-119.5" font-family="Helvetica,sans-Serif" font-size="10.00">constants.h</text>
</a>
</g>
</g>
<!-- Node9&#45;&gt;Node15 -->
<g id="edge17" class="edge">
<title>Node9&#45;&gt;Node15</title>
<path fill="none" stroke="midnightblue" d="M249.23,-168.44C274.36,-159.4 314.18,-145.06 342.37,-134.92"/>
<polygon fill="midnightblue" stroke="midnightblue" points="343.59,-138.2 351.81,-131.52 341.22,-131.61 343.59,-138.2"/>
</g>
<!-- Node12&#45;&gt;Node7 -->
<g id="edge15" class="edge">
<title>Node12&#45;&gt;Node7</title>
<path fill="none" stroke="midnightblue" d="M238.39,-112.44C197.74,-103.06 132.44,-87.99 88.28,-77.8"/>
<polygon fill="midnightblue" stroke="midnightblue" points="88.9,-74.35 78.37,-75.52 87.33,-81.18 88.9,-74.35"/>
</g>
<!-- Node12&#45;&gt;Node8 -->
<g id="edge13" class="edge">
<title>Node12&#45;&gt;Node8</title>
<path fill="none" stroke="midnightblue" d="M284.88,-112.2C293.46,-103.69 305.92,-90.05 313.47,-76 321.29,-61.43 326.25,-43.26 329.13,-29.83"/>
<polygon fill="midnightblue" stroke="midnightblue" points="332.6,-30.34 331.08,-19.86 325.73,-29 332.6,-30.34"/>
</g>
<!-- Node13 -->
<g id="node13" class="node">
<title>Node13</title>
<g id="a_node13"><a xlink:title=" ">
<polygon fill="white" stroke="#bfbfbf" points="246.47,-56.5 246.47,-75.5 304.47,-75.5 304.47,-56.5 246.47,-56.5"/>
<text text-anchor="middle" x="275.47" y="-63.5" font-family="Helvetica,sans-Serif" font-size="10.00">memory</text>
</a>
</g>
</g>
<!-- Node12&#45;&gt;Node13 -->
<g id="edge14" class="edge">
<title>Node12&#45;&gt;Node13</title>
<path fill="none" stroke="midnightblue" d="M275.47,-112.08C275.47,-105.01 275.47,-94.86 275.47,-85.99"/>
<polygon fill="midnightblue" stroke="midnightblue" points="278.97,-85.75 275.47,-75.75 271.97,-85.75 278.97,-85.75"/>
</g>
<!-- Node14 -->
<g id="node14" class="node">
<title>Node14</title>
<g id="a_node14"><a xlink:title=" ">
<polygon fill="white" stroke="#bfbfbf" points="148.47,-56.5 148.47,-75.5 228.47,-75.5 228.47,-56.5 148.47,-56.5"/>
<text text-anchor="middle" x="188.47" y="-63.5" font-family="Helvetica,sans-Serif" font-size="10.00">logger.levels</text>
</a>
</g>
</g>
<!-- Node12&#45;&gt;Node14 -->
<g id="edge16" class="edge">
<title>Node12&#45;&gt;Node14</title>
<path fill="none" stroke="midnightblue" d="M261.49,-112.32C247.92,-103.9 227.09,-90.97 211.14,-81.07"/>
<polygon fill="midnightblue" stroke="midnightblue" points="212.75,-77.95 202.41,-75.65 209.06,-83.9 212.75,-77.95"/>
</g>
<!-- Node15&#45;&gt;Node6 -->
<g id="edge18" class="edge">
<title>Node15&#45;&gt;Node6</title>
<path fill="none" stroke="midnightblue" d="M392.02,-112.32C408.46,-103.7 433.9,-90.36 452.94,-80.39"/>
<polygon fill="midnightblue" stroke="midnightblue" points="454.73,-83.4 461.96,-75.65 451.48,-77.2 454.73,-83.4"/>
</g>
<!-- Node27&#45;&gt;Node8 -->
<g id="edge36" class="edge">
<title>Node27&#45;&gt;Node8</title>
<path fill="none" stroke="midnightblue" d="M929.03,-112.35C919.3,-97.77 897.43,-68.64 870.47,-56 783.33,-15.16 489.84,-10.88 377.1,-10.79"/>
<polygon fill="midnightblue" stroke="midnightblue" points="377.08,-7.29 367.08,-10.79 377.08,-14.29 377.08,-7.29"/>
</g>
<!-- Node28 -->
<g id="node28" class="node">
<title>Node28</title>
<g id="a_node28"><a xlink:title=" ">
<polygon fill="white" stroke="#bfbfbf" points="917.47,-56.5 917.47,-75.5 995.47,-75.5 995.47,-56.5 917.47,-56.5"/>
<text text-anchor="middle" x="956.47" y="-63.5" font-family="Helvetica,sans-Serif" font-size="10.00">h2lib/basic.h</text>
</a>
</g>
</g>
<!-- Node27&#45;&gt;Node28 -->
<g id="edge37" class="edge">
<title>Node27&#45;&gt;Node28</title>
<path fill="none" stroke="midnightblue" d="M938.1,-112.08C941.08,-104.77 945.39,-94.18 949.09,-85.1"/>
<polygon fill="midnightblue" stroke="midnightblue" points="952.37,-86.33 952.9,-75.75 945.89,-83.69 952.37,-86.33"/>
</g>
<!-- Node29 -->
<g id="node29" class="node">
<title>Node29</title>
<g id="a_node29"><a xlink:title=" ">
<polygon fill="white" stroke="#bfbfbf" points="1013.97,-56.5 1013.97,-75.5 1116.97,-75.5 1116.97,-56.5 1013.97,-56.5"/>
<text text-anchor="middle" x="1065.47" y="-63.5" font-family="Helvetica,sans-Serif" font-size="10.00">h2lib/dh2matrix.h</text>
</a>
</g>
</g>
<!-- Node27&#45;&gt;Node29 -->
<g id="edge38" class="edge">
<title>Node27&#45;&gt;Node29</title>
<path fill="none" stroke="midnightblue" d="M955.22,-112.44C976.78,-103.56 1010.73,-89.56 1035.26,-79.45"/>
<polygon fill="midnightblue" stroke="midnightblue" points="1036.9,-82.56 1044.81,-75.52 1034.23,-76.09 1036.9,-82.56"/>
</g>
<!-- Node30&#45;&gt;Node6 -->
<g id="edge40" class="edge">
<title>Node30&#45;&gt;Node6</title>
<path fill="none" stroke="midnightblue" d="M585.54,-168.34C572.31,-159.82 552.17,-146.09 536.47,-132 519.66,-116.92 502.73,-97.32 491.54,-83.6"/>
<polygon fill="midnightblue" stroke="midnightblue" points="494.06,-81.15 485.07,-75.55 488.6,-85.54 494.06,-81.15"/>
</g>
<!-- Node30&#45;&gt;Node12 -->
<g id="edge43" class="edge">
<title>Node30&#45;&gt;Node12</title>
<path fill="none" stroke="midnightblue" d="M568.4,-171.82C513.64,-162.7 399.25,-143.63 330.74,-132.21"/>
<polygon fill="midnightblue" stroke="midnightblue" points="331.01,-128.71 320.57,-130.52 329.86,-135.61 331.01,-128.71"/>
</g>
<!-- Node30&#45;&gt;Node27 -->
<g id="edge44" class="edge">
<title>Node30&#45;&gt;Node27</title>
<path fill="none" stroke="midnightblue" d="M630.68,-171.97C689.31,-162.52 816.27,-142.05 886.07,-130.8"/>
<polygon fill="midnightblue" stroke="midnightblue" points="887.03,-134.19 896.35,-129.14 885.92,-127.28 887.03,-134.19"/>
</g>
<!-- Node31 -->
<g id="node31" class="node">
<title>Node31</title>
<g id="a_node31"><a xlink:title=" ">
<polygon fill="white" stroke="#bfbfbf" points="544.97,-112.5 544.97,-131.5 653.97,-131.5 653.97,-112.5 544.97,-112.5"/>
<text text-anchor="middle" x="599.47" y="-119.5" font-family="Helvetica,sans-Serif" font-size="10.00">h2lib/parameters.h</text>
</a>
</g>
</g>
<!-- Node30&#45;&gt;Node31 -->
<g id="edge41" class="edge">
<title>Node30&#45;&gt;Node31</title>
<path fill="none" stroke="midnightblue" d="M599.47,-168.08C599.47,-161.01 599.47,-150.86 599.47,-141.99"/>
<polygon fill="midnightblue" stroke="midnightblue" points="602.97,-141.75 599.47,-131.75 595.97,-141.75 602.97,-141.75"/>
</g>
<!-- Node32 -->
<g id="node32" class="node">
<title>Node32</title>
<g id="a_node32"><a xlink:title=" ">
<polygon fill="white" stroke="#bfbfbf" points="672.47,-112.5 672.47,-131.5 764.47,-131.5 764.47,-112.5 672.47,-112.5"/>
<text text-anchor="middle" x="718.47" y="-119.5" font-family="Helvetica,sans-Serif" font-size="10.00">h2lib/reporter.h</text>
</a>
</g>
</g>
<!-- Node30&#45;&gt;Node32 -->
<g id="edge42" class="edge">
<title>Node30&#45;&gt;Node32</title>
<path fill="none" stroke="midnightblue" d="M618.32,-168.44C637.73,-159.64 668.2,-145.81 690.43,-135.72"/>
<polygon fill="midnightblue" stroke="midnightblue" points="692.04,-138.84 699.7,-131.52 689.15,-132.46 692.04,-138.84"/>
</g>
<!-- Node33 -->
<g id="node33" class="node">
<title>Node33</title>
<g id="a_node33"><a xlink:href="timing_8h.html" target="_top" xlink:title=" ">
<polygon fill="white" stroke="black" points="782.97,-112.5 782.97,-131.5 839.97,-131.5 839.97,-112.5 782.97,-112.5"/>
<text text-anchor="middle" x="811.47" y="-119.5" font-family="Helvetica,sans-Serif" font-size="10.00">timing.h</text>
</a>
</g>
</g>
<!-- Node30&#45;&gt;Node33 -->
<g id="edge45" class="edge">
<title>Node30&#45;&gt;Node33</title>
<path fill="none" stroke="midnightblue" d="M630.75,-169.03C668.55,-159.4 732.14,-143.21 772.93,-132.82"/>
<polygon fill="midnightblue" stroke="midnightblue" points="773.95,-136.17 782.78,-130.31 772.22,-129.38 773.95,-136.17"/>
</g>
<!-- Node33&#45;&gt;Node6 -->
<g id="edge49" class="edge">
<title>Node33&#45;&gt;Node6</title>
<path fill="none" stroke="midnightblue" d="M782.89,-113.97C779.72,-113.27 776.53,-112.6 773.47,-112 678.59,-93.56 565.33,-78.1 510.86,-71.07"/>
<polygon fill="midnightblue" stroke="midnightblue" points="511.14,-67.57 500.78,-69.77 510.25,-74.52 511.14,-67.57"/>
</g>
<!-- Node33&#45;&gt;Node21 -->
<g id="edge48" class="edge">
<title>Node33&#45;&gt;Node21</title>
<path fill="none" stroke="midnightblue" d="M817.08,-112.08C821.83,-104.53 828.79,-93.49 834.62,-84.23"/>
<polygon fill="midnightblue" stroke="midnightblue" points="837.59,-86.08 839.96,-75.75 831.67,-82.35 837.59,-86.08"/>
</g>
<!-- Node34 -->
<g id="node34" class="node">
<title>Node34</title>
<g id="a_node34"><a xlink:title=" ">
<polygon fill="white" stroke="#bfbfbf" points="701.97,-56.5 701.97,-75.5 748.97,-75.5 748.97,-56.5 701.97,-56.5"/>
<text text-anchor="middle" x="725.47" y="-63.5" font-family="Helvetica,sans-Serif" font-size="10.00">cmath</text>
</a>
</g>
</g>
<!-- Node33&#45;&gt;Node34 -->
<g id="edge46" class="edge">
<title>Node33&#45;&gt;Node34</title>
<path fill="none" stroke="midnightblue" d="M797.65,-112.32C784.23,-103.9 763.64,-90.97 747.88,-81.07"/>
<polygon fill="midnightblue" stroke="midnightblue" points="749.58,-78.01 739.25,-75.65 745.86,-83.94 749.58,-78.01"/>
</g>
<!-- Node35 -->
<g id="node35" class="node">
<title>Node35</title>
<g id="a_node35"><a xlink:title=" ">
<polygon fill="white" stroke="#bfbfbf" points="767.47,-56.5 767.47,-75.5 811.47,-75.5 811.47,-56.5 767.47,-56.5"/>
<text text-anchor="middle" x="789.47" y="-63.5" font-family="Helvetica,sans-Serif" font-size="10.00">ctime</text>
</a>
</g>
</g>
<!-- Node33&#45;&gt;Node35 -->
<g id="edge47" class="edge">
<title>Node33&#45;&gt;Node35</title>
<path fill="none" stroke="midnightblue" d="M807.83,-112.08C804.85,-104.77 800.54,-94.18 796.84,-85.1"/>
<polygon fill="midnightblue" stroke="midnightblue" points="800.05,-83.69 793.03,-75.75 793.56,-86.33 800.05,-83.69"/>
</g>
</g>
</svg>
