<?xml version="1.0" encoding="UTF-8" standalone="no"?>
<!DOCTYPE svg PUBLIC "-//W3C//DTD SVG 1.1//EN"
 "http://www.w3.org/Graphics/SVG/1.1/DTD/svg11.dtd">
<!-- Generated by graphviz version 2.43.0 (0)
 -->
<!-- Title: MainNamespace::parseNodesPhysical Pages: 1 -->
<svg width="774pt" height="72pt"
 viewBox="0.00 0.00 774.00 71.50" xmlns="http://www.w3.org/2000/svg" xmlns:xlink="http://www.w3.org/1999/xlink">
<g id="graph0" class="graph" transform="scale(1 1) rotate(0) translate(4 67.5)">
<title>MainNamespace::parseNodesPhysical</title>
<polygon fill="white" stroke="transparent" points="-4,4 -4,-67.5 770,-67.5 770,4 -4,4"/>
<!-- Node1 -->
<g id="node1" class="node">
<title>Node1</title>
<g id="a_node1"><a xlink:title=" ">
<polygon fill="#bfbfbf" stroke="black" points="0,-14 0,-44 162,-44 162,-14 0,-14"/>
<text text-anchor="start" x="8" y="-32" font-family="Helvetica,sans-Serif" font-size="10.00">MainNamespace::parseNodes</text>
<text text-anchor="middle" x="81" y="-21" font-family="Helvetica,sans-Serif" font-size="10.00">Physical</text>
</a>
</g>
</g>
<!-- Node2 -->
<g id="node2" class="node">
<title>Node2</title>
<g id="a_node2"><a xlink:href="namespace_main_namespace_1_1_logger.html#afbb4cc2d8b498e71fcb228f0da8309a1" target="_top" xlink:title=" ">
<polygon fill="white" stroke="black" points="435,-38.5 435,-57.5 593,-57.5 593,-38.5 435,-38.5"/>
<text text-anchor="middle" x="514" y="-45.5" font-family="Helvetica,sans-Serif" font-size="10.00">MainNamespace::Logger::log</text>
</a>
</g>
</g>
<!-- Node1&#45;&gt;Node2 -->
<g id="edge1" class="edge">
<title>Node1&#45;&gt;Node2</title>
<path fill="none" stroke="midnightblue" d="M162.06,-32.53C236.61,-35.82 347.54,-40.71 424.65,-44.11"/>
<polygon fill="midnightblue" stroke="midnightblue" points="424.68,-47.61 434.82,-44.55 424.99,-40.62 424.68,-47.61"/>
</g>
<!-- Node4 -->
<g id="node4" class="node">
<title>Node4</title>
<g id="a_node4"><a xlink:href="namespace_main_namespace.html#a5ff9eb55a67d7471d1293fd26d21e347" target="_top" xlink:title=" ">
<polygon fill="white" stroke="black" points="198,-0.5 198,-19.5 399,-19.5 399,-0.5 198,-0.5"/>
<text text-anchor="middle" x="298.5" y="-7.5" font-family="Helvetica,sans-Serif" font-size="10.00">MainNamespace::parsePhysicalName</text>
</a>
</g>
</g>
<!-- Node1&#45;&gt;Node4 -->
<g id="edge3" class="edge">
<title>Node1&#45;&gt;Node4</title>
<path fill="none" stroke="midnightblue" d="M162.24,-21.93C170.59,-21.19 179.17,-20.43 187.76,-19.68"/>
<polygon fill="midnightblue" stroke="midnightblue" points="188.19,-23.15 197.85,-18.79 187.58,-16.18 188.19,-23.15"/>
</g>
<!-- Node3 -->
<g id="node3" class="node">
<title>Node3</title>
<g id="a_node3"><a xlink:href="namespace_main_namespace_1_1_logger.html#af052b0198f333fca77f0837a511ec7f7" target="_top" xlink:title=" ">
<polygon fill="white" stroke="black" points="629,-33 629,-63 766,-63 766,-33 629,-33"/>
<text text-anchor="start" x="637" y="-51" font-family="Helvetica,sans-Serif" font-size="10.00">MainNamespace::Logger</text>
<text text-anchor="middle" x="697.5" y="-40" font-family="Helvetica,sans-Serif" font-size="10.00">::forwardLog</text>
</a>
</g>
</g>
<!-- Node2&#45;&gt;Node3 -->
<g id="edge2" class="edge">
<title>Node2&#45;&gt;Node3</title>
<path fill="none" stroke="midnightblue" d="M593.03,-48C601.5,-48 610.12,-48 618.59,-48"/>
<polygon fill="midnightblue" stroke="midnightblue" points="618.82,-51.5 628.82,-48 618.82,-44.5 618.82,-51.5"/>
</g>
<!-- Node4&#45;&gt;Node2 -->
<g id="edge4" class="edge">
<title>Node4&#45;&gt;Node2</title>
<path fill="none" stroke="midnightblue" d="M353.1,-19.54C382.29,-24.73 418.59,-31.2 449.22,-36.65"/>
<polygon fill="midnightblue" stroke="midnightblue" points="448.92,-40.15 459.38,-38.46 450.15,-33.26 448.92,-40.15"/>
</g>
<!-- Node5 -->
<g id="node5" class="node">
<title>Node5</title>
<g id="a_node5"><a xlink:href="namespace_main_namespace.html#a8104aa37d7d31758ac725060a96f07d9" target="_top" xlink:title=" ">
<polygon fill="white" stroke="black" points="452,-0.5 452,-19.5 576,-19.5 576,-0.5 452,-0.5"/>
<text text-anchor="middle" x="514" y="-7.5" font-family="Helvetica,sans-Serif" font-size="10.00">MainNamespace::size</text>
</a>
</g>
</g>
<!-- Node4&#45;&gt;Node5 -->
<g id="edge5" class="edge">
<title>Node4&#45;&gt;Node5</title>
<path fill="none" stroke="midnightblue" d="M399.06,-10C413.44,-10 428,-10 441.68,-10"/>
<polygon fill="midnightblue" stroke="midnightblue" points="441.95,-13.5 451.95,-10 441.95,-6.5 441.95,-13.5"/>
</g>
</g>
</svg>
