<?xml version="1.0" encoding="UTF-8" standalone="no"?>
<!DOCTYPE svg PUBLIC "-//W3C//DTD SVG 1.1//EN"
 "http://www.w3.org/Graphics/SVG/1.1/DTD/svg11.dtd">
<!-- Generated by graphviz version 2.43.0 (0)
 -->
<!-- Title: MainNamespace::createFakeProgressBar Pages: 1 -->
<svg width="381pt" height="186pt"
 viewBox="0.00 0.00 381.00 186.00" xmlns="http://www.w3.org/2000/svg" xmlns:xlink="http://www.w3.org/1999/xlink">
<g id="graph0" class="graph" transform="scale(1 1) rotate(0) translate(4 182)">
<title>MainNamespace::createFakeProgressBar</title>
<polygon fill="white" stroke="transparent" points="-4,4 -4,-182 377,-182 377,4 -4,4"/>
<!-- Node1 -->
<g id="node1" class="node">
<title>Node1</title>
<g id="a_node1"><a xlink:title=" ">
<polygon fill="#bfbfbf" stroke="black" points="0,-73.5 0,-103.5 158,-103.5 158,-73.5 0,-73.5"/>
<text text-anchor="start" x="8" y="-91.5" font-family="Helvetica,sans-Serif" font-size="10.00">MainNamespace::createFake</text>
<text text-anchor="middle" x="79" y="-80.5" font-family="Helvetica,sans-Serif" font-size="10.00">ProgressBar</text>
</a>
</g>
</g>
<!-- Node2 -->
<g id="node2" class="node">
<title>Node2</title>
<g id="a_node2"><a xlink:href="namespace_main_namespace_1_1_reporter_helper.html#ab03457ea13f7033e5fb65a5dc2b1ef84" target="_top" xlink:title=" ">
<polygon fill="white" stroke="black" points="194,-147.5 194,-177.5 373,-177.5 373,-147.5 194,-147.5"/>
<text text-anchor="start" x="202" y="-165.5" font-family="Helvetica,sans-Serif" font-size="10.00">MainNamespace::ReporterHelper</text>
<text text-anchor="middle" x="283.5" y="-154.5" font-family="Helvetica,sans-Serif" font-size="10.00">::fakeBegin</text>
</a>
</g>
</g>
<!-- Node1&#45;&gt;Node2 -->
<g id="edge1" class="edge">
<title>Node1&#45;&gt;Node2</title>
<path fill="none" stroke="midnightblue" d="M110.95,-103.57C133.6,-114.23 165.26,-128.36 194,-138.5 199.91,-140.58 206.1,-142.6 212.34,-144.51"/>
<polygon fill="midnightblue" stroke="midnightblue" points="211.56,-147.93 222.15,-147.42 213.56,-141.22 211.56,-147.93"/>
</g>
<!-- Node3 -->
<g id="node3" class="node">
<title>Node3</title>
<g id="a_node3"><a xlink:href="namespace_main_namespace_1_1_reporter_helper.html#a6ce5043472b91a271bfc1fa1aab5c943" target="_top" xlink:title=" ">
<polygon fill="white" stroke="black" points="194,-98.5 194,-128.5 373,-128.5 373,-98.5 194,-98.5"/>
<text text-anchor="start" x="202" y="-116.5" font-family="Helvetica,sans-Serif" font-size="10.00">MainNamespace::ReporterHelper</text>
<text text-anchor="middle" x="283.5" y="-105.5" font-family="Helvetica,sans-Serif" font-size="10.00">::fakeEnd</text>
</a>
</g>
</g>
<!-- Node1&#45;&gt;Node3 -->
<g id="edge2" class="edge">
<title>Node1&#45;&gt;Node3</title>
<path fill="none" stroke="midnightblue" d="M158,-98.13C166.41,-99.17 175.05,-100.23 183.66,-101.3"/>
<polygon fill="midnightblue" stroke="midnightblue" points="183.39,-104.79 193.74,-102.54 184.24,-97.84 183.39,-104.79"/>
</g>
<!-- Node4 -->
<g id="node4" class="node">
<title>Node4</title>
<g id="a_node4"><a xlink:href="namespace_main_namespace_1_1_reporter_helper.html#a83c040485c52fc852c29a65739686c95" target="_top" xlink:title=" ">
<polygon fill="white" stroke="black" points="194,-49.5 194,-79.5 373,-79.5 373,-49.5 194,-49.5"/>
<text text-anchor="start" x="202" y="-67.5" font-family="Helvetica,sans-Serif" font-size="10.00">MainNamespace::ReporterHelper</text>
<text text-anchor="middle" x="283.5" y="-56.5" font-family="Helvetica,sans-Serif" font-size="10.00">::fakeStep</text>
</a>
</g>
</g>
<!-- Node1&#45;&gt;Node4 -->
<g id="edge3" class="edge">
<title>Node1&#45;&gt;Node4</title>
<path fill="none" stroke="midnightblue" d="M158,-79.26C166.41,-78.26 175.05,-77.24 183.66,-76.21"/>
<polygon fill="midnightblue" stroke="midnightblue" points="184.22,-79.67 193.74,-75.02 183.4,-72.72 184.22,-79.67"/>
</g>
<!-- Node5 -->
<g id="node5" class="node">
<title>Node5</title>
<g id="a_node5"><a xlink:href="namespace_main_namespace_1_1_reporter_helper.html#a83ff3b5632b0f86c51bc7184fb74ec5a" target="_top" xlink:title=" ">
<polygon fill="white" stroke="black" points="194,-0.5 194,-30.5 373,-30.5 373,-0.5 194,-0.5"/>
<text text-anchor="start" x="202" y="-18.5" font-family="Helvetica,sans-Serif" font-size="10.00">MainNamespace::ReporterHelper</text>
<text text-anchor="middle" x="283.5" y="-7.5" font-family="Helvetica,sans-Serif" font-size="10.00">::fakeUninit</text>
</a>
</g>
</g>
<!-- Node1&#45;&gt;Node5 -->
<g id="edge4" class="edge">
<title>Node1&#45;&gt;Node5</title>
<path fill="none" stroke="midnightblue" d="M113,-73.33C135.54,-63.29 166.23,-50.23 194,-40.5 200.84,-38.11 208.03,-35.77 215.24,-33.56"/>
<polygon fill="midnightblue" stroke="midnightblue" points="216.48,-36.84 225.05,-30.62 214.46,-30.14 216.48,-36.84"/>
</g>
</g>
</svg>
