<?xml version="1.0" encoding="UTF-8" standalone="no"?>
<!DOCTYPE svg PUBLIC "-//W3C//DTD SVG 1.1//EN"
 "http://www.w3.org/Graphics/SVG/1.1/DTD/svg11.dtd">
<!-- Generated by graphviz version 2.43.0 (0)
 -->
<!-- Title: MainNamespace::size Pages: 1 -->
<svg width="1133pt" height="413pt"
 viewBox="0.00 0.00 1133.00 412.50" xmlns="http://www.w3.org/2000/svg" xmlns:xlink="http://www.w3.org/1999/xlink">
<g id="graph0" class="graph" transform="scale(1 1) rotate(0) translate(4 408.5)">
<title>MainNamespace::size</title>
<polygon fill="white" stroke="transparent" points="-4,4 -4,-408.5 1129,-408.5 1129,4 -4,4"/>
<!-- Node1 -->
<g id="node1" class="node">
<title>Node1</title>
<g id="a_node1"><a xlink:title=" ">
<polygon fill="#bfbfbf" stroke="black" points="1001,-121 1001,-140 1125,-140 1125,-121 1001,-121"/>
<text text-anchor="middle" x="1063" y="-128" font-family="Helvetica,sans-Serif" font-size="10.00">MainNamespace::size</text>
</a>
</g>
</g>
<!-- Node2 -->
<g id="node2" class="node">
<title>Node2</title>
<g id="a_node2"><a xlink:href="classlyra_1_1detail_1_1token__iterator.html#ac3094a0243c70f8cd61ae7b0fb48eaa4" target="_top" xlink:title=" ">
<polygon fill="white" stroke="black" points="798.5,-292.5 798.5,-322.5 930.5,-322.5 930.5,-292.5 798.5,-292.5"/>
<text text-anchor="start" x="806.5" y="-310.5" font-family="Helvetica,sans-Serif" font-size="10.00">lyra::detail::token</text>
<text text-anchor="middle" x="864.5" y="-299.5" font-family="Helvetica,sans-Serif" font-size="10.00">_iterator::is_prefix_char</text>
</a>
</g>
</g>
<!-- Node1&#45;&gt;Node2 -->
<g id="edge1" class="edge">
<title>Node1&#45;&gt;Node2</title>
<path fill="none" stroke="midnightblue" d="M1048.87,-148.58C1031.38,-171.94 998.7,-213.07 965,-242.5 942.62,-262.04 913.94,-280.17 893.12,-292.28"/>
<polygon fill="midnightblue" stroke="midnightblue" points="1051.87,-150.42 1055,-140.29 1046.24,-146.25 1051.87,-150.42"/>
</g>
<!-- Node4 -->
<g id="node4" class="node">
<title>Node4</title>
<g id="a_node4"><a xlink:href="classlyra_1_1detail_1_1token__iterator.html#a3f0301c7bb2bfe10f71739a26f9af219" target="_top" xlink:title=" ">
<polygon fill="white" stroke="black" points="805.5,-202.5 805.5,-232.5 923.5,-232.5 923.5,-202.5 805.5,-202.5"/>
<text text-anchor="start" x="813.5" y="-220.5" font-family="Helvetica,sans-Serif" font-size="10.00">lyra::detail::token</text>
<text text-anchor="middle" x="864.5" y="-209.5" font-family="Helvetica,sans-Serif" font-size="10.00">_iterator::is_prefixed</text>
</a>
</g>
</g>
<!-- Node1&#45;&gt;Node4 -->
<g id="edge3" class="edge">
<title>Node1&#45;&gt;Node4</title>
<path fill="none" stroke="midnightblue" d="M1034.11,-144.65C1014.85,-154.26 988.57,-167.07 965,-177.5 945.42,-186.17 923.35,-195.12 904.99,-202.35"/>
<polygon fill="midnightblue" stroke="midnightblue" points="1035.85,-147.69 1043.22,-140.08 1032.71,-141.43 1035.85,-147.69"/>
</g>
<!-- Node17 -->
<g id="node17" class="node">
<title>Node17</title>
<g id="a_node17"><a xlink:href="class_main_namespace_1_1_mesh_reader.html#a05a6ac577d6a74ddc0f355a83d7ad442" target="_top" xlink:title="Parse a gmsh mesh file into a surface3d structure. The mesh_ object is filled in the appropriate way.">
<polygon fill="white" stroke="black" points="365,-68.5 365,-98.5 530,-98.5 530,-68.5 365,-68.5"/>
<text text-anchor="start" x="373" y="-86.5" font-family="Helvetica,sans-Serif" font-size="10.00">MainNamespace::MeshReader</text>
<text text-anchor="middle" x="447.5" y="-75.5" font-family="Helvetica,sans-Serif" font-size="10.00">::parseMesh</text>
</a>
</g>
</g>
<!-- Node1&#45;&gt;Node17 -->
<g id="edge21" class="edge">
<title>Node1&#45;&gt;Node17</title>
<path fill="none" stroke="midnightblue" d="M990.86,-125.05C876.17,-116.26 651.08,-99.02 530.07,-89.75"/>
<polygon fill="midnightblue" stroke="midnightblue" points="990.69,-128.55 1000.93,-125.82 991.23,-121.57 990.69,-128.55"/>
</g>
<!-- Node20 -->
<g id="node20" class="node">
<title>Node20</title>
<g id="a_node20"><a xlink:href="namespace_main_namespace.html#a5ff9eb55a67d7471d1293fd26d21e347" target="_top" xlink:title=" ">
<polygon fill="white" stroke="black" points="764,-58 764,-77 965,-77 965,-58 764,-58"/>
<text text-anchor="middle" x="864.5" y="-65" font-family="Helvetica,sans-Serif" font-size="10.00">MainNamespace::parsePhysicalName</text>
</a>
</g>
</g>
<!-- Node1&#45;&gt;Node20 -->
<g id="edge24" class="edge">
<title>Node1&#45;&gt;Node20</title>
<path fill="none" stroke="midnightblue" d="M1028.42,-117.18C1009.86,-110.04 986.31,-101.33 965,-94.5 945.06,-88.11 922.56,-81.92 904.01,-77.08"/>
<polygon fill="midnightblue" stroke="midnightblue" points="1027.31,-120.51 1037.9,-120.86 1029.84,-113.98 1027.31,-120.51"/>
</g>
<!-- Node22 -->
<g id="node22" class="node">
<title>Node22</title>
<g id="a_node22"><a xlink:href="classlyra_1_1detail_1_1token__iterator.html#a4b9804103166e371b0adadc84ff9368d" target="_top" xlink:title=" ">
<polygon fill="white" stroke="black" points="802,-137.5 802,-167.5 927,-167.5 927,-137.5 802,-137.5"/>
<text text-anchor="start" x="810" y="-155.5" font-family="Helvetica,sans-Serif" font-size="10.00">lyra::detail::token</text>
<text text-anchor="middle" x="864.5" y="-144.5" font-family="Helvetica,sans-Serif" font-size="10.00">_iterator::prefix_value</text>
</a>
</g>
</g>
<!-- Node1&#45;&gt;Node22 -->
<g id="edge27" class="edge">
<title>Node1&#45;&gt;Node22</title>
<path fill="none" stroke="midnightblue" d="M990.84,-138.47C970.01,-140.8 947.43,-143.33 927.24,-145.59"/>
<polygon fill="midnightblue" stroke="midnightblue" points="991.35,-141.93 1000.9,-137.34 990.58,-134.97 991.35,-141.93"/>
</g>
<!-- Node23 -->
<g id="node23" class="node">
<title>Node23</title>
<g id="a_node23"><a xlink:href="class_main_namespace_1_1_surface_1_1_single_surface.html#ae5d17671333d624db60d56cf43ffc6c5" target="_top" xlink:title="Setup cluster trees.">
<polygon fill="white" stroke="black" points="786,-3.5 786,-33.5 943,-33.5 943,-3.5 786,-3.5"/>
<text text-anchor="start" x="794" y="-21.5" font-family="Helvetica,sans-Serif" font-size="10.00">MainNamespace::Surface</text>
<text text-anchor="middle" x="864.5" y="-10.5" font-family="Helvetica,sans-Serif" font-size="10.00">::SingleSurface::setupCluster</text>
</a>
</g>
</g>
<!-- Node1&#45;&gt;Node23 -->
<g id="edge29" class="edge">
<title>Node1&#45;&gt;Node23</title>
<path fill="none" stroke="midnightblue" d="M1046.23,-113.53C1028.22,-95.08 997.08,-65.91 965,-48.5 953.98,-42.52 941.61,-37.57 929.43,-33.54"/>
<polygon fill="midnightblue" stroke="midnightblue" points="1043.88,-116.14 1053.32,-120.95 1048.94,-111.3 1043.88,-116.14"/>
</g>
<!-- Node3 -->
<g id="node3" class="node">
<title>Node3</title>
<g id="a_node3"><a xlink:href="classlyra_1_1detail_1_1token__iterator.html#afb83df54cc0e261f9cb1a23e0c3b5f5b" target="_top" xlink:title=" ">
<polygon fill="white" stroke="black" points="583.5,-333.5 583.5,-363.5 710.5,-363.5 710.5,-333.5 583.5,-333.5"/>
<text text-anchor="start" x="591.5" y="-351.5" font-family="Helvetica,sans-Serif" font-size="10.00">lyra::detail::token</text>
<text text-anchor="middle" x="647" y="-340.5" font-family="Helvetica,sans-Serif" font-size="10.00">_iterator::is_opt_prefix</text>
</a>
</g>
</g>
<!-- Node2&#45;&gt;Node3 -->
<g id="edge2" class="edge">
<title>Node2&#45;&gt;Node3</title>
<path fill="none" stroke="midnightblue" d="M788.33,-321.8C763.02,-326.62 735.06,-331.94 710.8,-336.55"/>
<polygon fill="midnightblue" stroke="midnightblue" points="789.09,-325.22 798.26,-319.91 787.78,-318.34 789.09,-325.22"/>
</g>
<!-- Node5 -->
<g id="node5" class="node">
<title>Node5</title>
<g id="a_node5"><a xlink:href="classlyra_1_1detail_1_1token__iterator.html#a8006318eb718713b45bd0c7064d3e87f" target="_top" xlink:title=" ">
<polygon fill="white" stroke="black" points="593.5,-213 593.5,-254 700.5,-254 700.5,-213 593.5,-213"/>
<text text-anchor="start" x="601.5" y="-242" font-family="Helvetica,sans-Serif" font-size="10.00">lyra::detail::token</text>
<text text-anchor="start" x="601.5" y="-231" font-family="Helvetica,sans-Serif" font-size="10.00">_iterator::has_long</text>
<text text-anchor="middle" x="647" y="-220" font-family="Helvetica,sans-Serif" font-size="10.00">_option_prefix</text>
</a>
</g>
</g>
<!-- Node4&#45;&gt;Node5 -->
<g id="edge4" class="edge">
<title>Node4&#45;&gt;Node5</title>
<path fill="none" stroke="midnightblue" d="M795.29,-222.56C764.67,-224.84 729.11,-227.48 700.6,-229.59"/>
<polygon fill="midnightblue" stroke="midnightblue" points="795.75,-226.04 805.47,-221.81 795.23,-219.06 795.75,-226.04"/>
</g>
<!-- Node11 -->
<g id="node11" class="node">
<title>Node11</title>
<g id="a_node11"><a xlink:href="classlyra_1_1detail_1_1token__iterator.html#a368b12d3ecc2c462c24e1d8723ce5f4f" target="_top" xlink:title=" ">
<polygon fill="white" stroke="black" points="591.5,-273 591.5,-314 702.5,-314 702.5,-273 591.5,-273"/>
<text text-anchor="start" x="599.5" y="-302" font-family="Helvetica,sans-Serif" font-size="10.00">lyra::detail::token</text>
<text text-anchor="start" x="599.5" y="-291" font-family="Helvetica,sans-Serif" font-size="10.00">_iterator::has_short</text>
<text text-anchor="middle" x="647" y="-280" font-family="Helvetica,sans-Serif" font-size="10.00">_option_prefix</text>
</a>
</g>
</g>
<!-- Node4&#45;&gt;Node11 -->
<g id="edge11" class="edge">
<title>Node4&#45;&gt;Node11</title>
<path fill="none" stroke="midnightblue" d="M811.48,-235.84C778.6,-247.44 736.17,-262.41 702.77,-274.18"/>
<polygon fill="midnightblue" stroke="midnightblue" points="812.66,-239.14 820.92,-232.52 810.33,-232.54 812.66,-239.14"/>
</g>
<!-- Node15 -->
<g id="node15" class="node">
<title>Node15</title>
<g id="a_node15"><a xlink:href="classlyra_1_1opt.html#a7fca6b73465a8e266ced413fbed375aa" target="_top" xlink:title=" ">
<polygon fill="white" stroke="black" points="580.5,-175 580.5,-194 713.5,-194 713.5,-175 580.5,-175"/>
<text text-anchor="middle" x="647" y="-182" font-family="Helvetica,sans-Serif" font-size="10.00">lyra::opt::normalise_opt</text>
</a>
</g>
</g>
<!-- Node4&#45;&gt;Node15 -->
<g id="edge18" class="edge">
<title>Node4&#45;&gt;Node15</title>
<path fill="none" stroke="midnightblue" d="M795.24,-207.05C768.02,-202.88 736.89,-198.11 710.29,-194.04"/>
<polygon fill="midnightblue" stroke="midnightblue" points="795.05,-210.56 805.47,-208.61 796.11,-203.64 795.05,-210.56"/>
</g>
<!-- Node6 -->
<g id="node6" class="node">
<title>Node6</title>
<g id="a_node6"><a xlink:href="classlyra_1_1detail_1_1token__iterator.html#a11350435cee36ca42019fc81662c018f" target="_top" xlink:title=" ">
<polygon fill="white" stroke="black" points="389,-262 389,-303 506,-303 506,-262 389,-262"/>
<text text-anchor="start" x="397" y="-291" font-family="Helvetica,sans-Serif" font-size="10.00">lyra::detail::token</text>
<text text-anchor="start" x="397" y="-280" font-family="Helvetica,sans-Serif" font-size="10.00">_iterator::has_option</text>
<text text-anchor="middle" x="447.5" y="-269" font-family="Helvetica,sans-Serif" font-size="10.00">_prefix</text>
</a>
</g>
</g>
<!-- Node5&#45;&gt;Node6 -->
<g id="edge5" class="edge">
<title>Node5&#45;&gt;Node6</title>
<path fill="none" stroke="midnightblue" d="M583.34,-249.05C558.63,-255.18 530.43,-262.17 506.23,-268.18"/>
<polygon fill="midnightblue" stroke="midnightblue" points="584.47,-252.37 593.33,-246.57 582.78,-245.58 584.47,-252.37"/>
</g>
<!-- Node7 -->
<g id="node7" class="node">
<title>Node7</title>
<g id="a_node7"><a xlink:href="classlyra_1_1detail_1_1token__iterator.html#aefbced0b2cbf66ad7967b6a2891166d0" target="_top" xlink:title=" ">
<polygon fill="white" stroke="black" points="207.5,-267.5 207.5,-297.5 309.5,-297.5 309.5,-267.5 207.5,-267.5"/>
<text text-anchor="start" x="215.5" y="-285.5" font-family="Helvetica,sans-Serif" font-size="10.00">lyra::detail::token</text>
<text text-anchor="middle" x="258.5" y="-274.5" font-family="Helvetica,sans-Serif" font-size="10.00">_iterator::value</text>
</a>
</g>
</g>
<!-- Node5&#45;&gt;Node7 -->
<g id="edge10" class="edge">
<title>Node5&#45;&gt;Node7</title>
<path fill="none" stroke="midnightblue" d="M582.96,-234C525.71,-235.34 439.15,-239.6 365,-252.5 344.83,-256.01 323,-261.86 304.46,-267.47"/>
<polygon fill="midnightblue" stroke="midnightblue" points="583.38,-237.49 593.3,-233.78 583.23,-230.49 583.38,-237.49"/>
</g>
<!-- Node8 -->
<g id="node8" class="node">
<title>Node8</title>
<g id="a_node8"><a xlink:href="classlyra_1_1detail_1_1token__iterator.html#a7e4904a6b3beafa1280358cdd6002353" target="_top" xlink:title=" ">
<polygon fill="white" stroke="black" points="396.5,-174.5 396.5,-204.5 498.5,-204.5 498.5,-174.5 396.5,-174.5"/>
<text text-anchor="start" x="404.5" y="-192.5" font-family="Helvetica,sans-Serif" font-size="10.00">lyra::detail::token</text>
<text text-anchor="middle" x="447.5" y="-181.5" font-family="Helvetica,sans-Serif" font-size="10.00">_iterator::option</text>
</a>
</g>
</g>
<!-- Node5&#45;&gt;Node8 -->
<g id="edge7" class="edge">
<title>Node5&#45;&gt;Node8</title>
<path fill="none" stroke="midnightblue" d="M583.46,-219.57C556.1,-213.47 524.42,-206.41 498.64,-200.67"/>
<polygon fill="midnightblue" stroke="midnightblue" points="582.81,-223.01 593.33,-221.77 584.33,-216.18 582.81,-223.01"/>
</g>
<!-- Node6&#45;&gt;Node7 -->
<g id="edge6" class="edge">
<title>Node6&#45;&gt;Node7</title>
<path fill="none" stroke="midnightblue" d="M378.58,-282.5C355.8,-282.5 330.84,-282.5 309.67,-282.5"/>
<polygon fill="midnightblue" stroke="midnightblue" points="378.87,-286 388.87,-282.5 378.87,-279 378.87,-286"/>
</g>
<!-- Node9 -->
<g id="node9" class="node">
<title>Node9</title>
<g id="a_node9"><a xlink:href="classlyra_1_1opt.html#a320fdddd60a89469dca1ba3c07e7bf20" target="_top" xlink:title=" ">
<polygon fill="white" stroke="black" points="213.5,-158 213.5,-177 303.5,-177 303.5,-158 213.5,-158"/>
<text text-anchor="middle" x="258.5" y="-165" font-family="Helvetica,sans-Serif" font-size="10.00">lyra::opt::parse</text>
</a>
</g>
</g>
<!-- Node8&#45;&gt;Node9 -->
<g id="edge8" class="edge">
<title>Node8&#45;&gt;Node9</title>
<path fill="none" stroke="midnightblue" d="M386.32,-182.42C359.45,-179.26 328.36,-175.6 303.69,-172.7"/>
<polygon fill="midnightblue" stroke="midnightblue" points="386.05,-185.91 396.39,-183.6 386.86,-178.96 386.05,-185.91"/>
</g>
<!-- Node10 -->
<g id="node10" class="node">
<title>Node10</title>
<g id="a_node10"><a xlink:href="single__parser__run__test_8cpp.html#ae66f6b31b5ad750f1fe042a706a4e3d4" target="_top" xlink:title=" ">
<polygon fill="white" stroke="black" points="55.5,-158 55.5,-177 96.5,-177 96.5,-158 55.5,-158"/>
<text text-anchor="middle" x="76" y="-165" font-family="Helvetica,sans-Serif" font-size="10.00">main</text>
</a>
</g>
</g>
<!-- Node9&#45;&gt;Node10 -->
<g id="edge9" class="edge">
<title>Node9&#45;&gt;Node10</title>
<path fill="none" stroke="midnightblue" d="M203.01,-167.5C167.14,-167.5 122.28,-167.5 96.91,-167.5"/>
<polygon fill="midnightblue" stroke="midnightblue" points="203.34,-171 213.34,-167.5 203.34,-164 203.34,-171"/>
</g>
<!-- Node11&#45;&gt;Node6 -->
<g id="edge12" class="edge">
<title>Node11&#45;&gt;Node6</title>
<path fill="none" stroke="midnightblue" d="M581.09,-289.88C556.89,-288.54 529.61,-287.02 506.12,-285.71"/>
<polygon fill="midnightblue" stroke="midnightblue" points="581.07,-293.39 591.25,-290.45 581.46,-286.4 581.07,-293.39"/>
</g>
<!-- Node11&#45;&gt;Node7 -->
<g id="edge17" class="edge">
<title>Node11&#45;&gt;Node7</title>
<path fill="none" stroke="midnightblue" d="M581.19,-306.02C564.57,-308.71 546.68,-311.14 530,-312.5 456.91,-318.45 437.63,-322.63 365,-312.5 343.88,-309.56 321.04,-303.44 302.04,-297.5"/>
<polygon fill="midnightblue" stroke="midnightblue" points="582.06,-309.42 591.35,-304.32 580.91,-302.52 582.06,-309.42"/>
</g>
<!-- Node11&#45;&gt;Node8 -->
<g id="edge13" class="edge">
<title>Node11&#45;&gt;Node8</title>
<path fill="none" stroke="midnightblue" d="M581.54,-270.64C576.22,-268.36 570.98,-265.97 566,-263.5 530.8,-246.04 492.79,-220.81 469.82,-204.79"/>
<polygon fill="midnightblue" stroke="midnightblue" points="580.57,-274.03 591.15,-274.63 583.25,-267.56 580.57,-274.03"/>
</g>
<!-- Node12 -->
<g id="node12" class="node">
<title>Node12</title>
<g id="a_node12"><a xlink:href="classlyra_1_1detail_1_1token__iterator.html#a017af8979ef14eac5c1fd010b1391035" target="_top" xlink:title=" ">
<polygon fill="white" stroke="black" points="396.5,-360.5 396.5,-390.5 498.5,-390.5 498.5,-360.5 396.5,-360.5"/>
<text text-anchor="start" x="404.5" y="-378.5" font-family="Helvetica,sans-Serif" font-size="10.00">lyra::detail::token</text>
<text text-anchor="middle" x="447.5" y="-367.5" font-family="Helvetica,sans-Serif" font-size="10.00">_iterator::pop</text>
</a>
</g>
</g>
<!-- Node11&#45;&gt;Node12 -->
<g id="edge14" class="edge">
<title>Node11&#45;&gt;Node12</title>
<path fill="none" stroke="midnightblue" d="M582.05,-317.23C576.57,-319.58 571.16,-322.02 566,-324.5 549.31,-332.54 546.76,-337.6 530,-345.5 518.54,-350.9 505.83,-355.98 493.92,-360.38"/>
<polygon fill="midnightblue" stroke="midnightblue" points="583.41,-320.45 591.28,-313.37 580.71,-314 583.41,-320.45"/>
</g>
<!-- Node13 -->
<g id="node13" class="node">
<title>Node13</title>
<g id="a_node13"><a xlink:href="classlyra_1_1literal.html#a0b616706829da82299d42c4a188d6408" target="_top" xlink:title=" ">
<polygon fill="white" stroke="black" points="207,-385 207,-404 310,-404 310,-385 207,-385"/>
<text text-anchor="middle" x="258.5" y="-392" font-family="Helvetica,sans-Serif" font-size="10.00">lyra::literal::parse</text>
</a>
</g>
</g>
<!-- Node12&#45;&gt;Node13 -->
<g id="edge15" class="edge">
<title>Node12&#45;&gt;Node13</title>
<path fill="none" stroke="midnightblue" d="M386.43,-381.6C361.81,-384.1 333.62,-386.97 310.08,-389.36"/>
<polygon fill="midnightblue" stroke="midnightblue" points="386.79,-385.08 396.39,-380.59 386.08,-378.12 386.79,-385.08"/>
</g>
<!-- Node14 -->
<g id="node14" class="node">
<title>Node14</title>
<g id="a_node14"><a xlink:href="classlyra_1_1arg.html#a027ca631a2fe3824db141195371b0349" target="_top" xlink:title=" ">
<polygon fill="white" stroke="black" points="213.5,-347 213.5,-366 303.5,-366 303.5,-347 213.5,-347"/>
<text text-anchor="middle" x="258.5" y="-354" font-family="Helvetica,sans-Serif" font-size="10.00">lyra::arg::parse</text>
</a>
</g>
</g>
<!-- Node12&#45;&gt;Node14 -->
<g id="edge16" class="edge">
<title>Node12&#45;&gt;Node14</title>
<path fill="none" stroke="midnightblue" d="M386.32,-369.39C359.45,-366.66 328.36,-363.5 303.69,-360.99"/>
<polygon fill="midnightblue" stroke="midnightblue" points="386.08,-372.88 396.39,-370.41 386.79,-365.92 386.08,-372.88"/>
</g>
<!-- Node16 -->
<g id="node16" class="node">
<title>Node16</title>
<g id="a_node16"><a xlink:href="classlyra_1_1opt.html#ae2b0df0a8a61ea576348d56479530ffb" target="_top" xlink:title=" ">
<polygon fill="white" stroke="black" points="394,-136 394,-155 501,-155 501,-136 394,-136"/>
<text text-anchor="middle" x="447.5" y="-143" font-family="Helvetica,sans-Serif" font-size="10.00">lyra::opt::is_match</text>
</a>
</g>
</g>
<!-- Node15&#45;&gt;Node16 -->
<g id="edge19" class="edge">
<title>Node15&#45;&gt;Node16</title>
<path fill="none" stroke="midnightblue" d="M587.69,-172.99C558.71,-167.26 524.11,-160.43 496.66,-155.01"/>
<polygon fill="midnightblue" stroke="midnightblue" points="587.2,-176.46 597.69,-174.96 588.55,-169.59 587.2,-176.46"/>
</g>
<!-- Node16&#45;&gt;Node9 -->
<g id="edge20" class="edge">
<title>Node16&#45;&gt;Node9</title>
<path fill="none" stroke="midnightblue" d="M383.69,-152.89C357.48,-155.97 327.65,-159.48 303.79,-162.29"/>
<polygon fill="midnightblue" stroke="midnightblue" points="384.39,-156.33 393.91,-151.69 383.57,-149.38 384.39,-156.33"/>
</g>
<!-- Node18 -->
<g id="node18" class="node">
<title>Node18</title>
<g id="a_node18"><a xlink:href="namespace_main_namespace_1_1_surface.html#a4c0c8122fd15716950c73989302ffdc3" target="_top" xlink:title=" ">
<polygon fill="white" stroke="black" points="188,-68.5 188,-98.5 329,-98.5 329,-68.5 188,-68.5"/>
<text text-anchor="start" x="196" y="-86.5" font-family="Helvetica,sans-Serif" font-size="10.00">MainNamespace::Surface</text>
<text text-anchor="middle" x="258.5" y="-75.5" font-family="Helvetica,sans-Serif" font-size="10.00">::getFromFile</text>
</a>
</g>
</g>
<!-- Node17&#45;&gt;Node18 -->
<g id="edge22" class="edge">
<title>Node17&#45;&gt;Node18</title>
<path fill="none" stroke="midnightblue" d="M354.67,-83.5C346.07,-83.5 337.44,-83.5 329.09,-83.5"/>
<polygon fill="midnightblue" stroke="midnightblue" points="354.75,-87 364.75,-83.5 354.75,-80 354.75,-87"/>
</g>
<!-- Node19 -->
<g id="node19" class="node">
<title>Node19</title>
<g id="a_node19"><a xlink:href="class_main_namespace_1_1_surface_1_1_multi_surface.html#a3f8d56c9aa2c53fdbb578f534bd523e5" target="_top" xlink:title="Contructor. Parse a mesh file in gmsh format and build the global mesh.">
<polygon fill="white" stroke="black" points="0,-68.5 0,-98.5 152,-98.5 152,-68.5 0,-68.5"/>
<text text-anchor="start" x="8" y="-86.5" font-family="Helvetica,sans-Serif" font-size="10.00">MainNamespace::Surface</text>
<text text-anchor="middle" x="76" y="-75.5" font-family="Helvetica,sans-Serif" font-size="10.00">::MultiSurface::MultiSurface</text>
</a>
</g>
</g>
<!-- Node18&#45;&gt;Node19 -->
<g id="edge23" class="edge">
<title>Node18&#45;&gt;Node19</title>
<path fill="none" stroke="midnightblue" d="M177.71,-83.5C169.22,-83.5 160.62,-83.5 152.19,-83.5"/>
<polygon fill="midnightblue" stroke="midnightblue" points="177.97,-87 187.97,-83.5 177.97,-80 177.97,-87"/>
</g>
<!-- Node21 -->
<g id="node21" class="node">
<title>Node21</title>
<g id="a_node21"><a xlink:href="namespace_main_namespace.html#ad7a4c5eb8035073775288c956070c5f3" target="_top" xlink:title=" ">
<polygon fill="white" stroke="black" points="566,-49.5 566,-79.5 728,-79.5 728,-49.5 566,-49.5"/>
<text text-anchor="start" x="574" y="-67.5" font-family="Helvetica,sans-Serif" font-size="10.00">MainNamespace::parseNodes</text>
<text text-anchor="middle" x="647" y="-56.5" font-family="Helvetica,sans-Serif" font-size="10.00">Physical</text>
</a>
</g>
</g>
<!-- Node20&#45;&gt;Node21 -->
<g id="edge25" class="edge">
<title>Node20&#45;&gt;Node21</title>
<path fill="none" stroke="midnightblue" d="M753.79,-65.97C745.13,-65.85 736.48,-65.73 728.08,-65.61"/>
<polygon fill="midnightblue" stroke="midnightblue" points="753.9,-69.47 763.95,-66.11 754,-62.48 753.9,-69.47"/>
</g>
<!-- Node21&#45;&gt;Node17 -->
<g id="edge26" class="edge">
<title>Node21&#45;&gt;Node17</title>
<path fill="none" stroke="midnightblue" d="M555.96,-73.16C547.4,-73.99 538.74,-74.82 530.27,-75.63"/>
<polygon fill="midnightblue" stroke="midnightblue" points="556.34,-76.64 565.95,-72.2 555.66,-69.67 556.34,-76.64"/>
</g>
<!-- Node22&#45;&gt;Node8 -->
<g id="edge28" class="edge">
<title>Node22&#45;&gt;Node8</title>
<path fill="none" stroke="midnightblue" d="M791.53,-152.47C731.12,-153.21 642.64,-156.06 566,-165.5 543.68,-168.25 519.28,-172.95 498.53,-177.47"/>
<polygon fill="midnightblue" stroke="midnightblue" points="791.77,-155.97 801.73,-152.37 791.69,-148.97 791.77,-155.97"/>
</g>
<!-- Node24 -->
<g id="node24" class="node">
<title>Node24</title>
<g id="a_node24"><a xlink:href="class_main_namespace_1_1_surface_1_1_single_surface.html#a2cb253a6c5cc5d0c66ead47e5db3233b" target="_top" xlink:title="Construct an object to manage data associated to a closed boundary.">
<polygon fill="white" stroke="black" points="566,-0.5 566,-30.5 728,-30.5 728,-0.5 566,-0.5"/>
<text text-anchor="start" x="574" y="-18.5" font-family="Helvetica,sans-Serif" font-size="10.00">MainNamespace::Surface</text>
<text text-anchor="middle" x="647" y="-7.5" font-family="Helvetica,sans-Serif" font-size="10.00">::SingleSurface::SingleSurface</text>
</a>
</g>
</g>
<!-- Node23&#45;&gt;Node24 -->
<g id="edge30" class="edge">
<title>Node23&#45;&gt;Node24</title>
<path fill="none" stroke="midnightblue" d="M775.51,-17.28C759.87,-17.06 743.64,-16.83 728.23,-16.62"/>
<polygon fill="midnightblue" stroke="midnightblue" points="775.65,-20.78 785.7,-17.42 775.75,-13.78 775.65,-20.78"/>
</g>
</g>
</svg>
