<?xml version="1.0" encoding="UTF-8" standalone="no"?>
<!DOCTYPE svg PUBLIC "-//W3C//DTD SVG 1.1//EN"
 "http://www.w3.org/Graphics/SVG/1.1/DTD/svg11.dtd">
<!-- Generated by graphviz version 2.43.0 (0)
 -->
<!-- Title: MainNamespace::Logger::deindent Pages: 1 -->
<svg width="510pt" height="133pt"
 viewBox="0.00 0.00 510.00 132.79" xmlns="http://www.w3.org/2000/svg" xmlns:xlink="http://www.w3.org/1999/xlink">
<g id="graph0" class="graph" transform="scale(1 1) rotate(0) translate(4 128.79)">
<title>MainNamespace::Logger::deindent</title>
<polygon fill="white" stroke="transparent" points="-4,4 -4,-128.79 506,-128.79 506,4 -4,4"/>
<!-- Node1 -->
<g id="node1" class="node">
<title>Node1</title>
<g id="a_node1"><a xlink:title="Decrease indentation level in the logger.">
<polygon fill="#bfbfbf" stroke="black" points="365,-55 365,-85 502,-85 502,-55 365,-55"/>
<text text-anchor="start" x="373" y="-73" font-family="Helvetica,sans-Serif" font-size="10.00">MainNamespace::Logger</text>
<text text-anchor="middle" x="433.5" y="-62" font-family="Helvetica,sans-Serif" font-size="10.00">::deindent</text>
</a>
</g>
</g>
<!-- Node2 -->
<g id="node2" class="node">
<title>Node2</title>
<g id="a_node2"><a xlink:href="class_main_namespace_1_1_surface_1_1_multi_surface.html#a3f8d56c9aa2c53fdbb578f534bd523e5" target="_top" xlink:title="Contructor. Parse a mesh file in gmsh format and build the global mesh.">
<polygon fill="white" stroke="black" points="0,-86 0,-116 152,-116 152,-86 0,-86"/>
<text text-anchor="start" x="8" y="-104" font-family="Helvetica,sans-Serif" font-size="10.00">MainNamespace::Surface</text>
<text text-anchor="middle" x="76" y="-93" font-family="Helvetica,sans-Serif" font-size="10.00">::MultiSurface::MultiSurface</text>
</a>
</g>
</g>
<!-- Node1&#45;&gt;Node2 -->
<g id="edge1" class="edge">
<title>Node1&#45;&gt;Node2</title>
<path fill="none" stroke="midnightblue" d="M398.36,-89.97C378.77,-100.27 353.31,-111.74 329,-117 269.34,-129.91 200.02,-124.04 149.2,-116"/>
<polygon fill="midnightblue" stroke="midnightblue" points="400.06,-93.03 407.19,-85.2 396.73,-86.87 400.06,-93.03"/>
</g>
<!-- Node3 -->
<g id="node3" class="node">
<title>Node3</title>
<g id="a_node3"><a xlink:href="namespace_main_namespace_1_1_surface.html#a4c0c8122fd15716950c73989302ffdc3" target="_top" xlink:title=" ">
<polygon fill="white" stroke="black" points="188,-77 188,-107 329,-107 329,-77 188,-77"/>
<text text-anchor="start" x="196" y="-95" font-family="Helvetica,sans-Serif" font-size="10.00">MainNamespace::Surface</text>
<text text-anchor="middle" x="258.5" y="-84" font-family="Helvetica,sans-Serif" font-size="10.00">::getFromFile</text>
</a>
</g>
</g>
<!-- Node1&#45;&gt;Node3 -->
<g id="edge2" class="edge">
<title>Node1&#45;&gt;Node3</title>
<path fill="none" stroke="midnightblue" d="M354.43,-79.93C346.01,-81 337.48,-82.08 329.17,-83.14"/>
<polygon fill="midnightblue" stroke="midnightblue" points="355.14,-83.37 364.62,-78.63 354.26,-76.42 355.14,-83.37"/>
</g>
<!-- Node4 -->
<g id="node4" class="node">
<title>Node4</title>
<g id="a_node4"><a xlink:href="main_8cpp.html#a3c04138a5bfe5d72780bb7e82a18e627" target="_top" xlink:title=" ">
<polygon fill="white" stroke="black" points="55.5,-28.5 55.5,-47.5 96.5,-47.5 96.5,-28.5 55.5,-28.5"/>
<text text-anchor="middle" x="76" y="-35.5" font-family="Helvetica,sans-Serif" font-size="10.00">main</text>
</a>
</g>
</g>
<!-- Node1&#45;&gt;Node4 -->
<g id="edge4" class="edge">
<title>Node1&#45;&gt;Node4</title>
<path fill="none" stroke="midnightblue" d="M354.61,-62.99C271.3,-55.49 144.67,-44.09 96.51,-39.76"/>
<polygon fill="midnightblue" stroke="midnightblue" points="354.52,-66.5 364.8,-63.91 355.15,-59.52 354.52,-66.5"/>
</g>
<!-- Node5 -->
<g id="node5" class="node">
<title>Node5</title>
<g id="a_node5"><a xlink:href="main_8cpp.html#a5d68713f22d1b3e2495b15d107ea7d21" target="_top" xlink:title=" ">
<polygon fill="white" stroke="black" points="220.5,-0.5 220.5,-19.5 296.5,-19.5 296.5,-0.5 220.5,-0.5"/>
<text text-anchor="middle" x="258.5" y="-7.5" font-family="Helvetica,sans-Serif" font-size="10.00">testProblem</text>
</a>
</g>
</g>
<!-- Node1&#45;&gt;Node5 -->
<g id="edge5" class="edge">
<title>Node1&#45;&gt;Node5</title>
<path fill="none" stroke="midnightblue" d="M379.37,-51.5C363.2,-45.87 345.37,-39.68 329,-34 315.25,-29.23 299.96,-23.95 287.24,-19.56"/>
<polygon fill="midnightblue" stroke="midnightblue" points="378.61,-54.93 389.2,-54.92 380.91,-48.32 378.61,-54.93"/>
</g>
<!-- Node3&#45;&gt;Node2 -->
<g id="edge3" class="edge">
<title>Node3&#45;&gt;Node2</title>
<path fill="none" stroke="midnightblue" d="M177.71,-95.98C169.22,-96.4 160.62,-96.83 152.19,-97.25"/>
<polygon fill="midnightblue" stroke="midnightblue" points="178.16,-99.46 187.97,-95.47 177.81,-92.47 178.16,-99.46"/>
</g>
<!-- Node5&#45;&gt;Node4 -->
<g id="edge6" class="edge">
<title>Node5&#45;&gt;Node4</title>
<path fill="none" stroke="midnightblue" d="M210.02,-17.37C173.01,-23.11 123.51,-30.79 96.54,-34.97"/>
<polygon fill="midnightblue" stroke="midnightblue" points="210.76,-20.79 220.1,-15.8 209.68,-13.88 210.76,-20.79"/>
</g>
</g>
</svg>
