<?xml version="1.0" encoding="UTF-8" standalone="no"?>
<!DOCTYPE svg PUBLIC "-//W3C//DTD SVG 1.1//EN"
 "http://www.w3.org/Graphics/SVG/1.1/DTD/svg11.dtd">
<!-- Generated by graphviz version 2.43.0 (0)
 -->
<!-- Title: MainNamespace::compressRowColumnFar Pages: 1 -->
<!--zoomable 279 -->
<svg id="main" version="1.1" xmlns="http://www.w3.org/2000/svg" xmlns:xlink="http://www.w3.org/1999/xlink" xml:space="preserve" onload="init(evt)">
<style type="text/css"><![CDATA[
.edge:hover path { stroke: red; }
.edge:hover polygon { stroke: red; fill: red; }
]]></style>
<script type="text/javascript"><![CDATA[
var edges = document.getElementsByTagName('g');
if (edges && edges.length) {
  for (var i=0;i<edges.length;i++) {
    if (edges[i].id.substr(0,4)=='edge') {
      edges[i].setAttribute('class','edge');
    }
  }
}
]]></script>
        <defs>
                <circle id="rim" cx="0" cy="0" r="7"/>
                <circle id="rim2" cx="0" cy="0" r="3.5"/>
                <g id="zoomPlus">
                        <use xlink:href="#rim" fill="#404040">
                                <set attributeName="fill" to="#808080" begin="zoomplus.mouseover" end="zoomplus.mouseout"/>
                        </use>
                        <path d="M-4,0h8M0,-4v8" fill="none" stroke="white" stroke-width="1.5" pointer-events="none"/>
                </g>
                <g id="zoomMin">
                        <use xlink:href="#rim" fill="#404040">
                                <set attributeName="fill" to="#808080" begin="zoomminus.mouseover" end="zoomminus.mouseout"/>
                        </use>
                        <path d="M-4,0h8" fill="none" stroke="white" stroke-width="1.5" pointer-events="none"/>
                </g>
                <g id="dirArrow">
                        <path fill="none" stroke="white" stroke-width="1.5" d="M0,-3.0v7 M-2.5,-0.5L0,-3.0L2.5,-0.5"/>
                </g>
               <g id="resetDef">
                       <use xlink:href="#rim2" fill="#404040">
                               <set attributeName="fill" to="#808080" begin="reset.mouseover" end="reset.mouseout"/>
                       </use>
               </g>
        </defs>

<script type="text/javascript">
var viewWidth = 766;
var viewHeight = 279;
var sectionId = 'dynsection-16';
</script>
<script xlink:href="svgpan.js"/>
<svg id="graph" class="graph">
<g id="viewport">
<title>MainNamespace::compressRowColumnFar</title>
<polygon fill="white" stroke="transparent" points="-4,4 -4,-275 762,-275 762,4 -4,4"/>
<!-- Node1 -->
<g id="node1" class="node">
<title>Node1</title>
<g id="a_node1"><a xlink:title=" ">
<polygon fill="#bfbfbf" stroke="black" points="0,-145 0,-175 173,-175 173,-145 0,-145"/>
<text text-anchor="start" x="8" y="-163" font-family="Helvetica,sans-Serif" font-size="10.00">MainNamespace::compressRow</text>
<text text-anchor="middle" x="86.5" y="-152" font-family="Helvetica,sans-Serif" font-size="10.00">ColumnFar</text>
</a>
</g>
</g>
<!-- Node2 -->
<g id="node2" class="node">
<title>Node2</title>
<g id="a_node2"><a xlink:href="namespace_main_namespace.html#a4e7ea1c2ee502be36c9be19ea1c5ada3" target="_top" xlink:title=" ">
<polygon fill="white" stroke="black" points="232,-245.5 232,-264.5 354,-264.5 354,-245.5 232,-245.5"/>
<text text-anchor="middle" x="293" y="-252.5" font-family="Helvetica,sans-Serif" font-size="10.00">MainNamespace::eps</text>
</a>
</g>
</g>
<!-- Node1&#45;&gt;Node2 -->
<g id="edge1" class="edge">
<title>Node1&#45;&gt;Node2</title>
<path fill="none" stroke="midnightblue" d="M107.01,-175.11C130.12,-192.29 170.37,-220.03 209,-236 215.15,-238.54 221.7,-240.78 228.33,-242.74"/>
<polygon fill="midnightblue" stroke="midnightblue" points="227.48,-246.13 238.05,-245.41 229.33,-239.38 227.48,-246.13"/>
</g>
<!-- Node5 -->
<g id="node5" class="node">
<title>Node5</title>
<g id="a_node5"><a xlink:href="namespace_main_namespace_1_1_logger.html#afbb4cc2d8b498e71fcb228f0da8309a1" target="_top" xlink:title=" ">
<polygon fill="white" stroke="black" points="420,-76.5 420,-95.5 578,-95.5 578,-76.5 420,-76.5"/>
<text text-anchor="middle" x="499" y="-83.5" font-family="Helvetica,sans-Serif" font-size="10.00">MainNamespace::Logger::log</text>
</a>
</g>
</g>
<!-- Node1&#45;&gt;Node5 -->
<g id="edge4" class="edge">
<title>Node1&#45;&gt;Node5</title>
<path fill="none" stroke="midnightblue" d="M129.18,-144.93C152.4,-137.05 182,-127.85 209,-122 275.54,-107.57 352.05,-98.36 409.62,-92.87"/>
<polygon fill="midnightblue" stroke="midnightblue" points="410.15,-96.34 419.78,-91.92 409.5,-89.37 410.15,-96.34"/>
</g>
<!-- Node7 -->
<g id="node7" class="node">
<title>Node7</title>
<g id="a_node7"><a xlink:href="namespace_main_namespace.html#a81be07be2d5cb2aa7737c9551518e82b" target="_top" xlink:title=" ">
<polygon fill="white" stroke="black" points="211.5,-207.5 211.5,-226.5 374.5,-226.5 374.5,-207.5 211.5,-207.5"/>
<text text-anchor="middle" x="293" y="-214.5" font-family="Helvetica,sans-Serif" font-size="10.00">MainNamespace::progressBar</text>
</a>
</g>
</g>
<!-- Node1&#45;&gt;Node7 -->
<g id="edge6" class="edge">
<title>Node1&#45;&gt;Node7</title>
<path fill="none" stroke="midnightblue" d="M132.55,-175.01C155.34,-182.37 183.5,-191.11 209,-198 218.21,-200.49 228.06,-202.93 237.63,-205.2"/>
<polygon fill="midnightblue" stroke="midnightblue" points="236.94,-208.63 247.47,-207.48 238.52,-201.81 236.94,-208.63"/>
</g>
<!-- Node8 -->
<g id="node8" class="node">
<title>Node8</title>
<g id="a_node8"><a xlink:href="namespace_main_namespace.html#a616c9a4091e842c4469e1ceffc02b864" target="_top" xlink:title=" ">
<polygon fill="white" stroke="black" points="209,-36 209,-66 377,-66 377,-36 209,-36"/>
<text text-anchor="start" x="217" y="-54" font-family="Helvetica,sans-Serif" font-size="10.00">MainNamespace::reportCluster</text>
<text text-anchor="middle" x="293" y="-43" font-family="Helvetica,sans-Serif" font-size="10.00">Compression</text>
</a>
</g>
</g>
<!-- Node1&#45;&gt;Node8 -->
<g id="edge8" class="edge">
<title>Node1&#45;&gt;Node8</title>
<path fill="none" stroke="midnightblue" d="M110.21,-144.77C134.19,-129.02 173.38,-104.23 209,-86 219.98,-80.38 232.08,-74.9 243.57,-70"/>
<polygon fill="midnightblue" stroke="midnightblue" points="245.16,-73.13 253.03,-66.04 242.45,-66.68 245.16,-73.13"/>
</g>
<!-- Node11 -->
<g id="node11" class="node">
<title>Node11</title>
<g id="a_node11"><a xlink:href="namespace_main_namespace.html#a29e3c10e67bcebfcf74b31964747e0d8" target="_top" xlink:title=" ">
<polygon fill="white" stroke="black" points="213,-169.5 213,-188.5 373,-188.5 373,-169.5 213,-169.5"/>
<text text-anchor="middle" x="293" y="-176.5" font-family="Helvetica,sans-Serif" font-size="10.00">MainNamespace::startTiming</text>
</a>
</g>
</g>
<!-- Node1&#45;&gt;Node11 -->
<g id="edge12" class="edge">
<title>Node1&#45;&gt;Node11</title>
<path fill="none" stroke="midnightblue" d="M173.04,-167.95C182.79,-168.85 192.75,-169.78 202.54,-170.69"/>
<polygon fill="midnightblue" stroke="midnightblue" points="202.4,-174.19 212.68,-171.63 203.05,-167.22 202.4,-174.19"/>
</g>
<!-- Node13 -->
<g id="node13" class="node">
<title>Node13</title>
<g id="a_node13"><a xlink:href="namespace_main_namespace.html#a03589b500835850f32276c9983678dc8" target="_top" xlink:title=" ">
<polygon fill="white" stroke="black" points="214,-131.5 214,-150.5 372,-150.5 372,-131.5 214,-131.5"/>
<text text-anchor="middle" x="293" y="-138.5" font-family="Helvetica,sans-Serif" font-size="10.00">MainNamespace::stopTiming</text>
</a>
</g>
</g>
<!-- Node1&#45;&gt;Node13 -->
<g id="edge15" class="edge">
<title>Node1&#45;&gt;Node13</title>
<path fill="none" stroke="midnightblue" d="M173.04,-152.05C183.22,-151.11 193.63,-150.14 203.84,-149.19"/>
<polygon fill="midnightblue" stroke="midnightblue" points="204.34,-152.66 213.98,-148.25 203.7,-145.69 204.34,-152.66"/>
</g>
<!-- Node3 -->
<g id="node3" class="node">
<title>Node3</title>
<g id="a_node3"><a xlink:href="struct_main_namespace_1_1_options.html#ad8a5dac97faa38719a378d695f4c3b6b" target="_top" xlink:title=" ">
<polygon fill="white" stroke="black" points="416.5,-251.5 416.5,-270.5 581.5,-270.5 581.5,-251.5 416.5,-251.5"/>
<text text-anchor="middle" x="499" y="-258.5" font-family="Helvetica,sans-Serif" font-size="10.00">MainNamespace::Options::eps</text>
</a>
</g>
</g>
<!-- Node2&#45;&gt;Node3 -->
<g id="edge2" class="edge">
<title>Node2&#45;&gt;Node3</title>
<path fill="none" stroke="midnightblue" d="M354.1,-256.77C370.41,-257.25 388.45,-257.78 406.08,-258.3"/>
<polygon fill="midnightblue" stroke="midnightblue" points="406.3,-261.8 416.4,-258.6 406.51,-254.81 406.3,-261.8"/>
</g>
<!-- Node4 -->
<g id="node4" class="node">
<title>Node4</title>
<g id="a_node4"><a xlink:href="namespace_main_namespace.html#a6fd76e14adc7d23a9822334cb389b369" target="_top" xlink:title=" ">
<polygon fill="white" stroke="black" points="413,-213.5 413,-232.5 585,-232.5 585,-213.5 413,-213.5"/>
<text text-anchor="middle" x="499" y="-220.5" font-family="Helvetica,sans-Serif" font-size="10.00">MainNamespace::globalOptions</text>
</a>
</g>
</g>
<!-- Node2&#45;&gt;Node4 -->
<g id="edge3" class="edge">
<title>Node2&#45;&gt;Node4</title>
<path fill="none" stroke="midnightblue" d="M354.1,-245.57C377.04,-241.97 403.39,-237.84 427.22,-234.1"/>
<polygon fill="midnightblue" stroke="midnightblue" points="427.93,-237.53 437.27,-232.53 426.85,-230.62 427.93,-237.53"/>
</g>
<!-- Node6 -->
<g id="node6" class="node">
<title>Node6</title>
<g id="a_node6"><a xlink:href="namespace_main_namespace_1_1_logger.html#af052b0198f333fca77f0837a511ec7f7" target="_top" xlink:title=" ">
<polygon fill="white" stroke="black" points="621,-71 621,-101 758,-101 758,-71 621,-71"/>
<text text-anchor="start" x="629" y="-89" font-family="Helvetica,sans-Serif" font-size="10.00">MainNamespace::Logger</text>
<text text-anchor="middle" x="689.5" y="-78" font-family="Helvetica,sans-Serif" font-size="10.00">::forwardLog</text>
</a>
</g>
</g>
<!-- Node5&#45;&gt;Node6 -->
<g id="edge5" class="edge">
<title>Node5&#45;&gt;Node6</title>
<path fill="none" stroke="midnightblue" d="M578.03,-86C588.78,-86 599.81,-86 610.56,-86"/>
<polygon fill="midnightblue" stroke="midnightblue" points="610.75,-89.5 620.75,-86 610.75,-82.5 610.75,-89.5"/>
</g>
<!-- Node7&#45;&gt;Node4 -->
<g id="edge7" class="edge">
<title>Node7&#45;&gt;Node4</title>
<path fill="none" stroke="midnightblue" d="M374.63,-219.37C383.87,-219.64 393.36,-219.92 402.77,-220.2"/>
<polygon fill="midnightblue" stroke="midnightblue" points="402.83,-223.7 412.93,-220.5 403.04,-216.71 402.83,-223.7"/>
</g>
<!-- Node8&#45;&gt;Node5 -->
<g id="edge11" class="edge">
<title>Node8&#45;&gt;Node5</title>
<path fill="none" stroke="midnightblue" d="M377.27,-65.29C395.6,-68.43 414.76,-71.72 432.28,-74.72"/>
<polygon fill="midnightblue" stroke="midnightblue" points="431.94,-78.22 442.39,-76.46 433.12,-71.32 431.94,-78.22"/>
</g>
<!-- Node9 -->
<g id="node9" class="node">
<title>Node9</title>
<g id="a_node9"><a xlink:href="namespace_main_namespace.html#a676f5efd45b0c88c4ef129b59e69ac71" target="_top" xlink:title=" ">
<polygon fill="white" stroke="black" points="423.5,-0.5 423.5,-19.5 574.5,-19.5 574.5,-0.5 423.5,-0.5"/>
<text text-anchor="middle" x="499" y="-7.5" font-family="Helvetica,sans-Serif" font-size="10.00">MainNamespace::bytes2KB</text>
</a>
</g>
</g>
<!-- Node8&#45;&gt;Node9 -->
<g id="edge9" class="edge">
<title>Node8&#45;&gt;Node9</title>
<path fill="none" stroke="midnightblue" d="M368.8,-35.97C392.47,-31.21 418.24,-26.03 440.5,-21.56"/>
<polygon fill="midnightblue" stroke="midnightblue" points="441.35,-24.96 450.46,-19.55 439.97,-18.09 441.35,-24.96"/>
</g>
<!-- Node10 -->
<g id="node10" class="node">
<title>Node10</title>
<g id="a_node10"><a xlink:href="namespace_main_namespace.html#a8b635a657e6b53278f8c3df8f0f4dd7e" target="_top" xlink:title=" ">
<polygon fill="white" stroke="black" points="422.5,-38.5 422.5,-57.5 575.5,-57.5 575.5,-38.5 422.5,-38.5"/>
<text text-anchor="middle" x="499" y="-45.5" font-family="Helvetica,sans-Serif" font-size="10.00">MainNamespace::bytes2MB</text>
</a>
</g>
</g>
<!-- Node8&#45;&gt;Node10 -->
<g id="edge10" class="edge">
<title>Node8&#45;&gt;Node10</title>
<path fill="none" stroke="midnightblue" d="M377.27,-49.78C388.77,-49.61 400.61,-49.43 412.15,-49.26"/>
<polygon fill="midnightblue" stroke="midnightblue" points="412.27,-52.76 422.22,-49.11 412.16,-45.76 412.27,-52.76"/>
</g>
<!-- Node11&#45;&gt;Node4 -->
<g id="edge13" class="edge">
<title>Node11&#45;&gt;Node4</title>
<path fill="none" stroke="midnightblue" d="M338.26,-188.55C369.27,-195.24 410.9,-204.21 443.88,-211.33"/>
<polygon fill="midnightblue" stroke="midnightblue" points="443.31,-214.78 453.82,-213.47 444.78,-207.94 443.31,-214.78"/>
</g>
<!-- Node12 -->
<g id="node12" class="node">
<title>Node12</title>
<g id="a_node12"><a xlink:href="class_main_namespace_1_1_clocks.html#a0a4ef648fba7c4c6765db19c6a4a6c46" target="_top" xlink:title=" ">
<polygon fill="white" stroke="black" points="430.5,-164 430.5,-194 567.5,-194 567.5,-164 430.5,-164"/>
<text text-anchor="start" x="438.5" y="-182" font-family="Helvetica,sans-Serif" font-size="10.00">MainNamespace::Clocks</text>
<text text-anchor="middle" x="499" y="-171" font-family="Helvetica,sans-Serif" font-size="10.00">::start</text>
</a>
</g>
</g>
<!-- Node11&#45;&gt;Node12 -->
<g id="edge14" class="edge">
<title>Node11&#45;&gt;Node12</title>
<path fill="none" stroke="midnightblue" d="M373.16,-179C388.69,-179 404.96,-179 420.43,-179"/>
<polygon fill="midnightblue" stroke="midnightblue" points="420.47,-182.5 430.47,-179 420.47,-175.5 420.47,-182.5"/>
</g>
<!-- Node13&#45;&gt;Node4 -->
<g id="edge16" class="edge">
<title>Node13&#45;&gt;Node4</title>
<path fill="none" stroke="midnightblue" d="M356.54,-150.54C363.72,-153.01 370.72,-156.1 377,-160 398.47,-173.32 391.49,-190.74 413,-204 416.45,-206.13 420.11,-208.02 423.89,-209.69"/>
<polygon fill="midnightblue" stroke="midnightblue" points="422.93,-213.08 433.52,-213.45 425.48,-206.56 422.93,-213.08"/>
</g>
<!-- Node14 -->
<g id="node14" class="node">
<title>Node14</title>
<g id="a_node14"><a xlink:href="class_main_namespace_1_1_clocks.html#ae0f6374bfcfdbb939449238eabb488ab" target="_top" xlink:title=" ">
<polygon fill="white" stroke="black" points="430.5,-115 430.5,-145 567.5,-145 567.5,-115 430.5,-115"/>
<text text-anchor="start" x="438.5" y="-133" font-family="Helvetica,sans-Serif" font-size="10.00">MainNamespace::Clocks</text>
<text text-anchor="middle" x="499" y="-122" font-family="Helvetica,sans-Serif" font-size="10.00">::readAll</text>
</a>
</g>
</g>
<!-- Node13&#45;&gt;Node14 -->
<g id="edge17" class="edge">
<title>Node13&#45;&gt;Node14</title>
<path fill="none" stroke="midnightblue" d="M372.29,-136.78C387.96,-135.93 404.42,-135.05 420.07,-134.2"/>
<polygon fill="midnightblue" stroke="midnightblue" points="420.43,-137.69 430.23,-133.65 420.06,-130.7 420.43,-137.69"/>
</g>
<!-- Node15 -->
<g id="node15" class="node">
<title>Node15</title>
<g id="a_node15"><a xlink:href="namespacelyra_1_1detail.html#ae65bbfceff11344e7ae2b7f28bebcdb7" target="_top" xlink:title=" ">
<polygon fill="white" stroke="black" points="630.5,-120.5 630.5,-139.5 748.5,-139.5 748.5,-120.5 630.5,-120.5"/>
<text text-anchor="middle" x="689.5" y="-127.5" font-family="Helvetica,sans-Serif" font-size="10.00">lyra::detail::to_string</text>
</a>
</g>
</g>
<!-- Node14&#45;&gt;Node15 -->
<g id="edge18" class="edge">
<title>Node14&#45;&gt;Node15</title>
<path fill="none" stroke="midnightblue" d="M567.52,-130C584.58,-130 602.91,-130 620.02,-130"/>
<polygon fill="midnightblue" stroke="midnightblue" points="620.49,-133.5 630.49,-130 620.49,-126.5 620.49,-133.5"/>
</g>
</g>
</svg>
        <g id="navigator" transform="translate(0 0)" fill="#404254">
                <rect fill="#f2f5e9" fill-opacity="0.5" stroke="#606060" stroke-width=".5" x="0" y="0" width="60" height="60"/>
                <use id="zoomplus" xlink:href="#zoomPlus" x="17" y="9" onmousedown="handleZoom(evt,'in')"/>
                <use id="zoomminus" xlink:href="#zoomMin" x="42" y="9" onmousedown="handleZoom(evt,'out')"/>
                <use id="reset" xlink:href="#resetDef" x="30" y="36" onmousedown="handleReset()"/>
                <g id="arrowUp" xlink:href="#dirArrow" transform="translate(30 24)" onmousedown="handlePan(0,-1)">
                  <use xlink:href="#rim" fill="#404040">
                        <set attributeName="fill" to="#808080" begin="arrowUp.mouseover" end="arrowUp.mouseout"/>
                  </use>
                  <path fill="none" stroke="white" stroke-width="1.5" d="M0,-3.0v7 M-2.5,-0.5L0,-3.0L2.5,-0.5"/>
                </g>
                <g id="arrowRight" xlink:href="#dirArrow" transform="rotate(90) translate(36 -43)" onmousedown="handlePan(1,0)">
                  <use xlink:href="#rim" fill="#404040">
                        <set attributeName="fill" to="#808080" begin="arrowRight.mouseover" end="arrowRight.mouseout"/>
                  </use>
                  <path fill="none" stroke="white" stroke-width="1.5" d="M0,-3.0v7 M-2.5,-0.5L0,-3.0L2.5,-0.5"/>
                </g>
                <g id="arrowDown" xlink:href="#dirArrow" transform="rotate(180) translate(-30 -48)" onmousedown="handlePan(0,1)">
                  <use xlink:href="#rim" fill="#404040">
                        <set attributeName="fill" to="#808080" begin="arrowDown.mouseover" end="arrowDown.mouseout"/>
                  </use>
                  <path fill="none" stroke="white" stroke-width="1.5" d="M0,-3.0v7 M-2.5,-0.5L0,-3.0L2.5,-0.5"/>
                </g>
                <g id="arrowLeft" xlink:href="#dirArrow" transform="rotate(270) translate(-36 17)" onmousedown="handlePan(-1,0)">
                  <use xlink:href="#rim" fill="#404040">
                        <set attributeName="fill" to="#808080" begin="arrowLeft.mouseover" end="arrowLeft.mouseout"/>
                  </use>
                  <path fill="none" stroke="white" stroke-width="1.5" d="M0,-3.0v7 M-2.5,-0.5L0,-3.0L2.5,-0.5"/>
                </g>
        </g>
        <svg viewBox="0 0 15 15" width="100%" height="30px" preserveAspectRatio="xMaxYMin meet">
         <g id="arrow_out" transform="scale(0.3 0.3)">
          <a xlink:href="namespace_main_namespace_ab0c0b0cb1d9d667bc93cb8e377796c8a_cgraph_org.svg" target="_base">
           <rect id="button" ry="5" rx="5" y="6" x="6" height="38" width="38"
                fill="#f2f5e9" fill-opacity="0.5" stroke="#606060" stroke-width="1.0"/>
           <path id="arrow"
             d="M 11.500037,31.436501 C 11.940474,20.09759 22.043105,11.32322 32.158766,21.979434 L 37.068811,17.246167 C 37.068811,17.246167 37.088388,32 37.088388,32 L 22.160133,31.978069 C 22.160133,31.978069 26.997745,27.140456 26.997745,27.140456 C 18.528582,18.264221 13.291696,25.230495 11.500037,31.436501 z"
             style="fill:#404040;"/>
          </a>
         </g>
        </svg>
</svg>
