<?xml version="1.0" encoding="UTF-8" standalone="no"?>
<!DOCTYPE svg PUBLIC "-//W3C//DTD SVG 1.1//EN"
 "http://www.w3.org/Graphics/SVG/1.1/DTD/svg11.dtd">
<!-- Generated by graphviz version 2.43.0 (0)
 -->
<!-- Title: lyra::val Pages: 1 -->
<!--zoomable 612 -->
<svg id="main" version="1.1" xmlns="http://www.w3.org/2000/svg" xmlns:xlink="http://www.w3.org/1999/xlink" xml:space="preserve" onload="init(evt)">
<style type="text/css"><![CDATA[
.edge:hover path { stroke: red; }
.edge:hover polygon { stroke: red; fill: red; }
]]></style>
<script type="text/javascript"><![CDATA[
var edges = document.getElementsByTagName('g');
if (edges && edges.length) {
  for (var i=0;i<edges.length;i++) {
    if (edges[i].id.substr(0,4)=='edge') {
      edges[i].setAttribute('class','edge');
    }
  }
}
]]></script>
        <defs>
                <circle id="rim" cx="0" cy="0" r="7"/>
                <circle id="rim2" cx="0" cy="0" r="3.5"/>
                <g id="zoomPlus">
                        <use xlink:href="#rim" fill="#404040">
                                <set attributeName="fill" to="#808080" begin="zoomplus.mouseover" end="zoomplus.mouseout"/>
                        </use>
                        <path d="M-4,0h8M0,-4v8" fill="none" stroke="white" stroke-width="1.5" pointer-events="none"/>
                </g>
                <g id="zoomMin">
                        <use xlink:href="#rim" fill="#404040">
                                <set attributeName="fill" to="#808080" begin="zoomminus.mouseover" end="zoomminus.mouseout"/>
                        </use>
                        <path d="M-4,0h8" fill="none" stroke="white" stroke-width="1.5" pointer-events="none"/>
                </g>
                <g id="dirArrow">
                        <path fill="none" stroke="white" stroke-width="1.5" d="M0,-3.0v7 M-2.5,-0.5L0,-3.0L2.5,-0.5"/>
                </g>
               <g id="resetDef">
                       <use xlink:href="#rim2" fill="#404040">
                               <set attributeName="fill" to="#808080" begin="reset.mouseover" end="reset.mouseout"/>
                       </use>
               </g>
        </defs>

<script type="text/javascript">
var viewWidth = 640;
var viewHeight = 612;
var sectionId = 'dynsection-2';
</script>
<script xlink:href="svgpan.js"/>
<svg id="graph" class="graph">
<g id="viewport">
<title>lyra::val</title>
<polygon fill="white" stroke="transparent" points="-4,4 -4,-607.5 636,-607.5 636,4 -4,4"/>
<!-- Node1 -->
<g id="node1" class="node">
<title>Node1</title>
<g id="a_node1"><a xlink:title=" ">
<polygon fill="#bfbfbf" stroke="black" points="576,-313.5 576,-332.5 632,-332.5 632,-313.5 576,-313.5"/>
<text text-anchor="middle" x="604" y="-320.5" font-family="Helvetica,sans-Serif" font-size="10.00">lyra::val</text>
</a>
</g>
</g>
<!-- Node2 -->
<g id="node2" class="node">
<title>Node2</title>
<g id="a_node2"><a xlink:href="classlyra_1_1bound__parser.html#ad5f31afab7bda2e057c7ff3d1d3c43f8" target="_top" xlink:title=" ">
<polygon fill="white" stroke="black" points="400.5,-573 400.5,-603 507.5,-603 507.5,-573 400.5,-573"/>
<text text-anchor="start" x="408.5" y="-591" font-family="Helvetica,sans-Serif" font-size="10.00">lyra::bound_parser</text>
<text text-anchor="middle" x="454" y="-580" font-family="Helvetica,sans-Serif" font-size="10.00">::bound_parser</text>
</a>
</g>
</g>
<!-- Node1&#45;&gt;Node2 -->
<g id="edge1" class="edge">
<title>Node1&#45;&gt;Node2</title>
<path fill="none" stroke="midnightblue" d="M603.88,-342.89C604.76,-388.39 600.31,-500.89 540,-563 531.32,-571.94 519.62,-577.72 507.69,-581.46"/>
<polygon fill="midnightblue" stroke="midnightblue" points="607.38,-342.73 603.57,-332.84 600.38,-342.94 607.38,-342.73"/>
</g>
<!-- Node3 -->
<g id="node3" class="node">
<title>Node3</title>
<g id="a_node3"><a xlink:href="classlyra_1_1opt.html#a0e2e695090191d1ead910856fb92d9c1" target="_top" xlink:title=" ">
<polygon fill="white" stroke="black" points="414.5,-534.5 414.5,-553.5 493.5,-553.5 493.5,-534.5 414.5,-534.5"/>
<text text-anchor="middle" x="454" y="-541.5" font-family="Helvetica,sans-Serif" font-size="10.00">lyra::opt::opt</text>
</a>
</g>
</g>
<!-- Node1&#45;&gt;Node3 -->
<g id="edge2" class="edge">
<title>Node1&#45;&gt;Node3</title>
<path fill="none" stroke="midnightblue" d="M602.97,-342.99C601.77,-383.63 592.99,-476.2 540,-525 527.54,-536.47 509.71,-541.54 493.6,-543.62"/>
<polygon fill="midnightblue" stroke="midnightblue" points="606.47,-342.82 603.14,-332.77 599.47,-342.71 606.47,-342.82"/>
</g>
<!-- Node4 -->
<g id="node4" class="node">
<title>Node4</title>
<g id="a_node4"><a xlink:href="classlyra_1_1detail_1_1result__value__base.html#afcb90ba3ccbfe135c892c232aeb4b041" target="_top" xlink:title=" ">
<polygon fill="white" stroke="black" points="368,-485 368,-515 540,-515 540,-485 368,-485"/>
<text text-anchor="start" x="376" y="-503" font-family="Helvetica,sans-Serif" font-size="10.00">lyra::detail::result</text>
<text text-anchor="middle" x="454" y="-492" font-family="Helvetica,sans-Serif" font-size="10.00">_value_base::result_value_base</text>
</a>
</g>
</g>
<!-- Node1&#45;&gt;Node4 -->
<g id="edge3" class="edge">
<title>Node1&#45;&gt;Node4</title>
<path fill="none" stroke="midnightblue" d="M599.74,-342.87C593.59,-374.18 577.36,-435.01 540,-470 533.49,-476.1 525.66,-480.97 517.43,-484.85"/>
<polygon fill="midnightblue" stroke="midnightblue" points="603.23,-343.24 601.57,-332.78 596.34,-341.99 603.23,-343.24"/>
</g>
<!-- Node5 -->
<g id="node5" class="node">
<title>Node5</title>
<g id="a_node5"><a xlink:href="structlyra_1_1detail_1_1choices__set.html#a2a78ba4d2bf13c9be72cdb9f075ac58b" target="_top" xlink:title=" ">
<polygon fill="white" stroke="black" points="15,-236 15,-266 131,-266 131,-236 15,-236"/>
<text text-anchor="start" x="23" y="-254" font-family="Helvetica,sans-Serif" font-size="10.00">lyra::detail::choices</text>
<text text-anchor="middle" x="73" y="-243" font-family="Helvetica,sans-Serif" font-size="10.00">_set::contains_value</text>
</a>
</g>
</g>
<!-- Node1&#45;&gt;Node5 -->
<g id="edge4" class="edge">
<title>Node1&#45;&gt;Node5</title>
<path fill="none" stroke="midnightblue" d="M565.53,-317.9C474.33,-305.49 240.32,-273.64 131.39,-258.81"/>
<polygon fill="midnightblue" stroke="midnightblue" points="565.29,-321.4 575.67,-319.28 566.24,-314.46 565.29,-321.4"/>
</g>
<!-- Node6 -->
<g id="node6" class="node">
<title>Node6</title>
<g id="a_node6"><a xlink:href="structlyra_1_1detail_1_1choices__check.html#abeea1614739aaa2644cb229fef0e9df0" target="_top" xlink:title=" ">
<polygon fill="white" stroke="black" points="8,-433 8,-463 138,-463 138,-433 8,-433"/>
<text text-anchor="start" x="16" y="-451" font-family="Helvetica,sans-Serif" font-size="10.00">lyra::detail::choices</text>
<text text-anchor="middle" x="73" y="-440" font-family="Helvetica,sans-Serif" font-size="10.00">_check::contains_value</text>
</a>
</g>
</g>
<!-- Node1&#45;&gt;Node6 -->
<g id="edge5" class="edge">
<title>Node1&#45;&gt;Node6</title>
<path fill="none" stroke="midnightblue" d="M586.57,-339.85C574.36,-351.85 556.96,-367.94 540,-380 534.63,-383.82 338.38,-492.37 332,-494 267.42,-510.54 247.32,-507.33 182,-494 153.05,-488.09 122.24,-474.12 100.98,-463.11"/>
<polygon fill="midnightblue" stroke="midnightblue" points="589.19,-342.18 593.78,-332.63 584.23,-337.23 589.19,-342.18"/>
</g>
<!-- Node7 -->
<g id="node7" class="node">
<title>Node7</title>
<g id="a_node7"><a xlink:href="classlyra_1_1detail_1_1basic__result.html#ae878693d416cc48943171ab4187f5719" target="_top" xlink:title=" ">
<polygon fill="white" stroke="black" points="403.5,-340 403.5,-370 504.5,-370 504.5,-340 403.5,-340"/>
<text text-anchor="start" x="411.5" y="-358" font-family="Helvetica,sans-Serif" font-size="10.00">lyra::detail::basic</text>
<text text-anchor="middle" x="454" y="-347" font-family="Helvetica,sans-Serif" font-size="10.00">_result::error</text>
</a>
</g>
</g>
<!-- Node1&#45;&gt;Node7 -->
<g id="edge6" class="edge">
<title>Node1&#45;&gt;Node7</title>
<path fill="none" stroke="midnightblue" d="M566.03,-330.99C547.49,-335 524.77,-339.91 504.73,-344.25"/>
<polygon fill="midnightblue" stroke="midnightblue" points="566.82,-334.4 575.85,-328.87 565.34,-327.56 566.82,-334.4"/>
</g>
<!-- Node13 -->
<g id="node13" class="node">
<title>Node13</title>
<g id="a_node13"><a xlink:href="doc__simple_8cpp.html#a217dbf8b442f20279ea00b898af96f52" target="_top" xlink:title=" ">
<polygon fill="white" stroke="black" points="433.5,-225.5 433.5,-244.5 474.5,-244.5 474.5,-225.5 433.5,-225.5"/>
<text text-anchor="middle" x="454" y="-232.5" font-family="Helvetica,sans-Serif" font-size="10.00">main</text>
</a>
</g>
</g>
<!-- Node1&#45;&gt;Node13 -->
<g id="edge16" class="edge">
<title>Node1&#45;&gt;Node13</title>
<path fill="none" stroke="midnightblue" d="M582.83,-306.9C570.76,-297.62 554.91,-286.04 540,-277 518.46,-263.95 492.31,-251.5 474.75,-243.59"/>
<polygon fill="midnightblue" stroke="midnightblue" points="580.85,-309.79 590.88,-313.18 585.15,-304.27 580.85,-309.79"/>
</g>
<!-- Node14 -->
<g id="node14" class="node">
<title>Node14</title>
<g id="a_node14"><a xlink:href="classlyra_1_1detail_1_1basic__result.html#aee577409a431e215136ffc0764e5432b" target="_top" xlink:title=" ">
<polygon fill="white" stroke="black" points="403.5,-176 403.5,-206 504.5,-206 504.5,-176 403.5,-176"/>
<text text-anchor="start" x="411.5" y="-194" font-family="Helvetica,sans-Serif" font-size="10.00">lyra::detail::basic</text>
<text text-anchor="middle" x="454" y="-183" font-family="Helvetica,sans-Serif" font-size="10.00">_result::ok</text>
</a>
</g>
</g>
<!-- Node1&#45;&gt;Node14 -->
<g id="edge18" class="edge">
<title>Node1&#45;&gt;Node14</title>
<path fill="none" stroke="midnightblue" d="M596.75,-303.93C587.91,-279.9 569.47,-238.98 540,-216 529.81,-208.05 517.16,-202.63 504.75,-198.93"/>
<polygon fill="midnightblue" stroke="midnightblue" points="593.45,-305.09 600.05,-313.37 600.06,-302.78 593.45,-305.09"/>
</g>
<!-- Node20 -->
<g id="node20" class="node">
<title>Node20</title>
<g id="a_node20"><a xlink:href="classlyra_1_1main.html#a504168ec39ad3b915a8f157a98a46b89" target="_top" xlink:title=" ">
<polygon fill="white" stroke="black" points="393.5,-137.5 393.5,-156.5 514.5,-156.5 514.5,-137.5 393.5,-137.5"/>
<text text-anchor="middle" x="454" y="-144.5" font-family="Helvetica,sans-Serif" font-size="10.00">lyra::main::operator()</text>
</a>
</g>
</g>
<!-- Node1&#45;&gt;Node20 -->
<g id="edge27" class="edge">
<title>Node1&#45;&gt;Node20</title>
<path fill="none" stroke="midnightblue" d="M600.77,-302.84C595.96,-269.38 581.45,-202.55 540,-167 532.75,-160.78 523.92,-156.41 514.73,-153.36"/>
<polygon fill="midnightblue" stroke="midnightblue" points="597.35,-303.7 602.09,-313.18 604.29,-302.81 597.35,-303.7"/>
</g>
<!-- Node21 -->
<g id="node21" class="node">
<title>Node21</title>
<g id="a_node21"><a xlink:href="structlyra_1_1detail_1_1choices__set.html#a151dcfea9dda455e52eb5eb8e4cb2a34" target="_top" xlink:title=" ">
<polygon fill="white" stroke="black" points="201,-39 201,-69 313,-69 313,-39 201,-39"/>
<text text-anchor="start" x="209" y="-57" font-family="Helvetica,sans-Serif" font-size="10.00">lyra::detail::choices</text>
<text text-anchor="middle" x="257" y="-46" font-family="Helvetica,sans-Serif" font-size="10.00">_set::to_string</text>
</a>
</g>
</g>
<!-- Node1&#45;&gt;Node21 -->
<g id="edge28" class="edge">
<title>Node1&#45;&gt;Node21</title>
<path fill="none" stroke="midnightblue" d="M602.55,-303.04C600.55,-263.65 590.35,-175.61 540,-128 478.22,-69.57 376.08,-55.96 313.16,-53.51"/>
<polygon fill="midnightblue" stroke="midnightblue" points="599.06,-303.34 602.94,-313.2 606.06,-303.08 599.06,-303.34"/>
</g>
<!-- Node7&#45;&gt;Node5 -->
<g id="edge7" class="edge">
<title>Node7&#45;&gt;Node5</title>
<path fill="none" stroke="midnightblue" d="M393.29,-341.39C338.15,-328.5 254.11,-308.03 182,-287 160.28,-280.66 136.38,-272.79 116.6,-266.03"/>
<polygon fill="midnightblue" stroke="midnightblue" points="392.71,-344.85 403.25,-343.71 394.3,-338.03 392.71,-344.85"/>
</g>
<!-- Node7&#45;&gt;Node6 -->
<g id="edge8" class="edge">
<title>Node7&#45;&gt;Node6</title>
<path fill="none" stroke="midnightblue" d="M418.6,-375.06C395,-387.92 362.54,-403.86 332,-413 267.7,-432.25 191.18,-440.95 138.26,-444.85"/>
<polygon fill="midnightblue" stroke="midnightblue" points="420.46,-378.03 427.51,-370.12 417.07,-371.91 420.46,-378.03"/>
</g>
<!-- Node8 -->
<g id="node8" class="node">
<title>Node8</title>
<g id="a_node8"><a xlink:href="classlyra_1_1literal.html#a0b616706829da82299d42c4a188d6408" target="_top" xlink:title=" ">
<polygon fill="white" stroke="black" points="205.5,-465.5 205.5,-484.5 308.5,-484.5 308.5,-465.5 205.5,-465.5"/>
<text text-anchor="middle" x="257" y="-472.5" font-family="Helvetica,sans-Serif" font-size="10.00">lyra::literal::parse</text>
</a>
</g>
</g>
<!-- Node7&#45;&gt;Node8 -->
<g id="edge9" class="edge">
<title>Node7&#45;&gt;Node8</title>
<path fill="none" stroke="midnightblue" d="M430.33,-377.13C407.26,-398.61 369.63,-430.82 332,-451 320.93,-456.94 308.14,-461.73 296.33,-465.42"/>
<polygon fill="midnightblue" stroke="midnightblue" points="432.99,-379.43 437.86,-370.02 428.19,-374.34 432.99,-379.43"/>
</g>
<!-- Node9 -->
<g id="node9" class="node">
<title>Node9</title>
<g id="a_node9"><a xlink:href="namespacelyra_1_1detail.html#a22e3bf1a412cd8fde673729391090abf" target="_top" xlink:title=" ">
<polygon fill="white" stroke="black" points="206,-340 206,-370 308,-370 308,-340 206,-340"/>
<text text-anchor="start" x="214" y="-358" font-family="Helvetica,sans-Serif" font-size="10.00">lyra::detail::parse</text>
<text text-anchor="middle" x="257" y="-347" font-family="Helvetica,sans-Serif" font-size="10.00">_string</text>
</a>
</g>
</g>
<!-- Node7&#45;&gt;Node9 -->
<g id="edge10" class="edge">
<title>Node7&#45;&gt;Node9</title>
<path fill="none" stroke="midnightblue" d="M393.13,-355C365.97,-355 334.2,-355 308.3,-355"/>
<polygon fill="midnightblue" stroke="midnightblue" points="393.29,-358.5 403.29,-355 393.29,-351.5 393.29,-358.5"/>
</g>
<!-- Node9&#45;&gt;Node5 -->
<g id="edge11" class="edge">
<title>Node9&#45;&gt;Node5</title>
<path fill="none" stroke="midnightblue" d="M198.45,-335.45C192.63,-332.38 187.03,-328.91 182,-325 160.67,-308.41 167.74,-292.04 146,-276 140.78,-272.15 134.92,-268.86 128.86,-266.05"/>
<polygon fill="midnightblue" stroke="midnightblue" points="197.18,-338.72 207.7,-339.94 200.23,-332.43 197.18,-338.72"/>
</g>
<!-- Node9&#45;&gt;Node6 -->
<g id="edge12" class="edge">
<title>Node9&#45;&gt;Node6</title>
<path fill="none" stroke="midnightblue" d="M200.33,-374.41C193.93,-377.55 187.67,-381.08 182,-385 162.6,-398.42 165.81,-411.2 146,-424 140.8,-427.36 135.08,-430.3 129.21,-432.85"/>
<polygon fill="midnightblue" stroke="midnightblue" points="202.14,-377.43 209.77,-370.08 199.22,-371.07 202.14,-377.43"/>
</g>
<!-- Node10 -->
<g id="node10" class="node">
<title>Node10</title>
<g id="a_node10"><a xlink:href="namespacelyra_1_1detail.html#acbf6c3970044a4db411f87f1130fac59" target="_top" xlink:title=" ">
<polygon fill="white" stroke="black" points="0,-285.5 0,-304.5 146,-304.5 146,-285.5 0,-285.5"/>
<text text-anchor="middle" x="73" y="-292.5" font-family="Helvetica,sans-Serif" font-size="10.00">lyra::detail::invokeLambda</text>
</a>
</g>
</g>
<!-- Node9&#45;&gt;Node10 -->
<g id="edge13" class="edge">
<title>Node9&#45;&gt;Node10</title>
<path fill="none" stroke="midnightblue" d="M208.91,-336.28C189.56,-328.9 166.86,-320.62 146,-314 135.4,-310.64 123.8,-307.39 113.06,-304.56"/>
<polygon fill="midnightblue" stroke="midnightblue" points="207.8,-339.61 218.39,-339.93 210.32,-333.07 207.8,-339.61"/>
</g>
<!-- Node11 -->
<g id="node11" class="node">
<title>Node11</title>
<g id="a_node11"><a xlink:href="structlyra_1_1detail_1_1_bound_value_ref.html#a665e8a2d390fcd308d59ddbe045bf1e3" target="_top" xlink:title=" ">
<polygon fill="white" stroke="black" points="6,-384 6,-414 140,-414 140,-384 6,-384"/>
<text text-anchor="start" x="14" y="-402" font-family="Helvetica,sans-Serif" font-size="10.00">lyra::detail::BoundValue</text>
<text text-anchor="middle" x="73" y="-391" font-family="Helvetica,sans-Serif" font-size="10.00">Ref::setValue</text>
</a>
</g>
</g>
<!-- Node9&#45;&gt;Node11 -->
<g id="edge14" class="edge">
<title>Node9&#45;&gt;Node11</title>
<path fill="none" stroke="midnightblue" d="M195.95,-369.52C176.73,-374.16 155.42,-379.32 136.06,-384"/>
<polygon fill="midnightblue" stroke="midnightblue" points="196.89,-372.89 205.79,-367.14 195.24,-366.09 196.89,-372.89"/>
</g>
<!-- Node12 -->
<g id="node12" class="node">
<title>Node12</title>
<g id="a_node12"><a xlink:href="structlyra_1_1detail_1_1_bound_value_ref_3_01std_1_1vector_3_01_t_01_4_01_4.html#aa413c07d21268101cca49ef250bf5c07" target="_top" xlink:title=" ">
<polygon fill="white" stroke="black" points="6,-323.5 6,-364.5 140,-364.5 140,-323.5 6,-323.5"/>
<text text-anchor="start" x="14" y="-352.5" font-family="Helvetica,sans-Serif" font-size="10.00">lyra::detail::BoundValue</text>
<text text-anchor="start" x="14" y="-341.5" font-family="Helvetica,sans-Serif" font-size="10.00">Ref&lt; std::vector&lt; T &gt;</text>
<text text-anchor="middle" x="73" y="-330.5" font-family="Helvetica,sans-Serif" font-size="10.00"> &gt;::setValue</text>
</a>
</g>
</g>
<!-- Node9&#45;&gt;Node12 -->
<g id="edge15" class="edge">
<title>Node9&#45;&gt;Node12</title>
<path fill="none" stroke="midnightblue" d="M195.54,-351.35C177.75,-350.27 158.2,-349.09 140.08,-347.99"/>
<polygon fill="midnightblue" stroke="midnightblue" points="195.59,-354.86 205.79,-351.97 196.02,-347.87 195.59,-354.86"/>
</g>
<!-- Node13&#45;&gt;Node13 -->
<g id="edge17" class="edge">
<title>Node13&#45;&gt;Node13</title>
<path fill="none" stroke="midnightblue" d="M481.77,-250.48C484.12,-257.22 474.87,-263 454,-263 425.58,-263 418.7,-252.28 433.35,-243.03"/>
<polygon fill="midnightblue" stroke="midnightblue" points="484.08,-247.84 474.65,-243.03 479.02,-252.68 484.08,-247.84"/>
</g>
<!-- Node14&#45;&gt;Node5 -->
<g id="edge20" class="edge">
<title>Node14&#45;&gt;Node5</title>
<path fill="none" stroke="midnightblue" d="M393.42,-204.16C373.91,-208.24 352.08,-212.57 332,-216 263.16,-227.77 183.44,-238.08 131.05,-244.41"/>
<polygon fill="midnightblue" stroke="midnightblue" points="394.34,-207.54 403.4,-202.05 392.89,-200.69 394.34,-207.54"/>
</g>
<!-- Node14&#45;&gt;Node6 -->
<g id="edge21" class="edge">
<title>Node14&#45;&gt;Node6</title>
<path fill="none" stroke="midnightblue" d="M393.48,-199.6C383.93,-203.32 374.92,-208.57 368,-216 317.11,-270.58 384.76,-327.22 332,-380 283.74,-428.28 247.88,-395.12 182,-413 169.83,-416.3 142.83,-425.05 118.87,-432.98"/>
<polygon fill="midnightblue" stroke="midnightblue" points="394.77,-202.86 403.15,-196.38 392.56,-196.22 394.77,-202.86"/>
</g>
<!-- Node14&#45;&gt;Node9 -->
<g id="edge23" class="edge">
<title>Node14&#45;&gt;Node9</title>
<path fill="none" stroke="midnightblue" d="M393.37,-203.41C384.45,-206.69 375.68,-210.82 368,-216 342.62,-233.13 290.23,-307.62 268.16,-339.94"/>
<polygon fill="midnightblue" stroke="midnightblue" points="394.69,-206.66 403.07,-200.17 392.47,-200.02 394.69,-206.66"/>
</g>
<!-- Node15 -->
<g id="node15" class="node">
<title>Node15</title>
<g id="a_node15"><a xlink:href="classlyra_1_1help.html#aca3991e43790c54d960eacaf2df1c15b" target="_top" xlink:title=" ">
<polygon fill="white" stroke="black" points="212.5,-137.5 212.5,-156.5 301.5,-156.5 301.5,-137.5 212.5,-137.5"/>
<text text-anchor="middle" x="257" y="-144.5" font-family="Helvetica,sans-Serif" font-size="10.00">lyra::help::help</text>
</a>
</g>
</g>
<!-- Node14&#45;&gt;Node15 -->
<g id="edge19" class="edge">
<title>Node14&#45;&gt;Node15</title>
<path fill="none" stroke="midnightblue" d="M393.33,-177.54C363.28,-170.76 327.55,-162.69 300.35,-156.56"/>
<polygon fill="midnightblue" stroke="midnightblue" points="392.76,-181 403.29,-179.78 394.3,-174.17 392.76,-181"/>
</g>
<!-- Node16 -->
<g id="node16" class="node">
<title>Node16</title>
<g id="a_node16"><a xlink:href="structlyra_1_1detail_1_1_lambda_invoker_3_01void_01_4.html#ae8dd900c28d4d501f2db0dca463550ee" target="_top" xlink:title=" ">
<polygon fill="white" stroke="black" points="182,-88 182,-118 332,-118 332,-88 182,-88"/>
<text text-anchor="start" x="190" y="-106" font-family="Helvetica,sans-Serif" font-size="10.00">lyra::detail::LambdaInvoker</text>
<text text-anchor="middle" x="257" y="-95" font-family="Helvetica,sans-Serif" font-size="10.00">&lt; void &gt;::invoke</text>
</a>
</g>
</g>
<!-- Node14&#45;&gt;Node16 -->
<g id="edge22" class="edge">
<title>Node14&#45;&gt;Node16</title>
<path fill="none" stroke="midnightblue" d="M393.76,-177.98C384.79,-174.78 375.9,-170.84 368,-166 348.16,-153.86 351.6,-140.54 332,-128 326.06,-124.2 319.48,-120.91 312.76,-118.09"/>
<polygon fill="midnightblue" stroke="midnightblue" points="392.89,-181.38 403.49,-181.18 395.08,-174.73 392.89,-181.38"/>
</g>
<!-- Node17 -->
<g id="node17" class="node">
<title>Node17</title>
<g id="a_node17"><a xlink:href="classlyra_1_1exe__name.html#a0a8528cf259a3cd6f6d5ea0ba9f868c5" target="_top" xlink:title=" ">
<polygon fill="white" stroke="black" points="200.5,-0.5 200.5,-19.5 313.5,-19.5 313.5,-0.5 200.5,-0.5"/>
<text text-anchor="middle" x="257" y="-7.5" font-family="Helvetica,sans-Serif" font-size="10.00">lyra::exe_name::set</text>
</a>
</g>
</g>
<!-- Node14&#45;&gt;Node17 -->
<g id="edge24" class="edge">
<title>Node14&#45;&gt;Node17</title>
<path fill="none" stroke="midnightblue" d="M393.73,-182.16C384.15,-178.47 375.07,-173.28 368,-166 324.14,-120.84 376.64,-73.39 332,-29 326.83,-23.86 320.46,-20.05 313.65,-17.23"/>
<polygon fill="midnightblue" stroke="midnightblue" points="392.82,-185.55 403.41,-185.38 395.02,-178.91 392.82,-185.55"/>
</g>
<!-- Node19 -->
<g id="node19" class="node">
<title>Node19</title>
<g id="a_node19"><a xlink:href="structlyra_1_1detail_1_1_bound_flag_ref.html#ad32443f5173fb9e5e34c43741dae9db2" target="_top" xlink:title=" ">
<polygon fill="white" stroke="black" points="185.5,-176 185.5,-206 328.5,-206 328.5,-176 185.5,-176"/>
<text text-anchor="start" x="193.5" y="-194" font-family="Helvetica,sans-Serif" font-size="10.00">lyra::detail::BoundFlagRef</text>
<text text-anchor="middle" x="257" y="-183" font-family="Helvetica,sans-Serif" font-size="10.00">::setFlag</text>
</a>
</g>
</g>
<!-- Node14&#45;&gt;Node19 -->
<g id="edge26" class="edge">
<title>Node14&#45;&gt;Node19</title>
<path fill="none" stroke="midnightblue" d="M393.19,-191C372.78,-191 349.77,-191 328.59,-191"/>
<polygon fill="midnightblue" stroke="midnightblue" points="393.29,-194.5 403.29,-191 393.29,-187.5 393.29,-194.5"/>
</g>
<!-- Node18 -->
<g id="node18" class="node">
<title>Node18</title>
<g id="a_node18"><a xlink:href="classlyra_1_1cli.html#a49a8af627c74dfce2c2d594d4161116f" target="_top" xlink:title=" ">
<polygon fill="white" stroke="black" points="30,-0.5 30,-19.5 116,-19.5 116,-0.5 30,-0.5"/>
<text text-anchor="middle" x="73" y="-7.5" font-family="Helvetica,sans-Serif" font-size="10.00">lyra::cli::parse</text>
</a>
</g>
</g>
<!-- Node17&#45;&gt;Node18 -->
<g id="edge25" class="edge">
<title>Node17&#45;&gt;Node18</title>
<path fill="none" stroke="midnightblue" d="M190.37,-10C165.68,-10 138.27,-10 116.26,-10"/>
<polygon fill="midnightblue" stroke="midnightblue" points="190.41,-13.5 200.41,-10 190.41,-6.5 190.41,-13.5"/>
</g>
<!-- Node21&#45;&gt;Node5 -->
<g id="edge29" class="edge">
<title>Node21&#45;&gt;Node5</title>
<path fill="none" stroke="midnightblue" d="M191.91,-72.37C188.42,-74.36 185.09,-76.57 182,-79 126.77,-122.57 92.03,-202.69 79.39,-235.93"/>
<polygon fill="midnightblue" stroke="midnightblue" points="193.51,-75.48 200.85,-67.83 190.34,-69.24 193.51,-75.48"/>
</g>
</g>
</svg>
        <g id="navigator" transform="translate(0 0)" fill="#404254">
                <rect fill="#f2f5e9" fill-opacity="0.5" stroke="#606060" stroke-width=".5" x="0" y="0" width="60" height="60"/>
                <use id="zoomplus" xlink:href="#zoomPlus" x="17" y="9" onmousedown="handleZoom(evt,'in')"/>
                <use id="zoomminus" xlink:href="#zoomMin" x="42" y="9" onmousedown="handleZoom(evt,'out')"/>
                <use id="reset" xlink:href="#resetDef" x="30" y="36" onmousedown="handleReset()"/>
                <g id="arrowUp" xlink:href="#dirArrow" transform="translate(30 24)" onmousedown="handlePan(0,-1)">
                  <use xlink:href="#rim" fill="#404040">
                        <set attributeName="fill" to="#808080" begin="arrowUp.mouseover" end="arrowUp.mouseout"/>
                  </use>
                  <path fill="none" stroke="white" stroke-width="1.5" d="M0,-3.0v7 M-2.5,-0.5L0,-3.0L2.5,-0.5"/>
                </g>
                <g id="arrowRight" xlink:href="#dirArrow" transform="rotate(90) translate(36 -43)" onmousedown="handlePan(1,0)">
                  <use xlink:href="#rim" fill="#404040">
                        <set attributeName="fill" to="#808080" begin="arrowRight.mouseover" end="arrowRight.mouseout"/>
                  </use>
                  <path fill="none" stroke="white" stroke-width="1.5" d="M0,-3.0v7 M-2.5,-0.5L0,-3.0L2.5,-0.5"/>
                </g>
                <g id="arrowDown" xlink:href="#dirArrow" transform="rotate(180) translate(-30 -48)" onmousedown="handlePan(0,1)">
                  <use xlink:href="#rim" fill="#404040">
                        <set attributeName="fill" to="#808080" begin="arrowDown.mouseover" end="arrowDown.mouseout"/>
                  </use>
                  <path fill="none" stroke="white" stroke-width="1.5" d="M0,-3.0v7 M-2.5,-0.5L0,-3.0L2.5,-0.5"/>
                </g>
                <g id="arrowLeft" xlink:href="#dirArrow" transform="rotate(270) translate(-36 17)" onmousedown="handlePan(-1,0)">
                  <use xlink:href="#rim" fill="#404040">
                        <set attributeName="fill" to="#808080" begin="arrowLeft.mouseover" end="arrowLeft.mouseout"/>
                  </use>
                  <path fill="none" stroke="white" stroke-width="1.5" d="M0,-3.0v7 M-2.5,-0.5L0,-3.0L2.5,-0.5"/>
                </g>
        </g>
        <svg viewBox="0 0 15 15" width="100%" height="30px" preserveAspectRatio="xMaxYMin meet">
         <g id="arrow_out" transform="scale(0.3 0.3)">
          <a xlink:href="namespacelyra_a2138b812a6ac30b6abcab35c05664a64_icgraph_org.svg" target="_base">
           <rect id="button" ry="5" rx="5" y="6" x="6" height="38" width="38"
                fill="#f2f5e9" fill-opacity="0.5" stroke="#606060" stroke-width="1.0"/>
           <path id="arrow"
             d="M 11.500037,31.436501 C 11.940474,20.09759 22.043105,11.32322 32.158766,21.979434 L 37.068811,17.246167 C 37.068811,17.246167 37.088388,32 37.088388,32 L 22.160133,31.978069 C 22.160133,31.978069 26.997745,27.140456 26.997745,27.140456 C 18.528582,18.264221 13.291696,25.230495 11.500037,31.436501 z"
             style="fill:#404040;"/>
          </a>
         </g>
        </svg>
</svg>
