<?xml version="1.0" encoding="UTF-8" standalone="no"?>
<!DOCTYPE svg PUBLIC "-//W3C//DTD SVG 1.1//EN"
 "http://www.w3.org/Graphics/SVG/1.1/DTD/svg11.dtd">
<!-- Generated by graphviz version 2.43.0 (0)
 -->
<!-- Title: MainNamespace::stopTiming Pages: 1 -->
<!--zoomable 190 -->
<svg id="main" version="1.1" xmlns="http://www.w3.org/2000/svg" xmlns:xlink="http://www.w3.org/1999/xlink" xml:space="preserve" onload="init(evt)">
<style type="text/css"><![CDATA[
.edge:hover path { stroke: red; }
.edge:hover polygon { stroke: red; fill: red; }
]]></style>
<script type="text/javascript"><![CDATA[
var edges = document.getElementsByTagName('g');
if (edges && edges.length) {
  for (var i=0;i<edges.length;i++) {
    if (edges[i].id.substr(0,4)=='edge') {
      edges[i].setAttribute('class','edge');
    }
  }
}
]]></script>
        <defs>
                <circle id="rim" cx="0" cy="0" r="7"/>
                <circle id="rim2" cx="0" cy="0" r="3.5"/>
                <g id="zoomPlus">
                        <use xlink:href="#rim" fill="#404040">
                                <set attributeName="fill" to="#808080" begin="zoomplus.mouseover" end="zoomplus.mouseout"/>
                        </use>
                        <path d="M-4,0h8M0,-4v8" fill="none" stroke="white" stroke-width="1.5" pointer-events="none"/>
                </g>
                <g id="zoomMin">
                        <use xlink:href="#rim" fill="#404040">
                                <set attributeName="fill" to="#808080" begin="zoomminus.mouseover" end="zoomminus.mouseout"/>
                        </use>
                        <path d="M-4,0h8" fill="none" stroke="white" stroke-width="1.5" pointer-events="none"/>
                </g>
                <g id="dirArrow">
                        <path fill="none" stroke="white" stroke-width="1.5" d="M0,-3.0v7 M-2.5,-0.5L0,-3.0L2.5,-0.5"/>
                </g>
               <g id="resetDef">
                       <use xlink:href="#rim2" fill="#404040">
                               <set attributeName="fill" to="#808080" begin="reset.mouseover" end="reset.mouseout"/>
                       </use>
               </g>
        </defs>

<script type="text/javascript">
var viewWidth = 1732;
var viewHeight = 190;
var sectionId = 'dynsection-91';
</script>
<script xlink:href="svgpan.js"/>
<svg id="graph" class="graph">
<g id="viewport">
<title>MainNamespace::stopTiming</title>
<polygon fill="white" stroke="transparent" points="-4,4 -4,-186.19 1728,-186.19 1728,4 -4,4"/>
<!-- Node1 -->
<g id="node1" class="node">
<title>Node1</title>
<g id="a_node1"><a xlink:title=" ">
<polygon fill="#bfbfbf" stroke="black" points="1566,-114.19 1566,-133.19 1724,-133.19 1724,-114.19 1566,-114.19"/>
<text text-anchor="middle" x="1645" y="-121.19" font-family="Helvetica,sans-Serif" font-size="10.00">MainNamespace::stopTiming</text>
</a>
</g>
</g>
<!-- Node2 -->
<g id="node2" class="node">
<title>Node2</title>
<g id="a_node2"><a xlink:href="namespace_main_namespace.html#ab0c0b0cb1d9d667bc93cb8e377796c8a" target="_top" xlink:title=" ">
<polygon fill="white" stroke="black" points="1145,-108.69 1145,-138.69 1318,-138.69 1318,-108.69 1145,-108.69"/>
<text text-anchor="start" x="1153" y="-126.69" font-family="Helvetica,sans-Serif" font-size="10.00">MainNamespace::compressRow</text>
<text text-anchor="middle" x="1231.5" y="-115.69" font-family="Helvetica,sans-Serif" font-size="10.00">ColumnFar</text>
</a>
</g>
</g>
<!-- Node1&#45;&gt;Node2 -->
<g id="edge1" class="edge">
<title>Node1&#45;&gt;Node2</title>
<path fill="none" stroke="midnightblue" d="M1555.47,-123.69C1485.18,-123.69 1387.52,-123.69 1318.03,-123.69"/>
<polygon fill="midnightblue" stroke="midnightblue" points="1555.63,-127.19 1565.63,-123.69 1555.63,-120.19 1555.63,-127.19"/>
</g>
<!-- Node10 -->
<g id="node10" class="node">
<title>Node10</title>
<g id="a_node10"><a xlink:href="namespace_main_namespace_1_1_surface.html#a9db507bc2f601fff92d0383899185f61" target="_top" xlink:title=" ">
<polygon fill="white" stroke="black" points="952,-151.69 952,-181.69 1093,-181.69 1093,-151.69 952,-151.69"/>
<text text-anchor="start" x="960" y="-169.69" font-family="Helvetica,sans-Serif" font-size="10.00">MainNamespace::Surface</text>
<text text-anchor="middle" x="1022.5" y="-158.69" font-family="Helvetica,sans-Serif" font-size="10.00">::doGmres</text>
</a>
</g>
</g>
<!-- Node1&#45;&gt;Node10 -->
<g id="edge9" class="edge">
<title>Node1&#45;&gt;Node10</title>
<path fill="none" stroke="midnightblue" d="M1562.05,-134.4C1551.28,-135.62 1540.38,-136.75 1530,-137.69 1374.29,-151.69 1191.01,-160.22 1093.24,-164.13"/>
<polygon fill="midnightblue" stroke="midnightblue" points="1562.79,-137.84 1572.32,-133.21 1561.98,-130.88 1562.79,-137.84"/>
</g>
<!-- Node11 -->
<g id="node11" class="node">
<title>Node11</title>
<g id="a_node11"><a xlink:href="namespace_main_namespace.html#af2de50bf4da80fb75ac77bb7bdce2f40" target="_top" xlink:title=" ">
<polygon fill="white" stroke="black" points="1355,-43.19 1355,-62.19 1530,-62.19 1530,-43.19 1355,-43.19"/>
<text text-anchor="middle" x="1442.5" y="-50.19" font-family="Helvetica,sans-Serif" font-size="10.00">MainNamespace::timeExecution</text>
</a>
</g>
</g>
<!-- Node1&#45;&gt;Node11 -->
<g id="edge11" class="edge">
<title>Node1&#45;&gt;Node11</title>
<path fill="none" stroke="midnightblue" d="M1607.42,-110.73C1567.87,-96.73 1505.75,-74.73 1470.43,-62.22"/>
<polygon fill="midnightblue" stroke="midnightblue" points="1606.36,-114.07 1616.96,-114.11 1608.7,-107.47 1606.36,-114.07"/>
</g>
<!-- Node3 -->
<g id="node3" class="node">
<title>Node3</title>
<g id="a_node3"><a xlink:href="namespace_main_namespace.html#aaa553a0feb6a9e785dce2ea7c2f25481" target="_top" xlink:title="Build a dh2matrix for the operator described by bemDescription, using the given clusters.">
<polygon fill="white" stroke="black" points="937,-89.19 937,-108.19 1108,-108.19 1108,-89.19 937,-89.19"/>
<text text-anchor="middle" x="1022.5" y="-96.19" font-family="Helvetica,sans-Serif" font-size="10.00">MainNamespace::buildOperator</text>
</a>
</g>
</g>
<!-- Node2&#45;&gt;Node3 -->
<g id="edge2" class="edge">
<title>Node2&#45;&gt;Node3</title>
<path fill="none" stroke="midnightblue" d="M1134.82,-112.13C1123.89,-110.81 1112.84,-109.47 1102.16,-108.19"/>
<polygon fill="midnightblue" stroke="midnightblue" points="1134.46,-115.61 1144.81,-113.34 1135.3,-108.66 1134.46,-115.61"/>
</g>
<!-- Node4 -->
<g id="node4" class="node">
<title>Node4</title>
<g id="a_node4"><a xlink:href="class_main_namespace_1_1_d_h2_matrix_wrapper.html#a8b3117680075ec79bc0500f3e901b133" target="_top" xlink:title="Take ownership of, the pointer to the bem description and build the matrix and all needed data struct...">
<polygon fill="white" stroke="black" points="744,-95.69 744,-125.69 901,-125.69 901,-95.69 744,-95.69"/>
<text text-anchor="start" x="752" y="-113.69" font-family="Helvetica,sans-Serif" font-size="10.00">MainNamespace::DH2Matrix</text>
<text text-anchor="middle" x="822.5" y="-102.69" font-family="Helvetica,sans-Serif" font-size="10.00">Wrapper::build</text>
</a>
</g>
</g>
<!-- Node3&#45;&gt;Node4 -->
<g id="edge3" class="edge">
<title>Node3&#45;&gt;Node4</title>
<path fill="none" stroke="midnightblue" d="M926.88,-104.42C918.27,-104.94 909.62,-105.47 901.18,-105.98"/>
<polygon fill="midnightblue" stroke="midnightblue" points="927.19,-107.91 936.96,-103.81 926.76,-100.92 927.19,-107.91"/>
</g>
<!-- Node5 -->
<g id="node5" class="node">
<title>Node5</title>
<g id="a_node5"><a xlink:href="namespace_main_namespace_1_1_surface.html#a7e821744eeb79cb1faa8468d53cb7c1e" target="_top" xlink:title=" ">
<polygon fill="white" stroke="black" points="567,-101.69 567,-131.69 708,-131.69 708,-101.69 567,-101.69"/>
<text text-anchor="start" x="575" y="-119.69" font-family="Helvetica,sans-Serif" font-size="10.00">MainNamespace::Surface</text>
<text text-anchor="middle" x="637.5" y="-108.69" font-family="Helvetica,sans-Serif" font-size="10.00">::makeTmpApply</text>
</a>
</g>
</g>
<!-- Node4&#45;&gt;Node5 -->
<g id="edge4" class="edge">
<title>Node4&#45;&gt;Node5</title>
<path fill="none" stroke="midnightblue" d="M733.81,-113.56C725.18,-113.84 716.51,-114.13 708.1,-114.4"/>
<polygon fill="midnightblue" stroke="midnightblue" points="734.01,-117.06 743.89,-113.23 733.78,-110.06 734.01,-117.06"/>
</g>
<!-- Node6 -->
<g id="node6" class="node">
<title>Node6</title>
<g id="a_node6"><a xlink:href="class_main_namespace_1_1_surface_1_1_single_surface.html#a3321422c36eccd213cfc48823a9f54d7" target="_top" xlink:title="Project the offset on the current mesh, then use it to compute the right&#45;hand side.">
<polygon fill="white" stroke="black" points="366,-104.69 366,-134.69 531,-134.69 531,-104.69 366,-104.69"/>
<text text-anchor="start" x="374" y="-122.69" font-family="Helvetica,sans-Serif" font-size="10.00">MainNamespace::Surface</text>
<text text-anchor="middle" x="448.5" y="-111.69" font-family="Helvetica,sans-Serif" font-size="10.00">::SingleSurface::makeMultiRhs</text>
</a>
</g>
</g>
<!-- Node5&#45;&gt;Node6 -->
<g id="edge5" class="edge">
<title>Node5&#45;&gt;Node6</title>
<path fill="none" stroke="midnightblue" d="M556.67,-117.97C548.23,-118.1 539.64,-118.24 531.18,-118.38"/>
<polygon fill="midnightblue" stroke="midnightblue" points="556.93,-121.46 566.87,-117.8 556.81,-114.46 556.93,-121.46"/>
</g>
<!-- Node7 -->
<g id="node7" class="node">
<title>Node7</title>
<g id="a_node7"><a xlink:href="class_main_namespace_1_1_surface_1_1_multi_surface.html#a8839f7e49575079e39fbb95a692772a5" target="_top" xlink:title="Compute the right&#45;hand side, the operators, then solve the linear system.">
<polygon fill="white" stroke="black" points="189,-126.69 189,-156.69 330,-156.69 330,-126.69 189,-126.69"/>
<text text-anchor="start" x="197" y="-144.69" font-family="Helvetica,sans-Serif" font-size="10.00">MainNamespace::Surface</text>
<text text-anchor="middle" x="259.5" y="-133.69" font-family="Helvetica,sans-Serif" font-size="10.00">::MultiSurface::solve</text>
</a>
</g>
</g>
<!-- Node6&#45;&gt;Node7 -->
<g id="edge6" class="edge">
<title>Node6&#45;&gt;Node7</title>
<path fill="none" stroke="midnightblue" d="M355.67,-130.49C347.07,-131.5 338.44,-132.52 330.09,-133.5"/>
<polygon fill="midnightblue" stroke="midnightblue" points="356.23,-133.95 365.75,-129.3 355.41,-127 356.23,-133.95"/>
</g>
<!-- Node8 -->
<g id="node8" class="node">
<title>Node8</title>
<g id="a_node8"><a xlink:href="main_8cpp.html#a5d68713f22d1b3e2495b15d107ea7d21" target="_top" xlink:title=" ">
<polygon fill="white" stroke="black" points="77,-132.19 77,-151.19 153,-151.19 153,-132.19 77,-132.19"/>
<text text-anchor="middle" x="115" y="-139.19" font-family="Helvetica,sans-Serif" font-size="10.00">testProblem</text>
</a>
</g>
</g>
<!-- Node7&#45;&gt;Node8 -->
<g id="edge7" class="edge">
<title>Node7&#45;&gt;Node8</title>
<path fill="none" stroke="midnightblue" d="M178.85,-141.69C169.97,-141.69 161.27,-141.69 153.31,-141.69"/>
<polygon fill="midnightblue" stroke="midnightblue" points="178.92,-145.19 188.92,-141.69 178.92,-138.19 178.92,-145.19"/>
</g>
<!-- Node9 -->
<g id="node9" class="node">
<title>Node9</title>
<g id="a_node9"><a xlink:href="main_8cpp.html#a3c04138a5bfe5d72780bb7e82a18e627" target="_top" xlink:title=" ">
<polygon fill="white" stroke="black" points="0,-132.19 0,-151.19 41,-151.19 41,-132.19 0,-132.19"/>
<text text-anchor="middle" x="20.5" y="-139.19" font-family="Helvetica,sans-Serif" font-size="10.00">main</text>
</a>
</g>
</g>
<!-- Node8&#45;&gt;Node9 -->
<g id="edge8" class="edge">
<title>Node8&#45;&gt;Node9</title>
<path fill="none" stroke="midnightblue" d="M66.72,-141.69C57.65,-141.69 48.64,-141.69 41.07,-141.69"/>
<polygon fill="midnightblue" stroke="midnightblue" points="66.91,-145.19 76.91,-141.69 66.91,-138.19 66.91,-145.19"/>
</g>
<!-- Node10&#45;&gt;Node7 -->
<g id="edge10" class="edge">
<title>Node10&#45;&gt;Node7</title>
<path fill="none" stroke="midnightblue" d="M941.92,-164.07C792.37,-159.16 471.76,-148.63 330.16,-143.97"/>
<polygon fill="midnightblue" stroke="midnightblue" points="941.84,-167.57 951.95,-164.4 942.07,-160.57 941.84,-167.57"/>
</g>
<!-- Node11&#45;&gt;Node3 -->
<g id="edge14" class="edge">
<title>Node11&#45;&gt;Node3</title>
<path fill="none" stroke="midnightblue" d="M1409.67,-39.26C1354.34,-17.89 1237.41,18.51 1144,-11.69 1095.88,-27.24 1050.81,-69.98 1032.32,-89.15"/>
<polygon fill="midnightblue" stroke="midnightblue" points="1408.68,-42.63 1419.26,-43.05 1411.25,-36.12 1408.68,-42.63"/>
</g>
<!-- Node12 -->
<g id="node12" class="node">
<title>Node12</title>
<g id="a_node12"><a xlink:href="namespace_main_namespace.html#a8d8fdac50b5e686e19890836bb305791" target="_top" xlink:title=" ">
<polygon fill="white" stroke="black" points="1149,-59.69 1149,-89.69 1314,-89.69 1314,-59.69 1149,-59.69"/>
<text text-anchor="start" x="1157" y="-77.69" font-family="Helvetica,sans-Serif" font-size="10.00">MainNamespace::buildImplicit</text>
<text text-anchor="middle" x="1231.5" y="-66.69" font-family="Helvetica,sans-Serif" font-size="10.00">ClusterBasis</text>
</a>
</g>
</g>
<!-- Node11&#45;&gt;Node12 -->
<g id="edge12" class="edge">
<title>Node11&#45;&gt;Node12</title>
<path fill="none" stroke="midnightblue" d="M1344.81,-62.86C1334.6,-63.94 1324.28,-65.02 1314.25,-66.08"/>
<polygon fill="midnightblue" stroke="midnightblue" points="1345.4,-66.32 1354.98,-61.79 1344.67,-59.36 1345.4,-66.32"/>
</g>
<!-- Node13 -->
<g id="node13" class="node">
<title>Node13</title>
<g id="a_node13"><a xlink:href="namespace_main_namespace.html#a7fbb3fdb876e764946fb04b8330feac7" target="_top" xlink:title=" ">
<polygon fill="white" stroke="black" points="1144,-21.19 1144,-40.19 1319,-40.19 1319,-21.19 1144,-21.19"/>
<text text-anchor="middle" x="1231.5" y="-28.19" font-family="Helvetica,sans-Serif" font-size="10.00">MainNamespace::timeExecution</text>
</a>
</g>
</g>
<!-- Node11&#45;&gt;Node13 -->
<g id="edge15" class="edge">
<title>Node11&#45;&gt;Node13</title>
<path fill="none" stroke="midnightblue" d="M1344.97,-42.52C1336.41,-41.62 1327.77,-40.71 1319.29,-39.82"/>
<polygon fill="midnightblue" stroke="midnightblue" points="1344.67,-46.01 1354.98,-43.58 1345.4,-39.05 1344.67,-46.01"/>
</g>
<!-- Node12&#45;&gt;Node3 -->
<g id="edge13" class="edge">
<title>Node12&#45;&gt;Node3</title>
<path fill="none" stroke="midnightblue" d="M1138.88,-85.31C1127.81,-86.59 1116.55,-87.9 1105.62,-89.16"/>
<polygon fill="midnightblue" stroke="midnightblue" points="1139.45,-88.77 1148.99,-84.14 1138.65,-81.81 1139.45,-88.77"/>
</g>
</g>
</svg>
        <g id="navigator" transform="translate(0 0)" fill="#404254">
                <rect fill="#f2f5e9" fill-opacity="0.5" stroke="#606060" stroke-width=".5" x="0" y="0" width="60" height="60"/>
                <use id="zoomplus" xlink:href="#zoomPlus" x="17" y="9" onmousedown="handleZoom(evt,'in')"/>
                <use id="zoomminus" xlink:href="#zoomMin" x="42" y="9" onmousedown="handleZoom(evt,'out')"/>
                <use id="reset" xlink:href="#resetDef" x="30" y="36" onmousedown="handleReset()"/>
                <g id="arrowUp" xlink:href="#dirArrow" transform="translate(30 24)" onmousedown="handlePan(0,-1)">
                  <use xlink:href="#rim" fill="#404040">
                        <set attributeName="fill" to="#808080" begin="arrowUp.mouseover" end="arrowUp.mouseout"/>
                  </use>
                  <path fill="none" stroke="white" stroke-width="1.5" d="M0,-3.0v7 M-2.5,-0.5L0,-3.0L2.5,-0.5"/>
                </g>
                <g id="arrowRight" xlink:href="#dirArrow" transform="rotate(90) translate(36 -43)" onmousedown="handlePan(1,0)">
                  <use xlink:href="#rim" fill="#404040">
                        <set attributeName="fill" to="#808080" begin="arrowRight.mouseover" end="arrowRight.mouseout"/>
                  </use>
                  <path fill="none" stroke="white" stroke-width="1.5" d="M0,-3.0v7 M-2.5,-0.5L0,-3.0L2.5,-0.5"/>
                </g>
                <g id="arrowDown" xlink:href="#dirArrow" transform="rotate(180) translate(-30 -48)" onmousedown="handlePan(0,1)">
                  <use xlink:href="#rim" fill="#404040">
                        <set attributeName="fill" to="#808080" begin="arrowDown.mouseover" end="arrowDown.mouseout"/>
                  </use>
                  <path fill="none" stroke="white" stroke-width="1.5" d="M0,-3.0v7 M-2.5,-0.5L0,-3.0L2.5,-0.5"/>
                </g>
                <g id="arrowLeft" xlink:href="#dirArrow" transform="rotate(270) translate(-36 17)" onmousedown="handlePan(-1,0)">
                  <use xlink:href="#rim" fill="#404040">
                        <set attributeName="fill" to="#808080" begin="arrowLeft.mouseover" end="arrowLeft.mouseout"/>
                  </use>
                  <path fill="none" stroke="white" stroke-width="1.5" d="M0,-3.0v7 M-2.5,-0.5L0,-3.0L2.5,-0.5"/>
                </g>
        </g>
        <svg viewBox="0 0 15 15" width="100%" height="30px" preserveAspectRatio="xMaxYMin meet">
         <g id="arrow_out" transform="scale(0.3 0.3)">
          <a xlink:href="namespace_main_namespace_a03589b500835850f32276c9983678dc8_icgraph_org.svg" target="_base">
           <rect id="button" ry="5" rx="5" y="6" x="6" height="38" width="38"
                fill="#f2f5e9" fill-opacity="0.5" stroke="#606060" stroke-width="1.0"/>
           <path id="arrow"
             d="M 11.500037,31.436501 C 11.940474,20.09759 22.043105,11.32322 32.158766,21.979434 L 37.068811,17.246167 C 37.068811,17.246167 37.088388,32 37.088388,32 L 22.160133,31.978069 C 22.160133,31.978069 26.997745,27.140456 26.997745,27.140456 C 18.528582,18.264221 13.291696,25.230495 11.500037,31.436501 z"
             style="fill:#404040;"/>
          </a>
         </g>
        </svg>
</svg>
