<?xml version="1.0" encoding="UTF-8" standalone="no"?>
<!DOCTYPE svg PUBLIC "-//W3C//DTD SVG 1.1//EN"
 "http://www.w3.org/Graphics/SVG/1.1/DTD/svg11.dtd">
<!-- Generated by graphviz version 2.43.0 (0)
 -->
<!-- Title: MainNamespace::reportClusterCompression Pages: 1 -->
<svg width="543pt" height="110pt"
 viewBox="0.00 0.00 543.00 109.50" xmlns="http://www.w3.org/2000/svg" xmlns:xlink="http://www.w3.org/1999/xlink">
<g id="graph0" class="graph" transform="scale(1 1) rotate(0) translate(4 105.5)">
<title>MainNamespace::reportClusterCompression</title>
<polygon fill="white" stroke="transparent" points="-4,4 -4,-105.5 539,-105.5 539,4 -4,4"/>
<!-- Node1 -->
<g id="node1" class="node">
<title>Node1</title>
<g id="a_node1"><a xlink:title=" ">
<polygon fill="#bfbfbf" stroke="black" points="0,-38.5 0,-68.5 168,-68.5 168,-38.5 0,-38.5"/>
<text text-anchor="start" x="8" y="-56.5" font-family="Helvetica,sans-Serif" font-size="10.00">MainNamespace::reportCluster</text>
<text text-anchor="middle" x="84" y="-45.5" font-family="Helvetica,sans-Serif" font-size="10.00">Compression</text>
</a>
</g>
</g>
<!-- Node2 -->
<g id="node2" class="node">
<title>Node2</title>
<g id="a_node2"><a xlink:href="namespace_main_namespace.html#a676f5efd45b0c88c4ef129b59e69ac71" target="_top" xlink:title=" ">
<polygon fill="white" stroke="black" points="207.5,-82 207.5,-101 358.5,-101 358.5,-82 207.5,-82"/>
<text text-anchor="middle" x="283" y="-89" font-family="Helvetica,sans-Serif" font-size="10.00">MainNamespace::bytes2KB</text>
</a>
</g>
</g>
<!-- Node1&#45;&gt;Node2 -->
<g id="edge1" class="edge">
<title>Node1&#45;&gt;Node2</title>
<path fill="none" stroke="midnightblue" d="M162.86,-68.52C182.82,-72.37 203.97,-76.45 222.82,-80.09"/>
<polygon fill="midnightblue" stroke="midnightblue" points="222.26,-83.54 232.75,-82 223.59,-76.67 222.26,-83.54"/>
</g>
<!-- Node3 -->
<g id="node3" class="node">
<title>Node3</title>
<g id="a_node3"><a xlink:href="namespace_main_namespace.html#a8b635a657e6b53278f8c3df8f0f4dd7e" target="_top" xlink:title=" ">
<polygon fill="white" stroke="black" points="206.5,-44 206.5,-63 359.5,-63 359.5,-44 206.5,-44"/>
<text text-anchor="middle" x="283" y="-51" font-family="Helvetica,sans-Serif" font-size="10.00">MainNamespace::bytes2MB</text>
</a>
</g>
</g>
<!-- Node1&#45;&gt;Node3 -->
<g id="edge2" class="edge">
<title>Node1&#45;&gt;Node3</title>
<path fill="none" stroke="midnightblue" d="M168.26,-53.5C177.42,-53.5 186.75,-53.5 195.94,-53.5"/>
<polygon fill="midnightblue" stroke="midnightblue" points="196.24,-57 206.24,-53.5 196.24,-50 196.24,-57"/>
</g>
<!-- Node4 -->
<g id="node4" class="node">
<title>Node4</title>
<g id="a_node4"><a xlink:href="namespace_main_namespace_1_1_logger.html#afbb4cc2d8b498e71fcb228f0da8309a1" target="_top" xlink:title=" ">
<polygon fill="white" stroke="black" points="204,-6 204,-25 362,-25 362,-6 204,-6"/>
<text text-anchor="middle" x="283" y="-13" font-family="Helvetica,sans-Serif" font-size="10.00">MainNamespace::Logger::log</text>
</a>
</g>
</g>
<!-- Node1&#45;&gt;Node4 -->
<g id="edge3" class="edge">
<title>Node1&#45;&gt;Node4</title>
<path fill="none" stroke="midnightblue" d="M162.86,-38.48C182.82,-34.63 203.97,-30.55 222.82,-26.91"/>
<polygon fill="midnightblue" stroke="midnightblue" points="223.59,-30.33 232.75,-25 222.26,-23.46 223.59,-30.33"/>
</g>
<!-- Node5 -->
<g id="node5" class="node">
<title>Node5</title>
<g id="a_node5"><a xlink:href="namespace_main_namespace_1_1_logger.html#af052b0198f333fca77f0837a511ec7f7" target="_top" xlink:title=" ">
<polygon fill="white" stroke="black" points="398,-0.5 398,-30.5 535,-30.5 535,-0.5 398,-0.5"/>
<text text-anchor="start" x="406" y="-18.5" font-family="Helvetica,sans-Serif" font-size="10.00">MainNamespace::Logger</text>
<text text-anchor="middle" x="466.5" y="-7.5" font-family="Helvetica,sans-Serif" font-size="10.00">::forwardLog</text>
</a>
</g>
</g>
<!-- Node4&#45;&gt;Node5 -->
<g id="edge4" class="edge">
<title>Node4&#45;&gt;Node5</title>
<path fill="none" stroke="midnightblue" d="M362.03,-15.5C370.5,-15.5 379.12,-15.5 387.59,-15.5"/>
<polygon fill="midnightblue" stroke="midnightblue" points="387.82,-19 397.82,-15.5 387.82,-12 387.82,-19"/>
</g>
</g>
</svg>
