<?xml version="1.0" encoding="UTF-8" standalone="no"?>
<!DOCTYPE svg PUBLIC "-//W3C//DTD SVG 1.1//EN"
 "http://www.w3.org/Graphics/SVG/1.1/DTD/svg11.dtd">
<!-- Generated by graphviz version 2.43.0 (0)
 -->
<!-- Title: MainNamespace::interactive Pages: 1 -->
<svg width="373pt" height="78pt"
 viewBox="0.00 0.00 373.00 77.50" xmlns="http://www.w3.org/2000/svg" xmlns:xlink="http://www.w3.org/1999/xlink">
<g id="graph0" class="graph" transform="scale(1 1) rotate(0) translate(4 73.5)">
<title>MainNamespace::interactive</title>
<polygon fill="white" stroke="transparent" points="-4,4 -4,-73.5 369,-73.5 369,4 -4,4"/>
<!-- Node1 -->
<g id="node1" class="node">
<title>Node1</title>
<g id="a_node1"><a xlink:title=" ">
<polygon fill="#bfbfbf" stroke="black" points="0,-28 0,-47 157,-47 157,-28 0,-28"/>
<text text-anchor="middle" x="78.5" y="-35" font-family="Helvetica,sans-Serif" font-size="10.00">MainNamespace::interactive</text>
</a>
</g>
</g>
<!-- Node2 -->
<g id="node2" class="node">
<title>Node2</title>
<g id="a_node2"><a xlink:href="namespace_main_namespace.html#a6fd76e14adc7d23a9822334cb389b369" target="_top" xlink:title=" ">
<polygon fill="white" stroke="black" points="193,-50 193,-69 365,-69 365,-50 193,-50"/>
<text text-anchor="middle" x="279" y="-57" font-family="Helvetica,sans-Serif" font-size="10.00">MainNamespace::globalOptions</text>
</a>
</g>
</g>
<!-- Node1&#45;&gt;Node2 -->
<g id="edge1" class="edge">
<title>Node1&#45;&gt;Node2</title>
<path fill="none" stroke="midnightblue" d="M157.1,-46.1C165.54,-47.04 174.2,-48 182.82,-48.95"/>
<polygon fill="midnightblue" stroke="midnightblue" points="182.58,-52.45 192.9,-50.07 183.35,-45.49 182.58,-52.45"/>
</g>
<!-- Node3 -->
<g id="node3" class="node">
<title>Node3</title>
<g id="a_node3"><a xlink:href="struct_main_namespace_1_1_options.html#a5aa9f40de7b3144cf8f4f88ff2867654" target="_top" xlink:title=" ">
<polygon fill="white" stroke="black" points="208,-0.5 208,-30.5 350,-30.5 350,-0.5 208,-0.5"/>
<text text-anchor="start" x="216" y="-18.5" font-family="Helvetica,sans-Serif" font-size="10.00">MainNamespace::Options</text>
<text text-anchor="middle" x="279" y="-7.5" font-family="Helvetica,sans-Serif" font-size="10.00">::interactive</text>
</a>
</g>
</g>
<!-- Node1&#45;&gt;Node3 -->
<g id="edge2" class="edge">
<title>Node1&#45;&gt;Node3</title>
<path fill="none" stroke="midnightblue" d="M157.1,-28.9C170.44,-27.42 184.34,-25.88 197.75,-24.39"/>
<polygon fill="midnightblue" stroke="midnightblue" points="198.34,-27.85 207.89,-23.27 197.57,-20.89 198.34,-27.85"/>
</g>
</g>
</svg>
