<?xml version="1.0" encoding="UTF-8" standalone="no"?>
<!DOCTYPE svg PUBLIC "-//W3C//DTD SVG 1.1//EN"
 "http://www.w3.org/Graphics/SVG/1.1/DTD/svg11.dtd">
<!-- Generated by graphviz version 2.43.0 (0)
 -->
<!-- Title: MainNamespace::Surface::makeTmpApply Pages: 1 -->
<svg width="1540pt" height="778pt"
 viewBox="0.00 0.00 1540.00 777.50" xmlns="http://www.w3.org/2000/svg" xmlns:xlink="http://www.w3.org/1999/xlink">
<g id="graph0" class="graph" transform="scale(1 1) rotate(0) translate(4 773.5)">
<title>MainNamespace::Surface::makeTmpApply</title>
<polygon fill="white" stroke="transparent" points="-4,4 -4,-773.5 1536,-773.5 1536,4 -4,4"/>
<!-- Node1 -->
<g id="node1" class="node">
<title>Node1</title>
<g id="a_node1"><a xlink:title=" ">
<polygon fill="#bfbfbf" stroke="black" points="0,-597 0,-627 141,-627 141,-597 0,-597"/>
<text text-anchor="start" x="8" y="-615" font-family="Helvetica,sans-Serif" font-size="10.00">MainNamespace::Surface</text>
<text text-anchor="middle" x="70.5" y="-604" font-family="Helvetica,sans-Serif" font-size="10.00">::makeTmpApply</text>
</a>
</g>
</g>
<!-- Node2 -->
<g id="node2" class="node">
<title>Node2</title>
<g id="a_node2"><a xlink:href="class_main_namespace_1_1_d_h2_matrix_wrapper.html#a60542c6922db56ef894763552473f731" target="_top" xlink:title="Apply the operator to source * scale, and add the result to destination.">
<polygon fill="white" stroke="black" points="177,-718 177,-748 334,-748 334,-718 177,-718"/>
<text text-anchor="start" x="185" y="-736" font-family="Helvetica,sans-Serif" font-size="10.00">MainNamespace::DH2Matrix</text>
<text text-anchor="middle" x="255.5" y="-725" font-family="Helvetica,sans-Serif" font-size="10.00">Wrapper::apply</text>
</a>
</g>
</g>
<!-- Node1&#45;&gt;Node2 -->
<g id="edge1" class="edge">
<title>Node1&#45;&gt;Node2</title>
<path fill="none" stroke="midnightblue" d="M84.29,-627.15C102.75,-648.12 138.86,-685.9 177,-708 180.65,-710.11 184.5,-712.07 188.45,-713.89"/>
<polygon fill="midnightblue" stroke="midnightblue" points="187.25,-717.18 197.82,-717.86 189.98,-710.73 187.25,-717.18"/>
</g>
<!-- Node3 -->
<g id="node3" class="node">
<title>Node3</title>
<g id="a_node3"><a xlink:href="class_main_namespace_1_1_d_h2_matrix_wrapper.html#adb03645b3f6bc16f5af0727f097c224f" target="_top" xlink:title="Apply the transposed of the operator to source * scale, and add the result to destination.">
<polygon fill="white" stroke="black" points="177,-669 177,-699 334,-699 334,-669 177,-669"/>
<text text-anchor="start" x="185" y="-687" font-family="Helvetica,sans-Serif" font-size="10.00">MainNamespace::DH2Matrix</text>
<text text-anchor="middle" x="255.5" y="-676" font-family="Helvetica,sans-Serif" font-size="10.00">Wrapper::applyTransposed</text>
</a>
</g>
</g>
<!-- Node1&#45;&gt;Node3 -->
<g id="edge2" class="edge">
<title>Node1&#45;&gt;Node3</title>
<path fill="none" stroke="midnightblue" d="M109.06,-627.05C129.19,-635.1 154.43,-645.14 177,-654 186.37,-657.68 196.38,-661.58 206,-665.31"/>
<polygon fill="midnightblue" stroke="midnightblue" points="204.85,-668.62 215.44,-668.96 207.38,-662.09 204.85,-668.62"/>
</g>
<!-- Node4 -->
<g id="node4" class="node">
<title>Node4</title>
<g id="a_node4"><a xlink:href="class_main_namespace_1_1_d_h2_matrix_wrapper.html#a8b3117680075ec79bc0500f3e901b133" target="_top" xlink:title="Take ownership of, the pointer to the bem description and build the matrix and all needed data struct...">
<polygon fill="white" stroke="black" points="177,-569 177,-599 334,-599 334,-569 177,-569"/>
<text text-anchor="start" x="185" y="-587" font-family="Helvetica,sans-Serif" font-size="10.00">MainNamespace::DH2Matrix</text>
<text text-anchor="middle" x="255.5" y="-576" font-family="Helvetica,sans-Serif" font-size="10.00">Wrapper::build</text>
</a>
</g>
</g>
<!-- Node1&#45;&gt;Node4 -->
<g id="edge3" class="edge">
<title>Node1&#45;&gt;Node4</title>
<path fill="none" stroke="midnightblue" d="M141.21,-601.33C149.56,-600.06 158.16,-598.74 166.72,-597.43"/>
<polygon fill="midnightblue" stroke="midnightblue" points="167.38,-600.87 176.74,-595.9 166.32,-593.95 167.38,-600.87"/>
</g>
<!-- Node10 -->
<g id="node10" class="node">
<title>Node10</title>
<g id="a_node10"><a xlink:href="namespace_main_namespace_1_1_logger.html#afbb4cc2d8b498e71fcb228f0da8309a1" target="_top" xlink:title=" ">
<polygon fill="white" stroke="black" points="1008.5,-538.5 1008.5,-557.5 1166.5,-557.5 1166.5,-538.5 1008.5,-538.5"/>
<text text-anchor="middle" x="1087.5" y="-545.5" font-family="Helvetica,sans-Serif" font-size="10.00">MainNamespace::Logger::log</text>
</a>
</g>
</g>
<!-- Node1&#45;&gt;Node10 -->
<g id="edge52" class="edge">
<title>Node1&#45;&gt;Node10</title>
<path fill="none" stroke="midnightblue" d="M141.28,-620.17C217.96,-628.44 344.83,-640 454.5,-640 454.5,-640 454.5,-640 668.5,-640 813.33,-640 979.94,-586.67 1051.2,-561.22"/>
<polygon fill="midnightblue" stroke="midnightblue" points="1052.79,-564.36 1061.01,-557.67 1050.41,-557.78 1052.79,-564.36"/>
</g>
<!-- Node33 -->
<g id="node33" class="node">
<title>Node33</title>
<g id="a_node33"><a xlink:href="class_main_namespace_1_1_d_h2_matrix_wrapper.html#a7d828aa322d59851d3e18f5af6a7ace1" target="_top" xlink:title=" ">
<polygon fill="white" stroke="black" points="177,-520 177,-550 334,-550 334,-520 177,-520"/>
<text text-anchor="start" x="185" y="-538" font-family="Helvetica,sans-Serif" font-size="10.00">MainNamespace::DH2Matrix</text>
<text text-anchor="middle" x="255.5" y="-527" font-family="Helvetica,sans-Serif" font-size="10.00">Wrapper::columns</text>
</a>
</g>
</g>
<!-- Node1&#45;&gt;Node33 -->
<g id="edge51" class="edge">
<title>Node1&#45;&gt;Node33</title>
<path fill="none" stroke="midnightblue" d="M98.69,-596.78C119.66,-585.42 149.62,-570.03 177,-559 181.78,-557.08 186.77,-555.21 191.82,-553.43"/>
<polygon fill="midnightblue" stroke="midnightblue" points="193.23,-556.65 201.56,-550.11 190.97,-550.02 193.23,-556.65"/>
</g>
<!-- Node34 -->
<g id="node34" class="node">
<title>Node34</title>
<g id="a_node34"><a xlink:href="class_main_namespace_1_1_d_h2_matrix_wrapper.html#abeebddd29792b35712694ae940908aa6" target="_top" xlink:title=" ">
<polygon fill="white" stroke="black" points="177,-471 177,-501 334,-501 334,-471 177,-471"/>
<text text-anchor="start" x="185" y="-489" font-family="Helvetica,sans-Serif" font-size="10.00">MainNamespace::DH2Matrix</text>
<text text-anchor="middle" x="255.5" y="-478" font-family="Helvetica,sans-Serif" font-size="10.00">Wrapper::rows</text>
</a>
</g>
</g>
<!-- Node1&#45;&gt;Node34 -->
<g id="edge53" class="edge">
<title>Node1&#45;&gt;Node34</title>
<path fill="none" stroke="midnightblue" d="M83.14,-596.91C101.01,-574.75 137.32,-533.49 177,-510 179.85,-508.31 182.83,-506.74 185.89,-505.26"/>
<polygon fill="midnightblue" stroke="midnightblue" points="187.53,-508.36 195.27,-501.13 184.71,-501.95 187.53,-508.36"/>
</g>
<!-- Node5 -->
<g id="node5" class="node">
<title>Node5</title>
<g id="a_node5"><a xlink:href="namespace_main_namespace.html#aaa553a0feb6a9e785dce2ea7c2f25481" target="_top" xlink:title="Build a dh2matrix for the operator described by bemDescription, using the given clusters.">
<polygon fill="white" stroke="black" points="370,-459.5 370,-478.5 541,-478.5 541,-459.5 370,-459.5"/>
<text text-anchor="middle" x="455.5" y="-466.5" font-family="Helvetica,sans-Serif" font-size="10.00">MainNamespace::buildOperator</text>
</a>
</g>
</g>
<!-- Node4&#45;&gt;Node5 -->
<g id="edge4" class="edge">
<title>Node4&#45;&gt;Node5</title>
<path fill="none" stroke="midnightblue" d="M311.21,-568.88C319.03,-566 326.84,-562.71 334,-559 351.76,-549.8 353.98,-543.98 370,-532 391.59,-515.86 416.31,-497.43 433.42,-484.69"/>
<polygon fill="midnightblue" stroke="midnightblue" points="435.68,-487.37 441.61,-478.59 431.5,-481.76 435.68,-487.37"/>
</g>
<!-- Node4&#45;&gt;Node10 -->
<g id="edge49" class="edge">
<title>Node4&#45;&gt;Node10</title>
<path fill="none" stroke="midnightblue" d="M334.13,-569.25C346.1,-567.49 358.35,-565.97 370,-565 445.74,-558.7 467.03,-547.54 541,-565 558.41,-569.11 559.59,-578.89 577,-583 655.29,-601.48 677.67,-587.27 758,-583 843.53,-578.46 941.06,-567.3 1007.48,-558.8"/>
<polygon fill="midnightblue" stroke="midnightblue" points="1007.99,-562.26 1017.46,-557.51 1007.09,-555.32 1007.99,-562.26"/>
</g>
<!-- Node12 -->
<g id="node12" class="node">
<title>Node12</title>
<g id="a_node12"><a xlink:href="namespace_main_namespace.html#a81be07be2d5cb2aa7737c9551518e82b" target="_top" xlink:title=" ">
<polygon fill="white" stroke="black" points="800,-96.5 800,-115.5 963,-115.5 963,-96.5 800,-96.5"/>
<text text-anchor="middle" x="881.5" y="-103.5" font-family="Helvetica,sans-Serif" font-size="10.00">MainNamespace::progressBar</text>
</a>
</g>
</g>
<!-- Node4&#45;&gt;Node12 -->
<g id="edge50" class="edge">
<title>Node4&#45;&gt;Node12</title>
<path fill="none" stroke="midnightblue" d="M320.72,-568.94C325.57,-566.17 330.09,-562.89 334,-559 370.2,-523.05 348.13,-496.09 370,-450 443.42,-295.28 429.51,-212.03 577,-125 652.74,-80.3 758.43,-85.73 823.01,-94.98"/>
<polygon fill="midnightblue" stroke="midnightblue" points="822.6,-98.46 833.01,-96.49 823.65,-91.53 822.6,-98.46"/>
</g>
<!-- Node32 -->
<g id="node32" class="node">
<title>Node32</title>
<g id="a_node32"><a xlink:href="namespace_main_namespace.html#a563d3275892f06e378b075454231763f" target="_top" xlink:title=" ">
<polygon fill="white" stroke="black" points="370,-574.5 370,-593.5 541,-593.5 541,-574.5 370,-574.5"/>
<text text-anchor="middle" x="455.5" y="-581.5" font-family="Helvetica,sans-Serif" font-size="10.00">MainNamespace::cloneDcluster</text>
</a>
</g>
</g>
<!-- Node4&#45;&gt;Node32 -->
<g id="edge47" class="edge">
<title>Node4&#45;&gt;Node32</title>
<path fill="none" stroke="midnightblue" d="M334.19,-584C342.6,-584 351.22,-584 359.8,-584"/>
<polygon fill="midnightblue" stroke="midnightblue" points="359.84,-587.5 369.84,-584 359.84,-580.5 359.84,-587.5"/>
</g>
<!-- Node6 -->
<g id="node6" class="node">
<title>Node6</title>
<g id="a_node6"><a xlink:href="namespace_main_namespace.html#a8d8fdac50b5e686e19890836bb305791" target="_top" xlink:title=" ">
<polygon fill="white" stroke="black" points="585,-304 585,-334 750,-334 750,-304 585,-304"/>
<text text-anchor="start" x="593" y="-322" font-family="Helvetica,sans-Serif" font-size="10.00">MainNamespace::buildImplicit</text>
<text text-anchor="middle" x="667.5" y="-311" font-family="Helvetica,sans-Serif" font-size="10.00">ClusterBasis</text>
</a>
</g>
</g>
<!-- Node5&#45;&gt;Node6 -->
<g id="edge5" class="edge">
<title>Node5&#45;&gt;Node6</title>
<path fill="none" stroke="midnightblue" d="M469.84,-459.29C492.02,-443.16 537.92,-409.86 577,-382 596.63,-368 618.79,-352.41 636.15,-340.23"/>
<polygon fill="midnightblue" stroke="midnightblue" points="638.57,-342.81 644.75,-334.2 634.55,-337.08 638.57,-342.81"/>
</g>
<!-- Node7 -->
<g id="node7" class="node">
<title>Node7</title>
<g id="a_node7"><a xlink:href="namespace_main_namespace.html#a8b635a657e6b53278f8c3df8f0f4dd7e" target="_top" xlink:title=" ">
<polygon fill="white" stroke="black" points="1011,-336.5 1011,-355.5 1164,-355.5 1164,-336.5 1011,-336.5"/>
<text text-anchor="middle" x="1087.5" y="-343.5" font-family="Helvetica,sans-Serif" font-size="10.00">MainNamespace::bytes2MB</text>
</a>
</g>
</g>
<!-- Node5&#45;&gt;Node7 -->
<g id="edge21" class="edge">
<title>Node5&#45;&gt;Node7</title>
<path fill="none" stroke="midnightblue" d="M541.02,-476.74C676.63,-488.52 931.49,-507.8 969,-490 1023.97,-463.91 1061.72,-398.11 1077.78,-365.27"/>
<polygon fill="midnightblue" stroke="midnightblue" points="1081.12,-366.39 1082.23,-355.85 1074.8,-363.4 1081.12,-366.39"/>
</g>
<!-- Node8 -->
<g id="node8" class="node">
<title>Node8</title>
<g id="a_node8"><a xlink:href="namespace_main_namespace.html#a1a47811df49aff58a267d9845ae9da15" target="_top" xlink:title=" ">
<polygon fill="white" stroke="black" points="810,-210.5 810,-229.5 953,-229.5 953,-210.5 810,-210.5"/>
<text text-anchor="middle" x="881.5" y="-217.5" font-family="Helvetica,sans-Serif" font-size="10.00">MainNamespace::kBRatio</text>
</a>
</g>
</g>
<!-- Node5&#45;&gt;Node8 -->
<g id="edge34" class="edge">
<title>Node5&#45;&gt;Node8</title>
<path fill="none" stroke="midnightblue" d="M487.89,-459.49C556.99,-438 719.16,-384.35 758,-343 791.49,-307.35 757.45,-271.51 794,-239 796.21,-237.04 798.57,-235.26 801.06,-233.66"/>
<polygon fill="midnightblue" stroke="midnightblue" points="802.81,-236.69 809.91,-228.83 799.46,-230.54 802.81,-236.69"/>
</g>
<!-- Node5&#45;&gt;Node10 -->
<g id="edge35" class="edge">
<title>Node5&#45;&gt;Node10</title>
<path fill="none" stroke="midnightblue" d="M485.89,-478.53C510.1,-486.01 545.44,-496.12 577,-502 723.04,-529.2 895.73,-540.5 997.92,-545.06"/>
<polygon fill="midnightblue" stroke="midnightblue" points="998.05,-548.57 1008.19,-545.5 998.35,-541.57 998.05,-548.57"/>
</g>
<!-- Node14 -->
<g id="node14" class="node">
<title>Node14</title>
<g id="a_node14"><a xlink:href="namespace_main_namespace.html#af2de50bf4da80fb75ac77bb7bdce2f40" target="_top" xlink:title=" ">
<polygon fill="white" stroke="black" points="794,-172.5 794,-191.5 969,-191.5 969,-172.5 794,-172.5"/>
<text text-anchor="middle" x="881.5" y="-179.5" font-family="Helvetica,sans-Serif" font-size="10.00">MainNamespace::timeExecution</text>
</a>
</g>
</g>
<!-- Node5&#45;&gt;Node14 -->
<g id="edge46" class="edge">
<title>Node5&#45;&gt;Node14</title>
<path fill="none" stroke="midnightblue" d="M460.78,-459.25C473.97,-430.22 516.79,-343.32 577,-294 646.22,-237.29 746.83,-207.79 812.95,-193.59"/>
<polygon fill="midnightblue" stroke="midnightblue" points="813.78,-197 822.86,-191.53 812.35,-190.14 813.78,-197"/>
</g>
<!-- Node20 -->
<g id="node20" class="node">
<title>Node20</title>
<g id="a_node20"><a xlink:href="namespace_main_namespace.html#ab0c0b0cb1d9d667bc93cb8e377796c8a" target="_top" xlink:title=" ">
<polygon fill="white" stroke="black" points="581,-135 581,-165 754,-165 754,-135 581,-135"/>
<text text-anchor="start" x="589" y="-153" font-family="Helvetica,sans-Serif" font-size="10.00">MainNamespace::compressRow</text>
<text text-anchor="middle" x="667.5" y="-142" font-family="Helvetica,sans-Serif" font-size="10.00">ColumnFar</text>
</a>
</g>
</g>
<!-- Node5&#45;&gt;Node20 -->
<g id="edge22" class="edge">
<title>Node5&#45;&gt;Node20</title>
<path fill="none" stroke="midnightblue" d="M460.04,-459.38C472.6,-426.02 517.42,-313.11 577,-234 594.95,-210.17 620.03,-187.28 639.08,-171.43"/>
<polygon fill="midnightblue" stroke="midnightblue" points="641.31,-174.13 646.83,-165.09 636.88,-168.71 641.31,-174.13"/>
</g>
<!-- Node24 -->
<g id="node24" class="node">
<title>Node24</title>
<g id="a_node24"><a xlink:href="namespace_main_namespace.html#a595f92c9feef4f77b05ba85969525fe1" target="_top" xlink:title=" ">
<polygon fill="white" stroke="black" points="577,-687.5 577,-706.5 758,-706.5 758,-687.5 577,-687.5"/>
<text text-anchor="middle" x="667.5" y="-694.5" font-family="Helvetica,sans-Serif" font-size="10.00">MainNamespace::makeDirections</text>
</a>
</g>
</g>
<!-- Node5&#45;&gt;Node24 -->
<g id="edge36" class="edge">
<title>Node5&#45;&gt;Node24</title>
<path fill="none" stroke="midnightblue" d="M465.26,-478.51C497.41,-513.42 609.25,-634.85 650.8,-679.96"/>
<polygon fill="midnightblue" stroke="midnightblue" points="648.36,-682.47 657.71,-687.45 653.51,-677.73 648.36,-682.47"/>
</g>
<!-- Node29 -->
<g id="node29" class="node">
<title>Node29</title>
<g id="a_node29"><a xlink:href="namespace_main_namespace.html#ab762b20c1f4f516b4c9043ce99d64ea9" target="_top" xlink:title=" ">
<polygon fill="white" stroke="black" points="584,-554.5 584,-573.5 751,-573.5 751,-554.5 584,-554.5"/>
<text text-anchor="middle" x="667.5" y="-561.5" font-family="Helvetica,sans-Serif" font-size="10.00">MainNamespace::percentRatio</text>
</a>
</g>
</g>
<!-- Node5&#45;&gt;Node29 -->
<g id="edge42" class="edge">
<title>Node5&#45;&gt;Node29</title>
<path fill="none" stroke="midnightblue" d="M469.96,-478.59C491.57,-493.6 535.8,-522.72 577,-540 588.01,-544.62 600.16,-548.58 611.86,-551.87"/>
<polygon fill="midnightblue" stroke="midnightblue" points="610.98,-555.26 621.55,-554.48 612.8,-548.5 610.98,-555.26"/>
</g>
<!-- Node30 -->
<g id="node30" class="node">
<title>Node30</title>
<g id="a_node30"><a xlink:href="namespace_main_namespace.html#a78e94b3a3cdc51d20e1c665b3c4dd432" target="_top" xlink:title=" ">
<polygon fill="white" stroke="black" points="592,-440.5 592,-459.5 743,-459.5 743,-440.5 592,-440.5"/>
<text text-anchor="middle" x="667.5" y="-447.5" font-family="Helvetica,sans-Serif" font-size="10.00">MainNamespace::reference</text>
</a>
</g>
</g>
<!-- Node5&#45;&gt;Node30 -->
<g id="edge43" class="edge">
<title>Node5&#45;&gt;Node30</title>
<path fill="none" stroke="midnightblue" d="M541.01,-461.35C554.45,-460.14 568.36,-458.88 581.8,-457.66"/>
<polygon fill="midnightblue" stroke="midnightblue" points="582.34,-461.13 591.98,-456.74 581.7,-454.16 582.34,-461.13"/>
</g>
<!-- Node6&#45;&gt;Node7 -->
<g id="edge6" class="edge">
<title>Node6&#45;&gt;Node7</title>
<path fill="none" stroke="midnightblue" d="M750.09,-324.27C822.25,-328.93 927.17,-335.71 1000.6,-340.45"/>
<polygon fill="midnightblue" stroke="midnightblue" points="1000.54,-343.95 1010.75,-341.11 1000.99,-336.97 1000.54,-343.95"/>
</g>
<!-- Node6&#45;&gt;Node8 -->
<g id="edge7" class="edge">
<title>Node6&#45;&gt;Node8</title>
<path fill="none" stroke="midnightblue" d="M692.44,-303.77C710.47,-292.29 735.79,-276.17 758,-262 774.01,-251.79 776.46,-246.26 794,-239 800.2,-236.43 806.81,-234.19 813.5,-232.23"/>
<polygon fill="midnightblue" stroke="midnightblue" points="814.58,-235.56 823.32,-229.57 812.75,-228.81 814.58,-235.56"/>
</g>
<!-- Node6&#45;&gt;Node10 -->
<g id="edge9" class="edge">
<title>Node6&#45;&gt;Node10</title>
<path fill="none" stroke="midnightblue" d="M720.86,-334.03C783.01,-353.25 888.37,-390.2 969,-441 1010.17,-466.93 1050.37,-507.91 1071.41,-530.9"/>
<polygon fill="midnightblue" stroke="midnightblue" points="1068.96,-533.41 1078.26,-538.5 1074.16,-528.73 1068.96,-533.41"/>
</g>
<!-- Node6&#45;&gt;Node12 -->
<g id="edge11" class="edge">
<title>Node6&#45;&gt;Node12</title>
<path fill="none" stroke="midnightblue" d="M678.24,-303.97C697.76,-274.56 744.11,-208.37 794,-163 812.24,-146.41 835.75,-131.24 853.66,-120.73"/>
<polygon fill="midnightblue" stroke="midnightblue" points="855.53,-123.69 862.46,-115.67 852.04,-117.62 855.53,-123.69"/>
</g>
<!-- Node6&#45;&gt;Node14 -->
<g id="edge13" class="edge">
<title>Node6&#45;&gt;Node14</title>
<path fill="none" stroke="midnightblue" d="M699.68,-303.91C718.18,-293.87 741.23,-279.35 758,-262 779.88,-239.37 768.51,-219.47 794,-201 796.68,-199.06 799.51,-197.31 802.47,-195.74"/>
<polygon fill="midnightblue" stroke="midnightblue" points="804.01,-198.88 811.62,-191.52 801.07,-192.53 804.01,-198.88"/>
</g>
<!-- Node9 -->
<g id="node9" class="node">
<title>Node9</title>
<g id="a_node9"><a xlink:href="namespace_main_namespace.html#a676f5efd45b0c88c4ef129b59e69ac71" target="_top" xlink:title=" ">
<polygon fill="white" stroke="black" points="1012,-232.5 1012,-251.5 1163,-251.5 1163,-232.5 1012,-232.5"/>
<text text-anchor="middle" x="1087.5" y="-239.5" font-family="Helvetica,sans-Serif" font-size="10.00">MainNamespace::bytes2KB</text>
</a>
</g>
</g>
<!-- Node8&#45;&gt;Node9 -->
<g id="edge8" class="edge">
<title>Node8&#45;&gt;Node9</title>
<path fill="none" stroke="midnightblue" d="M953.28,-227.63C968.91,-229.32 985.62,-231.12 1001.74,-232.86"/>
<polygon fill="midnightblue" stroke="midnightblue" points="1001.37,-236.34 1011.68,-233.93 1002.12,-229.38 1001.37,-236.34"/>
</g>
<!-- Node11 -->
<g id="node11" class="node">
<title>Node11</title>
<g id="a_node11"><a xlink:href="namespace_main_namespace_1_1_logger.html#af052b0198f333fca77f0837a511ec7f7" target="_top" xlink:title=" ">
<polygon fill="white" stroke="black" points="1223.5,-533 1223.5,-563 1360.5,-563 1360.5,-533 1223.5,-533"/>
<text text-anchor="start" x="1231.5" y="-551" font-family="Helvetica,sans-Serif" font-size="10.00">MainNamespace::Logger</text>
<text text-anchor="middle" x="1292" y="-540" font-family="Helvetica,sans-Serif" font-size="10.00">::forwardLog</text>
</a>
</g>
</g>
<!-- Node10&#45;&gt;Node11 -->
<g id="edge10" class="edge">
<title>Node10&#45;&gt;Node11</title>
<path fill="none" stroke="midnightblue" d="M1166.5,-548C1181.71,-548 1197.66,-548 1212.87,-548"/>
<polygon fill="midnightblue" stroke="midnightblue" points="1213.27,-551.5 1223.27,-548 1213.27,-544.5 1213.27,-551.5"/>
</g>
<!-- Node13 -->
<g id="node13" class="node">
<title>Node13</title>
<g id="a_node13"><a xlink:href="namespace_main_namespace.html#a6fd76e14adc7d23a9822334cb389b369" target="_top" xlink:title=" ">
<polygon fill="white" stroke="black" points="1206,-114.5 1206,-133.5 1378,-133.5 1378,-114.5 1206,-114.5"/>
<text text-anchor="middle" x="1292" y="-121.5" font-family="Helvetica,sans-Serif" font-size="10.00">MainNamespace::globalOptions</text>
</a>
</g>
</g>
<!-- Node12&#45;&gt;Node13 -->
<g id="edge12" class="edge">
<title>Node12&#45;&gt;Node13</title>
<path fill="none" stroke="midnightblue" d="M963.21,-109.56C1030.02,-112.5 1125.1,-116.69 1195.66,-119.8"/>
<polygon fill="midnightblue" stroke="midnightblue" points="1195.74,-123.31 1205.89,-120.25 1196.05,-116.31 1195.74,-123.31"/>
</g>
<!-- Node15 -->
<g id="node15" class="node">
<title>Node15</title>
<g id="a_node15"><a xlink:href="namespace_main_namespace.html#a29e3c10e67bcebfcf74b31964747e0d8" target="_top" xlink:title=" ">
<polygon fill="white" stroke="black" points="1007.5,-76.5 1007.5,-95.5 1167.5,-95.5 1167.5,-76.5 1007.5,-76.5"/>
<text text-anchor="middle" x="1087.5" y="-83.5" font-family="Helvetica,sans-Serif" font-size="10.00">MainNamespace::startTiming</text>
</a>
</g>
</g>
<!-- Node14&#45;&gt;Node15 -->
<g id="edge14" class="edge">
<title>Node14&#45;&gt;Node15</title>
<path fill="none" stroke="midnightblue" d="M902.81,-172.44C939.08,-155.37 1015.15,-119.58 1057.12,-99.82"/>
<polygon fill="midnightblue" stroke="midnightblue" points="1058.72,-102.94 1066.28,-95.52 1055.74,-96.61 1058.72,-102.94"/>
</g>
<!-- Node17 -->
<g id="node17" class="node">
<title>Node17</title>
<g id="a_node17"><a xlink:href="namespace_main_namespace.html#a03589b500835850f32276c9983678dc8" target="_top" xlink:title=" ">
<polygon fill="white" stroke="black" points="1008.5,-155.5 1008.5,-174.5 1166.5,-174.5 1166.5,-155.5 1008.5,-155.5"/>
<text text-anchor="middle" x="1087.5" y="-162.5" font-family="Helvetica,sans-Serif" font-size="10.00">MainNamespace::stopTiming</text>
</a>
</g>
</g>
<!-- Node14&#45;&gt;Node17 -->
<g id="edge17" class="edge">
<title>Node14&#45;&gt;Node17</title>
<path fill="none" stroke="midnightblue" d="M969.01,-174.79C978.69,-173.98 988.55,-173.16 998.24,-172.35"/>
<polygon fill="midnightblue" stroke="midnightblue" points="998.59,-175.84 1008.27,-171.52 998.01,-168.86 998.59,-175.84"/>
</g>
<!-- Node15&#45;&gt;Node13 -->
<g id="edge15" class="edge">
<title>Node15&#45;&gt;Node13</title>
<path fill="none" stroke="midnightblue" d="M1139.34,-95.54C1166.9,-100.71 1201.15,-107.14 1230.13,-112.58"/>
<polygon fill="midnightblue" stroke="midnightblue" points="1229.67,-116.05 1240.14,-114.46 1230.96,-109.17 1229.67,-116.05"/>
</g>
<!-- Node16 -->
<g id="node16" class="node">
<title>Node16</title>
<g id="a_node16"><a xlink:href="class_main_namespace_1_1_clocks.html#a0a4ef648fba7c4c6765db19c6a4a6c46" target="_top" xlink:title=" ">
<polygon fill="white" stroke="black" points="1223.5,-65 1223.5,-95 1360.5,-95 1360.5,-65 1223.5,-65"/>
<text text-anchor="start" x="1231.5" y="-83" font-family="Helvetica,sans-Serif" font-size="10.00">MainNamespace::Clocks</text>
<text text-anchor="middle" x="1292" y="-72" font-family="Helvetica,sans-Serif" font-size="10.00">::start</text>
</a>
</g>
</g>
<!-- Node15&#45;&gt;Node16 -->
<g id="edge16" class="edge">
<title>Node15&#45;&gt;Node16</title>
<path fill="none" stroke="midnightblue" d="M1167.66,-83.65C1182.62,-83.21 1198.26,-82.75 1213.18,-82.31"/>
<polygon fill="midnightblue" stroke="midnightblue" points="1213.49,-85.8 1223.38,-82 1213.28,-78.8 1213.49,-85.8"/>
</g>
<!-- Node17&#45;&gt;Node13 -->
<g id="edge18" class="edge">
<title>Node17&#45;&gt;Node13</title>
<path fill="none" stroke="midnightblue" d="M1135.47,-155.49C1164.88,-149.54 1202.97,-141.82 1234.1,-135.52"/>
<polygon fill="midnightblue" stroke="midnightblue" points="1234.83,-138.94 1243.94,-133.53 1233.44,-132.08 1234.83,-138.94"/>
</g>
<!-- Node18 -->
<g id="node18" class="node">
<title>Node18</title>
<g id="a_node18"><a xlink:href="class_main_namespace_1_1_clocks.html#ae0f6374bfcfdbb939449238eabb488ab" target="_top" xlink:title=" ">
<polygon fill="white" stroke="black" points="1223.5,-153 1223.5,-183 1360.5,-183 1360.5,-153 1223.5,-153"/>
<text text-anchor="start" x="1231.5" y="-171" font-family="Helvetica,sans-Serif" font-size="10.00">MainNamespace::Clocks</text>
<text text-anchor="middle" x="1292" y="-160" font-family="Helvetica,sans-Serif" font-size="10.00">::readAll</text>
</a>
</g>
</g>
<!-- Node17&#45;&gt;Node18 -->
<g id="edge19" class="edge">
<title>Node17&#45;&gt;Node18</title>
<path fill="none" stroke="midnightblue" d="M1166.5,-166.16C1181.71,-166.38 1197.66,-166.62 1212.87,-166.84"/>
<polygon fill="midnightblue" stroke="midnightblue" points="1213.22,-170.35 1223.27,-167 1213.32,-163.35 1213.22,-170.35"/>
</g>
<!-- Node19 -->
<g id="node19" class="node">
<title>Node19</title>
<g id="a_node19"><a xlink:href="namespacelyra_1_1detail.html#ae65bbfceff11344e7ae2b7f28bebcdb7" target="_top" xlink:title=" ">
<polygon fill="white" stroke="black" points="1414,-158.5 1414,-177.5 1532,-177.5 1532,-158.5 1414,-158.5"/>
<text text-anchor="middle" x="1473" y="-165.5" font-family="Helvetica,sans-Serif" font-size="10.00">lyra::detail::to_string</text>
</a>
</g>
</g>
<!-- Node18&#45;&gt;Node19 -->
<g id="edge20" class="edge">
<title>Node18&#45;&gt;Node19</title>
<path fill="none" stroke="midnightblue" d="M1360.67,-168C1374.77,-168 1389.64,-168 1403.77,-168"/>
<polygon fill="midnightblue" stroke="midnightblue" points="1403.89,-171.5 1413.89,-168 1403.89,-164.5 1403.89,-171.5"/>
</g>
<!-- Node20&#45;&gt;Node10 -->
<g id="edge26" class="edge">
<title>Node20&#45;&gt;Node10</title>
<path fill="none" stroke="midnightblue" d="M678.8,-165.4C698.25,-193.4 743.01,-252.99 794,-288 862.79,-335.23 904.97,-302.49 969,-356 1027.38,-404.79 1064.93,-490.42 1079.56,-528.64"/>
<polygon fill="midnightblue" stroke="midnightblue" points="1076.31,-529.94 1083.07,-538.09 1082.87,-527.49 1076.31,-529.94"/>
</g>
<!-- Node20&#45;&gt;Node12 -->
<g id="edge27" class="edge">
<title>Node20&#45;&gt;Node12</title>
<path fill="none" stroke="midnightblue" d="M740.87,-134.98C768.29,-129.29 799.07,-122.9 824.74,-117.57"/>
<polygon fill="midnightblue" stroke="midnightblue" points="825.59,-120.97 834.67,-115.51 824.16,-114.12 825.59,-120.97"/>
</g>
<!-- Node20&#45;&gt;Node15 -->
<g id="edge32" class="edge">
<title>Node20&#45;&gt;Node15</title>
<path fill="none" stroke="midnightblue" d="M690.85,-134.75C715.04,-119.24 755.35,-96.23 794,-87 860.89,-71.03 938.86,-71.68 997.47,-75.83"/>
<polygon fill="midnightblue" stroke="midnightblue" points="997.2,-79.32 1007.44,-76.58 997.73,-72.34 997.2,-79.32"/>
</g>
<!-- Node20&#45;&gt;Node17 -->
<g id="edge33" class="edge">
<title>Node20&#45;&gt;Node17</title>
<path fill="none" stroke="midnightblue" d="M754.1,-153.07C825.24,-155.62 926.1,-159.24 998.03,-161.83"/>
<polygon fill="midnightblue" stroke="midnightblue" points="998.31,-165.34 1008.42,-162.2 998.56,-158.34 998.31,-165.34"/>
</g>
<!-- Node21 -->
<g id="node21" class="node">
<title>Node21</title>
<g id="a_node21"><a xlink:href="namespace_main_namespace.html#a4e7ea1c2ee502be36c9be19ea1c5ada3" target="_top" xlink:title=" ">
<polygon fill="white" stroke="black" points="820.5,-20.5 820.5,-39.5 942.5,-39.5 942.5,-20.5 820.5,-20.5"/>
<text text-anchor="middle" x="881.5" y="-27.5" font-family="Helvetica,sans-Serif" font-size="10.00">MainNamespace::eps</text>
</a>
</g>
</g>
<!-- Node20&#45;&gt;Node21 -->
<g id="edge23" class="edge">
<title>Node20&#45;&gt;Node21</title>
<path fill="none" stroke="midnightblue" d="M684.18,-134.75C706.69,-113.67 750.29,-75.76 794,-54 803.3,-49.37 813.63,-45.52 823.82,-42.37"/>
<polygon fill="midnightblue" stroke="midnightblue" points="824.88,-45.7 833.5,-39.55 822.92,-38.98 824.88,-45.7"/>
</g>
<!-- Node23 -->
<g id="node23" class="node">
<title>Node23</title>
<g id="a_node23"><a xlink:href="namespace_main_namespace.html#a616c9a4091e842c4469e1ceffc02b864" target="_top" xlink:title=" ">
<polygon fill="white" stroke="black" points="797.5,-249 797.5,-279 965.5,-279 965.5,-249 797.5,-249"/>
<text text-anchor="start" x="805.5" y="-267" font-family="Helvetica,sans-Serif" font-size="10.00">MainNamespace::reportCluster</text>
<text text-anchor="middle" x="881.5" y="-256" font-family="Helvetica,sans-Serif" font-size="10.00">Compression</text>
</a>
</g>
</g>
<!-- Node20&#45;&gt;Node23 -->
<g id="edge28" class="edge">
<title>Node20&#45;&gt;Node23</title>
<path fill="none" stroke="midnightblue" d="M685.99,-165.33C709.2,-184.96 752.13,-218.82 794,-239 798.84,-241.33 803.94,-243.49 809.14,-245.48"/>
<polygon fill="midnightblue" stroke="midnightblue" points="807.99,-248.78 818.59,-248.87 810.36,-242.19 807.99,-248.78"/>
</g>
<!-- Node21&#45;&gt;Node13 -->
<g id="edge25" class="edge">
<title>Node21&#45;&gt;Node13</title>
<path fill="none" stroke="midnightblue" d="M942.54,-33.09C1014.81,-37.6 1131.29,-47.65 1170,-67 1190.52,-77.26 1186.03,-92.7 1206,-104 1210.78,-106.71 1215.91,-109.05 1221.2,-111.07"/>
<polygon fill="midnightblue" stroke="midnightblue" points="1220.25,-114.45 1230.84,-114.39 1222.53,-107.83 1220.25,-114.45"/>
</g>
<!-- Node22 -->
<g id="node22" class="node">
<title>Node22</title>
<g id="a_node22"><a xlink:href="struct_main_namespace_1_1_options.html#ad8a5dac97faa38719a378d695f4c3b6b" target="_top" xlink:title=" ">
<polygon fill="white" stroke="black" points="1005,-0.5 1005,-19.5 1170,-19.5 1170,-0.5 1005,-0.5"/>
<text text-anchor="middle" x="1087.5" y="-7.5" font-family="Helvetica,sans-Serif" font-size="10.00">MainNamespace::Options::eps</text>
</a>
</g>
</g>
<!-- Node21&#45;&gt;Node22 -->
<g id="edge24" class="edge">
<title>Node21&#45;&gt;Node22</title>
<path fill="none" stroke="midnightblue" d="M942.6,-24.11C958.91,-22.51 976.95,-20.74 994.58,-19.01"/>
<polygon fill="midnightblue" stroke="midnightblue" points="995.29,-22.46 1004.9,-18 994.61,-15.49 995.29,-22.46"/>
</g>
<!-- Node23&#45;&gt;Node7 -->
<g id="edge30" class="edge">
<title>Node23&#45;&gt;Node7</title>
<path fill="none" stroke="midnightblue" d="M928.1,-279.02C941.37,-283.61 955.84,-288.82 969,-294 999.46,-306 1033.62,-321.33 1057.22,-332.23"/>
<polygon fill="midnightblue" stroke="midnightblue" points="1055.79,-335.43 1066.34,-336.47 1058.74,-329.08 1055.79,-335.43"/>
</g>
<!-- Node23&#45;&gt;Node9 -->
<g id="edge29" class="edge">
<title>Node23&#45;&gt;Node9</title>
<path fill="none" stroke="midnightblue" d="M965.77,-255.02C977.53,-253.75 989.63,-252.45 1001.42,-251.17"/>
<polygon fill="midnightblue" stroke="midnightblue" points="1002.12,-254.62 1011.69,-250.07 1001.37,-247.66 1002.12,-254.62"/>
</g>
<!-- Node23&#45;&gt;Node10 -->
<g id="edge31" class="edge">
<title>Node23&#45;&gt;Node10</title>
<path fill="none" stroke="midnightblue" d="M945.87,-279.18C954.27,-283.06 962.28,-287.92 969,-294 978.56,-302.65 1053.06,-471.62 1078.23,-529.07"/>
<polygon fill="midnightblue" stroke="midnightblue" points="1075.11,-530.68 1082.33,-538.43 1081.52,-527.87 1075.11,-530.68"/>
</g>
<!-- Node24&#45;&gt;Node10 -->
<g id="edge41" class="edge">
<title>Node24&#45;&gt;Node10</title>
<path fill="none" stroke="midnightblue" d="M758.19,-697.72C820.07,-695.04 902.78,-685.02 969,-654 1013.32,-633.24 1052.85,-590.05 1072.8,-565.7"/>
<polygon fill="midnightblue" stroke="midnightblue" points="1075.72,-567.65 1079.24,-557.65 1070.25,-563.27 1075.72,-567.65"/>
</g>
<!-- Node25 -->
<g id="node25" class="node">
<title>Node25</title>
<g id="a_node25"><a xlink:href="namespace_main_namespace.html#ad6c9cb208aad8941d4a3efa626110c5b" target="_top" xlink:title=" ">
<polygon fill="white" stroke="black" points="817.5,-744.5 817.5,-763.5 945.5,-763.5 945.5,-744.5 817.5,-744.5"/>
<text text-anchor="middle" x="881.5" y="-751.5" font-family="Helvetica,sans-Serif" font-size="10.00">MainNamespace::copy</text>
</a>
</g>
</g>
<!-- Node24&#45;&gt;Node25 -->
<g id="edge37" class="edge">
<title>Node24&#45;&gt;Node25</title>
<path fill="none" stroke="midnightblue" d="M697.73,-706.56C723.05,-714.66 760.74,-726.33 794,-735 803.6,-737.5 813.85,-739.95 823.82,-742.21"/>
<polygon fill="midnightblue" stroke="midnightblue" points="823.13,-745.65 833.65,-744.41 824.66,-738.81 823.13,-745.65"/>
</g>
<!-- Node28 -->
<g id="node28" class="node">
<title>Node28</title>
<g id="a_node28"><a xlink:href="namespace_main_namespace.html#a02c8bef81335a9abf6f7c56770f0c7a1" target="_top" xlink:title=" ">
<polygon fill="white" stroke="black" points="821.5,-706.5 821.5,-725.5 941.5,-725.5 941.5,-706.5 821.5,-706.5"/>
<text text-anchor="middle" x="881.5" y="-713.5" font-family="Helvetica,sans-Serif" font-size="10.00">MainNamespace::init</text>
</a>
</g>
</g>
<!-- Node24&#45;&gt;Node28 -->
<g id="edge40" class="edge">
<title>Node24&#45;&gt;Node28</title>
<path fill="none" stroke="midnightblue" d="M758.1,-705.03C775.79,-706.62 794.1,-708.26 811,-709.77"/>
<polygon fill="midnightblue" stroke="midnightblue" points="811.05,-713.29 821.32,-710.7 811.68,-706.32 811.05,-713.29"/>
</g>
<!-- Node26 -->
<g id="node26" class="node">
<title>Node26</title>
<g id="a_node26"><a xlink:href="namespace_main_namespace.html#a066656219cf67ef84d18b17a7daae845" target="_top" xlink:title=" ">
<polygon fill="white" stroke="black" points="1008,-744.5 1008,-763.5 1167,-763.5 1167,-744.5 1008,-744.5"/>
<text text-anchor="middle" x="1087.5" y="-751.5" font-family="Helvetica,sans-Serif" font-size="10.00">MainNamespace::maybeFree</text>
</a>
</g>
</g>
<!-- Node25&#45;&gt;Node26 -->
<g id="edge38" class="edge">
<title>Node25&#45;&gt;Node26</title>
<path fill="none" stroke="midnightblue" d="M945.65,-754C962.08,-754 980.1,-754 997.59,-754"/>
<polygon fill="midnightblue" stroke="midnightblue" points="997.82,-757.5 1007.82,-754 997.82,-750.5 997.82,-757.5"/>
</g>
<!-- Node27 -->
<g id="node27" class="node">
<title>Node27</title>
<g id="a_node27"><a xlink:href="namespace_main_namespace_1_1_c_functions.html#a4c174a200de18d1f8aa4f313eef7513a" target="_top" xlink:title=" ">
<polygon fill="white" stroke="black" points="1213,-739 1213,-769 1371,-769 1371,-739 1213,-739"/>
<text text-anchor="start" x="1221" y="-757" font-family="Helvetica,sans-Serif" font-size="10.00">MainNamespace::CFunctions</text>
<text text-anchor="middle" x="1292" y="-746" font-family="Helvetica,sans-Serif" font-size="10.00">::freeCPointer</text>
</a>
</g>
</g>
<!-- Node26&#45;&gt;Node27 -->
<g id="edge39" class="edge">
<title>Node26&#45;&gt;Node27</title>
<path fill="none" stroke="midnightblue" d="M1167.08,-754C1178.69,-754 1190.72,-754 1202.51,-754"/>
<polygon fill="midnightblue" stroke="midnightblue" points="1202.8,-757.5 1212.8,-754 1202.8,-750.5 1202.8,-757.5"/>
</g>
<!-- Node30&#45;&gt;Node13 -->
<g id="edge44" class="edge">
<title>Node30&#45;&gt;Node13</title>
<path fill="none" stroke="midnightblue" d="M743.07,-442.16C875.4,-427.55 1140.27,-394.94 1170,-365 1240.43,-294.07 1137.44,-215.74 1206,-143 1207.21,-141.71 1208.49,-140.51 1209.83,-139.37"/>
<polygon fill="midnightblue" stroke="midnightblue" points="1211.85,-142.23 1218.06,-133.64 1207.85,-136.48 1211.85,-142.23"/>
</g>
<!-- Node31 -->
<g id="node31" class="node">
<title>Node31</title>
<g id="a_node31"><a xlink:href="struct_main_namespace_1_1_options.html#a7265db95ee1db24aa677c747ec2ec49b" target="_top" xlink:title=" ">
<polygon fill="white" stroke="black" points="810.5,-451 810.5,-481 952.5,-481 952.5,-451 810.5,-451"/>
<text text-anchor="start" x="818.5" y="-469" font-family="Helvetica,sans-Serif" font-size="10.00">MainNamespace::Options</text>
<text text-anchor="middle" x="881.5" y="-458" font-family="Helvetica,sans-Serif" font-size="10.00">::reference</text>
</a>
</g>
</g>
<!-- Node30&#45;&gt;Node31 -->
<g id="edge45" class="edge">
<title>Node30&#45;&gt;Node31</title>
<path fill="none" stroke="midnightblue" d="M743.24,-455.64C761.74,-457.04 781.62,-458.54 800.36,-459.95"/>
<polygon fill="midnightblue" stroke="midnightblue" points="800.1,-463.44 810.34,-460.7 800.63,-456.46 800.1,-463.44"/>
</g>
<!-- Node32&#45;&gt;Node32 -->
<g id="edge48" class="edge">
<title>Node32&#45;&gt;Node32</title>
<path fill="none" stroke="midnightblue" d="M424.67,-593.76C409.68,-602.57 419.95,-612 455.5,-612 480.49,-612 492.99,-607.34 493,-601.5"/>
<polygon fill="midnightblue" stroke="midnightblue" points="495.5,-599.05 486.33,-593.76 490.2,-603.62 495.5,-599.05"/>
</g>
</g>
</svg>
