<?xml version="1.0" encoding="UTF-8" standalone="no"?>
<!DOCTYPE svg PUBLIC "-//W3C//DTD SVG 1.1//EN"
 "http://www.w3.org/Graphics/SVG/1.1/DTD/svg11.dtd">
<!-- Generated by graphviz version 2.43.0 (0)
 -->
<!-- Title: MainNamespace::makeDirections Pages: 1 -->
<svg width="772pt" height="115pt"
 viewBox="0.00 0.00 772.00 115.00" xmlns="http://www.w3.org/2000/svg" xmlns:xlink="http://www.w3.org/1999/xlink">
<g id="graph0" class="graph" transform="scale(1 1) rotate(0) translate(4 111)">
<title>MainNamespace::makeDirections</title>
<polygon fill="white" stroke="transparent" points="-4,4 -4,-111 768,-111 768,4 -4,4"/>
<!-- Node1 -->
<g id="node1" class="node">
<title>Node1</title>
<g id="a_node1"><a xlink:title=" ">
<polygon fill="#bfbfbf" stroke="black" points="0,-44 0,-63 181,-63 181,-44 0,-44"/>
<text text-anchor="middle" x="90.5" y="-51" font-family="Helvetica,sans-Serif" font-size="10.00">MainNamespace::makeDirections</text>
</a>
</g>
</g>
<!-- Node2 -->
<g id="node2" class="node">
<title>Node2</title>
<g id="a_node2"><a xlink:href="namespace_main_namespace.html#ad6c9cb208aad8941d4a3efa626110c5b" target="_top" xlink:title=" ">
<polygon fill="white" stroke="black" points="232,-82 232,-101 360,-101 360,-82 232,-82"/>
<text text-anchor="middle" x="296" y="-89" font-family="Helvetica,sans-Serif" font-size="10.00">MainNamespace::copy</text>
</a>
</g>
</g>
<!-- Node1&#45;&gt;Node2 -->
<g id="edge1" class="edge">
<title>Node1&#45;&gt;Node2</title>
<path fill="none" stroke="midnightblue" d="M142.59,-63.04C170.29,-68.21 204.71,-74.64 233.83,-80.08"/>
<polygon fill="midnightblue" stroke="midnightblue" points="233.42,-83.56 243.89,-81.96 234.7,-76.68 233.42,-83.56"/>
</g>
<!-- Node5 -->
<g id="node5" class="node">
<title>Node5</title>
<g id="a_node5"><a xlink:href="namespace_main_namespace.html#a02c8bef81335a9abf6f7c56770f0c7a1" target="_top" xlink:title=" ">
<polygon fill="white" stroke="black" points="236,-44 236,-63 356,-63 356,-44 236,-44"/>
<text text-anchor="middle" x="296" y="-51" font-family="Helvetica,sans-Serif" font-size="10.00">MainNamespace::init</text>
</a>
</g>
</g>
<!-- Node1&#45;&gt;Node5 -->
<g id="edge4" class="edge">
<title>Node1&#45;&gt;Node5</title>
<path fill="none" stroke="midnightblue" d="M181.05,-53.5C195.98,-53.5 211.27,-53.5 225.6,-53.5"/>
<polygon fill="midnightblue" stroke="midnightblue" points="225.85,-57 235.85,-53.5 225.85,-50 225.85,-57"/>
</g>
<!-- Node6 -->
<g id="node6" class="node">
<title>Node6</title>
<g id="a_node6"><a xlink:href="namespace_main_namespace_1_1_logger.html#afbb4cc2d8b498e71fcb228f0da8309a1" target="_top" xlink:title=" ">
<polygon fill="white" stroke="black" points="217,-6 217,-25 375,-25 375,-6 217,-6"/>
<text text-anchor="middle" x="296" y="-13" font-family="Helvetica,sans-Serif" font-size="10.00">MainNamespace::Logger::log</text>
</a>
</g>
</g>
<!-- Node1&#45;&gt;Node6 -->
<g id="edge5" class="edge">
<title>Node1&#45;&gt;Node6</title>
<path fill="none" stroke="midnightblue" d="M142.59,-43.96C170.29,-38.79 204.71,-32.36 233.83,-26.92"/>
<polygon fill="midnightblue" stroke="midnightblue" points="234.7,-30.32 243.89,-25.04 233.42,-23.44 234.7,-30.32"/>
</g>
<!-- Node3 -->
<g id="node3" class="node">
<title>Node3</title>
<g id="a_node3"><a xlink:href="namespace_main_namespace.html#a066656219cf67ef84d18b17a7daae845" target="_top" xlink:title=" ">
<polygon fill="white" stroke="black" points="411,-82 411,-101 570,-101 570,-82 411,-82"/>
<text text-anchor="middle" x="490.5" y="-89" font-family="Helvetica,sans-Serif" font-size="10.00">MainNamespace::maybeFree</text>
</a>
</g>
</g>
<!-- Node2&#45;&gt;Node3 -->
<g id="edge2" class="edge">
<title>Node2&#45;&gt;Node3</title>
<path fill="none" stroke="midnightblue" d="M360.03,-91.5C372.96,-91.5 386.81,-91.5 400.46,-91.5"/>
<polygon fill="midnightblue" stroke="midnightblue" points="400.84,-95 410.84,-91.5 400.84,-88 400.84,-95"/>
</g>
<!-- Node4 -->
<g id="node4" class="node">
<title>Node4</title>
<g id="a_node4"><a xlink:href="namespace_main_namespace_1_1_c_functions.html#a4c174a200de18d1f8aa4f313eef7513a" target="_top" xlink:title=" ">
<polygon fill="white" stroke="black" points="606,-76.5 606,-106.5 764,-106.5 764,-76.5 606,-76.5"/>
<text text-anchor="start" x="614" y="-94.5" font-family="Helvetica,sans-Serif" font-size="10.00">MainNamespace::CFunctions</text>
<text text-anchor="middle" x="685" y="-83.5" font-family="Helvetica,sans-Serif" font-size="10.00">::freeCPointer</text>
</a>
</g>
</g>
<!-- Node3&#45;&gt;Node4 -->
<g id="edge3" class="edge">
<title>Node3&#45;&gt;Node4</title>
<path fill="none" stroke="midnightblue" d="M570.07,-91.5C578.59,-91.5 587.3,-91.5 595.92,-91.5"/>
<polygon fill="midnightblue" stroke="midnightblue" points="595.99,-95 605.99,-91.5 595.99,-88 595.99,-95"/>
</g>
<!-- Node7 -->
<g id="node7" class="node">
<title>Node7</title>
<g id="a_node7"><a xlink:href="namespace_main_namespace_1_1_logger.html#af052b0198f333fca77f0837a511ec7f7" target="_top" xlink:title=" ">
<polygon fill="white" stroke="black" points="422,-0.5 422,-30.5 559,-30.5 559,-0.5 422,-0.5"/>
<text text-anchor="start" x="430" y="-18.5" font-family="Helvetica,sans-Serif" font-size="10.00">MainNamespace::Logger</text>
<text text-anchor="middle" x="490.5" y="-7.5" font-family="Helvetica,sans-Serif" font-size="10.00">::forwardLog</text>
</a>
</g>
</g>
<!-- Node6&#45;&gt;Node7 -->
<g id="edge6" class="edge">
<title>Node6&#45;&gt;Node7</title>
<path fill="none" stroke="midnightblue" d="M375.02,-15.5C387.15,-15.5 399.68,-15.5 411.81,-15.5"/>
<polygon fill="midnightblue" stroke="midnightblue" points="411.88,-19 421.88,-15.5 411.88,-12 411.88,-19"/>
</g>
</g>
</svg>
