<?xml version="1.0" encoding="UTF-8" standalone="no"?>
<!DOCTYPE svg PUBLIC "-//W3C//DTD SVG 1.1//EN"
 "http://www.w3.org/Graphics/SVG/1.1/DTD/svg11.dtd">
<!-- Generated by graphviz version 2.43.0 (0)
 -->
<!-- Title: MainNamespace::clusterResolution Pages: 1 -->
<svg width="765pt" height="61pt"
 viewBox="0.00 0.00 765.00 61.00" xmlns="http://www.w3.org/2000/svg" xmlns:xlink="http://www.w3.org/1999/xlink">
<g id="graph0" class="graph" transform="scale(1 1) rotate(0) translate(4 57)">
<title>MainNamespace::clusterResolution</title>
<polygon fill="white" stroke="transparent" points="-4,4 -4,-57 761,-57 761,4 -4,4"/>
<!-- Node1 -->
<g id="node1" class="node">
<title>Node1</title>
<g id="a_node1"><a xlink:title=" ">
<polygon fill="#bfbfbf" stroke="black" points="568,-6 568,-25 757,-25 757,-6 568,-6"/>
<text text-anchor="middle" x="662.5" y="-13" font-family="Helvetica,sans-Serif" font-size="10.00">MainNamespace::clusterResolution</text>
</a>
</g>
</g>
<!-- Node2 -->
<g id="node2" class="node">
<title>Node2</title>
<g id="a_node2"><a xlink:href="namespace_main_namespace_1_1_surface.html#a7248ad7bf241ea07a39fc5264435d46e" target="_top" xlink:title=" ">
<polygon fill="white" stroke="black" points="391,-22.5 391,-52.5 532,-52.5 532,-22.5 391,-22.5"/>
<text text-anchor="start" x="399" y="-40.5" font-family="Helvetica,sans-Serif" font-size="10.00">MainNamespace::Surface</text>
<text text-anchor="middle" x="461.5" y="-29.5" font-family="Helvetica,sans-Serif" font-size="10.00">::buildGeometricCluster</text>
</a>
</g>
</g>
<!-- Node1&#45;&gt;Node2 -->
<g id="edge1" class="edge">
<title>Node1&#45;&gt;Node2</title>
<path fill="none" stroke="midnightblue" d="M565.21,-26.15C554.11,-27.37 542.95,-28.61 532.29,-29.78"/>
<polygon fill="midnightblue" stroke="midnightblue" points="565.82,-29.6 575.37,-25.02 565.05,-22.64 565.82,-29.6"/>
</g>
<!-- Node3 -->
<g id="node3" class="node">
<title>Node3</title>
<g id="a_node3"><a xlink:href="class_main_namespace_1_1_surface_1_1_single_surface.html#ae5d17671333d624db60d56cf43ffc6c5" target="_top" xlink:title="Setup cluster trees.">
<polygon fill="white" stroke="black" points="198,-0.5 198,-30.5 355,-30.5 355,-0.5 198,-0.5"/>
<text text-anchor="start" x="206" y="-18.5" font-family="Helvetica,sans-Serif" font-size="10.00">MainNamespace::Surface</text>
<text text-anchor="middle" x="276.5" y="-7.5" font-family="Helvetica,sans-Serif" font-size="10.00">::SingleSurface::setupCluster</text>
</a>
</g>
</g>
<!-- Node1&#45;&gt;Node3 -->
<g id="edge4" class="edge">
<title>Node1&#45;&gt;Node3</title>
<path fill="none" stroke="midnightblue" d="M557.61,-13.75C548.95,-13.65 540.32,-13.56 532,-13.5 469.34,-13.02 453.66,-12.95 391,-13.5 379.37,-13.6 367.08,-13.76 355.04,-13.95"/>
<polygon fill="midnightblue" stroke="midnightblue" points="557.74,-17.26 567.78,-13.88 557.83,-10.26 557.74,-17.26"/>
</g>
<!-- Node2&#45;&gt;Node3 -->
<g id="edge2" class="edge">
<title>Node2&#45;&gt;Node3</title>
<path fill="none" stroke="midnightblue" d="M380.62,-27.9C372.2,-26.88 363.65,-25.86 355.26,-24.85"/>
<polygon fill="midnightblue" stroke="midnightblue" points="380.45,-31.4 390.79,-29.12 381.28,-24.45 380.45,-31.4"/>
</g>
<!-- Node4 -->
<g id="node4" class="node">
<title>Node4</title>
<g id="a_node4"><a xlink:href="class_main_namespace_1_1_surface_1_1_single_surface.html#a2cb253a6c5cc5d0c66ead47e5db3233b" target="_top" xlink:title="Construct an object to manage data associated to a closed boundary.">
<polygon fill="white" stroke="black" points="0,-0.5 0,-30.5 162,-30.5 162,-0.5 0,-0.5"/>
<text text-anchor="start" x="8" y="-18.5" font-family="Helvetica,sans-Serif" font-size="10.00">MainNamespace::Surface</text>
<text text-anchor="middle" x="81" y="-7.5" font-family="Helvetica,sans-Serif" font-size="10.00">::SingleSurface::SingleSurface</text>
</a>
</g>
</g>
<!-- Node3&#45;&gt;Node4 -->
<g id="edge3" class="edge">
<title>Node3&#45;&gt;Node4</title>
<path fill="none" stroke="midnightblue" d="M187.9,-15.5C179.32,-15.5 170.64,-15.5 162.14,-15.5"/>
<polygon fill="midnightblue" stroke="midnightblue" points="187.91,-19 197.91,-15.5 187.91,-12 187.91,-19"/>
</g>
</g>
</svg>
