<?xml version="1.0" encoding="UTF-8" standalone="no"?>
<!DOCTYPE svg PUBLIC "-//W3C//DTD SVG 1.1//EN"
 "http://www.w3.org/Graphics/SVG/1.1/DTD/svg11.dtd">
<!-- Generated by graphviz version 2.43.0 (0)
 -->
<!-- Title: MainNamespace::buildOperator Pages: 1 -->
<svg width="1170pt" height="635pt"
 viewBox="0.00 0.00 1170.00 635.04" xmlns="http://www.w3.org/2000/svg" xmlns:xlink="http://www.w3.org/1999/xlink">
<g id="graph0" class="graph" transform="scale(1 1) rotate(0) translate(4 631.04)">
<title>MainNamespace::buildOperator</title>
<polygon fill="white" stroke="transparent" points="-4,4 -4,-631.04 1166,-631.04 1166,4 -4,4"/>
<!-- Node1 -->
<g id="node1" class="node">
<title>Node1</title>
<g id="a_node1"><a xlink:title="Build a dh2matrix for the operator described by bemDescription, using the given clusters.">
<polygon fill="#bfbfbf" stroke="black" points="0,-357.5 0,-376.5 171,-376.5 171,-357.5 0,-357.5"/>
<text text-anchor="middle" x="85.5" y="-364.5" font-family="Helvetica,sans-Serif" font-size="10.00">MainNamespace::buildOperator</text>
</a>
</g>
</g>
<!-- Node2 -->
<g id="node2" class="node">
<title>Node2</title>
<g id="a_node2"><a xlink:href="namespace_main_namespace.html#a8d8fdac50b5e686e19890836bb305791" target="_top" xlink:title=" ">
<polygon fill="white" stroke="black" points="215,-469 215,-499 380,-499 380,-469 215,-469"/>
<text text-anchor="start" x="223" y="-487" font-family="Helvetica,sans-Serif" font-size="10.00">MainNamespace::buildImplicit</text>
<text text-anchor="middle" x="297.5" y="-476" font-family="Helvetica,sans-Serif" font-size="10.00">ClusterBasis</text>
</a>
</g>
</g>
<!-- Node1&#45;&gt;Node2 -->
<g id="edge1" class="edge">
<title>Node1&#45;&gt;Node2</title>
<path fill="none" stroke="midnightblue" d="M97.38,-376.62C117.66,-394.14 163.16,-431.49 207,-454 215.33,-458.28 224.4,-462.14 233.47,-465.56"/>
<polygon fill="midnightblue" stroke="midnightblue" points="232.29,-468.86 242.88,-468.96 234.67,-462.27 232.29,-468.86"/>
</g>
<!-- Node3 -->
<g id="node3" class="node">
<title>Node3</title>
<g id="a_node3"><a xlink:href="namespace_main_namespace.html#a8b635a657e6b53278f8c3df8f0f4dd7e" target="_top" xlink:title=" ">
<polygon fill="white" stroke="black" points="641,-594.5 641,-613.5 794,-613.5 794,-594.5 641,-594.5"/>
<text text-anchor="middle" x="717.5" y="-601.5" font-family="Helvetica,sans-Serif" font-size="10.00">MainNamespace::bytes2MB</text>
</a>
</g>
</g>
<!-- Node1&#45;&gt;Node3 -->
<g id="edge17" class="edge">
<title>Node1&#45;&gt;Node3</title>
<path fill="none" stroke="midnightblue" d="M90.08,-376.57C101.84,-406.67 142.27,-500.3 207,-548 342.05,-647.53 554.51,-630.84 657.12,-615.12"/>
<polygon fill="midnightblue" stroke="midnightblue" points="657.97,-618.53 667.29,-613.51 656.87,-611.62 657.97,-618.53"/>
</g>
<!-- Node4 -->
<g id="node4" class="node">
<title>Node4</title>
<g id="a_node4"><a xlink:href="namespace_main_namespace.html#a1a47811df49aff58a267d9845ae9da15" target="_top" xlink:title=" ">
<polygon fill="white" stroke="black" points="440,-556.5 440,-575.5 583,-575.5 583,-556.5 440,-556.5"/>
<text text-anchor="middle" x="511.5" y="-563.5" font-family="Helvetica,sans-Serif" font-size="10.00">MainNamespace::kBRatio</text>
</a>
</g>
</g>
<!-- Node1&#45;&gt;Node4 -->
<g id="edge30" class="edge">
<title>Node1&#45;&gt;Node4</title>
<path fill="none" stroke="midnightblue" d="M91.49,-376.54C105.65,-402.59 148.85,-475.21 207,-509 275.31,-548.69 365.55,-561.58 429.83,-565.36"/>
<polygon fill="midnightblue" stroke="midnightblue" points="429.75,-568.86 439.92,-565.89 430.11,-561.87 429.75,-568.86"/>
</g>
<!-- Node6 -->
<g id="node6" class="node">
<title>Node6</title>
<g id="a_node6"><a xlink:href="namespace_main_namespace_1_1_logger.html#afbb4cc2d8b498e71fcb228f0da8309a1" target="_top" xlink:title=" ">
<polygon fill="white" stroke="black" points="638.5,-430.5 638.5,-449.5 796.5,-449.5 796.5,-430.5 638.5,-430.5"/>
<text text-anchor="middle" x="717.5" y="-437.5" font-family="Helvetica,sans-Serif" font-size="10.00">MainNamespace::Logger::log</text>
</a>
</g>
</g>
<!-- Node1&#45;&gt;Node6 -->
<g id="edge31" class="edge">
<title>Node1&#45;&gt;Node6</title>
<path fill="none" stroke="midnightblue" d="M142.78,-376.54C209.65,-387.61 324.68,-405.75 424,-417 492.4,-424.75 570.09,-430.72 628.21,-434.64"/>
<polygon fill="midnightblue" stroke="midnightblue" points="628.25,-438.15 638.46,-435.32 628.71,-431.17 628.25,-438.15"/>
</g>
<!-- Node10 -->
<g id="node10" class="node">
<title>Node10</title>
<g id="a_node10"><a xlink:href="namespace_main_namespace.html#af2de50bf4da80fb75ac77bb7bdce2f40" target="_top" xlink:title=" ">
<polygon fill="white" stroke="black" points="424,-354.5 424,-373.5 599,-373.5 599,-354.5 424,-354.5"/>
<text text-anchor="middle" x="511.5" y="-361.5" font-family="Helvetica,sans-Serif" font-size="10.00">MainNamespace::timeExecution</text>
</a>
</g>
</g>
<!-- Node1&#45;&gt;Node10 -->
<g id="edge42" class="edge">
<title>Node1&#45;&gt;Node10</title>
<path fill="none" stroke="midnightblue" d="M171.03,-366.4C241.06,-365.91 340.6,-365.2 413.79,-364.68"/>
<polygon fill="midnightblue" stroke="midnightblue" points="413.97,-368.18 423.94,-364.61 413.92,-361.18 413.97,-368.18"/>
</g>
<!-- Node16 -->
<g id="node16" class="node">
<title>Node16</title>
<g id="a_node16"><a xlink:href="namespace_main_namespace.html#ab0c0b0cb1d9d667bc93cb8e377796c8a" target="_top" xlink:title=" ">
<polygon fill="white" stroke="black" points="211,-308 211,-338 384,-338 384,-308 211,-308"/>
<text text-anchor="start" x="219" y="-326" font-family="Helvetica,sans-Serif" font-size="10.00">MainNamespace::compressRow</text>
<text text-anchor="middle" x="297.5" y="-315" font-family="Helvetica,sans-Serif" font-size="10.00">ColumnFar</text>
</a>
</g>
</g>
<!-- Node1&#45;&gt;Node16 -->
<g id="edge18" class="edge">
<title>Node1&#45;&gt;Node16</title>
<path fill="none" stroke="midnightblue" d="M132.07,-357.45C156.24,-352.39 186.67,-346.01 214.77,-340.12"/>
<polygon fill="midnightblue" stroke="midnightblue" points="215.53,-343.54 224.6,-338.07 214.09,-336.69 215.53,-343.54"/>
</g>
<!-- Node20 -->
<g id="node20" class="node">
<title>Node20</title>
<g id="a_node20"><a xlink:href="namespace_main_namespace.html#a595f92c9feef4f77b05ba85969525fe1" target="_top" xlink:title=" ">
<polygon fill="white" stroke="black" points="207,-142.5 207,-161.5 388,-161.5 388,-142.5 207,-142.5"/>
<text text-anchor="middle" x="297.5" y="-149.5" font-family="Helvetica,sans-Serif" font-size="10.00">MainNamespace::makeDirections</text>
</a>
</g>
</g>
<!-- Node1&#45;&gt;Node20 -->
<g id="edge32" class="edge">
<title>Node1&#45;&gt;Node20</title>
<path fill="none" stroke="midnightblue" d="M89.38,-357.34C99.53,-325.1 136.82,-220.51 207,-171 209.73,-169.08 212.61,-167.34 215.6,-165.78"/>
<polygon fill="midnightblue" stroke="midnightblue" points="217.21,-168.89 224.86,-161.57 214.31,-162.52 217.21,-168.89"/>
</g>
<!-- Node25 -->
<g id="node25" class="node">
<title>Node25</title>
<g id="a_node25"><a xlink:href="namespace_main_namespace.html#ab762b20c1f4f516b4c9043ce99d64ea9" target="_top" xlink:title=" ">
<polygon fill="white" stroke="black" points="214,-104.5 214,-123.5 381,-123.5 381,-104.5 214,-104.5"/>
<text text-anchor="middle" x="297.5" y="-111.5" font-family="Helvetica,sans-Serif" font-size="10.00">MainNamespace::percentRatio</text>
</a>
</g>
</g>
<!-- Node1&#45;&gt;Node25 -->
<g id="edge38" class="edge">
<title>Node1&#45;&gt;Node25</title>
<path fill="none" stroke="midnightblue" d="M88.44,-357.06C96.12,-320.64 127.83,-193.46 207,-133 209.37,-131.19 211.87,-129.55 214.47,-128.05"/>
<polygon fill="midnightblue" stroke="midnightblue" points="216.24,-131.08 223.66,-123.52 213.14,-124.8 216.24,-131.08"/>
</g>
<!-- Node26 -->
<g id="node26" class="node">
<title>Node26</title>
<g id="a_node26"><a xlink:href="namespace_main_namespace.html#a78e94b3a3cdc51d20e1c665b3c4dd432" target="_top" xlink:title=" ">
<polygon fill="white" stroke="black" points="222,-180.5 222,-199.5 373,-199.5 373,-180.5 222,-180.5"/>
<text text-anchor="middle" x="297.5" y="-187.5" font-family="Helvetica,sans-Serif" font-size="10.00">MainNamespace::reference</text>
</a>
</g>
</g>
<!-- Node1&#45;&gt;Node26 -->
<g id="edge39" class="edge">
<title>Node1&#45;&gt;Node26</title>
<path fill="none" stroke="midnightblue" d="M97.79,-357.48C131.97,-328.67 234.62,-242.16 277.43,-206.07"/>
<polygon fill="midnightblue" stroke="midnightblue" points="279.76,-208.68 285.15,-199.56 275.25,-203.33 279.76,-208.68"/>
</g>
<!-- Node2&#45;&gt;Node3 -->
<g id="edge2" class="edge">
<title>Node2&#45;&gt;Node3</title>
<path fill="none" stroke="midnightblue" d="M311.32,-499.04C332.19,-522.32 376.05,-566.33 424,-585 490.01,-610.7 570.71,-614.07 630.62,-611.79"/>
<polygon fill="midnightblue" stroke="midnightblue" points="630.96,-615.28 640.8,-611.34 630.65,-608.29 630.96,-615.28"/>
</g>
<!-- Node2&#45;&gt;Node4 -->
<g id="edge3" class="edge">
<title>Node2&#45;&gt;Node4</title>
<path fill="none" stroke="midnightblue" d="M324.1,-499.24C348.9,-513.41 387.92,-534.21 424,-547 431.34,-549.6 439.15,-551.92 446.98,-553.96"/>
<polygon fill="midnightblue" stroke="midnightblue" points="446.3,-557.4 456.85,-556.4 447.98,-550.6 446.3,-557.4"/>
</g>
<!-- Node2&#45;&gt;Node6 -->
<g id="edge5" class="edge">
<title>Node2&#45;&gt;Node6</title>
<path fill="none" stroke="midnightblue" d="M380.17,-476.27C440.63,-470.45 524.99,-462.1 599,-454 608.47,-452.96 618.37,-451.84 628.23,-450.7"/>
<polygon fill="midnightblue" stroke="midnightblue" points="628.94,-454.14 638.47,-449.51 628.13,-447.19 628.94,-454.14"/>
</g>
<!-- Node8 -->
<g id="node8" class="node">
<title>Node8</title>
<g id="a_node8"><a xlink:href="namespace_main_namespace.html#a81be07be2d5cb2aa7737c9551518e82b" target="_top" xlink:title=" ">
<polygon fill="white" stroke="black" points="430,-316.5 430,-335.5 593,-335.5 593,-316.5 430,-316.5"/>
<text text-anchor="middle" x="511.5" y="-323.5" font-family="Helvetica,sans-Serif" font-size="10.00">MainNamespace::progressBar</text>
</a>
</g>
</g>
<!-- Node2&#45;&gt;Node8 -->
<g id="edge7" class="edge">
<title>Node2&#45;&gt;Node8</title>
<path fill="none" stroke="midnightblue" d="M307.7,-468.62C325.96,-439.52 369.74,-376.52 424,-345 427.84,-342.77 431.92,-340.8 436.13,-339.06"/>
<polygon fill="midnightblue" stroke="midnightblue" points="437.34,-342.34 445.52,-335.61 434.93,-335.77 437.34,-342.34"/>
</g>
<!-- Node2&#45;&gt;Node10 -->
<g id="edge9" class="edge">
<title>Node2&#45;&gt;Node10</title>
<path fill="none" stroke="midnightblue" d="M325.35,-468.8C366.49,-445.52 444.59,-401.31 484.94,-378.47"/>
<polygon fill="midnightblue" stroke="midnightblue" points="486.67,-381.51 493.65,-373.54 483.22,-375.42 486.67,-381.51"/>
</g>
<!-- Node5 -->
<g id="node5" class="node">
<title>Node5</title>
<g id="a_node5"><a xlink:href="namespace_main_namespace.html#a676f5efd45b0c88c4ef129b59e69ac71" target="_top" xlink:title=" ">
<polygon fill="white" stroke="black" points="642,-534.5 642,-553.5 793,-553.5 793,-534.5 642,-534.5"/>
<text text-anchor="middle" x="717.5" y="-541.5" font-family="Helvetica,sans-Serif" font-size="10.00">MainNamespace::bytes2KB</text>
</a>
</g>
</g>
<!-- Node4&#45;&gt;Node5 -->
<g id="edge4" class="edge">
<title>Node4&#45;&gt;Node5</title>
<path fill="none" stroke="midnightblue" d="M583.28,-558.37C598.91,-556.68 615.62,-554.88 631.74,-553.14"/>
<polygon fill="midnightblue" stroke="midnightblue" points="632.12,-556.62 641.68,-552.07 631.37,-549.66 632.12,-556.62"/>
</g>
<!-- Node7 -->
<g id="node7" class="node">
<title>Node7</title>
<g id="a_node7"><a xlink:href="namespace_main_namespace_1_1_logger.html#af052b0198f333fca77f0837a511ec7f7" target="_top" xlink:title=" ">
<polygon fill="white" stroke="black" points="853.5,-425 853.5,-455 990.5,-455 990.5,-425 853.5,-425"/>
<text text-anchor="start" x="861.5" y="-443" font-family="Helvetica,sans-Serif" font-size="10.00">MainNamespace::Logger</text>
<text text-anchor="middle" x="922" y="-432" font-family="Helvetica,sans-Serif" font-size="10.00">::forwardLog</text>
</a>
</g>
</g>
<!-- Node6&#45;&gt;Node7 -->
<g id="edge6" class="edge">
<title>Node6&#45;&gt;Node7</title>
<path fill="none" stroke="midnightblue" d="M796.5,-440C811.71,-440 827.66,-440 842.87,-440"/>
<polygon fill="midnightblue" stroke="midnightblue" points="843.27,-443.5 853.27,-440 843.27,-436.5 843.27,-443.5"/>
</g>
<!-- Node9 -->
<g id="node9" class="node">
<title>Node9</title>
<g id="a_node9"><a xlink:href="namespace_main_namespace.html#a6fd76e14adc7d23a9822334cb389b369" target="_top" xlink:title=" ">
<polygon fill="white" stroke="black" points="836,-196.5 836,-215.5 1008,-215.5 1008,-196.5 836,-196.5"/>
<text text-anchor="middle" x="922" y="-203.5" font-family="Helvetica,sans-Serif" font-size="10.00">MainNamespace::globalOptions</text>
</a>
</g>
</g>
<!-- Node8&#45;&gt;Node9 -->
<g id="edge8" class="edge">
<title>Node8&#45;&gt;Node9</title>
<path fill="none" stroke="midnightblue" d="M521.15,-316.27C539.7,-296.17 585.63,-250.34 635,-231 695.52,-207.29 768.61,-201.25 825.75,-201.03"/>
<polygon fill="midnightblue" stroke="midnightblue" points="825.85,-204.53 835.86,-201.05 825.87,-197.53 825.85,-204.53"/>
</g>
<!-- Node11 -->
<g id="node11" class="node">
<title>Node11</title>
<g id="a_node11"><a xlink:href="namespace_main_namespace.html#a29e3c10e67bcebfcf74b31964747e0d8" target="_top" xlink:title=" ">
<polygon fill="white" stroke="black" points="637.5,-283.5 637.5,-302.5 797.5,-302.5 797.5,-283.5 637.5,-283.5"/>
<text text-anchor="middle" x="717.5" y="-290.5" font-family="Helvetica,sans-Serif" font-size="10.00">MainNamespace::startTiming</text>
</a>
</g>
</g>
<!-- Node10&#45;&gt;Node11 -->
<g id="edge10" class="edge">
<title>Node10&#45;&gt;Node11</title>
<path fill="none" stroke="midnightblue" d="M564.18,-354.42C575.76,-351.79 587.89,-348.64 599,-345 630.68,-334.63 665.4,-318.65 688.83,-307.14"/>
<polygon fill="midnightblue" stroke="midnightblue" points="690.43,-310.25 697.83,-302.67 687.32,-303.98 690.43,-310.25"/>
</g>
<!-- Node13 -->
<g id="node13" class="node">
<title>Node13</title>
<g id="a_node13"><a xlink:href="namespace_main_namespace.html#a03589b500835850f32276c9983678dc8" target="_top" xlink:title=" ">
<polygon fill="white" stroke="black" points="638.5,-240.5 638.5,-259.5 796.5,-259.5 796.5,-240.5 638.5,-240.5"/>
<text text-anchor="middle" x="717.5" y="-247.5" font-family="Helvetica,sans-Serif" font-size="10.00">MainNamespace::stopTiming</text>
</a>
</g>
</g>
<!-- Node10&#45;&gt;Node13 -->
<g id="edge13" class="edge">
<title>Node10&#45;&gt;Node13</title>
<path fill="none" stroke="midnightblue" d="M582.51,-354.47C588.41,-351.97 594.02,-348.86 599,-345 626.97,-323.34 607.8,-296.63 635,-274 639.99,-269.85 645.66,-266.42 651.65,-263.58"/>
<polygon fill="midnightblue" stroke="midnightblue" points="653.36,-266.66 661.25,-259.59 650.67,-260.2 653.36,-266.66"/>
</g>
<!-- Node11&#45;&gt;Node9 -->
<g id="edge11" class="edge">
<title>Node11&#45;&gt;Node9</title>
<path fill="none" stroke="midnightblue" d="M767.96,-283.47C779.05,-280 790.38,-275.31 800,-269 820.85,-255.34 814.78,-239.08 836,-226 840.33,-223.33 844.97,-221.02 849.79,-219.02"/>
<polygon fill="midnightblue" stroke="midnightblue" points="851.05,-222.29 859.21,-215.54 848.62,-215.72 851.05,-222.29"/>
</g>
<!-- Node12 -->
<g id="node12" class="node">
<title>Node12</title>
<g id="a_node12"><a xlink:href="class_main_namespace_1_1_clocks.html#a0a4ef648fba7c4c6765db19c6a4a6c46" target="_top" xlink:title=" ">
<polygon fill="white" stroke="black" points="853.5,-284 853.5,-314 990.5,-314 990.5,-284 853.5,-284"/>
<text text-anchor="start" x="861.5" y="-302" font-family="Helvetica,sans-Serif" font-size="10.00">MainNamespace::Clocks</text>
<text text-anchor="middle" x="922" y="-291" font-family="Helvetica,sans-Serif" font-size="10.00">::start</text>
</a>
</g>
</g>
<!-- Node11&#45;&gt;Node12 -->
<g id="edge12" class="edge">
<title>Node11&#45;&gt;Node12</title>
<path fill="none" stroke="midnightblue" d="M797.66,-295.35C812.62,-295.79 828.26,-296.25 843.18,-296.69"/>
<polygon fill="midnightblue" stroke="midnightblue" points="843.28,-300.2 853.38,-297 843.49,-293.2 843.28,-300.2"/>
</g>
<!-- Node13&#45;&gt;Node9 -->
<g id="edge14" class="edge">
<title>Node13&#45;&gt;Node9</title>
<path fill="none" stroke="midnightblue" d="M762.44,-240.45C793.22,-233.76 834.54,-224.79 867.28,-217.67"/>
<polygon fill="midnightblue" stroke="midnightblue" points="868.12,-221.07 877.15,-215.53 866.63,-214.23 868.12,-221.07"/>
</g>
<!-- Node14 -->
<g id="node14" class="node">
<title>Node14</title>
<g id="a_node14"><a xlink:href="class_main_namespace_1_1_clocks.html#ae0f6374bfcfdbb939449238eabb488ab" target="_top" xlink:title=" ">
<polygon fill="white" stroke="black" points="853.5,-235 853.5,-265 990.5,-265 990.5,-235 853.5,-235"/>
<text text-anchor="start" x="861.5" y="-253" font-family="Helvetica,sans-Serif" font-size="10.00">MainNamespace::Clocks</text>
<text text-anchor="middle" x="922" y="-242" font-family="Helvetica,sans-Serif" font-size="10.00">::readAll</text>
</a>
</g>
</g>
<!-- Node13&#45;&gt;Node14 -->
<g id="edge15" class="edge">
<title>Node13&#45;&gt;Node14</title>
<path fill="none" stroke="midnightblue" d="M796.5,-250C811.71,-250 827.66,-250 842.87,-250"/>
<polygon fill="midnightblue" stroke="midnightblue" points="843.27,-253.5 853.27,-250 843.27,-246.5 843.27,-253.5"/>
</g>
<!-- Node15 -->
<g id="node15" class="node">
<title>Node15</title>
<g id="a_node15"><a xlink:href="namespacelyra_1_1detail.html#ae65bbfceff11344e7ae2b7f28bebcdb7" target="_top" xlink:title=" ">
<polygon fill="white" stroke="black" points="1044,-240.5 1044,-259.5 1162,-259.5 1162,-240.5 1044,-240.5"/>
<text text-anchor="middle" x="1103" y="-247.5" font-family="Helvetica,sans-Serif" font-size="10.00">lyra::detail::to_string</text>
</a>
</g>
</g>
<!-- Node14&#45;&gt;Node15 -->
<g id="edge16" class="edge">
<title>Node14&#45;&gt;Node15</title>
<path fill="none" stroke="midnightblue" d="M990.67,-250C1004.77,-250 1019.64,-250 1033.77,-250"/>
<polygon fill="midnightblue" stroke="midnightblue" points="1033.89,-253.5 1043.89,-250 1033.89,-246.5 1033.89,-253.5"/>
</g>
<!-- Node16&#45;&gt;Node6 -->
<g id="edge22" class="edge">
<title>Node16&#45;&gt;Node6</title>
<path fill="none" stroke="midnightblue" d="M325.09,-338.16C349.95,-351.74 388.46,-371.25 424,-383 491.45,-405.29 570.69,-420.07 629.67,-428.98"/>
<polygon fill="midnightblue" stroke="midnightblue" points="629.29,-432.46 639.7,-430.47 630.32,-425.54 629.29,-432.46"/>
</g>
<!-- Node16&#45;&gt;Node8 -->
<g id="edge23" class="edge">
<title>Node16&#45;&gt;Node8</title>
<path fill="none" stroke="midnightblue" d="M384.12,-324.21C395.76,-324.38 407.75,-324.55 419.48,-324.71"/>
<polygon fill="midnightblue" stroke="midnightblue" points="419.66,-328.21 429.71,-324.86 419.76,-321.22 419.66,-328.21"/>
</g>
<!-- Node16&#45;&gt;Node11 -->
<g id="edge28" class="edge">
<title>Node16&#45;&gt;Node11</title>
<path fill="none" stroke="midnightblue" d="M384.14,-311.17C397.47,-309.59 411.09,-308.13 424,-307 491.96,-301.05 569.05,-297.49 627.01,-295.45"/>
<polygon fill="midnightblue" stroke="midnightblue" points="627.37,-298.94 637.24,-295.1 627.13,-291.95 627.37,-298.94"/>
</g>
<!-- Node16&#45;&gt;Node13 -->
<g id="edge29" class="edge">
<title>Node16&#45;&gt;Node13</title>
<path fill="none" stroke="midnightblue" d="M354.15,-307.99C375.84,-302.47 400.98,-296.48 424,-292 492.05,-278.74 569.76,-267.78 627.97,-260.38"/>
<polygon fill="midnightblue" stroke="midnightblue" points="628.76,-263.81 638.24,-259.09 627.88,-256.87 628.76,-263.81"/>
</g>
<!-- Node17 -->
<g id="node17" class="node">
<title>Node17</title>
<g id="a_node17"><a xlink:href="namespace_main_namespace.html#a4e7ea1c2ee502be36c9be19ea1c5ada3" target="_top" xlink:title=" ">
<polygon fill="white" stroke="black" points="450.5,-164.5 450.5,-183.5 572.5,-183.5 572.5,-164.5 450.5,-164.5"/>
<text text-anchor="middle" x="511.5" y="-171.5" font-family="Helvetica,sans-Serif" font-size="10.00">MainNamespace::eps</text>
</a>
</g>
</g>
<!-- Node16&#45;&gt;Node17 -->
<g id="edge19" class="edge">
<title>Node16&#45;&gt;Node17</title>
<path fill="none" stroke="midnightblue" d="M319.99,-307.89C360.5,-279.43 447.71,-218.13 488.56,-189.42"/>
<polygon fill="midnightblue" stroke="midnightblue" points="490.59,-192.27 496.76,-183.65 486.57,-186.54 490.59,-192.27"/>
</g>
<!-- Node19 -->
<g id="node19" class="node">
<title>Node19</title>
<g id="a_node19"><a xlink:href="namespace_main_namespace.html#a616c9a4091e842c4469e1ceffc02b864" target="_top" xlink:title=" ">
<polygon fill="white" stroke="black" points="427.5,-507 427.5,-537 595.5,-537 595.5,-507 427.5,-507"/>
<text text-anchor="start" x="435.5" y="-525" font-family="Helvetica,sans-Serif" font-size="10.00">MainNamespace::reportCluster</text>
<text text-anchor="middle" x="511.5" y="-514" font-family="Helvetica,sans-Serif" font-size="10.00">Compression</text>
</a>
</g>
</g>
<!-- Node16&#45;&gt;Node19 -->
<g id="edge24" class="edge">
<title>Node16&#45;&gt;Node19</title>
<path fill="none" stroke="midnightblue" d="M314.78,-338.28C352.02,-373.24 443.53,-459.14 486.93,-499.88"/>
<polygon fill="midnightblue" stroke="midnightblue" points="484.76,-502.64 494.45,-506.94 489.56,-497.54 484.76,-502.64"/>
</g>
<!-- Node17&#45;&gt;Node9 -->
<g id="edge21" class="edge">
<title>Node17&#45;&gt;Node9</title>
<path fill="none" stroke="midnightblue" d="M572.78,-178.72C639.36,-183.94 747.49,-192.41 825.6,-198.53"/>
<polygon fill="midnightblue" stroke="midnightblue" points="825.69,-202.04 835.94,-199.34 826.24,-195.07 825.69,-202.04"/>
</g>
<!-- Node18 -->
<g id="node18" class="node">
<title>Node18</title>
<g id="a_node18"><a xlink:href="struct_main_namespace_1_1_options.html#ad8a5dac97faa38719a378d695f4c3b6b" target="_top" xlink:title=" ">
<polygon fill="white" stroke="black" points="635,-126.5 635,-145.5 800,-145.5 800,-126.5 635,-126.5"/>
<text text-anchor="middle" x="717.5" y="-133.5" font-family="Helvetica,sans-Serif" font-size="10.00">MainNamespace::Options::eps</text>
</a>
</g>
</g>
<!-- Node17&#45;&gt;Node18 -->
<g id="edge20" class="edge">
<title>Node17&#45;&gt;Node18</title>
<path fill="none" stroke="midnightblue" d="M563.71,-164.46C591.48,-159.29 625.99,-152.86 655.18,-147.42"/>
<polygon fill="midnightblue" stroke="midnightblue" points="656.07,-150.82 665.26,-145.54 654.79,-143.93 656.07,-150.82"/>
</g>
<!-- Node19&#45;&gt;Node3 -->
<g id="edge26" class="edge">
<title>Node19&#45;&gt;Node3</title>
<path fill="none" stroke="midnightblue" d="M569.72,-537.04C579.58,-540.06 589.66,-543.41 599,-547 616.31,-553.64 659.44,-575.05 688.35,-589.66"/>
<polygon fill="midnightblue" stroke="midnightblue" points="687.05,-592.92 697.55,-594.32 690.21,-586.68 687.05,-592.92"/>
</g>
<!-- Node19&#45;&gt;Node5 -->
<g id="edge25" class="edge">
<title>Node19&#45;&gt;Node5</title>
<path fill="none" stroke="midnightblue" d="M595.77,-530.98C607.53,-532.25 619.63,-533.55 631.42,-534.83"/>
<polygon fill="midnightblue" stroke="midnightblue" points="631.37,-538.34 641.69,-535.93 632.12,-531.38 631.37,-538.34"/>
</g>
<!-- Node19&#45;&gt;Node6 -->
<g id="edge27" class="edge">
<title>Node19&#45;&gt;Node6</title>
<path fill="none" stroke="midnightblue" d="M558.1,-506.98C571.37,-502.39 585.84,-497.18 599,-492 629.46,-480 663.62,-464.67 687.22,-453.77"/>
<polygon fill="midnightblue" stroke="midnightblue" points="688.74,-456.92 696.34,-449.53 685.79,-450.57 688.74,-456.92"/>
</g>
<!-- Node20&#45;&gt;Node6 -->
<g id="edge37" class="edge">
<title>Node20&#45;&gt;Node6</title>
<path fill="none" stroke="midnightblue" d="M358.63,-161.61C368.63,-164.1 378.75,-167.19 388,-171 394.45,-173.66 593.71,-302.46 599,-307 641.41,-343.44 682.74,-395.06 703.21,-422.02"/>
<polygon fill="midnightblue" stroke="midnightblue" points="700.52,-424.26 709.32,-430.16 706.12,-420.06 700.52,-424.26"/>
</g>
<!-- Node21 -->
<g id="node21" class="node">
<title>Node21</title>
<g id="a_node21"><a xlink:href="namespace_main_namespace.html#ad6c9cb208aad8941d4a3efa626110c5b" target="_top" xlink:title=" ">
<polygon fill="white" stroke="black" points="447.5,-38.5 447.5,-57.5 575.5,-57.5 575.5,-38.5 447.5,-38.5"/>
<text text-anchor="middle" x="511.5" y="-45.5" font-family="Helvetica,sans-Serif" font-size="10.00">MainNamespace::copy</text>
</a>
</g>
</g>
<!-- Node20&#45;&gt;Node21 -->
<g id="edge33" class="edge">
<title>Node20&#45;&gt;Node21</title>
<path fill="none" stroke="midnightblue" d="M370.66,-142.35C376.82,-139.87 382.71,-136.8 388,-133 413.56,-114.62 399.02,-91.16 424,-72 429.7,-67.63 436.14,-64.06 442.89,-61.14"/>
<polygon fill="midnightblue" stroke="midnightblue" points="444.15,-64.4 452.22,-57.54 441.63,-57.87 444.15,-64.4"/>
</g>
<!-- Node24 -->
<g id="node24" class="node">
<title>Node24</title>
<g id="a_node24"><a xlink:href="namespace_main_namespace.html#a02c8bef81335a9abf6f7c56770f0c7a1" target="_top" xlink:title=" ">
<polygon fill="white" stroke="black" points="451.5,-0.5 451.5,-19.5 571.5,-19.5 571.5,-0.5 451.5,-0.5"/>
<text text-anchor="middle" x="511.5" y="-7.5" font-family="Helvetica,sans-Serif" font-size="10.00">MainNamespace::init</text>
</a>
</g>
</g>
<!-- Node20&#45;&gt;Node24 -->
<g id="edge36" class="edge">
<title>Node20&#45;&gt;Node24</title>
<path fill="none" stroke="midnightblue" d="M373.69,-142.41C378.86,-139.88 383.71,-136.79 388,-133 424.66,-100.62 387.45,-61.51 424,-29 429.17,-24.4 435.2,-20.83 441.62,-18.07"/>
<polygon fill="midnightblue" stroke="midnightblue" points="443.05,-21.28 451.26,-14.58 440.67,-14.7 443.05,-21.28"/>
</g>
<!-- Node22 -->
<g id="node22" class="node">
<title>Node22</title>
<g id="a_node22"><a xlink:href="namespace_main_namespace.html#a066656219cf67ef84d18b17a7daae845" target="_top" xlink:title=" ">
<polygon fill="white" stroke="black" points="638,-38.5 638,-57.5 797,-57.5 797,-38.5 638,-38.5"/>
<text text-anchor="middle" x="717.5" y="-45.5" font-family="Helvetica,sans-Serif" font-size="10.00">MainNamespace::maybeFree</text>
</a>
</g>
</g>
<!-- Node21&#45;&gt;Node22 -->
<g id="edge34" class="edge">
<title>Node21&#45;&gt;Node22</title>
<path fill="none" stroke="midnightblue" d="M575.65,-48C592.08,-48 610.1,-48 627.59,-48"/>
<polygon fill="midnightblue" stroke="midnightblue" points="627.82,-51.5 637.82,-48 627.82,-44.5 627.82,-51.5"/>
</g>
<!-- Node23 -->
<g id="node23" class="node">
<title>Node23</title>
<g id="a_node23"><a xlink:href="namespace_main_namespace_1_1_c_functions.html#a4c174a200de18d1f8aa4f313eef7513a" target="_top" xlink:title=" ">
<polygon fill="white" stroke="black" points="843,-33 843,-63 1001,-63 1001,-33 843,-33"/>
<text text-anchor="start" x="851" y="-51" font-family="Helvetica,sans-Serif" font-size="10.00">MainNamespace::CFunctions</text>
<text text-anchor="middle" x="922" y="-40" font-family="Helvetica,sans-Serif" font-size="10.00">::freeCPointer</text>
</a>
</g>
</g>
<!-- Node22&#45;&gt;Node23 -->
<g id="edge35" class="edge">
<title>Node22&#45;&gt;Node23</title>
<path fill="none" stroke="midnightblue" d="M797.08,-48C808.69,-48 820.72,-48 832.51,-48"/>
<polygon fill="midnightblue" stroke="midnightblue" points="832.8,-51.5 842.8,-48 832.8,-44.5 832.8,-51.5"/>
</g>
<!-- Node26&#45;&gt;Node9 -->
<g id="edge40" class="edge">
<title>Node26&#45;&gt;Node9</title>
<path fill="none" stroke="midnightblue" d="M371.22,-180.32C377.2,-177.84 382.89,-174.78 388,-171 414.55,-151.36 395.55,-122.77 424,-106 496.02,-63.56 721.32,-88.77 800,-117 842.66,-132.3 883.17,-167.85 904.78,-189.1"/>
<polygon fill="midnightblue" stroke="midnightblue" points="902.57,-191.84 912.1,-196.47 907.54,-186.91 902.57,-191.84"/>
</g>
<!-- Node27 -->
<g id="node27" class="node">
<title>Node27</title>
<g id="a_node27"><a xlink:href="struct_main_namespace_1_1_options.html#a7265db95ee1db24aa677c747ec2ec49b" target="_top" xlink:title=" ">
<polygon fill="white" stroke="black" points="440.5,-115 440.5,-145 582.5,-145 582.5,-115 440.5,-115"/>
<text text-anchor="start" x="448.5" y="-133" font-family="Helvetica,sans-Serif" font-size="10.00">MainNamespace::Options</text>
<text text-anchor="middle" x="511.5" y="-122" font-family="Helvetica,sans-Serif" font-size="10.00">::reference</text>
</a>
</g>
</g>
<!-- Node26&#45;&gt;Node27 -->
<g id="edge41" class="edge">
<title>Node26&#45;&gt;Node27</title>
<path fill="none" stroke="midnightblue" d="M352.46,-180.45C364.29,-177.83 376.67,-174.68 388,-171 404.65,-165.6 407.55,-161 424,-155 430.66,-152.57 437.68,-150.21 444.72,-147.99"/>
<polygon fill="midnightblue" stroke="midnightblue" points="445.78,-151.32 454.3,-145.03 443.71,-144.63 445.78,-151.32"/>
</g>
</g>
</svg>
