<?xml version="1.0" encoding="UTF-8" standalone="no"?>
<!DOCTYPE svg PUBLIC "-//W3C//DTD SVG 1.1//EN"
 "http://www.w3.org/Graphics/SVG/1.1/DTD/svg11.dtd">
<!-- Generated by graphviz version 2.43.0 (0)
 -->
<!-- Title: MainNamespace::copy Pages: 1 -->
<svg width="1502pt" height="121pt"
 viewBox="0.00 0.00 1502.00 121.00" xmlns="http://www.w3.org/2000/svg" xmlns:xlink="http://www.w3.org/1999/xlink">
<g id="graph0" class="graph" transform="scale(1 1) rotate(0) translate(4 117)">
<title>MainNamespace::copy</title>
<polygon fill="white" stroke="transparent" points="-4,4 -4,-117 1498,-117 1498,4 -4,4"/>
<!-- Node1 -->
<g id="node1" class="node">
<title>Node1</title>
<g id="a_node1"><a xlink:title=" ">
<polygon fill="#bfbfbf" stroke="black" points="1366,-44 1366,-63 1494,-63 1494,-44 1366,-44"/>
<text text-anchor="middle" x="1430" y="-51" font-family="Helvetica,sans-Serif" font-size="10.00">MainNamespace::copy</text>
</a>
</g>
</g>
<!-- Node2 -->
<g id="node2" class="node">
<title>Node2</title>
<g id="a_node2"><a xlink:href="namespace_main_namespace_1_1_surface.html#ae2df9c52faa0d299f2d4241ff436ca77" target="_top" xlink:title=" ">
<polygon fill="white" stroke="black" points="1169,-82.5 1169,-112.5 1310,-112.5 1310,-82.5 1169,-82.5"/>
<text text-anchor="start" x="1177" y="-100.5" font-family="Helvetica,sans-Serif" font-size="10.00">MainNamespace::Surface</text>
<text text-anchor="middle" x="1239.5" y="-89.5" font-family="Helvetica,sans-Serif" font-size="10.00">::copySurface</text>
</a>
</g>
</g>
<!-- Node1&#45;&gt;Node2 -->
<g id="edge1" class="edge">
<title>Node1&#45;&gt;Node2</title>
<path fill="none" stroke="midnightblue" d="M1378.09,-65.38C1355.6,-70.63 1328.91,-76.86 1305.04,-82.43"/>
<polygon fill="midnightblue" stroke="midnightblue" points="1379.16,-68.73 1388.1,-63.05 1377.56,-61.91 1379.16,-68.73"/>
</g>
<!-- Node3 -->
<g id="node3" class="node">
<title>Node3</title>
<g id="a_node3"><a xlink:href="namespace_main_namespace_1_1_surface.html#a91ad285a7a25853007779d157350ae2d" target="_top" xlink:title="Reorient all needed triangles by swapping two vertices.">
<polygon fill="white" stroke="black" points="957,-65.5 957,-95.5 1098,-95.5 1098,-65.5 957,-65.5"/>
<text text-anchor="start" x="965" y="-83.5" font-family="Helvetica,sans-Serif" font-size="10.00">MainNamespace::Surface</text>
<text text-anchor="middle" x="1027.5" y="-72.5" font-family="Helvetica,sans-Serif" font-size="10.00">::orientCopy</text>
</a>
</g>
</g>
<!-- Node1&#45;&gt;Node3 -->
<g id="edge12" class="edge">
<title>Node1&#45;&gt;Node3</title>
<path fill="none" stroke="midnightblue" d="M1355.9,-58.43C1282.53,-63.37 1170.35,-70.94 1098.21,-75.8"/>
<polygon fill="midnightblue" stroke="midnightblue" points="1356.24,-61.91 1365.98,-57.75 1355.77,-54.93 1356.24,-61.91"/>
</g>
<!-- Node5 -->
<g id="node5" class="node">
<title>Node5</title>
<g id="a_node5"><a xlink:href="namespace_main_namespace.html#a595f92c9feef4f77b05ba85969525fe1" target="_top" xlink:title=" ">
<polygon fill="white" stroke="black" points="1149,-6 1149,-25 1330,-25 1330,-6 1149,-6"/>
<text text-anchor="middle" x="1239.5" y="-13" font-family="Helvetica,sans-Serif" font-size="10.00">MainNamespace::makeDirections</text>
</a>
</g>
</g>
<!-- Node1&#45;&gt;Node5 -->
<g id="edge4" class="edge">
<title>Node1&#45;&gt;Node5</title>
<path fill="none" stroke="midnightblue" d="M1371.41,-41.89C1344.6,-36.49 1313.1,-30.14 1287.72,-25.02"/>
<polygon fill="midnightblue" stroke="midnightblue" points="1370.94,-45.37 1381.43,-43.91 1372.32,-38.5 1370.94,-45.37"/>
</g>
<!-- Node2&#45;&gt;Node3 -->
<g id="edge2" class="edge">
<title>Node2&#45;&gt;Node3</title>
<path fill="none" stroke="midnightblue" d="M1158.89,-91.06C1138.95,-89.44 1117.72,-87.72 1098.31,-86.15"/>
<polygon fill="midnightblue" stroke="midnightblue" points="1158.61,-94.54 1168.86,-91.86 1159.18,-87.57 1158.61,-94.54"/>
</g>
<!-- Node4 -->
<g id="node4" class="node">
<title>Node4</title>
<g id="a_node4"><a xlink:href="class_main_namespace_1_1_surface_1_1_single_surface.html#a2cb253a6c5cc5d0c66ead47e5db3233b" target="_top" xlink:title="Construct an object to manage data associated to a closed boundary.">
<polygon fill="white" stroke="black" points="744,-65.5 744,-95.5 906,-95.5 906,-65.5 744,-65.5"/>
<text text-anchor="start" x="752" y="-83.5" font-family="Helvetica,sans-Serif" font-size="10.00">MainNamespace::Surface</text>
<text text-anchor="middle" x="825" y="-72.5" font-family="Helvetica,sans-Serif" font-size="10.00">::SingleSurface::SingleSurface</text>
</a>
</g>
</g>
<!-- Node3&#45;&gt;Node4 -->
<g id="edge3" class="edge">
<title>Node3&#45;&gt;Node4</title>
<path fill="none" stroke="midnightblue" d="M946.81,-80.5C933.41,-80.5 919.51,-80.5 906.1,-80.5"/>
<polygon fill="midnightblue" stroke="midnightblue" points="946.94,-84 956.94,-80.5 946.94,-77 946.94,-84"/>
</g>
<!-- Node6 -->
<g id="node6" class="node">
<title>Node6</title>
<g id="a_node6"><a xlink:href="namespace_main_namespace.html#aaa553a0feb6a9e785dce2ea7c2f25481" target="_top" xlink:title="Build a dh2matrix for the operator described by bemDescription, using the given clusters.">
<polygon fill="white" stroke="black" points="942,-6 942,-25 1113,-25 1113,-6 942,-6"/>
<text text-anchor="middle" x="1027.5" y="-13" font-family="Helvetica,sans-Serif" font-size="10.00">MainNamespace::buildOperator</text>
</a>
</g>
</g>
<!-- Node5&#45;&gt;Node6 -->
<g id="edge5" class="edge">
<title>Node5&#45;&gt;Node6</title>
<path fill="none" stroke="midnightblue" d="M1138.81,-15.5C1130.25,-15.5 1121.63,-15.5 1113.2,-15.5"/>
<polygon fill="midnightblue" stroke="midnightblue" points="1138.83,-19 1148.83,-15.5 1138.83,-12 1138.83,-19"/>
</g>
<!-- Node7 -->
<g id="node7" class="node">
<title>Node7</title>
<g id="a_node7"><a xlink:href="class_main_namespace_1_1_d_h2_matrix_wrapper.html#a8b3117680075ec79bc0500f3e901b133" target="_top" xlink:title="Take ownership of, the pointer to the bem description and build the matrix and all needed data struct...">
<polygon fill="white" stroke="black" points="746.5,-0.5 746.5,-30.5 903.5,-30.5 903.5,-0.5 746.5,-0.5"/>
<text text-anchor="start" x="754.5" y="-18.5" font-family="Helvetica,sans-Serif" font-size="10.00">MainNamespace::DH2Matrix</text>
<text text-anchor="middle" x="825" y="-7.5" font-family="Helvetica,sans-Serif" font-size="10.00">Wrapper::build</text>
</a>
</g>
</g>
<!-- Node6&#45;&gt;Node7 -->
<g id="edge6" class="edge">
<title>Node6&#45;&gt;Node7</title>
<path fill="none" stroke="midnightblue" d="M931.66,-15.5C922.31,-15.5 912.89,-15.5 903.74,-15.5"/>
<polygon fill="midnightblue" stroke="midnightblue" points="931.76,-19 941.76,-15.5 931.76,-12 931.76,-19"/>
</g>
<!-- Node8 -->
<g id="node8" class="node">
<title>Node8</title>
<g id="a_node8"><a xlink:href="namespace_main_namespace_1_1_surface.html#a7e821744eeb79cb1faa8468d53cb7c1e" target="_top" xlink:title=" ">
<polygon fill="white" stroke="black" points="567,-0.5 567,-30.5 708,-30.5 708,-0.5 567,-0.5"/>
<text text-anchor="start" x="575" y="-18.5" font-family="Helvetica,sans-Serif" font-size="10.00">MainNamespace::Surface</text>
<text text-anchor="middle" x="637.5" y="-7.5" font-family="Helvetica,sans-Serif" font-size="10.00">::makeTmpApply</text>
</a>
</g>
</g>
<!-- Node7&#45;&gt;Node8 -->
<g id="edge7" class="edge">
<title>Node7&#45;&gt;Node8</title>
<path fill="none" stroke="midnightblue" d="M736.22,-15.5C726.78,-15.5 717.28,-15.5 708.1,-15.5"/>
<polygon fill="midnightblue" stroke="midnightblue" points="736.41,-19 746.41,-15.5 736.41,-12 736.41,-19"/>
</g>
<!-- Node9 -->
<g id="node9" class="node">
<title>Node9</title>
<g id="a_node9"><a xlink:href="class_main_namespace_1_1_surface_1_1_single_surface.html#a3321422c36eccd213cfc48823a9f54d7" target="_top" xlink:title="Project the offset on the current mesh, then use it to compute the right&#45;hand side.">
<polygon fill="white" stroke="black" points="366,-0.5 366,-30.5 531,-30.5 531,-0.5 366,-0.5"/>
<text text-anchor="start" x="374" y="-18.5" font-family="Helvetica,sans-Serif" font-size="10.00">MainNamespace::Surface</text>
<text text-anchor="middle" x="448.5" y="-7.5" font-family="Helvetica,sans-Serif" font-size="10.00">::SingleSurface::makeMultiRhs</text>
</a>
</g>
</g>
<!-- Node8&#45;&gt;Node9 -->
<g id="edge8" class="edge">
<title>Node8&#45;&gt;Node9</title>
<path fill="none" stroke="midnightblue" d="M556.67,-15.5C548.23,-15.5 539.64,-15.5 531.18,-15.5"/>
<polygon fill="midnightblue" stroke="midnightblue" points="556.87,-19 566.87,-15.5 556.87,-12 556.87,-19"/>
</g>
<!-- Node10 -->
<g id="node10" class="node">
<title>Node10</title>
<g id="a_node10"><a xlink:href="class_main_namespace_1_1_surface_1_1_multi_surface.html#a8839f7e49575079e39fbb95a692772a5" target="_top" xlink:title="Compute the right&#45;hand side, the operators, then solve the linear system.">
<polygon fill="white" stroke="black" points="189,-0.5 189,-30.5 330,-30.5 330,-0.5 189,-0.5"/>
<text text-anchor="start" x="197" y="-18.5" font-family="Helvetica,sans-Serif" font-size="10.00">MainNamespace::Surface</text>
<text text-anchor="middle" x="259.5" y="-7.5" font-family="Helvetica,sans-Serif" font-size="10.00">::MultiSurface::solve</text>
</a>
</g>
</g>
<!-- Node9&#45;&gt;Node10 -->
<g id="edge9" class="edge">
<title>Node9&#45;&gt;Node10</title>
<path fill="none" stroke="midnightblue" d="M355.67,-15.5C347.07,-15.5 338.44,-15.5 330.09,-15.5"/>
<polygon fill="midnightblue" stroke="midnightblue" points="355.75,-19 365.75,-15.5 355.75,-12 355.75,-19"/>
</g>
<!-- Node11 -->
<g id="node11" class="node">
<title>Node11</title>
<g id="a_node11"><a xlink:href="main_8cpp.html#a5d68713f22d1b3e2495b15d107ea7d21" target="_top" xlink:title=" ">
<polygon fill="white" stroke="black" points="77,-6 77,-25 153,-25 153,-6 77,-6"/>
<text text-anchor="middle" x="115" y="-13" font-family="Helvetica,sans-Serif" font-size="10.00">testProblem</text>
</a>
</g>
</g>
<!-- Node10&#45;&gt;Node11 -->
<g id="edge10" class="edge">
<title>Node10&#45;&gt;Node11</title>
<path fill="none" stroke="midnightblue" d="M178.85,-15.5C169.97,-15.5 161.27,-15.5 153.31,-15.5"/>
<polygon fill="midnightblue" stroke="midnightblue" points="178.92,-19 188.92,-15.5 178.92,-12 178.92,-19"/>
</g>
<!-- Node12 -->
<g id="node12" class="node">
<title>Node12</title>
<g id="a_node12"><a xlink:href="main_8cpp.html#a3c04138a5bfe5d72780bb7e82a18e627" target="_top" xlink:title=" ">
<polygon fill="white" stroke="black" points="0,-6 0,-25 41,-25 41,-6 0,-6"/>
<text text-anchor="middle" x="20.5" y="-13" font-family="Helvetica,sans-Serif" font-size="10.00">main</text>
</a>
</g>
</g>
<!-- Node11&#45;&gt;Node12 -->
<g id="edge11" class="edge">
<title>Node11&#45;&gt;Node12</title>
<path fill="none" stroke="midnightblue" d="M66.72,-15.5C57.65,-15.5 48.64,-15.5 41.07,-15.5"/>
<polygon fill="midnightblue" stroke="midnightblue" points="66.91,-19 76.91,-15.5 66.91,-12 66.91,-19"/>
</g>
</g>
</svg>
