<?xml version="1.0" encoding="UTF-8" standalone="no"?>
<!DOCTYPE svg PUBLIC "-//W3C//DTD SVG 1.1//EN"
 "http://www.w3.org/Graphics/SVG/1.1/DTD/svg11.dtd">
<!-- Generated by graphviz version 2.43.0 (0)
 -->
<!-- Title: lyra::detail::parse_string Pages: 1 -->
<svg width="397pt" height="137pt"
 viewBox="0.00 0.00 397.00 137.00" xmlns="http://www.w3.org/2000/svg" xmlns:xlink="http://www.w3.org/1999/xlink">
<g id="graph0" class="graph" transform="scale(1 1) rotate(0) translate(4 133)">
<title>lyra::detail::parse_string</title>
<polygon fill="white" stroke="transparent" points="-4,4 -4,-133 393,-133 393,4 -4,4"/>
<!-- Node1 -->
<g id="node1" class="node">
<title>Node1</title>
<g id="a_node1"><a xlink:title=" ">
<polygon fill="#bfbfbf" stroke="black" points="0,-49.5 0,-79.5 102,-79.5 102,-49.5 0,-49.5"/>
<text text-anchor="start" x="8" y="-67.5" font-family="Helvetica,sans-Serif" font-size="10.00">lyra::detail::parse</text>
<text text-anchor="middle" x="51" y="-56.5" font-family="Helvetica,sans-Serif" font-size="10.00">_string</text>
</a>
</g>
</g>
<!-- Node2 -->
<g id="node2" class="node">
<title>Node2</title>
<g id="a_node2"><a xlink:href="classlyra_1_1detail_1_1basic__result.html#ae878693d416cc48943171ab4187f5719" target="_top" xlink:title=" ">
<polygon fill="white" stroke="black" points="138,-49.5 138,-79.5 239,-79.5 239,-49.5 138,-49.5"/>
<text text-anchor="start" x="146" y="-67.5" font-family="Helvetica,sans-Serif" font-size="10.00">lyra::detail::basic</text>
<text text-anchor="middle" x="188.5" y="-56.5" font-family="Helvetica,sans-Serif" font-size="10.00">_result::error</text>
</a>
</g>
</g>
<!-- Node1&#45;&gt;Node2 -->
<g id="edge1" class="edge">
<title>Node1&#45;&gt;Node2</title>
<path fill="none" stroke="midnightblue" d="M102.07,-64.5C110.32,-64.5 118.95,-64.5 127.42,-64.5"/>
<polygon fill="midnightblue" stroke="midnightblue" points="127.64,-68 137.64,-64.5 127.64,-61 127.64,-68"/>
</g>
<!-- Node6 -->
<g id="node6" class="node">
<title>Node6</title>
<g id="a_node6"><a xlink:href="namespacelyra_1_1detail.html#ac687157112493fe0f0196dc562c0a1e0" target="_top" xlink:title=" ">
<polygon fill="white" stroke="black" points="139.5,-0.5 139.5,-30.5 237.5,-30.5 237.5,-0.5 139.5,-0.5"/>
<text text-anchor="start" x="147.5" y="-18.5" font-family="Helvetica,sans-Serif" font-size="10.00">lyra::detail::from</text>
<text text-anchor="middle" x="188.5" y="-7.5" font-family="Helvetica,sans-Serif" font-size="10.00">_string</text>
</a>
</g>
</g>
<!-- Node1&#45;&gt;Node6 -->
<g id="edge5" class="edge">
<title>Node1&#45;&gt;Node6</title>
<path fill="none" stroke="midnightblue" d="M93.76,-49.4C107.15,-44.55 122.15,-39.13 136.14,-34.07"/>
<polygon fill="midnightblue" stroke="midnightblue" points="137.43,-37.33 145.64,-30.64 135.05,-30.75 137.43,-37.33"/>
</g>
<!-- Node7 -->
<g id="node7" class="node">
<title>Node7</title>
<g id="a_node7"><a xlink:href="classlyra_1_1detail_1_1basic__result.html#aee577409a431e215136ffc0764e5432b" target="_top" xlink:title=" ">
<polygon fill="white" stroke="black" points="138,-98.5 138,-128.5 239,-128.5 239,-98.5 138,-98.5"/>
<text text-anchor="start" x="146" y="-116.5" font-family="Helvetica,sans-Serif" font-size="10.00">lyra::detail::basic</text>
<text text-anchor="middle" x="188.5" y="-105.5" font-family="Helvetica,sans-Serif" font-size="10.00">_result::ok</text>
</a>
</g>
</g>
<!-- Node1&#45;&gt;Node7 -->
<g id="edge6" class="edge">
<title>Node1&#45;&gt;Node7</title>
<path fill="none" stroke="midnightblue" d="M93.76,-79.6C107.15,-84.45 122.15,-89.87 136.14,-94.93"/>
<polygon fill="midnightblue" stroke="midnightblue" points="135.05,-98.25 145.64,-98.36 137.43,-91.67 135.05,-98.25"/>
</g>
<!-- Node3 -->
<g id="node3" class="node">
<title>Node3</title>
<g id="a_node3"><a xlink:href="classlyra_1_1detail_1_1basic__result.html#a2a6448a9babcc3d583edff8f13e076b9" target="_top" xlink:title=" ">
<polygon fill="white" stroke="black" points="275,-54.5 275,-84.5 389,-84.5 389,-54.5 275,-54.5"/>
<text text-anchor="start" x="283" y="-72.5" font-family="Helvetica,sans-Serif" font-size="10.00">lyra::detail::basic</text>
<text text-anchor="middle" x="332" y="-61.5" font-family="Helvetica,sans-Serif" font-size="10.00">_result::basic_result</text>
</a>
</g>
</g>
<!-- Node2&#45;&gt;Node3 -->
<g id="edge2" class="edge">
<title>Node2&#45;&gt;Node3</title>
<path fill="none" stroke="midnightblue" d="M239.39,-66.26C247.53,-66.55 256.08,-66.85 264.55,-67.15"/>
<polygon fill="midnightblue" stroke="midnightblue" points="264.69,-70.66 274.81,-67.51 264.94,-63.66 264.69,-70.66"/>
</g>
<!-- Node4 -->
<g id="node4" class="node">
<title>Node4</title>
<g id="a_node4"><a xlink:href="classlyra_1_1detail_1_1result__base.html#af2039c056e3c27fd5efa1542bd7167be" target="_top" xlink:title=" ">
<polygon fill="white" stroke="black" points="280.5,-5.5 280.5,-35.5 383.5,-35.5 383.5,-5.5 280.5,-5.5"/>
<text text-anchor="start" x="288.5" y="-23.5" font-family="Helvetica,sans-Serif" font-size="10.00">lyra::detail::result</text>
<text text-anchor="middle" x="332" y="-12.5" font-family="Helvetica,sans-Serif" font-size="10.00">_base::message</text>
</a>
</g>
</g>
<!-- Node2&#45;&gt;Node4 -->
<g id="edge3" class="edge">
<title>Node2&#45;&gt;Node4</title>
<path fill="none" stroke="midnightblue" d="M237.8,-49.48C249.06,-45.98 261.16,-42.22 272.8,-38.6"/>
<polygon fill="midnightblue" stroke="midnightblue" points="273.93,-41.91 282.44,-35.6 271.85,-35.23 273.93,-41.91"/>
</g>
<!-- Node5 -->
<g id="node5" class="node">
<title>Node5</title>
<g id="a_node5"><a xlink:href="namespacelyra.html#a2138b812a6ac30b6abcab35c05664a64" target="_top" xlink:title=" ">
<polygon fill="white" stroke="black" points="304,-104 304,-123 360,-123 360,-104 304,-104"/>
<text text-anchor="middle" x="332" y="-111" font-family="Helvetica,sans-Serif" font-size="10.00">lyra::val</text>
</a>
</g>
</g>
<!-- Node2&#45;&gt;Node5 -->
<g id="edge4" class="edge">
<title>Node2&#45;&gt;Node5</title>
<path fill="none" stroke="midnightblue" d="M232.09,-79.54C245.78,-84.35 261.02,-89.68 275,-94.5 281.18,-96.63 287.75,-98.88 294.13,-101.05"/>
<polygon fill="midnightblue" stroke="midnightblue" points="293.33,-104.47 303.92,-104.38 295.58,-97.85 293.33,-104.47"/>
</g>
<!-- Node7&#45;&gt;Node3 -->
<g id="edge7" class="edge">
<title>Node7&#45;&gt;Node3</title>
<path fill="none" stroke="midnightblue" d="M237.8,-98.48C249.06,-94.98 261.16,-91.22 272.8,-87.6"/>
<polygon fill="midnightblue" stroke="midnightblue" points="273.93,-90.91 282.44,-84.6 271.85,-84.23 273.93,-90.91"/>
</g>
<!-- Node7&#45;&gt;Node5 -->
<g id="edge8" class="edge">
<title>Node7&#45;&gt;Node5</title>
<path fill="none" stroke="midnightblue" d="M239.39,-113.5C257.14,-113.5 276.82,-113.5 293.37,-113.5"/>
<polygon fill="midnightblue" stroke="midnightblue" points="293.75,-117 303.75,-113.5 293.75,-110 293.75,-117"/>
</g>
</g>
</svg>
