<?xml version="1.0" encoding="UTF-8" standalone="no"?>
<!DOCTYPE svg PUBLIC "-//W3C//DTD SVG 1.1//EN"
 "http://www.w3.org/Graphics/SVG/1.1/DTD/svg11.dtd">
<!-- Generated by graphviz version 2.43.0 (0)
 -->
<!-- Title: lyra::make_printer Pages: 1 -->
<svg width="434pt" height="28pt"
 viewBox="0.00 0.00 434.00 28.00" xmlns="http://www.w3.org/2000/svg" xmlns:xlink="http://www.w3.org/1999/xlink">
<g id="graph0" class="graph" transform="scale(1 1) rotate(0) translate(4 24)">
<title>lyra::make_printer</title>
<polygon fill="white" stroke="transparent" points="-4,4 -4,-24 430,-24 430,4 -4,4"/>
<!-- Node1 -->
<g id="node1" class="node">
<title>Node1</title>
<g id="a_node1"><a xlink:title=" ">
<polygon fill="#bfbfbf" stroke="black" points="320,-0.5 320,-19.5 426,-19.5 426,-0.5 320,-0.5"/>
<text text-anchor="middle" x="373" y="-7.5" font-family="Helvetica,sans-Serif" font-size="10.00">lyra::make_printer</text>
</a>
</g>
</g>
<!-- Node2 -->
<g id="node2" class="node">
<title>Node2</title>
<g id="a_node2"><a xlink:href="classlyra_1_1arguments.html#a620f67bdd9518d9f7a0a5b0e3939c561" target="_top" xlink:title=" ">
<polygon fill="white" stroke="black" points="135,-0.5 135,-19.5 284,-19.5 284,-0.5 135,-0.5"/>
<text text-anchor="middle" x="209.5" y="-7.5" font-family="Helvetica,sans-Serif" font-size="10.00">lyra::arguments::print_help</text>
</a>
</g>
</g>
<!-- Node1&#45;&gt;Node2 -->
<g id="edge1" class="edge">
<title>Node1&#45;&gt;Node2</title>
<path fill="none" stroke="midnightblue" d="M309.55,-10C301.21,-10 292.6,-10 284.09,-10"/>
<polygon fill="midnightblue" stroke="midnightblue" points="309.57,-13.5 319.57,-10 309.57,-6.5 309.57,-13.5"/>
</g>
<!-- Node3 -->
<g id="node3" class="node">
<title>Node3</title>
<g id="a_node3"><a xlink:href="namespacelyra.html#ac376af987ad2c95c9a7e27cc61e0cb8c" target="_top" xlink:title=" ">
<polygon fill="white" stroke="black" points="0,-0.5 0,-19.5 99,-19.5 99,-0.5 0,-0.5"/>
<text text-anchor="middle" x="49.5" y="-7.5" font-family="Helvetica,sans-Serif" font-size="10.00">lyra::operator&lt;&lt;</text>
</a>
</g>
</g>
<!-- Node2&#45;&gt;Node3 -->
<g id="edge2" class="edge">
<title>Node2&#45;&gt;Node3</title>
<path fill="none" stroke="midnightblue" d="M124.41,-10C115.75,-10 107.18,-10 99.1,-10"/>
<polygon fill="midnightblue" stroke="midnightblue" points="124.59,-13.5 134.59,-10 124.59,-6.5 124.59,-13.5"/>
</g>
</g>
</svg>
