<?xml version="1.0" encoding="UTF-8" standalone="no"?>
<!DOCTYPE svg PUBLIC "-//W3C//DTD SVG 1.1//EN"
 "http://www.w3.org/Graphics/SVG/1.1/DTD/svg11.dtd">
<!-- Generated by graphviz version 2.43.0 (0)
 -->
<!-- Title: MainNamespace::reportParallelization Pages: 1 -->
<svg width="578pt" height="72pt"
 viewBox="0.00 0.00 578.00 71.50" xmlns="http://www.w3.org/2000/svg" xmlns:xlink="http://www.w3.org/1999/xlink">
<g id="graph0" class="graph" transform="scale(1 1) rotate(0) translate(4 67.5)">
<title>MainNamespace::reportParallelization</title>
<polygon fill="white" stroke="transparent" points="-4,4 -4,-67.5 574,-67.5 574,4 -4,4"/>
<!-- Node1 -->
<g id="node1" class="node">
<title>Node1</title>
<g id="a_node1"><a xlink:title=" ">
<polygon fill="#bfbfbf" stroke="black" points="0,-19.5 0,-38.5 203,-38.5 203,-19.5 0,-19.5"/>
<text text-anchor="middle" x="101.5" y="-26.5" font-family="Helvetica,sans-Serif" font-size="10.00">MainNamespace::reportParallelization</text>
</a>
</g>
</g>
<!-- Node2 -->
<g id="node2" class="node">
<title>Node2</title>
<g id="a_node2"><a xlink:href="namespace_main_namespace_1_1_logger.html#afbb4cc2d8b498e71fcb228f0da8309a1" target="_top" xlink:title=" ">
<polygon fill="white" stroke="black" points="239,-38.5 239,-57.5 397,-57.5 397,-38.5 239,-38.5"/>
<text text-anchor="middle" x="318" y="-45.5" font-family="Helvetica,sans-Serif" font-size="10.00">MainNamespace::Logger::log</text>
</a>
</g>
</g>
<!-- Node1&#45;&gt;Node2 -->
<g id="edge1" class="edge">
<title>Node1&#45;&gt;Node2</title>
<path fill="none" stroke="midnightblue" d="M203.16,-37.92C211.67,-38.67 220.24,-39.43 228.64,-40.17"/>
<polygon fill="midnightblue" stroke="midnightblue" points="228.54,-43.68 238.81,-41.07 229.15,-36.7 228.54,-43.68"/>
</g>
<!-- Node4 -->
<g id="node4" class="node">
<title>Node4</title>
<g id="a_node4"><a xlink:href="namespace_main_namespace.html#a963bb0fc1186abae512b8fde5e8a078c" target="_top" xlink:title="Distribution warning (about h2lib and gmsh).">
<polygon fill="white" stroke="black" points="246.5,-0.5 246.5,-19.5 389.5,-19.5 389.5,-0.5 246.5,-0.5"/>
<text text-anchor="middle" x="318" y="-7.5" font-family="Helvetica,sans-Serif" font-size="10.00">MainNamespace::warning</text>
</a>
</g>
</g>
<!-- Node1&#45;&gt;Node4 -->
<g id="edge3" class="edge">
<title>Node1&#45;&gt;Node4</title>
<path fill="none" stroke="midnightblue" d="M203.16,-20.08C214.21,-19.11 225.36,-18.12 236.12,-17.16"/>
<polygon fill="midnightblue" stroke="midnightblue" points="236.67,-20.63 246.32,-16.26 236.05,-13.66 236.67,-20.63"/>
</g>
<!-- Node3 -->
<g id="node3" class="node">
<title>Node3</title>
<g id="a_node3"><a xlink:href="namespace_main_namespace_1_1_logger.html#af052b0198f333fca77f0837a511ec7f7" target="_top" xlink:title=" ">
<polygon fill="white" stroke="black" points="433,-33 433,-63 570,-63 570,-33 433,-33"/>
<text text-anchor="start" x="441" y="-51" font-family="Helvetica,sans-Serif" font-size="10.00">MainNamespace::Logger</text>
<text text-anchor="middle" x="501.5" y="-40" font-family="Helvetica,sans-Serif" font-size="10.00">::forwardLog</text>
</a>
</g>
</g>
<!-- Node2&#45;&gt;Node3 -->
<g id="edge2" class="edge">
<title>Node2&#45;&gt;Node3</title>
<path fill="none" stroke="midnightblue" d="M397.03,-48C405.5,-48 414.12,-48 422.59,-48"/>
<polygon fill="midnightblue" stroke="midnightblue" points="422.82,-51.5 432.82,-48 422.82,-44.5 422.82,-51.5"/>
</g>
</g>
</svg>
