<?xml version="1.0" encoding="UTF-8" standalone="no"?>
<!DOCTYPE svg PUBLIC "-//W3C//DTD SVG 1.1//EN"
 "http://www.w3.org/Graphics/SVG/1.1/DTD/svg11.dtd">
<!-- Generated by graphviz version 2.43.0 (0)
 -->
<!-- Title: MainNamespace::Logger::addLogDevice Pages: 1 -->
<svg width="395pt" height="137pt"
 viewBox="0.00 0.00 395.00 137.00" xmlns="http://www.w3.org/2000/svg" xmlns:xlink="http://www.w3.org/1999/xlink">
<g id="graph0" class="graph" transform="scale(1 1) rotate(0) translate(4 133)">
<title>MainNamespace::Logger::addLogDevice</title>
<polygon fill="white" stroke="transparent" points="-4,4 -4,-133 391,-133 391,4 -4,4"/>
<!-- Node1 -->
<g id="node1" class="node">
<title>Node1</title>
<g id="a_node1"><a xlink:title="Add a logging device.">
<polygon fill="#bfbfbf" stroke="black" points="250,-49.5 250,-79.5 387,-79.5 387,-49.5 250,-49.5"/>
<text text-anchor="start" x="258" y="-67.5" font-family="Helvetica,sans-Serif" font-size="10.00">MainNamespace::Logger</text>
<text text-anchor="middle" x="318.5" y="-56.5" font-family="Helvetica,sans-Serif" font-size="10.00">::addLogDevice</text>
</a>
</g>
</g>
<!-- Node2 -->
<g id="node2" class="node">
<title>Node2</title>
<g id="a_node2"><a xlink:href="namespace_main_namespace_1_1_logger.html#aee1bebbdbfb93598dd49f5e18fc36784" target="_top" xlink:title="Add a logger for a given file. The logs are appended to it.">
<polygon fill="white" stroke="black" points="77,-98.5 77,-128.5 214,-128.5 214,-98.5 77,-98.5"/>
<text text-anchor="start" x="85" y="-116.5" font-family="Helvetica,sans-Serif" font-size="10.00">MainNamespace::Logger</text>
<text text-anchor="middle" x="145.5" y="-105.5" font-family="Helvetica,sans-Serif" font-size="10.00">::addLogFile</text>
</a>
</g>
</g>
<!-- Node1&#45;&gt;Node2 -->
<g id="edge1" class="edge">
<title>Node1&#45;&gt;Node2</title>
<path fill="none" stroke="midnightblue" d="M255.05,-82.39C236.66,-87.66 216.73,-93.38 199.03,-98.45"/>
<polygon fill="midnightblue" stroke="midnightblue" points="256.15,-85.72 264.8,-79.6 254.22,-78.99 256.15,-85.72"/>
</g>
<!-- Node3 -->
<g id="node3" class="node">
<title>Node3</title>
<g id="a_node3"><a xlink:href="namespace_main_namespace_1_1_logger.html#ac5f25c0679e5626bfaddc781d33c23da" target="_top" xlink:title="Add a logger for stderr.">
<polygon fill="white" stroke="black" points="77,-49.5 77,-79.5 214,-79.5 214,-49.5 77,-49.5"/>
<text text-anchor="start" x="85" y="-67.5" font-family="Helvetica,sans-Serif" font-size="10.00">MainNamespace::Logger</text>
<text text-anchor="middle" x="145.5" y="-56.5" font-family="Helvetica,sans-Serif" font-size="10.00">::addLogStderr</text>
</a>
</g>
</g>
<!-- Node1&#45;&gt;Node3 -->
<g id="edge2" class="edge">
<title>Node1&#45;&gt;Node3</title>
<path fill="none" stroke="midnightblue" d="M239.9,-64.5C231.31,-64.5 222.61,-64.5 214.15,-64.5"/>
<polygon fill="midnightblue" stroke="midnightblue" points="239.92,-68 249.92,-64.5 239.92,-61 239.92,-68"/>
</g>
<!-- Node4 -->
<g id="node4" class="node">
<title>Node4</title>
<g id="a_node4"><a xlink:href="namespace_main_namespace_1_1_logger.html#a31ab345f72cf8b99b1a9640b55848385" target="_top" xlink:title="Add a logger for stdout.">
<polygon fill="white" stroke="black" points="77,-0.5 77,-30.5 214,-30.5 214,-0.5 77,-0.5"/>
<text text-anchor="start" x="85" y="-18.5" font-family="Helvetica,sans-Serif" font-size="10.00">MainNamespace::Logger</text>
<text text-anchor="middle" x="145.5" y="-7.5" font-family="Helvetica,sans-Serif" font-size="10.00">::addLogStdout</text>
</a>
</g>
</g>
<!-- Node1&#45;&gt;Node4 -->
<g id="edge3" class="edge">
<title>Node1&#45;&gt;Node4</title>
<path fill="none" stroke="midnightblue" d="M255.05,-46.61C236.66,-41.34 216.73,-35.62 199.03,-30.55"/>
<polygon fill="midnightblue" stroke="midnightblue" points="254.22,-50.01 264.8,-49.4 256.15,-43.28 254.22,-50.01"/>
</g>
<!-- Node5 -->
<g id="node5" class="node">
<title>Node5</title>
<g id="a_node5"><a xlink:href="main_8cpp.html#a3c04138a5bfe5d72780bb7e82a18e627" target="_top" xlink:title=" ">
<polygon fill="white" stroke="black" points="0,-6 0,-25 41,-25 41,-6 0,-6"/>
<text text-anchor="middle" x="20.5" y="-13" font-family="Helvetica,sans-Serif" font-size="10.00">main</text>
</a>
</g>
</g>
<!-- Node4&#45;&gt;Node5 -->
<g id="edge4" class="edge">
<title>Node4&#45;&gt;Node5</title>
<path fill="none" stroke="midnightblue" d="M66.6,-15.5C57.27,-15.5 48.49,-15.5 41.2,-15.5"/>
<polygon fill="midnightblue" stroke="midnightblue" points="66.88,-19 76.88,-15.5 66.88,-12 66.88,-19"/>
</g>
</g>
</svg>
