<?xml version="1.0" encoding="UTF-8" standalone="no"?>
<!DOCTYPE svg PUBLIC "-//W3C//DTD SVG 1.1//EN"
 "http://www.w3.org/Graphics/SVG/1.1/DTD/svg11.dtd">
<!-- Generated by graphviz version 2.43.0 (0)
 -->
<!-- Title: Lyra/include/lyra/opt.hpp Pages: 1 -->
<svg width="1624pt" height="498pt"
 viewBox="0.00 0.00 1623.50 498.00" xmlns="http://www.w3.org/2000/svg" xmlns:xlink="http://www.w3.org/1999/xlink">
<g id="graph0" class="graph" transform="scale(1 1) rotate(0) translate(4 494)">
<title>Lyra/include/lyra/opt.hpp</title>
<polygon fill="white" stroke="transparent" points="-4,4 -4,-494 1619.5,-494 1619.5,4 -4,4"/>
<!-- Node1 -->
<g id="node1" class="node">
<title>Node1</title>
<g id="a_node1"><a xlink:title=" ">
<polygon fill="#bfbfbf" stroke="black" points="1219,-470.5 1219,-489.5 1356,-489.5 1356,-470.5 1219,-470.5"/>
<text text-anchor="middle" x="1287.5" y="-477.5" font-family="Helvetica,sans-Serif" font-size="10.00">Lyra/include/lyra/opt.hpp</text>
</a>
</g>
</g>
<!-- Node2 -->
<g id="node2" class="node">
<title>Node2</title>
<g id="a_node2"><a xlink:href="print_8hpp.html" target="_top" xlink:title=" ">
<polygon fill="white" stroke="black" points="0,-358.5 0,-377.5 113,-377.5 113,-358.5 0,-358.5"/>
<text text-anchor="middle" x="56.5" y="-365.5" font-family="Helvetica,sans-Serif" font-size="10.00">lyra/detail/print.hpp</text>
</a>
</g>
</g>
<!-- Node1&#45;&gt;Node2 -->
<g id="edge1" class="edge">
<title>Node1&#45;&gt;Node2</title>
<path fill="none" stroke="midnightblue" d="M1218.76,-479.08C984.78,-478.97 228.16,-475.38 127.5,-434 102.98,-423.92 81.59,-401.38 68.86,-385.68"/>
<polygon fill="midnightblue" stroke="midnightblue" points="71.62,-383.53 62.72,-377.79 66.1,-387.83 71.62,-383.53"/>
</g>
<!-- Node3 -->
<g id="node3" class="node">
<title>Node3</title>
<g id="a_node3"><a xlink:title=" ">
<polygon fill="white" stroke="#bfbfbf" points="479.5,-0.5 479.5,-19.5 523.5,-19.5 523.5,-0.5 479.5,-0.5"/>
<text text-anchor="middle" x="501.5" y="-7.5" font-family="Helvetica,sans-Serif" font-size="10.00">string</text>
</a>
</g>
</g>
<!-- Node1&#45;&gt;Node3 -->
<g id="edge64" class="edge">
<title>Node1&#45;&gt;Node3</title>
<path fill="none" stroke="midnightblue" d="M1218.82,-479.65C971.58,-481.1 141.5,-477.87 141.5,-369 141.5,-369 141.5,-369 141.5,-126.5 141.5,-102.28 68.71,-125.51 271.5,-56 339.91,-32.55 424.21,-19.97 469.35,-14.47"/>
<polygon fill="midnightblue" stroke="midnightblue" points="469.9,-17.93 479.42,-13.28 469.08,-10.98 469.9,-17.93"/>
</g>
<!-- Node4 -->
<g id="node4" class="node">
<title>Node4</title>
<g id="a_node4"><a xlink:href="trait__utils_8hpp.html" target="_top" xlink:title=" ">
<polygon fill="white" stroke="black" points="1297,-56.5 1297,-75.5 1434,-75.5 1434,-56.5 1297,-56.5"/>
<text text-anchor="middle" x="1365.5" y="-63.5" font-family="Helvetica,sans-Serif" font-size="10.00">lyra/detail/trait_utils.hpp</text>
</a>
</g>
</g>
<!-- Node1&#45;&gt;Node4 -->
<g id="edge3" class="edge">
<title>Node1&#45;&gt;Node4</title>
<path fill="none" stroke="midnightblue" d="M1338.35,-470.49C1421.52,-455.12 1577.5,-419.55 1577.5,-369 1577.5,-369 1577.5,-369 1577.5,-188 1577.5,-121.86 1498.71,-91.4 1437.2,-77.69"/>
<polygon fill="midnightblue" stroke="midnightblue" points="1437.61,-74.2 1427.1,-75.55 1436.16,-81.04 1437.61,-74.2"/>
</g>
<!-- Node7 -->
<g id="node7" class="node">
<title>Node7</title>
<g id="a_node7"><a xlink:href="parser_8hpp.html" target="_top" xlink:title=" ">
<polygon fill="white" stroke="black" points="984.5,-414.5 984.5,-433.5 1074.5,-433.5 1074.5,-414.5 984.5,-414.5"/>
<text text-anchor="middle" x="1029.5" y="-421.5" font-family="Helvetica,sans-Serif" font-size="10.00">lyra/parser.hpp</text>
</a>
</g>
</g>
<!-- Node1&#45;&gt;Node7 -->
<g id="edge6" class="edge">
<title>Node1&#45;&gt;Node7</title>
<path fill="none" stroke="midnightblue" d="M1246.62,-470.44C1201.52,-461 1128.89,-445.8 1080.2,-435.61"/>
<polygon fill="midnightblue" stroke="midnightblue" points="1080.69,-432.14 1070.19,-433.52 1079.26,-438.99 1080.69,-432.14"/>
</g>
<!-- Node18 -->
<g id="node18" class="node">
<title>Node18</title>
<g id="a_node18"><a xlink:title=" ">
<polygon fill="white" stroke="#bfbfbf" points="1433.5,-0.5 1433.5,-19.5 1491.5,-19.5 1491.5,-0.5 1433.5,-0.5"/>
<text text-anchor="middle" x="1462.5" y="-7.5" font-family="Helvetica,sans-Serif" font-size="10.00">memory</text>
</a>
</g>
</g>
<!-- Node1&#45;&gt;Node18 -->
<g id="edge63" class="edge">
<title>Node1&#45;&gt;Node18</title>
<path fill="none" stroke="midnightblue" d="M1356.18,-473.85C1404.76,-468.34 1470.59,-457.05 1524.5,-434 1570.2,-414.46 1615.5,-418.7 1615.5,-369 1615.5,-369 1615.5,-369 1615.5,-126.5 1615.5,-69.29 1546.52,-36.84 1501.2,-21.69"/>
<polygon fill="midnightblue" stroke="midnightblue" points="1502.23,-18.34 1491.64,-18.63 1500.1,-25.01 1502.23,-18.34"/>
</g>
<!-- Node25 -->
<g id="node25" class="node">
<title>Node25</title>
<g id="a_node25"><a xlink:href="val_8hpp.html" target="_top" xlink:title=" ">
<polygon fill="white" stroke="black" points="1475.5,-358.5 1475.5,-377.5 1549.5,-377.5 1549.5,-358.5 1475.5,-358.5"/>
<text text-anchor="middle" x="1512.5" y="-365.5" font-family="Helvetica,sans-Serif" font-size="10.00">lyra/val.hpp</text>
</a>
</g>
</g>
<!-- Node1&#45;&gt;Node25 -->
<g id="edge62" class="edge">
<title>Node1&#45;&gt;Node25</title>
<path fill="none" stroke="midnightblue" d="M1305.16,-470.37C1344.42,-451.17 1439.19,-404.84 1485.76,-382.07"/>
<polygon fill="midnightblue" stroke="midnightblue" points="1487.48,-385.13 1494.93,-377.59 1484.41,-378.84 1487.48,-385.13"/>
</g>
<!-- Node2&#45;&gt;Node3 -->
<g id="edge2" class="edge">
<title>Node2&#45;&gt;Node3</title>
<path fill="none" stroke="midnightblue" d="M59.54,-358.43C66,-339.44 80.5,-292.26 80.5,-251.5 80.5,-251.5 80.5,-251.5 80.5,-126.5 80.5,-88.84 95.42,-75.72 127.5,-56 127.73,-55.86 378.53,-25.76 469.24,-14.87"/>
<polygon fill="midnightblue" stroke="midnightblue" points="469.73,-18.34 479.24,-13.67 468.89,-11.39 469.73,-18.34"/>
</g>
<!-- Node5 -->
<g id="node5" class="node">
<title>Node5</title>
<g id="a_node5"><a xlink:title=" ">
<polygon fill="white" stroke="#bfbfbf" points="1196,-0.5 1196,-19.5 1265,-19.5 1265,-0.5 1196,-0.5"/>
<text text-anchor="middle" x="1230.5" y="-7.5" font-family="Helvetica,sans-Serif" font-size="10.00">type_traits</text>
</a>
</g>
</g>
<!-- Node4&#45;&gt;Node5 -->
<g id="edge4" class="edge">
<title>Node4&#45;&gt;Node5</title>
<path fill="none" stroke="midnightblue" d="M1344.11,-56.44C1321.79,-47.52 1286.6,-33.44 1261.29,-23.32"/>
<polygon fill="midnightblue" stroke="midnightblue" points="1262.38,-19.98 1251.79,-19.52 1259.78,-26.48 1262.38,-19.98"/>
</g>
<!-- Node6 -->
<g id="node6" class="node">
<title>Node6</title>
<g id="a_node6"><a xlink:title=" ">
<polygon fill="white" stroke="#bfbfbf" points="1343,-0.5 1343,-19.5 1388,-19.5 1388,-0.5 1343,-0.5"/>
<text text-anchor="middle" x="1365.5" y="-7.5" font-family="Helvetica,sans-Serif" font-size="10.00">utility</text>
</a>
</g>
</g>
<!-- Node4&#45;&gt;Node6 -->
<g id="edge5" class="edge">
<title>Node4&#45;&gt;Node6</title>
<path fill="none" stroke="midnightblue" d="M1365.5,-56.08C1365.5,-49.01 1365.5,-38.86 1365.5,-29.99"/>
<polygon fill="midnightblue" stroke="midnightblue" points="1369,-29.75 1365.5,-19.75 1362,-29.75 1369,-29.75"/>
</g>
<!-- Node7&#45;&gt;Node3 -->
<g id="edge60" class="edge">
<title>Node7&#45;&gt;Node3</title>
<path fill="none" stroke="midnightblue" d="M984.3,-419.92C839.65,-409.46 397.5,-372.62 397.5,-313 397.5,-313 397.5,-313 397.5,-188 397.5,-153.18 400.66,-143.01 416.5,-112 421.37,-102.47 464.38,-53.08 487.29,-27.07"/>
<polygon fill="midnightblue" stroke="midnightblue" points="489.95,-29.34 493.94,-19.52 484.7,-24.71 489.95,-29.34"/>
</g>
<!-- Node7&#45;&gt;Node4 -->
<g id="edge49" class="edge">
<title>Node7&#45;&gt;Node4</title>
<path fill="none" stroke="midnightblue" d="M1074.69,-422.96C1159.53,-422 1338.37,-415.45 1385.5,-378 1409.61,-358.84 1409.5,-343.8 1409.5,-313 1409.5,-313 1409.5,-313 1409.5,-188 1409.5,-149.25 1389.33,-107.5 1376.3,-84.58"/>
<polygon fill="midnightblue" stroke="midnightblue" points="1379.16,-82.55 1371.07,-75.71 1373.13,-86.1 1379.16,-82.55"/>
</g>
<!-- Node7&#45;&gt;Node5 -->
<g id="edge61" class="edge">
<title>Node7&#45;&gt;Node5</title>
<path fill="none" stroke="midnightblue" d="M1074.92,-420.97C1126.75,-417.3 1213.17,-406.98 1281.5,-378 1326.93,-358.74 1371.5,-362.34 1371.5,-313 1371.5,-313 1371.5,-313 1371.5,-188 1371.5,-151 1360.87,-140.69 1337.5,-112 1320.2,-90.77 1307.77,-94.41 1287.5,-76 1270.91,-60.93 1254.29,-41.33 1243.31,-27.61"/>
<polygon fill="midnightblue" stroke="midnightblue" points="1245.9,-25.24 1236.97,-19.55 1240.4,-29.57 1245.9,-25.24"/>
</g>
<!-- Node8 -->
<g id="node8" class="node">
<title>Node8</title>
<g id="a_node8"><a xlink:href="args_8hpp.html" target="_top" xlink:title=" ">
<polygon fill="white" stroke="black" points="496.5,-179.5 496.5,-198.5 576.5,-198.5 576.5,-179.5 496.5,-179.5"/>
<text text-anchor="middle" x="536.5" y="-186.5" font-family="Helvetica,sans-Serif" font-size="10.00">lyra/args.hpp</text>
</a>
</g>
</g>
<!-- Node7&#45;&gt;Node8 -->
<g id="edge7" class="edge">
<title>Node7&#45;&gt;Node8</title>
<path fill="none" stroke="midnightblue" d="M984.18,-420.66C934.35,-416.72 852.83,-406.17 788.5,-378 688.1,-334.03 590.15,-243.36 552.59,-206.31"/>
<polygon fill="midnightblue" stroke="midnightblue" points="554.68,-203.46 545.12,-198.87 549.73,-208.41 554.68,-203.46"/>
</g>
<!-- Node11 -->
<g id="node11" class="node">
<title>Node11</title>
<g id="a_node11"><a xlink:href="bound_8hpp.html" target="_top" xlink:title=" ">
<polygon fill="white" stroke="black" points="969.5,-302.5 969.5,-321.5 1089.5,-321.5 1089.5,-302.5 969.5,-302.5"/>
<text text-anchor="middle" x="1029.5" y="-309.5" font-family="Helvetica,sans-Serif" font-size="10.00">lyra/detail/bound.hpp</text>
</a>
</g>
</g>
<!-- Node7&#45;&gt;Node11 -->
<g id="edge11" class="edge">
<title>Node7&#45;&gt;Node11</title>
<path fill="none" stroke="midnightblue" d="M1029.5,-414.37C1029.5,-396.62 1029.5,-355.67 1029.5,-331.6"/>
<polygon fill="midnightblue" stroke="midnightblue" points="1033,-331.59 1029.5,-321.59 1026,-331.59 1033,-331.59"/>
</g>
<!-- Node12 -->
<g id="node12" class="node">
<title>Node12</title>
<g id="a_node12"><a xlink:href="from__string_8hpp.html" target="_top" xlink:title=" ">
<polygon fill="white" stroke="black" points="1001.5,-118 1001.5,-137 1147.5,-137 1147.5,-118 1001.5,-118"/>
<text text-anchor="middle" x="1074.5" y="-125" font-family="Helvetica,sans-Serif" font-size="10.00">lyra/detail/from_string.hpp</text>
</a>
</g>
</g>
<!-- Node7&#45;&gt;Node12 -->
<g id="edge42" class="edge">
<title>Node7&#45;&gt;Node12</title>
<path fill="none" stroke="midnightblue" d="M1052.45,-414.48C1087.79,-399.71 1151.5,-365.76 1151.5,-313 1151.5,-313 1151.5,-313 1151.5,-249.5 1151.5,-205.81 1115.33,-165.17 1092.57,-143.92"/>
<polygon fill="midnightblue" stroke="midnightblue" points="1094.66,-141.09 1084.88,-137 1089.97,-146.29 1094.66,-141.09"/>
</g>
<!-- Node16 -->
<g id="node16" class="node">
<title>Node16</title>
<g id="a_node16"><a xlink:href="parser__result_8hpp.html" target="_top" xlink:title=" ">
<polygon fill="white" stroke="black" points="784,-118 784,-137 907,-137 907,-118 784,-118"/>
<text text-anchor="middle" x="845.5" y="-125" font-family="Helvetica,sans-Serif" font-size="10.00">lyra/parser_result.hpp</text>
</a>
</g>
</g>
<!-- Node7&#45;&gt;Node16 -->
<g id="edge51" class="edge">
<title>Node7&#45;&gt;Node16</title>
<path fill="none" stroke="midnightblue" d="M984.48,-418.57C924.4,-409.9 825.5,-384.72 825.5,-313 825.5,-313 825.5,-313 825.5,-249.5 825.5,-212.74 834.6,-170.52 840.52,-146.93"/>
<polygon fill="midnightblue" stroke="midnightblue" points="843.92,-147.78 843.05,-137.22 837.14,-146.02 843.92,-147.78"/>
</g>
<!-- Node17 -->
<g id="node17" class="node">
<title>Node17</title>
<g id="a_node17"><a xlink:href="result_8hpp.html" target="_top" xlink:title=" ">
<polygon fill="white" stroke="black" points="920.5,-56.5 920.5,-75.5 1038.5,-75.5 1038.5,-56.5 920.5,-56.5"/>
<text text-anchor="middle" x="979.5" y="-63.5" font-family="Helvetica,sans-Serif" font-size="10.00">lyra/detail/result.hpp</text>
</a>
</g>
</g>
<!-- Node7&#45;&gt;Node17 -->
<g id="edge43" class="edge">
<title>Node7&#45;&gt;Node17</title>
<path fill="none" stroke="midnightblue" d="M1074.68,-416.3C1159.37,-402.45 1333.5,-367.37 1333.5,-313 1333.5,-313 1333.5,-313 1333.5,-188 1333.5,-153.07 1339.67,-135.13 1313.5,-112 1303.68,-103.32 1143.91,-84.74 1048.96,-74.37"/>
<polygon fill="midnightblue" stroke="midnightblue" points="1049.17,-70.88 1038.85,-73.27 1048.41,-77.83 1049.17,-70.88"/>
</g>
<!-- Node7&#45;&gt;Node18 -->
<g id="edge59" class="edge">
<title>Node7&#45;&gt;Node18</title>
<path fill="none" stroke="midnightblue" d="M1074.76,-423.3C1163.78,-422.99 1357.39,-417.65 1408.5,-378 1456.14,-341.05 1457.5,-311.79 1457.5,-251.5 1457.5,-251.5 1457.5,-251.5 1457.5,-188 1457.5,-130.5 1460.17,-62.54 1461.61,-30.1"/>
<polygon fill="midnightblue" stroke="midnightblue" points="1465.12,-29.99 1462.07,-19.84 1458.12,-29.67 1465.12,-29.99"/>
</g>
<!-- Node20 -->
<g id="node20" class="node">
<title>Node20</title>
<g id="a_node20"><a xlink:href="choices_8hpp.html" target="_top" xlink:title=" ">
<polygon fill="white" stroke="black" points="670,-179.5 670,-198.5 797,-198.5 797,-179.5 670,-179.5"/>
<text text-anchor="middle" x="733.5" y="-186.5" font-family="Helvetica,sans-Serif" font-size="10.00">lyra/detail/choices.hpp</text>
</a>
</g>
</g>
<!-- Node7&#45;&gt;Node20 -->
<g id="edge33" class="edge">
<title>Node7&#45;&gt;Node20</title>
<path fill="none" stroke="midnightblue" d="M984.22,-418.64C928.29,-412.43 837.34,-399.35 811.5,-378 758.18,-333.94 740.79,-247.34 735.57,-209.02"/>
<polygon fill="midnightblue" stroke="midnightblue" points="739,-208.27 734.31,-198.77 732.05,-209.13 739,-208.27"/>
</g>
<!-- Node21 -->
<g id="node21" class="node">
<title>Node21</title>
<g id="a_node21"><a xlink:href="tokens_8hpp.html" target="_top" xlink:title=" ">
<polygon fill="white" stroke="black" points="209.5,-179.5 209.5,-198.5 331.5,-198.5 331.5,-179.5 209.5,-179.5"/>
<text text-anchor="middle" x="270.5" y="-186.5" font-family="Helvetica,sans-Serif" font-size="10.00">lyra/detail/tokens.hpp</text>
</a>
</g>
</g>
<!-- Node7&#45;&gt;Node21 -->
<g id="edge44" class="edge">
<title>Node7&#45;&gt;Node21</title>
<path fill="none" stroke="midnightblue" d="M984.47,-422.79C840.37,-421.73 397,-415.43 345.5,-378 289.6,-337.37 275.32,-248.22 271.71,-209.07"/>
<polygon fill="midnightblue" stroke="midnightblue" points="275.16,-208.34 270.9,-198.64 268.18,-208.88 275.16,-208.34"/>
</g>
<!-- Node22 -->
<g id="node22" class="node">
<title>Node22</title>
<g id="a_node22"><a xlink:href="option__style_8hpp.html" target="_top" xlink:title=" ">
<polygon fill="white" stroke="black" points="170,-118 170,-137 289,-137 289,-118 170,-118"/>
<text text-anchor="middle" x="229.5" y="-125" font-family="Helvetica,sans-Serif" font-size="10.00">lyra/option_style.hpp</text>
</a>
</g>
</g>
<!-- Node7&#45;&gt;Node22 -->
<g id="edge50" class="edge">
<title>Node7&#45;&gt;Node22</title>
<path fill="none" stroke="midnightblue" d="M984.27,-422.28C848.91,-419.8 448.59,-409.9 322.5,-378 255.6,-361.08 181.5,-382 181.5,-313 181.5,-313 181.5,-313 181.5,-249.5 181.5,-210.15 203.71,-168.35 217.91,-145.64"/>
<polygon fill="midnightblue" stroke="midnightblue" points="220.92,-147.43 223.42,-137.14 215.05,-143.62 220.92,-147.43"/>
</g>
<!-- Node23 -->
<g id="node23" class="node">
<title>Node23</title>
<g id="a_node23"><a xlink:href="printer_8hpp.html" target="_top" xlink:title=" ">
<polygon fill="white" stroke="black" points="343.5,-56.5 343.5,-75.5 435.5,-75.5 435.5,-56.5 343.5,-56.5"/>
<text text-anchor="middle" x="389.5" y="-63.5" font-family="Helvetica,sans-Serif" font-size="10.00">lyra/printer.hpp</text>
</a>
</g>
</g>
<!-- Node7&#45;&gt;Node23 -->
<g id="edge52" class="edge">
<title>Node7&#45;&gt;Node23</title>
<path fill="none" stroke="midnightblue" d="M984.02,-422.65C844.85,-421.18 431.29,-413.83 383.5,-378 358.86,-359.53 359.5,-343.8 359.5,-313 359.5,-313 359.5,-313 359.5,-188 359.5,-150.46 373.27,-108.25 382.15,-84.93"/>
<polygon fill="midnightblue" stroke="midnightblue" points="385.41,-86.21 385.82,-75.62 378.9,-83.64 385.41,-86.21"/>
</g>
<!-- Node7&#45;&gt;Node25 -->
<g id="edge56" class="edge">
<title>Node7&#45;&gt;Node25</title>
<path fill="none" stroke="midnightblue" d="M1074.72,-419.35C1153.49,-412.76 1320.92,-397.7 1461.5,-378 1462.75,-377.82 1464.02,-377.64 1465.3,-377.45"/>
<polygon fill="midnightblue" stroke="midnightblue" points="1465.89,-380.9 1475.22,-375.89 1464.8,-373.99 1465.89,-380.9"/>
</g>
<!-- Node8&#45;&gt;Node3 -->
<g id="edge9" class="edge">
<title>Node8&#45;&gt;Node3</title>
<path fill="none" stroke="midnightblue" d="M532.78,-179.2C529.14,-170.24 523.68,-155.88 520.5,-143 510.72,-103.43 505.41,-55.86 503.04,-30.01"/>
<polygon fill="midnightblue" stroke="midnightblue" points="506.5,-29.43 502.16,-19.76 499.53,-30.03 506.5,-29.43"/>
</g>
<!-- Node9 -->
<g id="node9" class="node">
<title>Node9</title>
<g id="a_node9"><a xlink:title=" ">
<polygon fill="white" stroke="#bfbfbf" points="530,-118 530,-137 613,-137 613,-118 530,-118"/>
<text text-anchor="middle" x="571.5" y="-125" font-family="Helvetica,sans-Serif" font-size="10.00">initializer_list</text>
</a>
</g>
</g>
<!-- Node8&#45;&gt;Node9 -->
<g id="edge8" class="edge">
<title>Node8&#45;&gt;Node9</title>
<path fill="none" stroke="midnightblue" d="M541.51,-179.48C546.66,-170.73 554.81,-156.87 561.32,-145.81"/>
<polygon fill="midnightblue" stroke="midnightblue" points="564.44,-147.4 566.49,-137.01 558.41,-143.85 564.44,-147.4"/>
</g>
<!-- Node10 -->
<g id="node10" class="node">
<title>Node10</title>
<g id="a_node10"><a xlink:title=" ">
<polygon fill="white" stroke="#bfbfbf" points="426,-118 426,-137 473,-137 473,-118 426,-118"/>
<text text-anchor="middle" x="449.5" y="-125" font-family="Helvetica,sans-Serif" font-size="10.00">vector</text>
</a>
</g>
</g>
<!-- Node8&#45;&gt;Node10 -->
<g id="edge10" class="edge">
<title>Node8&#45;&gt;Node10</title>
<path fill="none" stroke="midnightblue" d="M524.04,-179.48C510.08,-169.93 487.24,-154.31 470.51,-142.87"/>
<polygon fill="midnightblue" stroke="midnightblue" points="472.17,-139.77 461.94,-137.01 468.22,-145.54 472.17,-139.77"/>
</g>
<!-- Node11&#45;&gt;Node3 -->
<g id="edge32" class="edge">
<title>Node11&#45;&gt;Node3</title>
<path fill="none" stroke="midnightblue" d="M969.48,-307.81C889.78,-300.54 748.8,-276.76 660.5,-199 628.7,-170.99 647.02,-145.83 621.5,-112 593.77,-75.25 550.33,-42.99 524.02,-25.32"/>
<polygon fill="midnightblue" stroke="midnightblue" points="525.76,-22.27 515.49,-19.69 521.91,-28.12 525.76,-22.27"/>
</g>
<!-- Node11&#45;&gt;Node12 -->
<g id="edge12" class="edge">
<title>Node11&#45;&gt;Node12</title>
<path fill="none" stroke="midnightblue" d="M1035.98,-302.19C1042.05,-293.47 1050.87,-279.48 1055.5,-266 1069.47,-225.3 1073.2,-174.47 1074.17,-147.45"/>
<polygon fill="midnightblue" stroke="midnightblue" points="1077.68,-147.22 1074.45,-137.13 1070.68,-147.04 1077.68,-147.22"/>
</g>
<!-- Node14 -->
<g id="node14" class="node">
<title>Node14</title>
<g id="a_node14"><a xlink:href="invoke__lambda_8hpp.html" target="_top" xlink:title=" ">
<polygon fill="white" stroke="black" points="946,-235.5 946,-265.5 1047,-265.5 1047,-235.5 946,-235.5"/>
<text text-anchor="start" x="954" y="-253.5" font-family="Helvetica,sans-Serif" font-size="10.00">lyra/detail/invoke</text>
<text text-anchor="middle" x="996.5" y="-242.5" font-family="Helvetica,sans-Serif" font-size="10.00">_lambda.hpp</text>
</a>
</g>
</g>
<!-- Node11&#45;&gt;Node14 -->
<g id="edge17" class="edge">
<title>Node11&#45;&gt;Node14</title>
<path fill="none" stroke="midnightblue" d="M1024.77,-302.48C1020.72,-295.17 1014.69,-284.3 1009.24,-274.47"/>
<polygon fill="midnightblue" stroke="midnightblue" points="1012.19,-272.57 1004.28,-265.52 1006.07,-275.97 1012.19,-272.57"/>
</g>
<!-- Node15 -->
<g id="node15" class="node">
<title>Node15</title>
<g id="a_node15"><a xlink:href="parse_8hpp.html" target="_top" xlink:title=" ">
<polygon fill="white" stroke="black" points="892,-179.5 892,-198.5 1009,-198.5 1009,-179.5 892,-179.5"/>
<text text-anchor="middle" x="950.5" y="-186.5" font-family="Helvetica,sans-Serif" font-size="10.00">lyra/detail/parse.hpp</text>
</a>
</g>
</g>
<!-- Node11&#45;&gt;Node15 -->
<g id="edge30" class="edge">
<title>Node11&#45;&gt;Node15</title>
<path fill="none" stroke="midnightblue" d="M990.25,-302.48C970.5,-295.99 948.32,-284.84 936.5,-266 925.4,-248.3 932.98,-224.02 940.62,-207.71"/>
<polygon fill="midnightblue" stroke="midnightblue" points="943.79,-209.21 945.23,-198.71 937.56,-206.02 943.79,-209.21"/>
</g>
<!-- Node19 -->
<g id="node19" class="node">
<title>Node19</title>
<g id="a_node19"><a xlink:href="unary__lambda__traits_8hpp.html" target="_top" xlink:title=" ">
<polygon fill="white" stroke="black" points="1166,-112.5 1166,-142.5 1305,-142.5 1305,-112.5 1166,-112.5"/>
<text text-anchor="start" x="1174" y="-130.5" font-family="Helvetica,sans-Serif" font-size="10.00">lyra/detail/unary_lambda</text>
<text text-anchor="middle" x="1235.5" y="-119.5" font-family="Helvetica,sans-Serif" font-size="10.00">_traits.hpp</text>
</a>
</g>
</g>
<!-- Node11&#45;&gt;Node19 -->
<g id="edge31" class="edge">
<title>Node11&#45;&gt;Node19</title>
<path fill="none" stroke="midnightblue" d="M1039.16,-302.44C1070,-275.12 1166.72,-189.43 1211.86,-149.44"/>
<polygon fill="midnightblue" stroke="midnightblue" points="1214.25,-152.01 1219.41,-142.75 1209.6,-146.77 1214.25,-152.01"/>
</g>
<!-- Node12&#45;&gt;Node3 -->
<g id="edge15" class="edge">
<title>Node12&#45;&gt;Node3</title>
<path fill="none" stroke="midnightblue" d="M1074.01,-117.84C1072.64,-102.54 1067.42,-70.94 1047.5,-56 1006.36,-25.14 644.96,-14.3 533.86,-11.68"/>
<polygon fill="midnightblue" stroke="midnightblue" points="533.69,-8.18 523.61,-11.45 533.53,-15.18 533.69,-8.18"/>
</g>
<!-- Node12&#45;&gt;Node4 -->
<g id="edge13" class="edge">
<title>Node12&#45;&gt;Node4</title>
<path fill="none" stroke="midnightblue" d="M1116.19,-117.98C1168.27,-107.33 1257.37,-89.11 1313.75,-77.58"/>
<polygon fill="midnightblue" stroke="midnightblue" points="1314.79,-80.94 1323.88,-75.51 1313.39,-74.08 1314.79,-80.94"/>
</g>
<!-- Node12&#45;&gt;Node5 -->
<g id="edge16" class="edge">
<title>Node12&#45;&gt;Node5</title>
<path fill="none" stroke="midnightblue" d="M1091.11,-117.95C1108.72,-108.59 1137.04,-92.68 1159.5,-76 1179.91,-60.84 1201.14,-40.74 1215,-26.93"/>
<polygon fill="midnightblue" stroke="midnightblue" points="1217.7,-29.18 1222.25,-19.61 1212.73,-24.25 1217.7,-29.18"/>
</g>
<!-- Node13 -->
<g id="node13" class="node">
<title>Node13</title>
<g id="a_node13"><a xlink:title=" ">
<polygon fill="white" stroke="#bfbfbf" points="1094.5,-56.5 1094.5,-75.5 1150.5,-75.5 1150.5,-56.5 1094.5,-56.5"/>
<text text-anchor="middle" x="1122.5" y="-63.5" font-family="Helvetica,sans-Serif" font-size="10.00">sstream</text>
</a>
</g>
</g>
<!-- Node12&#45;&gt;Node13 -->
<g id="edge14" class="edge">
<title>Node12&#45;&gt;Node13</title>
<path fill="none" stroke="midnightblue" d="M1081.38,-117.98C1088.65,-108.96 1100.3,-94.52 1109.34,-83.31"/>
<polygon fill="midnightblue" stroke="midnightblue" points="1112.08,-85.49 1115.64,-75.51 1106.63,-81.09 1112.08,-85.49"/>
</g>
<!-- Node14&#45;&gt;Node15 -->
<g id="edge18" class="edge">
<title>Node14&#45;&gt;Node15</title>
<path fill="none" stroke="midnightblue" d="M985.6,-235.4C978.91,-226.75 970.32,-215.64 963.32,-206.58"/>
<polygon fill="midnightblue" stroke="midnightblue" points="966.08,-204.43 957.19,-198.66 960.54,-208.71 966.08,-204.43"/>
</g>
<!-- Node14&#45;&gt;Node16 -->
<g id="edge29" class="edge">
<title>Node14&#45;&gt;Node16</title>
<path fill="none" stroke="midnightblue" d="M946.24,-235.48C924.66,-227.51 900.36,-215.71 882.5,-199 867.08,-184.57 856.89,-162.26 851.18,-146.61"/>
<polygon fill="midnightblue" stroke="midnightblue" points="854.45,-145.37 847.93,-137.02 847.82,-147.62 854.45,-145.37"/>
</g>
<!-- Node14&#45;&gt;Node17 -->
<g id="edge26" class="edge">
<title>Node14&#45;&gt;Node17</title>
<path fill="none" stroke="midnightblue" d="M1004.14,-235.39C1009.03,-225.52 1014.93,-211.85 1017.5,-199 1019.24,-190.28 1020.16,-187.48 1017.5,-179 1011.68,-160.41 999.87,-161.03 992.5,-143 984.92,-124.46 981.76,-101.62 980.44,-85.84"/>
<polygon fill="midnightblue" stroke="midnightblue" points="983.93,-85.52 979.77,-75.77 976.94,-85.98 983.93,-85.52"/>
</g>
<!-- Node14&#45;&gt;Node19 -->
<g id="edge27" class="edge">
<title>Node14&#45;&gt;Node19</title>
<path fill="none" stroke="midnightblue" d="M1024.38,-235.38C1067.56,-213.52 1150.61,-171.48 1198.67,-147.15"/>
<polygon fill="midnightblue" stroke="midnightblue" points="1200.45,-150.17 1207.79,-142.53 1197.29,-143.92 1200.45,-150.17"/>
</g>
<!-- Node15&#45;&gt;Node3 -->
<g id="edge25" class="edge">
<title>Node15&#45;&gt;Node3</title>
<path fill="none" stroke="midnightblue" d="M948.92,-179.32C945.6,-163.57 936.41,-130.24 915.5,-112 857.57,-61.46 620.84,-26.41 533.8,-15.01"/>
<polygon fill="midnightblue" stroke="midnightblue" points="534.08,-11.52 523.72,-13.71 533.19,-18.46 534.08,-11.52"/>
</g>
<!-- Node15&#45;&gt;Node12 -->
<g id="edge19" class="edge">
<title>Node15&#45;&gt;Node12</title>
<path fill="none" stroke="midnightblue" d="M968.27,-179.48C988.98,-169.53 1023.45,-152.99 1047.49,-141.46"/>
<polygon fill="midnightblue" stroke="midnightblue" points="1049.27,-144.49 1056.77,-137.01 1046.24,-138.18 1049.27,-144.49"/>
</g>
<!-- Node15&#45;&gt;Node16 -->
<g id="edge20" class="edge">
<title>Node15&#45;&gt;Node16</title>
<path fill="none" stroke="midnightblue" d="M935.46,-179.48C918.22,-169.71 889.76,-153.58 869.47,-142.08"/>
<polygon fill="midnightblue" stroke="midnightblue" points="870.94,-138.89 860.52,-137.01 867.49,-144.98 870.94,-138.89"/>
</g>
<!-- Node16&#45;&gt;Node3 -->
<g id="edge24" class="edge">
<title>Node16&#45;&gt;Node3</title>
<path fill="none" stroke="midnightblue" d="M829.97,-118C802.94,-103.5 745.2,-73.84 693.5,-56 638.62,-37.07 572.21,-23.47 533.62,-16.45"/>
<polygon fill="midnightblue" stroke="midnightblue" points="533.96,-12.96 523.5,-14.65 532.73,-19.85 533.96,-12.96"/>
</g>
<!-- Node16&#45;&gt;Node17 -->
<g id="edge21" class="edge">
<title>Node16&#45;&gt;Node17</title>
<path fill="none" stroke="midnightblue" d="M864.7,-117.98C887.29,-107.95 925,-91.2 951,-79.65"/>
<polygon fill="midnightblue" stroke="midnightblue" points="952.62,-82.77 960.34,-75.51 949.78,-76.37 952.62,-82.77"/>
</g>
<!-- Node17&#45;&gt;Node3 -->
<g id="edge23" class="edge">
<title>Node17&#45;&gt;Node3</title>
<path fill="none" stroke="midnightblue" d="M920.14,-57.62C915.53,-57.07 910.94,-56.52 906.5,-56 768.11,-39.78 602.93,-21.88 534.1,-14.49"/>
<polygon fill="midnightblue" stroke="midnightblue" points="534.22,-10.98 523.9,-13.39 533.47,-17.94 534.22,-10.98"/>
</g>
<!-- Node17&#45;&gt;Node18 -->
<g id="edge22" class="edge">
<title>Node17&#45;&gt;Node18</title>
<path fill="none" stroke="midnightblue" d="M1038.6,-59.15C1119.47,-51.02 1269.11,-35.56 1396.5,-20 1405.16,-18.94 1414.45,-17.73 1423.25,-16.54"/>
<polygon fill="midnightblue" stroke="midnightblue" points="1423.85,-19.99 1433.28,-15.16 1422.9,-13.05 1423.85,-19.99"/>
</g>
<!-- Node19&#45;&gt;Node5 -->
<g id="edge28" class="edge">
<title>Node19&#45;&gt;Node5</title>
<path fill="none" stroke="midnightblue" d="M1234.89,-112.34C1233.99,-91.62 1232.32,-53.02 1231.32,-29.9"/>
<polygon fill="midnightblue" stroke="midnightblue" points="1234.8,-29.51 1230.88,-19.67 1227.81,-29.81 1234.8,-29.51"/>
</g>
<!-- Node20&#45;&gt;Node3 -->
<g id="edge39" class="edge">
<title>Node20&#45;&gt;Node3</title>
<path fill="none" stroke="midnightblue" d="M727.3,-179.18C721.07,-170.21 711.3,-155.84 703.5,-143 680.57,-105.26 689.96,-83.61 655.5,-56 620.09,-27.63 567.4,-17.15 533.76,-13.27"/>
<polygon fill="midnightblue" stroke="midnightblue" points="533.85,-9.76 523.55,-12.23 533.14,-16.73 533.85,-9.76"/>
</g>
<!-- Node20&#45;&gt;Node5 -->
<g id="edge40" class="edge">
<title>Node20&#45;&gt;Node5</title>
<path fill="none" stroke="midnightblue" d="M732.35,-179.31C730.83,-163.84 729.99,-131.35 746.5,-112 803.38,-45.35 1077.38,-20.77 1186,-13.55"/>
<polygon fill="midnightblue" stroke="midnightblue" points="1186.23,-17.04 1195.98,-12.9 1185.78,-10.06 1186.23,-17.04"/>
</g>
<!-- Node20&#45;&gt;Node9 -->
<g id="edge38" class="edge">
<title>Node20&#45;&gt;Node9</title>
<path fill="none" stroke="midnightblue" d="M710.29,-179.48C682.5,-169.27 635.78,-152.11 604.31,-140.55"/>
<polygon fill="midnightblue" stroke="midnightblue" points="605.26,-137.17 594.67,-137.01 602.85,-143.74 605.26,-137.17"/>
</g>
<!-- Node20&#45;&gt;Node10 -->
<g id="edge41" class="edge">
<title>Node20&#45;&gt;Node10</title>
<path fill="none" stroke="midnightblue" d="M692.81,-179.48C636.42,-167.66 535.55,-146.53 483.16,-135.55"/>
<polygon fill="midnightblue" stroke="midnightblue" points="483.56,-132.06 473.05,-133.43 482.12,-138.91 483.56,-132.06"/>
</g>
<!-- Node20&#45;&gt;Node12 -->
<g id="edge34" class="edge">
<title>Node20&#45;&gt;Node12</title>
<path fill="none" stroke="midnightblue" d="M782.36,-179.48C843.89,-168.74 949.53,-150.31 1015.5,-138.79"/>
<polygon fill="midnightblue" stroke="midnightblue" points="1016.48,-142.18 1025.73,-137.01 1015.28,-135.28 1016.48,-142.18"/>
</g>
<!-- Node20&#45;&gt;Node16 -->
<g id="edge37" class="edge">
<title>Node20&#45;&gt;Node16</title>
<path fill="none" stroke="midnightblue" d="M749.55,-179.48C768.09,-169.62 798.84,-153.29 820.52,-141.77"/>
<polygon fill="midnightblue" stroke="midnightblue" points="822.29,-144.79 829.48,-137.01 819.01,-138.61 822.29,-144.79"/>
</g>
<!-- Node20&#45;&gt;Node17 -->
<g id="edge35" class="edge">
<title>Node20&#45;&gt;Node17</title>
<path fill="none" stroke="midnightblue" d="M735.6,-179.37C739.95,-163.42 751.52,-129.33 774.5,-112 813.29,-82.75 867.27,-71.76 910.1,-67.95"/>
<polygon fill="midnightblue" stroke="midnightblue" points="910.48,-71.43 920.18,-67.16 909.93,-64.45 910.48,-71.43"/>
</g>
<!-- Node20&#45;&gt;Node19 -->
<g id="edge36" class="edge">
<title>Node20&#45;&gt;Node19</title>
<path fill="none" stroke="midnightblue" d="M797.11,-182.74C878.02,-175.72 1022.25,-162.07 1155.76,-143.03"/>
<polygon fill="midnightblue" stroke="midnightblue" points="1156.36,-146.48 1165.76,-141.6 1155.36,-139.56 1156.36,-146.48"/>
</g>
<!-- Node21&#45;&gt;Node3 -->
<g id="edge47" class="edge">
<title>Node21&#45;&gt;Node3</title>
<path fill="none" stroke="midnightblue" d="M276.25,-179.24C281.99,-170.32 290.88,-155.99 297.5,-143 316.58,-105.56 302.8,-83.58 334.5,-56 354.59,-38.52 427.01,-23.66 469.6,-16.18"/>
<polygon fill="midnightblue" stroke="midnightblue" points="470.22,-19.63 479.48,-14.48 469.04,-12.73 470.22,-19.63"/>
</g>
<!-- Node21&#45;&gt;Node10 -->
<g id="edge48" class="edge">
<title>Node21&#45;&gt;Node10</title>
<path fill="none" stroke="midnightblue" d="M296.15,-179.48C327.73,-168.98 381.46,-151.12 416.2,-139.57"/>
<polygon fill="midnightblue" stroke="midnightblue" points="417.51,-142.82 425.9,-136.35 415.31,-136.18 417.51,-142.82"/>
</g>
<!-- Node21&#45;&gt;Node22 -->
<g id="edge45" class="edge">
<title>Node21&#45;&gt;Node22</title>
<path fill="none" stroke="midnightblue" d="M264.63,-179.48C258.54,-170.64 248.86,-156.59 241.2,-145.48"/>
<polygon fill="midnightblue" stroke="midnightblue" points="243.92,-143.26 235.36,-137.01 238.16,-147.23 243.92,-143.26"/>
</g>
<!-- Node22&#45;&gt;Node3 -->
<g id="edge46" class="edge">
<title>Node22&#45;&gt;Node3</title>
<path fill="none" stroke="midnightblue" d="M235.93,-117.55C247.32,-102.37 272.61,-71.71 301.5,-56 330.19,-40.4 420.54,-24.04 469.39,-16.03"/>
<polygon fill="midnightblue" stroke="midnightblue" points="470.12,-19.45 479.43,-14.4 469,-12.54 470.12,-19.45"/>
</g>
<!-- Node23&#45;&gt;Node3 -->
<g id="edge55" class="edge">
<title>Node23&#45;&gt;Node3</title>
<path fill="none" stroke="midnightblue" d="M407.49,-56.32C425.54,-47.62 453.55,-34.12 474.3,-24.11"/>
<polygon fill="midnightblue" stroke="midnightblue" points="476.06,-27.15 483.55,-19.65 473.02,-20.84 476.06,-27.15"/>
</g>
<!-- Node23&#45;&gt;Node18 -->
<g id="edge53" class="edge">
<title>Node23&#45;&gt;Node18</title>
<path fill="none" stroke="midnightblue" d="M435.52,-64.43C578.37,-62.35 1026.78,-53.4 1396.5,-20 1405.19,-19.21 1414.5,-18.11 1423.29,-16.94"/>
<polygon fill="midnightblue" stroke="midnightblue" points="1423.9,-20.39 1433.32,-15.56 1422.94,-13.46 1423.9,-20.39"/>
</g>
<!-- Node24 -->
<g id="node24" class="node">
<title>Node24</title>
<g id="a_node24"><a xlink:title=" ">
<polygon fill="white" stroke="#bfbfbf" points="361,-0.5 361,-19.5 418,-19.5 418,-0.5 361,-0.5"/>
<text text-anchor="middle" x="389.5" y="-7.5" font-family="Helvetica,sans-Serif" font-size="10.00">ostream</text>
</a>
</g>
</g>
<!-- Node23&#45;&gt;Node24 -->
<g id="edge54" class="edge">
<title>Node23&#45;&gt;Node24</title>
<path fill="none" stroke="midnightblue" d="M389.5,-56.08C389.5,-49.01 389.5,-38.86 389.5,-29.99"/>
<polygon fill="midnightblue" stroke="midnightblue" points="393,-29.75 389.5,-19.75 386,-29.75 393,-29.75"/>
</g>
<!-- Node25&#45;&gt;Node11 -->
<g id="edge57" class="edge">
<title>Node25&#45;&gt;Node11</title>
<path fill="none" stroke="midnightblue" d="M1475.4,-362.85C1395.02,-353.87 1203.67,-332.47 1099.68,-320.85"/>
<polygon fill="midnightblue" stroke="midnightblue" points="1099.92,-317.35 1089.59,-319.72 1099.14,-324.31 1099.92,-317.35"/>
</g>
<!-- Node25&#45;&gt;Node18 -->
<g id="edge58" class="edge">
<title>Node25&#45;&gt;Node18</title>
<path fill="none" stroke="midnightblue" d="M1511.74,-358.31C1510.13,-339.09 1506.5,-291.46 1506.5,-251.5 1506.5,-251.5 1506.5,-251.5 1506.5,-126.5 1506.5,-89.66 1486.71,-50.28 1473.67,-28.34"/>
<polygon fill="midnightblue" stroke="midnightblue" points="1476.48,-26.23 1468.25,-19.56 1470.52,-29.91 1476.48,-26.23"/>
</g>
</g>
</svg>
