<?xml version="1.0" encoding="UTF-8" standalone="no"?>
<!DOCTYPE svg PUBLIC "-//W3C//DTD SVG 1.1//EN"
 "http://www.w3.org/Graphics/SVG/1.1/DTD/svg11.dtd">
<!-- Generated by graphviz version 2.43.0 (0)
 -->
<!-- Title: Lyra/include/lyra/parser.hpp Pages: 1 -->
<svg width="1374pt" height="442pt"
 viewBox="0.00 0.00 1373.78 442.00" xmlns="http://www.w3.org/2000/svg" xmlns:xlink="http://www.w3.org/1999/xlink">
<g id="graph0" class="graph" transform="scale(1 1) rotate(0) translate(4 438)">
<title>Lyra/include/lyra/parser.hpp</title>
<polygon fill="white" stroke="transparent" points="-4,4 -4,-438 1369.78,-438 1369.78,4 -4,4"/>
<!-- Node1 -->
<g id="node1" class="node">
<title>Node1</title>
<g id="a_node1"><a xlink:title=" ">
<polygon fill="#bfbfbf" stroke="black" points="528,-414.5 528,-433.5 680,-433.5 680,-414.5 528,-414.5"/>
<text text-anchor="middle" x="604" y="-421.5" font-family="Helvetica,sans-Serif" font-size="10.00">Lyra/include/lyra/parser.hpp</text>
</a>
</g>
</g>
<!-- Node2 -->
<g id="node2" class="node">
<title>Node2</title>
<g id="a_node2"><a xlink:href="args_8hpp.html" target="_top" xlink:title=" ">
<polygon fill="white" stroke="black" points="308,-179.5 308,-198.5 388,-198.5 388,-179.5 308,-179.5"/>
<text text-anchor="middle" x="348" y="-186.5" font-family="Helvetica,sans-Serif" font-size="10.00">lyra/args.hpp</text>
</a>
</g>
</g>
<!-- Node1&#45;&gt;Node2 -->
<g id="edge1" class="edge">
<title>Node1&#45;&gt;Node2</title>
<path fill="none" stroke="midnightblue" d="M587.58,-414.41C572.27,-406.06 549.12,-392.53 531,-378 461.18,-322.04 390.76,-241.26 361.77,-206.7"/>
<polygon fill="midnightblue" stroke="midnightblue" points="364.11,-204.04 355.02,-198.6 358.73,-208.52 364.11,-204.04"/>
</g>
<!-- Node4 -->
<g id="node4" class="node">
<title>Node4</title>
<g id="a_node4"><a xlink:title=" ">
<polygon fill="white" stroke="#bfbfbf" points="646,-0.5 646,-19.5 690,-19.5 690,-0.5 646,-0.5"/>
<text text-anchor="middle" x="668" y="-7.5" font-family="Helvetica,sans-Serif" font-size="10.00">string</text>
</a>
</g>
</g>
<!-- Node1&#45;&gt;Node4 -->
<g id="edge56" class="edge">
<title>Node1&#45;&gt;Node4</title>
<path fill="none" stroke="midnightblue" d="M598.16,-414.31C586.62,-396.26 562,-353.07 562,-313 562,-313 562,-313 562,-249.5 562,-163.31 516.42,-119.23 575,-56 591.37,-38.33 616.16,-26.81 636.03,-19.86"/>
<polygon fill="midnightblue" stroke="midnightblue" points="637.21,-23.16 645.62,-16.72 635.03,-16.51 637.21,-23.16"/>
</g>
<!-- Node6 -->
<g id="node6" class="node">
<title>Node6</title>
<g id="a_node6"><a xlink:href="bound_8hpp.html" target="_top" xlink:title=" ">
<polygon fill="white" stroke="black" points="837,-302.5 837,-321.5 957,-321.5 957,-302.5 837,-302.5"/>
<text text-anchor="middle" x="897" y="-309.5" font-family="Helvetica,sans-Serif" font-size="10.00">lyra/detail/bound.hpp</text>
</a>
</g>
</g>
<!-- Node1&#45;&gt;Node6 -->
<g id="edge5" class="edge">
<title>Node1&#45;&gt;Node6</title>
<path fill="none" stroke="midnightblue" d="M626.99,-414.37C678.77,-394.93 804.64,-347.67 864.43,-325.23"/>
<polygon fill="midnightblue" stroke="midnightblue" points="865.98,-328.38 874.12,-321.59 863.52,-321.83 865.98,-328.38"/>
</g>
<!-- Node7 -->
<g id="node7" class="node">
<title>Node7</title>
<g id="a_node7"><a xlink:href="from__string_8hpp.html" target="_top" xlink:title=" ">
<polygon fill="white" stroke="black" points="562,-118 562,-137 708,-137 708,-118 562,-118"/>
<text text-anchor="middle" x="635" y="-125" font-family="Helvetica,sans-Serif" font-size="10.00">lyra/detail/from_string.hpp</text>
</a>
</g>
</g>
<!-- Node1&#45;&gt;Node7 -->
<g id="edge38" class="edge">
<title>Node1&#45;&gt;Node7</title>
<path fill="none" stroke="midnightblue" d="M605.57,-414.48C608.82,-396.04 616,-351.04 616,-313 616,-313 616,-313 616,-249.5 616,-212.79 624.64,-170.56 630.27,-146.95"/>
<polygon fill="midnightblue" stroke="midnightblue" points="633.67,-147.78 632.67,-137.23 626.87,-146.1 633.67,-147.78"/>
</g>
<!-- Node8 -->
<g id="node8" class="node">
<title>Node8</title>
<g id="a_node8"><a xlink:href="trait__utils_8hpp.html" target="_top" xlink:title=" ">
<polygon fill="white" stroke="black" points="38.5,-56.5 38.5,-75.5 175.5,-75.5 175.5,-56.5 38.5,-56.5"/>
<text text-anchor="middle" x="107" y="-63.5" font-family="Helvetica,sans-Serif" font-size="10.00">lyra/detail/trait_utils.hpp</text>
</a>
</g>
</g>
<!-- Node1&#45;&gt;Node8 -->
<g id="edge45" class="edge">
<title>Node1&#45;&gt;Node8</title>
<path fill="none" stroke="midnightblue" d="M527.96,-423.88C373.6,-423.6 38,-411.66 38,-313 38,-313 38,-313 38,-188 38,-153.18 39.05,-141.84 57,-112 64.08,-100.23 75.2,-89.79 85.16,-81.92"/>
<polygon fill="midnightblue" stroke="midnightblue" points="87.56,-84.5 93.48,-75.71 83.37,-78.89 87.56,-84.5"/>
</g>
<!-- Node9 -->
<g id="node9" class="node">
<title>Node9</title>
<g id="a_node9"><a xlink:title=" ">
<polygon fill="white" stroke="#bfbfbf" points="169.5,-0.5 169.5,-19.5 238.5,-19.5 238.5,-0.5 169.5,-0.5"/>
<text text-anchor="middle" x="204" y="-7.5" font-family="Helvetica,sans-Serif" font-size="10.00">type_traits</text>
</a>
</g>
</g>
<!-- Node1&#45;&gt;Node9 -->
<g id="edge57" class="edge">
<title>Node1&#45;&gt;Node9</title>
<path fill="none" stroke="midnightblue" d="M527.83,-423.03C399.23,-422.03 145.23,-415.22 65,-378 27.94,-360.81 0,-353.86 0,-313 0,-313 0,-313 0,-126.5 0,-92.62 3.44,-78.24 29,-56 48.31,-39.2 114.09,-25.54 159.26,-17.83"/>
<polygon fill="midnightblue" stroke="midnightblue" points="159.84,-21.29 169.13,-16.19 158.69,-14.38 159.84,-21.29"/>
</g>
<!-- Node14 -->
<g id="node14" class="node">
<title>Node14</title>
<g id="a_node14"><a xlink:href="parser__result_8hpp.html" target="_top" xlink:title=" ">
<polygon fill="white" stroke="black" points="960.5,-118 960.5,-137 1083.5,-137 1083.5,-118 960.5,-118"/>
<text text-anchor="middle" x="1022" y="-125" font-family="Helvetica,sans-Serif" font-size="10.00">lyra/parser_result.hpp</text>
</a>
</g>
</g>
<!-- Node1&#45;&gt;Node14 -->
<g id="edge47" class="edge">
<title>Node1&#45;&gt;Node14</title>
<path fill="none" stroke="midnightblue" d="M655.79,-414.47C727.93,-401.28 861.58,-372.1 966,-322 1004.48,-303.54 1024.52,-303.97 1044,-266 1064.16,-226.71 1044.35,-173.48 1031.34,-146.21"/>
<polygon fill="midnightblue" stroke="midnightblue" points="1034.4,-144.49 1026.79,-137.12 1028.14,-147.63 1034.4,-144.49"/>
</g>
<!-- Node15 -->
<g id="node15" class="node">
<title>Node15</title>
<g id="a_node15"><a xlink:href="result_8hpp.html" target="_top" xlink:title=" ">
<polygon fill="white" stroke="black" points="1003,-56.5 1003,-75.5 1121,-75.5 1121,-56.5 1003,-56.5"/>
<text text-anchor="middle" x="1062" y="-63.5" font-family="Helvetica,sans-Serif" font-size="10.00">lyra/detail/result.hpp</text>
</a>
</g>
</g>
<!-- Node1&#45;&gt;Node15 -->
<g id="edge39" class="edge">
<title>Node1&#45;&gt;Node15</title>
<path fill="none" stroke="midnightblue" d="M680.01,-421.68C825.42,-418.47 1131.91,-408.18 1169,-378 1192.35,-359.01 1188,-343.1 1188,-313 1188,-313 1188,-313 1188,-188 1188,-135.24 1129.82,-98.31 1092.53,-80.06"/>
<polygon fill="midnightblue" stroke="midnightblue" points="1093.63,-76.71 1083.09,-75.62 1090.65,-83.04 1093.63,-76.71"/>
</g>
<!-- Node16 -->
<g id="node16" class="node">
<title>Node16</title>
<g id="a_node16"><a xlink:title=" ">
<polygon fill="white" stroke="#bfbfbf" points="1188,-0.5 1188,-19.5 1246,-19.5 1246,-0.5 1188,-0.5"/>
<text text-anchor="middle" x="1217" y="-7.5" font-family="Helvetica,sans-Serif" font-size="10.00">memory</text>
</a>
</g>
</g>
<!-- Node1&#45;&gt;Node16 -->
<g id="edge55" class="edge">
<title>Node1&#45;&gt;Node16</title>
<path fill="none" stroke="midnightblue" d="M680.01,-421.25C824.09,-417.32 1131.64,-405.88 1234,-378 1296.71,-360.92 1365,-378 1365,-313 1365,-313 1365,-313 1365,-126.5 1365,-94.05 1368.1,-79.76 1346,-56 1333.56,-42.62 1289.37,-29.05 1256.15,-20.36"/>
<polygon fill="midnightblue" stroke="midnightblue" points="1256.8,-16.91 1246.24,-17.83 1255.07,-23.69 1256.8,-16.91"/>
</g>
<!-- Node18 -->
<g id="node18" class="node">
<title>Node18</title>
<g id="a_node18"><a xlink:href="choices_8hpp.html" target="_top" xlink:title=" ">
<polygon fill="white" stroke="black" points="406.5,-179.5 406.5,-198.5 533.5,-198.5 533.5,-179.5 406.5,-179.5"/>
<text text-anchor="middle" x="470" y="-186.5" font-family="Helvetica,sans-Serif" font-size="10.00">lyra/detail/choices.hpp</text>
</a>
</g>
</g>
<!-- Node1&#45;&gt;Node18 -->
<g id="edge29" class="edge">
<title>Node1&#45;&gt;Node18</title>
<path fill="none" stroke="midnightblue" d="M589.42,-414.26C576.99,-406.19 559.38,-393.17 548,-378 507.05,-323.41 483.5,-244.21 474.4,-208.58"/>
<polygon fill="midnightblue" stroke="midnightblue" points="477.74,-207.51 471.95,-198.64 470.94,-209.18 477.74,-207.51"/>
</g>
<!-- Node19 -->
<g id="node19" class="node">
<title>Node19</title>
<g id="a_node19"><a xlink:href="tokens_8hpp.html" target="_top" xlink:title=" ">
<polygon fill="white" stroke="black" points="168,-179.5 168,-198.5 290,-198.5 290,-179.5 168,-179.5"/>
<text text-anchor="middle" x="229" y="-186.5" font-family="Helvetica,sans-Serif" font-size="10.00">lyra/detail/tokens.hpp</text>
</a>
</g>
</g>
<!-- Node1&#45;&gt;Node19 -->
<g id="edge40" class="edge">
<title>Node1&#45;&gt;Node19</title>
<path fill="none" stroke="midnightblue" d="M582.23,-414.37C561.82,-405.99 530.67,-392.44 505,-378 403.83,-321.1 292.09,-238.22 248.2,-204.79"/>
<polygon fill="midnightblue" stroke="midnightblue" points="250.19,-201.9 240.12,-198.61 245.93,-207.46 250.19,-201.9"/>
</g>
<!-- Node20 -->
<g id="node20" class="node">
<title>Node20</title>
<g id="a_node20"><a xlink:href="option__style_8hpp.html" target="_top" xlink:title=" ">
<polygon fill="white" stroke="black" points="66.5,-118 66.5,-137 185.5,-137 185.5,-118 66.5,-118"/>
<text text-anchor="middle" x="126" y="-125" font-family="Helvetica,sans-Serif" font-size="10.00">lyra/option_style.hpp</text>
</a>
</g>
</g>
<!-- Node1&#45;&gt;Node20 -->
<g id="edge46" class="edge">
<title>Node1&#45;&gt;Node20</title>
<path fill="none" stroke="midnightblue" d="M528,-420.59C396.15,-414.32 139,-391.96 139,-313 139,-313 139,-313 139,-249.5 139,-213.19 133.14,-171.09 129.29,-147.35"/>
<polygon fill="midnightblue" stroke="midnightblue" points="132.7,-146.55 127.59,-137.27 125.8,-147.71 132.7,-146.55"/>
</g>
<!-- Node21 -->
<g id="node21" class="node">
<title>Node21</title>
<g id="a_node21"><a xlink:href="printer_8hpp.html" target="_top" xlink:title=" ">
<polygon fill="white" stroke="black" points="1245,-56.5 1245,-75.5 1337,-75.5 1337,-56.5 1245,-56.5"/>
<text text-anchor="middle" x="1291" y="-63.5" font-family="Helvetica,sans-Serif" font-size="10.00">lyra/printer.hpp</text>
</a>
</g>
</g>
<!-- Node1&#45;&gt;Node21 -->
<g id="edge48" class="edge">
<title>Node1&#45;&gt;Node21</title>
<path fill="none" stroke="midnightblue" d="M680.15,-422.16C816.88,-419.84 1098.27,-411.06 1190,-378 1237.1,-361.03 1282,-363.06 1282,-313 1282,-313 1282,-313 1282,-188 1282,-151.79 1286.06,-109.66 1288.72,-85.88"/>
<polygon fill="midnightblue" stroke="midnightblue" points="1292.22,-86.13 1289.9,-75.79 1285.27,-85.32 1292.22,-86.13"/>
</g>
<!-- Node23 -->
<g id="node23" class="node">
<title>Node23</title>
<g id="a_node23"><a xlink:href="val_8hpp.html" target="_top" xlink:title=" ">
<polygon fill="white" stroke="black" points="1086,-358.5 1086,-377.5 1160,-377.5 1160,-358.5 1086,-358.5"/>
<text text-anchor="middle" x="1123" y="-365.5" font-family="Helvetica,sans-Serif" font-size="10.00">lyra/val.hpp</text>
</a>
</g>
</g>
<!-- Node1&#45;&gt;Node23 -->
<g id="edge52" class="edge">
<title>Node1&#45;&gt;Node23</title>
<path fill="none" stroke="midnightblue" d="M680,-417.54C772.77,-410.46 934.3,-396.74 1072,-378 1073.25,-377.83 1074.52,-377.65 1075.8,-377.46"/>
<polygon fill="midnightblue" stroke="midnightblue" points="1076.38,-380.92 1085.73,-375.93 1075.31,-374 1076.38,-380.92"/>
</g>
<!-- Node3 -->
<g id="node3" class="node">
<title>Node3</title>
<g id="a_node3"><a xlink:title=" ">
<polygon fill="white" stroke="#bfbfbf" points="346.5,-118 346.5,-137 429.5,-137 429.5,-118 346.5,-118"/>
<text text-anchor="middle" x="388" y="-125" font-family="Helvetica,sans-Serif" font-size="10.00">initializer_list</text>
</a>
</g>
</g>
<!-- Node2&#45;&gt;Node3 -->
<g id="edge2" class="edge">
<title>Node2&#45;&gt;Node3</title>
<path fill="none" stroke="midnightblue" d="M353.73,-179.48C359.67,-170.64 369.12,-156.59 376.59,-145.48"/>
<polygon fill="midnightblue" stroke="midnightblue" points="379.61,-147.26 382.28,-137.01 373.8,-143.36 379.61,-147.26"/>
</g>
<!-- Node2&#45;&gt;Node4 -->
<g id="edge3" class="edge">
<title>Node2&#45;&gt;Node4</title>
<path fill="none" stroke="midnightblue" d="M343,-179.08C335.2,-163.82 322.44,-132.4 337,-112 372.42,-62.38 559.72,-27.96 635.82,-15.82"/>
<polygon fill="midnightblue" stroke="midnightblue" points="636.45,-19.26 645.79,-14.26 635.37,-12.35 636.45,-19.26"/>
</g>
<!-- Node5 -->
<g id="node5" class="node">
<title>Node5</title>
<g id="a_node5"><a xlink:title=" ">
<polygon fill="white" stroke="#bfbfbf" points="242.5,-118 242.5,-137 289.5,-137 289.5,-118 242.5,-118"/>
<text text-anchor="middle" x="266" y="-125" font-family="Helvetica,sans-Serif" font-size="10.00">vector</text>
</a>
</g>
</g>
<!-- Node2&#45;&gt;Node5 -->
<g id="edge4" class="edge">
<title>Node2&#45;&gt;Node5</title>
<path fill="none" stroke="midnightblue" d="M336.25,-179.48C323.22,-170.02 301.96,-154.6 286.24,-143.19"/>
<polygon fill="midnightblue" stroke="midnightblue" points="287.88,-140.05 277.73,-137.01 283.77,-145.71 287.88,-140.05"/>
</g>
<!-- Node6&#45;&gt;Node4 -->
<g id="edge28" class="edge">
<title>Node6&#45;&gt;Node4</title>
<path fill="none" stroke="midnightblue" d="M957.28,-307.88C1032.11,-300.39 1150,-275.08 1150,-190 1150,-190 1150,-190 1150,-126.5 1150,-93.93 1155,-76.88 1130,-56 1097.1,-28.53 799.81,-15.64 700.29,-12.07"/>
<polygon fill="midnightblue" stroke="midnightblue" points="700.34,-8.57 690.22,-11.71 700.09,-15.56 700.34,-8.57"/>
</g>
<!-- Node6&#45;&gt;Node7 -->
<g id="edge6" class="edge">
<title>Node6&#45;&gt;Node7</title>
<path fill="none" stroke="midnightblue" d="M884.71,-302.44C843.2,-273.52 707.82,-179.22 655.71,-142.92"/>
<polygon fill="midnightblue" stroke="midnightblue" points="657.46,-139.88 647.26,-137.04 653.46,-145.63 657.46,-139.88"/>
</g>
<!-- Node12 -->
<g id="node12" class="node">
<title>Node12</title>
<g id="a_node12"><a xlink:href="invoke__lambda_8hpp.html" target="_top" xlink:title=" ">
<polygon fill="white" stroke="black" points="933.5,-235.5 933.5,-265.5 1034.5,-265.5 1034.5,-235.5 933.5,-235.5"/>
<text text-anchor="start" x="941.5" y="-253.5" font-family="Helvetica,sans-Serif" font-size="10.00">lyra/detail/invoke</text>
<text text-anchor="middle" x="984" y="-242.5" font-family="Helvetica,sans-Serif" font-size="10.00">_lambda.hpp</text>
</a>
</g>
</g>
<!-- Node6&#45;&gt;Node12 -->
<g id="edge13" class="edge">
<title>Node6&#45;&gt;Node12</title>
<path fill="none" stroke="midnightblue" d="M909.46,-302.48C921.36,-294.34 939.71,-281.79 955.23,-271.18"/>
<polygon fill="midnightblue" stroke="midnightblue" points="957.22,-274.06 963.5,-265.52 953.27,-268.28 957.22,-274.06"/>
</g>
<!-- Node13 -->
<g id="node13" class="node">
<title>Node13</title>
<g id="a_node13"><a xlink:href="parse_8hpp.html" target="_top" xlink:title=" ">
<polygon fill="white" stroke="black" points="838.5,-179.5 838.5,-198.5 955.5,-198.5 955.5,-179.5 838.5,-179.5"/>
<text text-anchor="middle" x="897" y="-186.5" font-family="Helvetica,sans-Serif" font-size="10.00">lyra/detail/parse.hpp</text>
</a>
</g>
</g>
<!-- Node6&#45;&gt;Node13 -->
<g id="edge26" class="edge">
<title>Node6&#45;&gt;Node13</title>
<path fill="none" stroke="midnightblue" d="M897,-302.3C897,-282.85 897,-235.49 897,-208.9"/>
<polygon fill="midnightblue" stroke="midnightblue" points="900.5,-208.62 897,-198.62 893.5,-208.62 900.5,-208.62"/>
</g>
<!-- Node17 -->
<g id="node17" class="node">
<title>Node17</title>
<g id="a_node17"><a xlink:href="unary__lambda__traits_8hpp.html" target="_top" xlink:title=" ">
<polygon fill="white" stroke="black" points="764.5,-112.5 764.5,-142.5 903.5,-142.5 903.5,-112.5 764.5,-112.5"/>
<text text-anchor="start" x="772.5" y="-130.5" font-family="Helvetica,sans-Serif" font-size="10.00">lyra/detail/unary_lambda</text>
<text text-anchor="middle" x="834" y="-119.5" font-family="Helvetica,sans-Serif" font-size="10.00">_traits.hpp</text>
</a>
</g>
</g>
<!-- Node6&#45;&gt;Node17 -->
<g id="edge27" class="edge">
<title>Node6&#45;&gt;Node17</title>
<path fill="none" stroke="midnightblue" d="M889.63,-302.48C874.82,-284.72 841.83,-241.81 830,-199 825.85,-183.99 826.81,-166.51 828.82,-152.72"/>
<polygon fill="midnightblue" stroke="midnightblue" points="832.32,-153.01 830.58,-142.56 825.42,-151.81 832.32,-153.01"/>
</g>
<!-- Node7&#45;&gt;Node4 -->
<g id="edge11" class="edge">
<title>Node7&#45;&gt;Node4</title>
<path fill="none" stroke="midnightblue" d="M637.48,-117.82C642.81,-99.17 655.44,-54.94 662.68,-29.63"/>
<polygon fill="midnightblue" stroke="midnightblue" points="666.11,-30.36 665.49,-19.78 659.38,-28.44 666.11,-30.36"/>
</g>
<!-- Node7&#45;&gt;Node8 -->
<g id="edge7" class="edge">
<title>Node7&#45;&gt;Node8</title>
<path fill="none" stroke="midnightblue" d="M561.86,-118.26C463.05,-107.12 287.59,-87.35 185.89,-75.89"/>
<polygon fill="midnightblue" stroke="midnightblue" points="186.01,-72.38 175.68,-74.74 185.23,-79.34 186.01,-72.38"/>
</g>
<!-- Node7&#45;&gt;Node9 -->
<g id="edge12" class="edge">
<title>Node7&#45;&gt;Node9</title>
<path fill="none" stroke="midnightblue" d="M602.96,-117.91C526.19,-97.34 331.76,-45.24 245.88,-22.22"/>
<polygon fill="midnightblue" stroke="midnightblue" points="246.53,-18.77 235.96,-19.56 244.71,-25.53 246.53,-18.77"/>
</g>
<!-- Node11 -->
<g id="node11" class="node">
<title>Node11</title>
<g id="a_node11"><a xlink:title=" ">
<polygon fill="white" stroke="#bfbfbf" points="584,-56.5 584,-75.5 640,-75.5 640,-56.5 584,-56.5"/>
<text text-anchor="middle" x="612" y="-63.5" font-family="Helvetica,sans-Serif" font-size="10.00">sstream</text>
</a>
</g>
</g>
<!-- Node7&#45;&gt;Node11 -->
<g id="edge10" class="edge">
<title>Node7&#45;&gt;Node11</title>
<path fill="none" stroke="midnightblue" d="M631.7,-117.98C628.39,-109.4 623.18,-95.93 618.95,-84.98"/>
<polygon fill="midnightblue" stroke="midnightblue" points="622.16,-83.57 615.29,-75.51 615.63,-86.1 622.16,-83.57"/>
</g>
<!-- Node8&#45;&gt;Node9 -->
<g id="edge8" class="edge">
<title>Node8&#45;&gt;Node9</title>
<path fill="none" stroke="midnightblue" d="M122.58,-56.32C138,-47.74 161.81,-34.49 179.71,-24.52"/>
<polygon fill="midnightblue" stroke="midnightblue" points="181.42,-27.58 188.45,-19.65 178.01,-21.46 181.42,-27.58"/>
</g>
<!-- Node10 -->
<g id="node10" class="node">
<title>Node10</title>
<g id="a_node10"><a xlink:title=" ">
<polygon fill="white" stroke="#bfbfbf" points="84.5,-0.5 84.5,-19.5 129.5,-19.5 129.5,-0.5 84.5,-0.5"/>
<text text-anchor="middle" x="107" y="-7.5" font-family="Helvetica,sans-Serif" font-size="10.00">utility</text>
</a>
</g>
</g>
<!-- Node8&#45;&gt;Node10 -->
<g id="edge9" class="edge">
<title>Node8&#45;&gt;Node10</title>
<path fill="none" stroke="midnightblue" d="M107,-56.08C107,-49.01 107,-38.86 107,-29.99"/>
<polygon fill="midnightblue" stroke="midnightblue" points="110.5,-29.75 107,-19.75 103.5,-29.75 110.5,-29.75"/>
</g>
<!-- Node12&#45;&gt;Node13 -->
<g id="edge14" class="edge">
<title>Node12&#45;&gt;Node13</title>
<path fill="none" stroke="midnightblue" d="M963.38,-235.4C949.7,-226.04 931.79,-213.79 918.02,-204.38"/>
<polygon fill="midnightblue" stroke="midnightblue" points="919.89,-201.41 909.66,-198.66 915.94,-207.19 919.89,-201.41"/>
</g>
<!-- Node12&#45;&gt;Node14 -->
<g id="edge25" class="edge">
<title>Node12&#45;&gt;Node14</title>
<path fill="none" stroke="midnightblue" d="M988.51,-235.14C995.43,-213.1 1008.67,-170.95 1016.26,-146.76"/>
<polygon fill="midnightblue" stroke="midnightblue" points="1019.66,-147.64 1019.31,-137.05 1012.98,-145.54 1019.66,-147.64"/>
</g>
<!-- Node12&#45;&gt;Node15 -->
<g id="edge22" class="edge">
<title>Node12&#45;&gt;Node15</title>
<path fill="none" stroke="midnightblue" d="M1007.2,-235.24C1033.7,-217.42 1075.65,-184.21 1093,-143 1098.35,-130.3 1097.09,-125.16 1093,-112 1089.77,-101.62 1083.22,-91.52 1076.98,-83.53"/>
<polygon fill="midnightblue" stroke="midnightblue" points="1079.58,-81.19 1070.48,-75.77 1074.21,-85.68 1079.58,-81.19"/>
</g>
<!-- Node12&#45;&gt;Node17 -->
<g id="edge23" class="edge">
<title>Node12&#45;&gt;Node17</title>
<path fill="none" stroke="midnightblue" d="M983.83,-235.28C982.89,-219.64 979.08,-194.64 965,-179 951.26,-163.75 932.39,-153.06 913.24,-145.59"/>
<polygon fill="midnightblue" stroke="midnightblue" points="914.43,-142.3 903.84,-142.18 912.04,-148.88 914.43,-142.3"/>
</g>
<!-- Node13&#45;&gt;Node4 -->
<g id="edge21" class="edge">
<title>Node13&#45;&gt;Node4</title>
<path fill="none" stroke="midnightblue" d="M902.77,-179.22C911.86,-164.18 927.1,-133.07 913,-112 864.89,-40.14 755.35,-19.35 700.52,-13.38"/>
<polygon fill="midnightblue" stroke="midnightblue" points="700.61,-9.87 690.32,-12.37 699.93,-16.84 700.61,-9.87"/>
</g>
<!-- Node13&#45;&gt;Node7 -->
<g id="edge15" class="edge">
<title>Node13&#45;&gt;Node7</title>
<path fill="none" stroke="midnightblue" d="M859.46,-179.48C812.77,-168.87 733.02,-150.76 682.22,-139.22"/>
<polygon fill="midnightblue" stroke="midnightblue" points="683,-135.81 672.47,-137.01 681.45,-142.64 683,-135.81"/>
</g>
<!-- Node13&#45;&gt;Node14 -->
<g id="edge16" class="edge">
<title>Node13&#45;&gt;Node14</title>
<path fill="none" stroke="midnightblue" d="M914.91,-179.48C935.89,-169.49 970.85,-152.85 995.09,-141.31"/>
<polygon fill="midnightblue" stroke="midnightblue" points="996.6,-144.47 1004.12,-137.01 993.59,-138.15 996.6,-144.47"/>
</g>
<!-- Node14&#45;&gt;Node4 -->
<g id="edge20" class="edge">
<title>Node14&#45;&gt;Node4</title>
<path fill="none" stroke="midnightblue" d="M1015.58,-117.85C1003.71,-102.57 976.73,-71 946,-56 864.2,-16.07 754.35,-10.42 700.51,-10.3"/>
<polygon fill="midnightblue" stroke="midnightblue" points="700.19,-6.81 690.21,-10.35 700.22,-13.81 700.19,-6.81"/>
</g>
<!-- Node14&#45;&gt;Node15 -->
<g id="edge17" class="edge">
<title>Node14&#45;&gt;Node15</title>
<path fill="none" stroke="midnightblue" d="M1027.73,-117.98C1033.67,-109.14 1043.12,-95.09 1050.59,-83.98"/>
<polygon fill="midnightblue" stroke="midnightblue" points="1053.61,-85.76 1056.28,-75.51 1047.8,-81.86 1053.61,-85.76"/>
</g>
<!-- Node15&#45;&gt;Node4 -->
<g id="edge19" class="edge">
<title>Node15&#45;&gt;Node4</title>
<path fill="none" stroke="midnightblue" d="M1002.59,-56.86C918.28,-45.3 766.83,-24.54 700.55,-15.46"/>
<polygon fill="midnightblue" stroke="midnightblue" points="700.68,-11.95 690.3,-14.06 699.73,-18.88 700.68,-11.95"/>
</g>
<!-- Node15&#45;&gt;Node16 -->
<g id="edge18" class="edge">
<title>Node15&#45;&gt;Node16</title>
<path fill="none" stroke="midnightblue" d="M1086.56,-56.44C1112.52,-47.4 1153.67,-33.06 1182.8,-22.92"/>
<polygon fill="midnightblue" stroke="midnightblue" points="1184.26,-26.11 1192.55,-19.52 1181.96,-19.5 1184.26,-26.11"/>
</g>
<!-- Node17&#45;&gt;Node9 -->
<g id="edge24" class="edge">
<title>Node17&#45;&gt;Node9</title>
<path fill="none" stroke="midnightblue" d="M804.33,-112.39C768.41,-95.98 705.69,-69.42 649,-56 505.45,-22.02 329.9,-13.69 248.89,-11.66"/>
<polygon fill="midnightblue" stroke="midnightblue" points="248.64,-8.15 238.56,-11.42 248.48,-15.15 248.64,-8.15"/>
</g>
<!-- Node18&#45;&gt;Node3 -->
<g id="edge34" class="edge">
<title>Node18&#45;&gt;Node3</title>
<path fill="none" stroke="midnightblue" d="M458.25,-179.48C445.22,-170.02 423.96,-154.6 408.24,-143.19"/>
<polygon fill="midnightblue" stroke="midnightblue" points="409.88,-140.05 399.73,-137.01 405.77,-145.71 409.88,-140.05"/>
</g>
<!-- Node18&#45;&gt;Node4 -->
<g id="edge35" class="edge">
<title>Node18&#45;&gt;Node4</title>
<path fill="none" stroke="midnightblue" d="M470.69,-179.49C473.03,-156.2 482.77,-90.82 520,-56 551.86,-26.21 602.87,-16.1 635.9,-12.7"/>
<polygon fill="midnightblue" stroke="midnightblue" points="636.29,-16.18 645.95,-11.81 635.68,-9.21 636.29,-16.18"/>
</g>
<!-- Node18&#45;&gt;Node5 -->
<g id="edge37" class="edge">
<title>Node18&#45;&gt;Node5</title>
<path fill="none" stroke="midnightblue" d="M440.77,-179.48C403.37,-168.57 338.74,-149.72 299.43,-138.25"/>
<polygon fill="midnightblue" stroke="midnightblue" points="300.35,-134.87 289.77,-135.43 298.39,-141.59 300.35,-134.87"/>
</g>
<!-- Node18&#45;&gt;Node7 -->
<g id="edge30" class="edge">
<title>Node18&#45;&gt;Node7</title>
<path fill="none" stroke="midnightblue" d="M493.64,-179.48C521.94,-169.27 569.53,-152.11 601.59,-140.55"/>
<polygon fill="midnightblue" stroke="midnightblue" points="603.18,-143.69 611.4,-137.01 600.81,-137.11 603.18,-143.69"/>
</g>
<!-- Node18&#45;&gt;Node9 -->
<g id="edge36" class="edge">
<title>Node18&#45;&gt;Node9</title>
<path fill="none" stroke="midnightblue" d="M468.53,-179.3C465.5,-163.83 457.15,-131.32 438,-112 422.88,-96.74 296.05,-46.52 235.69,-23.15"/>
<polygon fill="midnightblue" stroke="midnightblue" points="236.85,-19.85 226.26,-19.51 234.33,-26.38 236.85,-19.85"/>
</g>
<!-- Node18&#45;&gt;Node14 -->
<g id="edge33" class="edge">
<title>Node18&#45;&gt;Node14</title>
<path fill="none" stroke="midnightblue" d="M533.52,-182.17C619.61,-174.13 778.06,-158.83 913,-143 925.19,-141.57 938.14,-139.94 950.69,-138.31"/>
<polygon fill="midnightblue" stroke="midnightblue" points="951.19,-141.77 960.65,-137 950.28,-134.83 951.19,-141.77"/>
</g>
<!-- Node18&#45;&gt;Node15 -->
<g id="edge31" class="edge">
<title>Node18&#45;&gt;Node15</title>
<path fill="none" stroke="midnightblue" d="M533.68,-184.94C585.13,-180.49 658.35,-169.61 717,-143 737.16,-133.85 735.68,-120.8 756,-112 832.43,-78.89 928.58,-69.38 992.5,-67.03"/>
<polygon fill="midnightblue" stroke="midnightblue" points="992.98,-70.52 1002.86,-66.7 992.76,-63.52 992.98,-70.52"/>
</g>
<!-- Node18&#45;&gt;Node17 -->
<g id="edge32" class="edge">
<title>Node18&#45;&gt;Node17</title>
<path fill="none" stroke="midnightblue" d="M524.23,-179.47C580.66,-170.56 671.57,-156.07 750,-143 751.46,-142.76 752.93,-142.51 754.42,-142.26"/>
<polygon fill="midnightblue" stroke="midnightblue" points="755.06,-145.7 764.34,-140.59 753.9,-138.8 755.06,-145.7"/>
</g>
<!-- Node19&#45;&gt;Node4 -->
<g id="edge43" class="edge">
<title>Node19&#45;&gt;Node4</title>
<path fill="none" stroke="midnightblue" d="M226.67,-179.46C223.06,-164.24 218,-132.13 233,-112 281.68,-46.67 543.64,-20.53 635.86,-13.27"/>
<polygon fill="midnightblue" stroke="midnightblue" points="636.29,-16.75 645.99,-12.49 635.75,-9.77 636.29,-16.75"/>
</g>
<!-- Node19&#45;&gt;Node5 -->
<g id="edge44" class="edge">
<title>Node19&#45;&gt;Node5</title>
<path fill="none" stroke="midnightblue" d="M234.3,-179.48C239.74,-170.73 248.36,-156.87 255.24,-145.81"/>
<polygon fill="midnightblue" stroke="midnightblue" points="258.4,-147.35 260.71,-137.01 252.46,-143.65 258.4,-147.35"/>
</g>
<!-- Node19&#45;&gt;Node20 -->
<g id="edge41" class="edge">
<title>Node19&#45;&gt;Node20</title>
<path fill="none" stroke="midnightblue" d="M214.24,-179.48C197.34,-169.71 169.42,-153.58 149.51,-142.08"/>
<polygon fill="midnightblue" stroke="midnightblue" points="151.14,-138.98 140.73,-137.01 147.64,-145.04 151.14,-138.98"/>
</g>
<!-- Node20&#45;&gt;Node4 -->
<g id="edge42" class="edge">
<title>Node20&#45;&gt;Node4</title>
<path fill="none" stroke="midnightblue" d="M139.24,-117.8C163.33,-102.43 216.44,-70.74 266,-56 398.91,-16.49 565.92,-11.15 635.38,-10.78"/>
<polygon fill="midnightblue" stroke="midnightblue" points="635.68,-14.28 645.67,-10.76 635.66,-7.28 635.68,-14.28"/>
</g>
<!-- Node21&#45;&gt;Node4 -->
<g id="edge51" class="edge">
<title>Node21&#45;&gt;Node4</title>
<path fill="none" stroke="midnightblue" d="M1244.94,-61.01C1124.63,-50.58 803.18,-22.72 700.21,-13.79"/>
<polygon fill="midnightblue" stroke="midnightblue" points="700.39,-10.29 690.12,-12.92 699.78,-17.27 700.39,-10.29"/>
</g>
<!-- Node21&#45;&gt;Node16 -->
<g id="edge49" class="edge">
<title>Node21&#45;&gt;Node16</title>
<path fill="none" stroke="midnightblue" d="M1279.11,-56.32C1267.85,-48.11 1250.71,-35.6 1237.29,-25.81"/>
<polygon fill="midnightblue" stroke="midnightblue" points="1239.25,-22.9 1229.11,-19.83 1235.12,-28.56 1239.25,-22.9"/>
</g>
<!-- Node22 -->
<g id="node22" class="node">
<title>Node22</title>
<g id="a_node22"><a xlink:title=" ">
<polygon fill="white" stroke="#bfbfbf" points="1264.5,-0.5 1264.5,-19.5 1321.5,-19.5 1321.5,-0.5 1264.5,-0.5"/>
<text text-anchor="middle" x="1293" y="-7.5" font-family="Helvetica,sans-Serif" font-size="10.00">ostream</text>
</a>
</g>
</g>
<!-- Node21&#45;&gt;Node22 -->
<g id="edge50" class="edge">
<title>Node21&#45;&gt;Node22</title>
<path fill="none" stroke="midnightblue" d="M1291.33,-56.08C1291.59,-49.01 1291.97,-38.86 1292.3,-29.99"/>
<polygon fill="midnightblue" stroke="midnightblue" points="1295.8,-29.87 1292.68,-19.75 1288.81,-29.61 1295.8,-29.87"/>
</g>
<!-- Node23&#45;&gt;Node6 -->
<g id="edge53" class="edge">
<title>Node23&#45;&gt;Node6</title>
<path fill="none" stroke="midnightblue" d="M1087.19,-358.44C1048.01,-349.08 985.12,-334.06 942.48,-323.87"/>
<polygon fill="midnightblue" stroke="midnightblue" points="943.18,-320.44 932.64,-321.52 941.56,-327.24 943.18,-320.44"/>
</g>
<!-- Node23&#45;&gt;Node16 -->
<g id="edge54" class="edge">
<title>Node23&#45;&gt;Node16</title>
<path fill="none" stroke="midnightblue" d="M1139.55,-358.37C1168.66,-341.85 1226,-302.82 1226,-251.5 1226,-251.5 1226,-251.5 1226,-188 1226,-130.45 1221.2,-62.52 1218.61,-30.09"/>
<polygon fill="midnightblue" stroke="midnightblue" points="1222.07,-29.51 1217.77,-19.83 1215.1,-30.08 1222.07,-29.51"/>
</g>
</g>
</svg>
