<?xml version="1.0" encoding="UTF-8" standalone="no"?>
<!DOCTYPE svg PUBLIC "-//W3C//DTD SVG 1.1//EN"
 "http://www.w3.org/Graphics/SVG/1.1/DTD/svg11.dtd">
<!-- Generated by graphviz version 2.43.0 (0)
 -->
<!-- Title: Lyra/include/lyra/parser_result.hpp Pages: 1 -->
<svg width="176pt" height="151pt"
 viewBox="0.00 0.00 175.50 151.00" xmlns="http://www.w3.org/2000/svg" xmlns:xlink="http://www.w3.org/1999/xlink">
<g id="graph0" class="graph" transform="scale(1 1) rotate(0) translate(4 147)">
<title>Lyra/include/lyra/parser_result.hpp</title>
<polygon fill="white" stroke="transparent" points="-4,4 -4,-147 171.5,-147 171.5,4 -4,4"/>
<!-- Node1 -->
<g id="node1" class="node">
<title>Node1</title>
<g id="a_node1"><a xlink:title=" ">
<polygon fill="#bfbfbf" stroke="black" points="36.5,-112.5 36.5,-142.5 167.5,-142.5 167.5,-112.5 36.5,-112.5"/>
<text text-anchor="start" x="44.5" y="-130.5" font-family="Helvetica,sans-Serif" font-size="10.00">Lyra/include/lyra/parser</text>
<text text-anchor="middle" x="102" y="-119.5" font-family="Helvetica,sans-Serif" font-size="10.00">_result.hpp</text>
</a>
</g>
</g>
<!-- Node2 -->
<g id="node2" class="node">
<title>Node2</title>
<g id="a_node2"><a xlink:href="result_8hpp.html" target="_top" xlink:title=" ">
<polygon fill="white" stroke="black" points="0,-56.5 0,-75.5 118,-75.5 118,-56.5 0,-56.5"/>
<text text-anchor="middle" x="59" y="-63.5" font-family="Helvetica,sans-Serif" font-size="10.00">lyra/detail/result.hpp</text>
</a>
</g>
</g>
<!-- Node1&#45;&gt;Node2 -->
<g id="edge1" class="edge">
<title>Node1&#45;&gt;Node2</title>
<path fill="none" stroke="midnightblue" d="M91.81,-112.4C85.63,-103.84 77.7,-92.87 71.18,-83.86"/>
<polygon fill="midnightblue" stroke="midnightblue" points="73.95,-81.71 65.26,-75.66 68.28,-85.81 73.95,-81.71"/>
</g>
<!-- Node4 -->
<g id="node4" class="node">
<title>Node4</title>
<g id="a_node4"><a xlink:title=" ">
<polygon fill="white" stroke="#bfbfbf" points="115,-0.5 115,-19.5 159,-19.5 159,-0.5 115,-0.5"/>
<text text-anchor="middle" x="137" y="-7.5" font-family="Helvetica,sans-Serif" font-size="10.00">string</text>
</a>
</g>
</g>
<!-- Node1&#45;&gt;Node4 -->
<g id="edge4" class="edge">
<title>Node1&#45;&gt;Node4</title>
<path fill="none" stroke="midnightblue" d="M110.44,-112.41C115.98,-102.54 122.93,-88.87 127,-76 131.79,-60.84 134.33,-42.95 135.65,-29.78"/>
<polygon fill="midnightblue" stroke="midnightblue" points="139.15,-29.87 136.52,-19.6 132.18,-29.27 139.15,-29.87"/>
</g>
<!-- Node3 -->
<g id="node3" class="node">
<title>Node3</title>
<g id="a_node3"><a xlink:title=" ">
<polygon fill="white" stroke="#bfbfbf" points="30,-0.5 30,-19.5 88,-19.5 88,-0.5 30,-0.5"/>
<text text-anchor="middle" x="59" y="-7.5" font-family="Helvetica,sans-Serif" font-size="10.00">memory</text>
</a>
</g>
</g>
<!-- Node2&#45;&gt;Node3 -->
<g id="edge2" class="edge">
<title>Node2&#45;&gt;Node3</title>
<path fill="none" stroke="midnightblue" d="M59,-56.08C59,-49.01 59,-38.86 59,-29.99"/>
<polygon fill="midnightblue" stroke="midnightblue" points="62.5,-29.75 59,-19.75 55.5,-29.75 62.5,-29.75"/>
</g>
<!-- Node2&#45;&gt;Node4 -->
<g id="edge3" class="edge">
<title>Node2&#45;&gt;Node4</title>
<path fill="none" stroke="midnightblue" d="M71.53,-56.32C83.59,-47.98 102.03,-35.21 116.27,-25.35"/>
<polygon fill="midnightblue" stroke="midnightblue" points="118.27,-28.22 124.5,-19.65 114.28,-22.47 118.27,-28.22"/>
</g>
</g>
</svg>
