<?xml version="1.0" encoding="UTF-8" standalone="no"?>
<!DOCTYPE svg PUBLIC "-//W3C//DTD SVG 1.1//EN"
 "http://www.w3.org/Graphics/SVG/1.1/DTD/svg11.dtd">
<!-- Generated by graphviz version 2.43.0 (0)
 -->
<!-- Title: Lyra/include/lyra/printer.hpp Pages: 1 -->
<!--zoomable 442 -->
<svg id="main" version="1.1" xmlns="http://www.w3.org/2000/svg" xmlns:xlink="http://www.w3.org/1999/xlink" xml:space="preserve" onload="init(evt)">
<style type="text/css"><![CDATA[
.edge:hover path { stroke: red; }
.edge:hover polygon { stroke: red; fill: red; }
]]></style>
<script type="text/javascript"><![CDATA[
var edges = document.getElementsByTagName('g');
if (edges && edges.length) {
  for (var i=0;i<edges.length;i++) {
    if (edges[i].id.substr(0,4)=='edge') {
      edges[i].setAttribute('class','edge');
    }
  }
}
]]></script>
        <defs>
                <circle id="rim" cx="0" cy="0" r="7"/>
                <circle id="rim2" cx="0" cy="0" r="3.5"/>
                <g id="zoomPlus">
                        <use xlink:href="#rim" fill="#404040">
                                <set attributeName="fill" to="#808080" begin="zoomplus.mouseover" end="zoomplus.mouseout"/>
                        </use>
                        <path d="M-4,0h8M0,-4v8" fill="none" stroke="white" stroke-width="1.5" pointer-events="none"/>
                </g>
                <g id="zoomMin">
                        <use xlink:href="#rim" fill="#404040">
                                <set attributeName="fill" to="#808080" begin="zoomminus.mouseover" end="zoomminus.mouseout"/>
                        </use>
                        <path d="M-4,0h8" fill="none" stroke="white" stroke-width="1.5" pointer-events="none"/>
                </g>
                <g id="dirArrow">
                        <path fill="none" stroke="white" stroke-width="1.5" d="M0,-3.0v7 M-2.5,-0.5L0,-3.0L2.5,-0.5"/>
                </g>
               <g id="resetDef">
                       <use xlink:href="#rim2" fill="#404040">
                               <set attributeName="fill" to="#808080" begin="reset.mouseover" end="reset.mouseout"/>
                       </use>
               </g>
        </defs>

<script type="text/javascript">
var viewWidth = 946;
var viewHeight = 442;
var sectionId = 'dynsection-1';
</script>
<script xlink:href="svgpan.js"/>
<svg id="graph" class="graph">
<g id="viewport">
<title>Lyra/include/lyra/printer.hpp</title>
<polygon fill="white" stroke="transparent" points="-4,4 -4,-438 942,-438 942,4 -4,4"/>
<!-- Node1 -->
<g id="node1" class="node">
<title>Node1</title>
<g id="a_node1"><a xlink:title=" ">
<polygon fill="#bfbfbf" stroke="black" points="353.5,-414.5 353.5,-433.5 506.5,-433.5 506.5,-414.5 353.5,-414.5"/>
<text text-anchor="middle" x="430" y="-421.5" font-family="Helvetica,sans-Serif" font-size="10.00">Lyra/include/lyra/printer.hpp</text>
</a>
</g>
</g>
<!-- Node2 -->
<g id="node2" class="node">
<title>Node2</title>
<g id="a_node2"><a xlink:href="arguments_8hpp.html" target="_top" xlink:title=" ">
<polygon fill="white" stroke="black" points="142.5,-235.5 142.5,-254.5 315.5,-254.5 315.5,-235.5 142.5,-235.5"/>
<text text-anchor="middle" x="229" y="-242.5" font-family="Helvetica,sans-Serif" font-size="10.00">Lyra/include/lyra/arguments.hpp</text>
</a>
</g>
</g>
<!-- Node1&#45;&gt;Node2 -->
<g id="edge1" class="edge">
<title>Node1&#45;&gt;Node2</title>
<path fill="none" stroke="midnightblue" d="M412.56,-407.64C371.78,-371.73 271.24,-283.19 239.07,-254.87"/>
<polygon fill="midnightblue" stroke="midnightblue" points="410.49,-410.48 420.31,-414.46 415.11,-405.23 410.49,-410.48"/>
</g>
<!-- Node9 -->
<g id="node9" class="node">
<title>Node9</title>
<g id="a_node9"><a xlink:href="parser_8hpp.html" target="_top" xlink:title=" ">
<polygon fill="white" stroke="black" points="465,-358.5 465,-377.5 617,-377.5 617,-358.5 465,-358.5"/>
<text text-anchor="middle" x="541" y="-365.5" font-family="Helvetica,sans-Serif" font-size="10.00">Lyra/include/lyra/parser.hpp</text>
</a>
</g>
</g>
<!-- Node1&#45;&gt;Node9 -->
<g id="edge14" class="edge">
<title>Node1&#45;&gt;Node9</title>
<path fill="none" stroke="midnightblue" d="M457.01,-409.86C477.59,-399.85 505.34,-386.35 523.21,-377.65"/>
<polygon fill="midnightblue" stroke="midnightblue" points="455.3,-406.8 447.83,-414.32 458.36,-413.1 455.3,-406.8"/>
</g>
<!-- Node3 -->
<g id="node3" class="node">
<title>Node3</title>
<g id="a_node3"><a xlink:href="cli_8hpp.html" target="_top" xlink:title=" ">
<polygon fill="white" stroke="black" points="42,-123.5 42,-142.5 174,-142.5 174,-123.5 42,-123.5"/>
<text text-anchor="middle" x="108" y="-130.5" font-family="Helvetica,sans-Serif" font-size="10.00">Lyra/include/lyra/cli.hpp</text>
</a>
</g>
</g>
<!-- Node2&#45;&gt;Node3 -->
<g id="edge2" class="edge">
<title>Node2&#45;&gt;Node3</title>
<path fill="none" stroke="midnightblue" d="M174.98,-232.38C155.69,-225.66 135.43,-215.19 122,-199 108.44,-182.65 107.14,-156.22 107.48,-142.65"/>
<polygon fill="midnightblue" stroke="midnightblue" points="174.05,-235.75 184.64,-235.47 176.19,-229.09 174.05,-235.75"/>
</g>
<!-- Node5 -->
<g id="node5" class="node">
<title>Node5</title>
<g id="a_node5"><a xlink:href="include_2lyra_2lyra_8hpp.html" target="_top" xlink:title=" ">
<polygon fill="white" stroke="black" points="371,-0.5 371,-19.5 511,-19.5 511,-0.5 371,-0.5"/>
<text text-anchor="middle" x="441" y="-7.5" font-family="Helvetica,sans-Serif" font-size="10.00">Lyra/include/lyra/lyra.hpp</text>
</a>
</g>
</g>
<!-- Node2&#45;&gt;Node5 -->
<g id="edge13" class="edge">
<title>Node2&#45;&gt;Node5</title>
<path fill="none" stroke="midnightblue" d="M257.29,-230.38C269.39,-222.93 282.27,-212.46 289,-199 304.97,-167.07 245.74,-154.25 263,-123 294.77,-65.47 369.87,-33.47 411.65,-19.54"/>
<polygon fill="midnightblue" stroke="midnightblue" points="255.27,-227.5 248.3,-235.48 258.72,-233.59 255.27,-227.5"/>
</g>
<!-- Node7 -->
<g id="node7" class="node">
<title>Node7</title>
<g id="a_node7"><a xlink:href="group_8hpp.html" target="_top" xlink:title=" ">
<polygon fill="white" stroke="black" points="131.5,-179.5 131.5,-198.5 280.5,-198.5 280.5,-179.5 131.5,-179.5"/>
<text text-anchor="middle" x="206" y="-186.5" font-family="Helvetica,sans-Serif" font-size="10.00">Lyra/include/lyra/group.hpp</text>
</a>
</g>
</g>
<!-- Node2&#45;&gt;Node7 -->
<g id="edge8" class="edge">
<title>Node2&#45;&gt;Node7</title>
<path fill="none" stroke="midnightblue" d="M221.2,-225.69C217.32,-216.59 212.82,-206.01 209.73,-198.75"/>
<polygon fill="midnightblue" stroke="midnightblue" points="218.06,-227.25 225.2,-235.08 224.5,-224.51 218.06,-227.25"/>
</g>
<!-- Node4 -->
<g id="node4" class="node">
<title>Node4</title>
<g id="a_node4"><a xlink:href="cli__parser_8hpp.html" target="_top" xlink:title=" ">
<polygon fill="white" stroke="black" points="66.5,-56.5 66.5,-86.5 177.5,-86.5 177.5,-56.5 66.5,-56.5"/>
<text text-anchor="start" x="74.5" y="-74.5" font-family="Helvetica,sans-Serif" font-size="10.00">Lyra/include/lyra/cli</text>
<text text-anchor="middle" x="122" y="-63.5" font-family="Helvetica,sans-Serif" font-size="10.00">_parser.hpp</text>
</a>
</g>
</g>
<!-- Node3&#45;&gt;Node4 -->
<g id="edge3" class="edge">
<title>Node3&#45;&gt;Node4</title>
<path fill="none" stroke="midnightblue" d="M112.35,-113.53C114.4,-104.81 116.8,-94.59 118.7,-86.52"/>
<polygon fill="midnightblue" stroke="midnightblue" points="108.89,-112.94 110.01,-123.48 115.7,-114.54 108.89,-112.94"/>
</g>
<!-- Node3&#45;&gt;Node5 -->
<g id="edge5" class="edge">
<title>Node3&#45;&gt;Node5</title>
<path fill="none" stroke="midnightblue" d="M86.73,-117.51C65.87,-101.57 39.55,-75.62 57,-56 77.47,-32.99 265.89,-19.85 370.97,-14.25"/>
<polygon fill="midnightblue" stroke="midnightblue" points="84.77,-120.42 94.91,-123.49 88.9,-114.76 84.77,-120.42"/>
</g>
<!-- Node6 -->
<g id="node6" class="node">
<title>Node6</title>
<g id="a_node6"><a xlink:href="main_8hpp.html" target="_top" xlink:title=" ">
<polygon fill="white" stroke="black" points="564,-62 564,-81 710,-81 710,-62 564,-62"/>
<text text-anchor="middle" x="637" y="-69" font-family="Helvetica,sans-Serif" font-size="10.00">Lyra/include/lyra/main.hpp</text>
</a>
</g>
</g>
<!-- Node3&#45;&gt;Node6 -->
<g id="edge6" class="edge">
<title>Node3&#45;&gt;Node6</title>
<path fill="none" stroke="midnightblue" d="M184.38,-123.41C285.92,-111.99 464.12,-91.95 563.95,-80.72"/>
<polygon fill="midnightblue" stroke="midnightblue" points="183.74,-119.96 174.2,-124.55 184.52,-126.91 183.74,-119.96"/>
</g>
<!-- Node4&#45;&gt;Node5 -->
<g id="edge4" class="edge">
<title>Node4&#45;&gt;Node5</title>
<path fill="none" stroke="midnightblue" d="M187.61,-56.86C189.09,-56.57 190.55,-56.28 192,-56 261.22,-42.58 341.52,-28.3 391.8,-19.51"/>
<polygon fill="midnightblue" stroke="midnightblue" points="186.88,-53.43 177.76,-58.82 188.25,-60.3 186.88,-53.43"/>
</g>
<!-- Node6&#45;&gt;Node5 -->
<g id="edge7" class="edge">
<title>Node6&#45;&gt;Node5</title>
<path fill="none" stroke="midnightblue" d="M599.21,-59.03C561.12,-47.46 503.21,-29.88 469.03,-19.51"/>
<polygon fill="midnightblue" stroke="midnightblue" points="598.33,-62.42 608.92,-61.98 600.37,-55.72 598.33,-62.42"/>
</g>
<!-- Node7&#45;&gt;Node3 -->
<g id="edge9" class="edge">
<title>Node7&#45;&gt;Node3</title>
<path fill="none" stroke="midnightblue" d="M181.41,-174.45C163.32,-164.48 139.27,-151.23 123.71,-142.65"/>
<polygon fill="midnightblue" stroke="midnightblue" points="179.81,-177.56 190.25,-179.32 183.19,-171.43 179.81,-177.56"/>
</g>
<!-- Node7&#45;&gt;Node5 -->
<g id="edge12" class="edge">
<title>Node7&#45;&gt;Node5</title>
<path fill="none" stroke="midnightblue" d="M203.49,-169.3C200.81,-140.79 200.35,-86.56 230,-56 249.37,-36.04 317.26,-24.09 370.87,-17.58"/>
<polygon fill="midnightblue" stroke="midnightblue" points="200.04,-169.95 204.66,-179.49 207,-169.15 200.04,-169.95"/>
</g>
<!-- Node8 -->
<g id="node8" class="node">
<title>Node8</title>
<g id="a_node8"><a xlink:href="command_8hpp.html" target="_top" xlink:title=" ">
<polygon fill="white" stroke="black" points="272,-123.5 272,-142.5 442,-142.5 442,-123.5 272,-123.5"/>
<text text-anchor="middle" x="357" y="-130.5" font-family="Helvetica,sans-Serif" font-size="10.00">Lyra/include/lyra/command.hpp</text>
</a>
</g>
</g>
<!-- Node7&#45;&gt;Node8 -->
<g id="edge10" class="edge">
<title>Node7&#45;&gt;Node8</title>
<path fill="none" stroke="midnightblue" d="M239.45,-176.04C267.86,-165.88 307.94,-151.55 333.19,-142.52"/>
<polygon fill="midnightblue" stroke="midnightblue" points="238.16,-172.78 229.93,-179.44 240.52,-179.37 238.16,-172.78"/>
</g>
<!-- Node8&#45;&gt;Node5 -->
<g id="edge11" class="edge">
<title>Node8&#45;&gt;Node5</title>
<path fill="none" stroke="midnightblue" d="M368.98,-114.75C387.21,-88.48 421.26,-39.43 435.01,-19.62"/>
<polygon fill="midnightblue" stroke="midnightblue" points="365.87,-113.09 363.04,-123.3 371.62,-117.08 365.87,-113.09"/>
</g>
<!-- Node9&#45;&gt;Node2 -->
<g id="edge18" class="edge">
<title>Node9&#45;&gt;Node2</title>
<path fill="none" stroke="midnightblue" d="M509.64,-354.84C446.62,-330.4 305.99,-275.86 251.33,-254.66"/>
<polygon fill="midnightblue" stroke="midnightblue" points="508.47,-358.14 519.06,-358.49 511,-351.61 508.47,-358.14"/>
</g>
<!-- Node9&#45;&gt;Node5 -->
<g id="edge26" class="edge">
<title>Node9&#45;&gt;Node5</title>
<path fill="none" stroke="midnightblue" d="M627.08,-358.26C743.83,-343.96 938,-310.5 938,-246 938,-246 938,-246 938,-132 938,-45.19 648.15,-20.4 511.15,-13.53"/>
<polygon fill="midnightblue" stroke="midnightblue" points="626.59,-354.79 617.08,-359.46 627.42,-361.74 626.59,-354.79"/>
</g>
<!-- Node9&#45;&gt;Node6 -->
<g id="edge27" class="edge">
<title>Node9&#45;&gt;Node6</title>
<path fill="none" stroke="midnightblue" d="M570.23,-354.03C606.61,-335.66 664,-298.38 664,-246 664,-246 664,-246 664,-188 664,-147.02 647.68,-99.96 640.42,-81.03"/>
<polygon fill="midnightblue" stroke="midnightblue" points="568.5,-350.98 561.04,-358.5 571.56,-357.27 568.5,-350.98"/>
</g>
<!-- Node10 -->
<g id="node10" class="node">
<title>Node10</title>
<g id="a_node10"><a xlink:href="arg_8hpp.html" target="_top" xlink:title=" ">
<polygon fill="white" stroke="black" points="498.5,-123.5 498.5,-142.5 635.5,-142.5 635.5,-123.5 498.5,-123.5"/>
<text text-anchor="middle" x="567" y="-130.5" font-family="Helvetica,sans-Serif" font-size="10.00">Lyra/include/lyra/arg.hpp</text>
</a>
</g>
</g>
<!-- Node9&#45;&gt;Node10 -->
<g id="edge15" class="edge">
<title>Node9&#45;&gt;Node10</title>
<path fill="none" stroke="midnightblue" d="M543.08,-348.36C548.37,-300.95 562.19,-177.15 566.01,-142.9"/>
<polygon fill="midnightblue" stroke="midnightblue" points="539.59,-348.1 541.96,-358.43 546.54,-348.88 539.59,-348.1"/>
</g>
<!-- Node11 -->
<g id="node11" class="node">
<title>Node11</title>
<g id="a_node11"><a xlink:href="exe__name_8hpp.html" target="_top" xlink:title=" ">
<polygon fill="white" stroke="black" points="103,-291.5 103,-321.5 221,-321.5 221,-291.5 103,-291.5"/>
<text text-anchor="start" x="111" y="-309.5" font-family="Helvetica,sans-Serif" font-size="10.00">Lyra/include/lyra/exe</text>
<text text-anchor="middle" x="162" y="-298.5" font-family="Helvetica,sans-Serif" font-size="10.00">_name.hpp</text>
</a>
</g>
</g>
<!-- Node9&#45;&gt;Node11 -->
<g id="edge19" class="edge">
<title>Node9&#45;&gt;Node11</title>
<path fill="none" stroke="midnightblue" d="M476.47,-356.87C404.92,-345.64 290.51,-327.67 221.19,-316.79"/>
<polygon fill="midnightblue" stroke="midnightblue" points="476.28,-360.38 486.7,-358.48 477.36,-353.47 476.28,-360.38"/>
</g>
<!-- Node12 -->
<g id="node12" class="node">
<title>Node12</title>
<g id="a_node12"><a xlink:href="literal_8hpp.html" target="_top" xlink:title=" ">
<polygon fill="white" stroke="black" points="390.5,-179.5 390.5,-198.5 539.5,-198.5 539.5,-179.5 390.5,-179.5"/>
<text text-anchor="middle" x="465" y="-186.5" font-family="Helvetica,sans-Serif" font-size="10.00">Lyra/include/lyra/literal.hpp</text>
</a>
</g>
</g>
<!-- Node9&#45;&gt;Node12 -->
<g id="edge23" class="edge">
<title>Node9&#45;&gt;Node12</title>
<path fill="none" stroke="midnightblue" d="M533.2,-348.84C517.09,-311.32 480.67,-226.48 468.81,-198.87"/>
<polygon fill="midnightblue" stroke="midnightblue" points="530.17,-350.66 537.33,-358.46 536.6,-347.89 530.17,-350.66"/>
</g>
<!-- Node13 -->
<g id="node13" class="node">
<title>Node13</title>
<g id="a_node13"><a xlink:href="opt_8hpp.html" target="_top" xlink:title=" ">
<polygon fill="white" stroke="black" points="712.5,-179.5 712.5,-198.5 849.5,-198.5 849.5,-179.5 712.5,-179.5"/>
<text text-anchor="middle" x="781" y="-186.5" font-family="Helvetica,sans-Serif" font-size="10.00">Lyra/include/lyra/opt.hpp</text>
</a>
</g>
</g>
<!-- Node9&#45;&gt;Node13 -->
<g id="edge28" class="edge">
<title>Node9&#45;&gt;Node13</title>
<path fill="none" stroke="midnightblue" d="M599.22,-355.95C624.99,-349.11 654.68,-338.4 678,-322 727.46,-287.23 764.54,-221.82 776.71,-198.51"/>
<polygon fill="midnightblue" stroke="midnightblue" points="598.03,-352.64 589.19,-358.48 599.74,-359.43 598.03,-352.64"/>
</g>
<!-- Node10&#45;&gt;Node5 -->
<g id="edge16" class="edge">
<title>Node10&#45;&gt;Node5</title>
<path fill="none" stroke="midnightblue" d="M550.45,-116.11C523.49,-90.21 470.97,-39.78 449.98,-19.62"/>
<polygon fill="midnightblue" stroke="midnightblue" points="548.3,-118.9 557.94,-123.3 553.15,-113.85 548.3,-118.9"/>
</g>
<!-- Node10&#45;&gt;Node6 -->
<g id="edge17" class="edge">
<title>Node10&#45;&gt;Node6</title>
<path fill="none" stroke="midnightblue" d="M584.68,-116.97C598.07,-105.59 615.98,-90.37 626.99,-81.01"/>
<polygon fill="midnightblue" stroke="midnightblue" points="582.38,-114.33 577.03,-123.48 586.92,-119.67 582.38,-114.33"/>
</g>
<!-- Node11&#45;&gt;Node2 -->
<g id="edge20" class="edge">
<title>Node11&#45;&gt;Node2</title>
<path fill="none" stroke="midnightblue" d="M185.54,-284.6C197.12,-274.32 210.44,-262.48 219.25,-254.66"/>
<polygon fill="midnightblue" stroke="midnightblue" points="183.03,-282.14 177.88,-291.4 187.68,-287.38 183.03,-282.14"/>
</g>
<!-- Node11&#45;&gt;Node3 -->
<g id="edge21" class="edge">
<title>Node11&#45;&gt;Node3</title>
<path fill="none" stroke="midnightblue" d="M146.45,-282.79C133.31,-262.04 115.6,-229.97 109,-199 104.76,-179.13 105.99,-155.07 107.09,-142.53"/>
<polygon fill="midnightblue" stroke="midnightblue" points="143.54,-284.74 151.93,-291.21 149.41,-280.92 143.54,-284.74"/>
</g>
<!-- Node11&#45;&gt;Node5 -->
<g id="edge22" class="edge">
<title>Node11&#45;&gt;Node5</title>
<path fill="none" stroke="midnightblue" d="M98.51,-287.98C53.11,-271.15 0,-240.63 0,-190 0,-190 0,-190 0,-132 0,-92.05 14.17,-77.25 48,-56 100.2,-23.22 272.41,-14.29 370.67,-11.87"/>
<polygon fill="midnightblue" stroke="midnightblue" points="97.46,-291.33 108.06,-291.37 99.8,-284.73 97.46,-291.33"/>
</g>
<!-- Node12&#45;&gt;Node5 -->
<g id="edge25" class="edge">
<title>Node12&#45;&gt;Node5</title>
<path fill="none" stroke="midnightblue" d="M462.47,-169.35C457.35,-131.6 445.93,-47.36 442.2,-19.87"/>
<polygon fill="midnightblue" stroke="midnightblue" points="459.03,-170.02 463.84,-179.46 465.97,-169.08 459.03,-170.02"/>
</g>
<!-- Node12&#45;&gt;Node8 -->
<g id="edge24" class="edge">
<title>Node12&#45;&gt;Node8</title>
<path fill="none" stroke="midnightblue" d="M438.45,-174.73C418.45,-164.73 391.61,-151.31 374.31,-142.65"/>
<polygon fill="midnightblue" stroke="midnightblue" points="437.14,-177.98 447.65,-179.32 440.27,-171.72 437.14,-177.98"/>
</g>
<!-- Node13&#45;&gt;Node5 -->
<g id="edge32" class="edge">
<title>Node13&#45;&gt;Node5</title>
<path fill="none" stroke="midnightblue" d="M829.54,-176.53C862.15,-166.26 896.55,-148.79 881,-123 848.04,-68.35 814.69,-75.72 754,-56 673.2,-29.75 575.71,-18.79 511.24,-14.23"/>
<polygon fill="midnightblue" stroke="midnightblue" points="828.13,-173.3 819.53,-179.49 830.11,-180.01 828.13,-173.3"/>
</g>
<!-- Node13&#45;&gt;Node6 -->
<g id="edge33" class="edge">
<title>Node13&#45;&gt;Node6</title>
<path fill="none" stroke="midnightblue" d="M760.65,-173.17C748.94,-164.52 734,-153.32 721,-143 693.71,-121.34 662.51,-94.62 646.94,-81.14"/>
<polygon fill="midnightblue" stroke="midnightblue" points="758.77,-176.13 768.9,-179.23 762.91,-170.49 758.77,-176.13"/>
</g>
<!-- Node14 -->
<g id="node14" class="node">
<title>Node14</title>
<g id="a_node14"><a xlink:href="help_8hpp.html" target="_top" xlink:title=" ">
<polygon fill="white" stroke="black" points="730,-123.5 730,-142.5 872,-142.5 872,-123.5 730,-123.5"/>
<text text-anchor="middle" x="801" y="-130.5" font-family="Helvetica,sans-Serif" font-size="10.00">Lyra/include/lyra/help.hpp</text>
</a>
</g>
</g>
<!-- Node13&#45;&gt;Node14 -->
<g id="edge29" class="edge">
<title>Node13&#45;&gt;Node14</title>
<path fill="none" stroke="midnightblue" d="M787.78,-169.69C791.15,-160.59 795.07,-150.01 797.76,-142.75"/>
<polygon fill="midnightblue" stroke="midnightblue" points="784.49,-168.49 784.3,-179.08 791.06,-170.92 784.49,-168.49"/>
</g>
<!-- Node14&#45;&gt;Node5 -->
<g id="edge30" class="edge">
<title>Node14&#45;&gt;Node5</title>
<path fill="none" stroke="midnightblue" d="M788.19,-115.34C773.53,-97.56 747.78,-70.04 719,-56 653.31,-23.95 569.53,-13.98 511.2,-11.24"/>
<polygon fill="midnightblue" stroke="midnightblue" points="785.49,-117.56 794.47,-123.19 790.96,-113.19 785.49,-117.56"/>
</g>
<!-- Node14&#45;&gt;Node6 -->
<g id="edge31" class="edge">
<title>Node14&#45;&gt;Node6</title>
<path fill="none" stroke="midnightblue" d="M767.74,-119.93C735.86,-108.37 688.57,-91.21 660.45,-81.01"/>
<polygon fill="midnightblue" stroke="midnightblue" points="766.91,-123.35 777.5,-123.48 769.3,-116.77 766.91,-123.35"/>
</g>
</g>
</svg>
        <g id="navigator" transform="translate(0 0)" fill="#404254">
                <rect fill="#f2f5e9" fill-opacity="0.5" stroke="#606060" stroke-width=".5" x="0" y="0" width="60" height="60"/>
                <use id="zoomplus" xlink:href="#zoomPlus" x="17" y="9" onmousedown="handleZoom(evt,'in')"/>
                <use id="zoomminus" xlink:href="#zoomMin" x="42" y="9" onmousedown="handleZoom(evt,'out')"/>
                <use id="reset" xlink:href="#resetDef" x="30" y="36" onmousedown="handleReset()"/>
                <g id="arrowUp" xlink:href="#dirArrow" transform="translate(30 24)" onmousedown="handlePan(0,-1)">
                  <use xlink:href="#rim" fill="#404040">
                        <set attributeName="fill" to="#808080" begin="arrowUp.mouseover" end="arrowUp.mouseout"/>
                  </use>
                  <path fill="none" stroke="white" stroke-width="1.5" d="M0,-3.0v7 M-2.5,-0.5L0,-3.0L2.5,-0.5"/>
                </g>
                <g id="arrowRight" xlink:href="#dirArrow" transform="rotate(90) translate(36 -43)" onmousedown="handlePan(1,0)">
                  <use xlink:href="#rim" fill="#404040">
                        <set attributeName="fill" to="#808080" begin="arrowRight.mouseover" end="arrowRight.mouseout"/>
                  </use>
                  <path fill="none" stroke="white" stroke-width="1.5" d="M0,-3.0v7 M-2.5,-0.5L0,-3.0L2.5,-0.5"/>
                </g>
                <g id="arrowDown" xlink:href="#dirArrow" transform="rotate(180) translate(-30 -48)" onmousedown="handlePan(0,1)">
                  <use xlink:href="#rim" fill="#404040">
                        <set attributeName="fill" to="#808080" begin="arrowDown.mouseover" end="arrowDown.mouseout"/>
                  </use>
                  <path fill="none" stroke="white" stroke-width="1.5" d="M0,-3.0v7 M-2.5,-0.5L0,-3.0L2.5,-0.5"/>
                </g>
                <g id="arrowLeft" xlink:href="#dirArrow" transform="rotate(270) translate(-36 17)" onmousedown="handlePan(-1,0)">
                  <use xlink:href="#rim" fill="#404040">
                        <set attributeName="fill" to="#808080" begin="arrowLeft.mouseover" end="arrowLeft.mouseout"/>
                  </use>
                  <path fill="none" stroke="white" stroke-width="1.5" d="M0,-3.0v7 M-2.5,-0.5L0,-3.0L2.5,-0.5"/>
                </g>
        </g>
        <svg viewBox="0 0 15 15" width="100%" height="30px" preserveAspectRatio="xMaxYMin meet">
         <g id="arrow_out" transform="scale(0.3 0.3)">
          <a xlink:href="printer_8hpp__dep__incl_org.svg" target="_base">
           <rect id="button" ry="5" rx="5" y="6" x="6" height="38" width="38"
                fill="#f2f5e9" fill-opacity="0.5" stroke="#606060" stroke-width="1.0"/>
           <path id="arrow"
             d="M 11.500037,31.436501 C 11.940474,20.09759 22.043105,11.32322 32.158766,21.979434 L 37.068811,17.246167 C 37.068811,17.246167 37.088388,32 37.088388,32 L 22.160133,31.978069 C 22.160133,31.978069 26.997745,27.140456 26.997745,27.140456 C 18.528582,18.264221 13.291696,25.230495 11.500037,31.436501 z"
             style="fill:#404040;"/>
          </a>
         </g>
        </svg>
</svg>
