<?xml version="1.0" encoding="UTF-8" standalone="no"?>
<!DOCTYPE svg PUBLIC "-//W3C//DTD SVG 1.1//EN"
 "http://www.w3.org/Graphics/SVG/1.1/DTD/svg11.dtd">
<!-- Generated by graphviz version 2.43.0 (0)
 -->
<!-- Title: MainNamespace::Options Pages: 1 -->
<svg width="1235pt" height="393pt"
 viewBox="0.00 0.00 1235.00 392.88" xmlns="http://www.w3.org/2000/svg" xmlns:xlink="http://www.w3.org/1999/xlink">
<g id="graph0" class="graph" transform="scale(1 1) rotate(0) translate(4 388.88)">
<title>MainNamespace::Options</title>
<polygon fill="white" stroke="transparent" points="-4,4 -4,-388.88 1231,-388.88 1231,4 -4,4"/>
<!-- Node1 -->
<g id="node1" class="node">
<title>Node1</title>
<g id="a_node1"><a xlink:title=" ">
<polygon fill="#bfbfbf" stroke="black" points="1085,-130.38 1085,-149.38 1227,-149.38 1227,-130.38 1085,-130.38"/>
<text text-anchor="middle" x="1156" y="-137.38" font-family="Helvetica,sans-Serif" font-size="10.00">MainNamespace::Options</text>
</a>
</g>
</g>
<!-- Node2 -->
<g id="node2" class="node">
<title>Node2</title>
<g id="a_node2"><a xlink:title=" ">
<polygon fill="white" stroke="black" points="818,-279.38 818,-298.38 856,-298.38 856,-279.38 818,-279.38"/>
<text text-anchor="middle" x="837" y="-286.38" font-family="Helvetica,sans-Serif" font-size="10.00">bool</text>
</a>
</g>
</g>
<!-- Node2&#45;&gt;Node1 -->
<g id="edge1" class="edge">
<title>Node2&#45;&gt;Node1</title>
<path fill="none" stroke="#9a32cd" stroke-dasharray="5,2" d="M866.25,-293.35C911.9,-299.09 1003.21,-304.28 1067,-266.88 1114.44,-239.06 1142.33,-174.35 1151.56,-149.68"/>
<polygon fill="#9a32cd" stroke="#9a32cd" points="866.57,-289.86 856.19,-291.98 865.62,-296.79 866.57,-289.86"/>
<text text-anchor="middle" x="1003" y="-376.88" font-family="Helvetica,sans-Serif" font-size="10.00"> compression_</text>
<text text-anchor="middle" x="1003" y="-365.88" font-family="Helvetica,sans-Serif" font-size="10.00">interactive_</text>
<text text-anchor="middle" x="1003" y="-354.88" font-family="Helvetica,sans-Serif" font-size="10.00">reference_</text>
<text text-anchor="middle" x="1003" y="-343.88" font-family="Helvetica,sans-Serif" font-size="10.00">saveError_</text>
<text text-anchor="middle" x="1003" y="-332.88" font-family="Helvetica,sans-Serif" font-size="10.00">saveMesh_</text>
<text text-anchor="middle" x="1003" y="-321.88" font-family="Helvetica,sans-Serif" font-size="10.00">saveOffset_</text>
<text text-anchor="middle" x="1003" y="-310.88" font-family="Helvetica,sans-Serif" font-size="10.00">saveRhs_</text>
<text text-anchor="middle" x="1003" y="-299.88" font-family="Helvetica,sans-Serif" font-size="10.00">saveSolution_</text>
</g>
<!-- Node3 -->
<g id="node3" class="node">
<title>Node3</title>
<g id="a_node3"><a xlink:title=" ">
<polygon fill="white" stroke="black" points="814.5,-212.38 814.5,-231.38 859.5,-231.38 859.5,-212.38 814.5,-212.38"/>
<text text-anchor="middle" x="837" y="-219.38" font-family="Helvetica,sans-Serif" font-size="10.00">size_t</text>
</a>
</g>
</g>
<!-- Node3&#45;&gt;Node1 -->
<g id="edge2" class="edge">
<title>Node3&#45;&gt;Node1</title>
<path fill="none" stroke="#9a32cd" stroke-dasharray="5,2" d="M869.63,-222.97C914.77,-223.52 999.67,-220.82 1067,-196.88 1097.53,-186.02 1128.15,-162.7 1143.97,-149.5"/>
<polygon fill="#9a32cd" stroke="#9a32cd" points="869.63,-219.47 859.57,-222.78 869.5,-226.46 869.63,-219.47"/>
<text text-anchor="middle" x="1003" y="-255.88" font-family="Helvetica,sans-Serif" font-size="10.00"> clusterResolution_</text>
<text text-anchor="start" x="956" y="-244.88" font-family="Helvetica,sans-Serif" font-size="10.00">interpolationPoints</text>
<text text-anchor="middle" x="1003" y="-233.88" font-family="Helvetica,sans-Serif" font-size="10.00">_</text>
<text text-anchor="middle" x="1003" y="-222.88" font-family="Helvetica,sans-Serif" font-size="10.00">quadraturePoints_</text>
</g>
<!-- Node4 -->
<g id="node4" class="node">
<title>Node4</title>
<g id="a_node4"><a xlink:title=" ">
<polygon fill="white" stroke="black" points="819.5,-174.38 819.5,-193.38 854.5,-193.38 854.5,-174.38 819.5,-174.38"/>
<text text-anchor="middle" x="837" y="-181.38" font-family="Helvetica,sans-Serif" font-size="10.00">real</text>
</a>
</g>
</g>
<!-- Node4&#45;&gt;Node1 -->
<g id="edge3" class="edge">
<title>Node4&#45;&gt;Node1</title>
<path fill="none" stroke="#9a32cd" stroke-dasharray="5,2" d="M864.86,-180.85C907.69,-175.95 994.07,-165.7 1067,-154.88 1078.04,-153.24 1089.83,-151.33 1101.07,-149.44"/>
<polygon fill="#9a32cd" stroke="#9a32cd" points="864.24,-177.4 854.7,-182.01 865.03,-184.36 864.24,-177.4"/>
<text text-anchor="middle" x="1003" y="-184.88" font-family="Helvetica,sans-Serif" font-size="10.00"> epsKrylov_</text>
<text text-anchor="middle" x="1003" y="-173.88" font-family="Helvetica,sans-Serif" font-size="10.00">eps_</text>
</g>
<!-- Node5 -->
<g id="node5" class="node">
<title>Node5</title>
<g id="a_node5"><a xlink:href="struct_main_namespace_1_1_admissibility_parameters.html" target="_top" xlink:title=" ">
<polygon fill="white" stroke="black" points="753,-124.88 753,-154.88 921,-154.88 921,-124.88 753,-124.88"/>
<text text-anchor="start" x="761" y="-142.88" font-family="Helvetica,sans-Serif" font-size="10.00">MainNamespace::Admissibility</text>
<text text-anchor="middle" x="837" y="-131.88" font-family="Helvetica,sans-Serif" font-size="10.00">Parameters</text>
</a>
</g>
</g>
<!-- Node5&#45;&gt;Node1 -->
<g id="edge4" class="edge">
<title>Node5&#45;&gt;Node1</title>
<path fill="none" stroke="#9a32cd" stroke-dasharray="5,2" d="M931.29,-139.88C980.42,-139.88 1039.68,-139.88 1084.87,-139.88"/>
<polygon fill="#9a32cd" stroke="#9a32cd" points="931.29,-136.38 921.29,-139.88 931.29,-143.38 931.29,-136.38"/>
<text text-anchor="middle" x="1003" y="-142.88" font-family="Helvetica,sans-Serif" font-size="10.00"> admissibilityParameters_</text>
</g>
<!-- Node6 -->
<g id="node6" class="node">
<title>Node6</title>
<g id="a_node6"><a xlink:title=" ">
<polygon fill="white" stroke="black" points="550,-157.38 550,-176.38 600,-176.38 600,-157.38 550,-157.38"/>
<text text-anchor="middle" x="575" y="-164.38" font-family="Helvetica,sans-Serif" font-size="10.00">double</text>
</a>
</g>
</g>
<!-- Node6&#45;&gt;Node5 -->
<g id="edge5" class="edge">
<title>Node6&#45;&gt;Node5</title>
<path fill="none" stroke="#9a32cd" stroke-dasharray="5,2" d="M610.48,-163.3C646.59,-159.55 704.64,-153.52 752.79,-148.52"/>
<polygon fill="#9a32cd" stroke="#9a32cd" points="610.05,-159.82 600.46,-164.34 610.77,-166.78 610.05,-159.82"/>
<text text-anchor="middle" x="700.5" y="-181.88" font-family="Helvetica,sans-Serif" font-size="10.00"> eta1</text>
<text text-anchor="middle" x="700.5" y="-170.88" font-family="Helvetica,sans-Serif" font-size="10.00">eta2</text>
<text text-anchor="middle" x="700.5" y="-159.88" font-family="Helvetica,sans-Serif" font-size="10.00">eta3</text>
</g>
<!-- Node7 -->
<g id="node7" class="node">
<title>Node7</title>
<g id="a_node7"><a xlink:title=" ">
<polygon fill="white" stroke="black" points="556,-119.38 556,-138.38 594,-138.38 594,-119.38 556,-119.38"/>
<text text-anchor="middle" x="575" y="-126.38" font-family="Helvetica,sans-Serif" font-size="10.00">field</text>
</a>
</g>
</g>
<!-- Node7&#45;&gt;Node5 -->
<g id="edge6" class="edge">
<title>Node7&#45;&gt;Node5</title>
<path fill="none" stroke="#9a32cd" stroke-dasharray="5,2" d="M604.45,-129.53C636.27,-130.32 689.34,-131.8 735,-133.88 740.79,-134.14 746.77,-134.43 752.78,-134.75"/>
<polygon fill="#9a32cd" stroke="#9a32cd" points="604.21,-126.02 594.13,-129.28 604.04,-133.02 604.21,-126.02"/>
<text text-anchor="middle" x="700.5" y="-136.88" font-family="Helvetica,sans-Serif" font-size="10.00"> waveNumber</text>
</g>
<!-- Node8 -->
<g id="node8" class="node">
<title>Node8</title>
<g id="a_node8"><a xlink:title=" ">
<polygon fill="white" stroke="black" points="805,-86.38 805,-105.38 869,-105.38 869,-86.38 805,-86.38"/>
<text text-anchor="middle" x="837" y="-93.38" font-family="Helvetica,sans-Serif" font-size="10.00">reporter *</text>
</a>
</g>
</g>
<!-- Node8&#45;&gt;Node1 -->
<g id="edge7" class="edge">
<title>Node8&#45;&gt;Node1</title>
<path fill="none" stroke="#9a32cd" stroke-dasharray="5,2" d="M879.33,-100.57C925.24,-105.91 1001.54,-115.16 1067,-124.88 1078.04,-126.51 1089.83,-128.42 1101.07,-130.31"/>
<polygon fill="#9a32cd" stroke="#9a32cd" points="879.51,-97.07 869.17,-99.39 878.7,-104.02 879.51,-97.07"/>
<text text-anchor="middle" x="1003" y="-127.88" font-family="Helvetica,sans-Serif" font-size="10.00"> progressBar_</text>
</g>
<!-- Node9 -->
<g id="node9" class="node">
<title>Node9</title>
<g id="a_node9"><a xlink:title=" ">
<polygon fill="white" stroke="black" points="542.5,-10.38 542.5,-29.38 607.5,-29.38 607.5,-10.38 542.5,-10.38"/>
<text text-anchor="middle" x="575" y="-17.38" font-family="Helvetica,sans-Serif" font-size="10.00">std::string</text>
</a>
</g>
</g>
<!-- Node9&#45;&gt;Node1 -->
<g id="edge8" class="edge">
<title>Node9&#45;&gt;Node1</title>
<path fill="none" stroke="#9a32cd" stroke-dasharray="5,2" d="M617.57,-12.57C706.56,0.88 919.4,21.1 1067,-61.88 1100.46,-80.68 1132.23,-113.93 1146.75,-130.27"/>
<polygon fill="#9a32cd" stroke="#9a32cd" points="616.93,-9.12 607.59,-14.13 618.01,-16.04 616.93,-9.12"/>
<text text-anchor="middle" x="837" y="-26.88" font-family="Helvetica,sans-Serif" font-size="10.00"> meshFile_</text>
<text text-anchor="middle" x="837" y="-15.88" font-family="Helvetica,sans-Serif" font-size="10.00">outputDirectory_</text>
</g>
<!-- Node11 -->
<g id="node11" class="node">
<title>Node11</title>
<g id="a_node11"><a xlink:href="class_main_namespace_1_1_clocks.html" target="_top" xlink:title=" ">
<polygon fill="white" stroke="black" points="768.5,-48.38 768.5,-67.38 905.5,-67.38 905.5,-48.38 768.5,-48.38"/>
<text text-anchor="middle" x="837" y="-55.38" font-family="Helvetica,sans-Serif" font-size="10.00">MainNamespace::Clocks</text>
</a>
</g>
</g>
<!-- Node9&#45;&gt;Node11 -->
<g id="edge16" class="edge">
<title>Node9&#45;&gt;Node11</title>
<path fill="none" stroke="#9a32cd" stroke-dasharray="5,2" d="M617.61,-25.96C658.89,-31.99 722.77,-41.33 770.8,-48.35"/>
<polygon fill="#9a32cd" stroke="#9a32cd" points="618.02,-22.48 607.62,-24.5 617.01,-29.41 618.02,-22.48"/>
<text text-anchor="middle" x="700.5" y="-45.88" font-family="Helvetica,sans-Serif" font-size="10.00"> format_</text>
</g>
<!-- Node10 -->
<g id="node10" class="node">
<title>Node10</title>
<g id="a_node10"><a xlink:title=" ">
<polygon fill="white" stroke="black" points="162,-4.88 162,-34.88 266,-34.88 266,-4.88 162,-4.88"/>
<text text-anchor="start" x="170" y="-22.88" font-family="Helvetica,sans-Serif" font-size="10.00">std::basic_string&lt;</text>
<text text-anchor="middle" x="214" y="-11.88" font-family="Helvetica,sans-Serif" font-size="10.00"> Char &gt;</text>
</a>
</g>
</g>
<!-- Node10&#45;&gt;Node9 -->
<g id="edge9" class="edge">
<title>Node10&#45;&gt;Node9</title>
<path fill="none" stroke="midnightblue" d="M276.1,-19.88C353.13,-19.88 482.67,-19.88 542.26,-19.88"/>
<polygon fill="midnightblue" stroke="midnightblue" points="276.05,-16.38 266.05,-19.88 276.05,-23.38 276.05,-16.38"/>
</g>
<!-- Node11&#45;&gt;Node1 -->
<g id="edge10" class="edge">
<title>Node11&#45;&gt;Node1</title>
<path fill="none" stroke="#9a32cd" stroke-dasharray="5,2" d="M915.55,-63.16C960.64,-67.84 1018.04,-76.59 1067,-92.88 1094.61,-102.06 1123.88,-119.43 1140.74,-130.29"/>
<polygon fill="#9a32cd" stroke="#9a32cd" points="915.84,-59.67 905.54,-62.16 915.15,-66.63 915.84,-59.67"/>
<text text-anchor="middle" x="1003" y="-95.88" font-family="Helvetica,sans-Serif" font-size="10.00"> timer_</text>
</g>
<!-- Node12 -->
<g id="node12" class="node">
<title>Node12</title>
<g id="a_node12"><a xlink:title=" ">
<polygon fill="white" stroke="black" points="502,-59.88 502,-89.88 648,-89.88 648,-59.88 502,-59.88"/>
<text text-anchor="start" x="510" y="-77.88" font-family="Helvetica,sans-Serif" font-size="10.00">std::list&lt; MainNamespace</text>
<text text-anchor="middle" x="575" y="-66.88" font-family="Helvetica,sans-Serif" font-size="10.00">::BaseTimer * &gt;</text>
</a>
</g>
</g>
<!-- Node12&#45;&gt;Node11 -->
<g id="edge11" class="edge">
<title>Node12&#45;&gt;Node11</title>
<path fill="none" stroke="#9a32cd" stroke-dasharray="5,2" d="M658.39,-69.49C693.79,-67.17 734.65,-64.5 768.25,-62.31"/>
<polygon fill="#9a32cd" stroke="#9a32cd" points="657.83,-66.02 648.08,-70.16 658.29,-73 657.83,-66.02"/>
<text text-anchor="middle" x="700.5" y="-71.88" font-family="Helvetica,sans-Serif" font-size="10.00"> timers_</text>
</g>
<!-- Node13 -->
<g id="node13" class="node">
<title>Node13</title>
<g id="a_node13"><a xlink:href="class_main_namespace_1_1_base_timer.html" target="_top" xlink:title=" ">
<polygon fill="white" stroke="black" points="136,-92.38 136,-111.38 292,-111.38 292,-92.38 136,-92.38"/>
<text text-anchor="middle" x="214" y="-99.38" font-family="Helvetica,sans-Serif" font-size="10.00">MainNamespace::BaseTimer</text>
</a>
</g>
</g>
<!-- Node13&#45;&gt;Node12 -->
<g id="edge12" class="edge">
<title>Node13&#45;&gt;Node12</title>
<path fill="none" stroke="#9a32cd" stroke-dasharray="5,2" d="M302.04,-95.33C363.21,-90.73 444.08,-84.65 501.7,-80.31"/>
<polygon fill="#9a32cd" stroke="#9a32cd" points="301.72,-91.84 292.01,-96.08 302.25,-98.82 301.72,-91.84"/>
<text text-anchor="middle" x="397" y="-96.88" font-family="Helvetica,sans-Serif" font-size="10.00"> elements</text>
</g>
<!-- Node14 -->
<g id="node14" class="node">
<title>Node14</title>
<g id="a_node14"><a xlink:title=" ">
<polygon fill="white" stroke="black" points="0,-92.38 0,-111.38 51,-111.38 51,-92.38 0,-92.38"/>
<text text-anchor="middle" x="25.5" y="-99.38" font-family="Helvetica,sans-Serif" font-size="10.00">clock_t</text>
</a>
</g>
</g>
<!-- Node14&#45;&gt;Node13 -->
<g id="edge13" class="edge">
<title>Node14&#45;&gt;Node13</title>
<path fill="none" stroke="#9a32cd" stroke-dasharray="5,2" d="M61.28,-101.88C82.22,-101.88 109.76,-101.88 135.63,-101.88"/>
<polygon fill="#9a32cd" stroke="#9a32cd" points="61.27,-98.38 51.27,-101.88 61.27,-105.38 61.27,-98.38"/>
<text text-anchor="middle" x="93.5" y="-104.88" font-family="Helvetica,sans-Serif" font-size="10.00"> total_</text>
</g>
<!-- Node15 -->
<g id="node15" class="node">
<title>Node15</title>
<g id="a_node15"><a xlink:title=" ">
<polygon fill="white" stroke="black" points="173.5,-54.38 173.5,-73.38 254.5,-73.38 254.5,-54.38 173.5,-54.38"/>
<text text-anchor="middle" x="214" y="-61.38" font-family="Helvetica,sans-Serif" font-size="10.00">std::list&lt; T &gt;</text>
</a>
</g>
</g>
<!-- Node15&#45;&gt;Node12 -->
<g id="edge14" class="edge">
<title>Node15&#45;&gt;Node12</title>
<path fill="none" stroke="orange" stroke-dasharray="5,2" d="M265.01,-63.68C319.05,-63.69 407.67,-64.34 484,-67.88 489.79,-68.14 495.79,-68.48 501.81,-68.86"/>
<polygon fill="orange" stroke="orange" points="264.68,-60.18 254.68,-63.69 264.68,-67.18 264.68,-60.18"/>
<text text-anchor="middle" x="397" y="-70.88" font-family="Helvetica,sans-Serif" font-size="10.00"> &lt; MainNamespace::BaseTimer * &gt;</text>
</g>
<!-- Node16 -->
<g id="node16" class="node">
<title>Node16</title>
<g id="a_node16"><a xlink:title=" ">
<polygon fill="white" stroke="black" points="11,-54.38 11,-73.38 40,-73.38 40,-54.38 11,-54.38"/>
<text text-anchor="middle" x="25.5" y="-61.38" font-family="Helvetica,sans-Serif" font-size="10.00">T</text>
</a>
</g>
</g>
<!-- Node16&#45;&gt;Node15 -->
<g id="edge15" class="edge">
<title>Node16&#45;&gt;Node15</title>
<path fill="none" stroke="#9a32cd" stroke-dasharray="5,2" d="M50.5,-63.88C81.51,-63.88 135.92,-63.88 173.17,-63.88"/>
<polygon fill="#9a32cd" stroke="#9a32cd" points="50.21,-60.38 40.21,-63.88 50.21,-67.38 50.21,-60.38"/>
<text text-anchor="middle" x="93.5" y="-66.88" font-family="Helvetica,sans-Serif" font-size="10.00"> elements</text>
</g>
</g>
</svg>
