<?xml version="1.0" encoding="UTF-8" standalone="no"?>
<!DOCTYPE svg PUBLIC "-//W3C//DTD SVG 1.1//EN"
 "http://www.w3.org/Graphics/SVG/1.1/DTD/svg11.dtd">
<!-- Generated by graphviz version 2.43.0 (0)
 -->
<!-- Title: MainNamespace::Options::interpolationPoints Pages: 1 -->
<svg width="920pt" height="186pt"
 viewBox="0.00 0.00 920.00 186.00" xmlns="http://www.w3.org/2000/svg" xmlns:xlink="http://www.w3.org/1999/xlink">
<g id="graph0" class="graph" transform="scale(1 1) rotate(0) translate(4 182)">
<title>MainNamespace::Options::interpolationPoints</title>
<polygon fill="white" stroke="transparent" points="-4,4 -4,-182 916,-182 916,4 -4,4"/>
<!-- Node1 -->
<g id="node1" class="node">
<title>Node1</title>
<g id="a_node1"><a xlink:title=" ">
<polygon fill="#bfbfbf" stroke="black" points="770,-73.5 770,-103.5 912,-103.5 912,-73.5 770,-73.5"/>
<text text-anchor="start" x="778" y="-91.5" font-family="Helvetica,sans-Serif" font-size="10.00">MainNamespace::Options</text>
<text text-anchor="middle" x="841" y="-80.5" font-family="Helvetica,sans-Serif" font-size="10.00">::interpolationPoints</text>
</a>
</g>
</g>
<!-- Node2 -->
<g id="node2" class="node">
<title>Node2</title>
<g id="a_node2"><a xlink:href="struct_main_namespace_1_1_options.html#a498b9918f2fdb3776667e57dc368a5d3" target="_top" xlink:title="Called by the constructor by default.">
<polygon fill="white" stroke="black" points="579.5,-134.5 579.5,-164.5 721.5,-164.5 721.5,-134.5 579.5,-134.5"/>
<text text-anchor="start" x="587.5" y="-152.5" font-family="Helvetica,sans-Serif" font-size="10.00">MainNamespace::Options</text>
<text text-anchor="middle" x="650.5" y="-141.5" font-family="Helvetica,sans-Serif" font-size="10.00">::fillDefaults</text>
</a>
</g>
</g>
<!-- Node1&#45;&gt;Node2 -->
<g id="edge1" class="edge">
<title>Node1&#45;&gt;Node2</title>
<path fill="none" stroke="midnightblue" d="M783.58,-106.76C756.23,-115.61 723.78,-126.11 697.89,-134.49"/>
<polygon fill="midnightblue" stroke="midnightblue" points="784.97,-109.99 793.4,-103.58 782.81,-103.33 784.97,-109.99"/>
</g>
<!-- Node4 -->
<g id="node4" class="node">
<title>Node4</title>
<g id="a_node4"><a xlink:href="namespace_main_namespace.html#a532a4d5934d8db064f36b2c1de35adc6" target="_top" xlink:title=" ">
<polygon fill="white" stroke="black" points="567,-73.5 567,-103.5 734,-103.5 734,-73.5 567,-73.5"/>
<text text-anchor="start" x="575" y="-91.5" font-family="Helvetica,sans-Serif" font-size="10.00">MainNamespace::interpolation</text>
<text text-anchor="middle" x="650.5" y="-80.5" font-family="Helvetica,sans-Serif" font-size="10.00">Points</text>
</a>
</g>
</g>
<!-- Node1&#45;&gt;Node4 -->
<g id="edge3" class="edge">
<title>Node1&#45;&gt;Node4</title>
<path fill="none" stroke="midnightblue" d="M759.62,-88.5C751.19,-88.5 742.61,-88.5 734.16,-88.5"/>
<polygon fill="midnightblue" stroke="midnightblue" points="759.81,-92 769.81,-88.5 759.81,-85 759.81,-92"/>
</g>
<!-- Node11 -->
<g id="node11" class="node">
<title>Node11</title>
<g id="a_node11"><a xlink:href="struct_main_namespace_1_1_options.html#aa39cebc776022a90a749440f2fc9530b" target="_top" xlink:title=" ">
<polygon fill="white" stroke="black" points="579.5,-24.5 579.5,-54.5 721.5,-54.5 721.5,-24.5 579.5,-24.5"/>
<text text-anchor="start" x="587.5" y="-42.5" font-family="Helvetica,sans-Serif" font-size="10.00">MainNamespace::Options</text>
<text text-anchor="middle" x="650.5" y="-31.5" font-family="Helvetica,sans-Serif" font-size="10.00">::interpolationPoints</text>
</a>
</g>
</g>
<!-- Node1&#45;&gt;Node11 -->
<g id="edge11" class="edge">
<title>Node1&#45;&gt;Node11</title>
<path fill="none" stroke="midnightblue" d="M772.21,-70.88C751.58,-65.52 729.12,-59.68 709.23,-54.51"/>
<polygon fill="midnightblue" stroke="midnightblue" points="771.6,-74.34 782.16,-73.47 773.36,-67.56 771.6,-74.34"/>
</g>
<!-- Node3 -->
<g id="node3" class="node">
<title>Node3</title>
<g id="a_node3"><a xlink:href="struct_main_namespace_1_1_options.html#a4db6a2fafb09fb140ca8dd77786dce3c" target="_top" xlink:title=" ">
<polygon fill="white" stroke="black" points="377.5,-147.5 377.5,-177.5 519.5,-177.5 519.5,-147.5 377.5,-147.5"/>
<text text-anchor="start" x="385.5" y="-165.5" font-family="Helvetica,sans-Serif" font-size="10.00">MainNamespace::Options</text>
<text text-anchor="middle" x="448.5" y="-154.5" font-family="Helvetica,sans-Serif" font-size="10.00">::Options</text>
</a>
</g>
</g>
<!-- Node2&#45;&gt;Node3 -->
<g id="edge2" class="edge">
<title>Node2&#45;&gt;Node3</title>
<path fill="none" stroke="midnightblue" d="M569.16,-154.72C552.74,-155.79 535.59,-156.9 519.56,-157.95"/>
<polygon fill="midnightblue" stroke="midnightblue" points="569.52,-158.21 579.27,-154.07 569.06,-151.22 569.52,-158.21"/>
</g>
<!-- Node5 -->
<g id="node5" class="node">
<title>Node5</title>
<g id="a_node5"><a xlink:href="class_main_namespace_1_1_surface_1_1_multi_surface.html#a3f8d56c9aa2c53fdbb578f534bd523e5" target="_top" xlink:title="Contructor. Parse a mesh file in gmsh format and build the global mesh.">
<polygon fill="white" stroke="black" points="372.5,-98.5 372.5,-128.5 524.5,-128.5 524.5,-98.5 372.5,-98.5"/>
<text text-anchor="start" x="380.5" y="-116.5" font-family="Helvetica,sans-Serif" font-size="10.00">MainNamespace::Surface</text>
<text text-anchor="middle" x="448.5" y="-105.5" font-family="Helvetica,sans-Serif" font-size="10.00">::MultiSurface::MultiSurface</text>
</a>
</g>
</g>
<!-- Node4&#45;&gt;Node5 -->
<g id="edge4" class="edge">
<title>Node4&#45;&gt;Node5</title>
<path fill="none" stroke="midnightblue" d="M556.77,-100.09C546.04,-101.43 535.21,-102.79 524.76,-104.09"/>
<polygon fill="midnightblue" stroke="midnightblue" points="557.51,-103.53 567,-98.81 556.64,-96.58 557.51,-103.53"/>
</g>
<!-- Node6 -->
<g id="node6" class="node">
<title>Node6</title>
<g id="a_node6"><a xlink:href="class_main_namespace_1_1_surface_1_1_single_surface.html#a653f26daef216ab74bac87d618603c7f" target="_top" xlink:title="Build the operators.">
<polygon fill="white" stroke="black" points="367.5,-49.5 367.5,-79.5 529.5,-79.5 529.5,-49.5 367.5,-49.5"/>
<text text-anchor="start" x="375.5" y="-67.5" font-family="Helvetica,sans-Serif" font-size="10.00">MainNamespace::Surface</text>
<text text-anchor="middle" x="448.5" y="-56.5" font-family="Helvetica,sans-Serif" font-size="10.00">::SingleSurface::buildOperator</text>
</a>
</g>
</g>
<!-- Node4&#45;&gt;Node6 -->
<g id="edge5" class="edge">
<title>Node4&#45;&gt;Node6</title>
<path fill="none" stroke="midnightblue" d="M556.78,-77.37C547.69,-76.28 538.51,-75.18 529.56,-74.11"/>
<polygon fill="midnightblue" stroke="midnightblue" points="556.65,-80.88 567,-78.6 557.49,-73.93 556.65,-80.88"/>
</g>
<!-- Node10 -->
<g id="node10" class="node">
<title>Node10</title>
<g id="a_node10"><a xlink:href="class_main_namespace_1_1_surface_1_1_single_surface.html#a3321422c36eccd213cfc48823a9f54d7" target="_top" xlink:title="Project the offset on the current mesh, then use it to compute the right&#45;hand side.">
<polygon fill="white" stroke="black" points="366,-0.5 366,-30.5 531,-30.5 531,-0.5 366,-0.5"/>
<text text-anchor="start" x="374" y="-18.5" font-family="Helvetica,sans-Serif" font-size="10.00">MainNamespace::Surface</text>
<text text-anchor="middle" x="448.5" y="-7.5" font-family="Helvetica,sans-Serif" font-size="10.00">::SingleSurface::makeMultiRhs</text>
</a>
</g>
</g>
<!-- Node4&#45;&gt;Node10 -->
<g id="edge9" class="edge">
<title>Node4&#45;&gt;Node10</title>
<path fill="none" stroke="midnightblue" d="M580.25,-70.07C575.71,-68.34 571.26,-66.48 567,-64.5 549.57,-56.39 548.37,-48.74 531,-40.5 523.24,-36.82 514.82,-33.53 506.43,-30.63"/>
<polygon fill="midnightblue" stroke="midnightblue" points="579.07,-73.36 589.67,-73.45 581.44,-66.78 579.07,-73.36"/>
</g>
<!-- Node7 -->
<g id="node7" class="node">
<title>Node7</title>
<g id="a_node7"><a xlink:href="class_main_namespace_1_1_surface_1_1_multi_surface.html#a8839f7e49575079e39fbb95a692772a5" target="_top" xlink:title="Compute the right&#45;hand side, the operators, then solve the linear system.">
<polygon fill="white" stroke="black" points="189,-24.5 189,-54.5 330,-54.5 330,-24.5 189,-24.5"/>
<text text-anchor="start" x="197" y="-42.5" font-family="Helvetica,sans-Serif" font-size="10.00">MainNamespace::Surface</text>
<text text-anchor="middle" x="259.5" y="-31.5" font-family="Helvetica,sans-Serif" font-size="10.00">::MultiSurface::solve</text>
</a>
</g>
</g>
<!-- Node6&#45;&gt;Node7 -->
<g id="edge6" class="edge">
<title>Node6&#45;&gt;Node7</title>
<path fill="none" stroke="midnightblue" d="M357.46,-52.46C348.28,-51.23 339.05,-50 330.14,-48.81"/>
<polygon fill="midnightblue" stroke="midnightblue" points="357.01,-55.93 367.38,-53.79 357.93,-48.99 357.01,-55.93"/>
</g>
<!-- Node8 -->
<g id="node8" class="node">
<title>Node8</title>
<g id="a_node8"><a xlink:href="main_8cpp.html#a5d68713f22d1b3e2495b15d107ea7d21" target="_top" xlink:title=" ">
<polygon fill="white" stroke="black" points="77,-30 77,-49 153,-49 153,-30 77,-30"/>
<text text-anchor="middle" x="115" y="-37" font-family="Helvetica,sans-Serif" font-size="10.00">testProblem</text>
</a>
</g>
</g>
<!-- Node7&#45;&gt;Node8 -->
<g id="edge7" class="edge">
<title>Node7&#45;&gt;Node8</title>
<path fill="none" stroke="midnightblue" d="M178.85,-39.5C169.97,-39.5 161.27,-39.5 153.31,-39.5"/>
<polygon fill="midnightblue" stroke="midnightblue" points="178.92,-43 188.92,-39.5 178.92,-36 178.92,-43"/>
</g>
<!-- Node9 -->
<g id="node9" class="node">
<title>Node9</title>
<g id="a_node9"><a xlink:href="main_8cpp.html#a3c04138a5bfe5d72780bb7e82a18e627" target="_top" xlink:title=" ">
<polygon fill="white" stroke="black" points="0,-30 0,-49 41,-49 41,-30 0,-30"/>
<text text-anchor="middle" x="20.5" y="-37" font-family="Helvetica,sans-Serif" font-size="10.00">main</text>
</a>
</g>
</g>
<!-- Node8&#45;&gt;Node9 -->
<g id="edge8" class="edge">
<title>Node8&#45;&gt;Node9</title>
<path fill="none" stroke="midnightblue" d="M66.72,-39.5C57.65,-39.5 48.64,-39.5 41.07,-39.5"/>
<polygon fill="midnightblue" stroke="midnightblue" points="66.91,-43 76.91,-39.5 66.91,-36 66.91,-43"/>
</g>
<!-- Node10&#45;&gt;Node7 -->
<g id="edge10" class="edge">
<title>Node10&#45;&gt;Node7</title>
<path fill="none" stroke="midnightblue" d="M355.67,-27.29C347.07,-28.39 338.44,-29.5 330.09,-30.57"/>
<polygon fill="midnightblue" stroke="midnightblue" points="356.28,-30.74 365.75,-25.99 355.39,-23.79 356.28,-30.74"/>
</g>
</g>
</svg>
