<?xml version="1.0" encoding="UTF-8" standalone="no"?>
<!DOCTYPE svg PUBLIC "-//W3C//DTD SVG 1.1//EN"
 "http://www.w3.org/Graphics/SVG/1.1/DTD/svg11.dtd">
<!-- Generated by graphviz version 2.43.0 (0)
 -->
<!-- Title: MainNamespace::Options::saveSolution Pages: 1 -->
<svg width="554pt" height="83pt"
 viewBox="0.00 0.00 554.00 83.00" xmlns="http://www.w3.org/2000/svg" xmlns:xlink="http://www.w3.org/1999/xlink">
<g id="graph0" class="graph" transform="scale(1 1) rotate(0) translate(4 79)">
<title>MainNamespace::Options::saveSolution</title>
<polygon fill="white" stroke="transparent" points="-4,4 -4,-79 550,-79 550,4 -4,4"/>
<!-- Node1 -->
<g id="node1" class="node">
<title>Node1</title>
<g id="a_node1"><a xlink:title=" ">
<polygon fill="#bfbfbf" stroke="black" points="404,-22.5 404,-52.5 546,-52.5 546,-22.5 404,-22.5"/>
<text text-anchor="start" x="412" y="-40.5" font-family="Helvetica,sans-Serif" font-size="10.00">MainNamespace::Options</text>
<text text-anchor="middle" x="475" y="-29.5" font-family="Helvetica,sans-Serif" font-size="10.00">::saveSolution</text>
</a>
</g>
</g>
<!-- Node2 -->
<g id="node2" class="node">
<title>Node2</title>
<g id="a_node2"><a xlink:href="namespace_main_namespace.html#ab5930d6a057edb1d01cb951c7a56c00c" target="_top" xlink:title=" ">
<polygon fill="white" stroke="black" points="201,-50 201,-69 368,-69 368,-50 201,-50"/>
<text text-anchor="middle" x="284.5" y="-57" font-family="Helvetica,sans-Serif" font-size="10.00">MainNamespace::saveSolution</text>
</a>
</g>
</g>
<!-- Node1&#45;&gt;Node2 -->
<g id="edge1" class="edge">
<title>Node1&#45;&gt;Node2</title>
<path fill="none" stroke="midnightblue" d="M393.63,-46.88C384.88,-47.9 375.96,-48.94 367.19,-49.97"/>
<polygon fill="midnightblue" stroke="midnightblue" points="394.28,-50.33 403.81,-45.69 393.47,-43.37 394.28,-50.33"/>
</g>
<!-- Node4 -->
<g id="node4" class="node">
<title>Node4</title>
<g id="a_node4"><a xlink:href="struct_main_namespace_1_1_options.html#a1c86bdcff186da6f41ab93921ae02880" target="_top" xlink:title=" ">
<polygon fill="white" stroke="black" points="213.5,-0.5 213.5,-30.5 355.5,-30.5 355.5,-0.5 213.5,-0.5"/>
<text text-anchor="start" x="221.5" y="-18.5" font-family="Helvetica,sans-Serif" font-size="10.00">MainNamespace::Options</text>
<text text-anchor="middle" x="284.5" y="-7.5" font-family="Helvetica,sans-Serif" font-size="10.00">::saveSolution</text>
</a>
</g>
</g>
<!-- Node1&#45;&gt;Node4 -->
<g id="edge3" class="edge">
<title>Node1&#45;&gt;Node4</title>
<path fill="none" stroke="midnightblue" d="M393.76,-28.14C381.12,-26.66 368.14,-25.15 355.75,-23.7"/>
<polygon fill="midnightblue" stroke="midnightblue" points="393.47,-31.63 403.81,-29.31 394.28,-24.67 393.47,-31.63"/>
</g>
<!-- Node3 -->
<g id="node3" class="node">
<title>Node3</title>
<g id="a_node3"><a xlink:href="class_main_namespace_1_1_mesh_reader.html#ac9fe1c957a70a29b35b8118a83a3111c" target="_top" xlink:title=" ">
<polygon fill="white" stroke="black" points="0,-44.5 0,-74.5 165,-74.5 165,-44.5 0,-44.5"/>
<text text-anchor="start" x="8" y="-62.5" font-family="Helvetica,sans-Serif" font-size="10.00">MainNamespace::MeshReader</text>
<text text-anchor="middle" x="82.5" y="-51.5" font-family="Helvetica,sans-Serif" font-size="10.00">::MeshReader</text>
</a>
</g>
</g>
<!-- Node2&#45;&gt;Node3 -->
<g id="edge2" class="edge">
<title>Node2&#45;&gt;Node3</title>
<path fill="none" stroke="midnightblue" d="M190.95,-59.5C182.34,-59.5 173.66,-59.5 165.17,-59.5"/>
<polygon fill="midnightblue" stroke="midnightblue" points="191,-63 201,-59.5 191,-56 191,-63"/>
</g>
</g>
</svg>
