<?xml version="1.0" encoding="UTF-8" standalone="no"?>
<!DOCTYPE svg PUBLIC "-//W3C//DTD SVG 1.1//EN"
 "http://www.w3.org/Graphics/SVG/1.1/DTD/svg11.dtd">
<!-- Generated by graphviz version 2.43.0 (0)
 -->
<!-- Title: MainNamespace::AdmissibilityParameters Pages: 1 -->
<svg width="182pt" height="128pt"
 viewBox="0.00 0.00 182.00 128.00" xmlns="http://www.w3.org/2000/svg" xmlns:xlink="http://www.w3.org/1999/xlink">
<g id="graph0" class="graph" transform="scale(1 1) rotate(0) translate(4 124)">
<title>MainNamespace::AdmissibilityParameters</title>
<polygon fill="white" stroke="transparent" points="-4,4 -4,-124 178,-124 178,4 -4,4"/>
<!-- Node1 -->
<g id="node1" class="node">
<title>Node1</title>
<g id="a_node1"><a xlink:title=" ">
<polygon fill="#bfbfbf" stroke="black" points="0,-0.5 0,-30.5 168,-30.5 168,-0.5 0,-0.5"/>
<text text-anchor="start" x="8" y="-18.5" font-family="Helvetica,sans-Serif" font-size="10.00">MainNamespace::Admissibility</text>
<text text-anchor="middle" x="84" y="-7.5" font-family="Helvetica,sans-Serif" font-size="10.00">Parameters</text>
</a>
</g>
</g>
<!-- Node2 -->
<g id="node2" class="node">
<title>Node2</title>
<g id="a_node2"><a xlink:title=" ">
<polygon fill="white" stroke="black" points="28,-100.5 28,-119.5 78,-119.5 78,-100.5 28,-100.5"/>
<text text-anchor="middle" x="53" y="-107.5" font-family="Helvetica,sans-Serif" font-size="10.00">double</text>
</a>
</g>
</g>
<!-- Node2&#45;&gt;Node1 -->
<g id="edge1" class="edge">
<title>Node2&#45;&gt;Node1</title>
<path fill="none" stroke="#9a32cd" stroke-dasharray="5,2" d="M56.64,-90.14C59.21,-78.17 63.07,-62.45 68,-49 70.25,-42.86 73.31,-36.34 76.16,-30.77"/>
<polygon fill="#9a32cd" stroke="#9a32cd" points="53.14,-89.79 54.57,-100.28 60,-91.18 53.14,-89.79"/>
<text text-anchor="middle" x="80.5" y="-74" font-family="Helvetica,sans-Serif" font-size="10.00"> eta1</text>
<text text-anchor="middle" x="80.5" y="-63" font-family="Helvetica,sans-Serif" font-size="10.00">eta2</text>
<text text-anchor="middle" x="80.5" y="-52" font-family="Helvetica,sans-Serif" font-size="10.00">eta3</text>
</g>
<!-- Node3 -->
<g id="node3" class="node">
<title>Node3</title>
<g id="a_node3"><a xlink:title=" ">
<polygon fill="white" stroke="black" points="96,-100.5 96,-119.5 134,-119.5 134,-100.5 96,-100.5"/>
<text text-anchor="middle" x="115" y="-107.5" font-family="Helvetica,sans-Serif" font-size="10.00">field</text>
</a>
</g>
</g>
<!-- Node3&#45;&gt;Node1 -->
<g id="edge2" class="edge">
<title>Node3&#45;&gt;Node1</title>
<path fill="none" stroke="#9a32cd" stroke-dasharray="5,2" d="M108.9,-90.79C102.99,-73.17 94.16,-46.82 88.76,-30.7"/>
<polygon fill="#9a32cd" stroke="#9a32cd" points="105.64,-92.09 112.14,-100.46 112.28,-89.87 105.64,-92.09"/>
<text text-anchor="middle" x="139.5" y="-63" font-family="Helvetica,sans-Serif" font-size="10.00"> waveNumber</text>
</g>
</g>
</svg>
