<?xml version="1.0" encoding="UTF-8" standalone="no"?>
<!DOCTYPE svg PUBLIC "-//W3C//DTD SVG 1.1//EN"
 "http://www.w3.org/Graphics/SVG/1.1/DTD/svg11.dtd">
<!-- Generated by graphviz version 2.43.0 (0)
 -->
<!-- Title: MainNamespace::Options::saveOffset Pages: 1 -->
<svg width="545pt" height="83pt"
 viewBox="0.00 0.00 545.00 83.00" xmlns="http://www.w3.org/2000/svg" xmlns:xlink="http://www.w3.org/1999/xlink">
<g id="graph0" class="graph" transform="scale(1 1) rotate(0) translate(4 79)">
<title>MainNamespace::Options::saveOffset</title>
<polygon fill="white" stroke="transparent" points="-4,4 -4,-79 541,-79 541,4 -4,4"/>
<!-- Node1 -->
<g id="node1" class="node">
<title>Node1</title>
<g id="a_node1"><a xlink:title=" ">
<polygon fill="#bfbfbf" stroke="black" points="395,-22.5 395,-52.5 537,-52.5 537,-22.5 395,-22.5"/>
<text text-anchor="start" x="403" y="-40.5" font-family="Helvetica,sans-Serif" font-size="10.00">MainNamespace::Options</text>
<text text-anchor="middle" x="466" y="-29.5" font-family="Helvetica,sans-Serif" font-size="10.00">::saveOffset</text>
</a>
</g>
</g>
<!-- Node2 -->
<g id="node2" class="node">
<title>Node2</title>
<g id="a_node2"><a xlink:href="namespace_main_namespace.html#a6901e386a4b183d47269233b4daf35db" target="_top" xlink:title=" ">
<polygon fill="white" stroke="black" points="201,-50 201,-69 359,-69 359,-50 201,-50"/>
<text text-anchor="middle" x="280" y="-57" font-family="Helvetica,sans-Serif" font-size="10.00">MainNamespace::saveOffset</text>
</a>
</g>
</g>
<!-- Node1&#45;&gt;Node2 -->
<g id="edge1" class="edge">
<title>Node1&#45;&gt;Node2</title>
<path fill="none" stroke="midnightblue" d="M384.96,-47.07C376.41,-48.09 367.72,-49.13 359.19,-50.15"/>
<polygon fill="midnightblue" stroke="midnightblue" points="385.4,-50.54 394.91,-45.88 384.57,-43.59 385.4,-50.54"/>
</g>
<!-- Node4 -->
<g id="node4" class="node">
<title>Node4</title>
<g id="a_node4"><a xlink:href="struct_main_namespace_1_1_options.html#a6677c1cf03ff06c30e29208f886975c6" target="_top" xlink:title=" ">
<polygon fill="white" stroke="black" points="209,-0.5 209,-30.5 351,-30.5 351,-0.5 209,-0.5"/>
<text text-anchor="start" x="217" y="-18.5" font-family="Helvetica,sans-Serif" font-size="10.00">MainNamespace::Options</text>
<text text-anchor="middle" x="280" y="-7.5" font-family="Helvetica,sans-Serif" font-size="10.00">::saveOffset</text>
</a>
</g>
</g>
<!-- Node1&#45;&gt;Node4 -->
<g id="edge3" class="edge">
<title>Node1&#45;&gt;Node4</title>
<path fill="none" stroke="midnightblue" d="M384.74,-27.9C373.57,-26.57 362.16,-25.2 351.2,-23.89"/>
<polygon fill="midnightblue" stroke="midnightblue" points="384.57,-31.41 394.91,-29.12 385.4,-24.46 384.57,-31.41"/>
</g>
<!-- Node3 -->
<g id="node3" class="node">
<title>Node3</title>
<g id="a_node3"><a xlink:href="class_main_namespace_1_1_mesh_reader.html#ac9fe1c957a70a29b35b8118a83a3111c" target="_top" xlink:title=" ">
<polygon fill="white" stroke="black" points="0,-44.5 0,-74.5 165,-74.5 165,-44.5 0,-44.5"/>
<text text-anchor="start" x="8" y="-62.5" font-family="Helvetica,sans-Serif" font-size="10.00">MainNamespace::MeshReader</text>
<text text-anchor="middle" x="82.5" y="-51.5" font-family="Helvetica,sans-Serif" font-size="10.00">::MeshReader</text>
</a>
</g>
</g>
<!-- Node2&#45;&gt;Node3 -->
<g id="edge2" class="edge">
<title>Node2&#45;&gt;Node3</title>
<path fill="none" stroke="midnightblue" d="M190.85,-59.5C182.25,-59.5 173.54,-59.5 165.01,-59.5"/>
<polygon fill="midnightblue" stroke="midnightblue" points="190.89,-63 200.89,-59.5 190.89,-56 190.89,-63"/>
</g>
</g>
</svg>
