<?xml version="1.0" encoding="UTF-8" standalone="no"?>
<!DOCTYPE svg PUBLIC "-//W3C//DTD SVG 1.1//EN"
 "http://www.w3.org/Graphics/SVG/1.1/DTD/svg11.dtd">
<!-- Generated by graphviz version 2.43.0 (0)
 -->
<!-- Title: lyra::detail::BoundValueRef&lt; T &gt; Pages: 1 -->
<svg width="193pt" height="231pt"
 viewBox="0.00 0.00 192.50 231.00" xmlns="http://www.w3.org/2000/svg" xmlns:xlink="http://www.w3.org/1999/xlink">
<g id="graph0" class="graph" transform="scale(1 1) rotate(0) translate(4 227)">
<title>lyra::detail::BoundValueRef&lt; T &gt;</title>
<polygon fill="white" stroke="transparent" points="-4,4 -4,-227 188.5,-227 188.5,4 -4,4"/>
<!-- Node1 -->
<g id="node1" class="node">
<title>Node1</title>
<g id="a_node1"><a xlink:title=" ">
<polygon fill="#bfbfbf" stroke="black" points="3,-0.5 3,-30.5 137,-30.5 137,-0.5 3,-0.5"/>
<text text-anchor="start" x="11" y="-18.5" font-family="Helvetica,sans-Serif" font-size="10.00">lyra::detail::BoundValue</text>
<text text-anchor="middle" x="70" y="-7.5" font-family="Helvetica,sans-Serif" font-size="10.00">Ref&lt; T &gt;</text>
</a>
</g>
</g>
<!-- Node2 -->
<g id="node2" class="node">
<title>Node2</title>
<g id="a_node2"><a xlink:href="structlyra_1_1detail_1_1_bound_value_ref_base.html" target="_top" xlink:title=" ">
<polygon fill="white" stroke="black" points="3,-78.5 3,-108.5 137,-108.5 137,-78.5 3,-78.5"/>
<text text-anchor="start" x="11" y="-96.5" font-family="Helvetica,sans-Serif" font-size="10.00">lyra::detail::BoundValue</text>
<text text-anchor="middle" x="70" y="-85.5" font-family="Helvetica,sans-Serif" font-size="10.00">RefBase</text>
</a>
</g>
</g>
<!-- Node2&#45;&gt;Node1 -->
<g id="edge1" class="edge">
<title>Node2&#45;&gt;Node1</title>
<path fill="none" stroke="midnightblue" d="M63.65,-68.09C62.89,-55.76 63.21,-41.22 64.6,-30.73"/>
<polygon fill="midnightblue" stroke="midnightblue" points="60.18,-68.57 64.59,-78.2 67.15,-67.92 60.18,-68.57"/>
</g>
<!-- Node2&#45;&gt;Node1 -->
<g id="edge6" class="edge">
<title>Node2&#45;&gt;Node1</title>
<path fill="none" stroke="midnightblue" d="M76.35,-68.09C77.11,-55.76 76.79,-41.22 75.4,-30.73"/>
<polygon fill="midnightblue" stroke="midnightblue" points="72.85,-67.92 75.41,-78.2 79.82,-68.57 72.85,-67.92"/>
</g>
<!-- Node3 -->
<g id="node3" class="node">
<title>Node3</title>
<g id="a_node3"><a xlink:href="structlyra_1_1detail_1_1_bound_ref.html" target="_top" xlink:title=" ">
<polygon fill="white" stroke="black" points="9,-146.5 9,-165.5 131,-165.5 131,-146.5 9,-146.5"/>
<text text-anchor="middle" x="70" y="-153.5" font-family="Helvetica,sans-Serif" font-size="10.00">lyra::detail::BoundRef</text>
</a>
</g>
</g>
<!-- Node3&#45;&gt;Node2 -->
<g id="edge2" class="edge">
<title>Node3&#45;&gt;Node2</title>
<path fill="none" stroke="midnightblue" d="M63.7,-136.22C62.97,-127.36 63.13,-116.96 64.17,-108.76"/>
<polygon fill="midnightblue" stroke="midnightblue" points="60.26,-136.91 65.1,-146.33 67.2,-135.95 60.26,-136.91"/>
</g>
<!-- Node3&#45;&gt;Node2 -->
<g id="edge5" class="edge">
<title>Node3&#45;&gt;Node2</title>
<path fill="none" stroke="midnightblue" d="M76.3,-136.22C77.03,-127.36 76.87,-116.96 75.83,-108.76"/>
<polygon fill="midnightblue" stroke="midnightblue" points="72.8,-135.95 74.9,-146.33 79.74,-136.91 72.8,-135.95"/>
</g>
<!-- Node4 -->
<g id="node4" class="node">
<title>Node4</title>
<g id="a_node4"><a xlink:href="structlyra_1_1detail_1_1_non_copyable.html" target="_top" xlink:title=" ">
<polygon fill="white" stroke="black" points="0,-203.5 0,-222.5 140,-222.5 140,-203.5 0,-203.5"/>
<text text-anchor="middle" x="70" y="-210.5" font-family="Helvetica,sans-Serif" font-size="10.00">lyra::detail::NonCopyable</text>
</a>
</g>
</g>
<!-- Node4&#45;&gt;Node3 -->
<g id="edge3" class="edge">
<title>Node4&#45;&gt;Node3</title>
<path fill="none" stroke="midnightblue" d="M63.58,-193.42C62.87,-184.05 63.31,-173.14 64.91,-165.71"/>
<polygon fill="midnightblue" stroke="midnightblue" points="60.12,-193.97 64.94,-203.41 67.05,-193.03 60.12,-193.97"/>
</g>
<!-- Node4&#45;&gt;Node3 -->
<g id="edge4" class="edge">
<title>Node4&#45;&gt;Node3</title>
<path fill="none" stroke="midnightblue" d="M76.42,-193.42C77.13,-184.05 76.69,-173.14 75.09,-165.71"/>
<polygon fill="midnightblue" stroke="midnightblue" points="72.95,-193.03 75.06,-203.41 79.88,-193.97 72.95,-193.03"/>
</g>
<!-- Node5 -->
<g id="node5" class="node">
<title>Node5</title>
<g id="a_node5"><a xlink:title=" ">
<polygon fill="white" stroke="black" points="155.5,-84 155.5,-103 184.5,-103 184.5,-84 155.5,-84"/>
<text text-anchor="middle" x="170" y="-91" font-family="Helvetica,sans-Serif" font-size="10.00">T</text>
</a>
</g>
</g>
<!-- Node5&#45;&gt;Node1 -->
<g id="edge7" class="edge">
<title>Node5&#45;&gt;Node1</title>
<path fill="none" stroke="#9a32cd" stroke-dasharray="5,2" d="M150.47,-77.65C132.5,-64 106.06,-43.9 88.45,-30.52"/>
<polygon fill="#9a32cd" stroke="#9a32cd" points="148.45,-80.52 158.53,-83.78 152.68,-74.94 148.45,-80.52"/>
<text text-anchor="middle" x="142" y="-52" font-family="Helvetica,sans-Serif" font-size="10.00"> m_ref</text>
</g>
</g>
</svg>
