<?xml version="1.0" encoding="UTF-8" standalone="no"?>
<!DOCTYPE svg PUBLIC "-//W3C//DTD SVG 1.1//EN"
 "http://www.w3.org/Graphics/SVG/1.1/DTD/svg11.dtd">
<!-- Generated by graphviz version 2.43.0 (0)
 -->
<!-- Title: MainNamespace::Options::saveRhs Pages: 1 -->
<svg width="533pt" height="83pt"
 viewBox="0.00 0.00 533.00 83.00" xmlns="http://www.w3.org/2000/svg" xmlns:xlink="http://www.w3.org/1999/xlink">
<g id="graph0" class="graph" transform="scale(1 1) rotate(0) translate(4 79)">
<title>MainNamespace::Options::saveRhs</title>
<polygon fill="white" stroke="transparent" points="-4,4 -4,-79 529,-79 529,4 -4,4"/>
<!-- Node1 -->
<g id="node1" class="node">
<title>Node1</title>
<g id="a_node1"><a xlink:title=" ">
<polygon fill="#bfbfbf" stroke="black" points="383,-22.5 383,-52.5 525,-52.5 525,-22.5 383,-22.5"/>
<text text-anchor="start" x="391" y="-40.5" font-family="Helvetica,sans-Serif" font-size="10.00">MainNamespace::Options</text>
<text text-anchor="middle" x="454" y="-29.5" font-family="Helvetica,sans-Serif" font-size="10.00">::saveRhs</text>
</a>
</g>
</g>
<!-- Node2 -->
<g id="node2" class="node">
<title>Node2</title>
<g id="a_node2"><a xlink:href="namespace_main_namespace.html#ae223b3ed418e7eb9a6765804c9190e32" target="_top" xlink:title=" ">
<polygon fill="white" stroke="black" points="201,-50 201,-69 347,-69 347,-50 201,-50"/>
<text text-anchor="middle" x="274" y="-57" font-family="Helvetica,sans-Serif" font-size="10.00">MainNamespace::saveRhs</text>
</a>
</g>
</g>
<!-- Node1&#45;&gt;Node2 -->
<g id="edge1" class="edge">
<title>Node1&#45;&gt;Node2</title>
<path fill="none" stroke="midnightblue" d="M372.88,-47.4C364.28,-48.46 355.57,-49.54 347.08,-50.59"/>
<polygon fill="midnightblue" stroke="midnightblue" points="373.41,-50.86 382.91,-46.16 372.55,-43.92 373.41,-50.86"/>
</g>
<!-- Node4 -->
<g id="node4" class="node">
<title>Node4</title>
<g id="a_node4"><a xlink:href="struct_main_namespace_1_1_options.html#a20819094ec372f02f5e5b1833d572f24" target="_top" xlink:title=" ">
<polygon fill="white" stroke="black" points="203,-0.5 203,-30.5 345,-30.5 345,-0.5 203,-0.5"/>
<text text-anchor="start" x="211" y="-18.5" font-family="Helvetica,sans-Serif" font-size="10.00">MainNamespace::Options</text>
<text text-anchor="middle" x="274" y="-7.5" font-family="Helvetica,sans-Serif" font-size="10.00">::saveRhs</text>
</a>
</g>
</g>
<!-- Node1&#45;&gt;Node4 -->
<g id="edge3" class="edge">
<title>Node1&#45;&gt;Node4</title>
<path fill="none" stroke="midnightblue" d="M372.89,-27.6C363.6,-26.45 354.17,-25.29 345.03,-24.16"/>
<polygon fill="midnightblue" stroke="midnightblue" points="372.55,-31.08 382.91,-28.84 373.41,-24.14 372.55,-31.08"/>
</g>
<!-- Node3 -->
<g id="node3" class="node">
<title>Node3</title>
<g id="a_node3"><a xlink:href="class_main_namespace_1_1_mesh_reader.html#ac9fe1c957a70a29b35b8118a83a3111c" target="_top" xlink:title=" ">
<polygon fill="white" stroke="black" points="0,-44.5 0,-74.5 165,-74.5 165,-44.5 0,-44.5"/>
<text text-anchor="start" x="8" y="-62.5" font-family="Helvetica,sans-Serif" font-size="10.00">MainNamespace::MeshReader</text>
<text text-anchor="middle" x="82.5" y="-51.5" font-family="Helvetica,sans-Serif" font-size="10.00">::MeshReader</text>
</a>
</g>
</g>
<!-- Node2&#45;&gt;Node3 -->
<g id="edge2" class="edge">
<title>Node2&#45;&gt;Node3</title>
<path fill="none" stroke="midnightblue" d="M190.65,-59.5C182.24,-59.5 173.7,-59.5 165.3,-59.5"/>
<polygon fill="midnightblue" stroke="midnightblue" points="190.82,-63 200.82,-59.5 190.82,-56 190.82,-63"/>
</g>
</g>
</svg>
