<?xml version="1.0" encoding="UTF-8" standalone="no"?>
<!DOCTYPE svg PUBLIC "-//W3C//DTD SVG 1.1//EN"
 "http://www.w3.org/Graphics/SVG/1.1/DTD/svg11.dtd">
<!-- Generated by graphviz version 2.43.0 (0)
 -->
<!-- Title: MainNamespace::Options::eps Pages: 1 -->
<!--zoomable 121 -->
<svg id="main" version="1.1" xmlns="http://www.w3.org/2000/svg" xmlns:xlink="http://www.w3.org/1999/xlink" xml:space="preserve" onload="init(evt)">
<style type="text/css"><![CDATA[
.edge:hover path { stroke: red; }
.edge:hover polygon { stroke: red; fill: red; }
]]></style>
<script type="text/javascript"><![CDATA[
var edges = document.getElementsByTagName('g');
if (edges && edges.length) {
  for (var i=0;i<edges.length;i++) {
    if (edges[i].id.substr(0,4)=='edge') {
      edges[i].setAttribute('class','edge');
    }
  }
}
]]></script>
        <defs>
                <circle id="rim" cx="0" cy="0" r="7"/>
                <circle id="rim2" cx="0" cy="0" r="3.5"/>
                <g id="zoomPlus">
                        <use xlink:href="#rim" fill="#404040">
                                <set attributeName="fill" to="#808080" begin="zoomplus.mouseover" end="zoomplus.mouseout"/>
                        </use>
                        <path d="M-4,0h8M0,-4v8" fill="none" stroke="white" stroke-width="1.5" pointer-events="none"/>
                </g>
                <g id="zoomMin">
                        <use xlink:href="#rim" fill="#404040">
                                <set attributeName="fill" to="#808080" begin="zoomminus.mouseover" end="zoomminus.mouseout"/>
                        </use>
                        <path d="M-4,0h8" fill="none" stroke="white" stroke-width="1.5" pointer-events="none"/>
                </g>
                <g id="dirArrow">
                        <path fill="none" stroke="white" stroke-width="1.5" d="M0,-3.0v7 M-2.5,-0.5L0,-3.0L2.5,-0.5"/>
                </g>
               <g id="resetDef">
                       <use xlink:href="#rim2" fill="#404040">
                               <set attributeName="fill" to="#808080" begin="reset.mouseover" end="reset.mouseout"/>
                       </use>
               </g>
        </defs>

<script type="text/javascript">
var viewWidth = 1727;
var viewHeight = 121;
var sectionId = 'dynsection-10';
</script>
<script xlink:href="svgpan.js"/>
<svg id="graph" class="graph">
<g id="viewport">
<title>MainNamespace::Options::eps</title>
<polygon fill="white" stroke="transparent" points="-4,4 -4,-117 1723,-117 1723,4 -4,4"/>
<!-- Node1 -->
<g id="node1" class="node">
<title>Node1</title>
<g id="a_node1"><a xlink:title=" ">
<polygon fill="#bfbfbf" stroke="black" points="1554,-50 1554,-69 1719,-69 1719,-50 1554,-50"/>
<text text-anchor="middle" x="1636.5" y="-57" font-family="Helvetica,sans-Serif" font-size="10.00">MainNamespace::Options::eps</text>
</a>
</g>
</g>
<!-- Node2 -->
<g id="node2" class="node">
<title>Node2</title>
<g id="a_node2"><a xlink:href="namespace_main_namespace.html#a4e7ea1c2ee502be36c9be19ea1c5ada3" target="_top" xlink:title=" ">
<polygon fill="white" stroke="black" points="1374.5,-88 1374.5,-107 1496.5,-107 1496.5,-88 1374.5,-88"/>
<text text-anchor="middle" x="1435.5" y="-95" font-family="Helvetica,sans-Serif" font-size="10.00">MainNamespace::eps</text>
</a>
</g>
</g>
<!-- Node1&#45;&gt;Node2 -->
<g id="edge1" class="edge">
<title>Node1&#45;&gt;Node2</title>
<path fill="none" stroke="midnightblue" d="M1575.71,-70.92C1547.23,-76.36 1513.57,-82.78 1486.48,-87.96"/>
<polygon fill="midnightblue" stroke="midnightblue" points="1576.37,-74.35 1585.54,-69.04 1575.06,-67.48 1576.37,-74.35"/>
</g>
<!-- Node11 -->
<g id="node11" class="node">
<title>Node11</title>
<g id="a_node11"><a xlink:href="struct_main_namespace_1_1_options.html#a3608f696433e93dec3fb63d0028507f4" target="_top" xlink:title=" ">
<polygon fill="white" stroke="black" points="1353,-50 1353,-69 1518,-69 1518,-50 1353,-50"/>
<text text-anchor="middle" x="1435.5" y="-57" font-family="Helvetica,sans-Serif" font-size="10.00">MainNamespace::Options::eps</text>
</a>
</g>
</g>
<!-- Node1&#45;&gt;Node11 -->
<g id="edge10" class="edge">
<title>Node1&#45;&gt;Node11</title>
<path fill="none" stroke="midnightblue" d="M1543.96,-59.5C1535.37,-59.5 1526.7,-59.5 1518.21,-59.5"/>
<polygon fill="midnightblue" stroke="midnightblue" points="1543.98,-63 1553.98,-59.5 1543.98,-56 1543.98,-63"/>
</g>
<!-- Node12 -->
<g id="node12" class="node">
<title>Node12</title>
<g id="a_node12"><a xlink:href="struct_main_namespace_1_1_options.html#a498b9918f2fdb3776667e57dc368a5d3" target="_top" xlink:title="Called by the constructor by default.">
<polygon fill="white" stroke="black" points="1364.5,-0.5 1364.5,-30.5 1506.5,-30.5 1506.5,-0.5 1364.5,-0.5"/>
<text text-anchor="start" x="1372.5" y="-18.5" font-family="Helvetica,sans-Serif" font-size="10.00">MainNamespace::Options</text>
<text text-anchor="middle" x="1435.5" y="-7.5" font-family="Helvetica,sans-Serif" font-size="10.00">::fillDefaults</text>
</a>
</g>
</g>
<!-- Node1&#45;&gt;Node12 -->
<g id="edge11" class="edge">
<title>Node1&#45;&gt;Node12</title>
<path fill="none" stroke="midnightblue" d="M1582.39,-47.76C1558.52,-42.48 1530.06,-36.19 1504.64,-30.57"/>
<polygon fill="midnightblue" stroke="midnightblue" points="1581.8,-51.21 1592.32,-49.95 1583.31,-44.38 1581.8,-51.21"/>
</g>
<!-- Node3 -->
<g id="node3" class="node">
<title>Node3</title>
<g id="a_node3"><a xlink:href="namespace_main_namespace.html#ab0c0b0cb1d9d667bc93cb8e377796c8a" target="_top" xlink:title=" ">
<polygon fill="white" stroke="black" points="1144,-82.5 1144,-112.5 1317,-112.5 1317,-82.5 1144,-82.5"/>
<text text-anchor="start" x="1152" y="-100.5" font-family="Helvetica,sans-Serif" font-size="10.00">MainNamespace::compressRow</text>
<text text-anchor="middle" x="1230.5" y="-89.5" font-family="Helvetica,sans-Serif" font-size="10.00">ColumnFar</text>
</a>
</g>
</g>
<!-- Node2&#45;&gt;Node3 -->
<g id="edge2" class="edge">
<title>Node2&#45;&gt;Node3</title>
<path fill="none" stroke="midnightblue" d="M1364.16,-97.5C1349.07,-97.5 1332.97,-97.5 1317.37,-97.5"/>
<polygon fill="midnightblue" stroke="midnightblue" points="1364.42,-101 1374.42,-97.5 1364.42,-94 1364.42,-101"/>
</g>
<!-- Node4 -->
<g id="node4" class="node">
<title>Node4</title>
<g id="a_node4"><a xlink:href="namespace_main_namespace.html#aaa553a0feb6a9e785dce2ea7c2f25481" target="_top" xlink:title="Build a dh2matrix for the operator described by bemDescription, using the given clusters.">
<polygon fill="white" stroke="black" points="937,-88 937,-107 1108,-107 1108,-88 937,-88"/>
<text text-anchor="middle" x="1022.5" y="-95" font-family="Helvetica,sans-Serif" font-size="10.00">MainNamespace::buildOperator</text>
</a>
</g>
</g>
<!-- Node3&#45;&gt;Node4 -->
<g id="edge3" class="edge">
<title>Node3&#45;&gt;Node4</title>
<path fill="none" stroke="midnightblue" d="M1133.89,-97.5C1125.29,-97.5 1116.63,-97.5 1108.14,-97.5"/>
<polygon fill="midnightblue" stroke="midnightblue" points="1133.93,-101 1143.93,-97.5 1133.93,-94 1133.93,-101"/>
</g>
<!-- Node5 -->
<g id="node5" class="node">
<title>Node5</title>
<g id="a_node5"><a xlink:href="class_main_namespace_1_1_d_h2_matrix_wrapper.html#a8b3117680075ec79bc0500f3e901b133" target="_top" xlink:title="Take ownership of, the pointer to the bem description and build the matrix and all needed data struct...">
<polygon fill="white" stroke="black" points="744,-82.5 744,-112.5 901,-112.5 901,-82.5 744,-82.5"/>
<text text-anchor="start" x="752" y="-100.5" font-family="Helvetica,sans-Serif" font-size="10.00">MainNamespace::DH2Matrix</text>
<text text-anchor="middle" x="822.5" y="-89.5" font-family="Helvetica,sans-Serif" font-size="10.00">Wrapper::build</text>
</a>
</g>
</g>
<!-- Node4&#45;&gt;Node5 -->
<g id="edge4" class="edge">
<title>Node4&#45;&gt;Node5</title>
<path fill="none" stroke="midnightblue" d="M926.88,-97.5C918.27,-97.5 909.62,-97.5 901.18,-97.5"/>
<polygon fill="midnightblue" stroke="midnightblue" points="926.96,-101 936.96,-97.5 926.96,-94 926.96,-101"/>
</g>
<!-- Node6 -->
<g id="node6" class="node">
<title>Node6</title>
<g id="a_node6"><a xlink:href="namespace_main_namespace_1_1_surface.html#a7e821744eeb79cb1faa8468d53cb7c1e" target="_top" xlink:title=" ">
<polygon fill="white" stroke="black" points="567,-82.5 567,-112.5 708,-112.5 708,-82.5 567,-82.5"/>
<text text-anchor="start" x="575" y="-100.5" font-family="Helvetica,sans-Serif" font-size="10.00">MainNamespace::Surface</text>
<text text-anchor="middle" x="637.5" y="-89.5" font-family="Helvetica,sans-Serif" font-size="10.00">::makeTmpApply</text>
</a>
</g>
</g>
<!-- Node5&#45;&gt;Node6 -->
<g id="edge5" class="edge">
<title>Node5&#45;&gt;Node6</title>
<path fill="none" stroke="midnightblue" d="M733.81,-97.5C725.18,-97.5 716.51,-97.5 708.1,-97.5"/>
<polygon fill="midnightblue" stroke="midnightblue" points="733.89,-101 743.89,-97.5 733.89,-94 733.89,-101"/>
</g>
<!-- Node7 -->
<g id="node7" class="node">
<title>Node7</title>
<g id="a_node7"><a xlink:href="class_main_namespace_1_1_surface_1_1_single_surface.html#a3321422c36eccd213cfc48823a9f54d7" target="_top" xlink:title="Project the offset on the current mesh, then use it to compute the right&#45;hand side.">
<polygon fill="white" stroke="black" points="366,-82.5 366,-112.5 531,-112.5 531,-82.5 366,-82.5"/>
<text text-anchor="start" x="374" y="-100.5" font-family="Helvetica,sans-Serif" font-size="10.00">MainNamespace::Surface</text>
<text text-anchor="middle" x="448.5" y="-89.5" font-family="Helvetica,sans-Serif" font-size="10.00">::SingleSurface::makeMultiRhs</text>
</a>
</g>
</g>
<!-- Node6&#45;&gt;Node7 -->
<g id="edge6" class="edge">
<title>Node6&#45;&gt;Node7</title>
<path fill="none" stroke="midnightblue" d="M556.67,-97.5C548.23,-97.5 539.64,-97.5 531.18,-97.5"/>
<polygon fill="midnightblue" stroke="midnightblue" points="556.87,-101 566.87,-97.5 556.87,-94 556.87,-101"/>
</g>
<!-- Node8 -->
<g id="node8" class="node">
<title>Node8</title>
<g id="a_node8"><a xlink:href="class_main_namespace_1_1_surface_1_1_multi_surface.html#a8839f7e49575079e39fbb95a692772a5" target="_top" xlink:title="Compute the right&#45;hand side, the operators, then solve the linear system.">
<polygon fill="white" stroke="black" points="189,-82.5 189,-112.5 330,-112.5 330,-82.5 189,-82.5"/>
<text text-anchor="start" x="197" y="-100.5" font-family="Helvetica,sans-Serif" font-size="10.00">MainNamespace::Surface</text>
<text text-anchor="middle" x="259.5" y="-89.5" font-family="Helvetica,sans-Serif" font-size="10.00">::MultiSurface::solve</text>
</a>
</g>
</g>
<!-- Node7&#45;&gt;Node8 -->
<g id="edge7" class="edge">
<title>Node7&#45;&gt;Node8</title>
<path fill="none" stroke="midnightblue" d="M355.67,-97.5C347.07,-97.5 338.44,-97.5 330.09,-97.5"/>
<polygon fill="midnightblue" stroke="midnightblue" points="355.75,-101 365.75,-97.5 355.75,-94 355.75,-101"/>
</g>
<!-- Node9 -->
<g id="node9" class="node">
<title>Node9</title>
<g id="a_node9"><a xlink:href="main_8cpp.html#a5d68713f22d1b3e2495b15d107ea7d21" target="_top" xlink:title=" ">
<polygon fill="white" stroke="black" points="77,-88 77,-107 153,-107 153,-88 77,-88"/>
<text text-anchor="middle" x="115" y="-95" font-family="Helvetica,sans-Serif" font-size="10.00">testProblem</text>
</a>
</g>
</g>
<!-- Node8&#45;&gt;Node9 -->
<g id="edge8" class="edge">
<title>Node8&#45;&gt;Node9</title>
<path fill="none" stroke="midnightblue" d="M178.85,-97.5C169.97,-97.5 161.27,-97.5 153.31,-97.5"/>
<polygon fill="midnightblue" stroke="midnightblue" points="178.92,-101 188.92,-97.5 178.92,-94 178.92,-101"/>
</g>
<!-- Node10 -->
<g id="node10" class="node">
<title>Node10</title>
<g id="a_node10"><a xlink:href="main_8cpp.html#a3c04138a5bfe5d72780bb7e82a18e627" target="_top" xlink:title=" ">
<polygon fill="white" stroke="black" points="0,-88 0,-107 41,-107 41,-88 0,-88"/>
<text text-anchor="middle" x="20.5" y="-95" font-family="Helvetica,sans-Serif" font-size="10.00">main</text>
</a>
</g>
</g>
<!-- Node9&#45;&gt;Node10 -->
<g id="edge9" class="edge">
<title>Node9&#45;&gt;Node10</title>
<path fill="none" stroke="midnightblue" d="M66.72,-97.5C57.65,-97.5 48.64,-97.5 41.07,-97.5"/>
<polygon fill="midnightblue" stroke="midnightblue" points="66.91,-101 76.91,-97.5 66.91,-94 66.91,-101"/>
</g>
<!-- Node13 -->
<g id="node13" class="node">
<title>Node13</title>
<g id="a_node13"><a xlink:href="struct_main_namespace_1_1_options.html#a4db6a2fafb09fb140ca8dd77786dce3c" target="_top" xlink:title=" ">
<polygon fill="white" stroke="black" points="1159.5,-0.5 1159.5,-30.5 1301.5,-30.5 1301.5,-0.5 1159.5,-0.5"/>
<text text-anchor="start" x="1167.5" y="-18.5" font-family="Helvetica,sans-Serif" font-size="10.00">MainNamespace::Options</text>
<text text-anchor="middle" x="1230.5" y="-7.5" font-family="Helvetica,sans-Serif" font-size="10.00">::Options</text>
</a>
</g>
</g>
<!-- Node12&#45;&gt;Node13 -->
<g id="edge12" class="edge">
<title>Node12&#45;&gt;Node13</title>
<path fill="none" stroke="midnightblue" d="M1354.24,-15.5C1336.86,-15.5 1318.6,-15.5 1301.65,-15.5"/>
<polygon fill="midnightblue" stroke="midnightblue" points="1354.35,-19 1364.35,-15.5 1354.35,-12 1354.35,-19"/>
</g>
</g>
</svg>
        <g id="navigator" transform="translate(0 0)" fill="#404254">
                <rect fill="#f2f5e9" fill-opacity="0.5" stroke="#606060" stroke-width=".5" x="0" y="0" width="60" height="60"/>
                <use id="zoomplus" xlink:href="#zoomPlus" x="17" y="9" onmousedown="handleZoom(evt,'in')"/>
                <use id="zoomminus" xlink:href="#zoomMin" x="42" y="9" onmousedown="handleZoom(evt,'out')"/>
                <use id="reset" xlink:href="#resetDef" x="30" y="36" onmousedown="handleReset()"/>
                <g id="arrowUp" xlink:href="#dirArrow" transform="translate(30 24)" onmousedown="handlePan(0,-1)">
                  <use xlink:href="#rim" fill="#404040">
                        <set attributeName="fill" to="#808080" begin="arrowUp.mouseover" end="arrowUp.mouseout"/>
                  </use>
                  <path fill="none" stroke="white" stroke-width="1.5" d="M0,-3.0v7 M-2.5,-0.5L0,-3.0L2.5,-0.5"/>
                </g>
                <g id="arrowRight" xlink:href="#dirArrow" transform="rotate(90) translate(36 -43)" onmousedown="handlePan(1,0)">
                  <use xlink:href="#rim" fill="#404040">
                        <set attributeName="fill" to="#808080" begin="arrowRight.mouseover" end="arrowRight.mouseout"/>
                  </use>
                  <path fill="none" stroke="white" stroke-width="1.5" d="M0,-3.0v7 M-2.5,-0.5L0,-3.0L2.5,-0.5"/>
                </g>
                <g id="arrowDown" xlink:href="#dirArrow" transform="rotate(180) translate(-30 -48)" onmousedown="handlePan(0,1)">
                  <use xlink:href="#rim" fill="#404040">
                        <set attributeName="fill" to="#808080" begin="arrowDown.mouseover" end="arrowDown.mouseout"/>
                  </use>
                  <path fill="none" stroke="white" stroke-width="1.5" d="M0,-3.0v7 M-2.5,-0.5L0,-3.0L2.5,-0.5"/>
                </g>
                <g id="arrowLeft" xlink:href="#dirArrow" transform="rotate(270) translate(-36 17)" onmousedown="handlePan(-1,0)">
                  <use xlink:href="#rim" fill="#404040">
                        <set attributeName="fill" to="#808080" begin="arrowLeft.mouseover" end="arrowLeft.mouseout"/>
                  </use>
                  <path fill="none" stroke="white" stroke-width="1.5" d="M0,-3.0v7 M-2.5,-0.5L0,-3.0L2.5,-0.5"/>
                </g>
        </g>
        <svg viewBox="0 0 15 15" width="100%" height="30px" preserveAspectRatio="xMaxYMin meet">
         <g id="arrow_out" transform="scale(0.3 0.3)">
          <a xlink:href="struct_main_namespace_1_1_options_ad8a5dac97faa38719a378d695f4c3b6b_icgraph_org.svg" target="_base">
           <rect id="button" ry="5" rx="5" y="6" x="6" height="38" width="38"
                fill="#f2f5e9" fill-opacity="0.5" stroke="#606060" stroke-width="1.0"/>
           <path id="arrow"
             d="M 11.500037,31.436501 C 11.940474,20.09759 22.043105,11.32322 32.158766,21.979434 L 37.068811,17.246167 C 37.068811,17.246167 37.088388,32 37.088388,32 L 22.160133,31.978069 C 22.160133,31.978069 26.997745,27.140456 26.997745,27.140456 C 18.528582,18.264221 13.291696,25.230495 11.500037,31.436501 z"
             style="fill:#404040;"/>
          </a>
         </g>
        </svg>
</svg>
