<?xml version="1.0" encoding="UTF-8" standalone="no"?>
<!DOCTYPE svg PUBLIC "-//W3C//DTD SVG 1.1//EN"
 "http://www.w3.org/Graphics/SVG/1.1/DTD/svg11.dtd">
<!-- Generated by graphviz version 2.43.0 (0)
 -->
<!-- Title: MainNamespace::Options::Options Pages: 1 -->
<!--zoomable 359 -->
<svg id="main" version="1.1" xmlns="http://www.w3.org/2000/svg" xmlns:xlink="http://www.w3.org/1999/xlink" xml:space="preserve" onload="init(evt)">
<style type="text/css"><![CDATA[
.edge:hover path { stroke: red; }
.edge:hover polygon { stroke: red; fill: red; }
]]></style>
<script type="text/javascript"><![CDATA[
var edges = document.getElementsByTagName('g');
if (edges && edges.length) {
  for (var i=0;i<edges.length;i++) {
    if (edges[i].id.substr(0,4)=='edge') {
      edges[i].setAttribute('class','edge');
    }
  }
}
]]></script>
        <defs>
                <circle id="rim" cx="0" cy="0" r="7"/>
                <circle id="rim2" cx="0" cy="0" r="3.5"/>
                <g id="zoomPlus">
                        <use xlink:href="#rim" fill="#404040">
                                <set attributeName="fill" to="#808080" begin="zoomplus.mouseover" end="zoomplus.mouseout"/>
                        </use>
                        <path d="M-4,0h8M0,-4v8" fill="none" stroke="white" stroke-width="1.5" pointer-events="none"/>
                </g>
                <g id="zoomMin">
                        <use xlink:href="#rim" fill="#404040">
                                <set attributeName="fill" to="#808080" begin="zoomminus.mouseover" end="zoomminus.mouseout"/>
                        </use>
                        <path d="M-4,0h8" fill="none" stroke="white" stroke-width="1.5" pointer-events="none"/>
                </g>
                <g id="dirArrow">
                        <path fill="none" stroke="white" stroke-width="1.5" d="M0,-3.0v7 M-2.5,-0.5L0,-3.0L2.5,-0.5"/>
                </g>
               <g id="resetDef">
                       <use xlink:href="#rim2" fill="#404040">
                               <set attributeName="fill" to="#808080" begin="reset.mouseover" end="reset.mouseout"/>
                       </use>
               </g>
        </defs>

<script type="text/javascript">
var viewWidth = 581;
var viewHeight = 359;
var sectionId = 'dynsection-1';
</script>
<script xlink:href="svgpan.js"/>
<svg id="graph" class="graph">
<g id="viewport">
<title>MainNamespace::Options::Options</title>
<polygon fill="white" stroke="transparent" points="-4,4 -4,-354.5 577,-354.5 577,4 -4,4"/>
<!-- Node1 -->
<g id="node1" class="node">
<title>Node1</title>
<g id="a_node1"><a xlink:title=" ">
<polygon fill="#bfbfbf" stroke="black" points="0,-149 0,-179 142,-179 142,-149 0,-149"/>
<text text-anchor="start" x="8" y="-167" font-family="Helvetica,sans-Serif" font-size="10.00">MainNamespace::Options</text>
<text text-anchor="middle" x="71" y="-156" font-family="Helvetica,sans-Serif" font-size="10.00">::Options</text>
</a>
</g>
</g>
<!-- Node2 -->
<g id="node2" class="node">
<title>Node2</title>
<g id="a_node2"><a xlink:href="class_main_namespace_1_1_clocks.html#aef972ea2456448708aabef25f998379a" target="_top" xlink:title=" ">
<polygon fill="white" stroke="black" points="206.5,-308 206.5,-338 343.5,-338 343.5,-308 206.5,-308"/>
<text text-anchor="start" x="214.5" y="-326" font-family="Helvetica,sans-Serif" font-size="10.00">MainNamespace::Clocks</text>
<text text-anchor="middle" x="275" y="-315" font-family="Helvetica,sans-Serif" font-size="10.00">::addTimer</text>
</a>
</g>
</g>
<!-- Node1&#45;&gt;Node2 -->
<g id="edge1" class="edge">
<title>Node1&#45;&gt;Node2</title>
<path fill="none" stroke="midnightblue" d="M79.62,-179.1C94.53,-207.06 130.3,-266.88 178,-298 183.77,-301.76 190.07,-304.96 196.61,-307.68"/>
<polygon fill="midnightblue" stroke="midnightblue" points="195.72,-311.08 206.32,-311.32 198.19,-304.53 195.72,-311.08"/>
</g>
<!-- Node3 -->
<g id="node3" class="node">
<title>Node3</title>
<g id="a_node3"><a xlink:href="namespace_main_namespace.html#a2705a063ad73df792dd5c47195b0f403" target="_top" xlink:title=" ">
<polygon fill="white" stroke="black" points="178,-269.5 178,-288.5 372,-288.5 372,-269.5 178,-269.5"/>
<text text-anchor="middle" x="275" y="-276.5" font-family="Helvetica,sans-Serif" font-size="10.00">MainNamespace::createProgressBar</text>
</a>
</g>
</g>
<!-- Node1&#45;&gt;Node3 -->
<g id="edge2" class="edge">
<title>Node1&#45;&gt;Node3</title>
<path fill="none" stroke="midnightblue" d="M83.92,-179.05C101.89,-200.62 138.07,-239.93 178,-260 182.84,-262.43 187.96,-264.55 193.22,-266.4"/>
<polygon fill="midnightblue" stroke="midnightblue" points="192.22,-269.75 202.81,-269.45 194.34,-263.08 192.22,-269.75"/>
</g>
<!-- Node4 -->
<g id="node4" class="node">
<title>Node4</title>
<g id="a_node4"><a xlink:href="struct_main_namespace_1_1_options.html#a498b9918f2fdb3776667e57dc368a5d3" target="_top" xlink:title="Called by the constructor by default.">
<polygon fill="white" stroke="black" points="204,-220 204,-250 346,-250 346,-220 204,-220"/>
<text text-anchor="start" x="212" y="-238" font-family="Helvetica,sans-Serif" font-size="10.00">MainNamespace::Options</text>
<text text-anchor="middle" x="275" y="-227" font-family="Helvetica,sans-Serif" font-size="10.00">::fillDefaults</text>
</a>
</g>
</g>
<!-- Node1&#45;&gt;Node4 -->
<g id="edge3" class="edge">
<title>Node1&#45;&gt;Node4</title>
<path fill="none" stroke="midnightblue" d="M102.51,-179.21C123.4,-189.2 151.92,-202.03 178,-211 184.33,-213.18 190.96,-215.25 197.65,-217.19"/>
<polygon fill="midnightblue" stroke="midnightblue" points="196.89,-220.61 207.46,-219.95 198.78,-213.88 196.89,-220.61"/>
</g>
<!-- Node10 -->
<g id="node10" class="node">
<title>Node10</title>
<g id="a_node10"><a xlink:href="class_main_namespace_1_1_clocks.html#a56a4435e89b1e25e2a33fc5471d5f814" target="_top" xlink:title=" ">
<polygon fill="white" stroke="black" points="206.5,-171 206.5,-201 343.5,-201 343.5,-171 206.5,-171"/>
<text text-anchor="start" x="214.5" y="-189" font-family="Helvetica,sans-Serif" font-size="10.00">MainNamespace::Clocks</text>
<text text-anchor="middle" x="275" y="-178" font-family="Helvetica,sans-Serif" font-size="10.00">::format</text>
</a>
</g>
</g>
<!-- Node1&#45;&gt;Node10 -->
<g id="edge9" class="edge">
<title>Node1&#45;&gt;Node10</title>
<path fill="none" stroke="midnightblue" d="M142.08,-171.63C159.51,-173.53 178.31,-175.58 196.09,-177.51"/>
<polygon fill="midnightblue" stroke="midnightblue" points="196.1,-181.04 206.42,-178.64 196.86,-174.08 196.1,-181.04"/>
</g>
<!-- Node11 -->
<g id="node11" class="node">
<title>Node11</title>
<g id="a_node11"><a xlink:href="namespace_main_namespace.html#a6fd76e14adc7d23a9822334cb389b369" target="_top" xlink:title=" ">
<polygon fill="white" stroke="black" points="189,-132.5 189,-151.5 361,-151.5 361,-132.5 189,-132.5"/>
<text text-anchor="middle" x="275" y="-139.5" font-family="Helvetica,sans-Serif" font-size="10.00">MainNamespace::globalOptions</text>
</a>
</g>
</g>
<!-- Node1&#45;&gt;Node11 -->
<g id="edge10" class="edge">
<title>Node1&#45;&gt;Node11</title>
<path fill="none" stroke="midnightblue" d="M142.08,-156.37C153.83,-155.09 166.2,-153.74 178.46,-152.4"/>
<polygon fill="midnightblue" stroke="midnightblue" points="179.16,-155.85 188.72,-151.29 178.4,-148.89 179.16,-155.85"/>
</g>
<!-- Node12 -->
<g id="node12" class="node">
<title>Node12</title>
<g id="a_node12"><a xlink:href="namespace_main_namespace_1_1_logger.html#afbb4cc2d8b498e71fcb228f0da8309a1" target="_top" xlink:title=" ">
<polygon fill="white" stroke="black" points="196,-94.5 196,-113.5 354,-113.5 354,-94.5 196,-94.5"/>
<text text-anchor="middle" x="275" y="-101.5" font-family="Helvetica,sans-Serif" font-size="10.00">MainNamespace::Logger::log</text>
</a>
</g>
</g>
<!-- Node1&#45;&gt;Node12 -->
<g id="edge11" class="edge">
<title>Node1&#45;&gt;Node12</title>
<path fill="none" stroke="midnightblue" d="M106.33,-148.97C126.83,-140.44 153.55,-130.09 178,-123 187.42,-120.27 197.48,-117.8 207.41,-115.62"/>
<polygon fill="midnightblue" stroke="midnightblue" points="208.2,-119.03 217.26,-113.53 206.75,-112.18 208.2,-119.03"/>
</g>
<!-- Node14 -->
<g id="node14" class="node">
<title>Node14</title>
<g id="a_node14"><a xlink:href="classlyra_1_1cli.html#a6d3e91c66ed03273471089eebcdeacae" target="_top" xlink:title=" ">
<polygon fill="white" stroke="black" points="232,-38.5 232,-57.5 318,-57.5 318,-38.5 232,-38.5"/>
<text text-anchor="middle" x="275" y="-45.5" font-family="Helvetica,sans-Serif" font-size="10.00">lyra::cli::parse</text>
</a>
</g>
</g>
<!-- Node1&#45;&gt;Node14 -->
<g id="edge13" class="edge">
<title>Node1&#45;&gt;Node14</title>
<path fill="none" stroke="midnightblue" d="M89.36,-148.71C109.56,-131.49 144.44,-103.52 178,-85 195.26,-75.48 215.47,-67.29 232.89,-61.06"/>
<polygon fill="midnightblue" stroke="midnightblue" points="234.48,-64.21 242.78,-57.62 232.18,-57.6 234.48,-64.21"/>
</g>
<!-- Node16 -->
<g id="node16" class="node">
<title>Node16</title>
<g id="a_node16"><a xlink:href="namespace_main_namespace.html#a963bb0fc1186abae512b8fde5e8a078c" target="_top" xlink:title="Distribution warning (about h2lib and gmsh).">
<polygon fill="white" stroke="black" points="203.5,-0.5 203.5,-19.5 346.5,-19.5 346.5,-0.5 203.5,-0.5"/>
<text text-anchor="middle" x="275" y="-7.5" font-family="Helvetica,sans-Serif" font-size="10.00">MainNamespace::warning</text>
</a>
</g>
</g>
<!-- Node1&#45;&gt;Node16 -->
<g id="edge16" class="edge">
<title>Node1&#45;&gt;Node16</title>
<path fill="none" stroke="midnightblue" d="M79.19,-148.96C93.62,-120.53 128.98,-59.07 178,-29 182.96,-25.96 188.32,-23.38 193.87,-21.22"/>
<polygon fill="midnightblue" stroke="midnightblue" points="195.06,-24.51 203.37,-17.94 192.77,-17.89 195.06,-24.51"/>
</g>
<!-- Node5 -->
<g id="node5" class="node">
<title>Node5</title>
<g id="a_node5"><a xlink:href="struct_main_namespace_1_1_options.html#a9dd548e38db71d587c9185648edafb86" target="_top" xlink:title=" ">
<polygon fill="white" stroke="black" points="419.5,-320 419.5,-350 561.5,-350 561.5,-320 419.5,-320"/>
<text text-anchor="start" x="427.5" y="-338" font-family="Helvetica,sans-Serif" font-size="10.00">MainNamespace::Options</text>
<text text-anchor="middle" x="490.5" y="-327" font-family="Helvetica,sans-Serif" font-size="10.00">::clusterResolution</text>
</a>
</g>
</g>
<!-- Node4&#45;&gt;Node5 -->
<g id="edge4" class="edge">
<title>Node4&#45;&gt;Node5</title>
<path fill="none" stroke="midnightblue" d="M346.16,-247.13C355.3,-250.44 364.19,-254.65 372,-260 394.59,-275.48 385.75,-294.04 408,-310 410.71,-311.94 413.57,-313.73 416.53,-315.39"/>
<polygon fill="midnightblue" stroke="midnightblue" points="415.19,-318.63 425.7,-319.96 418.31,-312.36 415.19,-318.63"/>
</g>
<!-- Node6 -->
<g id="node6" class="node">
<title>Node6</title>
<g id="a_node6"><a xlink:href="struct_main_namespace_1_1_options.html#ad8a5dac97faa38719a378d695f4c3b6b" target="_top" xlink:title=" ">
<polygon fill="white" stroke="black" points="408,-281.5 408,-300.5 573,-300.5 573,-281.5 408,-281.5"/>
<text text-anchor="middle" x="490.5" y="-288.5" font-family="Helvetica,sans-Serif" font-size="10.00">MainNamespace::Options::eps</text>
</a>
</g>
</g>
<!-- Node4&#45;&gt;Node6 -->
<g id="edge5" class="edge">
<title>Node4&#45;&gt;Node6</title>
<path fill="none" stroke="midnightblue" d="M336.34,-250.05C348.2,-253.2 360.52,-256.6 372,-260 388.17,-264.79 391.77,-267.41 408,-272 416.83,-274.5 426.26,-276.92 435.47,-279.15"/>
<polygon fill="midnightblue" stroke="midnightblue" points="434.78,-282.58 445.32,-281.49 436.4,-275.77 434.78,-282.58"/>
</g>
<!-- Node7 -->
<g id="node7" class="node">
<title>Node7</title>
<g id="a_node7"><a xlink:href="struct_main_namespace_1_1_options.html#a723119ba0f1851a37f845d6cdbb70792" target="_top" xlink:title=" ">
<polygon fill="white" stroke="black" points="419.5,-232 419.5,-262 561.5,-262 561.5,-232 419.5,-232"/>
<text text-anchor="start" x="427.5" y="-250" font-family="Helvetica,sans-Serif" font-size="10.00">MainNamespace::Options</text>
<text text-anchor="middle" x="490.5" y="-239" font-family="Helvetica,sans-Serif" font-size="10.00">::epsKrylov</text>
</a>
</g>
</g>
<!-- Node4&#45;&gt;Node7 -->
<g id="edge6" class="edge">
<title>Node4&#45;&gt;Node7</title>
<path fill="none" stroke="midnightblue" d="M346.2,-238.95C366.36,-240.08 388.5,-241.32 409.21,-242.49"/>
<polygon fill="midnightblue" stroke="midnightblue" points="409.07,-245.98 419.25,-243.05 409.47,-239 409.07,-245.98"/>
</g>
<!-- Node8 -->
<g id="node8" class="node">
<title>Node8</title>
<g id="a_node8"><a xlink:href="struct_main_namespace_1_1_options.html#adbe1881e6e24f021d2608257b156e68f" target="_top" xlink:title=" ">
<polygon fill="white" stroke="black" points="419.5,-183 419.5,-213 561.5,-213 561.5,-183 419.5,-183"/>
<text text-anchor="start" x="427.5" y="-201" font-family="Helvetica,sans-Serif" font-size="10.00">MainNamespace::Options</text>
<text text-anchor="middle" x="490.5" y="-190" font-family="Helvetica,sans-Serif" font-size="10.00">::interpolationPoints</text>
</a>
</g>
</g>
<!-- Node4&#45;&gt;Node8 -->
<g id="edge7" class="edge">
<title>Node4&#45;&gt;Node8</title>
<path fill="none" stroke="midnightblue" d="M346.2,-222.83C366.36,-219.34 388.5,-215.5 409.21,-211.91"/>
<polygon fill="midnightblue" stroke="midnightblue" points="410,-215.33 419.25,-210.17 408.8,-208.43 410,-215.33"/>
</g>
<!-- Node9 -->
<g id="node9" class="node">
<title>Node9</title>
<g id="a_node9"><a xlink:href="struct_main_namespace_1_1_options.html#a13e08a72c9531b3e5ba442ca4e0a7377" target="_top" xlink:title=" ">
<polygon fill="white" stroke="black" points="419.5,-134 419.5,-164 561.5,-164 561.5,-134 419.5,-134"/>
<text text-anchor="start" x="427.5" y="-152" font-family="Helvetica,sans-Serif" font-size="10.00">MainNamespace::Options</text>
<text text-anchor="middle" x="490.5" y="-141" font-family="Helvetica,sans-Serif" font-size="10.00">::quadraturePoints</text>
</a>
</g>
</g>
<!-- Node4&#45;&gt;Node9 -->
<g id="edge8" class="edge">
<title>Node4&#45;&gt;Node9</title>
<path fill="none" stroke="midnightblue" d="M346.22,-222.31C355.2,-219.3 364.03,-215.58 372,-211 391.89,-199.56 388.42,-185.96 408,-174 411.55,-171.83 415.31,-169.84 419.18,-168"/>
<polygon fill="midnightblue" stroke="midnightblue" points="420.59,-171.2 428.38,-164.02 417.81,-164.78 420.59,-171.2"/>
</g>
<!-- Node13 -->
<g id="node13" class="node">
<title>Node13</title>
<g id="a_node13"><a xlink:href="namespace_main_namespace_1_1_logger.html#af052b0198f333fca77f0837a511ec7f7" target="_top" xlink:title=" ">
<polygon fill="white" stroke="black" points="422,-85 422,-115 559,-115 559,-85 422,-85"/>
<text text-anchor="start" x="430" y="-103" font-family="Helvetica,sans-Serif" font-size="10.00">MainNamespace::Logger</text>
<text text-anchor="middle" x="490.5" y="-92" font-family="Helvetica,sans-Serif" font-size="10.00">::forwardLog</text>
</a>
</g>
</g>
<!-- Node12&#45;&gt;Node13 -->
<g id="edge12" class="edge">
<title>Node12&#45;&gt;Node13</title>
<path fill="none" stroke="midnightblue" d="M354.29,-102.53C372.96,-102.18 392.9,-101.81 411.56,-101.46"/>
<polygon fill="midnightblue" stroke="midnightblue" points="411.85,-104.96 421.78,-101.27 411.71,-97.96 411.85,-104.96"/>
</g>
<!-- Node14&#45;&gt;Node14 -->
<g id="edge14" class="edge">
<title>Node14&#45;&gt;Node14</title>
<path fill="none" stroke="midnightblue" d="M243.56,-57.76C228.26,-66.57 238.74,-76 275,-76 301.06,-76 313.8,-71.13 313.23,-65.11"/>
<polygon fill="midnightblue" stroke="midnightblue" points="315.8,-62.73 306.44,-57.76 310.65,-67.48 315.8,-62.73"/>
</g>
<!-- Node15 -->
<g id="node15" class="node">
<title>Node15</title>
<g id="a_node15"><a xlink:href="structlyra_1_1option__style.html#ad733f4434bb558b70262f04ae4b69e1d" target="_top" xlink:title=" ">
<polygon fill="white" stroke="black" points="440,-33 440,-63 541,-63 541,-33 440,-33"/>
<text text-anchor="start" x="448" y="-51" font-family="Helvetica,sans-Serif" font-size="10.00">lyra::option_style</text>
<text text-anchor="middle" x="490.5" y="-40" font-family="Helvetica,sans-Serif" font-size="10.00">::posix</text>
</a>
</g>
</g>
<!-- Node14&#45;&gt;Node15 -->
<g id="edge15" class="edge">
<title>Node14&#45;&gt;Node15</title>
<path fill="none" stroke="midnightblue" d="M318.18,-48C350.04,-48 394.18,-48 429.68,-48"/>
<polygon fill="midnightblue" stroke="midnightblue" points="429.92,-51.5 439.91,-48 429.91,-44.5 429.92,-51.5"/>
</g>
</g>
</svg>
        <g id="navigator" transform="translate(0 0)" fill="#404254">
                <rect fill="#f2f5e9" fill-opacity="0.5" stroke="#606060" stroke-width=".5" x="0" y="0" width="60" height="60"/>
                <use id="zoomplus" xlink:href="#zoomPlus" x="17" y="9" onmousedown="handleZoom(evt,'in')"/>
                <use id="zoomminus" xlink:href="#zoomMin" x="42" y="9" onmousedown="handleZoom(evt,'out')"/>
                <use id="reset" xlink:href="#resetDef" x="30" y="36" onmousedown="handleReset()"/>
                <g id="arrowUp" xlink:href="#dirArrow" transform="translate(30 24)" onmousedown="handlePan(0,-1)">
                  <use xlink:href="#rim" fill="#404040">
                        <set attributeName="fill" to="#808080" begin="arrowUp.mouseover" end="arrowUp.mouseout"/>
                  </use>
                  <path fill="none" stroke="white" stroke-width="1.5" d="M0,-3.0v7 M-2.5,-0.5L0,-3.0L2.5,-0.5"/>
                </g>
                <g id="arrowRight" xlink:href="#dirArrow" transform="rotate(90) translate(36 -43)" onmousedown="handlePan(1,0)">
                  <use xlink:href="#rim" fill="#404040">
                        <set attributeName="fill" to="#808080" begin="arrowRight.mouseover" end="arrowRight.mouseout"/>
                  </use>
                  <path fill="none" stroke="white" stroke-width="1.5" d="M0,-3.0v7 M-2.5,-0.5L0,-3.0L2.5,-0.5"/>
                </g>
                <g id="arrowDown" xlink:href="#dirArrow" transform="rotate(180) translate(-30 -48)" onmousedown="handlePan(0,1)">
                  <use xlink:href="#rim" fill="#404040">
                        <set attributeName="fill" to="#808080" begin="arrowDown.mouseover" end="arrowDown.mouseout"/>
                  </use>
                  <path fill="none" stroke="white" stroke-width="1.5" d="M0,-3.0v7 M-2.5,-0.5L0,-3.0L2.5,-0.5"/>
                </g>
                <g id="arrowLeft" xlink:href="#dirArrow" transform="rotate(270) translate(-36 17)" onmousedown="handlePan(-1,0)">
                  <use xlink:href="#rim" fill="#404040">
                        <set attributeName="fill" to="#808080" begin="arrowLeft.mouseover" end="arrowLeft.mouseout"/>
                  </use>
                  <path fill="none" stroke="white" stroke-width="1.5" d="M0,-3.0v7 M-2.5,-0.5L0,-3.0L2.5,-0.5"/>
                </g>
        </g>
        <svg viewBox="0 0 15 15" width="100%" height="30px" preserveAspectRatio="xMaxYMin meet">
         <g id="arrow_out" transform="scale(0.3 0.3)">
          <a xlink:href="struct_main_namespace_1_1_options_a4db6a2fafb09fb140ca8dd77786dce3c_cgraph_org.svg" target="_base">
           <rect id="button" ry="5" rx="5" y="6" x="6" height="38" width="38"
                fill="#f2f5e9" fill-opacity="0.5" stroke="#606060" stroke-width="1.0"/>
           <path id="arrow"
             d="M 11.500037,31.436501 C 11.940474,20.09759 22.043105,11.32322 32.158766,21.979434 L 37.068811,17.246167 C 37.068811,17.246167 37.088388,32 37.088388,32 L 22.160133,31.978069 C 22.160133,31.978069 26.997745,27.140456 26.997745,27.140456 C 18.528582,18.264221 13.291696,25.230495 11.500037,31.436501 z"
             style="fill:#404040;"/>
          </a>
         </g>
        </svg>
</svg>
