<?xml version="1.0" encoding="UTF-8" standalone="no"?>
<!DOCTYPE svg PUBLIC "-//W3C//DTD SVG 1.1//EN"
 "http://www.w3.org/Graphics/SVG/1.1/DTD/svg11.dtd">
<!-- Generated by graphviz version 2.43.0 (0)
 -->
<!-- Title: lyra::detail::BoundFlagLambda&lt; L &gt; Pages: 1 -->
<svg width="202pt" height="196pt"
 viewBox="0.00 0.00 202.00 196.00" xmlns="http://www.w3.org/2000/svg" xmlns:xlink="http://www.w3.org/1999/xlink">
<g id="graph0" class="graph" transform="scale(1 1) rotate(0) translate(4 192)">
<title>lyra::detail::BoundFlagLambda&lt; L &gt;</title>
<polygon fill="white" stroke="transparent" points="-4,4 -4,-192 198,-192 198,4 -4,4"/>
<!-- Node1 -->
<g id="node1" class="node">
<title>Node1</title>
<g id="a_node1"><a xlink:title=" ">
<polygon fill="#bfbfbf" stroke="black" points="0,-0.5 0,-19.5 194,-19.5 194,-0.5 0,-0.5"/>
<text text-anchor="middle" x="97" y="-7.5" font-family="Helvetica,sans-Serif" font-size="10.00">lyra::detail::BoundFlagLambda&lt; L &gt;</text>
</a>
</g>
</g>
<!-- Node2 -->
<g id="node2" class="node">
<title>Node2</title>
<g id="a_node2"><a xlink:href="structlyra_1_1detail_1_1_bound_flag_ref_base.html" target="_top" xlink:title=" ">
<polygon fill="white" stroke="black" points="13.5,-56.5 13.5,-75.5 180.5,-75.5 180.5,-56.5 13.5,-56.5"/>
<text text-anchor="middle" x="97" y="-63.5" font-family="Helvetica,sans-Serif" font-size="10.00">lyra::detail::BoundFlagRefBase</text>
</a>
</g>
</g>
<!-- Node2&#45;&gt;Node1 -->
<g id="edge1" class="edge">
<title>Node2&#45;&gt;Node1</title>
<path fill="none" stroke="midnightblue" d="M90.53,-46.1C89.9,-37.14 90.34,-26.86 91.87,-19.75"/>
<polygon fill="midnightblue" stroke="midnightblue" points="87.07,-46.62 91.83,-56.08 94.01,-45.71 87.07,-46.62"/>
</g>
<!-- Node2&#45;&gt;Node1 -->
<g id="edge6" class="edge">
<title>Node2&#45;&gt;Node1</title>
<path fill="none" stroke="midnightblue" d="M103.47,-46.1C104.1,-37.14 103.66,-26.86 102.13,-19.75"/>
<polygon fill="midnightblue" stroke="midnightblue" points="99.99,-45.71 102.17,-56.08 106.93,-46.62 99.99,-45.71"/>
</g>
<!-- Node3 -->
<g id="node3" class="node">
<title>Node3</title>
<g id="a_node3"><a xlink:href="structlyra_1_1detail_1_1_bound_ref.html" target="_top" xlink:title=" ">
<polygon fill="white" stroke="black" points="36,-112.5 36,-131.5 158,-131.5 158,-112.5 36,-112.5"/>
<text text-anchor="middle" x="97" y="-119.5" font-family="Helvetica,sans-Serif" font-size="10.00">lyra::detail::BoundRef</text>
</a>
</g>
</g>
<!-- Node3&#45;&gt;Node2 -->
<g id="edge2" class="edge">
<title>Node3&#45;&gt;Node2</title>
<path fill="none" stroke="midnightblue" d="M90.53,-102.1C89.9,-93.14 90.34,-82.86 91.87,-75.75"/>
<polygon fill="midnightblue" stroke="midnightblue" points="87.07,-102.62 91.83,-112.08 94.01,-101.71 87.07,-102.62"/>
</g>
<!-- Node3&#45;&gt;Node2 -->
<g id="edge5" class="edge">
<title>Node3&#45;&gt;Node2</title>
<path fill="none" stroke="midnightblue" d="M103.47,-102.1C104.1,-93.14 103.66,-82.86 102.13,-75.75"/>
<polygon fill="midnightblue" stroke="midnightblue" points="99.99,-101.71 102.17,-112.08 106.93,-102.62 99.99,-101.71"/>
</g>
<!-- Node4 -->
<g id="node4" class="node">
<title>Node4</title>
<g id="a_node4"><a xlink:href="structlyra_1_1detail_1_1_non_copyable.html" target="_top" xlink:title=" ">
<polygon fill="white" stroke="black" points="27,-168.5 27,-187.5 167,-187.5 167,-168.5 27,-168.5"/>
<text text-anchor="middle" x="97" y="-175.5" font-family="Helvetica,sans-Serif" font-size="10.00">lyra::detail::NonCopyable</text>
</a>
</g>
</g>
<!-- Node4&#45;&gt;Node3 -->
<g id="edge3" class="edge">
<title>Node4&#45;&gt;Node3</title>
<path fill="none" stroke="midnightblue" d="M90.53,-158.1C89.9,-149.14 90.34,-138.86 91.87,-131.75"/>
<polygon fill="midnightblue" stroke="midnightblue" points="87.07,-158.62 91.83,-168.08 94.01,-157.71 87.07,-158.62"/>
</g>
<!-- Node4&#45;&gt;Node3 -->
<g id="edge4" class="edge">
<title>Node4&#45;&gt;Node3</title>
<path fill="none" stroke="midnightblue" d="M103.47,-158.1C104.1,-149.14 103.66,-138.86 102.13,-131.75"/>
<polygon fill="midnightblue" stroke="midnightblue" points="99.99,-157.71 102.17,-168.08 106.93,-158.62 99.99,-157.71"/>
</g>
</g>
</svg>
