<?xml version="1.0" encoding="UTF-8" standalone="no"?>
<!DOCTYPE svg PUBLIC "-//W3C//DTD SVG 1.1//EN"
 "http://www.w3.org/Graphics/SVG/1.1/DTD/svg11.dtd">
<!-- Generated by graphviz version 2.43.0 (0)
 -->
<!-- Title: MainNamespace::Options::clusterResolution Pages: 1 -->
<svg width="506pt" height="88pt"
 viewBox="0.00 0.00 506.00 88.00" xmlns="http://www.w3.org/2000/svg" xmlns:xlink="http://www.w3.org/1999/xlink">
<g id="graph0" class="graph" transform="scale(1 1) rotate(0) translate(4 84)">
<title>MainNamespace::Options::clusterResolution</title>
<polygon fill="white" stroke="transparent" points="-4,4 -4,-84 502,-84 502,4 -4,4"/>
<!-- Node1 -->
<g id="node1" class="node">
<title>Node1</title>
<g id="a_node1"><a xlink:title=" ">
<polygon fill="#bfbfbf" stroke="black" points="356,-24.5 356,-54.5 498,-54.5 498,-24.5 356,-24.5"/>
<text text-anchor="start" x="364" y="-42.5" font-family="Helvetica,sans-Serif" font-size="10.00">MainNamespace::Options</text>
<text text-anchor="middle" x="427" y="-31.5" font-family="Helvetica,sans-Serif" font-size="10.00">::clusterResolution</text>
</a>
</g>
</g>
<!-- Node2 -->
<g id="node2" class="node">
<title>Node2</title>
<g id="a_node2"><a xlink:href="struct_main_namespace_1_1_options.html#aab0ff94a9dfc038f679ed2db6420443f" target="_top" xlink:title=" ">
<polygon fill="white" stroke="black" points="178,-49.5 178,-79.5 320,-79.5 320,-49.5 178,-49.5"/>
<text text-anchor="start" x="186" y="-67.5" font-family="Helvetica,sans-Serif" font-size="10.00">MainNamespace::Options</text>
<text text-anchor="middle" x="249" y="-56.5" font-family="Helvetica,sans-Serif" font-size="10.00">::clusterResolution</text>
</a>
</g>
</g>
<!-- Node1&#45;&gt;Node2 -->
<g id="edge1" class="edge">
<title>Node1&#45;&gt;Node2</title>
<path fill="none" stroke="midnightblue" d="M345.9,-50.88C337.29,-52.1 328.59,-53.34 320.11,-54.54"/>
<polygon fill="midnightblue" stroke="midnightblue" points="346.53,-54.32 355.93,-49.45 345.54,-47.39 346.53,-54.32"/>
</g>
<!-- Node3 -->
<g id="node3" class="node">
<title>Node3</title>
<g id="a_node3"><a xlink:href="struct_main_namespace_1_1_options.html#a498b9918f2fdb3776667e57dc368a5d3" target="_top" xlink:title="Called by the constructor by default.">
<polygon fill="white" stroke="black" points="178,-0.5 178,-30.5 320,-30.5 320,-0.5 178,-0.5"/>
<text text-anchor="start" x="186" y="-18.5" font-family="Helvetica,sans-Serif" font-size="10.00">MainNamespace::Options</text>
<text text-anchor="middle" x="249" y="-7.5" font-family="Helvetica,sans-Serif" font-size="10.00">::fillDefaults</text>
</a>
</g>
</g>
<!-- Node1&#45;&gt;Node3 -->
<g id="edge2" class="edge">
<title>Node1&#45;&gt;Node3</title>
<path fill="none" stroke="midnightblue" d="M345.9,-28.58C337.29,-27.4 328.59,-26.22 320.11,-25.06"/>
<polygon fill="midnightblue" stroke="midnightblue" points="345.55,-32.06 355.93,-29.95 346.5,-25.13 345.55,-32.06"/>
</g>
<!-- Node4 -->
<g id="node4" class="node">
<title>Node4</title>
<g id="a_node4"><a xlink:href="struct_main_namespace_1_1_options.html#a4db6a2fafb09fb140ca8dd77786dce3c" target="_top" xlink:title=" ">
<polygon fill="white" stroke="black" points="0,-0.5 0,-30.5 142,-30.5 142,-0.5 0,-0.5"/>
<text text-anchor="start" x="8" y="-18.5" font-family="Helvetica,sans-Serif" font-size="10.00">MainNamespace::Options</text>
<text text-anchor="middle" x="71" y="-7.5" font-family="Helvetica,sans-Serif" font-size="10.00">::Options</text>
</a>
</g>
</g>
<!-- Node3&#45;&gt;Node4 -->
<g id="edge3" class="edge">
<title>Node3&#45;&gt;Node4</title>
<path fill="none" stroke="midnightblue" d="M167.9,-15.5C159.29,-15.5 150.59,-15.5 142.11,-15.5"/>
<polygon fill="midnightblue" stroke="midnightblue" points="167.93,-19 177.93,-15.5 167.93,-12 167.93,-19"/>
</g>
</g>
</svg>
