<?xml version="1.0" encoding="UTF-8" standalone="no"?>
<!DOCTYPE svg PUBLIC "-//W3C//DTD SVG 1.1//EN"
 "http://www.w3.org/Graphics/SVG/1.1/DTD/svg11.dtd">
<!-- Generated by graphviz version 2.43.0 (0)
 -->
<!-- Title: lyra::detail::NonCopyable Pages: 1 -->
<svg width="925pt" height="203pt"
 viewBox="0.00 0.00 925.00 202.50" xmlns="http://www.w3.org/2000/svg" xmlns:xlink="http://www.w3.org/1999/xlink">
<g id="graph0" class="graph" transform="scale(1 1) rotate(0) translate(4 198.5)">
<title>lyra::detail::NonCopyable</title>
<polygon fill="white" stroke="transparent" points="-4,4 -4,-198.5 921,-198.5 921,4 -4,4"/>
<!-- Node1 -->
<g id="node1" class="node">
<title>Node1</title>
<g id="a_node1"><a xlink:title=" ">
<polygon fill="#bfbfbf" stroke="black" points="0,-96 0,-115 140,-115 140,-96 0,-96"/>
<text text-anchor="middle" x="70" y="-103" font-family="Helvetica,sans-Serif" font-size="10.00">lyra::detail::NonCopyable</text>
</a>
</g>
</g>
<!-- Node2 -->
<g id="node2" class="node">
<title>Node2</title>
<g id="a_node2"><a xlink:href="structlyra_1_1detail_1_1_bound_ref.html" target="_top" xlink:title=" ">
<polygon fill="white" stroke="black" points="176,-96 176,-115 298,-115 298,-96 176,-96"/>
<text text-anchor="middle" x="237" y="-103" font-family="Helvetica,sans-Serif" font-size="10.00">lyra::detail::BoundRef</text>
</a>
</g>
</g>
<!-- Node1&#45;&gt;Node2 -->
<g id="edge1" class="edge">
<title>Node1&#45;&gt;Node2</title>
<path fill="none" stroke="midnightblue" d="M150.15,-98.75C158.81,-98.73 167.53,-98.8 175.91,-98.98"/>
<polygon fill="midnightblue" stroke="midnightblue" points="149.99,-95.26 140.02,-98.83 150.04,-102.26 149.99,-95.26"/>
</g>
<!-- Node1&#45;&gt;Node2 -->
<g id="edge18" class="edge">
<title>Node1&#45;&gt;Node2</title>
<path fill="none" stroke="midnightblue" d="M150.15,-112.25C158.81,-112.27 167.53,-112.2 175.91,-112.02"/>
<polygon fill="midnightblue" stroke="midnightblue" points="150.04,-108.74 140.02,-112.17 149.99,-115.74 150.04,-108.74"/>
</g>
<!-- Node3 -->
<g id="node3" class="node">
<title>Node3</title>
<g id="a_node3"><a xlink:href="structlyra_1_1detail_1_1_bound_flag_ref_base.html" target="_top" xlink:title=" ">
<polygon fill="white" stroke="black" points="334,-137 334,-156 501,-156 501,-137 334,-137"/>
<text text-anchor="middle" x="417.5" y="-144" font-family="Helvetica,sans-Serif" font-size="10.00">lyra::detail::BoundFlagRefBase</text>
</a>
</g>
</g>
<!-- Node2&#45;&gt;Node3 -->
<g id="edge2" class="edge">
<title>Node2&#45;&gt;Node3</title>
<path fill="none" stroke="midnightblue" d="M308.36,-115.05C339.35,-121.71 373.53,-130.24 395,-136.98"/>
<polygon fill="midnightblue" stroke="midnightblue" points="308.94,-111.59 298.43,-112.95 307.49,-118.44 308.94,-111.59"/>
</g>
<!-- Node2&#45;&gt;Node3 -->
<g id="edge7" class="edge">
<title>Node2&#45;&gt;Node3</title>
<path fill="none" stroke="midnightblue" d="M269.32,-117.97C290.61,-124.15 319.65,-131.26 346.31,-136.99"/>
<polygon fill="midnightblue" stroke="midnightblue" points="270.12,-114.56 259.53,-115.03 268.1,-121.26 270.12,-114.56"/>
</g>
<!-- Node6 -->
<g id="node6" class="node">
<title>Node6</title>
<g id="a_node6"><a xlink:href="structlyra_1_1detail_1_1_bound_value_ref_base.html" target="_top" xlink:title=" ">
<polygon fill="white" stroke="black" points="350.5,-68.5 350.5,-98.5 484.5,-98.5 484.5,-68.5 350.5,-68.5"/>
<text text-anchor="start" x="358.5" y="-86.5" font-family="Helvetica,sans-Serif" font-size="10.00">lyra::detail::BoundValue</text>
<text text-anchor="middle" x="417.5" y="-75.5" font-family="Helvetica,sans-Serif" font-size="10.00">RefBase</text>
</a>
</g>
</g>
<!-- Node2&#45;&gt;Node6 -->
<g id="edge8" class="edge">
<title>Node2&#45;&gt;Node6</title>
<path fill="none" stroke="midnightblue" d="M281.61,-94.23C302.22,-90.84 327.27,-87.54 350.17,-85.13"/>
<polygon fill="midnightblue" stroke="midnightblue" points="280.84,-90.81 271.57,-95.95 282.02,-97.71 280.84,-90.81"/>
</g>
<!-- Node2&#45;&gt;Node6 -->
<g id="edge17" class="edge">
<title>Node2&#45;&gt;Node6</title>
<path fill="none" stroke="midnightblue" d="M308.77,-103.4C322.46,-101.91 336.77,-100.12 350.31,-98.2"/>
<polygon fill="midnightblue" stroke="midnightblue" points="308.01,-99.96 298.43,-104.48 308.74,-106.92 308.01,-99.96"/>
</g>
<!-- Node4 -->
<g id="node4" class="node">
<title>Node4</title>
<g id="a_node4"><a xlink:href="structlyra_1_1detail_1_1_bound_flag_lambda.html" target="_top" xlink:title=" ">
<polygon fill="white" stroke="black" points="537,-175 537,-194 731,-194 731,-175 537,-175"/>
<text text-anchor="middle" x="634" y="-182" font-family="Helvetica,sans-Serif" font-size="10.00">lyra::detail::BoundFlagLambda&lt; L &gt;</text>
</a>
</g>
</g>
<!-- Node3&#45;&gt;Node4 -->
<g id="edge3" class="edge">
<title>Node3&#45;&gt;Node4</title>
<path fill="none" stroke="midnightblue" d="M511.2,-156.23C545.47,-162.04 581.75,-169.13 605.71,-174.98"/>
<polygon fill="midnightblue" stroke="midnightblue" points="511.56,-152.74 501.12,-154.55 510.41,-159.65 511.56,-152.74"/>
</g>
<!-- Node3&#45;&gt;Node4 -->
<g id="edge4" class="edge">
<title>Node3&#45;&gt;Node4</title>
<path fill="none" stroke="midnightblue" d="M456.05,-158.43C479.72,-163.81 511.38,-169.89 541.37,-174.95"/>
<polygon fill="midnightblue" stroke="midnightblue" points="456.64,-154.97 446.1,-156.09 455.04,-161.79 456.64,-154.97"/>
</g>
<!-- Node5 -->
<g id="node5" class="node">
<title>Node5</title>
<g id="a_node5"><a xlink:href="structlyra_1_1detail_1_1_bound_flag_ref.html" target="_top" xlink:title=" ">
<polygon fill="white" stroke="black" points="562.5,-137 562.5,-156 705.5,-156 705.5,-137 562.5,-137"/>
<text text-anchor="middle" x="634" y="-144" font-family="Helvetica,sans-Serif" font-size="10.00">lyra::detail::BoundFlagRef</text>
</a>
</g>
</g>
<!-- Node3&#45;&gt;Node5 -->
<g id="edge5" class="edge">
<title>Node3&#45;&gt;Node5</title>
<path fill="none" stroke="midnightblue" d="M511.14,-139.81C528.28,-139.67 545.93,-139.78 562.28,-140.11"/>
<polygon fill="midnightblue" stroke="midnightblue" points="511.09,-136.31 501.12,-139.91 511.16,-143.31 511.09,-136.31"/>
</g>
<!-- Node3&#45;&gt;Node5 -->
<g id="edge6" class="edge">
<title>Node3&#45;&gt;Node5</title>
<path fill="none" stroke="midnightblue" d="M511.14,-153.19C528.28,-153.33 545.93,-153.22 562.28,-152.89"/>
<polygon fill="midnightblue" stroke="midnightblue" points="511.16,-149.69 501.12,-153.09 511.09,-156.69 511.16,-149.69"/>
</g>
<!-- Node7 -->
<g id="node7" class="node">
<title>Node7</title>
<g id="a_node7"><a xlink:href="structlyra_1_1detail_1_1_bound_lambda.html" target="_top" xlink:title=" ">
<polygon fill="white" stroke="black" points="547.5,-99 547.5,-118 720.5,-118 720.5,-99 547.5,-99"/>
<text text-anchor="middle" x="634" y="-106" font-family="Helvetica,sans-Serif" font-size="10.00">lyra::detail::BoundLambda&lt; L &gt;</text>
</a>
</g>
</g>
<!-- Node6&#45;&gt;Node7 -->
<g id="edge9" class="edge">
<title>Node6&#45;&gt;Node7</title>
<path fill="none" stroke="midnightblue" d="M494.66,-85.89C529.13,-89.31 568.29,-94.29 596.12,-98.96"/>
<polygon fill="midnightblue" stroke="midnightblue" points="494.9,-82.39 484.61,-84.92 494.23,-89.36 494.9,-82.39"/>
</g>
<!-- Node6&#45;&gt;Node7 -->
<g id="edge10" class="edge">
<title>Node6&#45;&gt;Node7</title>
<path fill="none" stroke="midnightblue" d="M494.53,-98.85C511.62,-101.14 529.88,-103.31 547.34,-105.14"/>
<polygon fill="midnightblue" stroke="midnightblue" points="494.99,-95.38 484.61,-97.49 494.04,-102.32 494.99,-95.38"/>
</g>
<!-- Node8 -->
<g id="node8" class="node">
<title>Node8</title>
<g id="a_node8"><a xlink:href="structlyra_1_1detail_1_1_bound_value_ref.html" target="_top" xlink:title=" ">
<polygon fill="white" stroke="black" points="567,-49.5 567,-79.5 701,-79.5 701,-49.5 567,-49.5"/>
<text text-anchor="start" x="575" y="-67.5" font-family="Helvetica,sans-Serif" font-size="10.00">lyra::detail::BoundValue</text>
<text text-anchor="middle" x="634" y="-56.5" font-family="Helvetica,sans-Serif" font-size="10.00">Ref&lt; T &gt;</text>
</a>
</g>
</g>
<!-- Node6&#45;&gt;Node8 -->
<g id="edge11" class="edge">
<title>Node6&#45;&gt;Node8</title>
<path fill="none" stroke="midnightblue" d="M494.56,-70.27C518.13,-67.78 543.89,-65.57 566.74,-64.08"/>
<polygon fill="midnightblue" stroke="midnightblue" points="494.17,-66.79 484.61,-71.36 494.93,-73.75 494.17,-66.79"/>
</g>
<!-- Node6&#45;&gt;Node8 -->
<g id="edge14" class="edge">
<title>Node6&#45;&gt;Node8</title>
<path fill="none" stroke="midnightblue" d="M494.87,-83.23C518.36,-81.55 544,-79.21 566.74,-76.66"/>
<polygon fill="midnightblue" stroke="midnightblue" points="494.35,-79.76 484.61,-83.93 494.82,-86.74 494.35,-79.76"/>
</g>
<!-- Node10 -->
<g id="node10" class="node">
<title>Node10</title>
<g id="a_node10"><a xlink:href="structlyra_1_1detail_1_1_bound_value_ref_3_01std_1_1vector_3_01_t_01_4_01_4.html" target="_top" xlink:title=" ">
<polygon fill="white" stroke="black" points="566,-0.5 566,-30.5 702,-30.5 702,-0.5 566,-0.5"/>
<text text-anchor="start" x="574" y="-18.5" font-family="Helvetica,sans-Serif" font-size="10.00">lyra::detail::BoundValue</text>
<text text-anchor="middle" x="634" y="-7.5" font-family="Helvetica,sans-Serif" font-size="10.00">Ref&lt; std::vector&lt; T &gt; &gt;</text>
</a>
</g>
</g>
<!-- Node6&#45;&gt;Node10 -->
<g id="edge15" class="edge">
<title>Node6&#45;&gt;Node10</title>
<path fill="none" stroke="midnightblue" d="M449.35,-64.02C473.11,-53.32 506.88,-40.87 537,-31.5 546.29,-28.61 556.16,-25.78 565.89,-23.22"/>
<polygon fill="midnightblue" stroke="midnightblue" points="447.71,-60.92 440.13,-68.33 450.67,-67.26 447.71,-60.92"/>
</g>
<!-- Node6&#45;&gt;Node10 -->
<g id="edge16" class="edge">
<title>Node6&#45;&gt;Node10</title>
<path fill="none" stroke="midnightblue" d="M489.76,-65.21C505.24,-59.88 521.6,-54.29 537,-49.5 558.54,-42.8 583.18,-36.41 602.1,-30.56"/>
<polygon fill="midnightblue" stroke="midnightblue" points="488.56,-61.92 480.25,-68.48 490.84,-68.54 488.56,-61.92"/>
</g>
<!-- Node9 -->
<g id="node9" class="node">
<title>Node9</title>
<g id="a_node9"><a xlink:href="structlyra_1_1detail_1_1_bound_val.html" target="_top" xlink:title=" ">
<polygon fill="white" stroke="black" points="767,-55 767,-74 917,-74 917,-55 767,-55"/>
<text text-anchor="middle" x="842" y="-62" font-family="Helvetica,sans-Serif" font-size="10.00">lyra::detail::BoundVal&lt; T &gt;</text>
</a>
</g>
</g>
<!-- Node8&#45;&gt;Node9 -->
<g id="edge12" class="edge">
<title>Node8&#45;&gt;Node9</title>
<path fill="none" stroke="midnightblue" d="M711.26,-57.96C729.39,-57.67 748.72,-57.68 766.76,-57.99"/>
<polygon fill="midnightblue" stroke="midnightblue" points="710.96,-54.46 701.03,-58.15 711.09,-61.46 710.96,-54.46"/>
</g>
<!-- Node8&#45;&gt;Node9 -->
<g id="edge13" class="edge">
<title>Node8&#45;&gt;Node9</title>
<path fill="none" stroke="midnightblue" d="M711.26,-71.04C729.39,-71.33 748.72,-71.32 766.76,-71.01"/>
<polygon fill="midnightblue" stroke="midnightblue" points="711.09,-67.54 701.03,-70.85 710.96,-74.54 711.09,-67.54"/>
</g>
</g>
</svg>
