<?xml version="1.0" encoding="UTF-8" standalone="no"?>
<!DOCTYPE svg PUBLIC "-//W3C//DTD SVG 1.1//EN"
 "http://www.w3.org/Graphics/SVG/1.1/DTD/svg11.dtd">
<!-- Generated by graphviz version 2.43.0 (0)
 -->
<!-- Title: lyra::detail::BoundValueRef&lt; std::vector&lt; T &gt; &gt; Pages: 1 -->
<svg width="148pt" height="218pt"
 viewBox="0.00 0.00 148.00 218.00" xmlns="http://www.w3.org/2000/svg" xmlns:xlink="http://www.w3.org/1999/xlink">
<g id="graph0" class="graph" transform="scale(1 1) rotate(0) translate(4 214)">
<title>lyra::detail::BoundValueRef&lt; std::vector&lt; T &gt; &gt;</title>
<polygon fill="white" stroke="transparent" points="-4,4 -4,-214 144,-214 144,4 -4,4"/>
<!-- Node1 -->
<g id="node1" class="node">
<title>Node1</title>
<g id="a_node1"><a xlink:title=" ">
<polygon fill="#bfbfbf" stroke="black" points="2,-0.5 2,-30.5 138,-30.5 138,-0.5 2,-0.5"/>
<text text-anchor="start" x="10" y="-18.5" font-family="Helvetica,sans-Serif" font-size="10.00">lyra::detail::BoundValue</text>
<text text-anchor="middle" x="70" y="-7.5" font-family="Helvetica,sans-Serif" font-size="10.00">Ref&lt; std::vector&lt; T &gt; &gt;</text>
</a>
</g>
</g>
<!-- Node2 -->
<g id="node2" class="node">
<title>Node2</title>
<g id="a_node2"><a xlink:href="structlyra_1_1detail_1_1_bound_value_ref_base.html" target="_top" xlink:title=" ">
<polygon fill="white" stroke="black" points="3,-67.5 3,-97.5 137,-97.5 137,-67.5 3,-67.5"/>
<text text-anchor="start" x="11" y="-85.5" font-family="Helvetica,sans-Serif" font-size="10.00">lyra::detail::BoundValue</text>
<text text-anchor="middle" x="70" y="-74.5" font-family="Helvetica,sans-Serif" font-size="10.00">RefBase</text>
</a>
</g>
</g>
<!-- Node2&#45;&gt;Node1 -->
<g id="edge1" class="edge">
<title>Node2&#45;&gt;Node1</title>
<path fill="none" stroke="midnightblue" d="M63.45,-57.4C63.01,-48.37 63.3,-38.41 64.33,-30.58"/>
<polygon fill="midnightblue" stroke="midnightblue" points="59.97,-57.74 64.32,-67.4 66.94,-57.13 59.97,-57.74"/>
</g>
<!-- Node2&#45;&gt;Node1 -->
<g id="edge6" class="edge">
<title>Node2&#45;&gt;Node1</title>
<path fill="none" stroke="midnightblue" d="M76.55,-57.4C76.99,-48.37 76.7,-38.41 75.67,-30.58"/>
<polygon fill="midnightblue" stroke="midnightblue" points="73.06,-57.13 75.68,-67.4 80.03,-57.74 73.06,-57.13"/>
</g>
<!-- Node3 -->
<g id="node3" class="node">
<title>Node3</title>
<g id="a_node3"><a xlink:href="structlyra_1_1detail_1_1_bound_ref.html" target="_top" xlink:title=" ">
<polygon fill="white" stroke="black" points="9,-134.5 9,-153.5 131,-153.5 131,-134.5 9,-134.5"/>
<text text-anchor="middle" x="70" y="-141.5" font-family="Helvetica,sans-Serif" font-size="10.00">lyra::detail::BoundRef</text>
</a>
</g>
</g>
<!-- Node3&#45;&gt;Node2 -->
<g id="edge2" class="edge">
<title>Node3&#45;&gt;Node2</title>
<path fill="none" stroke="midnightblue" d="M63.7,-124.53C62.97,-115.81 63.13,-105.59 64.17,-97.52"/>
<polygon fill="midnightblue" stroke="midnightblue" points="60.24,-125.06 65.1,-134.48 67.17,-124.09 60.24,-125.06"/>
</g>
<!-- Node3&#45;&gt;Node2 -->
<g id="edge5" class="edge">
<title>Node3&#45;&gt;Node2</title>
<path fill="none" stroke="midnightblue" d="M76.3,-124.53C77.03,-115.81 76.87,-105.59 75.83,-97.52"/>
<polygon fill="midnightblue" stroke="midnightblue" points="72.83,-124.09 74.9,-134.48 79.76,-125.06 72.83,-124.09"/>
</g>
<!-- Node4 -->
<g id="node4" class="node">
<title>Node4</title>
<g id="a_node4"><a xlink:href="structlyra_1_1detail_1_1_non_copyable.html" target="_top" xlink:title=" ">
<polygon fill="white" stroke="black" points="0,-190.5 0,-209.5 140,-209.5 140,-190.5 0,-190.5"/>
<text text-anchor="middle" x="70" y="-197.5" font-family="Helvetica,sans-Serif" font-size="10.00">lyra::detail::NonCopyable</text>
</a>
</g>
</g>
<!-- Node4&#45;&gt;Node3 -->
<g id="edge3" class="edge">
<title>Node4&#45;&gt;Node3</title>
<path fill="none" stroke="midnightblue" d="M63.53,-180.1C62.9,-171.14 63.34,-160.86 64.87,-153.75"/>
<polygon fill="midnightblue" stroke="midnightblue" points="60.07,-180.62 64.83,-190.08 67.01,-179.71 60.07,-180.62"/>
</g>
<!-- Node4&#45;&gt;Node3 -->
<g id="edge4" class="edge">
<title>Node4&#45;&gt;Node3</title>
<path fill="none" stroke="midnightblue" d="M76.47,-180.1C77.1,-171.14 76.66,-160.86 75.13,-153.75"/>
<polygon fill="midnightblue" stroke="midnightblue" points="72.99,-179.71 75.17,-190.08 79.93,-180.62 72.99,-179.71"/>
</g>
</g>
</svg>
