<?xml version="1.0" encoding="UTF-8" standalone="no"?>
<!DOCTYPE svg PUBLIC "-//W3C//DTD SVG 1.1//EN"
 "http://www.w3.org/Graphics/SVG/1.1/DTD/svg11.dtd">
<!-- Generated by graphviz version 2.43.0 (0)
 -->
<!-- Title: MainNamespace::Options::saveError Pages: 1 -->
<svg width="538pt" height="83pt"
 viewBox="0.00 0.00 538.00 83.00" xmlns="http://www.w3.org/2000/svg" xmlns:xlink="http://www.w3.org/1999/xlink">
<g id="graph0" class="graph" transform="scale(1 1) rotate(0) translate(4 79)">
<title>MainNamespace::Options::saveError</title>
<polygon fill="white" stroke="transparent" points="-4,4 -4,-79 534,-79 534,4 -4,4"/>
<!-- Node1 -->
<g id="node1" class="node">
<title>Node1</title>
<g id="a_node1"><a xlink:title=" ">
<polygon fill="#bfbfbf" stroke="black" points="388,-22.5 388,-52.5 530,-52.5 530,-22.5 388,-22.5"/>
<text text-anchor="start" x="396" y="-40.5" font-family="Helvetica,sans-Serif" font-size="10.00">MainNamespace::Options</text>
<text text-anchor="middle" x="459" y="-29.5" font-family="Helvetica,sans-Serif" font-size="10.00">::saveError</text>
</a>
</g>
</g>
<!-- Node2 -->
<g id="node2" class="node">
<title>Node2</title>
<g id="a_node2"><a xlink:href="namespace_main_namespace.html#a5e50f145edc0e262f44ea6b4a46aa2b0" target="_top" xlink:title=" ">
<polygon fill="white" stroke="black" points="201,-50 201,-69 352,-69 352,-50 201,-50"/>
<text text-anchor="middle" x="276.5" y="-57" font-family="Helvetica,sans-Serif" font-size="10.00">MainNamespace::saveError</text>
</a>
</g>
</g>
<!-- Node1&#45;&gt;Node2 -->
<g id="edge1" class="edge">
<title>Node1&#45;&gt;Node2</title>
<path fill="none" stroke="midnightblue" d="M377.99,-47.25C369.45,-48.29 360.77,-49.35 352.29,-50.38"/>
<polygon fill="midnightblue" stroke="midnightblue" points="378.45,-50.72 387.96,-46.04 377.61,-43.77 378.45,-50.72"/>
</g>
<!-- Node4 -->
<g id="node4" class="node">
<title>Node4</title>
<g id="a_node4"><a xlink:href="struct_main_namespace_1_1_options.html#a933da8bcf7628e9b8608d2464c43c38d" target="_top" xlink:title=" ">
<polygon fill="white" stroke="black" points="205.5,-0.5 205.5,-30.5 347.5,-30.5 347.5,-0.5 205.5,-0.5"/>
<text text-anchor="start" x="213.5" y="-18.5" font-family="Helvetica,sans-Serif" font-size="10.00">MainNamespace::Options</text>
<text text-anchor="middle" x="276.5" y="-7.5" font-family="Helvetica,sans-Serif" font-size="10.00">::saveError</text>
</a>
</g>
</g>
<!-- Node1&#45;&gt;Node4 -->
<g id="edge3" class="edge">
<title>Node1&#45;&gt;Node4</title>
<path fill="none" stroke="midnightblue" d="M377.9,-27.74C367.77,-26.5 357.46,-25.25 347.5,-24.03"/>
<polygon fill="midnightblue" stroke="midnightblue" points="377.61,-31.23 387.96,-28.96 378.45,-24.28 377.61,-31.23"/>
</g>
<!-- Node3 -->
<g id="node3" class="node">
<title>Node3</title>
<g id="a_node3"><a xlink:href="class_main_namespace_1_1_mesh_reader.html#ac9fe1c957a70a29b35b8118a83a3111c" target="_top" xlink:title=" ">
<polygon fill="white" stroke="black" points="0,-44.5 0,-74.5 165,-74.5 165,-44.5 0,-44.5"/>
<text text-anchor="start" x="8" y="-62.5" font-family="Helvetica,sans-Serif" font-size="10.00">MainNamespace::MeshReader</text>
<text text-anchor="middle" x="82.5" y="-51.5" font-family="Helvetica,sans-Serif" font-size="10.00">::MeshReader</text>
</a>
</g>
</g>
<!-- Node2&#45;&gt;Node3 -->
<g id="edge2" class="edge">
<title>Node2&#45;&gt;Node3</title>
<path fill="none" stroke="midnightblue" d="M190.75,-59.5C182.29,-59.5 173.72,-59.5 165.29,-59.5"/>
<polygon fill="midnightblue" stroke="midnightblue" points="190.99,-63 200.99,-59.5 190.99,-56 190.99,-63"/>
</g>
</g>
</svg>
