<?xml version="1.0" encoding="UTF-8" standalone="no"?>
<!DOCTYPE svg PUBLIC "-//W3C//DTD SVG 1.1//EN"
 "http://www.w3.org/Graphics/SVG/1.1/DTD/svg11.dtd">
<!-- Generated by graphviz version 2.43.0 (0)
 -->
<!-- Title: lyra::detail::BoundFlagRef Pages: 1 -->
<svg width="231pt" height="209pt"
 viewBox="0.00 0.00 230.50 209.00" xmlns="http://www.w3.org/2000/svg" xmlns:xlink="http://www.w3.org/1999/xlink">
<g id="graph0" class="graph" transform="scale(1 1) rotate(0) translate(4 205)">
<title>lyra::detail::BoundFlagRef</title>
<polygon fill="white" stroke="transparent" points="-4,4 -4,-205 226.5,-205 226.5,4 -4,4"/>
<!-- Node1 -->
<g id="node1" class="node">
<title>Node1</title>
<g id="a_node1"><a xlink:title=" ">
<polygon fill="#bfbfbf" stroke="black" points="12,-0.5 12,-19.5 155,-19.5 155,-0.5 12,-0.5"/>
<text text-anchor="middle" x="83.5" y="-7.5" font-family="Helvetica,sans-Serif" font-size="10.00">lyra::detail::BoundFlagRef</text>
</a>
</g>
</g>
<!-- Node2 -->
<g id="node2" class="node">
<title>Node2</title>
<g id="a_node2"><a xlink:href="structlyra_1_1detail_1_1_bound_flag_ref_base.html" target="_top" xlink:title=" ">
<polygon fill="white" stroke="black" points="0,-67.5 0,-86.5 167,-86.5 167,-67.5 0,-67.5"/>
<text text-anchor="middle" x="83.5" y="-74.5" font-family="Helvetica,sans-Serif" font-size="10.00">lyra::detail::BoundFlagRefBase</text>
</a>
</g>
</g>
<!-- Node2&#45;&gt;Node1 -->
<g id="edge1" class="edge">
<title>Node2&#45;&gt;Node1</title>
<path fill="none" stroke="midnightblue" d="M77.3,-57.04C76.24,-44.67 76.72,-29.12 78.74,-19.63"/>
<polygon fill="midnightblue" stroke="midnightblue" points="73.87,-57.81 78.71,-67.23 80.81,-56.85 73.87,-57.81"/>
</g>
<!-- Node2&#45;&gt;Node1 -->
<g id="edge6" class="edge">
<title>Node2&#45;&gt;Node1</title>
<path fill="none" stroke="midnightblue" d="M89.7,-57.04C90.76,-44.67 90.28,-29.12 88.26,-19.63"/>
<polygon fill="midnightblue" stroke="midnightblue" points="86.19,-56.85 88.29,-67.23 93.13,-57.81 86.19,-56.85"/>
</g>
<!-- Node3 -->
<g id="node3" class="node">
<title>Node3</title>
<g id="a_node3"><a xlink:href="structlyra_1_1detail_1_1_bound_ref.html" target="_top" xlink:title=" ">
<polygon fill="white" stroke="black" points="22.5,-124.5 22.5,-143.5 144.5,-143.5 144.5,-124.5 22.5,-124.5"/>
<text text-anchor="middle" x="83.5" y="-131.5" font-family="Helvetica,sans-Serif" font-size="10.00">lyra::detail::BoundRef</text>
</a>
</g>
</g>
<!-- Node3&#45;&gt;Node2 -->
<g id="edge2" class="edge">
<title>Node3&#45;&gt;Node2</title>
<path fill="none" stroke="midnightblue" d="M77.08,-114.42C76.37,-105.05 76.81,-94.14 78.41,-86.71"/>
<polygon fill="midnightblue" stroke="midnightblue" points="73.62,-114.97 78.44,-124.41 80.55,-114.03 73.62,-114.97"/>
</g>
<!-- Node3&#45;&gt;Node2 -->
<g id="edge5" class="edge">
<title>Node3&#45;&gt;Node2</title>
<path fill="none" stroke="midnightblue" d="M89.92,-114.42C90.63,-105.05 90.19,-94.14 88.59,-86.71"/>
<polygon fill="midnightblue" stroke="midnightblue" points="86.45,-114.03 88.56,-124.41 93.38,-114.97 86.45,-114.03"/>
</g>
<!-- Node4 -->
<g id="node4" class="node">
<title>Node4</title>
<g id="a_node4"><a xlink:href="structlyra_1_1detail_1_1_non_copyable.html" target="_top" xlink:title=" ">
<polygon fill="white" stroke="black" points="13.5,-181.5 13.5,-200.5 153.5,-200.5 153.5,-181.5 13.5,-181.5"/>
<text text-anchor="middle" x="83.5" y="-188.5" font-family="Helvetica,sans-Serif" font-size="10.00">lyra::detail::NonCopyable</text>
</a>
</g>
</g>
<!-- Node4&#45;&gt;Node3 -->
<g id="edge3" class="edge">
<title>Node4&#45;&gt;Node3</title>
<path fill="none" stroke="midnightblue" d="M77.08,-171.42C76.37,-162.05 76.81,-151.14 78.41,-143.71"/>
<polygon fill="midnightblue" stroke="midnightblue" points="73.62,-171.97 78.44,-181.41 80.55,-171.03 73.62,-171.97"/>
</g>
<!-- Node4&#45;&gt;Node3 -->
<g id="edge4" class="edge">
<title>Node4&#45;&gt;Node3</title>
<path fill="none" stroke="midnightblue" d="M89.92,-171.42C90.63,-162.05 90.19,-151.14 88.59,-143.71"/>
<polygon fill="midnightblue" stroke="midnightblue" points="86.45,-171.03 88.56,-181.41 93.38,-171.97 86.45,-171.03"/>
</g>
<!-- Node5 -->
<g id="node5" class="node">
<title>Node5</title>
<g id="a_node5"><a xlink:title=" ">
<polygon fill="white" stroke="black" points="184.5,-67.5 184.5,-86.5 222.5,-86.5 222.5,-67.5 184.5,-67.5"/>
<text text-anchor="middle" x="203.5" y="-74.5" font-family="Helvetica,sans-Serif" font-size="10.00">bool</text>
</a>
</g>
</g>
<!-- Node5&#45;&gt;Node1 -->
<g id="edge7" class="edge">
<title>Node5&#45;&gt;Node1</title>
<path fill="none" stroke="#9a32cd" stroke-dasharray="5,2" d="M178.5,-62.46C154.71,-49.57 119.63,-30.57 99.43,-19.63"/>
<polygon fill="#9a32cd" stroke="#9a32cd" points="176.86,-65.55 187.32,-67.23 180.19,-59.39 176.86,-65.55"/>
<text text-anchor="middle" x="167.5" y="-41" font-family="Helvetica,sans-Serif" font-size="10.00"> m_ref</text>
</g>
</g>
</svg>
