<?xml version="1.0" encoding="UTF-8" standalone="no"?>
<!DOCTYPE svg PUBLIC "-//W3C//DTD SVG 1.1//EN"
 "http://www.w3.org/Graphics/SVG/1.1/DTD/svg11.dtd">
<!-- Generated by graphviz version 2.43.0 (0)
 -->
<!-- Title: lyra::detail::BoundLambda&lt; L &gt; Pages: 1 -->
<svg width="181pt" height="207pt"
 viewBox="0.00 0.00 181.00 207.00" xmlns="http://www.w3.org/2000/svg" xmlns:xlink="http://www.w3.org/1999/xlink">
<g id="graph0" class="graph" transform="scale(1 1) rotate(0) translate(4 203)">
<title>lyra::detail::BoundLambda&lt; L &gt;</title>
<polygon fill="white" stroke="transparent" points="-4,4 -4,-203 177,-203 177,4 -4,4"/>
<!-- Node1 -->
<g id="node1" class="node">
<title>Node1</title>
<g id="a_node1"><a xlink:title=" ">
<polygon fill="#bfbfbf" stroke="black" points="0,-0.5 0,-19.5 173,-19.5 173,-0.5 0,-0.5"/>
<text text-anchor="middle" x="86.5" y="-7.5" font-family="Helvetica,sans-Serif" font-size="10.00">lyra::detail::BoundLambda&lt; L &gt;</text>
</a>
</g>
</g>
<!-- Node2 -->
<g id="node2" class="node">
<title>Node2</title>
<g id="a_node2"><a xlink:href="structlyra_1_1detail_1_1_bound_value_ref_base.html" target="_top" xlink:title=" ">
<polygon fill="white" stroke="black" points="19.5,-56.5 19.5,-86.5 153.5,-86.5 153.5,-56.5 19.5,-56.5"/>
<text text-anchor="start" x="27.5" y="-74.5" font-family="Helvetica,sans-Serif" font-size="10.00">lyra::detail::BoundValue</text>
<text text-anchor="middle" x="86.5" y="-63.5" font-family="Helvetica,sans-Serif" font-size="10.00">RefBase</text>
</a>
</g>
</g>
<!-- Node2&#45;&gt;Node1 -->
<g id="edge1" class="edge">
<title>Node2&#45;&gt;Node1</title>
<path fill="none" stroke="midnightblue" d="M79.86,-46.29C79.49,-36.86 80.07,-26.65 81.57,-19.66"/>
<polygon fill="midnightblue" stroke="midnightblue" points="76.38,-46.71 80.66,-56.4 83.36,-46.15 76.38,-46.71"/>
</g>
<!-- Node2&#45;&gt;Node1 -->
<g id="edge6" class="edge">
<title>Node2&#45;&gt;Node1</title>
<path fill="none" stroke="midnightblue" d="M93.14,-46.29C93.51,-36.86 92.93,-26.65 91.43,-19.66"/>
<polygon fill="midnightblue" stroke="midnightblue" points="89.64,-46.15 92.34,-56.4 96.62,-46.71 89.64,-46.15"/>
</g>
<!-- Node3 -->
<g id="node3" class="node">
<title>Node3</title>
<g id="a_node3"><a xlink:href="structlyra_1_1detail_1_1_bound_ref.html" target="_top" xlink:title=" ">
<polygon fill="white" stroke="black" points="25.5,-123.5 25.5,-142.5 147.5,-142.5 147.5,-123.5 25.5,-123.5"/>
<text text-anchor="middle" x="86.5" y="-130.5" font-family="Helvetica,sans-Serif" font-size="10.00">lyra::detail::BoundRef</text>
</a>
</g>
</g>
<!-- Node3&#45;&gt;Node2 -->
<g id="edge2" class="edge">
<title>Node3&#45;&gt;Node2</title>
<path fill="none" stroke="midnightblue" d="M80.2,-113.53C79.47,-104.81 79.63,-94.59 80.67,-86.52"/>
<polygon fill="midnightblue" stroke="midnightblue" points="76.74,-114.06 81.6,-123.48 83.67,-113.09 76.74,-114.06"/>
</g>
<!-- Node3&#45;&gt;Node2 -->
<g id="edge5" class="edge">
<title>Node3&#45;&gt;Node2</title>
<path fill="none" stroke="midnightblue" d="M92.8,-113.53C93.53,-104.81 93.37,-94.59 92.33,-86.52"/>
<polygon fill="midnightblue" stroke="midnightblue" points="89.33,-113.09 91.4,-123.48 96.26,-114.06 89.33,-113.09"/>
</g>
<!-- Node4 -->
<g id="node4" class="node">
<title>Node4</title>
<g id="a_node4"><a xlink:href="structlyra_1_1detail_1_1_non_copyable.html" target="_top" xlink:title=" ">
<polygon fill="white" stroke="black" points="16.5,-179.5 16.5,-198.5 156.5,-198.5 156.5,-179.5 16.5,-179.5"/>
<text text-anchor="middle" x="86.5" y="-186.5" font-family="Helvetica,sans-Serif" font-size="10.00">lyra::detail::NonCopyable</text>
</a>
</g>
</g>
<!-- Node4&#45;&gt;Node3 -->
<g id="edge3" class="edge">
<title>Node4&#45;&gt;Node3</title>
<path fill="none" stroke="midnightblue" d="M80.03,-169.1C79.4,-160.14 79.84,-149.86 81.37,-142.75"/>
<polygon fill="midnightblue" stroke="midnightblue" points="76.57,-169.62 81.33,-179.08 83.51,-168.71 76.57,-169.62"/>
</g>
<!-- Node4&#45;&gt;Node3 -->
<g id="edge4" class="edge">
<title>Node4&#45;&gt;Node3</title>
<path fill="none" stroke="midnightblue" d="M92.97,-169.1C93.6,-160.14 93.16,-149.86 91.63,-142.75"/>
<polygon fill="midnightblue" stroke="midnightblue" points="89.49,-168.71 91.67,-179.08 96.43,-169.62 89.49,-168.71"/>
</g>
</g>
</svg>
