<?xml version="1.0" encoding="UTF-8" standalone="no"?>
<!DOCTYPE svg PUBLIC "-//W3C//DTD SVG 1.1//EN"
 "http://www.w3.org/Graphics/SVG/1.1/DTD/svg11.dtd">
<!-- Generated by graphviz version 2.43.0 (0)
 -->
<!-- Title: lyra::detail::is_specialization_of&lt; Primary&lt; Args... &gt;, Primary &gt; Pages: 1 -->
<svg width="198pt" height="95pt"
 viewBox="0.00 0.00 198.00 95.00" xmlns="http://www.w3.org/2000/svg" xmlns:xlink="http://www.w3.org/1999/xlink">
<g id="graph0" class="graph" transform="scale(1 1) rotate(0) translate(4 91)">
<title>lyra::detail::is_specialization_of&lt; Primary&lt; Args... &gt;, Primary &gt;</title>
<polygon fill="white" stroke="transparent" points="-4,4 -4,-91 194,-91 194,4 -4,4"/>
<!-- Node1 -->
<g id="node1" class="node">
<title>Node1</title>
<g id="a_node1"><a xlink:title=" ">
<polygon fill="#bfbfbf" stroke="black" points="0,-0.5 0,-30.5 190,-30.5 190,-0.5 0,-0.5"/>
<text text-anchor="start" x="8" y="-18.5" font-family="Helvetica,sans-Serif" font-size="10.00">lyra::detail::is_specialization</text>
<text text-anchor="middle" x="95" y="-7.5" font-family="Helvetica,sans-Serif" font-size="10.00">_of&lt; Primary&lt; Args... &gt;, Primary &gt;</text>
</a>
</g>
</g>
<!-- Node2 -->
<g id="node2" class="node">
<title>Node2</title>
<g id="a_node2"><a xlink:title=" ">
<polygon fill="white" stroke="black" points="53,-67.5 53,-86.5 137,-86.5 137,-67.5 53,-67.5"/>
<text text-anchor="middle" x="95" y="-74.5" font-family="Helvetica,sans-Serif" font-size="10.00">std::true_type</text>
</a>
</g>
</g>
<!-- Node2&#45;&gt;Node1 -->
<g id="edge1" class="edge">
<title>Node2&#45;&gt;Node1</title>
<path fill="none" stroke="midnightblue" d="M88.7,-57.53C87.97,-48.81 88.13,-38.59 89.17,-30.52"/>
<polygon fill="midnightblue" stroke="midnightblue" points="85.24,-58.06 90.1,-67.48 92.17,-57.09 85.24,-58.06"/>
</g>
<!-- Node2&#45;&gt;Node1 -->
<g id="edge2" class="edge">
<title>Node2&#45;&gt;Node1</title>
<path fill="none" stroke="midnightblue" d="M101.3,-57.53C102.03,-48.81 101.87,-38.59 100.83,-30.52"/>
<polygon fill="midnightblue" stroke="midnightblue" points="97.83,-57.09 99.9,-67.48 104.76,-58.06 97.83,-57.09"/>
</g>
</g>
</svg>
