<?xml version="1.0" encoding="UTF-8" standalone="no"?>
<!DOCTYPE svg PUBLIC "-//W3C//DTD SVG 1.1//EN"
 "http://www.w3.org/Graphics/SVG/1.1/DTD/svg11.dtd">
<!-- Generated by graphviz version 2.43.0 (0)
 -->
<!-- Title: lyra::detail::is_convertible_from_string&lt; T, typename std::enable_if&lt; std::is_arithmetic&lt; T &gt;::value &gt;::type &gt; Pages: 1 -->
<svg width="190pt" height="117pt"
 viewBox="0.00 0.00 190.00 117.00" xmlns="http://www.w3.org/2000/svg" xmlns:xlink="http://www.w3.org/1999/xlink">
<g id="graph0" class="graph" transform="scale(1 1) rotate(0) translate(4 113)">
<title>lyra::detail::is_convertible_from_string&lt; T, typename std::enable_if&lt; std::is_arithmetic&lt; T &gt;::value &gt;::type &gt;</title>
<polygon fill="white" stroke="transparent" points="-4,4 -4,-113 186,-113 186,4 -4,4"/>
<!-- Node1 -->
<g id="node1" class="node">
<title>Node1</title>
<g id="a_node1"><a xlink:title=" ">
<polygon fill="#bfbfbf" stroke="black" points="0,-0.5 0,-52.5 182,-52.5 182,-0.5 0,-0.5"/>
<text text-anchor="start" x="8" y="-40.5" font-family="Helvetica,sans-Serif" font-size="10.00">lyra::detail::is_convertible</text>
<text text-anchor="start" x="8" y="-29.5" font-family="Helvetica,sans-Serif" font-size="10.00">_from_string&lt; T, typename</text>
<text text-anchor="start" x="8" y="-18.5" font-family="Helvetica,sans-Serif" font-size="10.00"> std::enable_if&lt; std::is_arithmetic</text>
<text text-anchor="middle" x="91" y="-7.5" font-family="Helvetica,sans-Serif" font-size="10.00">&lt; T &gt;::value &gt;::type &gt;</text>
</a>
</g>
</g>
<!-- Node2 -->
<g id="node2" class="node">
<title>Node2</title>
<g id="a_node2"><a xlink:title=" ">
<polygon fill="white" stroke="black" points="49,-89.5 49,-108.5 133,-108.5 133,-89.5 49,-89.5"/>
<text text-anchor="middle" x="91" y="-96.5" font-family="Helvetica,sans-Serif" font-size="10.00">std::true_type</text>
</a>
</g>
</g>
<!-- Node2&#45;&gt;Node1 -->
<g id="edge1" class="edge">
<title>Node2&#45;&gt;Node1</title>
<path fill="none" stroke="midnightblue" d="M84.97,-79.38C84.2,-71.18 84.05,-61.43 84.5,-52.6"/>
<polygon fill="midnightblue" stroke="midnightblue" points="81.51,-79.95 86.39,-89.36 88.44,-78.96 81.51,-79.95"/>
</g>
<!-- Node2&#45;&gt;Node1 -->
<g id="edge2" class="edge">
<title>Node2&#45;&gt;Node1</title>
<path fill="none" stroke="midnightblue" d="M97.03,-79.38C97.8,-71.18 97.95,-61.43 97.5,-52.6"/>
<polygon fill="midnightblue" stroke="midnightblue" points="93.56,-78.96 95.61,-89.36 100.49,-79.95 93.56,-78.96"/>
</g>
</g>
</svg>
