<?xml version="1.0" encoding="UTF-8" standalone="no"?>
<!DOCTYPE svg PUBLIC "-//W3C//DTD SVG 1.1//EN"
 "http://www.w3.org/Graphics/SVG/1.1/DTD/svg11.dtd">
<!-- Generated by graphviz version 2.43.0 (0)
 -->
<!-- Title: lyra::detail::choices_set::contains_value Pages: 1 -->
<!--zoomable 252 -->
<svg id="main" version="1.1" xmlns="http://www.w3.org/2000/svg" xmlns:xlink="http://www.w3.org/1999/xlink" xml:space="preserve" onload="init(evt)">
<style type="text/css"><![CDATA[
.edge:hover path { stroke: red; }
.edge:hover polygon { stroke: red; fill: red; }
]]></style>
<script type="text/javascript"><![CDATA[
var edges = document.getElementsByTagName('g');
if (edges && edges.length) {
  for (var i=0;i<edges.length;i++) {
    if (edges[i].id.substr(0,4)=='edge') {
      edges[i].setAttribute('class','edge');
    }
  }
}
]]></script>
        <defs>
                <circle id="rim" cx="0" cy="0" r="7"/>
                <circle id="rim2" cx="0" cy="0" r="3.5"/>
                <g id="zoomPlus">
                        <use xlink:href="#rim" fill="#404040">
                                <set attributeName="fill" to="#808080" begin="zoomplus.mouseover" end="zoomplus.mouseout"/>
                        </use>
                        <path d="M-4,0h8M0,-4v8" fill="none" stroke="white" stroke-width="1.5" pointer-events="none"/>
                </g>
                <g id="zoomMin">
                        <use xlink:href="#rim" fill="#404040">
                                <set attributeName="fill" to="#808080" begin="zoomminus.mouseover" end="zoomminus.mouseout"/>
                        </use>
                        <path d="M-4,0h8" fill="none" stroke="white" stroke-width="1.5" pointer-events="none"/>
                </g>
                <g id="dirArrow">
                        <path fill="none" stroke="white" stroke-width="1.5" d="M0,-3.0v7 M-2.5,-0.5L0,-3.0L2.5,-0.5"/>
                </g>
               <g id="resetDef">
                       <use xlink:href="#rim2" fill="#404040">
                               <set attributeName="fill" to="#808080" begin="reset.mouseover" end="reset.mouseout"/>
                       </use>
               </g>
        </defs>

<script type="text/javascript">
var viewWidth = 576;
var viewHeight = 252;
var sectionId = 'dynsection-2';
</script>
<script xlink:href="svgpan.js"/>
<svg id="graph" class="graph">
<g id="viewport">
<title>lyra::detail::choices_set::contains_value</title>
<polygon fill="white" stroke="transparent" points="-4,4 -4,-247.5 572,-247.5 572,4 -4,4"/>
<!-- Node1 -->
<g id="node1" class="node">
<title>Node1</title>
<g id="a_node1"><a xlink:title=" ">
<polygon fill="#bfbfbf" stroke="black" points="0,-115 0,-145 116,-145 116,-115 0,-115"/>
<text text-anchor="start" x="8" y="-133" font-family="Helvetica,sans-Serif" font-size="10.00">lyra::detail::choices</text>
<text text-anchor="middle" x="58" y="-122" font-family="Helvetica,sans-Serif" font-size="10.00">_set::contains_value</text>
</a>
</g>
</g>
<!-- Node2 -->
<g id="node2" class="node">
<title>Node2</title>
<g id="a_node2"><a xlink:href="classlyra_1_1detail_1_1basic__result.html#ae878693d416cc48943171ab4187f5719" target="_top" xlink:title=" ">
<polygon fill="white" stroke="black" points="308.5,-213 308.5,-243 409.5,-243 409.5,-213 308.5,-213"/>
<text text-anchor="start" x="316.5" y="-231" font-family="Helvetica,sans-Serif" font-size="10.00">lyra::detail::basic</text>
<text text-anchor="middle" x="359" y="-220" font-family="Helvetica,sans-Serif" font-size="10.00">_result::error</text>
</a>
</g>
</g>
<!-- Node1&#45;&gt;Node2 -->
<g id="edge1" class="edge">
<title>Node1&#45;&gt;Node2</title>
<path fill="none" stroke="midnightblue" d="M73.53,-145.09C90.62,-161.79 120.64,-188.07 152,-201 198.67,-220.25 255.88,-226.52 298.16,-228.25"/>
<polygon fill="midnightblue" stroke="midnightblue" points="298.19,-231.75 308.3,-228.59 298.42,-224.76 298.19,-231.75"/>
</g>
<!-- Node5 -->
<g id="node5" class="node">
<title>Node5</title>
<g id="a_node5"><a xlink:href="namespacelyra.html#a2138b812a6ac30b6abcab35c05664a64" target="_top" xlink:title=" ">
<polygon fill="white" stroke="black" points="483,-98.5 483,-117.5 539,-117.5 539,-98.5 483,-98.5"/>
<text text-anchor="middle" x="511" y="-105.5" font-family="Helvetica,sans-Serif" font-size="10.00">lyra::val</text>
</a>
</g>
</g>
<!-- Node1&#45;&gt;Node5 -->
<g id="edge15" class="edge">
<title>Node1&#45;&gt;Node5</title>
<path fill="none" stroke="midnightblue" d="M116.33,-122.37C165.08,-116.28 236.99,-108.26 300,-105 352.37,-102.29 365.56,-104.15 418,-105 435.83,-105.29 455.59,-105.9 472.21,-106.49"/>
<polygon fill="midnightblue" stroke="midnightblue" points="472.51,-110 482.63,-106.87 472.77,-103.01 472.51,-110"/>
</g>
<!-- Node6 -->
<g id="node6" class="node">
<title>Node6</title>
<g id="a_node6"><a xlink:href="classlyra_1_1detail_1_1basic__result.html#aee577409a431e215136ffc0764e5432b" target="_top" xlink:title=" ">
<polygon fill="white" stroke="black" points="308.5,-115 308.5,-145 409.5,-145 409.5,-115 308.5,-115"/>
<text text-anchor="start" x="316.5" y="-133" font-family="Helvetica,sans-Serif" font-size="10.00">lyra::detail::basic</text>
<text text-anchor="middle" x="359" y="-122" font-family="Helvetica,sans-Serif" font-size="10.00">_result::ok</text>
</a>
</g>
</g>
<!-- Node1&#45;&gt;Node6 -->
<g id="edge5" class="edge">
<title>Node1&#45;&gt;Node6</title>
<path fill="none" stroke="midnightblue" d="M116.3,-130C168.44,-130 245.13,-130 298.08,-130"/>
<polygon fill="midnightblue" stroke="midnightblue" points="298.34,-133.5 308.34,-130 298.34,-126.5 298.34,-133.5"/>
</g>
<!-- Node7 -->
<g id="node7" class="node">
<title>Node7</title>
<g id="a_node7"><a xlink:href="namespacelyra_1_1detail.html#a22e3bf1a412cd8fde673729391090abf" target="_top" xlink:title=" ">
<polygon fill="white" stroke="black" points="157,-161 157,-191 259,-191 259,-161 157,-161"/>
<text text-anchor="start" x="165" y="-179" font-family="Helvetica,sans-Serif" font-size="10.00">lyra::detail::parse</text>
<text text-anchor="middle" x="208" y="-168" font-family="Helvetica,sans-Serif" font-size="10.00">_string</text>
</a>
</g>
</g>
<!-- Node1&#45;&gt;Node7 -->
<g id="edge8" class="edge">
<title>Node1&#45;&gt;Node7</title>
<path fill="none" stroke="midnightblue" d="M107.46,-145.06C120.69,-149.17 135.16,-153.67 148.87,-157.93"/>
<polygon fill="midnightblue" stroke="midnightblue" points="148.1,-161.36 158.68,-160.98 150.17,-154.67 148.1,-161.36"/>
</g>
<!-- Node9 -->
<g id="node9" class="node">
<title>Node9</title>
<g id="a_node9"><a xlink:href="structlyra_1_1detail_1_1choices__set.html#a151dcfea9dda455e52eb5eb8e4cb2a34" target="_top" xlink:title=" ">
<polygon fill="white" stroke="black" points="152,-27 152,-57 264,-57 264,-27 152,-27"/>
<text text-anchor="start" x="160" y="-45" font-family="Helvetica,sans-Serif" font-size="10.00">lyra::detail::choices</text>
<text text-anchor="middle" x="208" y="-34" font-family="Helvetica,sans-Serif" font-size="10.00">_set::to_string</text>
</a>
</g>
</g>
<!-- Node1&#45;&gt;Node9 -->
<g id="edge12" class="edge">
<title>Node1&#45;&gt;Node9</title>
<path fill="none" stroke="midnightblue" d="M82.47,-114.84C101.13,-102.9 128.01,-86.01 152,-72 157.61,-68.72 163.59,-65.35 169.48,-62.09"/>
<polygon fill="midnightblue" stroke="midnightblue" points="171.48,-64.98 178.56,-57.1 168.11,-58.84 171.48,-64.98"/>
</g>
<!-- Node3 -->
<g id="node3" class="node">
<title>Node3</title>
<g id="a_node3"><a xlink:href="classlyra_1_1detail_1_1basic__result.html#a2a6448a9babcc3d583edff8f13e076b9" target="_top" xlink:title=" ">
<polygon fill="white" stroke="black" points="454,-151 454,-181 568,-181 568,-151 454,-151"/>
<text text-anchor="start" x="462" y="-169" font-family="Helvetica,sans-Serif" font-size="10.00">lyra::detail::basic</text>
<text text-anchor="middle" x="511" y="-158" font-family="Helvetica,sans-Serif" font-size="10.00">_result::basic_result</text>
</a>
</g>
</g>
<!-- Node2&#45;&gt;Node3 -->
<g id="edge2" class="edge">
<title>Node2&#45;&gt;Node3</title>
<path fill="none" stroke="midnightblue" d="M396.31,-212.99C416.7,-204.56 442.35,-193.96 464.12,-184.96"/>
<polygon fill="midnightblue" stroke="midnightblue" points="465.6,-188.14 473.5,-181.09 462.93,-181.67 465.6,-188.14"/>
</g>
<!-- Node4 -->
<g id="node4" class="node">
<title>Node4</title>
<g id="a_node4"><a xlink:href="classlyra_1_1detail_1_1result__base.html#af2039c056e3c27fd5efa1542bd7167be" target="_top" xlink:title=" ">
<polygon fill="white" stroke="black" points="459.5,-213 459.5,-243 562.5,-243 562.5,-213 459.5,-213"/>
<text text-anchor="start" x="467.5" y="-231" font-family="Helvetica,sans-Serif" font-size="10.00">lyra::detail::result</text>
<text text-anchor="middle" x="511" y="-220" font-family="Helvetica,sans-Serif" font-size="10.00">_base::message</text>
</a>
</g>
</g>
<!-- Node2&#45;&gt;Node4 -->
<g id="edge3" class="edge">
<title>Node2&#45;&gt;Node4</title>
<path fill="none" stroke="midnightblue" d="M409.53,-228C422.19,-228 435.95,-228 449.1,-228"/>
<polygon fill="midnightblue" stroke="midnightblue" points="449.49,-231.5 459.49,-228 449.49,-224.5 449.49,-231.5"/>
</g>
<!-- Node2&#45;&gt;Node5 -->
<g id="edge4" class="edge">
<title>Node2&#45;&gt;Node5</title>
<path fill="none" stroke="midnightblue" d="M405.17,-212.9C409.77,-210.34 414.16,-207.38 418,-204 442.2,-182.69 431.35,-163.96 454,-141 461.18,-133.73 470.28,-127.47 479.05,-122.42"/>
<polygon fill="midnightblue" stroke="midnightblue" points="480.84,-125.43 487.98,-117.6 477.52,-119.27 480.84,-125.43"/>
</g>
<!-- Node6&#45;&gt;Node3 -->
<g id="edge6" class="edge">
<title>Node6&#45;&gt;Node3</title>
<path fill="none" stroke="midnightblue" d="M409.53,-141.89C420.49,-144.52 432.27,-147.34 443.77,-150.1"/>
<polygon fill="midnightblue" stroke="midnightblue" points="443.23,-153.58 453.77,-152.51 444.87,-146.77 443.23,-153.58"/>
</g>
<!-- Node6&#45;&gt;Node5 -->
<g id="edge7" class="edge">
<title>Node6&#45;&gt;Node5</title>
<path fill="none" stroke="midnightblue" d="M409.53,-122.74C430.12,-119.72 453.62,-116.27 472.71,-113.47"/>
<polygon fill="midnightblue" stroke="midnightblue" points="473.43,-116.9 482.82,-111.99 472.42,-109.97 473.43,-116.9"/>
</g>
<!-- Node7&#45;&gt;Node2 -->
<g id="edge9" class="edge">
<title>Node7&#45;&gt;Node2</title>
<path fill="none" stroke="midnightblue" d="M252.1,-191.04C268.78,-196.86 288.03,-203.58 305.5,-209.68"/>
<polygon fill="midnightblue" stroke="midnightblue" points="304.41,-213 315,-212.99 306.71,-206.39 304.41,-213"/>
</g>
<!-- Node7&#45;&gt;Node6 -->
<g id="edge11" class="edge">
<title>Node7&#45;&gt;Node6</title>
<path fill="none" stroke="midnightblue" d="M257.79,-160.94C271.11,-156.83 285.67,-152.33 299.47,-148.07"/>
<polygon fill="midnightblue" stroke="midnightblue" points="300.83,-151.31 309.36,-145.02 298.77,-144.62 300.83,-151.31"/>
</g>
<!-- Node8 -->
<g id="node8" class="node">
<title>Node8</title>
<g id="a_node8"><a xlink:href="namespacelyra_1_1detail.html#ac687157112493fe0f0196dc562c0a1e0" target="_top" xlink:title=" ">
<polygon fill="white" stroke="black" points="310,-164 310,-194 408,-194 408,-164 310,-164"/>
<text text-anchor="start" x="318" y="-182" font-family="Helvetica,sans-Serif" font-size="10.00">lyra::detail::from</text>
<text text-anchor="middle" x="359" y="-171" font-family="Helvetica,sans-Serif" font-size="10.00">_string</text>
</a>
</g>
</g>
<!-- Node7&#45;&gt;Node8 -->
<g id="edge10" class="edge">
<title>Node7&#45;&gt;Node8</title>
<path fill="none" stroke="midnightblue" d="M259.03,-177.01C272.1,-177.27 286.3,-177.56 299.76,-177.83"/>
<polygon fill="midnightblue" stroke="midnightblue" points="299.8,-181.33 309.87,-178.03 299.94,-174.33 299.8,-181.33"/>
</g>
<!-- Node9&#45;&gt;Node5 -->
<g id="edge14" class="edge">
<title>Node9&#45;&gt;Node5</title>
<path fill="none" stroke="midnightblue" d="M264.26,-46.43C306.79,-50.68 366.78,-58.5 418,-72 439.41,-77.64 462.62,-86.75 480.37,-94.39"/>
<polygon fill="midnightblue" stroke="midnightblue" points="479.06,-97.64 489.63,-98.46 481.88,-91.23 479.06,-97.64"/>
</g>
<!-- Node10 -->
<g id="node10" class="node">
<title>Node10</title>
<g id="a_node10"><a xlink:href="namespacelyra_1_1detail.html#ae65bbfceff11344e7ae2b7f28bebcdb7" target="_top" xlink:title=" ">
<polygon fill="white" stroke="black" points="300,-0.5 300,-19.5 418,-19.5 418,-0.5 300,-0.5"/>
<text text-anchor="middle" x="359" y="-7.5" font-family="Helvetica,sans-Serif" font-size="10.00">lyra::detail::to_string</text>
</a>
</g>
</g>
<!-- Node9&#45;&gt;Node10 -->
<g id="edge13" class="edge">
<title>Node9&#45;&gt;Node10</title>
<path fill="none" stroke="midnightblue" d="M264.06,-30.18C276.88,-27.42 290.53,-24.49 303.33,-21.74"/>
<polygon fill="midnightblue" stroke="midnightblue" points="304.34,-25.1 313.39,-19.58 302.87,-18.26 304.34,-25.1"/>
</g>
</g>
</svg>
        <g id="navigator" transform="translate(0 0)" fill="#404254">
                <rect fill="#f2f5e9" fill-opacity="0.5" stroke="#606060" stroke-width=".5" x="0" y="0" width="60" height="60"/>
                <use id="zoomplus" xlink:href="#zoomPlus" x="17" y="9" onmousedown="handleZoom(evt,'in')"/>
                <use id="zoomminus" xlink:href="#zoomMin" x="42" y="9" onmousedown="handleZoom(evt,'out')"/>
                <use id="reset" xlink:href="#resetDef" x="30" y="36" onmousedown="handleReset()"/>
                <g id="arrowUp" xlink:href="#dirArrow" transform="translate(30 24)" onmousedown="handlePan(0,-1)">
                  <use xlink:href="#rim" fill="#404040">
                        <set attributeName="fill" to="#808080" begin="arrowUp.mouseover" end="arrowUp.mouseout"/>
                  </use>
                  <path fill="none" stroke="white" stroke-width="1.5" d="M0,-3.0v7 M-2.5,-0.5L0,-3.0L2.5,-0.5"/>
                </g>
                <g id="arrowRight" xlink:href="#dirArrow" transform="rotate(90) translate(36 -43)" onmousedown="handlePan(1,0)">
                  <use xlink:href="#rim" fill="#404040">
                        <set attributeName="fill" to="#808080" begin="arrowRight.mouseover" end="arrowRight.mouseout"/>
                  </use>
                  <path fill="none" stroke="white" stroke-width="1.5" d="M0,-3.0v7 M-2.5,-0.5L0,-3.0L2.5,-0.5"/>
                </g>
                <g id="arrowDown" xlink:href="#dirArrow" transform="rotate(180) translate(-30 -48)" onmousedown="handlePan(0,1)">
                  <use xlink:href="#rim" fill="#404040">
                        <set attributeName="fill" to="#808080" begin="arrowDown.mouseover" end="arrowDown.mouseout"/>
                  </use>
                  <path fill="none" stroke="white" stroke-width="1.5" d="M0,-3.0v7 M-2.5,-0.5L0,-3.0L2.5,-0.5"/>
                </g>
                <g id="arrowLeft" xlink:href="#dirArrow" transform="rotate(270) translate(-36 17)" onmousedown="handlePan(-1,0)">
                  <use xlink:href="#rim" fill="#404040">
                        <set attributeName="fill" to="#808080" begin="arrowLeft.mouseover" end="arrowLeft.mouseout"/>
                  </use>
                  <path fill="none" stroke="white" stroke-width="1.5" d="M0,-3.0v7 M-2.5,-0.5L0,-3.0L2.5,-0.5"/>
                </g>
        </g>
        <svg viewBox="0 0 15 15" width="100%" height="30px" preserveAspectRatio="xMaxYMin meet">
         <g id="arrow_out" transform="scale(0.3 0.3)">
          <a xlink:href="structlyra_1_1detail_1_1choices__set_a2a78ba4d2bf13c9be72cdb9f075ac58b_cgraph_org.svg" target="_base">
           <rect id="button" ry="5" rx="5" y="6" x="6" height="38" width="38"
                fill="#f2f5e9" fill-opacity="0.5" stroke="#606060" stroke-width="1.0"/>
           <path id="arrow"
             d="M 11.500037,31.436501 C 11.940474,20.09759 22.043105,11.32322 32.158766,21.979434 L 37.068811,17.246167 C 37.068811,17.246167 37.088388,32 37.088388,32 L 22.160133,31.978069 C 22.160133,31.978069 26.997745,27.140456 26.997745,27.140456 C 18.528582,18.264221 13.291696,25.230495 11.500037,31.436501 z"
             style="fill:#404040;"/>
          </a>
         </g>
        </svg>
</svg>
