<?xml version="1.0" encoding="UTF-8" standalone="no"?>
<!DOCTYPE svg PUBLIC "-//W3C//DTD SVG 1.1//EN"
 "http://www.w3.org/Graphics/SVG/1.1/DTD/svg11.dtd">
<!-- Generated by graphviz version 2.43.0 (0)
 -->
<!-- Title: Lyra/include/lyra/detail/trait_utils.hpp Pages: 1 -->
<!--zoomable 777 -->
<svg id="main" version="1.1" xmlns="http://www.w3.org/2000/svg" xmlns:xlink="http://www.w3.org/1999/xlink" xml:space="preserve" onload="init(evt)">
<style type="text/css"><![CDATA[
.edge:hover path { stroke: red; }
.edge:hover polygon { stroke: red; fill: red; }
]]></style>
<script type="text/javascript"><![CDATA[
var edges = document.getElementsByTagName('g');
if (edges && edges.length) {
  for (var i=0;i<edges.length;i++) {
    if (edges[i].id.substr(0,4)=='edge') {
      edges[i].setAttribute('class','edge');
    }
  }
}
]]></script>
        <defs>
                <circle id="rim" cx="0" cy="0" r="7"/>
                <circle id="rim2" cx="0" cy="0" r="3.5"/>
                <g id="zoomPlus">
                        <use xlink:href="#rim" fill="#404040">
                                <set attributeName="fill" to="#808080" begin="zoomplus.mouseover" end="zoomplus.mouseout"/>
                        </use>
                        <path d="M-4,0h8M0,-4v8" fill="none" stroke="white" stroke-width="1.5" pointer-events="none"/>
                </g>
                <g id="zoomMin">
                        <use xlink:href="#rim" fill="#404040">
                                <set attributeName="fill" to="#808080" begin="zoomminus.mouseover" end="zoomminus.mouseout"/>
                        </use>
                        <path d="M-4,0h8" fill="none" stroke="white" stroke-width="1.5" pointer-events="none"/>
                </g>
                <g id="dirArrow">
                        <path fill="none" stroke="white" stroke-width="1.5" d="M0,-3.0v7 M-2.5,-0.5L0,-3.0L2.5,-0.5"/>
                </g>
               <g id="resetDef">
                       <use xlink:href="#rim2" fill="#404040">
                               <set attributeName="fill" to="#808080" begin="reset.mouseover" end="reset.mouseout"/>
                       </use>
               </g>
        </defs>

<script type="text/javascript">
var viewWidth = 1046;
var viewHeight = 777;
var sectionId = 'dynsection-1';
</script>
<script xlink:href="svgpan.js"/>
<svg id="graph" class="graph">
<g id="viewport">
<title>Lyra/include/lyra/detail/trait_utils.hpp</title>
<polygon fill="white" stroke="transparent" points="-4,4 -4,-773 1042,-773 1042,4 -4,4"/>
<!-- Node1 -->
<g id="node1" class="node">
<title>Node1</title>
<g id="a_node1"><a xlink:title=" ">
<polygon fill="#bfbfbf" stroke="black" points="490.5,-738.5 490.5,-768.5 618.5,-768.5 618.5,-738.5 490.5,-738.5"/>
<text text-anchor="start" x="498.5" y="-756.5" font-family="Helvetica,sans-Serif" font-size="10.00">Lyra/include/lyra/detail</text>
<text text-anchor="middle" x="554.5" y="-745.5" font-family="Helvetica,sans-Serif" font-size="10.00">/trait_utils.hpp</text>
</a>
</g>
</g>
<!-- Node2 -->
<g id="node2" class="node">
<title>Node2</title>
<g id="a_node2"><a xlink:href="arguments_8hpp.html" target="_top" xlink:title=" ">
<polygon fill="white" stroke="black" points="387,-235.5 387,-254.5 560,-254.5 560,-235.5 387,-235.5"/>
<text text-anchor="middle" x="473.5" y="-242.5" font-family="Helvetica,sans-Serif" font-size="10.00">Lyra/include/lyra/arguments.hpp</text>
</a>
</g>
</g>
<!-- Node1&#45;&gt;Node2 -->
<g id="edge1" class="edge">
<title>Node1&#45;&gt;Node2</title>
<path fill="none" stroke="midnightblue" d="M480.22,-744.35C360.59,-729.14 138.5,-691.36 138.5,-620.5 138.5,-620.5 138.5,-620.5 138.5,-367 138.5,-308.56 321.09,-270.46 416.67,-254.52"/>
<polygon fill="midnightblue" stroke="midnightblue" points="480.06,-747.86 490.41,-745.63 480.92,-740.91 480.06,-747.86"/>
</g>
<!-- Node9 -->
<g id="node9" class="node">
<title>Node9</title>
<g id="a_node9"><a xlink:href="from__string_8hpp.html" target="_top" xlink:title=" ">
<polygon fill="white" stroke="black" points="490.5,-671.5 490.5,-701.5 618.5,-701.5 618.5,-671.5 490.5,-671.5"/>
<text text-anchor="start" x="498.5" y="-689.5" font-family="Helvetica,sans-Serif" font-size="10.00">Lyra/include/lyra/detail</text>
<text text-anchor="middle" x="554.5" y="-678.5" font-family="Helvetica,sans-Serif" font-size="10.00">/from_string.hpp</text>
</a>
</g>
</g>
<!-- Node1&#45;&gt;Node9 -->
<g id="edge14" class="edge">
<title>Node1&#45;&gt;Node9</title>
<path fill="none" stroke="midnightblue" d="M554.5,-728.11C554.5,-719.15 554.5,-709.32 554.5,-701.58"/>
<polygon fill="midnightblue" stroke="midnightblue" points="551,-728.4 554.5,-738.4 558,-728.4 551,-728.4"/>
</g>
<!-- Node12 -->
<g id="node12" class="node">
<title>Node12</title>
<g id="a_node12"><a xlink:href="parser_8hpp.html" target="_top" xlink:title=" ">
<polygon fill="white" stroke="black" points="357.5,-358.5 357.5,-377.5 509.5,-377.5 509.5,-358.5 357.5,-358.5"/>
<text text-anchor="middle" x="433.5" y="-365.5" font-family="Helvetica,sans-Serif" font-size="10.00">Lyra/include/lyra/parser.hpp</text>
</a>
</g>
</g>
<!-- Node1&#45;&gt;Node12 -->
<g id="edge51" class="edge">
<title>Node1&#45;&gt;Node12</title>
<path fill="none" stroke="midnightblue" d="M480.26,-749.94C394.04,-742.54 263.5,-715.62 263.5,-620.5 263.5,-620.5 263.5,-620.5 263.5,-484.5 263.5,-421.88 343.4,-390.84 393.64,-377.5"/>
<polygon fill="midnightblue" stroke="midnightblue" points="480.03,-753.43 490.28,-750.73 480.58,-746.46 480.03,-753.43"/>
</g>
<!-- Node15 -->
<g id="node15" class="node">
<title>Node15</title>
<g id="a_node15"><a xlink:href="opt_8hpp.html" target="_top" xlink:title=" ">
<polygon fill="white" stroke="black" points="781,-297 781,-316 918,-316 918,-297 781,-297"/>
<text text-anchor="middle" x="849.5" y="-304" font-family="Helvetica,sans-Serif" font-size="10.00">Lyra/include/lyra/opt.hpp</text>
</a>
</g>
</g>
<!-- Node1&#45;&gt;Node15 -->
<g id="edge50" class="edge">
<title>Node1&#45;&gt;Node15</title>
<path fill="none" stroke="midnightblue" d="M628.64,-739.33C729.22,-719.32 896.5,-677.47 896.5,-620.5 896.5,-620.5 896.5,-620.5 896.5,-423 896.5,-380.35 868.67,-334.95 855.84,-316.28"/>
<polygon fill="midnightblue" stroke="midnightblue" points="627.97,-735.9 618.83,-741.26 629.31,-742.77 627.97,-735.9"/>
</g>
<!-- Node21 -->
<g id="node21" class="node">
<title>Node21</title>
<g id="a_node21"><a xlink:href="trait__utils__run__test_8cpp.html" target="_top" xlink:title=" ">
<polygon fill="white" stroke="black" points="925,-671.5 925,-701.5 1038,-701.5 1038,-671.5 925,-671.5"/>
<text text-anchor="start" x="933" y="-689.5" font-family="Helvetica,sans-Serif" font-size="10.00">Lyra/tests/trait_utils</text>
<text text-anchor="middle" x="981.5" y="-678.5" font-family="Helvetica,sans-Serif" font-size="10.00">_run_test.cpp</text>
</a>
</g>
</g>
<!-- Node1&#45;&gt;Node21 -->
<g id="edge52" class="edge">
<title>Node1&#45;&gt;Node21</title>
<path fill="none" stroke="midnightblue" d="M629.02,-743.26C701.19,-734 813.62,-718.75 910.5,-702 915.21,-701.19 920.09,-700.29 924.98,-699.36"/>
<polygon fill="midnightblue" stroke="midnightblue" points="628.15,-739.85 618.67,-744.59 629.03,-746.79 628.15,-739.85"/>
</g>
<!-- Node3 -->
<g id="node3" class="node">
<title>Node3</title>
<g id="a_node3"><a xlink:href="cli_8hpp.html" target="_top" xlink:title=" ">
<polygon fill="white" stroke="black" points="446.5,-123.5 446.5,-142.5 578.5,-142.5 578.5,-123.5 446.5,-123.5"/>
<text text-anchor="middle" x="512.5" y="-130.5" font-family="Helvetica,sans-Serif" font-size="10.00">Lyra/include/lyra/cli.hpp</text>
</a>
</g>
</g>
<!-- Node2&#45;&gt;Node3 -->
<g id="edge2" class="edge">
<title>Node2&#45;&gt;Node3</title>
<path fill="none" stroke="midnightblue" d="M483.68,-226.42C488.08,-218.28 493.01,-208.35 496.5,-199 503.81,-179.4 508.75,-155.23 511.04,-142.6"/>
<polygon fill="midnightblue" stroke="midnightblue" points="480.54,-224.87 478.71,-235.31 486.65,-228.29 480.54,-224.87"/>
</g>
<!-- Node5 -->
<g id="node5" class="node">
<title>Node5</title>
<g id="a_node5"><a xlink:href="include_2lyra_2lyra_8hpp.html" target="_top" xlink:title=" ">
<polygon fill="white" stroke="black" points="452.5,-0.5 452.5,-19.5 592.5,-19.5 592.5,-0.5 452.5,-0.5"/>
<text text-anchor="middle" x="522.5" y="-7.5" font-family="Helvetica,sans-Serif" font-size="10.00">Lyra/include/lyra/lyra.hpp</text>
</a>
</g>
</g>
<!-- Node2&#45;&gt;Node5 -->
<g id="edge13" class="edge">
<title>Node2&#45;&gt;Node5</title>
<path fill="none" stroke="midnightblue" d="M499.08,-230.23C526.79,-213.69 569.46,-183.08 587.5,-143 603.37,-107.74 605.45,-90.25 587.5,-56 578.45,-38.74 559.44,-26.78 544.31,-19.55"/>
<polygon fill="midnightblue" stroke="midnightblue" points="497.22,-227.26 490.31,-235.3 500.72,-233.33 497.22,-227.26"/>
</g>
<!-- Node7 -->
<g id="node7" class="node">
<title>Node7</title>
<g id="a_node7"><a xlink:href="group_8hpp.html" target="_top" xlink:title=" ">
<polygon fill="white" stroke="black" points="338,-179.5 338,-198.5 487,-198.5 487,-179.5 338,-179.5"/>
<text text-anchor="middle" x="412.5" y="-186.5" font-family="Helvetica,sans-Serif" font-size="10.00">Lyra/include/lyra/group.hpp</text>
</a>
</g>
</g>
<!-- Node2&#45;&gt;Node7 -->
<g id="edge8" class="edge">
<title>Node2&#45;&gt;Node7</title>
<path fill="none" stroke="midnightblue" d="M456.03,-228.54C445.16,-218.91 431.56,-206.87 422.48,-198.83"/>
<polygon fill="midnightblue" stroke="midnightblue" points="453.89,-231.32 463.7,-235.32 458.53,-226.07 453.89,-231.32"/>
</g>
<!-- Node4 -->
<g id="node4" class="node">
<title>Node4</title>
<g id="a_node4"><a xlink:href="cli__parser_8hpp.html" target="_top" xlink:title=" ">
<polygon fill="white" stroke="black" points="467,-56.5 467,-86.5 578,-86.5 578,-56.5 467,-56.5"/>
<text text-anchor="start" x="475" y="-74.5" font-family="Helvetica,sans-Serif" font-size="10.00">Lyra/include/lyra/cli</text>
<text text-anchor="middle" x="522.5" y="-63.5" font-family="Helvetica,sans-Serif" font-size="10.00">_parser.hpp</text>
</a>
</g>
</g>
<!-- Node3&#45;&gt;Node4 -->
<g id="edge3" class="edge">
<title>Node3&#45;&gt;Node4</title>
<path fill="none" stroke="midnightblue" d="M515.6,-113.53C517.07,-104.81 518.79,-94.59 520.14,-86.52"/>
<polygon fill="midnightblue" stroke="midnightblue" points="512.14,-113.03 513.93,-123.48 519.04,-114.19 512.14,-113.03"/>
</g>
<!-- Node3&#45;&gt;Node5 -->
<g id="edge5" class="edge">
<title>Node3&#45;&gt;Node5</title>
<path fill="none" stroke="midnightblue" d="M487.32,-118C476.31,-110.4 464.54,-99.91 458.5,-87 452.66,-74.52 452.15,-68.23 458.5,-56 467.39,-38.88 486.11,-26.91 501.02,-19.64"/>
<polygon fill="midnightblue" stroke="midnightblue" points="485.56,-121.03 495.87,-123.46 489.33,-115.13 485.56,-121.03"/>
</g>
<!-- Node6 -->
<g id="node6" class="node">
<title>Node6</title>
<g id="a_node6"><a xlink:href="main_8hpp.html" target="_top" xlink:title=" ">
<polygon fill="white" stroke="black" points="672.5,-62 672.5,-81 818.5,-81 818.5,-62 672.5,-62"/>
<text text-anchor="middle" x="745.5" y="-69" font-family="Helvetica,sans-Serif" font-size="10.00">Lyra/include/lyra/main.hpp</text>
</a>
</g>
</g>
<!-- Node3&#45;&gt;Node6 -->
<g id="edge6" class="edge">
<title>Node3&#45;&gt;Node6</title>
<path fill="none" stroke="midnightblue" d="M555.7,-120.97C600.94,-109.41 671.03,-91.52 712.18,-81.01"/>
<polygon fill="midnightblue" stroke="midnightblue" points="554.71,-117.61 545.88,-123.48 556.44,-124.39 554.71,-117.61"/>
</g>
<!-- Node4&#45;&gt;Node5 -->
<g id="edge4" class="edge">
<title>Node4&#45;&gt;Node5</title>
<path fill="none" stroke="midnightblue" d="M522.5,-46.29C522.5,-36.86 522.5,-26.65 522.5,-19.66"/>
<polygon fill="midnightblue" stroke="midnightblue" points="519,-46.4 522.5,-56.4 526,-46.4 519,-46.4"/>
</g>
<!-- Node6&#45;&gt;Node5 -->
<g id="edge7" class="edge">
<title>Node6&#45;&gt;Node5</title>
<path fill="none" stroke="midnightblue" d="M703.88,-59.4C660.57,-47.84 593.69,-30 554.39,-19.51"/>
<polygon fill="midnightblue" stroke="midnightblue" points="702.99,-62.78 713.55,-61.98 704.79,-56.02 702.99,-62.78"/>
</g>
<!-- Node7&#45;&gt;Node3 -->
<g id="edge9" class="edge">
<title>Node7&#45;&gt;Node3</title>
<path fill="none" stroke="midnightblue" d="M437.59,-174.45C456.05,-164.48 480.6,-151.23 496.47,-142.65"/>
<polygon fill="midnightblue" stroke="midnightblue" points="435.7,-171.49 428.57,-179.32 439.03,-177.65 435.7,-171.49"/>
</g>
<!-- Node7&#45;&gt;Node5 -->
<g id="edge12" class="edge">
<title>Node7&#45;&gt;Node5</title>
<path fill="none" stroke="midnightblue" d="M413.52,-169.17C415.88,-141.71 423.68,-90.26 449.5,-56 462.31,-39 483.59,-26.95 499.88,-19.62"/>
<polygon fill="midnightblue" stroke="midnightblue" points="410.01,-169.12 412.81,-179.34 417,-169.61 410.01,-169.12"/>
</g>
<!-- Node8 -->
<g id="node8" class="node">
<title>Node8</title>
<g id="a_node8"><a xlink:href="command_8hpp.html" target="_top" xlink:title=" ">
<polygon fill="white" stroke="black" points="64.5,-123.5 64.5,-142.5 234.5,-142.5 234.5,-123.5 64.5,-123.5"/>
<text text-anchor="middle" x="149.5" y="-130.5" font-family="Helvetica,sans-Serif" font-size="10.00">Lyra/include/lyra/command.hpp</text>
</a>
</g>
</g>
<!-- Node7&#45;&gt;Node8 -->
<g id="edge10" class="edge">
<title>Node7&#45;&gt;Node8</title>
<path fill="none" stroke="midnightblue" d="M360.92,-177.41C311.22,-167.2 236.97,-151.96 190.98,-142.52"/>
<polygon fill="midnightblue" stroke="midnightblue" points="360.33,-180.86 370.83,-179.44 361.74,-174 360.33,-180.86"/>
</g>
<!-- Node8&#45;&gt;Node5 -->
<g id="edge11" class="edge">
<title>Node8&#45;&gt;Node5</title>
<path fill="none" stroke="midnightblue" d="M179.3,-119.51C218.07,-103.53 288.1,-75.59 349.5,-56 395.48,-41.33 449.43,-27.88 484.7,-19.58"/>
<polygon fill="midnightblue" stroke="midnightblue" points="177.58,-116.43 169.68,-123.49 180.26,-122.9 177.58,-116.43"/>
</g>
<!-- Node9&#45;&gt;Node3 -->
<g id="edge15" class="edge">
<title>Node9&#45;&gt;Node3</title>
<path fill="none" stroke="midnightblue" d="M607.35,-667.22C622.94,-659.49 638.71,-648.96 649.5,-635 672.1,-605.77 704.5,-508.64 704.5,-369 704.5,-369 704.5,-369 704.5,-305.5 704.5,-216.78 589.06,-162.53 537.21,-142.64"/>
<polygon fill="midnightblue" stroke="midnightblue" points="605.82,-664.08 598.22,-671.46 608.77,-670.42 605.82,-664.08"/>
</g>
<!-- Node10 -->
<g id="node10" class="node">
<title>Node10</title>
<g id="a_node10"><a xlink:href="bound_8hpp.html" target="_top" xlink:title=" ">
<polygon fill="white" stroke="black" points="513.5,-470.5 513.5,-500.5 641.5,-500.5 641.5,-470.5 513.5,-470.5"/>
<text text-anchor="start" x="521.5" y="-488.5" font-family="Helvetica,sans-Serif" font-size="10.00">Lyra/include/lyra/detail</text>
<text text-anchor="middle" x="577.5" y="-477.5" font-family="Helvetica,sans-Serif" font-size="10.00">/bound.hpp</text>
</a>
</g>
</g>
<!-- Node9&#45;&gt;Node10 -->
<g id="edge16" class="edge">
<title>Node9&#45;&gt;Node10</title>
<path fill="none" stroke="midnightblue" d="M591.83,-666.16C604.61,-658 618.05,-647.48 627.5,-635 646.51,-609.9 645.32,-599.05 650.5,-568 652.77,-554.41 656.9,-549.2 650.5,-537 642.06,-520.89 625.89,-508.91 610.91,-500.66"/>
<polygon fill="midnightblue" stroke="midnightblue" points="589.88,-663.25 583.15,-671.43 593.51,-669.23 589.88,-663.25"/>
</g>
<!-- Node9&#45;&gt;Node12 -->
<g id="edge49" class="edge">
<title>Node9&#45;&gt;Node12</title>
<path fill="none" stroke="midnightblue" d="M480.01,-678.1C405.38,-666.08 301.5,-634.77 301.5,-553.5 301.5,-553.5 301.5,-553.5 301.5,-484.5 301.5,-428.01 370.81,-392.74 408.98,-377.6"/>
<polygon fill="midnightblue" stroke="midnightblue" points="479.92,-681.62 490.33,-679.67 480.97,-674.7 479.92,-681.62"/>
</g>
<!-- Node18 -->
<g id="node18" class="node">
<title>Node18</title>
<g id="a_node18"><a xlink:href="choices_8hpp.html" target="_top" xlink:title=" ">
<polygon fill="white" stroke="black" points="329.5,-537.5 329.5,-567.5 457.5,-567.5 457.5,-537.5 329.5,-537.5"/>
<text text-anchor="start" x="337.5" y="-555.5" font-family="Helvetica,sans-Serif" font-size="10.00">Lyra/include/lyra/detail</text>
<text text-anchor="middle" x="393.5" y="-544.5" font-family="Helvetica,sans-Serif" font-size="10.00">/choices.hpp</text>
</a>
</g>
</g>
<!-- Node9&#45;&gt;Node18 -->
<g id="edge43" class="edge">
<title>Node9&#45;&gt;Node18</title>
<path fill="none" stroke="midnightblue" d="M524.11,-665.88C510.73,-656.89 495.01,-645.84 481.5,-635 454.05,-612.98 424.49,-584.51 407.57,-567.71"/>
<polygon fill="midnightblue" stroke="midnightblue" points="522.25,-668.85 532.52,-671.47 526.13,-663.02 522.25,-668.85"/>
</g>
<!-- Node19 -->
<g id="node19" class="node">
<title>Node19</title>
<g id="a_node19"><a xlink:href="parse_8hpp.html" target="_top" xlink:title=" ">
<polygon fill="white" stroke="black" points="490.5,-604.5 490.5,-634.5 618.5,-634.5 618.5,-604.5 490.5,-604.5"/>
<text text-anchor="start" x="498.5" y="-622.5" font-family="Helvetica,sans-Serif" font-size="10.00">Lyra/include/lyra/detail</text>
<text text-anchor="middle" x="554.5" y="-611.5" font-family="Helvetica,sans-Serif" font-size="10.00">/parse.hpp</text>
</a>
</g>
</g>
<!-- Node9&#45;&gt;Node19 -->
<g id="edge45" class="edge">
<title>Node9&#45;&gt;Node19</title>
<path fill="none" stroke="midnightblue" d="M554.5,-661.11C554.5,-652.15 554.5,-642.32 554.5,-634.58"/>
<polygon fill="midnightblue" stroke="midnightblue" points="551,-661.4 554.5,-671.4 558,-661.4 551,-661.4"/>
</g>
<!-- Node11 -->
<g id="node11" class="node">
<title>Node11</title>
<g id="a_node11"><a xlink:href="exe__name_8hpp.html" target="_top" xlink:title=" ">
<polygon fill="white" stroke="black" points="518.5,-291.5 518.5,-321.5 636.5,-321.5 636.5,-291.5 518.5,-291.5"/>
<text text-anchor="start" x="526.5" y="-309.5" font-family="Helvetica,sans-Serif" font-size="10.00">Lyra/include/lyra/exe</text>
<text text-anchor="middle" x="577.5" y="-298.5" font-family="Helvetica,sans-Serif" font-size="10.00">_name.hpp</text>
</a>
</g>
</g>
<!-- Node10&#45;&gt;Node11 -->
<g id="edge17" class="edge">
<title>Node10&#45;&gt;Node11</title>
<path fill="none" stroke="midnightblue" d="M577.5,-460.26C577.5,-422.8 577.5,-351.98 577.5,-321.75"/>
<polygon fill="midnightblue" stroke="midnightblue" points="574,-460.31 577.5,-470.31 581,-460.31 574,-460.31"/>
</g>
<!-- Node10&#45;&gt;Node12 -->
<g id="edge21" class="edge">
<title>Node10&#45;&gt;Node12</title>
<path fill="none" stroke="midnightblue" d="M551.83,-463.91C519.94,-438.33 466.96,-395.84 444.31,-377.67"/>
<polygon fill="midnightblue" stroke="midnightblue" points="549.85,-466.81 559.84,-470.34 554.23,-461.35 549.85,-466.81"/>
</g>
<!-- Node17 -->
<g id="node17" class="node">
<title>Node17</title>
<g id="a_node17"><a xlink:href="val_8hpp.html" target="_top" xlink:title=" ">
<polygon fill="white" stroke="black" points="732.5,-414.5 732.5,-433.5 868.5,-433.5 868.5,-414.5 732.5,-414.5"/>
<text text-anchor="middle" x="800.5" y="-421.5" font-family="Helvetica,sans-Serif" font-size="10.00">Lyra/include/lyra/val.hpp</text>
</a>
</g>
</g>
<!-- Node10&#45;&gt;Node17 -->
<g id="edge38" class="edge">
<title>Node10&#45;&gt;Node17</title>
<path fill="none" stroke="midnightblue" d="M639.9,-467.85C681.77,-456.68 735.18,-442.43 768.62,-433.51"/>
<polygon fill="midnightblue" stroke="midnightblue" points="638.83,-464.51 630.07,-470.47 640.63,-471.28 638.83,-464.51"/>
</g>
<!-- Node11&#45;&gt;Node2 -->
<g id="edge18" class="edge">
<title>Node11&#45;&gt;Node2</title>
<path fill="none" stroke="midnightblue" d="M544.05,-286.36C525.4,-275.69 503.1,-262.93 488.63,-254.66"/>
<polygon fill="midnightblue" stroke="midnightblue" points="542.44,-289.47 552.85,-291.4 545.91,-283.4 542.44,-289.47"/>
</g>
<!-- Node11&#45;&gt;Node3 -->
<g id="edge19" class="edge">
<title>Node11&#45;&gt;Node3</title>
<path fill="none" stroke="midnightblue" d="M577.13,-281.19C576.33,-267.36 574.32,-249.89 569.5,-235 557.52,-198.03 531.21,-159.4 518.98,-142.62"/>
<polygon fill="midnightblue" stroke="midnightblue" points="573.64,-281.52 577.54,-291.37 580.63,-281.24 573.64,-281.52"/>
</g>
<!-- Node11&#45;&gt;Node5 -->
<g id="edge20" class="edge">
<title>Node11&#45;&gt;Node5</title>
<path fill="none" stroke="midnightblue" d="M589.19,-281.97C610.61,-235.22 650.12,-128.85 606.5,-56 595.45,-37.55 573.96,-26.23 555.49,-19.56"/>
<polygon fill="midnightblue" stroke="midnightblue" points="585.91,-280.73 584.81,-291.27 592.24,-283.71 585.91,-280.73"/>
</g>
<!-- Node12&#45;&gt;Node2 -->
<g id="edge25" class="edge">
<title>Node12&#45;&gt;Node2</title>
<path fill="none" stroke="midnightblue" d="M439.55,-348.7C448.31,-322.2 464.19,-274.17 470.65,-254.62"/>
<polygon fill="midnightblue" stroke="midnightblue" points="436.19,-347.7 436.38,-358.3 442.84,-349.9 436.19,-347.7"/>
</g>
<!-- Node12&#45;&gt;Node5 -->
<g id="edge30" class="edge">
<title>Node12&#45;&gt;Node5</title>
<path fill="none" stroke="midnightblue" d="M413.64,-352.48C359.77,-313.24 211.28,-206.22 157.5,-179 111.36,-155.64 25.11,-164.84 55.5,-123 101.74,-59.34 333.66,-28.67 452.32,-16.95"/>
<polygon fill="midnightblue" stroke="midnightblue" points="411.59,-355.31 421.73,-358.38 415.71,-349.66 411.59,-355.31"/>
</g>
<!-- Node12&#45;&gt;Node6 -->
<g id="edge31" class="edge">
<title>Node12&#45;&gt;Node6</title>
<path fill="none" stroke="midnightblue" d="M519.68,-357.02C569.61,-349.68 626.31,-338.15 645.5,-322 665.68,-305.03 728.16,-123.57 742.53,-81.28"/>
<polygon fill="midnightblue" stroke="midnightblue" points="518.87,-353.6 509.47,-358.48 519.86,-360.53 518.87,-353.6"/>
</g>
<!-- Node12&#45;&gt;Node11 -->
<g id="edge26" class="edge">
<title>Node12&#45;&gt;Node11</title>
<path fill="none" stroke="midnightblue" d="M463.53,-354.59C486.88,-344.94 519.28,-331.56 543.56,-321.52"/>
<polygon fill="midnightblue" stroke="midnightblue" points="462.04,-351.42 454.13,-358.48 464.71,-357.89 462.04,-351.42"/>
</g>
<!-- Node13 -->
<g id="node13" class="node">
<title>Node13</title>
<g id="a_node13"><a xlink:href="arg_8hpp.html" target="_top" xlink:title=" ">
<polygon fill="white" stroke="black" points="253,-123.5 253,-142.5 390,-142.5 390,-123.5 253,-123.5"/>
<text text-anchor="middle" x="321.5" y="-130.5" font-family="Helvetica,sans-Serif" font-size="10.00">Lyra/include/lyra/arg.hpp</text>
</a>
</g>
</g>
<!-- Node12&#45;&gt;Node13 -->
<g id="edge22" class="edge">
<title>Node12&#45;&gt;Node13</title>
<path fill="none" stroke="midnightblue" d="M419.77,-350.43C396.76,-321.65 350.86,-259.7 329.5,-199 322.71,-179.69 321.51,-155.4 321.4,-142.68"/>
<polygon fill="midnightblue" stroke="midnightblue" points="417.1,-352.69 426.12,-358.25 422.53,-348.28 417.1,-352.69"/>
</g>
<!-- Node14 -->
<g id="node14" class="node">
<title>Node14</title>
<g id="a_node14"><a xlink:href="literal_8hpp.html" target="_top" xlink:title=" ">
<polygon fill="white" stroke="black" points="0,-179.5 0,-198.5 149,-198.5 149,-179.5 0,-179.5"/>
<text text-anchor="middle" x="74.5" y="-186.5" font-family="Helvetica,sans-Serif" font-size="10.00">Lyra/include/lyra/literal.hpp</text>
</a>
</g>
</g>
<!-- Node12&#45;&gt;Node14 -->
<g id="edge27" class="edge">
<title>Node12&#45;&gt;Node14</title>
<path fill="none" stroke="midnightblue" d="M347.14,-360.14C279.64,-353.42 192.41,-341.33 162.5,-322 114.15,-290.76 86.09,-222.55 77.42,-198.56"/>
<polygon fill="midnightblue" stroke="midnightblue" points="347.08,-363.65 357.37,-361.13 347.75,-356.68 347.08,-363.65"/>
</g>
<!-- Node12&#45;&gt;Node15 -->
<g id="edge32" class="edge">
<title>Node12&#45;&gt;Node15</title>
<path fill="none" stroke="midnightblue" d="M503.13,-357.04C583.47,-345.55 714.22,-326.85 790.01,-316.01"/>
<polygon fill="midnightblue" stroke="midnightblue" points="502.51,-353.59 493.1,-358.48 503.5,-360.52 502.51,-353.59"/>
</g>
<!-- Node13&#45;&gt;Node5 -->
<g id="edge23" class="edge">
<title>Node13&#45;&gt;Node5</title>
<path fill="none" stroke="midnightblue" d="M332.09,-114.86C343.53,-97.68 363.27,-71.6 386.5,-56 413.75,-37.7 449.06,-26.31 476.87,-19.56"/>
<polygon fill="midnightblue" stroke="midnightblue" points="329.08,-113.06 326.62,-123.37 334.97,-116.85 329.08,-113.06"/>
</g>
<!-- Node13&#45;&gt;Node6 -->
<g id="edge24" class="edge">
<title>Node13&#45;&gt;Node6</title>
<path fill="none" stroke="midnightblue" d="M392.22,-122.08C474.08,-110.59 607.54,-91.86 684.86,-81.01"/>
<polygon fill="midnightblue" stroke="midnightblue" points="391.67,-118.62 382.25,-123.48 392.64,-125.55 391.67,-118.62"/>
</g>
<!-- Node14&#45;&gt;Node5 -->
<g id="edge29" class="edge">
<title>Node14&#45;&gt;Node5</title>
<path fill="none" stroke="midnightblue" d="M50.13,-173.73C39.55,-166.09 28.28,-155.64 22.5,-143 6.43,-107.83 -3.59,-84.54 22.5,-56 50.93,-24.9 321.7,-15.11 452.48,-12.18"/>
<polygon fill="midnightblue" stroke="midnightblue" points="48.46,-176.82 58.72,-179.47 52.35,-171 48.46,-176.82"/>
</g>
<!-- Node14&#45;&gt;Node8 -->
<g id="edge28" class="edge">
<title>Node14&#45;&gt;Node8</title>
<path fill="none" stroke="midnightblue" d="M94.81,-173.38C108.36,-163.62 125.74,-151.11 137.23,-142.83"/>
<polygon fill="midnightblue" stroke="midnightblue" points="92.62,-170.64 86.55,-179.32 96.71,-176.32 92.62,-170.64"/>
</g>
<!-- Node15&#45;&gt;Node5 -->
<g id="edge36" class="edge">
<title>Node15&#45;&gt;Node5</title>
<path fill="none" stroke="midnightblue" d="M882.1,-293.03C920.31,-276.04 978.5,-241.68 978.5,-190 978.5,-190 978.5,-190 978.5,-132 978.5,-53.17 720.66,-24.47 592.75,-15.09"/>
<polygon fill="midnightblue" stroke="midnightblue" points="880.68,-289.83 872.86,-296.98 883.43,-296.27 880.68,-289.83"/>
</g>
<!-- Node15&#45;&gt;Node6 -->
<g id="edge37" class="edge">
<title>Node15&#45;&gt;Node6</title>
<path fill="none" stroke="midnightblue" d="M841.58,-287.75C820.72,-241.03 764.86,-115.87 749.47,-81.4"/>
<polygon fill="midnightblue" stroke="midnightblue" points="838.4,-289.23 845.68,-296.93 844.8,-286.37 838.4,-289.23"/>
</g>
<!-- Node16 -->
<g id="node16" class="node">
<title>Node16</title>
<g id="a_node16"><a xlink:href="help_8hpp.html" target="_top" xlink:title=" ">
<polygon fill="white" stroke="black" points="808.5,-123.5 808.5,-142.5 950.5,-142.5 950.5,-123.5 808.5,-123.5"/>
<text text-anchor="middle" x="879.5" y="-130.5" font-family="Helvetica,sans-Serif" font-size="10.00">Lyra/include/lyra/help.hpp</text>
</a>
</g>
</g>
<!-- Node15&#45;&gt;Node16 -->
<g id="edge33" class="edge">
<title>Node15&#45;&gt;Node16</title>
<path fill="none" stroke="midnightblue" d="M852.77,-286.83C859.22,-249.93 873.39,-168.94 878.01,-142.52"/>
<polygon fill="midnightblue" stroke="midnightblue" points="849.3,-286.31 851.03,-296.76 856.2,-287.51 849.3,-286.31"/>
</g>
<!-- Node16&#45;&gt;Node5 -->
<g id="edge34" class="edge">
<title>Node16&#45;&gt;Node5</title>
<path fill="none" stroke="midnightblue" d="M872.27,-113.84C864.17,-96.02 849.26,-69.6 827.5,-56 789.43,-32.21 670.29,-20.27 592.67,-14.87"/>
<polygon fill="midnightblue" stroke="midnightblue" points="869.11,-115.35 876.26,-123.18 875.55,-112.6 869.11,-115.35"/>
</g>
<!-- Node16&#45;&gt;Node6 -->
<g id="edge35" class="edge">
<title>Node16&#45;&gt;Node6</title>
<path fill="none" stroke="midnightblue" d="M850.96,-119.33C824.95,-107.78 787.24,-91.03 764.66,-81.01"/>
<polygon fill="midnightblue" stroke="midnightblue" points="849.74,-122.62 860.3,-123.48 852.58,-116.22 849.74,-122.62"/>
</g>
<!-- Node17&#45;&gt;Node5 -->
<g id="edge39" class="edge">
<title>Node17&#45;&gt;Node5</title>
<path fill="none" stroke="midnightblue" d="M878.73,-413.26C940.55,-400.66 1016.5,-372.05 1016.5,-307.5 1016.5,-307.5 1016.5,-307.5 1016.5,-132 1016.5,-76.53 968.93,-76.78 917.5,-56 860.23,-32.85 689.93,-20.08 592.66,-14.48"/>
<polygon fill="midnightblue" stroke="midnightblue" points="877.71,-409.89 868.55,-415.21 879.03,-416.76 877.71,-409.89"/>
</g>
<!-- Node17&#45;&gt;Node6 -->
<g id="edge40" class="edge">
<title>Node17&#45;&gt;Node6</title>
<path fill="none" stroke="midnightblue" d="M786.21,-406.74C769.03,-385.48 742.5,-346.35 742.5,-307.5 742.5,-307.5 742.5,-307.5 742.5,-188 742.5,-148.08 744.31,-100.43 745.12,-81.19"/>
<polygon fill="midnightblue" stroke="midnightblue" points="783.57,-409.05 792.68,-414.47 788.94,-404.55 783.57,-409.05"/>
</g>
<!-- Node17&#45;&gt;Node12 -->
<g id="edge42" class="edge">
<title>Node17&#45;&gt;Node12</title>
<path fill="none" stroke="midnightblue" d="M732.4,-412.98C663.07,-402.78 556.77,-387.14 491.38,-377.52"/>
<polygon fill="midnightblue" stroke="midnightblue" points="731.94,-416.45 742.35,-414.44 732.96,-409.53 731.94,-416.45"/>
</g>
<!-- Node17&#45;&gt;Node15 -->
<g id="edge41" class="edge">
<title>Node17&#45;&gt;Node15</title>
<path fill="none" stroke="midnightblue" d="M808.2,-404.84C818.89,-379.66 837.79,-335.1 845.77,-316.28"/>
<polygon fill="midnightblue" stroke="midnightblue" points="804.87,-403.75 804.18,-414.32 811.31,-406.48 804.87,-403.75"/>
</g>
<!-- Node18&#45;&gt;Node12 -->
<g id="edge44" class="edge">
<title>Node18&#45;&gt;Node12</title>
<path fill="none" stroke="midnightblue" d="M398.75,-527.54C407.74,-486.54 425.67,-404.74 431.57,-377.82"/>
<polygon fill="midnightblue" stroke="midnightblue" points="395.29,-526.97 396.57,-537.48 402.13,-528.46 395.29,-526.97"/>
</g>
<!-- Node19&#45;&gt;Node10 -->
<g id="edge46" class="edge">
<title>Node19&#45;&gt;Node10</title>
<path fill="none" stroke="midnightblue" d="M526.6,-597.75C517.81,-589.57 509.18,-579.38 504.5,-568 499.26,-555.26 498.1,-549.2 504.5,-537 512.94,-520.89 529.11,-508.91 544.09,-500.66"/>
<polygon fill="midnightblue" stroke="midnightblue" points="524.42,-600.5 534.26,-604.41 529.01,-595.21 524.42,-600.5"/>
</g>
<!-- Node20 -->
<g id="node20" class="node">
<title>Node20</title>
<g id="a_node20"><a xlink:href="invoke__lambda_8hpp.html" target="_top" xlink:title=" ">
<polygon fill="white" stroke="black" points="513.5,-537.5 513.5,-567.5 641.5,-567.5 641.5,-537.5 513.5,-537.5"/>
<text text-anchor="start" x="521.5" y="-555.5" font-family="Helvetica,sans-Serif" font-size="10.00">Lyra/include/lyra/detail</text>
<text text-anchor="middle" x="577.5" y="-544.5" font-family="Helvetica,sans-Serif" font-size="10.00">/invoke_lambda.hpp</text>
</a>
</g>
</g>
<!-- Node19&#45;&gt;Node20 -->
<g id="edge47" class="edge">
<title>Node19&#45;&gt;Node20</title>
<path fill="none" stroke="midnightblue" d="M562.92,-594.7C566.15,-585.59 569.72,-575.49 572.52,-567.58"/>
<polygon fill="midnightblue" stroke="midnightblue" points="559.53,-593.8 559.49,-604.4 566.13,-596.14 559.53,-593.8"/>
</g>
<!-- Node20&#45;&gt;Node10 -->
<g id="edge48" class="edge">
<title>Node20&#45;&gt;Node10</title>
<path fill="none" stroke="midnightblue" d="M577.5,-527.11C577.5,-518.15 577.5,-508.32 577.5,-500.58"/>
<polygon fill="midnightblue" stroke="midnightblue" points="574,-527.4 577.5,-537.4 581,-527.4 574,-527.4"/>
</g>
</g>
</svg>
        <g id="navigator" transform="translate(0 0)" fill="#404254">
                <rect fill="#f2f5e9" fill-opacity="0.5" stroke="#606060" stroke-width=".5" x="0" y="0" width="60" height="60"/>
                <use id="zoomplus" xlink:href="#zoomPlus" x="17" y="9" onmousedown="handleZoom(evt,'in')"/>
                <use id="zoomminus" xlink:href="#zoomMin" x="42" y="9" onmousedown="handleZoom(evt,'out')"/>
                <use id="reset" xlink:href="#resetDef" x="30" y="36" onmousedown="handleReset()"/>
                <g id="arrowUp" xlink:href="#dirArrow" transform="translate(30 24)" onmousedown="handlePan(0,-1)">
                  <use xlink:href="#rim" fill="#404040">
                        <set attributeName="fill" to="#808080" begin="arrowUp.mouseover" end="arrowUp.mouseout"/>
                  </use>
                  <path fill="none" stroke="white" stroke-width="1.5" d="M0,-3.0v7 M-2.5,-0.5L0,-3.0L2.5,-0.5"/>
                </g>
                <g id="arrowRight" xlink:href="#dirArrow" transform="rotate(90) translate(36 -43)" onmousedown="handlePan(1,0)">
                  <use xlink:href="#rim" fill="#404040">
                        <set attributeName="fill" to="#808080" begin="arrowRight.mouseover" end="arrowRight.mouseout"/>
                  </use>
                  <path fill="none" stroke="white" stroke-width="1.5" d="M0,-3.0v7 M-2.5,-0.5L0,-3.0L2.5,-0.5"/>
                </g>
                <g id="arrowDown" xlink:href="#dirArrow" transform="rotate(180) translate(-30 -48)" onmousedown="handlePan(0,1)">
                  <use xlink:href="#rim" fill="#404040">
                        <set attributeName="fill" to="#808080" begin="arrowDown.mouseover" end="arrowDown.mouseout"/>
                  </use>
                  <path fill="none" stroke="white" stroke-width="1.5" d="M0,-3.0v7 M-2.5,-0.5L0,-3.0L2.5,-0.5"/>
                </g>
                <g id="arrowLeft" xlink:href="#dirArrow" transform="rotate(270) translate(-36 17)" onmousedown="handlePan(-1,0)">
                  <use xlink:href="#rim" fill="#404040">
                        <set attributeName="fill" to="#808080" begin="arrowLeft.mouseover" end="arrowLeft.mouseout"/>
                  </use>
                  <path fill="none" stroke="white" stroke-width="1.5" d="M0,-3.0v7 M-2.5,-0.5L0,-3.0L2.5,-0.5"/>
                </g>
        </g>
        <svg viewBox="0 0 15 15" width="100%" height="30px" preserveAspectRatio="xMaxYMin meet">
         <g id="arrow_out" transform="scale(0.3 0.3)">
          <a xlink:href="trait__utils_8hpp__dep__incl_org.svg" target="_base">
           <rect id="button" ry="5" rx="5" y="6" x="6" height="38" width="38"
                fill="#f2f5e9" fill-opacity="0.5" stroke="#606060" stroke-width="1.0"/>
           <path id="arrow"
             d="M 11.500037,31.436501 C 11.940474,20.09759 22.043105,11.32322 32.158766,21.979434 L 37.068811,17.246167 C 37.068811,17.246167 37.088388,32 37.088388,32 L 22.160133,31.978069 C 22.160133,31.978069 26.997745,27.140456 26.997745,27.140456 C 18.528582,18.264221 13.291696,25.230495 11.500037,31.436501 z"
             style="fill:#404040;"/>
          </a>
         </g>
        </svg>
</svg>
